<svg width="3136" height="1460" viewBox="0 0 3136 1460" fill="none" xmlns="http://www.w3.org/2000/svg">
<g clip-path="url(#clip0_30_14450)">
<rect width="3136" height="1460" transform="matrix(1 0 0 -1 0 1460)" fill="#F8F9F9"/>
<path opacity="0.3" fill-rule="evenodd" clip-rule="evenodd" d="M717.774 1051.19L97.1613 864.098C43.3053 847.569 37.5551 810.124 84.3078 780.396L630.232 412.452C685.922 371.477 738.878 356.21 820.427 385.881L1440.14 572.129C1494 588.657 1499.75 626.103 1452.99 655.831L931.749 1024.4C875.745 1067.43 819.619 1078.3 717.774 1051.19Z" fill="#DAE3E6"/>
<path opacity="0.4" fill-rule="evenodd" clip-rule="evenodd" d="M1608.31 1376.01L2696.28 1179.33C2789.21 1161.62 2805.68 1100.15 2733.08 1041.95L1889.2 327.557C1817.58 265.737 1685.21 230.264 1595.85 248.941L507.884 445.621C414.947 463.339 398.481 524.801 471.078 583.005L1314.96 1297.4C1398.23 1369.89 1519.92 1391.08 1608.31 1376.01Z" fill="white"/>
<g style="mix-blend-mode:luminosity" opacity="0.2">
<path fill-rule="evenodd" clip-rule="evenodd" d="M1503.26 1016.67L915.961 163.86C866.401 90.4052 896.367 38.9108 982.943 48.7548L2014.44 138.238C2102.78 145.053 2213.7 209.618 2260.26 281.328L2847.56 1134.14C2897.12 1207.59 2867.16 1259.09 2780.58 1249.24L1749.08 1159.76C1645.97 1152.24 1551.59 1085.35 1503.26 1016.67Z" fill="#D8DADC"/>
</g>
</g>
<defs>
<clipPath id="clip0_30_14450">
<rect width="3136" height="1460" fill="white" transform="matrix(1 0 0 -1 0 1460)"/>
</clipPath>
</defs>
</svg>
