<svg width="64" height="64" viewBox="0 0 64 64" fill="none" xmlns="http://www.w3.org/2000/svg">
<path d="M49 31C49 37.0751 44.0751 42 38 42C31.9249 42 27 37.0751 27 31C27 24.9249 31.9249 20 38 20C44.0751 20 49 24.9249 49 31Z" fill="white"/>
<path d="M38.5035 19.4999C32.1539 19.3878 27.1133 23.3614 27.0048 29.92C26.9432 33.6387 28.4026 37.7772 30.9576 39.9998C31.1246 39.8492 31.4509 39.6695 31.6501 39.5574L35.0811 37.6243C35.5311 37.3706 35.8114 36.8834 35.8114 36.3537V34.9015C35.8114 34.9015 34.8043 33.6573 34.4203 31.9285C34.1018 31.7156 33.8883 31.3477 33.8883 30.9286V29.3393C33.8883 28.9897 34.0389 28.6773 34.2727 28.4585V26.161C34.2727 26.161 33.8158 22.5857 38.5035 22.5857C43.1912 22.5857 42.7343 26.161 42.7343 26.161V28.4585C42.9686 28.6773 43.1187 28.9897 43.1187 29.3393V30.9286C43.1187 31.4629 42.7716 31.9124 42.3003 32.0626C42.0378 32.9056 41.659 33.7093 41.1583 34.4398C41.032 34.624 40.914 34.78 40.8107 34.9015V36.3904C40.8107 36.9386 41.1105 37.4401 41.5852 37.6848L45.2593 39.5821L46.0029 39.4998C48.4806 37.3655 49.4435 34.5935 49.5029 30.9998C49.5952 25.419 44.8535 19.6119 38.5035 19.4999Z" fill="url(#paint0_linear_2567_31081)"/>
<path fill-rule="evenodd" clip-rule="evenodd" d="M50 31C50 37.6274 44.6274 43 38 43C31.3726 43 26 37.6274 26 31C26 24.3726 31.3726 19 38 19C44.6274 19 50 24.3726 50 31ZM38 42C44.0751 42 49 37.0751 49 31C49 24.9249 44.0751 20 38 20C31.9249 20 27 24.9249 27 31C27 37.0751 31.9249 42 38 42Z" fill="#333333"/>
<path d="M36.0396 31.0003C36.0396 37.0966 31.0984 42.0387 25.0032 42.0387C18.908 42.0387 13.9668 37.0966 13.9668 31.0003C13.9668 24.904 18.908 19.9619 25.0032 19.9619C31.0984 19.9619 36.0396 24.904 36.0396 31.0003Z" fill="white"/>
<path d="M25.2081 19.0018C18.5819 18.8897 13.1181 24.1159 13.0049 30.6745C12.9406 34.3933 14.4617 37.7773 17.1279 40C17.3022 39.8494 17.6427 39.6697 17.8506 39.5576L21.4311 37.6245C21.9007 37.3708 22.1932 36.8836 22.1932 36.3538V34.9016C22.1932 34.9016 21.1422 33.6574 20.7414 31.9286C20.4091 31.7157 20.1863 31.3477 20.1863 30.9287V29.3393C20.1863 28.9897 20.3434 28.6773 20.5875 28.4586V26.161C20.5875 26.161 20.1107 22.5857 25.0025 22.5857C29.8944 22.5857 29.4176 26.161 29.4176 26.161V28.4586C29.6621 28.6773 29.8188 28.9897 29.8188 29.3393V30.9287C29.8188 31.4629 29.4566 31.9125 28.9648 32.0626C28.6908 32.9057 28.2955 33.7094 27.7729 34.4399C27.6412 34.6242 27.518 34.7801 27.4102 34.9016V36.3906C27.4102 36.9387 27.7231 37.4403 28.2185 37.685L32.0526 39.5823C32.2827 39.6961 32.6864 39.84 32.878 40C35.4636 37.8656 36.9382 34.6744 37.0002 31.0806C37.1143 24.5219 31.5499 19.109 25.2081 19.0018Z" fill="url(#paint1_linear_2567_31081)"/>
<path fill-rule="evenodd" clip-rule="evenodd" d="M37.0029 31C37.0029 37.6254 31.6324 43 25.0029 43C18.3735 43 13.0029 37.6254 13.0029 31C13.0029 24.3746 18.3735 19 25.0029 19C31.6324 19 37.0029 24.3746 37.0029 31ZM25.0029 42.0384C31.0982 42.0384 36.0393 37.0963 36.0393 31C36.0393 24.9037 31.0982 19.9616 25.0029 19.9616C18.9077 19.9616 13.9665 24.9037 13.9665 31C13.9665 37.0963 18.9077 42.0384 25.0029 42.0384Z" fill="#333333"/>
<path fill-rule="evenodd" clip-rule="evenodd" d="M59 26C59.3513 26 59.6768 26.1843 59.8575 26.4855L62.8575 31.4855C63.0429 31.7944 63.0477 32.1792 62.8702 32.4927C62.6927 32.8062 62.3603 33 62 33H56C55.6397 33 55.3073 32.8062 55.1298 32.4927C54.9523 32.1792 54.9571 31.7944 55.1425 31.4855L58.1425 26.4855C58.3232 26.1843 58.6487 26 59 26ZM59 27L56 32H62L59 27Z" fill="#333333"/>
<path fill-rule="evenodd" clip-rule="evenodd" d="M32 58C46.5769 58 58.4558 46.4484 58.9818 32H59.9825C59.4559 47.0008 47.1292 59 32 59C17.8068 59 6.08014 48.4397 4.24864 34.7477L5 36L5.35743 35.4043C7.46021 48.2211 18.5881 58 32 58ZM5 31C5 16.0883 17.0883 4 32 4C45.6901 4 57.0005 14.1888 58.7617 27.3971L59 27L59.8882 28.4803C58.6142 14.1969 46.6147 3 32 3C16.536 3 4 15.536 4 31H5Z" fill="#333333"/>
<path fill-rule="evenodd" clip-rule="evenodd" d="M5 37C5.35126 37 5.67677 36.8157 5.85749 36.5145L8.85749 31.5145C9.04285 31.2056 9.04771 30.8208 8.8702 30.5073C8.69269 30.1938 8.36027 30 8 30H2C1.63973 30 1.30731 30.1938 1.1298 30.5073C0.952295 30.8208 0.957149 31.2056 1.14251 31.5145L4.14251 36.5145C4.32323 36.8157 4.64874 37 5 37ZM5 36L2 31H8L5 36Z" fill="#333333"/>
<defs>
<linearGradient id="paint0_linear_2567_31081" x1="50.0028" y1="31.6452" x2="27.0048" y2="31.6452" gradientUnits="userSpaceOnUse">
<stop stop-color="#FF6F3D"/>
<stop offset="1" stop-color="#FF8E3D"/>
</linearGradient>
<linearGradient id="paint1_linear_2567_31081" x1="37.0028" y1="31.6454" x2="13.0029" y2="31.6454" gradientUnits="userSpaceOnUse">
<stop stop-color="#FF6F3D"/>
<stop offset="1" stop-color="#FF8E3D"/>
</linearGradient>
</defs>
</svg>
