<svg width="64" height="64" viewBox="0 0 64 64" fill="none" xmlns="http://www.w3.org/2000/svg">
<path fill-rule="evenodd" clip-rule="evenodd" d="M58.6083 17.5643L58.6059 17.5619L49.4184 8.3919L49.4171 8.39064C49.3645 8.33841 49.3154 8.28865 49.2729 8.24561L49.2571 8.22955C49.2089 8.18068 49.1711 8.14261 49.1365 8.1091C49.0664 8.04113 49.0356 8.01797 49.0229 8.00951C49.0124 8.00704 48.9753 8 48.8952 8H26.3478C25.5953 8 25 8.60253 25 9.32759V52.6724C25 53.3975 25.5953 54 26.3478 54H57.6522C58.4047 54 59 53.3975 59 52.6724V18.1093C59 18.0214 58.9912 17.9827 58.9884 17.9724C58.9868 17.9666 58.9863 17.9644 58.9798 17.9542C58.969 17.9373 58.9438 17.9031 58.8793 17.8351C58.8289 17.7819 58.7761 17.7298 58.7045 17.6592C58.6758 17.631 58.6441 17.5998 58.6083 17.5643ZM50.1224 7.68173L59.3123 16.8541C59.3405 16.8821 59.368 16.9091 59.3946 16.9353C59.7833 17.3182 60 17.5316 60 18.1093V52.6724C60 53.9579 58.9488 55 57.6522 55H26.3478C25.0512 55 24 53.9579 24 52.6724V9.32759C24 8.0421 25.0512 7 26.3478 7H48.8952C49.4488 7 49.6401 7.19385 49.9851 7.54364C50.0282 7.58727 50.0736 7.63333 50.1224 7.68173Z" fill="#333333"/>
<path fill-rule="evenodd" clip-rule="evenodd" d="M18.4088 8.56238C18.1563 8.922 18.0198 9.44231 18.0198 10.0244V52.148C18.0198 53.2821 18.7356 54.0001 19.3964 54.0001H21.5198C21.7959 54.0001 22.0198 54.2239 22.0198 54.5001C22.0198 54.7762 21.7959 55.0001 21.5198 55.0001H19.3964C17.9844 55.0001 17.0198 53.6119 17.0198 52.148V10.0244C17.0198 9.30744 17.1847 8.56556 17.5904 7.98774C18.0112 7.38852 18.6699 7 19.5497 7H21.5198C21.7959 7 22.0198 7.22386 22.0198 7.5C22.0198 7.77614 21.7959 8 21.5198 8H19.5497C19.0026 8 18.6463 8.22416 18.4088 8.56238Z" fill="#333333"/>
<path fill-rule="evenodd" clip-rule="evenodd" d="M12.3922 8.56238C12.1397 8.922 12.0032 9.44231 12.0032 10.0244V52.1479C12.0032 53.282 12.719 54 13.3798 54H15.5032C15.7793 54 16.0032 54.2239 16.0032 54.5C16.0032 54.7761 15.7793 55 15.5032 55H13.3798C11.9678 55 11.0032 53.6118 11.0032 52.1479V10.0244C11.0032 9.30744 11.1681 8.56556 11.5738 7.98774C11.9946 7.38852 12.6533 7 13.5331 7H15.5032C15.7793 7 16.0032 7.22386 16.0032 7.5C16.0032 7.77614 15.7793 8 15.5032 8H13.5331C12.986 8 12.6297 8.22416 12.3922 8.56238Z" fill="#333333"/>
<path d="M49.3536 7.64645C49.2106 7.50345 48.9955 7.46067 48.8087 7.53806C48.6218 7.61545 48.5 7.79777 48.5 8V16.182C48.5 16.8578 48.6636 17.4574 49.0734 17.8877C49.4874 18.3225 50.072 18.5001 50.7316 18.5001H59C59.2022 18.5001 59.3845 18.3783 59.4619 18.1915C59.5393 18.0046 59.4966 17.7896 59.3536 17.6466L49.3536 7.64645Z" fill="url(#paint0_linear_2567_31104)" stroke="#333333" stroke-linecap="round" stroke-linejoin="round"/>
<rect x="4.5" y="28.5" width="44.064" height="16" rx="1.5" fill="url(#paint1_linear_2567_31104)" stroke="#333333"/>
<path d="M15.3779 36.4209C15.3779 37.6025 15.085 38.5107 14.499 39.1455C13.9131 39.7803 13.0732 40.0977 11.9795 40.0977C10.8857 40.0977 10.0459 39.7803 9.45996 39.1455C8.87402 38.5107 8.58105 37.5993 8.58105 36.4111C8.58105 35.223 8.87402 34.3164 9.45996 33.6914C10.0492 33.0632 10.8923 32.749 11.9893 32.749C13.0863 32.749 13.9245 33.0648 14.5039 33.6963C15.0866 34.3278 15.3779 35.236 15.3779 36.4209ZM10.168 36.4209C10.168 37.2184 10.3193 37.819 10.6221 38.2227C10.9248 38.6263 11.3773 38.8281 11.9795 38.8281C13.1872 38.8281 13.791 38.0257 13.791 36.4209C13.791 34.8128 13.1904 34.0088 11.9893 34.0088C11.387 34.0088 10.9329 34.2122 10.627 34.6191C10.321 35.0228 10.168 35.6234 10.168 36.4209Z" fill="white"/>
<path d="M23.3369 36.4209C23.3369 37.6025 23.0439 38.5107 22.458 39.1455C21.8721 39.7803 21.0322 40.0977 19.9385 40.0977C18.8447 40.0977 18.0049 39.7803 17.4189 39.1455C16.833 38.5107 16.54 37.5993 16.54 36.4111C16.54 35.223 16.833 34.3164 17.4189 33.6914C18.0081 33.0632 18.8512 32.749 19.9482 32.749C21.0452 32.749 21.8835 33.0648 22.4629 33.6963C23.0456 34.3278 23.3369 35.236 23.3369 36.4209ZM18.127 36.4209C18.127 37.2184 18.2783 37.819 18.5811 38.2227C18.8838 38.6263 19.3363 38.8281 19.9385 38.8281C21.1462 38.8281 21.75 38.0257 21.75 36.4209C21.75 34.8128 21.1494 34.0088 19.9482 34.0088C19.346 34.0088 18.8919 34.2122 18.5859 34.6191C18.2799 35.0228 18.127 35.6234 18.127 36.4209Z" fill="white"/>
<path d="M30.5879 40H28.8594L27.1992 37.2998L25.5391 40H23.918L26.2861 36.3184L24.0693 32.8613H25.7393L27.2773 35.4297L28.7861 32.8613H30.417L28.1758 36.4014L30.5879 40Z" fill="white"/>
<path d="M34.5088 40L32.79 34.3994H32.7461C32.8079 35.5387 32.8389 36.2988 32.8389 36.6797V40H31.4863V32.8613H33.5469L35.2363 38.3203H35.2656L37.0576 32.8613H39.1182V40H37.707V36.6211C37.707 36.4616 37.7087 36.2777 37.7119 36.0693C37.7184 35.861 37.7412 35.3076 37.7803 34.4092H37.7363L35.8955 40H34.5088Z" fill="white"/>
<path d="M40.9199 40V32.8613H42.4336V38.75H45.3291V40H40.9199Z" fill="white"/>
<defs>
<linearGradient id="paint0_linear_2567_31104" x1="49" y1="7.60937" x2="59.0002" y2="18" gradientUnits="userSpaceOnUse">
<stop stop-color="#FFC671"/>
<stop offset="0.59375" stop-color="#FF7541"/>
<stop offset="1" stop-color="#FF6F3D"/>
</linearGradient>
<linearGradient id="paint1_linear_2567_31104" x1="4.00009" y1="27.3359" x2="14.9145" y2="57.3983" gradientUnits="userSpaceOnUse">
<stop stop-color="#FFC671"/>
<stop offset="0.59375" stop-color="#FF7541"/>
<stop offset="1" stop-color="#FF6F3D"/>
</linearGradient>
</defs>
</svg>
