<svg width="64" height="64" viewBox="0 0 64 64" fill="none" xmlns="http://www.w3.org/2000/svg">
<path d="M26.8287 40.1275C26.8287 37.9593 29.6365 37.5025 31.9949 37.5025L32.4366 37.5209C32.5303 37.5236 32.6239 37.5148 32.7156 37.4946L33.692 37.2925C34.0578 36.8612 34.5118 36.5163 35.0224 36.2819C35.1179 36.2372 35.2136 36.1979 35.3116 36.1612C35.2936 36.0588 35.2781 35.9539 35.2651 35.8488C35.1556 34.7558 35.4969 33.6656 36.208 32.8379C38.6191 30.0017 41.8909 28.0623 45.5072 27.3255C46.5767 27.1067 47.6874 27.3595 48.563 28.021C48.643 28.0788 48.7205 28.1418 48.7929 28.2075C48.8679 28.1419 48.9454 28.0789 49.0254 28.0185C49.9119 27.3547 51.0342 27.1057 52.1122 27.3333C55.2007 27.9809 58.0401 29.5193 60.2903 31.7644L61.0394 31.6094C61.4174 31.5316 61.7415 31.2861 61.9228 30.9401C62.5791 29.7309 62.9481 28.3824 63 27.0026C63 23.8683 60.4169 19.1276 56.5423 19.1276C55.0812 19.1475 53.6772 19.7074 52.5926 20.7026C51.9864 21.2874 51.2094 21.656 50.3789 21.7526C50.1077 20.8469 50.1464 17.592 51.9623 10.2025C52.4045 8.38724 51.3149 6.55126 49.5285 6.10177C49.2642 6.03532 48.9928 6.00198 48.7205 6.00259H37.143C36.12 6.00173 35.1994 6.63382 34.8182 7.59863C34.428 8.57796 34.6666 9.70027 35.4201 10.4283C36.4407 11.2862 37.07 12.5322 37.1612 13.875C37.1612 16.0459 34.3534 16.4999 31.9949 16.4999C29.6365 16.4999 26.8287 16.0458 26.8287 13.875C26.9216 12.5296 27.5549 11.2824 28.58 10.4257C29.3335 9.69756 29.5722 8.57537 29.1819 7.59605C28.8007 6.63124 27.8801 5.99927 26.8571 6.00001H15.2796C13.4393 5.99595 11.9441 7.50868 11.9401 9.37887C11.9395 9.6556 11.9723 9.93135 12.0377 10.2C13.8459 17.5788 13.8923 20.8338 13.6211 21.75C12.7906 21.6534 12.0136 21.2849 11.4074 20.7C10.3228 19.7048 8.91885 19.145 7.45774 19.125C3.58307 19.125 1 23.8658 1 27C1 30.1342 3.58307 34.875 7.45774 34.875C8.91885 34.855 10.3228 34.2952 11.4074 33.3C12.0136 32.7151 12.7906 32.3466 13.6211 32.25C13.8923 33.1557 13.8536 36.4106 12.0377 43.8C11.5968 45.6173 12.6891 47.4535 14.4774 47.9016C14.7408 47.9675 15.0109 48.0006 15.2821 48H26.8519C27.8752 48.0016 28.7961 47.3693 29.1767 46.404C29.5662 45.4245 29.3276 44.3027 28.5748 43.5743C27.5521 42.7174 26.9208 41.4711 26.8287 40.1275Z" fill="#D9F4FF"/>
<path fill-rule="evenodd" clip-rule="evenodd" d="M25.8287 40.1617V40.1275C25.8287 39.3479 26.0888 38.6804 26.5472 38.1493C26.9888 37.6375 27.5733 37.2986 28.1669 37.0692C29.339 36.6162 30.78 36.5025 31.9949 36.5025H32.0157L32.4689 36.5213C32.48 36.5214 32.4905 36.5202 32.5006 36.518L32.5128 36.5153L33.1734 36.3787C33.4913 36.0557 33.8523 35.7788 34.2462 35.5564C34.2194 34.3278 34.6436 33.1253 35.4478 32.1882C38.0022 29.1844 41.4703 27.1276 45.3068 26.3457C46.5115 26.0993 47.7562 26.3266 48.7935 26.9682C49.8436 26.3222 51.1029 26.0982 52.3188 26.3549C55.4212 27.0057 58.285 28.5025 60.6054 30.6781L60.8369 30.6302C60.9172 30.6136 60.993 30.5599 61.0372 30.4758L61.0405 30.4694L61.0439 30.4631C61.6235 29.3952 61.9511 28.2041 62 26.9842C61.9948 25.6534 61.4306 23.8946 60.4113 22.4723C59.3898 21.0468 58.0439 20.1303 56.549 20.1276C55.3417 20.1458 54.1792 20.6077 53.2771 21.4318C52.5158 22.1621 51.5398 22.6243 50.4944 22.7459L49.6615 22.8427L49.4209 22.0395C49.2219 21.3751 49.1906 20.1548 49.3939 18.3001C49.6028 16.3932 50.0762 13.6872 50.991 9.96459C51.3055 8.67059 50.525 7.38381 49.2847 7.0716C49.1006 7.02532 48.9119 7.00216 48.7228 7.00259L48.7205 7.00259L37.143 7.00259C36.5384 7.00208 35.9813 7.37608 35.7483 7.96607L35.7472 7.96881C35.5095 8.56522 35.6513 9.24469 36.0945 9.68901C37.3071 10.7226 38.0504 12.2099 38.1589 13.8072L38.1612 13.8411V13.875C38.1612 14.6549 37.9012 15.3228 37.4428 15.8542C37.001 16.3663 36.4164 16.7052 35.8227 16.9344C34.6505 17.387 33.2093 17.4999 31.9949 17.4999C30.7805 17.4999 29.3393 17.387 28.1671 16.9344C27.5734 16.7051 26.9888 16.3662 26.547 15.8541C26.0886 15.3227 25.8287 14.6549 25.8287 13.875V13.8405L25.831 13.806C25.9416 12.2061 26.6893 10.7177 27.9065 9.68561C28.349 9.24111 28.4904 8.5622 28.2529 7.96623L28.2519 7.96348C28.0188 7.37358 27.4626 6.99957 26.8578 7.00001L15.2774 7.00001C14.0044 6.9972 12.943 8.04793 12.9401 9.381C12.9397 9.577 12.9629 9.7724 13.0092 9.9627C13.9199 13.6796 14.3933 16.3826 14.6032 18.289C14.8074 20.1441 14.7778 21.3655 14.58 22.0338L14.3412 22.8405L13.5056 22.7433C12.4602 22.6217 11.4843 22.1595 10.723 21.4292C9.82086 20.6051 8.65834 20.1432 7.45104 20.125C5.95611 20.1278 4.61023 21.0442 3.5887 22.4697C2.5647 23.8986 2 25.6671 2 27C2 28.3329 2.5647 30.1014 3.5887 31.5303C4.61023 32.9558 5.95611 33.8722 7.45104 33.875C8.65834 33.8568 9.82086 33.3949 10.723 32.5708C11.4842 31.8405 12.4602 31.3783 13.5056 31.2567L14.3385 31.1599L14.5791 31.9631C14.7781 32.6275 14.8094 33.8478 14.6061 35.7025C14.3972 37.6092 13.9238 40.315 13.0092 44.0372C12.6956 45.333 13.4783 46.6203 14.7204 46.9315C14.9039 46.9775 15.0916 47.0004 15.2799 47L15.2821 47L26.8535 47C27.4577 47.0009 28.0138 46.6271 28.2464 46.0372L28.2475 46.0344C28.4847 45.4379 28.3431 44.7586 27.9005 44.3137C26.6861 43.2813 25.9406 41.794 25.831 40.1959L25.8287 40.1617ZM28.5748 43.5743C29.3276 44.3027 29.5662 45.4245 29.1767 46.404C28.7961 47.3693 27.8752 48.0016 26.8519 48H15.2821C15.0109 48.0006 14.7408 47.9675 14.4774 47.9016C12.6891 47.4535 11.5968 45.6173 12.0377 43.8C13.8536 36.4106 13.8923 33.1557 13.6211 32.25C12.7906 32.3466 12.0136 32.7151 11.4074 33.3C10.3228 34.2952 8.91885 34.855 7.45774 34.875C3.58307 34.875 1 30.1342 1 27C1 23.8658 3.58307 19.125 7.45774 19.125C8.91885 19.145 10.3228 19.7048 11.4074 20.7C12.0136 21.2849 12.7906 21.6534 13.6211 21.75C13.8923 20.8338 13.8459 17.5788 12.0377 10.2C11.9723 9.93135 11.9395 9.6556 11.9401 9.37887C11.9441 7.50868 13.4393 5.99595 15.2796 6.00001H26.8571C27.8801 5.99927 28.8007 6.63124 29.1819 7.59605C29.5722 8.57537 29.3335 9.69756 28.58 10.4257C27.5549 11.2824 26.9216 12.5296 26.8287 13.875C26.8287 16.0458 29.6365 16.4999 31.9949 16.4999C34.3534 16.4999 37.1612 16.0459 37.1612 13.875C37.07 12.5322 36.4407 11.2862 35.4201 10.4283C34.6666 9.70027 34.428 8.57796 34.8182 7.59863C35.1994 6.63382 36.12 6.00173 37.143 6.00259H48.7205C48.9928 6.00198 49.2642 6.03532 49.5285 6.10177C51.3149 6.55126 52.4045 8.38724 51.9623 10.2025C50.1464 17.592 50.1077 20.8469 50.3789 21.7526C51.2094 21.656 51.9864 21.2874 52.5926 20.7026C53.6772 19.7074 55.0812 19.1475 56.5423 19.1276C60.4169 19.1276 63 23.8683 63 27.0026C62.9481 28.3824 62.5791 29.7309 61.9228 30.9401C61.7415 31.2861 61.4174 31.5316 61.0394 31.6094L60.2903 31.7644C58.0401 29.5193 55.2007 27.9809 52.1122 27.3333C51.0342 27.1057 49.9119 27.3547 49.0254 28.0185C48.9454 28.0789 48.8679 28.1419 48.7929 28.2075C48.7205 28.1418 48.643 28.0788 48.563 28.021C47.6874 27.3595 46.5767 27.1067 45.5072 27.3255C41.8909 28.0623 38.6191 30.0017 36.208 32.8379C35.4969 33.6656 35.1556 34.7558 35.2651 35.8488C35.2781 35.9539 35.2936 36.0588 35.3116 36.1612C35.2136 36.1979 35.1179 36.2372 35.0224 36.2819C34.5118 36.5163 34.0578 36.8612 33.692 37.2925L32.7156 37.4946C32.6239 37.5148 32.5303 37.5236 32.4366 37.5209L31.9949 37.5025C29.6365 37.5025 26.8287 37.9593 26.8287 40.1275C26.9208 41.4711 27.5521 42.7174 28.5748 43.5743Z" fill="#333333"/>
<path d="M62.187 39.4491C61.9556 38.7524 61.1623 38.3795 60.4847 38.6714C59.9096 38.9316 59.2342 38.7162 58.9071 38.1684C58.5952 37.6038 58.7535 36.8902 59.2735 36.5172C59.8623 36.0678 59.9465 35.1836 59.467 34.6248C57.4614 32.2605 54.7412 30.6427 51.7344 30.026C51.3836 29.9528 51.0187 30.0359 50.7319 30.2541C50.4442 30.471 50.2595 30.8013 50.223 31.164C50.1921 31.8548 49.6174 32.3893 48.9394 32.3579C48.3046 32.3285 47.7965 31.8109 47.7675 31.164C47.731 30.8013 47.5463 30.471 47.2586 30.2541C46.9715 30.0361 46.6069 29.9531 46.2561 30.026C43.2493 30.6427 40.529 32.2606 38.5235 34.6248C38.0416 35.1841 38.1304 36.0691 38.7168 36.5172C39.2772 36.9023 39.4251 37.6773 39.047 38.2482C38.7057 38.7636 38.0439 38.9441 37.4955 38.6714C36.8175 38.3782 36.0224 38.7542 35.7933 39.4491C34.7395 42.3889 34.7395 45.6136 35.7933 48.5534C36.0288 49.261 36.8158 49.624 37.493 49.3311C38.1015 49.0314 38.8334 49.291 39.1276 49.911C39.3911 50.4663 39.2166 51.1344 38.717 51.4828C38.1281 51.9322 38.0439 52.8164 38.5235 53.3752C40.5288 55.7398 43.2492 57.3576 46.2561 57.974C46.6069 58.0472 46.9717 57.9642 47.2586 57.7459C47.5469 57.5284 47.7317 57.197 47.7675 56.8334C47.8211 56.1426 48.4141 55.6268 49.0921 55.6813C49.6959 55.7298 50.1754 56.2183 50.223 56.8334C50.2976 57.5751 51.0176 58.1279 51.7496 57.9715C54.7566 57.3552 57.4769 55.7373 59.4822 53.3728C59.9457 52.8348 59.8934 52.0158 59.3654 51.5436C58.8377 51.0709 58.5209 50.4158 58.9701 49.7472C59.3119 49.2382 59.9678 49.0603 60.5129 49.3288C61.1917 49.6209 61.9813 49.2438 62.2126 48.5511C63.2664 45.6113 63.2407 42.3889 62.187 39.4491ZM48.9837 50.4821C45.4706 50.4821 42.6226 47.5806 42.6226 44.0013C42.6226 40.4221 45.4706 37.5205 48.9837 37.5205C52.4969 37.5205 55.3448 40.4221 55.3448 44.0013C55.3449 47.5806 52.497 50.4821 48.9837 50.4821Z" fill="url(#paint0_linear_2932_30703)"/>
<path fill-rule="evenodd" clip-rule="evenodd" d="M38.7168 36.5172C38.1304 36.0691 38.0416 35.1841 38.5235 34.6248C40.529 32.2606 43.2493 30.6427 46.2561 30.026C46.6069 29.9531 46.9715 30.0361 47.2586 30.2541C47.5463 30.471 47.731 30.8013 47.7675 31.164C47.7965 31.8109 48.3046 32.3285 48.9394 32.3579C49.6174 32.3893 50.1921 31.8548 50.223 31.164C50.2595 30.8013 50.4442 30.471 50.7319 30.2541C51.0187 30.0359 51.3836 29.9528 51.7344 30.026C54.7412 30.6427 57.4614 32.2605 59.467 34.6248C59.9465 35.1836 59.8623 36.0678 59.2735 36.5172C58.7535 36.8902 58.5952 37.6038 58.9071 38.1684C59.2342 38.7162 59.9096 38.9316 60.4847 38.6714C61.1623 38.3795 61.9556 38.7524 62.187 39.4491C63.2407 42.3889 63.2664 45.6113 62.2126 48.5511C61.9813 49.2438 61.1917 49.6209 60.5129 49.3288C59.9678 49.0603 59.3119 49.2382 58.9701 49.7472C58.5209 50.4158 58.8377 51.0709 59.3654 51.5436C59.8934 52.0158 59.9457 52.8348 59.4822 53.3728C57.4769 55.7373 54.7566 57.3552 51.7496 57.9715C51.0176 58.1279 50.2976 57.5751 50.223 56.8334C50.1754 56.2183 49.6959 55.7298 49.0921 55.6813C48.4141 55.6268 47.8211 56.1426 47.7675 56.8334C47.7317 57.197 47.5469 57.5284 47.2586 57.7459C46.9717 57.9642 46.6069 58.0472 46.2561 57.974C43.2492 57.3576 40.5288 55.7398 38.5235 53.3752C38.0439 52.8164 38.1281 51.9322 38.717 51.4828C39.2166 51.1344 39.3911 50.4663 39.1276 49.911C38.8334 49.291 38.1015 49.0314 37.493 49.3311C36.8158 49.624 36.0288 49.261 35.7933 48.5534C34.7395 45.6136 34.7395 42.3889 35.7933 39.4491C36.0224 38.7542 36.8175 38.3782 37.4955 38.6714C38.0439 38.9441 38.7057 38.7636 39.047 38.2482C39.4251 37.6773 39.2772 36.9023 38.7168 36.5172ZM44.9032 39.0295C46.0077 38.0875 47.4307 37.5205 48.9837 37.5205C50.7416 37.5205 52.3329 38.247 53.4842 39.4213C54.6339 40.5939 55.3448 42.213 55.3448 44.0013C55.3448 44.3801 55.313 44.7512 55.2518 45.1121C54.9877 46.6699 54.1778 48.0373 53.0299 49.0023C52.1924 49.7065 51.1749 50.1965 50.0583 50.3901C49.709 50.4506 49.35 50.4821 48.9837 50.4821C47.2823 50.4821 45.7369 49.8016 44.5954 48.6931C43.38 47.5127 42.6226 45.8471 42.6226 44.0013C42.6226 42.0043 43.5092 40.2183 44.9032 39.0295ZM59.3413 39.6887C59.6851 39.7911 60.0538 39.8111 60.4166 39.7378C60.5745 39.7059 60.7312 39.6563 60.8844 39.5881C60.942 39.5646 61.0117 39.5641 61.0845 39.5977C61.1606 39.6328 61.2146 39.694 61.2379 39.7643L61.2416 39.7754L61.2456 39.7865C62.2232 42.5138 62.2448 45.4975 61.2713 48.2137L61.2676 48.224L61.2641 48.2344C61.2406 48.3047 61.186 48.3667 61.1097 48.4021C61.0406 48.4342 60.9751 48.4351 60.9197 48.4149C59.9263 47.9466 58.7498 48.2817 58.1399 49.1897C57.7496 49.7707 57.6698 50.4081 57.8411 50.9978C57.9998 51.5441 58.3511 51.9775 58.6987 52.289C58.8188 52.3964 58.8337 52.5934 58.7246 52.72L58.7196 52.726C56.8574 54.9217 54.3341 56.421 51.5488 56.9919L51.5407 56.9936C51.4853 57.0054 51.4138 56.995 51.3411 56.9403C51.2686 56.8856 51.2275 56.8104 51.2186 56.739C51.1265 55.6552 50.274 54.773 49.1722 54.6845C47.9303 54.5847 46.8742 55.5234 46.7717 56.741C46.7617 56.8277 46.7174 56.9015 46.6563 56.9476L46.6529 56.9502C46.5952 56.9941 46.5256 57.0087 46.4606 56.9951L46.4569 56.9943C43.6716 56.4234 41.1483 54.9241 39.2862 52.7284L39.2823 52.7239C39.234 52.6676 39.205 52.5838 39.2146 52.4875C39.2237 52.397 39.2634 52.3277 39.3153 52.2844C40.2008 51.648 40.4964 50.4631 40.031 49.4822C39.8255 49.0492 39.4984 48.711 39.1097 48.4919C38.5087 48.1532 37.7603 48.0989 37.0851 48.4177C36.9637 48.4624 36.7966 48.4013 36.7421 48.2376L36.7385 48.2268L36.7346 48.216C35.759 45.4943 35.759 42.5082 36.7346 39.7865L36.7389 39.7745L36.7429 39.7623C36.7653 39.6946 36.8184 39.6331 36.8954 39.5975C36.9655 39.5651 37.0318 39.5645 37.0867 39.5845C38.0858 40.0591 39.2723 39.7193 39.8808 38.8002C40.5496 37.7901 40.3035 36.4191 39.3143 35.7147C39.2634 35.6715 39.2236 35.602 39.2144 35.5116C39.2047 35.4153 39.2336 35.3327 39.2811 35.2775L39.2861 35.2717C41.1485 33.0762 43.6718 31.5769 46.457 31.0056L46.4596 31.0051C46.5251 30.9915 46.5953 31.0061 46.6538 31.0505L46.6566 31.0526C46.7152 31.0968 46.7585 31.1667 46.7707 31.2492C46.8413 32.3788 47.7403 33.3034 48.8932 33.3569C50.1271 33.4139 51.1445 32.4559 51.2198 31.2492C51.232 31.1667 51.2753 31.0968 51.3339 31.0526L51.3374 31.05C51.3954 31.0059 51.4651 30.9914 51.5299 31.0049L51.5335 31.0056C54.3187 31.5769 56.842 33.0761 58.7044 35.2717L58.7081 35.2761C58.7564 35.3324 58.7855 35.4162 58.7759 35.5125C58.7667 35.6045 58.7257 35.6745 58.6726 35.7177C57.75 36.3932 57.4815 37.6556 58.0318 38.6519L58.0399 38.6666L58.0485 38.6811C58.3482 39.1831 58.8157 39.5321 59.3413 39.6887ZM41.6226 44.0013C41.6226 42.0675 42.347 40.2987 43.5388 38.9672C44.8824 37.466 46.8201 36.5205 48.9837 36.5205C51.386 36.5205 53.5098 37.6861 54.8511 39.4837C55.7894 40.7412 56.3448 42.308 56.3448 44.0013C56.3449 45.9436 55.6141 47.7195 54.4129 49.0531C53.07 50.544 51.139 51.4821 48.9837 51.4821C46.6368 51.4821 44.5557 50.3696 43.2104 48.6423C42.2152 47.3646 41.6226 45.7505 41.6226 44.0013Z" fill="#333333"/>
<defs>
<linearGradient id="paint0_linear_2932_30703" x1="35.003" y1="28.9062" x2="63.0035" y2="57.9873" gradientUnits="userSpaceOnUse">
<stop stop-color="#FFC671"/>
<stop offset="0.59375" stop-color="#FF7541"/>
<stop offset="1" stop-color="#FF6F3D"/>
</linearGradient>
</defs>
</svg>
