<svg width="64" height="64" viewBox="0 0 64 64" fill="none" xmlns="http://www.w3.org/2000/svg">
<path fill-rule="evenodd" clip-rule="evenodd" d="M15.4054 8.56238C15.1529 8.922 15.0164 9.44231 15.0164 10.0244V52.148C15.0164 53.2821 15.7321 54.0001 16.393 54.0001H18.5164C18.7925 54.0001 19.0164 54.2239 19.0164 54.5001C19.0164 54.7762 18.7925 55.0001 18.5164 55.0001H16.393C14.981 55.0001 14.0164 53.6119 14.0164 52.148V10.0244C14.0164 9.30744 14.1813 8.56556 14.587 7.98774C15.0077 7.38852 15.6665 7 16.5463 7H18.5164C18.7925 7 19.0164 7.22386 19.0164 7.5C19.0164 7.77614 18.7925 8 18.5164 8H16.5463C15.9991 8 15.6429 8.22416 15.4054 8.56238Z" fill="#333333"/>
<path fill-rule="evenodd" clip-rule="evenodd" d="M9.38905 8.56238C9.13655 8.922 9 9.44231 9 10.0244V52.1479C9 53.282 9.71578 54 10.3766 54H12.5C12.7761 54 13 54.2239 13 54.5C13 54.7761 12.7761 55 12.5 55H10.3766C8.96462 55 8 53.6118 8 52.1479V10.0244C8 9.30744 8.16493 8.56556 8.57065 7.98774C8.99139 7.38852 9.65013 7 10.53 7H12.5C12.7761 7 13 7.22386 13 7.5C13 7.77614 12.7761 8 12.5 8H10.53C9.98278 8 9.62654 8.22416 9.38905 8.56238Z" fill="#333333"/>
<path fill-rule="evenodd" clip-rule="evenodd" d="M22.3449 7C21.0482 7 19.9971 8.0421 19.9971 9.32759V52.6724C19.9971 53.9579 21.0482 55 22.3449 55H53.6492C54.9459 55 55.9971 53.9579 55.9971 52.6724V18.5C55.9971 17.8827 55.7497 17.2907 55.3094 16.8541L46.1195 7.68173C45.6792 7.24523 45.082 7 44.4594 7H22.3449Z" fill="white"/>
<path d="M45.3536 7.64645C45.2106 7.50345 44.9955 7.46067 44.8087 7.53806C44.6218 7.61545 44.5 7.79777 44.5 8V16.182C44.5 16.8578 44.6636 17.4574 45.0734 17.8877C45.4874 18.3225 46.072 18.5001 46.7316 18.5001H55C55.2022 18.5001 55.3845 18.3783 55.4619 18.1915C55.5393 18.0046 55.4966 17.7896 55.3536 17.6466L45.3536 7.64645Z" fill="url(#paint0_linear_2567_31073)" stroke="#333333" stroke-linecap="round" stroke-linejoin="round"/>
<path fill-rule="evenodd" clip-rule="evenodd" d="M54.6054 17.5643L54.603 17.5619L45.4155 8.3919L45.4142 8.39064C45.3615 8.33841 45.3125 8.28865 45.27 8.24561L45.2542 8.22955C45.2059 8.18068 45.1681 8.14261 45.1336 8.1091C45.0634 8.04113 45.0327 8.01797 45.02 8.00951C45.0094 8.00704 44.9724 8 44.8923 8H22.3449C21.5923 8 20.9971 8.60253 20.9971 9.32759V52.6724C20.9971 53.3975 21.5923 54 22.3449 54H53.6492C54.4018 54 54.9971 53.3975 54.9971 52.6724V18.1093C54.9971 18.0214 54.9882 17.9827 54.9855 17.9724C54.9839 17.9666 54.9834 17.9644 54.9768 17.9542C54.966 17.9373 54.9408 17.9031 54.8764 17.8351C54.826 17.7819 54.7731 17.7298 54.7015 17.6592C54.6728 17.631 54.6411 17.5998 54.6054 17.5643ZM46.1195 7.68173L55.3094 16.8541C55.3376 16.8821 55.365 16.9091 55.3916 16.9353C55.7804 17.3182 55.9971 17.5316 55.9971 18.1093V52.6724C55.9971 53.9579 54.9459 55 53.6492 55H22.3449C21.0482 55 19.9971 53.9579 19.9971 52.6724V9.32759C19.9971 8.0421 21.0482 7 22.3449 7H44.8923C45.4459 7 45.6371 7.19385 45.9822 7.54364C46.0253 7.58727 46.0707 7.63333 46.1195 7.68173Z" fill="#333333"/>
<rect x="0.5" y="37.5" width="37" height="18" rx="1.5" fill="url(#paint1_linear_2567_31073)" stroke="#333333"/>
<path d="M6.92076 51H5V42H10.2774V43.5636H6.92076V45.8844H10.0444V47.4419H6.92076V51Z" fill="white"/>
<path d="M14.0307 45.9952H14.6605C15.2777 45.9952 15.7332 45.8947 16.0271 45.6936C16.321 45.4925 16.4679 45.1765 16.4679 44.7456C16.4679 44.3187 16.3168 44.015 16.0145 43.8345C15.7164 43.6539 15.2525 43.5636 14.6227 43.5636H14.0307V45.9952ZM14.0307 47.5465V51H12.0785V42H14.7613C16.0124 42 16.9381 42.2237 17.5385 42.671C18.1389 43.1142 18.439 43.7893 18.439 44.6963C18.439 45.2257 18.29 45.6977 17.9919 46.1122C17.6938 46.5226 17.2719 46.8447 16.7261 47.0787C18.1116 49.1019 19.0142 50.409 19.4341 51H17.2677L15.0698 47.5465H14.0307Z" fill="white"/>
<path d="M25.8954 51H20.5928V42H25.8954V43.5636H22.5451V45.5397H25.6624V47.1033H22.5451V49.4241H25.8954V51Z" fill="white"/>
<path d="M33.125 51H27.8224V42H33.125V43.5636H29.7747V45.5397H32.892V47.1033H29.7747V49.4241H33.125V51Z" fill="white"/>
<defs>
<linearGradient id="paint0_linear_2567_31073" x1="45" y1="7.60937" x2="55.0002" y2="18" gradientUnits="userSpaceOnUse">
<stop stop-color="#FFC671"/>
<stop offset="0.59375" stop-color="#FF7541"/>
<stop offset="1" stop-color="#FF6F3D"/>
</linearGradient>
<linearGradient id="paint1_linear_2567_31073" x1="1.00007" y1="37.3359" x2="13.8163" y2="65.5363" gradientUnits="userSpaceOnUse">
<stop stop-color="#FF8E3D"/>
<stop offset="1" stop-color="#FF6F3D"/>
</linearGradient>
</defs>
</svg>
