<svg width="304" height="246" viewBox="0 0 304 246" fill="none" xmlns="http://www.w3.org/2000/svg">
<rect width="304" height="42.8" rx="8" fill="white"/>
<g clip-path="url(#clip0_578_21654)">
<path d="M126.533 25.7501L126.519 25.7075L135.059 17.9267V14.1777H121.358V17.9267H129.542L129.555 17.9626L121.099 25.7501V29.4992H135.196V25.7501H126.533Z" fill="#0D1117"/>
<path d="M143.605 13.8202C142.024 13.8202 140.736 14.0574 139.741 14.5318C138.814 14.9453 138.033 15.6265 137.499 16.4871C136.989 17.3534 136.668 18.3174 136.558 19.3157L140.715 19.8971C140.866 19.0156 141.167 18.3908 141.618 18.0226C142.13 17.6376 142.762 17.443 143.404 17.4726C144.247 17.4726 144.859 17.6971 145.24 18.1461C145.617 18.5951 145.808 19.2169 145.808 20.0363V20.4449H141.812C139.777 20.4449 138.315 20.8938 137.427 21.7918C136.538 22.6898 136.095 23.8751 136.096 25.3477C136.096 26.8563 136.54 27.9788 137.427 28.715C138.314 29.4514 139.43 29.8173 140.774 29.8127C142.442 29.8127 143.724 29.2419 144.622 28.1C145.152 27.3982 145.531 26.5949 145.734 25.7406H145.885L146.458 29.4894H150.225V19.9959C150.225 18.0339 149.705 16.5141 148.666 15.4365C147.627 14.359 145.94 13.8202 143.605 13.8202ZM144.922 25.5228C144.324 26.0189 143.542 26.2659 142.567 26.2659C141.764 26.2659 141.206 26.1259 140.894 25.8461C140.741 25.7137 140.62 25.5495 140.538 25.3652C140.457 25.1809 140.417 24.981 140.422 24.7797C140.413 24.5899 140.443 24.4003 140.51 24.2224C140.577 24.0445 140.68 23.882 140.812 23.7449C140.955 23.6114 141.124 23.5082 141.308 23.4415C141.492 23.3747 141.688 23.3458 141.884 23.3565H145.815V23.6146C145.823 23.9796 145.747 24.3414 145.592 24.6723C145.437 25.0031 145.208 25.2941 144.922 25.5228Z" fill="#0D1117"/>
<path d="M173 14.1777H168.55V29.5013H173V14.1777Z" fill="#0D1117"/>
<path d="M199.272 14.1777C198.015 14.1777 197.024 14.6192 196.3 15.5022C195.779 16.1368 195.384 17.0744 195.113 18.3151H194.982L194.4 14.1777H190.6V29.4992H195.05V21.642C195.05 20.6513 195.283 19.8917 195.749 19.3634C196.215 18.8351 197.075 18.571 198.329 18.571H200.019V14.1777H199.272Z" fill="#0D1117"/>
<path d="M186.188 14.6781C185.149 14.063 183.839 13.7562 182.257 13.7577C179.767 13.7577 177.818 14.4633 176.411 15.8746C175.003 17.2859 174.3 19.2315 174.3 21.7113C174.264 23.2106 174.592 24.6963 175.258 26.0417C175.867 27.2407 176.816 28.2357 177.987 28.9039C179.166 29.582 180.568 29.9217 182.194 29.9231C183.6 29.9231 184.774 29.7076 185.717 29.2767C186.603 28.8896 187.375 28.2828 187.959 27.5144C188.515 26.76 188.928 25.911 189.177 25.0091L185.342 23.9405C185.181 24.527 184.87 25.0621 184.44 25.494C184.007 25.925 183.282 26.1405 182.264 26.1405C181.053 26.1405 180.151 25.7955 179.557 25.1056C179.126 24.6072 178.856 23.8956 178.736 22.9729H189.236C189.278 22.5419 189.301 22.1805 189.301 21.8887V20.9346C189.326 19.6529 189.06 18.382 188.523 17.2171C188.02 16.1558 187.206 15.2708 186.188 14.6781ZM182.128 17.4101C183.933 17.4101 184.956 18.2939 185.198 20.0613H178.815C178.916 19.4716 179.162 18.9157 179.53 18.4428C180.115 17.7528 180.981 17.4086 182.128 17.4101Z" fill="#0D1117"/>
<path d="M170.822 8.00186C170.487 7.99053 170.154 8.0463 169.841 8.16584C169.528 8.28539 169.243 8.46628 169.002 8.69776C168.764 8.93147 168.578 9.2118 168.455 9.52095C168.332 9.83011 168.275 10.1613 168.287 10.4937C168.275 10.8281 168.332 11.1615 168.455 11.4729C168.579 11.7843 168.765 12.0671 169.003 12.3036C169.241 12.5402 169.525 12.7254 169.838 12.8477C170.151 12.9701 170.486 13.0269 170.822 13.0146C171.156 13.0272 171.489 12.9704 171.8 12.8479C172.11 12.7254 172.392 12.5398 172.627 12.303C172.859 12.0638 173.041 11.7802 173.161 11.4692C173.281 11.1583 173.336 10.8264 173.323 10.4937C173.339 10.1628 173.285 9.83247 173.165 9.52364C173.045 9.21481 172.861 8.9343 172.626 8.70003C172.391 8.46575 172.109 8.28286 171.799 8.16304C171.489 8.04321 171.157 7.98909 170.824 8.00411L170.822 8.00186Z" fill="#0D1117"/>
<path d="M161.631 13.7577C160.115 13.7577 158.897 14.2313 157.977 15.1787C157.295 15.8806 156.796 16.9282 156.477 18.3215H156.335L155.753 14.1842H151.952V33.9033H156.402V25.7813H156.565C156.701 26.3229 156.891 26.8493 157.133 27.3527C157.51 28.1726 158.127 28.8599 158.904 29.3237C159.709 29.7611 160.616 29.9789 161.534 29.9546C163.397 29.9546 164.815 29.2325 165.79 27.7882C166.764 26.344 167.251 24.3289 167.251 21.7428C167.251 19.245 166.78 17.2897 165.837 15.8769C164.894 14.4641 163.492 13.7577 161.631 13.7577ZM162.082 24.8609C161.563 25.6092 160.751 25.9833 159.646 25.9833C159.19 26.0043 158.736 25.9169 158.321 25.7283C157.906 25.5397 157.542 25.2555 157.259 24.8991C156.683 24.1792 156.396 23.1937 156.398 21.9425V21.6507C156.398 20.3801 156.685 19.4073 157.259 18.7323C157.834 18.0574 158.629 17.7236 159.646 17.7311C160.771 17.7311 161.588 18.0866 162.097 18.7974C162.607 19.5083 162.862 20.4998 162.862 21.7719C162.865 23.0874 162.606 24.1171 162.086 24.8609H162.082Z" fill="#0D1117"/>
<path d="M119.375 25.7496H103.979V29.5031H119.375V25.7496Z" fill="#FF4F00"/>
</g>
<rect y="50.8" width="304" height="42.8" rx="8" fill="white"/>
<g clip-path="url(#clip1_578_21654)">
<path d="M128.794 80.4277H115.087C114.181 80.4277 113.322 79.9446 112.904 79.1198C112.427 78.177 112.602 77.0459 113.333 76.3035L122.87 66.6293H116.04C114.158 66.6293 112.636 65.0857 112.636 63.1768H125.263C126.169 63.1768 127.028 63.6599 127.446 64.4847C127.923 65.4274 127.748 66.5586 127.017 67.301L117.48 76.9751H125.39C127.272 76.9751 128.794 78.5188 128.794 80.4277ZM183.04 62.9175C181.077 62.9175 179.311 63.7777 178.103 65.1564C176.883 63.7777 175.117 62.9175 173.166 62.9175C169.519 62.9175 166.545 66.0755 166.545 69.7637V80.4277C168.427 80.4277 169.948 78.884 169.948 76.9751V69.7283C169.948 67.949 171.307 66.4408 173.05 66.3701C174.885 66.2994 176.407 67.7959 176.407 69.6459V76.9751C176.407 78.884 177.928 80.4277 179.81 80.4277V69.7283C179.81 67.949 181.169 66.4408 182.911 66.3701C184.747 66.2994 186.269 67.7959 186.269 69.6459V76.9751C186.269 78.884 187.79 80.4277 189.672 80.4277V69.7637C189.66 66.0755 186.687 62.9175 183.04 62.9175ZM145.962 71.8022C145.962 76.7042 142.036 80.6869 137.204 80.6869C132.372 80.6869 128.445 76.7042 128.445 71.8022C128.445 66.9003 132.383 62.9175 137.204 62.9175C142.024 62.9175 145.962 66.9003 145.962 71.8022ZM142.558 71.8022C142.558 68.8093 140.154 66.3701 137.204 66.3701C134.253 66.3701 131.849 68.8093 131.849 71.8022C131.849 74.7953 134.253 77.2344 137.204 77.2344C140.154 77.2344 142.558 74.7953 142.558 71.8022ZM164.837 71.8022C164.837 76.7042 160.912 80.6869 156.079 80.6869C151.247 80.6869 147.321 76.7042 147.321 71.8022C147.321 66.9003 151.259 62.9175 156.079 62.9175C160.9 62.9175 164.837 66.9003 164.837 71.8022ZM161.434 71.8022C161.434 68.8093 159.03 66.3701 156.079 66.3701C153.129 66.3701 150.724 68.8093 150.724 71.8022C150.724 74.7953 153.129 77.2344 156.079 77.2344C159.03 77.2344 161.434 74.7953 161.434 71.8022Z" fill="#0B5CFF"/>
</g>
<path d="M0 109.6C0 105.182 3.58172 101.6 8 101.6H296C300.418 101.6 304 105.182 304 109.6V136.4C304 140.818 300.418 144.4 296 144.4H8.00001C3.58173 144.4 0 140.818 0 136.4V109.6Z" fill="white"/>
<g clip-path="url(#clip2_578_21654)">
<path d="M116.386 116.111C114.695 114.425 113.088 112.813 112.608 111C112.138 112.813 110.517 114.425 108.826 116.111C106.295 118.643 103.423 121.51 103.423 125.815C103.396 127.038 103.614 128.253 104.064 129.391C104.513 130.528 105.185 131.564 106.041 132.439C106.896 133.313 107.918 134.007 109.045 134.482C110.172 134.956 111.383 135.2 112.606 135.2C113.829 135.2 115.04 134.956 116.167 134.482C117.295 134.007 118.316 133.313 119.171 132.439C120.027 131.564 120.699 130.528 121.148 129.391C121.598 128.253 121.816 127.038 121.789 125.815C121.789 121.51 118.918 118.643 116.386 116.111ZM108.146 126.651C107.866 127.004 107.625 127.387 107.427 127.793C107.413 127.825 107.391 127.854 107.364 127.876C107.337 127.899 107.305 127.915 107.271 127.924H107.192C106.987 127.924 106.756 127.523 106.756 127.523C106.695 127.427 106.639 127.327 106.582 127.222L106.543 127.139C106.011 125.924 106.473 124.194 106.473 124.194C106.701 123.351 107.072 122.553 107.571 121.837C107.876 121.381 108.208 120.945 108.565 120.529L109 120.965L111.057 123.065C111.096 123.108 111.117 123.164 111.117 123.222C111.117 123.28 111.096 123.336 111.057 123.379L108.909 125.763L108.146 126.651ZM112.713 132.669C112.102 132.665 111.505 132.486 110.993 132.151C110.482 131.817 110.077 131.342 109.829 130.783C109.581 130.225 109.499 129.607 109.593 129.003C109.687 128.399 109.953 127.835 110.36 127.379C111.031 126.582 111.85 125.797 112.739 124.765C113.793 125.889 114.482 126.66 115.157 127.505C115.21 127.571 115.257 127.641 115.297 127.715C115.666 128.24 115.864 128.867 115.863 129.51C115.864 129.924 115.784 130.335 115.626 130.718C115.468 131.101 115.236 131.45 114.944 131.743C114.651 132.037 114.303 132.269 113.92 132.428C113.538 132.587 113.127 132.669 112.713 132.669ZM118.674 127.619C118.653 127.684 118.615 127.742 118.564 127.787C118.512 127.831 118.449 127.861 118.382 127.871H118.321C118.196 127.831 118.09 127.746 118.024 127.632C117.474 126.806 116.85 126.032 116.159 125.318L115.319 124.447L112.525 121.549C111.939 121.006 111.38 120.433 110.852 119.832C110.839 119.809 110.825 119.788 110.809 119.767C110.714 119.633 110.639 119.486 110.586 119.331C110.586 119.305 110.586 119.275 110.586 119.248C110.548 119.011 110.567 118.769 110.643 118.541C110.719 118.313 110.849 118.107 111.022 117.941C111.563 117.401 112.107 116.856 112.621 116.29C113.188 116.917 113.793 117.519 114.39 118.115C115.608 119.25 116.71 120.502 117.68 121.854C118.499 123.014 118.944 124.395 118.957 125.815C118.95 126.427 118.855 127.034 118.674 127.619Z" fill="#009CDE"/>
<path d="M162.625 120.15H159.632V125.754C159.632 127.392 158.926 128.721 157.288 128.721C155.649 128.721 154.935 127.392 154.935 125.754V120.15H151.946V125.754C151.946 128.996 154.028 131.623 157.27 131.623C160.512 131.623 162.625 129.009 162.625 125.754V120.15Z" fill="#009CDE"/>
<path d="M192.665 116.721H189.68V131.336H192.665V116.721Z" fill="#009CDE"/>
<path d="M194.869 117.257V116.734H197.192V117.257H196.342V119.571H195.719V117.257H194.869Z" fill="#009CDE"/>
<path d="M198.399 116.734L199.061 118.686H199.07L199.697 116.734H200.577V119.575H199.993V117.562H199.985L199.288 119.575H198.808L198.111 117.58H198.102V119.575H197.519V116.734H198.399Z" fill="#009CDE"/>
<path d="M149.505 120.02C146.93 119.423 145.309 121.98 145.24 122.12C145.209 122.185 145.205 122.224 145.092 122.22C144.978 122.216 144.987 122.12 144.987 122.12L144.669 120.15H141.993V131.322H144.991V125.283C144.991 124.786 146.298 122.42 148.913 123.03C149.596 123.158 150.235 123.458 150.769 123.902V120.49C150.377 120.278 149.958 120.119 149.523 120.02" fill="#009CDE"/>
<path d="M169.601 122.847C170.193 122.848 170.772 123.025 171.264 123.354C171.755 123.684 172.138 124.152 172.364 124.699C172.59 125.247 172.648 125.849 172.532 126.429C172.416 127.01 172.13 127.543 171.711 127.961C171.291 128.379 170.758 128.663 170.177 128.778C169.596 128.892 168.994 128.832 168.447 128.605C167.901 128.377 167.434 127.993 167.106 127.5C166.777 127.008 166.603 126.429 166.603 125.837C166.603 125.444 166.681 125.055 166.831 124.692C166.982 124.329 167.202 123.999 167.481 123.721C167.759 123.444 168.089 123.224 168.452 123.074C168.815 122.924 169.204 122.847 169.597 122.847M166.691 135V130.982V129.479C166.691 129.479 166.691 129.362 166.804 129.357C166.917 129.353 166.922 129.423 166.948 129.479C167.283 130.281 167.901 130.931 168.684 131.308C169.467 131.684 170.361 131.761 171.196 131.523C172.254 131.224 173.208 130.637 173.951 129.826C174.693 129.015 175.195 128.012 175.399 126.932C175.603 125.851 175.501 124.736 175.105 123.71C174.709 122.684 174.035 121.789 173.159 121.125C172.282 120.461 171.237 120.056 170.143 119.953C169.048 119.851 167.946 120.056 166.962 120.546C165.977 121.035 165.149 121.79 164.57 122.724C163.991 123.659 163.684 124.737 163.684 125.837V134.987L166.691 135Z" fill="#009CDE"/>
<path d="M185.545 125.837C185.546 126.429 185.371 127.008 185.042 127.501C184.713 127.994 184.246 128.379 183.699 128.606C183.152 128.833 182.549 128.892 181.968 128.777C181.387 128.662 180.853 128.376 180.435 127.958C180.016 127.539 179.73 127.005 179.615 126.424C179.5 125.843 179.559 125.24 179.786 124.693C180.014 124.146 180.398 123.679 180.891 123.35C181.384 123.022 181.963 122.847 182.556 122.847C183.348 122.849 184.108 123.164 184.668 123.724C185.228 124.285 185.544 125.044 185.545 125.837ZM185.462 131.327H188.464V125.837C188.464 124.737 188.157 123.659 187.578 122.724C186.999 121.79 186.171 121.035 185.186 120.546C184.202 120.056 183.1 119.851 182.005 119.953C180.911 120.056 179.866 120.461 178.99 121.125C178.113 121.789 177.439 122.684 177.043 123.71C176.647 124.736 176.546 125.851 176.75 126.932C176.954 128.012 177.455 129.015 178.197 129.826C178.94 130.637 179.894 131.224 180.952 131.523C181.788 131.761 182.683 131.685 183.466 131.308C184.25 130.932 184.868 130.281 185.205 129.479C185.227 129.423 185.248 129.357 185.344 129.357C185.44 129.357 185.458 129.479 185.458 129.479" fill="#009CDE"/>
<path d="M133.418 119.244H132.211V128.773L133.449 128.804C135.989 128.804 137.623 128.573 137.623 124.011C137.623 119.654 136.181 119.244 133.418 119.244ZM132.617 131.305H129.192V116.712H132.852C137.283 116.712 140.643 117.527 140.643 124.011C140.643 130.495 137.083 131.305 132.617 131.305Z" fill="#009CDE"/>
</g>
<path d="M0 160.4C0 155.982 3.58172 152.4 8 152.4H296C300.418 152.4 304 155.982 304 160.4V187.2C304 191.618 300.418 195.2 296 195.2H8.00001C3.58173 195.2 0 191.618 0 187.2V160.4Z" fill="white"/>
<path d="M161.172 171.034H156.658V171.512C158.07 171.512 158.297 171.815 158.297 173.604V176.83C158.297 178.619 158.07 178.947 156.658 178.947C155.574 178.796 154.842 178.216 153.833 177.107L152.673 175.847C154.237 175.57 155.069 174.587 155.069 173.478C155.069 172.092 153.884 171.034 151.664 171.034H147.226V171.512C148.638 171.512 148.865 171.815 148.865 173.604V176.83C148.865 178.619 148.638 178.947 147.226 178.947V179.426H152.244V178.947C150.832 178.947 150.605 178.619 150.605 176.83V175.923H151.034L153.834 179.426H161.172C164.778 179.426 166.342 177.511 166.342 175.217C166.342 172.924 164.779 171.034 161.172 171.034ZM150.606 175.141V171.79H151.639C152.774 171.79 153.279 172.571 153.279 173.478C153.279 174.36 152.774 175.141 151.639 175.141L150.606 175.141ZM161.248 178.644H161.071C160.164 178.644 160.038 178.418 160.038 177.259V171.79H161.248C163.871 171.79 164.35 173.705 164.35 175.192C164.35 176.729 163.87 178.644 161.248 178.644ZM133.18 176.074L134.92 170.933C135.424 169.446 135.197 169.018 133.583 169.018V168.514H138.324V169.018C136.736 169.018 136.357 169.396 135.727 171.235L132.852 179.854H132.524L129.952 171.966L127.329 179.854H127.001L124.202 171.236C123.596 169.396 123.193 169.018 121.73 169.018V168.514H127.329V169.018C125.841 169.018 125.437 169.371 125.967 170.933L127.656 176.074L130.203 168.514H130.683L133.18 176.074ZM141.754 179.753C138.98 179.753 136.71 177.712 136.71 175.217C136.71 172.747 138.98 170.706 141.754 170.706C144.528 170.706 146.797 172.747 146.797 175.217C146.797 177.712 144.528 179.753 141.754 179.753ZM141.754 171.488C139.434 171.488 138.627 173.579 138.627 175.217C138.627 176.88 139.434 178.947 141.754 178.947C144.099 178.947 144.906 176.88 144.906 175.217C144.906 173.579 144.099 171.488 141.754 171.488Z" fill="#333333"/>
<path d="M172.571 178.921V179.425H166.795V178.921C168.485 178.921 168.788 178.493 168.788 175.973V171.941C168.788 169.421 168.485 169.018 166.795 169.018V168.514H172.016C174.613 168.514 176.051 169.849 176.051 171.639C176.051 173.378 174.613 174.738 172.016 174.738H170.578V175.973C170.578 178.493 170.881 178.921 172.571 178.921ZM172.016 169.421H170.578V173.806H172.016C173.428 173.806 174.084 172.823 174.084 171.639C174.084 170.429 173.428 169.421 172.016 169.421ZM193.376 177.057L193.25 177.51C193.023 178.342 192.745 178.644 190.955 178.644H190.602C189.29 178.644 189.063 178.342 189.063 176.553V175.394C191.031 175.394 191.182 175.57 191.182 176.881H191.661V173.125H191.182C191.182 174.436 191.031 174.612 189.063 174.612V171.79H190.45C192.241 171.79 192.518 172.092 192.745 172.924L192.872 173.403H193.275L193.099 171.034H185.684V171.513C187.096 171.513 187.323 171.815 187.323 173.604V176.83C187.323 178.467 187.131 178.879 186.017 178.938C184.959 178.776 184.232 178.2 183.238 177.107L182.078 175.847C183.642 175.57 184.474 174.587 184.474 173.478C184.474 172.092 183.289 171.034 181.07 171.034H176.631V171.512C178.043 171.512 178.27 171.815 178.27 173.604V176.83C178.27 178.619 178.044 178.947 176.631 178.947V179.426H181.65V178.947C180.238 178.947 180.011 178.619 180.011 176.83V175.923H180.439L183.239 179.426H193.604L193.755 177.057L193.376 177.057ZM180.01 175.141V171.79H181.044C182.179 171.79 182.683 172.571 182.683 173.478C182.683 174.36 182.179 175.141 181.044 175.141L180.01 175.141ZM198.495 179.753C197.487 179.753 196.604 179.224 196.226 178.896C196.099 179.022 195.873 179.4 195.822 179.753H195.343V176.275H195.847C196.049 177.939 197.209 178.921 198.697 178.921C199.504 178.921 200.16 178.468 200.16 177.712C200.16 177.057 199.58 176.553 198.546 176.074L197.108 175.394C196.099 174.915 195.343 174.083 195.343 172.974C195.343 171.765 196.478 170.732 198.041 170.732C198.874 170.732 199.58 171.034 200.009 171.387C200.135 171.286 200.261 171.009 200.337 170.706H200.816V173.68H200.286C200.109 172.496 199.454 171.513 198.117 171.513C197.411 171.513 196.755 171.916 196.755 172.546C196.755 173.201 197.285 173.554 198.496 174.108L199.882 174.789C201.093 175.368 201.572 176.301 201.572 177.057C201.572 178.644 200.185 179.753 198.495 179.753ZM206.263 179.753C205.254 179.753 204.371 179.224 203.993 178.896C203.867 179.022 203.64 179.4 203.59 179.753H203.11V176.275H203.615C203.817 177.939 204.976 178.921 206.465 178.921C207.272 178.921 207.927 178.468 207.927 177.712C207.927 177.057 207.347 176.553 206.313 176.074L204.875 175.394C203.867 174.915 203.11 174.083 203.11 172.974C203.11 171.765 204.245 170.732 205.809 170.732C206.641 170.732 207.347 171.034 207.776 171.387C207.902 171.286 208.028 171.009 208.103 170.706H208.583V173.68H208.053C207.877 172.496 207.221 171.513 205.885 171.513C205.179 171.513 204.523 171.916 204.523 172.546C204.523 173.201 205.052 173.554 206.263 174.108L207.65 174.789C208.86 175.368 209.339 176.301 209.339 177.057C209.339 178.644 207.952 179.753 206.263 179.753Z" fill="#333333"/>
<path d="M96.5102 173.8C96.5102 178.214 99.0775 182.029 102.8 183.837L97.4766 169.261C96.8384 170.689 96.509 172.236 96.5102 173.8ZM115.205 173.237C115.205 171.859 114.71 170.904 114.285 170.161C113.719 169.243 113.189 168.465 113.189 167.546C113.189 166.521 113.967 165.567 115.063 165.567C115.112 165.567 115.159 165.573 115.208 165.576C113.222 163.758 110.577 162.648 107.671 162.648C103.772 162.648 100.341 164.647 98.3461 167.675C98.6077 167.682 98.8547 167.688 99.0643 167.688C100.232 167.688 102.039 167.546 102.039 167.546C102.64 167.511 102.711 168.394 102.11 168.465C102.11 168.465 101.506 168.536 100.833 168.571L104.897 180.651L107.339 173.332L105.601 168.571C105 168.536 104.43 168.465 104.43 168.465C103.829 168.429 103.899 167.511 104.5 167.546C104.5 167.546 106.344 167.688 107.44 167.688C108.607 167.688 110.415 167.546 110.415 167.546C111.017 167.511 111.088 168.394 110.486 168.465C110.486 168.465 109.88 168.536 109.209 168.571L113.242 180.559L114.355 176.842C114.838 175.3 115.205 174.192 115.205 173.237Z" fill="#333333"/>
<path d="M107.867 174.775L104.518 184.498C105.542 184.799 106.604 184.952 107.671 184.952C108.933 184.953 110.186 184.739 111.377 184.32C111.346 184.272 111.32 184.22 111.298 184.167L107.867 174.775ZM117.464 168.449C117.512 168.804 117.539 169.186 117.539 169.596C117.539 170.728 117.328 172 116.691 173.59L113.282 183.439C116.6 181.506 118.831 177.914 118.831 173.8C118.834 171.93 118.364 170.089 117.464 168.449Z" fill="#333333"/>
<path d="M107.671 160.8C100.497 160.8 94.6608 166.632 94.6608 173.8C94.6608 180.968 100.497 186.8 107.671 186.8C114.844 186.8 120.682 180.969 120.682 173.8C120.681 166.632 114.844 160.8 107.671 160.8ZM107.671 186.204C100.826 186.204 95.2573 180.639 95.2573 173.8C95.2573 166.961 100.826 161.396 107.671 161.396C114.515 161.396 120.084 166.961 120.084 173.8C120.084 180.639 114.515 186.204 107.671 186.204Z" fill="#333333"/>
<path d="M0 211.2C0 206.782 3.58172 203.2 8 203.2H296C300.418 203.2 304 206.782 304 211.2V238C304 242.418 300.418 246 296 246H8.00001C3.58173 246 0 242.418 0 238V211.2Z" fill="white"/>
<path d="M121.999 227.576C121.999 227.767 122.073 227.844 122.263 227.844H123.45V230.873H120.365C119.128 230.873 118.55 230.283 118.55 229.015V221.647C118.55 221.445 118.485 221.38 118.285 221.38H117.099V218.324H120.18C121.402 218.324 121.999 218.933 121.999 220.182V227.576Z" fill="#077838"/>
<path d="M130.302 228.127C131.682 228.127 133.073 227.052 133.073 224.646C133.073 222.537 131.979 221.121 130.351 221.121C129.022 221.121 127.604 222.053 127.604 224.671C127.604 226.333 128.451 228.127 130.302 228.127ZM131.006 218.041C134.332 218.041 136.569 220.677 136.569 224.6C136.569 228.462 134.214 231.158 130.843 231.158C129.237 231.158 128.204 230.47 127.669 229.972C127.673 230.09 127.677 230.222 127.677 230.363V235.6H124.227V221.647C124.227 221.444 124.162 221.38 123.962 221.38H122.776V218.324H125.67C127.002 218.324 127.342 219.002 127.406 219.525C127.949 218.919 129.067 218.041 131.006 218.041Z" fill="#077838"/>
<path d="M140.456 222.789H145.036C144.894 221.657 144.096 220.859 143.058 220.859C141.765 220.859 140.83 221.558 140.456 222.789ZM143.058 218.041C146.37 218.041 148.596 220.439 148.596 224.009C148.596 224.371 148.529 225.111 148.523 225.142L148.503 225.371H140.328C140.626 227.04 141.891 228.104 143.619 228.104C145.419 228.104 146.781 226.837 146.796 226.825L147.019 226.612L148.521 229.127L148.383 229.266C148.304 229.343 146.448 231.158 143.41 231.158C139.548 231.158 136.745 228.399 136.745 224.6C136.745 220.739 139.343 218.041 143.058 218.041Z" fill="#077838"/>
<path d="M154.988 228.127C156.315 228.127 157.734 227.196 157.734 224.577C157.734 222.855 156.898 221.121 155.035 221.121C153.391 221.121 152.287 222.518 152.287 224.6C152.287 226.741 153.348 228.127 154.988 228.127ZM161.136 227.576C161.136 227.767 161.21 227.844 161.401 227.844H162.562V230.873H159.575C158.285 230.873 157.938 230.187 157.868 229.645C157.332 230.267 156.236 231.158 154.334 231.158C151.006 231.158 148.77 228.523 148.77 224.6C148.77 220.738 151.104 218.041 154.45 218.041C156.161 218.041 157.154 218.651 157.663 219.114V216.924C157.663 216.721 157.598 216.657 157.398 216.657H156.212V213.6H159.293C160.532 213.6 161.136 214.209 161.136 215.458V227.576Z" fill="#077838"/>
<path d="M170.234 218.159C170.51 218.159 170.803 218.206 170.813 218.209L171.023 218.245V221.704L170.735 221.66C170.73 221.659 170.443 221.616 170.047 221.616C168.931 221.616 167.552 222.232 167.033 223.964C166.871 224.554 166.787 225.19 166.787 225.852V230.873H163.339V221.647C163.339 221.444 163.273 221.38 163.073 221.38H161.888V218.324H164.852C166.073 218.324 166.695 218.902 166.695 220.04V220.326C167.479 218.995 168.799 218.159 170.234 218.159Z" fill="#077838"/>
<path d="M175.93 227.576C175.93 227.767 176.004 227.844 176.195 227.844H177.383V230.873H174.301C173.06 230.873 172.481 230.283 172.481 229.015V221.647C172.481 221.445 172.418 221.38 172.217 221.38H171.326V218.324H174.114C175.336 218.324 175.93 218.933 175.93 220.182V227.576Z" fill="#077838"/>
<path d="M188.946 218.325V221.38H188.417C188.147 221.38 188.058 221.473 187.994 221.642L184.515 230.873H180.638L177.158 221.642C177.095 221.473 177.008 221.38 176.739 221.38H176.231V218.325H178.188C179.277 218.325 179.834 218.689 180.179 219.623L182.426 225.956C182.512 226.191 182.589 226.458 182.654 226.711C182.716 226.458 182.789 226.195 182.867 225.96L185.114 219.624C185.455 218.701 186.032 218.325 187.107 218.325H188.946Z" fill="#077838"/>
<path d="M192.282 222.789H196.861C196.72 221.657 195.923 220.859 194.882 220.859C193.591 220.859 192.66 221.558 192.282 222.789ZM194.882 218.041C198.197 218.041 200.425 220.439 200.425 224.009C200.425 224.371 200.355 225.111 200.351 225.142L200.332 225.371H192.153C192.452 227.04 193.717 228.104 195.446 228.104C197.239 228.104 198.609 226.837 198.621 226.825L198.85 226.612L200.348 229.127L200.208 229.266C200.131 229.343 198.273 231.158 195.234 231.158C191.372 231.158 188.572 228.399 188.572 224.6C188.572 220.739 191.169 218.041 194.882 218.041Z" fill="#077838"/>
<path d="M118.689 213.601H121.763V216.868H118.689V213.601Z" fill="#077838"/>
<path d="M172.621 213.601H175.696V216.868H172.621V213.601Z" fill="#077838"/>
<path d="M108.404 224.671C108.404 226.333 109.248 228.127 111.104 228.127C112.48 228.127 113.872 227.052 113.872 224.646C113.872 222.537 112.778 221.121 111.15 221.121C109.823 221.121 108.404 222.053 108.404 224.671ZM111.803 218.041C115.131 218.041 117.369 220.677 117.369 224.6C117.369 228.462 115.012 231.158 111.642 231.158C110.035 231.158 109.006 230.47 108.468 229.972C108.472 230.09 108.474 230.222 108.474 230.363V235.6H105.027V221.647C105.027 221.444 104.962 221.38 104.761 221.38H103.575V218.324H106.468C107.8 218.324 108.141 219.002 108.206 219.525C108.747 218.919 109.867 218.041 111.803 218.041Z" fill="#077838"/>
<defs>
<clipPath id="clip0_578_21654">
<rect width="96.0408" height="26" fill="white" transform="translate(103.98 8.00012)"/>
</clipPath>
<clipPath id="clip1_578_21654">
<rect width="77.7273" height="18" fill="white" transform="translate(112.636 62.9175)"/>
</clipPath>
<clipPath id="clip2_578_21654">
<rect width="97.1547" height="24" fill="white" transform="translate(103.423 111)"/>
</clipPath>
</defs>
</svg>
