<svg width="304" height="248" viewBox="0 0 304 248" fill="none" xmlns="http://www.w3.org/2000/svg">
<path d="M160.5 6C160.5 2.96243 162.962 0.5 166 0.5H298C301.038 0.5 303.5 2.96243 303.5 6V110C303.5 113.038 301.038 115.5 298 115.5H166C162.962 115.5 160.5 113.038 160.5 110V6Z" fill="white" stroke="#E2E2E2"/>
<rect x="176.5" y="19.4334" width="23" height="23" rx="5.5" fill="#FFEAE2"/>
<rect x="176.5" y="19.4334" width="23" height="23" rx="5.5" stroke="#F3C4B2"/>
<rect x="211" y="23.9334" width="31" height="4" rx="2" fill="#DFE2E3"/>
<rect x="211" y="33.9334" width="41" height="4" rx="2" fill="#DFE2E3"/>
<rect opacity="0.45" x="177" y="85.4736" width="30" height="16" rx="4" fill="#DFE2E3"/>
<rect opacity="0.45" x="213" y="85.4736" width="40" height="16" rx="4" fill="#DFE2E3"/>
<rect x="161" y="71" width="142" height="1" rx="0.5" fill="#ECEEF1"/>
<path d="M160.5 138C160.5 134.962 162.962 132.5 166 132.5H298C301.038 132.5 303.5 134.962 303.5 138V242C303.5 245.038 301.038 247.5 298 247.5H166C162.962 247.5 160.5 245.038 160.5 242V138Z" fill="white" stroke="#E2E2E2"/>
<rect x="176.5" y="146.5" width="23" height="23" rx="5.5" fill="#D9FFDA"/>
<rect x="176.5" y="146.5" width="23" height="23" rx="5.5" stroke="#AFDEB1"/>
<rect x="210" y="151" width="44" height="4" rx="2" fill="#DFE2E3"/>
<rect x="210" y="161" width="58" height="4" rx="2" fill="#DFE2E3"/>
<rect opacity="0.45" x="176" y="217.474" width="43" height="16" rx="4" fill="#DFE2E3"/>
<rect opacity="0.45" x="225" y="217.474" width="57" height="16" rx="4" fill="#DFE2E3"/>
<rect x="161" y="203.228" width="143" height="1.01754" rx="0.508772" fill="#ECEEF1"/>
<path d="M0.5 6C0.5 2.96243 2.96243 0.5 6 0.5H138C141.038 0.5 143.5 2.96243 143.5 6V110C143.5 113.038 141.038 115.5 138 115.5H6C2.96244 115.5 0.5 113.038 0.5 110V6Z" fill="white" stroke="#E2E2E2"/>
<rect x="16.5" y="16.5" width="23" height="23" rx="5.5" fill="#D2F8F5"/>
<rect x="16.5" y="16.5" width="23" height="23" rx="5.5" stroke="#8FD2CE"/>
<path fill-rule="evenodd" clip-rule="evenodd" d="M52 21.0012C50.8954 21.0012 50 21.8967 50 23.0012C50 24.1058 50.8954 25.0012 52 25.0012H92C93.1046 25.0012 94 24.1058 94 23.0012C94 21.8967 93.1046 21.0012 92 21.0012H52ZM52 30.9988C50.8954 30.9988 50 31.8942 50 32.9988C50 34.1033 50.8954 34.9988 52 34.9988H106C107.105 34.9988 108 34.1033 108 32.9988C108 31.8942 107.105 30.9988 106 30.9988H52Z" fill="#DFE2E3"/>
<rect opacity="0.45" x="15" y="85.4209" width="43" height="16" rx="4" fill="#DFE2E3"/>
<rect opacity="0.45" x="64" y="85.4209" width="57" height="16" rx="4" fill="#DFE2E3"/>
<rect x="1" y="70" width="142" height="1" fill="#ECEEF1"/>
<path d="M0.5 138C0.5 134.962 2.96243 132.5 6 132.5H138C141.038 132.5 143.5 134.962 143.5 138V242C143.5 245.038 141.038 247.5 138 247.5H6C2.96244 247.5 0.5 245.038 0.5 242V138Z" fill="white" stroke="#E2E2E2"/>
<rect x="16.5" y="146.5" width="23" height="23" rx="5.5" fill="#D9F4FF"/>
<rect x="16.5" y="146.5" width="23" height="23" rx="5.5" stroke="#ABDBEE"/>
<path fill-rule="evenodd" clip-rule="evenodd" d="M51 151.001C49.8954 151.001 49 151.897 49 153.001C49 154.106 49.8954 155.001 51 155.001H78C79.1046 155.001 80 154.106 80 153.001C80 151.897 79.1046 151.001 78 151.001H51ZM51 160.999C49.8954 160.999 49 161.894 49 162.999C49 164.103 49.8954 164.999 51 164.999H88C89.1046 164.999 90 164.103 90 162.999C90 161.894 89.1046 160.999 88 160.999H51Z" fill="#DFE2E3"/>
<rect opacity="0.45" x="16" y="217.474" width="30" height="16" rx="4" fill="#DFE2E3"/>
<rect opacity="0.45" x="52" y="217.474" width="40" height="16" rx="4" fill="#DFE2E3"/>
<rect x="1" y="202" width="143" height="1" fill="#ECEEF1"/>
</svg>
