<svg width="188" height="47" viewBox="0 0 188 47" fill="none" xmlns="http://www.w3.org/2000/svg">
<g clip-path="url(#clip0_17_112553)">
<path d="M44.2193 46.1947V30.0459C44.2193 26.676 42.7839 24.9761 39.9438 24.9761C37.0884 24.9761 35.653 26.6611 35.653 30.0459V46.1947H27.2394V30.0459C27.2394 26.676 25.8346 24.9761 23.025 24.9761C20.1696 24.9761 18.7495 26.6611 18.7495 30.0459V46.1947H10.3359V29.0916C10.3359 25.5726 11.588 22.9035 14.0923 21.0992C16.2911 19.4888 19.284 18.6687 23.0403 18.6687C26.8424 18.6687 29.652 19.623 31.4539 21.5316C33.0114 19.623 35.8363 18.6687 39.9438 18.6687C43.7001 18.6687 46.6777 19.4739 48.8765 21.0992C51.3808 22.9035 52.6329 25.5726 52.6329 29.0916V46.1947H44.2193Z" fill="#F98012"/>
<path d="M147.367 46.1202V0H155.796V46.1202H147.367Z" fill="#F98012"/>
<path d="M136.631 46.1202V43.4064C135.883 44.3905 134.6 45.1659 132.798 45.7624C131.195 46.2992 129.668 46.5676 128.217 46.5676C124.202 46.5676 120.98 45.2256 118.552 42.5266C116.124 39.8426 114.902 36.5025 114.902 32.5362C114.902 28.6145 116.093 25.3341 118.475 22.6948C120.583 20.3537 124.034 18.7284 127.988 18.7284C132.447 18.7284 135.058 20.3687 136.631 22.2475V0H144.831V46.1202H136.631ZM136.631 30.7617C136.631 29.3004 135.913 27.8839 134.493 26.5419C133.073 25.1999 131.592 24.5289 130.096 24.5289C127.943 24.5289 126.232 25.3937 124.98 27.0936C123.881 28.6145 123.331 30.4784 123.331 32.6704C123.331 34.8325 123.881 36.6666 124.98 38.1726C126.232 39.9321 127.943 40.8119 130.096 40.8119C131.394 40.8119 132.814 40.2154 134.341 39.0076C135.868 37.8147 136.631 36.5771 136.631 35.2947V30.7617Z" fill="#F98012"/>
<path d="M99.0399 46.8508C94.7797 46.8508 91.2524 45.5237 88.4733 42.8844C85.6942 40.2451 84.3047 36.8454 84.3047 32.6702C84.3047 28.51 85.6942 25.1103 88.4733 22.471C91.2524 19.8317 94.7797 18.5046 99.0399 18.5046C103.3 18.5046 106.843 19.8317 109.637 22.471C112.447 25.1103 113.852 28.5249 113.852 32.6702C113.852 36.8305 112.447 40.2302 109.637 42.8844C106.827 45.5237 103.3 46.8508 99.0399 46.8508ZM99.0399 25.1103C97.0091 25.1103 95.4516 25.8558 94.3521 27.3619C93.268 28.8679 92.7183 30.6423 92.7183 32.715C92.7183 34.7876 93.2222 36.5322 94.2453 37.9488C95.4057 39.5741 97.0091 40.3793 99.0399 40.3793C101.071 40.3793 102.659 39.5741 103.835 37.9488C104.903 36.5173 105.438 34.7727 105.438 32.715C105.438 30.6423 104.934 28.8977 103.911 27.4812C102.735 25.9006 101.117 25.1103 99.0399 25.1103Z" fill="#F98012"/>
<path d="M68.5751 46.8508C64.3148 46.8508 60.7875 45.5237 58.0085 42.8844C55.2294 40.2451 53.8398 36.8454 53.8398 32.6702C53.8398 28.51 55.2294 25.1103 58.0085 22.471C60.7875 19.8317 64.3148 18.5046 68.5751 18.5046C72.8353 18.5046 76.3626 19.8317 79.1722 22.471C81.9818 25.1103 83.3866 28.5249 83.3866 32.6702C83.3866 36.8305 81.9818 40.2302 79.1722 42.8844C76.3779 45.5237 72.8353 46.8508 68.5751 46.8508ZM68.5751 25.1103C66.5442 25.1103 64.9867 25.8558 63.8873 27.3619C62.8031 28.8679 62.2534 30.6423 62.2534 32.715C62.2534 34.7876 62.7573 36.5322 63.7804 37.9488C64.9409 39.5741 66.5442 40.3793 68.5751 40.3793C70.6059 40.3793 72.194 39.5741 73.3697 37.9488C74.4386 36.5173 74.9731 34.7727 74.9731 32.715C74.9731 30.6423 74.4692 28.8977 73.4461 27.4812C72.2856 25.9006 70.667 25.1103 68.5751 25.1103Z" fill="#F98012"/>
<path d="M165.769 35.1755C165.952 37.1289 168.548 41.3487 172.839 41.3487C177.008 41.3487 178.977 38.9928 179.084 38.0384L187.956 37.9639C186.994 40.8566 183.054 47.0001 172.686 47.0001C168.38 47.0001 164.425 45.6879 161.6 43.0784C158.776 40.454 157.355 37.0394 157.355 32.8344C157.355 28.4804 158.776 25.021 161.6 22.4413C164.441 19.8766 168.105 18.5793 172.625 18.5793C177.542 18.5793 181.375 20.1748 184.123 23.3509C186.673 26.2884 187.956 30.225 187.956 35.1755H165.769ZM179.527 30.1057C179.176 28.3462 178.428 26.8998 177.267 25.7665C175.954 24.5438 174.457 23.9325 172.747 23.9325C170.991 23.9325 169.525 24.514 168.35 25.692C167.174 26.87 166.38 28.3313 165.983 30.1057H179.527Z" fill="#F98012"/>
<path d="M26.6761 17.4312L35.0286 11.4668L34.9217 11.1089C19.8506 12.9131 12.9945 14.1955 0 21.5467L0.122157 21.8747L1.16049 21.8897C1.06888 22.9036 0.90091 25.4087 1.11468 29.1961C-0.320663 33.2669 1.08415 36.0404 2.39734 39.0524C2.61111 35.9211 2.58057 32.4915 1.60331 29.0768C1.40481 25.3341 1.57277 22.8589 1.66439 21.9046L10.2765 21.9791C10.2765 21.9791 10.2154 24.514 10.5361 26.9147C18.232 29.554 25.9737 26.8998 30.0812 20.3985C28.9207 19.1311 26.6761 17.4312 26.6761 17.4312Z" fill="#333333"/>
</g>
<defs>
<clipPath id="clip0_17_112553">
<rect width="188" height="47" fill="white"/>
</clipPath>
</defs>
</svg>
