<svg width="449" height="254" viewBox="0 0 449 254" fill="none" xmlns="http://www.w3.org/2000/svg">
<g clip-path="url(#clip0_8637_129613)">
<path d="M357.098 254C393.273 254 422.598 251.761 422.598 249C422.598 246.239 393.273 244 357.098 244C320.924 244 291.598 246.239 291.598 249C291.598 251.761 320.924 254 357.098 254Z" fill="#EFEFEF"/>
<g clip-path="url(#clip1_8637_129613)">
<rect x="0.59845" width="288" height="254" rx="4" fill="white"/>
<path d="M1.59845 1H288.598V67H1.59845V1Z" fill="#6B4D65"/>
<g clip-path="url(#clip2_8637_129613)">
<path d="M81.6315 42.9259C80.1132 42.9259 78.6288 42.4823 77.3664 41.6511C76.1038 40.8201 75.1198 39.6389 74.5387 38.2568C73.9577 36.8748 73.8056 35.3541 74.1019 33.8869C74.3981 32.4198 75.1293 31.0721 76.2029 30.0143C77.2766 28.9565 78.6445 28.2362 80.1339 27.9444C81.6231 27.6525 83.1666 27.8023 84.5695 28.3748C85.9723 28.9472 87.1715 29.9166 88.015 31.1604C88.8585 32.4042 89.3089 33.8665 89.3089 35.3624C89.3089 37.3684 88.5 39.2922 87.0601 40.7106C85.6205 42.1289 83.6676 42.9259 81.6315 42.9259ZM81.6315 39.7996C82.5223 39.7996 83.3932 39.5394 84.1339 39.0519C84.8745 38.5643 85.4519 37.8713 85.7927 37.0605C86.1337 36.2497 86.2228 35.3575 86.049 34.4968C85.8753 33.6361 85.4462 32.8454 84.8164 32.2249C84.1865 31.6043 83.3839 31.1817 82.5103 31.0105C81.6365 30.8393 80.731 30.9272 79.908 31.263C79.0849 31.5989 78.3816 32.1676 77.8866 32.8973C77.3917 33.627 77.1276 34.4849 77.1276 35.3624C77.1276 36.5393 77.6021 37.6679 78.4468 38.5C79.2914 39.3322 80.437 39.7996 81.6315 39.7996ZM65.5604 42.9259C64.0422 42.9259 62.5578 42.4823 61.2953 41.6511C60.0327 40.8201 59.0488 39.6389 58.4676 38.2568C57.8866 36.8748 57.7346 35.3541 58.0308 33.8869C58.3269 32.4198 59.0583 31.0721 60.1318 30.0143C61.2055 28.9565 62.5734 28.2362 64.0628 27.9444C65.552 27.6525 67.0956 27.8023 68.4984 28.3748C69.9013 28.9472 71.1004 29.9166 71.9439 31.1604C72.7875 32.4042 73.2377 33.8665 73.2377 35.3624C73.2377 37.3684 72.4289 39.2922 70.9891 40.7106C69.5494 42.1289 67.5966 42.9259 65.5604 42.9259ZM65.5604 39.7996C66.4513 39.7996 67.3222 39.5394 68.0628 39.0519C68.8035 38.5643 69.3808 37.8713 69.7217 37.0605C70.0625 36.2497 70.1518 35.3575 69.978 34.4968C69.8042 33.6361 69.3752 32.8454 68.7453 32.2249C68.1155 31.6043 67.3129 31.1817 66.4392 31.0105C65.5654 30.8393 64.66 30.9272 63.8369 31.263C63.0139 31.5989 62.3106 32.1676 61.8156 32.8973C61.3206 33.627 61.0565 34.4849 61.0565 35.3624C61.0565 36.5393 61.531 37.6679 62.3758 38.5C63.2203 39.3322 64.366 39.7996 65.5604 39.7996ZM57.1666 35.2616C57.1666 39.487 53.7273 42.9259 49.4894 42.9259C45.2516 42.9259 41.8122 39.4971 41.8122 35.2717C41.8122 31.0463 44.9342 27.799 49.4894 27.799C51.1682 27.799 52.7241 28.152 53.9935 29.0697V24.6829C53.9935 23.8459 54.7407 23.1602 55.5801 23.1602C56.4195 23.1602 57.1666 23.8459 57.1666 24.6829V35.2616ZM49.4894 39.7996C50.3802 39.7996 51.2511 39.5394 51.9918 39.0519C52.7324 38.5643 53.3096 37.8713 53.6506 37.0605C53.9914 36.2497 54.0807 35.3575 53.9069 34.4968C53.7332 33.6361 53.3041 32.8454 52.6743 32.2249C52.0444 31.6043 51.2418 31.1817 50.3682 31.0105C49.4944 30.8393 48.5887 30.9272 47.7659 31.263C46.9428 31.5989 46.2393 32.1676 45.7445 32.8973C45.2496 33.627 44.9855 34.4849 44.9855 35.3624C44.9855 36.5393 45.46 37.6679 46.3047 38.5C47.1493 39.3322 48.2949 39.7996 49.4894 39.7996Z" fill="white"/>
<path d="M33.4182 42.9257C31.8998 42.9257 30.4155 42.4821 29.1529 41.6509C27.8904 40.8199 26.9064 39.6387 26.3253 38.2566C25.7443 36.8746 25.5922 35.3539 25.8885 33.8867C26.1847 32.4195 26.9159 31.0719 27.9896 30.0141C29.0632 28.9563 30.4312 28.236 31.9204 27.9442C33.4097 27.6523 34.9533 27.8021 36.3562 28.3746C37.759 28.947 38.958 29.9164 39.8016 31.1602C40.6452 32.404 41.0955 33.8663 41.0955 35.3622C41.0955 37.3682 40.2866 39.292 38.8469 40.7104C37.4071 42.1287 35.4543 42.9257 33.4182 42.9257ZM33.4182 39.7994C34.309 39.7994 35.1798 39.5392 35.9205 39.0516C36.6612 38.5641 37.2385 37.8711 37.5794 37.0603C37.9203 36.2495 38.0094 35.3573 37.8357 34.4966C37.6619 33.6359 37.2329 32.8452 36.603 32.2247C35.9731 31.6041 35.1706 31.1815 34.2969 31.0103C33.4232 30.8391 32.5176 30.927 31.6946 31.2628C30.8716 31.5986 30.1682 32.1674 29.6733 32.8971C29.1784 33.6268 28.9142 34.4846 28.9142 35.3622C28.9142 36.5391 29.3887 37.6677 30.2334 38.4998C31.0781 39.332 32.2237 39.7994 33.4182 39.7994Z" fill="white"/>
</g>
<path d="M28.5391 88.9658C28.5391 89.626 28.4571 90.2275 28.293 90.7705C28.129 91.3096 27.879 91.7744 27.543 92.165C27.211 92.5557 26.7891 92.8564 26.2774 93.0674C25.7657 93.2744 25.1602 93.3779 24.461 93.3779C23.7618 93.3779 23.1563 93.2744 22.6446 93.0674C22.1329 92.8564 21.709 92.5557 21.3731 92.165C21.0411 91.7744 20.793 91.3076 20.629 90.7646C20.4649 90.2217 20.3829 89.6182 20.3829 88.9541C20.3829 88.0674 20.5274 87.2959 20.8165 86.6396C21.1094 85.9795 21.5587 85.4678 22.1641 85.1045C22.7696 84.7412 23.5391 84.5596 24.4727 84.5596C25.4024 84.5596 26.1661 84.7412 26.7637 85.1045C27.3653 85.4678 27.8106 85.9795 28.0997 86.6396C28.3926 87.2998 28.5391 88.0752 28.5391 88.9658ZM22.2872 88.9658C22.2872 89.5635 22.3614 90.0791 22.5098 90.5127C22.6622 90.9424 22.8985 91.2744 23.2188 91.5088C23.5391 91.7393 23.9532 91.8545 24.461 91.8545C24.9766 91.8545 25.3946 91.7393 25.7149 91.5088C26.0352 91.2744 26.2676 90.9424 26.4122 90.5127C26.5606 90.0791 26.6348 89.5635 26.6348 88.9658C26.6348 88.0674 26.4669 87.3604 26.1309 86.8447C25.795 86.3291 25.2422 86.0713 24.4727 86.0713C23.961 86.0713 23.543 86.1885 23.2188 86.4229C22.8985 86.6533 22.6622 86.9854 22.5098 87.4189C22.3614 87.8486 22.2872 88.3643 22.2872 88.9658ZM37.6741 93.2607H35.3655L31.639 86.7803H31.5862C31.6019 87.0498 31.6155 87.3213 31.6272 87.5947C31.639 87.8682 31.6507 88.1416 31.6624 88.415C31.6741 88.6846 31.6858 88.9561 31.6976 89.2295V93.2607H30.0745V84.6943H32.3655L36.0862 91.1104H36.1272C36.1194 90.8447 36.1097 90.5811 36.098 90.3193C36.0862 90.0576 36.0745 89.7959 36.0628 89.5342C36.055 89.2725 36.0472 89.0107 36.0394 88.749V84.6943H37.6741V93.2607ZM39.5962 93.2607V84.6943H41.4126V91.7607H44.8872V93.2607H39.5962ZM48.8074 88.2217L50.5945 84.6943H52.5515L49.7097 89.9268V93.2607H47.9051V89.9854L45.0633 84.6943H47.032L48.8074 88.2217ZM61.1651 88.9658C61.1651 89.626 61.083 90.2275 60.919 90.7705C60.7549 91.3096 60.5049 91.7744 60.169 92.165C59.8369 92.5557 59.4151 92.8564 58.9033 93.0674C58.3916 93.2744 57.7862 93.3779 57.0869 93.3779C56.3877 93.3779 55.7822 93.2744 55.2705 93.0674C54.7588 92.8564 54.335 92.5557 53.999 92.165C53.667 91.7744 53.419 91.3076 53.2549 90.7646C53.0908 90.2217 53.0088 89.6182 53.0088 88.9541C53.0088 88.0674 53.1533 87.2959 53.4424 86.6396C53.7354 85.9795 54.1846 85.4678 54.7901 85.1045C55.3955 84.7412 56.1651 84.5596 57.0987 84.5596C58.0283 84.5596 58.792 84.7412 59.3897 85.1045C59.9912 85.4678 60.4365 85.9795 60.7256 86.6396C61.0186 87.2998 61.1651 88.0752 61.1651 88.9658ZM54.9131 88.9658C54.9131 89.5635 54.9873 90.0791 55.1358 90.5127C55.2881 90.9424 55.5244 91.2744 55.8447 91.5088C56.1651 91.7393 56.5791 91.8545 57.0869 91.8545C57.6026 91.8545 58.0205 91.7393 58.3408 91.5088C58.6612 91.2744 58.8936 90.9424 59.0381 90.5127C59.1865 90.0791 59.2608 89.5635 59.2608 88.9658C59.2608 88.0674 59.0928 87.3604 58.7569 86.8447C58.4209 86.3291 57.8682 86.0713 57.0987 86.0713C56.5869 86.0713 56.169 86.1885 55.8447 86.4229C55.5244 86.6533 55.2881 86.9854 55.1358 87.4189C54.9873 87.8486 54.9131 88.3643 54.9131 88.9658ZM64.4876 93.2607H62.7005V84.6943H67.6106V86.1826H64.4876V88.3916H67.3938V89.874H64.4876V93.2607ZM70.8335 93.2607H69.0464V84.6943H73.9565V86.1826H70.8335V88.3916H73.7397V89.874H70.8335V93.2607ZM75.3923 93.2607V84.6943H77.2087V93.2607H75.3923ZM82.7637 86.083C82.416 86.083 82.1074 86.1514 81.8379 86.2881C81.5723 86.4209 81.3476 86.6143 81.164 86.8682C80.9844 87.1221 80.8476 87.4287 80.7539 87.7881C80.6601 88.1475 80.6133 88.5518 80.6133 89.001C80.6133 89.6064 80.6875 90.124 80.8359 90.5537C80.9883 90.9795 81.2226 91.3057 81.539 91.5322C81.8555 91.7549 82.2637 91.8662 82.7637 91.8662C83.1113 91.8662 83.459 91.8271 83.8066 91.749C84.1582 91.6709 84.539 91.5596 84.9492 91.415V92.9385C84.5703 93.0947 84.1973 93.2061 83.8301 93.2725C83.4629 93.3428 83.0508 93.3779 82.5937 93.3779C81.7109 93.3779 80.9844 93.1963 80.414 92.833C79.8476 92.4658 79.4277 91.9541 79.1543 91.2979C78.8808 90.6377 78.7441 89.8682 78.7441 88.9893C78.7441 88.3408 78.832 87.7471 79.0078 87.208C79.1836 86.6689 79.4414 86.2021 79.7812 85.8076C80.1211 85.4131 80.541 85.1084 81.041 84.8936C81.541 84.6787 82.1152 84.5713 82.7637 84.5713C83.1894 84.5713 83.6152 84.626 84.041 84.7354C84.4707 84.8408 84.8808 84.9873 85.2715 85.1748L84.6855 86.6514C84.3652 86.499 84.043 86.3662 83.7187 86.2529C83.3945 86.1396 83.0762 86.083 82.7637 86.083ZM91.4709 93.2607H86.5373V84.6943H91.4709V86.1826H88.3537V88.0635H91.2541V89.5518H88.3537V91.7607H91.4709V93.2607ZM101.145 93.2607L100.524 91.2217H97.4011L96.78 93.2607H94.823L97.8464 84.6592H100.067L103.102 93.2607H101.145ZM100.091 89.6982L99.4694 87.7061C99.4304 87.5732 99.3776 87.4033 99.3112 87.1963C99.2487 86.9854 99.1843 86.7725 99.1179 86.5576C99.0554 86.3389 99.0046 86.1494 98.9655 85.9893C98.9265 86.1494 98.8718 86.3486 98.8015 86.5869C98.7351 86.8213 98.6706 87.0439 98.6081 87.2549C98.5456 87.4658 98.5007 87.6162 98.4733 87.7061L97.8581 89.6982H100.091ZM107.45 86.5869C108.188 86.5869 108.784 86.874 109.237 87.4482C109.694 88.0225 109.923 88.8643 109.923 89.9736C109.923 90.7158 109.815 91.3408 109.601 91.8486C109.386 92.3525 109.089 92.7334 108.71 92.9912C108.331 93.249 107.895 93.3779 107.403 93.3779C107.087 93.3779 106.815 93.3389 106.589 93.2607C106.362 93.1787 106.169 93.0752 106.009 92.9502C105.849 92.8213 105.71 92.6846 105.593 92.54H105.499C105.53 92.6963 105.554 92.8564 105.569 93.0205C105.585 93.1846 105.593 93.3447 105.593 93.501V96.1436H103.806V86.71H105.259L105.511 87.5596H105.593C105.71 87.3838 105.852 87.2217 106.02 87.0732C106.188 86.9248 106.39 86.8076 106.624 86.7217C106.862 86.6318 107.138 86.5869 107.45 86.5869ZM106.876 88.0166C106.563 88.0166 106.315 88.0811 106.132 88.21C105.948 88.3389 105.813 88.5322 105.727 88.79C105.645 89.0479 105.601 89.374 105.593 89.7686V89.9619C105.593 90.3838 105.632 90.7412 105.71 91.0342C105.792 91.3271 105.927 91.5498 106.114 91.7021C106.306 91.8545 106.567 91.9307 106.899 91.9307C107.173 91.9307 107.397 91.8545 107.573 91.7021C107.749 91.5498 107.88 91.3271 107.966 91.0342C108.056 90.7373 108.101 90.376 108.101 89.9502C108.101 89.3096 108.001 88.8271 107.802 88.5029C107.602 88.1787 107.294 88.0166 106.876 88.0166ZM114.804 86.5869C115.542 86.5869 116.138 86.874 116.591 87.4482C117.048 88.0225 117.277 88.8643 117.277 89.9736C117.277 90.7158 117.169 91.3408 116.954 91.8486C116.739 92.3525 116.443 92.7334 116.064 92.9912C115.685 93.249 115.249 93.3779 114.757 93.3779C114.441 93.3779 114.169 93.3389 113.943 93.2607C113.716 93.1787 113.523 93.0752 113.362 92.9502C113.202 92.8213 113.064 92.6846 112.946 92.54H112.853C112.884 92.6963 112.907 92.8564 112.923 93.0205C112.939 93.1846 112.946 93.3447 112.946 93.501V96.1436H111.159V86.71H112.612L112.864 87.5596H112.946C113.064 87.3838 113.206 87.2217 113.374 87.0732C113.542 86.9248 113.743 86.8076 113.978 86.7217C114.216 86.6318 114.491 86.5869 114.804 86.5869ZM114.23 88.0166C113.917 88.0166 113.669 88.0811 113.486 88.21C113.302 88.3389 113.167 88.5322 113.081 88.79C112.999 89.0479 112.954 89.374 112.946 89.7686V89.9619C112.946 90.3838 112.986 90.7412 113.064 91.0342C113.146 91.3271 113.28 91.5498 113.468 91.7021C113.659 91.8545 113.921 91.9307 114.253 91.9307C114.527 91.9307 114.751 91.8545 114.927 91.7021C115.103 91.5498 115.234 91.3271 115.32 91.0342C115.409 90.7373 115.454 90.376 115.454 89.9502C115.454 89.3096 115.355 88.8271 115.155 88.5029C114.956 88.1787 114.648 88.0166 114.23 88.0166ZM123.083 91.3154C123.083 91.7607 122.978 92.1377 122.767 92.4463C122.56 92.751 122.249 92.9834 121.835 93.1436C121.421 93.2998 120.906 93.3779 120.288 93.3779C119.831 93.3779 119.439 93.3486 119.111 93.29C118.787 93.2314 118.458 93.1338 118.126 92.9971V91.5205C118.482 91.6807 118.863 91.8135 119.269 91.9189C119.679 92.0205 120.038 92.0713 120.347 92.0713C120.695 92.0713 120.943 92.0205 121.091 91.9189C121.244 91.8135 121.32 91.6768 121.32 91.5088C121.32 91.3994 121.288 91.3018 121.226 91.2158C121.167 91.126 121.038 91.0264 120.839 90.917C120.64 90.8037 120.328 90.6572 119.902 90.4775C119.492 90.3057 119.154 90.1318 118.888 89.9561C118.626 89.7803 118.431 89.5732 118.302 89.335C118.177 89.0928 118.115 88.7861 118.115 88.415C118.115 87.8096 118.349 87.3545 118.818 87.0498C119.29 86.7412 119.921 86.5869 120.71 86.5869C121.117 86.5869 121.503 86.6279 121.871 86.71C122.242 86.792 122.622 86.9229 123.013 87.1025L122.474 88.3916C122.15 88.251 121.843 88.1357 121.554 88.0459C121.269 87.9561 120.978 87.9111 120.681 87.9111C120.419 87.9111 120.222 87.9463 120.089 88.0166C119.956 88.0869 119.89 88.1943 119.89 88.3389C119.89 88.4443 119.923 88.5381 119.99 88.6201C120.06 88.7021 120.193 88.7939 120.388 88.8955C120.587 88.9932 120.878 89.1201 121.261 89.2764C121.632 89.4287 121.955 89.5889 122.228 89.7568C122.501 89.9209 122.712 90.126 122.861 90.3721C123.009 90.6143 123.083 90.9287 123.083 91.3154Z" fill="black"/>
</g>
<rect x="1.09845" y="0.5" width="287" height="253" rx="3.5" stroke="#333333"/>
<path d="M90.5984 108.325H25.5984C23.1132 108.325 21.0984 110.34 21.0984 112.825V153.825C21.0984 156.31 23.1132 158.325 25.5985 158.325H90.5984C93.0837 158.325 95.0984 156.31 95.0984 153.825V112.825C95.0984 110.34 93.0837 108.325 90.5984 108.325Z" fill="white" stroke="#CCCCCC"/>
<path fill-rule="evenodd" clip-rule="evenodd" d="M59.9976 132.279L73.4795 126.361C74.6004 125.856 74.6547 124.97 73.5611 124.429L60.3028 117.906C59.6488 117.58 58.708 117.418 57.8157 117.449C57.2251 117.474 56.6571 117.583 56.2094 117.782L55.0115 118.31L42.7274 123.699C41.6065 124.205 41.5523 125.09 42.6403 125.632L48.5886 128.559L50.152 129.329L55.8986 132.155C56.8304 132.725 58.7085 132.808 59.9976 132.279Z" fill="#5DC0E8"/>
<path fill-rule="evenodd" clip-rule="evenodd" d="M65.0125 131.513L62.6682 132.527L60.0103 133.673C58.8894 134.178 57.0113 134.095 55.9169 133.548L49.5214 130.348L47.962 129.566L47.1915 129.18L42.5349 131.232C41.414 131.738 41.3596 132.623 42.4476 133.165L44.9085 134.374L46.4776 135.143L55.7108 139.681C56.12 139.883 56.6136 140.032 57.1533 140.097C57.9376 140.199 58.8044 140.147 59.6165 139.897C59.7375 139.863 59.8522 139.823 59.9661 139.777L60.3006 139.63L61.963 138.901L73.448 133.86C74.5689 133.355 74.6232 132.469 73.5352 131.927L69.0015 129.767L65.0125 131.513Z" fill="#95C038"/>
<path fill-rule="evenodd" clip-rule="evenodd" d="M68.4836 137.37L62.0869 140.168L60.4349 140.89L59.6519 141.23C59.2427 141.417 58.7315 141.525 58.1929 141.553C57.4621 141.597 56.6849 141.507 56.0469 141.302C55.8737 141.244 55.7108 141.178 55.5585 141.106L47.0193 136.894L44.5105 138.001L42.3635 138.952C42.2824 138.987 42.2078 139.027 42.1331 139.067C42.0962 139.089 42.0592 139.112 42.0223 139.135C41.2397 139.652 41.3103 140.402 42.2763 140.885L42.38 140.935L51.5159 145.428L53.2564 146.285L55.5402 147.407C56.6346 147.954 58.3446 148.06 59.4655 147.555L61.1551 146.816L62.7958 146.096L68.8027 143.459L72.953 141.637C73.4544 141.413 73.7396 141.108 73.8071 140.798C73.8927 140.408 73.6392 140.002 73.0346 139.704L68.4836 137.37Z" fill="#FF6F3D"/>
<path fill-rule="evenodd" clip-rule="evenodd" d="M74.5984 167.825C74.5984 168.93 73.703 169.825 72.5984 169.825H23.5984C22.4939 169.825 21.5984 168.93 21.5984 167.825C21.5984 166.721 22.4939 165.825 23.5984 165.825H72.5984C73.703 165.825 74.5984 166.721 74.5984 167.825Z" fill="#E2E2E2"/>
<path fill-rule="evenodd" clip-rule="evenodd" d="M44.5984 181.825C44.5984 182.377 44.1507 182.825 43.5984 182.825H22.5984C22.0462 182.825 21.5984 182.377 21.5984 181.825C21.5984 181.273 22.0462 180.825 22.5984 180.825H43.5984C44.1507 180.825 44.5984 181.273 44.5984 181.825Z" fill="#E2E2E2"/>
<path fill-rule="evenodd" clip-rule="evenodd" d="M78.3917 189.825C78.3917 190.377 77.944 190.825 77.3917 190.825H22.5985C22.0462 190.825 21.5984 190.377 21.5984 189.825C21.5984 189.273 22.0462 188.825 22.5984 188.825H77.3917C77.9439 188.825 78.3917 189.273 78.3917 189.825Z" fill="#E2E2E2"/>
<path fill-rule="evenodd" clip-rule="evenodd" d="M78.3917 197.825C78.3917 198.377 77.944 198.825 77.3917 198.825H22.5985C22.0462 198.825 21.5984 198.377 21.5984 197.825C21.5984 197.273 22.0462 196.825 22.5984 196.825H77.3917C77.9439 196.825 78.3917 197.273 78.3917 197.825Z" fill="#E2E2E2"/>
<path fill-rule="evenodd" clip-rule="evenodd" d="M44.5984 205.825C44.5984 206.377 44.1507 206.825 43.5984 206.825H22.5984C22.0462 206.825 21.5984 206.377 21.5984 205.825C21.5984 205.273 22.0462 204.825 22.5984 204.825H43.5984C44.1507 204.825 44.5984 205.273 44.5984 205.825Z" fill="#E2E2E2"/>
<path fill-rule="evenodd" clip-rule="evenodd" d="M64.5984 229.825C64.5984 230.93 63.703 231.825 62.5984 231.825H23.5985C22.4939 231.825 21.5984 230.93 21.5984 229.825V219.825C21.5984 218.721 22.4939 217.825 23.5984 217.825H62.5984C63.703 217.825 64.5984 218.721 64.5984 219.825V229.825Z" fill="#865F7E"/>
<path d="M177.598 108.325H112.598C110.113 108.325 108.098 110.34 108.098 112.825V153.825C108.098 156.31 110.113 158.325 112.598 158.325H177.598C180.084 158.325 182.098 156.31 182.098 153.825V112.825C182.098 110.34 180.084 108.325 177.598 108.325Z" fill="#333333" stroke="#CCCCCC"/>
<path fill-rule="evenodd" clip-rule="evenodd" d="M146.998 132.279L160.48 126.361C161.6 125.856 161.655 124.97 160.561 124.429L147.303 117.906C146.649 117.58 145.708 117.418 144.816 117.449C144.225 117.474 143.657 117.583 143.209 117.782L142.012 118.31L129.727 123.699C128.607 124.205 128.552 125.09 129.64 125.632L135.589 128.559L137.152 129.329L142.899 132.155C143.83 132.725 145.709 132.808 146.998 132.279Z" fill="#5DC0E8"/>
<path fill-rule="evenodd" clip-rule="evenodd" d="M152.012 131.513L149.668 132.527L147.01 133.673C145.889 134.178 144.011 134.095 142.917 133.548L136.521 130.348L134.962 129.566L134.191 129.18L129.535 131.232C128.414 131.738 128.36 132.623 129.448 133.165L131.909 134.374L133.478 135.143L142.711 139.681C143.12 139.883 143.614 140.032 144.153 140.097C144.938 140.199 145.804 140.147 146.616 139.897C146.738 139.863 146.852 139.823 146.966 139.777L147.301 139.63L148.963 138.901L160.448 133.86C161.569 133.355 161.623 132.469 160.535 131.927L156.002 129.767L152.012 131.513Z" fill="#95C038"/>
<path fill-rule="evenodd" clip-rule="evenodd" d="M155.484 137.37L149.087 140.168L147.435 140.89L146.652 141.23C146.243 141.417 145.732 141.525 145.193 141.553C144.462 141.597 143.685 141.507 143.047 141.302C142.874 141.244 142.711 141.178 142.558 141.106L134.019 136.894L131.51 138.001L129.363 138.952C129.282 138.987 129.208 139.027 129.133 139.067C129.096 139.089 129.059 139.112 129.022 139.135C128.24 139.652 128.31 140.402 129.276 140.885L129.38 140.935L138.516 145.428L140.256 146.285L142.54 147.407C143.635 147.954 145.345 148.06 146.465 147.555L148.155 146.816L149.796 146.096L155.803 143.459L159.953 141.637C160.454 141.413 160.74 141.108 160.807 140.798C160.893 140.408 160.639 140.002 160.035 139.704L155.484 137.37Z" fill="#FF6F3D"/>
<path fill-rule="evenodd" clip-rule="evenodd" d="M161.598 167.825C161.598 168.93 160.703 169.825 159.598 169.825H110.598C109.494 169.825 108.598 168.93 108.598 167.825C108.598 166.721 109.494 165.825 110.598 165.825H159.598C160.703 165.825 161.598 166.721 161.598 167.825Z" fill="#E2E2E2"/>
<path fill-rule="evenodd" clip-rule="evenodd" d="M170.637 181.825C170.637 182.377 170.189 182.825 169.637 182.825H109.598C109.046 182.825 108.598 182.377 108.598 181.825C108.598 181.273 109.046 180.825 109.598 180.825H169.637C170.189 180.825 170.637 181.273 170.637 181.825Z" fill="#E2E2E2"/>
<path fill-rule="evenodd" clip-rule="evenodd" d="M170.637 189.825C170.637 190.377 170.189 190.825 169.637 190.825H109.598C109.046 190.825 108.598 190.377 108.598 189.825C108.598 189.273 109.046 188.825 109.598 188.825H169.637C170.189 188.825 170.637 189.273 170.637 189.825Z" fill="#E2E2E2"/>
<path fill-rule="evenodd" clip-rule="evenodd" d="M160.638 197.825C160.638 198.377 160.191 198.825 159.638 198.825H109.598C109.046 198.825 108.598 198.377 108.598 197.825C108.598 197.273 109.046 196.825 109.598 196.825H159.638C160.191 196.825 160.638 197.273 160.638 197.825Z" fill="#E2E2E2"/>
<path fill-rule="evenodd" clip-rule="evenodd" d="M131.598 205.825C131.598 206.377 131.151 206.825 130.598 206.825H109.598C109.046 206.825 108.598 206.377 108.598 205.825C108.598 205.273 109.046 204.825 109.598 204.825H130.598C131.151 204.825 131.598 205.273 131.598 205.825Z" fill="#E2E2E2"/>
<path fill-rule="evenodd" clip-rule="evenodd" d="M151.598 229.825C151.598 230.93 150.703 231.825 149.598 231.825H110.598C109.494 231.825 108.598 230.93 108.598 229.825V219.825C108.598 218.721 109.494 217.825 110.598 217.825H149.598C150.703 217.825 151.598 218.721 151.598 219.825V229.825Z" fill="#865F7E"/>
<path d="M264.598 108.325H199.598C197.113 108.325 195.098 110.34 195.098 112.825V153.825C195.098 156.31 197.113 158.325 199.598 158.325H264.598C267.084 158.325 269.098 156.31 269.098 153.825V112.825C269.098 110.34 267.084 108.325 264.598 108.325Z" fill="#AA5252" stroke="#CCCCCC"/>
<path fill-rule="evenodd" clip-rule="evenodd" d="M233.998 132.279L247.48 126.361C248.6 125.856 248.655 124.97 247.561 124.429L234.303 117.906C233.649 117.58 232.708 117.418 231.816 117.449C231.225 117.474 230.657 117.583 230.209 117.782L229.012 118.31L216.727 123.699C215.607 124.205 215.552 125.09 216.64 125.632L222.589 128.559L224.152 129.329L229.899 132.155C230.83 132.725 232.709 132.808 233.998 132.279Z" fill="white"/>
<path opacity="0.8" fill-rule="evenodd" clip-rule="evenodd" d="M239.012 131.513L236.668 132.527L234.01 133.673C232.889 134.178 231.011 134.095 229.917 133.548L223.521 130.348L221.962 129.566L221.191 129.18L216.535 131.232C215.414 131.738 215.36 132.623 216.448 133.165L218.909 134.374L220.478 135.143L229.711 139.681C230.12 139.883 230.614 140.032 231.153 140.097C231.938 140.199 232.804 140.147 233.616 139.897C233.738 139.863 233.852 139.823 233.966 139.777L234.301 139.63L235.963 138.901L247.448 133.86C248.569 133.355 248.623 132.469 247.535 131.927L243.002 129.767L239.012 131.513Z" fill="white"/>
<path opacity="0.5" fill-rule="evenodd" clip-rule="evenodd" d="M242.484 137.37L236.087 140.168L234.435 140.89L233.652 141.23C233.243 141.417 232.732 141.525 232.193 141.553C231.462 141.597 230.685 141.507 230.047 141.302C229.874 141.244 229.711 141.178 229.558 141.106L221.019 136.894L218.51 138.001L216.363 138.952C216.282 138.987 216.208 139.027 216.133 139.067C216.096 139.089 216.059 139.112 216.022 139.135C215.24 139.652 215.31 140.402 216.276 140.885L216.38 140.935L225.516 145.428L227.256 146.285L229.54 147.407C230.635 147.954 232.345 148.06 233.465 147.555L235.155 146.816L236.796 146.096L242.803 143.459L246.953 141.637C247.454 141.413 247.74 141.108 247.807 140.798C247.893 140.408 247.639 140.002 247.035 139.704L242.484 137.37Z" fill="white"/>
<path fill-rule="evenodd" clip-rule="evenodd" d="M248.598 167.825C248.598 168.93 247.703 169.825 246.598 169.825H197.598C196.494 169.825 195.598 168.93 195.598 167.825C195.598 166.721 196.494 165.825 197.598 165.825H246.598C247.703 165.825 248.598 166.721 248.598 167.825Z" fill="#E2E2E2"/>
<path fill-rule="evenodd" clip-rule="evenodd" d="M238.598 181.825C238.598 182.377 238.151 182.825 237.598 182.825H196.598C196.046 182.825 195.598 182.377 195.598 181.825C195.598 181.273 196.046 180.825 196.598 180.825H237.598C238.151 180.825 238.598 181.273 238.598 181.825Z" fill="#E2E2E2"/>
<path fill-rule="evenodd" clip-rule="evenodd" d="M260.598 189.825C260.598 190.377 260.151 190.825 259.598 190.825H196.598C196.046 190.825 195.598 190.377 195.598 189.825C195.598 189.273 196.046 188.825 196.598 188.825H259.598C260.151 188.825 260.598 189.273 260.598 189.825Z" fill="#E2E2E2"/>
<path fill-rule="evenodd" clip-rule="evenodd" d="M248.598 197.825C248.598 198.377 248.151 198.825 247.598 198.825H196.598C196.046 198.825 195.598 198.377 195.598 197.825C195.598 197.273 196.046 196.825 196.598 196.825H247.598C248.151 196.825 248.598 197.273 248.598 197.825Z" fill="#E2E2E2"/>
<path fill-rule="evenodd" clip-rule="evenodd" d="M228.598 205.825C228.598 206.377 228.151 206.825 227.598 206.825H196.598C196.046 206.825 195.598 206.377 195.598 205.825C195.598 205.273 196.046 204.825 196.598 204.825H227.598C228.151 204.825 228.598 205.273 228.598 205.825Z" fill="#E2E2E2"/>
<path fill-rule="evenodd" clip-rule="evenodd" d="M238.598 229.825C238.598 230.93 237.703 231.825 236.598 231.825H197.598C196.494 231.825 195.598 230.93 195.598 229.825V219.825C195.598 218.721 196.494 217.825 197.598 217.825H236.598C237.703 217.825 238.598 218.721 238.598 219.825V229.825Z" fill="#865F7E"/>
<path d="M446.835 2.5249H362.899V54.5948H446.835V2.5249Z" fill="white" stroke="#EBEBEB" stroke-width="0.75" stroke-miterlimit="22.9256"/>
<path d="M382.613 23.8579H379.712V45.6757H382.613V23.8579Z" fill="#EBEBEB"/>
<path d="M393.983 13.9741H391.081V45.6711H393.983V13.9741Z" fill="#EBEBEB"/>
<path d="M405.468 28.6826H402.567V45.676H405.468V28.6826Z" fill="#EBEBEB"/>
<path d="M416.963 21.3281H414.061V45.5557H416.963V21.3281Z" fill="#EBEBEB"/>
<path fill-rule="evenodd" clip-rule="evenodd" d="M428.452 26.2681H425.426V45.6761H428.332V26.2681H428.452Z" fill="#EBEBEB"/>
<path d="M376.805 12.6494H373.904V45.6761H376.805V12.6494Z" fill="#E0E0E0"/>
<path d="M388.175 16.7485H385.274V45.7957H388.175V16.7485Z" fill="#E0E0E0"/>
<path d="M399.665 24.583H396.764V45.6759H399.665V24.583Z" fill="#E0E0E0"/>
<path d="M411.155 16.0239H408.254V45.676H411.155V16.0239Z" fill="#E0E0E0"/>
<path d="M422.645 17.1089H419.744V45.676H422.645V17.1089Z" fill="#E0E0E0"/>
<path d="M434.135 22.5332H431.234V45.6759H434.135V22.5332Z" fill="#E0E0E0"/>
<path d="M448.166 0.235352H360.598V3.12999H448.166V0.235352Z" fill="#EBEBEB"/>
<path d="M430.442 62.7412H387.144V99.9827H430.442V62.7412Z" fill="#F5F5F5"/>
<path fill-rule="evenodd" clip-rule="evenodd" d="M389.805 97.3331V61.4165H431.893V97.4531H389.805V97.3331Z" stroke="#E0E0E0" stroke-width="0.75" stroke-miterlimit="22.9256"/>
<path fill-rule="evenodd" clip-rule="evenodd" d="M395.007 75.5151H393.071V77.4449H395.007V75.5151ZM399.964 75.5151H398.029V77.4449H399.964V75.5151ZM402.866 75.5151H404.801V77.4449H402.866V75.5151ZM409.759 75.5151H407.823V77.4449H409.759V75.5151ZM412.785 75.5151H414.721V77.4449H412.785V75.5151ZM419.558 75.5151H417.622V77.4449H419.558V75.5151ZM422.579 75.5151H424.515V77.4449H422.579V75.5151ZM395.007 79.3747H393.071V81.3044H395.007V79.3747ZM398.029 79.3747H399.964V81.3044H398.029V79.3747ZM404.922 79.3747H402.986V81.3044H404.922V79.3747ZM407.828 79.3747H409.763V81.3044H407.828V79.3747ZM414.721 79.3747H412.785V81.3044H414.721V79.3747ZM417.622 79.3747H419.558V81.3044H417.622V79.3747ZM424.515 79.3747H422.579V81.3044H424.515V79.3747ZM393.071 83.3494H395.007V85.2791H393.071V83.3494ZM399.964 83.3494H398.029V85.2791H399.964V83.3494ZM402.866 83.3494H404.801V85.2791H402.866V83.3494ZM409.759 83.3494H407.823V85.2791H409.759V83.3494ZM412.785 83.3494H414.721V85.2791H412.785V83.3494ZM419.558 83.3494H417.622V85.2791H419.558V83.3494ZM422.579 83.3494H424.515V85.2791H422.579V83.3494ZM395.007 87.2089H393.071V89.2587H395.007V87.2089ZM398.029 87.2089H399.964V89.2587H398.029V87.2089ZM404.922 87.2089H402.986V89.2587H404.922V87.2089ZM407.828 87.2089H409.763V89.2587H407.828V87.2089ZM414.721 87.2089H412.785V89.2587H414.721V87.2089ZM417.622 87.2089H419.558V89.2587H417.622V87.2089ZM424.515 87.2089H422.579V89.2587H424.515V87.2089ZM393.071 91.1836H395.007V93.1134H393.071V91.1836ZM399.964 91.1836H398.029V93.1134H399.964V91.1836ZM402.866 91.1836H404.801V93.1134H402.866V91.1836ZM409.759 91.1836H407.823V93.1134H409.759V91.1836ZM412.785 91.1836H414.721V93.1134H412.785V91.1836ZM419.558 91.1836H417.622V93.1134H419.558V91.1836ZM422.579 91.1836H424.515V93.1134H422.579V91.1836Z" fill="#E0E0E0"/>
<path d="M424.64 69.6108H393.191V70.5757H424.64V69.6108Z" fill="#E0E0E0"/>
<path fill-rule="evenodd" clip-rule="evenodd" d="M348.568 47.5048C348.227 49.3386 347.579 51.9068 346.431 52.5356C345.652 52.9677 344.461 52.2812 342.641 49.2665C344.466 49.1753 346.416 48.6377 348.15 47.7304C348.289 47.6584 348.429 47.5816 348.568 47.5048ZM340.023 49.0601C339.148 50.1066 338.365 50.8171 337.683 51.2827C336.67 51.9692 335.973 52.0748 335.584 51.9404C335.253 51.8204 335.085 51.2587 335.022 50.5531C334.907 49.3098 335.142 47.7592 335.33 46.8952C335.69 46.8471 336.065 46.7991 336.444 46.7607L336.636 47.0296C337.443 48.0809 338.634 48.7433 340.023 49.0601Z" fill="#CCCCCC" stroke="#CCCCCC" stroke-width="0.216" stroke-miterlimit="22.9256"/>
<path fill-rule="evenodd" clip-rule="evenodd" d="M348.635 24.0306C348.674 22.216 348.607 20.6991 348.458 19.4366C348.27 17.8957 347.948 16.71 347.526 15.8123C347.214 15.1498 346.743 14.5114 346.171 13.9977C345.628 13.5033 344.985 13.1097 344.293 12.8984C343.428 12.6344 342.588 12.6872 341.771 12.9369C341.007 13.1673 340.277 13.5705 339.562 14.0409C339.206 14.2714 338.899 14.4922 338.606 14.7034C337.39 15.5723 336.42 16.2683 334.676 15.7979C334.556 15.7643 334.441 15.7067 334.345 15.6251C334.206 15.5051 334.095 15.3418 334.038 15.1498C333.975 14.9434 333.97 14.7034 334.042 14.4346C334.114 14.1562 334.278 13.8537 334.542 13.5417L334.576 13.4937C334.672 13.3593 334.792 13.2249 334.931 13.0905C336.103 11.948 338.442 11.0647 341.104 10.8823C343.784 10.6999 346.762 11.2519 349.164 12.9897C349.625 13.3209 350.062 13.6953 350.475 14.1225C351.45 15.1258 352.2 16.5227 352.589 18.4237C352.925 20.0702 352.992 22.0912 352.704 24.5586C352.569 24.3138 352.406 24.0978 352.214 23.9154C351.844 23.5697 351.373 23.3585 350.816 23.3297C350.196 23.2961 349.462 23.5025 348.635 24.0306Z" fill="#666666" stroke="#666666" stroke-width="0.216" stroke-miterlimit="22.9256"/>
<path fill-rule="evenodd" clip-rule="evenodd" d="M332.933 14.7754C332.068 15.7451 331.362 16.9884 330.829 18.4141C329.671 21.5247 329.33 25.5283 329.964 29.3542C330.603 33.2137 332.236 36.9196 335.008 39.3966C336.084 40.3567 337.333 41.1344 338.759 41.6672C338.971 41.7488 342.117 42.6321 345.854 39.4206C347.699 37.8317 349.73 35.2251 351.666 30.9863L350.34 30.3815C348.506 34.4042 346.613 36.8476 344.908 38.3117C341.781 41 339.422 40.3567 339.268 40.2991C338.02 39.8383 336.929 39.1566 335.988 38.3117C333.48 36.0699 332.001 32.6761 331.41 29.119C330.814 25.5331 331.127 21.7984 332.198 18.9229C332.668 17.6652 333.279 16.5755 334.023 15.7451L332.933 14.7754Z" fill="#333333"/>
<path fill-rule="evenodd" clip-rule="evenodd" d="M348.602 25.0675C348.693 22.7825 348.635 20.9296 348.453 19.4366C348.265 17.8957 347.944 16.71 347.521 15.8123C347.209 15.1499 346.738 14.5114 346.166 13.9978C345.624 13.5034 344.98 13.1097 344.288 12.8985C343.424 12.6345 342.583 12.6873 341.766 12.9369C341.003 13.1673 340.273 13.5706 339.557 14.041C339.201 14.2714 338.894 14.4922 338.601 14.7035C337.386 15.5723 336.415 16.2684 334.672 15.7979C334.552 15.7643 334.436 15.7067 334.34 15.6251C334.201 15.5051 334.09 15.3419 334.033 15.1499C333.97 14.9435 333.966 14.7035 334.038 14.4346C334.11 14.1562 334.273 13.8538 334.537 13.5418L334.571 13.4938C334.667 13.3593 334.787 13.2249 334.926 13.0905C336.098 11.948 338.438 11.0648 341.099 10.8823C343.779 10.6999 346.757 11.252 349.159 12.9897C349.62 13.3209 350.057 13.6954 350.47 14.1226C351.445 15.1259 352.195 16.5228 352.584 18.4238C352.944 20.1951 352.992 22.3937 352.632 25.1155L352.579 25.5283C352.396 26.9541 352.281 27.8421 351.402 29.0614C351.277 29.2343 351.133 29.4215 350.965 29.6231C350.821 29.8007 350.653 29.9927 350.461 30.1943L350.629 30.7992L351.527 31.188C351.714 30.9864 351.902 30.7752 352.084 30.5496C352.252 30.3479 352.416 30.1367 352.579 29.9111C353.669 28.3942 353.804 27.3669 354.02 25.7156L354.073 25.3027C354.457 22.4129 354.4 20.0511 354.006 18.1309C353.559 15.9324 352.67 14.2954 351.508 13.1049C351.037 12.6201 350.533 12.1929 350.004 11.8088C347.295 9.84546 343.971 9.22621 340.988 9.42783C337.986 9.62944 335.296 10.6807 333.893 12.044C333.711 12.2217 333.548 12.4089 333.404 12.6009C332.99 13.0857 332.736 13.5802 332.611 14.0554C332.467 14.5979 332.486 15.1163 332.625 15.5723C332.77 16.0428 333.038 16.4412 333.384 16.734C333.649 16.9548 333.956 17.1181 334.283 17.2093C336.694 17.8573 337.909 16.9836 339.442 15.8892C339.735 15.6827 340.037 15.4619 340.345 15.2603C340.955 14.8571 341.569 14.5162 342.179 14.329C342.737 14.161 343.294 14.1226 343.851 14.2906C344.322 14.4346 344.773 14.7131 345.167 15.0731C345.595 15.4619 345.95 15.942 346.186 16.4316C346.546 17.1901 346.82 18.2269 346.988 19.6047C347.146 20.9248 347.209 22.5377 347.146 24.5011L347.516 25.0195L348.602 25.0675Z" fill="#333333"/>
<path fill-rule="evenodd" clip-rule="evenodd" d="M348.28 25.519C349.303 24.6165 350.139 24.2661 350.773 24.2949C351.09 24.3093 351.349 24.4293 351.556 24.6165C351.777 24.8229 351.935 25.1157 352.031 25.4662C352.286 26.3782 352.094 27.6311 351.373 28.7592C351.191 29.0473 350.883 29.3689 350.509 29.6281C350.326 29.7529 350.129 29.8585 349.927 29.9353C349.164 30.2186 349.543 31.0586 350.004 30.9338C350.384 30.8282 350.744 30.6506 351.061 30.4346C351.546 30.1034 351.95 29.6713 352.195 29.2873C353.069 27.9192 353.29 26.3686 352.973 25.2117C352.829 24.6885 352.574 24.2373 352.219 23.9108C351.849 23.5652 351.378 23.354 350.821 23.3252C349.942 23.282 348.837 23.714 347.569 24.8469C347.117 25.2549 347.665 26.0614 348.28 25.519Z" fill="#333333"/>
<path fill-rule="evenodd" clip-rule="evenodd" d="M350.033 25.9988C350.177 25.97 350.302 25.97 350.408 25.994C350.528 26.0228 350.624 26.09 350.682 26.1812C350.749 26.2916 350.787 26.4404 350.787 26.6132C350.787 26.9733 350.638 27.4341 350.331 27.9093C350.225 28.0726 350.052 28.2598 349.836 28.4038C349.754 28.4614 349.663 28.5142 349.567 28.5526C349.053 28.7734 349.221 29.191 349.634 29.047C349.803 28.9894 349.966 28.903 350.11 28.807C350.379 28.6246 350.605 28.3846 350.739 28.1734C351.095 27.6165 351.272 27.0645 351.272 26.6132C351.272 26.3444 351.21 26.1044 351.09 25.9172C350.96 25.7156 350.768 25.5764 350.513 25.5187C350.365 25.4851 350.192 25.4803 349.995 25.5091C349.356 25.6148 349.428 26.1188 350.033 25.9988Z" fill="#333333"/>
<path fill-rule="evenodd" clip-rule="evenodd" d="M349.534 46.4723L348.996 35.561L347.535 35.6282L348.078 46.5395L349.534 46.4723Z" fill="#333333"/>
<path fill-rule="evenodd" clip-rule="evenodd" d="M337.755 46.4147L338.553 40.563L337.107 40.3662L336.305 46.2179L337.755 46.4147Z" fill="#333333"/>
<path fill-rule="evenodd" clip-rule="evenodd" d="M348.832 45.8774L348.818 45.959C348.621 47.2936 347.977 51.6859 346.431 52.5356C345.566 53.0156 344.192 52.1179 342.011 48.172L340.729 48.8729C343.443 53.7885 345.547 54.691 347.132 53.8125C349.317 52.6076 350.043 47.6632 350.264 46.1655L350.278 46.0839L348.832 45.8774Z" fill="#333333"/>
<path fill-rule="evenodd" clip-rule="evenodd" d="M334.033 46.0454C333.836 46.7559 333.404 48.964 333.567 50.6874C333.682 51.9211 334.11 52.9628 335.099 53.3132C335.849 53.5772 337.035 53.486 338.505 52.4875C339.494 51.8107 340.662 50.7018 341.954 48.9592L340.782 48.0904C339.595 49.6841 338.553 50.6874 337.679 51.2826C336.665 51.9691 335.969 52.0747 335.58 51.9403C335.248 51.8203 335.08 51.2586 335.018 50.553C334.873 49.0361 335.263 47.0727 335.435 46.439L334.033 46.0454Z" fill="#333333"/>
<path fill-rule="evenodd" clip-rule="evenodd" d="M339.264 29.3782C336.876 30.3238 336.036 29.2149 336.069 28.1829C336.108 26.7907 337.414 27.0692 337.15 24.813C338.284 26.4019 335.728 28.1637 337.256 28.9941C337.582 29.1717 338.101 29.3542 339.264 29.3782Z" fill="#333333"/>
<path fill-rule="evenodd" clip-rule="evenodd" d="M337.986 32.7339C340.777 34.9853 341.791 30.9914 342.28 30.377C342.141 35.3358 338.337 34.9901 337.986 32.7339Z" fill="#333333"/>
<path fill-rule="evenodd" clip-rule="evenodd" d="M340.167 23.9923C341.651 20.4832 345.59 22.485 345.604 24.3619C345.417 24.1555 344.591 23.6611 344.12 23.6035C343.957 25.6916 341.459 26.1285 340.786 23.9011C340.522 23.8867 340.364 23.8723 340.167 23.9923Z" fill="#333333"/>
<path fill-rule="evenodd" clip-rule="evenodd" d="M331.674 23.8434C333.024 20.2815 337.04 22.1345 337.126 24.0115C336.929 23.8146 336.089 23.349 335.613 23.3106C335.531 25.4036 333.048 25.9316 332.294 23.733C332.025 23.7234 331.866 23.7186 331.674 23.8434Z" fill="#333333"/>
<path fill-rule="evenodd" clip-rule="evenodd" d="M282.544 43.842C281.756 40.3425 281.958 39.3296 282.256 37.8511L282.299 37.6447C282.391 37.1838 282.53 36.6702 282.66 36.1805C282.924 35.1821 283.164 34.2796 283.049 33.6219C282.905 32.7915 282.424 32.3642 281.372 32.5466C279.667 32.8395 278.85 34.4188 278.163 35.7389C277.798 36.4446 277.491 37.035 277.4 37.0206C277.304 36.987 277.208 36.9438 277.112 36.891C277.006 36.8334 276.9 36.7566 276.785 36.675C276.583 36.5262 276.252 36.2333 275.843 35.8781C273.533 33.8427 268.994 29.844 265.838 32.513C264.963 33.2523 264.502 34.6924 264.988 36.6846C265.343 38.1343 266.208 39.9248 267.807 41.9842C267.87 42.061 268.139 42.3586 268.71 42.7859C269.018 43.0115 269.426 43.2899 269.969 43.6116C270.526 43.9428 271.189 44.1876 271.986 44.4852C273.182 44.9317 274.71 45.4981 276.497 46.5926L277.26 45.3493C275.349 44.178 273.754 43.5827 272.495 43.1171C271.756 42.8435 271.146 42.6131 270.713 42.3586C270.228 42.0706 269.858 41.821 269.58 41.6146C269.157 41.3026 268.998 41.1393 268.965 41.0961C267.5 39.2048 266.717 37.6111 266.405 36.3486C266.063 34.9612 266.294 34.0444 266.779 33.6315C268.97 31.7786 272.884 35.2253 274.873 36.9774C275.301 37.3518 275.646 37.6591 275.911 37.8559C276.064 37.9663 276.223 38.0719 276.386 38.1679C276.564 38.2687 276.746 38.3503 276.934 38.4127C278.202 38.8256 278.769 37.7311 279.451 36.4158C279.984 35.3885 280.623 34.1644 281.608 33.9916C281.617 33.9916 281.593 33.8043 281.603 33.8763C281.66 34.222 281.459 34.9804 281.238 35.8205C281.108 36.3102 280.974 36.8238 280.863 37.3758L280.82 37.5823C280.484 39.248 280.258 40.3857 281.108 44.1732L282.544 43.842Z" fill="#333333"/>
<path fill-rule="evenodd" clip-rule="evenodd" d="M278.73 44.1827C278.039 44.4563 277.376 44.7635 276.852 45.09C275.123 44.0771 273.658 43.5346 272.495 43.1026C271.756 42.829 271.146 42.5985 270.713 42.3441C270.228 42.0561 269.858 41.8065 269.58 41.6001C269.157 41.288 268.998 41.1248 268.965 41.0816C268.83 40.9088 268.705 40.7408 268.581 40.5728C267.36 38.9022 266.683 37.4813 266.405 36.3292C266.063 34.9419 266.294 34.025 266.779 33.6122C267 33.425 267.24 33.2906 267.49 33.2042C269.738 32.4361 273.081 35.3787 274.873 36.9581C275.301 37.3325 275.646 37.6397 275.911 37.8366C276.064 37.947 276.223 38.0526 276.386 38.1486C276.564 38.2494 276.746 38.331 276.934 38.3934C278.202 38.8062 278.769 37.7117 279.451 36.3964C279.984 35.3691 280.623 34.145 281.612 33.9722C281.617 34.3515 281.439 35.0427 281.238 35.8012C281.108 36.2908 280.973 36.8045 280.863 37.3565L280.82 37.5629C280.508 39.1231 280.287 40.2175 280.954 43.453C280.272 43.6354 279.48 43.8899 278.73 44.1827Z" fill="#FEFEFE"/>
<path fill-rule="evenodd" clip-rule="evenodd" d="M341.185 88.6872C340.023 88.476 338.904 88.0631 337.376 87.2999C336.305 86.7622 335.435 86.2006 334.739 85.6341C334.143 85.1493 333.673 84.6596 333.312 84.1748C333.476 85.7349 333.908 87.4535 334.484 89.1768C335.311 91.6442 336.425 94.1212 337.472 96.195C337.976 94.8125 338.649 93.3484 339.403 91.889C339.965 90.8042 340.57 89.7241 341.185 88.6872Z" fill="#FF6F3D" stroke="#FF6F3D" stroke-width="0.5669" stroke-miterlimit="22.9256"/>
<path fill-rule="evenodd" clip-rule="evenodd" d="M333.24 82.8018C333.226 84.6883 333.735 86.9253 334.484 89.1767C335.311 91.6441 336.425 94.1211 337.472 96.1949C337.976 94.8123 338.649 93.3482 339.403 91.8889C340.729 89.3303 342.304 86.7861 343.683 84.7507L344.812 85.5092C343.452 87.5157 341.901 90.0168 340.609 92.513C339.6 94.4667 338.745 96.4205 338.27 98.1294L337.818 99.7568L337.016 98.2686C335.757 95.926 334.244 92.7674 333.192 89.6135C332.4 87.2373 331.862 84.8563 331.876 82.8066L333.24 82.8018Z" fill="#333333"/>
<path fill-rule="evenodd" clip-rule="evenodd" d="M326.429 63.5715C324.138 66.7637 320.256 70.4072 316.125 72.9418C312.532 75.1452 308.776 76.4941 305.808 75.9229C305.481 75.8605 304.097 75.4093 301.917 71.953C299.645 68.3479 296.7 61.6465 293.597 49.2087C294.063 49.0071 294.687 48.8199 295.341 48.671C296.273 48.455 297.253 48.311 297.978 48.2582C298.439 49.3527 298.934 50.6056 299.448 51.9065C301.532 57.2013 303.963 63.3795 307.95 67.5798L308.382 68.0358L308.896 67.6758C310.241 66.7397 313.829 62.501 317.163 58.5551C319.896 55.3244 322.456 52.2953 323.331 51.5993C324.58 50.6008 326.126 49.5639 328.273 48.6854C330.344 47.8358 332.976 47.1349 336.444 46.7557L336.636 47.0245C337.775 48.5174 339.686 49.2231 341.829 49.2759C343.875 49.3239 346.157 48.7719 348.15 47.7302C348.707 47.4421 349.241 47.1157 349.74 46.7557C352.007 47.1925 355.197 48.599 358.257 50.3848C361.345 52.1849 364.271 54.3547 365.966 56.2989C366.62 58.075 367.393 60.0672 368.214 62.1938C372.432 73.0763 378.057 87.5879 376.01 95.1581C375.996 95.2061 375.732 95.5709 374.276 95.7677C373.335 95.8925 371.985 95.8781 370.059 95.5421C367.989 95.1821 365.222 94.318 361.648 92.9403C358.031 91.5482 353.607 89.6376 348.261 87.199L347.655 88.5239C353.04 90.9817 357.493 92.9019 361.124 94.3036C364.799 95.7197 367.657 96.6078 369.819 96.9822C371.903 97.3423 373.402 97.3567 374.478 97.2126C376.793 96.9006 377.384 95.7053 377.427 95.5421C379.599 87.5159 373.873 72.745 369.579 61.6705C368.738 59.5007 367.95 57.475 367.292 55.6748L367.244 55.55L367.158 55.4492C365.371 53.3562 362.258 51.028 358.992 49.1223C355.663 47.1781 352.137 45.6612 349.673 45.2628L349.366 45.2148L349.116 45.4068C348.602 45.7956 348.054 46.146 347.478 46.4437C345.696 47.3701 343.673 47.8694 341.862 47.8214C340.148 47.7782 338.649 47.2501 337.799 46.1412C337.679 45.9828 337.573 45.8196 337.482 45.6468L337.251 45.21L336.761 45.258C332.909 45.6372 329.998 46.4005 327.721 47.3365C325.425 48.2774 323.763 49.3911 322.423 50.4616C321.419 51.2633 318.82 54.3355 316.049 57.6142C313.147 61.0465 310.044 64.714 308.55 66.0725C305.029 62.0882 302.762 56.3325 300.812 51.3737C300.245 49.9287 299.702 48.551 299.126 47.2213L298.934 46.7797H298.453C297.632 46.7845 296.273 46.9573 295.024 47.2453C293.977 47.4901 292.977 47.8214 292.363 48.215L291.925 48.4982L292.05 49.0023C295.249 61.9777 298.324 68.9671 300.692 72.7306C303.19 76.6958 305.087 77.2718 305.543 77.3582C308.906 78.0063 313.018 76.5613 316.894 74.1851C321.222 71.5305 325.3 67.6902 327.687 64.3251C328.499 63.1826 327.294 62.3714 326.429 63.5715Z" fill="#333333"/>
<path fill-rule="evenodd" clip-rule="evenodd" d="M365.961 56.2943C366.615 58.0705 367.388 60.0627 368.209 62.1892C372.427 73.0717 378.052 87.5833 376.005 95.1535C375.991 95.2015 375.727 95.5664 374.271 95.7632C373.33 95.888 371.98 95.8736 370.054 95.5376C367.984 95.1775 365.217 94.3135 361.643 92.9358C358.194 91.6061 354.01 89.8059 348.991 87.5257C349.572 87.0937 350.096 86.5752 350.557 85.9992C350.902 85.5672 351.21 85.1063 351.484 84.6215C353.616 85.2743 356.758 85.9992 359.823 86.5608C362.575 87.0697 365.275 87.4489 367.138 87.5353C368.291 87.5881 368.45 86.1336 367.153 86.0712C366.999 86.0616 366.845 86.0568 366.682 86.0424C366.101 85.3223 364.645 82.8837 363.204 80.2627C361.835 77.7665 360.495 75.1311 359.957 73.667C360.005 71.3772 360.12 69.0586 360.298 66.7064C360.385 65.5783 358.934 65.3431 358.843 66.572C358.602 69.7306 358.478 72.8605 358.473 75.976C358.468 78.9858 358.578 81.9525 358.795 84.8855C356.311 84.3959 353.89 83.8246 352.132 83.3014C352.281 82.9461 352.411 82.5861 352.526 82.2309C352.944 80.906 353.141 79.5619 353.103 78.4338C353.059 77.1137 346.104 81.9765 345.417 81.4292C345.254 81.2996 345.09 81.2036 344.932 81.1316L345.134 80.1427C345.162 80.0227 345.177 79.9075 345.177 79.7971C345.177 79.437 345.042 79.101 344.821 78.8322C344.61 78.5682 344.307 78.3714 343.971 78.2898C343.851 78.261 343.731 78.2466 343.611 78.2466L344.716 72.3277C344.461 68.1177 344.144 64.3734 343.885 61.2436C343.664 58.5745 343.476 56.3376 343.395 54.7438C343.433 54.643 343.472 54.547 343.51 54.4414C343.659 54.043 343.803 53.6253 343.937 53.1981C345.182 54.2398 346.243 54.3118 347.137 53.8173C349.058 52.7565 349.851 48.8009 350.163 46.8472C352.392 47.3656 355.379 48.7097 358.252 50.3851C361.34 52.1804 364.266 54.3502 365.961 56.2943ZM338.241 55.2623C338.144 54.9502 338.053 54.6142 337.967 54.259C337.866 53.8365 337.77 53.4093 337.679 52.9725C336.588 53.5101 335.699 53.5293 335.094 53.3133C334.105 52.9629 333.682 51.9212 333.562 50.6875C333.451 49.5162 333.615 48.1289 333.793 47.1304C331.583 47.524 329.777 48.0665 328.269 48.6809C326.121 49.5594 324.575 50.5963 323.326 51.5948C322.451 52.2908 319.891 55.3199 317.158 58.5505C313.824 62.4917 310.236 66.7352 308.891 67.6713L308.377 68.0313L307.945 67.5753C303.963 63.3749 301.528 57.1968 299.443 51.902C298.929 50.6011 298.439 49.3482 297.973 48.2537C297.248 48.3017 296.273 48.4505 295.336 48.6665C294.683 48.8201 294.058 49.0025 293.592 49.2042C296.7 61.6468 299.64 68.3433 301.912 71.9484C304.088 75.4047 305.471 75.856 305.803 75.9184C308.771 76.4896 312.523 75.1407 316.121 72.9373C320.252 70.4027 324.133 66.764 326.424 63.5669C327.289 62.362 328.494 63.1733 327.678 64.3206C326.842 65.4919 325.804 66.7256 324.623 67.9449L324.575 68.857L324.527 69.9755C324.378 74.4062 324.411 83.3686 324.877 91.8365C325.194 97.5969 325.703 103.122 326.482 106.804C331.583 109.684 337.347 110.956 343.049 111.201C350.225 111.508 357.32 110.198 362.926 108.431C362.263 106.012 361.677 103.621 361.163 101.245C360.625 98.7538 360.168 96.2624 359.794 93.7758C356.58 92.4989 352.781 90.8476 348.323 88.8266C338.308 67.7433 338.433 80.7188 338.092 80.4163C337.755 80.1139 335.282 80.666 335.229 80.1907L329.801 74.123L329.786 73.931C329.786 73.5422 329.931 73.1821 330.171 72.9037C330.416 72.6253 330.757 72.4285 331.146 72.3853C331.218 72.3757 331.285 72.3709 331.333 72.3757L334.998 72.3613C335.234 69.9035 336.108 60.7107 338.241 55.2623Z" fill="#EFEFEF"/>
<path fill-rule="evenodd" clip-rule="evenodd" d="M367.274 55.5167L367.369 55.7764C367.955 57.3695 368.639 59.1394 369.374 61.0401C369.451 61.241 369.529 61.4433 369.608 61.647M369.609 61.6486L369.623 61.6865C371.724 67.1058 374.204 73.5051 375.9 79.5053C376.751 82.5154 377.415 85.4621 377.733 88.164C378.05 90.8502 378.036 93.3913 377.454 95.5448L377.448 95.5648L377.442 95.5847C377.363 95.8478 377.23 96.029 377.178 96.097C377.1 96.1988 377.015 96.2868 376.93 96.3624C376.759 96.5141 376.559 96.6421 376.336 96.7506C375.896 96.9652 375.298 97.1379 374.472 97.2495L374.469 97.25C373.334 97.4004 371.825 97.3689 369.797 97.0152C367.644 96.6408 364.87 95.7751 361.417 94.4554C361.759 96.6105 362.163 98.769 362.629 100.928C363.137 103.277 363.716 105.641 364.372 108.035L364.754 109.428L363.376 109.862C357.643 111.669 350.372 113.016 342.985 112.7C337.112 112.448 331.102 111.135 325.744 108.11L325.154 107.777L325.014 107.114C324.21 103.311 323.697 97.6871 323.38 91.9187C322.911 83.4102 322.877 74.4035 323.027 69.9249L323.028 69.9109L323.044 69.5436C321.18 71.26 319.075 72.884 316.905 74.2157L316.904 74.2163C313.238 76.4612 309.069 78.0729 305.522 77.3917C304.59 77.2151 302.909 76.3473 300.642 72.7474C298.249 68.9499 295.262 62.0796 292.137 49.5675L291.829 48.3328L292.997 47.8274C293.583 47.5737 294.307 47.3673 294.993 47.2062L294.999 47.2047C295.998 46.9744 297.053 46.8111 297.874 46.7568L298.936 46.6865L299.353 47.666C299.773 48.6528 300.212 49.7637 300.66 50.8988C300.719 51.0491 300.778 51.1998 300.838 51.3507L300.839 51.3523C302.856 56.4773 305.083 62.0752 308.545 66.0084C308.729 65.8375 308.95 65.6214 309.209 65.3569C309.762 64.7907 310.423 64.0696 311.157 63.2422C312.62 61.5922 314.333 59.5675 315.999 57.598L316.013 57.5817L316.085 57.4958C317.424 55.9138 318.728 54.3717 319.81 53.1348C320.865 51.9279 321.822 50.875 322.39 50.4224C323.725 49.3552 325.394 48.2362 327.701 47.2925L327.703 47.2916C329.315 46.6348 331.223 46.0644 333.529 45.6535L335.646 45.2764L335.269 47.3931C335.1 48.3448 334.964 49.5742 335.055 50.5441C335.105 51.0503 335.208 51.4046 335.326 51.6259C335.429 51.819 335.517 51.8717 335.595 51.8992L335.598 51.9004C335.733 51.9485 336.195 52.0313 337.015 51.627L338.751 50.7711L339.147 52.6656C339.235 53.0864 339.327 53.4986 339.425 53.9068C339.505 54.2372 339.589 54.5429 339.674 54.8207L339.828 55.3212L339.637 55.8089C337.597 61.0214 336.733 69.9813 336.491 72.5041L336.362 73.8558L331.591 73.8745L336.078 78.8901C336.183 78.8867 336.311 78.8802 336.462 78.871C336.516 78.8677 336.573 78.864 336.632 78.8602C336.718 78.8547 336.809 78.8488 336.902 78.8433C336.921 78.7504 336.941 78.6552 336.963 78.5593C337.07 78.09 337.232 77.5144 337.493 76.9862C337.741 76.4846 338.183 75.8134 338.962 75.4615C339.834 75.0676 340.738 75.2382 341.51 75.6728C341.82 75.8472 342.129 76.0734 342.439 76.3477L343.207 72.234C342.971 68.3744 342.684 64.9118 342.438 61.9497C342.422 61.7534 342.406 61.5592 342.39 61.3673L342.362 61.0332C342.154 58.5203 341.976 56.3753 341.897 54.8204L341.88 54.5047L341.993 54.2094C342.013 54.1583 342.028 54.1187 342.041 54.0838C342.063 54.0286 342.08 53.9855 342.1 53.9283L342.105 53.9161C342.245 53.5421 342.38 53.1494 342.507 52.7475L343.18 50.6076L344.9 52.0478C345.381 52.45 345.715 52.5716 345.909 52.603C346.078 52.6304 346.228 52.6055 346.41 52.5048L346.412 52.5041C346.593 52.4039 346.837 52.181 347.11 51.7516C347.377 51.3303 347.621 50.7901 347.837 50.172C348.27 48.9338 348.53 47.5613 348.682 46.6103L348.935 45.0215L350.503 45.386C352.941 45.9532 356.077 47.3801 359.007 49.0886C362.157 50.92 365.241 53.1866 367.092 55.3082L367.274 55.5167M358.252 50.3849C355.966 49.0515 353.606 47.9279 351.615 47.2634C351.104 47.093 350.618 46.9528 350.163 46.847C350.096 47.264 350.008 47.7722 349.891 48.324C349.461 50.3575 348.648 52.9827 347.137 53.8172C346.578 54.1262 345.954 54.214 345.261 53.982C344.845 53.8428 344.404 53.5886 343.937 53.1979C343.803 53.6252 343.659 54.0428 343.51 54.4412C343.484 54.5117 343.459 54.5779 343.433 54.6441C343.427 54.6592 343.421 54.6744 343.415 54.6896C343.409 54.7075 343.402 54.7255 343.395 54.7437C343.473 56.2741 343.649 58.3976 343.858 60.9272L343.885 61.2434C343.901 61.436 343.917 61.631 343.933 61.8283C344.183 64.8359 344.477 68.3767 344.716 72.3275L343.611 78.2464C343.731 78.2464 343.851 78.2608 343.971 78.2896C344.036 78.3053 344.099 78.3252 344.161 78.349C344.178 78.3557 344.195 78.3627 344.212 78.37C344.451 78.4721 344.662 78.633 344.821 78.832C345.039 79.0975 345.173 79.4285 345.177 79.7834C345.177 79.7879 345.177 79.7924 345.177 79.7969C345.177 79.9073 345.162 80.0225 345.134 80.1425L344.932 81.1314C345.09 81.2034 345.254 81.2994 345.417 81.4291C345.516 81.508 345.746 81.4743 346.066 81.3629C346.086 81.3558 346.107 81.3485 346.128 81.3409C346.226 81.3049 346.333 81.2622 346.446 81.2138C347.122 80.9243 348.041 80.4289 348.979 79.9227C349.907 79.4223 350.854 78.9113 351.606 78.5784C351.607 78.5777 351.609 78.5771 351.61 78.5764C351.691 78.541 351.768 78.5076 351.844 78.4765C351.845 78.4759 351.847 78.4753 351.848 78.4747C352.59 78.1688 353.091 78.0823 353.103 78.4336C353.138 79.4635 352.976 80.6734 352.63 81.8843C352.597 81.9998 352.562 82.1153 352.526 82.2307C352.416 82.5709 352.292 82.9154 352.151 83.256C352.145 83.2711 352.139 83.2861 352.132 83.3012C352.578 83.4339 353.066 83.5696 353.587 83.7063C354.697 83.9974 355.955 84.2929 357.268 84.5725C357.771 84.6795 358.281 84.7841 358.795 84.8853C358.793 84.8695 358.792 84.8536 358.791 84.8377C358.754 84.3378 358.721 83.837 358.69 83.3351C358.543 80.9078 358.469 78.4565 358.473 75.9758C358.474 75.3269 358.48 74.6774 358.491 74.0271C358.494 73.8968 358.496 73.7666 358.499 73.6362C358.546 71.3555 358.656 69.0652 358.828 66.7597C358.833 66.7052 358.837 66.6506 358.841 66.5961C358.841 66.5956 358.841 66.5951 358.841 66.5946C358.841 66.587 358.842 66.5794 358.843 66.5718C358.933 65.3525 360.362 65.5746 360.3 66.6801C360.3 66.6809 360.3 66.6818 360.3 66.6826C360.299 66.6905 360.299 66.6983 360.298 66.7062C360.295 66.7447 360.292 66.7831 360.289 66.8215C360.117 69.1342 360.004 71.4144 359.957 73.6668C359.97 73.7013 359.983 73.7364 359.996 73.7722C360.558 75.255 361.867 77.8251 363.204 80.2626C364.621 82.8386 366.051 85.2385 366.651 86.0037C366.662 86.0171 366.672 86.0299 366.682 86.0422C366.789 86.0517 366.892 86.057 366.993 86.0622C367.013 86.0633 367.034 86.0643 367.054 86.0654C367.087 86.0672 367.12 86.069 367.153 86.071C367.17 86.0719 367.188 86.073 367.205 86.0744C367.205 86.0744 367.205 86.0744 367.205 86.0744C368.444 86.1736 368.275 87.5872 367.138 87.5352C367.12 87.5343 367.101 87.5334 367.082 87.5325C367.075 87.5322 367.068 87.5318 367.061 87.5315C367.032 87.53 367.003 87.5285 366.973 87.5268C366.837 87.5195 366.697 87.5107 366.553 87.5005C366.339 87.4853 366.117 87.4671 365.887 87.4459C364.321 87.3018 362.404 87.0232 360.43 86.6711C360.228 86.635 360.026 86.5982 359.823 86.5607C359.387 86.4808 358.949 86.3976 358.513 86.3118C355.995 85.816 353.529 85.2327 351.718 84.6922C351.639 84.6685 351.561 84.6448 351.484 84.6213C351.475 84.6361 351.467 84.6509 351.458 84.6657C351.191 85.1343 350.892 85.5802 350.557 85.999C350.44 86.1447 350.319 86.2867 350.195 86.4246C349.905 86.7457 349.593 87.0442 349.262 87.3144C349.185 87.3773 349.106 87.4388 349.027 87.4986C349.015 87.5076 349.003 87.5166 348.991 87.5256C349.151 87.5981 349.309 87.6702 349.468 87.7419C349.822 87.9022 350.171 88.0601 350.517 88.2156C354.267 89.9027 357.523 91.3032 360.332 92.4216C360.611 92.5326 360.885 92.6409 361.156 92.7464C361.32 92.8105 361.482 92.8736 361.643 92.9356C365.217 94.3133 367.984 95.1774 370.054 95.5374C371.98 95.8734 373.33 95.8878 374.271 95.763C375.727 95.5662 375.991 95.2014 376.005 95.1534C378.051 87.5847 372.429 73.0774 368.212 62.1956L368.209 62.1891C368.131 61.9848 368.052 61.7817 367.974 61.58C367.241 59.6817 366.552 57.8997 365.961 56.2942C364.266 54.35 361.34 52.1803 358.252 50.3849ZM348.323 88.8265C348.344 88.8361 348.365 88.8457 348.387 88.8553C352.817 90.8631 356.596 92.5048 359.794 93.7757C359.796 93.792 359.799 93.8084 359.801 93.8248C360.174 96.2951 360.628 98.7701 361.163 101.245C361.677 103.621 362.263 106.012 362.926 108.431C357.32 110.198 350.225 111.508 343.049 111.201C337.347 110.956 331.583 109.684 326.482 106.804C325.703 103.122 325.194 97.5968 324.877 91.8363C324.411 83.3684 324.378 74.4061 324.527 69.9753L324.575 68.8568L324.623 67.9447C325.768 66.763 326.778 65.5677 327.6 64.4287C327.603 64.4248 327.606 64.4208 327.609 64.4168C327.608 64.4171 327.609 64.4166 327.609 64.4168C327.632 64.3849 327.655 64.3523 327.678 64.3205C328.473 63.2035 327.351 62.4051 326.493 63.4753C326.493 63.4758 326.493 63.4762 326.492 63.4767C326.479 63.4936 326.465 63.5109 326.452 63.5287C326.443 63.5412 326.433 63.5539 326.424 63.5668C325.642 64.6574 324.676 65.7995 323.577 66.9315C323.437 67.0757 323.295 67.2197 323.151 67.3634C321.11 69.3993 318.663 71.3773 316.121 72.9372C312.523 75.1405 308.771 76.4894 305.803 75.9182C305.471 75.8558 304.088 75.4046 301.912 71.9483C299.64 68.3432 296.7 61.6466 293.592 49.204C294.058 49.0024 294.683 48.82 295.336 48.6664C296.273 48.4503 297.248 48.3015 297.973 48.2535C298.385 49.2205 298.815 50.3112 299.264 51.4494C299.323 51.5994 299.383 51.7503 299.443 51.9018C301.528 57.1967 303.963 63.3748 307.945 67.5751L308.377 68.0312L308.891 67.6711C310.233 66.7371 313.809 62.51 317.136 58.5762L317.225 58.4712C319.933 55.2703 322.459 52.285 323.326 51.5946C324.575 50.5961 326.121 49.5592 328.269 48.6808C329.403 48.2188 330.705 47.7975 332.221 47.4496C332.721 47.3347 333.244 47.2279 333.793 47.1302C333.711 47.5892 333.632 48.1304 333.582 48.695C333.522 49.3586 333.502 50.0545 333.562 50.6873C333.682 51.921 334.105 52.9627 335.094 53.3131C335.405 53.4241 335.791 53.473 336.24 53.4214C336.666 53.3726 337.148 53.2338 337.679 52.9723C337.77 53.4092 337.866 53.8364 337.967 54.2588C337.984 54.329 338.001 54.3985 338.019 54.4672C338.089 54.7459 338.163 55.0118 338.241 55.2621C336.116 60.6903 335.24 69.8349 335.001 72.3334L334.998 72.3611L331.333 72.3755C331.285 72.3707 331.218 72.3755 331.146 72.3851C330.757 72.4283 330.416 72.6251 330.171 72.9035C329.931 73.182 329.786 73.542 329.786 73.9308L329.801 74.1229L335.229 80.1906C335.258 80.4513 336.015 80.4028 336.749 80.3559C337.353 80.3172 337.94 80.2797 338.092 80.4162C338.11 80.4324 338.127 80.4105 338.144 80.358C338.144 80.3575 338.144 80.3571 338.144 80.3566C338.174 80.266 338.204 80.0858 338.243 79.8522C338.286 79.5997 338.339 79.2848 338.412 78.9531C338.414 78.9443 338.416 78.9354 338.418 78.9266C338.778 77.3232 339.626 75.3569 342.106 78.136C342.482 78.5576 342.895 79.0885 343.351 79.7464C343.435 79.8676 343.52 79.9931 343.607 80.123C343.783 80.3876 343.966 80.6706 344.154 80.9729C344.312 81.2255 344.474 81.4917 344.641 81.7719C344.711 81.8904 344.783 82.0114 344.855 82.135C344.855 82.1355 344.855 82.136 344.855 82.1366C345.008 82.398 345.164 82.6708 345.323 82.9554C345.948 84.0687 346.628 85.3627 347.37 86.861C347.677 87.4807 347.995 88.1353 348.323 88.8265ZM348.579 85.9234C347.975 84.711 347.408 83.6269 346.875 82.6599C347.098 82.5695 347.326 82.4657 347.549 82.3595C348.192 82.0518 348.964 81.6354 349.707 81.2344C349.877 81.1427 350.045 81.0518 350.21 80.9632C350.657 80.7233 351.078 80.5013 351.457 80.3106C351.373 80.7845 351.254 81.2777 351.097 81.7738C350.993 82.0964 350.878 82.4142 350.749 82.7213L350.503 83.3067L350.178 83.8837C349.94 84.3042 349.677 84.6975 349.386 85.0616C349.134 85.3761 348.864 85.6649 348.579 85.9234ZM335.746 78.8857C335.746 78.8856 335.751 78.8861 335.759 78.8875C335.75 78.8865 335.746 78.8858 335.746 78.8857ZM360.316 85.1263C361.866 85.4091 363.374 85.6453 364.701 85.8086C364.476 85.4551 364.232 85.0577 363.979 84.6372C363.351 83.5906 362.618 82.3089 361.89 80.9852L361.889 80.9838C361.227 79.777 360.558 78.5135 359.979 77.3516C360.004 79.8534 360.11 82.3259 360.291 84.7751L360.316 85.1263Z" fill="#333333"/>
<path fill-rule="evenodd" clip-rule="evenodd" d="M372.96 236.962C371.817 238.253 370.366 239.641 368.877 241.061C366.466 243.366 363.958 245.761 362.705 247.811C361.763 249.352 361.59 250.686 362.926 251.565C363.737 251.666 366.639 250.441 370.001 248.742C373.762 246.841 377.999 244.345 380.598 242.372C380.617 242.353 380.67 242.314 380.689 242.305C380.742 242.266 380.828 242.209 380.929 242.122C381.467 241.657 382.317 240.394 379.685 237.336L380.795 236.386C384.292 240.452 382.778 242.454 381.875 243.231C381.746 243.342 381.616 243.433 381.53 243.495L381.462 243.543C378.782 245.574 374.473 248.118 370.659 250.043C366.889 251.949 363.502 253.264 362.436 252.952L362.344 252.928L362.263 252.875C359.89 251.43 360.039 249.376 361.461 247.052C362.815 244.839 365.39 242.377 367.873 240.005C369.343 238.599 370.779 237.231 371.87 235.997L372.96 236.962Z" fill="#333333"/>
<path fill-rule="evenodd" clip-rule="evenodd" d="M332.015 236.007C330.541 236.612 328.744 237.231 326.909 237.86C323.22 239.122 319.373 240.442 317.163 242.055C315.203 243.491 314.444 245.132 315.895 247.105L315.953 247.182L316.029 247.245C316.908 247.95 321.265 248.065 326.179 247.763C330.935 247.47 336.295 246.827 339.466 245.987L339.542 245.968C340.277 245.804 343.241 245.128 341.824 239.914C341.771 239.722 341.387 238.877 341.031 238.081C340.738 237.433 340.46 236.813 340.426 236.717L339.038 237.173C339.086 237.322 339.384 237.985 339.701 238.681C340.037 239.43 340.397 240.222 340.417 240.294C341.435 244.048 339.662 244.446 339.225 244.542L339.12 244.566C336.041 245.382 330.781 246.011 326.097 246.299C321.645 246.573 317.787 246.568 317.014 246.14C316.298 245.07 316.822 244.11 318.037 243.222C320.06 241.743 323.801 240.462 327.394 239.228C329.22 238.604 331.011 237.989 332.582 237.341L332.015 236.007Z" fill="#333333"/>
<path fill-rule="evenodd" clip-rule="evenodd" d="M368.877 241.061C366.466 243.366 363.959 245.761 362.705 247.811C361.763 249.352 361.59 250.686 362.926 251.565C363.738 251.666 366.639 250.441 370.001 248.742C373.762 246.841 377.999 244.345 380.598 242.372C380.617 242.353 380.67 242.314 380.689 242.305C380.742 242.266 380.828 242.209 380.929 242.122C381.222 241.873 381.602 241.393 381.477 240.524C381.385 239.861 380.996 238.968 380.05 237.778C379.065 238.205 377.821 238.388 376.577 238.354C375.127 238.316 373.638 237.989 372.552 237.418C371.649 238.402 370.587 239.429 369.487 240.485C369.281 240.677 369.079 240.869 368.877 241.061Z" fill="#FEFEFE"/>
<path fill-rule="evenodd" clip-rule="evenodd" d="M340.407 240.298C340.431 240.385 340.455 240.471 340.474 240.557C341.344 244.071 339.643 244.455 339.216 244.551L339.11 244.575C336.031 245.391 330.771 246.02 326.088 246.308C321.635 246.582 317.778 246.577 317.004 246.15C316.289 245.079 316.812 244.119 318.028 243.231C319.257 242.329 321.131 241.503 323.215 240.716C324.555 240.212 325.977 239.722 327.385 239.242C329.018 238.68 330.622 238.133 332.068 237.557C332.966 238.148 334.355 238.757 335.949 238.863C337.054 238.935 338.26 238.767 339.466 238.186C339.538 238.344 339.614 238.517 339.691 238.685C340.028 239.434 340.383 240.226 340.407 240.298Z" fill="#FEFEFE"/>
<path fill-rule="evenodd" clip-rule="evenodd" d="M361.148 110.491C364.535 121.565 368.32 141.569 371.634 164.188C376.414 187.484 379.493 213.723 379.45 235.954C378.571 236.439 377.288 236.722 376.01 236.751C374.742 236.78 373.513 236.568 372.73 236.074C371.63 231.888 367.196 213.911 361.24 193.058C356.215 175.459 349.61 156.344 346.142 142.937L344.754 137.872C344.668 150.464 343.822 163.689 343.275 172.267C343.111 174.85 342.972 177.01 342.886 178.657C342.881 178.767 342.886 179.189 342.895 179.895C342.977 186.006 343.342 214.021 339.004 236.78C337.986 237.313 336.963 237.466 336.031 237.409C334.763 237.327 333.653 236.852 332.928 236.381C332.846 229.8 332.625 220.343 332.006 210.262C331.372 199.956 330.31 188.963 328.542 179.645C328.398 178.887 325.737 163.631 325.584 142.994C325.507 132.683 326.059 121.028 327.865 109.166C332.635 111.408 337.837 112.44 342.986 112.665C349.442 112.944 355.812 111.955 361.148 110.491Z" fill="#404040" stroke="#404040" stroke-width="0.216" stroke-miterlimit="22.9256"/>
<path fill-rule="evenodd" clip-rule="evenodd" d="M344.759 137.728C344.677 150.363 343.827 163.655 343.28 172.267C343.116 174.85 342.977 177.01 342.89 178.656C342.886 178.767 342.89 179.189 342.9 179.895C342.982 186.006 343.347 214.021 339.009 236.78C337.991 237.312 336.968 237.466 336.036 237.408C334.768 237.327 333.658 236.852 332.933 236.381C332.851 229.8 332.63 220.343 332.011 210.262C331.376 199.956 330.315 188.963 328.547 179.645C328.403 178.887 325.742 163.631 325.588 142.994C325.511 132.395 326.093 120.384 328.024 108.187L326.583 107.961C324.642 120.236 324.056 132.333 324.133 142.994C324.287 163.77 326.967 179.141 327.111 179.904C328.869 189.155 329.921 200.085 330.555 210.339C331.189 220.626 331.405 230.213 331.482 236.77L331.487 237.13L331.775 237.346C332.645 237.994 334.167 238.743 335.949 238.858C337.232 238.94 338.644 238.7 340.042 237.874L340.325 237.706L340.388 237.384C344.817 214.434 344.442 186.039 344.365 179.871C344.356 179.218 344.351 178.82 344.355 178.724C344.437 177.168 344.576 174.974 344.745 172.353C345.225 164.855 345.931 153.819 346.157 142.73L344.759 137.728Z" fill="#333333"/>
<path fill-rule="evenodd" clip-rule="evenodd" d="M336.353 123.759C337.285 124.594 338.337 125.338 339.504 125.885C340.71 126.447 342.045 126.807 343.496 126.85L344.086 126.869L344.154 127.45C346.046 143.676 351.172 159.757 357.224 178.733C362.392 194.944 368.234 213.267 373.32 235.603C374.223 236.011 375.203 236.112 376.159 236.045C377.072 235.978 377.97 235.752 378.758 235.478C378.59 228.859 378.21 218.845 377.355 208.207C376.75 200.656 375.909 192.813 374.737 185.694C374.574 184.709 374.416 183.773 374.252 182.88C374.089 181.978 373.916 181.09 373.743 180.221C373.604 179.539 373.421 178.68 373.239 177.845C372.758 175.622 372.316 173.587 372.067 171.052C371.899 169.339 371.711 167.572 371.509 165.772C371.303 163.924 371.087 162.152 370.871 160.448C369.67 151.102 368.133 142.029 366.399 133.691C364.597 125.041 362.58 117.197 360.5 110.687L361.792 110.279C363.886 116.846 365.918 124.733 367.724 133.417C369.468 141.77 371.01 150.881 372.216 160.28C372.451 162.114 372.667 163.9 372.864 165.623C373.056 167.337 373.244 169.103 373.421 170.923C373.657 173.342 374.094 175.358 374.569 177.552C374.718 178.243 374.872 178.959 375.074 179.952C375.251 180.831 375.424 181.728 375.588 182.636C375.761 183.601 375.929 184.541 376.078 185.468C377.254 192.649 378.105 200.527 378.71 208.097C379.584 218.975 380.622 229.718 380.785 236.376L380.795 236.856L380.343 237.029C378.162 237.855 373.575 238.368 371.927 236.299L371.86 235.992C366.764 213.55 361.11 195.395 355.927 179.136C349.923 160.299 344.826 144.309 342.866 128.166C341.44 128.05 340.128 127.666 338.923 127.105C337.597 126.485 336.41 125.645 335.378 124.704C334.46 123.869 335.435 122.933 336.353 123.759Z" fill="#333333"/>
<path fill-rule="evenodd" clip-rule="evenodd" d="M341.858 47.8166C343.664 47.8598 345.691 47.3653 347.473 46.4388C347.67 46.338 347.862 46.2276 348.054 46.1124L347.631 37.6157C347.026 38.331 346.431 38.9262 345.854 39.4207C342.112 42.6369 338.971 41.7489 338.759 41.6673C338.644 41.6241 338.529 41.5808 338.418 41.5328L337.789 46.1268C337.789 46.1268 337.789 46.1316 337.794 46.1316C338.644 47.2453 340.143 47.7782 341.858 47.8166Z" fill="#FEFEFE"/>
<path fill-rule="evenodd" clip-rule="evenodd" d="M340.167 23.9923C341.651 20.4832 345.59 22.485 345.604 24.3619C345.417 24.1555 344.591 23.6611 344.12 23.6034C343.957 25.6916 341.459 26.1285 340.787 23.9011C340.518 23.8867 340.364 23.8723 340.167 23.9923ZM339.269 40.2992C339.422 40.3568 341.781 41.0001 344.908 38.3119C346.541 36.9101 348.342 34.6156 350.096 30.9048C350.067 30.9144 350.033 30.9241 350.004 30.9337C349.543 31.0585 349.164 30.2232 349.928 29.9352C350.129 29.8584 350.331 29.7528 350.509 29.6279C350.888 29.3687 351.191 29.0471 351.373 28.7591C352.094 27.631 352.281 26.3781 352.031 25.466C351.935 25.1156 351.772 24.8179 351.556 24.6163C351.354 24.4243 351.09 24.3091 350.773 24.2947C350.139 24.2659 349.298 24.6115 348.28 25.5188C347.713 26.0228 347.209 25.3748 347.483 24.9524L347.166 24.5059C347.228 22.5426 347.166 20.9296 347.007 19.6095C346.839 18.2318 346.565 17.1949 346.205 16.4365C345.974 15.9468 345.619 15.4668 345.187 15.0779C344.793 14.7179 344.341 14.4395 343.87 14.2955C343.313 14.1227 342.751 14.1659 342.199 14.3339C341.589 14.5211 340.974 14.8619 340.364 15.2652C340.056 15.4668 339.754 15.6828 339.461 15.894C337.933 16.9885 336.718 17.8574 334.302 17.2141C333.975 17.1277 333.668 16.9645 333.404 16.7389C333.375 16.7149 333.346 16.6909 333.322 16.6669C332.885 17.3293 332.51 18.0926 332.193 18.9327C331.122 21.8129 330.81 25.5428 331.405 29.1287C331.996 32.6858 333.476 36.0797 335.983 38.3215C336.929 39.1567 338.02 39.8384 339.269 40.2992ZM350.033 25.9988C349.428 26.1189 349.361 25.6148 349.995 25.5092C350.187 25.4804 350.36 25.4804 350.514 25.5188C350.768 25.5764 350.96 25.7156 351.09 25.9172C351.21 26.1045 351.273 26.3445 351.273 26.6133C351.273 27.0597 351.1 27.6166 350.739 28.1734C350.605 28.3846 350.379 28.6247 350.11 28.8071C349.966 28.9079 349.807 28.9895 349.635 29.0471C349.221 29.1911 349.053 28.7735 349.567 28.5527C349.659 28.5143 349.75 28.4614 349.836 28.4038C350.052 28.2598 350.225 28.0726 350.331 27.9094C350.638 27.4294 350.787 26.9733 350.787 26.6133C350.787 26.4357 350.754 26.2869 350.682 26.1813C350.619 26.0853 350.528 26.0228 350.408 25.994C350.302 25.97 350.177 25.97 350.033 25.9988ZM331.674 23.8435C333.024 20.2816 337.04 22.1345 337.126 24.0115C336.929 23.8147 336.089 23.349 335.613 23.3106C335.532 25.4036 333.048 25.9316 332.294 23.7331C332.025 23.7235 331.866 23.7187 331.674 23.8435ZM337.986 32.7338C340.777 34.9852 341.79 30.9913 342.28 30.3768C342.141 35.3356 338.337 34.99 337.986 32.7338ZM337.256 28.9943C337.583 29.1719 338.106 29.3543 339.264 29.3783C336.876 30.324 336.036 29.2151 336.07 28.183C336.108 26.7909 337.414 27.0693 337.15 24.8131C338.284 26.3973 335.724 28.1638 337.256 28.9943Z" fill="#FEFEFE"/>
<path fill-rule="evenodd" clip-rule="evenodd" d="M344.627 89.7369L252.429 73.9772C249.124 73.4107 246.905 70.2761 247.467 66.9734L252.497 39.4466C253.064 36.144 256.2 33.9262 259.505 34.4878L351.703 50.2475C355.008 50.814 357.227 53.9486 356.665 57.2513L351.64 84.778C351.068 88.0807 347.931 90.3033 344.627 89.7369Z" fill="#865F7E"/>
<path d="M275.643 70.8137C273.068 70.3852 270.677 69.2143 268.771 67.4487C266.865 65.6835 265.53 63.403 264.934 60.8958C264.339 58.3886 264.511 55.7674 265.427 53.3634C266.343 50.9595 267.963 48.8809 270.082 47.3905C272.201 45.9001 274.724 45.0648 277.331 44.9903C279.938 44.9158 282.513 45.6054 284.73 46.9718C286.947 48.3383 288.706 50.3203 289.786 52.6672C290.865 55.0141 291.216 57.6204 290.794 60.1567C290.227 63.5577 288.313 66.5912 285.472 68.5898C282.63 70.5882 279.095 71.3883 275.643 70.8137ZM276.525 65.5133C278.035 65.7647 279.585 65.5692 280.978 64.9515C282.372 64.3339 283.546 63.3219 284.353 62.0434C285.16 60.7649 285.563 59.2774 285.511 57.7691C285.459 56.2607 284.955 54.7991 284.062 53.5692C283.169 52.3393 281.928 51.3963 280.495 50.8595C279.062 50.3227 277.502 50.2161 276.012 50.5532C274.521 50.8904 273.168 51.6561 272.123 52.7537C271.078 53.8512 270.388 55.2311 270.141 56.7191C269.808 58.7143 270.295 60.7618 271.492 62.411C272.689 64.0603 274.499 65.1762 276.525 65.5133Z" fill="white"/>
<path fill-rule="evenodd" clip-rule="evenodd" d="M328.338 65.7957L340.337 62.5218C341.336 62.2386 341.48 61.5233 340.621 60.9569L330.192 54.1211C329.678 53.7803 328.905 53.5402 328.151 53.4634C327.651 53.4154 327.161 53.4394 326.763 53.5498L325.696 53.8427L314.763 56.8237C313.764 57.1069 313.62 57.8222 314.475 58.3886L319.154 61.4561L320.384 62.2626L324.904 65.2244C325.624 65.7957 327.195 66.0789 328.338 65.7957Z" fill="white"/>
<path fill-rule="evenodd" clip-rule="evenodd" d="M332.642 65.7477L330.557 66.3045L328.194 66.9334C327.195 67.2166 325.624 66.9334 324.764 66.3621L319.74 63.0211L318.515 62.205L317.91 61.8018L313.764 62.9395C312.765 63.2227 312.621 63.9379 313.476 64.5044L315.412 65.7717L316.647 66.5782L323.909 71.3354C324.231 71.5466 324.63 71.7242 325.077 71.8394C325.725 72.0122 326.46 72.0698 327.171 71.9594C327.277 71.945 327.378 71.9258 327.478 71.9018L327.776 71.8202L329.256 71.417L339.477 68.6279C340.477 68.3447 340.621 67.6294 339.766 67.063L336.192 64.7828L332.642 65.7477Z" fill="white" fill-opacity="0.75"/>
<path fill-rule="evenodd" clip-rule="evenodd" d="M334.909 70.9178L329.217 72.4636L327.747 72.862L327.051 73.0492C326.686 73.1548 326.244 73.1836 325.788 73.1452C325.168 73.0972 324.524 72.934 324.01 72.694C323.871 72.6268 323.741 72.5548 323.621 72.478L316.906 68.0664L314.672 68.6809L312.761 69.2089C312.688 69.2281 312.621 69.2521 312.554 69.2761C312.52 69.2905 312.487 69.3049 312.453 69.3193C311.737 69.6505 311.713 70.2698 312.472 70.7738L312.554 70.8266L319.74 75.5358L321.109 76.4335L322.905 77.6096C323.765 78.1808 325.192 78.4641 326.191 78.1808L327.695 77.7728L329.155 77.3744L334.501 75.9151L338.195 74.907C338.642 74.7822 338.916 74.5661 339.007 74.3213C339.122 74.0141 338.954 73.6541 338.478 73.342L334.909 70.9178Z" fill="white" fill-opacity="0.5"/>
</g>
<defs>
<clipPath id="clip0_8637_129613">
<rect width="448" height="254" fill="white" transform="translate(0.59845)"/>
</clipPath>
<clipPath id="clip1_8637_129613">
<rect x="0.59845" width="288" height="254" rx="4" fill="white"/>
</clipPath>
<clipPath id="clip2_8637_129613">
<rect width="64" height="20" fill="white" transform="translate(25.5984 23)"/>
</clipPath>
</defs>
</svg>
