<svg width="448" height="254" viewBox="0 0 448 254" fill="none" xmlns="http://www.w3.org/2000/svg">
<path d="M372.5 253C414.197 253 448 250.761 448 248C448 245.239 414.197 243 372.5 243C330.803 243 297 245.239 297 248C297 250.761 330.803 253 372.5 253Z" fill="#EFEFEF"/>
<rect x="0.5" y="4.5" width="287" height="216" rx="3.5" fill="white"/>
<rect x="0.5" y="4.5" width="287" height="216" rx="3.5" stroke="#333333"/>
<rect x="13.5" y="72.5" width="78" height="45" rx="3.5" fill="#D9F4FF" stroke="#9ADAF3"/>
<rect x="104.5" y="72.5" width="78" height="45" rx="3.5" fill="url(#paint0_linear_7089_261052)" stroke="#444444"/>
<rect x="195.5" y="72.5" width="78" height="45" rx="3.5" fill="#D9F4FF" stroke="#9ADAF3"/>
<rect x="13.5" y="130.5" width="78" height="45" rx="3.5" fill="#D9F4FF" stroke="#9ADAF3"/>
<rect x="104.5" y="130.5" width="78" height="45" rx="3.5" fill="#D9F4FF" stroke="#9ADAF3"/>
<rect x="195.5" y="130.5" width="78" height="45" rx="3.5" fill="#D9F4FF" stroke="#9ADAF3"/>
<path fill-rule="evenodd" clip-rule="evenodd" d="M68.1327 51.2059L57.6685 46.2649C56.7772 45.8335 56.7772 45.1669 57.6685 44.7747L61.3116 43.0493L68.0939 46.2649C68.9853 46.6963 70.4193 46.6963 71.2719 46.2649L78.0542 43.0493L81.6973 44.7747C82.5887 45.2061 82.5887 45.8727 81.6973 46.2649L71.2332 51.2059C70.4193 51.598 68.9853 51.598 68.1327 51.2059Z" fill="#FF6F3D"/>
<path fill-rule="evenodd" clip-rule="evenodd" d="M68.0988 45.0916L57.6665 40.1449C56.7778 39.713 56.7778 39.0456 57.6665 38.653L61.2212 36.9648L68.0988 40.2234C68.9874 40.6553 70.4171 40.6553 71.2671 40.2234L78.1447 36.9648L81.6993 38.653C82.588 39.0849 82.588 39.7523 81.6993 40.1449L71.2671 45.0916C70.3784 45.5235 68.9488 45.5235 68.0988 45.0916Z" fill="#95C038"/>
<path fill-rule="evenodd" clip-rule="evenodd" d="M68.0988 39.0408L57.6665 34.1652C56.7778 33.7396 56.7778 33.0817 57.6665 32.6948L68.0988 27.8192C68.9874 27.3936 70.4171 27.3936 71.2671 27.8192L81.6993 32.6948C82.588 33.1204 82.588 33.7783 81.6993 34.1652L71.2671 39.0408C70.3784 39.4277 68.9488 39.4277 68.0988 39.0408Z" fill="#5DC0E8"/>
<path d="M94.693 33.3667C91.674 33.3667 88.7073 35.1484 88.7073 39.5C88.7073 43.8516 91.674 45.6334 94.693 45.6334C97.712 45.6334 100.679 43.8516 100.679 39.5C100.679 35.1484 97.712 33.3667 94.693 33.3667ZM94.693 35.0799C95.6179 35.0799 98.0611 35.4397 98.0611 39.5C98.0611 43.5604 95.6179 43.9201 94.693 43.9201C93.7681 43.9201 91.3249 43.5604 91.3249 39.5C91.3249 35.4397 93.7681 35.0799 94.693 35.0799Z" fill="#333333"/>
<path d="M102.692 33.5038V45.4963H105.17V38.4378L105.118 36.3134H105.17L105.781 37.6497L110.039 45.4963H113.25V33.5038H110.772V40.5622L110.824 42.6866H110.772L110.126 41.0591L105.903 33.5038H102.692Z" fill="#333333"/>
<path d="M115.695 33.5038V45.4963H123.025V43.4747H118.173V33.5038H115.695Z" fill="#333333"/>
<path d="M120.93 33.5038L125.433 40.5965V45.4963H127.911V40.6308L132.309 33.5038H129.691L127.161 37.7183L126.742 38.5406H126.689L126.305 37.7183L123.792 33.5038H120.93Z" fill="#333333"/>
<path d="M138.082 33.3667C135.063 33.3667 132.096 35.1484 132.096 39.5C132.096 43.8516 135.063 45.6334 138.082 45.6334C141.101 45.6334 144.068 43.8516 144.068 39.5C144.068 35.1484 141.101 33.3667 138.082 33.3667ZM138.082 35.0799C139.007 35.0799 141.45 35.4397 141.45 39.5C141.45 43.5604 139.007 43.9201 138.082 43.9201C137.157 43.9201 134.714 43.5604 134.714 39.5C134.714 35.4397 137.157 35.0799 138.082 35.0799Z" fill="#333333"/>
<path d="M146.081 33.5038V45.4963H148.559V40.408H152.713V38.4378H148.559V35.5254H152.922V33.5038H146.081Z" fill="#333333"/>
<path d="M154.67 33.5038V45.4963H157.148V40.408H161.302V38.4378H157.148V35.5254H161.511V33.5038H154.67Z" fill="#333333"/>
<path d="M163.26 45.4963H165.738V33.5038H163.26V45.4963Z" fill="#333333"/>
<path d="M177.102 43.0807C176.492 43.3548 175.636 43.6118 174.554 43.6118C172.356 43.6118 170.366 42.4296 170.366 39.5343C170.366 37.0844 171.989 35.3883 174.729 35.3883C175.654 35.3883 176.439 35.5596 177.155 35.8337L177.259 33.7779C176.334 33.4866 175.514 33.3667 174.554 33.3667C170.715 33.3667 167.749 35.4397 167.749 39.5686C167.749 43.9373 171.064 45.6334 174.101 45.6334C175.078 45.6334 176.177 45.4792 177.259 45.1194L177.102 43.0807Z" fill="#333333"/>
<path d="M179.177 33.5038V45.4963H186.471V43.3719H181.655V40.3052H186.035V38.335H181.655V35.6281H186.471V33.5038H179.177Z" fill="#333333"/>
<path d="M202.355 39.8159C202.355 41.8192 201.81 43.3521 200.72 44.4146C199.636 45.4715 198.072 46 196.03 46H192.668V33.8643H196.387C198.274 33.8643 199.741 34.3872 200.787 35.4331C201.833 36.479 202.355 37.9399 202.355 39.8159ZM200.861 39.8657C200.861 38.283 200.463 37.0905 199.666 36.2881C198.875 35.4857 197.696 35.0845 196.13 35.0845H194.08V44.7798H195.798C197.48 44.7798 198.745 44.3675 199.591 43.543C200.438 42.7129 200.861 41.4871 200.861 39.8657ZM212.545 41.4429C212.545 42.9259 212.171 44.0853 211.424 44.9209C210.677 45.751 209.645 46.166 208.328 46.166C207.515 46.166 206.792 45.9751 206.162 45.5933C205.531 45.2114 205.044 44.6636 204.701 43.9497C204.358 43.2358 204.186 42.4002 204.186 41.4429C204.186 39.9598 204.557 38.806 205.298 37.9814C206.04 37.1514 207.069 36.7363 208.386 36.7363C209.659 36.7363 210.669 37.1597 211.416 38.0063C212.169 38.853 212.545 39.9985 212.545 41.4429ZM205.614 41.4429C205.614 42.605 205.846 43.4904 206.311 44.0991C206.776 44.7078 207.459 45.0122 208.361 45.0122C209.263 45.0122 209.947 44.7106 210.412 44.1074C210.882 43.4987 211.117 42.6105 211.117 41.4429C211.117 40.2863 210.882 39.4092 210.412 38.8115C209.947 38.2083 209.258 37.9067 208.345 37.9067C207.443 37.9067 206.762 38.2028 206.303 38.7949C205.843 39.387 205.614 40.2697 205.614 41.4429ZM218.434 46.166C217.117 46.166 216.096 45.762 215.371 44.9541C214.652 44.1406 214.292 42.9924 214.292 41.5093C214.292 39.9875 214.658 38.8115 215.388 37.9814C216.124 37.1514 217.17 36.7363 218.526 36.7363C218.963 36.7363 219.4 36.7834 219.837 36.8774C220.274 36.9715 220.618 37.0822 220.867 37.2095L220.443 38.3799C220.139 38.2581 219.807 38.1585 219.447 38.0811C219.087 37.998 218.769 37.9565 218.493 37.9565C216.644 37.9565 215.72 39.1353 215.72 41.4927C215.72 42.6105 215.944 43.4683 216.392 44.0659C216.846 44.6636 217.516 44.9624 218.401 44.9624C219.159 44.9624 219.937 44.7992 220.734 44.4727V45.6929C220.125 46.0083 219.359 46.166 218.434 46.166ZM228.599 43.5181C228.599 44.3647 228.283 45.0177 227.653 45.4771C227.022 45.9364 226.136 46.166 224.996 46.166C223.79 46.166 222.849 45.9751 222.174 45.5933V44.3149C222.611 44.5363 223.079 44.7106 223.577 44.8379C224.08 44.9652 224.565 45.0288 225.03 45.0288C225.749 45.0288 226.302 44.9154 226.69 44.6885C227.077 44.4561 227.271 44.1047 227.271 43.6343C227.271 43.2801 227.116 42.9785 226.806 42.7295C226.502 42.4749 225.904 42.1761 225.013 41.833C224.166 41.5176 223.563 41.2437 223.203 41.0112C222.849 40.7733 222.584 40.5049 222.407 40.2061C222.235 39.9072 222.149 39.5503 222.149 39.1353C222.149 38.3937 222.451 37.8099 223.054 37.3838C223.657 36.9521 224.484 36.7363 225.536 36.7363C226.515 36.7363 227.473 36.9355 228.408 37.334L227.918 38.4546C227.005 38.0783 226.178 37.8901 225.436 37.8901C224.783 37.8901 224.291 37.9925 223.959 38.1973C223.627 38.402 223.461 38.6842 223.461 39.0439C223.461 39.2874 223.522 39.495 223.643 39.6665C223.771 39.8381 223.973 40.0013 224.249 40.1562C224.526 40.3112 225.057 40.5353 225.843 40.8286C226.922 41.2215 227.65 41.6172 228.026 42.0156C228.408 42.4141 228.599 42.9149 228.599 43.5181Z" fill="#333333"/>
<path d="M131.88 94.1303L132.231 93.7786L131.88 94.1303L138.873 101.121C138.98 101.228 139.107 101.328 139.266 101.399C139.427 101.47 139.595 101.5 139.77 101.5C140.049 101.5 140.412 101.376 140.668 101.121L155.12 86.674C155.627 86.1681 155.627 85.3853 155.12 84.8794L154.767 85.233L155.12 84.8794C154.614 84.3735 153.832 84.3735 153.326 84.8794L139.77 98.429L133.674 92.3357C133.168 91.8299 132.386 91.8299 131.88 92.3357C131.373 92.8417 131.373 93.6244 131.88 94.1303Z" fill="white" stroke="white"/>
<path d="M331.432 35.946C330.323 33.9409 329.174 28.527 329.61 26.2812C330.045 24.0355 331.313 21.9501 333.096 20.5465C333.374 19.7445 333.215 18.8221 333.294 17.9398C333.374 17.0576 333.889 16.0951 334.76 16.055C335.315 16.0149 335.79 16.4159 336.068 16.8972C336.345 17.3784 336.424 17.9398 336.504 18.4612C337.098 22.6319 337.177 27.7249 336.781 31.9357L331.432 35.946Z" fill="white"/>
<path d="M331.432 36.4269C331.392 36.4269 331.353 36.4269 331.313 36.4269C331.155 36.3868 331.036 36.3066 330.996 36.1863C329.808 34.0608 328.659 28.5266 329.094 26.1605C329.57 23.8346 330.838 21.7091 332.66 20.2253C332.779 19.8243 332.779 19.3431 332.779 18.8618C332.779 18.541 332.779 18.2202 332.819 17.8994C332.898 16.7765 333.611 15.6135 334.721 15.5333C335.394 15.4932 336.107 15.9343 336.504 16.6161C336.821 17.1374 336.939 17.7389 337.019 18.3806C337.613 22.3909 337.692 27.4839 337.296 31.9755C337.296 32.1359 337.217 32.2562 337.098 32.3364L331.749 36.3467C331.63 36.3868 331.551 36.4269 331.432 36.4269ZM334.8 16.5359C334.76 16.5359 334.8 16.5359 334.8 16.5359C334.245 16.576 333.849 17.2978 333.809 17.9796C333.77 18.2603 333.77 18.541 333.809 18.8618C333.809 19.4634 333.809 20.105 333.611 20.7066C333.572 20.7868 333.532 20.867 333.453 20.9472C331.749 22.2706 330.56 24.2757 330.125 26.4012C329.728 28.3261 330.679 33.0181 331.63 35.2238L336.305 31.6947C336.702 27.3235 336.583 22.431 336.028 18.5811C335.949 18.0598 335.87 17.5785 335.632 17.1775C335.473 16.8166 335.156 16.5359 334.8 16.5359Z" fill="#333333"/>
<path d="M330.996 34.4619C330.996 34.4619 331.036 61.9323 334.087 71.7575C335.077 74.9658 363.803 56.9596 363.803 56.9596L373.827 44.247C373.827 44.247 368.993 44.3673 363.803 46.0516C358.612 47.7359 338.881 62.2532 338.881 62.2532C338.881 62.2532 335.87 40.2367 336.9 30.4917" fill="white"/>
<path d="M334.721 72.6394C334.522 72.6394 334.324 72.5993 334.166 72.5592C333.77 72.3988 333.611 72.118 333.532 71.9175C330.521 62.1325 330.441 35.5844 330.441 34.4615C330.441 34.1808 330.679 33.9402 330.917 33.9402C331.194 33.9402 331.392 34.1808 331.432 34.4214C331.432 34.7022 331.511 61.9319 334.483 71.5566C334.681 71.717 336.424 72.1983 349.618 64.699C356.235 60.9695 362.654 56.9592 363.367 56.5181L372.678 44.7278C370.974 44.8482 367.487 45.2893 363.882 46.4523C358.81 48.0965 339.317 62.4533 339.119 62.6137C338.96 62.734 338.802 62.734 338.643 62.6538C338.485 62.5736 338.366 62.4533 338.366 62.2528C338.326 62.0121 335.394 40.0358 336.345 30.371C336.385 30.0903 336.622 29.8898 336.9 29.9299C337.177 29.97 337.375 30.2106 337.336 30.4914C336.464 38.9931 338.683 57.1998 339.237 61.2903C342.803 58.6836 358.85 47.0137 363.605 45.4898C368.835 43.8055 373.589 43.6451 373.787 43.6451C373.985 43.6451 374.144 43.7654 374.263 43.9258C374.342 44.0862 374.342 44.3268 374.223 44.4471L364.199 57.1597C364.159 57.1998 364.12 57.2399 364.08 57.28C361.465 59.0044 339.594 72.6394 334.721 72.6394Z" fill="#333333"/>
<path d="M400.889 49.5008C395.421 45.3301 372.757 43.6057 367.329 44.3677C361.584 45.1697 344.468 57.6818 343.913 58.2833C349.302 61.0504 348.747 68.2289 349.064 68.1085C351.996 67.0659 361.901 62.6546 361.901 62.6546C361.148 67.1461 359.088 72.961 363.05 76.8109C363.962 77.6931 365.388 96.6618 365.665 103.319H396.728C396.728 95.3384 394.193 85.1122 399.145 69.5121C399.502 72.0386 399.621 76.5702 400.057 79.2571C403.464 77.1317 407.941 76.6906 411.19 77.0916C409.011 62.9754 406.951 54.0725 400.889 49.5008Z" fill="white"/>
<path d="M396.728 104H365.665C365.348 104 365.071 103.759 365.071 103.439C364.714 95.8592 363.327 78.7352 362.574 77.2915C359.009 73.8026 360.039 68.7897 360.871 64.7794C360.95 64.4185 361.029 64.0977 361.069 63.7368C358.454 64.8997 351.599 67.8673 349.222 68.7496C349.064 68.8298 348.826 68.7897 348.707 68.6694C348.43 68.4689 348.39 68.1882 348.311 67.4663C348.113 65.6617 347.637 60.8895 343.635 58.8442C343.477 58.764 343.358 58.6036 343.318 58.4031C343.279 58.2026 343.358 58.0421 343.477 57.8817C343.992 57.3203 361.148 44.6478 367.25 43.7655C372.361 43.0437 395.5 44.6478 401.245 49.019C407.743 53.9517 409.724 63.7367 411.824 77.0509C411.863 77.2514 411.784 77.4118 411.665 77.5722C411.547 77.6926 411.348 77.7728 411.15 77.7327C408.139 77.3717 403.741 77.7326 400.373 79.818C400.215 79.9383 399.977 79.9383 399.819 79.8581C399.62 79.7779 399.502 79.6175 399.462 79.417C399.224 77.8931 399.066 75.8478 398.907 73.8427C398.868 73.4416 398.868 73.0807 398.828 72.6797C396.015 83.0663 396.57 90.9265 397.005 97.343C397.164 99.4684 397.283 101.474 397.283 103.318C397.283 103.479 397.204 103.639 397.124 103.759C397.045 103.88 396.887 104 396.728 104ZM366.22 102.757H396.134C396.094 101.113 395.975 99.308 395.856 97.4633C395.381 90.3249 394.747 81.5023 398.59 69.3913C398.67 69.1105 398.947 68.9501 399.224 68.9902C399.502 69.0303 399.739 69.2308 399.779 69.5116C399.937 70.6746 400.056 72.1584 400.175 73.7625C400.294 75.3666 400.413 77.0108 400.571 78.3342C403.781 76.6098 407.624 76.2087 410.556 76.4494C408.258 61.892 406.118 54.1522 400.571 49.9414C395.381 46.0113 373.034 44.1265 367.448 44.9285C362.535 45.6103 348.231 55.6761 344.983 58.1625C348.826 60.6889 349.341 65.4211 349.539 67.2658C352.986 65.9424 361.584 62.1326 361.663 62.0925C361.861 62.0123 362.099 62.0524 362.257 62.1727C362.416 62.2931 362.495 62.5337 362.495 62.7342C362.376 63.4159 362.218 64.1378 362.059 64.8997C361.267 68.8298 360.356 73.3213 363.486 76.3692C364.714 77.6524 366.021 98.9872 366.22 102.757Z" fill="#333333"/>
<path d="M361.861 66.3031C362.099 63.9772 363.605 61.9319 363.486 59.6059C363.446 59.1648 362.891 59.0044 362.654 59.3653C361.346 61.3705 360.514 63.8969 360.752 66.3031C360.831 67.025 361.782 67.025 361.861 66.3031Z" fill="#333333"/>
<path d="M391.181 43.2047C400.492 45.0495 404.97 44.9692 404.97 44.9692C404.97 44.9692 409.645 34.8633 405.762 22.5517C400.928 7.35275 383.138 2.86122 375.055 7.03192C372.599 8.27511 367.844 14.1702 365.784 22.8726C363.724 31.5749 365.071 40.3975 365.071 40.3975C365.071 40.3975 381.316 41.2397 391.181 43.2047Z" fill="url(#paint1_linear_7089_261052)"/>
<path d="M404.851 45.6103C404.058 45.6103 399.581 45.5301 391.062 43.8057C381.316 41.8406 365.19 41.0386 365.031 41.0386C364.754 41.0386 364.516 40.7979 364.476 40.5172C364.437 40.1563 363.169 31.4941 365.19 22.7918C367.25 14.0093 372.123 7.91365 374.738 6.55016C379.097 4.3044 385.872 4.50492 391.974 7.1116C398.987 10.0792 404.058 15.4931 406.238 22.4309C410.16 34.8226 405.643 44.8483 405.445 45.2895C405.366 45.49 405.128 45.6504 404.93 45.6504C404.97 45.6103 404.93 45.6103 404.851 45.6103ZM391.3 42.6026C398.908 44.1265 403.306 44.327 404.573 44.3671C405.326 42.4823 408.536 33.419 405.168 22.7517C402.355 13.8489 395.421 9.79849 391.578 8.15427C385.753 5.708 379.374 5.46738 375.333 7.55273C373.233 8.6355 368.439 14.29 366.378 22.9923C364.675 30.3311 365.388 37.8303 365.626 39.7954C368.399 40.036 382.465 40.838 391.3 42.6026Z" fill="#333333"/>
<path d="M385.357 45.2495L386.625 33.6196L376.64 34.0608L377.274 44.8083C376.006 45.6505 375.174 46.9338 375.095 48.3775C375.016 51.0644 377.591 53.3502 380.919 53.4304C384.247 53.5106 386.981 51.4654 387.06 48.7785C387.14 47.4551 386.466 46.1718 385.357 45.2495Z" fill="white"/>
<path d="M381.196 53.9915C381.117 53.9915 381.038 53.9915 380.919 53.9915C377.353 53.8712 374.54 51.3447 374.619 48.4172C374.659 46.9334 375.451 45.5699 376.759 44.6075L376.125 34.1407C376.125 34.0204 376.165 33.86 376.244 33.7798C376.323 33.6996 376.442 33.6194 376.6 33.6194L386.585 33.1782C386.743 33.1782 386.862 33.2183 386.981 33.3386C387.06 33.4589 387.14 33.5792 387.1 33.7397L385.832 45.0887C386.942 46.1314 387.536 47.4548 387.496 48.8584C387.457 51.7057 384.644 53.9915 381.196 53.9915ZM377.195 34.5818L377.789 44.808C377.789 44.9684 377.71 45.1689 377.551 45.2491C376.363 46.0512 375.649 47.2142 375.61 48.4172C375.531 50.8234 377.908 52.8686 380.959 52.9488C381.038 52.9488 381.117 52.9488 381.196 52.9488C384.128 52.9488 386.506 51.1041 386.585 48.7782C386.625 47.6152 386.07 46.4923 385.079 45.61C384.961 45.4897 384.881 45.3293 384.921 45.1689L386.149 34.1407L377.195 34.5818Z" fill="#333333"/>
<path d="M393.281 29.5297C394.311 24.3564 392.291 19.0629 387.853 16.6166C382.266 13.4886 375.531 13.4886 372.123 19.7045C368.755 25.9204 370.023 36.0264 375.61 39.1544C380.998 42.1621 387.932 39.9163 391.458 34.1816C391.696 34.2618 391.934 34.3019 392.172 34.342C393.519 34.3821 394.668 33.2994 394.707 31.9359C394.747 30.813 394.153 29.9307 393.281 29.5297Z" fill="white"/>
<path d="M380.761 40.9584C378.899 40.9584 377.076 40.5172 375.373 39.5548C369.35 36.1861 368.32 25.6792 371.688 19.4231C373.352 16.3753 375.888 14.5707 379.097 14.1296C381.87 13.7686 385.08 14.4504 388.091 16.1347C392.489 18.581 394.787 23.8344 393.836 29.2483C394.708 29.8098 395.263 30.8123 395.223 31.8951C395.183 32.6972 394.866 33.4591 394.272 33.9805C393.678 34.5419 392.925 34.8226 392.132 34.7825C391.974 34.7825 391.815 34.7424 391.657 34.7023C389.082 38.7126 384.882 40.9584 380.761 40.9584ZM380.603 15.0118C380.127 15.0118 379.691 15.0519 379.216 15.092C376.363 15.4931 374.025 17.1373 372.559 19.8643C369.429 25.599 370.38 35.5846 375.848 38.6324C380.959 41.4797 387.616 39.3543 391.023 33.8201C391.142 33.6195 391.38 33.5393 391.617 33.6195C391.815 33.6998 392.014 33.7399 392.172 33.7399C392.687 33.7399 393.202 33.5794 393.598 33.2185C393.995 32.8576 394.193 32.3764 394.232 31.8149C394.272 31.0129 393.796 30.2509 393.083 29.9301C392.885 29.8499 392.766 29.6093 392.806 29.3686C393.836 24.2355 391.736 19.2627 387.616 16.9769C385.278 15.7337 382.821 15.0118 380.603 15.0118Z" fill="#333333"/>
<path d="M383.653 26.0403C383.812 24.9174 383.336 23.9951 382.465 23.2733C381.672 22.6316 380.523 22.391 379.77 23.2332C379.136 23.955 379.453 25.1179 380.285 25.5591C381.197 26.0403 382.385 25.3586 382.425 24.356C382.465 23.8347 381.791 23.5941 381.434 23.9149C381.355 23.9951 381.236 24.1956 381.117 24.2357C381.117 24.2357 380.84 24.356 380.919 24.1956C380.919 24.1555 381.395 24.3159 381.514 24.3961C381.831 24.5966 382.068 24.9174 382.266 25.1982C382.504 25.519 382.782 25.7997 383.019 26.1606C383.217 26.5215 383.614 26.3611 383.653 26.0403Z" fill="#333333"/>
<path d="M376.561 24.3559C376.601 23.9147 376.561 23.4736 376.323 23.0726C376.085 22.6716 375.689 22.3507 375.333 22.07C374.58 21.5487 373.431 21.4685 372.876 22.3106C372.361 23.0726 372.717 24.1152 373.589 24.396C374.382 24.6767 375.531 24.035 375.412 23.1127C375.333 22.6315 374.778 22.2705 374.382 22.6716C374.302 22.7518 374.104 22.9523 374.104 23.0325C374.025 23.3934 374.065 23.0726 374.263 23.1929C374.382 23.2731 374.54 23.3132 374.659 23.3934C374.897 23.5538 375.095 23.7543 375.293 23.9548C375.491 24.1553 375.768 24.3158 375.967 24.5564C376.204 24.8371 376.561 24.6767 376.561 24.3559Z" fill="#333333"/>
<path d="M375.57 27.1232C375.253 27.5242 375.015 27.8851 374.778 28.3263C374.58 28.6471 374.302 29.1684 374.263 29.5294C374.223 30.3314 375.689 30.3314 376.204 30.2111C376.402 30.171 376.402 29.9304 376.244 29.8502C376.006 29.6898 375.808 29.5695 375.491 29.5294C375.332 29.4893 375.055 29.4893 374.936 29.409C374.936 29.4492 374.936 29.4893 374.936 29.5294C374.936 29.4491 374.976 29.3288 375.015 29.2486C375.174 28.5669 375.451 27.9252 375.808 27.2836C375.887 27.1633 375.689 26.9628 375.57 27.1232Z" fill="#333333"/>
<path d="M375.729 33.259C376.363 34.2616 377.908 34.4622 378.978 34.4221C380.087 34.382 381.672 33.5799 381.355 32.2564C381.316 32.0559 380.999 31.9757 380.88 32.1361C380.167 32.858 379.77 33.4997 378.701 33.4997C377.948 33.4997 376.799 33.5398 376.244 32.8981C376.006 32.6575 375.57 32.9783 375.729 33.259Z" fill="#333333"/>
<path d="M377.71 10.3599C373.827 12.4853 372.876 15.3727 373.034 15.2123C373.391 14.8514 377.908 13.4077 384.01 21.2277C385.951 23.7542 392.132 30.8925 396.847 28.6467L392.766 17.819L384.525 12.8462L377.71 10.3599Z" fill="url(#paint2_linear_7089_261052)"/>
<path d="M371.965 15.4933C373.55 15.7339 375.174 15.3329 376.759 15.8542C378.463 16.4156 379.77 17.7791 381.038 18.9822C383.098 20.9473 384.96 23.0727 386.942 25.1179C389.675 27.9251 394.826 32.4568 397.996 27.8449C398.115 27.6845 397.877 27.484 397.758 27.6043C396.015 28.9277 394.549 29.2485 392.449 28.1257C391.221 27.484 390.111 26.6017 389.081 25.6794C387.14 23.9149 385.436 21.8696 383.574 20.0249C380.602 17.0573 376.482 12.8064 371.965 15.3329C371.846 15.3329 371.885 15.4933 371.965 15.4933Z" fill="#333333"/>
<path d="M384.049 83.2273L371.608 84.0695C370.38 84.1497 369.231 83.3476 368.914 82.1044L365.031 66.745C364.635 65.2211 365.625 63.7373 367.171 63.4967L380.008 61.6118C381.355 61.4113 382.623 62.2936 382.9 63.6571L386.387 80.0592C386.744 81.6232 385.595 83.107 384.049 83.2273Z" fill="#D9F4FF"/>
<path d="M371.41 84.7106C369.984 84.7106 368.676 83.7081 368.32 82.3045L364.437 66.945C364.199 66.0628 364.358 65.1404 364.873 64.3785C365.388 63.6165 366.18 63.0952 367.052 62.9749L379.889 61.09C381.553 60.8494 383.099 61.9322 383.455 63.6165L386.942 80.0186C387.14 80.9409 386.942 81.9034 386.387 82.6253C385.833 83.3872 385 83.8284 384.05 83.9086L371.608 84.7507C371.569 84.7106 371.49 84.7106 371.41 84.7106ZM380.365 62.2129C380.286 62.2129 380.167 62.2129 380.087 62.253L367.25 64.1378C366.695 64.218 366.18 64.5389 365.863 65.0201C365.546 65.5013 365.467 66.0628 365.586 66.6242L369.469 81.9836C369.707 82.9461 370.578 83.5476 371.529 83.5075L383.97 82.6654C384.565 82.6253 385.08 82.3446 385.436 81.8633C385.793 81.3821 385.912 80.7805 385.793 80.2191L382.306 63.817C382.148 62.8545 381.316 62.2129 380.365 62.2129Z" fill="#333333"/>
<path d="M409.209 77.733C409.209 77.733 407.901 76.57 405.207 77.1314C401.958 77.7731 401.285 79.0162 401.285 79.0162L403.028 88.4404C403.028 88.4404 389.002 75.6476 388.844 74.645C388.645 73.1211 385.634 69.1108 385.198 69.5921C384.366 70.4342 384.564 72.5998 382.9 73.482C380.959 74.4846 377.116 75.2867 377.868 76.8106C378.661 78.535 381.276 80.2995 383.138 80.0188C384.683 79.8183 384.485 80.0589 385.832 79.2168C387.655 81.8234 400.096 99.188 406.198 99.188C411.23 99.1479 409.209 77.733 409.209 77.733Z" fill="white"/>
<path d="M406.198 99.6291C400.334 99.6291 389.359 84.9514 385.713 79.8182C384.961 80.2594 384.723 80.2995 384.089 80.3396C383.891 80.3396 383.613 80.3797 383.217 80.4198C381.078 80.7005 378.304 78.7355 377.432 76.9308C377.274 76.5699 377.234 76.209 377.393 75.848C377.789 74.8856 379.295 74.284 380.919 73.6825C381.593 73.4419 382.227 73.1612 382.742 72.9205C383.574 72.4794 383.851 71.5971 384.129 70.755C384.327 70.1534 384.525 69.5519 384.921 69.1509C385.079 68.9904 385.357 68.9102 385.595 68.9904C386.625 69.3514 389.121 72.9606 389.398 74.4444C389.913 75.4069 397.164 82.2645 402.315 86.9967L400.849 79.0563C400.809 78.936 400.849 78.8157 400.888 78.7355C400.968 78.575 401.76 77.2917 405.128 76.61C408.06 76.0085 409.486 77.2918 409.565 77.3319C409.645 77.4121 409.724 77.5324 409.724 77.6527C409.803 78.3745 411.348 95.0573 407.981 98.7869C407.426 99.3483 406.871 99.6291 406.198 99.6291ZM385.832 78.6552C385.991 78.6552 386.149 78.7354 386.228 78.8558C392.687 87.9591 401.76 98.6265 406.198 98.6265C406.554 98.6265 406.911 98.4661 407.188 98.1051C409.684 95.2979 409.169 82.826 408.694 77.9735C408.298 77.7329 407.188 77.1714 405.247 77.5725C402.949 78.0537 402.037 78.8157 401.76 79.0964L403.464 88.2799C403.503 88.4805 403.424 88.7211 403.226 88.8013C403.028 88.9216 402.83 88.8815 402.671 88.7211C397.402 83.9087 388.487 75.6475 388.328 74.6049C388.17 73.4419 386.149 70.6748 385.357 70.0331C385.198 70.2737 385.079 70.6748 384.961 71.0357C384.644 71.9982 384.287 73.1611 383.059 73.7627C382.504 74.0434 381.87 74.284 381.157 74.5647C380.008 75.0059 378.423 75.6074 378.225 76.1689C378.185 76.2491 378.185 76.2892 378.265 76.4095C378.978 77.8933 381.355 79.5776 383.019 79.337C383.415 79.2969 383.693 79.2568 383.93 79.2568C384.525 79.2167 384.604 79.2167 385.515 78.6151C385.674 78.6953 385.753 78.6552 385.832 78.6552Z" fill="#333333"/>
<path d="M401.602 87.3974C402.038 88.0792 402.672 88.6406 403.306 89.162C403.702 89.4828 404.534 90.3651 405.128 90.0844C405.208 90.0443 405.247 89.9641 405.247 89.8838C405.168 89.3224 404.296 88.8412 403.9 88.5604C403.266 88.0792 402.632 87.638 402.038 87.1167C401.76 86.9162 401.443 87.1568 401.602 87.3974Z" fill="#333333"/>
<path fill-rule="evenodd" clip-rule="evenodd" d="M396.131 98.8595C397.209 103.043 400.132 108.287 401.268 114.56C402.926 123.714 404.172 134.818 405.303 146.892C405.586 149.922 405.188 153.054 405.576 156.185C409.879 181.054 412.654 209.069 412.616 232.799C411.825 233.318 410.67 233.615 409.515 233.654C408.375 233.688 407.268 233.462 406.563 232.929C405.571 228.462 401.579 209.265 396.217 187.005C391.688 168.216 385.746 147.809 382.621 133.497L381.371 128.094C381.294 141.537 380.532 155.652 380.038 164.811C379.89 167.568 379.765 169.878 379.689 171.631C379.684 171.751 379.689 172.203 379.698 172.952C379.77 179.474 380.101 209.381 376.195 233.683C375.275 234.249 374.355 234.418 373.516 234.355C372.371 234.269 371.374 233.76 370.718 233.26C370.641 226.234 370.444 216.138 369.889 205.375C369.314 194.372 368.36 182.639 366.769 172.692C366.64 171.886 362.446 154.605 362.307 132.575C362.24 121.567 362.964 106.347 365.959 96.3477C370.253 98.7442 375.136 100.954 379.775 101.189C385.588 101.482 391.324 100.42 396.131 98.8595Z" fill="#D9F4FF"/>
<path fill-rule="evenodd" clip-rule="evenodd" d="M396.184 98.8448C396.61 100.492 397.319 102.308 398.096 104.282C399.289 107.322 400.631 110.746 401.321 114.545C402.15 119.122 402.874 124.189 403.535 129.621C404.196 135.048 404.79 140.84 405.356 146.882C405.49 148.294 405.471 149.72 405.457 151.166C405.437 152.828 405.423 154.504 405.629 156.175C407.829 168.903 409.631 182.451 410.862 195.832C412.036 208.598 412.688 221.21 412.669 232.799V232.827L412.645 232.842C412.252 233.101 411.768 233.303 411.241 233.452C410.699 233.601 410.11 233.687 409.52 233.706C408.926 233.726 408.341 233.673 407.814 233.543C407.321 233.423 406.88 233.236 406.535 232.972L406.52 232.962L406.516 232.943C406.329 232.097 406.036 230.743 405.653 228.952C403.981 221.166 400.525 205.101 396.169 187.024C394.133 178.561 391.799 169.758 389.57 161.334C386.853 151.075 384.289 141.378 382.569 133.516L381.419 128.54C381.328 141.844 380.58 155.753 380.092 164.806L380.077 165.056C379.933 167.712 379.814 169.935 379.742 171.64C379.737 171.756 379.742 172.188 379.751 172.903V172.956C379.823 179.483 380.154 209.39 376.248 233.692L376.243 233.716L376.224 233.73C375.783 234.004 375.343 234.187 374.911 234.292C374.432 234.412 373.962 234.441 373.517 234.408C372.994 234.369 372.501 234.24 372.055 234.067C371.518 233.855 371.054 233.577 370.689 233.303L370.67 233.289V233.265C370.632 229.754 370.565 225.47 370.435 220.725C370.306 215.979 370.119 210.764 369.836 205.384C369.549 199.881 369.17 194.199 368.657 188.647C368.149 183.095 367.512 177.677 366.717 172.706C366.707 172.634 366.659 172.428 366.587 172.092C365.859 168.73 362.38 152.621 362.255 132.579C362.217 126.403 362.428 118.896 363.151 111.731C363.717 106.126 364.594 100.727 365.907 96.3329L365.926 96.2705L365.983 96.3041C368.13 97.5 370.421 98.6527 372.755 99.5316C375.089 100.41 377.465 101.02 379.775 101.141C382.502 101.28 385.214 101.121 387.821 100.747C390.759 100.329 393.567 99.642 396.112 98.816L396.165 98.7968L396.184 98.8448ZM397.995 104.32C397.228 102.36 396.519 100.564 396.093 98.9264C393.558 99.7477 390.764 100.43 387.836 100.848C385.224 101.217 382.507 101.381 379.77 101.241C377.446 101.121 375.06 100.511 372.716 99.6276C370.397 98.7535 368.121 97.6105 365.988 96.4242C364.685 100.8 363.813 106.164 363.252 111.74C362.528 118.901 362.317 126.403 362.356 132.579C362.48 152.607 365.959 168.706 366.683 172.068C366.755 172.404 366.798 172.61 366.812 172.687C367.608 177.663 368.245 183.08 368.753 188.637C369.261 194.194 369.645 199.876 369.932 205.38C370.21 210.759 370.402 215.975 370.531 220.725C370.661 225.46 370.728 229.735 370.766 233.241C371.121 233.505 371.566 233.774 372.084 233.975C372.52 234.143 373.004 234.268 373.517 234.307C373.953 234.34 374.413 234.312 374.878 234.191C375.295 234.086 375.716 233.913 376.143 233.654C380.044 209.361 379.713 179.478 379.641 172.956V172.903C379.632 172.183 379.627 171.751 379.631 171.635C379.703 169.926 379.823 167.702 379.967 165.051L379.981 164.801C380.475 155.642 381.237 141.532 381.314 128.098L381.318 127.657L382.67 133.492C384.385 141.349 386.954 151.051 389.666 161.31C391.895 169.729 394.224 178.523 396.265 187C400.626 205.087 404.076 221.147 405.749 228.932C406.132 230.719 406.425 232.073 406.607 232.904C406.937 233.149 407.359 233.332 407.833 233.447C408.351 233.572 408.926 233.625 409.511 233.61C410.091 233.591 410.675 233.509 411.207 233.361C411.715 233.221 412.18 233.024 412.559 232.779C412.578 221.2 411.926 208.602 410.752 195.851C409.525 182.475 407.723 168.927 405.519 156.199V156.195C405.313 154.514 405.327 152.833 405.346 151.171C405.361 149.73 405.375 148.304 405.246 146.901C404.68 140.869 404.086 135.077 403.425 129.64C402.763 124.213 402.04 119.146 401.211 114.574C400.53 110.77 399.188 107.355 397.995 104.32Z" fill="#404040"/>
<path fill-rule="evenodd" clip-rule="evenodd" d="M381.37 127.935C381.298 141.421 380.532 155.614 380.038 164.806C379.889 167.563 379.765 169.873 379.688 171.626C379.683 171.746 379.688 172.198 379.698 172.947C379.77 179.469 380.1 209.376 376.195 233.678C375.275 234.245 374.354 234.413 373.516 234.35C372.371 234.264 371.374 233.755 370.717 233.255C370.641 226.229 370.444 216.133 369.888 205.37C369.313 194.367 368.359 182.634 366.768 172.687C363.146 149.961 360.884 117.946 366.299 96.4052L365 96.165C359.029 119.05 361.833 150.071 365.479 172.971C367.061 182.845 368.01 194.511 368.58 205.462C369.15 216.445 369.342 226.675 369.414 233.678L369.419 234.067L369.677 234.297C370.458 234.989 371.834 235.786 373.439 235.911C374.594 235.998 375.864 235.743 377.124 234.859L377.378 234.682L377.436 234.336C381.423 209.837 381.088 179.522 381.016 172.937C381.006 172.241 381.001 171.813 381.006 171.713C381.078 170.051 381.203 167.712 381.356 164.912C381.787 156.91 382.425 145.124 382.631 133.286L381.37 127.935Z" fill="#333333"/>
<path fill-rule="evenodd" clip-rule="evenodd" d="M369.73 233.255C368.163 233.904 366.246 234.562 364.291 235.234C360.361 236.584 356.269 237.991 353.916 239.715C351.826 241.247 351.021 243 352.564 245.109L352.627 245.19L352.708 245.253C353.642 246.002 358.281 246.127 363.51 245.805C368.575 245.493 374.278 244.801 377.656 243.908L377.738 243.889C378.519 243.711 380.426 243.308 378.916 237.736C378.859 237.53 378.452 236.632 378.073 235.777C377.761 235.085 377.464 234.422 377.431 234.322L375.95 234.811C376.003 234.975 376.319 235.681 376.655 236.42C377.014 237.218 377.392 238.063 377.416 238.145C378.504 242.15 377.862 242.265 377.397 242.371L377.282 242.395C374.004 243.264 368.407 243.942 363.423 244.244C358.679 244.537 354.577 244.532 353.757 244.076C352.996 242.933 353.556 241.91 354.845 240.959C356.997 239.379 360.979 238.01 364.803 236.699C366.749 236.031 368.656 235.373 370.324 234.687L369.73 233.255Z" fill="#333333"/>
<path fill-rule="evenodd" clip-rule="evenodd" d="M373.803 113.027C374.641 113.921 375.59 114.713 376.64 115.294C377.728 115.895 378.926 116.279 380.239 116.327L380.771 116.346L380.833 116.97C382.539 134.294 387.154 151.459 392.603 171.717C397.256 189.021 402.518 208.583 407.099 232.429C407.914 232.866 408.795 232.972 409.658 232.9C410.482 232.827 411.287 232.587 412.001 232.299C411.853 225.23 411.508 214.543 410.736 203.185C410.19 195.121 409.433 186.75 408.378 179.147C408.235 178.095 408.086 177.096 407.942 176.145C407.794 175.185 407.64 174.234 407.482 173.307C407.358 172.582 407.19 171.659 407.027 170.766C406.596 168.394 406.198 166.223 405.973 163.519C404.195 141.978 403.711 120.428 395.555 99.0801L396.719 98.6431C404.856 117.821 405.47 142.521 407.19 163.384C407.406 165.968 407.794 168.115 408.225 170.464C408.359 171.203 408.498 171.967 408.68 173.023C408.838 173.965 408.997 174.921 409.145 175.891C409.303 176.919 409.452 177.927 409.586 178.912C410.65 186.577 411.412 194.986 411.958 203.07C412.744 214.683 413.683 226.152 413.827 233.26L413.837 233.774L413.429 233.956C411.469 234.835 407.334 235.383 405.848 233.178L405.786 232.851C401.2 208.895 396.106 189.511 391.438 172.159C386.028 152.05 381.442 134.981 379.678 117.744C378.394 117.619 377.21 117.211 376.127 116.61C374.934 115.947 373.865 115.054 372.931 114.046C372.092 113.143 372.974 112.144 373.803 113.027Z" fill="#333333"/>
<path fill-rule="evenodd" clip-rule="evenodd" d="M406.599 232.785C405.199 233.745 402.703 235.354 400.93 236.42C397.369 238.562 393.66 240.8 391.724 242.976C390.004 244.912 389.582 246.794 391.527 248.533L391.604 248.6L391.695 248.648C392.764 249.186 397.331 248.336 402.377 246.924C407.265 245.555 412.699 243.687 415.814 242.107L415.891 242.073C416.619 241.737 418.402 240.94 415.761 235.81C415.661 235.623 415.076 234.826 414.525 234.072C414.075 233.462 413.648 232.876 413.591 232.78L412.244 233.567C412.33 233.712 412.786 234.341 413.27 234.994C413.787 235.7 414.338 236.449 414.372 236.521C416.269 240.21 415.666 240.459 415.234 240.656L415.129 240.704C412.105 242.241 406.771 244.076 401.96 245.421C397.383 246.698 393.368 247.558 392.471 247.284C391.489 246.328 391.82 245.205 392.884 244.009C394.657 242.015 398.27 239.84 401.73 237.755C403.493 236.694 405.985 235.09 407.476 234.067L406.599 232.785Z" fill="#333333"/>
<path fill-rule="evenodd" clip-rule="evenodd" d="M355.137 240.82C355.065 240.868 354.993 240.92 354.921 240.973C353.632 241.919 353.072 242.947 353.834 244.09C354.653 244.547 358.76 244.546 363.499 244.258C368.488 243.951 374.085 243.279 377.358 242.409L377.473 242.385C377.775 242.318 378.159 242.246 378.077 241.079C378.034 240.464 377.866 239.542 377.492 238.159C377.473 238.082 377.09 237.232 376.731 236.435C376.563 236.06 376.395 235.695 376.27 235.402C375.322 235.849 374.382 235.978 373.51 235.911C372.24 235.815 371.114 235.292 370.309 234.739C368.661 235.416 366.787 236.06 364.875 236.718C361.18 237.981 357.327 239.302 355.137 240.82Z" fill="#FEFEFE"/>
<path fill-rule="evenodd" clip-rule="evenodd" d="M401.734 237.76C399.778 238.937 397.775 240.143 396.084 241.329C394.78 242.246 393.659 243.144 392.883 244.014C391.819 245.209 391.488 246.328 392.47 247.289C393.367 247.563 397.382 246.703 401.959 245.426C405.826 244.345 410.034 242.947 413.106 241.641C413.853 241.324 414.534 241.012 415.128 240.709L415.233 240.661C415.665 240.459 416.268 240.215 414.371 236.526C414.332 236.454 413.786 235.705 413.268 234.999C413.072 234.735 412.885 234.475 412.722 234.25C411.122 234.759 408.821 234.994 407.221 234.25C405.711 235.273 403.397 236.757 401.734 237.76Z" fill="#FEFEFE"/>
<path d="M365.5 96.5C365.5 96.5 371.5 101 380.5 101.5C389.5 102 395.5 99 395.5 99" stroke="#333333" stroke-linecap="round" stroke-linejoin="round"/>
<path d="M148.159 224.528L143.299 188.267L106.23 199.874L110.716 236.509L148.159 224.528Z" fill="#CCCCCC" stroke="#333333"/>
<path d="M142.679 224.641L144.188 188.288L180.471 199.884L179.596 236.611L142.679 224.641Z" fill="#CCCCCC" stroke="#333333"/>
<mask id="path-51-inside-1_7089_261052" fill="white">
<path fill-rule="evenodd" clip-rule="evenodd" d="M144.53 174.5C144.145 173.833 143.183 173.833 142.798 174.5L132.405 192.5C132.021 193.167 132.502 194 133.272 194H138.664V216C138.664 216.552 139.112 217 139.664 217H147.664C148.216 217 148.664 216.552 148.664 216V194H154.056C154.826 194 155.307 193.167 154.922 192.5L144.53 174.5Z"/>
</mask>
<path fill-rule="evenodd" clip-rule="evenodd" d="M144.53 174.5C144.145 173.833 143.183 173.833 142.798 174.5L132.405 192.5C132.021 193.167 132.502 194 133.272 194H138.664V216C138.664 216.552 139.112 217 139.664 217H147.664C148.216 217 148.664 216.552 148.664 216V194H154.056C154.826 194 155.307 193.167 154.922 192.5L144.53 174.5Z" fill="url(#paint3_linear_7089_261052)"/>
<path d="M142.798 174.5L143.664 175V175L142.798 174.5ZM144.53 174.5L143.664 175L144.53 174.5ZM132.405 192.5L133.272 193H133.272L132.405 192.5ZM138.664 194H139.664V193H138.664V194ZM148.664 194V193H147.664V194H148.664ZM154.922 192.5L154.056 193L154.056 193L154.922 192.5ZM143.664 175L143.664 175L145.396 174C144.626 172.667 142.702 172.667 141.932 174L143.664 175ZM133.272 193L143.664 175L141.932 174L131.539 192L133.272 193ZM133.272 193H133.272L131.539 192C130.77 193.333 131.732 195 133.272 195V193ZM138.664 193H133.272V195H138.664V193ZM139.664 216V194H137.664V216H139.664ZM139.664 216H139.664H137.664C137.664 217.105 138.559 218 139.664 218V216ZM147.664 216H139.664V218H147.664V216ZM147.664 216H147.664V218C148.768 218 149.664 217.105 149.664 216H147.664ZM147.664 194V216H149.664V194H147.664ZM154.056 193H148.664V195H154.056V193ZM154.056 193L154.056 193V195C155.596 195 156.558 193.333 155.788 192L154.056 193ZM143.664 175L154.056 193L155.788 192L145.396 174L143.664 175Z" fill="black" mask="url(#path-51-inside-1_7089_261052)"/>
<path d="M106.952 201.369C106.952 201.03 107.282 200.789 107.604 200.892L143.604 212.376C143.811 212.442 143.952 212.634 143.952 212.852V248.631C143.952 248.97 143.623 249.211 143.3 249.108L107.3 237.624C107.093 237.558 106.952 237.366 106.952 237.148V201.369Z" fill="#D9F4FF" stroke="#333333"/>
<path d="M105.676 200.435C105.798 200.245 106.032 200.16 106.247 200.227L142.603 211.608C142.917 211.706 143.052 212.077 142.875 212.354L136.324 222.608C136.202 222.798 135.968 222.883 135.753 222.816L99.3974 211.435C99.083 211.337 98.948 210.966 99.1254 210.689L105.676 200.435Z" fill="#9ADAF3" stroke="#333333"/>
<path d="M179.952 201.369C179.952 201.03 179.623 200.789 179.3 200.892L143.3 212.376C143.093 212.442 142.952 212.634 142.952 212.852V248.631C142.952 248.97 143.282 249.211 143.604 249.108L179.604 237.624C179.811 237.558 179.952 237.366 179.952 237.148V201.369Z" fill="#9ADAF3" stroke="#333333"/>
<path d="M180.987 200.435C180.866 200.245 180.632 200.16 180.416 200.227L144.061 211.608C143.746 211.706 143.611 212.077 143.789 212.354L150.34 222.608C150.461 222.798 150.695 222.883 150.91 222.816L187.266 211.435C187.58 211.337 187.715 210.966 187.538 210.689L180.987 200.435Z" fill="#D9F4FF" stroke="#333333"/>
<defs>
<linearGradient id="paint0_linear_7089_261052" x1="104" y1="70.2031" x2="143.264" y2="140.268" gradientUnits="userSpaceOnUse">
<stop stop-color="#FF8E3D"/>
<stop offset="1" stop-color="#FF6F3D"/>
</linearGradient>
<linearGradient id="paint1_linear_7089_261052" x1="364.638" y1="4.01351" x2="403.813" y2="48.0736" gradientUnits="userSpaceOnUse">
<stop stop-color="#FFC671"/>
<stop offset="0.59375" stop-color="#FF7541"/>
<stop offset="1" stop-color="#FF6F3D"/>
</linearGradient>
<linearGradient id="paint2_linear_7089_261052" x1="375.134" y1="11.9239" x2="388.358" y2="27.5773" gradientUnits="userSpaceOnUse">
<stop stop-color="#FFAA60"/>
<stop offset="1" stop-color="#FF7541"/>
</linearGradient>
<linearGradient id="paint3_linear_7089_261052" x1="132.27" y1="172.32" x2="168.634" y2="192.344" gradientUnits="userSpaceOnUse">
<stop stop-color="#FF8E3D"/>
<stop offset="1" stop-color="#FF6F3D"/>
</linearGradient>
</defs>
</svg>
