<svg width="2418" height="1886" viewBox="0 0 2418 1886" fill="none" xmlns="http://www.w3.org/2000/svg">
<g clip-path="url(#clip0_16_56706)">
<rect width="2418" height="1886" fill="#EFEFEF"/>
<g style="mix-blend-mode:color-dodge" opacity="0.2">
<path fill-rule="evenodd" clip-rule="evenodd" d="M1099.35 673.942L1308.85 1590.11C1326.03 1668.68 1283.48 1702.08 1213.74 1664.78L373.475 1243.81C301.23 1208.48 229.301 1116.86 214.066 1040.76L4.56301 124.596C-12.616 46.0285 29.9351 12.6224 99.6773 49.9238L939.938 470.895C1009.68 508.197 1081.61 599.816 1099.35 673.942Z" fill="#333333"/>
</g>
<g style="mix-blend-mode:color-dodge" opacity="0.3">
<path fill-rule="evenodd" clip-rule="evenodd" d="M1599.48 1153.42L709.676 1455.91C633.288 1481.06 595.688 1442.17 625.63 1368.96L958.079 489.912C985.809 414.42 1069.56 333.463 1143.68 310.493L2033.49 8.006C2109.88 -17.1514 2147.48 21.7439 2117.53 94.9483L1785.09 974.001C1755.14 1047.21 1671.4 1128.16 1599.48 1153.42Z" fill="#333333"/>
</g>
<g style="mix-blend-mode:color-dodge" opacity="0.3">
<path fill-rule="evenodd" clip-rule="evenodd" d="M1672.66 1770.72L739.758 1884.5C659.836 1893.47 631.003 1847.7 675.307 1782.18L1180.8 989.883C1223.41 921.673 1321.97 859.591 1399.22 852.295L2332.13 738.523C2412.05 729.549 2440.88 775.323 2396.58 840.84L1891.09 1633.14C1846.78 1698.65 1748.23 1760.74 1672.66 1770.72Z" fill="#333333"/>
</g>
</g>
<defs>
<clipPath id="clip0_16_56706">
<rect width="2418" height="1886" fill="white"/>
</clipPath>
</defs>
</svg>
