<svg width="56" height="56" viewBox="0 0 56 56" fill="none" xmlns="http://www.w3.org/2000/svg">
<g clip-path="url(#clip0_16_56685)">
<path fill-rule="evenodd" clip-rule="evenodd" d="M20.3413 36.6535L27.2447 29.5598H16.8699H16.8436C11.0974 29.5598 6.4425 34.343 6.4425 40.2477C6.4425 46.1524 11.0974 50.9356 16.8436 50.9356C17.2775 50.9356 17.7115 50.9085 18.1322 50.8545C15.8574 46.2605 16.5938 40.4909 20.3282 36.6535H20.3413Z" fill="#8BDC01"/>
<path fill-rule="evenodd" clip-rule="evenodd" d="M28.7706 40.2349V30.1956L21.4333 37.7352L21.4202 37.7487C17.357 41.9239 17.357 48.6933 21.4202 52.8685C25.4833 57.0437 32.0711 57.0437 36.1343 52.8685C36.4367 52.5577 36.726 52.2199 36.989 51.8686C32.2158 50.2742 28.7706 45.6667 28.7706 40.2214V40.2349Z" fill="#8BDC01"/>
<path fill-rule="evenodd" clip-rule="evenodd" d="M37.1857 36.6538L30.2823 29.5598V40.2345C30.2823 46.1394 34.9371 50.9228 40.6834 50.9228C46.4296 50.9228 51.0845 46.1394 51.0845 40.2345C51.0845 39.7886 51.0582 39.3427 51.0056 38.9103C46.5348 41.248 40.9201 40.4913 37.1857 36.6538Z" fill="#8BDC01"/>
<path fill-rule="evenodd" clip-rule="evenodd" d="M52.966 20.4268C52.6635 20.1161 52.3348 19.8188 51.9929 19.5486C50.4413 24.4533 45.9573 27.9934 40.6581 27.9934H30.8881L38.2255 35.5328L38.2386 35.5464C42.3018 39.7214 48.8897 39.7214 52.9528 35.5464C57.016 31.3713 57.016 24.6019 52.9528 20.4268H52.966Z" fill="#8BDC01"/>
<path fill-rule="evenodd" clip-rule="evenodd" d="M40.6703 5.06201C40.2363 5.06201 39.8024 5.08904 39.3816 5.14309C41.6565 9.7373 40.9201 15.5071 37.1857 19.3446L30.2823 26.4386H40.6703C46.4165 26.4386 51.0714 21.6552 51.0714 15.7503C51.0714 9.8454 46.4165 5.06201 40.6703 5.06201Z" fill="#FBA100"/>
<path fill-rule="evenodd" clip-rule="evenodd" d="M36.1069 3.13139C32.0438 -1.0438 25.456 -1.0438 21.3929 3.13139C21.0905 3.44217 20.8012 3.77997 20.5382 4.13128C25.3114 5.72569 28.7565 10.3333 28.7565 15.7786V25.818L36.0938 18.2783L36.1069 18.2648C40.17 14.0896 40.17 7.3201 36.1069 3.14491V3.13139Z" fill="#33AAFF"/>
<path fill-rule="evenodd" clip-rule="evenodd" d="M20.3551 19.3581L20.6576 19.6689L27.2454 26.4386H27.2586V15.7773V15.7503C27.2586 9.8454 22.6037 5.06201 16.8574 5.06201C11.1111 5.06201 6.45618 9.8454 6.45618 15.7503C6.45618 16.1962 6.48248 16.6421 6.53507 17.0745C11.0059 14.7369 16.6207 15.5071 20.3683 19.3446L20.3551 19.3581Z" fill="#33AAFF"/>
<path fill-rule="evenodd" clip-rule="evenodd" d="M5.56255 36.3429C5.64145 36.0997 5.7335 35.8429 5.82554 35.6132C5.83869 35.5862 5.85184 35.5457 5.86499 35.5186C5.97018 35.2619 6.08853 35.0052 6.20687 34.7619C6.23317 34.7079 6.25947 34.6539 6.28577 34.5998C6.41726 34.3566 6.54875 34.1134 6.68025 33.8701C6.6934 33.8431 6.70655 33.8161 6.73285 33.8026C6.86434 33.5864 7.00898 33.3702 7.15362 33.154C7.17992 33.1135 7.21937 33.0729 7.24567 33.0189C7.40346 32.8027 7.5744 32.5865 7.74535 32.3703C7.78479 32.3298 7.81109 32.2892 7.85054 32.2487C8.02148 32.046 8.19242 31.8568 8.37651 31.6677C8.38966 31.6541 8.40281 31.6271 8.42911 31.6136C8.62635 31.4109 8.82359 31.2217 9.02083 31.0461C9.06028 31.0056 9.11288 30.965 9.15233 30.9245C9.36271 30.7488 9.55995 30.5732 9.78349 30.411C9.80979 30.384 9.83609 30.3705 9.87554 30.3435C10.0728 30.1948 10.2832 30.0462 10.4936 29.9111C10.533 29.884 10.5725 29.857 10.6251 29.83C10.8486 29.6814 11.0853 29.5462 11.322 29.4246C11.3746 29.3976 11.4272 29.3706 11.4666 29.3435C11.7033 29.2219 11.94 29.1003 12.1898 28.9922C12.203 28.9922 12.2161 28.9787 12.2293 28.9787C12.4791 28.8706 12.7421 28.776 13.0051 28.6814C13.0577 28.6679 13.1234 28.6409 13.176 28.6274C13.439 28.5463 13.702 28.4653 13.965 28.3842C14.0044 28.3707 14.0439 28.3707 14.0833 28.3572C14.3332 28.2896 14.583 28.2491 14.8328 28.195C14.8854 28.1815 14.9249 28.1815 14.9775 28.168C15.2536 28.1274 15.5298 28.0869 15.8059 28.0599C15.8716 28.0599 15.9242 28.0464 15.99 28.0464C16.2793 28.0194 16.5686 28.0058 16.871 28.0058H26.641L19.2905 20.4525C15.2273 16.2772 8.6395 16.2772 4.57635 20.4525C0.513205 24.6278 0.513205 31.3974 4.57635 35.5727C4.87879 35.8835 5.20752 36.1807 5.53625 36.451C5.5494 36.424 5.56255 36.3834 5.5757 36.3564L5.56255 36.3429Z" fill="#33AAFF"/>
<path fill-rule="evenodd" clip-rule="evenodd" d="M19.3032 20.4531L25.1284 26.439H17.3045L16.8574 26.4525C12.0974 26.4525 8.07366 23.169 6.85077 18.6695C10.8087 16.386 15.9238 16.9805 19.29 20.4396L19.3032 20.4531Z" fill="#017DFF"/>
<path fill-rule="evenodd" clip-rule="evenodd" d="M27.2461 15.7645V24.2228L21.7102 18.5344L21.3946 18.2236C18.0284 14.7646 17.4499 9.52209 19.6721 5.45508C24.0508 6.72517 27.2461 10.8462 27.2461 15.751V15.778V15.7645Z" fill="#017DFF"/>
<path fill-rule="evenodd" clip-rule="evenodd" d="M36.148 18.237L30.3228 24.2228V16.1833L30.3096 15.7239C30.3096 10.8326 33.5049 6.698 37.8837 5.44141C40.1059 9.50845 39.5274 14.7645 36.1611 18.2235L36.148 18.237Z" fill="#017DFF"/>
<path fill-rule="evenodd" clip-rule="evenodd" d="M40.6569 26.4248H32.4254L37.9613 20.7357L38.2637 20.4113C41.6299 16.9519 46.7319 16.3573 50.6898 18.6411C49.4538 23.141 45.4432 26.4248 40.67 26.4248H40.6437H40.6569Z" fill="#FFE912"/>
<path fill-rule="evenodd" clip-rule="evenodd" d="M38.2378 35.5063L32.4126 29.5199H40.2365L40.6836 29.5063C45.4437 29.5063 49.4674 32.7901 50.6903 37.29C46.7323 39.5738 41.6172 38.9792 38.2509 35.5198L38.2378 35.5063Z" fill="#47B41B"/>
<path fill-rule="evenodd" clip-rule="evenodd" d="M30.296 40.1799V31.7212L35.8319 37.4099L36.1475 37.7206C39.5137 41.1798 40.0923 46.4226 37.87 50.4898C33.4913 49.2196 30.296 45.0984 30.296 40.1934V40.1664V40.1799Z" fill="#47B41B"/>
<path fill-rule="evenodd" clip-rule="evenodd" d="M21.4591 37.7625L27.2843 31.7771V39.8162L27.2974 40.2756C27.2974 45.1666 24.1021 49.3011 19.7234 50.5576C17.5011 46.4907 18.0797 41.2349 21.4459 37.776L21.4591 37.7625Z" fill="#47B41B"/>
<path fill-rule="evenodd" clip-rule="evenodd" d="M16.896 29.5725H25.1275L19.5916 35.2616L19.2892 35.5859C15.9229 39.0453 10.8209 39.6399 6.86292 37.3562C8.09896 32.8562 12.1095 29.5725 16.8828 29.5725H16.9091H16.896Z" fill="#47B41B"/>
</g>
<defs>
<clipPath id="clip0_16_56685">
<rect width="56.0005" height="56" fill="white"/>
</clipPath>
</defs>
</svg>
