<svg width="184" height="65" viewBox="0 0 184 65" fill="none" xmlns="http://www.w3.org/2000/svg">
<path fill-rule="evenodd" clip-rule="evenodd" d="M152.102 9.17596C153.432 9.17596 154.44 8.15312 154.44 6.82344C154.44 5.49376 153.432 4.48554 152.102 4.50016C150.773 4.50016 149.75 5.50838 149.75 6.83806C149.75 8.16774 150.773 9.17596 152.102 9.17596ZM144.402 13.1942C144.869 13.0043 145.191 12.8728 145.512 12.7413C145.335 12.7502 145.157 12.7632 144.979 12.7761L144.979 12.7761C143.711 12.8682 142.468 12.9585 141.596 11.5869C141.805 11.5046 142.02 11.4223 142.237 11.3388L142.238 11.3387L142.238 11.3385L142.238 11.3384L142.239 11.3383C142.523 11.2292 142.812 11.1182 143.101 11.0025C143.094 10.9879 143.09 10.9732 143.087 10.9586C143.083 10.944 143.079 10.9294 143.072 10.9148C142.772 10.9577 142.47 11.0107 142.168 11.0637C141.441 11.1914 140.712 11.3196 139.989 11.3093C138.904 11.2954 137.806 11.0696 136.719 10.8462L136.555 10.8125C136.205 10.7395 135.883 10.4326 135.62 10.1696C135.532 10.0819 135.562 9.65817 135.649 9.59973C138.294 7.91936 140.953 6.26822 144.051 5.49379C144.256 5.43534 144.475 5.40612 144.694 5.37689C146.667 5.20155 147.5 5.99059 147.426 7.97781C147.423 8.05793 147.42 8.13822 147.417 8.21864C147.389 8.88623 147.361 9.56295 147.426 10.228C147.587 11.6454 148.508 12.6974 149.925 12.7413C151.036 12.7851 151.386 13.3696 151.708 14.1879C151.777 14.3551 151.834 14.5357 151.902 14.7549L151.912 14.7869H147.514C147.611 14.701 147.688 14.6309 147.753 14.5715L147.753 14.5713L147.753 14.571L147.754 14.5707L147.754 14.5707C147.865 14.4689 147.943 14.3985 148.026 14.334C147.009 14.7527 146.291 14.294 145.529 13.8071C145.175 13.5803 144.81 13.3475 144.402 13.1942ZM155.01 32.9203C155.172 32.8483 155.347 32.7776 155.527 32.7045C155.933 32.5404 156.369 32.3638 156.763 32.1312C158.093 31.3568 158.181 29.8956 156.983 28.902C155.784 27.923 154.323 27.7915 152.862 27.66C152.426 27.621 151.989 27.5848 151.552 27.5486C150.028 27.4225 148.502 27.2962 147.003 27.0463C145.41 26.7833 144.066 25.9358 142.955 24.7376C140.924 22.5459 141.363 18.7906 143.832 17.1102C145.352 16.0582 147.09 15.7221 148.888 15.7367C149.94 15.7513 150.729 16.4673 151.313 17.3002C151.401 17.4317 151.182 17.9723 150.977 18.1038C150.086 18.6445 149.078 18.9513 148.055 18.5568C146.725 18.0454 145.775 18.3669 145.045 19.6527C144.212 21.1285 144.563 22.5459 145.805 23.3933C147.31 24.4016 149.034 24.6207 150.802 24.7815C150.982 24.7969 151.162 24.8119 151.343 24.827L151.343 24.827L151.343 24.827H151.343C152.877 24.9551 154.426 25.0845 155.916 25.4244C157.742 25.8481 159.277 26.8417 160.066 28.6682C161.016 30.8746 160.27 33.1541 158.195 34.2938C158.02 34.3961 157.699 34.3815 157.509 34.2938C156.972 34.0116 156.446 33.718 155.931 33.4308L155.931 33.4307L155.931 33.4305L155.931 33.4304L155.93 33.4302C155.619 33.2566 155.313 33.0853 155.01 32.9203ZM159.308 13.0156L159.308 13.0155L159.308 13.0154C159.063 12.9146 158.863 12.8321 158.663 12.7559C158.663 12.7352 158.665 12.7164 158.667 12.6987L158.667 12.6986C158.67 12.6664 158.672 12.6381 158.663 12.6098C158.871 12.6319 159.083 12.6687 159.296 12.7057C159.785 12.7909 160.279 12.8768 160.738 12.7851C161.183 12.6961 161.594 12.4331 162.058 12.1365C162.28 11.9949 162.514 11.8455 162.769 11.7038C162.024 11.4262 161.498 11.2216 160.972 11.0171C161.468 10.9878 161.951 11.0609 162.418 11.1486C164.113 11.4554 165.808 11.5577 167.445 10.9002C167.971 10.681 168.511 10.4472 168.716 9.74583L168.652 9.70568C165.97 8.02414 163.3 6.34942 160.197 5.53761C159.715 5.42072 159.189 5.39149 158.678 5.39149C157.509 5.4061 156.822 6.0198 156.734 7.20337C156.702 7.64962 156.723 8.10023 156.743 8.55044V8.55047V8.5505V8.55053V8.55056V8.55059V8.55062V8.55065V8.55068V8.55071V8.55074V8.55077V8.5508V8.55083V8.55086V8.55089V8.55092V8.55095V8.55098V8.55101V8.55104V8.55107V8.55111V8.55114V8.55118V8.55121V8.55125V8.55129V8.55132V8.55136V8.55139V8.55143V8.55146V8.5515V8.55154V8.55157V8.55161V8.55164V8.55168V8.55171V8.55175V8.55179V8.55182V8.55186V8.55189C156.76 8.92671 156.777 9.30125 156.763 9.67277C156.705 11.6308 155.638 12.6974 153.68 12.8435C153.461 12.8582 153.125 12.9166 153.037 13.0627C152.797 13.4564 152.589 13.8829 152.377 14.3175C152.306 14.4636 152.234 14.6107 152.161 14.7577H156.632C156.479 14.6369 156.375 14.5516 156.29 14.4823C156.221 14.4258 156.165 14.3799 156.106 14.334C157.127 14.7619 157.831 14.3029 158.567 13.8231C158.937 13.5821 159.314 13.3359 159.744 13.1942C159.582 13.1282 159.439 13.0693 159.308 13.0156ZM148.163 28.3563L148.163 28.3563C147.871 28.517 147.572 28.6811 147.31 28.8875C146.038 29.9103 146.141 31.3276 147.529 32.1605C149.092 33.0957 150.846 33.1833 152.614 33.198C153.9 33.2126 155.127 33.4464 156.267 34.0747C158.064 35.0829 159.028 37.2016 158.546 39.145C158.458 39.5103 158.298 39.8756 158.079 40.197C157.333 41.3222 156.968 41.3952 155.814 40.7669C155.644 40.6758 155.473 40.5872 155.298 40.4958L155.296 40.495L155.296 40.4948L155.296 40.4947L155.296 40.4946L155.295 40.4943C155.05 40.3664 154.794 40.2332 154.513 40.0801C154.732 39.9779 154.893 39.9048 155.054 39.8464L155.077 39.8364C155.728 39.5617 156.428 39.2665 156.457 38.4436C156.486 37.5377 156.194 36.6317 155.302 36.2518C154.469 35.9011 153.549 35.755 152.643 35.6235C152.082 35.5467 151.511 35.5105 150.94 35.4744L150.94 35.4744L150.94 35.4744L150.94 35.4744L150.94 35.4744L150.939 35.4744L150.939 35.4744L150.939 35.4744L150.939 35.4743L150.939 35.4743L150.939 35.4743L150.939 35.4743L150.939 35.4743L150.939 35.4743L150.939 35.4743L150.939 35.4743L150.939 35.4743L150.939 35.4743L150.939 35.4743L150.939 35.4743L150.939 35.4743L150.939 35.4743C150.098 35.421 149.258 35.3678 148.449 35.1852C147.412 34.9514 146.36 34.4692 145.498 33.8555C142.941 32.029 143.657 28.8582 145.059 27.3094C145.191 27.1779 145.527 27.134 145.732 27.1925C146.71 27.47 147.674 27.7767 148.638 28.0834L148.638 28.0834L148.638 28.0834L148.638 28.0834L148.638 28.0834L148.638 28.0835L148.638 28.0835L148.638 28.0835L148.638 28.0835L148.638 28.0835L148.638 28.0835L148.639 28.0836L148.639 28.0836L148.639 28.0836L148.639 28.0836L148.639 28.0836L148.639 28.0836L148.639 28.0837L148.639 28.0837L148.639 28.0837L148.639 28.0837L148.639 28.0837L148.639 28.0838C148.488 28.178 148.326 28.2665 148.163 28.3562L148.163 28.3563ZM130.36 14.6845C133.297 14.0416 136.132 13.0626 138.893 11.8498C136.234 11.6452 135.503 11.3384 134.773 10.0525C130.024 11.5576 125.173 12.5658 120 13.1795C120.14 13.3286 120.262 13.4762 120.376 13.6142L120.376 13.6142C120.619 13.9092 120.827 14.1606 121.096 14.29C121.929 14.6845 122.82 15.079 123.726 15.2398C125.962 15.6343 128.168 15.1667 130.36 14.6845ZM169.359 10.0525C174.122 11.5429 178.959 12.5512 184 13.1649C183.021 14.3923 181.808 15.0206 180.391 15.269C178.433 15.6197 176.489 15.2836 174.619 14.8014C172.419 14.2148 170.249 13.5305 168.077 12.8455C167.22 12.575 166.362 12.3045 165.501 12.0398C165.447 12.0217 165.399 11.9925 165.331 11.9521C165.29 11.9271 165.241 11.8979 165.18 11.8644C165.485 11.8136 165.794 11.7808 166.102 11.7482C167.388 11.612 168.64 11.4793 169.359 10.0525ZM156.47 24.2607C156.155 24.3889 155.842 24.5163 155.536 24.6499C156.2 24.9541 156.892 25.2873 157.592 25.6239L157.593 25.6243L157.596 25.6257C158.004 25.8222 158.415 26.0198 158.824 26.2134C158.97 26.2865 159.218 26.3011 159.35 26.228C162.097 24.723 163.368 22.2682 162.038 19.0682C161.147 16.9641 159.204 16.2773 157.129 15.8682C155.638 15.576 154.279 15.6783 153.198 16.9057C152.672 17.5047 152.687 17.8262 153.403 18.1915C154.338 18.6591 155.317 18.8198 156.369 18.513C156.88 18.3815 157.509 18.323 157.976 18.4983C159.058 18.9221 159.437 19.8865 159.554 20.997C159.671 22.0783 159.321 22.8965 158.4 23.3933C157.78 23.7279 157.12 23.9962 156.47 24.2607ZM146.769 35.0974C147.168 35.2375 147.557 35.3708 147.931 35.499C148.338 35.6384 148.727 35.7717 149.092 35.9011C148.979 36.0671 148.855 36.2305 148.73 36.3948L148.73 36.3948C148.437 36.7801 148.141 37.1702 147.967 37.6107C147.587 38.5897 147.894 39.3056 148.888 39.6563C149.691 39.9486 150.583 40.1093 151.43 40.1531C152.701 40.2116 153.958 40.2846 155.098 40.9276C157.538 42.3011 157.859 45.6764 155.697 47.2837C155.375 47.5321 155.112 47.5906 154.718 47.3714C154.423 47.2042 154.101 47.09 153.753 46.9664C153.584 46.9063 153.409 46.844 153.227 46.7723C153.298 46.7372 153.364 46.7021 153.429 46.6682L153.429 46.6679L153.43 46.6678L153.43 46.6677C153.553 46.603 153.668 46.5426 153.783 46.4947C155.025 45.9102 155.521 45.1358 155.317 44.1568C155.068 43.0171 154.089 42.2719 152.804 42.228L152.775 42.2271C151.82 42.1982 150.851 42.1688 149.896 42.0965C149.472 42.0673 149.034 41.9504 148.625 41.8335C145.483 40.8399 144.592 37.6691 146.769 35.0974ZM137.154 12.9457C133.501 14.3485 129.746 15.3859 125.742 15.9265C128.694 18.4982 138.732 16.701 142.429 13.048C142.254 12.9019 142.079 12.7594 141.903 12.617C141.728 12.4745 141.553 12.332 141.377 12.1859C140.778 11.6745 140.135 11.6014 139.419 11.9521C138.674 12.3174 137.929 12.6535 137.154 12.9457ZM177.63 16.3043L177.63 16.3044C177.022 16.5165 176.464 16.7115 175.89 16.8471C173.363 17.4754 170.835 17.2562 168.438 16.3503C166.972 15.8002 165.562 15.1152 164.149 14.429C163.535 14.1308 162.921 13.8325 162.301 13.5448C162.146 13.4669 162.003 13.363 161.86 13.2591L161.86 13.2591C161.788 13.2071 161.717 13.1552 161.644 13.1064C161.952 12.8531 162.236 12.6164 162.507 12.39L162.507 12.3899L162.769 12.1713C163.353 11.6745 163.982 11.616 164.669 11.9375C168.935 13.9539 173.421 15.2106 178.097 15.8827C178.128 15.8827 178.152 15.8975 178.241 15.9532C178.278 15.9759 178.326 16.0054 178.389 16.0434C178.126 16.1312 177.874 16.2191 177.631 16.3041L177.63 16.3042L177.63 16.3043ZM158.79 14.176L158.79 14.176C158.583 14.2892 158.376 14.4023 158.166 14.5092V14.8306C158.808 15.1515 159.45 15.4789 160.093 15.8069C161.382 16.4644 162.675 17.1242 163.982 17.7384C165.604 18.4982 167.342 18.6735 169.111 18.469C169.973 18.3667 170.791 18.1767 171.492 17.49C167.854 16.8763 164.639 15.4297 161.542 13.6763C161.191 13.4717 160.665 13.3256 160.329 13.4425C159.791 13.6286 159.29 13.9024 158.79 14.176ZM146.126 14.6699C145.443 15.0256 144.778 15.4024 144.12 15.7755C141.722 17.1341 139.411 18.444 136.614 18.5128C135.744 18.5396 134.849 18.3702 133.986 18.2068L133.75 18.1621C133.497 18.1135 133.264 17.9744 132.972 17.8006C132.826 17.7132 132.664 17.617 132.479 17.5192C135.313 17.0516 137.753 16.1457 140.106 14.9914C140.272 14.9069 140.439 14.8238 140.606 14.7406L140.607 14.7404C141.221 14.435 141.837 14.1282 142.4 13.7494C143.101 13.2818 143.759 13.2964 144.446 13.6617C144.828 13.8584 145.194 14.0877 145.642 14.3681C145.793 14.4627 145.953 14.563 146.126 14.6699ZM153.127 52.0379L153.127 52.0379L153.126 52.0384L153.126 52.0385C153.002 52.1104 152.875 52.1844 152.745 52.2664C154.075 52.9678 154.82 52.7194 155.448 51.4482C156.384 49.5194 155.302 47.5176 153.081 47.0646C152.794 47.0046 152.508 46.9628 152.222 46.9213C151.882 46.8718 151.545 46.8226 151.211 46.7432C148.844 46.1733 148.274 44.5514 149.794 42.6811C149.645 42.6258 149.498 42.568 149.353 42.5106L149.353 42.5106L149.353 42.5106L149.353 42.5105L149.353 42.5105L149.353 42.5105L149.353 42.5105L149.353 42.5105L149.353 42.5105L149.353 42.5105L149.353 42.5105L149.353 42.5105L149.352 42.5104C148.999 42.3708 148.651 42.2336 148.289 42.1404C148.128 42.0966 147.836 42.2281 147.733 42.3742C146.871 43.6162 146.915 45.3404 147.85 46.524C148.756 47.6929 150.027 48.1751 151.445 48.3651C151.612 48.389 151.783 48.4086 151.954 48.4282H151.954L151.955 48.4282L151.955 48.4283H151.955C152.412 48.4807 152.875 48.5338 153.3 48.6719C154.601 49.0811 154.879 50.703 153.826 51.5797C153.611 51.7556 153.377 51.8923 153.127 52.0379ZM150.7 48.6865C149.414 49.7532 149.531 51.1413 150.933 51.9304C151.243 52.106 151.59 52.2232 151.931 52.3388C152.073 52.3867 152.214 52.4342 152.351 52.4856C154.046 53.1139 154.805 54.5751 154.323 56.2555C154.031 57.2637 153.637 57.5852 152.336 57.8774C152.297 58.442 152.258 59.0195 152.219 59.5971L152.161 60.4637H151.971C151.898 59.6018 151.825 58.7546 151.752 57.9073L151.752 57.9066C150.027 57.2637 149.326 55.7879 149.998 54.1952C150.407 53.2308 150.495 53.2016 151.416 53.6838C150.071 55.3349 150.217 57.0737 151.708 57.439V53.903H152.38V57.5121C153.023 57.4536 153.403 57.0884 153.593 56.5331C153.856 55.7148 153.885 54.8673 153.257 54.2098C152.948 53.8881 152.505 53.6894 152.084 53.5008L152.084 53.5008L151.971 53.45C151.682 53.3172 151.382 53.2095 151.084 53.1026L151.084 53.1026C150.628 52.9389 150.177 52.7769 149.779 52.5294C148.61 51.7842 148.216 50.1477 148.756 48.8911C148.99 48.3358 149.282 48.029 149.911 48.3797C150.059 48.4586 150.227 48.5176 150.415 48.5836C150.505 48.6153 150.6 48.6486 150.7 48.6865ZM153.008 24.2555H151.211V23.1157C151.207 22.7571 151.195 22.3972 151.184 22.0371L151.184 22.0369V22.0369V22.0369V22.0369V22.0368V22.0368V22.0368V22.0368V22.0368V22.0368C151.156 21.1355 151.127 20.2333 151.211 19.3459C151.262 18.8106 151.488 18.2899 151.714 17.7683C151.809 17.5495 151.903 17.3305 151.985 17.1103C152.073 17.0957 152.175 17.081 152.263 17.081C152.341 17.3556 152.433 17.6287 152.525 17.9017C152.727 18.5005 152.929 19.099 152.979 19.7112C153.051 20.7603 153.036 21.8166 153.021 22.8903C153.015 23.342 153.008 23.7968 153.008 24.2555ZM153.695 9.24886H150.407C150.49 9.97584 151.061 10.2522 151.651 10.5371L151.706 10.5639L151.766 10.5932C150.626 11.1338 151.196 13.0626 152.161 13.9977C153.344 12.2589 153.374 11.163 152.453 10.6078C153.549 10.0525 153.695 9.89179 153.695 9.24886ZM151.284 28.0983H152.847V32.7156H151.284V28.0983ZM146.023 15.0066L146.021 15.0073L146.021 15.0076C143.83 16.1614 141.639 17.3153 139.405 18.4983C139.595 18.5421 139.799 18.586 140.004 18.6298C140.939 18.8928 141.611 18.849 142.4 17.9431C144.066 16.0289 146.331 15.2545 148.902 15.4883C149.077 15.4975 149.257 15.4778 149.436 15.4583C149.541 15.4467 149.647 15.4353 149.75 15.4298C149.75 15.4006 149.746 15.3677 149.742 15.3348C149.739 15.302 149.735 15.2691 149.735 15.2399L149.416 15.2021C148.415 15.0833 147.422 14.9657 146.418 14.86C146.31 14.8464 146.175 14.9213 146.051 14.9906L146.024 15.0061L146.023 15.0066ZM164.858 18.5421C164.691 18.5656 164.527 18.5892 164.367 18.6122C163.732 18.7037 163.148 18.7877 162.564 18.8344C162.433 18.849 162.258 18.6444 162.155 18.4983C160.416 16.0435 157.962 15.2691 155.083 15.5321C154.916 15.5425 154.749 15.5157 154.582 15.4888C154.515 15.4781 154.449 15.4674 154.382 15.459V15.2252C154.606 15.2045 154.83 15.1884 155.054 15.1724C155.618 15.1321 156.18 15.0919 156.734 14.9768C157.523 14.8161 158.152 15.0207 158.838 15.4006C160.132 16.126 161.453 16.7988 162.817 17.494L162.817 17.4941L162.817 17.4941C163.486 17.8351 164.166 18.1815 164.858 18.5421ZM152.745 40.0508V36.018H151.401V40.0508H152.745ZM151.489 42.3889H152.658C152.658 42.7 152.658 43.0093 152.659 43.317L152.659 43.3198V43.3199V43.32V43.32C152.662 44.2396 152.665 45.1448 152.643 46.0418C152.628 46.5094 152.526 46.5386 151.474 46.4071C151.489 45.1067 151.489 43.7916 151.489 42.3889ZM151.591 48.7595V52.0764H152.497V48.7595H151.591ZM153.466 15.3085L153.466 15.3086L153.467 15.3088C153.775 15.4022 154.096 15.4991 154.44 15.6051C153.71 16.2042 153.154 16.6571 152.468 17.2124C152.351 16.511 152.234 15.8535 152.117 15.2106C152.205 15.1229 152.292 15.0499 152.38 14.9768L152.38 14.9768C152.739 15.0886 153.094 15.196 153.466 15.3085ZM150.514 15.3239C150.278 15.3818 150.037 15.4408 149.779 15.5029C150.009 15.6806 150.218 15.8428 150.416 15.9965C150.886 16.3611 151.293 16.6774 151.766 17.0372C151.812 16.6767 151.854 16.3445 151.899 15.9939C151.939 15.6765 151.981 15.3441 152.029 14.9623C151.469 15.0901 151.001 15.2047 150.514 15.3239Z" fill="#FF6F3D"/>
<path d="M32.3 1.72122C32.5 1.42626 32.9 1.42626 33.1 1.72122L33.8 3.29436C33.9 3.49101 34 3.58933 34.2 3.58933L35.9 3.78597C36.3 3.78597 36.4 4.27758 36.1 4.47422L34.8 5.65407C34.7 5.75239 34.6 5.85072 34.7 6.04736L35 7.81714C35.1 8.21043 34.7 8.40707 34.4 8.30875L32.9 7.42386C32.8 7.32553 32.6 7.32553 32.5 7.42386L31 8.30875C30.7 8.50539 30.3 8.21043 30.4 7.81714L30.7 6.04736C30.7 5.94904 30.7 5.75239 30.6 5.65407L29.3 4.47422C29 4.27758 29.2 3.78597 29.5 3.78597L31.2 3.58933C31.3 3.58933 31.5 3.49101 31.5 3.39268L32.3 1.72122Z" fill="#FF6F3D"/>
<path d="M32.3 57.866C32.5 57.571 32.9 57.571 33.1 57.866L33.8 59.4393C33.9 59.5376 34 59.636 34.1 59.636L35.8 59.8326C36.2 59.8326 36.3 60.3243 36 60.521L34.7 61.7009C34.6 61.7993 34.5 61.8976 34.6 62.0942L34.9 63.8642C35 64.2575 34.6 64.4542 34.3 64.3559L32.8 63.4709C32.7 63.3725 32.5 63.3725 32.4 63.4709L31 64.3559C30.7 64.5525 30.3 64.2575 30.4 63.8642L30.7 62.0942C30.7 61.9959 30.7 61.7993 30.6 61.7009L29.3 60.521C29 60.3243 29.2 59.8326 29.5 59.8326L31.2 59.636C31.3 59.636 31.5 59.5376 31.5 59.4393L32.3 57.866Z" fill="#FF6F3D"/>
<path d="M3.20001 29.4495C3.40001 29.1545 3.80002 29.1545 4.00002 29.4495L4.70002 31.0228C4.80002 31.1211 4.90002 31.2195 5.00002 31.2195L6.70003 31.4161C7.10003 31.4161 7.20003 31.9078 6.90003 32.1044L5.60002 33.2844C5.50002 33.3827 5.40002 33.481 5.50002 33.6777L5.80002 35.4476C6.00003 35.9393 5.60002 36.1359 5.30002 35.9393L3.80002 35.0543C3.70002 34.956 3.50001 34.956 3.40001 35.0543L1.80001 35.9393C1.50001 36.1359 1.1 35.841 1.20001 35.4476L1.50001 33.6777C1.50001 33.5794 1.50001 33.3827 1.40001 33.2844L0.1 32.1044C-0.1 32.0061 0 31.5144 0.400002 31.5144L2.10001 31.3178C2.20001 31.3178 2.40001 31.2195 2.40001 31.1211L3.20001 29.4495Z" fill="#FF6F3D"/>
<path d="M60 29.4495C60.2 29.1545 60.6 29.1545 60.8 29.4495L61.5 31.0226C61.6 31.1209 61.7 31.2193 61.8 31.2193L63.5 31.4159C63.9 31.4159 64 31.9075 63.7 32.1041L62.4 33.284C62.3 33.3823 62.2 33.4806 62.3 33.6773L62.6 35.447C62.7 35.8403 62.3 36.037 62 35.9386L60.5 35.0537C60.4 34.9554 60.2 34.9554 60.1 35.0537L58.7 35.9386C58.4 36.1353 58 35.8403 58.1 35.447L58.4 33.6773C58.4 33.5789 58.4 33.3823 58.3 33.284L57 32.2025C56.7 32.0058 56.9 31.5142 57.2 31.5142L58.9 31.3176C59 31.3176 59.2 31.2193 59.2 31.1209L60 29.4495Z" fill="#FF6F3D"/>
<path d="M56.5 43.7075C56.7 43.4126 57.1 43.4126 57.3 43.7075L58 45.2806C58.1 45.3789 58.2 45.4772 58.3 45.4772L60 45.6738C60.4 45.6738 60.5 46.1654 60.2 46.362L59 47.6401C58.9 47.7384 58.8 47.8367 58.9 48.0334L59.2 49.803C59.3 50.1963 58.9 50.3929 58.6 50.2946L57.1 49.4098C57 49.3114 56.8 49.3114 56.7 49.4098L55.2 50.2946C54.9 50.4912 54.5 50.1963 54.6 49.803L54.9 48.0334C54.9 47.935 54.9 47.7384 54.8 47.6401L53.5 46.4603C53.2 46.2637 53.4 45.7721 53.7 45.7721L55.4 45.5755C55.5 45.5755 55.7 45.4772 55.7 45.3789L56.5 43.7075Z" fill="#FF6F3D"/>
<path d="M6.70002 43.7076C6.90002 43.4126 7.30002 43.4126 7.50002 43.7076L8.20002 45.2807C8.30002 45.3791 8.40002 45.4774 8.50002 45.4774L10.2 45.674C10.6 45.674 10.7 46.1656 10.4 46.3623L9.10003 47.5422C9.00003 47.6405 8.90003 47.7388 9.00003 47.9355L9.50003 49.7053C9.60003 50.0986 9.20003 50.2953 8.90003 50.1969L7.40002 49.312C7.30002 49.2137 7.10002 49.2137 7.00002 49.312L5.50002 50.1969C5.20002 50.3936 4.80002 50.0986 4.90002 49.7053L5.20002 47.9355C5.20002 47.8372 5.20002 47.6405 5.10002 47.5422L3.80001 46.3623C3.50001 46.1656 3.70001 45.674 4.00001 45.674L5.70002 45.4774C5.80002 45.4774 6.00002 45.3791 6.00002 45.2807L6.70002 43.7076Z" fill="#FF6F3D"/>
<path d="M55.8 15.2906C56 14.9956 56.4 14.9956 56.6 15.2906L57.3 16.8638C57.4 16.9622 57.5 17.0605 57.6 17.0605L59.3 17.2571C59.7 17.2571 59.8 17.7488 59.5 17.9454L58.3 19.2237C58.2 19.322 58.1 19.4204 58.2 19.617L58.5 21.3869C58.6 21.7802 58.2 21.9769 57.9 21.8786L56.4 20.9936C56.3 20.8953 56.1 20.8953 56 20.9936L54.5 21.8786C54.2 22.0752 53.8 21.7802 53.9 21.3869L54.2 19.617C54.2 19.5187 54.2 19.322 54.1 19.2237L52.8 18.0438C52.5 17.8471 52.7 17.3555 53 17.3555L54.7 17.1588C54.8 17.1588 55 17.0605 55 16.9622L55.8 15.2906Z" fill="#FF6F3D"/>
<path d="M7.4 15.2906C7.6 14.9956 8 14.9956 8.2 15.2906L9.00001 16.8637C9.10001 16.9621 9.20001 17.0604 9.30001 17.0604L11 17.257C11.4 17.257 11.5 17.7487 11.2 17.9453L10 19.2235C9.90001 19.3218 9.80001 19.4202 9.90001 19.6168L10.2 21.3866C10.3 21.7799 9.90001 21.9766 9.60001 21.8783L8 20.895C7.9 20.7967 7.7 20.7967 7.6 20.895L6.1 21.7799C5.8 21.9766 5.39999 21.6816 5.49999 21.2883L5.8 19.5185C5.8 19.4202 5.79999 19.2235 5.69999 19.1252L4.39999 17.9453C4.09999 17.7487 4.29999 17.257 4.59999 17.257L6.3 17.0604C6.4 17.0604 6.6 16.9621 6.6 16.8637L7.4 15.2906Z" fill="#FF6F3D"/>
<path d="M46.5 5.36015C46.7 5.06517 47.1 5.06517 47.3 5.36015L48 6.93341C48.1 7.03173 48.2 7.13006 48.3 7.13006L50 7.32672C50.4 7.32672 50.5 7.81836 50.2 8.01502L48.9 9.19496C49 9.39161 48.9 9.48994 48.9 9.6866L49.2 11.4565C49.3 11.8498 48.9 12.0465 48.6 11.9481L47.1 11.0632C47 10.9649 46.8 10.9649 46.7 11.0632L45.2 11.9481C44.9 12.1448 44.5 11.8498 44.6 11.4565L44.9 9.6866C44.9 9.58827 44.9 9.39161 44.8 9.29328L43.5 8.11334C43.2 7.91669 43.4 7.42505 43.7 7.42505L45.4 7.22839C45.5 7.22839 45.7 7.13006 45.7 7.03173L46.5 5.36015Z" fill="#FF6F3D"/>
<path d="M16.7 53.6382C16.9 53.3432 17.3 53.3432 17.5 53.6382L18.2 55.2115C18.3 55.3098 18.4 55.4081 18.5 55.4081L20.2 55.6048C20.6 55.6048 20.7 56.0964 20.4 56.2931L19.2 57.5714C19.1 57.6697 19 57.768 19.1 57.9647L19.4 59.7346C19.5 60.1279 19.1 60.3246 18.8 60.2262L17.3 59.3413C17.2 59.2429 17 59.2429 16.9 59.3413L15.4 60.2262C15.1 60.4229 14.7 60.1279 14.8 59.7346L15.1 57.9647C15.1 57.8663 15.1 57.6697 15 57.5714L13.7 56.3914C13.4 56.1948 13.6 55.7031 13.9 55.7031L15.6 55.5065C15.7 55.5065 15.9 55.4081 15.9 55.3098L16.7 53.6382Z" fill="#FF6F3D"/>
<path d="M47.2 53.6382C47.4 53.3432 47.8 53.3432 48 53.6382L48.7 55.2115C48.8 55.3098 48.9 55.4081 49 55.4081L50.7 55.6048C51.1 55.6048 51.2 56.0964 50.9 56.2931L49.8 57.5714C49.7 57.6697 49.6 57.768 49.7 57.9647L50 59.7346C50.1 60.1279 49.7 60.3246 49.4 60.2262L47.9 59.3413C47.8 59.2429 47.6 59.2429 47.5 59.3413L46 60.2262C45.7 60.4229 45.3 60.1279 45.4 59.7346L45.7 57.9647C45.7 57.8663 45.7 57.6697 45.6 57.5714L44.3 56.3914C44 56.1948 44.2 55.7031 44.5 55.7031L46.2 55.5065C46.3 55.5065 46.5 55.4081 46.5 55.3098L47.2 53.6382Z" fill="#FF6F3D"/>
<path d="M17.4 5.36018C17.6 5.06516 18 5.06516 18.2 5.36018L18.9 6.93365C19 7.03199 19.1 7.13033 19.2 7.13033L21 7.32702C21.4 7.32702 21.5 7.81872 21.2 8.01541L19.9 9.1955C19.8 9.29385 19.7 9.39219 19.8 9.58887L20.1 11.359C20.2 11.7524 19.8 11.9491 19.5 11.8507L18 10.9657C17.9 10.8673 17.7 10.8673 17.6 10.9657L16.1 11.8507C15.8 12.0474 15.4 11.7524 15.5 11.359L15.8 9.58887C15.8 9.49053 15.8 9.29385 15.7 9.1955L14.4 8.01541C14.1 7.81872 14.3 7.32702 14.6 7.32702L16.3 7.13033C16.4 7.13033 16.6 7.03199 16.6 6.93365L17.4 5.36018Z" fill="#FF6F3D"/>
<path d="M19.2 33.3826V32.006H22.6V39.6757H21.5L21.2 38.2991C20.8 39.3807 20 39.9707 18.8 39.9707C17.9 39.9707 17.2 39.6757 16.7 38.9874C16.2 38.2991 16 37.1191 16 35.3492V29.5477C16 27.6795 16.3 26.4995 16.9 25.8112C17.5 25.1229 18.3 24.8279 19.2 24.8279C20.2 24.8279 20.9 25.0245 21.4 25.5162C21.9 26.0078 22.2 26.8928 22.4 28.1711L20.8 28.5644C20.7 27.6795 20.5 27.0895 20.3 26.6962C20.1 26.3028 19.7 26.2045 19.2 26.2045C18.7 26.2045 18.4 26.4012 18.1 26.8928C17.8 27.2861 17.7 28.1711 17.7 29.2527V35.7425C17.7 36.9225 17.8 37.7091 18.1 38.1024C18.4 38.4958 18.8 38.7907 19.3 38.7907C20.4 38.7907 21 37.8074 21 35.9392V33.3826H19.2Z" fill="#FF6F3D"/>
<path d="M25.2 39.7742V25.2217H28.2C29.3 25.2217 30.2 25.5167 30.8 26.205C31.4 26.8932 31.7 28.0732 31.7 29.8431V35.0544C31.7 36.8243 31.4 38.0043 30.8 38.6926C30.2 39.3809 29.4 39.6758 28.2 39.6758H25.2V39.7742ZM29.9 35.5461V29.5481C29.9 27.5815 29.3 26.5983 28.2 26.5983H27V38.5942H28.2C29.3 38.4959 29.9 37.5126 29.9 35.5461Z" fill="#FF6F3D"/>
<path d="M34.1 39.774V25.2217H36.8C37.9 25.2217 38.7 25.5167 39.3 26.2049C39.9 26.8932 40.2 28.0731 40.2 29.843V30.0397C40.2 31.8095 39.9 32.9895 39.3 33.6778C38.7 34.366 37.9 34.661 36.8 34.661H35.8V39.8723H34.1V39.774ZM38.5 30.2363V29.548C38.5 27.4832 37.9 26.4999 36.8 26.4999H35.8V33.2844H36.8C37.9 33.2844 38.5 32.3012 38.5 30.2363Z" fill="#FF6F3D"/>
<path d="M42 39.774V25.2217H44.7C45.8 25.2217 46.6 25.5167 47.2 26.2049C47.8 26.8932 48.1 28.0731 48.1 29.7447V29.843C48.1 31.9079 47.6 33.2844 46.5 33.8744L48.3 39.8723H46.5L44.8 34.2677H43.7V39.8723H42V39.774ZM46.4 30.0397V29.4497C46.4 28.3681 46.2 27.6798 45.9 27.1882C45.6 26.7949 45.2 26.5982 44.7 26.5982H43.7V32.9895H44.7C45.9 32.8911 46.4 31.9079 46.4 30.0397Z" fill="#FF6F3D"/>
</svg>
