<svg width="448" height="254" viewBox="0 0 448 254" fill="none" xmlns="http://www.w3.org/2000/svg">
<path d="M307.495 16.4962V188.5H6.5V16.4962C6.5 12.5941 9.59981 9.5 13.5052 9.5H300.495C304.315 9.5 307.358 12.4541 307.495 16.23V16.4962Z" fill="#AAAAAA" stroke="#333333"/>
<path d="M12.5 182.5V15.5H301.5V182.5H12.5Z" fill="white" stroke="#333333"/>
<path d="M301 16H13V67H301V16Z" fill="#1D2D44"/>
<path fill-rule="evenodd" clip-rule="evenodd" d="M27.4305 49.847C25.9226 49.847 24.7001 51.0678 24.7001 52.5737C24.7001 54.0797 25.9226 55.3004 27.4305 55.3004C28.9384 55.3004 30.1609 54.0797 30.1609 52.5737C30.1609 51.0678 28.9384 49.847 27.4305 49.847ZM24 52.5737C24 50.6817 25.5359 49.1478 27.4305 49.1478C29.3251 49.1478 30.861 50.6817 30.861 52.5737C30.861 54.4658 29.3251 55.9996 27.4305 55.9996C25.5359 55.9996 24 54.4658 24 52.5737Z" fill="white"/>
<path fill-rule="evenodd" clip-rule="evenodd" d="M64.8894 49.8467C63.3813 49.8467 62.1588 51.0677 62.1588 52.5737C62.1588 54.0798 63.3813 55.3007 64.8894 55.3007C66.3975 55.3007 67.6201 54.0798 67.6201 52.5737C67.6201 51.0677 66.3975 49.8467 64.8894 49.8467ZM61.4586 52.5737C61.4586 50.6815 62.9946 49.1475 64.8894 49.1475C66.7842 49.1475 68.3202 50.6815 68.3202 52.5737C68.3202 54.466 66.7842 55.9999 64.8894 55.9999C62.9946 55.9999 61.4586 54.466 61.4586 52.5737Z" fill="white"/>
<path fill-rule="evenodd" clip-rule="evenodd" d="M32.4016 53.6741V49.4686H33.1017V53.6741C33.1017 54.5719 33.8305 55.2995 34.7292 55.2995C35.6286 55.2995 36.357 54.5719 36.357 53.6741V49.4687C36.357 49.4687 36.357 49.4686 36.7071 49.4686C37.0572 49.4686 37.0572 49.4687 37.0572 49.4687V53.6741C37.0572 54.9581 36.0152 55.9987 34.7292 55.9987C33.4439 55.9987 32.4016 54.9581 32.4016 53.6741Z" fill="white"/>
<path fill-rule="evenodd" clip-rule="evenodd" d="M36.357 53.6741V49.4687H37.0572V53.6741C37.0572 54.5718 37.7859 55.2995 38.685 55.2995C39.5841 55.2995 40.3128 54.5719 40.3128 53.6741V49.4687C40.3128 49.4687 40.3128 49.4686 40.6629 49.4686C41.0129 49.4686 41.0129 49.4687 41.0129 49.4687V53.6741C41.0129 54.9581 39.9706 55.9987 38.685 55.9987C37.3994 55.9987 36.357 54.9582 36.357 53.6741Z" fill="white"/>
<path fill-rule="evenodd" clip-rule="evenodd" d="M58.2036 53.6741V43.8745H58.9037V53.6741C58.9037 54.5719 59.6322 55.2995 60.5312 55.2995V55.9987C59.2455 55.9987 58.2036 54.9581 58.2036 53.6741Z" fill="white"/>
<path fill-rule="evenodd" clip-rule="evenodd" d="M46.0547 49.8185C44.5467 49.8185 43.3242 51.0394 43.3242 52.5454V55.6499H42.6241V52.5454C42.6241 50.6532 44.16 49.1193 46.0547 49.1193C47.9496 49.1193 49.4856 50.6532 49.4856 52.5454V55.6498C49.4856 55.6498 49.4856 55.6499 49.1356 55.6499C48.7855 55.6499 48.7855 55.6499 48.7855 55.6499V52.5454C48.7855 51.0394 47.563 49.8185 46.0547 49.8185Z" fill="white"/>
<path fill-rule="evenodd" clip-rule="evenodd" d="M69.6498 52.5738V49.4686H70.35V52.5738C70.35 54.0794 71.5725 55.3003 73.0805 55.3003C74.5885 55.3003 75.8113 54.0794 75.8113 52.5738V49.4688C75.8113 49.4688 75.8113 49.4686 76.1613 49.4686C76.5114 49.4686 76.5114 49.4687 76.5114 49.4687V52.5738C76.5114 54.4657 74.9751 55.9995 73.0805 55.9995C71.1858 55.9995 69.6498 54.4656 69.6498 52.5738Z" fill="white"/>
<path fill-rule="evenodd" clip-rule="evenodd" d="M50.9783 50.7326C50.9783 47.8236 53.3399 45.4654 56.2527 45.4654V46.1646C53.7266 46.1646 51.6784 48.2098 51.6784 50.7326C51.6784 53.2554 53.7265 55.3003 56.2527 55.3003V55.9995C53.3399 55.9995 50.9783 53.6417 50.9783 50.7326Z" fill="white"/>
<path fill-rule="evenodd" clip-rule="evenodd" d="M84.111 43.8745H84.8111V49.4921H84.111V43.8745Z" fill="white"/>
<path fill-rule="evenodd" clip-rule="evenodd" d="M84.8109 49.49L84.4609 49.4921C84.8109 49.49 84.8109 49.49 84.8109 49.49V49.4901L84.8117 49.6265C84.8122 49.7141 84.8129 49.8403 84.8136 49.9951C84.8151 50.3047 84.8169 50.7285 84.8181 51.1854C84.8205 52.0975 84.8206 53.1465 84.8109 53.6789C84.7991 54.326 84.4603 54.9043 84.0227 55.3121C83.5877 55.7174 83.0084 55.9978 82.4502 55.9978H81.3514C79.4567 55.9978 77.9207 54.4639 77.9207 52.5721C77.9207 50.68 79.4566 49.1461 81.3511 49.146C81.3512 49.146 81.3513 49.146 81.3513 49.146L84.8088 49.1421L84.8109 49.49ZM84.1127 49.8421L81.3513 49.8452C79.8433 49.8452 78.6208 51.0661 78.6208 52.5721C78.6208 54.0777 79.8433 55.2986 81.3513 55.2986H82.4502C82.787 55.2986 83.2033 55.1193 83.5451 54.8008C83.8843 54.4848 84.1034 54.0752 84.1109 53.6662C84.1204 53.1425 84.1204 52.1013 84.118 51.1872C84.1168 50.731 84.115 50.3077 84.1135 49.9985C84.1132 49.9425 84.113 49.8902 84.1127 49.8421Z" fill="white"/>
<path d="M62.3495 32.2044C59.911 32.2044 57.7322 33.3254 56.2928 35.0839C55.7605 34.263 55.4511 33.2819 55.4511 32.228C55.4511 29.3407 57.7737 27 60.6388 27C63.5039 27 65.8266 29.3407 65.8266 32.228C65.8266 32.4882 65.8077 32.7439 65.7713 32.9939C64.7371 32.4881 63.5761 32.2044 62.3495 32.2044Z" fill="white"/>
<path d="M66.4181 33.3491C66.8179 33.5939 67.1944 33.8737 67.5432 34.1842C68.1245 34.7019 68.6292 35.305 69.0377 35.9741C69.7763 35.643 70.5897 35.4508 71.4454 35.4303C71.041 32.9807 68.9465 31.1069 66.4104 31.0672C66.4843 31.4426 66.5231 31.8307 66.5231 32.228C66.5231 32.6113 66.487 32.9861 66.4181 33.3491Z" fill="white"/>
<path d="M55.8518 35.6772C55.2896 34.8861 54.9156 33.9499 54.796 32.9351C54.6821 32.937 54.5689 32.9423 54.4567 32.9509C53.919 32.9923 53.4025 33.1102 52.9179 33.2936C52.5665 33.4267 52.2318 33.5943 51.918 33.7923C51.0987 34.3092 50.4215 35.0335 49.9586 35.8922C49.793 36.1994 49.6549 36.5237 49.5475 36.8619C49.3749 37.4055 49.2817 37.9849 49.2817 38.5863C49.2817 40.2879 50.0278 41.8138 51.2084 42.85C51.7185 41.7156 52.7812 40.8872 54.0504 40.7139C54.2048 40.6928 54.3622 40.6814 54.5221 40.6803C54.5089 40.4928 54.5022 40.3036 54.5022 40.1127C54.5022 38.4688 54.9999 36.942 55.8518 35.6772Z" fill="white"/>
<path d="M54.6029 41.3827C54.5843 41.3823 54.5657 41.3822 54.547 41.3822C54.4242 41.3822 54.3032 41.3897 54.1843 41.4043C53.0833 41.5395 52.1684 42.2826 51.7802 43.2904C51.6926 43.5177 51.6319 43.7584 51.6018 44.0086C51.5874 44.1278 51.58 44.2491 51.58 44.3722C51.58 45.0637 51.8129 45.7003 52.204 46.2068C52.7469 46.9099 53.5945 47.3622 54.547 47.3622C55.608 47.3622 56.5389 46.801 57.0634 45.9571C55.7835 44.7809 54.8914 43.1837 54.6029 41.3827Z" fill="white"/>
<path d="M55.3922 29.5406C55.0379 29.3799 54.6448 29.2905 54.2311 29.2905C52.6669 29.2905 51.3988 30.5684 51.3988 32.1448C51.3988 32.5071 51.4658 32.8536 51.588 33.1725C52.5124 32.5986 53.595 32.2585 54.7546 32.2338L54.7546 32.228C54.7546 31.2606 54.9845 30.3473 55.3922 29.5406Z" fill="white"/>
<path d="M75.9742 46.3562C77.1631 45.2006 77.9026 43.5785 77.9026 41.7824C77.9026 41.5498 77.8902 41.3202 77.8661 41.0941C77.8784 41.0939 77.8907 41.0938 77.903 41.0938C79.5417 41.0938 80.8702 42.4326 80.8702 44.084C80.8702 45.7354 79.5417 47.0742 77.903 47.0742C77.1666 47.0742 76.4929 46.8038 75.9742 46.3562Z" fill="white"/>
<path d="M67.8848 45.7178C67.8328 45.77 67.78 45.8214 67.7266 45.8721C68.7331 46.8401 70.0965 47.4344 71.5977 47.4344C74.6951 47.4344 77.2061 44.9039 77.2061 41.7824C77.2061 38.6609 74.6951 36.1304 71.5977 36.1304C70.809 36.1304 70.0584 36.2945 69.3775 36.5906C69.9019 37.6512 70.1969 38.8472 70.1969 40.1127C70.1969 42.2964 69.3185 44.2732 67.8983 45.7042C67.8938 45.7087 67.8893 45.7133 67.8848 45.7178Z" fill="white"/>
<path d="M48.8259 36.8412C46.0588 36.9531 43.8496 39.2491 43.8496 42.0651C43.8496 44.9526 46.1723 47.2933 49.0375 47.2933C49.9794 47.2933 50.8626 47.0403 51.624 46.5982C51.1592 45.9793 50.8835 45.2082 50.8835 44.3722C50.8835 44.0947 50.9139 43.8243 50.9715 43.5643C49.5175 42.4003 48.5852 40.603 48.5852 38.5863C48.5852 37.9811 48.6691 37.3957 48.8259 36.8412Z" fill="white"/>
<path d="M69.5004 40.1127C69.5004 44.0923 66.2987 47.3183 62.3495 47.3183C58.4003 47.3183 55.1987 44.0923 55.1987 40.1127C55.1987 36.1327 58.4004 32.9064 62.3495 32.9064C66.2985 32.9064 69.5004 36.1327 69.5004 40.1127Z" fill="white"/>
<path d="M194 248.5H194.561L194.497 247.943L190.831 215.943L190.78 215.5H190.334H122.4H121.964L121.905 215.932L117.505 247.932L117.427 248.5H118H194Z" fill="#CCCCCC" stroke="#333333"/>
<path d="M6.5 208.442V188.5H307.5V208.442C307.5 212.382 304.396 215.5 300.495 215.5H13.5054C9.59909 215.5 6.5 212.383 6.5 208.442Z" fill="#E2E2E2" stroke="#333333"/>
<path d="M107.333 251.5L117.106 248.5H194.894L204.667 251.5H107.333Z" fill="#E2E2E2" stroke="#333333"/>
<path d="M207.281 252.5L206.909 253.5H104.986L104.677 252.5H207.281Z" fill="#AAAAAA" stroke="#333333"/>
<path d="M162.5 201.497C162.5 204.26 160.259 206.5 157.5 206.5C154.741 206.5 152.5 204.26 152.5 201.497C152.5 198.74 154.74 196.5 157.5 196.5C160.26 196.5 162.5 198.735 162.5 201.497Z" fill="#AAAAAA" stroke="#333333"/>
<path d="M372.5 253C414.197 253 448 250.761 448 248C448 245.239 414.197 243 372.5 243C330.803 243 297 245.239 297 248C297 250.761 330.803 253 372.5 253Z" fill="#EFEFEF"/>
<path fill-rule="evenodd" clip-rule="evenodd" d="M382.649 21.639C382.687 19.8244 382.62 18.3075 382.471 17.045C382.284 15.5041 381.962 14.3184 381.539 13.4207C381.227 12.7582 380.756 12.1198 380.185 11.6061C379.642 11.1117 378.998 10.7181 378.306 10.5068C377.442 10.2428 376.601 10.2956 375.785 10.5452C375.021 10.7757 374.291 11.1789 373.575 11.6493C373.22 11.8798 372.912 12.1006 372.619 12.3118C371.404 13.1807 370.433 13.8767 368.69 13.4063C368.57 13.3727 368.454 13.3151 368.358 13.2335C368.219 13.1135 368.109 12.9502 368.051 12.7582C367.989 12.5518 367.984 12.3118 368.056 12.043C368.128 11.7645 368.291 11.4621 368.555 11.1501L368.589 11.1021C368.685 10.9677 368.805 10.8333 368.944 10.6989C370.116 9.55637 372.456 8.6731 375.117 8.49068C377.797 8.30827 380.775 8.86031 383.177 10.5981C383.638 10.9293 384.075 11.3037 384.488 11.7309C385.464 12.7342 386.213 14.1311 386.602 16.0321C386.938 17.6786 387.005 19.6996 386.717 22.167C386.583 21.9222 386.419 21.7062 386.227 21.5238C385.857 21.1781 385.387 20.9669 384.83 20.9381C384.21 20.9045 383.475 21.1109 382.649 21.639Z" fill="#666666" stroke="#666666" stroke-width="0.216" stroke-miterlimit="22.9256"/>
<path d="M371.14 43.8586L370.39 43.8543L370.39 43.8004L370.398 43.747L371.099 39.0864L371.24 38.1536L372.117 38.5006C372.22 38.5416 372.331 38.5797 372.463 38.6245L372.469 38.6266C372.469 38.6266 372.471 38.627 372.473 38.6277C372.504 38.636 372.702 38.6896 373.048 38.7262C373.424 38.766 373.957 38.7835 374.608 38.7048C375.905 38.5482 377.692 38.0078 379.664 36.4646L379.665 36.4641C380.274 35.9881 380.909 35.4113 381.557 34.7135L382.759 33.4203L382.856 35.1832L383.327 43.803L383.353 44.2755L382.937 44.5022C382.717 44.6226 382.488 44.7426 382.249 44.8539C382.248 44.8543 382.248 44.8546 382.247 44.8549L381.93 44.1751C379.944 45.115 377.686 45.6166 375.673 45.5728L371.14 43.8586ZM371.14 43.8586C370.39 43.8543 370.39 43.8547 370.39 43.8551L370.39 43.856L370.39 43.8576L370.39 43.8609L370.39 43.8676L370.39 43.8818C370.39 43.8916 370.391 43.9021 370.392 43.9133C370.393 43.9353 370.396 43.9613 370.401 43.9904C370.411 44.0452 370.432 44.1282 370.481 44.2192C370.511 44.2742 370.552 44.3334 370.608 44.3891C371.76 45.7268 373.672 46.282 375.657 46.3226L371.14 43.8586Z" fill="#FEFEFE" stroke="#333333" stroke-width="1.5"/>
<path fill-rule="evenodd" clip-rule="evenodd" d="M366.947 12.384C366.082 13.3537 365.376 14.597 364.843 16.0227C363.685 19.1334 363.344 23.1369 363.978 26.9628C364.617 30.8224 366.25 34.5283 369.022 37.0053C370.098 37.9653 371.347 38.743 372.773 39.2759C372.984 39.3575 376.131 40.2407 379.868 37.0293C381.712 35.4403 383.744 32.8337 385.68 28.595L384.354 27.9901C382.519 32.0129 380.627 34.4563 378.922 35.9204C375.795 38.6086 373.436 37.9653 373.282 37.9077C372.033 37.4469 370.943 36.7652 370.002 35.9204C367.494 33.6786 366.015 30.2847 365.424 26.7276C364.828 23.1417 365.14 19.407 366.212 16.5316C366.682 15.2739 367.292 14.1842 368.037 13.3537L366.947 12.384Z" fill="#333333"/>
<path fill-rule="evenodd" clip-rule="evenodd" d="M382.616 22.6759C382.707 20.3909 382.649 18.538 382.467 17.045C382.279 15.5041 381.958 14.3184 381.535 13.4207C381.223 12.7583 380.752 12.1198 380.18 11.6062C379.637 11.1118 378.994 10.7181 378.302 10.5069C377.437 10.2429 376.597 10.2957 375.78 10.5453C375.016 10.7757 374.286 11.179 373.571 11.6494C373.215 11.8798 372.908 12.1006 372.615 12.3119C371.399 13.1807 370.429 13.8768 368.686 13.4063C368.565 13.3727 368.45 13.3151 368.354 13.2335C368.215 13.1135 368.104 12.9503 368.047 12.7583C367.984 12.5519 367.979 12.3119 368.051 12.043C368.124 11.7646 368.287 11.4622 368.551 11.1502L368.585 11.1022C368.681 10.9677 368.801 10.8333 368.94 10.6989C370.112 9.55643 372.451 8.67316 375.113 8.49074C377.793 8.30833 380.771 8.86037 383.173 10.5981C383.634 10.9293 384.071 11.3038 384.484 11.731C385.459 12.7343 386.209 14.1312 386.598 16.0322C386.958 17.8035 387.006 20.0021 386.646 22.7239L386.593 23.1367C386.41 24.5625 386.295 25.4505 385.416 26.6698C385.291 26.8427 385.147 27.0299 384.979 27.2315C384.835 27.4091 384.667 27.6011 384.475 27.8027L384.643 28.4076L385.541 28.7964C385.728 28.5948 385.916 28.3836 386.098 28.158C386.266 27.9563 386.43 27.7451 386.593 27.5195C387.683 26.0026 387.818 24.9753 388.034 23.324L388.087 22.9111C388.471 20.0213 388.413 17.6595 388.019 15.7393C387.573 13.5408 386.684 11.9038 385.522 10.7133C385.051 10.2285 384.547 9.80125 384.018 9.41722C381.309 7.45386 377.985 6.83461 375.002 7.03622C372 7.23784 369.31 8.28913 367.907 9.65244C367.725 9.83005 367.562 10.0173 367.417 10.2093C367.004 10.6941 366.75 11.1886 366.625 11.6638C366.481 12.2062 366.5 12.7247 366.639 13.1807C366.783 13.6512 367.052 14.0496 367.398 14.3424C367.662 14.5632 367.97 14.7265 368.296 14.8177C370.708 15.4657 371.923 14.592 373.455 13.4976C373.748 13.2911 374.051 13.0703 374.358 12.8687C374.968 12.4655 375.583 12.1246 376.193 11.9374C376.751 11.7694 377.308 11.731 377.865 11.899C378.336 12.043 378.787 12.3215 379.181 12.6815C379.609 13.0703 379.964 13.5504 380.199 14.04C380.56 14.7985 380.833 15.8353 381.002 17.2131C381.16 18.5332 381.223 20.1461 381.16 22.1095L381.53 22.6279L382.616 22.6759Z" fill="#333333"/>
<path fill-rule="evenodd" clip-rule="evenodd" d="M382.293 23.1271C383.316 22.2247 384.152 21.8742 384.786 21.903C385.103 21.9174 385.362 22.0374 385.569 22.2247C385.79 22.4311 385.948 22.7239 386.044 23.0743C386.299 23.9864 386.107 25.2393 385.386 26.3674C385.204 26.6554 384.896 26.977 384.522 27.2363C384.339 27.3611 384.142 27.4667 383.94 27.5435C383.177 27.8267 383.556 28.6668 384.017 28.542C384.397 28.4364 384.757 28.2588 385.074 28.0427C385.559 27.7115 385.963 27.2795 386.208 26.8954C387.082 25.5273 387.303 23.9768 386.986 22.8199C386.842 22.2967 386.587 21.8454 386.232 21.519C385.862 21.1734 385.391 20.9621 384.834 20.9333C383.955 20.8901 382.85 21.3222 381.582 22.4551C381.13 22.8631 381.678 23.6696 382.293 23.1271Z" fill="#333333"/>
<path fill-rule="evenodd" clip-rule="evenodd" d="M384.046 23.6072C384.19 23.5784 384.315 23.5784 384.421 23.6024C384.541 23.6312 384.637 23.6984 384.695 23.7896C384.762 23.9 384.8 24.0488 384.8 24.2216C384.8 24.5817 384.651 25.0425 384.344 25.5177C384.238 25.681 384.065 25.8682 383.849 26.0122C383.768 26.0698 383.676 26.1226 383.58 26.161C383.066 26.3818 383.234 26.7994 383.648 26.6554C383.816 26.5978 383.979 26.5114 384.123 26.4154C384.392 26.233 384.618 25.993 384.752 25.7818C385.108 25.2249 385.285 24.6729 385.285 24.2216C385.285 23.9528 385.223 23.7128 385.103 23.5256C384.973 23.324 384.781 23.1848 384.527 23.1271C384.378 23.0935 384.205 23.0887 384.008 23.1175C383.369 23.2232 383.441 23.7272 384.046 23.6072Z" fill="#333333"/>
<path fill-rule="evenodd" clip-rule="evenodd" d="M382.737 45.3996C382.396 47.2333 381.748 49.8015 380.6 50.4304C379.822 50.8624 378.63 50.176 376.81 47.1613C378.635 47.0701 380.585 46.5325 382.32 45.6252C382.459 45.5532 382.598 45.4764 382.737 45.3996ZM374.192 46.9549C373.318 48.0014 372.535 48.7119 371.853 49.1775C370.839 49.864 370.143 49.9696 369.754 49.8351C369.422 49.7151 369.254 49.1535 369.192 48.4478C369.076 47.2045 369.312 45.654 369.499 44.7899C369.859 44.7419 370.234 44.6939 370.613 44.6555L370.806 44.9243C371.613 45.9756 372.804 46.6381 374.192 46.9549Z" fill="#CCCCCC"/>
<path fill-rule="evenodd" clip-rule="evenodd" d="M373.277 26.9868C370.89 27.9325 370.049 26.8236 370.083 25.7915C370.121 24.3994 371.428 24.6778 371.164 22.4216C372.297 24.0106 369.742 25.7723 371.269 26.6028C371.596 26.7804 372.115 26.9628 373.277 26.9868Z" fill="#333333"/>
<path fill-rule="evenodd" clip-rule="evenodd" d="M372 30.3421C374.791 32.5935 375.804 28.5996 376.294 27.9851C376.155 32.9439 372.351 32.5983 372 30.3421Z" fill="#333333"/>
<path fill-rule="evenodd" clip-rule="evenodd" d="M374.181 21.6007C375.665 18.0916 379.604 20.0934 379.618 21.9703C379.431 21.7639 378.605 21.2695 378.134 21.2119C377.971 23.3 375.473 23.7369 374.8 21.5095C374.536 21.4951 374.378 21.4807 374.181 21.6007Z" fill="#333333"/>
<path fill-rule="evenodd" clip-rule="evenodd" d="M365.688 21.4518C367.037 17.8899 371.053 19.7429 371.139 21.6198C370.943 21.423 370.102 20.9574 369.626 20.919C369.545 23.012 367.061 23.54 366.307 21.3414C366.038 21.3318 365.88 21.327 365.688 21.4518Z" fill="#333333"/>
<mask id="path-23-outside-1_16_16317" maskUnits="userSpaceOnUse" x="325.605" y="41.7385" width="87" height="69" fill="black">
<rect fill="white" x="325.605" y="41.7385" width="87" height="69"/>
<path fill-rule="evenodd" clip-rule="evenodd" d="M399.975 53.9025C403.84 58.334 413.355 80.4182 410.019 92.7617C407.622 97.4669 386.892 86.3452 383.735 84.9111C384.753 84.1551 385.252 83.4028 385.497 82.2296C389.546 83.469 397.213 84.9609 401.152 85.1435C402.783 85.2182 401.805 83.7484 400.695 83.6505C399.561 82.2451 395.074 74.2774 393.97 71.2751C394.018 68.9853 394.134 66.6667 394.311 64.3145C394.398 63.1864 392.947 62.9512 392.856 64.1801C392.616 67.3388 392.491 70.4686 392.486 73.5841C392.481 76.5939 392.592 79.5606 392.808 82.4936C392.808 82.4936 384.094 80.2985 382.336 79.7752C378.575 78.6557 376.83 74.8018 376.83 74.8018C376.83 74.8018 375.407 49.2761 375.407 48.1064C375.407 48.1064 377.555 51.433 381.286 51.1917C383.767 50.504 383.807 46.6923 384.119 44.7385C389.777 46.9247 395.917 49.2499 399.975 53.9025ZM367.806 44.7385C365.596 45.1322 363.79 45.6746 362.282 46.2891C360.135 47.1675 358.588 48.2044 357.339 49.2029C356.465 49.899 353.905 52.928 351.171 56.1587C347.838 60.0998 344.25 64.3433 342.905 65.2794L342.391 65.6394L341.958 65.1834C337.976 60.9831 335.541 54.805 333.456 49.5101C332.942 48.2092 332.452 46.9563 331.986 45.8618C331.261 45.9098 330.286 46.0586 329.349 46.2746C328.696 46.4283 328.071 46.6107 327.605 46.8123C330.713 59.2549 333.653 65.9515 335.925 69.5566C338.101 73.0128 339.484 73.4641 339.816 73.5265C342.784 74.0977 346.536 72.7488 350.134 70.5454C354.265 68.0108 358.146 64.3721 360.437 61.1751C361.302 59.9702 362.508 60.7814 361.691 61.9287C360.855 63.1 359.818 64.3337 358.636 65.553L358.588 66.4651L358.54 67.5836C358.391 72.0144 358.425 80.9767 358.891 89.4446C359.208 95.2051 359.717 100.73 360.495 104.412C365.596 107.292 371.36 108.565 377.062 108.809C384.238 109.117 391.333 107.806 396.939 106.04C396.276 103.62 395.69 101.23 395.176 98.8534C394.638 96.362 394.182 93.8706 393.807 91.384C390.593 90.1071 386.413 87.5831 383.103 85.9698C379.793 84.3564 369.518 80.6676 368.135 74.8018L372.915 47.4962L367.806 44.7385Z"/>
</mask>
<path fill-rule="evenodd" clip-rule="evenodd" d="M399.975 53.9025C403.84 58.334 413.355 80.4182 410.019 92.7617C407.622 97.4669 386.892 86.3452 383.735 84.9111C384.753 84.1551 385.252 83.4028 385.497 82.2296C389.546 83.469 397.213 84.9609 401.152 85.1435C402.783 85.2182 401.805 83.7484 400.695 83.6505C399.561 82.2451 395.074 74.2774 393.97 71.2751C394.018 68.9853 394.134 66.6667 394.311 64.3145C394.398 63.1864 392.947 62.9512 392.856 64.1801C392.616 67.3388 392.491 70.4686 392.486 73.5841C392.481 76.5939 392.592 79.5606 392.808 82.4936C392.808 82.4936 384.094 80.2985 382.336 79.7752C378.575 78.6557 376.83 74.8018 376.83 74.8018C376.83 74.8018 375.407 49.2761 375.407 48.1064C375.407 48.1064 377.555 51.433 381.286 51.1917C383.767 50.504 383.807 46.6923 384.119 44.7385C389.777 46.9247 395.917 49.2499 399.975 53.9025ZM367.806 44.7385C365.596 45.1322 363.79 45.6746 362.282 46.2891C360.135 47.1675 358.588 48.2044 357.339 49.2029C356.465 49.899 353.905 52.928 351.171 56.1587C347.838 60.0998 344.25 64.3433 342.905 65.2794L342.391 65.6394L341.958 65.1834C337.976 60.9831 335.541 54.805 333.456 49.5101C332.942 48.2092 332.452 46.9563 331.986 45.8618C331.261 45.9098 330.286 46.0586 329.349 46.2746C328.696 46.4283 328.071 46.6107 327.605 46.8123C330.713 59.2549 333.653 65.9515 335.925 69.5566C338.101 73.0128 339.484 73.4641 339.816 73.5265C342.784 74.0977 346.536 72.7488 350.134 70.5454C354.265 68.0108 358.146 64.3721 360.437 61.1751C361.302 59.9702 362.508 60.7814 361.691 61.9287C360.855 63.1 359.818 64.3337 358.636 65.553L358.588 66.4651L358.54 67.5836C358.391 72.0144 358.425 80.9767 358.891 89.4446C359.208 95.2051 359.717 100.73 360.495 104.412C365.596 107.292 371.36 108.565 377.062 108.809C384.238 109.117 391.333 107.806 396.939 106.04C396.276 103.62 395.69 101.23 395.176 98.8534C394.638 96.362 394.182 93.8706 393.807 91.384C390.593 90.1071 386.413 87.5831 383.103 85.9698C379.793 84.3564 369.518 80.6676 368.135 74.8018L372.915 47.4962L367.806 44.7385Z" fill="#EFEFEF"/>
<path d="M399.975 53.9025L401.105 52.9165L399.975 53.9025ZM410.019 92.7617L411.355 93.4425L411.426 93.3036L411.467 93.1531L410.019 92.7617ZM383.735 84.9111L382.841 83.7073L380.799 85.2248L383.115 86.2768L383.735 84.9111ZM385.497 82.2296L385.936 80.7953L384.364 80.3142L384.029 81.9233L385.497 82.2296ZM401.152 85.1435L401.082 86.6418L401.083 86.6419L401.152 85.1435ZM400.695 83.6505L399.528 84.5927L399.928 85.0887L400.563 85.1447L400.695 83.6505ZM393.97 71.2751L392.471 71.2436L392.465 71.5267L392.562 71.7925L393.97 71.2751ZM394.311 64.3145L392.816 64.1999L392.816 64.2015L394.311 64.3145ZM392.856 64.1801L394.352 64.2938L394.352 64.2912L392.856 64.1801ZM392.486 73.5841L393.986 73.5865V73.5864L392.486 73.5841ZM392.808 82.4936L392.441 83.9482L394.457 84.4559L394.304 82.3834L392.808 82.4936ZM382.336 79.7752L382.764 78.3375L382.336 79.7752ZM376.83 74.8018L375.333 74.8853L375.348 75.1651L375.464 75.4203L376.83 74.8018ZM375.407 48.1064L376.667 47.2926C376.306 46.734 375.62 46.4796 374.982 46.6677C374.345 46.8557 373.907 47.4414 373.907 48.1064H375.407ZM381.286 51.1917L381.383 52.6885L381.537 52.6785L381.686 52.6372L381.286 51.1917ZM384.119 44.7385L384.66 43.3393L382.93 42.6712L382.638 44.5018L384.119 44.7385ZM367.806 44.7385L368.518 43.4185L368.058 43.17L367.543 43.2618L367.806 44.7385ZM362.282 46.2891L361.716 44.8999L361.714 44.9008L362.282 46.2891ZM357.339 49.2029L358.273 50.3764L358.276 50.3745L357.339 49.2029ZM351.171 56.1587L350.026 55.1898L350.026 55.19L351.171 56.1587ZM342.905 65.2794L342.048 64.0482L342.044 64.0508L342.905 65.2794ZM342.391 65.6394L341.302 66.6714L342.192 67.6101L343.251 66.868L342.391 65.6394ZM341.958 65.1834L343.047 64.1515L343.047 64.1514L341.958 65.1834ZM333.456 49.5101L334.852 48.9606L334.851 48.9589L333.456 49.5101ZM331.986 45.8618L333.366 45.2743L332.949 44.2948L331.887 44.3651L331.986 45.8618ZM329.349 46.2746L329.012 44.813L329.006 44.8145L329.349 46.2746ZM327.605 46.8123L327.01 45.4356L325.842 45.9411L326.15 47.1758L327.605 46.8123ZM335.925 69.5566L337.194 68.7574L337.194 68.7568L335.925 69.5566ZM339.816 73.5265L340.099 72.0535L340.093 72.0524L339.816 73.5265ZM350.134 70.5454L350.917 71.8246L350.918 71.824L350.134 70.5454ZM360.437 61.1751L359.219 60.3005L359.218 60.3013L360.437 61.1751ZM361.691 61.9287L362.912 62.8L362.913 62.7985L361.691 61.9287ZM358.636 65.553L357.559 64.5091L357.168 64.9128L357.138 65.4742L358.636 65.553ZM358.588 66.4651L357.09 66.3862L357.09 66.3935L357.089 66.4007L358.588 66.4651ZM358.54 67.5836L357.041 67.5192L357.041 67.5332L358.54 67.5836ZM358.891 89.4446L357.393 89.527V89.527L358.891 89.4446ZM360.495 104.412L359.027 104.722L359.167 105.385L359.757 105.718L360.495 104.412ZM377.062 108.809L376.998 110.308L376.998 110.308L377.062 108.809ZM396.939 106.04L397.39 107.47L398.767 107.036L398.386 105.643L396.939 106.04ZM395.176 98.8534L393.71 99.17L393.71 99.1705L395.176 98.8534ZM393.807 91.384L395.29 91.1605L395.162 90.3083L394.361 89.99L393.807 91.384ZM372.915 47.4962L374.393 47.7549L374.579 46.6898L373.628 46.1762L372.915 47.4962ZM368.135 74.8018L366.658 74.5432L366.605 74.8463L366.675 75.1459L368.135 74.8018ZM395.47 71.3066C395.517 69.0458 395.631 66.7545 395.807 64.4275L392.816 64.2015C392.636 66.5789 392.519 68.9248 392.471 71.2436L395.47 71.3066ZM395.807 64.4292C395.906 63.1355 395.061 62.0308 393.84 61.8754C393.251 61.8006 392.621 61.9666 392.129 62.4106C391.636 62.8553 391.405 63.464 391.36 64.069L394.352 64.2912C394.352 64.2818 394.337 64.459 394.139 64.6375C393.942 64.8152 393.686 64.88 393.461 64.8515C393.244 64.8239 393.064 64.7131 392.948 64.5642C392.823 64.4035 392.812 64.2523 392.816 64.1999L395.807 64.4292ZM391.36 64.0664C391.117 67.2606 390.991 70.4277 390.986 73.5818L393.986 73.5864C393.991 70.5096 394.114 67.4169 394.352 64.2938L391.36 64.0664ZM390.986 73.5817C390.981 76.6299 391.093 79.6342 391.312 82.6039L394.304 82.3834C394.09 79.487 393.981 76.558 393.986 73.5865L390.986 73.5817ZM392.808 82.4936C393.174 81.0391 393.174 81.0391 393.174 81.0391C393.174 81.039 393.174 81.039 393.174 81.039C393.174 81.0389 393.173 81.0388 393.173 81.0387C393.172 81.0384 393.17 81.038 393.168 81.0375C393.164 81.0365 393.158 81.0349 393.149 81.0328C393.133 81.0287 393.108 81.0225 393.076 81.0144C393.012 80.9982 392.918 80.9744 392.797 80.944C392.556 80.883 392.209 80.7953 391.787 80.6884C390.944 80.4747 389.801 80.1842 388.604 79.8775C386.19 79.2593 383.608 78.5887 382.764 78.3375L381.908 81.2129C382.823 81.485 385.477 82.1736 387.859 82.7837C389.06 83.0913 390.205 83.3823 391.05 83.5965C391.473 83.7036 391.821 83.7915 392.063 83.8526C392.184 83.8832 392.278 83.9071 392.343 83.9233C392.375 83.9314 392.4 83.9376 392.416 83.9418C392.424 83.9439 392.431 83.9455 392.435 83.9466C392.437 83.9471 392.439 83.9475 392.44 83.9478C392.44 83.9479 392.441 83.948 392.441 83.9481C392.441 83.9481 392.441 83.9481 392.441 83.9482C392.441 83.9482 392.441 83.9482 392.808 82.4936ZM375.407 48.1064C374.147 48.9202 374.147 48.9207 374.147 48.9213C374.147 48.9215 374.148 48.922 374.148 48.9224C374.149 48.9232 374.149 48.924 374.15 48.9249C374.151 48.9267 374.152 48.9287 374.154 48.9308C374.156 48.9352 374.16 48.9404 374.164 48.9463C374.172 48.9582 374.182 48.9733 374.194 48.9913C374.219 49.0273 374.252 49.0752 374.295 49.1331C374.379 49.2488 374.499 49.4056 374.654 49.5892C374.962 49.9544 375.416 50.4363 376.011 50.9116C377.196 51.8583 379.024 52.8411 381.383 52.6885L381.189 49.6948C379.816 49.7836 378.705 49.2237 377.883 48.5675C377.475 48.2413 377.159 47.9067 376.948 47.6557C376.843 47.5311 376.766 47.43 376.718 47.3647C376.694 47.3321 376.678 47.3087 376.669 47.2961C376.665 47.2898 376.663 47.2863 376.662 47.2856C376.662 47.2853 376.662 47.2857 376.663 47.2868C376.663 47.2874 376.664 47.2882 376.665 47.2892C376.665 47.2896 376.665 47.2902 376.666 47.2907C376.666 47.291 376.666 47.2915 376.666 47.2917C376.666 47.2921 376.667 47.2926 375.407 48.1064ZM381.686 52.6372C383.722 52.0731 384.565 50.2559 384.96 48.8442C385.347 47.4612 385.48 45.7302 385.6 44.9752L382.638 44.5018C382.446 45.7006 382.402 46.8524 382.071 48.0356C381.748 49.19 381.331 49.6225 380.885 49.7462L381.686 52.6372ZM367.543 43.2618C365.236 43.6727 363.328 44.2431 361.716 44.8999L362.848 47.6782C364.252 47.1061 365.956 46.5917 368.069 46.2153L367.543 43.2618ZM361.714 44.9008C359.407 45.8447 357.737 46.9639 356.402 48.0313L358.276 50.3745C359.438 49.4449 360.863 48.4904 362.85 47.6774L361.714 44.9008ZM356.405 48.0294C355.837 48.4813 354.879 49.5351 353.823 50.7431C352.722 52.0024 351.39 53.5778 350.026 55.1898L352.316 57.1275C353.686 55.5088 355 53.9544 356.082 52.7175C357.208 51.4293 357.967 50.6206 358.273 50.3764L356.405 48.0294ZM350.026 55.19C348.356 57.1645 346.638 59.1959 345.17 60.8505C344.436 61.6779 343.775 62.399 343.222 62.9652C342.646 63.5545 342.256 63.9031 342.048 64.0482L343.761 66.5106C344.225 66.1876 344.788 65.6548 345.368 65.062C345.97 64.4461 346.666 63.6845 347.414 62.8413C348.91 61.1549 350.653 59.0939 352.317 57.1274L350.026 55.19ZM342.044 64.0508L341.53 64.4109L343.251 66.868L343.765 66.508L342.044 64.0508ZM343.479 64.6075L343.047 64.1515L340.87 66.2153L341.302 66.6714L343.479 64.6075ZM343.047 64.1514C339.303 60.2022 336.963 54.3225 334.852 48.9606L332.06 50.0596C334.119 55.2874 336.649 61.7639 340.87 66.2154L343.047 64.1514ZM334.851 48.9589C334.341 47.6683 333.842 46.3917 333.366 45.2743L330.606 46.4494C331.062 47.5209 331.543 48.7501 332.061 50.0613L334.851 48.9589ZM331.887 44.3651C331.067 44.4194 330.011 44.5827 329.012 44.813L329.686 47.7363C330.561 47.5346 331.455 47.4002 332.085 47.3585L331.887 44.3651ZM329.006 44.8145C328.321 44.9756 327.596 45.1819 327.01 45.4356L328.201 48.1889C328.547 48.0394 329.071 47.8809 329.692 47.7348L329.006 44.8145ZM326.15 47.1758C329.276 59.6886 332.263 66.5589 334.656 70.3563L337.194 68.7568C335.043 65.3441 332.151 58.8212 329.061 46.4488L326.15 47.1758ZM334.656 70.3557C336.924 73.9594 338.607 74.8252 339.538 75.0006L340.093 72.0524C340.362 72.1029 339.278 72.0663 337.194 68.7574L334.656 70.3557ZM339.532 74.9995C343.08 75.6821 347.251 74.0701 350.917 71.8246L349.35 69.2663C345.821 71.4275 342.489 72.5134 340.099 72.0535L339.532 74.9995ZM350.918 71.824C355.206 69.1929 359.24 65.4206 361.656 62.0489L359.218 60.3013C357.052 63.3237 353.323 66.8288 349.349 69.2669L350.918 71.824ZM361.656 62.0496C361.734 61.9405 361.735 61.996 361.596 62.0433C361.451 62.0925 361.173 62.1159 360.889 61.9353C360.597 61.7496 360.475 61.4576 360.463 61.2378C360.452 61.0356 360.53 60.9732 360.469 61.0589L362.913 62.7985C363.26 62.3106 363.493 61.7166 363.459 61.0773C363.424 60.4203 363.099 59.7856 362.5 59.4043C361.227 58.5942 359.88 59.379 359.219 60.3005L361.656 62.0496ZM360.47 61.0574C359.684 62.1593 358.696 63.3357 357.559 64.5091L359.713 66.5969C360.939 65.3317 362.027 64.0408 362.912 62.8L360.47 61.0574ZM357.138 65.4742L357.09 66.3862L360.086 66.544L360.134 65.6319L357.138 65.4742ZM357.089 66.4007L357.041 67.5192L360.038 67.648L360.087 66.5295L357.089 66.4007ZM357.041 67.5332C356.89 72.0117 356.925 81.0185 357.393 89.527L360.388 89.3622C359.925 80.9349 359.892 72.017 360.039 67.634L357.041 67.5332ZM357.393 89.527C357.71 95.2954 358.224 100.919 359.027 104.722L361.962 104.102C361.21 100.541 360.705 95.1147 360.388 89.3622L357.393 89.527ZM359.757 105.718C365.115 108.743 371.125 110.056 376.998 110.308L377.126 107.311C371.596 107.073 366.077 105.842 361.232 103.106L359.757 105.718ZM376.998 110.308C384.385 110.624 391.656 109.277 397.39 107.47L396.488 104.609C391.01 106.335 384.092 107.609 377.126 107.311L376.998 110.308ZM398.386 105.643C397.73 103.249 397.15 100.885 396.642 98.5363L393.71 99.1705C394.23 101.574 394.822 103.991 395.492 106.436L398.386 105.643ZM396.642 98.5368C396.111 96.076 395.66 93.6156 395.29 91.1605L392.324 91.6075C392.703 94.1255 393.165 96.648 393.71 99.17L396.642 98.5368ZM394.361 89.99C392.841 89.3861 391.06 88.4728 389.197 87.4795C387.367 86.5034 385.448 85.444 383.76 84.6214L382.446 87.3182C384.068 88.1089 385.895 89.1181 387.785 90.1266C389.644 91.1179 391.559 92.105 393.253 92.778L394.361 89.99ZM382.764 78.3375C381.273 77.8938 380.13 76.8889 379.332 75.9166C378.938 75.4375 378.647 74.9881 378.455 74.6623C378.36 74.5001 378.291 74.3707 378.248 74.2863C378.227 74.2442 378.212 74.2135 378.203 74.1958C378.199 74.1869 378.196 74.1813 378.195 74.1792C378.195 74.1781 378.195 74.1779 378.195 74.1786C378.195 74.1789 378.195 74.1795 378.196 74.1803C378.196 74.1807 378.196 74.1811 378.196 74.1816C378.196 74.1819 378.197 74.1823 378.197 74.1824C378.197 74.1829 378.197 74.1833 376.83 74.8018C375.464 75.4203 375.464 75.4208 375.464 75.4213C375.464 75.4214 375.465 75.422 375.465 75.4223C375.465 75.4231 375.466 75.4239 375.466 75.4247C375.467 75.4265 375.468 75.4284 375.469 75.4306C375.471 75.435 375.473 75.4404 375.476 75.4466C375.482 75.4591 375.489 75.4753 375.499 75.495C375.518 75.5342 375.544 75.5874 375.577 75.6529C375.644 75.7836 375.741 75.964 375.868 76.1807C376.121 76.6124 376.501 77.1964 377.014 77.8207C378.028 79.0553 379.638 80.5371 381.908 81.2129L382.764 78.3375ZM376.83 74.8018C378.328 74.7183 378.328 74.7182 378.328 74.718C378.328 74.7178 378.328 74.7175 378.328 74.7171C378.328 74.7163 378.328 74.7152 378.328 74.7136C378.328 74.7105 378.327 74.7059 378.327 74.6998C378.326 74.6875 378.325 74.6692 378.324 74.6451C378.321 74.5968 378.317 74.525 378.312 74.4314C378.302 74.2442 378.286 73.9695 378.267 73.6194C378.228 72.9193 378.172 71.9177 378.106 70.7122C377.972 68.3012 377.794 65.0743 377.616 61.8111C377.438 58.5476 377.261 55.2486 377.127 52.6928C377.06 51.4147 377.005 50.3241 376.966 49.5173C376.947 49.1136 376.932 48.7832 376.921 48.5368C376.916 48.4134 376.912 48.3134 376.91 48.237C376.909 48.1988 376.908 48.1683 376.907 48.1447C376.907 48.133 376.907 48.1238 376.907 48.1169C376.907 48.1135 376.907 48.1109 376.907 48.109C376.907 48.1071 376.907 48.1063 376.907 48.1064H373.907C373.907 48.7455 374.267 55.4921 374.621 61.9744C374.799 65.2388 374.977 68.4665 375.11 70.878C375.177 72.0838 375.233 73.0856 375.272 73.786C375.291 74.1362 375.306 74.411 375.317 74.5983C375.322 74.6919 375.326 74.7637 375.329 74.812C375.33 74.8362 375.331 74.8545 375.332 74.8668C375.332 74.8729 375.332 74.8776 375.333 74.8807C375.333 74.8822 375.333 74.8834 375.333 74.8842C375.333 74.8846 375.333 74.8849 375.333 74.885C375.333 74.8852 375.333 74.8853 376.83 74.8018ZM383.578 46.1377C389.323 48.3574 395.076 50.5676 398.844 54.8884L401.105 52.9165C396.758 47.9322 390.231 45.492 384.66 43.3393L383.578 46.1377ZM398.844 54.8884C399.67 55.8351 400.918 57.8915 402.291 60.7563C403.645 63.5814 405.067 67.0796 406.269 70.8235C408.701 78.3999 410.118 86.6458 408.571 92.3703L411.467 93.1531C413.256 86.5341 411.584 77.5662 409.125 69.9067C407.882 66.0326 406.409 62.4074 404.996 59.4596C403.603 56.5516 402.212 54.1856 401.105 52.9165L398.844 54.8884ZM401.862 82.7084C401.395 82.1292 400.055 79.9141 398.635 77.3376C397.229 74.7872 395.885 72.1377 395.378 70.7577L392.562 71.7925C393.158 73.4148 394.61 76.2504 396.007 78.7857C397.39 81.295 398.861 83.7664 399.528 84.5927L401.862 82.7084ZM401.083 86.6419C401.601 86.6656 402.431 86.6101 403.02 85.9796C403.74 85.2093 403.528 84.2759 403.301 83.8081C403.069 83.328 402.686 82.9514 402.305 82.6933C401.911 82.4272 401.402 82.2071 400.827 82.1563L400.563 85.1447C400.543 85.1429 400.572 85.1433 400.623 85.1779C400.686 85.2206 400.654 85.2251 400.601 85.1153C400.572 85.0555 400.51 84.903 400.517 84.679C400.526 84.4266 400.624 84.1504 400.828 83.9313C401.015 83.7321 401.205 83.6696 401.267 83.6535C401.328 83.6374 401.325 83.6498 401.22 83.645L401.083 86.6419ZM385.058 83.6639C389.196 84.9306 396.99 86.4521 401.082 86.6418L401.221 83.6451C397.436 83.4696 389.895 82.0073 385.936 80.7953L385.058 83.6639ZM384.63 86.115C385.236 85.6644 385.754 85.1661 386.159 84.5518C386.566 83.933 386.813 83.2661 386.965 82.5359L384.029 81.9233C383.936 82.3663 383.811 82.6621 383.653 82.9018C383.492 83.1459 383.252 83.4017 382.841 83.7073L384.63 86.115ZM408.682 92.0809C408.672 92.1005 408.602 92.2618 408.067 92.3575C407.514 92.4563 406.693 92.4328 405.601 92.2437C403.433 91.8683 400.638 90.9236 397.724 89.7476C391.863 87.3825 386.082 84.3295 384.356 83.5454L383.115 86.2768C384.546 86.9267 390.708 90.1517 396.601 92.5296C399.563 93.7251 402.597 94.7683 405.089 95.1997C406.326 95.4139 407.543 95.4986 408.595 95.3107C409.664 95.1196 410.766 94.5992 411.355 93.4425L408.682 92.0809ZM373.628 46.1762L368.518 43.4185L367.093 46.0585L372.203 48.8162L373.628 46.1762ZM383.76 84.6214C381.935 83.7319 378.758 82.5125 375.657 80.6877C374.137 79.7933 372.735 78.8041 371.646 77.728C370.554 76.6479 369.854 75.5551 369.595 74.4578L366.675 75.1459C367.108 76.9814 368.21 78.5493 369.537 79.8611C370.868 81.1768 372.5 82.3106 374.135 83.2732C377.346 85.1626 380.961 86.5943 382.446 87.3182L383.76 84.6214ZM369.613 75.0604L374.393 47.7549L371.438 47.2376L366.658 74.5432L369.613 75.0604Z" fill="#333333" mask="url(#path-23-outside-1_16_16317)"/>
<path fill-rule="evenodd" clip-rule="evenodd" d="M392.856 64.1801C392.616 67.3387 392.491 70.4686 392.486 73.584C392.482 76.9299 392.616 80.2182 392.885 83.468L394.345 83.348C394.076 80.0982 393.942 76.8483 393.947 73.584C393.951 70.5502 394.072 67.4683 394.317 64.3193C394.398 63.1912 392.948 62.9512 392.856 64.1801ZM393.759 91.0431L395.205 90.8318C395.589 93.4049 396.055 95.9779 396.613 98.5605C397.17 101.153 397.813 103.745 398.539 106.337L398.726 107.009L398.063 107.225C392.222 109.145 384.671 110.605 377.005 110.278C370.976 110.019 364.881 108.651 359.487 105.526L359.213 105.367L359.141 105.051C358.3 101.282 357.757 95.5218 357.431 89.5261C356.965 81.0246 356.926 72.0143 357.08 67.5451L357.128 66.4026L357.19 65.2025L358.651 65.2938L358.588 66.4698L358.54 67.5883C358.391 72.0191 358.425 80.9814 358.891 89.4493C359.208 95.2098 359.717 100.735 360.495 104.417C365.597 107.297 371.361 108.569 377.062 108.814C384.239 109.121 391.334 107.811 396.939 106.044C396.276 103.625 395.69 101.234 395.176 98.8581C394.624 96.2515 394.148 93.6497 393.759 91.0431Z" fill="#333333"/>
<path fill-rule="evenodd" clip-rule="evenodd" d="M406.974 234.57C405.83 235.861 404.38 237.249 402.891 238.67C400.479 240.974 397.972 243.369 396.718 245.419C395.777 246.96 395.604 248.294 396.939 249.173C397.751 249.274 400.652 248.05 404.015 246.35C407.776 244.449 412.012 241.953 414.611 239.98C414.63 239.961 414.683 239.923 414.702 239.913C414.755 239.875 414.842 239.817 414.942 239.731C415.48 239.265 416.331 238.002 413.698 234.945L414.808 233.994C418.305 238.06 416.792 240.062 415.889 240.839C415.759 240.95 415.629 241.041 415.543 241.103L415.476 241.151C412.795 243.182 408.487 245.726 404.673 247.651C400.902 249.557 397.515 250.872 396.449 250.56L396.358 250.536L396.276 250.483C393.903 249.039 394.052 246.984 395.474 244.661C396.829 242.448 399.403 239.985 401.887 237.614C403.357 236.207 404.793 234.839 405.883 233.605L406.974 234.57Z" fill="#333333"/>
<path fill-rule="evenodd" clip-rule="evenodd" d="M366.028 233.615C364.554 234.22 362.757 234.839 360.922 235.468C357.233 236.73 353.386 238.05 351.176 239.663C349.216 241.099 348.457 242.74 349.908 244.713L349.966 244.79L350.043 244.852C350.922 245.558 355.278 245.673 360.192 245.371C364.948 245.078 370.308 244.435 373.479 243.595L373.556 243.576C374.29 243.412 377.254 242.736 375.837 237.522C375.784 237.33 375.4 236.485 375.045 235.689C374.752 235.04 374.473 234.421 374.439 234.325L373.051 234.781C373.099 234.93 373.397 235.593 373.714 236.289C374.05 237.037 374.411 237.83 374.43 237.902C375.448 241.655 373.676 242.054 373.239 242.15L373.133 242.174C370.054 242.99 364.794 243.619 360.111 243.907C355.658 244.18 351.801 244.176 351.027 243.748C350.312 242.678 350.835 241.718 352.05 240.83C354.073 239.351 357.815 238.07 361.408 236.836C363.233 236.212 365.025 235.597 366.595 234.949L366.028 233.615Z" fill="#333333"/>
<path fill-rule="evenodd" clip-rule="evenodd" d="M402.891 238.67C400.479 240.974 397.972 243.369 396.718 245.419C395.777 246.96 395.604 248.294 396.939 249.173C397.751 249.274 400.652 248.05 404.015 246.35C407.776 244.449 412.012 241.953 414.611 239.98C414.63 239.961 414.683 239.923 414.702 239.913C414.755 239.875 414.842 239.817 414.942 239.731C415.235 239.481 415.615 239.001 415.49 238.132C415.399 237.47 415.01 236.577 414.063 235.386C413.079 235.813 411.835 235.996 410.59 235.962C409.14 235.924 407.651 235.597 406.565 235.026C405.662 236.01 404.601 237.037 403.501 238.094C403.294 238.286 403.092 238.478 402.891 238.67Z" fill="#FEFEFE"/>
<path fill-rule="evenodd" clip-rule="evenodd" d="M374.421 237.906C374.445 237.993 374.469 238.079 374.488 238.166C375.357 241.679 373.657 242.063 373.229 242.159L373.124 242.183C370.045 243 364.785 243.628 360.101 243.916C355.649 244.19 351.791 244.185 351.018 243.758C350.302 242.688 350.826 241.727 352.041 240.839C353.271 239.937 355.144 239.111 357.229 238.324C358.569 237.82 359.991 237.33 361.398 236.85C363.032 236.289 364.636 235.741 366.082 235.165C366.98 235.756 368.368 236.365 369.963 236.471C371.068 236.543 372.273 236.375 373.479 235.794C373.551 235.953 373.628 236.125 373.705 236.293C374.041 237.042 374.397 237.834 374.421 237.906Z" fill="#FEFEFE"/>
<path fill-rule="evenodd" clip-rule="evenodd" d="M395.162 108.099C398.548 119.173 402.333 139.177 405.648 161.796C410.427 185.092 413.506 211.331 413.463 233.562C412.584 234.047 411.301 234.33 410.024 234.359C408.756 234.388 407.526 234.176 406.743 233.682C405.643 229.496 401.209 211.519 395.253 190.666C390.229 173.067 383.624 153.952 380.156 140.545L378.767 135.48C378.681 148.072 377.836 161.297 377.288 169.875C377.125 172.458 376.985 174.618 376.899 176.264C376.894 176.375 376.899 176.797 376.908 177.503C376.99 183.614 377.355 211.629 373.018 234.388C371.999 234.92 370.976 235.074 370.044 235.016C368.776 234.935 367.667 234.46 366.941 233.989C366.86 227.408 366.639 217.951 366.019 207.87C365.385 197.564 364.323 186.571 362.556 177.253C362.412 176.495 359.75 161.239 359.597 140.602C359.52 130.291 360.072 118.636 361.878 106.774C366.648 109.016 371.85 110.048 377 110.273C383.456 110.552 389.825 109.563 395.162 108.099Z" fill="#404040" stroke="#404040" stroke-width="0.216" stroke-miterlimit="22.9256"/>
<path fill-rule="evenodd" clip-rule="evenodd" d="M378.772 135.336C378.691 147.971 377.84 161.263 377.293 169.875C377.13 172.458 376.99 174.618 376.904 176.265C376.899 176.375 376.904 176.797 376.913 177.503C376.995 183.614 377.36 211.629 373.023 234.388C372.004 234.921 370.981 235.074 370.049 235.017C368.781 234.935 367.672 234.46 366.946 233.989C366.865 227.408 366.644 217.951 366.024 207.87C365.39 197.564 364.328 186.571 362.561 177.253C362.416 176.495 359.755 161.239 359.602 140.602C359.525 130.003 360.106 117.993 362.037 105.795L360.596 105.569C358.655 117.844 358.069 129.941 358.146 140.602C358.3 161.378 360.98 176.749 361.124 177.513C362.882 186.763 363.934 197.693 364.568 207.947C365.203 218.234 365.419 227.821 365.496 234.378L365.5 234.738L365.789 234.954C366.658 235.602 368.181 236.351 369.963 236.466C371.245 236.548 372.658 236.308 374.055 235.482L374.339 235.314L374.401 234.993C378.83 212.042 378.455 183.648 378.378 177.479C378.369 176.826 378.364 176.428 378.369 176.332C378.451 174.776 378.59 172.583 378.758 169.962C379.238 162.463 379.944 151.427 380.17 140.338L378.772 135.336Z" fill="#333333"/>
<path fill-rule="evenodd" clip-rule="evenodd" d="M370.366 121.367C371.298 122.202 372.35 122.947 373.517 123.494C374.723 124.055 376.058 124.415 377.509 124.459L378.1 124.478L378.167 125.059C380.059 141.284 385.185 157.365 391.237 176.341C396.406 192.552 402.247 210.875 407.334 233.212C408.237 233.62 409.217 233.72 410.172 233.653C411.085 233.586 411.983 233.36 412.771 233.087C412.603 226.467 412.223 216.453 411.368 205.816C410.763 198.265 409.923 190.421 408.751 183.302C408.587 182.318 408.429 181.382 408.265 180.489C408.102 179.586 407.929 178.698 407.756 177.829C407.617 177.148 407.434 176.289 407.252 175.453C406.772 173.231 406.33 171.195 406.08 168.661C405.912 166.947 405.724 165.18 405.523 163.38C405.316 161.532 405.1 159.761 404.884 158.057C403.683 148.71 402.146 139.638 400.412 131.299C398.61 122.649 396.593 114.805 394.513 108.296L395.805 107.888C397.9 114.455 399.931 122.342 401.737 131.026C403.481 139.378 405.023 148.489 406.229 157.889C406.464 159.722 406.68 161.508 406.877 163.231C407.069 164.945 407.257 166.712 407.434 168.531C407.67 170.951 408.107 172.967 408.582 175.16C408.731 175.852 408.885 176.567 409.087 177.561C409.265 178.439 409.437 179.337 409.601 180.244C409.774 181.209 409.942 182.15 410.091 183.076C411.268 190.258 412.118 198.135 412.723 205.705C413.597 216.583 414.635 227.326 414.798 233.984L414.808 234.465L414.356 234.637C412.175 235.463 407.588 235.977 405.941 233.908L405.873 233.6C400.777 211.159 395.123 193.004 389.94 176.745C383.936 157.908 378.839 141.918 376.879 125.774C375.453 125.659 374.142 125.275 372.936 124.713C371.61 124.094 370.424 123.254 369.391 122.313C368.473 121.478 369.449 120.542 370.366 121.367Z" fill="#333333"/>
<path fill-rule="evenodd" clip-rule="evenodd" d="M374.18 21.6007C375.665 18.0916 379.603 20.0934 379.618 21.9703C379.43 21.7639 378.604 21.2694 378.134 21.2118C377.97 23.3 375.472 23.7369 374.8 21.5095C374.531 21.4951 374.377 21.4807 374.18 21.6007ZM373.282 37.9076C373.436 37.9652 375.794 38.6085 378.921 35.9203C380.554 34.5185 382.356 32.224 384.109 28.5132C384.08 28.5228 384.047 28.5324 384.018 28.5421C383.557 28.6669 383.177 27.8316 383.941 27.5436C384.143 27.4668 384.344 27.3612 384.522 27.2363C384.902 26.9771 385.204 26.6555 385.387 26.3675C386.107 25.2394 386.295 23.9865 386.045 23.0744C385.949 22.724 385.785 22.4263 385.569 22.2247C385.368 22.0327 385.103 21.9175 384.786 21.9031C384.152 21.8743 383.312 22.2199 382.293 23.1272C381.727 23.6312 381.222 22.9832 381.496 22.5608L381.179 22.1143C381.241 20.151 381.179 18.538 381.02 17.2179C380.852 15.8402 380.578 14.8033 380.218 14.0449C379.988 13.5552 379.632 13.0752 379.2 12.6863C378.806 12.3263 378.354 12.0479 377.884 11.9039C377.327 11.7311 376.765 11.7743 376.212 11.9423C375.602 12.1295 374.987 12.4703 374.377 12.8736C374.07 13.0752 373.767 13.2912 373.474 13.5024C371.947 14.5969 370.731 15.4658 368.315 14.8225C367.989 14.7361 367.681 14.5729 367.417 14.3473C367.388 14.3233 367.359 14.2993 367.335 14.2753C366.898 14.9377 366.523 15.701 366.206 16.5411C365.135 19.4213 364.823 23.1512 365.419 26.7371C366.01 30.2942 367.489 33.6881 369.996 35.9299C370.943 36.7651 372.033 37.4468 373.282 37.9076ZM384.047 23.6072C383.441 23.7273 383.374 23.2232 384.008 23.1176C384.2 23.0888 384.373 23.0888 384.527 23.1272C384.782 23.1848 384.974 23.324 385.103 23.5256C385.223 23.7129 385.286 23.9529 385.286 24.2217C385.286 24.6681 385.113 25.225 384.753 25.7818C384.618 25.993 384.392 26.2331 384.123 26.4155C383.979 26.5163 383.821 26.5979 383.648 26.6555C383.235 26.7995 383.067 26.3819 383.581 26.1611C383.672 26.1226 383.763 26.0698 383.85 26.0122C384.066 25.8682 384.239 25.681 384.344 25.5178C384.652 25.0378 384.801 24.5817 384.801 24.2217C384.801 24.0441 384.767 23.8953 384.695 23.7897C384.633 23.6937 384.541 23.6312 384.421 23.6024C384.316 23.5784 384.191 23.5784 384.047 23.6072ZM365.688 21.4519C367.037 17.89 371.053 19.7429 371.14 21.6199C370.943 21.4231 370.102 20.9574 369.627 20.919C369.545 23.012 367.061 23.54 366.307 21.3415C366.038 21.3319 365.88 21.3271 365.688 21.4519ZM371.999 30.3422C374.79 32.5936 375.804 28.5997 376.294 27.9852C376.154 32.944 372.35 32.5984 371.999 30.3422ZM371.269 26.6027C371.596 26.7803 372.12 26.9627 373.277 26.9867C370.89 27.9324 370.049 26.8235 370.083 25.7914C370.121 24.3993 371.428 24.6777 371.164 22.4215C372.297 24.0057 369.737 25.7722 371.269 26.6027Z" fill="#FEFEFE"/>
<path fill-rule="evenodd" clip-rule="evenodd" d="M376.028 86.7369L283.83 70.9772C280.525 70.4107 278.306 67.2761 278.868 63.9734L283.898 36.4466C284.465 33.144 287.602 30.9262 290.907 31.4878L383.105 47.2475C386.409 47.814 388.629 50.9486 388.067 54.2513L383.041 81.778C382.47 85.0807 379.333 87.3033 376.028 86.7369Z" fill="#46BABA"/>
<path d="M312.133 49.7116C309.917 49.3647 307.775 50.0844 306.214 51.495C305.848 50.6651 305.708 49.7199 305.86 48.7518C306.275 46.0994 308.723 44.2797 311.327 44.6873C313.931 45.095 315.705 47.5756 315.29 50.228C315.252 50.467 315.198 50.6992 315.129 50.9237C314.262 50.3119 313.248 49.8862 312.133 49.7116Z" fill="white"/>
<path d="M315.666 51.342C315.994 51.6237 316.296 51.9343 316.569 52.2693C317.023 52.8275 317.394 53.4533 317.67 54.1261C318.388 53.927 319.155 53.8662 319.936 53.9691C319.921 51.6613 318.287 49.642 315.987 49.2447C316 49.6 315.98 49.9621 315.923 50.3271C315.868 50.6792 315.781 51.0183 315.666 51.342Z" fill="white"/>
<path d="M305.728 51.9772C305.331 51.1705 305.126 50.2573 305.163 49.3081C305.059 49.2936 304.955 49.2824 304.852 49.2744C304.357 49.2359 303.871 49.2707 303.404 49.3703C303.066 49.4425 302.737 49.5488 302.424 49.6861C301.605 50.0444 300.885 50.6134 300.341 51.3363C300.146 51.5949 299.974 51.8732 299.828 52.1686C299.593 52.6434 299.425 53.1624 299.338 53.7148C299.094 55.2779 299.552 56.7859 300.476 57.9057C301.103 56.9361 302.188 56.3264 303.366 56.3477C303.51 56.3503 303.655 56.3623 303.8 56.384C303.815 56.2099 303.836 56.0351 303.863 55.8598C304.1 54.3496 304.772 53.018 305.728 51.9772Z" fill="white"/>
<path d="M303.772 57.0407C303.756 57.0378 303.739 57.035 303.722 57.0323C303.61 57.0148 303.499 57.0045 303.389 57.001C302.369 56.9686 301.43 57.521 300.933 58.3916C300.82 58.5879 300.73 58.8004 300.667 59.026C300.637 59.1334 300.613 59.2438 300.595 59.3569C300.496 59.992 300.616 60.61 300.898 61.1309C301.291 61.8541 301.996 62.3902 302.862 62.5257C303.826 62.6766 304.753 62.2935 305.351 61.5929C304.357 60.3304 303.776 58.7362 303.772 57.0407Z" fill="white"/>
<path d="M306.193 46.2747C305.894 46.0767 305.549 45.9386 305.173 45.8798C303.752 45.6572 302.415 46.6507 302.189 48.0988C302.137 48.4316 302.148 48.7594 302.213 49.0697C303.136 48.6741 304.168 48.5157 305.226 48.658L305.227 48.6527C305.366 47.764 305.706 46.9578 306.193 46.2747Z" fill="white"/>
<path d="M322.481 64.6502C323.728 63.7578 324.633 62.3729 324.891 60.723C324.925 60.5093 324.947 60.2966 324.957 60.0855C324.968 60.0871 324.979 60.0887 324.991 60.0905C326.48 60.3237 327.495 61.7425 327.257 63.2595C327.02 64.7765 325.62 65.8173 324.131 65.5842C323.461 65.4794 322.888 65.1352 322.481 64.6502Z" fill="white"/>
<path d="M315.22 62.9128C315.166 62.9533 315.11 62.9931 315.054 63.032C315.83 64.0644 316.984 64.8044 318.348 65.0179C321.163 65.4586 323.809 63.4914 324.258 60.6239C324.707 57.7564 322.789 55.0746 319.974 54.6339C319.257 54.5217 318.551 54.5656 317.89 54.7407C318.214 55.7896 318.31 56.9303 318.128 58.0928C317.814 60.0987 316.731 61.7898 315.235 62.9022C315.23 62.9057 315.225 62.9093 315.22 62.9128Z" fill="white"/>
<path d="M299.175 52.0469C296.644 51.756 294.306 53.5508 293.901 56.1377C293.486 58.7901 295.26 61.2708 297.864 61.6785C298.72 61.8125 299.559 61.7058 300.315 61.4079C299.982 60.7733 299.842 60.0257 299.962 59.2578C300.002 59.0028 300.068 58.7588 300.158 58.5281C299.004 57.252 298.415 55.4683 298.705 53.6157C298.792 53.0598 298.953 52.534 299.175 52.0469Z" fill="white"/>
<path d="M317.495 57.9937C316.923 61.6494 313.549 64.1573 309.959 63.5955C306.37 63.0336 303.924 59.6146 304.497 55.9588C305.069 52.3027 308.443 49.7945 312.032 50.3564C315.621 50.9183 318.067 54.3376 317.495 57.9937Z" fill="white"/>
<path fill-rule="evenodd" clip-rule="evenodd" d="M356.318 63.2576L368.317 59.9837C369.316 59.7005 369.46 58.9852 368.601 58.4188L358.172 51.583C357.658 51.2422 356.885 51.0022 356.131 50.9253C355.631 50.8773 355.141 50.9013 354.742 51.0118L353.676 51.3046L342.743 54.2856C341.744 54.5688 341.6 55.2841 342.455 55.8506L347.134 58.918L348.363 59.7245L352.884 62.6863C353.604 63.2576 355.175 63.5408 356.318 63.2576Z" fill="white"/>
<path fill-rule="evenodd" clip-rule="evenodd" d="M360.623 63.2096L358.538 63.7665L356.175 64.3953C355.176 64.6785 353.605 64.3953 352.745 63.8241L347.721 60.483L346.496 59.6669L345.891 59.2637L341.745 60.4014C340.746 60.6846 340.602 61.3999 341.457 61.9663L343.393 63.2336L344.627 64.0401L351.89 68.7973C352.212 69.0085 352.611 69.1861 353.058 69.3013C353.706 69.4741 354.441 69.5317 355.152 69.4213C355.258 69.4069 355.358 69.3877 355.459 69.3637L355.757 69.2821L357.237 68.8789L367.458 66.0898C368.458 65.8066 368.602 65.0914 367.747 64.5249L364.173 62.2447L360.623 63.2096Z" fill="white" fill-opacity="0.75"/>
<path fill-rule="evenodd" clip-rule="evenodd" d="M362.89 68.3795L357.198 69.9252L355.728 70.3237L355.032 70.5109C354.667 70.6165 354.225 70.6453 353.768 70.6069C353.149 70.5589 352.505 70.3957 351.991 70.1557C351.852 70.0885 351.722 70.0164 351.602 69.9396L344.887 65.5281L342.653 66.1425L340.741 66.6706C340.669 66.6898 340.602 66.7138 340.535 66.7378C340.501 66.7522 340.468 66.7666 340.434 66.781C339.718 67.1122 339.694 67.7315 340.453 68.2355L340.535 68.2883L347.721 72.9975L349.09 73.8952L350.886 75.0713C351.746 75.6425 353.173 75.9257 354.172 75.6425L355.675 75.2345L357.136 74.836L362.482 73.3767L366.176 72.3686C366.623 72.2438 366.896 72.0278 366.988 71.783C367.103 71.4758 366.935 71.1157 366.459 70.8037L362.89 68.3795Z" fill="white" fill-opacity="0.5"/>
<path d="M385.308 82.4153C385.327 82.8791 385.093 83.4845 384.526 84.1897C383.971 84.8803 383.163 85.5828 382.214 86.2198C380.298 87.5061 377.971 88.4178 376.304 88.4875C374.838 88.5487 373.706 87.6587 372.878 86.2504C372.049 84.8395 371.623 83.0472 371.566 81.6959C371.528 80.7784 372.277 79.9765 373.935 79.3507C375.525 78.7504 377.61 78.4603 379.425 78.3845C381.065 78.316 382.536 78.9478 383.613 79.8236C384.724 80.7269 385.281 81.7726 385.308 82.4153Z" fill="white" stroke="#333333" stroke-width="1.5"/>
<path d="M330.946 37.3041C330.84 38.3948 329.916 39.524 328.404 40.3682C326.919 41.1974 325.04 41.6442 323.361 41.4804C319.888 41.1417 317.775 38.9215 318 36.6067C318.09 35.6927 318.942 35.0023 320.671 34.6122C322.329 34.2381 324.434 34.2397 326.243 34.4161C328.02 34.5894 329.265 35.0214 330.022 35.562C330.751 36.0821 331.008 36.6758 330.946 37.3041Z" fill="white" stroke="#333333" stroke-width="1.5"/>
<rect x="24" y="80.6318" width="30" height="2" rx="1" fill="#23527C"/>
<path d="M70.4883 77L66.9316 86.2637H66L69.5625 77H70.4883Z" fill="#999999"/>
<rect x="82.4883" y="80.6318" width="30" height="2" rx="1" fill="#999999"/>
<path d="M36.5977 110.441V111.34C36.5977 112.408 36.4642 113.365 36.1973 114.211C35.9303 115.057 35.5462 115.777 35.0449 116.369C34.5436 116.962 33.9414 117.414 33.2383 117.727C32.5417 118.039 31.7604 118.195 30.8945 118.195C30.0547 118.195 29.2832 118.039 28.5801 117.727C27.8835 117.414 27.278 116.962 26.7637 116.369C26.2559 115.777 25.862 115.057 25.582 114.211C25.3021 113.365 25.1621 112.408 25.1621 111.34V110.441C25.1621 109.374 25.2988 108.42 25.5723 107.58C25.8522 106.734 26.2461 106.014 26.7539 105.422C27.2617 104.823 27.8639 104.367 28.5605 104.055C29.2637 103.742 30.0352 103.586 30.875 103.586C31.7409 103.586 32.5221 103.742 33.2188 104.055C33.9219 104.367 34.5241 104.823 35.0254 105.422C35.5332 106.014 35.9206 106.734 36.1875 107.58C36.4609 108.42 36.5977 109.374 36.5977 110.441ZM34.7324 111.34V110.422C34.7324 109.576 34.6445 108.827 34.4688 108.176C34.2995 107.525 34.0488 106.978 33.7168 106.535C33.3848 106.092 32.9779 105.757 32.4961 105.529C32.0208 105.301 31.4805 105.188 30.875 105.188C30.2891 105.188 29.7585 105.301 29.2832 105.529C28.8145 105.757 28.4108 106.092 28.0723 106.535C27.7402 106.978 27.4831 107.525 27.3008 108.176C27.1185 108.827 27.0273 109.576 27.0273 110.422V111.34C27.0273 112.193 27.1185 112.948 27.3008 113.605C27.4831 114.257 27.7435 114.807 28.082 115.256C28.4271 115.699 28.834 116.034 29.3027 116.262C29.778 116.49 30.3086 116.604 30.8945 116.604C31.5065 116.604 32.0501 116.49 32.5254 116.262C33.0007 116.034 33.401 115.699 33.7266 115.256C34.0586 114.807 34.3092 114.257 34.4785 113.605C34.6478 112.948 34.7324 112.193 34.7324 111.34ZM50.7574 103.781V118H48.8629L41.7047 107.033V118H39.8199V103.781H41.7047L48.8922 114.777V103.781H50.7574ZM63.1203 116.467V118H56.0109V116.467H63.1203ZM56.382 103.781V118H54.4973V103.781H56.382ZM63.9891 103.781L67.6805 110.92L71.3816 103.781H73.5203L68.618 112.688V118H66.7332V112.688L61.8309 103.781H63.9891ZM86.4008 110.441V111.34C86.4008 112.408 86.2673 113.365 86.0004 114.211C85.7335 115.057 85.3493 115.777 84.848 116.369C84.3467 116.962 83.7445 117.414 83.0414 117.727C82.3448 118.039 81.5635 118.195 80.6977 118.195C79.8578 118.195 79.0863 118.039 78.3832 117.727C77.6866 117.414 77.0811 116.962 76.5668 116.369C76.059 115.777 75.6651 115.057 75.3852 114.211C75.1052 113.365 74.9652 112.408 74.9652 111.34V110.441C74.9652 109.374 75.102 108.42 75.3754 107.58C75.6553 106.734 76.0492 106.014 76.557 105.422C77.0648 104.823 77.6671 104.367 78.3637 104.055C79.0668 103.742 79.8383 103.586 80.6781 103.586C81.544 103.586 82.3253 103.742 83.0219 104.055C83.725 104.367 84.3272 104.823 84.8285 105.422C85.3363 106.014 85.7237 106.734 85.9906 107.58C86.2641 108.42 86.4008 109.374 86.4008 110.441ZM84.5355 111.34V110.422C84.5355 109.576 84.4477 108.827 84.2719 108.176C84.1026 107.525 83.852 106.978 83.5199 106.535C83.1879 106.092 82.781 105.757 82.2992 105.529C81.824 105.301 81.2836 105.188 80.6781 105.188C80.0922 105.188 79.5616 105.301 79.0863 105.529C78.6176 105.757 78.2139 106.092 77.8754 106.535C77.5434 106.978 77.2862 107.525 77.1039 108.176C76.9216 108.827 76.8305 109.576 76.8305 110.422V111.34C76.8305 112.193 76.9216 112.948 77.1039 113.605C77.2862 114.257 77.5466 114.807 77.8852 115.256C78.2302 115.699 78.6371 116.034 79.1059 116.262C79.5811 116.49 80.1117 116.604 80.6977 116.604C81.3096 116.604 81.8533 116.49 82.3285 116.262C82.8038 116.034 83.2042 115.699 83.5297 115.256C83.8617 114.807 84.1124 114.257 84.2816 113.605C84.4509 112.948 84.5355 112.193 84.5355 111.34ZM91.5078 103.781V118H89.623V103.781H91.5078ZM97.4648 110.178V111.721H91.0977V110.178H97.4648ZM98.4316 103.781V105.324H91.0977V103.781H98.4316ZM102.963 103.781V118H101.078V103.781H102.963ZM108.92 110.178V111.721H102.552V110.178H108.92ZM109.886 103.781V105.324H102.552V103.781H109.886ZM114.554 103.781V118H112.669V103.781H114.554ZM126.966 113.479H128.841C128.743 114.377 128.486 115.181 128.069 115.891C127.652 116.6 127.063 117.163 126.302 117.58C125.54 117.99 124.589 118.195 123.45 118.195C122.617 118.195 121.858 118.039 121.175 117.727C120.498 117.414 119.915 116.971 119.427 116.398C118.938 115.819 118.561 115.126 118.294 114.318C118.033 113.505 117.903 112.6 117.903 111.604V110.188C117.903 109.191 118.033 108.29 118.294 107.482C118.561 106.669 118.942 105.972 119.436 105.393C119.938 104.813 120.54 104.367 121.243 104.055C121.946 103.742 122.737 103.586 123.616 103.586C124.69 103.586 125.598 103.788 126.341 104.191C127.083 104.595 127.659 105.155 128.069 105.871C128.486 106.581 128.743 107.404 128.841 108.342H126.966C126.874 107.678 126.705 107.108 126.458 106.633C126.21 106.151 125.859 105.78 125.403 105.52C124.947 105.259 124.352 105.129 123.616 105.129C122.985 105.129 122.428 105.249 121.946 105.49C121.471 105.731 121.07 106.073 120.745 106.516C120.426 106.958 120.185 107.489 120.022 108.107C119.86 108.726 119.778 109.413 119.778 110.168V111.604C119.778 112.3 119.85 112.954 119.993 113.566C120.143 114.178 120.367 114.715 120.667 115.178C120.966 115.64 121.347 116.005 121.809 116.271C122.272 116.532 122.818 116.662 123.45 116.662C124.251 116.662 124.889 116.535 125.364 116.281C125.839 116.027 126.197 115.663 126.438 115.188C126.686 114.712 126.861 114.143 126.966 113.479ZM140.842 116.467V118H133.313V116.467H140.842ZM133.694 103.781V118H131.809V103.781H133.694ZM139.846 109.895V111.428H133.313V109.895H139.846ZM140.745 103.781V105.324H133.313V103.781H140.745Z" fill="#333333"/>
<g opacity="0.8">
<rect width="133" height="31" transform="translate(24 137)" fill="#18A9A9"/>
<path d="M48.5737 157H46.644L46.6567 156.003H48.5737C49.2339 156.003 49.784 155.866 50.2241 155.591C50.6642 155.312 50.9943 154.922 51.2144 154.423C51.4386 153.919 51.5508 153.331 51.5508 152.658V152.093C51.5508 151.564 51.4873 151.095 51.3604 150.684C51.2334 150.269 51.0472 149.92 50.8018 149.637C50.5563 149.349 50.2559 149.131 49.9004 148.983C49.5492 148.835 49.145 148.761 48.688 148.761H46.606V147.758H48.688C49.2931 147.758 49.8454 147.859 50.3447 148.062C50.8441 148.261 51.2736 148.551 51.6333 148.932C51.9972 149.309 52.2765 149.766 52.4712 150.303C52.6659 150.836 52.7632 151.437 52.7632 152.106V152.658C52.7632 153.327 52.6659 153.93 52.4712 154.467C52.2765 155 51.9951 155.455 51.627 155.832C51.263 156.209 50.8229 156.499 50.3066 156.702C49.7946 156.901 49.217 157 48.5737 157ZM47.2979 147.758V157H46.0728V147.758H47.2979ZM61.9797 152.087V152.671C61.9797 153.365 61.893 153.987 61.7195 154.537C61.546 155.087 61.2963 155.555 60.9704 155.94C60.6446 156.325 60.2532 156.619 59.7961 156.822C59.3433 157.025 58.8355 157.127 58.2727 157.127C57.7268 157.127 57.2253 157.025 56.7683 156.822C56.3155 156.619 55.9219 156.325 55.5876 155.94C55.2576 155.555 55.0015 155.087 54.8196 154.537C54.6376 153.987 54.5466 153.365 54.5466 152.671V152.087C54.5466 151.393 54.6355 150.773 54.8132 150.227C54.9952 149.677 55.2512 149.209 55.5813 148.824C55.9114 148.435 56.3028 148.139 56.7556 147.936C57.2126 147.732 57.7141 147.631 58.26 147.631C58.8228 147.631 59.3306 147.732 59.7834 147.936C60.2405 148.139 60.6319 148.435 60.9578 148.824C61.2878 149.209 61.5396 149.677 61.7131 150.227C61.8909 150.773 61.9797 151.393 61.9797 152.087ZM60.7673 152.671V152.074C60.7673 151.524 60.7102 151.037 60.5959 150.614C60.4859 150.191 60.323 149.836 60.1072 149.548C59.8913 149.26 59.6269 149.042 59.3137 148.894C59.0048 148.746 58.6536 148.672 58.26 148.672C57.8791 148.672 57.5343 148.746 57.2253 148.894C56.9206 149.042 56.6583 149.26 56.4382 149.548C56.2224 149.836 56.0552 150.191 55.9368 150.614C55.8183 151.037 55.759 151.524 55.759 152.074V152.671C55.759 153.225 55.8183 153.716 55.9368 154.144C56.0552 154.567 56.2245 154.924 56.4446 155.216C56.6689 155.504 56.9333 155.722 57.238 155.87C57.5469 156.018 57.8918 156.092 58.2727 156.092C58.6705 156.092 59.0238 156.018 59.3328 155.87C59.6417 155.722 59.9019 155.504 60.1135 155.216C60.3293 154.924 60.4923 154.567 60.6023 154.144C60.7123 153.716 60.7673 153.225 60.7673 152.671ZM66.5054 154.207L68.3398 147.758H69.2285L68.7143 150.265L66.7402 157H65.8579L66.5054 154.207ZM64.6074 147.758L66.0674 154.08L66.5054 157H65.6294L63.3887 147.758H64.6074ZM71.6025 154.074L73.0307 147.758H74.2558L72.0215 157H71.1455L71.6025 154.074ZM69.3618 147.758L71.1455 154.207L71.7929 157H70.9106L69.0063 150.265L68.4858 147.758H69.3618ZM82.9836 147.758V157H81.7522L77.0993 149.872V157H75.8742V147.758H77.0993L81.7712 154.905V147.758H82.9836ZM91.0195 156.003V157H86.3984V156.003H91.0195ZM86.6396 147.758V157H85.4145V147.758H86.6396ZM99.3791 152.087V152.671C99.3791 153.365 99.2923 153.987 99.1188 154.537C98.9453 155.087 98.6957 155.555 98.3698 155.94C98.044 156.325 97.6525 156.619 97.1955 156.822C96.7427 157.025 96.2349 157.127 95.6721 157.127C95.1262 157.127 94.6247 157.025 94.1677 156.822C93.7149 156.619 93.3213 156.325 92.987 155.94C92.6569 155.555 92.4009 155.087 92.2189 154.537C92.037 153.987 91.946 153.365 91.946 152.671V152.087C91.946 151.393 92.0349 150.773 92.2126 150.227C92.3946 149.677 92.6506 149.209 92.9807 148.824C93.3107 148.435 93.7022 148.139 94.155 147.936C94.612 147.732 95.1135 147.631 95.6594 147.631C96.2222 147.631 96.73 147.732 97.1828 147.936C97.6398 148.139 98.0313 148.435 98.3571 148.824C98.6872 149.209 98.939 149.677 99.1125 150.227C99.2902 150.773 99.3791 151.393 99.3791 152.087ZM98.1667 152.671V152.074C98.1667 151.524 98.1096 151.037 97.9953 150.614C97.8853 150.191 97.7224 149.836 97.5065 149.548C97.2907 149.26 97.0262 149.042 96.7131 148.894C96.4042 148.746 96.0529 148.672 95.6594 148.672C95.2785 148.672 94.9336 148.746 94.6247 148.894C94.32 149.042 94.0576 149.26 93.8376 149.548C93.6218 149.836 93.4546 150.191 93.3361 150.614C93.2176 151.037 93.1584 151.524 93.1584 152.074V152.671C93.1584 153.225 93.2176 153.716 93.3361 154.144C93.4546 154.567 93.6239 154.924 93.8439 155.216C94.0682 155.504 94.3327 155.722 94.6374 155.87C94.9463 156.018 95.2912 156.092 95.6721 156.092C96.0699 156.092 96.4232 156.018 96.7321 155.87C97.041 155.722 97.3013 155.504 97.5129 155.216C97.7287 154.924 97.8916 154.567 98.0017 154.144C98.1117 153.716 98.1667 153.225 98.1667 152.671ZM104.755 148.577L101.696 157H100.445L103.968 147.758H104.774L104.755 148.577ZM107.32 157L104.254 148.577L104.235 147.758H105.041L108.577 157H107.32ZM107.161 153.579V154.582H101.969V153.579H107.161ZM112.575 157H110.646L110.658 156.003H112.575C113.236 156.003 113.786 155.866 114.226 155.591C114.666 155.312 114.996 154.922 115.216 154.423C115.44 153.919 115.552 153.331 115.552 152.658V152.093C115.552 151.564 115.489 151.095 115.362 150.684C115.235 150.269 115.049 149.92 114.803 149.637C114.558 149.349 114.257 149.131 113.902 148.983C113.551 148.835 113.147 148.761 112.69 148.761H110.608V147.758H112.69C113.295 147.758 113.847 147.859 114.346 148.062C114.846 148.261 115.275 148.551 115.635 148.932C115.999 149.309 116.278 149.766 116.473 150.303C116.667 150.836 116.765 151.437 116.765 152.106V152.658C116.765 153.327 116.667 153.93 116.473 154.467C116.278 155 115.997 155.455 115.629 155.832C115.265 156.209 114.825 156.499 114.308 156.702C113.796 156.901 113.219 157 112.575 157ZM111.299 147.758V157H110.074V147.758H111.299Z" fill="white"/>
<path d="M131.8 152.5L128.65 155.65L125.5 152.5" stroke="white"/>
<path d="M133.2 157.4H124.1V158.1H133.2V157.4Z" fill="white"/>
<path d="M128.65 155.237V147.6" stroke="white"/>
</g>
</svg>
