<svg width="448" height="254" viewBox="0 0 448 254" fill="none" xmlns="http://www.w3.org/2000/svg">
<g clip-path="url(#clip0_8929_264347)">
<path d="M356.5 254C392.675 254 422 251.761 422 249C422 246.239 392.675 244 356.5 244C320.325 244 291 246.239 291 249C291 251.761 320.325 254 356.5 254Z" fill="#EFEFEF"/>
<path d="M446.669 2.28976H362.733V54.3597H446.669V2.28976Z" fill="white" stroke="#EBEBEB" stroke-width="0.75" stroke-miterlimit="22.9256"/>
<path d="M382.447 23.6227H379.546V45.4405H382.447V23.6227Z" fill="#EBEBEB"/>
<path d="M393.817 13.7387H390.916V45.4357H393.817V13.7387Z" fill="#EBEBEB"/>
<path d="M405.302 28.4471H402.401V45.4405H405.302V28.4471Z" fill="#EBEBEB"/>
<path d="M416.797 21.0929H413.896V45.3205H416.797V21.0929Z" fill="#EBEBEB"/>
<path fill-rule="evenodd" clip-rule="evenodd" d="M428.286 26.0325H425.26V45.4405H428.166V26.0325H428.286Z" fill="#EBEBEB"/>
<path d="M376.64 12.4138H373.738V45.4405H376.64V12.4138Z" fill="#E0E0E0"/>
<path d="M388.009 16.5133H385.108V45.5605H388.009V16.5133Z" fill="#E0E0E0"/>
<path d="M399.499 24.3476H396.598V45.4405H399.499V24.3476Z" fill="#E0E0E0"/>
<path d="M410.989 15.7885H408.088V45.4405H410.989V15.7885Z" fill="#E0E0E0"/>
<path d="M422.479 16.8734H419.578V45.4405H422.479V16.8734Z" fill="#E0E0E0"/>
<path d="M433.969 22.2978H431.068V45.4405H433.969V22.2978Z" fill="#E0E0E0"/>
<path d="M448 0H360.433V2.89464H448V0Z" fill="#EBEBEB"/>
<path d="M430.277 62.5059H386.978V99.7474H430.277V62.5059Z" fill="#F5F5F5"/>
<path fill-rule="evenodd" clip-rule="evenodd" d="M389.639 97.0976V61.181H431.727V97.2176H389.639V97.0976Z" stroke="#E0E0E0" stroke-width="0.75" stroke-miterlimit="22.9256"/>
<path fill-rule="evenodd" clip-rule="evenodd" d="M394.841 75.2798H392.906V77.2095H394.841V75.2798ZM399.799 75.2798H397.863V77.2095H399.799V75.2798ZM402.7 75.2798H404.636V77.2095H402.7V75.2798ZM409.593 75.2798H407.657V77.2095H409.593V75.2798ZM412.619 75.2798H414.555V77.2095H412.619V75.2798ZM419.392 75.2798H417.456V77.2095H419.392V75.2798ZM422.413 75.2798H424.349V77.2095H422.413V75.2798ZM394.841 79.1393H392.906V81.0691H394.841V79.1393ZM397.863 79.1393H399.799V81.0691H397.863V79.1393ZM404.756 79.1393H402.82V81.0691H404.756V79.1393ZM407.662 79.1393H409.598V81.0691H407.662V79.1393ZM414.555 79.1393H412.619V81.0691H414.555V79.1393ZM417.456 79.1393H419.392V81.0691H417.456V79.1393ZM424.349 79.1393H422.413V81.0691H424.349V79.1393ZM392.906 83.114H394.841V85.0438H392.906V83.114ZM399.799 83.114H397.863V85.0438H399.799V83.114ZM402.7 83.114H404.636V85.0438H402.7V83.114ZM409.593 83.114H407.657V85.0438H409.593V83.114ZM412.619 83.114H414.555V85.0438H412.619V83.114ZM419.392 83.114H417.456V85.0438H419.392V83.114ZM422.413 83.114H424.349V85.0438H422.413V83.114ZM394.841 86.9735H392.906V89.0233H394.841V86.9735ZM397.863 86.9735H399.799V89.0233H397.863V86.9735ZM404.756 86.9735H402.82V89.0233H404.756V86.9735ZM407.662 86.9735H409.598V89.0233H407.662V86.9735ZM414.555 86.9735H412.619V89.0233H414.555V86.9735ZM417.456 86.9735H419.392V89.0233H417.456V86.9735ZM424.349 86.9735H422.413V89.0233H424.349V86.9735ZM392.906 90.9483H394.841V92.878H392.906V90.9483ZM399.799 90.9483H397.863V92.878H399.799V90.9483ZM402.7 90.9483H404.636V92.878H402.7V90.9483ZM409.593 90.9483H407.657V92.878H409.593V90.9483ZM412.619 90.9483H414.555V92.878H412.619V90.9483ZM419.392 90.9483H417.456V92.878H419.392V90.9483ZM422.413 90.9483H424.349V92.878H422.413V90.9483Z" fill="#E0E0E0"/>
<path d="M424.474 69.3753H393.026V70.3402H424.474V69.3753Z" fill="#E0E0E0"/>
<rect x="0.5" y="0.5" width="287" height="253" rx="3.5" fill="white"/>
<rect x="0.5" y="0.5" width="287" height="253" rx="3.5" stroke="#333333"/>
<rect y="254" width="254" height="74.262" transform="rotate(-90 0 254)" fill="#0056CF"/>
<g clip-path="url(#clip1_8929_264347)">
<path d="M54.8585 30.4545C55.2976 31.0909 55.2098 31.9091 54.6829 32.3636C54.0683 32.8182 53.1902 32.7273 52.7512 32.1818L49.6781 28.0909L46.6927 32.0909C46.2537 32.7273 45.3756 32.7273 44.761 32.2727C44.1463 31.8182 44.0585 31 44.4976 30.3636L48.0098 25.6364L44.4976 20.9091C44.0585 20.2727 44.2341 19.3636 44.761 18.9091C45.3756 18.4545 46.2537 18.6364 46.6927 19.1818L49.6781 23.2727L52.7512 19.3636C53.1902 18.7273 53.9805 18.6364 54.6829 19.0909C55.2976 19.5455 55.2976 20.4545 54.8585 21.0909L51.4342 25.7273L54.8585 30.4545ZM38.8781 29.9091C36.5951 29.9091 34.7512 28.0909 34.7512 25.7273C34.7512 23.4545 36.5951 21.5455 38.8781 21.5455C41.161 21.5455 43.0049 23.4545 43.0049 25.7273C42.9171 28.0909 41.0732 29.9091 38.8781 29.9091ZM26.761 29.9091C24.478 29.9091 22.6341 28.0909 22.6341 25.7273C22.6341 23.4545 24.478 21.5455 26.761 21.5455C29.0439 21.5455 30.8878 23.4545 30.8878 25.7273C30.8878 28.0909 29.0439 29.9091 26.761 29.9091ZM38.8781 18.8182C36.3317 18.8182 34.0488 20.2727 32.9073 22.4545C31.7659 20.2727 29.4829 18.8182 26.8488 18.8182C25.2683 18.8182 23.8634 19.3636 22.722 20.1818V14.3636C22.722 13.6364 22.1073 13 21.4049 13C20.6146 13 20 13.6364 20 14.3636V25.8182C20.0878 29.6364 23.0732 32.6364 26.761 32.6364C29.3951 32.6364 31.6781 31.0909 32.8195 28.9091C33.961 31.0909 36.2439 32.6364 38.7902 32.6364C42.5659 32.6364 45.639 29.5455 45.639 25.6364C45.7268 21.9091 42.6537 18.8182 38.8781 18.8182Z" fill="white"/>
</g>
<rect x="91" y="17" width="177" height="20" rx="4" fill="#EFEFEF"/>
<rect x="91.5" y="85.5" width="83.5" height="39" rx="3.5" fill="white"/>
<rect x="91.5" y="85.5" width="83.5" height="39" rx="3.5" stroke="#CCCCCC"/>
<rect x="97" y="91" width="28" height="28" rx="4" fill="#EFEFEF"/>
<rect x="184" y="85.5" width="83.5" height="39" rx="3.5" fill="white"/>
<rect x="184" y="85.5" width="83.5" height="39" rx="3.5" stroke="#CCCCCC"/>
<rect x="189.5" y="91" width="28" height="28" rx="4" fill="#EFEFEF"/>
<rect x="91.5" y="133.5" width="83.5" height="39" rx="3.5" fill="white"/>
<rect x="91.5" y="133.5" width="83.5" height="39" rx="3.5" stroke="#CCCCCC"/>
<rect x="97" y="139" width="28" height="28" rx="4" fill="#EFEFEF"/>
<rect x="184" y="133.5" width="83.5" height="39" rx="3.5" fill="white"/>
<rect x="184" y="133.5" width="83.5" height="39" rx="3.5" stroke="#CCCCCC"/>
<rect x="189.5" y="139" width="28" height="28" rx="4" fill="#EFEFEF"/>
<rect x="91.5" y="181.5" width="83.5" height="39" rx="3.5" fill="white"/>
<rect x="91.5" y="181.5" width="83.5" height="39" rx="3.5" stroke="#CCCCCC"/>
<rect x="97" y="187" width="28" height="28" rx="4" fill="#EFEFEF"/>
<rect x="184" y="181.5" width="83.5" height="39" rx="3.5" fill="white"/>
<rect x="184" y="181.5" width="83.5" height="39" rx="3.5" stroke="#CCCCCC"/>
<rect x="189.5" y="187" width="28" height="28" rx="4" fill="#EFEFEF"/>
<path fill-rule="evenodd" clip-rule="evenodd" d="M341.579 47.113C341.238 48.9467 340.589 51.5149 339.441 52.1438C338.663 52.5758 337.472 51.8894 335.652 48.8747C337.477 48.7835 339.427 48.2459 341.161 47.3386C341.3 47.2666 341.44 47.1898 341.579 47.113ZM333.034 48.6683C332.159 49.7148 331.376 50.4252 330.694 50.8909C329.681 51.5773 328.984 51.6829 328.595 51.5485C328.264 51.4285 328.096 50.8669 328.033 50.1612C327.918 48.9179 328.153 47.3674 328.341 46.5033C328.701 46.4553 329.076 46.4073 329.455 46.3689L329.647 46.6377C330.454 47.689 331.645 48.3515 333.034 48.6683Z" fill="#CCCCCC" stroke="#CCCCCC" stroke-width="0.216" stroke-miterlimit="22.9256"/>
<path fill-rule="evenodd" clip-rule="evenodd" d="M341.646 23.6391C341.685 21.8245 341.617 20.3076 341.469 19.0451C341.281 17.5042 340.959 16.3185 340.537 15.4208C340.224 14.7584 339.754 14.1199 339.182 13.6063C338.639 13.1118 337.996 12.7182 337.304 12.507C336.439 12.2429 335.599 12.2958 334.782 12.5454C334.018 12.7758 333.288 13.179 332.573 13.6495C332.217 13.8799 331.91 14.1007 331.617 14.3119C330.401 15.1808 329.431 15.8768 327.687 15.4064C327.567 15.3728 327.452 15.3152 327.356 15.2336C327.217 15.1136 327.106 14.9504 327.049 14.7584C326.986 14.5519 326.981 14.3119 327.053 14.0431C327.125 13.7647 327.289 13.4622 327.553 13.1502L327.587 13.1022C327.683 12.9678 327.803 12.8334 327.942 12.699C329.114 11.5565 331.453 10.6732 334.114 10.4908C336.795 10.3084 339.773 10.8604 342.175 12.5982C342.636 12.9294 343.073 13.3038 343.486 13.7311C344.461 14.7344 345.21 16.1313 345.6 18.0322C345.936 19.6788 346.003 21.6997 345.715 24.1671C345.58 23.9223 345.417 23.7063 345.225 23.5239C344.855 23.1782 344.384 22.967 343.827 22.9382C343.207 22.9046 342.472 23.111 341.646 23.6391Z" fill="#666666" stroke="#666666" stroke-width="0.216" stroke-miterlimit="22.9256"/>
<path fill-rule="evenodd" clip-rule="evenodd" d="M325.944 14.3839C325.079 15.3536 324.373 16.5969 323.84 18.0226C322.682 21.1333 322.341 25.1368 322.975 28.9627C323.614 32.8222 325.247 36.5281 328.019 39.0051C329.095 39.9652 330.344 40.7429 331.77 41.2757C331.982 41.3573 335.128 42.2406 338.865 39.0291C340.709 37.4402 342.741 34.8336 344.677 30.5949L343.351 29.99C341.516 34.0127 339.624 36.4561 337.919 37.9203C334.792 40.6085 332.433 39.9652 332.279 39.9076C331.03 39.4468 329.94 38.7651 328.999 37.9203C326.491 35.6785 325.012 32.2846 324.421 28.7275C323.825 25.1416 324.138 21.4069 325.209 18.5315C325.679 17.2737 326.289 16.1841 327.034 15.3536L325.944 14.3839Z" fill="#333333"/>
<path fill-rule="evenodd" clip-rule="evenodd" d="M341.613 24.6759C341.704 22.3909 341.646 20.538 341.464 19.045C341.276 17.5041 340.955 16.3184 340.532 15.4207C340.22 14.7583 339.749 14.1198 339.177 13.6062C338.635 13.1118 337.991 12.7181 337.299 12.5069C336.435 12.2429 335.594 12.2957 334.777 12.5453C334.014 12.7757 333.283 13.179 332.568 13.6494C332.212 13.8798 331.905 14.1006 331.612 14.3119C330.397 15.1807 329.426 15.8768 327.683 15.4063C327.562 15.3727 327.447 15.3151 327.351 15.2335C327.212 15.1135 327.101 14.9503 327.044 14.7583C326.981 14.5519 326.976 14.3119 327.049 14.043C327.121 13.7646 327.284 13.4622 327.548 13.1502L327.582 13.1022C327.678 12.9677 327.798 12.8333 327.937 12.6989C329.109 11.5564 331.449 10.6732 334.11 10.4907C336.79 10.3083 339.768 10.8604 342.17 12.5981C342.631 12.9293 343.068 13.3038 343.481 13.731C344.456 14.7343 345.206 16.1312 345.595 18.0322C345.955 19.8035 346.003 22.0021 345.643 24.7239L345.59 25.1367C345.407 26.5625 345.292 27.4505 344.413 28.6698C344.288 28.8427 344.144 29.0299 343.976 29.2315C343.832 29.4091 343.664 29.6011 343.472 29.8027L343.64 30.4076L344.538 30.7964C344.725 30.5948 344.913 30.3836 345.095 30.158C345.263 29.9563 345.427 29.7451 345.59 29.5195C346.68 28.0026 346.815 26.9753 347.031 25.324L347.084 24.9111C347.468 22.0213 347.41 19.6595 347.017 17.7393C346.57 15.5408 345.681 13.9038 344.519 12.7133C344.048 12.2285 343.544 11.8013 343.015 11.4172C340.306 9.45386 336.982 8.83461 333.999 9.03622C330.997 9.23784 328.307 10.2891 326.904 11.6524C326.722 11.8301 326.559 12.0173 326.414 12.2093C326.001 12.6941 325.747 13.1886 325.622 13.6638C325.478 14.2062 325.497 14.7247 325.636 15.1807C325.78 15.6512 326.049 16.0496 326.395 16.3424C326.659 16.5632 326.967 16.7265 327.293 16.8177C329.705 17.4657 330.92 16.592 332.452 15.4976C332.745 15.2911 333.048 15.0703 333.355 14.8687C333.966 14.4655 334.58 14.1246 335.19 13.9374C335.748 13.7694 336.305 13.731 336.862 13.899C337.333 14.043 337.784 14.3215 338.178 14.6815C338.606 15.0703 338.961 15.5504 339.197 16.04C339.557 16.7985 339.831 17.8353 339.999 19.2131C340.157 20.5332 340.22 22.1461 340.157 24.1095L340.527 24.6279L341.613 24.6759Z" fill="#333333"/>
<path fill-rule="evenodd" clip-rule="evenodd" d="M341.291 25.1272C342.314 24.2247 343.15 23.8743 343.784 23.9031C344.101 23.9175 344.36 24.0375 344.567 24.2247C344.788 24.4311 344.946 24.724 345.042 25.0744C345.297 25.9865 345.105 27.2394 344.384 28.3675C344.202 28.6555 343.894 28.9771 343.52 29.2363C343.337 29.3611 343.14 29.4667 342.938 29.5436C342.175 29.8268 342.554 30.6668 343.015 30.542C343.395 30.4364 343.755 30.2588 344.072 30.0428C344.557 29.7116 344.961 29.2795 345.206 28.8955C346.08 27.5274 346.301 25.9769 345.984 24.82C345.84 24.2967 345.585 23.8455 345.23 23.5191C344.86 23.1734 344.389 22.9622 343.832 22.9334C342.953 22.8902 341.848 23.3222 340.58 24.4551C340.128 24.8632 340.676 25.6696 341.291 25.1272Z" fill="#333333"/>
<path fill-rule="evenodd" clip-rule="evenodd" d="M343.044 25.6072C343.188 25.5784 343.313 25.5784 343.419 25.6024C343.539 25.6312 343.635 25.6984 343.692 25.7896C343.76 25.9 343.798 26.0488 343.798 26.2216C343.798 26.5817 343.649 27.0425 343.342 27.5177C343.236 27.681 343.063 27.8682 342.847 28.0122C342.765 28.0698 342.674 28.1226 342.578 28.161C342.064 28.3818 342.232 28.7994 342.645 28.6554C342.813 28.5978 342.977 28.5114 343.121 28.4154C343.39 28.233 343.616 27.993 343.75 27.7818C344.106 27.2249 344.283 26.6729 344.283 26.2216C344.283 25.9528 344.221 25.7128 344.101 25.5256C343.971 25.324 343.779 25.1848 343.524 25.1271C343.375 25.0935 343.203 25.0887 343.006 25.1175C342.367 25.2232 342.439 25.7272 343.044 25.6072Z" fill="#333333"/>
<path fill-rule="evenodd" clip-rule="evenodd" d="M342.545 46.0809L342.007 35.1696L340.546 35.2368L341.089 46.1481L342.545 46.0809Z" fill="#333333"/>
<path fill-rule="evenodd" clip-rule="evenodd" d="M330.766 46.0233L331.564 40.1716L330.118 39.9748L329.316 45.8265L330.766 46.0233Z" fill="#333333"/>
<path fill-rule="evenodd" clip-rule="evenodd" d="M341.843 45.4857L341.829 45.5673C341.632 46.9018 340.988 51.2941 339.441 52.1438C338.577 52.6238 337.203 51.7262 335.022 47.7802L333.74 48.4811C336.454 53.3967 338.558 54.2992 340.143 53.4207C342.328 52.2158 343.054 47.2714 343.275 45.7737L343.289 45.6921L341.843 45.4857Z" fill="#333333"/>
<path fill-rule="evenodd" clip-rule="evenodd" d="M327.044 45.6537C326.847 46.3641 326.415 48.5723 326.578 50.2957C326.693 51.5294 327.121 52.571 328.11 52.9215C328.86 53.1855 330.046 53.0943 331.516 52.0958C332.505 51.419 333.673 50.3101 334.965 48.5675L333.793 47.6987C332.606 49.2924 331.564 50.2957 330.69 50.8909C329.676 51.5774 328.98 51.683 328.591 51.5486C328.259 51.4286 328.091 50.8669 328.029 50.1613C327.884 48.6443 328.273 46.681 328.446 46.0473L327.044 45.6537Z" fill="#333333"/>
<path fill-rule="evenodd" clip-rule="evenodd" d="M332.275 28.9867C329.887 29.9324 329.047 28.8235 329.08 27.7914C329.119 26.3993 330.425 26.6777 330.161 24.4215C331.295 26.0104 328.739 27.7722 330.267 28.6026C330.593 28.7803 331.112 28.9627 332.275 28.9867Z" fill="#333333"/>
<path fill-rule="evenodd" clip-rule="evenodd" d="M330.997 32.3422C333.788 34.5936 334.801 30.5996 335.291 29.9852C335.152 34.944 331.348 34.5984 330.997 32.3422Z" fill="#333333"/>
<path fill-rule="evenodd" clip-rule="evenodd" d="M333.178 23.6006C334.662 20.0915 338.601 22.0933 338.615 23.9703C338.428 23.7639 337.602 23.2694 337.131 23.2118C336.968 25.3 334.47 25.7368 333.797 23.5094C333.533 23.495 333.375 23.4806 333.178 23.6006Z" fill="#333333"/>
<path fill-rule="evenodd" clip-rule="evenodd" d="M324.685 23.4518C326.035 19.8899 330.051 21.7429 330.137 23.6198C329.94 23.423 329.099 22.9574 328.624 22.919C328.542 25.012 326.059 25.54 325.305 23.3414C325.036 23.3318 324.877 23.327 324.685 23.4518Z" fill="#333333"/>
<path fill-rule="evenodd" clip-rule="evenodd" d="M291.555 46.4502C290.767 42.9508 290.969 40.9379 291.267 39.4594L291.31 39.2529C291.401 38.7921 291.541 38.2785 291.67 37.7888C291.935 36.7903 292.175 35.8879 292.06 35.2302C291.915 34.3997 291.435 33.9725 290.383 34.1549C288.678 34.4477 287.861 36.0271 287.174 37.3472C286.809 38.0528 286.502 38.6433 286.411 38.6289C286.315 38.5953 286.219 38.5521 286.122 38.4993C286.017 38.4417 285.911 38.3649 285.796 38.2833C285.594 38.1344 285.263 37.8416 284.854 37.4864C282.544 35.451 278.005 31.4523 274.849 34.1213C273.974 34.8606 273.513 36.3007 273.998 38.2929C274.354 39.7426 275.219 41.5331 276.818 43.5925C276.881 43.6693 277.15 43.9669 277.721 44.3942C278.029 44.6198 278.437 44.8982 278.98 45.2198C279.537 45.5511 280.2 45.7959 280.997 46.0935C282.193 46.5399 283.721 47.1064 285.508 48.2009L286.719 47.0936C284.807 45.9223 282.765 45.191 281.506 44.7254C280.767 44.4518 280.157 44.2213 279.724 43.9669C279.239 43.6789 278.869 43.4293 278.591 43.2229C278.168 42.9108 278.009 42.7476 277.976 42.7044C276.511 40.8131 275.728 39.2193 275.415 37.9568C275.074 36.5695 275.305 35.6526 275.79 35.2398C277.981 33.3869 281.895 36.8335 283.884 38.5857C284.312 38.9601 284.657 39.2673 284.922 39.4642C285.075 39.5746 285.234 39.6802 285.397 39.7762C285.575 39.877 285.757 39.9586 285.945 40.021C287.213 40.4338 287.78 39.3393 288.462 38.024C288.995 36.9968 289.634 35.7726 290.619 35.5998C290.628 35.5998 290.604 35.4126 290.614 35.4846C290.671 35.8303 290.47 36.5887 290.249 37.4288C290.119 37.9184 289.984 38.4321 289.874 38.9841L289.831 39.1905C289.494 40.8563 289.269 42.994 290.119 46.7815L291.555 46.4502Z" fill="#333333"/>
<path fill-rule="evenodd" clip-rule="evenodd" d="M288.125 47.3436C287.433 47.6173 287.43 47.0172 286.906 47.3436C285.177 46.3307 282.669 45.1429 281.506 44.7109C280.767 44.4372 280.156 44.2068 279.724 43.9524C279.239 43.6644 278.869 43.4148 278.591 43.2083C278.168 42.8963 278.009 42.7331 277.976 42.6899C277.841 42.5171 277.716 42.3491 277.591 42.1811C276.371 40.5105 275.694 39.0896 275.415 37.9375C275.074 36.5502 275.305 35.6333 275.79 35.2205C276.011 35.0333 276.251 34.8989 276.501 34.8124C278.749 34.0444 282.092 36.987 283.884 38.5664C284.311 38.9408 284.657 39.248 284.922 39.4448C285.075 39.5552 285.234 39.6608 285.397 39.7569C285.575 39.8577 285.757 39.9393 285.945 40.0017C287.213 40.4145 287.78 39.32 288.462 38.0047C288.995 36.9774 289.634 35.7533 290.623 35.5805C290.628 35.9597 290.45 36.651 290.249 37.4095C290.119 37.8991 289.984 38.4127 289.874 38.9648L289.831 39.1712C289.518 40.7313 289.364 43.4628 290.031 46.6982C289.349 46.8806 288.874 47.0508 288.125 47.3436Z" fill="#FEFEFE"/>
<path fill-rule="evenodd" clip-rule="evenodd" d="M334.196 88.2955C333.034 88.0843 331.914 87.6715 330.387 86.9082C329.316 86.3706 328.446 85.8089 327.75 85.2425C327.154 84.7577 326.684 84.268 326.323 83.7832C326.487 85.3433 326.919 87.0618 327.495 88.7852C328.321 91.2526 329.436 93.7296 330.483 95.8034C330.987 94.4209 331.66 92.9567 332.414 91.4974C332.976 90.4125 333.581 89.3324 334.196 88.2955Z" fill="#FF6F3D" stroke="#FF6F3D" stroke-width="0.5669" stroke-miterlimit="22.9256"/>
<path fill-rule="evenodd" clip-rule="evenodd" d="M326.251 82.4102C326.237 84.2968 326.746 86.5338 327.495 88.7852C328.321 91.2526 329.436 93.7296 330.483 95.8033C330.987 94.4208 331.66 92.9567 332.414 91.4974C333.74 88.9388 335.315 86.3946 336.694 84.3592L337.823 85.1177C336.463 87.1242 334.912 89.6252 333.62 92.1214C332.611 94.0752 331.756 96.029 331.28 97.7379L330.829 99.3652L330.027 97.8771C328.768 95.5345 327.255 92.3759 326.203 89.222C325.411 86.8458 324.873 84.4648 324.887 82.415L326.251 82.4102Z" fill="#333333"/>
<path fill-rule="evenodd" clip-rule="evenodd" d="M319.44 63.1799C317.149 66.3721 313.267 70.0156 309.136 72.5502C305.543 74.7536 301.787 76.1025 298.819 75.5313C298.492 75.4689 297.109 75.0177 294.928 71.5614C292.656 67.9563 289.711 61.2549 286.608 48.8171C287.074 48.6155 287.699 48.4283 288.352 48.2794C289.284 48.0634 290.264 47.9194 290.989 47.8666C291.45 48.9611 291.945 50.214 292.459 51.5149C294.544 56.8097 296.974 62.9879 300.961 67.1882L301.393 67.6442L301.907 67.2842C303.252 66.3481 306.84 62.1094 310.174 58.1635C312.907 54.9328 315.467 51.9037 316.342 51.2077C317.591 50.2092 319.137 49.1723 321.284 48.2938C323.355 47.4442 325.987 46.7433 329.455 46.3641L329.647 46.6329C330.786 48.1258 332.698 48.8315 334.84 48.8843C336.886 48.9323 339.168 48.3803 341.161 47.3386C341.718 47.0505 342.252 46.7241 342.751 46.3641C345.018 46.8009 348.208 48.2074 351.268 49.9932C354.356 51.7933 357.282 53.9631 358.977 55.9073C359.631 57.6834 360.404 59.6756 361.225 61.8022C365.443 72.6847 371.068 87.1963 369.021 94.7665C369.007 94.8145 368.743 95.1793 367.287 95.3761C366.346 95.5009 364.996 95.4865 363.07 95.1505C361 94.7905 358.233 93.9264 354.659 92.5487C351.042 91.1566 346.618 89.246 341.272 86.8074L340.667 88.1323C346.051 90.5901 350.504 92.5103 354.135 93.912C357.81 95.3281 360.668 96.2162 362.83 96.5906C364.914 96.9507 366.413 96.9651 367.489 96.821C369.804 96.509 370.395 95.3137 370.438 95.1505C372.61 87.1242 366.884 72.3534 362.59 61.2789C361.749 59.1091 360.961 57.0834 360.303 55.2832L360.255 55.1584L360.169 55.0576C358.382 52.9646 355.269 50.6364 352.003 48.7307C348.674 46.7865 345.148 45.2696 342.684 44.8712L342.377 44.8232L342.127 45.0152C341.613 45.404 341.065 45.7544 340.489 46.0521C338.707 46.9785 336.684 47.4778 334.874 47.4298C333.159 47.3866 331.66 46.8585 330.81 45.7496C330.69 45.5912 330.584 45.428 330.493 45.2552L330.262 44.8184L329.772 44.8664C325.92 45.2456 323.009 46.0089 320.732 46.9449C318.436 47.8858 316.774 48.9995 315.434 50.07C314.43 50.8717 311.831 53.9439 309.06 57.2226C306.158 60.6549 303.055 64.3224 301.561 65.6809C298.04 61.6966 295.773 55.9409 293.823 50.9821C293.256 49.5371 292.713 48.1594 292.137 46.8297L291.945 46.3881H291.464C290.643 46.3929 289.284 46.5657 288.035 46.8537C286.988 47.0985 285.989 47.4298 285.374 47.8234L284.937 48.1066L285.061 48.6107C288.261 61.5861 291.335 68.5755 293.703 72.339C296.201 76.3042 298.098 76.8802 298.554 76.9666C301.917 77.6147 306.029 76.1697 309.905 73.7935C314.233 71.1389 318.311 67.2986 320.698 63.9335C321.51 62.791 320.305 61.9798 319.44 63.1799Z" fill="#333333"/>
<path d="M359.693 85.6505C358.559 84.2451 354.071 76.2774 352.968 73.2751C353.016 70.9853 353.131 68.6667 353.309 66.3145C353.396 65.1864 351.945 64.9512 351.854 66.1801L359.693 85.6505ZM359.693 85.6505C359.8 85.66 359.903 85.6653 360.004 85.6705C360.058 85.6733 360.111 85.676 360.164 85.6793M359.693 85.6505L360.164 85.6793M360.164 85.6793C361.461 85.7417 361.302 87.1963 360.149 87.1434M360.164 85.6793L342.643 86.6014M342.643 86.6014C342.975 86.2965 343.283 85.9629 343.568 85.6073C343.914 85.1753 344.221 84.7144 344.495 84.2296C348.544 85.469 356.211 86.9609 360.149 87.1434M342.643 86.6014C342.533 86.5515 342.423 86.5014 342.312 86.451L342.002 87.1338L342.449 87.7358C342.559 87.6542 342.667 87.5699 342.772 87.4831C352.564 91.9104 359.1 94.4562 363.065 95.1457C363.865 95.2853 368.611 96.112 369.017 94.7617L342.643 86.6014ZM360.149 87.1434L360.182 86.4327L359.282 86.3349M360.149 87.1434L360.182 86.4327C360.244 86.4395 360.285 86.4514 360.311 86.4615C360.343 86.4739 360.352 86.4839 360.35 86.4815C360.347 86.4789 360.34 86.47 360.334 86.4544C360.328 86.4395 360.326 86.4241 360.326 86.4102C360.327 86.4043 360.328 86.399 360.329 86.3942C360.33 86.388 360.332 86.3828 360.335 86.3787C360.338 86.371 360.342 86.3679 360.342 86.3683C360.342 86.3684 360.341 86.3692 360.339 86.3705C360.335 86.373 360.326 86.3775 360.312 86.382C360.289 86.3889 360.249 86.3972 360.184 86.3943C360.166 86.3934 360.148 86.3925 360.129 86.3916C360.126 86.3915 360.123 86.3913 360.119 86.3911C359.962 86.3834 359.799 86.3735 359.63 86.3616C359.516 86.3536 359.4 86.3447 359.282 86.3349M359.282 86.3349L359.109 86.1216C358.492 85.3571 357.054 82.9498 355.662 80.4237C354.263 77.8846 352.838 75.0956 352.264 73.5338L352.258 73.5159C352.191 77.2046 352.289 80.852 352.554 84.4385L352.622 85.3684C355.045 85.8231 357.446 86.1836 359.282 86.3349ZM359.676 55.6436L359.629 55.5138L359.538 55.4095C355.35 50.6085 349.004 47.6165 343.333 45.4254L342.468 45.0913L342.322 46.0066C342.165 46.9892 341.924 48.498 341.492 49.8877C341.277 50.5818 341.022 51.2197 340.722 51.7343C340.418 52.2553 340.1 52.5949 339.785 52.7689L339.784 52.7692C339.787 52.768 339.785 52.7683 339.78 52.7695C339.749 52.7763 339.585 52.8122 339.235 52.7396C338.866 52.6627 338.393 52.4838 337.882 52.1731C336.904 51.5785 335.828 50.5272 335.103 48.8977L335.018 48.701L335.015 48.6927L333.935 46.0948L333.622 48.5748C333.47 48.6861 333.256 48.841 333.001 49.0249C332.468 49.4084 331.752 49.9164 331.02 50.4168C330.284 50.9191 329.542 51.4058 328.953 51.7511C328.656 51.9252 328.417 52.0524 328.245 52.1277C328.228 52.1351 328.213 52.1416 328.199 52.1474C327.648 51.8687 327.344 51.2181 327.266 50.173C327.184 49.0679 327.387 47.826 327.541 46.9631L327.718 45.9636L326.711 46.0872C322.779 46.5694 318.968 48.1389 315.869 50.6166C313.014 52.8898 310.859 55.7823 308.771 58.5839C308.644 58.7537 308.518 58.9232 308.392 59.0922C306.295 61.9 304.221 64.5839 301.487 66.6409C297.635 62.3586 295.517 57.0721 293.349 51.6625C292.803 50.3008 292.254 48.9313 291.674 47.568L291.466 47.0783L290.935 47.1135C289.432 47.2129 287.762 47.4936 286.305 48.124L285.721 48.3767L285.876 48.994C286.022 49.5815 286.204 50.396 286.423 51.3764C287.117 54.49 288.184 59.276 289.691 63.7715C290.684 66.7328 291.884 69.6236 293.326 71.876C294.752 74.1028 296.51 75.8553 298.673 76.2633C302.798 77.0563 307.164 75.2286 310.917 72.6177C313.121 71.0846 315.163 69.2474 316.889 67.415L316.885 67.5176C316.321 79.426 316.125 92.3728 318.318 104.332C318.617 105.963 319.644 107.404 321.18 108.127C325.871 110.334 330.986 111.342 336.028 111.559C336.732 111.589 337.42 111.621 338.094 111.652C343.831 111.918 348.55 112.136 353.372 110.832C354.251 110.594 354.968 109.902 355.176 108.977C355.771 106.325 355.527 103.586 355.064 100.94C354.856 99.753 354.601 98.5686 354.352 97.414C354.323 97.2805 354.295 97.1473 354.266 97.0147C353.99 95.7277 353.728 94.4806 353.546 93.2722L353.49 92.8948C357.524 94.485 360.636 95.4845 362.936 95.8845C362.936 95.8846 362.936 95.8846 362.937 95.8846L362.938 95.885C363.342 95.9553 364.769 96.2043 366.158 96.2618C366.847 96.2903 367.578 96.2744 368.185 96.1443C368.723 96.0291 369.503 95.7505 369.735 94.9773L369.738 94.9674L369.741 94.9574C371.471 88.5555 369.948 81.5276 367.536 74.7576C366.326 71.3624 364.88 67.9995 363.48 64.7834C363.37 64.5307 363.261 64.279 363.152 64.0283C361.866 61.0784 360.641 58.266 359.676 55.6436ZM338.171 82.9678C338.09 82.9953 338.01 83.0228 337.929 83.0502C337.783 83.1002 337.637 83.1498 337.493 83.1986C336.75 83.4506 336.045 83.6817 335.385 83.8527C334.01 84.2092 333.066 84.2364 332.476 83.8964C331.96 83.5988 331.445 82.8374 331.445 80.7939C331.445 80.0816 331.665 77.7646 332.008 74.6164C332.348 71.4954 332.801 67.6184 333.255 63.8347C333.688 60.2234 334.121 56.6989 334.456 54.0008C334.475 54.1206 334.495 54.2421 334.516 54.3653C335.002 57.3189 335.642 61.2239 336.279 65.1181C336.917 69.0122 337.551 72.8952 338.027 75.8047L338.601 79.3185L338.761 80.3022L338.786 80.4539C338.775 80.4851 338.763 80.5196 338.75 80.5574C338.685 80.745 338.598 81.0121 338.509 81.3369C338.387 81.7828 338.256 82.3462 338.171 82.9678ZM339.93 86.2052C339.65 85.5819 339.556 84.8401 339.579 84.0777C339.79 84.0086 340.001 83.9413 340.211 83.8766C341.686 83.4231 343.002 83.1476 344.072 83.2924C345.156 83.6144 346.813 84.0812 348.507 84.508C347.081 84.1777 345.772 83.8363 344.714 83.5125L344.138 83.3361L343.842 83.8608C343.586 84.3135 343.301 84.7405 342.982 85.1386C342.557 85.6703 342.078 86.1424 341.554 86.5319L340.664 87.1937C340.33 86.9101 340.096 86.5729 339.93 86.2052ZM328.094 52.1851C328.076 52.1895 328.079 52.1868 328.098 52.1839C328.096 52.1844 328.095 52.1848 328.094 52.1851ZM320.045 63.612C320.069 63.5777 320.093 63.5475 320.116 63.5209L320.689 63.9287L320.045 63.612ZM320.078 63.4931C320.056 63.5245 320.033 63.556 320.011 63.5875L319.435 63.1751L320.078 63.4931Z" fill="#EFEFEF" stroke="#333333" stroke-width="1.5" stroke-miterlimit="22.9256"/>
<path d="M335.282 96.7708L336.504 111.535" stroke="#333333" stroke-width="1.5"/>
<path fill-rule="evenodd" clip-rule="evenodd" d="M365.971 236.57C364.828 237.861 363.377 239.249 361.888 240.67C359.477 242.974 356.97 245.369 355.716 247.419C354.774 248.96 354.601 250.294 355.937 251.173C356.749 251.274 359.65 250.05 363.012 248.35C366.774 246.449 371.01 243.953 373.609 241.98C373.628 241.961 373.681 241.923 373.7 241.913C373.753 241.875 373.839 241.817 373.94 241.731C374.478 241.265 375.328 240.002 372.696 236.945L373.806 235.994C377.303 240.06 375.79 242.062 374.887 242.839C374.757 242.95 374.627 243.041 374.541 243.103L374.473 243.151C371.793 245.182 367.484 247.726 363.67 249.651C359.9 251.557 356.513 252.872 355.447 252.56L355.356 252.536L355.274 252.483C352.901 251.039 353.05 248.984 354.472 246.661C355.826 244.448 358.401 241.985 360.884 239.614C362.354 238.207 363.791 236.839 364.881 235.605L365.971 236.57Z" fill="#333333"/>
<path fill-rule="evenodd" clip-rule="evenodd" d="M325.027 235.615C323.552 236.22 321.755 236.839 319.92 237.468C316.231 238.73 312.384 240.05 310.174 241.663C308.214 243.099 307.455 244.74 308.906 246.713L308.964 246.79L309.041 246.853C309.92 247.558 314.276 247.674 319.19 247.371C323.946 247.078 329.306 246.435 332.477 245.595L332.554 245.576C333.288 245.413 336.252 244.736 334.835 239.522C334.782 239.33 334.398 238.486 334.043 237.689C333.75 237.041 333.471 236.421 333.437 236.325L332.049 236.781C332.097 236.93 332.395 237.593 332.712 238.289C333.048 239.038 333.409 239.83 333.428 239.902C334.446 243.656 332.674 244.054 332.237 244.15L332.131 244.174C329.052 244.99 323.792 245.619 319.109 245.907C314.656 246.181 310.799 246.176 310.025 245.749C309.31 244.678 309.833 243.718 311.048 242.83C313.071 241.351 316.813 240.07 320.406 238.836C322.231 238.212 324.023 237.597 325.593 236.949L325.027 235.615Z" fill="#333333"/>
<path fill-rule="evenodd" clip-rule="evenodd" d="M361.889 240.67C359.477 242.974 356.97 245.369 355.716 247.419C354.775 248.96 354.602 250.294 355.937 251.173C356.749 251.274 359.65 250.05 363.013 248.35C366.774 246.449 371.01 243.953 373.609 241.98C373.628 241.961 373.681 241.923 373.7 241.913C373.753 241.875 373.84 241.817 373.94 241.731C374.233 241.481 374.613 241.001 374.488 240.132C374.397 239.47 374.008 238.577 373.061 237.386C372.077 237.813 370.833 237.996 369.589 237.962C368.138 237.924 366.649 237.597 365.563 237.026C364.66 238.01 363.599 239.038 362.499 240.094C362.292 240.286 362.09 240.478 361.889 240.67Z" fill="#FEFEFE"/>
<path fill-rule="evenodd" clip-rule="evenodd" d="M333.418 239.906C333.442 239.993 333.466 240.079 333.485 240.166C334.355 243.68 332.654 244.064 332.227 244.16L332.121 244.184C329.042 245 323.782 245.628 319.099 245.916C314.646 246.19 310.789 246.185 310.016 245.758C309.3 244.688 309.823 243.728 311.039 242.839C312.268 241.937 314.142 241.111 316.226 240.324C317.567 239.82 318.988 239.33 320.396 238.85C322.029 238.289 323.633 237.741 325.079 237.165C325.978 237.756 327.366 238.365 328.961 238.471C330.065 238.543 331.271 238.375 332.477 237.794C332.549 237.953 332.626 238.125 332.702 238.293C333.039 239.042 333.394 239.834 333.418 239.906Z" fill="#FEFEFE"/>
<path fill-rule="evenodd" clip-rule="evenodd" d="M354.16 110.099C357.546 121.173 361.331 141.177 364.646 163.796C369.425 187.092 372.504 213.331 372.461 235.562C371.582 236.047 370.299 236.33 369.022 236.359C367.754 236.388 366.524 236.176 365.741 235.682C364.641 231.496 360.207 213.519 354.251 192.666C349.227 175.067 342.622 155.952 339.154 142.545L337.765 137.48C337.679 150.072 336.834 163.297 336.286 171.875C336.123 174.458 335.983 176.618 335.897 178.265C335.892 178.375 335.897 178.797 335.907 179.503C335.988 185.614 336.353 213.629 332.016 236.388C330.997 236.921 329.974 237.074 329.042 237.017C327.774 236.935 326.665 236.46 325.939 235.989C325.858 229.408 325.637 219.951 325.017 209.87C324.383 199.564 323.321 188.571 321.554 179.253C321.41 178.495 318.749 163.239 318.595 142.602C318.518 132.291 319.07 120.636 320.876 108.774C325.646 111.016 330.848 112.048 335.998 112.274C342.454 112.552 348.823 111.563 354.16 110.099Z" fill="#404040" stroke="#404040" stroke-width="0.216" stroke-miterlimit="22.9256"/>
<path fill-rule="evenodd" clip-rule="evenodd" d="M337.77 137.336C337.688 149.971 336.838 163.263 336.291 171.875C336.127 174.458 335.988 176.618 335.902 178.265C335.897 178.375 335.902 178.797 335.911 179.503C335.993 185.614 336.358 213.629 332.02 236.388C331.002 236.921 329.979 237.074 329.047 237.017C327.779 236.935 326.669 236.46 325.944 235.989C325.862 229.408 325.641 219.951 325.022 209.87C324.388 199.564 323.326 188.571 321.558 179.253C321.414 178.495 318.753 163.239 318.599 142.602C318.523 132.003 319.104 119.993 321.035 107.795L319.594 107.569C317.653 119.844 317.067 131.941 317.144 142.602C317.298 163.379 319.978 178.749 320.122 179.513C321.88 188.763 322.932 199.693 323.566 209.947C324.2 220.234 324.416 229.821 324.493 236.378L324.498 236.738L324.786 236.954C325.656 237.602 327.178 238.351 328.961 238.466C330.243 238.548 331.655 238.308 333.053 237.482L333.337 237.314L333.399 236.993C337.828 214.042 337.453 185.648 337.376 179.479C337.367 178.826 337.362 178.428 337.367 178.332C337.448 176.776 337.588 174.583 337.756 171.962C338.236 164.463 338.942 153.427 339.168 142.338L337.77 137.336Z" fill="#333333"/>
<path fill-rule="evenodd" clip-rule="evenodd" d="M329.364 123.367C330.296 124.203 331.348 124.947 332.515 125.494C333.721 126.055 335.056 126.415 336.507 126.459L337.098 126.478L337.165 127.059C339.057 143.284 344.183 159.365 350.235 178.341C355.404 194.552 361.245 212.875 366.332 235.212C367.235 235.62 368.215 235.721 369.17 235.653C370.083 235.586 370.981 235.36 371.769 235.087C371.601 228.467 371.222 218.453 370.367 207.816C369.761 200.265 368.921 192.421 367.749 185.302C367.585 184.318 367.427 183.382 367.263 182.489C367.1 181.586 366.927 180.698 366.754 179.829C366.615 179.148 366.432 178.289 366.25 177.453C365.77 175.231 365.328 173.195 365.078 170.661C364.91 168.947 364.722 167.18 364.521 165.38C364.314 163.532 364.098 161.761 363.882 160.057C362.681 150.71 361.144 141.638 359.41 133.299C357.608 124.649 355.591 116.805 353.511 110.296L354.803 109.888C356.898 116.455 358.929 124.342 360.736 133.026C362.479 141.378 364.021 150.489 365.227 159.889C365.462 161.722 365.678 163.508 365.875 165.231C366.067 166.945 366.255 168.712 366.432 170.531C366.668 172.951 367.105 174.967 367.58 177.16C367.729 177.852 367.883 178.567 368.085 179.561C368.263 180.439 368.436 181.337 368.599 182.244C368.772 183.209 368.94 184.15 369.089 185.076C370.266 192.258 371.116 200.135 371.721 207.705C372.595 218.583 373.633 229.326 373.796 235.985L373.806 236.465L373.354 236.637C371.173 237.463 366.586 237.977 364.939 235.908L364.871 235.601C359.775 213.159 354.121 195.004 348.938 178.745C342.934 159.908 337.837 143.918 335.878 127.774C334.451 127.659 333.14 127.275 331.934 126.713C330.608 126.094 329.422 125.254 328.389 124.313C327.471 123.478 328.447 122.542 329.364 123.367Z" fill="#333333"/>
<path fill-rule="evenodd" clip-rule="evenodd" d="M334.869 47.425C336.675 47.4682 338.702 46.9738 340.484 46.0473C340.681 45.9465 340.873 45.8361 341.065 45.7209L340.642 37.2242C340.037 37.9394 339.442 38.5347 338.865 39.0291C335.123 42.2454 331.982 41.3573 331.77 41.2757C331.655 41.2325 331.54 41.1893 331.429 41.1413L330.8 45.7353C330.8 45.7353 330.8 45.7401 330.805 45.7401C331.655 46.8538 333.154 47.3866 334.869 47.425Z" fill="#FEFEFE"/>
<path fill-rule="evenodd" clip-rule="evenodd" d="M333.178 23.6007C334.662 20.0916 338.601 22.0934 338.615 23.9703C338.428 23.7639 337.602 23.2694 337.131 23.2118C336.968 25.3 334.47 25.7369 333.797 23.5095C333.528 23.4951 333.375 23.4807 333.178 23.6007ZM332.28 39.9076C332.433 39.9652 334.792 40.6085 337.919 37.9203C339.552 36.5185 341.353 34.224 343.107 30.5132C343.078 30.5228 343.044 30.5324 343.015 30.5421C342.554 30.6669 342.175 29.8316 342.938 29.5436C343.14 29.4668 343.342 29.3612 343.52 29.2363C343.899 28.9771 344.202 28.6555 344.384 28.3675C345.105 27.2394 345.292 25.9865 345.042 25.0744C344.946 24.724 344.783 24.4263 344.567 24.2247C344.365 24.0327 344.101 23.9175 343.784 23.9031C343.15 23.8743 342.309 24.2199 341.291 25.1272C340.724 25.6312 340.22 24.9832 340.494 24.5608L340.176 24.1143C340.239 22.151 340.176 20.538 340.018 19.2179C339.85 17.8402 339.576 16.8033 339.216 16.0449C338.985 15.5552 338.63 15.0752 338.197 14.6863C337.804 14.3263 337.352 14.0479 336.881 13.9039C336.324 13.7311 335.762 13.7743 335.21 13.9423C334.6 14.1295 333.985 14.4703 333.375 14.8736C333.067 15.0752 332.765 15.2912 332.472 15.5024C330.944 16.5969 329.729 17.4658 327.313 16.8225C326.986 16.7361 326.679 16.5729 326.415 16.3473C326.386 16.3233 326.357 16.2993 326.333 16.2753C325.896 16.9377 325.521 17.701 325.204 18.5411C324.133 21.4213 323.821 25.1512 324.416 28.7371C325.007 32.2942 326.487 35.6881 328.994 37.9299C329.94 38.7651 331.031 39.4468 332.28 39.9076ZM343.044 25.6072C342.439 25.7273 342.372 25.2232 343.006 25.1176C343.198 25.0888 343.371 25.0888 343.525 25.1272C343.779 25.1848 343.971 25.324 344.101 25.5256C344.221 25.7129 344.283 25.9529 344.283 26.2217C344.283 26.6681 344.111 27.225 343.75 27.7818C343.616 27.993 343.39 28.2331 343.121 28.4155C342.977 28.5163 342.818 28.5979 342.645 28.6555C342.232 28.7995 342.064 28.3819 342.578 28.1611C342.669 28.1226 342.761 28.0698 342.847 28.0122C343.063 27.8682 343.236 27.681 343.342 27.5178C343.649 27.0378 343.798 26.5817 343.798 26.2217C343.798 26.0441 343.765 25.8953 343.693 25.7897C343.63 25.6937 343.539 25.6312 343.419 25.6024C343.313 25.5784 343.188 25.5784 343.044 25.6072ZM324.685 23.4519C326.035 19.89 330.051 21.7429 330.137 23.6199C329.94 23.4231 329.1 22.9574 328.624 22.919C328.542 25.012 326.059 25.54 325.305 23.3415C325.036 23.3319 324.877 23.3271 324.685 23.4519ZM330.997 32.3422C333.788 34.5936 334.801 30.5997 335.291 29.9852C335.152 34.944 331.348 34.5984 330.997 32.3422ZM330.267 28.6027C330.594 28.7803 331.117 28.9627 332.275 28.9867C329.887 29.9324 329.047 28.8235 329.08 27.7914C329.119 26.3993 330.425 26.6777 330.161 24.4215C331.295 26.0057 328.735 27.7722 330.267 28.6027Z" fill="#FEFEFE"/>
<path d="M333.802 51.7637C333.948 51.272 334.096 50.8515 334.245 50.5042C334.267 50.5841 334.29 50.6683 334.313 50.7567C334.557 51.6815 334.827 52.9915 335.112 54.6047C335.681 57.8263 336.298 62.1988 336.868 66.9879C337.985 76.3804 338.913 87.3168 338.95 94.2558L335.244 96.5029L331.823 94.2087C331.64 93.4935 331.483 92.4023 331.361 90.9885C331.226 89.4143 331.138 87.4887 331.098 85.3321C331.018 81.0197 331.127 75.8114 331.411 70.6958C331.696 65.578 332.155 60.57 332.772 56.6541C333.08 54.6941 333.425 53.027 333.802 51.7637Z" fill="#FF6F3D" stroke="#333333" stroke-width="1.5"/>
<path d="M344.011 84.3798C344.039 84.8432 343.816 85.4528 343.262 86.1683C342.72 86.8691 341.925 87.5864 340.988 88.2409C339.096 89.5623 336.786 90.5169 335.121 90.6174C333.656 90.7057 332.508 89.8368 331.654 88.444C330.799 87.0487 330.34 85.2646 330.258 83.9145C330.203 82.9979 330.937 82.1823 332.583 81.5259C334.162 80.8963 336.241 80.5678 338.055 80.4584C339.693 80.3596 341.176 80.9642 342.268 81.8199C343.395 82.7025 343.972 83.7378 344.011 84.3798Z" fill="white" stroke="#333333" stroke-width="1.5"/>
</g>
<defs>
<clipPath id="clip0_8929_264347">
<rect width="448" height="254" fill="white"/>
</clipPath>
<clipPath id="clip1_8929_264347">
<rect width="36" height="20" fill="white" transform="translate(20 13)"/>
</clipPath>
</defs>
</svg>
