<svg width="448" height="254" viewBox="0 0 448 254" fill="none" xmlns="http://www.w3.org/2000/svg">
<path d="M356.5 254C392.675 254 422 251.761 422 249C422 246.239 392.675 244 356.5 244C320.325 244 291 246.239 291 249C291 251.761 320.325 254 356.5 254Z" fill="#EFEFEF"/>
<path fill-rule="evenodd" clip-rule="evenodd" d="M295.28 72.465L272.497 95.232C270.614 97.1146 270.279 100.066 271.763 102.316L276.517 109.735C278.576 112.941 278.719 116.978 277.267 120.488C275.815 124.014 272.848 126.742 269.131 127.556L260.515 129.422C257.899 129.997 256.032 132.294 256.032 134.975L256 167.171C256 169.851 257.851 172.164 260.467 172.723L269.083 174.589C272.8 175.403 275.752 178.147 277.203 181.657C278.655 185.167 278.496 189.204 276.438 192.411L271.667 199.829C270.215 202.079 270.535 205.031 272.417 206.913L295.168 229.68C297.051 231.563 300.002 231.898 302.252 230.446L309.671 225.676C312.878 223.618 316.914 223.474 320.424 224.926C323.934 226.394 326.678 229.345 327.476 233.063L329.343 241.678C329.917 244.279 332.214 246.145 334.895 246.145H367.059C369.723 246.145 372.037 244.294 372.611 241.678L374.494 233.063C375.307 229.345 378.052 226.378 381.562 224.926C385.072 223.474 389.108 223.618 392.315 225.676L399.718 230.446C401.967 231.882 404.919 231.563 406.801 229.68L429.584 206.913C431.467 205.031 431.786 202.079 430.35 199.829L425.596 192.411C423.538 189.204 423.378 185.167 424.846 181.657C426.298 178.131 429.265 175.403 432.983 174.589L441.598 172.723C444.215 172.148 446.081 169.835 446.081 167.171L446.097 134.975C446.097 132.294 444.247 129.997 441.63 129.422L433.031 127.556C429.313 126.742 426.362 123.998 424.91 120.488C423.458 116.978 423.617 112.941 425.676 109.735L430.446 102.316C431.898 100.066 431.579 97.1146 429.696 95.232L406.945 72.465C405.062 70.5664 402.111 70.2473 399.861 71.6992L392.442 76.4696C389.236 78.5277 385.199 78.6713 381.689 77.2194C378.179 75.7676 375.435 72.8 374.637 69.0827L372.771 60.4672C372.196 57.8667 369.899 56 367.218 56H335.022C332.358 56 330.045 57.8507 329.47 60.4672L327.588 69.0827C326.774 72.8 324.03 75.7676 320.52 77.2194C317.01 78.6713 312.973 78.5277 309.766 76.4696L302.364 71.6992C300.13 70.2633 297.178 70.5824 295.28 72.465ZM351.049 191.265C372.642 191.265 390.146 173.761 390.146 152.168C390.146 130.575 372.642 113.071 351.049 113.071C329.456 113.071 311.952 130.575 311.952 152.168C311.952 173.761 329.456 191.265 351.049 191.265Z" fill="#EFEFEF"/>
<mask id="path-3-inside-1_8952_280712" fill="white">
<path fill-rule="evenodd" clip-rule="evenodd" d="M429.237 12.8387L437.441 19.5896C438.119 20.1479 438.323 21.1064 437.907 21.8922L436.582 24.4793C436.009 25.5977 436.09 26.9277 436.678 28.034C437.267 29.1455 438.328 29.947 439.575 30.0959L442.463 30.4348C443.34 30.5402 444.026 31.2352 444.111 32.1153L445.146 42.6857C445.231 43.5658 444.697 44.3843 443.855 44.6508L441.086 45.5377C439.891 45.9231 439.009 46.918 438.644 48.1166C438.279 49.3153 438.46 50.6356 439.238 51.6231L441.04 53.9073C441.588 54.5998 441.577 55.5791 441.019 56.2571L434.273 64.456C433.715 65.134 432.756 65.3379 431.971 64.9327L429.384 63.6023C428.265 63.0285 426.935 63.1097 425.829 63.6981C424.723 64.2916 423.916 65.348 423.772 66.594L423.433 69.4822C423.327 70.3543 422.632 71.0403 421.752 71.1255L411.191 72.1484C410.317 72.2331 409.498 71.699 409.226 70.8581L408.334 68.0892C407.949 66.8945 406.953 66.0074 405.755 65.6423C404.556 65.2772 403.235 65.4527 402.248 66.2304L399.969 68.0322C399.276 68.5752 398.297 68.5643 397.619 68.006L389.414 61.2551C388.736 60.6968 388.537 59.7378 388.937 58.9535L390.262 56.3664C390.836 55.248 390.76 53.9176 390.167 52.8117C389.578 51.7002 388.517 50.8988 387.27 50.7498L384.382 50.4109C383.505 50.3055 382.818 49.6053 382.733 48.7304L381.704 38.1595C381.619 37.2794 382.154 36.4662 382.994 36.1944L385.759 35.308C386.953 34.9227 387.835 33.9278 388.2 32.7291C388.565 31.5304 388.385 30.2102 387.607 29.2227L385.805 26.9384C385.256 26.246 385.267 25.2667 385.826 24.5887L392.572 16.3897C393.13 15.7065 394.089 15.5078 394.873 15.913L397.461 17.2434C398.579 17.8172 399.909 17.736 401.016 17.1477C402.122 16.5593 402.929 15.4977 403.072 14.2517L403.411 11.3635C403.517 10.4914 404.212 9.80542 405.092 9.72019L415.664 8.69633C416.539 8.6116 417.357 9.14571 417.629 9.98657L418.521 12.7555C418.906 13.9502 419.902 14.8373 421.1 15.2024C422.299 15.5675 423.62 15.392 424.607 14.6143L426.886 12.8125C427.574 12.27 428.553 12.2809 429.237 12.8387ZM414.276 53.6543C407.168 54.1117 401.035 48.7201 400.577 41.6117C400.12 34.5034 405.511 28.3701 412.62 27.9127C419.728 27.4553 425.861 32.8469 426.319 39.9552C426.776 47.0635 421.384 53.1968 414.276 53.6543Z"/>
</mask>
<path d="M437.441 19.5896L438.077 18.8174L438.077 18.8176L437.441 19.5896ZM429.237 12.8387L429.869 12.064L429.872 12.0665L429.237 12.8387ZM437.907 21.8922L437.017 21.4363L437.024 21.4247L437.907 21.8922ZM436.582 24.4793L437.472 24.9352L437.472 24.9358L436.582 24.4793ZM436.678 28.034L437.561 27.5645L437.562 27.5659L436.678 28.034ZM439.575 30.0959L439.458 31.0891L439.456 31.0888L439.575 30.0959ZM442.463 30.4348L442.579 29.4417L442.582 29.442L442.463 30.4348ZM444.111 32.1153L443.116 32.2127L443.116 32.2117L444.111 32.1153ZM445.146 42.6857L446.141 42.5883L446.141 42.5893L445.146 42.6857ZM443.855 44.6508L443.55 43.6984L443.553 43.6975L443.855 44.6508ZM441.086 45.5377L440.779 44.586L440.781 44.5853L441.086 45.5377ZM438.644 48.1166L439.601 48.408L439.601 48.408L438.644 48.1166ZM439.238 51.6231L438.453 52.2425L438.452 52.2418L439.238 51.6231ZM441.04 53.9073L440.256 54.528L440.255 54.5267L441.04 53.9073ZM441.019 56.2571L440.247 55.6217L440.247 55.6214L441.019 56.2571ZM434.273 64.456L435.045 65.0914L435.045 65.0917L434.273 64.456ZM431.971 64.9327L432.428 64.0434L432.43 64.0442L431.971 64.9327ZM429.384 63.6023L429.84 62.7126L429.841 62.713L429.384 63.6023ZM425.829 63.6981L425.356 62.817L425.359 62.8152L425.829 63.6981ZM423.772 66.594L424.766 66.7086L424.765 66.7105L423.772 66.594ZM423.433 69.4822L424.427 69.5987L424.426 69.6027L423.433 69.4822ZM421.752 71.1255L421.849 72.1209L421.849 72.1209L421.752 71.1255ZM411.191 72.1484L411.095 71.153L411.191 72.1484ZM409.226 70.8581L408.275 71.1657L408.274 71.1648L409.226 70.8581ZM408.334 68.0892L409.286 67.7822L409.286 67.7825L408.334 68.0892ZM405.755 65.6423L405.463 66.5989L405.755 65.6423ZM402.248 66.2304L401.628 65.446L401.629 65.4448L402.248 66.2304ZM399.969 68.0322L400.589 68.8167L400.586 68.8193L399.969 68.0322ZM397.619 68.006L398.254 67.2338L398.254 67.234L397.619 68.006ZM389.414 61.2551L388.778 62.0273L388.778 62.0271L389.414 61.2551ZM388.937 58.9535L388.046 58.4992L388.047 58.4976L388.937 58.9535ZM390.262 56.3664L389.372 55.9105L389.373 55.9099L390.262 56.3664ZM390.167 52.8117L389.285 53.2847L389.283 53.2799L390.167 52.8117ZM387.27 50.7498L387.387 49.7566L387.389 49.7569L387.27 50.7498ZM384.382 50.4109L384.265 51.4041L384.263 51.4037L384.382 50.4109ZM382.733 48.7304L383.729 48.6335L383.729 48.634L382.733 48.7304ZM381.704 38.1595L380.709 38.2564L380.709 38.2559L381.704 38.1595ZM382.994 36.1944L382.687 35.2429L382.689 35.2422L382.994 36.1944ZM385.759 35.308L386.066 36.2597L386.064 36.2603L385.759 35.308ZM387.607 29.2227L388.392 28.6032L388.393 28.6039L387.607 29.2227ZM385.805 26.9384L386.589 26.3177L386.59 26.319L385.805 26.9384ZM385.826 24.5887L386.598 25.224L386.598 25.2243L385.826 24.5887ZM392.572 16.3897L393.347 17.0221L393.344 17.0251L392.572 16.3897ZM394.873 15.913L394.416 16.8023L394.415 16.8016L394.873 15.913ZM397.461 17.2434L397.005 18.1331L397.004 18.1327L397.461 17.2434ZM401.016 17.1477L400.546 16.2647L400.546 16.2647L401.016 17.1477ZM403.072 14.2517L402.079 14.1372L402.079 14.1352L403.072 14.2517ZM403.411 11.3635L402.418 11.247L402.419 11.243L403.411 11.3635ZM405.092 9.72019L404.996 8.72485L405.092 9.72019ZM415.664 8.69633L415.567 7.70099L415.664 8.69633ZM417.629 9.98657L418.58 9.679L418.581 9.67991L417.629 9.98657ZM418.521 12.7555L417.569 13.0625L417.569 13.0622L418.521 12.7555ZM421.1 15.2024L420.809 16.1591L420.809 16.159L421.1 15.2024ZM424.607 14.6143L425.227 15.3987L425.226 15.3999L424.607 14.6143ZM426.886 12.8125L426.266 12.0281L426.267 12.0274L426.886 12.8125ZM436.806 20.3618L428.601 13.6109L429.872 12.0665L438.077 18.8174L436.806 20.3618ZM437.024 21.4247C437.213 21.0661 437.124 20.6235 436.806 20.3616L438.077 18.8176C439.115 19.6723 439.433 21.1467 438.791 22.3598L437.024 21.4247ZM435.692 24.0234L437.017 21.4363L438.798 22.3481L437.472 24.9352L435.692 24.0234ZM435.795 28.5035C435.074 27.1476 434.95 25.47 435.693 24.0229L437.472 24.9358C437.067 25.7255 437.105 26.7077 437.561 27.5645L435.795 28.5035ZM439.456 31.0888C437.847 30.8966 436.519 29.8693 435.794 28.5021L437.562 27.5659C438.015 28.4217 438.809 28.9973 439.693 29.103L439.456 31.0888ZM442.346 31.428L439.458 31.0891L439.691 29.1027L442.579 29.4417L442.346 31.428ZM443.116 32.2117C443.076 31.8039 442.759 31.4777 442.343 31.4277L442.582 29.442C443.921 29.6028 444.976 30.6666 445.107 32.0189L443.116 32.2117ZM444.15 42.7831L443.116 32.2127L445.107 32.0179L446.141 42.5883L444.15 42.7831ZM443.553 43.6975C443.939 43.5753 444.191 43.1986 444.15 42.7821L446.141 42.5893C446.271 43.933 445.454 45.1932 444.157 45.6041L443.553 43.6975ZM440.781 44.5853L443.55 43.6985L444.16 45.6032L441.391 46.4901L440.781 44.5853ZM437.688 47.8253C438.135 46.3549 439.234 45.0845 440.779 44.586L441.393 46.4894C440.549 46.7617 439.883 47.481 439.601 48.408L437.688 47.8253ZM438.452 52.2418C437.448 50.9665 437.239 49.2976 437.688 47.8253L439.601 48.408C439.319 49.333 439.472 50.3047 440.023 51.0043L438.452 52.2418ZM440.255 54.5267L438.453 52.2425L440.023 51.0037L441.825 53.2879L440.255 54.5267ZM440.247 55.6214C440.506 55.3071 440.512 54.8512 440.256 54.528L441.824 53.2866C442.665 54.3484 442.649 55.851 441.791 56.8927L440.247 55.6214ZM433.501 63.8206L440.247 55.6217L441.791 56.8925L435.045 65.0914L433.501 63.8206ZM432.43 64.0442C432.791 64.2308 433.239 64.1388 433.501 63.8204L435.045 65.0917C434.19 66.1292 432.721 66.445 431.512 65.8213L432.43 64.0442ZM429.841 62.713L432.428 64.0434L431.514 65.8221L428.926 64.4917L429.841 62.713ZM425.359 62.8152C426.715 62.0941 428.393 61.9701 429.84 62.7126L428.927 64.4921C428.137 64.0869 427.155 64.1254 426.298 64.581L425.359 62.8152ZM422.779 66.4794C422.965 64.8638 424.003 63.5431 425.356 62.817L426.302 64.5792C425.443 65.0402 424.867 65.8322 424.766 66.7086L422.779 66.4794ZM422.44 69.3656L422.779 66.4774L424.765 66.7105L424.426 69.5987L422.44 69.3656ZM421.656 70.1302C422.065 70.0906 422.391 69.7718 422.441 69.3617L424.426 69.6027C424.264 70.9368 423.2 71.99 421.849 72.1209L421.656 70.1302ZM411.095 71.153L421.656 70.1302L421.849 72.1209L411.288 73.1437L411.095 71.153ZM410.178 70.5506C410.305 70.9435 410.687 71.1926 411.095 71.153L411.288 73.1437C409.947 73.2736 408.691 72.4545 408.275 71.1657L410.178 70.5506ZM409.286 67.7825L410.178 70.5515L408.274 71.1648L407.382 68.3959L409.286 67.7825ZM406.046 64.6857C407.519 65.1342 408.788 66.2387 409.286 67.7822L407.382 68.3962C407.11 67.5502 406.388 66.8806 405.463 66.5989L406.046 64.6857ZM401.629 65.4448C402.907 64.4385 404.577 64.2382 406.046 64.6857L405.463 66.5989C404.535 66.3162 403.564 66.4669 402.867 67.016L401.629 65.4448ZM399.349 67.2477L401.628 65.446L402.868 67.0149L400.589 68.8167L399.349 67.2477ZM398.254 67.234C398.569 67.493 399.027 67.4997 399.352 67.2451L400.586 68.8193C399.525 69.6507 398.024 69.6356 396.983 68.778L398.254 67.234ZM390.049 60.4829L398.254 67.2338L396.983 68.7782L388.778 62.0273L390.049 60.4829ZM389.828 59.4078C389.64 59.7755 389.735 60.2241 390.049 60.4831L388.778 62.0271C387.737 61.1695 387.434 59.7001 388.046 58.4992L389.828 59.4078ZM391.152 56.8223L389.827 59.4094L388.047 58.4976L389.372 55.9105L391.152 56.8223ZM391.048 52.3388C391.778 53.6991 391.893 55.3783 391.152 56.8229L389.373 55.9099C389.779 55.1177 389.742 54.1361 389.285 53.2847L391.048 52.3388ZM387.389 49.7569C388.997 49.9491 390.326 50.9764 391.05 52.3436L389.283 53.2799C388.829 52.424 388.036 51.8484 387.151 51.7428L387.389 49.7569ZM384.498 49.4177L387.387 49.7566L387.154 51.743L384.265 51.4041L384.498 49.4177ZM383.729 48.634C383.768 49.0383 384.087 49.3683 384.501 49.418L384.263 51.4037C382.922 51.2427 381.868 50.1722 381.738 48.8268L383.729 48.634ZM382.7 38.0626L383.729 48.6335L381.738 48.8273L380.709 38.2564L382.7 38.0626ZM383.302 37.1459C382.908 37.2735 382.66 37.6511 382.7 38.0631L380.709 38.2559C380.578 36.9077 381.4 35.659 382.687 35.2429L383.302 37.1459ZM386.064 36.2603L383.3 37.1467L382.689 35.2422L385.453 34.3558L386.064 36.2603ZM389.157 33.0205C388.709 34.4908 387.611 35.7612 386.066 36.2597L385.452 34.3563C386.296 34.0841 386.961 33.3647 387.244 32.4377L389.157 33.0205ZM388.393 28.6039C389.397 29.8793 389.605 31.5481 389.157 33.0205L387.244 32.4377C387.525 31.5127 387.372 30.541 386.821 29.8414L388.393 28.6039ZM386.59 26.319L388.392 28.6032L386.822 29.8421L385.02 27.5578L386.59 26.319ZM386.598 25.2243C386.339 25.5386 386.333 25.9946 386.589 26.3177L385.021 27.5592C384.18 26.4974 384.196 24.9947 385.054 23.953L386.598 25.2243ZM393.344 17.0251L386.598 25.224L385.053 23.9533L391.8 15.7543L393.344 17.0251ZM394.415 16.8016C394.049 16.6128 393.605 16.7057 393.346 17.0221L391.797 15.7573C392.654 14.7072 394.128 14.4029 395.332 15.0244L394.415 16.8016ZM397.004 18.1327L394.416 16.8023L395.331 15.0237L397.918 16.3541L397.004 18.1327ZM401.485 18.0306C400.129 18.7516 398.452 18.8756 397.005 18.1331L397.918 16.3537C398.707 16.7588 399.689 16.7203 400.546 16.2647L401.485 18.0306ZM404.066 14.3663C403.88 15.9796 402.844 17.3081 401.485 18.0306L400.546 16.2647C401.4 15.8106 401.978 15.0158 402.079 14.1372L404.066 14.3663ZM404.404 11.4801L404.066 14.3683L402.079 14.1352L402.418 11.247L404.404 11.4801ZM405.189 10.7155C404.779 10.7552 404.454 11.0739 404.404 11.4841L402.419 11.243C402.581 9.90889 403.645 8.85568 404.996 8.72485L405.189 10.7155ZM415.76 9.69168L405.189 10.7155L404.996 8.72485L415.567 7.70099L415.76 9.69168ZM416.677 10.2941C416.55 9.90122 416.169 9.65212 415.76 9.69168L415.567 7.70099C416.909 7.57109 418.164 8.39021 418.58 9.679L416.677 10.2941ZM417.569 13.0622L416.677 10.2932L418.581 9.67991L419.473 12.4489L417.569 13.0622ZM420.809 16.159C419.336 15.7105 418.067 14.606 417.569 13.0625L419.473 12.4485C419.746 13.2945 420.467 13.9641 421.392 14.2458L420.809 16.159ZM425.226 15.3999C423.948 16.4062 422.278 16.6065 420.809 16.1591L421.392 14.2458C422.32 14.5286 423.291 14.3778 423.989 13.8287L425.226 15.3999ZM427.506 13.597L425.227 15.3987L423.987 13.8298L426.266 12.0281L427.506 13.597ZM428.604 13.6134C428.28 13.3491 427.822 13.3484 427.506 13.5976L426.267 12.0274C427.327 11.1916 428.826 11.2128 429.869 12.064L428.604 13.6134ZM401.575 41.5475C401.997 48.1047 407.655 53.0783 414.212 52.6563L414.34 54.6522C406.681 55.1451 400.072 49.3355 399.579 41.676L401.575 41.5475ZM412.684 28.9106C406.127 29.3326 401.153 34.9903 401.575 41.5475L399.579 41.676C399.086 34.0165 404.896 27.4077 412.555 26.9148L412.684 28.9106ZM425.321 40.0194C424.899 33.4622 419.241 28.4887 412.684 28.9106L412.555 26.9148C420.215 26.4218 426.824 32.2315 427.317 39.891L425.321 40.0194ZM414.212 52.6563C420.769 52.2344 425.743 46.5766 425.321 40.0194L427.317 39.891C427.81 47.5505 422 54.1593 414.34 54.6522L414.212 52.6563Z" fill="#CCCCCC" mask="url(#path-3-inside-1_8952_280712)"/>
<rect x="0.5" y="0.5" width="287" height="253" rx="3.5" fill="white"/>
<rect x="0.5" y="0.5" width="287" height="253" rx="3.5" stroke="#333333"/>
<rect y="254" width="254" height="74.262" transform="rotate(-90 0 254)" fill="#0056CF"/>
<g clip-path="url(#clip0_8952_280712)">
<path d="M54.8585 30.4545C55.2976 31.0909 55.2098 31.9091 54.6829 32.3636C54.0683 32.8182 53.1902 32.7273 52.7512 32.1818L49.6781 28.0909L46.6927 32.0909C46.2537 32.7273 45.3756 32.7273 44.761 32.2727C44.1463 31.8182 44.0585 31 44.4976 30.3636L48.0098 25.6364L44.4976 20.9091C44.0585 20.2727 44.2341 19.3636 44.761 18.9091C45.3756 18.4545 46.2537 18.6364 46.6927 19.1818L49.6781 23.2727L52.7512 19.3636C53.1902 18.7273 53.9805 18.6364 54.6829 19.0909C55.2976 19.5455 55.2976 20.4545 54.8585 21.0909L51.4342 25.7273L54.8585 30.4545ZM38.8781 29.9091C36.5951 29.9091 34.7512 28.0909 34.7512 25.7273C34.7512 23.4545 36.5951 21.5455 38.8781 21.5455C41.161 21.5455 43.0049 23.4545 43.0049 25.7273C42.9171 28.0909 41.0732 29.9091 38.8781 29.9091ZM26.761 29.9091C24.478 29.9091 22.6341 28.0909 22.6341 25.7273C22.6341 23.4545 24.478 21.5455 26.761 21.5455C29.0439 21.5455 30.8878 23.4545 30.8878 25.7273C30.8878 28.0909 29.0439 29.9091 26.761 29.9091ZM38.8781 18.8182C36.3317 18.8182 34.0488 20.2727 32.9073 22.4545C31.7659 20.2727 29.4829 18.8182 26.8488 18.8182C25.2683 18.8182 23.8634 19.3636 22.722 20.1818V14.3636C22.722 13.6364 22.1073 13 21.4049 13C20.6146 13 20 13.6364 20 14.3636V25.8182C20.0878 29.6364 23.0732 32.6364 26.761 32.6364C29.3951 32.6364 31.6781 31.0909 32.8195 28.9091C33.961 31.0909 36.2439 32.6364 38.7902 32.6364C42.5659 32.6364 45.639 29.5455 45.639 25.6364C45.7268 21.9091 42.6537 18.8182 38.8781 18.8182Z" fill="white"/>
</g>
<rect x="91" y="17" width="177" height="20" rx="4" fill="#EFEFEF"/>
<rect x="91.5" y="85.5" width="83.5" height="39" rx="3.5" fill="white"/>
<rect x="91.5" y="85.5" width="83.5" height="39" rx="3.5" stroke="#CCCCCC"/>
<rect x="97" y="91" width="28" height="28" rx="4" fill="#EFEFEF"/>
<rect x="184" y="85.5" width="83.5" height="39" rx="3.5" fill="white"/>
<rect x="184" y="85.5" width="83.5" height="39" rx="3.5" stroke="#CCCCCC"/>
<rect x="189.5" y="91" width="28" height="28" rx="4" fill="#EFEFEF"/>
<rect x="91.5" y="133.5" width="83.5" height="39" rx="3.5" fill="white"/>
<rect x="91.5" y="133.5" width="83.5" height="39" rx="3.5" stroke="#CCCCCC"/>
<rect x="97" y="139" width="28" height="28" rx="4" fill="#EFEFEF"/>
<rect x="184" y="133.5" width="83.5" height="39" rx="3.5" fill="white"/>
<rect x="184" y="133.5" width="83.5" height="39" rx="3.5" stroke="#CCCCCC"/>
<rect x="189.5" y="139" width="28" height="28" rx="4" fill="#EFEFEF"/>
<rect x="91.5" y="181.5" width="83.5" height="39" rx="3.5" fill="white"/>
<rect x="91.5" y="181.5" width="83.5" height="39" rx="3.5" stroke="#CCCCCC"/>
<rect x="97" y="187" width="28" height="28" rx="4" fill="#EFEFEF"/>
<rect x="184" y="181.5" width="83.5" height="39" rx="3.5" fill="white"/>
<rect x="184" y="181.5" width="83.5" height="39" rx="3.5" stroke="#CCCCCC"/>
<rect x="189.5" y="187" width="28" height="28" rx="4" fill="#EFEFEF"/>
<path d="M1 0H288V254H1V0Z" fill="black" fill-opacity="0.4"/>
<g filter="url(#filter0_d_8952_280712)">
<rect x="74" y="48" width="140" height="170" rx="5" fill="white"/>
<rect x="74.5" y="48.5" width="139" height="169" rx="4.5" stroke="#EFEFEF"/>
<path d="M113 61.5H92C89.5147 61.5 87.5 63.5147 87.5 66V87C87.5 89.4853 89.5147 91.5 92 91.5H113C115.485 91.5 117.5 89.4853 117.5 87V66C117.5 63.5147 115.485 61.5 113 61.5Z" fill="white" stroke="#CCCCCC"/>
<path fill-rule="evenodd" clip-rule="evenodd" d="M103.431 75.8805L111.41 72.3785C112.074 72.0793 112.106 71.5552 111.459 71.2349L103.612 67.3745C103.225 67.1815 102.668 67.0855 102.14 67.1041C101.79 67.1185 101.454 67.1833 101.189 67.3008L100.48 67.6134L93.21 70.8029C92.5466 71.1021 92.5145 71.6262 93.1584 71.9469L96.6789 73.6793L97.6042 74.1348L101.005 75.8073C101.557 76.1446 102.668 76.1937 103.431 75.8805Z" fill="#5DC0E8"/>
<path fill-rule="evenodd" clip-rule="evenodd" d="M106.399 75.4275L105.012 76.0274L103.439 76.7058C102.776 77.005 101.664 76.9558 101.016 76.6321L97.2312 74.7382L96.3083 74.2754L95.8523 74.0467L93.0963 75.2614C92.4329 75.5605 92.4008 76.0846 93.0447 76.4054L94.5011 77.1209L95.4298 77.5759L100.894 80.2619C101.137 80.3812 101.429 80.4691 101.748 80.5078C102.212 80.5679 102.725 80.5375 103.206 80.3896C103.277 80.3691 103.345 80.3456 103.413 80.3186L103.611 80.2314L104.595 79.8L111.392 76.8165C112.055 76.5174 112.087 75.9933 111.443 75.6725L108.76 74.3941L106.399 75.4275Z" fill="#95C038"/>
<path fill-rule="evenodd" clip-rule="evenodd" d="M108.453 78.8938L104.668 80.5499L103.69 80.977L103.227 81.1783C102.984 81.2891 102.682 81.3526 102.363 81.3696C101.931 81.3957 101.471 81.3419 101.093 81.2208C100.99 81.1864 100.894 81.1476 100.804 81.1046L95.7501 78.6118L94.2653 79.2673L92.9946 79.8298C92.9467 79.8505 92.9025 79.8742 92.8583 79.8979C92.8364 79.9114 92.8145 79.9249 92.7927 79.9385C92.3295 80.2443 92.3713 80.6883 92.943 80.9739L93.0044 81.0036L98.4113 83.6628L99.4414 84.1698L100.793 84.8338C101.441 85.1575 102.453 85.2207 103.116 84.9215L104.116 84.4842L105.087 84.058L108.642 82.4972L111.099 81.419C111.395 81.2865 111.564 81.1058 111.604 80.9223C111.655 80.692 111.505 80.4516 111.147 80.2754L108.453 78.8938Z" fill="#FF6F3D"/>
<path fill-rule="evenodd" clip-rule="evenodd" d="M200 76.5C200 77.6046 199.105 78.5 198 78.5H127C125.895 78.5 125 77.6046 125 76.5C125 75.3954 125.895 74.5 127 74.5H198C199.105 74.5 200 75.3954 200 76.5Z" fill="#E2E2E2"/>
<rect width="112" height="33" transform="translate(88 101)" fill="#EEEEEE"/>
<path fill-rule="evenodd" clip-rule="evenodd" d="M119.111 146C119.111 147.105 118.216 148 117.111 148H90C88.8954 148 88 147.105 88 146C88 144.895 88.8954 144 90 144H117.111C118.216 144 119.111 144.895 119.111 146Z" fill="#CCCCCC"/>
<path fill-rule="evenodd" clip-rule="evenodd" d="M200 157C200 157.552 199.552 158 199 158H89.717C89.1648 158 88.717 157.552 88.717 157C88.717 156.448 89.1648 156 89.717 156H199C199.552 156 200 156.448 200 157Z" fill="#E2E2E2"/>
<path fill-rule="evenodd" clip-rule="evenodd" d="M200 165C200 165.552 199.552 166 199 166H89.717C89.1648 166 88.717 165.552 88.717 165C88.717 164.448 89.1648 164 89.717 164H199C199.552 164 200 164.448 200 165Z" fill="#E2E2E2"/>
<path fill-rule="evenodd" clip-rule="evenodd" d="M157.743 173C157.743 173.552 157.295 174 156.743 174H89.717C89.1648 174 88.717 173.552 88.717 173C88.717 172.448 89.1648 172 89.717 172H156.743C157.295 172 157.743 172.448 157.743 173Z" fill="#E2E2E2"/>
<rect x="140" y="184" width="60" height="20" rx="2" fill="#0056CF"/>
<path d="M164.349 199L163.676 196.791H160.293L159.62 199H157.5L160.775 189.682H163.181L166.469 199H164.349ZM163.207 195.141L162.534 192.982C162.491 192.839 162.434 192.654 162.362 192.43C162.295 192.202 162.225 191.971 162.153 191.738C162.085 191.501 162.03 191.296 161.988 191.123C161.945 191.296 161.886 191.512 161.81 191.77C161.738 192.024 161.668 192.265 161.601 192.494C161.533 192.722 161.484 192.885 161.455 192.982L160.788 195.141H163.207ZM169.738 199.127C168.947 199.127 168.302 198.818 167.802 198.2C167.307 197.578 167.06 196.666 167.06 195.464C167.06 194.25 167.311 193.332 167.815 192.709C168.319 192.083 168.977 191.77 169.789 191.77C170.128 191.77 170.426 191.817 170.684 191.91C170.942 192.003 171.164 192.128 171.351 192.284C171.541 192.441 171.702 192.616 171.833 192.811H171.896C171.871 192.676 171.839 192.477 171.801 192.214C171.767 191.948 171.75 191.675 171.75 191.396V189.123H173.693V199H172.208L171.833 198.08H171.75C171.628 198.274 171.473 198.452 171.287 198.613C171.105 198.769 170.887 198.894 170.633 198.987C170.379 199.08 170.081 199.127 169.738 199.127ZM170.417 197.584C170.946 197.584 171.319 197.428 171.535 197.115C171.755 196.797 171.871 196.321 171.884 195.687V195.477C171.884 194.787 171.778 194.26 171.566 193.896C171.355 193.528 170.961 193.344 170.386 193.344C169.958 193.344 169.624 193.528 169.383 193.896C169.142 194.265 169.021 194.796 169.021 195.49C169.021 196.184 169.142 196.706 169.383 197.058C169.628 197.409 169.973 197.584 170.417 197.584ZM177.965 199.127C177.174 199.127 176.528 198.818 176.029 198.2C175.534 197.578 175.286 196.666 175.286 195.464C175.286 194.25 175.538 193.332 176.042 192.709C176.545 192.083 177.203 191.77 178.016 191.77C178.354 191.77 178.653 191.817 178.911 191.91C179.169 192.003 179.391 192.128 179.577 192.284C179.768 192.441 179.928 192.616 180.06 192.811H180.123C180.098 192.676 180.066 192.477 180.028 192.214C179.994 191.948 179.977 191.675 179.977 191.396V189.123H181.919V199H180.434L180.06 198.08H179.977C179.854 198.274 179.7 198.452 179.514 198.613C179.332 198.769 179.114 198.894 178.86 198.987C178.606 199.08 178.308 199.127 177.965 199.127ZM178.644 197.584C179.173 197.584 179.545 197.428 179.761 197.115C179.981 196.797 180.098 196.321 180.11 195.687V195.477C180.11 194.787 180.005 194.26 179.793 193.896C179.581 193.528 179.188 193.344 178.612 193.344C178.185 193.344 177.851 193.528 177.609 193.896C177.368 194.265 177.248 194.796 177.248 195.49C177.248 196.184 177.368 196.706 177.609 197.058C177.855 197.409 178.2 197.584 178.644 197.584Z" fill="white"/>
</g>
<path fill-rule="evenodd" clip-rule="evenodd" d="M347.97 47.5046C347.629 49.3383 346.98 51.9065 345.832 52.5354C345.054 52.9674 343.863 52.281 342.042 49.2663C343.867 49.1751 345.818 48.6375 347.552 47.7302C347.691 47.6582 347.83 47.5814 347.97 47.5046ZM339.424 49.0599C338.55 50.1064 337.767 50.8168 337.085 51.2825C336.071 51.9689 335.375 52.0745 334.986 51.9401C334.654 51.8201 334.486 51.2585 334.424 50.5528C334.309 49.3095 334.544 47.759 334.731 46.8949C335.092 46.8469 335.466 46.7989 335.846 46.7605L336.038 47.0293C336.845 48.0806 338.036 48.7431 339.424 49.0599Z" fill="#CCCCCC" stroke="#CCCCCC" stroke-width="0.216" stroke-miterlimit="22.9256"/>
<path fill-rule="evenodd" clip-rule="evenodd" d="M348.037 24.0307C348.075 22.2161 348.008 20.6992 347.859 19.4367C347.672 17.8958 347.35 16.7101 346.927 15.8124C346.615 15.15 346.144 14.5115 345.573 13.9979C345.03 13.5034 344.386 13.1098 343.695 12.8986C342.83 12.6345 341.989 12.6874 341.173 12.937C340.409 13.1674 339.679 13.5706 338.963 14.0411C338.608 14.2715 338.3 14.4923 338.007 14.7035C336.792 15.5724 335.822 16.2684 334.078 15.798C333.958 15.7644 333.843 15.7068 333.747 15.6252C333.607 15.5052 333.497 15.342 333.439 15.15C333.377 14.9435 333.372 14.7035 333.444 14.4347C333.516 14.1563 333.679 13.8538 333.944 13.5418L333.977 13.4938C334.073 13.3594 334.193 13.225 334.333 13.0906C335.505 11.9481 337.844 11.0648 340.505 10.8824C343.185 10.7 346.164 11.252 348.565 12.9898C349.026 13.321 349.464 13.6954 349.877 14.1227C350.852 15.126 351.601 16.5229 351.99 18.4238C352.326 20.0704 352.394 22.0913 352.105 24.5587C351.971 24.3139 351.808 24.0979 351.615 23.9155C351.246 23.5698 350.775 23.3586 350.218 23.3298C349.598 23.2962 348.863 23.5026 348.037 24.0307Z" fill="#666666" stroke="#666666" stroke-width="0.216" stroke-miterlimit="22.9256"/>
<path fill-rule="evenodd" clip-rule="evenodd" d="M332.334 14.7755C331.47 15.7452 330.763 16.9885 330.23 18.4142C329.073 21.5249 328.732 25.5284 329.366 29.3543C330.005 33.2138 331.638 36.9197 334.409 39.3967C335.485 40.3568 336.734 41.1345 338.161 41.6673C338.372 41.7489 341.518 42.6322 345.256 39.4207C347.1 37.8318 349.132 35.2252 351.068 30.9865L349.742 30.3816C347.907 34.4043 346.015 36.8477 344.309 38.3119C341.182 41.0001 338.824 40.3568 338.67 40.2992C337.421 39.8384 336.331 39.1567 335.389 38.3119C332.882 36.0701 331.402 32.6762 330.812 29.1191C330.216 25.5332 330.528 21.7985 331.599 18.9231C332.07 17.6654 332.68 16.5757 333.425 15.7452L332.334 14.7755Z" fill="#333333"/>
<path fill-rule="evenodd" clip-rule="evenodd" d="M348.003 25.0675C348.095 22.7825 348.037 20.9296 347.854 19.4366C347.667 17.8957 347.345 16.71 346.922 15.8123C346.61 15.1499 346.14 14.5114 345.568 13.9978C345.025 13.5034 344.381 13.1097 343.69 12.8985C342.825 12.6345 341.985 12.6873 341.168 12.9369C340.404 13.1673 339.674 13.5706 338.958 14.041C338.603 14.2714 338.295 14.4922 338.002 14.7035C336.787 15.5723 335.817 16.2684 334.073 15.7979C333.953 15.7643 333.838 15.7067 333.742 15.6251C333.602 15.5051 333.492 15.3419 333.434 15.1499C333.372 14.9435 333.367 14.7035 333.439 14.4346C333.511 14.1562 333.675 13.8538 333.939 13.5418L333.972 13.4938C334.068 13.3593 334.189 13.2249 334.328 13.0905C335.5 11.948 337.839 11.0648 340.5 10.8823C343.181 10.6999 346.159 11.252 348.56 12.9897C349.022 13.3209 349.459 13.6954 349.872 14.1226C350.847 15.1259 351.596 16.5228 351.985 18.4238C352.346 20.1951 352.394 22.3937 352.033 25.1155L351.981 25.5283C351.798 26.9541 351.683 27.8421 350.804 29.0614C350.679 29.2343 350.535 29.4215 350.367 29.6231C350.223 29.8007 350.054 29.9927 349.862 30.1943L350.03 30.7992L350.929 31.188C351.116 30.9864 351.303 30.7752 351.486 30.5496C351.654 30.3479 351.817 30.1367 351.981 29.9111C353.071 28.3942 353.205 27.3669 353.422 25.7156L353.474 25.3027C353.859 22.4129 353.801 20.0511 353.407 18.1309C352.96 15.9324 352.072 14.2954 350.909 13.1049C350.439 12.6201 349.934 12.1929 349.406 11.8088C346.697 9.84546 343.373 9.22621 340.39 9.42783C337.388 9.62944 334.698 10.6807 333.295 12.044C333.113 12.2217 332.949 12.4089 332.805 12.6009C332.392 13.0857 332.137 13.5802 332.013 14.0554C331.868 14.5979 331.888 15.1163 332.027 15.5723C332.171 16.0428 332.44 16.4412 332.786 16.734C333.05 16.9548 333.357 17.1181 333.684 17.2093C336.095 17.8573 337.311 16.9836 338.843 15.8892C339.136 15.6827 339.439 15.4619 339.746 15.2603C340.356 14.8571 340.971 14.5162 341.581 14.329C342.138 14.161 342.695 14.1226 343.253 14.2906C343.723 14.4346 344.175 14.7131 344.569 15.0731C344.996 15.4619 345.352 15.942 345.587 16.4316C345.947 17.1901 346.221 18.2269 346.389 19.6047C346.548 20.9248 346.61 22.5377 346.548 24.5011L346.918 25.0195L348.003 25.0675Z" fill="#333333"/>
<path fill-rule="evenodd" clip-rule="evenodd" d="M347.681 25.5188C348.704 24.6163 349.54 24.2659 350.174 24.2947C350.491 24.3091 350.751 24.4291 350.957 24.6163C351.178 24.8227 351.337 25.1156 351.433 25.466C351.687 26.3781 351.495 27.631 350.775 28.7591C350.592 29.0471 350.285 29.3687 349.91 29.6279C349.728 29.7527 349.531 29.8583 349.329 29.9352C348.565 30.2184 348.945 31.0584 349.406 30.9336C349.785 30.828 350.146 30.6504 350.463 30.4344C350.948 30.1032 351.351 29.6711 351.596 29.2871C352.47 27.919 352.691 26.3685 352.374 25.2116C352.23 24.6883 351.976 24.2371 351.62 23.9107C351.25 23.565 350.78 23.3538 350.222 23.325C349.343 23.2818 348.239 23.7138 346.97 24.8467C346.519 25.2548 347.066 26.0612 347.681 25.5188Z" fill="#333333"/>
<path fill-rule="evenodd" clip-rule="evenodd" d="M349.435 25.9988C349.579 25.97 349.704 25.97 349.809 25.994C349.929 26.0228 350.025 26.09 350.083 26.1812C350.15 26.2916 350.189 26.4404 350.189 26.6132C350.189 26.9733 350.04 27.4341 349.732 27.9093C349.627 28.0726 349.454 28.2598 349.238 28.4038C349.156 28.4614 349.065 28.5142 348.969 28.5526C348.455 28.7734 348.623 29.191 349.036 29.047C349.204 28.9894 349.367 28.903 349.511 28.807C349.78 28.6246 350.006 28.3846 350.141 28.1734C350.496 27.6165 350.674 27.0645 350.674 26.6132C350.674 26.3444 350.612 26.1044 350.491 25.9172C350.362 25.7156 350.17 25.5764 349.915 25.5187C349.766 25.4851 349.593 25.4803 349.396 25.5091C348.757 25.6148 348.829 26.1188 349.435 25.9988Z" fill="#333333"/>
<path fill-rule="evenodd" clip-rule="evenodd" d="M348.935 46.4725L348.397 35.5612L346.937 35.6284L347.48 46.5397L348.935 46.4725Z" fill="#333333"/>
<path fill-rule="evenodd" clip-rule="evenodd" d="M337.157 46.4149L337.954 40.5632L336.508 40.3664L335.706 46.2181L337.157 46.4149Z" fill="#333333"/>
<path fill-rule="evenodd" clip-rule="evenodd" d="M348.234 45.8773L348.219 45.9589C348.022 47.2934 347.379 51.6857 345.832 52.5354C344.967 53.0154 343.594 52.1178 341.413 48.1718L340.13 48.8727C342.844 53.7883 344.948 54.6908 346.533 53.8123C348.719 52.6074 349.444 47.663 349.665 46.1653L349.68 46.0837L348.234 45.8773Z" fill="#333333"/>
<path fill-rule="evenodd" clip-rule="evenodd" d="M333.434 46.0453C333.237 46.7557 332.805 48.9639 332.968 50.6873C333.084 51.921 333.511 52.9626 334.501 53.3131C335.25 53.5771 336.437 53.4859 337.906 52.4874C338.896 51.8106 340.063 50.7017 341.355 48.9591L340.183 48.0903C338.997 49.684 337.954 50.6873 337.08 51.2825C336.067 51.969 335.37 52.0746 334.981 51.9402C334.65 51.8202 334.482 51.2585 334.419 50.5529C334.275 49.0359 334.664 47.0726 334.837 46.4389L333.434 46.0453Z" fill="#333333"/>
<path fill-rule="evenodd" clip-rule="evenodd" d="M338.665 29.3783C336.278 30.324 335.437 29.2151 335.471 28.183C335.509 26.7909 336.816 27.0693 336.552 24.8131C337.685 26.402 335.13 28.1638 336.657 28.9942C336.984 29.1719 337.503 29.3543 338.665 29.3783Z" fill="#333333"/>
<path fill-rule="evenodd" clip-rule="evenodd" d="M337.388 32.7338C340.179 34.9852 341.192 30.9912 341.682 30.3768C341.543 35.3356 337.738 34.99 337.388 32.7338Z" fill="#333333"/>
<path fill-rule="evenodd" clip-rule="evenodd" d="M339.568 23.9922C341.053 20.4831 344.991 22.4849 345.006 24.3619C344.819 24.1555 343.992 23.661 343.522 23.6034C343.358 25.6916 340.861 26.1284 340.188 23.901C339.924 23.8866 339.765 23.8722 339.568 23.9922Z" fill="#333333"/>
<path fill-rule="evenodd" clip-rule="evenodd" d="M331.076 23.8434C332.425 20.2815 336.441 22.1345 336.528 24.0115C336.331 23.8146 335.49 23.349 335.015 23.3106C334.933 25.4036 332.45 25.9316 331.695 23.733C331.426 23.7234 331.268 23.7186 331.076 23.8434Z" fill="#333333"/>
<path fill-rule="evenodd" clip-rule="evenodd" d="M281.946 43.8418C281.158 40.3424 281.36 39.3295 281.658 37.851L281.701 37.6445C281.792 37.1837 281.931 36.6701 282.061 36.1804C282.325 35.1819 282.565 34.2795 282.45 33.6218C282.306 32.7913 281.826 32.3641 280.774 32.5465C279.069 32.8393 278.252 34.4187 277.565 35.7388C277.2 36.4444 276.893 37.0349 276.801 37.0205C276.705 36.9869 276.609 36.9437 276.513 36.8909C276.407 36.8333 276.302 36.7565 276.186 36.6749C275.985 36.526 275.653 36.2332 275.245 35.878C272.934 33.8426 268.395 29.8439 265.239 32.5129C264.365 33.2522 263.904 34.6923 264.389 36.6845C264.745 38.1342 265.609 39.9247 267.209 41.9841C267.271 42.0609 267.54 42.3585 268.112 42.7858C268.419 43.0114 268.827 43.2898 269.37 43.6114C269.927 43.9427 270.59 44.1875 271.388 44.4851C272.584 44.9315 274.111 45.498 275.898 46.5925L276.662 45.3492C274.75 44.1779 273.155 43.5826 271.897 43.117C271.157 42.8434 270.547 42.6129 270.115 42.3585C269.63 42.0705 269.26 41.8209 268.981 41.6145C268.558 41.3024 268.4 41.1392 268.366 41.096C266.901 39.2047 266.118 37.6109 265.806 36.3484C265.465 34.9611 265.696 34.0442 266.181 33.6314C268.371 31.7785 272.286 35.2251 274.275 36.9773C274.702 37.3517 275.048 37.6589 275.312 37.8558C275.466 37.9662 275.624 38.0718 275.788 38.1678C275.965 38.2686 276.148 38.3502 276.335 38.4126C277.603 38.8254 278.17 37.7309 278.852 36.4156C279.386 35.3884 280.024 34.1643 281.009 33.9914C281.019 33.9914 280.995 33.8042 281.004 33.8762C281.062 34.2219 280.86 34.9803 280.639 35.8204C280.51 36.31 280.375 36.8237 280.265 37.3757L280.221 37.5821C279.885 39.2479 279.659 40.3856 280.51 44.1731L281.946 43.8418Z" fill="#333333"/>
<path fill-rule="evenodd" clip-rule="evenodd" d="M278.132 44.1827C277.44 44.4563 276.777 44.7635 276.254 45.09C274.524 44.0771 273.059 43.5346 271.897 43.1026C271.157 42.829 270.547 42.5985 270.115 42.3441C269.63 42.0561 269.26 41.8065 268.981 41.6001C268.558 41.288 268.4 41.1248 268.366 41.0816C268.232 40.9088 268.107 40.7408 267.982 40.5728C266.762 38.9022 266.085 37.4813 265.806 36.3292C265.465 34.9419 265.696 34.025 266.181 33.6122C266.402 33.425 266.642 33.2906 266.892 33.2042C269.14 32.4361 272.483 35.3787 274.275 36.9581C274.702 37.3325 275.048 37.6397 275.312 37.8366C275.466 37.947 275.624 38.0526 275.788 38.1486C275.965 38.2494 276.148 38.331 276.335 38.3934C277.603 38.8062 278.17 37.7117 278.852 36.3964C279.386 35.3691 280.024 34.145 281.014 33.9722C281.019 34.3515 280.841 35.0427 280.639 35.8012C280.51 36.2908 280.375 36.8045 280.265 37.3565L280.221 37.5629C279.909 39.1231 279.688 40.2175 280.356 43.453C279.674 43.6354 278.881 43.8899 278.132 44.1827Z" fill="#FEFEFE"/>
<path fill-rule="evenodd" clip-rule="evenodd" d="M340.587 88.6872C339.424 88.476 338.305 88.0631 336.778 87.2999C335.706 86.7622 334.837 86.2006 334.14 85.6341C333.545 85.1493 333.074 84.6596 332.714 84.1748C332.877 85.7349 333.309 87.4535 333.886 89.1768C334.712 91.6442 335.826 94.1212 336.874 96.195C337.378 94.8125 338.05 93.3484 338.805 91.889C339.367 90.8042 339.972 89.7241 340.587 88.6872Z" fill="#FF6F3D" stroke="#FF6F3D" stroke-width="0.5669" stroke-miterlimit="22.9256"/>
<path fill-rule="evenodd" clip-rule="evenodd" d="M332.642 82.8019C332.627 84.6884 333.137 86.9254 333.886 89.1768C334.712 91.6442 335.827 94.1212 336.874 96.195C337.378 94.8125 338.051 93.3483 338.805 91.889C340.13 89.3304 341.706 86.7862 343.085 84.7508L344.213 85.5093C342.854 87.5159 341.302 90.0169 340.01 92.5131C339.002 94.4668 338.147 96.4206 337.671 98.1295L337.22 99.7569L336.417 98.2688C335.159 95.9262 333.646 92.7675 332.594 89.6136C331.801 87.2374 331.263 84.8564 331.278 82.8067L332.642 82.8019Z" fill="#333333"/>
<path fill-rule="evenodd" clip-rule="evenodd" d="M325.831 63.5715C323.539 66.7637 319.658 70.4072 315.527 72.9418C311.934 75.1452 308.178 76.4941 305.209 75.9229C304.883 75.8605 303.499 75.4093 301.318 71.953C299.046 68.3479 296.102 61.6465 292.999 49.2087C293.465 49.0071 294.089 48.8199 294.742 48.671C295.674 48.455 296.654 48.311 297.38 48.2582C297.841 49.3527 298.335 50.6056 298.849 51.9065C300.934 57.2013 303.365 63.3795 307.352 67.5798L307.784 68.0358L308.298 67.6758C309.643 66.7397 313.231 62.501 316.565 58.5551C319.298 55.3244 321.858 52.2953 322.732 51.5993C323.981 50.6008 325.528 49.5639 327.675 48.6854C329.745 47.8358 332.378 47.1349 335.846 46.7557L336.038 47.0245C337.176 48.5174 339.088 49.2231 341.231 49.2759C343.277 49.3239 345.558 48.7719 347.552 47.7302C348.109 47.4421 348.642 47.1157 349.142 46.7557C351.409 47.1925 354.599 48.599 357.658 50.3848C360.747 52.1849 363.672 54.3547 365.368 56.2989C366.021 58.075 366.795 60.0672 367.616 62.1938C371.833 73.0763 377.458 87.5879 375.412 95.1581C375.398 95.2061 375.133 95.5709 373.678 95.7677C372.737 95.8925 371.387 95.8781 369.461 95.5421C367.39 95.1821 364.623 94.318 361.05 92.9403C357.433 91.5482 353.009 89.6376 347.662 87.199L347.057 88.5239C352.442 90.9817 356.895 92.9019 360.526 94.3036C364.201 95.7197 367.059 96.6078 369.22 96.9822C371.305 97.3423 372.804 97.3567 373.88 97.2126C376.195 96.9006 376.786 95.7053 376.829 95.5421C379 87.5159 373.275 72.745 368.98 61.6705C368.14 59.5007 367.352 57.475 366.694 55.6748L366.646 55.55L366.559 55.4492C364.772 53.3562 361.66 51.028 358.393 49.1223C355.065 47.1781 351.539 45.6612 349.075 45.2628L348.767 45.2148L348.517 45.4068C348.003 45.7956 347.456 46.146 346.879 46.4437C345.097 47.3701 343.075 47.8694 341.264 47.8214C339.549 47.7782 338.051 47.2501 337.2 46.1412C337.08 45.9828 336.975 45.8196 336.883 45.6468L336.653 45.21L336.163 45.258C332.31 45.6372 329.4 46.4005 327.123 47.3365C324.827 48.2774 323.165 49.3911 321.824 50.4616C320.821 51.2633 318.222 54.3355 315.45 57.6142C312.549 61.0465 309.446 64.714 307.952 66.0725C304.431 62.0882 302.164 56.3325 300.214 51.3737C299.647 49.9287 299.104 48.551 298.528 47.2213L298.335 46.7797H297.855C297.034 46.7845 295.674 46.9573 294.425 47.2453C293.378 47.4901 292.379 47.8214 291.764 48.215L291.327 48.4982L291.452 49.0023C294.651 61.9777 297.725 68.9671 300.094 72.7306C302.591 76.6958 304.489 77.2718 304.945 77.3582C308.307 78.0063 312.419 76.5613 316.296 74.1851C320.624 71.5305 324.702 67.6902 327.089 64.3251C327.901 63.1826 326.695 62.3714 325.831 63.5715Z" fill="#333333"/>
<path d="M366.067 56.0352L366.019 55.9054L365.928 55.8011C364.155 53.7681 361.15 51.5498 358.03 49.7364C355.13 48.0446 352.068 46.6592 349.734 46.1164L348.951 45.9342L348.824 46.7286C348.67 47.6925 348.402 49.1174 347.947 50.4194C347.719 51.0699 347.453 51.6674 347.145 52.1533C346.834 52.6433 346.507 52.9778 346.176 53.1605L346.175 53.1609C345.861 53.3349 345.541 53.4001 345.19 53.3432C344.827 53.2843 344.372 53.0843 343.821 52.6228L342.961 51.9027L342.624 52.9726C342.493 53.3872 342.353 53.7924 342.209 54.1786L342.207 54.1847C342.184 54.2484 342.163 54.3024 342.139 54.3636C342.126 54.398 342.111 54.4346 342.096 54.4764L342.039 54.6241L342.047 54.782C342.126 56.3245 342.303 58.4585 342.512 60.9793L342.539 61.3052L342.539 61.3053C342.555 61.4976 342.571 61.6922 342.587 61.8891C342.835 64.874 343.126 68.3755 343.363 72.2806L342.311 77.9186C341.673 77.1592 341.09 76.6337 340.544 76.3263C339.914 75.9718 339.266 75.8766 338.672 76.1449C338.125 76.3922 337.784 76.8803 337.567 77.3185C337.344 77.7701 337.198 78.2803 337.096 78.7261C337.027 79.0311 336.973 79.3267 336.932 79.57C336.924 79.57 336.915 79.57 336.907 79.5701C336.657 79.5717 336.363 79.5906 336.092 79.608C336.03 79.612 335.969 79.6159 335.91 79.6195C335.586 79.6393 335.325 79.6498 335.143 79.6382L329.945 73.8275C329.965 73.6673 330.033 73.5185 330.138 73.3961C330.272 73.2448 330.447 73.1508 330.63 73.1304L330.638 73.1295L330.647 73.1285C330.658 73.127 330.667 73.1259 330.675 73.125C330.679 73.1247 330.682 73.1244 330.685 73.1242L330.699 73.1256L330.738 73.1254L334.403 73.111L335.082 73.1083L335.146 72.4325L335.146 72.4321C335.385 69.9413 336.254 60.8656 338.341 55.5354L338.436 55.2916L338.359 55.0413C338.268 54.7464 338.181 54.4256 338.098 54.0829C337.998 53.6675 337.904 53.2478 337.814 52.8188L337.616 51.8716L336.749 52.2996C335.793 52.7706 335.118 52.7387 334.748 52.6067L334.746 52.6061C334.198 52.412 333.825 51.7911 333.71 50.6157C333.609 49.5451 333.759 48.2367 333.933 47.2616L334.121 46.2032L333.063 46.3918C330.805 46.794 328.947 47.3505 327.387 47.9861L327.386 47.9865C325.159 48.8976 323.551 49.9755 322.26 51.0083C321.757 51.4086 320.849 52.4008 319.776 53.6283C318.699 54.8606 317.398 56.3988 316.057 57.9834L315.987 58.0659L315.987 58.0659L315.969 58.087C314.306 60.053 312.589 62.0832 311.12 63.7399C310.382 64.5712 309.712 65.3024 309.147 65.881C308.58 66.4613 308.151 66.8526 307.878 67.0457C304.023 62.9712 301.638 56.9496 299.542 51.627L299.542 51.6262C299.482 51.4749 299.423 51.3241 299.364 51.174C298.915 50.0373 298.481 48.9366 298.065 47.9597L297.856 47.4699L297.325 47.5051C296.552 47.5562 295.537 47.7123 294.569 47.9355L294.569 47.9354L294.566 47.9362C293.897 48.0936 293.222 48.2879 292.696 48.5156L292.112 48.7683L292.266 49.3857C295.383 61.863 298.346 68.6464 300.679 72.3478C302.898 75.8722 304.429 76.5342 305.063 76.6546C308.321 77.2815 312.282 75.8011 315.914 73.5767L315.914 73.5763C318.589 71.9352 321.162 69.8407 323.287 67.689L323.275 67.9052L323.227 68.8173L323.227 68.8173L323.227 68.8245L323.179 69.943L323.179 69.943L323.179 69.95C323.029 74.4047 323.063 83.3892 323.53 91.8774C323.847 97.6419 324.359 103.217 325.149 106.959L325.22 107.29L325.515 107.457C330.744 110.409 336.631 111.702 342.418 111.95C349.7 112.262 356.883 110.933 362.553 109.147L363.241 108.929L363.051 108.233C362.391 105.826 361.808 103.449 361.297 101.086C360.763 98.6104 360.309 96.1346 359.937 93.6638L359.88 93.2863C360.184 93.406 360.482 93.5223 360.775 93.6353L361.045 92.9355L360.775 93.6353C364.361 95.0178 367.183 95.9033 369.327 96.2762C371.304 96.6211 372.734 96.6441 373.772 96.5064L373.774 96.5062C374.55 96.4012 375.064 96.2446 375.409 96.0764C375.583 95.9917 375.723 95.8996 375.833 95.8017C375.888 95.7529 375.939 95.6994 375.984 95.6411C376.016 95.5996 376.085 95.5035 376.125 95.3689L376.128 95.359L376.131 95.349C376.678 93.326 376.701 90.8922 376.39 88.2516C376.078 85.6031 375.425 82.6979 374.58 79.7092C372.893 73.7429 370.423 67.3702 368.319 61.9407L368.311 61.9188C368.232 61.7142 368.153 61.5109 368.075 61.309C367.341 59.4099 366.655 57.6342 366.067 56.0352ZM359.359 85.8229C359.244 85.8017 359.128 85.7803 359.013 85.7587L358.944 84.8301C358.729 81.9154 358.62 78.9676 358.624 75.9769C358.626 75.2855 358.633 74.5933 358.645 73.9002L358.655 73.9254C359.215 75.4495 360.582 78.1312 361.948 80.6231L361.949 80.6238C362.673 81.9409 363.402 83.2142 364.024 84.2512C364.637 85.2716 365.171 86.1062 365.5 86.5132L365.672 86.7265C363.934 86.5831 361.676 86.2512 359.361 85.8231L359.359 85.8229ZM326.435 64.0036C326.46 63.9694 326.484 63.9392 326.506 63.9126L327.079 64.3204C326.244 65.4917 325.206 66.7254 324.024 67.9447L323.976 68.8567L323.928 69.9752C323.779 74.406 323.813 83.3683 324.279 91.8362C324.596 97.5967 325.105 103.122 325.883 106.804L326.435 64.0036ZM326.507 63.9119C326.62 63.7799 326.708 63.7366 326.743 63.7249C326.753 63.7214 326.758 63.7206 326.76 63.7204C326.761 63.7202 326.758 63.7208 326.75 63.7201C326.735 63.7188 326.709 63.7126 326.68 63.6942C326.651 63.6756 326.629 63.6506 326.615 63.6255C326.601 63.6008 326.6 63.5856 326.601 63.5893C326.601 63.5975 326.601 63.6991 326.468 63.8853C326.446 63.9165 326.424 63.9478 326.401 63.9791L326.507 63.9119Z" fill="#EFEFEF" stroke="#333333" stroke-width="1.5" stroke-miterlimit="22.9256"/>
<path fill-rule="evenodd" clip-rule="evenodd" d="M358.244 66.5717C358.004 69.7304 357.879 72.8602 357.875 75.9757C357.87 79.3216 358.004 82.6098 358.273 85.8597L359.734 85.7397C359.465 82.4898 359.33 79.24 359.335 75.9757C359.34 72.9418 359.46 69.86 359.705 66.7109C359.786 65.5828 358.336 65.3428 358.244 66.5717ZM359.148 93.4347L360.593 93.2235C360.978 95.7965 361.444 98.3695 362.001 100.952C362.558 103.544 363.202 106.137 363.927 108.729L364.114 109.401L363.451 109.617C357.61 111.537 350.059 112.996 342.393 112.67C336.365 112.411 330.269 111.043 324.875 107.918L324.601 107.759L324.529 107.442C323.688 103.674 323.145 97.9135 322.819 91.9178C322.353 83.4163 322.314 74.406 322.468 69.9368L322.516 68.7943L322.579 67.5942L324.039 67.6854L323.976 68.8615L323.928 69.98C323.779 74.4108 323.813 83.3731 324.279 91.841C324.596 97.6015 325.105 103.127 325.883 106.809C330.985 109.689 336.749 110.961 342.451 111.206C349.627 111.513 356.722 110.202 362.327 108.436C361.665 106.017 361.079 103.626 360.565 101.25C360.012 98.6431 359.537 96.0413 359.148 93.4347Z" fill="#333333"/>
<path fill-rule="evenodd" clip-rule="evenodd" d="M372.362 236.962C371.219 238.253 369.768 239.64 368.279 241.061C365.868 243.365 363.36 245.761 362.107 247.811C361.165 249.352 360.992 250.686 362.327 251.565C363.139 251.665 366.041 250.441 369.403 248.742C373.164 246.841 377.401 244.345 379.999 242.372C380.019 242.353 380.072 242.314 380.091 242.305C380.144 242.266 380.23 242.209 380.331 242.122C380.869 241.657 381.719 240.394 379.087 237.336L380.196 236.386C383.693 240.452 382.18 242.453 381.277 243.231C381.147 243.341 381.018 243.433 380.931 243.495L380.864 243.543C378.184 245.574 373.875 248.118 370.061 250.043C366.29 251.949 362.904 253.264 361.838 252.952L361.746 252.928L361.665 252.875C359.292 251.43 359.441 249.376 360.862 247.052C362.217 244.839 364.792 242.377 367.275 240.005C368.745 238.599 370.181 237.231 371.272 235.997L372.362 236.962Z" fill="#333333"/>
<path fill-rule="evenodd" clip-rule="evenodd" d="M331.417 236.006C329.942 236.611 328.146 237.231 326.311 237.859C322.622 239.122 318.774 240.442 316.565 242.055C314.605 243.49 313.846 245.132 315.297 247.105L315.354 247.182L315.431 247.244C316.31 247.95 320.667 248.065 325.581 247.763C330.336 247.47 335.697 246.827 338.867 245.987L338.944 245.967C339.679 245.804 342.643 245.127 341.226 239.914C341.173 239.722 340.789 238.877 340.433 238.08C340.14 237.432 339.862 236.813 339.828 236.717L338.44 237.173C338.488 237.322 338.786 237.984 339.103 238.68C339.439 239.429 339.799 240.221 339.818 240.293C340.837 244.047 339.064 244.446 338.627 244.542L338.521 244.566C335.442 245.382 330.183 246.011 325.499 246.299C321.046 246.572 317.189 246.567 316.416 246.14C315.7 245.07 316.224 244.11 317.439 243.221C319.461 241.743 323.203 240.461 326.796 239.228C328.622 238.603 330.413 237.989 331.984 237.341L331.417 236.006Z" fill="#333333"/>
<path fill-rule="evenodd" clip-rule="evenodd" d="M368.279 241.061C365.868 243.365 363.36 245.761 362.107 247.811C361.165 249.351 360.992 250.686 362.328 251.564C363.139 251.665 366.041 250.441 369.403 248.742C373.164 246.841 377.401 244.345 380 242.372C380.019 242.353 380.072 242.314 380.091 242.305C380.144 242.266 380.23 242.209 380.331 242.122C380.624 241.872 381.004 241.392 380.879 240.524C380.787 239.861 380.398 238.968 379.452 237.778C378.467 238.205 377.223 238.387 375.979 238.354C374.529 238.315 373.039 237.989 371.954 237.418C371.051 238.402 369.989 239.429 368.889 240.485C368.683 240.677 368.481 240.869 368.279 241.061Z" fill="#FEFEFE"/>
<path fill-rule="evenodd" clip-rule="evenodd" d="M339.809 240.298C339.833 240.384 339.857 240.471 339.876 240.557C340.745 244.071 339.045 244.455 338.618 244.551L338.512 244.575C335.433 245.391 330.173 246.02 325.49 246.308C321.037 246.582 317.18 246.577 316.406 246.15C315.69 245.079 316.214 244.119 317.429 243.231C318.659 242.329 320.532 241.503 322.617 240.716C323.957 240.212 325.379 239.722 326.787 239.242C328.42 238.68 330.024 238.133 331.47 237.557C332.368 238.147 333.756 238.757 335.351 238.863C336.456 238.935 337.662 238.767 338.867 238.186C338.939 238.344 339.016 238.517 339.093 238.685C339.429 239.434 339.785 240.226 339.809 240.298Z" fill="#FEFEFE"/>
<path fill-rule="evenodd" clip-rule="evenodd" d="M360.55 110.49C363.937 121.565 367.722 141.568 371.036 164.188C375.816 187.484 378.895 213.723 378.852 235.954C377.973 236.438 376.69 236.722 375.412 236.75C374.144 236.779 372.915 236.568 372.132 236.074C371.032 231.888 366.598 213.91 360.642 193.057C355.617 175.459 349.012 156.344 345.544 142.936L344.156 137.872C344.07 150.463 343.224 163.688 342.677 172.267C342.513 174.849 342.374 177.01 342.288 178.656C342.283 178.767 342.288 179.189 342.297 179.895C342.379 186.005 342.744 214.021 338.406 236.779C337.388 237.312 336.365 237.466 335.433 237.408C334.165 237.327 333.055 236.851 332.33 236.381C332.248 229.799 332.027 220.343 331.408 210.262C330.774 199.955 329.712 188.963 327.944 179.645C327.8 178.887 325.139 163.631 324.985 142.994C324.909 132.683 325.461 121.027 327.267 109.166C332.037 111.407 337.239 112.439 342.388 112.665C348.844 112.943 355.214 111.955 360.55 110.49Z" fill="#404040" stroke="#404040" stroke-width="0.216" stroke-miterlimit="22.9256"/>
<path fill-rule="evenodd" clip-rule="evenodd" d="M344.161 137.728C344.079 150.363 343.229 163.655 342.681 172.267C342.518 174.849 342.379 177.01 342.292 178.656C342.287 178.767 342.292 179.189 342.302 179.895C342.383 186.006 342.749 214.021 338.411 236.779C337.393 237.312 336.37 237.466 335.438 237.408C334.17 237.327 333.06 236.851 332.335 236.381C332.253 229.799 332.032 220.343 331.412 210.262C330.778 199.955 329.717 188.963 327.949 179.645C327.805 178.887 325.144 163.631 324.99 142.994C324.913 132.395 325.494 120.384 327.425 108.186L325.984 107.961C324.044 120.235 323.458 132.332 323.535 142.994C323.688 163.77 326.369 179.141 326.513 179.904C328.271 189.155 329.323 200.085 329.957 210.339C330.591 220.626 330.807 230.212 330.884 236.77L330.889 237.13L331.177 237.346C332.046 237.994 333.569 238.743 335.351 238.858C336.634 238.939 338.046 238.699 339.444 237.874L339.727 237.706L339.79 237.384C344.218 214.433 343.844 186.039 343.767 179.871C343.757 179.218 343.752 178.819 343.757 178.723C343.839 177.168 343.978 174.974 344.146 172.353C344.627 164.855 345.333 153.819 345.559 142.73L344.161 137.728Z" fill="#333333"/>
<path fill-rule="evenodd" clip-rule="evenodd" d="M335.755 123.759C336.687 124.594 337.738 125.338 338.906 125.885C340.111 126.447 341.447 126.807 342.897 126.85L343.488 126.869L343.556 127.45C345.448 143.676 350.573 159.757 356.626 178.733C361.794 194.944 367.635 213.267 372.722 235.603C373.625 236.011 374.605 236.112 375.561 236.045C376.474 235.978 377.372 235.752 378.16 235.478C377.992 228.859 377.612 218.845 376.757 208.207C376.152 200.656 375.311 192.813 374.139 185.694C373.976 184.709 373.817 183.773 373.654 182.88C373.491 181.978 373.318 181.09 373.145 180.221C373.006 179.539 372.823 178.68 372.641 177.845C372.16 175.622 371.718 173.587 371.469 171.052C371.3 169.339 371.113 167.572 370.911 165.772C370.705 163.924 370.489 162.152 370.272 160.448C369.072 151.102 367.534 142.029 365.8 133.691C363.999 125.041 361.982 117.197 359.902 110.687L361.194 110.279C363.288 116.846 365.32 124.733 367.126 133.417C368.87 141.77 370.412 150.881 371.617 160.28C371.853 162.114 372.069 163.9 372.266 165.623C372.458 167.337 372.645 169.103 372.823 170.923C373.058 173.342 373.496 175.358 373.971 177.552C374.12 178.243 374.274 178.959 374.475 179.952C374.653 180.831 374.826 181.728 374.989 182.636C375.162 183.601 375.33 184.541 375.479 185.468C376.656 192.649 377.506 200.527 378.112 208.097C378.986 218.975 380.023 229.718 380.187 236.376L380.196 236.856L379.745 237.029C377.564 237.855 372.977 238.368 371.329 236.299L371.262 235.992C366.165 213.55 360.512 195.395 355.329 179.136C349.324 160.299 344.228 144.309 342.268 128.166C340.842 128.05 339.53 127.666 338.325 127.105C336.999 126.485 335.812 125.645 334.78 124.704C333.862 123.869 334.837 122.933 335.755 123.759Z" fill="#333333"/>
<path fill-rule="evenodd" clip-rule="evenodd" d="M341.259 47.8166C343.065 47.8598 345.092 47.3654 346.875 46.4389C347.071 46.3381 347.264 46.2277 347.456 46.1125L347.033 37.6158C346.428 38.331 345.832 38.9263 345.256 39.4207C341.514 42.637 338.372 41.7489 338.161 41.6673C338.046 41.6241 337.93 41.5809 337.82 41.5329L337.191 46.1269C337.191 46.1269 337.191 46.1317 337.195 46.1317C338.046 47.2454 339.544 47.7782 341.259 47.8166Z" fill="#FEFEFE"/>
<path fill-rule="evenodd" clip-rule="evenodd" d="M339.568 23.9923C341.053 20.4832 344.992 22.485 345.006 24.3619C344.819 24.1555 343.992 23.6611 343.522 23.6034C343.358 25.6916 340.861 26.1285 340.188 23.9011C339.919 23.8867 339.765 23.8723 339.568 23.9923ZM338.67 40.2992C338.824 40.3568 341.182 41.0001 344.309 38.3119C345.943 36.9101 347.744 34.6156 349.497 30.9048C349.468 30.9144 349.435 30.9241 349.406 30.9337C348.945 31.0585 348.565 30.2232 349.329 29.9352C349.531 29.8584 349.733 29.7528 349.91 29.6279C350.29 29.3687 350.592 29.0471 350.775 28.7591C351.495 27.631 351.683 26.3781 351.433 25.466C351.337 25.1156 351.174 24.8179 350.957 24.6163C350.756 24.4243 350.492 24.3091 350.175 24.2947C349.54 24.2659 348.7 24.6115 347.682 25.5188C347.115 26.0228 346.61 25.3748 346.884 24.9524L346.567 24.5059C346.63 22.5426 346.567 20.9296 346.409 19.6095C346.24 18.2318 345.967 17.1949 345.606 16.4365C345.376 15.9468 345.02 15.4668 344.588 15.0779C344.194 14.7179 343.743 14.4395 343.272 14.2955C342.715 14.1227 342.153 14.1659 341.6 14.3339C340.99 14.5211 340.375 14.8619 339.765 15.2652C339.458 15.4668 339.155 15.6828 338.862 15.894C337.335 16.9885 336.12 17.8574 333.703 17.2141C333.377 17.1277 333.069 16.9645 332.805 16.7389C332.776 16.7149 332.747 16.6909 332.723 16.6669C332.286 17.3293 331.912 18.0926 331.595 18.9327C330.523 21.8129 330.211 25.5428 330.807 29.1287C331.398 32.6858 332.877 36.0797 335.385 38.3215C336.331 39.1567 337.421 39.8384 338.67 40.2992ZM349.435 25.9988C348.83 26.1189 348.762 25.6148 349.396 25.5092C349.588 25.4804 349.761 25.4804 349.915 25.5188C350.17 25.5764 350.362 25.7156 350.492 25.9172C350.612 26.1045 350.674 26.3445 350.674 26.6133C350.674 27.0597 350.501 27.6166 350.141 28.1734C350.006 28.3846 349.781 28.6247 349.512 28.8071C349.368 28.9079 349.209 28.9895 349.036 29.0471C348.623 29.1911 348.455 28.7735 348.969 28.5527C349.06 28.5143 349.151 28.4614 349.238 28.4038C349.454 28.2598 349.627 28.0726 349.733 27.9094C350.04 27.4294 350.189 26.9733 350.189 26.6133C350.189 26.4357 350.155 26.2869 350.083 26.1813C350.021 26.0853 349.93 26.0228 349.809 25.994C349.704 25.97 349.579 25.97 349.435 25.9988ZM331.076 23.8435C332.426 20.2816 336.441 22.1345 336.528 24.0115C336.331 23.8147 335.49 23.349 335.015 23.3106C334.933 25.4036 332.45 25.9316 331.696 23.7331C331.427 23.7235 331.268 23.7187 331.076 23.8435ZM337.388 32.7338C340.178 34.9852 341.192 30.9913 341.682 30.3768C341.543 35.3356 337.738 34.99 337.388 32.7338ZM336.658 28.9943C336.984 29.1719 337.508 29.3543 338.665 29.3783C336.278 30.324 335.437 29.2151 335.471 28.183C335.509 26.7909 336.816 27.0693 336.552 24.8131C337.685 26.3973 335.125 28.1638 336.658 28.9943Z" fill="#FEFEFE"/>
<path fill-rule="evenodd" clip-rule="evenodd" d="M344.028 89.7367L235.806 68.6835C232.501 68.117 230.282 64.9824 230.844 61.6797L235.874 34.1529C236.441 30.8503 239.578 28.6325 242.883 29.1941L351.105 50.2474C354.41 50.8138 356.629 53.9485 356.067 57.2512L351.041 84.7779C350.47 88.0806 347.333 90.3032 344.028 89.7367Z" fill="#FF7340"/>
<g clip-path="url(#clip1_8952_280712)">
<path d="M284.436 64.3776C284.746 65.0861 284.503 65.8725 283.9 66.2182C283.209 66.5471 282.365 66.2903 282.038 65.6711L279.802 61.069L276.108 64.4258C275.556 64.9667 274.694 64.7992 274.177 64.2357C273.661 63.6722 273.731 62.8523 274.283 62.3114L278.633 58.3412L276.087 53.0306C275.777 52.3222 276.123 51.4633 276.727 51.1176C277.417 50.7887 278.244 51.1347 278.571 51.7539L280.721 56.3393L284.484 53.0884C285.036 52.5475 285.829 52.6091 286.432 53.1893C286.949 53.7528 286.775 54.6451 286.223 55.186L281.977 59.0838L284.436 64.3776ZM268.853 60.793C266.612 60.3574 265.149 58.2208 265.6 55.9006C266.034 53.6696 268.208 52.1474 270.449 52.583C272.69 53.0186 274.136 55.2445 273.702 57.4754C273.165 59.7789 271.008 61.2118 268.853 60.793ZM256.959 58.4809C254.718 58.0453 253.255 55.9087 253.706 53.5885C254.14 51.3576 256.314 49.8354 258.555 50.271C260.796 50.7066 262.242 52.9324 261.808 55.1634C261.357 57.4836 259.2 58.9165 256.959 58.4809ZM270.97 49.9059C268.47 49.42 265.952 50.4122 264.415 52.3361C263.711 49.9766 261.747 48.1132 259.161 47.6106C257.61 47.309 256.127 47.5764 254.85 48.1617L255.96 42.4504C256.099 41.7365 255.617 40.9946 254.928 40.8605C254.152 40.7097 253.427 41.2171 253.288 41.9311L251.103 53.1751C250.46 56.9399 252.818 60.4544 256.439 61.1581C259.024 61.6607 261.56 60.5793 263.097 58.6553C263.801 61.0149 265.747 62.9675 268.247 63.4534C271.953 64.1738 275.56 61.7261 276.305 57.8888C277.103 54.2468 274.676 50.6263 270.97 49.9059Z" fill="white"/>
</g>
<path fill-rule="evenodd" clip-rule="evenodd" d="M322.318 64.2573L334.318 60.9834C335.317 60.7002 335.461 59.985 334.601 59.4185L324.173 52.5828C323.659 52.2419 322.885 52.0019 322.131 51.9251C321.632 51.8771 321.142 51.9011 320.743 52.0115L319.677 52.3043L308.744 55.2854C307.745 55.5686 307.601 56.2839 308.456 56.8503L313.134 59.9178L314.364 60.7242L318.884 63.6861C319.605 64.2573 321.175 64.5405 322.318 64.2573Z" fill="white"/>
<path fill-rule="evenodd" clip-rule="evenodd" d="M326.623 64.2094L324.538 64.7662L322.175 65.3951C321.175 65.6783 319.605 65.3951 318.745 64.8238L313.72 61.4827L312.495 60.6667L311.89 60.2634L307.745 61.4011C306.746 61.6843 306.602 62.3996 307.457 62.9661L309.392 64.2334L310.627 65.0398L317.89 69.797C318.212 70.0082 318.61 70.1859 319.057 70.3011C319.706 70.4739 320.44 70.5315 321.151 70.4211C321.257 70.4067 321.358 70.3875 321.459 70.3635L321.757 70.2819L323.236 69.8786L333.458 67.0896C334.457 66.8064 334.601 66.0911 333.746 65.5247L330.172 63.2445L326.623 64.2094Z" fill="white" fill-opacity="0.75"/>
<path fill-rule="evenodd" clip-rule="evenodd" d="M328.89 69.3794L323.198 70.9251L321.728 71.3236L321.031 71.5108C320.666 71.6164 320.224 71.6452 319.768 71.6068C319.148 71.5588 318.505 71.3956 317.991 71.1555C317.851 71.0883 317.722 71.0163 317.602 70.9395L310.886 66.528L308.653 67.1424L306.741 67.6705C306.669 67.6897 306.602 67.7137 306.534 67.7377C306.501 67.7521 306.467 67.7665 306.434 67.7809C305.718 68.1121 305.694 68.7313 306.453 69.2354L306.534 69.2882L313.72 73.9974L315.089 74.895L316.886 76.0711C317.746 76.6424 319.172 76.9256 320.171 76.6424L321.675 76.2344L323.135 75.8359L328.482 74.3766L332.175 73.3685C332.622 73.2437 332.896 73.0277 332.987 72.7829C333.102 72.4756 332.934 72.1156 332.459 71.8036L328.89 69.3794Z" fill="white" fill-opacity="0.5"/>
<defs>
<filter id="filter0_d_8952_280712" x="59" y="40" width="170" height="200" filterUnits="userSpaceOnUse" color-interpolation-filters="sRGB">
<feFlood flood-opacity="0" result="BackgroundImageFix"/>
<feColorMatrix in="SourceAlpha" type="matrix" values="0 0 0 0 0 0 0 0 0 0 0 0 0 0 0 0 0 0 127 0" result="hardAlpha"/>
<feOffset dy="7"/>
<feGaussianBlur stdDeviation="7.5"/>
<feColorMatrix type="matrix" values="0 0 0 0 0.333333 0 0 0 0 0.333333 0 0 0 0 0.333333 0 0 0 0.1 0"/>
<feBlend mode="normal" in2="BackgroundImageFix" result="effect1_dropShadow_8952_280712"/>
<feBlend mode="normal" in="SourceGraphic" in2="effect1_dropShadow_8952_280712" result="shape"/>
</filter>
<clipPath id="clip0_8952_280712">
<rect width="36" height="20" fill="white" transform="translate(20 13)"/>
</clipPath>
<clipPath id="clip1_8952_280712">
<rect width="36" height="20" fill="white" transform="translate(253.549 40.5925) rotate(11)"/>
</clipPath>
</defs>
</svg>
