<svg width="1680" height="1230" viewBox="0 0 1680 1230" fill="none" xmlns="http://www.w3.org/2000/svg">
<rect width="1680" height="1230" fill="#0056CF"/>
<g style="mix-blend-mode:soft-light" opacity="0.3">
<path fill-rule="evenodd" clip-rule="evenodd" d="M876.137 -103.435L1744.57 793.559C1818.15 871.024 1792.78 938.264 1687.86 943.859L443.34 1043.59C336.928 1053.14 192.152 998.513 122.485 922.524L-745.947 25.5306C-819.527 -51.9347 -794.156 -119.174 -689.236 -124.769L555.282 -224.501C660.202 -230.096 804.978 -175.468 876.137 -103.435Z" fill="#333333"/>
</g>
<g style="mix-blend-mode:soft-light" opacity="0.2">
<path fill-rule="evenodd" clip-rule="evenodd" d="M1200.34 1107.86L2604.46 1361.62C2724.93 1382.13 2779.82 1311.62 2727.16 1204.01L2136.73 -94.9674C2087.29 -206.727 1950.63 -313.119 1833.85 -330.754L429.73 -584.514C309.259 -605.025 254.367 -534.514 307.031 -426.902L897.46 872.077C950.124 979.689 1086.79 1086.08 1200.34 1107.86Z" fill="black"/>
</g>
<g style="mix-blend-mode:soft-light" opacity="0.2">
<path fill-rule="evenodd" clip-rule="evenodd" d="M1057.43 -263.928L1801.03 310.797C1864.19 360.584 1852.53 413.411 1774.97 428.88L858.539 637.23C780.29 655.807 666.547 630.704 606.46 581.595L-137.144 6.87033C-200.305 -42.9164 -188.646 -95.7429 -111.083 -111.212L805.348 -319.562C882.911 -335.032 996.655 -309.928 1057.43 -263.928Z" fill="#333333"/>
</g>
</svg>
