<svg width="72" height="40" viewBox="0 0 72 40" fill="none" xmlns="http://www.w3.org/2000/svg">
<path d="M69.7171 34.9091C70.5951 36.1818 70.4195 37.8182 69.3659 38.7273C68.1366 39.6364 66.3805 39.4545 65.5024 38.3636L59.3561 30.1818L53.3854 38.1818C52.5073 39.4545 50.7512 39.4545 49.522 38.5455C48.2927 37.6364 48.1171 36 48.9951 34.7273L56.0195 25.2727L48.9951 15.8182C48.1171 14.5455 48.4683 12.7273 49.522 11.8182C50.7512 10.9091 52.5073 11.2727 53.3854 12.3636L59.3561 20.5455L65.5024 12.7273C66.3805 11.4545 67.961 11.2727 69.3659 12.1818C70.5951 13.0909 70.5951 14.9091 69.7171 16.1818L62.8683 25.4545L69.7171 34.9091ZM37.7561 33.8182C33.1902 33.8182 29.5024 30.1818 29.5024 25.4545C29.5024 20.9091 33.1902 17.0909 37.7561 17.0909C42.322 17.0909 46.0098 20.9091 46.0098 25.4545C45.8342 30.1818 42.1463 33.8182 37.7561 33.8182ZM13.522 33.8182C8.9561 33.8182 5.26829 30.1818 5.26829 25.4545C5.26829 20.9091 8.9561 17.0909 13.522 17.0909C18.0878 17.0909 21.7756 20.9091 21.7756 25.4545C21.7756 30.1818 18.0878 33.8182 13.522 33.8182ZM37.7561 11.6364C32.6634 11.6364 28.0976 14.5455 25.8146 18.9091C23.5317 14.5455 18.9659 11.6364 13.6976 11.6364C10.5366 11.6364 7.72683 12.7273 5.4439 14.3636V2.72727C5.4439 1.27273 4.21463 0 2.80976 0C1.22927 0 0 1.27273 0 2.72727V25.6364C0.17561 33.2727 6.14634 39.2727 13.522 39.2727C18.7902 39.2727 23.3561 36.1818 25.639 31.8182C27.922 36.1818 32.4878 39.2727 37.5805 39.2727C45.1317 39.2727 51.2781 33.0909 51.2781 25.2727C51.4537 17.8182 45.3073 11.6364 37.7561 11.6364Z" fill="white"/>
</svg>
