<svg width="64" height="64" viewBox="0 0 64 64" fill="none" xmlns="http://www.w3.org/2000/svg">
<path fill-rule="evenodd" clip-rule="evenodd" d="M11 10.6053C11 9.16841 12.1605 8 13.5964 8H61.4036C62.8396 8 64 9.16841 64 10.6053V51.3947C64 52.8316 62.8396 54 61.4036 54H30.001V53H61.4036C62.2833 53 63 52.2833 63 51.3947V10.6053C63 9.71671 62.2833 9 61.4036 9H13.5964C12.7167 9 12 9.71671 12 10.6053V26.1043H11V10.6053Z" fill="#333333"/>
<path d="M46.085 31.7205H39.8773V31.0116C40.4235 30.9783 40.8751 30.9117 41.2323 30.8119C41.5964 30.712 41.7785 30.5889 41.7785 30.4425C41.7785 30.3826 41.7715 30.3094 41.7575 30.2228C41.7435 30.1363 41.7224 30.0597 41.6944 29.9932L40.455 26.8182H35.2346C35.0386 27.2841 34.8775 27.6902 34.7515 28.0363C34.6324 28.3824 34.5239 28.7019 34.4259 28.9948C34.3348 29.281 34.2718 29.5139 34.2368 29.6937C34.2018 29.8734 34.1843 30.0198 34.1843 30.133C34.1843 30.3992 34.4049 30.6055 34.846 30.752C35.2872 30.8984 35.7843 30.9849 36.3375 31.0116V31.7205H30.7285V31.0116C30.9106 30.9983 31.1382 30.9617 31.4113 30.9017C31.6844 30.8352 31.9085 30.7487 32.0835 30.6422C32.3636 30.4624 32.5807 30.2761 32.7348 30.083C32.8888 29.8834 33.0394 29.6105 33.1864 29.2643C33.9357 27.4872 34.762 25.4903 35.6653 23.2738C36.5686 21.0573 37.3739 19.0838 38.0812 17.3532H38.9215L43.8897 29.5739C43.9948 29.8334 44.1138 30.0431 44.2468 30.2029C44.3799 30.3626 44.5655 30.519 44.8035 30.6721C44.9646 30.7653 45.1747 30.8452 45.4338 30.9117C45.6929 30.9716 45.9099 31.0049 46.085 31.0116V31.7205ZM40.0769 25.9296L37.8186 20.4383L35.6023 25.9296H40.0769Z" fill="url(#paint0_linear_16_12450)"/>
<path d="M52.9019 30.4025H52.8284C52.6743 30.5223 52.4888 30.6754 52.2717 30.8618C52.0616 31.0415 51.813 31.2146 51.5259 31.381C51.2528 31.5474 50.9552 31.6905 50.6331 31.8103C50.311 31.9368 49.9609 32 49.5827 32C48.5674 32 47.7691 31.6539 47.1879 30.9617C46.6137 30.2694 46.3266 29.3242 46.3266 28.1261C46.3266 27.3008 46.4876 26.4987 46.8097 25.72C47.1319 24.9412 47.5765 24.2423 48.1437 23.6233C48.6829 23.0309 49.3236 22.555 50.0659 22.1955C50.8082 21.8295 51.5714 21.6464 52.3557 21.6464C52.8529 21.6464 53.3256 21.7096 53.7737 21.8361C54.2289 21.9626 54.586 22.1057 54.8451 22.2654L56.7673 21.7962L56.8933 21.9459L55.2968 28.3857C55.2407 28.5921 55.1812 28.845 55.1182 29.1445C55.0622 29.4374 55.0342 29.6537 55.0342 29.7935C55.0342 30.1729 55.1182 30.4292 55.2863 30.5623C55.4543 30.6954 55.7379 30.762 56.1371 30.762C56.2701 30.762 56.4592 30.742 56.7043 30.7021C56.9493 30.6621 57.1384 30.6189 57.2715 30.5723L57.1139 31.2113C56.4837 31.4509 56.0145 31.6239 55.7064 31.7304C55.3983 31.8369 55.0237 31.8902 54.5825 31.8902C54.0783 31.8902 53.6792 31.7504 53.3851 31.4708C53.091 31.1913 52.9299 30.8352 52.9019 30.4025ZM54.4039 24.0925C54.4039 23.8729 54.3794 23.6632 54.3304 23.4635C54.2814 23.2638 54.1799 23.0775 54.0258 22.9044C53.8858 22.738 53.6932 22.6049 53.4481 22.505C53.203 22.4052 52.8949 22.3553 52.5238 22.3553C52.0126 22.3553 51.5154 22.515 51.0322 22.8345C50.5491 23.154 50.1149 23.5833 49.7298 24.1225C49.3657 24.6284 49.0681 25.2407 48.837 25.9596C48.6059 26.6784 48.4903 27.4073 48.4903 28.1461C48.4903 28.5521 48.5149 28.9116 48.5639 29.2244C48.6129 29.5372 48.7074 29.8235 48.8475 30.083C48.9805 30.336 49.1731 30.5323 49.4252 30.6721C49.6773 30.8119 49.9959 30.8818 50.381 30.8818C50.7732 30.8818 51.1828 30.7786 51.61 30.5723C52.0441 30.3593 52.5308 29.9899 53.07 29.464L54.4039 24.0925Z" fill="url(#paint1_linear_16_12450)"/>
<path d="M30.9992 37.5016C30.9995 37.5016 30.9997 37.5016 31 37.5016L56.9935 37.5942C56.9929 37.5942 56.9931 37.5942 56.9941 37.5942L56.9944 37.5942C56.9965 37.5943 57.0014 37.5945 57.0087 37.595C57.0241 37.596 57.0489 37.5983 57.0798 37.6031C57.1442 37.6131 57.2217 37.6319 57.2926 37.6642C57.3628 37.6962 57.4108 37.7341 57.441 37.7751C57.467 37.8105 57.5 37.8745 57.5 38.0018V41.9813C57.4998 41.9829 57.4996 41.9846 57.4994 41.9864C57.4977 42.0013 57.4942 42.0256 57.4879 42.0562C57.4747 42.1195 57.4516 42.1972 57.4137 42.2693C57.3493 42.3921 57.2507 42.5016 57 42.5016H31C30.7493 42.5016 30.6507 42.3921 30.5863 42.2693C30.5484 42.1972 30.5253 42.1195 30.5121 42.0562C30.5058 42.0256 30.5023 42.0013 30.5006 41.9864C30.5004 41.9846 30.5002 41.9829 30.5 41.9814L30.5009 38.022C30.5011 38.0204 30.5013 38.0186 30.5015 38.0167C30.5032 38.0018 30.5067 37.9774 30.513 37.9469C30.5261 37.8836 30.5492 37.8059 30.587 37.7337C30.6511 37.6112 30.7493 37.5019 30.9992 37.5016Z" fill="#D9F4FF" stroke="#333333"/>
<path fill-rule="evenodd" clip-rule="evenodd" d="M24 26V19L25 19V26H24Z" fill="#333333"/>
<path fill-rule="evenodd" clip-rule="evenodd" d="M27 19H22V18H27V19Z" fill="#333333"/>
<rect x="0.5" y="30.5" width="25" height="23" rx="2.5" fill="url(#paint2_linear_16_12450)"/>
<rect x="0.5" y="30.5" width="25" height="23" rx="2.5" stroke="#333333"/>
<path d="M7 46.9688V44M14 46.9688V39.4375C14 37.625 12.8877 36 10.4907 36C8.09375 36 7 37.75 7 39.4375V44M7 44H14M18 36.1713V46.9688" stroke="white" stroke-width="2" stroke-linecap="round" stroke-linejoin="round"/>
<defs>
<linearGradient id="paint0_linear_16_12450" x1="30.7286" y1="16.7811" x2="42.8721" y2="39.6471" gradientUnits="userSpaceOnUse">
<stop stop-color="#FF8E3D"/>
<stop offset="1" stop-color="#FF6F3D"/>
</linearGradient>
<linearGradient id="paint1_linear_16_12450" x1="30.7286" y1="16.7811" x2="42.8721" y2="39.6471" gradientUnits="userSpaceOnUse">
<stop stop-color="#FF8E3D"/>
<stop offset="1" stop-color="#FF6F3D"/>
</linearGradient>
<linearGradient id="paint2_linear_16_12450" x1="5.00581e-05" y1="29.0625" x2="23.8504" y2="55.9097" gradientUnits="userSpaceOnUse">
<stop stop-color="#FF8E3D"/>
<stop offset="1" stop-color="#FF6F3D"/>
</linearGradient>
</defs>
</svg>
