<svg width="64" height="64" viewBox="0 0 64 64" fill="none" xmlns="http://www.w3.org/2000/svg">
<circle cx="31.5" cy="30" r="28.5" fill="white" stroke="#333333"/>
<path d="M31.979 2.0041C16.5179 1.74418 3.76911 13.867 3.50496 29.0809C3.35492 37.7073 6.61314 45.557 12.8343 50.7129C13.2411 50.3635 14.3266 49.9466 14.8115 49.6867L23.166 45.2025C24.2617 44.614 24.9442 43.4838 24.9442 42.2549V38.8863C24.9442 38.8863 22.4919 36.0001 21.5568 31.99C20.7813 31.4961 20.2614 30.6426 20.2614 29.6704V25.9837C20.2614 25.1727 20.6281 24.448 21.1976 23.9407V18.6112C21.1976 18.6112 20.085 10.3175 31.4993 10.3175C42.9136 10.3175 41.8011 18.6112 41.8011 18.6112V23.9407C42.3716 24.448 42.7372 25.1727 42.7372 25.9837V29.6704C42.7372 30.9098 41.8919 31.9526 40.7445 32.3009C40.1052 34.2565 39.1828 36.1207 37.9635 37.8154C37.6561 38.2427 37.3687 38.6046 37.1172 38.8863V42.3402C37.1172 43.6117 37.8473 44.7752 39.0032 45.3428L47.9494 49.7439C48.4861 50.0079 49.5531 50.6288 50 51C56.0331 46.049 59.3489 38.3592 59.4937 30.0229C59.7599 14.809 47.4411 2.26403 31.979 2.0041Z" fill="url(#paint0_linear_16_12483)"/>
<path d="M55.4357 43.2524L55.4316 43.245C55.0448 42.5446 55.2362 41.6578 55.8845 41.187C56.144 40.9851 56.1993 40.6008 55.9997 40.329C54.5567 38.3689 52.0213 37.0062 49.6208 36.5139L49.619 36.5135C49.3037 36.4476 48.9657 36.6895 48.9244 37.039C48.8772 37.8904 48.1626 38.5621 47.3024 38.5223L47.3024 38.5223C46.4981 38.485 45.8667 37.8361 45.8224 37.039C45.7811 36.6898 45.4436 36.4479 45.1273 36.5136L45.126 36.5139C42.6595 37.0197 40.4264 38.3472 38.7789 40.2893L38.7764 40.2922C38.5563 40.5477 38.5825 40.9387 38.8311 41.161L38.8314 41.1613C39.0972 41.3994 39.3499 41.7136 39.4641 42.0944C39.585 42.4979 39.5366 42.9348 39.2632 43.3476L55.4357 43.2524ZM55.4357 43.2524L55.44 43.2596M55.4357 43.2524L55.44 43.2596M55.44 43.2596C55.8476 43.9423 56.6955 44.2183 57.4229 43.892C57.7715 43.7425 57.8638 43.7942 57.884 43.8055L57.8847 43.8059C57.9561 43.8456 58.0562 43.9588 58.2447 44.3035C59.0799 46.6599 59.1607 49.4872 58.2124 51.7871C58.0835 52.0971 57.7431 52.2332 57.4522 52.1138C56.7602 51.7816 55.9359 52.0123 55.5082 52.6491C55.0331 53.3564 55.2044 54.3222 55.8995 54.8158C56.1659 55.0256 56.2084 55.4481 55.9835 55.7092L55.9809 55.7121C54.3337 57.6545 52.1005 58.9819 49.6339 59.4875L49.6339 59.4875L49.6298 59.4884C49.3098 59.5567 48.9618 59.3083 48.9237 58.9561L55.44 43.2596ZM36.5319 51.7467L36.5318 51.7468C36.6396 52.0704 36.9765 52.2312 37.2771 52.1273C37.617 52.0096 38.0154 51.9473 38.401 52.0424C38.8096 52.1432 39.1567 52.4106 39.3671 52.8539L39.3672 52.854C39.6943 53.5436 39.4833 54.3757 38.8603 54.818C38.6026 55.0204 38.548 55.4033 38.7471 55.6744C40.1902 57.6347 42.7253 58.9975 45.126 59.4896L45.1278 59.49C45.4455 59.5563 45.7859 59.3104 45.8231 58.9568C45.8928 58.1007 46.6329 57.4465 47.4965 57.5159C47.4965 57.5159 47.4965 57.5159 47.4966 57.5159L47.4565 58.0143L36.5319 51.7467ZM36.5319 51.7467L36.5281 51.736M36.5319 51.7467L36.5281 51.736M36.5281 51.736C36.4518 51.523 36.3094 50.827 36.1903 49.8765C36.0735 48.9444 35.9856 47.8208 36.002 46.7778C36.0187 45.7145 36.1437 44.8103 36.4035 44.2667C36.5303 44.0014 36.661 43.8814 36.7686 43.8337C36.8621 43.7922 37.0225 43.7677 37.3077 43.8889M36.5281 51.736L37.3077 43.8889M37.3077 43.8889C38.0041 44.2266 38.8362 43.9926 39.2632 43.3477L37.3077 43.8889ZM41.4112 48.0029C41.4112 51.3381 44.0674 54.0579 47.3635 54.0579C50.6598 54.0579 53.316 51.3381 53.3159 48.0029C53.3159 44.6676 50.6597 41.9479 47.3635 41.9479C44.0674 41.9479 41.4112 44.6676 41.4112 48.0029Z" fill="#D9F4FF" stroke="#333333"/>
<path fill-rule="evenodd" clip-rule="evenodd" d="M58.5433 41.3885C58.7357 40.533 58.5687 39.6028 58.0137 38.8478L58.013 38.8469C56.1178 36.2725 52.9723 34.6498 50.1259 34.0654C49.0575 33.8437 48.0627 34.2035 47.3734 34.8745C46.6843 34.204 45.69 33.845 44.6237 34.0648C41.6053 34.6839 38.8813 36.306 36.8764 38.6674C36.2119 39.4433 35.9934 40.4591 36.204 41.3914C36.0545 41.4302 35.9043 41.4821 35.7543 41.5486C34.8976 41.9289 34.4147 42.6303 34.1478 43.1886C33.6392 44.2529 33.5197 45.6264 33.5023 46.7386C33.4835 47.932 33.5832 49.1778 33.7097 50.1873C33.8251 51.1088 33.9888 52.0458 34.1664 52.556C34.5004 53.5377 35.2858 54.2571 36.2226 54.5348C36.001 55.412 36.1607 56.377 36.7331 57.1556L36.7338 57.1565C38.6289 59.7309 41.7738 61.3537 44.6208 61.938C45.6904 62.16 46.6862 61.7992 47.3754 61.1268C48.0736 61.8031 49.0806 62.1586 50.1424 61.9352C53.1585 61.3155 55.8802 59.694 57.8836 57.3338C58.5649 56.5382 58.7721 55.4855 58.5332 54.5335C59.4038 54.2769 60.1511 53.6387 60.522 52.7439L60.5234 52.7405C61.7523 49.7607 61.604 46.2663 60.5853 43.4241L60.5342 43.2817L60.4623 43.1485C60.4564 43.1376 60.4501 43.1259 60.4435 43.1135C60.278 42.8052 59.8733 42.0515 59.1005 41.6214C58.9136 41.5174 58.7272 41.4415 58.5433 41.3885ZM55.8693 43.0032C56.1496 43.4728 56.7286 43.6573 57.2215 43.4343C58.0449 43.0797 58.3214 43.3932 58.7026 44.099C59.5841 46.5582 59.6829 49.5328 58.6745 51.978C58.4401 52.5432 57.8005 52.808 57.2457 52.5693C56.7785 52.3391 56.2163 52.4916 55.9233 52.9279C55.596 53.415 55.7184 54.0801 56.1965 54.4135C56.6992 54.7975 56.7753 55.5561 56.3623 56.0355C54.6434 58.0623 52.3117 59.449 49.7343 59.9773C49.1068 60.1114 48.4897 59.6375 48.4257 59.0018C48.3849 58.4745 47.974 58.0558 47.4565 58.0143C46.8753 57.9675 46.367 58.4096 46.3211 59.0018C46.259 59.6327 45.6557 60.111 45.0256 59.9794C42.5355 59.469 39.8781 58.0541 38.3445 55.9708C37.9834 55.4797 38.0814 54.7834 38.5634 54.4156C38.9917 54.1169 39.1413 53.5443 38.9154 53.0683C38.6215 52.4489 38.0099 52.4026 37.4404 52.5999C36.8701 52.797 36.2508 52.4857 36.0574 51.9047C35.6684 50.8195 34.479 42.1207 37.5165 43.4343C37.9865 43.6681 38.5538 43.5134 38.8463 43.0716C39.2289 42.494 38.95 41.9388 38.4978 41.5337C38.0452 41.1289 38.0003 40.4269 38.3976 39.9658C40.1167 37.9394 42.4483 36.5526 45.0256 36.024C45.6549 35.8932 46.2577 36.3693 46.3211 36.9995C46.3459 37.5539 46.7814 37.9976 47.3255 38.0228C47.9067 38.0497 48.3993 37.5916 48.4257 36.9995C48.4891 36.3696 49.0919 35.8926 49.7212 36.024C52.211 36.5347 54.8688 37.9494 56.4023 40.0326C56.7634 40.5237 56.6654 41.22 56.1834 41.5879C55.7376 41.9076 55.602 42.5192 55.8693 43.0032ZM52.8159 48.0029C52.8159 44.9349 50.3748 42.4479 47.3635 42.4479C44.3523 42.4479 41.9112 44.9349 41.9112 48.0029C41.9112 51.0708 44.3523 53.5578 47.3635 53.5578C50.3749 53.5578 52.816 51.0708 52.8159 48.0029Z" fill="white"/>
<defs>
<linearGradient id="paint0_linear_16_12483" x1="31.5" y1="2" x2="31.5" y2="51" gradientUnits="userSpaceOnUse">
<stop stop-color="#FF8E3D"/>
<stop offset="1" stop-color="#FF6F3D"/>
</linearGradient>
</defs>
</svg>
