<svg width="64" height="64" viewBox="0 0 64 64" fill="none" xmlns="http://www.w3.org/2000/svg">
<path fill-rule="evenodd" clip-rule="evenodd" d="M8.82798 12.1553L15.548 5.43997C16.108 4.88467 16.9786 4.79056 17.6374 5.21408L19.8209 6.62114C20.7668 7.2282 21.9574 7.27056 22.9927 6.84232C24.028 6.41408 24.8374 5.53879 25.0774 4.44232L25.6327 1.90114C25.8021 1.12938 26.4844 0.583496 27.2703 0.583496H36.7668C37.5574 0.583496 38.235 1.13408 38.4044 1.90114L38.955 4.44232C39.1903 5.53879 39.9997 6.41408 41.035 6.84232C42.0703 7.27056 43.2609 7.2282 44.2068 6.62114L46.395 5.21408C47.0586 4.78585 47.9292 4.87997 48.4844 5.43997L55.195 12.1553C55.7503 12.7106 55.8444 13.5811 55.4162 14.2447L54.0092 16.4329C53.4021 17.3788 53.355 18.5694 53.7833 19.6047C54.2115 20.64 55.0821 21.4494 56.1786 21.6894L58.715 22.24C59.4868 22.4094 60.0327 23.087 60.0327 23.8776L60.028 33.3741C60.028 34.16 59.4774 34.8423 58.7056 35.0117L56.1644 35.5623C55.068 35.8023 54.1927 36.607 53.7644 37.647C53.3315 38.6823 53.3786 39.8729 53.9856 40.8188L55.388 43.007C55.8115 43.6706 55.7174 44.5411 55.1621 45.0964L51.8021 48.4541L48.4421 51.8117C47.8868 52.367 47.0162 52.4612 46.3527 52.0376L44.1692 50.6306C43.2233 50.0235 42.0327 49.9812 40.9974 50.4094C39.9621 50.8376 39.1527 51.7129 38.9127 52.8094L38.3574 55.3506C38.188 56.1223 37.5056 56.6682 36.7197 56.6682H27.2327C26.4421 56.6682 25.7645 56.1176 25.595 55.3506L25.0445 52.8094C24.8092 51.7129 23.9997 50.8423 22.9644 50.4094C21.9292 49.9812 20.7386 50.0235 19.7927 50.6306L17.6044 52.0376C16.9409 52.4659 16.0703 52.367 15.515 51.8117L8.80445 45.0964C8.24916 44.5411 8.15504 43.6706 8.58327 43.007L9.99033 40.8188C10.5974 39.8729 10.6444 38.6823 10.2162 37.647C9.78798 36.6117 8.91739 35.8023 7.82092 35.5623L5.27974 35.0117C4.50798 34.847 3.9621 34.1647 3.9621 33.3741L3.97151 23.8776C3.97151 23.087 4.5221 22.4094 5.29386 22.24L7.83504 21.6894C8.93151 21.4494 9.8068 20.6447 10.235 19.6047C10.6633 18.5694 10.6209 17.3788 10.0139 16.4329L8.61151 14.2447C8.17386 13.5811 8.27269 12.7106 8.82798 12.1553Z" fill="url(#paint0_linear_16_13116)"/>
<path d="M38.3578 55.3506C38.1884 56.1223 37.5061 56.6682 36.7202 56.6682H27.2331C25.3668 56.6682 25.332 54.1344 25.0449 52.8094C24.5643 50.57 21.7172 49.3957 19.7931 50.6306C18.6518 51.3644 16.8356 53.1318 15.5155 51.8117L8.80488 45.0964C8.24958 44.5411 8.15547 43.6706 8.5837 43.007C9.64368 41.3586 11.0732 39.7179 10.2166 37.647C9.78841 36.6117 8.91782 35.8023 7.82135 35.5623C6.49329 35.2746 3.96252 35.2429 3.96252 33.3741L3.97194 23.8776C3.97194 23.087 4.52252 22.4094 5.29429 22.24C7.20832 21.8253 9.38203 21.6773 10.2355 19.6047C11.0922 17.5334 9.67032 15.8962 8.61194 14.2447C8.17429 13.5811 8.27311 12.7106 8.82841 12.1553L15.5484 5.43997C16.1084 4.88467 16.979 4.79056 17.6378 5.21408C19.2872 6.27694 20.9201 7.6998 22.9931 6.84232C25.0633 5.98603 25.2149 3.81515 25.6331 1.90114C25.8025 1.12938 26.4849 0.583496 27.2708 0.583496H36.7672C38.6335 0.583496 38.6684 3.1173 38.9555 4.44232C39.1908 5.53879 40.0002 6.41408 41.0355 6.84232C43.1088 7.69991 44.7445 6.27564 46.3955 5.21408C47.059 4.78585 47.9296 4.87997 48.4849 5.43997L55.1955 12.1553C55.7508 12.7106 55.8449 13.5811 55.4166 14.2447L54.0096 16.4329C52.7734 18.3591 53.94 21.1993 56.179 21.6894L58.7155 22.24C59.4872 22.4094 60.0331 23.087 60.0331 23.8776L60.0284 33.3741C60.0284 34.16 59.4778 34.8423 58.7061 35.0117L56.1649 35.5623C53.9264 36.0523 52.7473 38.8886 53.9861 40.8188L55.3884 43.007C55.8119 43.6706 55.7178 44.5411 55.1625 45.0964L51.8025 48.4541" stroke="#333333" stroke-linecap="round"/>
<path fill-rule="evenodd" clip-rule="evenodd" d="M32.3433 16.3105C36.748 16.4376 40.9739 18.8188 43.2703 22.9458C46.0045 27.8635 45.1856 33.7929 41.6656 37.7788C45.1009 43.9905 48.428 50.2635 51.9762 56.4141C53.595 59.2141 53.0633 61.4117 50.6162 62.7717C49.3268 63.5152 46.4845 64.2776 44.6303 60.927C41.1339 54.607 37.6327 48.287 34.1362 41.967C28.8892 42.8564 23.4209 40.4235 20.6868 35.5058C18.3903 31.3741 18.6021 26.5317 20.8139 22.72C21.788 24.4753 22.7668 26.2305 23.7409 27.9858C25.1009 30.4282 28.2115 31.3176 30.6539 29.9576C31.5339 29.4682 32.4139 28.9788 33.2939 28.4894C35.7362 27.1294 36.6256 24.0188 35.2656 21.5717C34.2962 19.8211 33.3174 18.0658 32.3433 16.3105Z" fill="#D9F4FF"/>
<path d="M20.8227 23.7657C19.1025 27.2942 19.0733 31.5736 21.1238 35.2629C23.7517 39.9894 29.0079 42.3292 34.0527 41.474L34.4021 41.4148L34.5737 41.725C36.3219 44.8849 38.0713 48.0448 39.8207 51.2048C41.5701 54.3648 43.3196 57.5249 45.0678 60.6849C45.9259 62.2355 46.9681 62.7746 47.8959 62.8884C48.8576 63.0063 49.7807 62.6763 50.3665 62.3386L50.3733 62.3346L50.3733 62.3347C51.5095 61.7032 52.1354 60.9173 52.3327 60.0249C52.5326 59.1208 52.3165 58.0016 51.5434 56.6643L51.5431 56.6639C49.1618 52.5361 46.8777 48.349 44.5971 44.1683C43.4769 42.115 42.3576 40.0632 41.2281 38.0208L41.0574 37.7121L41.2909 37.4478C44.6751 33.6157 45.4613 27.9155 42.8333 23.1888C40.7822 19.5028 37.1301 17.2651 33.2252 16.8687C33.4756 17.3194 33.7262 17.7702 33.9769 18.221C34.5535 19.258 35.1301 20.2948 35.7029 21.3292C35.7029 21.3293 35.703 21.3294 35.7031 21.3295L35.2656 21.5717C36.6256 24.0188 35.7362 27.1294 33.2939 28.4894L20.8227 23.7657ZM20.8227 23.7657C21.1617 24.3759 21.5011 24.986 21.8405 25.596C22.3287 26.4737 22.8168 27.3511 23.3037 28.2285L23.3041 28.2291C24.7981 30.9121 28.2129 31.8891 30.8971 30.3944L20.8227 23.7657Z" fill="#D9F4FF" stroke="#333333"/>
<defs>
<linearGradient id="paint0_linear_16_13116" x1="2.92252" y1="-3.40163" x2="36.3829" y2="33.454" gradientUnits="userSpaceOnUse">
<stop stop-color="#FFC671"/>
<stop offset="1" stop-color="#FF6F3D"/>
</linearGradient>
</defs>
</svg>
