<svg width="64" height="64" viewBox="0 0 64 64" fill="none" xmlns="http://www.w3.org/2000/svg">
<path fill-rule="evenodd" clip-rule="evenodd" d="M15.4054 8.56232C15.1529 8.92194 15.0164 9.44225 15.0164 10.0243V52.1479C15.0164 53.282 15.7322 54 16.393 54H18.5164C18.7925 54 19.0164 54.2239 19.0164 54.5C19.0164 54.7762 18.7925 55 18.5164 55H16.393C14.981 55 14.0164 53.6118 14.0164 52.1479V10.0243C14.0164 9.30738 14.1813 8.5655 14.587 7.98768C15.0078 7.38846 15.6665 6.99994 16.5464 6.99994H18.5164C18.7925 6.99994 19.0164 7.2238 19.0164 7.49994C19.0164 7.77608 18.7925 7.99994 18.5164 7.99994H16.5464C15.9992 7.99994 15.6429 8.2241 15.4054 8.56232Z" fill="#333333"/>
<path fill-rule="evenodd" clip-rule="evenodd" d="M9.38905 8.56232C9.13655 8.92194 9 9.44225 9 10.0243V52.1479C9 53.282 9.71578 53.9999 10.3766 53.9999H12.5C12.7761 53.9999 13 54.2238 13 54.4999C13 54.7761 12.7761 54.9999 12.5 54.9999H10.3766C8.96462 54.9999 8 53.6118 8 52.1479V10.0243C8 9.30738 8.16493 8.5655 8.57065 7.98768C8.99139 7.38846 9.65013 6.99994 10.53 6.99994H12.5C12.7761 6.99994 13 7.2238 13 7.49994C13 7.77608 12.7761 7.99994 12.5 7.99994H10.53C9.98278 7.99994 9.62654 8.2241 9.38905 8.56232Z" fill="#333333"/>
<path fill-rule="evenodd" clip-rule="evenodd" d="M22.3449 6.99994C21.0482 6.99994 19.9971 8.04203 19.9971 9.32753V52.6724C19.9971 53.9578 21.0482 54.9999 22.3449 54.9999H53.6492C54.9459 54.9999 55.9971 53.9578 55.9971 52.6724V18.4999C55.9971 17.8826 55.7497 17.2906 55.3094 16.8541L46.1195 7.68167C45.6792 7.24517 45.082 6.99994 44.4594 6.99994H22.3449Z" fill="white"/>
<path d="M45.3536 7.64639C45.2106 7.50339 44.9955 7.46061 44.8087 7.538C44.6218 7.61539 44.5 7.79771 44.5 7.99994V16.1819C44.5 16.8577 44.6636 17.4574 45.0734 17.8877C45.4874 18.3224 46.072 18.5001 46.7316 18.5001H55C55.2022 18.5001 55.3845 18.3783 55.4619 18.1914C55.5393 18.0046 55.4966 17.7895 55.3536 17.6465L45.3536 7.64639Z" fill="url(#paint0_linear_16_12492)" stroke="#333333" stroke-linecap="round" stroke-linejoin="round"/>
<path fill-rule="evenodd" clip-rule="evenodd" d="M54.6054 17.5642L54.603 17.5619L45.4155 8.39184L45.4142 8.39057C45.3615 8.33835 45.3125 8.28859 45.27 8.24555L45.2542 8.22949C45.2059 8.18062 45.1681 8.14255 45.1336 8.10904C45.0634 8.04107 45.0327 8.01791 45.02 8.00945C45.0094 8.00698 44.9724 7.99994 44.8923 7.99994H22.3449C21.5923 7.99994 20.9971 8.60246 20.9971 9.32753V52.6724C20.9971 53.3974 21.5923 53.9999 22.3449 53.9999H53.6492C54.4018 53.9999 54.9971 53.3974 54.9971 52.6724V18.1093C54.9971 18.0214 54.9882 17.9827 54.9855 17.9723C54.9839 17.9666 54.9834 17.9643 54.9768 17.9541C54.966 17.9373 54.9408 17.9031 54.8764 17.835C54.826 17.7818 54.7731 17.7297 54.7015 17.6592C54.6728 17.6309 54.6411 17.5997 54.6054 17.5642ZM46.1195 7.68167L55.3094 16.8541C55.3376 16.882 55.365 16.909 55.3916 16.9352C55.7804 17.3181 55.9971 17.5315 55.9971 18.1093V52.6724C55.9971 53.9578 54.9459 54.9999 53.6492 54.9999H22.3449C21.0482 54.9999 19.9971 53.9578 19.9971 52.6724V9.32753C19.9971 8.04203 21.0482 6.99994 22.3449 6.99994H44.8923C45.4459 6.99994 45.6371 7.19379 45.9822 7.54358C46.0253 7.58721 46.0707 7.63326 46.1195 7.68167Z" fill="#333333"/>
<rect x="0.5" y="37.4999" width="37" height="18" rx="1.5" fill="url(#paint1_linear_16_12492)" stroke="#333333"/>
<path d="M6.92076 50.9999H5V41.9999H10.2774V43.5635H6.92076V45.8843H10.0444V47.4417H6.92076V50.9999Z" fill="white"/>
<path d="M14.0307 45.9951H14.6605C15.2777 45.9951 15.7332 45.8945 16.0271 45.6934C16.321 45.4924 16.4679 45.1763 16.4679 44.7454C16.4679 44.3186 16.3168 44.0149 16.0145 43.8344C15.7164 43.6538 15.2525 43.5635 14.6227 43.5635H14.0307V45.9951ZM14.0307 47.5464V50.9999H12.0785V41.9999H14.7613C16.0124 41.9999 16.9381 42.2235 17.5385 42.6709C18.1389 43.1141 18.439 43.7892 18.439 44.6962C18.439 45.2256 18.29 45.6976 17.9919 46.1121C17.6938 46.5224 17.2719 46.8446 16.7261 47.0785C18.1116 49.1018 19.0142 50.4089 19.4341 50.9999H17.2677L15.0698 47.5464H14.0307Z" fill="white"/>
<path d="M25.8954 50.9999H20.5928V41.9999H25.8954V43.5635H22.5451V45.5395H25.6624V47.1032H22.5451V49.424H25.8954V50.9999Z" fill="white"/>
<path d="M33.125 50.9999H27.8224V41.9999H33.125V43.5635H29.7747V45.5395H32.892V47.1032H29.7747V49.424H33.125V50.9999Z" fill="white"/>
<defs>
<linearGradient id="paint0_linear_16_12492" x1="45" y1="7.60931" x2="55.0002" y2="17.9999" gradientUnits="userSpaceOnUse">
<stop stop-color="#FFC671"/>
<stop offset="0.59375" stop-color="#FF7541"/>
<stop offset="1" stop-color="#FF6F3D"/>
</linearGradient>
<linearGradient id="paint1_linear_16_12492" x1="1.00007" y1="37.3358" x2="13.8163" y2="65.5362" gradientUnits="userSpaceOnUse">
<stop stop-color="#FF8E3D"/>
<stop offset="1" stop-color="#FF6F3D"/>
</linearGradient>
</defs>
</svg>
