<svg width="64" height="64" viewBox="0 0 64 64" fill="none" xmlns="http://www.w3.org/2000/svg">
<g clip-path="url(#clip0_16_12502)">
<path d="M48.2998 0.5H10.4548L1.2998 9.70146V58.5H48.2998V0.5Z" fill="white" stroke="#333333"/>
<path d="M10.4463 0.146447C10.5893 0.00344762 10.8043 -0.0393302 10.9911 0.0380602C11.178 0.115451 11.2998 0.297769 11.2998 0.5V9.5C11.2998 9.77614 11.0759 10 10.7998 10H1.7998C1.59757 10 1.41526 9.87818 1.33786 9.69134C1.26047 9.5045 1.30325 9.28945 1.44625 9.14645L10.4463 0.146447Z" fill="#D9F4FF" stroke="#333333" stroke-linejoin="round"/>
<path fill-rule="evenodd" clip-rule="evenodd" d="M56.7998 4.5H18.247L8.7998 13.9139V63.5H56.7998V4.5Z" fill="white"/>
<path d="M56.2999 15.0529V5H17.8741L9.29987 13.8537L9.2999 63H56.2999L56.2998 47.6707" stroke="#333333" stroke-linecap="round" stroke-linejoin="round"/>
<path fill-rule="evenodd" clip-rule="evenodd" d="M17.7998 5L9.2998 14L17.7998 14V5Z" fill="url(#paint0_linear_16_12502)" stroke="#333333" stroke-linejoin="round"/>
<path fill-rule="evenodd" clip-rule="evenodd" d="M24.5001 20C24.5001 19.7239 24.7239 19.5 25.0001 19.5H35.0001C35.2762 19.5 35.5001 19.7239 35.5001 20C35.5001 20.2761 35.2762 20.5 35.0001 20.5L25.0001 20.5C24.7239 20.5 24.5001 20.2761 24.5001 20ZM17.0001 31.5C16.7239 31.5 16.5001 31.2761 16.5001 31C16.5001 30.7239 16.7239 30.5 17.0001 30.5H30.0001C30.2762 30.5 30.5001 30.7239 30.5001 31C30.5001 31.2761 30.2762 31.5 30.0001 31.5H17.0001ZM17.0001 48.5C16.7239 48.5 16.5001 48.7239 16.5001 49C16.5001 49.2761 16.7239 49.5 17.0001 49.5H26.0001C26.2762 49.5 26.5001 49.2761 26.5001 49C26.5001 48.7239 26.2762 48.5 26.0001 48.5H17.0001ZM17.0001 36.5C16.7239 36.5 16.5001 36.7239 16.5001 37C16.5001 37.2761 16.7239 37.5 17.0001 37.5L31.0001 37.5C31.2762 37.5 31.5001 37.2761 31.5001 37C31.5001 36.7239 31.2762 36.5 31.0001 36.5L17.0001 36.5ZM16.5001 25C16.5001 24.7239 16.7239 24.5 17.0001 24.5H30.0001C30.2762 24.5 30.5001 24.7239 30.5001 25C30.5001 25.2761 30.2762 25.5 30.0001 25.5H17.0001C16.7239 25.5 16.5001 25.2761 16.5001 25ZM17.0001 43.5C16.7239 43.5 16.5001 43.2761 16.5001 43C16.5001 42.7239 16.7239 42.5 17.0001 42.5H33.0001C33.2762 42.5 33.5001 42.7239 33.5001 43C33.5001 43.2761 33.2762 43.5 33.0001 43.5H17.0001ZM16.5001 55C16.5001 54.7239 16.7239 54.5 17.0001 54.5H49.0001C49.2762 54.5 49.5001 54.7239 49.5001 55C49.5001 55.2761 49.2762 55.5 49.0001 55.5H17.0001C16.7239 55.5 16.5001 55.2761 16.5001 55ZM29.0001 48.5C28.7239 48.5 28.5001 48.7239 28.5001 49C28.5001 49.2761 28.7239 49.5 29.0001 49.5L41.0001 49.5C41.2762 49.5 41.5001 49.2761 41.5001 49C41.5001 48.7239 41.2762 48.5 41.0001 48.5L29.0001 48.5Z" fill="#333333"/>
<path d="M47 13L31 13" stroke="url(#paint1_linear_16_12502)" stroke-linecap="round"/>
<path d="M61.1808 31.2889C61.1808 38.8444 55.0141 45.0111 47.4586 45.0111C39.8983 45.0111 33.7363 38.8445 33.7363 31.2889C33.7363 23.7333 39.903 17.5667 47.4586 17.5667C55.0141 17.5667 61.1808 23.7333 61.1808 31.2889Z" fill="url(#paint2_linear_16_12502)" stroke="#333333"/>
<path fill-rule="evenodd" clip-rule="evenodd" d="M42.2437 28.9673C42.8511 28.9673 43.4068 29.1965 43.8338 29.5785L48.188 26.2054C48.0113 25.854 47.9119 25.4605 47.9119 25.0365C47.9119 23.6345 49.0051 22.5 50.3559 22.5C51.7067 22.5 52.7998 23.6345 52.7998 25.0365C52.7998 26.4385 51.703 27.573 50.3559 27.573C49.7559 27.573 49.2075 27.3476 48.7806 26.9733L44.419 30.3502C44.5883 30.694 44.684 31.0874 44.684 31.5C44.684 31.9126 44.5883 32.3022 44.419 32.6498L48.7806 36.0267C49.2075 35.6524 49.7559 35.427 50.3559 35.427C51.7067 35.427 52.7998 36.5615 52.7998 37.9635C52.7998 39.3654 51.7067 40.5 50.3559 40.5C49.0051 40.5 47.9119 39.3654 47.9119 37.9635C47.9119 37.5433 48.0113 37.146 48.188 36.7946L43.8338 33.4215C43.4068 33.8035 42.8511 34.0327 42.2437 34.0327C40.893 34.0327 39.7998 32.8981 39.7998 31.4962C39.7998 30.0942 40.893 28.9673 42.2437 28.9673Z" fill="white"/>
</g>
<defs>
<linearGradient id="paint0_linear_16_12502" x1="17.7998" y1="4.64844" x2="8.79476" y2="13.4854" gradientUnits="userSpaceOnUse">
<stop stop-color="#FF8E3D"/>
<stop offset="1" stop-color="#FF6F3D"/>
</linearGradient>
<linearGradient id="paint1_linear_16_12502" x1="47" y1="13.0391" x2="46.88" y2="11.0448" gradientUnits="userSpaceOnUse">
<stop stop-color="#FF8E3D"/>
<stop offset="1" stop-color="#FF6F3D"/>
</linearGradient>
<linearGradient id="paint2_linear_16_12502" x1="33.2364" y1="15.9555" x2="61.6808" y2="45.5111" gradientUnits="userSpaceOnUse">
<stop stop-color="#FF8E3D"/>
<stop offset="1" stop-color="#FF6F3D"/>
</linearGradient>
<clipPath id="clip0_16_12502">
<rect width="64" height="64" fill="white"/>
</clipPath>
</defs>
</svg>
