<svg width="64" height="64" viewBox="0 0 64 64" fill="none" xmlns="http://www.w3.org/2000/svg">
<g clip-path="url(#clip0_16_12461)">
<path d="M42.0741 20.47C43.7939 20.8264 45.5591 21.0557 47.3311 21.1002C46.8661 22.706 46.487 24.2433 46.1646 25.7165C45.8999 26.9256 45.6756 28.7883 45.4757 30.5788C45.4381 30.9163 45.4012 31.2512 45.3652 31.5792C45.2078 33.0116 45.0646 34.3142 44.9258 35.1356C44.8961 35.3115 44.8666 35.4867 44.8372 35.6613C43.953 40.9086 43.1725 45.541 40.4974 49.6236C37.7633 53.7962 33.0031 57.4524 23.9275 60.4747C15.0492 57.6895 10.299 53.9475 7.55671 49.7191C4.78455 45.4448 4.01878 40.6144 3.21653 35.5409C3.08906 34.7348 2.95832 33.5156 2.81325 32.1628C2.76613 31.7234 2.7175 31.2699 2.66698 30.8119C2.46316 28.9641 2.2285 27.043 1.93948 25.7738C1.60387 24.3001 1.19809 22.7666 0.685412 21.1691C2.43306 21.114 4.19898 20.8625 5.93393 20.4788C10.7237 19.4192 15.316 17.342 18.7011 15.5382C20.396 14.635 21.7935 13.7976 22.7682 13.1853C23.2556 12.8792 23.6376 12.6292 23.8983 12.4552C23.9378 12.4289 23.9746 12.4042 24.0085 12.3814C24.0399 12.4035 24.0739 12.4272 24.1103 12.4525C24.3636 12.6284 24.735 12.881 25.2106 13.19C26.1616 13.8078 27.5304 14.6517 29.2056 15.559C32.5518 17.3714 37.1399 19.4473 42.0741 20.47Z" fill="url(#paint0_linear_16_12461)" stroke="#333333"/>
<path fill-rule="evenodd" clip-rule="evenodd" d="M32.5358 29.4147C33.2729 30.1313 33.3001 31.321 32.5965 32.0717L22.98 43.2799C22.6318 43.6514 22.1496 43.8616 21.6454 43.8616C21.1412 43.8616 20.6589 43.6514 20.3108 43.2799L15.4467 38.0894C14.7431 37.3386 14.7703 36.149 15.5074 35.4323C16.2444 34.7157 17.4123 34.7433 18.1159 35.4941L21.6454 39.2605L29.9273 29.4765C30.6309 28.7257 31.7988 28.698 32.5358 29.4147Z" fill="white"/>
<path d="M33.9949 2.71194C33.9949 1.75224 34.7642 1 35.7077 1H61.282C62.2429 1 62.9949 1.76977 62.9949 2.71194V28.2882C62.9949 29.2468 62.2254 30 61.282 30H35.7077C34.7472 30 33.9949 29.2295 33.9949 28.2882V2.71194Z" fill="white" stroke="#333333"/>
<path d="M48.4944 12.6997C47.2429 12.6997 46.1247 13.2812 45.386 14.1934C45.1128 13.7675 44.954 13.2586 44.954 12.712C44.954 11.2142 46.146 10 47.6165 10C49.0869 10 50.279 11.2142 50.279 12.712C50.279 12.8469 50.2693 12.9796 50.2506 13.1092C49.7198 12.8469 49.124 12.6997 48.4944 12.6997Z" fill="#1D2D44"/>
<path d="M50.5825 13.2935C50.7877 13.4205 50.9809 13.5656 51.16 13.7267C51.4583 13.9952 51.7173 14.3081 51.927 14.6551C52.3061 14.4834 52.7235 14.3837 53.1627 14.3731C52.9551 13.1024 51.8802 12.1304 50.5786 12.1098C50.6165 12.3045 50.6364 12.5059 50.6364 12.712C50.6364 12.9108 50.6179 13.1052 50.5825 13.2935Z" fill="#1D2D44"/>
<path d="M45.1596 14.5011C44.8711 14.0908 44.6792 13.6051 44.6177 13.0787C44.5593 13.0797 44.5012 13.0825 44.4436 13.0869C44.1677 13.1084 43.9026 13.1695 43.6539 13.2647C43.4735 13.3337 43.3017 13.4207 43.1407 13.5234C42.7202 13.7915 42.3726 14.1673 42.1351 14.6127C42.0501 14.772 41.9792 14.9403 41.9241 15.1157C41.8355 15.3977 41.7877 15.6983 41.7877 16.0102C41.7877 16.8929 42.1706 17.6844 42.7765 18.2219C43.0383 17.6334 43.5837 17.2038 44.2351 17.1138C44.3143 17.1029 44.3951 17.097 44.4772 17.0964C44.4704 16.9992 44.467 16.901 44.467 16.802C44.467 15.9492 44.7224 15.1573 45.1596 14.5011Z" fill="#1D2D44"/>
<path d="M44.5186 17.4608C44.5091 17.4606 44.4995 17.4605 44.49 17.4605C44.427 17.4605 44.3648 17.4644 44.3038 17.472C43.7387 17.5421 43.2692 17.9276 43.0699 18.4504C43.025 18.5683 42.9938 18.6931 42.9784 18.8229C42.971 18.8848 42.9672 18.9477 42.9672 19.0115C42.9672 19.3702 43.0868 19.7005 43.2875 19.9632C43.5661 20.3279 44.0011 20.5626 44.49 20.5626C45.0345 20.5626 45.5123 20.2714 45.7815 19.8337C45.1246 19.2236 44.6667 18.395 44.5186 17.4608Z" fill="#1D2D44"/>
<path d="M44.9237 11.3179C44.7419 11.2345 44.5402 11.1882 44.3278 11.1882C43.525 11.1882 42.8742 11.8511 42.8742 12.6688C42.8742 12.8567 42.9086 13.0365 42.9713 13.2019C43.4458 12.9042 44.0014 12.7277 44.5965 12.715L44.5965 12.712C44.5965 12.2101 44.7145 11.7364 44.9237 11.3179Z" fill="#1D2D44"/>
<path d="M55.487 20.0407C56.0972 19.4412 56.4767 18.5998 56.4767 17.6681C56.4767 17.5475 56.4704 17.4283 56.458 17.3111C56.4643 17.311 56.4706 17.3109 56.4769 17.3109C57.318 17.3109 57.9998 18.0054 57.9998 18.862C57.9998 19.7187 57.318 20.4131 56.4769 20.4131C56.099 20.4131 55.7532 20.2729 55.487 20.0407Z" fill="#1D2D44"/>
<path d="M51.3353 19.7095C51.3086 19.7366 51.2815 19.7633 51.2541 19.7896C51.7707 20.2917 52.4704 20.6 53.2408 20.6C54.8305 20.6 56.1193 19.2874 56.1193 17.6681C56.1193 16.0489 54.8305 14.7363 53.2408 14.7363C52.8361 14.7363 52.4508 14.8214 52.1014 14.9749C52.3705 15.5251 52.5219 16.1455 52.5219 16.802C52.5219 17.9347 52.0711 18.9602 51.3422 19.7025C51.3399 19.7048 51.3376 19.7072 51.3353 19.7095Z" fill="#1D2D44"/>
<path d="M41.5538 15.105C40.1336 15.163 38.9998 16.354 38.9998 17.8148C38.9998 19.3126 40.1918 20.5268 41.6623 20.5268C42.1457 20.5268 42.599 20.3956 42.9898 20.1662C42.7513 19.8452 42.6098 19.4452 42.6098 19.0115C42.6098 18.8676 42.6254 18.7273 42.6549 18.5924C41.9087 17.9886 41.4302 17.0563 41.4302 16.0102C41.4302 15.6963 41.4733 15.3926 41.5538 15.105Z" fill="#1D2D44"/>
<path d="M52.1645 16.802C52.1645 18.8663 50.5212 20.5398 48.4944 20.5398C46.4676 20.5398 44.8244 18.8663 44.8244 16.802C44.8244 14.7374 46.4676 13.0638 48.4944 13.0638C50.5212 13.0638 52.1645 14.7374 52.1645 16.802Z" fill="#1D2D44"/>
</g>
<defs>
<linearGradient id="paint0_linear_16_12461" x1="37.3312" y1="55.114" x2="2.01383" y2="19.38" gradientUnits="userSpaceOnUse">
<stop stop-color="#FF6F3D"/>
<stop offset="1" stop-color="#FF8E3D"/>
</linearGradient>
<clipPath id="clip0_16_12461">
<rect width="64.0024" height="64" fill="white" transform="translate(-0.0012207)"/>
</clipPath>
</defs>
</svg>
