<svg width="64" height="64" viewBox="0 0 64 64" fill="none" xmlns="http://www.w3.org/2000/svg">
<circle cx="32" cy="30" r="27.5" fill="url(#paint0_linear_16_13124)" stroke="#333333"/>
<path d="M32.4901 22.9732C30.1847 22.9732 28.1248 24.0443 26.7641 25.7247C26.2608 24.9402 25.9683 24.0027 25.9683 22.9957C25.9683 20.2367 28.1642 18 30.8729 18C33.5816 18 35.7775 20.2367 35.7775 22.9957C35.7775 23.2443 35.7596 23.4887 35.7252 23.7275C34.7475 23.2442 33.6499 22.9732 32.4901 22.9732Z" fill="white"/>
<path d="M36.3367 24.0669C36.7147 24.3008 37.0706 24.5682 37.4004 24.865C37.95 25.3596 38.4271 25.9359 38.8134 26.5753C39.5117 26.2589 40.2807 26.0752 41.0896 26.0557C40.7073 23.7149 38.7271 21.9244 36.3294 21.8864C36.3993 22.2451 36.436 22.6161 36.436 22.9957C36.436 23.3619 36.4019 23.72 36.3367 24.0669Z" fill="white"/>
<path d="M26.3471 26.2915C25.8156 25.5356 25.462 24.641 25.3489 23.6713C25.2412 23.6731 25.1343 23.6782 25.0282 23.6865C24.5198 23.726 24.0315 23.8386 23.5734 24.014C23.2411 24.1411 22.9247 24.3012 22.628 24.4905C21.8535 24.9844 21.2132 25.6765 20.7756 26.497C20.619 26.7906 20.4884 27.1005 20.3869 27.4237C20.2237 27.9431 20.1356 28.4968 20.1356 29.0714C20.1356 30.6974 20.841 32.1555 21.9572 33.1457C22.4394 32.0616 23.4442 31.2701 24.6441 31.1045C24.79 31.0843 24.9388 31.0734 25.09 31.0724C25.0775 30.8932 25.0712 30.7124 25.0712 30.53C25.0712 28.9591 25.5417 27.5002 26.3471 26.2915Z" fill="white"/>
<path d="M25.1663 31.7435C25.1488 31.7432 25.1312 31.743 25.1136 31.743C24.9975 31.743 24.883 31.7502 24.7706 31.7642C23.7297 31.8934 22.8648 32.6034 22.4977 33.5665C22.4149 33.7837 22.3575 34.0137 22.329 34.2528C22.3155 34.3666 22.3085 34.4826 22.3085 34.6002C22.3085 35.2609 22.5287 35.8693 22.8984 36.3533C23.4117 37.0251 24.2131 37.4574 25.1136 37.4574C26.1166 37.4574 26.9967 36.9211 27.4926 36.1146C26.2826 34.9908 25.4391 33.4645 25.1663 31.7435Z" fill="white"/>
<path d="M25.9126 20.4277C25.5776 20.2742 25.206 20.1887 24.8149 20.1887C23.336 20.1887 22.1372 21.4099 22.1372 22.9162C22.1372 23.2624 22.2005 23.5935 22.316 23.8982C23.19 23.3498 24.2135 23.0248 25.3098 23.0012L25.3098 22.9957C25.3098 22.0713 25.5271 21.1986 25.9126 20.4277Z" fill="white"/>
<path d="M45.3713 36.496C46.4953 35.3918 47.1944 33.8418 47.1944 32.1255C47.1944 31.9032 47.1827 31.6838 47.1599 31.4677C47.1715 31.4676 47.1831 31.4675 47.1948 31.4675C48.7441 31.4675 50 32.7468 50 34.3248C50 35.9028 48.7441 37.1821 47.1948 37.1821C46.4986 37.1821 45.8616 36.9238 45.3713 36.496Z" fill="white"/>
<path d="M37.7234 35.886C37.6742 35.9359 37.6243 35.985 37.5738 36.0335C38.5254 36.9584 39.8144 37.5263 41.2336 37.5263C44.162 37.5263 46.5359 35.1083 46.5359 32.1255C46.5359 29.1427 44.162 26.7247 41.2336 26.7247C40.488 26.7247 39.7783 26.8814 39.1346 27.1644C39.6304 28.1778 39.9093 29.3207 39.9093 30.53C39.9093 32.6166 39.0788 34.5056 37.7362 35.873C37.7319 35.8773 37.7276 35.8817 37.7234 35.886Z" fill="white"/>
<path d="M19.7047 27.4039C17.0887 27.5108 15 29.7048 15 32.3957C15 35.1548 17.1959 37.3915 19.9047 37.3915C20.7952 37.3915 21.6303 37.1498 22.3501 36.7272C21.9107 36.1359 21.65 35.399 21.65 34.6002C21.65 34.335 21.6787 34.0766 21.7332 33.8282C20.3586 32.7159 19.4771 30.9985 19.4771 29.0714C19.4771 28.4931 19.5565 27.9337 19.7047 27.4039Z" fill="white"/>
<path d="M39.2508 30.53C39.2508 34.3327 36.2238 37.4154 32.4901 37.4154C28.7565 37.4154 25.7297 34.3327 25.7297 30.53C25.7297 26.7268 28.7566 23.6439 32.4901 23.6439C36.2237 23.6439 39.2508 26.7268 39.2508 30.53Z" fill="white"/>
<defs>
<linearGradient id="paint0_linear_16_13124" x1="4.00011" y1="-0.187501" x2="60.0001" y2="58" gradientUnits="userSpaceOnUse">
<stop stop-color="#FF8E3D"/>
<stop offset="1" stop-color="#FF6F3D"/>
</linearGradient>
</defs>
</svg>
