<svg width="150" height="24" viewBox="0 0 150 24" fill="none" xmlns="http://www.w3.org/2000/svg">
<g clip-path="url(#clip0_6435_122647)">
<path d="M0.636719 9.56377L10.3022 9.56565L16.1794 9.56662V3.90137L0.636719 9.56377Z" fill="#FF9D28"/>
<path d="M16.1794 3.90144V23.9026L23.5199 1.22632L16.1794 3.90144Z" fill="#68C5ED"/>
<path d="M16.1794 9.56677L10.3022 9.5658L16.1794 23.9027V9.56677Z" fill="#044D80"/>
<path d="M0.636719 9.56384L11.8093 13.2444L10.3022 9.56572L0.636719 9.56384Z" fill="#E54747"/>
<path d="M36.2422 18.6376C36.157 18.7205 36.015 18.8239 35.8164 18.9482C35.6175 19.0726 35.3587 19.1968 35.0394 19.3212C34.72 19.4453 34.3295 19.5522 33.8685 19.6423C33.407 19.7318 32.8786 19.7768 32.2825 19.7768C31.1327 19.7768 30.1392 19.5972 29.3019 19.2384C28.4643 18.8795 27.7725 18.3786 27.2262 17.7366C26.6797 17.0944 26.2789 16.3351 26.0234 15.4579C25.768 14.5811 25.6403 13.618 25.6403 12.5683C25.6403 11.5191 25.7786 10.5488 26.0554 9.65806C26.3321 8.76731 26.7472 7.99774 27.3007 7.34839C27.8543 6.69952 28.5462 6.19194 29.3765 5.82587C30.2067 5.46022 31.1824 5.27698 32.3037 5.27698C32.8573 5.27698 33.3575 5.32547 33.8046 5.42196C34.2517 5.51866 34.6419 5.63268 34.9756 5.76375C35.3088 5.89516 35.5857 6.03298 35.8058 6.17803C36.0257 6.32301 36.1924 6.44413 36.3062 6.54048C36.4339 6.65124 36.5437 6.7823 36.6362 6.93403C36.7283 7.08618 36.7745 7.25189 36.7745 7.43124C36.7745 7.70764 36.6681 7.98369 36.4552 8.2598C36.2423 8.5362 36.0081 8.79166 35.7526 9.02624C35.5823 8.86053 35.3907 8.69162 35.1779 8.51881C34.9649 8.34621 34.7271 8.19448 34.4646 8.06306C34.2019 7.932 33.9038 7.82159 33.5705 7.73164C33.2368 7.64196 32.8643 7.59695 32.4528 7.59695C31.729 7.59695 31.1223 7.73873 30.6326 8.0216C30.143 8.30481 29.7491 8.67409 29.4511 9.12983C29.1531 9.58557 28.9401 10.1069 28.8124 10.6937C28.6847 11.2808 28.6208 11.878 28.6208 12.4855C28.6208 13.1348 28.6847 13.7561 28.8124 14.3497C28.9401 14.9435 29.1599 15.4684 29.4724 15.924C29.7843 16.3797 30.1925 16.7457 30.6965 17.0218C31.2 17.2982 31.8281 17.4361 32.5805 17.4361C32.9777 17.4361 33.3433 17.3879 33.6769 17.2912C34.0102 17.1946 34.3049 17.0771 34.5604 16.9388C34.8159 16.8011 35.0394 16.6562 35.231 16.5041C35.4226 16.3522 35.5823 16.2212 35.71 16.1104C35.7952 16.2073 35.8943 16.3248 36.008 16.4626C36.1224 16.602 36.229 16.7472 36.3274 16.8977C36.4265 17.0497 36.5117 17.2015 36.5828 17.3532C36.6537 17.5054 36.6892 17.6433 36.6892 17.7674C36.6892 17.9472 36.6537 18.099 36.5828 18.2232C36.5116 18.3475 36.3981 18.4858 36.2422 18.6376ZM47.2134 17.0489C47.2134 18.1465 47.3773 18.9453 47.7059 19.4455C47.449 19.5425 47.2097 19.6121 46.9884 19.6538C46.7669 19.6955 46.5351 19.7162 46.2924 19.7162C45.7784 19.7162 45.3892 19.619 45.1252 19.4245C44.8609 19.2302 44.6931 18.9524 44.6219 18.591C44.3076 18.9108 43.8936 19.1816 43.3797 19.4039C42.8657 19.6258 42.2372 19.7372 41.4949 19.7372C41.1094 19.7372 40.724 19.6852 40.3384 19.5817C39.9528 19.4773 39.6029 19.308 39.2889 19.0729C38.9746 18.8372 38.7177 18.5222 38.5179 18.1274C38.3178 17.7327 38.218 17.2516 38.218 16.6839C38.218 15.9776 38.3928 15.4027 38.7428 14.9598C39.0926 14.5164 39.5316 14.1668 40.06 13.9105C40.5881 13.6545 41.1593 13.4783 41.7734 13.3811C42.3872 13.2841 42.9514 13.2219 43.4653 13.1939C43.6368 13.1802 43.8044 13.173 43.9687 13.173H44.4292V12.7937C44.4292 12.2597 44.2826 11.8804 43.9901 11.6557C43.6972 11.431 43.2224 11.3184 42.5658 11.3184C41.9518 11.3184 41.4056 11.4157 40.9274 11.6101C40.4488 11.8048 39.9813 12.0269 39.5246 12.277C39.3244 12.0409 39.1637 11.7805 39.0426 11.4955C38.9212 11.211 38.8606 10.999 38.8606 10.8599C38.8606 10.6656 38.971 10.478 39.1926 10.2973C39.4138 10.1169 39.7173 9.95345 40.1028 9.80757C40.4884 9.66168 40.9308 9.54383 41.4308 9.45332C41.9304 9.36309 42.4588 9.31787 43.0157 9.31787C43.7867 9.31787 44.4399 9.3944 44.9753 9.5471C45.5107 9.70015 45.9462 9.9362 46.2818 10.2556C46.6171 10.5754 46.8564 10.9746 46.9992 11.4538C47.1418 11.9332 47.2134 12.4926 47.2134 13.1314V17.0489H47.2134ZM44.4719 14.6317H44.1721C44.072 14.6317 43.9719 14.6389 43.8723 14.6526C43.5151 14.6806 43.1617 14.7222 42.8121 14.7775C42.4621 14.8332 42.1515 14.9305 41.8805 15.0693C41.6091 15.2083 41.3878 15.3891 41.2165 15.6111C41.0451 15.8335 40.9595 16.1184 40.9595 16.4656C40.9595 16.8546 41.0736 17.1844 41.3021 17.4553C41.5303 17.7263 41.9159 17.8617 42.4587 17.8617C42.7298 17.8617 42.9869 17.8272 43.2298 17.7574C43.4724 17.6882 43.6865 17.5979 43.8723 17.4867C44.0577 17.3755 44.2042 17.2541 44.3113 17.1219C44.4184 16.99 44.4719 16.8686 44.4719 16.7573V14.6317H44.4719ZM52.546 10.5264C52.7736 10.2627 53.1296 9.99506 53.6135 9.72409C54.0974 9.45319 54.7094 9.31774 55.4497 9.31774C55.9765 9.31774 56.4781 9.40463 56.9551 9.5782C57.4316 9.75205 57.8552 10.0335 58.2253 10.4222C58.5955 10.8113 58.8908 11.3254 59.1115 11.9643C59.3321 12.6035 59.4425 13.3885 59.4425 14.319C59.4425 15.4026 59.3142 16.2955 59.0581 16.9969C58.8017 17.6987 58.4711 18.2544 58.0656 18.6641C57.6599 19.0739 57.2077 19.3622 56.7098 19.5288C56.2115 19.6955 55.7132 19.779 55.2152 19.779C54.8024 19.779 54.4428 19.7338 54.1371 19.6435C53.8308 19.553 53.5712 19.4526 53.3577 19.3413C53.1442 19.2303 52.9806 19.1193 52.8668 19.0079C52.753 18.8969 52.6817 18.8203 52.6533 18.7785V23.9012H49.7405V9.60944C49.8121 9.5958 49.8985 9.58182 49.9994 9.56783C50.0859 9.5542 50.1866 9.54369 50.3017 9.53653C50.4167 9.52971 50.5534 9.52616 50.7116 9.52616C51.1861 9.52616 51.589 9.60269 51.9199 9.75539C52.2508 9.90844 52.4597 10.1653 52.546 10.5264ZM56.4012 14.3815C56.4012 13.9648 56.3657 13.576 56.2947 13.2146C56.2238 12.8536 56.1067 12.5409 55.9434 12.2769C55.7801 12.0131 55.5598 11.808 55.2831 11.6621C55.0059 11.5162 54.669 11.4434 54.2717 11.4434C53.6755 11.4434 53.2602 11.5547 53.0258 11.7767C52.7917 11.9991 52.6745 12.2424 52.6745 12.5061V16.924C52.7879 17.0353 52.99 17.1671 53.2811 17.3199C53.5724 17.4729 53.9093 17.549 54.2928 17.549C55.017 17.549 55.5493 17.2715 55.8901 16.7156C56.2309 16.16 56.4012 15.3818 56.4012 14.3815ZM61.6906 17.966C61.5905 17.6882 61.5263 17.3963 61.4979 17.0906C61.4691 16.7852 61.455 16.4796 61.455 16.1736V6.50445C61.5548 6.49081 61.6619 6.47683 61.7763 6.46278C61.8759 6.44914 61.9831 6.43877 62.0975 6.43154C62.2116 6.42472 62.3258 6.42117 62.4401 6.42117C62.6684 6.42117 62.897 6.44204 63.1256 6.48365C63.3537 6.52539 63.5608 6.60873 63.7467 6.73368C63.9321 6.85869 64.082 7.02906 64.1964 7.24424C64.3106 7.45976 64.3677 7.74117 64.3677 8.08818V9.5677H67.3663V11.6726H64.3677V16.1164C64.3677 17.0855 64.7746 17.5699 65.5886 17.5699C65.7884 17.5699 65.9774 17.5388 66.1562 17.4761C66.3345 17.4137 66.4951 17.3443 66.6381 17.2678C66.7807 17.1914 66.9058 17.1116 67.0129 17.0282C67.12 16.9448 67.1949 16.8824 67.2377 16.8407C67.4519 17.1465 67.6158 17.4112 67.7303 17.6346C67.8444 17.8583 67.9016 18.0682 67.9016 18.2643C67.9016 18.4467 67.8268 18.6257 67.6767 18.8008C67.5267 18.976 67.316 19.1376 67.0448 19.2847C66.7736 19.4318 66.4453 19.551 66.0597 19.6422C65.6742 19.7334 65.2528 19.7791 64.7961 19.7791C63.9106 19.7791 63.2218 19.6122 62.7292 19.2789C62.2367 18.9453 61.8903 18.5077 61.6906 17.966ZM74.7434 17.695C75.1014 17.695 75.4167 17.6569 75.6892 17.5803C75.9612 17.5042 76.2048 17.4104 76.4198 17.2992C76.6345 17.1882 76.821 17.0666 76.9787 16.9345C77.1362 16.8026 77.2794 16.6811 77.4087 16.5697C77.5804 16.778 77.7594 17.0457 77.9458 17.3719C78.132 17.6987 78.2252 17.966 78.2252 18.1742C78.2252 18.48 78.0465 18.7579 77.6899 19.0079C77.39 19.2303 76.9649 19.4213 76.4155 19.5809C75.8656 19.7405 75.2194 19.8205 74.4772 19.8205C73.8058 19.8205 73.1456 19.7372 72.4961 19.5705C71.8463 19.4039 71.2679 19.112 70.7613 18.6952C70.2542 18.2786 69.8437 17.7195 69.5297 17.0178C69.2156 16.3163 69.0586 15.4308 69.0586 14.3608C69.0586 13.4855 69.1978 12.7321 69.476 12.0998C69.7546 11.4678 70.1257 10.9433 70.5901 10.5265C71.0538 10.1097 71.5785 9.8043 72.1641 9.60951C72.7494 9.4152 73.3492 9.3178 73.9632 9.3178C74.7628 9.3178 75.4409 9.43962 75.9978 9.68248C76.5548 9.9257 77.0078 10.2523 77.3578 10.6619C77.7075 11.0718 77.9609 11.5407 78.1181 12.0686C78.275 12.5966 78.3537 13.1522 78.3537 13.7356V14.0273C78.3537 14.1388 78.3501 14.2566 78.343 14.3816C78.3357 14.5067 78.3287 14.6285 78.3217 14.7462C78.3142 14.8646 78.3035 14.9582 78.2896 15.0277H71.9713C72.0286 15.7918 72.2721 16.4273 72.7019 16.9345C73.1314 17.4418 73.812 17.695 74.7434 17.695ZM75.7193 13.4647C75.7193 12.7978 75.5864 12.256 75.3207 11.8393C75.055 11.4225 74.5774 11.214 73.8885 11.214C73.2994 11.214 72.8292 11.4121 72.4775 11.808C72.1254 12.204 71.9499 12.7562 71.9499 13.4646H75.7193V13.4647ZM83.4226 10.5791C83.5081 10.4551 83.6223 10.3174 83.7652 10.1656C83.9078 10.0139 84.0828 9.87609 84.29 9.75212C84.4968 9.62808 84.7253 9.52449 84.9754 9.44185C85.2249 9.35913 85.4928 9.3178 85.7786 9.3178C85.9499 9.3178 86.132 9.33179 86.3247 9.35913C86.5174 9.38682 86.6957 9.43858 86.86 9.51413C87.0241 9.59003 87.1563 9.6932 87.2563 9.82412C87.356 9.95505 87.4062 10.1169 87.4062 10.3096C87.4062 10.6128 87.3275 10.9609 87.1706 11.3539C87.0133 11.7472 86.8565 12.0826 86.6995 12.3603C86.4565 12.1659 86.2138 12.0165 85.9712 11.9123C85.7283 11.8082 85.4428 11.756 85.1145 11.756C84.6719 11.756 84.3007 11.8814 84.001 12.1321C83.7009 12.3828 83.551 12.6824 83.551 13.0307V19.7767H80.6384V9.60944C80.7096 9.5958 80.7953 9.58182 80.8953 9.56783C80.981 9.5542 81.0808 9.54369 81.1952 9.53653C81.3094 9.52971 81.4448 9.52616 81.6021 9.52616C82.0589 9.52616 82.4551 9.61236 82.7908 9.7844C83.126 9.95624 83.337 10.2213 83.4226 10.5791ZM91.704 10.5791C91.7896 10.4551 91.9037 10.3174 92.0467 10.1656C92.1892 10.0139 92.3643 9.87609 92.5714 9.75212C92.7782 9.62808 93.0067 9.52449 93.2567 9.44185C93.5064 9.35913 93.7741 9.3178 94.0599 9.3178C94.2311 9.3178 94.4132 9.33179 94.6059 9.35913C94.7986 9.38682 94.9771 9.43858 95.1414 9.51413C95.3055 9.59003 95.4375 9.6932 95.5378 9.82412C95.6375 9.95505 95.6876 10.1169 95.6876 10.3096C95.6876 10.6128 95.6089 10.9609 95.4521 11.3539C95.2946 11.7472 95.1377 12.0826 94.9808 12.3603C94.738 12.1659 94.4951 12.0165 94.2526 11.9123C94.0098 11.8082 93.7242 11.756 93.3959 11.756C92.9533 11.756 92.582 11.8814 92.2822 12.1321C91.9824 12.3828 91.8325 12.6824 91.8325 13.0307V19.7767H88.9198V9.60944C88.991 9.5958 89.0767 9.58182 89.1768 9.56783C89.2624 9.5542 89.3623 9.54369 89.4766 9.53653C89.5907 9.52971 89.7262 9.52616 89.8834 9.52616C90.3404 9.52616 90.7366 9.61236 91.072 9.7844C91.4074 9.95624 91.6182 10.2213 91.704 10.5791ZM105.604 17.0489C105.604 18.1465 105.768 18.9453 106.097 19.4455C105.84 19.5425 105.6 19.6121 105.379 19.6538C105.158 19.6955 104.926 19.7162 104.683 19.7162C104.169 19.7162 103.78 19.619 103.516 19.4245C103.251 19.2302 103.084 18.9524 103.012 18.591C102.698 18.9108 102.284 19.1816 101.77 19.4039C101.256 19.6258 100.628 19.7372 99.8856 19.7372C99.5 19.7372 99.1146 19.6852 98.729 19.5817C98.3435 19.4773 97.9934 19.308 97.6796 19.0729C97.3653 18.8372 97.1084 18.5222 96.9085 18.1274C96.7085 17.7327 96.6088 17.2516 96.6088 16.6839C96.6088 15.9776 96.7833 15.4027 97.1335 14.9598C97.4832 14.5164 97.9223 14.1668 98.4507 13.9105C98.9787 13.6545 99.5499 13.4783 100.164 13.3811C100.778 13.2841 101.342 13.2219 101.856 13.1939C102.027 13.1802 102.195 13.173 102.359 13.173H102.82V12.7937C102.82 12.2597 102.673 11.8804 102.381 11.6557C102.088 11.431 101.613 11.3184 100.956 11.3184C100.342 11.3184 99.7963 11.4157 99.3181 11.6101C98.8395 11.8048 98.372 12.0269 97.9152 12.277C97.7152 12.0409 97.5543 11.7805 97.4333 11.4955C97.3119 11.211 97.2513 10.999 97.2513 10.8599C97.2513 10.6656 97.3617 10.478 97.5833 10.2973C97.8045 10.1169 98.108 9.95345 98.4935 9.80757C98.8791 9.66168 99.3214 9.54383 99.8213 9.45332C100.321 9.36309 100.849 9.31787 101.406 9.31787C102.177 9.31787 102.83 9.3944 103.366 9.5471C103.901 9.70015 104.337 9.9362 104.672 10.2556C105.008 10.5754 105.247 10.9746 105.39 11.4538C105.532 11.9332 105.604 12.4926 105.604 13.1314V17.0489ZM102.863 14.6317H102.563C102.463 14.6317 102.363 14.6389 102.263 14.6526C101.906 14.6806 101.552 14.7222 101.203 14.7775C100.853 14.8332 100.542 14.9305 100.271 15.0693C99.9997 15.2083 99.7785 15.3891 99.6071 15.6111C99.4358 15.8335 99.3501 16.1184 99.3501 16.4656C99.3501 16.8546 99.4643 17.1844 99.6928 17.4553C99.921 17.7263 100.307 17.8617 100.849 17.8617C101.12 17.8617 101.378 17.8272 101.62 17.7574C101.863 17.6882 102.077 17.5979 102.263 17.4867C102.448 17.3755 102.595 17.2541 102.702 17.1219C102.809 16.99 102.863 16.8686 102.863 16.7573V14.6317H102.863Z" fill="#044D80"/>
</g>
<defs>
<clipPath id="clip0_6435_122647">
<rect width="150" height="23" fill="white" transform="translate(0 0.702148)"/>
</clipPath>
</defs>
</svg>
