<svg width="150" height="23" viewBox="0 0 150 23" fill="none" xmlns="http://www.w3.org/2000/svg">
<g clip-path="url(#clip0_6435_122665)">
<path d="M32.3786 13.934H34.385C34.091 15.056 33.5295 15.9109 32.7004 16.4986C31.8713 17.1129 30.8277 17.4201 29.5694 17.4201C28.0448 17.4201 26.8546 16.9258 25.9988 15.9371C25.1413 14.9752 24.713 13.6009 24.7138 11.8144C24.7138 10.1047 25.1288 8.77086 25.9587 7.81293C26.8137 6.82509 28.0039 6.33076 29.5293 6.32996C31.1349 6.32996 32.379 6.81094 33.2615 7.77291C33.75 8.3727 34.1056 9.06907 34.3048 9.81609H31.4956C31.3942 9.59454 31.259 9.39002 31.0948 9.20981C30.7459 8.83634 30.2508 8.6496 29.6095 8.6496C29.3435 8.63936 29.0783 8.68344 28.83 8.77915C28.5817 8.87485 28.3555 9.02016 28.1654 9.20617C27.6796 9.74051 27.4388 10.622 27.4428 11.8508C27.4469 13.0795 27.6877 13.9477 28.1654 14.4554C28.5128 14.8822 29.0346 15.0956 29.7309 15.0956C30.1369 15.1075 30.5386 15.0108 30.8944 14.8155C30.978 14.787 31.0534 14.7387 31.1143 14.6749L31.3353 14.4554C31.4283 14.3349 31.5365 14.2269 31.6572 14.134C31.8175 14.0007 32.058 13.934 32.3786 13.934Z" fill="#05314F"/>
<path d="M34.6083 17.2187V12.0495C34.6083 11.0083 34.7621 10.1336 35.0698 9.42549C35.3438 8.76407 35.7778 8.1808 36.3329 7.72789C36.8635 7.31403 37.4731 7.01244 38.1243 6.8415C38.8104 6.6538 39.5188 6.55918 40.2302 6.56019H40.6322V9.40487H39.7031C38.9275 9.40487 38.3522 9.59201 37.9773 9.96629C37.6025 10.3406 37.4158 10.9299 37.4174 11.7342V17.2235L34.6083 17.2187Z" fill="#05314F"/>
<path d="M42.0108 16.258C41.4279 15.743 41.0094 15.0683 40.8072 14.3179C40.5636 13.4911 40.4409 12.6334 40.4428 11.7715C40.444 11.0402 40.5449 10.3124 40.7428 9.6083C40.9142 8.94276 41.2371 8.3257 41.6865 7.80521C42.3709 7.00933 43.3315 6.50125 44.3754 6.38287C45.4766 6.23251 46.4696 6.319 47.3546 6.64236C48.3459 7.02013 49.1514 7.76746 49.6015 8.72676C50.0573 9.6087 50.2848 10.637 50.284 11.8115C50.2987 12.5557 50.2042 13.298 50.0035 14.0148C49.8436 14.5694 49.5999 15.0965 49.2808 15.5778C48.6388 16.4589 47.8226 17.0066 46.8324 17.2208C45.9604 17.4611 45.0423 17.4815 44.1605 17.2802C43.2641 17.0797 42.5476 16.739 42.0108 16.258ZM43.937 9.20573C43.3759 9.82009 43.122 10.7352 43.1755 11.951C43.2289 13.1668 43.456 14.0156 43.8568 14.4974C44.0171 14.7108 44.2989 14.8915 44.6997 15.0382C45.0925 15.1846 45.5224 15.1986 45.9239 15.0782C46.3377 14.9586 46.7057 14.6578 47.0279 14.176C47.3502 13.6942 47.5246 12.921 47.5514 11.8564C47.5514 10.8944 47.3975 10.1734 47.0898 9.69318C46.7822 9.213 46.4279 8.90582 46.0272 8.77163C45.6378 8.63822 45.2161 8.63101 44.8224 8.75101C44.4957 8.82958 44.1929 8.98555 43.9394 9.20573H43.937Z" fill="#05314F"/>
<path d="M50.2841 17.2187V15.0942L56.0226 8.76463H51.9698C51.7919 8.76766 51.6151 8.73559 51.4496 8.67025C51.2841 8.60491 51.1332 8.5076 51.0055 8.38388C50.8757 8.26406 50.7729 8.11813 50.7039 7.95572C50.6348 7.79332 50.601 7.61813 50.6047 7.44172V6.56018H59.3492V8.84466L53.6944 14.8942H59.5544V17.2187H50.2841Z" fill="#05314F"/>
<path d="M66.8392 3.39507H68.2043C68.3854 3.39352 68.5649 3.43021 68.7309 3.50272C68.8968 3.57523 69.0456 3.68193 69.1674 3.81583C69.2929 3.93864 69.3929 4.08497 69.4617 4.24644C69.5304 4.4079 69.5666 4.58133 69.5682 4.75678V12.5706C69.5682 14.467 69.0196 15.7491 67.9225 16.4168C66.8494 17.0782 65.6117 17.4252 64.3506 17.4184C63.6543 17.4181 62.9629 17.303 62.3042 17.0777C61.6724 16.8771 61.1142 16.4945 60.6998 15.9779C59.9241 14.9909 59.5359 13.6421 59.5351 11.9315C59.5351 10.2485 59.9233 8.89972 60.6998 7.88521C61.5014 6.84321 62.5313 6.32221 63.7895 6.32221C64.4022 6.30976 65.0085 6.44757 65.5554 6.72357C66.0755 7.02943 66.5155 7.45415 66.8392 7.96281V3.39507ZM62.2641 11.8091C62.2641 12.8778 62.4665 13.6922 62.8714 14.2524C63.2762 14.8126 63.8515 15.0931 64.5972 15.0939C64.9263 15.1071 65.2534 15.0368 65.5479 14.8896C65.8425 14.7425 66.0949 14.5233 66.2817 14.2524C66.6566 13.6922 66.844 12.8778 66.844 11.8091C66.844 10.8471 66.6416 10.0856 66.2368 9.5246C66.0329 9.26483 65.7704 9.05691 65.4707 8.91782C65.1709 8.77873 64.8425 8.71242 64.5122 8.72431C64.189 8.71439 63.8686 8.78636 63.5808 8.93352C63.293 9.08067 63.0473 9.29821 62.8665 9.56583C62.4641 10.0994 62.2633 10.8471 62.2641 11.8091Z" fill="#05314F"/>
<path d="M77.4745 13.934H79.4809C79.187 15.056 78.6255 15.9109 77.7964 16.4986C76.9665 17.1129 75.9228 17.4201 74.6654 17.4201C73.1407 17.4201 71.9505 16.9258 71.0947 15.9371C70.2373 14.9752 69.8089 13.6009 69.8098 11.8144C69.8098 10.1047 70.2247 8.77086 71.0546 7.81293C71.9096 6.82509 73.0999 6.33076 74.6253 6.32996C76.2309 6.32996 77.4749 6.81094 78.3575 7.77291C79.2133 8.76156 79.6416 10.1358 79.6424 11.8956V12.3358C79.6481 12.4313 79.6345 12.527 79.6024 12.6171H72.6578C72.6845 13.4449 72.8869 14.0593 73.265 14.4602C73.6124 14.8871 74.1342 15.1005 74.8305 15.1005C75.2364 15.1123 75.6382 15.0156 75.994 14.8204C76.0776 14.7918 76.153 14.7436 76.2139 14.6797L76.4349 14.4602C76.5063 14.3293 76.6099 14.2187 76.7361 14.1389C76.9531 13.9916 77.2125 13.9196 77.4745 13.934ZM72.6578 10.8092H76.7519C76.6976 10.0881 76.5102 9.55377 76.1896 9.20617C75.8414 8.8327 75.3463 8.64596 74.7042 8.64596C74.438 8.6362 74.1726 8.68086 73.9243 8.77719C73.6759 8.87352 73.45 9.0195 73.2602 9.20617C72.8853 9.58126 72.6845 10.1156 72.6578 10.8092Z" fill="#05314F"/>
<path d="M79.6231 13.6927H82.3521C82.378 14.227 82.5804 14.6275 82.9594 14.8943C83.3601 15.1619 83.8953 15.2957 84.5649 15.2957C84.9965 15.3074 85.4242 15.2107 85.8086 15.0144C86.1292 14.8276 86.2944 14.5742 86.2944 14.2529C86.2944 13.7727 85.7325 13.4121 84.6087 13.1712C84.2421 13.1167 83.8801 13.0357 83.5253 12.9287C82.1068 12.5819 81.157 12.168 80.6761 11.6871C80.1401 11.202 79.8725 10.561 79.8733 9.76393C79.8641 9.28497 79.9631 8.81011 80.1628 8.37454C80.3626 7.93898 80.6579 7.55389 81.0271 7.24785C81.8295 6.63429 82.8727 6.3271 84.1569 6.32629C85.5487 6.32629 86.6592 6.63348 87.4883 7.24785C88.2647 7.91638 88.6793 8.78458 88.7319 9.85244H87.0061C86.7677 9.85881 86.5324 9.79834 86.3267 9.67788C86.1211 9.55742 85.9533 9.38181 85.8426 9.17098L85.522 8.85086C85.1981 8.60835 84.7564 8.48709 84.1969 8.48709C83.6626 8.48709 83.2606 8.56712 82.9934 8.72961C82.8747 8.80722 82.7786 8.91463 82.7146 9.04105C82.6507 9.16747 82.6211 9.30846 82.629 9.44987C82.629 9.87831 83.3245 10.2393 84.7155 10.5327C84.8539 10.5802 84.9945 10.6207 85.137 10.654C85.2489 10.6796 85.3634 10.6931 85.4783 10.694C86.8426 11.0408 87.7923 11.4413 88.3275 11.8956C88.8352 12.3758 89.0894 13.0168 89.0902 13.8188C89.0902 14.9949 88.6619 15.9032 87.8053 16.5434C87.0021 17.1311 85.7981 17.4249 84.1933 17.4249C82.6687 17.4249 81.5319 17.1178 80.783 16.5034C80.0065 15.8882 79.6186 14.9933 79.6194 13.8188L79.6231 13.6927Z" fill="#05314F"/>
<path d="M92.3438 6.56056V10.4881L95.7553 6.56056H99.1256L95.3132 10.6433L99.1657 17.2142H95.7954L93.8279 13.608C93.4271 12.8869 93.0794 12.5798 92.7846 12.6865C92.4899 12.7932 92.343 12.9548 92.3438 13.1715V17.219H89.5346V3.43577H90.9787C91.1582 3.43356 91.3363 3.4679 91.5021 3.5367C91.6679 3.6055 91.8179 3.70731 91.943 3.83592C92.0691 3.95422 92.1697 4.09697 92.2386 4.25543C92.3075 4.41389 92.3433 4.58472 92.3438 4.75747V6.56056Z" fill="#05314F"/>
<path d="M99.773 6.52894V4.82286H99.156V4.6725C99.156 4.64389 99.1617 4.61557 99.1727 4.58916C99.1837 4.56274 99.1998 4.53876 99.2201 4.51859C99.2404 4.49842 99.2645 4.48246 99.291 4.47162C99.3176 4.46078 99.346 4.45529 99.3746 4.45545H100.811V4.81922H100.204V6.52894H99.773Z" fill="#05314F"/>
<path d="M100.89 6.52829V4.67184C100.89 4.64322 100.895 4.61478 100.906 4.58828C100.917 4.56179 100.933 4.53781 100.953 4.51785C100.994 4.47605 101.049 4.45134 101.108 4.44873H101.522L101.935 6.03477L102.345 4.44873H102.979V6.52829H102.581V4.85252L102.158 6.52829H101.717L101.289 4.85252V6.52829H100.89Z" fill="#05314F"/>
<path d="M8.31302 1.15158L1.68179 4.97602C1.1705 5.27131 0.745957 5.69562 0.450725 6.20639C0.155492 6.71717 -4.99127e-05 7.29646 -0.000305176 7.88619V15.5096C-0.000295631 16.0994 0.155143 16.6788 0.4504 17.1896C0.745657 17.7004 1.17034 18.1247 1.68179 18.4198L8.31302 22.2454C8.8251 22.5409 9.4061 22.6964 9.99754 22.6964C10.589 22.6964 11.17 22.5409 11.6821 22.2454L18.3133 18.4198C18.8251 18.125 19.2502 17.7009 19.5457 17.19C19.8412 16.6791 19.9967 16.0995 19.9966 15.5096V7.8874C19.9964 7.29753 19.8407 6.71811 19.5452 6.2073C19.2497 5.69649 18.8249 5.27228 18.3133 4.97724L11.6821 1.15158C11.17 0.856122 10.589 0.700562 9.99754 0.700562C9.4061 0.700562 8.8251 0.856122 8.31302 1.15158Z" fill="url(#paint0_linear_6435_122665)"/>
<path d="M9.35391 18.4479L4.46065 15.625C4.26535 15.5122 4.10319 15.35 3.99043 15.1549C3.87766 14.9597 3.81826 14.7384 3.81818 14.5131V8.88558C3.81826 8.66028 3.87766 8.43896 3.99043 8.2438C4.10319 8.04865 4.26535 7.88651 4.46065 7.77365L9.2604 5.00536C9.33477 4.96043 9.41985 4.93625 9.50677 4.93533C9.59368 4.93441 9.67926 4.9568 9.75456 5.00015C9.82986 5.0435 9.89213 5.10623 9.93488 5.18179C9.97763 5.25735 9.99929 5.34299 9.9976 5.42975V8.52181C9.99749 8.66109 9.96075 8.7979 9.89105 8.91855C9.82136 9.03921 9.72115 9.13948 9.60046 9.20933L8.03496 10.1115C7.91447 10.1814 7.81455 10.2817 7.74525 10.4024C7.67596 10.5231 7.63974 10.6599 7.64024 10.799V12.5985C7.63998 12.7378 7.67657 12.8748 7.7463 12.9955C7.81604 13.1162 7.91644 13.2164 8.03738 13.286L9.60289 14.1894C9.72382 14.2591 9.861 14.2958 10.0006 14.2958C10.1403 14.2958 10.2775 14.2591 10.3984 14.1894L11.9639 13.286C12.0846 13.2163 12.2216 13.1796 12.361 13.1796C12.5005 13.1796 12.6375 13.2163 12.7582 13.286L15.4423 14.8296C15.5182 14.8715 15.5815 14.933 15.6256 15.0077C15.6696 15.0823 15.6929 15.1673 15.6929 15.254C15.6929 15.3406 15.6696 15.4257 15.6256 15.5003C15.5815 15.575 15.5182 15.6364 15.4423 15.6784L10.6413 18.4479C10.4455 18.5605 10.2235 18.6197 9.9976 18.6197C9.77167 18.6197 9.5497 18.5605 9.35391 18.4479Z" fill="white"/>
<path opacity="0.21" d="M19.2606 5.7937C19.5793 6.32005 19.7473 6.92355 19.7464 7.53859V15.162C19.7464 15.7518 19.591 16.3312 19.2957 16.842C19.0005 17.3528 18.5758 17.7771 18.0644 18.0722L11.4331 21.8978C10.921 22.1933 10.34 22.3489 9.7486 22.3489C9.15716 22.3489 8.57616 22.1933 8.06408 21.8978L1.43285 18.0722C1.0685 17.8625 0.747091 17.5861 0.485535 17.2573C0.778222 17.7403 1.18849 18.1416 1.67818 18.4238L8.30941 22.2495C8.82149 22.5449 9.40249 22.7005 9.99393 22.7005C10.5854 22.7005 11.1664 22.5449 11.6785 22.2495L18.3097 18.4238C18.8215 18.1291 19.2466 17.7049 19.5421 17.194C19.8376 16.6832 19.9931 16.1036 19.993 15.5137V7.88781C19.9932 7.12715 19.7351 6.38889 19.2606 5.7937Z" fill="black"/>
<g opacity="0.15">
<path d="M15.4944 14.8657C15.5568 14.9779 15.5721 15.1101 15.5371 15.2335C15.502 15.3569 15.4194 15.4614 15.3074 15.5241L10.5089 18.2924C10.3133 18.405 10.0915 18.4643 9.8658 18.4643C9.64005 18.4643 9.41828 18.405 9.22272 18.2924L4.32945 15.4696C4.23233 15.414 4.14291 15.3459 4.06348 15.2671C4.16913 15.4145 4.30438 15.5384 4.46062 15.6309L9.35388 18.4537C9.54967 18.5663 9.77164 18.6255 9.99757 18.6255C10.2235 18.6255 10.4455 18.5663 10.6413 18.4537L15.4398 15.6854C15.5122 15.6465 15.5735 15.5898 15.6179 15.5208C15.6624 15.4517 15.6886 15.3726 15.6941 15.2907C15.6995 15.2087 15.6841 15.1268 15.6492 15.0525C15.6143 14.9782 15.561 14.9139 15.4944 14.8657Z" fill="#669DEA"/>
<path d="M9.86511 5.27505V8.3671C9.86537 8.50645 9.82878 8.64341 9.75905 8.76413C9.68932 8.88485 9.58891 8.98505 9.46797 9.05463L7.90246 9.95799C7.78195 10.0277 7.68186 10.1278 7.61217 10.2482C7.54249 10.3687 7.50564 10.5052 7.50532 10.6443V12.445C7.50481 12.5554 7.52733 12.6647 7.57145 12.7659C7.61557 12.8672 7.68032 12.9582 7.76158 13.0331C7.68002 12.9031 7.63785 12.7523 7.64013 12.599V10.7995C7.63987 10.6602 7.67646 10.5232 7.74619 10.4025C7.81592 10.2818 7.91633 10.1816 8.03727 10.112L9.60278 9.20983C9.72372 9.14026 9.82413 9.04006 9.89386 8.91934C9.96359 8.79862 10.0002 8.66166 9.99992 8.52231V5.43026C10.0003 5.35527 9.98335 5.2812 9.95027 5.21387C9.91718 5.14654 9.86891 5.08779 9.80924 5.04224C9.84741 5.11383 9.86664 5.19396 9.86511 5.27505Z" fill="#669DEA"/>
</g>
<path opacity="0.1" d="M9.50573 5.05137C9.60613 5.05169 9.70232 5.09165 9.77332 5.16253C9.84431 5.23341 9.88434 5.32945 9.88466 5.42969V8.52174C9.88463 8.6411 9.8532 8.75836 9.79352 8.86178C9.73384 8.9652 9.648 9.05116 9.54459 9.11105L7.97787 10.0144C7.8403 10.0943 7.72609 10.2087 7.64661 10.3464C7.56713 10.484 7.52515 10.6401 7.52486 10.7989V12.5984C7.52494 12.7575 7.56681 12.9138 7.64631 13.0516C7.7258 13.1895 7.84013 13.3042 7.97787 13.3841L9.54338 14.2875C9.68152 14.367 9.83816 14.4088 9.99761 14.4088C10.157 14.4088 10.3137 14.367 10.4518 14.2875L12.0186 13.3841C12.1221 13.3249 12.2393 13.2937 12.3586 13.2937C12.4779 13.2937 12.5952 13.3249 12.6987 13.3841L15.3827 14.929C15.4403 14.962 15.488 15.0096 15.5212 15.067C15.5545 15.1244 15.5719 15.1895 15.5719 15.2557C15.5719 15.322 15.5545 15.3871 15.5212 15.4445C15.488 15.5018 15.4403 15.5495 15.3827 15.5825L10.5842 18.3496C10.4057 18.4521 10.2035 18.506 9.99761 18.506C9.79174 18.506 9.58947 18.4521 9.411 18.3496L4.51773 15.5267C4.33996 15.4236 4.19237 15.2757 4.08966 15.0978C3.98695 14.92 3.93271 14.7183 3.93234 14.513V8.88551C3.93246 8.68016 3.9866 8.47844 4.08933 8.30054C4.19207 8.12264 4.3398 7.9748 4.51773 7.8718L9.31748 5.1023C9.37464 5.06905 9.43958 5.05148 9.50573 5.05137ZM9.50573 4.9386C9.4203 4.93912 9.33651 4.96212 9.26283 5.00529L4.46187 7.77358C4.26625 7.8862 4.10378 8.04825 3.99079 8.24343C3.8778 8.43862 3.81826 8.66007 3.81818 8.88551V14.513C3.81826 14.7385 3.8778 14.9599 3.99079 15.1551C4.10378 15.3503 4.26625 15.5124 4.46187 15.625L9.35513 18.4478C9.55061 18.5607 9.77242 18.6201 9.99821 18.6201C10.224 18.6201 10.4458 18.5607 10.6413 18.4478L15.4398 15.6795C15.5158 15.6376 15.5791 15.5761 15.6231 15.5015C15.6672 15.4268 15.6904 15.3418 15.6904 15.2551C15.6904 15.1685 15.6672 15.0834 15.6231 15.0088C15.5791 14.9342 15.5158 14.8727 15.4398 14.8307L12.7558 13.2871C12.6352 13.217 12.4981 13.1802 12.3586 13.1804C12.2192 13.1808 12.0823 13.2176 11.9615 13.2871L10.396 14.1905C10.2751 14.2604 10.1379 14.2973 9.99821 14.2973C9.85852 14.2973 9.72131 14.2604 9.60046 14.1905L8.03496 13.2871C7.91454 13.2169 7.8147 13.1163 7.74544 12.9954C7.67617 12.8745 7.63989 12.7376 7.64024 12.5984V10.7989C7.64035 10.6597 7.6771 10.5229 7.74679 10.4022C7.81649 10.2815 7.91669 10.1813 8.03738 10.1114L9.60289 9.20927C9.72383 9.13969 9.82424 9.03949 9.89397 8.91877C9.9637 8.79805 10.0003 8.6611 10 8.52174V5.42969C10 5.30105 9.94885 5.17768 9.85775 5.08672C9.76664 4.99576 9.64307 4.94466 9.51423 4.94466L9.50573 4.9386Z" fill="black"/>
<g opacity="0.5">
<path d="M9.60887 14.189L8.07373 13.3038C8.1078 13.3312 8.14394 13.3559 8.18182 13.3778L9.74733 14.2811C9.86826 14.3508 10.0054 14.3875 10.1451 14.3875C10.2847 14.3875 10.4219 14.3508 10.5428 14.2811L12.1083 13.3778C12.229 13.308 12.366 13.2713 12.5055 13.2713C12.6449 13.2713 12.7819 13.308 12.9026 13.3778L15.5345 14.8874C15.5083 14.8631 15.4793 14.842 15.4482 14.8243L12.7642 13.2807C12.6435 13.211 12.5065 13.1743 12.367 13.1743C12.2276 13.1743 12.0906 13.211 11.9699 13.2807L10.4044 14.1841C10.2839 14.2546 10.1469 14.2921 10.0073 14.2929C9.86763 14.2938 9.73023 14.2579 9.60887 14.189Z" fill="white"/>
<path d="M3.95663 14.6056V8.97806C3.95709 8.75226 4.01717 8.53057 4.13082 8.33535C4.24447 8.14013 4.40767 7.97829 4.60396 7.86613L9.39885 5.09784C9.46604 5.05851 9.54172 5.03589 9.61951 5.03188C9.69729 5.02787 9.7749 5.04259 9.84579 5.0748C9.7693 5.0008 9.67057 4.95396 9.56479 4.94147C9.45902 4.92898 9.35207 4.95154 9.2604 5.00568L4.46065 7.77398C4.26535 7.88684 4.10319 8.04898 3.99043 8.24413C3.87766 8.43929 3.81826 8.6606 3.81818 8.8859V14.5134C3.81844 14.7379 3.87754 14.9585 3.98961 15.1531C4.10168 15.3478 4.26282 15.5097 4.45701 15.6229C4.3012 15.5029 4.17507 15.3487 4.08832 15.1724C4.00157 14.996 3.95651 14.8021 3.95663 14.6056Z" fill="white"/>
</g>
<path opacity="0.5" d="M0.123575 15.5909V7.96743C0.123987 7.377 0.28011 6.79709 0.576243 6.28602C0.872375 5.77495 1.29808 5.35074 1.81053 5.05606L8.43811 1.23161C8.95019 0.936151 9.5312 0.780591 10.1226 0.780591C10.7141 0.780591 11.2951 0.936151 11.8072 1.23161L18.4384 5.05606L18.5137 5.10213C18.4481 5.05727 18.3825 5.01604 18.3133 4.98088L11.6821 1.15158C11.17 0.856122 10.589 0.700562 9.99754 0.700562C9.4061 0.700562 8.8251 0.856122 8.31302 1.15158L1.68179 4.97603C1.1705 5.27131 0.745957 5.69562 0.450725 6.2064C0.155492 6.71717 -4.96978e-05 7.29647 -0.000304961 7.88619V15.5096C-0.000510774 16.0846 0.147123 16.65 0.428461 17.1517C0.709799 17.6534 1.11542 18.0746 1.60649 18.3749C1.15005 18.0674 0.776155 17.6527 0.517609 17.1673C0.259063 16.6819 0.123762 16.1406 0.123575 15.5909Z" fill="#669DEA"/>
<path d="M33.0867 7.58967C33.5749 8.18982 33.9308 8.88604 34.1312 9.63284H31.4034C31.4337 9.68741 31.4653 9.74561 31.4957 9.80745H34.3048C34.1071 9.06083 33.7532 8.36449 33.2664 7.76427C33.1972 7.68788 33.1243 7.61513 33.0503 7.5448C33.0588 7.55935 33.0733 7.5739 33.0867 7.58967Z" fill="black"/>
<path d="M28.1983 14.4925L28.1655 14.4549C27.6797 13.9481 27.4388 13.0799 27.4429 11.8503C27.4469 10.6208 27.6878 9.73927 28.1655 9.20574C28.3553 9.01907 28.5813 8.87309 28.8296 8.77676C29.0779 8.68042 29.3434 8.63577 29.6096 8.64553C30.1812 8.64553 30.6363 8.79387 30.9747 9.09054C30.9565 9.06993 30.9383 9.04931 30.92 9.03113C30.5711 8.65766 30.076 8.47092 29.4347 8.47092C29.1685 8.46116 28.903 8.50581 28.6547 8.60215C28.4064 8.69848 28.1804 8.84446 27.9906 9.03113C27.5097 9.56546 27.2688 10.447 27.268 11.6757C27.2672 12.9045 27.5081 13.7731 27.9906 14.2815C28.0533 14.358 28.1228 14.4286 28.1983 14.4925Z" fill="black"/>
<path d="M34.1616 13.9323C33.8572 14.9726 33.3119 15.7693 32.5257 16.3222C31.6957 16.9366 30.6525 17.2438 29.3959 17.2438C28.0413 17.2438 26.9515 16.8545 26.1264 16.0761C26.9717 16.9709 28.1194 17.4184 29.5695 17.4184C30.8262 17.4184 31.8698 17.1112 32.7005 16.4968C33.5288 15.91 34.0904 15.0551 34.3851 13.9323H34.1616Z" fill="black"/>
<path d="M40.4526 6.5603V9.22795H39.5295C38.7539 9.22795 38.1786 9.41469 37.8037 9.78816C37.4288 10.1616 37.2418 10.7493 37.2426 11.5512V17.0405H34.6083V17.2151H37.4175V11.7343C37.4175 10.9324 37.6045 10.3447 37.9786 9.97126C38.3527 9.59779 38.9275 9.40903 39.7032 9.40499H40.6262V6.5603H40.4526Z" fill="black"/>
<path d="M43.6845 14.3206C43.7405 14.393 43.8049 14.4585 43.8764 14.5158L43.8594 14.4952C43.4545 14.0102 43.2274 13.1614 43.178 11.9488C43.1286 10.7362 43.3825 9.82115 43.9395 9.20355C44.1924 8.98119 44.4953 8.82311 44.8225 8.74277C45.2162 8.62277 45.6379 8.62998 46.0273 8.76339C46.2466 8.83928 46.4479 8.95939 46.6187 9.11624C46.4142 8.87616 46.1499 8.69421 45.8524 8.58878C45.463 8.45537 45.0413 8.44816 44.6476 8.56816C44.3204 8.6485 44.0175 8.80658 43.7646 9.02894C43.2035 9.64331 42.9497 10.5584 43.0031 11.7742C43.0566 12.99 43.2837 13.8388 43.6845 14.3206Z" fill="black"/>
<path d="M49.5979 8.72601C49.3748 8.25839 49.0672 7.83583 48.6907 7.47949C48.9864 7.79799 49.2321 8.1594 49.4194 8.5514C49.8752 9.43334 50.1027 10.4616 50.1019 11.6362C50.1166 12.3803 50.0221 13.1226 49.8214 13.8394C49.662 14.3943 49.4183 14.9214 49.0987 15.4024C48.4567 16.2835 47.6405 16.8312 46.6503 17.0454C45.7783 17.2857 44.8602 17.3061 43.9784 17.1049C43.0821 16.9052 42.3663 16.5649 41.8311 16.0839L41.7242 15.9881C41.8149 16.0832 41.9106 16.1735 42.0109 16.2585C42.5469 16.7387 43.2626 17.079 44.1581 17.2795C45.04 17.4807 45.9581 17.4603 46.83 17.2201C47.8195 17.0058 48.6356 16.4582 49.2785 15.577C49.5976 15.0957 49.8413 14.5687 50.0011 14.014C50.2019 13.2972 50.2964 12.5549 50.2817 11.8108C50.2809 10.6362 50.0529 9.60795 49.5979 8.72601Z" fill="black"/>
<path d="M51.7949 8.59064C51.4663 8.59627 51.147 8.48134 50.8973 8.26758C50.931 8.31015 50.967 8.3507 51.0054 8.38903C51.1335 8.51207 51.2847 8.60865 51.4501 8.67325C51.6156 8.73785 51.7922 8.76921 51.9697 8.76553H55.6898L55.8477 8.59064H51.7949Z" fill="black"/>
<path d="M59.1791 8.66993L53.5195 14.7194H53.8583L59.3528 8.84454V6.56006H59.1791V8.66993Z" fill="black"/>
<path d="M59.3795 14.8947V17.0445H50.284V17.2191H59.5544V14.8947H59.3795Z" fill="black"/>
<path d="M63.0099 14.4339C62.9589 14.3763 62.9111 14.316 62.8666 14.2532C62.4618 13.693 62.2594 12.8786 62.2594 11.8099C62.2594 10.8479 62.4618 10.1002 62.8666 9.56663C63.0474 9.29901 63.2932 9.08148 63.5809 8.93432C63.8687 8.78717 64.1891 8.71519 64.5123 8.72511C65.049 8.70808 65.5721 8.89533 65.9758 9.24894C65.7708 9.01954 65.5178 8.83802 65.2346 8.71731C64.9514 8.5966 64.6451 8.53964 64.3374 8.5505C64.0142 8.54058 63.6938 8.61256 63.406 8.75971C63.1183 8.90687 62.8725 9.1244 62.6917 9.39202C62.2909 9.92636 62.0885 10.6741 62.0845 11.6353C62.0845 12.7031 62.2869 13.518 62.6917 14.0798C62.7842 14.2093 62.891 14.3281 63.0099 14.4339Z" fill="black"/>
<path d="M69.1674 3.81652C69.1291 3.77742 69.0885 3.74058 69.0459 3.70618C69.2659 3.94472 69.3897 4.25617 69.3933 4.58044V12.3967C69.3933 14.2931 68.8447 15.5752 67.7476 16.2429C66.6749 16.9041 65.4376 17.2512 64.177 17.2445C63.4803 17.2442 62.7884 17.1291 62.1293 16.9038C61.6601 16.7511 61.2287 16.5006 60.8638 16.169C61.2591 16.5888 61.7547 16.9017 62.3042 17.0784C62.9629 17.3037 63.6543 17.4188 64.3506 17.4191C65.6117 17.4259 66.8494 17.0789 67.9225 16.4175C69.0188 15.749 69.5674 14.4669 69.5682 12.5713V4.75747C69.5666 4.58202 69.5304 4.4086 69.4617 4.24713C69.3929 4.08567 69.2929 3.93933 69.1674 3.81652Z" fill="black"/>
<path d="M66.6662 7.79126V7.71342C66.5363 7.5386 66.391 7.37578 66.232 7.22693C66.3942 7.40088 66.5396 7.58984 66.6662 7.79126Z" fill="black"/>
<path d="M78.3562 7.76427C78.287 7.68788 78.2141 7.61513 78.1388 7.5448C78.1534 7.55935 78.168 7.5739 78.1813 7.58967C79.038 8.57508 79.4663 9.95054 79.4663 11.716V12.1574C79.4719 12.2525 79.4583 12.3478 79.4262 12.4375H72.4828C72.5096 13.2653 72.712 13.8797 73.0901 14.2806C73.1527 14.3575 73.2222 14.4285 73.2978 14.4928L73.265 14.4552C72.8901 14.051 72.6877 13.4367 72.6577 12.6121H79.6011C79.6333 12.522 79.6469 12.4263 79.6412 12.3308V11.8906C79.6412 10.1276 79.2129 8.75211 78.3562 7.76427Z" fill="black"/>
<path d="M73.2602 9.20576C73.45 9.01909 73.676 8.87311 73.9243 8.77678C74.1727 8.68045 74.4381 8.63579 74.7043 8.64555C75.2662 8.64555 75.7156 8.78864 76.0524 9.0748L76.0172 9.03115C75.6698 8.65768 75.1751 8.47094 74.5331 8.47094C74.2666 8.46109 74.001 8.50569 73.7525 8.60203C73.5039 8.69836 73.2777 8.84439 73.0878 9.03115C72.7121 9.40624 72.5097 9.94058 72.4805 10.6342H72.6663C72.7206 10.0246 72.9186 9.54851 73.2602 9.20576Z" fill="black"/>
<path d="M77.6203 16.3222C76.7903 16.9366 75.7467 17.2438 74.4893 17.2438C73.1363 17.2438 72.0469 16.8545 71.221 16.0761C72.0663 16.9709 73.214 17.4184 74.6641 17.4184C75.9208 17.4184 76.9644 17.1112 77.7952 16.4968C78.6235 15.91 79.185 15.0551 79.4797 13.9323H79.2562C78.9518 14.9726 78.4065 15.7693 77.6203 16.3222Z" fill="black"/>
<path d="M88.5571 9.67315H86.8325C86.5304 9.68155 86.2353 9.58176 86.0005 9.39184C86.1217 9.53996 86.2755 9.65816 86.4499 9.73724C86.6244 9.81631 86.8147 9.85414 87.0062 9.84776H88.732C88.7207 9.37817 88.6156 8.91555 88.4229 8.48704C88.2302 8.05852 87.9538 7.67274 87.6098 7.35229C88.1986 7.98461 88.5355 8.81005 88.5571 9.67315Z" fill="black"/>
<path d="M84.4241 12.9982C84.0577 12.9432 83.6956 12.8621 83.3408 12.7557C81.9222 12.4089 80.9725 11.995 80.4915 11.514L80.483 11.5067C80.5408 11.5706 80.602 11.6314 80.6664 11.6886C81.1474 12.1688 82.0971 12.5827 83.5157 12.9303C83.8704 13.0372 84.2325 13.1182 84.599 13.1728C85.2467 13.311 85.7066 13.4889 85.9787 13.7063C85.7528 13.4072 85.2346 13.1712 84.4241 12.9982Z" fill="black"/>
<path d="M88.3311 11.8899L88.3019 11.8668C88.7124 12.3276 88.9181 12.9181 88.9189 13.6384C88.9189 14.8146 88.4906 15.7228 87.634 16.363C86.8324 16.9515 85.6288 17.2454 84.0232 17.2446C82.4978 17.2446 81.3606 16.9374 80.6117 16.323C80.5509 16.2745 80.4926 16.2248 80.4368 16.1739C80.5448 16.2907 80.6617 16.3989 80.7865 16.4976C81.5347 17.112 82.6715 17.4192 84.1969 17.4192C85.8025 17.4192 87.0065 17.1253 87.8088 16.5376C88.6647 15.8958 89.093 14.9876 89.0938 13.813C89.0938 13.0119 88.8396 12.3708 88.3311 11.8899Z" fill="black"/>
<path d="M85.347 8.67029C85.0232 8.42778 84.5819 8.30652 84.0232 8.30652C83.4876 8.30652 83.0856 8.38776 82.8184 8.54903C82.6998 8.62665 82.6036 8.73405 82.5397 8.86048C82.4757 8.9869 82.4462 9.12789 82.4541 9.2693C82.4612 9.35679 82.4888 9.4414 82.5345 9.51635C82.5803 9.59131 82.643 9.65453 82.7176 9.70097C82.6619 9.62662 82.6309 9.53673 82.629 9.44391C82.6211 9.3025 82.6506 9.16151 82.7146 9.03509C82.7785 8.90866 82.8746 8.80126 82.9933 8.72364C83.2605 8.56237 83.6625 8.48113 84.1969 8.48113C84.7596 8.48113 85.2013 8.60239 85.5219 8.8449L85.347 8.67029Z" fill="black"/>
<path d="M82.6897 14.6509C82.4744 14.3775 82.3557 14.0407 82.3521 13.693H82.193C82.2273 14.0647 82.4055 14.4084 82.6897 14.6509Z" fill="black"/>
<path d="M92.1702 4.58125V10.3143L92.3451 10.113V4.75829C92.3446 4.58554 92.3088 4.4147 92.2399 4.25624C92.171 4.09779 92.0704 3.95504 91.9443 3.83674C91.9152 3.80885 91.8848 3.78096 91.8544 3.75549C92.0576 3.98276 92.17 4.27665 92.1702 4.58125Z" fill="black"/>
<path d="M95.3134 10.6477L99.1258 6.56018H98.7882L95.1385 10.4731L98.991 17.044H95.6997L95.7956 17.2187H99.1659L95.3134 10.6477Z" fill="black"/>
<path d="M92.6111 12.5165C92.3164 12.6232 92.169 12.7848 92.169 13.0015V17.0478H89.5347V17.2224H92.3439V13.1712C92.3439 12.9578 92.4908 12.7962 92.7848 12.6862C92.9248 12.6353 93.0762 12.6757 93.239 12.8075C93.0082 12.5492 92.7981 12.4486 92.6111 12.5165Z" fill="black"/>
<path d="M99.5982 4.64893H99.1573C99.1573 4.65743 99.1573 4.66472 99.1573 4.67322V4.82384H99.5994L99.5982 4.64893Z" fill="black"/>
<path d="M100.636 4.45557V4.64837H100.027V6.35445H99.7729V6.52906H100.202V4.82297H100.811V4.45557H100.636Z" fill="black"/>
<path d="M101.114 4.67957V6.35534H100.889V6.52995H101.289V5.36345L101.114 4.67957Z" fill="black"/>
<path d="M101.76 5.86028L101.824 5.60928L101.524 4.44885H101.394L101.76 5.86028Z" fill="black"/>
<path d="M102.406 4.67957L101.983 6.35534H101.672L101.717 6.52995H102.158L102.406 5.54655V4.67957Z" fill="black"/>
<path d="M102.804 4.44885V6.3538H102.581V6.52841H102.979V4.44885H102.804Z" fill="black"/>
<g opacity="0.15">
<path d="M32.3787 13.9432C32.0548 13.9432 31.8143 14.0099 31.6573 14.1433C31.5364 14.2355 31.4282 14.3431 31.3354 14.4634L31.1144 14.6841C31.0532 14.7476 30.9779 14.7958 30.8946 14.8248C30.5387 15.02 30.137 15.1168 29.731 15.1049C29.1408 15.1049 28.676 14.9509 28.3368 14.6429C28.6833 15.0277 29.1861 15.2201 29.8452 15.2201C30.2513 15.2323 30.6532 15.1351 31.0087 14.9388C31.0926 14.9107 31.1684 14.8629 31.2298 14.7993L31.4508 14.5786C31.5434 14.4585 31.6512 14.3509 31.7714 14.2585C31.9317 14.1251 32.1722 14.0572 32.4941 14.0572H34.3595C34.3693 14.0196 34.3802 13.982 34.3899 13.9432H32.3787Z" fill="#669DEA"/>
<path d="M26.1129 16.0608C25.2571 15.0988 24.8292 13.7245 24.8292 11.938C24.8292 10.2291 25.2437 8.89529 26.0728 7.93655C26.9287 6.9479 28.1193 6.45358 29.6447 6.45358C31.1394 6.45358 32.3215 6.87111 33.1911 7.70616C32.3126 6.79512 31.092 6.3396 29.5293 6.3396C28.0055 6.3396 26.8153 6.83352 25.9587 7.82136C25.128 8.78333 24.713 10.1172 24.7138 11.8228C24.7138 13.6142 25.1421 14.9884 25.9988 15.9456C26.085 16.045 26.1749 16.1396 26.2672 16.2293C26.2149 16.176 26.1639 16.119 26.1129 16.0608Z" fill="#669DEA"/>
<path d="M31.5522 9.81796C31.4612 9.64056 31.3458 9.47681 31.2093 9.33147C31.1813 9.30106 31.1521 9.27309 31.1217 9.24512C31.2727 9.41809 31.3988 9.61131 31.4963 9.81917L31.5522 9.81796Z" fill="#669DEA"/>
<path d="M34.7237 12.1748C34.7237 11.1328 34.8775 10.2581 35.1852 9.55081C35.4599 8.88948 35.8942 8.30629 36.4495 7.85321C36.9786 7.44167 37.586 7.14176 38.2348 6.97168C38.9214 6.78436 39.6302 6.69015 40.342 6.69157H40.6286V6.57032H40.2254C39.5156 6.56973 38.8089 6.66435 38.1243 6.85163C37.4737 7.02248 36.8644 7.32273 36.3329 7.73438C35.7783 8.18778 35.3444 8.77091 35.0698 9.43198C34.7613 10.1401 34.6075 11.0152 34.6083 12.0572V17.2288H34.7237V12.1748Z" fill="#669DEA"/>
<path d="M44.8177 15.1587C45.21 15.3051 45.6396 15.3192 46.0407 15.1987C46.4561 15.0791 46.8241 14.7788 47.1447 14.2978C47.4653 13.8168 47.6394 13.0432 47.6669 11.977C47.6669 11.0158 47.5131 10.2947 47.2054 9.81373C47.0802 9.61471 46.9309 9.43185 46.7609 9.26929C46.8829 9.40258 46.993 9.5462 47.09 9.69854C47.3977 10.1836 47.5516 10.905 47.5516 11.863C47.5248 12.9316 47.3512 13.7061 47.0305 14.1863C46.7099 14.6664 46.3419 14.9671 45.9265 15.0884C45.525 15.2091 45.0948 15.1946 44.7023 15.0472C44.4528 14.9647 44.2203 14.8378 44.0161 14.6725C44.2385 14.8988 44.514 15.066 44.8177 15.1587Z" fill="#669DEA"/>
<path d="M40.9252 14.4387C40.681 13.612 40.5582 12.7542 40.5609 11.8923C40.5625 11.1609 40.6638 10.4332 40.8621 9.72909C41.033 9.06364 41.3555 8.44658 41.8045 7.926C42.4892 7.13041 43.4496 6.62239 44.4935 6.50366C45.5914 6.35815 46.582 6.44505 47.4654 6.76436C47.9752 6.95979 48.4412 7.25403 48.8365 7.63013C48.4196 7.20048 47.914 6.86658 47.3548 6.65159C46.4715 6.32824 45.4817 6.24134 44.3854 6.39089C43.3416 6.50985 42.3813 7.01783 41.6964 7.81323C41.2473 8.33387 40.9244 8.95087 40.7528 9.61632C40.5549 10.3209 40.454 11.049 40.4528 11.7808C40.4509 12.6426 40.5736 13.5003 40.8171 14.3272C41.0039 15.0169 41.3711 15.6447 41.881 16.146C41.4281 15.663 41.1 15.0769 40.9252 14.4387Z" fill="#669DEA"/>
<path d="M53.8098 15.0194H59.5545V14.9053H53.9167L53.8098 15.0194Z" fill="#669DEA"/>
<path d="M51.0055 8.39325L51.0383 8.42357C50.8268 8.18867 50.713 7.88207 50.7201 7.56628V6.68595H59.3528V6.5647H50.6084V7.44623C50.6033 7.62321 50.636 7.79924 50.7045 7.96255C50.773 8.12587 50.8756 8.2727 51.0055 8.39325Z" fill="#669DEA"/>
<path d="M50.3982 15.2193L56.1368 8.88965H55.9182L50.2841 15.1053V17.2285H50.3982V15.2193Z" fill="#669DEA"/>
<path d="M60.814 16.1015C60.0383 15.1145 59.6505 13.7657 59.6505 12.0552C59.6505 10.3722 60.0383 9.02337 60.814 8.00886C61.6172 6.96767 62.6471 6.44667 63.9037 6.44586C64.5164 6.43311 65.1228 6.57094 65.6696 6.84722C65.9241 6.9985 66.1608 7.17787 66.3752 7.38196C66.1321 7.12989 65.8564 6.91132 65.5554 6.73202C65.0084 6.45645 64.4021 6.31905 63.7895 6.33188C62.5313 6.33188 61.5014 6.85247 60.6998 7.89367C59.9241 8.9098 59.5359 10.259 59.5351 11.9412C59.5351 13.6509 59.9233 14.9997 60.6998 15.9876C60.7952 16.1095 60.9 16.2238 61.0132 16.3295C60.9439 16.2568 60.8771 16.1816 60.814 16.1015Z" fill="#669DEA"/>
<path d="M64.7065 15.2198C65.0357 15.2328 65.3629 15.1625 65.6577 15.0153C65.9524 14.8682 66.2051 14.6491 66.3922 14.3783C66.7663 13.8173 66.9537 13.0024 66.9545 11.9337C66.9545 10.9718 66.7521 10.2107 66.3473 9.65047C66.2765 9.56406 66.1993 9.483 66.1165 9.40796C66.1566 9.4504 66.1955 9.49526 66.238 9.54134C66.6428 10.1024 66.8452 10.8634 66.8452 11.8246C66.8452 12.8941 66.6578 13.7089 66.2829 14.2691C66.0961 14.54 65.8437 14.7592 65.5491 14.9064C65.2546 15.0535 64.9275 15.1238 64.5984 15.1107C64.071 15.1316 63.5561 14.9478 63.1616 14.5978C63.5454 15.0124 64.0604 15.2198 64.7065 15.2198Z" fill="#669DEA"/>
<path d="M66.9546 8.08691V3.51916H68.3184C68.6431 3.51408 68.9573 3.63342 69.1965 3.85262L69.1674 3.82109C69.0457 3.68701 68.897 3.58019 68.731 3.50766C68.565 3.43514 68.3855 3.39856 68.2043 3.40033H66.8392V7.91109C66.8793 7.97535 66.9169 8.02871 66.9546 8.08691Z" fill="#669DEA"/>
<path d="M76.7314 14.143C76.6051 14.2221 76.5014 14.3323 76.4302 14.4631L76.2092 14.6838C76.148 14.7472 76.0727 14.7954 75.9893 14.8244C75.6335 15.0197 75.2317 15.1164 74.8258 15.1045C74.234 15.1045 73.7692 14.9505 73.4316 14.6425C73.7773 15.0273 74.2801 15.2197 74.94 15.2197C75.3461 15.2319 75.748 15.1348 76.1035 14.9384C76.1874 14.9104 76.2632 14.8625 76.3245 14.799L76.5456 14.5783C76.6161 14.447 76.72 14.3366 76.8468 14.2582C77.0651 14.1112 77.326 14.0404 77.5888 14.0569H79.4495C79.4592 14.0193 79.4701 13.9817 79.4798 13.9429H77.4747C77.2116 13.926 76.9503 13.9963 76.7314 14.143Z" fill="#669DEA"/>
<path d="M71.2078 16.0608C70.352 15.0988 69.9241 13.7245 69.9241 11.938C69.9241 10.2291 70.3386 8.89529 71.1678 7.93655C72.0236 6.9479 73.2142 6.45358 74.7396 6.45358C76.2343 6.45358 77.4164 6.87111 78.286 7.70616C77.4083 6.79512 76.1877 6.3396 74.6243 6.3396C73.1004 6.3396 71.9102 6.83352 71.0536 7.82136C70.2229 8.78333 69.8079 10.1172 69.8087 11.8228C69.8087 13.6142 70.237 14.9884 71.0937 15.9456C71.1799 16.045 71.2698 16.1396 71.3621 16.2293C71.3098 16.176 71.2588 16.119 71.2078 16.0608Z" fill="#669DEA"/>
<path d="M76.305 9.32955C76.2722 9.2956 76.2382 9.26286 76.2042 9.23254C76.5167 9.57934 76.6993 10.108 76.7519 10.8186H72.7793C72.7793 10.8562 72.7793 10.8938 72.7732 10.9326H76.8673C76.8131 10.2115 76.6256 9.67715 76.305 9.32955Z" fill="#669DEA"/>
<path d="M88.3312 11.9001C87.796 11.4458 86.8462 11.0448 85.4819 10.6972C85.367 10.6963 85.2526 10.6829 85.1406 10.6572C84.9979 10.6251 84.8572 10.5846 84.7192 10.536C83.7865 10.3395 83.1667 10.1128 82.8598 9.85571C83.1076 10.1597 83.7658 10.4248 84.8346 10.6512C84.9725 10.6986 85.1128 10.7391 85.2548 10.7724C85.3668 10.798 85.4812 10.8115 85.5961 10.8124C86.9547 11.1576 87.9025 11.5561 88.4393 12.008C88.4053 11.9777 88.3688 11.9353 88.3312 11.9001Z" fill="#669DEA"/>
<path d="M85.6362 8.96924L85.8429 9.17567C85.9231 9.3165 86.0249 9.44393 86.1446 9.55331C86.0738 9.47371 86.0114 9.38704 85.9585 9.29467C85.8551 9.18902 85.7432 9.07609 85.6362 8.96924Z" fill="#669DEA"/>
<path d="M82.833 14.8071C82.903 14.8864 82.9821 14.9572 83.0686 15.0181C83.4735 15.2865 84.0083 15.4203 84.673 15.4194C85.105 15.4312 85.533 15.3344 85.9179 15.1381C86.2385 14.9526 86.4037 14.698 86.4037 14.3779C86.4006 14.2761 86.3746 14.1763 86.3274 14.086C86.2803 13.9958 86.2134 13.9173 86.1316 13.8564C86.2317 13.9684 86.2878 14.1127 86.2895 14.2627C86.2895 14.5828 86.128 14.8374 85.8037 15.0241C85.419 15.2195 84.9915 15.3158 84.56 15.3043C83.8913 15.3043 83.3561 15.1709 82.9545 14.9041C82.9121 14.8741 82.8716 14.8417 82.833 14.8071Z" fill="#669DEA"/>
<path d="M80.6324 11.6648C80.1984 11.2024 79.9818 10.6115 79.9826 9.89204C79.9736 9.4118 80.0732 8.9357 80.274 8.49922C80.4748 8.06275 80.7717 7.67713 81.1425 7.37111C81.9441 6.75755 82.9873 6.45036 84.2723 6.44955C85.6625 6.44955 86.7726 6.75674 87.6025 7.37111C87.6559 7.41718 87.7069 7.46326 87.7567 7.51176C87.6717 7.42231 87.5821 7.33731 87.4883 7.25713C86.6584 6.64195 85.5479 6.33476 84.1569 6.33557C82.8736 6.33557 81.8303 6.64276 81.0271 7.25713C80.6552 7.56299 80.3574 7.94883 80.1559 8.38579C79.9545 8.82275 79.8545 9.29953 79.8636 9.78048C79.8636 10.5606 80.1199 11.1887 80.6324 11.6648Z" fill="#669DEA"/>
<path d="M79.7373 13.9375V13.8162H82.3606C82.3606 13.7786 82.3533 13.741 82.3521 13.6949H79.6231V13.8162C79.6231 14.8849 79.9433 15.7211 80.5838 16.325C80.0194 15.7357 79.7373 14.9398 79.7373 13.9375Z" fill="#669DEA"/>
<path d="M92.4591 10.612L95.8695 6.68454H99.0187L99.1256 6.57056H95.7553L92.4591 10.3647V10.612Z" fill="#669DEA"/>
<path d="M89.65 3.55893H91.094C91.4288 3.5545 91.7525 3.67815 91.9989 3.90451C91.9806 3.88511 91.9624 3.86449 91.943 3.84509C91.818 3.71631 91.668 3.61439 91.5022 3.54558C91.3364 3.47676 91.1582 3.44252 90.9787 3.44494H89.5346V17.227H89.6561L89.65 3.55893Z" fill="#669DEA"/>
<path d="M93.9432 13.7378C93.7989 13.4526 93.6095 13.1926 93.3821 12.9678C93.5545 13.1689 93.704 13.3885 93.8279 13.6226L95.7954 17.2287H95.8476L93.9432 13.7378Z" fill="#669DEA"/>
<path d="M99.8883 4.9469H99.7729V6.539H99.8883V4.9469Z" fill="#669DEA"/>
<path d="M99.2714 4.79686C99.2714 4.76837 99.277 4.74016 99.288 4.71385C99.2989 4.68754 99.3149 4.66366 99.3351 4.64357C99.3553 4.62348 99.3793 4.60758 99.4057 4.59679C99.432 4.58599 99.4603 4.58052 99.4888 4.58068H100.811V4.45923H99.3734C99.3159 4.45986 99.261 4.48297 99.2204 4.5236C99.1797 4.56423 99.1566 4.61916 99.156 4.67663V4.82844H99.2775L99.2714 4.79686Z" fill="#669DEA"/>
<path d="M102.049 6.15961L102.461 4.57357H102.979V4.45837H102.345L101.977 5.88072L102.049 6.15961Z" fill="#669DEA"/>
<path d="M101.004 4.79596C101.004 4.76733 101.009 4.73889 101.02 4.7124C101.031 4.6859 101.047 4.66193 101.068 4.64196C101.108 4.60017 101.164 4.57545 101.222 4.57284H101.553L101.522 4.45886H101.105C101.047 4.46305 100.992 4.48801 100.951 4.52919C100.93 4.54893 100.914 4.57269 100.903 4.59899C100.893 4.62528 100.887 4.65354 100.888 4.68197V6.53842H101.002L101.004 4.79596Z" fill="#669DEA"/>
<path d="M102.695 4.97729L102.581 5.43322V6.53908H102.695V4.97729Z" fill="#669DEA"/>
<path d="M101.403 4.97729V5.31196L101.717 6.53908H101.802L101.403 4.97729Z" fill="#669DEA"/>
</g>
</g>
<defs>
<linearGradient id="paint0_linear_6435_122665" x1="2.39228" y1="4.1054" x2="21.2501" y2="22.9934" gradientUnits="userSpaceOnUse">
<stop stop-color="#1661FF"/>
<stop offset="0.86" stop-color="#0E39BA"/>
</linearGradient>
<clipPath id="clip0_6435_122665">
<rect width="150" height="22" fill="white" transform="translate(-0.000305176 0.700684)"/>
</clipPath>
</defs>
</svg>
