<svg width="150" height="23" viewBox="0 0 150 23" fill="none" xmlns="http://www.w3.org/2000/svg">
<path d="M28.9104 8.46924C28.9288 7.7414 29.0744 7.02239 29.3408 6.34474C29.5978 5.70512 29.9956 5.1315 30.5045 4.66639C31.0335 4.18665 31.6584 3.82459 32.3378 3.60414C33.1507 3.3302 34.004 3.19552 34.8618 3.20579C35.818 3.17741 36.7712 3.32689 37.6728 3.64663C38.32 3.88836 38.9165 4.2486 39.4317 4.70888C39.8266 5.06035 40.1403 5.4935 40.3509 5.97826C40.5076 6.33117 40.6114 6.70519 40.6591 7.08832C40.6673 7.15855 40.6579 7.2297 40.632 7.29548C40.606 7.36125 40.5643 7.41962 40.5104 7.46541C40.4596 7.51432 40.3997 7.55266 40.334 7.57819C40.2683 7.60372 40.1982 7.61594 40.1278 7.61413H38.5336C38.4096 7.62014 38.2874 7.58256 38.1882 7.5079C38.1111 7.44546 38.0478 7.36769 38.0023 7.27952C38.0023 7.23172 37.9066 7.11487 37.795 6.9396C37.6487 6.73427 37.4691 6.55476 37.2636 6.40848C36.9878 6.18186 36.6798 5.99749 36.3497 5.86142C35.878 5.70018 35.3813 5.62463 34.8831 5.63834C34.0184 5.59148 33.1692 5.88077 32.5131 6.44565C32.2175 6.71523 31.9813 7.04331 31.8194 7.40906C31.6574 7.7748 31.5734 8.1702 31.5726 8.57015C31.5726 9.0641 31.5301 9.59522 31.5301 10.1635C31.5301 10.7318 31.5301 11.263 31.5726 11.7569C31.5499 12.1945 31.6223 12.6318 31.7846 13.0389C31.947 13.4459 32.1955 13.8131 32.5131 14.1151C33.1813 14.6364 34.0154 14.8986 34.8618 14.8534C35.3096 14.8576 35.7562 14.8041 36.1903 14.694C36.5794 14.5976 36.9423 14.4162 37.253 14.1629C37.5581 13.9251 37.7962 13.6121 37.9438 13.2547C38.1202 12.8033 38.2033 12.3209 38.1882 11.8366V11.7038H35.5314C35.3912 11.7018 35.2575 11.6445 35.1594 11.5444C35.1093 11.4966 35.0697 11.4388 35.0432 11.3748C35.0167 11.3108 35.0038 11.2419 35.0053 11.1727V9.75987C35.0038 9.6906 35.0167 9.62178 35.0432 9.55777C35.0697 9.49376 35.1093 9.43598 35.1594 9.38808C35.2584 9.28996 35.3919 9.23464 35.5314 9.23406H40.3137C40.3837 9.23365 40.453 9.24705 40.5177 9.27348C40.5825 9.29991 40.6414 9.33886 40.691 9.38808C40.7892 9.48701 40.8445 9.62054 40.8451 9.75987V11.9162C40.8537 12.6534 40.7277 13.386 40.4732 14.0779C40.2327 14.7221 39.8515 15.3046 39.3573 15.7828C38.8218 16.2799 38.1883 16.6598 37.4974 16.8982C35.8067 17.4224 33.9967 17.4224 32.3059 16.8982C31.6278 16.6673 31.0078 16.2922 30.4886 15.7988C29.9991 15.3218 29.62 14.7435 29.378 14.1045C29.1018 13.419 28.9437 12.6917 28.9104 11.9534C28.9104 11.7091 28.9104 11.4223 28.8838 11.1302C28.8572 10.8381 28.8838 10.5247 28.8838 10.2113C28.8838 9.89796 28.8838 9.59522 28.8838 9.29248C28.8838 8.98974 28.9104 8.71887 28.9104 8.46924Z" fill="#464A4F"/>
<path d="M41.7219 12.0119C41.7177 11.3094 41.8308 10.6111 42.0567 9.94584C42.2634 9.32845 42.5902 8.75804 43.0185 8.26749C43.4355 7.78671 43.9523 7.40247 44.5329 7.14151C45.157 6.85945 45.8354 6.71802 46.5203 6.72723C47.2039 6.71921 47.8813 6.85682 48.5076 7.13088C49.0808 7.3786 49.5978 7.73997 50.0273 8.19313C50.4512 8.65569 50.7798 9.19711 50.9945 9.78651C51.2257 10.3992 51.3428 11.049 51.3399 11.7039V12.5855C51.3399 12.7264 51.2839 12.8615 51.1842 12.9611C51.0846 13.0607 50.9494 13.1167 50.8085 13.1167H44.2672C44.2625 13.3918 44.3264 13.6638 44.4532 13.908C44.578 14.1333 44.7481 14.3304 44.9527 14.487C45.1729 14.6455 45.4193 14.7642 45.6807 14.8375C45.9535 14.9164 46.2362 14.9558 46.5203 14.9544C46.8649 14.9644 47.209 14.9214 47.5405 14.8269C47.772 14.757 47.9896 14.6474 48.1835 14.5029C48.2939 14.4191 48.4133 14.3478 48.5395 14.2904C48.6579 14.2448 48.7847 14.2248 48.9115 14.232H50.5056C50.5755 14.2316 50.6448 14.245 50.7096 14.2714C50.7743 14.2979 50.8332 14.3368 50.8829 14.386C50.9349 14.4321 50.9755 14.4898 51.0013 14.5543C51.0272 14.6189 51.0375 14.6886 51.0317 14.7578C50.9796 15.0156 50.8646 15.2564 50.6969 15.4589C50.4659 15.7872 50.178 16.0714 49.8467 16.2981C49.4176 16.6028 48.947 16.8443 48.4492 17.0151C47.8275 17.2216 47.1752 17.3204 46.5203 17.3072C45.8387 17.3165 45.1624 17.1864 44.5329 16.9248C43.9555 16.6874 43.4382 16.3246 43.0185 15.8626C42.5904 15.3739 42.2635 14.8053 42.0567 14.1895C41.8228 13.4878 41.7096 12.7515 41.7219 12.0119ZM46.5043 9.08011C46.1742 9.07069 45.8456 9.12665 45.5372 9.24476C45.287 9.34415 45.058 9.49014 44.8624 9.67497C44.6853 9.84137 44.5411 10.0396 44.4373 10.2592C44.3467 10.4567 44.2841 10.6659 44.2513 10.8806H48.6776C48.6599 10.6709 48.6243 10.463 48.5714 10.2592C48.4952 10.0416 48.3739 9.84246 48.2154 9.67497C48.0339 9.48773 47.8147 9.3411 47.5724 9.24476C47.236 9.12114 46.8784 9.06518 46.5203 9.08011H46.5043Z" fill="#464A4F"/>
<path d="M55.3783 13.4236C55.359 13.7754 55.475 14.1212 55.7024 14.3903C55.8684 14.5292 56.061 14.6328 56.2684 14.6949C56.4757 14.757 56.6936 14.7763 56.9087 14.7514H58.0989C58.2399 14.7514 58.375 14.8074 58.4747 14.907C58.5743 15.0066 58.6303 15.1417 58.6303 15.2826V16.5732C58.6283 16.7133 58.571 16.8469 58.4709 16.945C58.4232 16.9953 58.3654 17.035 58.3013 17.0616C58.2372 17.0881 58.1683 17.1009 58.0989 17.099H56.6536C55.6317 17.1686 54.6208 16.852 53.8214 16.212C53.4686 15.8553 53.1968 15.4268 53.0244 14.9558C52.852 14.4847 52.7831 13.9821 52.8224 13.482V9.27023H52.0784C52.0091 9.27209 51.9401 9.25933 51.876 9.2328C51.812 9.20626 51.7542 9.16653 51.7065 9.1162C51.6064 9.01814 51.5491 8.88451 51.5471 8.74442V7.45379C51.5471 7.31292 51.603 7.17783 51.7027 7.07822C51.8023 6.97862 51.9375 6.92266 52.0784 6.92266H52.8224V4.2033C52.8244 4.06321 52.8817 3.92958 52.9818 3.83152C53.0808 3.73339 53.2143 3.67808 53.3537 3.67749H54.8416C54.9825 3.67749 55.1177 3.73345 55.2173 3.83305C55.317 3.93266 55.373 4.06775 55.373 4.20861V6.92266H57.9023C58.0425 6.92466 58.1762 6.98193 58.2743 7.082C58.3725 7.18093 58.4278 7.31445 58.4284 7.45379V8.74442C58.4278 8.88375 58.3725 9.01728 58.2743 9.1162C58.2264 9.16627 58.1686 9.20582 58.1045 9.23234C58.0405 9.25885 57.9716 9.27176 57.9023 9.27023H55.373L55.3783 13.4236Z" fill="#464A4F"/>
<path d="M66.7923 3.93247C66.8754 3.92556 66.959 3.93616 67.0377 3.96361C67.1164 3.99106 67.1885 4.03474 67.2493 4.09181C67.3717 4.2347 67.4639 4.40093 67.5203 4.58045L72.1858 16.4829C72.1919 16.527 72.1919 16.5717 72.1858 16.6157C72.1858 16.7566 72.1298 16.8917 72.0301 16.9913C71.9305 17.0909 71.7953 17.1469 71.6544 17.1469H70.2834C70.0922 17.1659 69.9012 17.1086 69.7521 16.9875C69.6626 16.8981 69.5921 16.7915 69.5448 16.6742L68.7265 14.5497H62.7379L61.9196 16.6742C61.8702 16.7917 61.7979 16.8982 61.707 16.9875C61.6336 17.0483 61.5488 17.0937 61.4575 17.121C61.3662 17.1484 61.2704 17.1572 61.1756 17.1469H59.8047C59.7375 17.1479 59.6708 17.1353 59.6087 17.1097C59.5465 17.0841 59.4903 17.0462 59.4433 16.9981C59.3946 16.9515 59.3558 16.8954 59.3293 16.8333C59.3028 16.7713 59.2892 16.7045 59.2892 16.637C59.2802 16.5932 59.2802 16.548 59.2892 16.5042L63.9813 4.58045C64.0361 4.40136 64.1264 4.23516 64.247 4.09181C64.3081 4.03528 64.3802 3.99196 64.4589 3.96454C64.5375 3.93713 64.6209 3.92621 64.704 3.93247H66.7923ZM67.855 12.133L65.7295 6.70494L63.6359 12.133H67.855Z" fill="#464A4F"/>
<path d="M78.5782 17.2966C78.2206 17.3001 77.8638 17.2609 77.5155 17.1797C77.2244 17.1123 76.9412 17.0144 76.6706 16.8876C76.4514 16.7838 76.2446 16.6555 76.0542 16.5052C75.9071 16.3896 75.7703 16.2617 75.645 16.1228V19.6707C75.645 19.8116 75.589 19.9467 75.4894 20.0463C75.3897 20.1459 75.2546 20.2018 75.1136 20.2018H73.6258C73.4864 20.2013 73.3528 20.1459 73.2538 20.0478C73.2046 19.9982 73.1656 19.9393 73.1392 19.8746C73.1127 19.8099 73.0993 19.7406 73.0997 19.6707V7.45485C73.0979 7.38554 73.1106 7.31661 73.1372 7.25256C73.1637 7.1885 73.2035 7.13075 73.2538 7.08306C73.3519 6.98299 73.4856 6.92572 73.6258 6.92372H75.1136C75.2538 6.92572 75.3875 6.98299 75.4856 7.08306C75.5367 7.13049 75.5772 7.18807 75.6047 7.2521C75.6321 7.31613 75.6459 7.38519 75.645 7.45485V7.90099C75.7691 7.76259 75.9061 7.63632 76.0542 7.5239C76.2446 7.37362 76.4514 7.24534 76.6706 7.14149C76.9409 7.01288 77.2241 6.91318 77.5155 6.84406C77.8642 6.76552 78.2207 6.72633 78.5782 6.72721C79.1912 6.71857 79.7981 6.84934 80.353 7.10962C80.8672 7.35496 81.3263 7.70186 81.7027 8.12938C82.0758 8.559 82.3724 9.04944 82.5795 9.57935C82.7925 10.1333 82.9145 10.718 82.9408 11.3108C82.9408 11.5073 82.9408 11.7357 82.9408 11.996C82.9408 12.2562 82.9408 12.4846 82.9408 12.6811C82.9151 13.274 82.793 13.8588 82.5795 14.4126C82.3738 14.9507 82.0752 15.4487 81.6974 15.8838C81.3208 16.3097 80.8616 16.6548 80.3477 16.8982C79.7957 17.1632 79.1906 17.2994 78.5782 17.2966ZM80.4008 12.559C80.438 12.1952 80.438 11.8286 80.4008 11.4648C80.3972 11.1234 80.3258 10.7862 80.1908 10.4726C80.0558 10.1589 79.8599 9.8752 79.6144 9.63777C79.163 9.27717 78.5979 9.0889 78.0203 9.10665C77.429 9.08796 76.8518 9.28848 76.3996 9.66964C75.9449 10.0913 75.6756 10.6755 75.6503 11.2949C75.6199 11.5415 75.6057 11.7899 75.6078 12.0385C75.6055 12.287 75.6197 12.5354 75.6503 12.782C75.6738 13.3869 75.9367 13.9578 76.3811 14.3691C76.8255 14.7804 77.4151 14.9986 78.0203 14.9756C78.6012 14.9858 79.1667 14.788 79.6144 14.4179C79.8632 14.1764 80.061 13.8874 80.1961 13.5681C80.3312 13.2488 80.4008 12.9056 80.4008 12.559Z" fill="#464A4F"/>
<path d="M89.5193 17.2967C89.1528 17.3019 88.787 17.2626 88.43 17.1798C88.1407 17.1117 87.8594 17.0138 87.5904 16.8877C87.3705 16.785 87.1636 16.6567 86.974 16.5053C86.8266 16.3882 86.6881 16.2604 86.5595 16.1229V19.6708C86.5599 19.7407 86.5465 19.81 86.5201 19.8747C86.4936 19.9394 86.4547 19.9982 86.4054 20.0479C86.3064 20.146 86.1729 20.2013 86.0335 20.2019H84.5456C84.4047 20.2019 84.2695 20.1459 84.1699 20.0463C84.0702 19.9467 84.0142 19.8116 84.0142 19.6708V7.45491C84.0142 7.31405 84.0702 7.17896 84.1699 7.07935C84.2695 6.97975 84.4047 6.92379 84.5456 6.92379H86.0335C86.1736 6.92578 86.3073 6.98305 86.4054 7.08313C86.5036 7.18205 86.5589 7.31558 86.5595 7.45491V7.90106C86.6869 7.764 86.8255 7.63786 86.974 7.52396C87.1636 7.37256 87.3705 7.24419 87.5904 7.14155C87.8575 7.01389 88.137 6.91421 88.4247 6.84412C88.7821 6.76391 89.1476 6.72471 89.514 6.72727C90.1253 6.71795 90.7306 6.84876 91.2835 7.10968C91.7985 7.35362 92.2579 7.70071 92.6332 8.12944C93.0119 8.55691 93.3123 9.04773 93.5206 9.57941C93.7361 10.1326 93.8582 10.7177 93.8819 11.3109C93.8819 11.5074 93.8819 11.7358 93.8819 11.996C93.8819 12.2563 93.8819 12.4847 93.8819 12.6812C93.8591 13.2745 93.737 13.8597 93.5206 14.4126C93.3168 14.9518 93.0181 15.4501 92.6385 15.8839C92.263 16.311 91.8036 16.6563 91.2888 16.8983C90.7372 17.1647 90.1319 17.301 89.5193 17.2967ZM91.3366 12.559C91.3791 12.1956 91.3791 11.8284 91.3366 11.4649C91.3332 11.1235 91.2619 10.7861 91.1269 10.4724C90.9919 10.1588 90.7959 9.87508 90.5502 9.63783C90.0894 9.27167 89.5123 9.08317 88.9242 9.10671C88.3418 9.09359 87.7748 9.29383 87.33 9.6697C86.8739 10.0908 86.6027 10.6749 86.5755 11.2949C86.5471 11.5417 86.5347 11.7901 86.5383 12.0385C86.5346 12.2869 86.547 12.5353 86.5755 12.7821C86.6109 13.3909 86.8814 13.9621 87.33 14.3755C87.768 14.7658 88.3374 14.9764 88.9242 14.965C89.5177 14.9766 90.0954 14.7728 90.5502 14.3914C90.7958 14.153 90.9917 13.8683 91.1267 13.5538C91.2617 13.2393 91.333 12.9012 91.3366 12.559Z" fill="#464A4F"/>
<path d="M24.2874 10.2057L17.7515 3.68351C17.7018 3.63044 17.6417 3.58814 17.575 3.55922C17.5083 3.5303 17.4363 3.51538 17.3636 3.51538C17.2908 3.51538 17.2189 3.5303 17.1522 3.55922C17.0854 3.58814 17.0254 3.63044 16.9757 3.68351L15.7004 4.96352L20.9397 10.2057C20.9937 10.2555 21.0367 10.3158 21.0662 10.383C21.0956 10.4502 21.1108 10.5227 21.1108 10.5961C21.1108 10.6694 21.0956 10.742 21.0662 10.8092C21.0367 10.8764 20.9937 10.9367 20.9397 10.9865L15.5463 16.3827L16.8269 17.6627C16.8766 17.7166 16.937 17.7596 17.0043 17.7891C17.0715 17.8185 17.1441 17.8337 17.2174 17.8337C17.2908 17.8337 17.3634 17.8185 17.4306 17.7891C17.4979 17.7596 17.5582 17.7166 17.608 17.6627L24.2874 10.9865C24.3414 10.9367 24.3844 10.8764 24.4139 10.8092C24.4433 10.742 24.4585 10.6694 24.4585 10.5961C24.4585 10.5227 24.4433 10.4502 24.4139 10.383C24.3844 10.3158 24.3414 10.2555 24.2874 10.2057Z" fill="#2CB5B4"/>
<path d="M13.1657 4.1566L12.6928 3.6839C12.643 3.62913 12.5823 3.58537 12.5146 3.55542C12.4468 3.52548 12.3736 3.51001 12.2996 3.51001C12.2255 3.51001 12.1523 3.52548 12.0846 3.55542C12.0169 3.58537 11.9561 3.62913 11.9063 3.6839L10.6364 4.96391L11.4972 5.82964L13.1657 7.49737L14.8395 5.82964L13.1657 4.1566Z" fill="#8CBF44"/>
<path d="M13.0116 13.8279L11.3378 15.5009L10.4769 16.3613L11.7629 17.6414C11.8126 17.6944 11.8726 17.7367 11.9394 17.7656C12.0061 17.7946 12.078 17.8095 12.1508 17.8095C12.2235 17.8095 12.2954 17.7946 12.3622 17.7656C12.4289 17.7367 12.489 17.6944 12.5387 17.6414L13.0116 17.1687L14.6854 15.5009L13.0116 13.8279Z" fill="#8CBF44"/>
<path d="M15.881 10.2058C15.9833 10.3101 16.0405 10.4502 16.0405 10.5962C16.0405 10.7422 15.9833 10.8823 15.881 10.9866L13.0116 13.8281L14.6854 15.5011L19.2234 10.9653C19.3256 10.8611 19.3829 10.7209 19.3829 10.5749C19.3829 10.429 19.3256 10.2888 19.2234 10.1846L14.8395 5.82935L13.1657 7.49708L15.881 10.2058Z" fill="#B8CE2C"/>
<path d="M5.23224 10.3646L9.78083 5.82884L8.10167 4.1558L7.65532 3.6831C7.55102 3.58092 7.4108 3.52368 7.26476 3.52368C7.11871 3.52368 6.97849 3.58092 6.87419 3.6831L0.168209 10.3646C0.115118 10.4143 0.0727962 10.4744 0.0438626 10.5411C0.014929 10.6078 0 10.6797 0 10.7524C0 10.8251 0.014929 10.897 0.0438626 10.9637C0.0727962 11.0304 0.115118 11.0904 0.168209 11.1401L6.69352 17.6623C6.74323 17.7154 6.8033 17.7577 6.87003 17.7866C6.93675 17.8155 7.0087 17.8304 7.08143 17.8304C7.15416 17.8304 7.22611 17.8155 7.29283 17.7866C7.35956 17.7577 7.41963 17.7154 7.46934 17.6623L7.94226 17.1896L9.6161 15.5219L5.23224 11.1401C5.17915 11.0904 5.13682 11.0304 5.10789 10.9637C5.07896 10.897 5.06403 10.8251 5.06403 10.7524C5.06403 10.6797 5.07896 10.6078 5.10789 10.5411C5.13682 10.4744 5.17915 10.4143 5.23224 10.3646Z" fill="#87EFEF"/>
<path d="M10.3122 10.3651L12.3155 8.3575L10.6363 6.68977L9.78082 5.82935L5.24286 10.3651C5.18976 10.4148 5.14744 10.4749 5.11851 10.5416C5.08958 10.6083 5.07465 10.6802 5.07465 10.7529C5.07465 10.8256 5.08958 10.8975 5.11851 10.9642C5.14744 11.0309 5.18976 11.0909 5.24286 11.1406L9.62672 15.5224L10.4876 14.6619L12.1614 12.9889L10.3122 11.1406C10.2591 11.0909 10.2168 11.0309 10.1879 10.9642C10.1589 10.8975 10.144 10.8256 10.144 10.7529C10.144 10.6802 10.1589 10.6083 10.1879 10.5416C10.2168 10.4749 10.2591 10.4148 10.3122 10.3651Z" fill="#8CBF44"/>
<path d="M10.3122 11.1408L12.1614 12.9891L14.1647 10.9867C14.2669 10.8825 14.3242 10.7423 14.3242 10.5964C14.3242 10.4504 14.2669 10.3102 14.1647 10.206L12.3049 8.35767L10.3122 10.3653C10.2591 10.415 10.2168 10.475 10.1878 10.5417C10.1589 10.6084 10.144 10.6803 10.144 10.753C10.144 10.8257 10.1589 10.8976 10.1878 10.9643C10.2168 11.031 10.2591 11.0911 10.3122 11.1408Z" fill="#B8CE2C"/>
<path d="M13.1657 4.1566L12.6928 3.6839C12.643 3.62913 12.5823 3.58537 12.5146 3.55542C12.4468 3.52548 12.3736 3.51001 12.2996 3.51001C12.2255 3.51001 12.1523 3.52548 12.0846 3.55542C12.0169 3.58537 11.9561 3.62913 11.9063 3.6839L10.6364 4.96391L11.4972 5.82964L13.1657 7.49737L14.8395 5.82964L13.1657 4.1566Z" fill="#41E3E2"/>
<path d="M13.0116 13.8279L11.3378 15.5009L10.4769 16.3613L11.7629 17.6414C11.8126 17.6944 11.8726 17.7367 11.9394 17.7656C12.0061 17.7946 12.078 17.8095 12.1508 17.8095C12.2235 17.8095 12.2954 17.7946 12.3622 17.7656C12.4289 17.7367 12.489 17.6944 12.5387 17.6414L13.0116 17.1687L14.6854 15.5009L13.0116 13.8279Z" fill="#41E3E2"/>
<path d="M15.881 10.2058C15.9833 10.3101 16.0405 10.4502 16.0405 10.5962C16.0405 10.7422 15.9833 10.8823 15.881 10.9866L13.0116 13.8281L14.6854 15.5011L19.2234 10.9653C19.3256 10.8611 19.3829 10.7209 19.3829 10.5749C19.3829 10.429 19.3256 10.2888 19.2234 10.1846L14.8395 5.82935L13.1657 7.49708L15.881 10.2058Z" fill="#4FBCC1"/>
<path d="M5.23224 10.3646L9.78083 5.82884L8.10167 4.1558L7.65532 3.6831C7.55102 3.58092 7.4108 3.52368 7.26476 3.52368C7.11871 3.52368 6.97849 3.58092 6.87419 3.6831L0.168209 10.3646C0.115118 10.4143 0.0727962 10.4744 0.0438626 10.5411C0.014929 10.6078 0 10.6797 0 10.7524C0 10.8251 0.014929 10.897 0.0438626 10.9637C0.0727962 11.0304 0.115118 11.0904 0.168209 11.1401L6.69352 17.6623C6.74323 17.7154 6.8033 17.7577 6.87003 17.7866C6.93675 17.8155 7.0087 17.8304 7.08143 17.8304C7.15416 17.8304 7.22611 17.8155 7.29283 17.7866C7.35956 17.7577 7.41963 17.7154 7.46934 17.6623L7.94226 17.1896L9.6161 15.5219L5.23224 11.1401C5.17915 11.0904 5.13682 11.0304 5.10789 10.9637C5.07896 10.897 5.06403 10.8251 5.06403 10.7524C5.06403 10.6797 5.07896 10.6078 5.10789 10.5411C5.13682 10.4744 5.17915 10.4143 5.23224 10.3646Z" fill="#87EFEF"/>
<path d="M10.3122 10.3651L12.3155 8.3575L10.6363 6.68977L9.78082 5.82935L5.24286 10.3651C5.18976 10.4148 5.14744 10.4749 5.11851 10.5416C5.08958 10.6083 5.07465 10.6802 5.07465 10.7529C5.07465 10.8256 5.08958 10.8975 5.11851 10.9642C5.14744 11.0309 5.18976 11.0909 5.24286 11.1406L9.62672 15.5224L10.4876 14.6619L12.1614 12.9889L10.3122 11.1406C10.2591 11.0909 10.2168 11.0309 10.1879 10.9642C10.1589 10.8975 10.144 10.8256 10.144 10.7529C10.144 10.6802 10.1589 10.6083 10.1879 10.5416C10.2168 10.4749 10.2591 10.4148 10.3122 10.3651Z" fill="#41E3E2"/>
<path d="M10.3122 11.1408L12.1614 12.9891L14.1647 10.9867C14.2669 10.8825 14.3242 10.7423 14.3242 10.5964C14.3242 10.4504 14.2669 10.3102 14.1647 10.206L12.3049 8.35767L10.3122 10.3653C10.2591 10.415 10.2168 10.475 10.1878 10.5417C10.1589 10.6084 10.144 10.6803 10.144 10.753C10.144 10.8257 10.1589 10.8976 10.1878 10.9643C10.2168 11.031 10.2591 11.0911 10.3122 11.1408Z" fill="#4FBCC1"/>
</svg>
