<svg width="150" height="23" viewBox="0 0 150 23" fill="none" xmlns="http://www.w3.org/2000/svg">
<g clip-path="url(#clip0_6435_122616)">
<path fill-rule="evenodd" clip-rule="evenodd" d="M136.52 4.17687C136.52 3.37808 137.169 2.72266 137.959 2.72266H148.571C149.362 2.72266 150.01 3.37808 150.01 4.17687V9.44073C150.01 10.2395 149.362 10.8949 148.571 10.8949H147.466C146.676 10.8949 145.47 11.2124 144.77 11.6016L140.919 13.7624C140.23 14.1516 139.936 13.8751 140.26 13.148L140.706 12.1648C141.03 11.4377 140.655 10.8437 139.865 10.8437H137.949C137.159 10.8437 136.51 10.1883 136.51 9.38952V4.17687" fill="#FD810B"/>
<path fill-rule="evenodd" clip-rule="evenodd" d="M136.53 17.8691C136.611 17.8691 136.682 17.8588 136.743 17.8281C136.794 17.7974 136.824 17.7462 136.824 17.6438C136.824 17.5926 136.814 17.5516 136.794 17.5311C136.774 17.5004 136.743 17.4799 136.713 17.4697C136.682 17.4594 136.642 17.4492 136.601 17.4389C136.561 17.4389 136.52 17.4287 136.49 17.4287H136.236V17.8691H136.53ZM136.53 17.1215C136.753 17.1215 136.926 17.1727 137.037 17.2649C137.149 17.357 137.209 17.5004 137.209 17.6745C137.209 17.8281 137.169 17.9408 137.088 18.0227C137.007 18.1046 136.905 18.1558 136.784 18.1661L137.22 18.8932H136.794L136.378 18.1763H136.236V18.8932H135.851V17.1215H136.53ZM135.436 18.463C135.497 18.6064 135.568 18.7293 135.669 18.842C135.77 18.9444 135.892 19.0365 136.024 19.098C136.166 19.1594 136.318 19.1902 136.48 19.1902C136.642 19.1902 136.794 19.1594 136.936 19.098C137.078 19.0365 137.199 18.9546 137.291 18.842C137.392 18.7396 137.473 18.6064 137.524 18.463C137.584 18.3197 137.605 18.1661 137.605 18.0124C137.605 17.8486 137.574 17.7052 137.524 17.5618C137.463 17.4185 137.392 17.2956 137.291 17.1829C137.189 17.0805 137.068 16.9883 136.926 16.9269C136.784 16.8655 136.632 16.8347 136.47 16.8347C136.307 16.8347 136.155 16.8655 136.014 16.9269C135.872 16.9883 135.75 17.0703 135.649 17.1829C135.547 17.2853 135.466 17.4185 135.416 17.5618C135.355 17.7052 135.334 17.8588 135.334 18.0124C135.345 18.1763 135.375 18.3197 135.436 18.463ZM134.98 17.3673C135.061 17.1624 135.182 16.9883 135.324 16.845C135.466 16.6914 135.639 16.5787 135.841 16.4968C136.034 16.4149 136.247 16.3636 136.48 16.3636C136.703 16.3636 136.916 16.4046 137.118 16.4865C137.311 16.5685 137.493 16.6914 137.635 16.8347C137.787 16.9883 137.899 17.1624 137.98 17.357C138.061 17.5516 138.111 17.7667 138.111 18.0022C138.111 18.2377 138.071 18.4426 137.99 18.6474C137.909 18.8522 137.787 19.0161 137.645 19.1697C137.493 19.313 137.321 19.4359 137.128 19.5179C136.936 19.5998 136.723 19.6408 136.49 19.6408C136.267 19.6408 136.054 19.5998 135.851 19.5179C135.649 19.4359 135.476 19.3233 135.334 19.1697C135.182 19.0263 135.071 18.8522 134.98 18.6474C134.899 18.4528 134.848 18.2377 134.848 18.0022C134.858 17.7871 134.899 17.5721 134.98 17.3673Z" fill="#2D284D"/>
<path fill-rule="evenodd" clip-rule="evenodd" d="M131.159 13.0865H128.818C128.645 13.0865 128.584 12.9738 128.584 12.8509L128.605 12.5437C128.645 11.919 129.233 11.4582 130.003 11.4582C130.753 11.4582 131.351 11.9088 131.402 12.5232L131.422 12.8305C131.422 12.9738 131.372 13.0865 131.159 13.0865ZM129.912 8.97986C127.378 8.97986 125.574 10.8232 125.574 12.9329V15.7287C125.574 18.0738 127.297 19.7021 129.912 19.7021C131.331 19.7021 132.355 19.2003 133.084 18.4835C133.429 18.1353 133.703 17.7256 133.946 17.316C134.078 17.1009 134.007 16.8552 133.885 16.7937L131.757 15.7082C131.625 15.6467 131.493 15.6877 131.432 15.8823C131.139 16.6401 130.642 16.9883 129.912 16.9883C129.122 16.9883 128.554 16.4455 128.554 15.7491V15.2678C128.554 15.1142 128.615 15.0323 128.807 15.0323H133.986C134.118 15.0323 134.199 14.9708 134.199 14.8172V12.9329C134.209 10.8437 132.426 8.97986 129.912 8.97986Z" fill="#2D284D"/>
<path fill-rule="evenodd" clip-rule="evenodd" d="M120.638 11.6528C121.307 11.6528 121.794 12.083 122.159 12.9534C122.22 13.1071 122.331 13.148 122.483 13.0866L124.591 12.1342C124.723 12.0727 124.764 11.9396 124.703 11.7655C124.51 11.3149 124.297 10.895 124.013 10.5468C123.304 9.59441 122.25 9.05164 120.618 9.05164C117.953 9.05164 116.341 10.6799 116.341 13.0251V15.6673C116.341 18.0125 117.953 19.6203 120.618 19.6203C122.118 19.6203 123.111 19.1697 123.821 18.3607C124.186 17.951 124.47 17.4492 124.703 16.886C124.764 16.7119 124.723 16.5992 124.591 16.5378L122.483 15.5649C122.331 15.5034 122.23 15.5444 122.159 15.698C121.794 16.5685 121.297 17.0191 120.638 17.0191C119.848 17.0191 119.331 16.4559 119.331 15.7595V12.9125C119.321 12.2161 119.838 11.6528 120.638 11.6528Z" fill="#2D284D"/>
<path fill-rule="evenodd" clip-rule="evenodd" d="M114.446 9.28711H111.892C111.74 9.28711 111.679 9.34855 111.679 9.50217V19.1594C111.679 19.313 111.74 19.3745 111.892 19.3745H114.446C114.568 19.3745 114.639 19.313 114.639 19.1594V9.50217C114.639 9.34855 114.547 9.28711 114.446 9.28711Z" fill="#2D284D"/>
<path fill-rule="evenodd" clip-rule="evenodd" d="M113.149 5.02686C112.318 5.02686 111.639 5.713 111.639 6.55276C111.639 7.39252 112.318 8.07866 113.149 8.07866C113.98 8.07866 114.659 7.39252 114.659 6.55276C114.659 5.713 113.99 5.02686 113.149 5.02686Z" fill="#2D284D"/>
<path fill-rule="evenodd" clip-rule="evenodd" d="M110.331 9.28711H107.605C107.493 9.28711 107.412 9.34855 107.372 9.46121L105.76 14.1311C105.679 14.3666 105.547 14.9299 105.507 15.2166H105.446C105.405 14.9299 105.294 14.4178 105.193 14.1311L103.52 9.44072C103.48 9.32807 103.419 9.28711 103.307 9.28711H100.581C100.388 9.28711 100.328 9.42024 100.388 9.59434L104.23 19.2311C104.27 19.3335 104.351 19.3847 104.443 19.3847H106.439C106.551 19.3847 106.632 19.3437 106.672 19.2311L110.534 9.59434C110.595 9.42024 110.534 9.28711 110.331 9.28711Z" fill="#2D284D"/>
<path fill-rule="evenodd" clip-rule="evenodd" d="M96.2534 15.6263C96.2534 16.3431 95.6757 16.8859 94.9257 16.8859C94.1554 16.8859 93.6182 16.3431 93.6182 15.6263V13.0251C93.6182 12.3287 94.1554 11.8064 94.9257 11.8064C95.6959 11.8064 96.2534 12.3287 96.2534 13.0251V15.6263ZM99 5.70276H96.4662C96.3648 5.70276 96.2534 5.7642 96.2534 5.91782V8.9389C96.2534 9.26662 96.3142 9.89131 96.3142 9.89131C95.8885 9.50216 95.179 9.2871 94.6621 9.2871C92.3209 9.2871 90.6284 10.8744 90.6284 13.2401V15.4317C90.6284 17.951 92.0878 19.3847 94.7128 19.3847C95.3108 19.3847 96.0203 19.1901 96.4763 18.801C96.6081 18.6883 96.7601 18.7293 96.7601 18.9034V19.2311C96.7601 19.313 96.8209 19.3847 96.9324 19.3847H99.0101C99.1419 19.3847 99.223 19.3232 99.223 19.1696V5.91782C99.2128 5.77445 99.1317 5.70276 99 5.70276Z" fill="#2D284D"/>
<path fill-rule="evenodd" clip-rule="evenodd" d="M85.0439 14.7148H83.7365C83.5236 14.7148 83.4324 14.5817 83.4831 14.4588L83.929 12.6973C84.1419 11.8985 84.3142 10.9359 84.3547 10.3726H84.4459C84.4865 10.9359 84.6182 11.8883 84.8311 12.6973L85.2872 14.4588C85.3277 14.5817 85.2365 14.7148 85.0439 14.7148ZM85.5608 5.85637C85.5203 5.74372 85.4493 5.70276 85.348 5.70276H83.4324C83.3007 5.70276 83.2601 5.74372 83.2196 5.85637L78.9932 19.0979C78.9324 19.272 79.0135 19.3847 79.2061 19.3847H81.9122C82.0236 19.3847 82.0642 19.3437 82.1047 19.2311L82.723 17.2546C82.7635 17.1419 82.804 17.1214 82.9561 17.1214H85.7939C85.9459 17.1214 85.9865 17.1419 86.027 17.2546L86.625 19.2311C86.6655 19.3335 86.7162 19.3847 86.8378 19.3847H89.5642C89.777 19.3847 89.848 19.272 89.777 19.0979L85.5608 5.85637Z" fill="#2D284D"/>
<path fill-rule="evenodd" clip-rule="evenodd" d="M71.2804 13.0865H68.9392C68.7669 13.0865 68.7061 12.9738 68.7061 12.8509L68.7263 12.5437C68.7669 11.919 69.3547 11.4582 70.125 11.4582C70.875 11.4582 71.4831 11.9088 71.5236 12.5232L71.5439 12.8305C71.5338 12.9738 71.4932 13.0865 71.2804 13.0865ZM70.0338 8.97986C67.5 8.97986 65.6959 10.8232 65.6959 12.9329V15.7287C65.6959 18.0738 67.4088 19.7021 70.0338 19.7021C71.4527 19.7021 72.4865 19.2003 73.2162 18.4835C73.5608 18.1353 73.8446 17.7256 74.0777 17.316C74.2094 17.1009 74.1385 16.8552 74.0169 16.7937L71.8885 15.7082C71.7567 15.6467 71.6351 15.6877 71.5642 15.8823C71.2601 16.6401 70.7736 16.9883 70.0439 16.9883C69.2534 16.9883 68.6858 16.4455 68.6858 15.7491V15.2678C68.6858 15.1142 68.7466 15.0323 68.9493 15.0323H74.1284C74.2601 15.0323 74.3412 14.9708 74.3412 14.8172V12.9329C74.3311 10.8437 72.5473 8.97986 70.0338 8.97986Z" fill="#2D284D"/>
<path fill-rule="evenodd" clip-rule="evenodd" d="M64.4088 9.32807C64.2568 9.30759 64.0845 9.28711 63.8514 9.28711C63.0406 9.28711 62.2602 9.67627 61.9156 10.1064C61.8041 10.2088 61.6318 10.1986 61.6318 10.004V9.50217C61.6318 9.34855 61.571 9.28711 61.4189 9.28711H59.3818C59.25 9.28711 59.1689 9.34855 59.1689 9.50217V19.1594C59.1689 19.313 59.25 19.3745 59.3818 19.3745H61.9156C62.0473 19.3745 62.1284 19.313 62.1284 19.1594V13.404C62.1284 12.6461 62.6656 12.1034 63.4156 12.1034C63.7399 12.1034 64.0135 12.1443 64.2771 12.216C64.4696 12.257 64.6014 12.1955 64.6014 12.001V9.54313C64.6014 9.44072 64.5304 9.34855 64.4088 9.32807Z" fill="#2D284D"/>
<path fill-rule="evenodd" clip-rule="evenodd" d="M53.0169 17.0293H52.2264C51.7703 17.0293 51.5169 16.7426 51.5169 16.1384C51.5169 15.7083 51.8209 15.401 52.2466 15.401H54.0709C54.2027 15.401 54.2432 15.6366 54.2432 15.7083C54.1926 16.5071 53.5946 17.0293 53.0169 17.0293ZM52.9561 9.05164C51.6284 9.05164 50.6351 9.48176 49.9054 10.1577C49.5 10.5263 49.1757 10.9565 48.9223 11.4378C48.7906 11.6528 48.8615 11.8986 48.9831 11.9601L51.1115 13.0456C51.2432 13.1071 51.3649 13.0661 51.4358 12.8715C51.7399 12.1137 52.2264 11.7655 52.9561 11.7655C53.7466 11.7655 54.2432 12.3083 54.2432 13.0046V13.1173C54.2432 13.2709 54.1824 13.3528 54.0304 13.3528H52.1351C50.25 13.3528 48.7196 14.3974 48.7196 16.2203V16.4354C48.7196 18.2787 50.098 19.3848 51.9426 19.3848H52.6926C53.2703 19.3848 53.9189 19.1902 54.3649 18.8215C54.4459 18.7601 54.5574 18.7806 54.5777 18.842L54.6385 19.2107C54.6588 19.3233 54.75 19.3848 54.8716 19.3848H56.9797C57.1115 19.3848 57.1926 19.3233 57.1926 19.1697V13.0251C57.2027 10.6799 55.5709 9.05164 52.9561 9.05164Z" fill="#2D284D"/>
<path fill-rule="evenodd" clip-rule="evenodd" d="M47.8581 9.28711H45.2635C45.1318 9.28711 45.0507 9.34855 45.0304 9.46121L44.0676 13.5371C43.9561 13.998 43.875 14.6431 43.8547 15.104H43.7838C43.7635 14.6431 43.6723 14.0594 43.5507 13.5371L42.5777 9.46121C42.5575 9.34855 42.4662 9.28711 42.3446 9.28711H40.2162C40.0845 9.28711 40.0237 9.34855 40.0034 9.46121L39.0608 13.5166C38.9493 13.9672 38.8683 14.5612 38.8277 14.9913H38.7669C38.7466 14.5612 38.6656 13.9672 38.5541 13.5166L37.5507 9.46121C37.5304 9.34855 37.4696 9.28711 37.3379 9.28711H34.6723C34.4797 9.28711 34.4088 9.39976 34.4798 9.57386L37.5102 19.2311C37.5507 19.3335 37.6216 19.3847 37.723 19.3847H39.6183C39.75 19.3847 39.8108 19.3437 39.8311 19.2311L41.0169 14.7353C41.1487 14.2335 41.25 13.3937 41.25 13.3937H41.3108C41.3108 13.3937 41.4223 14.2437 41.5439 14.7353L42.6993 19.2004C42.7196 19.313 42.7804 19.3745 42.9122 19.3745H44.777C44.8885 19.3745 44.9493 19.3335 44.9899 19.2208L48.0608 9.56362C48.1216 9.42024 48.0507 9.28711 47.8581 9.28711Z" fill="#2D284D"/>
<path fill-rule="evenodd" clip-rule="evenodd" d="M33.375 9.28718H31.9358C31.7432 9.28718 31.6824 9.22573 31.6824 9.07212V7.69983C31.6824 7.54621 31.6419 7.50525 31.4899 7.50525H30.1318C30.0507 7.50525 29.9392 7.54621 29.8784 7.6179L27.1926 10.3318V11.8065C27.1926 11.9601 27.2534 12.001 27.4054 12.001H28.4797C28.6723 12.001 28.7331 12.0932 28.7331 12.2366V15.6263C28.7331 18.2275 30.3446 19.5793 32.3818 19.5793H33.2838C33.4764 19.5793 33.5676 19.4974 33.5676 19.3438V17.1113C33.5676 16.9781 33.5068 16.8962 33.3547 16.8962H32.9899C32.1081 16.8962 31.6824 16.3534 31.6824 15.4215V12.2366C31.6824 12.083 31.7432 12.001 31.9358 12.001H33.375C33.527 12.001 33.5676 11.9601 33.5676 11.8065V9.50224C33.5676 9.34862 33.527 9.28718 33.375 9.28718Z" fill="#2D284D"/>
<path fill-rule="evenodd" clip-rule="evenodd" d="M26.9594 5.60027C26.5946 5.51834 25.9966 5.44666 25.4392 5.44666C22.2567 5.44666 21.0608 7.67919 21.0608 9.44063V9.9834C21.0608 10.137 21 10.1985 20.8277 10.1985H20.3311C20.1993 10.1985 20.1182 10.2599 20.1182 10.4135V12.6973C20.1182 12.8509 20.1993 12.9123 20.3311 12.9123H20.8277C21.0203 12.9123 21.0608 12.9738 21.0608 13.1274V19.1593C21.0608 19.3129 21.1216 19.3744 21.2736 19.3744H23.8074C23.9594 19.3744 24.0203 19.3129 24.0203 19.1593V13.1274C24.0203 12.9738 24.0811 12.9123 24.2534 12.9123H25.6419C25.7939 12.9123 25.8547 12.8509 25.8547 12.6973V10.4135C25.8547 10.2599 25.7939 10.1985 25.6419 10.1985H24.2432C24.0709 10.1985 24.0101 10.137 24.0101 9.9834V9.39967C24.0101 8.64184 24.5473 8.16051 25.3581 8.16051C25.6419 8.16051 25.9358 8.20147 26.1689 8.27316C26.3209 8.31413 26.402 8.27316 26.4527 8.14003L27.1216 5.9075C27.1723 5.75388 27.1317 5.64123 26.9594 5.60027Z" fill="#2D284D"/>
<path fill-rule="evenodd" clip-rule="evenodd" d="M15.8513 15.7492C15.8513 16.4456 15.2939 17.0089 14.5439 17.0089C13.7534 17.0089 13.1858 16.4456 13.1858 15.7492V12.9125C13.1858 12.2366 13.7432 11.6528 14.5439 11.6528C15.2939 11.6528 15.8513 12.2161 15.8513 12.9125V15.7492ZM14.5439 9.05164C11.9189 9.05164 10.2061 10.6799 10.2061 13.0251V15.6673C10.2061 18.0125 11.9189 19.6203 14.5439 19.6203C17.1182 19.6203 18.8412 18.033 18.8412 15.6673V13.0251C18.8412 10.6492 17.1182 9.05164 14.5439 9.05164Z" fill="#2D284D"/>
<path fill-rule="evenodd" clip-rule="evenodd" d="M5.59459 11.2123C4.40878 10.7617 3.14188 10.434 3.14188 9.46111C3.14188 8.6828 3.71959 8.16051 4.46959 8.16051H4.79391C5.52364 8.16051 6.02026 8.5087 6.32432 9.26653C6.38513 9.46111 6.51688 9.50208 6.64864 9.44063L8.77702 8.35509C8.90878 8.29364 8.96959 8.04786 8.83783 7.8328C8.66553 7.50509 8.4527 7.18762 8.18918 6.90087C7.43918 6.05087 6.36486 5.44666 4.79391 5.44666H4.46959C1.78378 5.44666 0.131749 7.05449 0.131749 9.50208C0.131749 12.0009 1.72296 12.9328 3.69932 13.7316C4.98648 14.2539 6.10134 14.5304 6.10134 15.6159C6.10134 16.5069 5.41215 16.8961 4.64188 16.8961H4.10472C3.37499 16.8961 2.87837 16.5479 2.58445 15.79C2.52364 15.5954 2.39188 15.5545 2.26013 15.6159L0.131749 16.7015C-8.11624e-06 16.7629 -0.0608189 17.0087 0.0709378 17.2238C0.263505 17.572 0.496614 17.9201 0.780397 18.2274C1.51013 19.0467 2.58445 19.6099 4.10472 19.6099H4.79391C7.52026 19.6099 9.11148 18.0226 9.11148 15.575C9.11148 13.0454 7.63175 12.0214 5.59459 11.2123Z" fill="#2D284D"/>
</g>
<defs>
<clipPath id="clip0_6435_122616">
<rect width="150" height="22" fill="white" transform="translate(0 0.702148)"/>
</clipPath>
</defs>
</svg>
