<svg width="150" height="23" viewBox="0 0 150 23" fill="none" xmlns="http://www.w3.org/2000/svg">
<path d="M91.525 6.03468C91.6009 6.09264 91.5857 6.17269 91.5857 6.19967C91.5857 6.22666 91.5885 6.29567 91.525 6.34504C91.4146 6.43153 91.1075 6.39135 91.1075 6.39135V5.99604C91.1075 5.99604 91.4494 5.97641 91.525 6.03468ZM92.1607 7.49356L91.8036 6.69098C91.8824 6.65479 91.9549 6.59499 92.0154 6.4993C92.0761 6.40944 92.1124 6.30763 92.1124 6.19967C92.1124 6.09172 92.082 5.98408 92.0274 5.88809C91.9791 5.7924 91.9004 5.72064 91.8036 5.66053C91.6918 5.60881 91.5697 5.58221 91.4463 5.58263H90.5867V7.49326H91.1075V6.77501H91.2708L91.5616 7.49387L92.1607 7.49356ZM92.524 5.99604C92.5906 6.16379 92.6269 6.34351 92.6269 6.54101C92.6269 6.79249 92.5665 7.02035 92.4515 7.22982C92.3392 7.42977 92.1738 7.59554 91.9732 7.70916C91.7674 7.82294 91.5433 7.87691 91.295 7.87691C91.0408 7.87691 90.8167 7.8168 90.623 7.70916C90.422 7.59404 90.2551 7.42876 90.1388 7.22982C90.0238 7.02618 89.9693 6.7928 89.9693 6.54101C89.9631 6.27757 90.0176 6.04419 90.1388 5.84024C90.2511 5.64037 90.4165 5.47471 90.6171 5.36121C90.8255 5.2505 91.0585 5.19285 91.295 5.19345C91.4887 5.19345 91.6645 5.22934 91.8219 5.29527C91.9853 5.36703 92.1303 5.45689 92.2515 5.5768C92.3724 5.69028 92.4636 5.82828 92.524 5.99604ZM93.0082 7.24178C93.1039 7.02027 93.1534 6.78192 93.1538 6.54101C93.1538 6.29567 93.1052 6.05584 93.0082 5.82828C92.9124 5.61047 92.7747 5.41318 92.6027 5.24743C92.4346 5.07515 92.2327 4.93856 92.0095 4.84598C91.7836 4.75075 91.5405 4.70182 91.295 4.70215C91.047 4.70215 90.8108 4.74999 90.5867 4.84598C90.3657 4.93798 90.1628 5.06774 89.9873 5.22934C89.8174 5.40253 89.6819 5.60569 89.5877 5.82828C89.4916 6.05384 89.4422 6.29622 89.4427 6.54101C89.4427 6.78084 89.491 7.01422 89.5877 7.24178C89.6847 7.4816 89.818 7.67911 89.9876 7.8349C90.158 8.00427 90.362 8.13688 90.5867 8.22438C90.809 8.32481 91.0507 8.37589 91.295 8.37404C91.543 8.37404 91.7795 8.3262 92.0095 8.22438C92.2395 8.12839 92.4394 8.00265 92.6027 7.8349C92.7756 7.66515 92.9133 7.46369 93.0082 7.24178ZM17.1006 9.65229C17.4928 9.65225 17.8811 9.72865 18.2434 9.87711C18.6057 10.0256 18.9349 10.2432 19.2122 10.5176C19.4895 10.7919 19.7095 11.1177 19.8596 11.4761C20.0096 11.8346 20.0868 12.2188 20.0868 12.6069C20.0866 13.3903 19.7719 14.1416 19.2119 14.6955C18.6519 15.2495 17.8925 15.5606 17.1006 15.5605C16.3089 15.5604 15.5496 15.2492 14.9897 14.6953C14.4298 14.1414 14.1152 13.3902 14.1151 12.6069C14.115 12.2189 14.1922 11.8347 14.3422 11.4763C14.4922 11.1178 14.7121 10.7921 14.9894 10.5178C15.2666 10.2434 15.5957 10.0258 15.958 9.87729C16.3202 9.72879 16.7085 9.65233 17.1006 9.65229ZM17.1006 6.51157C15.4668 6.51165 13.8999 7.15387 12.7447 8.29695C11.5894 9.44003 10.9404 10.9903 10.9404 12.6069C10.9404 14.2234 11.5895 15.7738 12.7448 16.9169C13.9001 18.06 15.4671 18.7021 17.1009 18.7021C17.9099 18.7021 18.711 18.5445 19.4584 18.2382C20.2059 17.9319 20.885 17.4829 21.4571 16.9169C22.0291 16.3509 22.4829 15.6789 22.7925 14.9394C23.1021 14.1999 23.2614 13.4073 23.2614 12.6069C23.2614 11.8064 23.1021 11.0138 22.7924 10.2742C22.4828 9.53469 22.029 8.86273 21.4569 8.29673C20.8849 7.73073 20.2057 7.28176 19.4582 6.97546C18.7108 6.66916 17.9096 6.51153 17.1006 6.51157ZM84.2778 12.5191H86.1382L85.2114 9.51827L84.2778 12.5191ZM88.0478 18.7012L87.0649 15.52H83.3578L82.3681 18.7012H79.209L82.3117 8.643C82.7332 7.21203 83.7022 6.49685 85.2114 6.49685C86.7138 6.49685 87.6827 7.21203 88.1039 8.643L91.2212 18.7012H88.0478ZM75.6084 18.7012V6.51065H78.6343V18.7012H75.6084ZM67.0981 9.51858V15.701C70.0186 15.701 71.4863 14.6659 71.4863 12.5888C71.4863 10.5466 70.0186 9.51889 67.0981 9.51889V9.51858ZM67.0981 6.49716C72.0904 6.49716 74.5868 8.53229 74.5868 12.5888C74.5868 16.6664 72.0904 18.7015 67.0981 18.7015H63.9979V6.49685L67.0981 6.49716ZM61.2305 14.0894H57.6251V15.701H62.9242V18.7015H57.5829C55.579 18.7015 54.5843 17.7014 54.5843 15.701V6.49685H62.9099V9.51153H57.6251V11.0882H61.2305V14.0894ZM47.5516 9.47687V12.4848C49.6367 12.4848 50.6869 11.9846 50.6869 10.9842C50.6869 9.98412 49.6442 9.47687 47.5516 9.47687ZM44.4594 6.49716H48.4719C52.024 6.49716 53.8004 7.99744 53.8004 10.9913C53.8004 13.9921 52.0891 15.4924 48.6805 15.4924H47.5584V18.7015H44.4594V6.49716ZM33.7729 6.5177H43.4613V9.52563H40.1336V18.7015H37.1006V9.52563H33.7729V6.5177ZM24.1857 18.7015L24.1789 9.51858C24.1789 7.75056 25.5167 6.49716 27.2863 6.49716H32.927V9.51858H27.286V11.0955H31.5774V14.0894H27.286V18.7018L24.1857 18.7015ZM0 15.7007V18.7012C1.786 18.7012 3.32341 18.604 4.61224 18.4234C5.54429 18.2915 6.36755 18.1109 7.06621 17.8744C7.59438 17.6941 8.05251 17.4859 8.45639 17.2494C9.1008 16.8676 9.58992 16.402 9.91631 15.8463C10.079 15.5755 10.2033 15.2839 10.2889 14.9781L10.3899 14.1028C10.3899 13.7833 10.3434 13.4778 10.2579 13.1791C10.1722 12.906 10.0521 12.6446 9.9005 12.4011C9.65222 12.0052 9.30258 11.6647 8.86771 11.3731C8.54995 11.1746 8.21477 11.0048 7.86622 10.8658C7.50883 10.734 6.94966 10.5604 6.1887 10.3451C5.68409 10.2062 5.32701 10.1019 5.11717 10.0255C4.88438 9.94885 4.69779 9.87249 4.54249 9.78938C4.4486 9.7509 4.36202 9.69686 4.28647 9.6296C4.22447 9.58789 4.20092 9.55293 4.20092 9.51153H9.60542V6.51065H4.22447C2.89629 6.51065 1.94904 7.09396 1.38212 8.26793C0.776455 9.51827 1.00149 10.6576 2.04234 11.6785C2.32937 11.9634 2.679 12.2134 3.09063 12.4287C3.53295 12.6581 4.15442 12.8872 4.94638 13.1095C5.80063 13.3598 6.21195 13.4708 6.16546 13.457C6.45279 13.5471 6.67813 13.6306 6.84892 13.7069L7.16725 13.8738C7.30674 13.971 7.33804 14.1308 7.26024 14.3598C7.175 14.4712 7.03521 14.5892 6.84892 14.7003C6.36755 14.9919 5.62984 15.2213 4.63579 15.3811C3.40896 15.5964 1.86349 15.7007 0 15.7007Z" fill="#002873"/>
</svg>
