<svg width="328" height="440" viewBox="0 0 328 440" fill="none" xmlns="http://www.w3.org/2000/svg">
<g clip-path="url(#clip0_17_113153)">
<g filter="url(#filter0_d_17_113153)">
<g clip-path="url(#clip1_17_113153)">
<rect x="290" y="-41" width="110" height="110" rx="12" transform="rotate(90 290 -41)" fill="#575757"/>
<rect x="201.568" y="-28.6943" width="66.8634" height="66.8634" rx="33.4317" stroke="#7C7C7C"/>
<rect x="211.748" y="-18.5148" width="46.5044" height="46.5044" rx="23.2522" stroke="#7C7C7C"/>
<rect x="201.568" y="-28.4519" width="66.8634" height="66.8634" stroke="#7C7C7C"/>
<rect x="218.873" y="-10.7105" width="31.5744" height="31.5744" stroke="#7C7C7C"/>
<rect x="180" y="49" width="110" height="20" fill="#4E4E4E"/>
</g>
</g>
<g filter="url(#filter1_d_17_113153)">
<g clip-path="url(#clip2_17_113153)">
<rect width="110" height="110" rx="12" transform="matrix(-4.37114e-08 -1 -1 4.37114e-08 290 209)" fill="#575757"/>
<rect x="260.095" y="120.904" width="50.1913" height="50.1913" rx="25.0957" transform="rotate(90 260.095 120.904)" stroke="#7C7C7C"/>
<rect x="209.904" y="120.904" width="50.1913" height="50.1913" stroke="#7C7C7C"/>
<rect x="235" y="110.509" width="50.1913" height="50.1913" transform="rotate(45 235 110.509)" stroke="#7C7C7C"/>
<rect x="180" y="189" width="110" height="20" fill="#4E4E4E"/>
</g>
</g>
<g filter="url(#filter2_d_17_113153)">
<g clip-path="url(#clip3_17_113153)">
<rect x="290" y="239" width="110" height="110" rx="12" transform="rotate(90 290 239)" fill="#575757"/>
<rect x="201.75" y="252.75" width="66.5" height="66.5" rx="33.25" stroke="#7C7C7C"/>
<rect x="211.875" y="262.875" width="46.25" height="46.25" stroke="#7C7C7C"/>
<rect x="180" y="329" width="110" height="20" fill="#4E4E4E"/>
</g>
</g>
<g filter="url(#filter3_d_17_113153)">
<rect x="290" y="379" width="110" height="110" rx="12" transform="rotate(90 290 379)" fill="#575757"/>
<rect x="192.5" y="391.5" width="85" height="85" rx="42.5" stroke="#7C7C7C"/>
<rect x="205.4" y="404.4" width="59.2" height="59.2" rx="29.6" stroke="#7C7C7C"/>
<rect x="205.4" y="404.4" width="59.2" height="59.2" stroke="#7C7C7C"/>
</g>
<g filter="url(#filter4_d_17_113153)">
<g clip-path="url(#clip4_17_113153)">
<rect x="142" y="169" width="110" height="110" rx="12" transform="rotate(90 142 169)" fill="white"/>
<path fill-rule="evenodd" clip-rule="evenodd" d="M84.822 239.372L63.3705 229.29C61.5432 228.41 61.5432 227.05 63.3705 226.249L70.8388 222.729L84.7426 229.29C86.5699 230.17 89.5096 230.17 91.2574 229.29L105.161 222.729L112.629 226.249C114.457 227.13 114.457 228.49 112.629 229.29L91.178 239.372C89.5096 240.172 86.5699 240.172 84.822 239.372Z" fill="#FF6F3D"/>
<path fill-rule="evenodd" clip-rule="evenodd" d="M84.7525 226.896L63.3663 216.802C61.5446 215.921 61.5446 214.559 63.3663 213.758L70.6535 210.313L84.7525 216.962C86.5743 217.843 89.505 217.843 91.2475 216.962L105.347 210.313L112.634 213.758C114.455 214.639 114.455 216.001 112.634 216.802L91.2475 226.896C89.4257 227.777 86.4951 227.777 84.7525 226.896Z" fill="#95C038"/>
<path fill-rule="evenodd" clip-rule="evenodd" d="M84.7525 214.549L63.3663 204.6C61.5446 203.732 61.5446 202.39 63.3663 201.6L84.7525 191.651C86.5743 190.783 89.505 190.783 91.2475 191.651L112.634 201.6C114.455 202.469 114.455 203.811 112.634 204.6L91.2475 214.549C89.4257 215.339 86.4951 215.339 84.7525 214.549Z" fill="#5DC0E8"/>
<rect x="32" y="259" width="110" height="20" fill="#E9E9E9"/>
</g>
</g>
<g filter="url(#filter5_d_17_113153)">
<g clip-path="url(#clip5_17_113153)">
<rect x="142" y="29" width="110" height="110" rx="12" transform="rotate(90 142 29)" fill="#575757"/>
<rect x="48.9478" y="35.9478" width="76.1045" height="76.1045" rx="38.0522" stroke="#777777"/>
<rect x="66.3938" y="53.3939" width="41.2122" height="41.2122" rx="20.6061" stroke="#777777"/>
<rect x="32" y="119" width="110" height="20" fill="#4E4E4E"/>
</g>
</g>
<g filter="url(#filter6_d_17_113153)">
<g clip-path="url(#clip6_17_113153)">
<rect x="142" y="309" width="110" height="110" rx="12" transform="rotate(90 142 309)" fill="#575757"/>
<rect x="69.7729" y="337.773" width="34.4542" height="34.4542" stroke="#7C7C7C"/>
<rect x="87" y="320.207" width="49.2046" height="49.2046" transform="rotate(45 87 320.207)" stroke="#7C7C7C"/>
<rect x="32" y="399" width="110" height="20" fill="#4E4E4E"/>
</g>
</g>
</g>
<defs>
<filter id="filter0_d_17_113153" x="160" y="-51" width="150" height="150" filterUnits="userSpaceOnUse" color-interpolation-filters="sRGB">
<feFlood flood-opacity="0" result="BackgroundImageFix"/>
<feColorMatrix in="SourceAlpha" type="matrix" values="0 0 0 0 0 0 0 0 0 0 0 0 0 0 0 0 0 0 127 0" result="hardAlpha"/>
<feOffset dy="10"/>
<feGaussianBlur stdDeviation="10"/>
<feColorMatrix type="matrix" values="0 0 0 0 0.333333 0 0 0 0 0.333333 0 0 0 0 0.333333 0 0 0 0.05 0"/>
<feBlend mode="normal" in2="BackgroundImageFix" result="effect1_dropShadow_17_113153"/>
<feBlend mode="normal" in="SourceGraphic" in2="effect1_dropShadow_17_113153" result="shape"/>
</filter>
<filter id="filter1_d_17_113153" x="160" y="89" width="150" height="150" filterUnits="userSpaceOnUse" color-interpolation-filters="sRGB">
<feFlood flood-opacity="0" result="BackgroundImageFix"/>
<feColorMatrix in="SourceAlpha" type="matrix" values="0 0 0 0 0 0 0 0 0 0 0 0 0 0 0 0 0 0 127 0" result="hardAlpha"/>
<feOffset dy="10"/>
<feGaussianBlur stdDeviation="10"/>
<feColorMatrix type="matrix" values="0 0 0 0 0.333333 0 0 0 0 0.333333 0 0 0 0 0.333333 0 0 0 0.05 0"/>
<feBlend mode="normal" in2="BackgroundImageFix" result="effect1_dropShadow_17_113153"/>
<feBlend mode="normal" in="SourceGraphic" in2="effect1_dropShadow_17_113153" result="shape"/>
</filter>
<filter id="filter2_d_17_113153" x="160" y="229" width="150" height="150" filterUnits="userSpaceOnUse" color-interpolation-filters="sRGB">
<feFlood flood-opacity="0" result="BackgroundImageFix"/>
<feColorMatrix in="SourceAlpha" type="matrix" values="0 0 0 0 0 0 0 0 0 0 0 0 0 0 0 0 0 0 127 0" result="hardAlpha"/>
<feOffset dy="10"/>
<feGaussianBlur stdDeviation="10"/>
<feColorMatrix type="matrix" values="0 0 0 0 0.333333 0 0 0 0 0.333333 0 0 0 0 0.333333 0 0 0 0.05 0"/>
<feBlend mode="normal" in2="BackgroundImageFix" result="effect1_dropShadow_17_113153"/>
<feBlend mode="normal" in="SourceGraphic" in2="effect1_dropShadow_17_113153" result="shape"/>
</filter>
<filter id="filter3_d_17_113153" x="160" y="369" width="150" height="150" filterUnits="userSpaceOnUse" color-interpolation-filters="sRGB">
<feFlood flood-opacity="0" result="BackgroundImageFix"/>
<feColorMatrix in="SourceAlpha" type="matrix" values="0 0 0 0 0 0 0 0 0 0 0 0 0 0 0 0 0 0 127 0" result="hardAlpha"/>
<feOffset dy="10"/>
<feGaussianBlur stdDeviation="10"/>
<feColorMatrix type="matrix" values="0 0 0 0 0.333333 0 0 0 0 0.333333 0 0 0 0 0.333333 0 0 0 0.05 0"/>
<feBlend mode="normal" in2="BackgroundImageFix" result="effect1_dropShadow_17_113153"/>
<feBlend mode="normal" in="SourceGraphic" in2="effect1_dropShadow_17_113153" result="shape"/>
</filter>
<filter id="filter4_d_17_113153" x="12" y="159" width="150" height="150" filterUnits="userSpaceOnUse" color-interpolation-filters="sRGB">
<feFlood flood-opacity="0" result="BackgroundImageFix"/>
<feColorMatrix in="SourceAlpha" type="matrix" values="0 0 0 0 0 0 0 0 0 0 0 0 0 0 0 0 0 0 127 0" result="hardAlpha"/>
<feOffset dy="10"/>
<feGaussianBlur stdDeviation="10"/>
<feColorMatrix type="matrix" values="0 0 0 0 0.333333 0 0 0 0 0.333333 0 0 0 0 0.333333 0 0 0 0.05 0"/>
<feBlend mode="normal" in2="BackgroundImageFix" result="effect1_dropShadow_17_113153"/>
<feBlend mode="normal" in="SourceGraphic" in2="effect1_dropShadow_17_113153" result="shape"/>
</filter>
<filter id="filter5_d_17_113153" x="12" y="19" width="150" height="150" filterUnits="userSpaceOnUse" color-interpolation-filters="sRGB">
<feFlood flood-opacity="0" result="BackgroundImageFix"/>
<feColorMatrix in="SourceAlpha" type="matrix" values="0 0 0 0 0 0 0 0 0 0 0 0 0 0 0 0 0 0 127 0" result="hardAlpha"/>
<feOffset dy="10"/>
<feGaussianBlur stdDeviation="10"/>
<feColorMatrix type="matrix" values="0 0 0 0 0.333333 0 0 0 0 0.333333 0 0 0 0 0.333333 0 0 0 0.05 0"/>
<feBlend mode="normal" in2="BackgroundImageFix" result="effect1_dropShadow_17_113153"/>
<feBlend mode="normal" in="SourceGraphic" in2="effect1_dropShadow_17_113153" result="shape"/>
</filter>
<filter id="filter6_d_17_113153" x="12" y="299" width="150" height="150" filterUnits="userSpaceOnUse" color-interpolation-filters="sRGB">
<feFlood flood-opacity="0" result="BackgroundImageFix"/>
<feColorMatrix in="SourceAlpha" type="matrix" values="0 0 0 0 0 0 0 0 0 0 0 0 0 0 0 0 0 0 127 0" result="hardAlpha"/>
<feOffset dy="10"/>
<feGaussianBlur stdDeviation="10"/>
<feColorMatrix type="matrix" values="0 0 0 0 0.333333 0 0 0 0 0.333333 0 0 0 0 0.333333 0 0 0 0.05 0"/>
<feBlend mode="normal" in2="BackgroundImageFix" result="effect1_dropShadow_17_113153"/>
<feBlend mode="normal" in="SourceGraphic" in2="effect1_dropShadow_17_113153" result="shape"/>
</filter>
<clipPath id="clip0_17_113153">
<rect width="328" height="440" fill="white"/>
</clipPath>
<clipPath id="clip1_17_113153">
<rect x="290" y="-41" width="110" height="110" rx="12" transform="rotate(90 290 -41)" fill="white"/>
</clipPath>
<clipPath id="clip2_17_113153">
<rect width="110" height="110" rx="12" transform="matrix(-4.37114e-08 -1 -1 4.37114e-08 290 209)" fill="white"/>
</clipPath>
<clipPath id="clip3_17_113153">
<rect x="290" y="239" width="110" height="110" rx="12" transform="rotate(90 290 239)" fill="white"/>
</clipPath>
<clipPath id="clip4_17_113153">
<rect x="142" y="169" width="110" height="110" rx="12" transform="rotate(90 142 169)" fill="white"/>
</clipPath>
<clipPath id="clip5_17_113153">
<rect x="142" y="29" width="110" height="110" rx="12" transform="rotate(90 142 29)" fill="white"/>
</clipPath>
<clipPath id="clip6_17_113153">
<rect x="142" y="309" width="110" height="110" rx="12" transform="rotate(90 142 309)" fill="white"/>
</clipPath>
</defs>
</svg>
