<svg width="658" height="382" viewBox="0 0 658 382" fill="none" xmlns="http://www.w3.org/2000/svg">
<path d="M496.72 90.838L657.834 15.9393L657.149 9.52107C394.846 -7.52327 274.057 -7.43497 29.5168 76.3326L30.5561 82.2925L48.1861 85.832C43.4107 102.769 32.6066 144.797 24.2346 209.82C-13.1116 274.437 2.00902 326.003 14.8132 381.332C28.3834 328.809 38.74 270.446 32.9317 209.34C41.4217 145.125 52.1313 103.603 56.7176 87.6801L203.099 116.202C203.099 116.202 194.02 159.076 191.866 200.877C314.516 270.073 454.733 249.481 545.281 152.028C529.543 126.822 496.72 90.838 496.72 90.838Z" fill="#3C3C3C"/>
</svg>
