<svg width="1497" height="440" viewBox="0 0 1497 440" fill="none" xmlns="http://www.w3.org/2000/svg">
<g clip-path="url(#clip0_17_113142)">
<path d="M1199.33 1091.56L1283.45 639.974C1301.01 545.737 1269.73 490.724 1190.3 475.929C1110.45 461.054 1061.54 500.696 1043.91 595.35L959.782 1046.94L724.503 1003.11L808.626 551.522C826.181 457.285 795.751 402.431 717.183 387.795C637.333 372.921 588.844 412.642 571.212 507.296L487.089 958.885L251.81 915.056L340.904 436.781C359.235 338.374 408.154 270.257 487.581 232.848C557.459 199.268 645.424 191.925 750.466 211.492C856.79 231.299 930.388 272.621 970.832 335.381C1024.33 290.121 1108.3 278.149 1223.16 299.547C1328.2 319.114 1407.27 357.142 1460.3 414.047C1520.93 477.547 1542.04 558.708 1523.7 657.116L1434.61 1135.39L1199.33 1091.56Z" fill="#3C3C3C"/>
<path d="M858.606 195.816L1123.25 72.5342L1122.12 61.9699C691.271 33.9153 492.866 34.0606 91.1912 171.94L92.8984 181.75L121.857 187.576C114.013 215.453 96.2665 284.631 82.5149 391.657C21.1711 498.015 46.0078 582.891 67.0396 673.962C89.3296 587.51 106.341 491.446 96.8004 390.867C110.746 285.171 128.337 216.827 135.87 190.618L376.312 237.565C376.312 237.565 361.399 308.133 357.861 376.937C559.322 490.832 789.64 456.938 938.37 296.533C912.52 255.044 858.606 195.816 858.606 195.816Z" fill="#3C3C3C"/>
</g>
<defs>
<clipPath id="clip0_17_113142">
<rect width="1668" height="440" fill="white" transform="translate(0 0.0546875)"/>
</clipPath>
</defs>
</svg>
