<svg width="444" height="64" viewBox="0 0 444 64" fill="none" xmlns="http://www.w3.org/2000/svg">
<path d="M45.3575 9.64645C45.2145 9.50345 44.9994 9.46067 44.8126 9.53806C44.6257 9.61545 44.5039 9.79777 44.5039 10V18.182C44.5039 18.8578 44.6675 19.4574 45.0773 19.8877C45.4913 20.3225 46.0759 20.5001 46.7355 20.5001H55.0039C55.2061 20.5001 55.3885 20.3783 55.4658 20.1915C55.5432 20.0046 55.5005 19.7896 55.3575 19.6466L45.3575 9.64645Z" fill="url(#paint0_linear_256_66366)" stroke="#333333" stroke-linecap="round" stroke-linejoin="round"/>
<path fill-rule="evenodd" clip-rule="evenodd" d="M54.6083 19.5643L54.6059 19.5619L45.4184 10.3919L45.4171 10.3906C45.3645 10.3384 45.3154 10.2887 45.2729 10.2456L45.2571 10.2295C45.2089 10.1807 45.1711 10.1426 45.1365 10.1091C45.0664 10.0411 45.0356 10.018 45.0229 10.0095C45.0124 10.007 44.9753 10 44.8952 10H22.3478C21.5953 10 21 10.6025 21 11.3276V54.6724C21 55.3975 21.5953 56 22.3478 56H53.6522C54.4047 56 55 55.3975 55 54.6724V20.1093C55 20.0214 54.9912 19.9827 54.9884 19.9724C54.9868 19.9666 54.9863 19.9644 54.9798 19.9542C54.969 19.9373 54.9438 19.9031 54.8793 19.8351C54.8289 19.7819 54.7761 19.7298 54.7045 19.6592C54.6758 19.631 54.6441 19.5998 54.6083 19.5643ZM46.1224 9.68173L55.3123 18.8541C55.3405 18.8821 55.368 18.9091 55.3946 18.9353C55.7833 19.3182 56 19.5316 56 20.1093V54.6724C56 55.9579 54.9488 57 53.6522 57H22.3478C21.0512 57 20 55.9579 20 54.6724V11.3276C20 10.0421 21.0512 9 22.3478 9H44.8952C45.4488 9 45.6401 9.19385 45.9851 9.54364C46.0282 9.58727 46.0736 9.63333 46.1224 9.68173Z" fill="#333333"/>
<rect x="9.5" y="12.5" width="21" height="8" rx="0.5" fill="#D9F4FF" stroke="#333333"/>
<rect x="9.5" y="23.5" width="21" height="8" rx="0.5" fill="#F9F9F9" stroke="#333333"/>
<rect x="9.5" y="34.5" width="21" height="8" rx="0.5" fill="#D9F4FF" stroke="#333333"/>
<rect x="9.5" y="45.5" width="21" height="8" rx="0.5" fill="#F9F9F9" stroke="#333333"/>
<path d="M34 35H50V36H34V35Z" fill="#333333"/>
<path d="M34 38H50V39H34V38Z" fill="#333333"/>
<path d="M34 41H50V42H34V41Z" fill="#333333"/>
<path d="M34 35H35V41H34V38V35Z" fill="#333333"/>
<path d="M49 35H50V41H49V35Z" fill="#333333"/>
<path d="M44 35H45V41H44V35Z" fill="#333333"/>
<path d="M34 35H35V41H34V38V35Z" fill="#333333"/>
<path d="M39 35H40V41H39V35Z" fill="#333333"/>
<rect x="34" y="29" width="16" height="1" fill="#333333"/>
<rect x="34" y="26" width="16" height="1" fill="#333333"/>
<rect x="34" y="23" width="12" height="1" fill="#333333"/>
<g clip-path="url(#clip0_256_66366)">
<path fill-rule="evenodd" clip-rule="evenodd" d="M92.3449 4C91.0482 4 89.9971 5.0421 89.9971 6.32759V49.6724C89.9971 50.9579 91.0482 52 92.3449 52H123.649C124.946 52 125.997 50.9579 125.997 49.6724V15.5C125.997 14.8827 125.75 14.2907 125.309 13.8541L116.12 4.68173C115.679 4.24523 115.082 4 114.459 4H92.3449Z" fill="white"/>
<path d="M115.354 4.64645C115.211 4.50345 114.995 4.46067 114.809 4.53806C114.622 4.61545 114.5 4.79777 114.5 5V13.182C114.5 13.8578 114.664 14.4574 115.073 14.8877C115.487 15.3225 116.072 15.5001 116.732 15.5001H125C125.202 15.5001 125.385 15.3783 125.462 15.1915C125.539 15.0046 125.497 14.7896 125.354 14.6466L115.354 4.64645Z" fill="url(#paint1_linear_256_66366)" stroke="#333333" stroke-linecap="round" stroke-linejoin="round"/>
<path fill-rule="evenodd" clip-rule="evenodd" d="M124.605 14.5643L124.603 14.5619L115.415 5.3919L115.414 5.39064C115.362 5.33841 115.312 5.28865 115.27 5.24561L115.254 5.22955C115.206 5.18068 115.168 5.14261 115.134 5.1091C115.063 5.04113 115.033 5.01797 115.02 5.00951C115.009 5.00704 114.972 5 114.892 5H91.3449C90.5923 5 89.9971 5.60253 89.9971 6.32759V49.6724C89.9971 50.3975 90.5923 51 91.3449 51H123.649C124.402 51 124.997 50.3975 124.997 49.6724V15.1093C124.997 15.0214 124.988 14.9827 124.985 14.9724C124.984 14.9666 124.983 14.9644 124.977 14.9542C124.966 14.9373 124.941 14.9031 124.876 14.8351C124.826 14.7819 124.773 14.7298 124.702 14.6592C124.673 14.631 124.641 14.5998 124.605 14.5643ZM116.12 4.68173L125.309 13.8541C125.338 13.8821 125.365 13.9091 125.392 13.9353C125.78 14.3182 125.997 14.5316 125.997 15.1093V49.6724C125.997 50.9579 124.946 52 123.649 52H91.3449C90.0482 52 88.9971 50.9579 88.9971 49.6724V6.32759C88.9971 5.0421 90.0482 4 91.3449 4H114.892C115.446 4 115.637 4.19385 115.982 4.54364C116.025 4.58727 116.071 4.63333 116.12 4.68173Z" fill="#333333"/>
<path d="M105 23H121V24H105V23Z" fill="#333333"/>
<path d="M105 26H121V27H105V26Z" fill="#333333"/>
<path d="M105 29H121V30H105V29Z" fill="#333333"/>
<path d="M105 23H106V29H105V26V23Z" fill="#333333"/>
<path d="M120 23H121V29H120V23Z" fill="#333333"/>
<path d="M115 23H116V29H115V23Z" fill="#333333"/>
<path d="M105 23H106V29H105V26V23Z" fill="#333333"/>
<path d="M110 23H111V29H110V23Z" fill="#333333"/>
<path d="M95 15.9998H111V16.9998H96L95 15.9998Z" fill="#333333"/>
<path d="M95 9.99976H110V11.9998H95V9.99976Z" fill="#333333"/>
<path d="M98 18.9998H114V19.9998H99L98 18.9998Z" fill="#333333"/>
<path fill-rule="evenodd" clip-rule="evenodd" d="M76.3426 16.0343C75.8226 15.5144 75.8464 14.6481 76.3956 14.0995L80.0666 10.4325C80.6159 9.8839 81.4826 9.86063 82.0025 10.3806L98.3568 26.7363C98.52 26.8995 98.8317 27.1047 98.8883 27.3318L99.911 32.2195C100.164 33.235 99.198 34.2 98.1822 33.9464L93.2925 32.849C93.0654 32.7923 92.86 32.5532 92.6968 32.39L76.3426 16.0343Z" fill="url(#paint2_linear_256_66366)"/>
<path fill-rule="evenodd" clip-rule="evenodd" d="M93.002 32.3901C93.002 32.3901 93.3453 32.1482 93.8946 31.5996L97.5656 27.9327C98.1148 27.384 98.5028 26.9999 98.5028 26.9999C98.6661 27.1631 98.8311 27.1048 98.8877 27.3319L99.9104 32.2196C100.164 33.2351 99.1974 34.2001 98.1816 33.9465L93.2919 32.8491C93.0648 32.7924 93.1652 32.5534 93.002 32.3901Z" fill="white"/>
<path fill-rule="evenodd" clip-rule="evenodd" d="M93.2924 31.6108L77.076 15.5623C76.8161 15.3024 76.8014 14.9945 77.076 14.7202L80.7001 11.1112C80.9748 10.8368 81.1469 10.8512 81.4069 11.1112L97.7256 27.3319C97.8072 27.4135 97.8993 27.8043 97.9276 27.9179L99.0189 32.3901C99.1455 32.8979 98.6901 33.091 98.1822 32.9642L93.5 31.7762C93.3864 31.7478 93.374 31.6924 93.2924 31.6108ZM76.3414 16.0344C75.8215 15.5144 75.8452 14.6482 76.3945 14.0995L80.0655 10.4326C80.6147 9.88396 81.4815 9.8607 82.0014 10.3806L98.3568 26.7364C98.52 26.8996 98.8317 27.1048 98.8883 27.3319L99.911 32.2196C100.164 33.2351 99.198 34.2001 98.1822 33.9465L93.2925 32.8491C93.0654 32.7924 92.86 32.5534 92.6968 32.3901L76.3414 16.0344Z" fill="#333333"/>
<path d="M82 16.7065L95.709 30.4155L96.4165 29.7088L82.7075 15.9998L82 16.7065Z" fill="white"/>
<path fill-rule="evenodd" clip-rule="evenodd" d="M97.8872 27.5115L93.3494 31.9744L94.0327 32.67L98.5715 28.2215L97.8872 27.5115Z" fill="#333333"/>
<path fill-rule="evenodd" clip-rule="evenodd" d="M84.2758 13.0086L79.0086 18.2584L79.705 18.9721L84.9677 13.7135L84.2758 13.0086Z" fill="#333333"/>
<path fill-rule="evenodd" clip-rule="evenodd" d="M98.699 30.6845L96.7037 32.8283L98.7002 33.5L99.5027 32.5L98.699 30.6845Z" fill="#333333"/>
<path d="M98.5688 46.7863C98.5688 52.4271 103.067 56.9999 108.616 56.9999C114.165 56.9999 118.664 52.4271 118.664 46.7863C118.664 41.1455 114.165 36.5728 108.616 36.5728C103.067 36.5728 98.5688 41.1455 98.5688 46.7863Z" fill="white"/>
<path d="M108.216 36C112.999 36.0015 118.878 39.5873 118.998 46.3871C119.052 49.5133 118.205 52.3581 115.935 54.2265C115.787 54.0999 115.049 53.9488 114.872 53.8546L111.824 52.2296C111.424 52.0163 111.175 51.6067 111.175 51.1614V49.9406C111.175 49.9406 112.07 48.8946 112.411 47.4414C112.694 47.2624 112.884 46.9531 112.884 46.6008V45.2647C112.884 44.9708 112.75 44.7082 112.542 44.5243V42.5929C112.542 42.5929 112.948 39.5873 108.783 39.5873C104.618 39.5873 105.024 42.5929 105.024 42.5929V44.5243C104.816 44.7082 104.683 44.9708 104.683 45.2647V46.6008C104.683 47.0499 104.991 47.4278 105.41 47.554C105.643 48.2628 105.98 48.9383 106.425 49.5525C106.537 49.7074 106.642 49.8385 106.733 49.9406V51.1923C106.733 51.6531 106.467 52.0747 106.045 52.2804L102.654 53.7073C102.459 53.803 101.568 54.1983 101.405 54.3328C99.3614 52.2557 98 50.0972 98 46.8851C98 40.44 103.517 35.9985 108.216 36Z" fill="url(#paint3_linear_256_66366)"/>
<path d="M108.616 57.4999C102.783 57.4999 98.0688 52.6955 98.0688 46.7863C98.0688 40.8771 102.783 36.0728 108.616 36.0728C114.449 36.0728 119.164 40.8771 119.164 46.7863C119.164 52.6955 114.449 57.4999 108.616 57.4999Z" stroke="#333333"/>
<path d="M108.569 46.7863C108.569 52.4271 113.067 56.9999 118.616 56.9999C124.165 56.9999 128.664 52.4271 128.664 46.7863C128.664 41.1455 124.165 36.5728 118.616 36.5728C113.067 36.5728 108.569 41.1455 108.569 46.7863Z" fill="white"/>
<path d="M118.216 36C122.999 36.0015 128.878 39.5873 128.998 46.3871C129.052 49.5133 128.205 52.3581 125.935 54.2265C125.787 54.0999 125.049 53.9488 124.872 53.8546L121.824 52.2296C121.424 52.0163 121.175 51.6067 121.175 51.1614V49.9406C121.175 49.9406 122.07 48.8946 122.411 47.4414C122.694 47.2624 122.884 46.9531 122.884 46.6008V45.2647C122.884 44.9708 122.75 44.7082 122.542 44.5243V42.5929C122.542 42.5929 122.948 39.5873 118.783 39.5873C114.618 39.5873 115.024 42.5929 115.024 42.5929V44.5243C114.816 44.7082 114.683 44.9708 114.683 45.2647V46.6008C114.683 47.0499 114.991 47.4278 115.41 47.554C115.643 48.2628 115.98 48.9383 116.425 49.5525C116.537 49.7074 116.642 49.8385 116.733 49.9406V51.1923C116.733 51.6531 116.467 52.0747 116.045 52.2804L112.654 53.7073C112.459 53.803 111.568 54.1983 111.405 54.3328C109.361 52.2557 108 50.0972 108 46.8851C108 40.44 113.517 35.9985 118.216 36Z" fill="#9ADAF3"/>
<path d="M118.616 57.4999C112.783 57.4999 108.069 52.6955 108.069 46.7863C108.069 40.8771 112.783 36.0728 118.616 36.0728C124.449 36.0728 129.164 40.8771 129.164 46.7863C129.164 52.6955 124.449 57.4999 118.616 57.4999Z" stroke="#333333"/>
<path d="M118.569 46.7863C118.569 52.4271 123.067 56.9999 128.616 56.9999C134.165 56.9999 138.664 52.4271 138.664 46.7863C138.664 41.1455 134.165 36.5728 128.616 36.5728C123.067 36.5728 118.569 41.1455 118.569 46.7863Z" fill="white"/>
<path d="M128.216 36C132.999 36.0015 138.878 39.5873 138.998 46.3871C139.052 49.5133 138.205 52.3581 135.935 54.2265C135.787 54.0999 135.049 53.9488 134.872 53.8546L131.824 52.2296C131.424 52.0163 131.175 51.6067 131.175 51.1614V49.9406C131.175 49.9406 132.07 48.8946 132.411 47.4414C132.694 47.2624 132.884 46.9531 132.884 46.6008V45.2647C132.884 44.9708 132.75 44.7082 132.542 44.5243V42.5929C132.542 42.5929 132.948 39.5873 128.783 39.5873C124.618 39.5873 125.024 42.5929 125.024 42.5929V44.5243C124.816 44.7082 124.683 44.9708 124.683 45.2647V46.6008C124.683 47.0499 124.991 47.4278 125.41 47.554C125.643 48.2628 125.98 48.9383 126.425 49.5525C126.537 49.7074 126.642 49.8385 126.733 49.9406V51.1923C126.733 51.6531 126.467 52.0747 126.045 52.2804L122.654 53.7073C122.459 53.803 121.568 54.1983 121.405 54.3328C119.361 52.2557 118 50.0972 118 46.8851C118 40.44 123.517 35.9985 128.216 36Z" fill="url(#paint4_linear_256_66366)"/>
<path d="M128.616 57.4999C122.783 57.4999 118.069 52.6955 118.069 46.7863C118.069 40.8771 122.783 36.0728 128.616 36.0728C134.449 36.0728 139.164 40.8771 139.164 46.7863C139.164 52.6955 134.449 57.4999 128.616 57.4999Z" stroke="#333333"/>
</g>
<rect x="186.5" y="5.5" width="24" height="25" rx="2.5" stroke="#333333"/>
<rect x="190.5" y="9.5" width="16" height="3" rx="0.5" fill="#D9F4FF" stroke="#333333"/>
<rect x="190.5" y="38.5" width="16" height="3" rx="0.5" fill="#D9F4FF" stroke="#333333"/>
<rect x="161.5" y="9.5" width="16" height="3" rx="0.5" fill="#D9F4FF" stroke="#333333"/>
<rect x="161.5" y="38.5" width="16" height="3" rx="0.5" fill="#D9F4FF" stroke="#333333"/>
<path d="M196.247 45.2442L203.168 48.993C203.514 49.1804 203.518 49.6758 203.175 49.8686L196.295 53.7325L196.54 54.1685L196.295 53.7325C195.962 53.9191 195.552 53.6803 195.55 53.2992L195.509 45.6865C195.507 45.3065 195.913 45.0632 196.247 45.2442Z" fill="url(#paint5_linear_256_66366)" stroke="#333333" stroke-linecap="round" stroke-linejoin="round"/>
<rect x="186.5" y="34.5" width="24" height="24" rx="2.5" stroke="#333333"/>
<rect x="157.5" y="5.5" width="24" height="24" rx="2.5" stroke="#333333"/>
<rect x="157.5" y="34.5" width="24" height="24" rx="2.5" stroke="#333333"/>
<path d="M192.437 23.0901C192.44 23.083 192.444 23.0757 192.447 23.0684C192.52 22.8969 192.832 22.4893 193.42 22.5002C194.064 22.5122 194.389 22.84 194.458 22.9389L196.199 26.5H190.796L191.444 25.1535L192.437 23.0901Z" stroke="#333333" stroke-linecap="round" stroke-linejoin="round"/>
<path d="M198.779 19.3361C198.783 19.3272 198.786 19.3182 198.789 19.3091C198.864 19.0998 199.053 18.7565 199.36 18.4755C199.659 18.2024 200.054 17.9993 200.568 18.0107C201.681 18.0355 202.285 18.7427 202.43 19.0317L202.43 19.0328L206.189 26.5H195.754L198.779 19.3361Z" stroke="#333333" stroke-linecap="round" stroke-linejoin="round"/>
<circle cx="192" cy="18" r="1.5" fill="url(#paint6_linear_256_66366)" stroke="#333333"/>
<circle cx="166.5" cy="23.5" r="3" fill="url(#paint7_linear_256_66366)" stroke="#333333"/>
<path fill-rule="evenodd" clip-rule="evenodd" d="M169 17.5C169 16.1193 170.119 15 171.5 15H175.5C175.776 15 176 15.2239 176 15.5C176 15.7761 175.776 16 175.5 16H171.5C170.672 16 170 16.6716 170 17.5V19H173.7C173.976 19 174.2 19.2239 174.2 19.5C174.2 19.7761 173.976 20 173.7 20H170V23.5C170 23.7761 169.776 24 169.5 24C169.224 24 169 23.7761 169 23.5V17.5Z" fill="#333333"/>
<path fill-rule="evenodd" clip-rule="evenodd" d="M169.396 45.5C169.396 45.2239 169.62 45 169.896 45H177.5C177.776 45 178 45.2239 178 45.5C178 45.7761 177.776 46 177.5 46H169.896C169.62 46 169.396 45.7761 169.396 45.5ZM161 48.5186C161 48.2425 161.224 48.0186 161.5 48.0186H177.5C177.776 48.0186 178 48.2425 178 48.5186C178 48.7948 177.776 49.0186 177.5 49.0186H161.5C161.224 49.0186 161 48.7948 161 48.5186ZM161 51.5932C161 51.317 161.224 51.0932 161.5 51.0932H169.927C170.203 51.0932 170.427 51.317 170.427 51.5932C170.427 51.8693 170.203 52.0932 169.927 52.0932H161.5C161.224 52.0932 161 51.8693 161 51.5932ZM161 54.5C161 54.2239 161.224 54 161.5 54H168.219C168.495 54 168.719 54.2239 168.719 54.5C168.719 54.7761 168.495 55 168.219 55H161.5C161.224 55 161 54.7761 161 54.5ZM170.281 54.5C170.281 54.2239 170.505 54 170.781 54H177.5C177.776 54 178 54.2239 178 54.5C178 54.7761 177.776 55 177.5 55H170.781C170.505 55 170.281 54.7761 170.281 54.5Z" fill="#333333"/>
<path fill-rule="evenodd" clip-rule="evenodd" d="M161.5 45C161.224 45 161 45.2239 161 45.5C161 45.7761 161.224 46 161.5 46H167.5C167.776 46 168 45.7761 168 45.5C168 45.2239 167.776 45 167.5 45H161.5ZM172.5 51C172.224 51 172 51.2239 172 51.5C172 51.7761 172.224 52 172.5 52H177.5C177.776 52 178 51.7761 178 51.5C178 51.2239 177.776 51 177.5 51H172.5Z" fill="#FF6F3D"/>
<path fill-rule="evenodd" clip-rule="evenodd" d="M240.5 20C239.119 20 238 21.1193 238 22.5V53H284V50H285V54H237V22.5C237 20.567 238.567 19 240.5 19H241.25V20H240.5Z" fill="#333333"/>
<path d="M243.5 9C243.5 7.61929 244.619 6.5 246 6.5H285C286.381 6.5 287.5 7.61929 287.5 9V13.5017L287.5 45C287.5 46.3807 286.381 47.5 285 47.5H246C244.619 47.5 243.5 46.3807 243.5 45V13.5017V9Z" stroke="#333333"/>
<path d="M233.5 54.2C233.5 56.5748 235.425 58.5 237.8 58.5H284.2C286.575 58.5 288.5 56.5748 288.5 54.2C288.5 53.8134 288.187 53.5 287.8 53.5H234.2C233.813 53.5 233.5 53.8134 233.5 54.2Z" stroke="#333333"/>
<path d="M278.155 18.6771C277.189 17.0338 274.812 17.0338 273.846 18.6771L267.342 29.7324C266.362 31.399 267.564 33.5 269.497 33.5H282.504C284.437 33.5 285.639 31.399 284.658 29.7324L278.155 18.6771Z" fill="url(#paint8_linear_256_66366)" stroke="#333333"/>
<path d="M275.291 29.7116C275.097 29.5173 275 29.2827 275 29.0078C275 28.7328 275.097 28.4992 275.291 28.307C275.486 28.1127 275.723 28.0155 276 28.0155C276.277 28.0155 276.513 28.1127 276.706 28.307C276.902 28.4992 277 28.7328 277 29.0078C277 29.2827 276.902 29.5173 276.706 29.7116C276.513 29.9039 276.277 30 276 30C275.723 30 275.486 29.9039 275.291 29.7116ZM275.291 22.2915C275.486 22.0972 275.723 22 276 22C276.277 22 276.513 22.0972 276.706 22.2915C276.902 22.4837 277 22.7173 277 22.9922C277 23.4305 276.922 24.0434 276.766 24.831C276.609 25.6165 276.442 26.3266 276.263 26.9612H275.738C275.558 26.3266 275.391 25.6165 275.234 24.831C275.078 24.0434 275 23.4305 275 22.9922C275 22.7173 275.097 22.4837 275.291 22.2915Z" fill="white"/>
<path d="M262.787 36.3296V33.5796C262.787 32.8096 262.672 32.0396 262.212 31.2696C261.752 30.4996 261.177 29.8396 260.372 29.3996C259.567 28.8496 257.842 28.7396 257.037 28.7396L255.197 30.6096L255.887 32.0396V35.3396L254.737 36.5496L253.587 35.3396V32.0396L254.392 30.6096L252.437 28.7396C251.517 28.7396 249.792 28.8496 248.987 29.3996C248.182 29.8396 247.722 30.4996 247.262 31.2696C246.802 32.0396 246.687 32.6996 246.687 33.5796V36.3296C246.687 36.3296 249.677 37.5396 254.737 37.5396C259.797 37.5396 262.787 36.3296 262.787 36.3296ZM254.737 20.0496C252.552 20.0496 251.287 22.0296 251.632 24.2296C251.977 26.4296 253.127 27.9696 254.737 27.9696C256.347 27.9696 257.497 26.4296 257.842 24.2296C258.187 21.9196 256.922 20.0496 254.737 20.0496Z" fill="#9ADAF3" stroke="#333333"/>
<path d="M267.501 37.5H283.501M267.501 40.5H277.001" stroke="#333333" stroke-linecap="round" stroke-linejoin="round"/>
<circle cx="248" cy="11" r="1.5" fill="#9ADAF3" stroke="#333333"/>
<circle cx="253" cy="11" r="1.5" fill="#9ADAF3" stroke="#333333"/>
<circle cx="258" cy="11" r="1.5" fill="#9ADAF3" stroke="#333333"/>
<path d="M352 50.5H327C325.619 50.5 324.5 49.3807 324.5 48V12C324.5 11.1716 325.172 10.5 326 10.5H344.793L353.5 19.2071V49C353.5 49.8284 352.828 50.5 352 50.5Z" stroke="#333333"/>
<path d="M349.5 53.5V53.5C349.5 54.6046 348.605 55.5 347.5 55.5H322.5C320.843 55.5 319.5 54.1569 319.5 52.5V16.5C319.5 15.3954 320.395 14.5 321.5 14.5H321.75" stroke="#333333" stroke-linecap="round"/>
<path d="M345.5 17.3637V11.2071L352.793 18.5H346.558C346.128 18.5 345.89 18.3864 345.754 18.2437C345.614 18.0965 345.5 17.8326 345.5 17.3637Z" fill="url(#paint9_linear_256_66366)" stroke="#333333" stroke-linecap="round" stroke-linejoin="round"/>
<path d="M312.5 33.5L309.613 38.5H315.387L312.5 33.5ZM360 41.8125C360 41.5364 359.776 41.3125 359.5 41.3125C359.224 41.3125 359 41.5364 359 41.8125H360ZM356.5 61H315.5V62H356.5V61ZM313 58.5V38H312V58.5H313ZM359 41.8125V58.5H360V41.8125H359ZM315.5 61C314.119 61 313 59.8807 313 58.5H312C312 60.433 313.567 62 315.5 62V61ZM356.5 62C358.433 62 360 60.433 360 58.5H359C359 59.8807 357.881 61 356.5 61V62Z" fill="#333333"/>
<path d="M359.5 33.5L362.387 28.5L356.613 28.5L359.5 33.5ZM312 25.1875C312 25.4636 312.224 25.6875 312.5 25.6875C312.776 25.6875 313 25.4636 313 25.1875L312 25.1875ZM315.5 6L356.5 6L356.5 5L315.5 5L315.5 6ZM359 8.5L359 29L360 29L360 8.5L359 8.5ZM313 25.1875L313 8.5L312 8.5L312 25.1875L313 25.1875ZM356.5 6C357.881 6 359 7.11929 359 8.5L360 8.5C360 6.56701 358.433 5 356.5 5L356.5 6ZM315.5 5C313.567 5 312 6.567 312 8.5L313 8.5C313 7.11929 314.119 6 315.5 6L315.5 5Z" fill="#333333"/>
<rect x="329.5" y="25.5" width="19" height="4" rx="0.5" fill="#D9F4FF" stroke="#333333"/>
<rect x="329.5" y="29.5" width="19" height="4" fill="#D9F4FF" stroke="#333333"/>
<rect x="329.5" y="33.5" width="19" height="4" rx="0.5" fill="#D9F4FF" stroke="#333333"/>
<circle cx="312.5" cy="29.5" r="1.5" fill="url(#paint10_linear_256_66366)"/>
<circle cx="359.5" cy="37.5" r="1.5" fill="url(#paint11_linear_256_66366)"/>
<path fill-rule="evenodd" clip-rule="evenodd" d="M391.5 20C390.119 20 389 21.1193 389 22.5V53H435V45H436V54H388V22.5C388 20.567 389.567 19 391.5 19H420V20H391.5Z" fill="#333333"/>
<path d="M418.5 32.2071V53.5H393.5V25C393.5 24.1716 394.172 23.5 395 23.5H409.793L418.5 32.2071Z" fill="white" stroke="#333333"/>
<path d="M398 42H414V43H398V42Z" fill="#333333"/>
<path d="M398 45H414V46H398V45Z" fill="#333333"/>
<path d="M398 48H414V49H398V48Z" fill="#333333"/>
<path d="M398 42H399V48H398V45V42Z" fill="#333333"/>
<path d="M413 42H414V48H413V42Z" fill="#333333"/>
<path d="M408 42H409V48H408V42Z" fill="#333333"/>
<path d="M398 42H399V48H398V45V42Z" fill="#333333"/>
<path d="M403 42H404V48H403V42Z" fill="#333333"/>
<rect x="398" y="38" width="16" height="1" fill="#333333"/>
<rect x="398" y="35" width="16" height="1" fill="#333333"/>
<path d="M398 32H407V33H398V32Z" fill="#333333"/>
<path d="M410.488 30.3637V24.2071L417.781 31.5H411.546C411.116 31.5 410.878 31.3864 410.742 31.2437C410.602 31.0965 410.488 30.8326 410.488 30.3637Z" fill="url(#paint12_linear_256_66366)" stroke="#333333" stroke-linecap="round" stroke-linejoin="round"/>
<path d="M422.5 9C422.5 7.61929 423.619 6.5 425 6.5H439C440.381 6.5 441.5 7.61929 441.5 9L441.5 13.5017L441.5 40C441.5 41.3807 440.381 42.5 439 42.5H425C423.619 42.5 422.5 41.3807 422.5 40V13.5017V9Z" stroke="#333333"/>
<rect x="425" y="19" width="14" height="1" fill="#333333"/>
<rect x="425" y="25" width="11" height="1" fill="#333333"/>
<rect x="425" y="16" width="14" height="1" fill="#333333"/>
<path d="M429 9.5C429 9.22386 429.224 9 429.5 9H434.5C434.776 9 435 9.22386 435 9.5C435 9.77614 434.776 10 434.5 10H429.5C429.224 10 429 9.77614 429 9.5Z" fill="#333333"/>
<path d="M425 22H439V23H425V22Z" fill="#333333"/>
<rect x="425" y="33" width="14" height="1" fill="#333333"/>
<rect x="425" y="30" width="14" height="1" fill="#333333"/>
<path d="M425 36H439V37H425V36Z" fill="#333333"/>
<rect x="431" y="30" width="7" height="1" transform="rotate(90 431 30)" fill="#333333"/>
<rect x="439" y="30" width="7" height="1" transform="rotate(90 439 30)" fill="#333333"/>
<path d="M426 30L426 37L425 37L425 30L426 30Z" fill="#333333"/>
<path d="M382.5 54.2C382.5 56.5748 384.425 58.5 386.8 58.5H437.2C439.575 58.5 441.5 56.5748 441.5 54.2C441.5 53.8134 441.187 53.5 440.8 53.5H383.2C382.813 53.5 382.5 53.8134 382.5 54.2Z" stroke="#333333"/>
<defs>
<linearGradient id="paint0_linear_256_66366" x1="45.0039" y1="9.60937" x2="55.0041" y2="20" gradientUnits="userSpaceOnUse">
<stop stop-color="#FFC671"/>
<stop offset="0.59375" stop-color="#FF7541"/>
<stop offset="1" stop-color="#FF6F3D"/>
</linearGradient>
<linearGradient id="paint1_linear_256_66366" x1="115" y1="4.60937" x2="125" y2="15" gradientUnits="userSpaceOnUse">
<stop stop-color="#FFC671"/>
<stop offset="0.59375" stop-color="#FF7541"/>
<stop offset="1" stop-color="#FF6F3D"/>
</linearGradient>
<linearGradient id="paint2_linear_256_66366" x1="75.1773" y1="15.3166" x2="88.5692" y2="7.39278" gradientUnits="userSpaceOnUse">
<stop stop-color="#FF8E3D"/>
<stop offset="1" stop-color="#FF6F3D"/>
</linearGradient>
<linearGradient id="paint3_linear_256_66366" x1="108.5" y1="36" x2="108.5" y2="54.3328" gradientUnits="userSpaceOnUse">
<stop stop-color="#FF8E3D"/>
<stop offset="1" stop-color="#FF6F3D"/>
</linearGradient>
<linearGradient id="paint4_linear_256_66366" x1="128.5" y1="36" x2="128.5" y2="54.3328" gradientUnits="userSpaceOnUse">
<stop stop-color="#FF8E3D"/>
<stop offset="1" stop-color="#FF6F3D"/>
</linearGradient>
<linearGradient id="paint5_linear_256_66366" x1="195" y1="43.5703" x2="205.99" y2="53.9517" gradientUnits="userSpaceOnUse">
<stop stop-color="#FF8E3D"/>
<stop offset="1" stop-color="#FF6F3D"/>
</linearGradient>
<linearGradient id="paint6_linear_256_66366" x1="190" y1="15.8437" x2="194" y2="20" gradientUnits="userSpaceOnUse">
<stop stop-color="#FF8E3D"/>
<stop offset="1" stop-color="#FF6F3D"/>
</linearGradient>
<linearGradient id="paint7_linear_256_66366" x1="163" y1="19.7266" x2="170" y2="27" gradientUnits="userSpaceOnUse">
<stop stop-color="#FF8E3D"/>
<stop offset="1" stop-color="#FF6F3D"/>
</linearGradient>
<linearGradient id="paint8_linear_256_66366" x1="266" y1="15.3359" x2="282.675" y2="35.72" gradientUnits="userSpaceOnUse">
<stop stop-color="#FFC671"/>
<stop offset="0.59375" stop-color="#FF7541"/>
<stop offset="1" stop-color="#FF6F3D"/>
</linearGradient>
<linearGradient id="paint9_linear_256_66366" x1="345" y1="9.64844" x2="354" y2="19" gradientUnits="userSpaceOnUse">
<stop stop-color="#FFC671"/>
<stop offset="0.59375" stop-color="#FF7541"/>
<stop offset="1" stop-color="#FF6F3D"/>
</linearGradient>
<linearGradient id="paint10_linear_256_66366" x1="311" y1="27.8828" x2="314" y2="31" gradientUnits="userSpaceOnUse">
<stop stop-color="#FF8E3D"/>
<stop offset="1" stop-color="#FF6F3D"/>
</linearGradient>
<linearGradient id="paint11_linear_256_66366" x1="358" y1="35.8828" x2="361" y2="39" gradientUnits="userSpaceOnUse">
<stop stop-color="#FF8E3D"/>
<stop offset="1" stop-color="#FF6F3D"/>
</linearGradient>
<linearGradient id="paint12_linear_256_66366" x1="409.988" y1="22.6484" x2="418.988" y2="32" gradientUnits="userSpaceOnUse">
<stop stop-color="#FFC671"/>
<stop offset="0.59375" stop-color="#FF7541"/>
<stop offset="1" stop-color="#FF6F3D"/>
</linearGradient>
<clipPath id="clip0_256_66366">
<rect width="64" height="64" fill="white" transform="translate(76)"/>
</clipPath>
</defs>
</svg>
