<svg width="480" height="388" viewBox="0 0 480 388" fill="none" xmlns="http://www.w3.org/2000/svg">
<path fill-rule="evenodd" clip-rule="evenodd" d="M471.244 98.3162C468.136 103.714 464.913 109.312 461.937 114.08C375.126 261.14 261.539 265.668 127.432 197.74C90.2822 179.149 49.0126 158.81 28.2634 148.641C24.7462 146.879 22.0109 143.78 20.6204 139.982C19.2298 136.184 19.2896 131.976 20.7875 128.222L68.0073 16.9944C68.8298 15.0485 70.019 13.2943 71.5044 11.8358C72.9897 10.3772 74.741 9.24395 76.6545 8.50311C78.568 7.76226 80.6048 7.42889 82.6443 7.52276C84.6837 7.61662 86.6843 8.13582 88.5276 9.04957L186.858 57.7515C258.03 93.0266 297.545 100.971 337.137 33.917C342.782 24.3037 347.893 15.4054 351.783 8.41397C352.818 6.60073 354.189 5.0202 355.816 3.76452C357.444 2.50884 359.295 1.60314 361.261 1.10027C363.228 0.597401 365.272 0.507406 367.272 0.835539C369.273 1.16367 371.191 1.90336 372.914 3.01147L472.083 66.5703C475.462 68.7568 477.887 72.2313 478.842 76.2532C479.797 80.2751 479.205 84.5264 477.194 88.1008C475.333 91.2138 473.314 94.7205 471.244 98.3162ZM9.1162 380.458C11.892 375.638 14.7146 370.737 17.363 366.494C104.249 219.352 217.835 214.903 351.712 282.277C388.785 300.948 430.054 321.207 450.88 331.377C454.535 333.154 457.366 336.367 458.752 340.313C460.139 344.259 459.969 348.616 458.279 352.431L411.06 463.661C410.237 465.607 409.048 467.361 407.563 468.82C406.077 470.278 404.326 471.411 402.413 472.152C400.499 472.893 398.462 473.227 396.423 473.133C394.384 473.039 392.383 472.52 390.54 471.606L292.287 422.903C221.039 387.389 181.524 379.126 142.238 446.738C137.881 454.198 133.805 461.317 130.337 467.372C129.372 469.056 128.455 470.658 127.592 472.162C126.557 473.975 125.186 475.556 123.559 476.812C121.932 478.067 120.081 478.973 118.114 479.476C116.147 479.979 114.104 480.069 112.103 479.741C110.103 479.413 108.185 478.673 106.462 477.565L7.29366 414.005C3.88145 411.83 1.42579 408.347 0.455566 404.305C-0.514656 400.263 0.0781904 395.986 2.10642 392.394C4.30975 388.804 6.69519 384.662 9.1162 380.458Z" fill="url(#paint0_linear_9193_74835)"/>
<defs>
<linearGradient id="paint0_linear_9193_74835" x1="3.64579" y1="25.8686" x2="560.395" y2="168.83" gradientUnits="userSpaceOnUse">
<stop stop-color="white" stop-opacity="0"/>
<stop offset="0.5" stop-color="white" stop-opacity="0.15"/>
<stop offset="1" stop-color="white" stop-opacity="0"/>
</linearGradient>
</defs>
</svg>
