<svg width="111" height="38" viewBox="0 0 111 38" fill="none" xmlns="http://www.w3.org/2000/svg">
<path d="M13.3327 0.782516C14.3095 0.782516 15.2879 0.782516 16.2655 0.782516C21.6772 1.10495 26.3177 2.46612 30.2873 4.48577C34.2026 6.47734 37.6023 9.22267 39.7951 12.8579C40.9404 14.7542 41.8893 16.9873 41.826 19.7939C41.7643 22.5401 40.7596 24.7129 39.4095 26.3982C36.7563 29.705 32.5911 31.5843 27.7097 32.5345C28.1981 33.6311 28.9027 34.6793 29.3541 35.7044C22.5118 33.6907 15.6834 31.6617 8.8534 29.6335C11.1506 32.3712 14.3424 34.5882 18.1681 35.9707C21.9132 37.3216 26.7066 38.1707 31.7393 37.5709C27.972 38.2107 23.8009 37.901 20.4562 37.2051C13.655 35.7878 8.24911 32.8485 4.30668 28.4987C2.30874 26.2952 0.694779 23.5967 0.278748 19.9283C0.278748 19.3728 0.278748 18.8164 0.278748 18.2609C0.406188 16.4624 1.10174 14.7474 1.92229 13.4245C4.39299 9.44216 8.7202 7.26683 13.8811 6.25275C13.5473 5.385 12.9702 4.48407 12.5928 3.55081C19.5338 5.42924 26.5512 7.2294 33.479 9.12143C33.5267 9.02445 33.3927 8.93257 33.3508 8.88833C28.4793 3.59675 20.5434 0.221031 10.3687 1.08368C11.306 0.928843 12.3305 0.865889 13.3327 0.782516ZM18.6194 14.6563C18.1286 13.9136 17.7265 13.0833 17.2661 12.2555C17.1461 12.0412 16.9093 11.529 16.7506 11.489C16.6651 11.4678 16.2302 11.5877 15.9769 11.6558C12.3379 12.6324 9.02774 14.459 7.17779 17.2587C6.14429 18.8207 5.43474 20.9858 5.7258 23.4614C5.98315 25.647 6.95252 27.4233 8.04686 28.9317C13.091 27.3697 18.1771 25.8512 23.2608 24.3309C23.8511 25.3075 24.2885 26.4458 24.9372 27.3646C26.936 26.878 28.883 26.1651 30.5767 25.2293C32.2408 24.3105 33.7824 23.1246 34.8324 21.6281C35.9193 20.0721 36.7021 17.9129 36.4431 15.4245C36.1964 13.062 35.2369 11.3801 34.1549 9.78841C34.1532 9.76884 34.1499 9.74843 34.1228 9.75523C28.9652 11.3963 23.8116 13.0476 18.6194 14.6563ZM27.13 31.9007C27.5041 31.6898 27.7738 31.2925 28.0969 30.9658C28.9981 30.0547 29.9534 29.1044 30.8365 28.2307C30.8883 28.1779 31.0412 28.1005 30.9977 27.9976C29.0745 27.9976 27.1506 27.9976 25.2258 27.9976C25.8408 29.3196 26.5306 30.5625 27.13 31.9007Z" fill="black"/>
<path d="M110.453 14.2898C110.453 14.8895 110.453 15.491 110.453 16.0908C109.077 16.0908 107.702 16.0908 106.325 16.0908C106.325 17.3005 106.325 18.8837 106.325 20.427C106.325 22.2586 106.121 24.2791 107.228 24.8959C108.088 25.3749 109.541 25.0354 110.453 24.73C110.453 25.3629 110.453 25.9976 110.453 26.6305C108.589 27.2073 106.263 27.0738 105.23 25.9644C104.295 24.9571 104.295 23.3654 104.295 21.5287C104.295 19.7175 104.295 17.8373 104.295 16.0908C103.832 16.0908 103.37 16.0908 102.907 16.0908C102.927 15.5029 102.864 14.8249 102.939 14.2906C103.39 14.2906 103.842 14.2906 104.292 14.2906C104.292 13.1115 104.292 11.9332 104.292 10.7567C104.968 10.7567 105.646 10.7567 106.324 10.7567C106.324 11.9358 106.324 13.114 106.324 14.2906C107.703 14.2898 109.078 14.2898 110.453 14.2898Z" fill="black"/>
<path d="M56.4288 26.696C55.2046 26.7743 53.8405 26.708 52.5604 26.7284C52.5604 26.3073 52.5604 25.8836 52.5604 25.4633C51.5704 26.2613 50.2607 27.0602 48.4666 27.0636C46.3116 27.067 44.5776 25.608 44.4066 23.5943C44.016 19.0037 48.6245 18.7561 52.5941 18.4924C52.59 16.1869 49.0668 16.4438 47.3394 16.9917C46.6981 17.1942 46.1028 17.5234 45.4697 17.5251C45.4697 16.5136 45.4697 15.5021 45.4697 14.4914C49.2395 13.6041 55.4792 13.0758 56.3014 17.0929C56.5826 18.4677 56.4296 20.1122 56.4296 21.829C56.4288 23.4122 56.4288 25.0005 56.4288 26.696ZM52.465 20.8932C51.0516 21.122 49.1334 20.9714 48.5324 21.994C48.331 22.3369 48.2298 23.0183 48.4362 23.5279C48.7042 24.1881 49.7715 24.3991 50.7565 24.2944C51.2835 24.2391 52.4551 23.7278 52.5604 23.3926C52.6648 23.0617 52.5604 22.5436 52.5604 22.1591C52.5604 21.7158 52.5604 21.3194 52.5604 20.8923C52.5488 20.8362 52.5201 20.9 52.465 20.8932Z" fill="black"/>
<path d="M69.29 26.7299C68.023 26.7086 66.6688 26.775 65.4536 26.6967C65.4536 26.2867 65.4536 25.8741 65.4536 25.464C64.3436 26.3496 63.0881 27.0608 61.3599 27.0643C58.9772 27.0694 57.1042 25.4274 57.299 22.6294C57.3665 21.657 57.7562 20.9066 58.298 20.3613C59.8232 18.8266 62.6433 18.7211 65.4856 18.4939C65.4791 17.8448 65.2143 17.3123 64.7761 17.0587C63.981 16.601 62.5562 16.5109 61.3936 16.6921C60.2458 16.8699 59.2921 17.4782 58.3622 17.5249C58.3622 16.5143 58.3622 15.5019 58.3622 14.4904C62.2503 13.5903 68.9603 12.9837 69.29 17.6602C69.4766 20.3009 69.1518 23.4631 69.29 26.7299ZM65.3574 20.893C63.9457 21.1202 62.0267 20.9713 61.4257 21.9939C61.1724 22.4235 61.1683 23.2138 61.3615 23.5932C61.6715 24.2075 62.7444 24.3912 63.6497 24.2943C64.1898 24.2373 65.3541 23.7089 65.4536 23.3925C65.558 23.0615 65.4536 22.5434 65.4536 22.1589C65.4536 21.7157 65.4536 21.3192 65.4536 20.8922C65.4412 20.836 65.4141 20.8998 65.3574 20.893Z" fill="black"/>
<path d="M90.8233 26.7299C90.1557 26.7299 89.4905 26.7299 88.8228 26.7299C88.7661 25.3262 88.7916 23.6026 88.7916 21.8926C88.7916 19.6807 89.0621 17.0928 87.7918 16.3229C86.1211 15.3096 83.9086 16.624 82.8586 17.4901C82.8389 20.5578 82.903 23.7132 82.8274 26.7257C82.1598 26.7069 81.4099 26.7716 80.7966 26.6925C80.7966 22.5681 80.7966 18.4463 80.7966 14.3202C81.4099 14.2666 82.2461 14.2666 82.8594 14.3202C82.8594 14.7541 82.8594 15.1888 82.8594 15.621C84.0303 14.8137 85.2077 13.8362 87.3725 13.9867C89.7824 14.1535 90.783 16.0438 90.852 18.5892C90.9211 21.0742 90.8315 24.1598 90.8233 26.7299Z" fill="black"/>
<path d="M102.555 20.7598C99.6114 20.7598 96.668 20.7598 93.7237 20.7598C93.7549 22.9667 94.6503 24.2776 96.2067 24.8612C97.9136 25.5027 100.001 24.9761 101.397 24.1951C101.722 24.0122 101.95 23.7757 102.3 23.6617C102.3 24.4274 102.3 25.1964 102.3 25.963C100.57 26.8086 98.226 27.2637 96.1434 26.7958C94.1923 26.3577 92.7387 25.1922 92.0834 23.3946C91.3451 21.3758 91.5892 18.6024 92.4049 16.9919C93.2443 15.3322 94.8164 14.1513 96.8209 13.9905C101.114 13.6434 102.785 16.3301 102.555 20.7598ZM96.9779 15.7235C95.0573 15.8698 93.949 17.2625 93.7229 19.1256C96.0127 19.1256 98.3008 19.1256 100.591 19.1256C100.548 16.7673 99.3122 15.5457 96.9779 15.7235Z" fill="black"/>
<path d="M79.3797 14.2555C79.3797 15.5341 79.3797 16.8136 79.3797 18.0923C77.8159 17.8405 75.7727 17.8269 74.5444 18.3926C74.5444 21.1609 74.5444 23.9292 74.5444 26.6975C73.3078 26.7758 71.9322 26.7111 70.6439 26.7307C70.6439 22.5731 70.6439 18.4173 70.6439 14.258C71.9429 14.258 73.2437 14.258 74.5444 14.258C74.5444 14.8467 74.5444 15.4371 74.5444 16.025C75.6848 15.1071 77.1154 13.905 79.3797 14.2555Z" fill="black"/>
</svg>
