<svg width="92" height="43" viewBox="0 0 92 43" fill="none" xmlns="http://www.w3.org/2000/svg">
<path fill-rule="evenodd" clip-rule="evenodd" d="M43.1582 9.53834C42.0567 9.53834 41.0473 9.10724 40.3243 8.40547L38.3746 6.29325C37.5425 5.48662 36.397 4.99769 35.1351 4.99769C32.6032 4.99769 30.5465 6.97498 30.5465 9.41493C30.5465 11.8595 32.6032 13.8414 35.1351 13.8414C36.5588 13.8414 37.8404 13.2145 38.6799 12.232L38.6751 9.93858C37.3049 12.532 35.1351 12.2513 35.1351 12.2513C33.5131 12.2513 32.1977 10.9834 32.1977 9.41493C32.1977 7.85257 33.5131 6.58788 35.1351 6.58788C35.9408 6.58788 36.6753 6.90092 37.2094 7.4153L39.1571 9.52751C40.1794 10.52 41.5936 11.1285 43.1582 11.1285C46.2886 11.1285 48.8219 8.67768 48.8219 5.66554C48.8219 2.64873 46.2886 0.20723 43.1582 0.20723C41.3181 0.20723 39.715 1.15732 38.6799 2.46446L38.6751 5.32854C40.0663 1.51281 43.1582 1.79586 43.1582 1.79586C45.3773 1.79586 47.1734 3.53099 47.1734 5.66554C47.1734 7.80626 45.3773 9.53834 43.1582 9.53834ZM72.1307 18.3776C71.034 16.6294 68.5426 16.8399 68.5426 16.8399C64.4604 16.8399 64.6499 19.9207 64.6499 19.9207C64.6499 19.9207 64.3724 21.4661 66.4237 22.5203L70.5059 24.6657C74.446 26.757 73.9789 29.7291 73.9789 29.7291C73.9789 29.7291 74.1549 35.2815 65.9159 35.2815C65.9159 35.2815 63.5194 35.3539 62.1654 34.8512L61.001 31.2552H61.0416C62.3008 33.0459 65.9498 33.3042 65.9498 33.3042C70.5804 33.1029 70.6075 29.9905 70.6075 29.9905C70.6075 29.9905 70.8174 28.6502 69.003 27.6794L64.9411 25.5348C60.7031 23.293 61.1905 20.2739 61.1905 20.2739C61.1905 20.2739 61.089 14.8118 68.3802 14.8118C68.3802 14.8118 71.65 14.895 72.1713 15.4001V18.3776H72.1307ZM22.6155 33.3102C20.5053 33.3102 18.7953 31.5512 18.7953 29.5169L18.7919 17.068C18.7919 16.219 19.4479 15.3036 20.3171 15.2519V15.2088H13.7984V15.2519C14.6656 15.2989 15.3237 16.2136 15.3237 17.068L15.3149 29.1413C15.3149 33.0273 18.5976 35.2914 22.6324 35.2914C26.6605 35.2914 29.9081 33.0273 29.9081 29.1413V17.068C29.9081 16.2136 30.5682 15.2989 31.4394 15.2519V15.2088L24.9119 15.2149V15.2519C25.7845 15.2989 26.4398 16.2136 26.4398 17.068V29.4929C26.4398 31.5281 24.7237 33.3102 22.6155 33.3102ZM10.0566 25.2194H5.44702L5.44364 32.9226C5.44364 33.774 6.10236 34.6924 6.97364 34.741V34.778H0.450821V34.741C1.32076 34.6924 1.97405 33.774 1.97405 32.9226V17.0683C1.97405 16.2138 1.32076 15.2992 0.450821 15.2522V15.2144L13.3793 15.209L13.3854 18.6592H13.3448C13.2994 17.8225 12.4823 17.1917 11.6049 17.1917H5.44364L5.44702 23.2438H11.8324V26.6916H11.7904C11.7464 25.8526 10.93 25.2194 10.0566 25.2194ZM41.3689 17.027C41.3689 16.1718 40.7129 15.2958 39.8429 15.2517V15.2148H46.3556V15.2517C45.4918 15.2996 44.8324 16.1764 44.8324 17.027V32.9153C44.8324 33.7682 45.4918 34.6859 46.3556 34.7367V34.773H39.8429V34.7367C40.7129 34.6859 41.3689 33.7682 41.3689 32.9153V17.027ZM38.8031 15.2523C37.9325 15.2993 37.2778 16.2139 37.2778 17.0684L37.2825 35.7552C37.2825 41.3376 31.4577 42.4041 30.8958 42.4951L30.8884 42.4566C33.7365 40.4384 33.8096 36.9312 33.8096 36.9312L33.8042 17.0684C33.8042 16.2139 33.1529 15.2993 32.2803 15.2523V15.2145H38.8031V15.2523ZM46.3299 18.7343H46.3685C47.2519 17.2096 48.6134 17.1919 48.6134 17.1919H52.1446L52.1473 32.9229C52.1473 33.7742 51.4906 34.6857 50.6207 34.7366V34.7729H57.1489V34.7366C56.2756 34.6857 55.6189 33.768 55.6189 32.9229V17.1919L58.5706 17.185C59.471 17.185 60.1751 17.8744 60.2021 18.7343H60.2428L61.3259 15.2085H47.4171L46.3299 18.7343ZM82.6579 33.3102C80.5457 33.3102 78.8397 31.5512 78.8397 29.5169L78.833 17.068C78.833 16.219 79.4897 15.3036 80.363 15.2519V15.2088H73.8368V15.2519C74.7101 15.2989 75.3668 16.2136 75.3668 17.068L75.36 29.1413C75.36 33.0273 78.6434 35.2914 82.6715 35.2914C86.7063 35.2914 89.9559 33.0273 89.9559 29.1413V17.068C89.9559 16.2136 90.6126 15.2989 91.4791 15.2519V15.2088L84.9597 15.2149V15.2519C85.8262 15.2989 86.4829 16.2136 86.4829 17.068V29.4929C86.4829 31.5281 84.7634 33.3102 82.6579 33.3102Z" fill="#E60012"/>
</svg>
