<svg width="117" height="15" viewBox="0 0 117 15" fill="none" xmlns="http://www.w3.org/2000/svg">
<path fill-rule="evenodd" clip-rule="evenodd" d="M56.1723 9.49254H48.8072L50.4374 11.9767H57.8898L59.4254 14.461H62.6786L53.9526 1.08447C53.5887 0.556183 52.9555 0.241425 52.2787 0.241425C51.5801 0.241425 50.9542 0.567463 50.5758 1.10696L41.8789 14.461H45.1321L52.2787 3.3439L56.1723 9.49254ZM82.5976 0.376352V11.9767H95.4573L93.8344 14.461H81.244C80.8583 14.461 80.5017 14.3148 80.2397 14.0562C79.9777 13.7977 79.8394 13.4605 79.8394 13.112V0.376352H82.5976ZM41.7915 5.14237C41.7915 7.77275 39.6156 9.89718 36.9301 9.89718H35.6711L41.2167 14.461H37.2066L28.9682 7.41301L36.7481 7.42429C38.029 7.42429 39.0624 6.40134 39.0624 5.14237C39.0624 3.88348 38.029 2.86052 36.7481 2.86052H27.6146V14.461H24.8563V0.376352H36.9301C39.6156 0.376352 41.7915 2.51207 41.7915 5.14237ZM0.694397 7.42429C0.694397 11.3136 3.91113 14.461 7.8702 14.461H16.2104C20.1768 14.461 23.3863 11.3136 23.3863 7.42429C23.3863 3.53494 20.1768 0.376352 16.2104 0.376352H7.8702C3.91113 0.376352 0.694397 3.53494 0.694397 7.42429ZM20.6716 7.42429C20.6716 9.94216 18.5975 11.9767 16.0285 11.9767H8.05214C5.49039 11.9767 3.40896 9.94216 3.40896 7.42429C3.40896 4.90635 5.49039 2.86052 8.05214 2.86052H16.0285C18.5975 2.86052 20.6716 4.90635 20.6716 7.42429ZM61.2594 7.42429C61.2594 11.3136 64.4761 14.461 68.4425 14.461H76.9501L78.5803 11.9767H68.6244C66.0554 11.9767 63.9739 9.94216 63.9739 7.42429C63.9739 4.90635 66.0554 2.86052 68.6244 2.86052H76.7318L78.3474 0.376352H68.4425C64.4761 0.376352 61.2594 3.53494 61.2594 7.42429ZM97.7279 8.6607C98.2737 10.5829 100.071 11.9767 102.196 11.9767H112.145L110.522 14.461H102.007C98.0481 14.461 94.8314 11.3136 94.8314 7.42429C94.8314 3.53494 98.0481 0.376352 102.007 0.376352H111.927L110.289 2.86052H102.196C100.071 2.86052 98.2737 4.26563 97.7279 6.17653H111.148L109.525 8.6607H97.7279ZM114.67 0.634857C113.972 0.634857 113.404 1.18563 113.404 1.87134C113.404 2.56825 113.972 3.11903 114.67 3.11903C115.376 3.11903 115.937 2.56825 115.937 1.87134C115.937 1.18563 115.376 0.634857 114.67 0.634857ZM116.279 1.88254C116.279 2.75936 115.558 3.46748 114.67 3.46748C113.783 3.46748 113.062 2.75936 113.062 1.88254C113.062 1.0058 113.783 0.297607 114.67 0.297607C115.558 0.297607 116.279 1.0058 116.279 1.88254ZM114.991 0.994519C114.874 0.949616 114.772 0.938337 114.518 0.938337H114.059V2.71439H114.416V2.03996H114.67L115.034 2.71439H115.435L115.02 1.9837C115.049 1.97053 115.063 1.96122 115.078 1.9535C115.085 1.94804 115.092 1.94339 115.1 1.9388C115.26 1.83757 115.311 1.70271 115.318 1.63525C115.34 1.56786 115.34 1.5116 115.34 1.48911C115.34 1.37674 115.311 1.09568 114.991 0.994519ZM114.678 1.74463C114.663 1.74558 114.656 1.7466 114.641 1.74769H114.416V1.23061H114.518C114.692 1.23061 114.772 1.23061 114.852 1.2643C114.932 1.30928 114.991 1.38795 114.991 1.4779C114.991 1.54537 114.976 1.59027 114.94 1.63525C114.881 1.72666 114.78 1.73553 114.678 1.74463Z" fill="#F80000"/>
</svg>
