<svg width="70" height="45" viewBox="0 0 70 45" fill="none" xmlns="http://www.w3.org/2000/svg">
<path fill-rule="evenodd" clip-rule="evenodd" d="M25.4978 40.3377C25.4978 42.986 24.3027 44.1871 19.6343 44.1871C14.9705 44.1871 13.7753 42.986 13.7753 40.3377V33.6286H17.4728V39.92C17.4728 40.993 18.3178 41.6274 19.6343 41.6274C20.8994 41.6274 21.8004 40.9961 21.8004 39.9367V33.6286H25.4978V40.3377ZM26.5062 33.6288H38.1821V35.8228L32.2624 41.2984H38.1587V43.9237H26.3101V41.7328L32.1457 36.2437H26.5062V33.6288ZM44.956 44.1871C49.6245 44.1871 50.8196 42.986 50.8196 40.3377V33.6286H47.1222V39.9367C47.1222 40.9961 46.2212 41.6274 44.956 41.6274C43.6395 41.6274 42.7899 40.993 42.7899 39.92V33.6286H39.0924V40.3377C39.0924 42.986 40.2876 44.1871 44.956 44.1871ZM65.4226 33.6288H69.2787V43.9237H65.4226V33.6288ZM64.8344 33.6288H59.7644L55.6561 37.1813V33.6288H51.8V43.9237H55.6561V40.2723L59.4703 43.9237H64.6523L59.0128 38.6419L64.8344 33.6288ZM6.22637 35.6515C5.82955 35.6515 4.65777 35.6775 4.65777 36.4734C4.65777 36.9823 5.79689 37.1203 7.17876 37.2885C7.39818 37.3152 7.62224 37.3427 7.85099 37.3725C11.8565 37.8882 12.8276 39.3383 12.8276 40.7635C12.8276 42.2314 11.5811 44.1618 6.88464 44.1618C1.79134 44.1618 0.278748 42.8554 0.278748 40.5948H5.07795C5.71286 41.7334 6.48316 41.8011 6.89399 41.8011C7.30481 41.8011 8.42993 41.7532 8.42993 41.0364C8.42993 40.2017 6.94536 40.1575 6.32445 40.139C6.22641 40.1361 6.147 40.1338 6.10499 40.1291C2.26284 39.7165 0.498152 39.0435 0.498152 36.7464C0.498152 35.5004 1.33383 33.3314 6.24039 33.3314C10.6568 33.3314 12.4821 34.8743 12.4821 36.8141H8.1218C7.5149 35.8108 6.62319 35.6515 6.22637 35.6515Z" fill="#003399"/>
<path d="M49.0869 20.5467C49.0869 20.5467 46.4094 21.3254 41.2358 24.5286C36.5994 27.405 34.7827 29.3377 34.7827 29.3377L20.4705 19.3744C20.4705 19.3744 26.4892 14.9143 31.5205 18.3303L38.2659 22.9936L39.0952 22.4482L20.4705 9.30707C20.4705 9.30707 23.148 8.52748 28.3216 5.32627C32.958 2.44883 34.7827 0.515259 34.7827 0.515259L49.0869 10.4785C49.0869 10.4785 43.0682 14.9386 38.0369 11.5225L31.2915 6.85836L30.4701 7.40273L49.0869 20.5467Z" fill="#E20A17"/>
</svg>
