<svg width="64" height="64" viewBox="0 0 64 64" fill="none" xmlns="http://www.w3.org/2000/svg">
<path d="M16.7002 32.3999L33.1002 15.9999C33.8002 15.2999 35.0002 15.0999 35.8002 15.8999L47.6002 27.6999C48.4002 28.4999 48.4002 29.8999 47.7002 30.4999L31.3002 46.9999C30.6002 47.6999 29.5002 47.5999 28.7002 46.7999L16.9002 34.9999C16.2002 34.1999 16.0002 33.0999 16.7002 32.3999ZM19.7002 33.5999L30.1002 43.9999L44.8002 29.2999L34.5002 18.8999L34.7002 30.7999C34.6002 32.2999 33.3002 33.5999 31.7002 33.7999L19.7002 33.5999Z" fill="url(#paint0_linear)"/>
<path d="M32 0C14.3 0 0 14.3 0 32C0 49.7 14.3 64 32 64C49.7 64 64 49.7 64 32C64 14.3 49.7 0 32 0ZM32 61C16 61 3 48 3 32C3 16 16 3 32 3C48 3 61 16 61 32C61 48 48 61 32 61Z" fill="url(#paint1_linear)"/>
<defs>
<linearGradient id="paint0_linear" x1="25.673" y1="24.7796" x2="33.7715" y2="32.8783" gradientUnits="userSpaceOnUse">
<stop stop-color="#FF6F3D"/>
<stop offset="1" stop-color="#FF8E3D"/>
</linearGradient>
<linearGradient id="paint1_linear" x1="25.2263" y1="38.7738" x2="33.3248" y2="30.6751" gradientUnits="userSpaceOnUse">
<stop stop-color="#FF6F3D"/>
<stop offset="1" stop-color="#FF8E3D"/>
</linearGradient>
</defs>
</svg>