<svg width="736" height="64" viewBox="0 0 736 64" fill="none" xmlns="http://www.w3.org/2000/svg">
<path d="M316.369 8.39476C318.352 6.33628 321.648 6.33628 323.632 8.39476V8.39476C324.928 9.7405 326.863 10.2588 328.658 9.74166V9.74166C331.405 8.95057 334.259 10.5986 334.948 13.3729V13.3729C335.398 15.1866 336.814 16.6027 338.627 17.0527V17.0527C341.402 17.741 343.05 20.5954 342.259 23.3421V23.3421C341.742 25.1378 342.26 27.0723 343.606 28.3688V28.3688C345.664 30.3521 345.664 33.6481 343.606 35.6313V35.6313C342.26 36.9278 341.742 38.8623 342.259 40.658V40.658C343.05 43.4047 341.402 46.2592 338.627 46.9474V46.9474C336.814 47.3974 335.398 48.8135 334.948 50.6272V50.6272C334.259 53.4015 331.405 55.0495 328.658 54.2584V54.2584C326.863 53.7413 324.928 54.2596 323.632 55.6054V55.6054C321.648 57.6638 318.352 57.6638 316.369 55.6054V55.6054C315.073 54.2596 313.138 53.7413 311.342 54.2584V54.2584C308.596 55.0495 305.741 53.4015 305.053 50.6272V50.6272C304.603 48.8135 303.187 47.3974 301.373 46.9474V46.9474C298.599 46.2592 296.951 43.4047 297.742 40.658V40.658C298.259 38.8623 297.741 36.9278 296.395 35.6313V35.6313C294.337 33.6481 294.337 30.3521 296.395 28.3688V28.3688C297.741 27.0723 298.259 25.1378 297.742 23.3421V23.3421C296.951 20.5954 298.599 17.741 301.373 17.0527V17.0527C303.187 16.6027 304.603 15.1866 305.053 13.3729V13.3729C305.741 10.5986 308.596 8.95057 311.342 9.74166V9.74166C313.138 10.2588 315.073 9.7405 316.369 8.39476V8.39476Z" fill="url(#paint0_linear_105_113)" stroke="#333333"/>
<path d="M327.121 14.7849C328.942 14.4328 330.744 15.4733 331.349 17.2258L331.637 18.0591C332.01 19.1405 332.86 19.9902 333.941 20.3637L334.775 20.6515C336.527 21.2569 337.568 23.059 337.216 24.8793L337.048 25.745C336.831 26.8682 337.142 28.0289 337.892 28.8931L338.47 29.559C339.685 30.9595 339.685 33.0404 338.47 34.4409L337.892 35.1068C337.142 35.971 336.831 37.1317 337.048 38.2549L337.216 39.1206C337.568 40.9409 336.527 42.743 334.775 43.3484L333.941 43.6362C332.86 44.0097 332.01 44.8594 331.637 45.9408L331.349 46.7741C330.744 48.5266 328.942 49.5671 327.121 49.215L326.256 49.0477C325.132 48.8304 323.972 49.1415 323.107 49.8912L322.442 50.469C321.041 51.684 318.96 51.684 317.56 50.469L316.894 49.8912C316.03 49.1415 314.869 48.8304 313.746 49.0477L312.88 49.215C311.06 49.5671 309.258 48.5266 308.652 46.7741L308.364 45.9408C307.991 44.8594 307.141 44.0097 306.06 43.6362L305.226 43.3484C303.474 42.743 302.433 40.9409 302.786 39.1206L302.953 38.2549C303.17 37.1317 302.859 35.971 302.109 35.1068L301.532 34.4409C300.317 33.0404 300.317 30.9595 301.532 29.559L302.109 28.8931C302.859 28.0289 303.17 26.8682 302.953 25.745L302.786 24.8793C302.433 23.059 303.474 21.2569 305.226 20.6515L306.06 20.3637C307.141 19.9902 307.991 19.1405 308.364 18.0591L308.652 17.2258C309.258 15.4733 311.06 14.4328 312.88 14.7849L313.746 14.9522C314.869 15.1695 316.03 14.8584 316.894 14.1087L317.56 13.5309C318.96 12.3159 321.041 12.3159 322.442 13.5309L323.107 14.1087C323.972 14.8584 325.132 15.1695 326.256 14.9522L327.121 14.7849Z" fill="white" stroke="#333333"/>
<path d="M309.311 36H308.032V28.1475H312.469V29.2324H309.311V31.6816H312.265V32.7612H309.311V36ZM316.105 28.1475C316.782 28.1475 317.34 28.2298 317.781 28.3945C318.225 28.5592 318.554 28.8099 318.769 29.1465C318.987 29.4831 319.097 29.911 319.097 30.4302C319.097 30.8169 319.025 31.1463 318.882 31.4185C318.739 31.6906 318.551 31.9162 318.318 32.0952C318.085 32.2743 317.836 32.4175 317.571 32.5249L319.8 36H318.345L316.449 32.8525H315.187V36H313.897V28.1475H316.105ZM316.019 29.2217H315.187V31.7891H316.078C316.676 31.7891 317.109 31.6781 317.378 31.4561C317.65 31.234 317.786 30.9064 317.786 30.4731C317.786 30.0184 317.641 29.6961 317.351 29.5063C317.065 29.3166 316.621 29.2217 316.019 29.2217ZM325.37 36H320.923V28.1475H325.37V29.2324H322.212V31.3647H325.171V32.4443H322.212V34.9097H325.37V36ZM331.515 36H327.067V28.1475H331.515V29.2324H328.356V31.3647H331.316V32.4443H328.356V34.9097H331.515V36Z" fill="#333333"/>
<path d="M600.829 23.9073L600.735 23.6392L600.457 23.5822C600.065 23.5018 599.45 23.2699 598.939 22.7405C598.439 22.2227 598 21.3826 598 20.0085C598 19.787 598.001 19.4163 598.074 19.0306C598.149 18.6361 598.287 18.2966 598.51 18.0843L598.684 17.9177L598.662 17.6775L598.66 17.6593C598.593 16.9208 598.45 15.3427 598.506 13.7163C598.534 12.8965 598.613 12.0784 598.774 11.3581C598.935 10.6306 599.171 10.0452 599.484 9.65475L599.484 9.65476L599.485 9.65331C600.535 8.33575 602.429 7.61939 604.19 7.24355C605.929 6.8727 607.419 6.85773 607.533 6.85773C607.647 6.85773 609.137 6.87272 610.867 7.24345C612.621 7.61944 614.494 8.3352 615.509 9.64777L615.51 9.6485C615.829 10.0588 616.069 10.6574 616.236 11.3877C616.401 12.1116 616.486 12.9279 616.518 13.7427C616.583 15.3731 616.437 16.946 616.34 17.6552L616.305 17.908L616.49 18.0843C616.712 18.2966 616.85 18.6361 616.925 19.0306C616.999 19.4163 617 19.787 617 20.0085C617 21.3814 616.561 22.2047 616.063 22.7144C615.552 23.2366 614.933 23.4745 614.511 23.5897L614.216 23.6702L614.153 23.9696C614.034 24.5392 613.794 25.0596 613.525 25.6389L613.523 25.6416C613.316 26.0947 612.673 27.1657 611.638 28.1166C610.607 29.0639 609.228 29.8577 607.533 29.8577C605.941 29.8577 604.543 29.0669 603.462 28.1103C602.379 27.1511 601.676 26.0791 601.476 25.6416L601.475 25.6389C601.274 25.2069 601.114 24.7397 600.953 24.2674C600.912 24.1475 600.871 24.0273 600.829 23.9073Z" stroke="#333333"/>
<path d="M615.843 32.9132L615.978 33.0985L616.206 33.1175L619.597 33.4002C623.617 33.7353 626.778 36.7388 627 40.4079V40.4082V40.4091V40.4099V40.4108V40.4117V40.4125V40.4134V40.4143V40.4151V40.416V40.4169V40.4177V40.4186V40.4195V40.4204V40.4212V40.4221V40.423V40.4239V40.4248V40.4256V40.4265V40.4274V40.4283V40.4292V40.4301V40.431V40.4319V40.4328V40.4337V40.4346V40.4355V40.4364V40.4373V40.4382V40.4391V40.44V40.4409V40.4418V40.4427V40.4436V40.4445V40.4454V40.4464V40.4473V40.4482V40.4491V40.45V40.4509V40.4519V40.4528V40.4537V40.4546V40.4556V40.4565V40.4574V40.4583V40.4593V40.4602V40.4611V40.4621V40.463V40.464V40.4649V40.4658V40.4668V40.4677V40.4687V40.4696V40.4705V40.4715V40.4724V40.4734V40.4743V40.4753V40.4762V40.4772V40.4781V40.4791V40.48V40.481V40.482V40.4829V40.4839V40.4848V40.4858V40.4868V40.4877V40.4887V40.4896V40.4906V40.4916V40.4925V40.4935V40.4945V40.4955V40.4964V40.4974V40.4984V40.4993V40.5003V40.5013V40.5023V40.5032V40.5042V40.5052V40.5062V40.5072V40.5081V40.5091V40.5101V40.5111V40.5121V40.5131V40.5141V40.515V40.516V40.517V40.518V40.519V40.52V40.521V40.522V40.523V40.524V40.525V40.5259V40.5269V40.5279V40.5289V40.5299V40.5309V40.5319V40.5329V40.5339V40.5349V40.5359V40.5369V40.5379V40.5389V40.54V40.541V40.542V40.543V40.544V40.545V40.546V40.547V40.548V40.549V40.55V40.551V40.5521V40.5531V40.5541V40.5551V40.5561V40.5571V40.5581V40.5591V40.5602V40.5612V40.5622V40.5632V40.5642V40.5653V40.5663V40.5673V40.5683V40.5693V40.5703V40.5714V40.5724V40.5734V40.5744V40.5755V40.5765V40.5775V40.5785V40.5795V40.5806V40.5816V40.5826V40.5836V40.5847V40.5857V40.5867V40.5878V40.5888V40.5898V40.5908V40.5919V40.5929V40.5939V40.595V40.596V40.597V40.598V40.5991V40.6001V40.6011V40.6022V40.6032V40.6042V40.6053V40.6063V40.6073V40.6084V40.6094V40.6104V40.6114V40.6125V40.6135V40.6145V40.6156V40.6166V40.6176V40.6187V40.6197V40.6207V40.6218V40.6228V40.6239V40.6249V40.6259V40.627V40.628V40.629V40.6301V40.6311V40.6321V40.6332V40.6342V40.6352V40.6363V40.6373V40.6383V40.6394V40.6404V40.6414V40.6425V40.6435V40.6446V40.6456V40.6466V40.6477V40.6487V40.6497V40.6508V40.6518V40.6528V40.6539V40.6549V40.6559V40.657V40.658V40.659V40.6601V40.6611V40.6621V40.6632V40.6642V40.6652V40.6663V40.6673V40.6683V40.6694V40.6704V40.6714V40.6725V40.6735V40.6745V40.6756V40.6766V40.6776V40.6787V40.6797V40.6807V40.6818V40.6828V40.6838V40.6848V40.6859V40.6869V40.6879V40.689V40.69V40.691V40.692V40.6931V40.6941V40.6951V40.6961V40.6972V40.6982V40.6992V40.7002V40.7013V40.7023V40.7033V40.7043V40.7054V40.7064V40.7074V40.7084V40.7095V40.7105V40.7115V40.7125V40.7135V40.7146V40.7156V40.7166V40.7176V40.7186V40.7196V40.7207V40.7217V40.7227V40.7237V40.7247V40.7257V40.7267V40.7278V40.7288V40.7298V40.7308V40.7318V40.7328V40.7338V40.7348V40.7358V40.7368V40.7379V40.7389V40.7399V40.7409V40.7419V40.7429V40.7439V40.7449V40.7459V40.7469V40.7479V40.7489V40.7499V40.7509V40.7519V40.7529V40.7539V40.7549V40.7559V40.7569V40.7579V40.7589V40.7598V40.7608V40.7618V40.7628V40.7638V40.7648V40.7658V40.7668V40.7678V40.7687V40.7697V40.7707V40.7717V40.7727V40.7737V40.7746V40.7756V40.7766V40.7776V40.7786V40.7795V40.7805V40.7815V40.7825V40.7834V40.7844V40.7854V40.7863V40.7873V40.7883V40.7892V40.7902V40.7912V40.7921V40.7931V40.7941V40.795V40.796V40.797V40.7979V40.7989V40.7998V40.8008V40.8017V40.8027V40.8036V40.8046V40.8055V40.8065V40.8074V40.8084V40.8093V40.8103V40.8112V40.8122V40.8131V40.8141V40.815V40.8159V40.8169V40.8178V40.8187V40.8197V40.8206V40.8215V40.8225V40.8234V40.8243V40.8253V40.8262V40.8271V40.828V40.829V40.8299V40.8308V40.8317V40.8326V40.8336V40.8345V40.8354V40.8363V40.8372V40.8381V40.839V40.8399V40.8408V40.8418V40.8427V40.8436V40.8445V40.8454V40.8463V40.8472V40.8481V40.849V40.8498V40.8507V40.8516V40.8525V40.8534V40.8543V40.8552V40.8561V40.8569V40.8578V40.8587V40.8596V40.8605V40.8613V40.8622V40.8631V40.864V40.8648V40.8657V40.8666V40.8674V40.8683V40.8692V40.87V40.8709V40.8717V40.8726V40.8735V40.8743V40.8752V40.876V40.8769V40.8777V40.8786V40.8794V40.8802V40.8811V40.8819V40.8828V40.8836V40.8844V40.8853V40.8861V40.8869V40.8878V45.6934C627 47.9875 624.958 49.8577 622.413 49.8577H617.48H597.519H592.586C589.974 49.8577 588 47.9262 588 45.6934V40.9584V40.9576V40.9568V40.9559V40.9551V40.9543V40.9534V40.9526V40.9518V40.9509V40.9501V40.9492V40.9484V40.9475V40.9467V40.9458V40.945V40.9441V40.9433V40.9424V40.9416V40.9407V40.9398V40.939V40.9381V40.9372V40.9364V40.9355V40.9346V40.9338V40.9329V40.932V40.9311V40.9303V40.9294V40.9285V40.9276V40.9267V40.9259V40.925V40.9241V40.9232V40.9223V40.9214V40.9205V40.9196V40.9187V40.9178V40.9169V40.916V40.9151V40.9142V40.9133V40.9124V40.9115V40.9106V40.9097V40.9088V40.9079V40.907V40.9061V40.9051V40.9042V40.9033V40.9024V40.9015V40.9006V40.8996V40.8987V40.8978V40.8969V40.8959V40.895V40.8941V40.8931V40.8922V40.8913V40.8903V40.8894V40.8885V40.8875V40.8866V40.8857V40.8847V40.8838V40.8828V40.8819V40.881V40.88V40.8791V40.8781V40.8772V40.8762V40.8753V40.8743V40.8734V40.8724V40.8715V40.8705V40.8695V40.8686V40.8676V40.8667V40.8657V40.8647V40.8638V40.8628V40.8618V40.8609V40.8599V40.8589V40.858V40.857V40.856V40.8551V40.8541V40.8531V40.8522V40.8512V40.8502V40.8492V40.8482V40.8473V40.8463V40.8453V40.8443V40.8433V40.8424V40.8414V40.8404V40.8394V40.8384V40.8374V40.8365V40.8355V40.8345V40.8335V40.8325V40.8315V40.8305V40.8295V40.8285V40.8275V40.8265V40.8255V40.8246V40.8236V40.8226V40.8216V40.8206V40.8196V40.8186V40.8176V40.8166V40.8156V40.8146V40.8136V40.8125V40.8115V40.8105V40.8095V40.8085V40.8075V40.8065V40.8055V40.8045V40.8035V40.8025V40.8015V40.8005V40.7994V40.7984V40.7974V40.7964V40.7954V40.7944V40.7934V40.7923V40.7913V40.7903V40.7893V40.7883V40.7873V40.7862V40.7852V40.7842V40.7832V40.7822V40.7811V40.7801V40.7791V40.7781V40.7771V40.776V40.775V40.774V40.773V40.7719V40.7709V40.7699V40.7689V40.7678V40.7668V40.7658V40.7648V40.7637V40.7627V40.7617V40.7607V40.7596V40.7586V40.7576V40.7565V40.7555V40.7545V40.7535V40.7524V40.7514V40.7504V40.7493V40.7483V40.7473V40.7462V40.7452V40.7442V40.7431V40.7421V40.7411V40.74V40.739V40.738V40.7369V40.7359V40.7349V40.7338V40.7328V40.7318V40.7307V40.7297V40.7287V40.7276V40.7266V40.7256V40.7245V40.7235V40.7225V40.7214V40.7204V40.7194V40.7183V40.7173V40.7163V40.7152V40.7142V40.7132V40.7121V40.7111V40.71V40.709V40.708V40.7069V40.7059V40.7049V40.7038V40.7028V40.7018V40.7007V40.6997V40.6987V40.6976V40.6966V40.6956V40.6945V40.6935V40.6925V40.6914V40.6904V40.6894V40.6883V40.6873V40.6863V40.6852V40.6842V40.6832V40.6821V40.6811V40.6801V40.679V40.678V40.677V40.6759V40.6749V40.6739V40.6728V40.6718V40.6708V40.6697V40.6687V40.6677V40.6667V40.6656V40.6646V40.6636V40.6625V40.6615V40.6605V40.6595V40.6584V40.6574V40.6564V40.6553V40.6543V40.6533V40.6523V40.6512V40.6502V40.6492V40.6482V40.6472V40.6461V40.6451V40.6441V40.6431V40.642V40.641V40.64V40.639V40.638V40.6369V40.6359V40.6349V40.6339V40.6329V40.6319V40.6308V40.6298V40.6288V40.6278V40.6268V40.6258V40.6247V40.6237V40.6227V40.6217V40.6207V40.6197V40.6187V40.6177V40.6167V40.6157V40.6146V40.6136V40.6126V40.6116V40.6106V40.6096V40.6086V40.6076V40.6066V40.6056V40.6046V40.6036V40.6026V40.6016V40.6006V40.5996V40.5986V40.5976V40.5966V40.5956V40.5946V40.5936V40.5926V40.5916V40.5907V40.5897V40.5887V40.5877V40.5867V40.5857V40.5847V40.5837V40.5828V40.5818V40.5808V40.5798V40.5788V40.5778V40.5769V40.5759V40.5749V40.5739V40.5729V40.572V40.571V40.57V40.569V40.5681V40.5671V40.5661V40.5652V40.5642V40.5632V40.5623V40.5613V40.5603V40.5594V40.5584V40.5574V40.5565V40.5555V40.5545V40.5536V40.5526V40.5517V40.5507V40.5498V40.5488V40.5479V40.5469V40.546V40.545V40.5441V40.5431V40.5422V40.5412V40.5403V40.5393V40.5384V40.5374V40.5365V40.5356V40.5346V40.5337V40.5328V40.5318V40.5309V40.53V40.529V40.5281V40.5272V40.5262V40.5253V40.5244V40.5235V40.5225V40.5216V40.5207V40.5198V40.5189V40.5179V40.517V40.5161V40.5152V40.5143V40.5134V40.5125V40.5116V40.5106V40.5097V40.5088V40.5079V40.507V40.5061V40.5052V40.5043V40.5034V40.5025V40.5017V40.5008V40.4999V40.499V40.4981V40.4972V40.4963V40.4954V40.4945V40.4937V40.4928V40.4919V40.491V40.4902V40.4893V40.4884V40.4875V40.4867V40.4858V40.4849V40.4841V40.4832V40.4823V40.4815V40.4806V40.4798V40.4789V40.478V40.4772V40.4763V40.4755V40.4746V40.4738V40.4736C588.147 36.8145 591.298 33.8069 595.402 33.4709L595.402 33.4708L598.794 33.1882L599.022 33.1691L599.156 32.9839L600.544 31.0758C600.63 30.9567 600.725 30.9284 600.756 30.9284C600.997 30.9284 601.085 30.9847 601.112 31.0089L607.123 36.5213L607.461 36.8312L607.799 36.5213L613.849 30.9737C613.971 30.9047 614.08 30.8711 614.178 30.8611C614.256 30.8855 614.31 30.905 614.357 30.9286C614.41 30.955 614.436 30.9788 614.456 31.0051L615.843 32.9132Z" stroke="#333333"/>
<circle cx="618.484" cy="47.1423" r="10" fill="url(#paint1_linear_105_113)" stroke="#333333"/>
<path d="M615.396 42.3466C616.077 42.3466 616.593 42.6005 616.944 43.1083C617.296 43.6119 617.471 44.325 617.471 45.2475C617.471 46.1658 617.302 46.8831 616.963 47.3994C616.629 47.9156 616.107 48.1738 615.396 48.1738C614.731 48.1738 614.225 47.9156 613.878 47.3994C613.531 46.8831 613.358 46.1658 613.358 45.2475C613.358 44.325 613.521 43.6119 613.847 43.1083C614.177 42.6005 614.693 42.3466 615.396 42.3466ZM615.402 43.3876C615.127 43.3876 614.924 43.5421 614.793 43.851C614.666 44.1599 614.602 44.6275 614.602 45.2538C614.602 45.8759 614.666 46.3456 614.793 46.663C614.924 46.9762 615.127 47.1328 615.402 47.1328C615.681 47.1328 615.889 46.9762 616.024 46.663C616.164 46.3499 616.233 45.8801 616.233 45.2538C616.233 44.6318 616.166 44.1663 616.03 43.8574C615.895 43.5442 615.685 43.3876 615.402 43.3876ZM621.629 42.4799L616.481 51.7602H615.256L620.404 42.4799H621.629ZM621.458 46.06C622.139 46.06 622.655 46.3139 623.006 46.8217C623.362 47.3253 623.54 48.0384 623.54 48.9609C623.54 49.8749 623.37 50.5901 623.032 51.1064C622.697 51.6227 622.173 51.8808 621.458 51.8808C620.793 51.8808 620.287 51.6227 619.94 51.1064C619.593 50.5901 619.42 49.8749 619.42 48.9609C619.42 48.0384 619.583 47.3253 619.909 46.8217C620.239 46.3139 620.755 46.06 621.458 46.06ZM621.464 47.101C621.189 47.101 620.986 47.2555 620.855 47.5644C620.728 47.8733 620.664 48.3409 620.664 48.9672C620.664 49.5893 620.728 50.059 620.855 50.3764C620.986 50.6896 621.189 50.8461 621.464 50.8461C621.747 50.8461 621.957 50.6917 622.092 50.3828C622.228 50.0696 622.295 49.5978 622.295 48.9672C622.295 48.3452 622.228 47.8797 622.092 47.5707C621.957 47.2576 621.747 47.101 621.464 47.101Z" fill="white"/>
<path fill-rule="evenodd" clip-rule="evenodd" d="M248.387 27.4838C248.704 27.4838 248.998 27.6503 249.161 27.9224L251.871 32.4385C252.039 32.7176 252.043 33.0651 251.883 33.3483C251.722 33.6314 251.422 33.8065 251.097 33.8065H245.677C245.352 33.8065 245.052 33.6314 244.891 33.3483C244.731 33.0651 244.735 32.7176 244.903 32.4385L247.612 27.9224C247.776 27.6503 248.07 27.4838 248.387 27.4838ZM248.387 28.3871L245.677 32.9032H251.097L248.387 28.3871Z" fill="#333333"/>
<path d="M227.155 47.1408L227.155 47.1407L227.47 45.6915C227.645 44.8858 228.233 44.2669 228.956 43.9671C229.679 43.6672 230.533 43.6885 231.228 44.1348L232.475 44.9369C232.475 44.9369 232.475 44.9369 232.475 44.937C232.656 45.0529 232.893 45.0273 233.044 44.8758L236.876 41.0443C237.027 40.8927 237.053 40.6556 236.937 40.475L236.135 39.2274C235.689 38.5332 235.667 37.6786 235.967 36.9554C236.267 36.2325 236.886 35.6451 237.692 35.4699L239.141 35.1549C239.35 35.1092 239.5 34.9235 239.5 34.7091V29.2907C239.5 29.0763 239.351 28.8907 239.141 28.8449C239.141 28.8449 239.141 28.8449 239.141 28.8449L237.692 28.5299C236.886 28.3547 236.267 27.7673 235.967 27.0443C235.667 26.3212 235.689 25.4666 236.135 24.7724L236.937 23.5247C237.053 23.3441 237.027 23.107 236.876 22.9555L233.044 19.1239L233.044 19.1238C232.893 18.9723 232.656 18.9467 232.475 19.0629L231.228 19.8649C230.533 20.3112 229.679 20.3326 228.956 20.0327C228.233 19.7329 227.645 19.114 227.47 18.3083L227.155 16.859L227.155 16.8589C227.109 16.6495 226.924 16.4999 226.709 16.4999H221.291C221.076 16.4999 220.891 16.6495 220.845 16.8589L220.845 16.859L220.53 18.3083C220.355 19.114 219.767 19.7329 219.044 20.0327C218.321 20.3326 217.467 20.3112 216.772 19.8649L215.525 19.0629C215.344 18.9468 215.107 18.9724 214.956 19.1239L211.124 22.9555C210.973 23.107 210.947 23.3441 211.063 23.5247C211.063 23.5247 211.063 23.5247 211.063 23.5247L211.865 24.7724C212.311 25.4666 212.333 26.3212 212.033 27.0443C211.733 27.7673 211.114 28.3547 210.308 28.5299L208.859 28.8449C208.859 28.8449 208.859 28.8449 208.859 28.8449C208.649 28.8907 208.5 29.0763 208.5 29.2907V34.7091C208.5 34.9235 208.65 35.1092 208.859 35.1549L210.308 35.4699C211.114 35.6451 211.733 36.2325 212.033 36.9554C212.333 37.6786 212.311 38.5332 211.865 39.2274L211.063 40.475C211.063 40.475 211.063 40.4751 211.063 40.4751C210.947 40.6557 210.973 40.8928 211.124 41.0443L214.956 44.8758C215.107 45.0273 215.344 45.0529 215.525 44.937C215.525 44.9369 215.525 44.9369 215.525 44.9369L216.772 44.1348C217.467 43.6885 218.321 43.6672 219.044 43.9671C219.767 44.2669 220.355 44.8858 220.53 45.6915L220.845 47.1407L220.845 47.1408C220.891 47.3502 221.076 47.4999 221.291 47.4999H226.709C226.924 47.4999 227.109 47.3502 227.155 47.1408ZM224 25.7628C227.439 25.7628 230.237 28.5604 230.237 31.9999C230.237 35.4394 227.439 38.2369 224 38.2369C220.561 38.2369 217.763 35.4394 217.763 31.9999C217.763 28.5604 220.561 25.7628 224 25.7628Z" fill="url(#paint2_linear_105_113)" stroke="#444444"/>
<path fill-rule="evenodd" clip-rule="evenodd" d="M224.004 56.3874C237.17 56.3874 247.9 45.9536 248.375 32.9032H249.279C248.803 46.4525 237.669 57.2906 224.004 57.2906C211.184 57.2906 200.593 47.7528 198.938 35.3863L199.616 36.5162L199.939 35.9774C201.838 47.5543 211.889 56.3874 224.004 56.3874ZM199.616 32C199.616 18.5312 210.535 7.61259 224.004 7.61259C236.369 7.61259 246.584 16.8148 248.176 28.7444L248.39 28.387L249.194 29.726C248.044 16.8238 237.205 6.70935 224.004 6.70935C210.036 6.70935 198.713 18.0324 198.713 32H199.616Z" fill="#333333"/>
<path fill-rule="evenodd" clip-rule="evenodd" d="M199.613 37.4194C199.93 37.4194 200.224 37.253 200.387 36.9809L203.097 32.4647C203.265 32.1857 203.269 31.8382 203.109 31.555C202.948 31.2718 202.648 31.0968 202.323 31.0968H196.903C196.578 31.0968 196.278 31.2718 196.117 31.555C195.957 31.8382 195.961 32.1857 196.129 32.4647L198.838 36.9809C199.002 37.253 199.296 37.4194 199.613 37.4194ZM199.613 36.5162L196.903 32H202.323L199.613 36.5162Z" fill="#333333"/>
<path d="M684.69 13.1254C684.566 12.1645 685.745 11.6075 686.409 12.3126L689.281 15.3604C689.578 15.6757 690.045 15.7639 690.436 15.5787L694.222 13.7892C695.098 13.3753 695.992 14.3239 695.527 15.1736L693.516 18.8468C693.308 19.2267 693.368 19.6975 693.665 20.0128L696.537 23.0606C697.201 23.7657 696.575 24.9089 695.623 24.729L691.509 23.9513C691.083 23.8709 690.654 24.0737 690.446 24.4537L688.434 28.1269C687.969 28.9766 686.689 28.7345 686.565 27.7736L686.034 23.6198C685.978 23.1901 685.653 22.8447 685.227 22.7642L681.112 21.9866C680.161 21.8067 679.995 20.5138 680.871 20.0999L684.657 18.3103C685.049 18.1252 685.277 17.7089 685.222 17.2792L684.69 13.1254Z" fill="url(#paint3_linear_105_113)" stroke="#333333"/>
<path d="M707.726 7.87539C708.253 7.06295 709.512 7.4003 709.563 8.3677L709.695 10.8796C709.717 11.3123 710.016 11.6811 710.434 11.7932L712.864 12.4443C713.8 12.695 713.868 13.9966 712.964 14.3438L710.615 15.2452C710.211 15.4005 709.952 15.7985 709.975 16.2311L710.107 18.7431C710.157 19.7105 708.941 20.1776 708.331 19.4247L706.748 17.4699C706.475 17.1332 706.017 17.0104 705.612 17.1656L703.264 18.0671C702.36 18.4142 701.539 17.4013 702.067 16.5889L703.437 14.4793C703.673 14.1159 703.648 13.642 703.375 13.3053L701.792 11.3505C701.183 10.5976 701.893 9.50451 702.828 9.75524L705.258 10.4063C705.677 10.5184 706.12 10.3483 706.356 9.98498L707.726 7.87539Z" fill="url(#paint4_linear_105_113)" stroke="#333333"/>
<path d="M680 27.5H679.5V28V54C679.5 55.3807 680.619 56.5 682 56.5H714C715.381 56.5 716.5 55.3807 716.5 54V28V27.5H716H680Z" fill="white" stroke="#333333"/>
<rect x="693.5" y="27.5" width="9" height="29" fill="url(#paint5_linear_105_113)" stroke="#333333"/>
<path d="M692 56.5H691.5V56V51C691.5 49.6193 692.619 48.5 694 48.5H726C727.381 48.5 728.5 49.6193 728.5 51V56V56.5H728H692Z" fill="white" stroke="#333333"/>
<rect x="705.5" y="48.5" width="9" height="8" fill="url(#paint6_linear_105_113)" stroke="#333333"/>
<path d="M713.004 42.5195L710.239 48.49H716.424C718.773 48.49 720.808 46.8635 721.327 44.5728C721.73 42.7878 720.794 40.9707 719.106 40.2638L718.966 40.2053C716.68 39.2478 714.046 40.2703 713.004 42.5195Z" stroke="#333333" stroke-linecap="round"/>
<path d="M707.26 42.5195L710.025 48.49H703.841C701.492 48.49 699.456 46.8635 698.938 44.5728C698.534 42.7878 699.471 40.9707 701.159 40.2638L701.298 40.2053C703.585 39.2478 706.219 40.2703 707.26 42.5195Z" stroke="#333333" stroke-linecap="round"/>
<path d="M397.822 50.1777C407.585 59.9408 423.415 59.9408 433.178 50.1777C442.941 40.4146 442.941 24.5854 433.178 14.8223C423.415 5.05922 407.585 5.05922 397.822 14.8223C388.059 24.5854 388.059 40.4146 397.822 50.1777ZM424.692 41.6924C419.616 46.7692 411.384 46.7692 406.308 41.6924C401.231 36.6156 401.231 28.3844 406.308 23.3076C411.384 18.2308 419.616 18.2308 424.692 23.3076C429.769 28.3844 429.769 36.6156 424.692 41.6924Z" fill="url(#paint7_linear_105_113)" stroke="#333333"/>
<path fill-rule="evenodd" clip-rule="evenodd" d="M400.826 52.1236C399.902 51.4309 399.016 50.6644 398.176 49.8241C397.336 48.9839 396.569 48.0977 395.876 47.1738L403.803 39.2471C404.381 40.2477 405.098 41.19 405.954 42.046C406.81 42.9019 407.752 43.6189 408.753 44.1969L400.826 52.1236ZM432.824 49.8241C431.984 50.6644 431.098 51.4309 430.174 52.1236L422.247 44.1969C423.248 43.6189 424.19 42.9019 425.046 42.046C425.902 41.19 426.619 40.2477 427.197 39.2471L435.124 47.1738C434.431 48.0977 433.664 48.9839 432.824 49.8241ZM432.824 15.1759C433.664 16.0162 434.431 16.9023 435.124 17.8262L427.197 25.7529C426.619 24.7523 425.902 23.81 425.046 22.9541C424.19 22.0981 423.248 21.3812 422.247 20.8031L430.174 12.8765C431.098 13.5691 431.984 14.3356 432.824 15.1759ZM398.176 15.1759C399.016 14.3356 399.902 13.5691 400.826 12.8765L408.753 20.8031C407.752 21.3812 406.81 22.0981 405.954 22.9541C405.098 23.81 404.381 24.7523 403.803 25.7529L395.876 17.8262C396.569 16.9023 397.336 16.0162 398.176 15.1759Z" fill="white"/>
<path fill-rule="evenodd" clip-rule="evenodd" d="M400.92 53.4438L400.226 52.9237C399.265 52.2027 398.343 51.4051 397.469 50.5313C396.595 49.6574 395.797 48.7354 395.076 47.7737L394.556 47.0799L404.017 37.6188L404.669 38.7469C405.204 39.6726 405.868 40.5452 406.661 41.3389C407.455 42.1325 408.327 42.7963 409.253 43.331L410.381 43.9827L400.92 53.4438ZM430.08 53.4438L420.619 43.9827L421.747 43.331C422.673 42.7963 423.545 42.1325 424.339 41.3389C425.132 40.5452 425.796 39.6726 426.331 38.7469L426.983 37.6188L436.444 47.0799L435.924 47.7737C435.203 48.7354 434.405 49.6574 433.531 50.5313C432.657 51.4051 431.735 52.2027 430.774 52.9237L430.08 53.4438ZM436.444 17.9202L426.983 27.3813L426.331 26.2531C425.796 25.3274 425.132 24.4548 424.339 23.6612C423.545 22.8675 422.673 22.2038 421.747 21.6691L420.619 21.0173L430.08 11.5562L430.774 12.0764C431.735 12.7974 432.657 13.5949 433.531 14.4688C434.405 15.3427 435.203 16.2647 435.924 17.2264L436.444 17.9202ZM400.92 11.5562L410.381 21.0173L409.253 21.6691C408.327 22.2038 407.455 22.8675 406.661 23.6612C405.868 24.4548 405.204 25.3274 404.669 26.2531L404.017 27.3813L394.556 17.9202L395.076 17.2264C395.797 16.2647 396.595 15.3427 397.469 14.4688C398.343 13.5949 399.265 12.7974 400.226 12.0764L400.92 11.5562ZM400.826 52.1236C399.902 51.4309 399.016 50.6644 398.176 49.8241C397.336 48.9839 396.569 48.0978 395.876 47.1738L403.803 39.2472C403.973 39.5417 404.155 39.8311 404.35 40.1148C404.815 40.795 405.35 41.442 405.954 42.046C406.558 42.65 407.205 43.1848 407.885 43.6504C408.169 43.8446 408.458 44.0268 408.753 44.1969L400.826 52.1236ZM423.115 43.6504C423.795 43.1848 424.442 42.65 425.046 42.046C425.65 41.442 426.185 40.795 426.65 40.1148C426.845 39.8311 427.027 39.5417 427.197 39.2472L435.124 47.1738C434.431 48.0978 433.664 48.9839 432.824 49.8241C431.984 50.6644 431.098 51.4309 430.174 52.1236L422.247 44.1969C422.542 44.0268 422.831 43.8446 423.115 43.6504ZM430.174 12.8765C431.098 13.5692 431.984 14.3356 432.824 15.1759C433.664 16.0162 434.431 16.9023 435.124 17.8262L427.197 25.7529C427.027 25.4584 426.845 25.1689 426.65 24.8852C426.185 24.2051 425.65 23.5581 425.046 22.9541C424.442 22.3501 423.795 21.8153 423.115 21.3497C422.831 21.1555 422.542 20.9733 422.247 20.8032L430.174 12.8765ZM407.885 21.3497C407.205 21.8153 406.558 22.3501 405.954 22.9541C405.35 23.5581 404.815 24.2051 404.35 24.8852C404.155 25.1689 403.973 25.4584 403.803 25.7529L395.876 17.8262C396.569 16.9023 397.336 16.0162 398.176 15.1759C399.016 14.3356 399.902 13.5692 400.826 12.8765L408.753 20.8032C408.458 20.9733 408.169 21.1555 407.885 21.3497Z" fill="#333333"/>
<path fill-rule="evenodd" clip-rule="evenodd" d="M427.056 56.5803C437.109 59.083 443.698 49.8971 439.917 42.2481L440.813 41.8049C444.991 50.2565 437.652 60.2485 426.814 57.5507L427.056 56.5803ZM393.347 9.24539C396.285 6.3779 400.836 5.11924 405.76 6.66936L405.46 7.6232C400.87 6.17819 396.707 7.36345 394.045 9.96108C391.384 12.5583 390.186 16.6022 391.598 20.9699L390.647 21.2776C389.12 16.5557 390.408 12.1133 393.347 9.24539ZM393.471 53.9027C395.937 56.536 400.072 57.7308 404.88 55.9918L405.22 56.9322C400.079 58.7919 395.51 57.5428 392.741 54.5862C389.977 51.6337 389.076 47.049 391.117 42.3884L392.033 42.7895C390.139 47.1143 391.002 51.2655 393.471 53.9027ZM425.796 6.66751C436.108 3.56309 443.951 12.3182 441.34 20.7721L440.385 20.477C442.748 12.8271 435.669 4.73951 426.085 7.62505L425.796 6.66751Z" fill="#333333"/>
<path d="M505.207 37.0851C505.315 36.9797 505.37 36.8311 505.356 36.6809C505.305 36.1353 505.205 34.9078 505.255 33.65C505.28 33.0208 505.342 32.3977 505.462 31.8555C505.583 31.3044 505.755 30.8841 505.967 30.6207L505.976 30.609C506.736 29.6048 508.125 29.0597 509.445 28.7773C510.743 28.5 511.857 28.5 511.948 28.5H511.949H511.949C512.04 28.5 513.155 28.5 514.452 28.7773C515.772 29.0597 517.16 29.6044 517.921 30.6082C518.142 30.9022 518.314 31.3428 518.436 31.897C518.556 32.4447 518.618 33.0653 518.643 33.6878C518.693 34.9326 518.593 36.1346 518.542 36.6809C518.528 36.8311 518.582 36.9797 518.69 37.0851C518.842 37.2333 518.942 37.4683 518.998 37.7609C519.052 38.0481 519.053 38.3312 519.053 38.5329C519.053 39.5746 518.732 40.1993 518.38 40.5722C518.018 40.9561 517.587 41.111 517.326 41.1474C517.116 41.1767 516.948 41.3348 516.905 41.5423C516.818 41.9681 516.644 42.3128 516.436 42.7188C516.06 43.454 514.548 45.5 511.949 45.5C510.811 45.5 509.786 45.0006 508.978 44.3782C508.164 43.7512 507.627 43.0423 507.461 42.7188C507.267 42.3396 507.077 41.8736 506.986 41.5186C506.942 41.3454 506.809 41.209 506.636 41.161C506.315 41.0713 505.873 40.9021 505.512 40.5298C505.163 40.1698 504.844 39.5723 504.844 38.5329C504.844 38.3848 504.845 38.0982 504.9 37.7953C504.958 37.4792 505.061 37.2273 505.207 37.0851ZM504.174 48.4611L504.174 48.4612L504.185 48.4602L506.213 48.2717L511.746 50.7266C511.875 50.7839 512.022 50.7839 512.151 50.7266L517.685 48.2712L519.812 48.46C522.365 48.739 524.403 50.7623 524.5 53.1884V53.1887V53.1893V53.1899V53.1904V53.191V53.1916V53.1922V53.1928V53.1934V53.194V53.1946V53.1951V53.1957V53.1963V53.1969V53.1975V53.1981V53.1987V53.1993V53.1998V53.2004V53.201V53.2016V53.2022V53.2028V53.2034V53.204V53.2045V53.2051V53.2057V53.2063V53.2069V53.2075V53.2081V53.2087V53.2092V53.2098V53.2104V53.211V53.2116V53.2122V53.2128V53.2134V53.214V53.2145V53.2151V53.2157V53.2163V53.2169V53.2175V53.2181V53.2187V53.2192V53.2198V53.2204V53.221V53.2216V53.2222V53.2228V53.2234V53.2239V53.2245V53.2251V53.2257V53.2263V53.2269V53.2275V53.2281V53.2286V53.2292V53.2298V53.2304V53.231V53.2316V53.2322V53.2328V53.2333V53.2339V53.2345V53.2351V53.2357V53.2363V53.2369V53.2375V53.238V53.2386V53.2392V53.2398V53.2404V53.241V53.2416V53.2422V53.2428V53.2433V53.2439V53.2445V53.2451V53.2457V53.2463V53.2469V53.2475V53.248V53.2486V53.2492V53.2498V53.2504V53.251V53.2516V53.2522V53.2527V53.2533V53.2539V53.2545V53.2551V53.2557V53.2563V53.2569V53.2574V53.258V53.2586V53.2592V53.2598V53.2604V53.261V53.2616V53.2621V53.2627V53.2633V53.2639V53.2645V53.2651V53.2657V53.2663V53.2668V53.2674V53.268V53.2686V53.2692V53.2698V53.2704V53.271V53.2716V53.2721V53.2727V53.2733V53.2739V53.2745V53.2751V53.2757V53.2763V53.2768V53.2774V53.278V53.2786V53.2792V53.2798V53.2804V53.281V53.2815V53.2821V53.2827V53.2833V53.2839V53.2845V53.2851V53.2857V53.2862V53.2868V53.2874V53.288V53.2886V53.2892V53.2898V53.2904V53.2909V53.2915V53.2921V53.2927V53.2933V53.2939V53.2945V53.2951V53.2957V53.2962V53.2968V53.2974V53.298V53.2986V53.2992V53.2998V53.3004V53.3009V53.3015V53.3021V53.3027V53.3033V53.3039V53.3045V53.3051V53.3056V53.3062V53.3068V53.3074V53.308V53.3086V53.3092V53.3098V53.3103V53.3109V53.3115V53.3121V53.3127V53.3133V53.3139V53.3145V53.315V53.3156V53.3162V53.3168V53.3174V53.318V53.3186V53.3192V53.3197V53.3203V53.3209V53.3215V53.3221V53.3227V53.3233V53.3239V53.3245V53.325V53.3256V53.3262V53.3268V53.3274V53.328V53.3286V53.3292V53.3297V53.3303V53.3309V53.3315V53.3321V53.3327V53.3333V53.3339V53.3344V53.335V53.3356V53.3362V53.3368V53.3374V53.338V53.3386V53.3391V53.3397V53.3403V53.3409V53.3415V53.3421V53.3427V53.3433V53.3438V53.3444V53.345V53.3456V53.3462V53.3468V53.3474V53.348V53.3486V53.3491V53.3497V53.3503V53.3509V53.3515V53.3521V53.3527V53.3533V53.3538V53.3544V53.355V53.3556V53.3562V53.3568V53.3574V53.358V53.3585V53.3591V53.3597V53.3603V53.3609V53.3615V53.3621V53.3627V53.3632V53.3638V53.3644V53.365V53.3656V53.3662V53.3668V53.3674V53.3679V53.3685V53.3691V53.3697V53.3703V53.3709V53.3715V53.3721V53.3726V53.3732V53.3738V53.3744V53.375V53.3756V53.3762V53.3768V53.3774V53.3779V53.3785V53.3791V53.3797V53.3803V53.3809V53.3815V53.3821V53.3826V53.3832V53.3838V53.3844V53.385V53.3856V53.3862V53.3868V53.3873V53.3879V53.3885V53.3891V53.3897V53.3903V53.3909V53.3915V53.392V53.3926V53.3932V53.3938V53.3944V53.395V53.3956V53.3962V53.3967V53.3973V53.3979V53.3985V53.3991V53.3997V53.4003V53.4009V53.4014V53.402V53.4026V53.4032V53.4038V53.4044V53.405V53.4056V53.4062V53.4067V53.4073V53.4079V53.4085V53.4091V53.4097V53.4103V53.4109V53.4114V53.412V53.4126V53.4132V53.4138V53.4144V53.415V53.4156V53.4161V53.4167V53.4173V53.4179V53.4185V53.4191V53.4197V53.4203V53.4208V53.4214V53.422V53.4226V53.4232V53.4238V53.4244V53.425V53.4255V53.4261V53.4267V53.4273V53.4279V53.4285V53.4291V53.4297V53.4303V53.4308V53.4314V53.432V53.4326V53.4332V53.4338V53.4344V53.435V53.4355V53.4361V53.4367V53.4373V53.4379V53.4385V53.4391V53.4397V53.4402V53.4408V53.4414V53.442V53.4426V53.4432V53.4438V53.4444V53.4449V53.4455V53.4461V53.4467V53.4473V53.4479V53.4485V53.4491V53.4496V53.4502V53.4508V53.4514V53.452V53.4526V53.4532V53.4538V53.4543V53.4549V53.4555V53.4561V53.4567V53.4573V53.4579V53.4585V53.4591V53.4596V53.4602V53.4608V53.4614V53.462V53.4626V53.4632V53.4638V53.4643V53.4649V53.4655V53.4661V53.4667V53.4673V53.4679V53.4685V53.469V53.4696V53.4702V53.4708V53.4714V53.472V53.4726V53.4732V53.4737V53.4743V53.4749V53.4755V53.4761V53.4767V53.4773V53.4779V53.4784V53.479V53.4796V56.79C524.5 58.3081 523.297 59.5 521.711 59.5H518.526H505.474H502.289C500.703 59.5 499.5 58.3081 499.5 56.79V53.4796V53.479V53.4784V53.4779V53.4773V53.4767V53.4761V53.4755V53.4749V53.4743V53.4737V53.4732V53.4726V53.472V53.4714V53.4708V53.4702V53.4696V53.469V53.4685V53.4679V53.4673V53.4667V53.4661V53.4655V53.4649V53.4643V53.4638V53.4632V53.4626V53.462V53.4614V53.4608V53.4602V53.4596V53.4591V53.4585V53.4579V53.4573V53.4567V53.4561V53.4555V53.4549V53.4543V53.4538V53.4532V53.4526V53.452V53.4514V53.4508V53.4502V53.4496V53.4491V53.4485V53.4479V53.4473V53.4467V53.4461V53.4455V53.4449V53.4444V53.4438V53.4432V53.4426V53.442V53.4414V53.4408V53.4402V53.4397V53.4391V53.4385V53.4379V53.4373V53.4367V53.4361V53.4355V53.435V53.4344V53.4338V53.4332V53.4326V53.432V53.4314V53.4308V53.4303V53.4297V53.4291V53.4285V53.4279V53.4273V53.4267V53.4261V53.4255V53.425V53.4244V53.4238V53.4232V53.4226V53.422V53.4214V53.4208V53.4203V53.4197V53.4191V53.4185V53.4179V53.4173V53.4167V53.4161V53.4156V53.415V53.4144V53.4138V53.4132V53.4126V53.412V53.4114V53.4109V53.4103V53.4097V53.4091V53.4085V53.4079V53.4073V53.4067V53.4062V53.4056V53.405V53.4044V53.4038V53.4032V53.4026V53.402V53.4014V53.4009V53.4003V53.3997V53.3991V53.3985V53.3979V53.3973V53.3967V53.3962V53.3956V53.395V53.3944V53.3938V53.3932V53.3926V53.392V53.3915V53.3909V53.3903V53.3897V53.3891V53.3885V53.3879V53.3873V53.3868V53.3862V53.3856V53.385V53.3844V53.3838V53.3832V53.3826V53.3821V53.3815V53.3809V53.3803V53.3797V53.3791V53.3785V53.3779V53.3774V53.3768V53.3762V53.3756V53.375V53.3744V53.3738V53.3732V53.3726V53.3721V53.3715V53.3709V53.3703V53.3697V53.3691V53.3685V53.3679V53.3674V53.3668V53.3662V53.3656V53.365V53.3644V53.3638V53.3632V53.3627V53.3621V53.3615V53.3609V53.3603V53.3597V53.3591V53.3585V53.358V53.3574V53.3568V53.3562V53.3556V53.355V53.3544V53.3538V53.3533V53.3527V53.3521V53.3515V53.3509V53.3503V53.3497V53.3491V53.3486V53.348V53.3474V53.3468V53.3462V53.3456V53.345V53.3444V53.3438V53.3433V53.3427V53.3421V53.3415V53.3409V53.3403V53.3397V53.3391V53.3386V53.338V53.3374V53.3368V53.3362V53.3356V53.335V53.3344V53.3339V53.3333V53.3327V53.3321V53.3315V53.3309V53.3303V53.3297V53.3292V53.3286V53.328V53.3274V53.3268V53.3262V53.3256V53.325V53.3245V53.3239V53.3233V53.3227V53.3221V53.3215V53.3209V53.3203V53.3197V53.3192V53.3186V53.318V53.3174V53.3168V53.3162V53.3156V53.315V53.3145V53.3139V53.3133V53.3127V53.3121V53.3115V53.3109V53.3103V53.3098V53.3092V53.3086V53.308V53.3074V53.3068V53.3062V53.3056V53.3051V53.3045V53.3039V53.3033V53.3027V53.3021V53.3015V53.3009V53.3004V53.2998V53.2992V53.2986V53.298V53.2974V53.2968V53.2962V53.2957V53.2951V53.2945V53.2939V53.2933V53.2927V53.2921V53.2915V53.2909V53.2904V53.2898V53.2892V53.2886V53.288V53.2874V53.2868V53.2862V53.2857V53.2851V53.2845V53.2839V53.2833V53.2827V53.2821V53.2815V53.281V53.2804V53.2798V53.2792V53.2786V53.278V53.2774V53.2768V53.2763V53.2757V53.2751V53.2745V53.2739V53.2733V53.2727V53.2721V53.2716V53.271V53.2704V53.2698V53.2692V53.2686V53.268V53.2674V53.2668V53.2663V53.2657V53.2651V53.2645V53.2639V53.2633V53.2627V53.2621V53.2616V53.261V53.2604V53.2598V53.2592V53.2586V53.258V53.2574V53.2569V53.2563V53.2557V53.2551V53.2545V53.2539V53.2533V53.2527V53.2522V53.2516V53.251V53.2504V53.2498V53.2492V53.2486V53.248V53.2475V53.2469V53.2463V53.2457V53.2451V53.2445V53.2439V53.2433V53.2428V53.2422V53.2416V53.241V53.2404V53.2398V53.2392V53.2386V53.238V53.2375V53.2369V53.2363V53.2357V53.2351V53.2345V53.2339V53.2333V53.2328V53.2322V53.2316V53.231V53.2304V53.2298V53.2292V53.2286V53.2281V53.2275V53.2269V53.2263V53.2257V53.2251V53.2245V53.2239V53.2234V53.2228V53.2222V53.2216V53.221V53.2204V53.2198V53.2192V53.2187V53.2181V53.2175V53.2169V53.2163V53.2157V53.2151V53.2145V53.214V53.2134V53.2128V53.2122V53.2116V53.211V53.2104V53.2098V53.2092V53.2087V53.2081V53.2075V53.2069V53.2063V53.2057V53.2051V53.2045V53.204V53.2034V53.2028V53.2022V53.2016V53.201V53.2004V53.1998V53.1993V53.1987V53.1981V53.1975V53.1969V53.1963V53.1957V53.1951V53.1946V53.194V53.1934V53.1928V53.1922V53.1916V53.191V53.1904V53.1899V53.1893V53.1887V53.1881V53.1881C499.597 50.6528 501.643 48.6441 504.174 48.4611Z" stroke="#333333" stroke-linejoin="round"/>
<path d="M495.577 24.9056L495.569 24.8953L495.561 24.8854L492.884 21.6795L492.734 21.5H492.5H492C491.231 21.5 490.347 21.0987 489.646 20.442C488.944 19.7856 488.5 18.9458 488.5 18.1472V9.5C488.5 8.75702 488.91 7.99844 489.584 7.40991C490.257 6.82301 491.139 6.45588 491.981 6.45588H496.5V6.45717V6.4608V6.46444V6.46809V6.47175V6.47541V6.47908V6.48276V6.48644V6.49013V6.49383V6.49753V6.50124V6.50496V6.50869V6.51242V6.51615V6.51989V6.52364V6.5274V6.53116V6.53493V6.5387V6.54248V6.54626V6.55005V6.55385V6.55765V6.56146V6.56527V6.56908V6.57291V6.57674V6.58057V6.58441V6.58825V6.5921V6.59595V6.59981V6.60367V6.60754V6.61141V6.61528V6.61917V6.62305V6.62694V6.63083V6.63473V6.63863V6.64254V6.64645V6.65036V6.65428V6.6582V6.66212V6.66605V6.66998V6.67392V6.67786V6.6818V6.68575V6.6897V6.69365V6.6976V6.70156V6.70552V6.70948V6.71345V6.71742V6.72139V6.72537V6.72934V6.73332V6.7373V6.74129V6.74527V6.74926V6.75325V6.75724V6.76124V6.76523V6.76923V6.77323V6.77723V6.78124V6.78524V6.78925V6.79326V6.79727V6.80128V6.80529V6.8093V6.81331V6.81733V6.82134V6.82536V6.82938V6.83339V6.83741V6.84143V6.84545V6.84947V6.85349V6.85751V6.86153V6.86555V6.86957V6.8736V6.87762V6.88164V6.88566V6.88968V6.8937V6.89772V6.90174V6.90576V6.90978V6.91379V6.91781V6.92183V6.92584V6.92986V6.93387V6.93788V6.94189V6.9459V6.94991V6.95392V6.95792V6.96193V6.96593V6.96993V6.97393V6.97793V6.98192V6.98592V6.98991V6.9939V6.99789V7.00187V7.00585V7.00984V7.01381V7.01779V7.02176V7.02573V7.0297V7.03367V7.03763V7.04159V7.04555V7.0495V7.05345V7.0574V7.06134V7.06528V7.06922V7.07316V7.07709V7.08101V7.08494V7.08886V7.09277V7.09669V7.10059V7.1045V7.1084V7.1123V7.11619V7.12008V7.12396V7.12784V7.13171V7.13558V7.13945V7.14331V7.14716V7.15102V7.15486V7.1587V7.16254V7.16637V7.1702V7.17402V7.17783V7.18164V7.18545V7.18925V7.19304V7.19683V7.20061V7.20439V7.20816V7.21192V7.21568V7.21944V7.22318V7.22692V7.23066V7.23439V7.23811V7.24182V7.24553V7.24923V7.25293V7.25662V7.2603V7.26397V7.26764V7.2713V7.27496V7.2786V7.28224V7.28587V7.2895V7.29312V7.29673V7.30033V7.30392V7.30751V7.31109V7.31466V7.31822V7.32178V7.32533V7.32887V7.3324V7.33592V7.33943V7.34294V7.34644V7.34993V7.35341V7.35688V7.36034V7.3638V7.36724V7.37068V7.3741V7.37752V7.38093V7.38433V7.38772V7.3911V7.39448V7.39784V7.40119V7.40453V7.40787V7.41119V7.4145V7.41781V7.4211V7.42439V7.42766V7.43092V7.43418V7.43742V7.44065V7.44387V7.44708V7.45029V7.45348V7.45666V7.45982V7.46298V7.46613V7.46926V7.47239V7.4755V7.4786V7.4817V7.48477V7.48784V7.4909V7.49394V7.49698V7.5V16.3529C496.5 18.7351 498.036 20.7753 499.784 22.0129L497.185 24.9655C496.948 25.1975 496.661 25.3235 496.415 25.3235H496.312C496.075 25.3235 495.804 25.2075 495.577 24.9056ZM529.022 24.8917L529.016 24.8986L529.011 24.9056C528.784 25.2075 528.513 25.3235 528.277 25.3235H528.174C527.927 25.3235 527.64 25.1975 527.403 24.9655L524.788 21.9949C526.501 20.6607 527.5 18.6868 527.5 16.3529V7.5V7.49698V7.49394V7.4909V7.48784V7.48477V7.4817V7.4786V7.4755V7.47239V7.46926V7.46613V7.46298V7.45982V7.45666V7.45348V7.45029V7.44708V7.44387V7.44065V7.43742V7.43418V7.43092V7.42766V7.42439V7.4211V7.41781V7.4145V7.41119V7.40787V7.40453V7.40119V7.39784V7.39448V7.3911V7.38772V7.38433V7.38093V7.37752V7.3741V7.37068V7.36724V7.3638V7.36034V7.35688V7.35341V7.34993V7.34644V7.34294V7.33943V7.33592V7.3324V7.32887V7.32533V7.32178V7.31822V7.31466V7.31109V7.30751V7.30392V7.30033V7.29673V7.29312V7.2895V7.28587V7.28224V7.2786V7.27496V7.2713V7.26764V7.26397V7.2603V7.25662V7.25293V7.24923V7.24553V7.24182V7.23811V7.23439V7.23066V7.22692V7.22318V7.21944V7.21568V7.21192V7.20816V7.20439V7.20061V7.19683V7.19304V7.18925V7.18545V7.18164V7.17783V7.17402V7.1702V7.16637V7.16254V7.1587V7.15486V7.15102V7.14716V7.14331V7.13945V7.13558V7.13171V7.12784V7.12396V7.12008V7.11619V7.1123V7.1084V7.1045V7.10059V7.09669V7.09277V7.08886V7.08494V7.08101V7.07709V7.07316V7.06922V7.06528V7.06134V7.0574V7.05345V7.0495V7.04555V7.04159V7.03763V7.03367V7.0297V7.02573V7.02176V7.01779V7.01381V7.00984V7.00585V7.00187V6.99789V6.9939V6.98991V6.98592V6.98192V6.97793V6.97393V6.96993V6.96593V6.96193V6.95792V6.95392V6.94991V6.9459V6.94189V6.93788V6.93387V6.92986V6.92584V6.92183V6.91781V6.91379V6.90978V6.90576V6.90174V6.89772V6.8937V6.88968V6.88566V6.88164V6.87762V6.8736V6.86957V6.86555V6.86153V6.85751V6.85349V6.84947V6.84545V6.84143V6.83741V6.83339V6.82938V6.82536V6.82134V6.81733V6.81331V6.8093V6.80529V6.80128V6.79727V6.79326V6.78925V6.78524V6.78124V6.77723V6.77323V6.76923V6.76523V6.76124V6.75724V6.75325V6.74926V6.74527V6.74129V6.7373V6.73332V6.72934V6.72537V6.72139V6.71742V6.71345V6.70948V6.70552V6.70156V6.6976V6.69365V6.6897V6.68575V6.6818V6.67786V6.67392V6.66998V6.66605V6.66212V6.6582V6.65428V6.65036V6.64645V6.64254V6.63863V6.63473V6.63083V6.62694V6.62305V6.61917V6.61528V6.61141V6.60754V6.60367V6.59981V6.59595V6.5921V6.58825V6.58441V6.58057V6.57674V6.57291V6.56908V6.56527V6.56146V6.55765V6.55385V6.55005V6.54626V6.54248V6.5387V6.53493V6.53116V6.5274V6.52364V6.51989V6.51615V6.51242V6.50869V6.50496V6.50124V6.49753V6.49383V6.49013V6.48644V6.48276V6.47908V6.47541V6.47175V6.46809V6.46444V6.4608V6.45717V6.45588H532.607C534.262 6.45588 535.5 7.79083 535.5 9.5V18.5C535.5 19.3197 535.123 20.0693 534.543 20.6212C533.959 21.1765 533.203 21.5 532.5 21.5H532H531.761L531.611 21.6859L529.022 24.8917ZM508.887 19.6833L508.737 19.5H508.5H504C503.158 19.5 502.273 19.133 501.596 18.5353C500.92 17.9376 500.5 17.1533 500.5 16.3529V7.39706C500.5 5.79241 502.074 4.5 503.839 4.5H520.749C521.645 4.5 522.341 4.73855 522.805 5.14347C523.26 5.54002 523.549 6.14378 523.549 7V8V16.3529C523.549 18.0508 522.165 19.5 520.5 19.5H516.5H516.275L516.126 19.6686L513.168 23.0091C512.931 23.2414 512.644 23.3676 512.397 23.3676H512.397H512.396H512.395H512.395H512.394H512.394H512.393H512.393H512.392H512.391H512.391H512.39H512.39H512.389H512.388H512.388H512.387H512.387H512.386H512.386H512.385H512.385H512.384H512.383H512.383H512.382H512.382H512.381H512.381H512.38H512.38H512.379H512.379H512.378H512.378H512.377H512.376H512.376H512.375H512.375H512.374H512.374H512.373H512.373H512.372H512.372H512.371H512.371H512.37H512.37H512.369H512.369H512.368H512.368H512.367H512.367H512.367H512.366H512.366H512.365H512.365H512.364H512.364H512.363H512.363H512.362H512.362H512.361H512.361H512.361H512.36H512.36H512.359H512.359H512.358H512.358H512.357H512.357H512.357H512.356H512.356H512.355H512.355H512.354H512.354H512.354H512.353H512.353H512.352H512.352H512.351H512.351H512.351H512.35H512.35H512.349H512.349H512.349H512.348H512.348H512.347H512.347H512.347H512.346H512.346H512.346H512.345H512.345H512.344H512.344H512.344H512.343H512.343H512.343H512.342H512.342H512.342H512.341H512.341H512.34H512.34H512.34H512.339H512.339H512.339H512.338H512.338H512.338H512.337H512.337H512.337H512.336H512.336H512.336H512.335H512.335H512.335H512.334H512.334H512.334H512.333H512.333H512.333H512.332H512.332H512.332H512.332H512.331H512.331H512.331H512.33H512.33H512.33H512.329H512.329H512.329H512.329H512.328H512.328H512.328H512.327H512.327H512.327H512.327H512.326H512.326H512.326H512.325H512.325H512.325H512.325H512.324H512.324H512.324H512.324H512.323H512.323H512.323H512.323H512.322H512.322H512.322H512.322H512.321H512.321H512.321H512.321H512.32H512.32H512.32H512.32H512.319H512.319H512.319H512.319H512.318H512.318H512.318H512.318H512.317H512.317H512.317H512.317H512.317H512.316H512.316H512.316H512.316H512.316H512.315H512.315H512.315H512.315H512.314H512.314H512.314H512.314H512.314H512.313H512.313H512.313H512.313H512.313H512.313H512.312H512.312H512.312H512.312H512.312H512.311H512.311H512.311H512.311H512.311H512.31H512.31H512.31H512.31H512.31H512.31H512.309H512.309H512.309H512.309H512.309H512.309H512.308H512.308H512.308H512.308H512.308H512.308H512.308H512.307H512.307H512.307H512.307H512.307H512.307H512.306H512.306H512.306H512.306H512.306H512.306H512.306H512.305H512.305H512.305H512.305H512.305H512.305H512.305H512.305H512.304H512.304H512.304H512.304H512.304H512.304H512.304H512.304H512.303H512.303H512.303H512.303H512.303H512.303H512.303H512.303H512.302H512.302H512.302H512.302H512.302H512.302H512.302H512.302H512.302H512.301H512.301H512.301H512.301H512.301H512.301H512.301H512.301H512.301H512.301H512.3H512.3H512.3H512.3H512.3H512.3H512.3H512.3H512.3H512.3H512.3H512.3H512.299H512.299H512.299H512.299H512.299H512.299H512.299H512.299H512.299H512.299H512.299H512.299H512.298H512.298H512.298H512.298H512.298H512.298H512.298H512.298H512.298H512.298H512.298H512.298H512.298H512.298H512.298H512.297H512.297H512.297H512.297H512.297H512.297H512.297H512.297H512.297H512.297H512.297H512.297H512.297H512.297H512.297H512.297H512.297H512.297H512.297H512.296H512.296H512.296H512.296H512.296H512.296H512.296H512.296H512.296H512.296H512.296H512.296H512.296H512.296H512.296H512.296H512.296H512.296H512.296H512.296H512.296H512.296H512.296H512.296H512.295H512.295H512.295H512.295H512.295H512.295H512.295H512.295H512.295H512.295H512.295H512.295H512.295H512.295H512.295H512.295H512.295H512.295H512.295H512.295H512.295H512.295H512.295H512.295H512.295H512.295H512.295H512.295H512.295H512.295H512.295H512.295H512.295H512.295H512.295H512.295H512.295H512.295H512.295H512.295H512.295H512.295H512.294H512.294H512.294H512.294H512.294H512.294H512.294H512.294H512.294H512.294H512.294H512.294H512.294H512.294H512.294H512.294H512.294H512.294H512.294C512.211 23.3676 512.094 23.335 511.945 23.2457C511.805 23.1617 511.663 23.0438 511.53 22.9132L508.887 19.6833Z" fill="url(#paint8_linear_105_113)" stroke="#333333"/>
<path d="M491.569 44.4372C491.53 44.2815 491.419 44.1539 491.27 44.0944C491.021 43.9949 490.673 43.8477 490.379 43.5348C490.099 43.2355 489.831 42.7429 489.831 41.8822C489.831 41.7833 489.832 41.5643 489.875 41.3284C489.921 41.0782 490 40.8923 490.097 40.7949C490.203 40.6888 490.256 40.5406 490.241 40.3912C490.19 39.8775 490.09 38.8494 490.115 37.8022C490.127 37.2787 490.171 36.7638 490.263 36.3141C490.356 35.8571 490.491 35.509 490.659 35.2855L490.659 35.2855L490.662 35.2821C491.271 34.4567 492.405 34.0006 493.498 33.7623C494.567 33.5293 495.479 33.5293 495.518 33.5293H495.518H495.518C495.61 33.5293 496.521 33.5293 497.576 33.762C498.652 33.9995 499.764 34.4545 500.375 35.2821C500.386 35.2972 500.398 35.3117 500.411 35.3254C500.412 35.3286 500.414 35.3329 500.416 35.3384C500.419 35.3455 500.423 35.3552 500.427 35.367C500.433 35.3831 500.441 35.4033 500.45 35.4265C500.174 36.3641 500.174 37.2607 500.174 37.6531V37.6616C500.174 39.2286 500.576 40.5181 501.205 41.5155V41.5164V41.5173V41.5182V41.5191V41.52V41.5209V41.5218V41.5227V41.5237V41.5246V41.5255V41.5264V41.5273V41.5282V41.5291V41.53V41.5309V41.5317V41.5326V41.5335V41.5344V41.5353V41.5362V41.5371V41.5379V41.5388V41.5397V41.5406V41.5415V41.5423V41.5432V41.5441V41.5449V41.5458V41.5467V41.5475V41.5484V41.5493V41.5501V41.551V41.5518V41.5527V41.5535V41.5544V41.5552V41.5561V41.5569V41.5578V41.5586V41.5595V41.5603V41.5611V41.562V41.5628V41.5637V41.5645V41.5653V41.5662V41.567V41.5678V41.5686V41.5695V41.5703V41.5711V41.5719V41.5727V41.5736V41.5744V41.5752V41.576V41.5768V41.5776V41.5784V41.5793V41.5801V41.5809V41.5817V41.5825V41.5833V41.5841V41.5849V41.5857V41.5865V41.5873V41.5881V41.5888V41.5896V41.5904V41.5912V41.592V41.5928V41.5936V41.5944V41.5951V41.5959V41.5967V41.5975V41.5982V41.599V41.5998V41.6006V41.6013V41.6021V41.6029V41.6036V41.6044V41.6052V41.6059V41.6067V41.6075V41.6082V41.609V41.6097V41.6105V41.6113V41.612V41.6128V41.6135V41.6143V41.615V41.6158V41.6165V41.6173V41.618V41.6188V41.6195V41.6202V41.621V41.6217V41.6225V41.6232V41.6239V41.6247V41.6254V41.6261V41.6269V41.6276V41.6283V41.6291V41.6298V41.6305V41.6312V41.632V41.6327V41.6334V41.6341V41.6348V41.6356V41.6363V41.637V41.6377V41.6384V41.6391V41.6399V41.6406V41.6413V41.642V41.6427V41.6434V41.6441V41.6448V41.6455V41.6462V41.6469V41.6476V41.6483V41.649V41.6497V41.6504V41.6511V41.6518V41.6525V41.6532V41.6539V41.6546V41.6553V41.656V41.6567V41.6574V41.6581V41.6587V41.6594V41.6601V41.6608V41.6615V41.6622V41.6629V41.6635V41.6642V41.6649V41.6656V41.6663V41.6669V41.6676V41.6683V41.669V41.6696V41.6703V41.671V41.6716V41.6723V41.673V41.6737V41.6743V41.675V41.6757V41.6763V41.677V41.6777V41.6783V41.679V41.6796V41.6803V41.681V41.6816V41.6823V41.6829V41.6836V41.6843V41.6849V41.6856V41.6862V41.6869V41.6875V41.6882V41.6888V41.6895V41.6901V41.6908V41.6914V41.6921V41.6927V41.6934V41.694V41.6947V41.6953V41.696V41.6966V41.6973V41.6979V41.6986V41.6992V41.6998V41.7005V41.7011V41.7018V41.7024V41.703V41.7037V41.7043V41.705V41.7056V41.7062V41.7069V41.7075V41.7081V41.7088V41.7094V41.71V41.7107V41.7113V41.7119V41.7126V41.7132V41.7138V41.7144V41.7151V41.7157V41.7163V41.717V41.7176V41.7182V41.7188V41.7195V41.7201V41.7207V41.7213V41.722V41.7226V41.7232V41.7238V41.7245V41.7251V41.7257V41.7263V41.7269V41.7276V41.7282V41.7288V41.7294V41.73V41.7306V41.7313V41.7319V41.7325V41.7331V41.7337V41.7343V41.735V41.7356V41.7362V41.7368V41.7374V41.738V41.7387V41.7393V41.7399V41.7405V41.7411V41.7417V41.7423V41.7429V41.7436V41.7442V41.7448V41.7454V41.746V41.7466V41.7472V41.7478V41.7484V41.749V41.7496V41.7503V41.7509V41.7515V41.7521V41.7527V41.7533V41.7539V41.7545V41.7551V41.7557V41.7563V41.7569V41.7575V41.7582V41.7588V41.7594V41.76V41.7606V41.7612V41.7618V41.7624V41.763V41.7636V41.7642V41.7648V41.7654V41.766V41.7666V41.7672V41.7678V41.7684V41.769V41.7696V41.7702V41.7708V41.7715V41.7721V41.7727V41.7733V41.7739V41.7745V41.7751V41.7757V41.7763V41.7769V41.7775V41.7781V41.7787V41.7793C501.205 42.6552 500.954 43.1757 500.685 43.4828C500.408 43.798 500.079 43.9278 499.87 43.9625C499.687 43.9929 499.536 44.1218 499.478 44.2974C499.434 44.428 499.366 44.5873 499.286 44.7732L499.281 44.7848C499.232 44.8991 499.179 45.0244 499.131 45.1468C497.946 45.8701 496.951 46.8589 496.227 47.9471C495.991 48.0219 495.782 48.0734 495.518 48.0734C494.606 48.0734 493.793 47.6168 493.147 47.0319C492.499 46.4443 492.08 45.7812 491.956 45.4938C491.952 45.4848 491.948 45.4759 491.944 45.4672C491.757 45.0945 491.666 44.8213 491.569 44.4372Z" stroke="#333333" stroke-linejoin="round"/>
<path d="M521.855 40.7949C521.949 40.7011 522.002 40.5738 522.002 40.4411V40.4405V40.4399V40.4393V40.4386V40.438V40.4374V40.4368V40.4362V40.4356V40.435V40.4344V40.4338V40.4332V40.4326V40.432V40.4314V40.4308V40.4302V40.4296V40.429V40.4284V40.4278V40.4272V40.4266V40.426V40.4254V40.4248V40.4242V40.4236V40.423V40.4224V40.4218V40.4212V40.4206V40.42V40.4193V40.4187V40.4181V40.4175V40.4169V40.4163V40.4157V40.4151V40.4145V40.4139V40.4133V40.4127V40.4121V40.4115V40.4109V40.4103V40.4097V40.4091V40.4085V40.4079V40.4073V40.4067V40.4061V40.4055V40.4049V40.4043V40.4037V40.4031V40.4025V40.4019V40.4013V40.4006V40.4V40.3994V40.3988V40.3982V40.3976V40.397V40.3964V40.3958V40.3952V40.3946V40.394V40.3934V40.3928V40.3922V40.3916V40.391V40.3904V40.3898V40.3892V40.3886V40.388V40.3874V40.3868V40.3862V40.3856V40.385V40.3844V40.3838V40.3832V40.3826V40.3819V40.3813V40.3807V40.3801V40.3795V40.3789V40.3783V40.3777V40.3771V40.3765V40.3759V40.3753V40.3747V40.3741V40.3735V40.3729V40.3723V40.3717V40.3711V40.3705V40.3699V40.3693V40.3687V40.3681V40.3675V40.3669V40.3663V40.3657V40.3651V40.3645V40.3639V40.3633V40.3626V40.362V40.3614V40.3608V40.3602V40.3596V40.359V40.3584V40.3578V40.3572V40.3566V40.356V40.3554V40.3548V40.3542V40.3536V40.353V40.3524V40.3518V40.3512V40.3506V40.35V40.3494V40.3488V40.3482V40.3476V40.347V40.3464V40.3458V40.3452V40.3446V40.3439V40.3433V40.3427V40.3421V40.3415V40.3409V40.3403V40.3397V40.3391V40.3385V40.3379V40.3373V40.3367V40.3361V40.3355V40.3349V40.3343V40.3337V40.3331V40.3325V40.3319V40.3313V40.3307V40.3301V40.3295V40.3289V40.3283V40.3277V40.3271V40.3265V40.3259V40.3253V40.3246V40.324V40.3234V40.3228V40.3222V40.3216V40.321V40.3204V40.3198V40.3192V40.3186V40.318V40.3174V40.3168V40.3162V40.3156V40.315V40.3144V40.3138V40.3132V40.3126V40.312V40.3114V40.3108V40.3102V40.3096V40.309V40.3084V40.3078V40.3072V40.3066V40.3059V40.3053V40.3047V40.3041V40.3035V40.3029V40.3023V40.3017V40.3011V40.3005V40.2999V40.2993V40.2987V40.2981V40.2975V40.2969V40.2963V40.2957V40.2951V40.2945V40.2939V40.2933V40.2927V40.2921V40.2915V40.2909V40.2903V40.2897V40.2891V40.2885V40.2879V40.2873V40.2866V40.286V40.2854V40.2848V40.2842V40.2836V40.283V40.2824V40.2818V40.2812V40.2806V40.28V40.2794V40.2788V40.2782V40.2776V40.277V40.2764V40.2758V40.2752V40.2746V40.274V40.2734V40.2728V40.2722V40.2716V40.271V40.2704V40.2698V40.2692V40.2686V40.2679V40.2673V40.2667V40.2661V40.2655V40.2649V40.2643V40.2637V40.2631V40.2625V40.2619V40.2613V40.2607V40.2601V40.2595V40.2589V40.2583V40.2577V40.2571V40.2565V40.2559V40.2553V40.2547V40.2541V40.2535V40.2529V40.2523V40.2517V40.2511V40.2505V40.2499V40.2493V40.2486V40.248V40.2474V40.2468V40.2462V40.2456V40.2451C522.322 39.5388 522.414 38.6642 522.414 37.7646L522.414 37.751C522.414 37.3632 522.414 36.6364 522.13 35.8788C522.217 35.5661 522.287 35.4223 522.371 35.339C522.388 35.3213 522.405 35.3023 522.42 35.2821C523.029 34.4567 524.163 34.0006 525.256 33.7623C526.325 33.5293 527.236 33.5293 527.276 33.5293H527.276H527.276C527.368 33.5293 528.279 33.5293 529.334 33.762C530.408 33.9989 531.516 34.4522 532.128 35.2759C532.303 35.5303 532.438 35.9029 532.531 36.3696C532.624 36.8336 532.667 37.3561 532.68 37.8795C532.705 38.9261 532.604 39.9289 532.554 40.3858C532.537 40.5369 532.59 40.6875 532.697 40.7949C532.802 40.8999 532.878 41.0702 532.92 41.294C532.962 41.5128 532.963 41.7274 532.963 41.8822C532.963 42.7581 532.712 43.2787 532.442 43.5858C532.166 43.9009 531.837 44.0307 531.628 44.0655C531.432 44.0982 531.273 44.2442 531.225 44.4372C531.129 44.8213 531.037 45.0945 530.851 45.4672C530.716 45.7352 530.311 46.4048 529.679 46.9999C529.047 47.5948 528.236 48.0734 527.276 48.0734C526.875 48.0734 526.489 48.0021 526.178 47.873C525.52 46.8358 524.584 46.0146 523.669 45.4005C523.504 45.061 523.418 44.798 523.327 44.4372C523.286 44.2714 523.162 44.1383 523 44.0843C522.721 43.9914 522.38 43.8454 522.105 43.5413C521.839 43.2478 521.589 42.7557 521.589 41.8822C521.589 41.7833 521.59 41.5643 521.633 41.3284C521.678 41.0782 521.758 40.8923 521.855 40.7949ZM523.755 45.6903C523.755 45.6901 523.755 45.6899 523.755 45.6897L523.755 45.6901L523.755 45.6903Z" stroke="#333333" stroke-linejoin="round"/>
<path d="M490.145 50.6979L490.145 50.6981L490.158 50.6966L491.723 50.5125L495.566 52.2108C495.563 52.2291 495.56 52.2481 495.557 52.2678C495.556 52.2725 495.555 52.2772 495.554 52.282C495.531 52.423 495.5 52.6081 495.5 52.8V52.8006V52.8012V52.8018V52.8023V52.8029V52.8035V52.8041V52.8047V52.8053V52.8059V52.8064V52.807V52.8076V52.8082V52.8088V52.8094V52.81V52.8106V52.8111V52.8117V52.8123V52.8129V52.8135V52.8141V52.8147V52.8152V52.8158V52.8164V52.817V52.8176V52.8182V52.8188V52.8194V52.82V52.8205V52.8211V52.8217V52.8223V52.8229V52.8235V52.8241V52.8247V52.8253V52.8258V52.8264V52.827V52.8276V52.8282V52.8288V52.8294V52.83V52.8306V52.8312V52.8318V52.8323V52.8329V52.8335V52.8341V52.8347V52.8353V52.8359V52.8365V52.8371V52.8377V52.8383V52.8389V52.8395V52.8401V52.8407V52.8413V52.8419V52.8425V52.8431V52.8437V52.8443V52.8449V52.8455V52.8461V52.8467V52.8473V52.8479V52.8485V52.8491V52.8497V52.8503V52.8509V52.8515V52.8521V52.8527V52.8533V52.8539V52.8545V52.8551V52.8557V52.8563V52.8569V52.8575V52.8581V52.8587V52.8593V52.8599V52.8606V52.8612V52.8618V52.8624V52.863V52.8636V52.8642V52.8648V52.8654V52.8661V52.8667V52.8673V52.8679V52.8685V52.8691V52.8697V52.8704V52.871V52.8716V52.8722V52.8728V52.8735V52.8741V52.8747V52.8753V52.8759V52.8766V52.8772V52.8778V52.8784V52.8791V52.8797V52.8803V52.8809V52.8816V52.8822V52.8828V52.8834V52.8841V52.8847V52.8853V52.886V52.8866V52.8872V52.8879V52.8885V52.8891V52.8898V52.8904V52.891V52.8917V52.8923V52.893V52.8936V52.8942V52.8949V52.8955V52.8962V52.8968V52.8974V52.8981V52.8987V52.8994V52.9V52.9007V52.9013V52.902V52.9026V52.9033V52.9039V52.9046V52.9052V52.9059V52.9065V52.9072V52.9078V52.9085V52.9092V52.9098V52.9105V52.9111V52.9118V52.9125V52.9131V52.9138V52.9144V52.9151V52.9158V52.9164V52.9171V52.9178V52.9184V52.9191V52.9198V52.9205V52.9211V52.9218V52.9225V52.9231V52.9238V52.9245V52.9252V52.9259V52.9265V52.9272V52.9279V52.9286V52.9293V52.9299V52.9306V52.9313V52.932V52.9327V52.9334V52.9341V52.9348V52.9355V52.9361V52.9368V52.9375V52.9382V52.9389V52.9396V52.9403V52.941V52.9417V52.9424V52.9431V52.9438V52.9445V52.9452V52.9459V52.9467V52.9474V52.9481V52.9488V52.9495V52.9502V52.9509V52.9516V52.9524V52.9531V52.9538V52.9545V52.9552V52.956V52.9567V52.9574V52.9581V52.9589V52.9596V52.9603V52.961V52.9618V52.9625V52.9632V52.964V52.9647V52.9654V52.9662V52.9669V52.9677V52.9684V52.9691V52.9699V52.9706V52.9714V52.9721V52.9729V52.9736V52.9744V52.9751V52.9759V52.9766V52.9774V52.9781V52.9789V52.9797V52.9804V52.9812V52.9819V52.9827V52.9835V52.9842V52.985V52.9858V52.9865V52.9873V52.9881V52.9889V52.9896V52.9904V52.9912V52.992V52.9928V52.9935V52.9943V52.9951V52.9959V52.9967V52.9975V52.9983V52.9991V52.9998V53.0006V53.0014V53.0022V53.003V53.0038V53.0046V53.0054V53.0062V53.007V53.0079V53.0087V53.0095V53.0103V53.0111V53.0119V53.0127V53.0135V53.0144V53.0152V53.016V53.0168V53.0177V53.0185V53.0193V53.0201V53.021V53.0218V53.0226V53.0235V53.0243V53.0251V53.026V53.0268V53.0277V53.0285V53.0293V53.0302V53.031V53.0319V53.0327V53.0336V53.0344V53.0353V53.0362V53.037V53.0379V53.0387V53.0396V53.0405V53.0413V53.0422V53.0431V53.0439V53.0448V53.0457V53.0466V53.0475V53.0483V53.0492V53.0501V53.051V53.0519V53.0528V53.0536V53.0545V53.0554V53.0563V53.0572V53.0581V53.059V53.0599V53.0608V53.0617V53.0626V53.0635V53.0644V53.0654V53.0663V53.0672V53.0681V53.069V53.0699V53.0709V53.0718V53.0727V53.0736V53.0746V53.0755V53.0764V53.0774V53.0783V53.0792V53.0802V53.0811V53.0821V53.083V53.0839V53.0849V53.0858V53.0868V53.0877V53.0887V53.0897V53.0906V53.0916V53.0925V53.0935V53.0945V53.0954V53.0964V53.0974V53.0984V53.0993V53.1003V53.1013V53.1023V53.1033V53.1042V53.1052V53.1062V53.1072V53.1082V53.1092V53.1102V53.1112V53.1122V53.1132V53.1142V53.1152V53.1162V53.1172V53.1182V53.1192V53.1203V53.1213V53.1223V53.1233V53.1243V53.1254V53.1264V53.1274V53.1285V53.1295V53.1305V53.1316V53.1326V53.1336V53.1347V53.1357V53.1368V53.1378V53.1389V53.1399V53.141V53.142V53.1431V53.1442V53.1452V53.1463V53.1474V53.1484V53.1495V53.1506V53.1517V53.1527V53.1538V53.1549V53.156V53.1571V53.1582V53.1593V53.1604V53.1614V53.1625V53.1636V53.1647V53.1659V53.167V53.1681V53.1692V53.1703V53.1714V53.1725V53.1736V53.1748V53.1759V53.177V53.1781V53.1793V53.1804V53.1815V53.1827V53.1838V53.185V53.1861V53.1872V53.1884V53.1895V53.1907V53.1918V53.193V53.1942V53.1953V53.1965V53.1977V53.1988V53.2V53.3V56.6C495.5 57.5869 495.69 58.5888 496.13 59.5H491.1H488.6C487.463 59.5 486.5 58.6114 486.5 57.4V54.7V54.6994V54.6988V54.6982V54.6977V54.6971V54.6965V54.6959V54.6953V54.6947V54.6941V54.6936V54.693V54.6924V54.6918V54.6912V54.6906V54.69V54.6895V54.6889V54.6883V54.6877V54.6871V54.6865V54.6859V54.6853V54.6848V54.6842V54.6836V54.683V54.6824V54.6818V54.6812V54.6807V54.6801V54.6795V54.6789V54.6783V54.6777V54.6771V54.6766V54.676V54.6754V54.6748V54.6742V54.6736V54.673V54.6725V54.6719V54.6713V54.6707V54.6701V54.6695V54.6689V54.6684V54.6678V54.6672V54.6666V54.666V54.6654V54.6648V54.6643V54.6637V54.6631V54.6625V54.6619V54.6613V54.6607V54.6602V54.6596V54.659V54.6584V54.6578V54.6572V54.6566V54.6561V54.6555V54.6549V54.6543V54.6537V54.6531V54.6525V54.652V54.6514V54.6508V54.6502V54.6496V54.649V54.6484V54.6478V54.6473V54.6467V54.6461V54.6455V54.6449V54.6443V54.6437V54.6432V54.6426V54.642V54.6414V54.6408V54.6402V54.6396V54.6391V54.6385V54.6379V54.6373V54.6367V54.6361V54.6355V54.635V54.6344V54.6338V54.6332V54.6326V54.632V54.6314V54.6309V54.6303V54.6297V54.6291V54.6285V54.6279V54.6273V54.6268V54.6262V54.6256V54.625V54.6244V54.6238V54.6232V54.6227V54.6221V54.6215V54.6209V54.6203V54.6197V54.6191V54.6186V54.618V54.6174V54.6168V54.6162V54.6156V54.615V54.6145V54.6139V54.6133V54.6127V54.6121V54.6115V54.6109V54.6103V54.6098V54.6092V54.6086V54.608V54.6074V54.6068V54.6062V54.6057V54.6051V54.6045V54.6039V54.6033V54.6027V54.6021V54.6016V54.601V54.6004V54.5998V54.5992V54.5986V54.598V54.5975V54.5969V54.5963V54.5957V54.5951V54.5945V54.5939V54.5934V54.5928V54.5922V54.5916V54.591V54.5904V54.5898V54.5893V54.5887V54.5881V54.5875V54.5869V54.5863V54.5857V54.5852V54.5846V54.584V54.5834V54.5828V54.5822V54.5816V54.5811V54.5805V54.5799V54.5793V54.5787V54.5781V54.5775V54.577V54.5764V54.5758V54.5752V54.5746V54.574V54.5734V54.5728V54.5723V54.5717V54.5711V54.5705V54.5699V54.5693V54.5687V54.5682V54.5676V54.567V54.5664V54.5658V54.5652V54.5646V54.5641V54.5635V54.5629V54.5623V54.5617V54.5611V54.5605V54.56V54.5594V54.5588V54.5582V54.5576V54.557V54.5564V54.5559V54.5553V54.5547V54.5541V54.5535V54.5529V54.5523V54.5518V54.5512V54.5506V54.55V54.5494V54.5488V54.5482V54.5477V54.5471V54.5465V54.5459V54.5453V54.5447V54.5441V54.5436V54.543V54.5424V54.5418V54.5412V54.5406V54.54V54.5395V54.5389V54.5383V54.5377V54.5371V54.5365V54.5359V54.5353V54.5348V54.5342V54.5336V54.533V54.5324V54.5318V54.5312V54.5307V54.5301V54.5295V54.5289V54.5283V54.5277V54.5271V54.5266V54.526V54.5254V54.5248V54.5242V54.5236V54.523V54.5225V54.5219V54.5213V54.5207V54.5201V54.5195V54.5189V54.5184V54.5178V54.5172V54.5166V54.516V54.5154V54.5148V54.5143V54.5137V54.5131V54.5125V54.5119V54.5113V54.5107V54.5102V54.5096V54.509V54.5084V54.5078V54.5072V54.5066V54.5061V54.5055V54.5049V54.5043V54.5037V54.5031V54.5025V54.502V54.5014V54.5008V54.5002V54.4996V54.499V54.4984V54.4978V54.4973V54.4967V54.4961V54.4955V54.4949V54.4943V54.4937V54.4932V54.4926V54.492V54.4914V54.4908V54.4902V54.4896V54.4891V54.4885V54.4879V54.4873V54.4867V54.4861V54.4855V54.485V54.4844V54.4838V54.4832V54.4826V54.482V54.4814V54.4809V54.4803V54.4797V54.4791V54.4785V54.4779V54.4773V54.4768V54.4762V54.4756V54.475V54.4744V54.4738V54.4732V54.4727V54.4721V54.4715V54.4709V54.4703V54.4697V54.4691V54.4686V54.468V54.4674V54.4668V54.4662V54.4656V54.465V54.4645V54.4639V54.4633V54.4627V54.4621V54.4615V54.4609V54.4603V54.4598V54.4592V54.4586V54.458V54.4574V54.4568V54.4562V54.4557V54.4551V54.4545V54.4539V54.4533V54.4527V54.4521V54.4516V54.451V54.4504V54.4498V54.4492V54.4486V54.448V54.4475V54.4469V54.4463V54.4457V54.4451V54.4445V54.4439V54.4434V54.4428V54.4422V54.4416V54.441V54.4404V54.4398V54.4393V54.4387V54.4381V54.4375V54.4369V54.4363V54.4357V54.4352V54.4346V54.434V54.4334V54.4328V54.4322V54.4316V54.4311V54.4305V54.4299V54.4293V54.4287V54.4281V54.4275V54.427V54.4264V54.4258V54.4252V54.4246V54.424V54.4234V54.4228V54.4223V54.4217V54.4211V54.4205V54.4199V54.4193V54.4187V54.4182V54.4176V54.417V54.4164V54.4158V54.4152V54.4146V54.4141V54.4135V54.4129V54.4123V54.4117C486.594 52.4788 488.185 50.8761 490.145 50.6979Z" stroke="#333333" stroke-linejoin="round"/>
<path d="M533.855 50.6979L533.855 50.6981L533.842 50.6966L532.277 50.5125L528.434 52.2108C528.437 52.2291 528.44 52.2481 528.443 52.2678C528.444 52.2725 528.445 52.2772 528.446 52.282C528.469 52.423 528.5 52.6081 528.5 52.8V52.8006V52.8012V52.8018V52.8023V52.8029V52.8035V52.8041V52.8047V52.8053V52.8059V52.8064V52.807V52.8076V52.8082V52.8088V52.8094V52.81V52.8106V52.8111V52.8117V52.8123V52.8129V52.8135V52.8141V52.8147V52.8152V52.8158V52.8164V52.817V52.8176V52.8182V52.8188V52.8194V52.82V52.8205V52.8211V52.8217V52.8223V52.8229V52.8235V52.8241V52.8247V52.8253V52.8258V52.8264V52.827V52.8276V52.8282V52.8288V52.8294V52.83V52.8306V52.8312V52.8318V52.8323V52.8329V52.8335V52.8341V52.8347V52.8353V52.8359V52.8365V52.8371V52.8377V52.8383V52.8389V52.8395V52.8401V52.8407V52.8413V52.8419V52.8425V52.8431V52.8437V52.8443V52.8449V52.8455V52.8461V52.8467V52.8473V52.8479V52.8485V52.8491V52.8497V52.8503V52.8509V52.8515V52.8521V52.8527V52.8533V52.8539V52.8545V52.8551V52.8557V52.8563V52.8569V52.8575V52.8581V52.8587V52.8593V52.8599V52.8606V52.8612V52.8618V52.8624V52.863V52.8636V52.8642V52.8648V52.8654V52.8661V52.8667V52.8673V52.8679V52.8685V52.8691V52.8697V52.8704V52.871V52.8716V52.8722V52.8728V52.8735V52.8741V52.8747V52.8753V52.8759V52.8766V52.8772V52.8778V52.8784V52.8791V52.8797V52.8803V52.8809V52.8816V52.8822V52.8828V52.8834V52.8841V52.8847V52.8853V52.886V52.8866V52.8872V52.8879V52.8885V52.8891V52.8898V52.8904V52.891V52.8917V52.8923V52.893V52.8936V52.8942V52.8949V52.8955V52.8962V52.8968V52.8974V52.8981V52.8987V52.8994V52.9V52.9007V52.9013V52.902V52.9026V52.9033V52.9039V52.9046V52.9052V52.9059V52.9065V52.9072V52.9078V52.9085V52.9092V52.9098V52.9105V52.9111V52.9118V52.9125V52.9131V52.9138V52.9144V52.9151V52.9158V52.9164V52.9171V52.9178V52.9184V52.9191V52.9198V52.9205V52.9211V52.9218V52.9225V52.9231V52.9238V52.9245V52.9252V52.9259V52.9265V52.9272V52.9279V52.9286V52.9293V52.9299V52.9306V52.9313V52.932V52.9327V52.9334V52.9341V52.9348V52.9355V52.9361V52.9368V52.9375V52.9382V52.9389V52.9396V52.9403V52.941V52.9417V52.9424V52.9431V52.9438V52.9445V52.9452V52.9459V52.9467V52.9474V52.9481V52.9488V52.9495V52.9502V52.9509V52.9516V52.9524V52.9531V52.9538V52.9545V52.9552V52.956V52.9567V52.9574V52.9581V52.9589V52.9596V52.9603V52.961V52.9618V52.9625V52.9632V52.964V52.9647V52.9654V52.9662V52.9669V52.9677V52.9684V52.9691V52.9699V52.9706V52.9714V52.9721V52.9729V52.9736V52.9744V52.9751V52.9759V52.9766V52.9774V52.9781V52.9789V52.9797V52.9804V52.9812V52.9819V52.9827V52.9835V52.9842V52.985V52.9858V52.9865V52.9873V52.9881V52.9889V52.9896V52.9904V52.9912V52.992V52.9928V52.9935V52.9943V52.9951V52.9959V52.9967V52.9975V52.9983V52.9991V52.9998V53.0006V53.0014V53.0022V53.003V53.0038V53.0046V53.0054V53.0062V53.007V53.0079V53.0087V53.0095V53.0103V53.0111V53.0119V53.0127V53.0135V53.0144V53.0152V53.016V53.0168V53.0177V53.0185V53.0193V53.0201V53.021V53.0218V53.0226V53.0235V53.0243V53.0251V53.026V53.0268V53.0277V53.0285V53.0293V53.0302V53.031V53.0319V53.0327V53.0336V53.0344V53.0353V53.0362V53.037V53.0379V53.0387V53.0396V53.0405V53.0413V53.0422V53.0431V53.0439V53.0448V53.0457V53.0466V53.0475V53.0483V53.0492V53.0501V53.051V53.0519V53.0528V53.0536V53.0545V53.0554V53.0563V53.0572V53.0581V53.059V53.0599V53.0608V53.0617V53.0626V53.0635V53.0644V53.0654V53.0663V53.0672V53.0681V53.069V53.0699V53.0709V53.0718V53.0727V53.0736V53.0746V53.0755V53.0764V53.0774V53.0783V53.0792V53.0802V53.0811V53.0821V53.083V53.0839V53.0849V53.0858V53.0868V53.0877V53.0887V53.0897V53.0906V53.0916V53.0925V53.0935V53.0945V53.0954V53.0964V53.0974V53.0984V53.0993V53.1003V53.1013V53.1023V53.1033V53.1042V53.1052V53.1062V53.1072V53.1082V53.1092V53.1102V53.1112V53.1122V53.1132V53.1142V53.1152V53.1162V53.1172V53.1182V53.1192V53.1203V53.1213V53.1223V53.1233V53.1243V53.1254V53.1264V53.1274V53.1285V53.1295V53.1305V53.1316V53.1326V53.1336V53.1347V53.1357V53.1368V53.1378V53.1389V53.1399V53.141V53.142V53.1431V53.1442V53.1452V53.1463V53.1474V53.1484V53.1495V53.1506V53.1517V53.1527V53.1538V53.1549V53.156V53.1571V53.1582V53.1593V53.1604V53.1614V53.1625V53.1636V53.1647V53.1659V53.167V53.1681V53.1692V53.1703V53.1714V53.1725V53.1736V53.1748V53.1759V53.177V53.1781V53.1793V53.1804V53.1815V53.1827V53.1838V53.185V53.1861V53.1872V53.1884V53.1895V53.1907V53.1918V53.193V53.1942V53.1953V53.1965V53.1977V53.1988V53.2V53.3V56.6C528.5 57.5869 528.31 58.5888 527.87 59.5H532.9H535.4C536.537 59.5 537.5 58.6114 537.5 57.4V54.7V54.6994V54.6988V54.6982V54.6977V54.6971V54.6965V54.6959V54.6953V54.6947V54.6941V54.6936V54.693V54.6924V54.6918V54.6912V54.6906V54.69V54.6895V54.6889V54.6883V54.6877V54.6871V54.6865V54.6859V54.6853V54.6848V54.6842V54.6836V54.683V54.6824V54.6818V54.6812V54.6807V54.6801V54.6795V54.6789V54.6783V54.6777V54.6771V54.6766V54.676V54.6754V54.6748V54.6742V54.6736V54.673V54.6725V54.6719V54.6713V54.6707V54.6701V54.6695V54.6689V54.6684V54.6678V54.6672V54.6666V54.666V54.6654V54.6648V54.6643V54.6637V54.6631V54.6625V54.6619V54.6613V54.6607V54.6602V54.6596V54.659V54.6584V54.6578V54.6572V54.6566V54.6561V54.6555V54.6549V54.6543V54.6537V54.6531V54.6525V54.652V54.6514V54.6508V54.6502V54.6496V54.649V54.6484V54.6478V54.6473V54.6467V54.6461V54.6455V54.6449V54.6443V54.6437V54.6432V54.6426V54.642V54.6414V54.6408V54.6402V54.6396V54.6391V54.6385V54.6379V54.6373V54.6367V54.6361V54.6355V54.635V54.6344V54.6338V54.6332V54.6326V54.632V54.6314V54.6309V54.6303V54.6297V54.6291V54.6285V54.6279V54.6273V54.6268V54.6262V54.6256V54.625V54.6244V54.6238V54.6232V54.6227V54.6221V54.6215V54.6209V54.6203V54.6197V54.6191V54.6186V54.618V54.6174V54.6168V54.6162V54.6156V54.615V54.6145V54.6139V54.6133V54.6127V54.6121V54.6115V54.6109V54.6103V54.6098V54.6092V54.6086V54.608V54.6074V54.6068V54.6062V54.6057V54.6051V54.6045V54.6039V54.6033V54.6027V54.6021V54.6016V54.601V54.6004V54.5998V54.5992V54.5986V54.598V54.5975V54.5969V54.5963V54.5957V54.5951V54.5945V54.5939V54.5934V54.5928V54.5922V54.5916V54.591V54.5904V54.5898V54.5893V54.5887V54.5881V54.5875V54.5869V54.5863V54.5857V54.5852V54.5846V54.584V54.5834V54.5828V54.5822V54.5816V54.5811V54.5805V54.5799V54.5793V54.5787V54.5781V54.5775V54.577V54.5764V54.5758V54.5752V54.5746V54.574V54.5734V54.5728V54.5723V54.5717V54.5711V54.5705V54.5699V54.5693V54.5687V54.5682V54.5676V54.567V54.5664V54.5658V54.5652V54.5646V54.5641V54.5635V54.5629V54.5623V54.5617V54.5611V54.5605V54.56V54.5594V54.5588V54.5582V54.5576V54.557V54.5564V54.5559V54.5553V54.5547V54.5541V54.5535V54.5529V54.5523V54.5518V54.5512V54.5506V54.55V54.5494V54.5488V54.5482V54.5477V54.5471V54.5465V54.5459V54.5453V54.5447V54.5441V54.5436V54.543V54.5424V54.5418V54.5412V54.5406V54.54V54.5395V54.5389V54.5383V54.5377V54.5371V54.5365V54.5359V54.5353V54.5348V54.5342V54.5336V54.533V54.5324V54.5318V54.5312V54.5307V54.5301V54.5295V54.5289V54.5283V54.5277V54.5271V54.5266V54.526V54.5254V54.5248V54.5242V54.5236V54.523V54.5225V54.5219V54.5213V54.5207V54.5201V54.5195V54.5189V54.5184V54.5178V54.5172V54.5166V54.516V54.5154V54.5148V54.5143V54.5137V54.5131V54.5125V54.5119V54.5113V54.5107V54.5102V54.5096V54.509V54.5084V54.5078V54.5072V54.5066V54.5061V54.5055V54.5049V54.5043V54.5037V54.5031V54.5025V54.502V54.5014V54.5008V54.5002V54.4996V54.499V54.4984V54.4978V54.4973V54.4967V54.4961V54.4955V54.4949V54.4943V54.4937V54.4932V54.4926V54.492V54.4914V54.4908V54.4902V54.4896V54.4891V54.4885V54.4879V54.4873V54.4867V54.4861V54.4855V54.485V54.4844V54.4838V54.4832V54.4826V54.482V54.4814V54.4809V54.4803V54.4797V54.4791V54.4785V54.4779V54.4773V54.4768V54.4762V54.4756V54.475V54.4744V54.4738V54.4732V54.4727V54.4721V54.4715V54.4709V54.4703V54.4697V54.4691V54.4686V54.468V54.4674V54.4668V54.4662V54.4656V54.465V54.4645V54.4639V54.4633V54.4627V54.4621V54.4615V54.4609V54.4603V54.4598V54.4592V54.4586V54.458V54.4574V54.4568V54.4562V54.4557V54.4551V54.4545V54.4539V54.4533V54.4527V54.4521V54.4516V54.451V54.4504V54.4498V54.4492V54.4486V54.448V54.4475V54.4469V54.4463V54.4457V54.4451V54.4445V54.4439V54.4434V54.4428V54.4422V54.4416V54.441V54.4404V54.4398V54.4393V54.4387V54.4381V54.4375V54.4369V54.4363V54.4357V54.4352V54.4346V54.434V54.4334V54.4328V54.4322V54.4316V54.4311V54.4305V54.4299V54.4293V54.4287V54.4281V54.4275V54.427V54.4264V54.4258V54.4252V54.4246V54.424V54.4234V54.4228V54.4223V54.4217V54.4211V54.4205V54.4199V54.4193V54.4187V54.4182V54.4176V54.417V54.4164V54.4158V54.4152V54.4146V54.4141V54.4135V54.4129V54.4123V54.4117C537.406 52.4788 535.815 50.8761 533.855 50.6979Z" stroke="#333333" stroke-linejoin="round"/>
<path d="M123.749 45.8161L131.233 35.8684C131.234 35.8676 131.235 35.8669 131.235 35.8661C131.937 34.9508 131.692 33.6177 130.784 32.954C129.861 32.2786 128.512 32.5063 127.831 33.3922L127.831 33.3921L127.828 33.3963L120.317 43.3782C119.073 41.456 118.766 38.5917 119.634 34.9694C120.581 31.0142 122.913 26.2395 126.801 21.0148C132.878 12.9438 139.309 8.81775 144.203 6.70763C146.652 5.65183 148.719 5.09947 150.169 4.81123C150.894 4.66712 151.464 4.58906 151.85 4.54712C151.916 4.54 151.976 4.53391 152.031 4.52872C152.042 4.57667 152.054 4.62902 152.066 4.68569C152.146 5.05148 152.248 5.59757 152.333 6.30665C152.503 7.72479 152.605 9.79463 152.327 12.3783C151.771 17.5413 149.694 24.7742 143.572 32.9734C139.685 38.1544 135.731 41.7715 132.151 43.8605C128.885 45.766 125.992 46.3675 123.749 45.8161ZM138.544 12.761L138.069 13.1103L138.491 13.5216C139.639 14.6408 141.047 15.8424 142.541 16.9571C144.145 18.1738 145.919 19.1243 147.418 19.812L147.915 20.0403L148.098 19.5242C149.86 14.5387 150.131 10.5674 149.952 7.95378L149.91 7.34703L149.323 7.50505C146.757 8.1955 142.869 9.57575 138.544 12.761Z" stroke="#333333"/>
<path d="M111.229 27.2092L111.229 27.2089C112.675 25.279 115.821 24.9703 118.27 26.7144L118.898 27.2159C117.167 30.6744 116.17 33.8575 115.78 36.7635L104.005 36.839L111.229 27.2092Z" fill="url(#paint9_linear_105_113)" stroke="#333333"/>
<path d="M140.633 42.5854L140.633 42.5854L140.637 42.5885C143.075 44.3324 143.719 47.3427 142.434 49.2746L135.192 58.928L131.624 47.8826C134.331 46.6188 137.097 44.6983 139.924 42.0668L140.633 42.5854Z" fill="url(#paint10_linear_105_113)" stroke="#333333"/>
<path d="M59.5 48.895V48.9094L59.5008 48.9237C59.5793 50.2867 58.4767 51.5 57.0676 51.5H6.19193L9.73827 47.7041C10.2056 47.2989 10.4554 46.7646 10.4711 46.2035C10.4869 45.6381 10.2647 45.0821 9.85696 44.6323L9.85702 44.6322L9.85104 44.6258L4.6833 39.1206L9.8446 33.5364C10.7118 32.6882 10.6759 31.3806 9.85696 30.477L9.85702 30.477L9.85104 30.4706L4.68578 24.968L9.85104 19.4655L9.89855 19.4149L9.93047 19.3532C9.9354 19.3437 9.94037 19.3341 9.94538 19.3245C10.1267 18.9749 10.3649 18.5156 10.3649 17.9361C10.3649 17.3454 10.1231 16.7838 9.78674 16.3508L9.77278 16.3328L9.75725 16.3162L6.19193 12.5H57.0536C58.4836 12.5837 59.5787 13.8142 59.5008 15.1676L59.5 15.182V15.1963V48.895Z" fill="url(#paint11_linear_105_113)" stroke="#333333"/>
<path d="M25.2324 28.9231C25.2324 29.6154 24.9855 30.2308 24.5738 30.7692C24.0799 31.3077 23.4213 31.6154 22.5981 31.7692V31.8462C23.586 31.9231 24.3269 32.2308 24.8208 32.6923C25.3148 33.1538 25.5617 33.7692 25.5617 34.4615C25.5617 35.5385 25.1501 36.3846 24.2445 37C23.4213 37.6154 22.1864 37.9231 20.6223 37.9231C19.3051 37.9231 18.1525 37.6923 17.0823 37.3077V35.2308C17.5763 35.4615 18.0702 35.6154 18.6465 35.7692C19.2228 35.9231 19.799 36 20.3753 36C21.1985 36 21.8571 35.8462 22.2688 35.6154C22.6804 35.3077 22.845 34.9231 22.845 34.3077C22.845 33.7692 22.5981 33.3846 22.1041 33.1538C21.6102 32.9231 20.8692 32.8462 19.8814 32.8462H18.9758V31H19.8814C20.8692 31 21.5278 30.8462 21.9395 30.6154C22.3511 30.3846 22.5981 30 22.5981 29.3846C22.5981 28.5385 22.0218 28.0769 20.8692 28.0769C20.4576 28.0769 20.046 28.1538 19.6344 28.2308C19.2228 28.3846 18.7288 28.5385 18.2349 28.8462L17 27.1538C18.1525 26.3846 19.4697 26 21.0339 26C22.2688 26 23.339 26.2308 23.9976 26.6923C24.6562 27.1538 25.2324 28.0769 25.2324 28.9231Z" fill="white"/>
<path d="M35.4407 32.0769C35.4407 34.0769 35.1114 35.5384 34.3705 36.5384C33.6296 37.4615 32.5594 38 31.1598 38C29.7603 38 28.6901 37.5384 27.9492 36.5384C27.2083 35.4615 26.879 34 26.879 32.0769C26.879 30.0769 27.2083 28.5384 27.9492 27.6153C28.6901 26.6923 29.7603 26.1538 31.1598 26.1538C32.5594 26.1538 33.6296 26.6923 34.3705 27.6923C35.0291 28.6923 35.4407 30.1538 35.4407 32.0769ZM29.431 32.0769C29.431 33.4615 29.5957 34.4615 29.8426 35.0769C30.0896 35.6923 30.5012 36 31.1598 36C31.7361 36 32.2301 35.6923 32.477 35.0769C32.724 34.4615 32.8886 33.4615 32.8886 32.0769C32.8886 30.6923 32.724 29.6923 32.477 29.0769C32.2301 28.4615 31.7361 28.1538 31.1598 28.1538C30.5836 28.1538 30.0896 28.4615 29.8426 29.0769C29.5957 29.6923 29.431 30.6923 29.431 32.0769Z" fill="white"/>
<path d="M42.3559 29.7692C42.3559 30.9999 42.1089 31.8461 41.615 32.4615C41.121 33.0769 40.3801 33.3846 39.3922 33.3846C38.4867 33.3846 37.7457 33.0769 37.2518 32.4615C36.7578 31.8461 36.5109 30.923 36.5109 29.7692C36.5109 27.3846 37.4988 26.2307 39.3922 26.2307C40.2978 26.2307 41.0387 26.5384 41.5327 27.1538C42.1089 27.7692 42.3559 28.6153 42.3559 29.7692ZM38.6513 29.7692C38.6513 30.4615 38.7336 30.923 38.8159 31.2307C38.9806 31.5384 39.1452 31.6923 39.3922 31.6923C39.9685 31.6923 40.2155 30.9999 40.2155 29.6923C40.2155 28.3846 39.9685 27.7692 39.3922 27.7692C39.1452 27.7692 38.8983 27.923 38.8159 28.2307C38.7336 28.6153 38.6513 29.1538 38.6513 29.7692ZM48.1186 26.3846L41.2857 37.8461H39.3099L46.1428 26.3846H48.1186ZM51 34.3076C51 35.5384 50.753 36.3846 50.259 36.9999C49.7651 37.6153 49.0242 37.923 48.0363 37.923C47.1307 37.923 46.3898 37.6153 45.8958 36.9999C45.4019 36.3846 45.1549 35.4615 45.1549 34.3076C45.1549 31.923 46.1428 30.7692 48.0363 30.7692C48.9419 30.7692 49.6828 31.0769 50.1767 31.6923C50.6707 32.3076 51 33.1538 51 34.3076ZM47.213 34.3846C47.213 35.0769 47.2954 35.5384 47.3777 35.8461C47.46 36.1538 47.707 36.3076 47.954 36.3076C48.5302 36.3076 48.7772 35.6153 48.7772 34.3076C48.7772 32.9999 48.5302 32.3846 47.954 32.3846C47.707 32.3846 47.46 32.5384 47.3777 32.8461C47.2954 33.1538 47.213 33.6923 47.213 34.3846Z" fill="white"/>
<defs>
<linearGradient id="paint0_linear_105_113" x1="292.626" y1="2.48711" x2="347.375" y2="59.3744" gradientUnits="userSpaceOnUse">
<stop stop-color="#FFC671"/>
<stop offset="0.59375" stop-color="#FF7541"/>
<stop offset="1" stop-color="#FF6F3D"/>
</linearGradient>
<linearGradient id="paint1_linear_105_113" x1="607.984" y1="35.822" x2="628.984" y2="57.6423" gradientUnits="userSpaceOnUse">
<stop stop-color="#FFC671"/>
<stop offset="0.59375" stop-color="#FF7541"/>
<stop offset="1" stop-color="#FF6F3D"/>
</linearGradient>
<linearGradient id="paint2_linear_105_113" x1="208" y1="49.2499" x2="240" y2="15.9999" gradientUnits="userSpaceOnUse">
<stop stop-color="#FFC671"/>
<stop offset="0.59375" stop-color="#FF7541"/>
<stop offset="1" stop-color="#FF6F3D"/>
</linearGradient>
<linearGradient id="paint3_linear_105_113" x1="673.986" y1="13.9962" x2="703.645" y2="25.2623" gradientUnits="userSpaceOnUse">
<stop stop-color="#FFC671"/>
<stop offset="0.59375" stop-color="#FF7541"/>
<stop offset="1" stop-color="#FF6F3D"/>
</linearGradient>
<linearGradient id="paint4_linear_105_113" x1="701.176" y1="2.38658" x2="713.301" y2="24.3492" gradientUnits="userSpaceOnUse">
<stop stop-color="#FFC671"/>
<stop offset="0.59375" stop-color="#FF7541"/>
<stop offset="1" stop-color="#FF6F3D"/>
</linearGradient>
<linearGradient id="paint5_linear_105_113" x1="694" y1="26.9062" x2="709.29" y2="31.4454" gradientUnits="userSpaceOnUse">
<stop stop-color="#FF8E3D"/>
<stop offset="1" stop-color="#FF6F3D"/>
</linearGradient>
<linearGradient id="paint6_linear_105_113" x1="706" y1="48.7266" x2="712.903" y2="56.9238" gradientUnits="userSpaceOnUse">
<stop stop-color="#FF8E3D"/>
<stop offset="1" stop-color="#FF6F3D"/>
</linearGradient>
<linearGradient id="paint7_linear_105_113" x1="415.5" y1="8" x2="415.5" y2="57" gradientUnits="userSpaceOnUse">
<stop stop-color="#FF733F"/>
<stop offset="1" stop-color="#FF8C3D"/>
</linearGradient>
<linearGradient id="paint8_linear_105_113" x1="488.499" y1="14.8959" x2="536.124" y2="14.8959" gradientUnits="userSpaceOnUse">
<stop stop-color="#FF6F3D"/>
<stop offset="1" stop-color="#FF8E3D"/>
</linearGradient>
<linearGradient id="paint9_linear_105_113" x1="110.456" y1="25.5984" x2="112.1" y2="37.7885" gradientUnits="userSpaceOnUse">
<stop stop-color="#FFC671"/>
<stop offset="0.5938" stop-color="#FF7541"/>
<stop offset="1" stop-color="#FF6F3D"/>
</linearGradient>
<linearGradient id="paint10_linear_105_113" x1="136.527" y1="41.8947" x2="138.89" y2="59.4179" gradientUnits="userSpaceOnUse">
<stop stop-color="#FFC671"/>
<stop offset="0.5938" stop-color="#FF7541"/>
<stop offset="1" stop-color="#FF6F3D"/>
</linearGradient>
<linearGradient id="paint11_linear_105_113" x1="4.00011" y1="10.4375" x2="41.3726" y2="64.8074" gradientUnits="userSpaceOnUse">
<stop stop-color="#FFC671"/>
<stop offset="0.59375" stop-color="#FF7541"/>
<stop offset="1" stop-color="#FF6F3D"/>
</linearGradient>
</defs>
</svg>
