<svg width="2446" height="1887" viewBox="0 0 2446 1887" fill="none" xmlns="http://www.w3.org/2000/svg">
<g clip-path="url(#clip0_16_34117)">
<rect width="2446" height="1887" fill="#1D2D44"/>
<g style="mix-blend-mode:soft-light" opacity="0.2">
<path fill-rule="evenodd" clip-rule="evenodd" d="M1127.35 674.838L1336.85 1591.01C1354.03 1669.57 1311.48 1702.98 1241.74 1665.68L401.475 1244.71C329.23 1209.37 257.301 1117.75 242.066 1041.66L32.563 125.492C15.384 46.9243 57.9351 13.5181 127.677 50.8196L967.938 471.791C1037.68 509.092 1109.61 600.711 1127.35 674.838Z" fill="#333333"/>
</g>
<g style="mix-blend-mode:soft-light" opacity="0.2">
<path fill-rule="evenodd" clip-rule="evenodd" d="M1627.48 1154.32L737.677 1456.8C661.288 1481.96 623.689 1443.06 653.631 1369.86L986.079 490.808C1013.81 415.316 1097.56 334.358 1171.68 311.389L2061.49 8.9015C2137.88 -16.2559 2175.48 22.6394 2145.53 95.8439L1813.09 974.896C1783.14 1048.1 1699.4 1129.06 1627.48 1154.32Z" fill="#333333"/>
</g>
<g style="mix-blend-mode:soft-light" opacity="0.2">
<path fill-rule="evenodd" clip-rule="evenodd" d="M1700.66 1771.62L767.759 1885.39C687.837 1894.37 659.004 1848.59 703.308 1783.07L1208.8 990.779C1251.41 922.569 1349.97 860.487 1427.22 853.191L2360.13 739.419C2440.05 730.445 2468.88 776.219 2424.58 841.736L1919.09 1634.03C1874.78 1699.55 1776.23 1761.63 1700.66 1771.62Z" fill="#333333"/>
</g>
</g>
<defs>
<clipPath id="clip0_16_34117">
<rect width="2446" height="1887" fill="white"/>
</clipPath>
</defs>
</svg>
