<svg width="98" height="56" viewBox="0 0 98 56" fill="none" xmlns="http://www.w3.org/2000/svg">
<path d="M49.4732 14.4986C43.2157 14.4986 37.6246 17.406 33.931 21.967C32.5651 19.8377 31.7711 17.2932 31.7711 14.5598C31.7711 7.07091 37.7313 1 45.0835 1C52.4358 1 58.396 7.07091 58.396 14.5598C58.396 15.2346 58.3476 15.8978 58.2542 16.5462C55.6003 15.2343 52.6211 14.4986 49.4732 14.4986Z" fill="white"/>
<path d="M59.9139 17.4674C60.94 18.1023 61.9059 18.828 62.801 19.6335C64.2929 20.9761 65.5879 22.5403 66.6363 24.2757C68.5316 23.417 70.619 22.9185 72.8146 22.8654C71.7768 16.5118 66.4022 11.652 59.8941 11.5488C60.0838 12.5225 60.1833 13.5293 60.1833 14.5598C60.1833 15.5538 60.0907 16.5258 59.9139 17.4674Z" fill="white"/>
<path d="M32.7993 23.5056C31.3565 21.4539 30.397 19.0257 30.09 16.3936C29.7976 16.3985 29.5073 16.4123 29.2194 16.4347C27.8396 16.5421 26.5142 16.8477 25.2706 17.3236C24.3688 17.6687 23.51 18.1034 22.7046 18.617C20.6023 19.9577 18.8643 21.8363 17.6765 24.0634C17.2517 24.8601 16.8972 25.7013 16.6216 26.5785C16.1786 27.9885 15.9395 29.4913 15.9395 31.0509C15.9395 35.4643 17.8542 39.4222 20.8837 42.1097C22.1927 39.1672 24.9198 37.0188 28.1767 36.5692C28.5729 36.5145 28.9769 36.485 29.3871 36.4822C29.3532 35.9959 29.336 35.505 29.336 35.0099C29.336 30.7462 30.6133 26.7863 32.7993 23.5056Z" fill="white"/>
<path d="M29.5943 38.3039C29.5467 38.303 29.4989 38.3025 29.4511 38.3025C29.136 38.3025 28.8254 38.322 28.5203 38.3599C25.6949 38.7107 23.3473 40.6379 22.3509 43.252C22.1263 43.8413 21.9703 44.4656 21.8931 45.1147C21.8563 45.4238 21.8374 45.7385 21.8374 46.0577C21.8374 47.8511 22.435 49.5023 23.4385 50.816C24.8316 52.6396 27.0069 53.8128 29.4511 53.8128C32.1737 53.8128 34.5626 52.3572 35.9085 50.1683C32.6241 47.1178 30.3348 42.975 29.5943 38.3039Z" fill="white"/>
<path d="M31.6198 7.58944C30.7106 7.17272 29.7021 6.94085 28.6404 6.94085C24.6264 6.94085 21.3724 10.2553 21.3724 14.3439C21.3724 15.2836 21.5443 16.1823 21.8577 17.0094C24.23 15.5209 27.0081 14.6387 29.9837 14.5748L29.9837 14.5598C29.9837 12.0506 30.5736 9.68187 31.6198 7.58944Z" fill="white"/>
<path d="M84.4362 51.2036C87.4872 48.2062 89.3849 43.9992 89.3849 39.3406C89.3849 38.7374 89.353 38.1417 89.291 37.5553C89.3226 37.5549 89.3542 37.5547 89.3859 37.5547C93.5911 37.5547 97 41.0269 97 45.3102C97 49.5934 93.5911 53.0657 89.3859 53.0657C87.4962 53.0657 85.7673 52.3645 84.4362 51.2036Z" fill="white"/>
<path d="M63.6777 49.5477C63.5442 49.6831 63.4088 49.8165 63.2716 49.948C65.8547 52.4585 69.3533 54 73.2055 54C81.154 54 87.5975 47.4368 87.5975 39.3406C87.5975 31.2445 81.154 24.6813 73.2055 24.6813C71.1816 24.6813 69.2554 25.1068 67.5082 25.8747C68.8539 28.6256 69.6108 31.7277 69.6108 35.0099C69.6108 40.6736 67.3567 45.801 63.7125 49.5124C63.7009 49.5242 63.6893 49.536 63.6777 49.5477Z" fill="white"/>
<path d="M14.77 26.5249C7.66921 26.8149 2 32.7701 2 40.0739C2 47.563 7.96035 53.6341 15.3128 53.6341C17.7299 53.6341 19.9964 52.978 21.9503 51.8311C20.7576 50.2259 20.05 48.226 20.05 46.0577C20.05 45.3379 20.128 44.6366 20.2758 43.9622C16.5447 40.9432 14.1522 36.2817 14.1522 31.0509C14.1522 29.4813 14.3676 27.963 14.77 26.5249Z" fill="white"/>
<path d="M67.8235 35.0099C67.8235 45.3316 59.6075 53.6989 49.4732 53.6989C39.339 53.6989 31.1233 45.3316 31.1233 35.0099C31.1233 24.6871 39.3394 16.3191 49.4732 16.3191C59.6071 16.3191 67.8235 24.6871 67.8235 35.0099Z" fill="white"/>
</svg>
