<svg width="812" height="834" viewBox="0 0 812 834" fill="none" xmlns="http://www.w3.org/2000/svg">
<path fill-rule="evenodd" clip-rule="evenodd" d="M296.285 46.6633C356.833 -15.5544 455.002 -15.5544 515.55 46.6633V46.8647C576.098 109.082 576.098 209.96 515.55 272.178L515.354 272.379L406.015 384.733V235.129C406.015 153.984 354.677 85.3229 283.548 61.5634C287.467 56.3282 291.778 51.2944 296.285 46.6633ZM583.553 75.433C577.087 75.433 570.62 75.8357 564.35 76.6411C598.249 145.103 587.276 231.083 531.626 288.269L428.754 393.982H583.553C669.182 393.982 738.548 322.701 738.548 234.708C738.548 146.714 669.182 75.433 583.553 75.433ZM752.282 291.309C757.377 295.336 762.275 299.766 766.782 304.397H766.586C827.135 366.613 827.135 467.488 766.586 529.704C706.038 591.921 607.867 591.921 547.319 529.704L547.123 529.503L437.783 417.151H583.373C662.341 417.151 729.16 364.398 752.282 291.309ZM383.487 440.494L280.614 546.203H280.418C224.769 603.386 213.796 689.363 247.695 757.822C241.425 758.628 234.959 759.03 228.492 759.03C142.863 759.03 73.4974 687.752 73.4974 599.762C73.4974 511.772 142.863 440.494 228.492 440.494H228.884H383.487ZM406.224 449.969V599.372C406.224 680.516 457.562 749.177 528.692 772.936C524.773 778.171 520.462 783.205 515.955 787.836C455.407 850.053 357.237 850.053 296.689 787.836C236.141 725.619 236.141 624.742 296.689 562.524L296.885 562.323L406.224 449.969ZM531.626 546.208L428.754 440.495V599.568C428.754 687.561 498.119 758.841 583.748 758.841C669.378 758.841 738.743 687.561 738.743 599.568C738.743 592.923 738.351 586.278 737.568 579.835C670.945 614.67 587.275 603.393 531.626 546.208ZM280.821 288.47L285.328 293.102L383.498 393.982H383.694V235.11V234.708C383.694 146.714 314.328 75.433 228.698 75.433C143.068 75.433 73.7016 146.714 73.7016 234.708C73.7016 241.352 74.0935 247.997 74.8773 254.441C141.5 219.606 225.171 231.083 281.017 288.269L280.821 288.47ZM64.3033 530.703C62.9317 534.126 61.56 537.952 60.3843 541.576L60.5803 541.777C60.4823 541.979 60.3843 542.23 60.2863 542.482C60.1884 542.734 60.0904 542.986 59.9924 543.187C55.0937 539.16 50.195 534.73 45.6882 530.099C-14.8599 467.88 -14.8599 367 45.6882 304.781C106.236 242.562 204.406 242.562 264.955 304.781L374.49 417.339H228.9C224.393 417.339 220.082 417.541 215.772 417.943C215.282 417.943 214.841 417.994 214.4 418.044C213.959 418.094 213.518 418.145 213.028 418.145C208.913 418.547 204.798 419.152 200.683 419.756C200.292 419.856 199.949 419.907 199.606 419.957C199.263 420.007 198.92 420.058 198.528 420.158C197.287 420.427 196.046 420.673 194.805 420.919C192.323 421.411 189.841 421.903 187.359 422.575C187.065 422.675 186.771 422.726 186.477 422.776C186.183 422.826 185.889 422.877 185.595 422.977L173.839 426.602C173.447 426.702 173.006 426.853 172.565 427.004C172.124 427.155 171.683 427.306 171.291 427.407C167.372 428.817 163.453 430.226 159.73 431.837C159.632 431.837 159.534 431.887 159.436 431.938C159.338 431.988 159.24 432.038 159.142 432.038C155.419 433.649 151.892 435.461 148.365 437.274C147.777 437.676 146.994 438.079 146.21 438.482C142.683 440.294 139.156 442.307 135.825 444.522C135.041 444.925 134.453 445.328 133.865 445.731C130.73 447.744 127.595 449.959 124.655 452.174C124.498 452.282 124.354 452.375 124.221 452.462C123.858 452.699 123.571 452.886 123.284 453.181C120.743 455.023 118.431 456.983 116.086 458.971C115.356 459.59 114.622 460.211 113.878 460.832C113.584 461.134 113.241 461.436 112.899 461.738C112.556 462.04 112.213 462.342 111.919 462.644C108.98 465.262 106.04 468.081 103.101 471.101C102.828 471.242 102.65 471.48 102.501 471.68C102.436 471.766 102.377 471.846 102.317 471.907C99.574 474.726 97.0267 477.545 94.4794 480.565C94.1855 480.867 93.9405 481.169 93.6956 481.471C93.4507 481.773 93.2057 482.075 92.9118 482.377C90.3644 485.599 87.8171 488.821 85.4657 492.042C85.2145 492.559 84.8827 492.992 84.5737 493.396C84.4007 493.622 84.2348 493.839 84.0941 494.056L84.0937 494.057C81.9384 497.278 79.7831 500.5 77.8237 503.721C77.4318 503.922 77.2359 504.325 77.0399 504.728L71.1615 515.601L69.9858 518.017C68.2223 521.642 66.4587 525.468 64.8911 529.293C64.7932 529.495 64.6952 529.746 64.5972 529.998C64.4992 530.25 64.4013 530.501 64.3033 530.703Z" fill="url(#paint0_linear_16_56217)"/>
<defs>
<linearGradient id="paint0_linear_16_56217" x1="6.45161" y1="43.922" x2="952.511" y2="280.221" gradientUnits="userSpaceOnUse">
<stop stop-color="white" stop-opacity="0"/>
<stop offset="0.5" stop-color="white" stop-opacity="0.15"/>
<stop offset="1" stop-color="white" stop-opacity="0"/>
</linearGradient>
</defs>
</svg>
