<svg width="2446" height="1405" viewBox="0 0 2446 1405" fill="none" xmlns="http://www.w3.org/2000/svg">
<g clip-path="url(#clip0_18_175694)">
<rect width="2446" height="1405" fill="#6B4D65"/>
<g style="mix-blend-mode:soft-light" opacity="0.3">
<path fill-rule="evenodd" clip-rule="evenodd" d="M960.293 -386.1L1812.43 -231.944C1885.22 -218.056 1898.12 -169.908 1841.27 -124.318L1180.37 435.253C1124.28 483.675 1020.61 511.453 950.618 496.816L98.4841 342.659C25.6924 328.772 12.7911 280.624 69.6458 235.033L730.537 -324.537C787.392 -370.127 891.062 -397.906 960.293 -386.1Z" fill="#E2E2E2"/>
</g>
<g style="mix-blend-mode:soft-light" opacity="0.2">
<path fill-rule="evenodd" clip-rule="evenodd" d="M1236.87 693.666L673.874 1358.61C625.155 1415.05 576.711 1402.07 565.589 1329.59L410.488 472.238C396.516 399 424.464 294.695 472.428 241.075L1035.43 -423.865C1084.14 -480.304 1132.59 -467.324 1143.71 -394.85L1298.81 462.503C1309.93 534.977 1281.99 639.282 1236.87 693.666Z" fill="white"/>
</g>
<g style="mix-blend-mode:soft-light" opacity="0.2">
<path fill-rule="evenodd" clip-rule="evenodd" d="M2066.36 -82.4249L2410.38 413.559C2439.42 456.281 2422.04 486.371 2371.55 480.819L1770 430.88C1718.49 427.098 1653.7 389.692 1626.42 347.981L1282.4 -148.003C1253.36 -190.725 1270.74 -220.816 1321.23 -215.264L1922.78 -165.324C1973.27 -159.772 2038.06 -122.366 2066.36 -82.4249Z" fill="white"/>
</g>
</g>
<defs>
<clipPath id="clip0_18_175694">
<rect width="2446" height="1405" fill="white"/>
</clipPath>
</defs>
</svg>
