<svg width="128" height="40" viewBox="0 0 128 40" fill="none" xmlns="http://www.w3.org/2000/svg">
<g clip-path="url(#clip0_18_172232)">
<path d="M111.565 39.8518C108.561 39.8518 105.623 38.9647 103.124 37.3023C100.625 35.6402 98.6778 33.2777 97.5276 30.5137C96.3777 27.7496 96.0767 24.7081 96.6631 21.7738C97.2494 18.8395 98.6965 16.1441 100.821 14.0286C102.946 11.9131 105.654 10.4724 108.601 9.88876C111.549 9.30506 114.604 9.60462 117.38 10.7495C120.157 11.8945 122.53 13.8333 124.199 16.3209C125.869 18.8085 126.76 21.7331 126.76 24.7249C126.76 28.7368 125.159 32.5843 122.31 35.4213C119.46 38.2579 115.595 39.8518 111.565 39.8518ZM111.565 33.5993C113.329 33.5993 115.052 33.0788 116.518 32.1037C117.984 31.1286 119.127 29.7426 119.801 28.121C120.476 26.4994 120.652 24.7151 120.309 22.9936C119.965 21.2721 119.115 19.6909 117.869 18.4497C116.622 17.2087 115.034 16.3634 113.305 16.021C111.575 15.6786 109.783 15.8543 108.154 16.526C106.525 17.1977 105.133 18.3352 104.154 19.7946C103.174 21.2539 102.651 22.9697 102.651 24.7249C102.651 27.0786 103.591 29.3358 105.262 31C106.934 32.6643 109.201 33.5993 111.565 33.5993ZM79.7582 39.8518C76.7532 39.8518 73.8154 38.9647 71.3168 37.3023C68.8178 35.6402 66.8705 33.2777 65.7203 30.5137C64.5704 27.7496 64.2694 24.7081 64.8558 21.7738C65.4418 18.8395 66.8892 16.1441 69.014 14.0286C71.139 11.9131 73.8464 10.4724 76.7941 9.88876C79.7415 9.30506 82.7965 9.60462 85.5729 10.7495C88.3494 11.8945 90.7227 13.8333 92.3921 16.3209C94.0616 18.8085 94.9527 21.7331 94.9527 24.7249C94.9527 28.7368 93.352 32.5843 90.5024 35.4213C87.653 38.2579 83.788 39.8518 79.7582 39.8518ZM79.7582 33.5993C81.5213 33.5993 83.2449 33.0788 84.7108 32.1037C86.1766 31.1286 87.3193 29.7426 87.9939 28.121C88.6684 26.4994 88.8451 24.7151 88.5012 22.9936C88.1573 21.2721 87.3081 19.6909 86.0615 18.4497C84.8149 17.2087 83.2265 16.3634 81.4974 16.021C79.768 15.6786 77.976 15.8543 76.347 16.526C74.718 17.1977 73.3261 18.3352 72.3465 19.7946C71.3668 21.2539 70.8442 22.9697 70.8442 24.7249C70.8442 27.0786 71.7833 29.3358 73.4551 31C75.1267 32.6643 77.3941 33.5993 79.7582 33.5993ZM63.1454 24.5232C63.1454 32.974 56.3384 39.8518 47.9509 39.8518C39.5636 39.8518 32.7563 32.9942 32.7563 24.5434C32.7563 16.0925 38.9354 9.59808 47.9509 9.59808C51.2735 9.59808 54.353 10.304 56.8652 12.1394V3.36584C56.8652 1.69181 58.344 0.320312 60.0053 0.320312C61.6666 0.320312 63.1454 1.69181 63.1454 3.36584V24.5232ZM47.9509 33.5993C49.714 33.5993 51.4376 33.0788 52.9035 32.1037C54.3693 31.1286 55.5117 29.7426 56.1866 28.121C56.8611 26.4994 57.0378 24.7151 56.6939 22.9936C56.35 21.2721 55.5008 19.6909 54.2542 18.4497C53.0077 17.2087 51.4192 16.3634 49.6901 16.021C47.9607 15.6786 46.1683 15.8543 44.5397 16.526C42.9108 17.1977 41.5184 18.3352 40.5392 19.7946C39.5595 21.2539 39.0369 22.9697 39.0369 24.7249C39.0369 27.0786 39.976 29.3358 41.6478 31C43.3194 32.6643 45.5868 33.5993 47.9509 33.5993Z" fill="white"/>
<path d="M16.1433 39.8519C13.1381 39.8519 10.2004 38.9647 7.70166 37.3024C5.20292 35.6403 3.2554 33.2778 2.10535 30.5138C0.955313 27.7497 0.654411 24.7082 1.2407 21.7739C1.82698 18.8395 3.27413 16.1442 5.39911 14.0287C7.52412 11.9132 10.2316 10.4725 13.179 9.8888C16.1265 9.30514 19.1816 9.6047 21.9581 10.7496C24.7345 11.8945 27.1076 13.8334 28.7772 16.321C30.4468 18.8086 31.3379 21.7332 31.3379 24.725C31.3379 28.7368 29.7371 32.5844 26.8875 35.4213C24.038 38.258 20.1732 39.8519 16.1433 39.8519ZM16.1433 33.5994C17.9064 33.5994 19.6298 33.0789 21.0958 32.1038C22.5617 31.1286 23.7043 29.7426 24.3789 28.121C25.0536 26.4995 25.2301 24.7151 24.8862 22.9936C24.5422 21.2722 23.6933 19.6909 22.4466 18.4498C21.1999 17.2087 19.6116 16.3635 17.8824 16.0211C16.1532 15.6787 14.3609 15.8544 12.732 16.5261C11.1032 17.1978 9.71099 18.3352 8.73147 19.7946C7.75198 21.254 7.22918 22.9698 7.22918 24.725C7.22918 27.0786 8.16835 29.3359 9.84007 31.0001C11.5118 32.6644 13.7791 33.5994 16.1433 33.5994Z" fill="white"/>
</g>
<defs>
<clipPath id="clip0_18_172232">
<rect width="126.667" height="40" fill="white" transform="translate(0.666748)"/>
</clipPath>
</defs>
</svg>
