<svg width="64" height="64" viewBox="0 0 64 64" fill="none" xmlns="http://www.w3.org/2000/svg">
<g clip-path="url(#clip0_1_19501)">
<path fill-rule="evenodd" clip-rule="evenodd" d="M16.3439 3.99982C15.0473 3.99982 13.9961 5.04191 13.9961 6.3274V49.6722C13.9961 50.9577 15.0473 51.9998 16.3439 51.9998H47.6483C48.9449 51.9998 49.9961 50.9577 49.9961 49.6722V15.4998C49.9961 14.8825 49.7487 14.2905 49.3084 13.854L40.1185 4.68155C39.6782 4.24504 39.0811 3.99982 38.4584 3.99982H16.3439Z" fill="white"/>
<path d="M39.3536 4.64627C39.2106 4.50327 38.9955 4.46049 38.8087 4.53788C38.6218 4.61527 38.5 4.79759 38.5 4.99982V13.1818C38.5 13.8576 38.6636 14.4572 39.0734 14.8876C39.4874 15.3223 40.072 15.5 40.7316 15.5H49C49.2022 15.5 49.3845 15.3781 49.4619 15.1913C49.5393 15.0045 49.4966 14.7894 49.3536 14.6464L39.3536 4.64627Z" fill="url(#paint0_linear_1_19501)" stroke="#333333" stroke-linecap="round" stroke-linejoin="round"/>
<path fill-rule="evenodd" clip-rule="evenodd" d="M48.6044 14.5641L48.602 14.5617L39.4145 5.39171L39.4132 5.39045C39.3606 5.33823 39.3115 5.28847 39.269 5.24543L39.2532 5.22936C39.205 5.1805 39.1672 5.14243 39.1326 5.10892C39.0625 5.04095 39.0317 5.01779 39.019 5.00932C39.0085 5.00686 38.9714 4.99982 38.8913 4.99982H15.3439C14.5914 4.99982 13.9961 5.60234 13.9961 6.3274V49.6722C13.9961 50.3973 14.5914 50.9998 15.3439 50.9998H47.6483C48.4008 50.9998 48.9961 50.3973 48.9961 49.6722V15.1091C48.9961 15.0213 48.9872 14.9825 48.9845 14.9722C48.9829 14.9664 48.9824 14.9642 48.9759 14.954C48.965 14.9371 48.9399 14.903 48.8754 14.8349C48.825 14.7817 48.7722 14.7296 48.7005 14.6591C48.6719 14.6308 48.6401 14.5996 48.6044 14.5641ZM40.1185 4.68155L49.3084 13.854C49.3366 13.8819 49.364 13.9089 49.3907 13.9351C49.7794 14.318 49.9961 14.5314 49.9961 15.1091V49.6722C49.9961 50.9577 48.9449 51.9998 47.6483 51.9998H15.3439C14.0473 51.9998 12.9961 50.9577 12.9961 49.6722V6.3274C12.9961 5.04191 14.0473 3.99982 15.3439 3.99982H38.8913C39.4449 3.99982 39.6362 4.19367 39.9812 4.54345C40.0243 4.58709 40.0697 4.63314 40.1185 4.68155Z" fill="#333333"/>
<path d="M29 22.9999H45V23.9999H29V22.9999Z" fill="#333333"/>
<path d="M29 25.9999H45V26.9999H29V25.9999Z" fill="#333333"/>
<path d="M29 28.9999H45V29.9999H29V28.9999Z" fill="#333333"/>
<path d="M29 22.9999H30V28.9999H29V25.9999V22.9999Z" fill="#333333"/>
<path d="M44 22.9999H45V28.9999H44V22.9999Z" fill="#333333"/>
<path d="M39 22.9999H40V28.9999H39V22.9999Z" fill="#333333"/>
<path d="M29 22.9999H30V28.9999H29V25.9999V22.9999Z" fill="#333333"/>
<path d="M34 22.9999H35V28.9999H34V22.9999Z" fill="#333333"/>
<path d="M19 15.9998H35V16.9998H20L19 15.9998Z" fill="#333333"/>
<path d="M19 9.99982H34V11.9998H19V9.99982Z" fill="#333333"/>
<path d="M22 18.9998H38V19.9998H23L22 18.9998Z" fill="#333333"/>
<path fill-rule="evenodd" clip-rule="evenodd" d="M0.342246 16.0344C-0.177693 15.5145 -0.153938 14.6482 0.395305 14.0996L4.0663 10.4327C4.61555 9.88402 5.48229 9.86075 6.00223 10.3807L22.3565 26.7364C22.5197 26.8996 22.8314 27.1049 22.888 27.3319L23.9106 32.2196C24.1638 33.2351 23.1977 34.2001 22.1818 33.9465L17.2922 32.8491C17.065 32.7924 16.8597 32.5534 16.6965 32.3901L0.342246 16.0344Z" fill="url(#paint1_linear_1_19501)"/>
<path fill-rule="evenodd" clip-rule="evenodd" d="M17.0033 32.3901C17.0033 32.3901 17.3467 32.1482 17.8959 31.5996L21.5669 27.9327C22.1161 27.384 22.5042 26.9999 22.5042 26.9999C22.6674 27.1631 22.8325 27.1048 22.8891 27.3319L23.9117 32.2196C24.1649 33.2351 23.1988 34.2001 22.1829 33.9465L17.2933 32.8491C17.0661 32.7924 17.1665 32.5534 17.0033 32.3901Z" fill="white"/>
<path fill-rule="evenodd" clip-rule="evenodd" d="M17.2927 31.6108L1.07631 15.5623C0.816344 15.3024 0.801692 14.9945 1.07631 14.7202L4.70041 11.1112C4.97503 10.8368 5.14721 10.8512 5.40718 11.1112L21.7259 27.3319C21.8075 27.4135 21.8995 27.8043 21.9278 27.9179L23.0191 32.3901C23.1457 32.8979 22.6904 33.091 22.1824 32.9642L17.5003 31.7762C17.3867 31.7478 17.3743 31.6924 17.2927 31.6108ZM0.341701 16.0344C-0.178239 15.5144 -0.154483 14.6482 0.394759 14.0995L4.06576 10.4326C4.615 9.88396 5.48174 9.8607 6.00168 10.3806L22.357 26.7364C22.5203 26.8996 22.832 27.1048 22.8886 27.3319L23.9112 32.2196C24.1644 33.2351 23.1983 34.2001 22.1824 33.9465L17.2928 32.8491C17.0656 32.7924 16.8603 32.5534 16.6971 32.3901L0.341701 16.0344Z" fill="#333333"/>
<path d="M6.00027 16.7066L19.7093 30.4156L20.4167 29.7089L6.70777 15.9999L6.00027 16.7066Z" fill="white"/>
<path fill-rule="evenodd" clip-rule="evenodd" d="M21.8875 27.5115L17.3496 31.9744L18.0329 32.6701L22.5718 28.2216L21.8875 27.5115Z" fill="#333333"/>
<path fill-rule="evenodd" clip-rule="evenodd" d="M8.27605 13.0086L3.00884 18.2584L3.70532 18.9721L8.96793 13.7135L8.27605 13.0086Z" fill="#333333"/>
<path fill-rule="evenodd" clip-rule="evenodd" d="M22.7004 30.6844L20.7051 32.8282L22.7016 33.4999L23.5041 32.4999L22.7004 30.6844Z" fill="#333333"/>
<path d="M22.5692 46.7863C22.5692 52.4271 27.0676 56.9999 32.6166 56.9999C38.1657 56.9999 42.6641 52.4271 42.6641 46.7863C42.6641 41.1455 38.1657 36.5728 32.6166 36.5728C27.0676 36.5728 22.5692 41.1455 22.5692 46.7863Z" fill="white"/>
<path d="M32.2162 35.9999C36.9991 36.0014 42.8784 39.5872 42.9975 46.387C43.0523 49.5132 42.2051 52.3579 39.9352 54.2264C39.7868 54.0998 39.049 53.9487 38.8721 53.8545L35.8238 52.2294C35.424 52.0162 35.175 51.6066 35.175 51.1613V49.9405C35.175 49.9405 36.0698 48.8945 36.4109 47.4413C36.6939 47.2623 36.8836 46.9529 36.8836 46.6007V45.2646C36.8836 44.9707 36.7498 44.7081 36.542 44.5242V42.5928C36.542 42.5928 36.948 39.5872 32.7832 39.5872C28.6185 39.5872 29.0244 42.5928 29.0244 42.5928V44.5242C28.8162 44.7081 28.6828 44.9707 28.6828 45.2646V46.6007C28.6828 47.0498 28.9913 47.4277 29.4099 47.5539C29.6432 48.2627 29.9797 48.9382 30.4246 49.5524C30.5368 49.7072 30.6417 49.8384 30.7334 49.9405V51.1922C30.7334 51.653 30.467 52.0746 30.0453 52.2803L26.6545 53.7071C26.4586 53.8028 25.5685 54.1981 25.4054 54.3326C23.3614 52.2556 22 50.0971 22 46.885C22 40.4398 27.517 35.9984 32.2162 35.9999Z" fill="url(#paint2_linear_1_19501)"/>
<path d="M32.6166 57.4999C26.7838 57.4999 22.0692 52.6955 22.0692 46.7863C22.0692 40.8771 26.7838 36.0728 32.6166 36.0728C38.4495 36.0728 43.1641 40.8771 43.1641 46.7863C43.1641 52.6955 38.4495 57.4999 32.6166 57.4999Z" stroke="#333333"/>
<path d="M32.5692 46.7863C32.5692 52.4271 37.0676 56.9999 42.6166 56.9999C48.1657 56.9999 52.6641 52.4271 52.6641 46.7863C52.6641 41.1455 48.1657 36.5728 42.6166 36.5728C37.0676 36.5728 32.5692 41.1455 32.5692 46.7863Z" fill="white"/>
<path d="M42.2162 35.9999C46.9991 36.0014 52.8784 39.5872 52.9975 46.387C53.0523 49.5132 52.2051 52.3579 49.9352 54.2264C49.7868 54.0998 49.049 53.9487 48.8721 53.8545L45.8238 52.2294C45.424 52.0162 45.175 51.6066 45.175 51.1613V49.9405C45.175 49.9405 46.0698 48.8945 46.4109 47.4413C46.6939 47.2623 46.8836 46.9529 46.8836 46.6007V45.2646C46.8836 44.9707 46.7498 44.7081 46.542 44.5242V42.5928C46.542 42.5928 46.948 39.5872 42.7832 39.5872C38.6185 39.5872 39.0244 42.5928 39.0244 42.5928V44.5242C38.8162 44.7081 38.6828 44.9707 38.6828 45.2646V46.6007C38.6828 47.0498 38.9913 47.4277 39.4099 47.5539C39.6432 48.2627 39.9797 48.9382 40.4246 49.5524C40.5368 49.7072 40.6417 49.8384 40.7334 49.9405V51.1922C40.7334 51.653 40.467 52.0746 40.0453 52.2803L36.6545 53.7071C36.4586 53.8028 35.5685 54.1981 35.4054 54.3326C33.3614 52.2556 32 50.0971 32 46.885C32 40.4398 37.517 35.9984 42.2162 35.9999Z" fill="#9ADAF3"/>
<path d="M42.6166 57.4999C36.7838 57.4999 32.0692 52.6955 32.0692 46.7863C32.0692 40.8771 36.7838 36.0728 42.6166 36.0728C48.4495 36.0728 53.1641 40.8771 53.1641 46.7863C53.1641 52.6955 48.4495 57.4999 42.6166 57.4999Z" stroke="#333333"/>
<path d="M42.5692 46.7863C42.5692 52.4271 47.0676 56.9999 52.6166 56.9999C58.1657 56.9999 62.6641 52.4271 62.6641 46.7863C62.6641 41.1455 58.1657 36.5728 52.6166 36.5728C47.0676 36.5728 42.5692 41.1455 42.5692 46.7863Z" fill="white"/>
<path d="M52.2162 35.9999C56.9991 36.0014 62.8784 39.5872 62.9975 46.387C63.0523 49.5132 62.2051 52.3579 59.9352 54.2264C59.7868 54.0998 59.049 53.9487 58.8721 53.8545L55.8238 52.2294C55.424 52.0162 55.175 51.6066 55.175 51.1613V49.9405C55.175 49.9405 56.0698 48.8945 56.4109 47.4413C56.6939 47.2623 56.8836 46.9529 56.8836 46.6007V45.2646C56.8836 44.9707 56.7498 44.7081 56.542 44.5242V42.5928C56.542 42.5928 56.948 39.5872 52.7832 39.5872C48.6185 39.5872 49.0244 42.5928 49.0244 42.5928V44.5242C48.8162 44.7081 48.6828 44.9707 48.6828 45.2646V46.6007C48.6828 47.0498 48.9913 47.4277 49.4099 47.5539C49.6432 48.2627 49.9797 48.9382 50.4246 49.5524C50.5368 49.7072 50.6417 49.8384 50.7334 49.9405V51.1922C50.7334 51.653 50.467 52.0746 50.0453 52.2803L46.6545 53.7071C46.4586 53.8028 45.5685 54.1981 45.4054 54.3326C43.3614 52.2556 42 50.0971 42 46.885C42 40.4398 47.517 35.9984 52.2162 35.9999Z" fill="url(#paint3_linear_1_19501)"/>
<path d="M52.6166 57.4999C46.7838 57.4999 42.0692 52.6955 42.0692 46.7863C42.0692 40.8771 46.7838 36.0728 52.6166 36.0728C58.4495 36.0728 63.1641 40.8771 63.1641 46.7863C63.1641 52.6955 58.4495 57.4999 52.6166 57.4999Z" stroke="#333333"/>
</g>
<defs>
<linearGradient id="paint0_linear_1_19501" x1="39" y1="4.60919" x2="49.0002" y2="14.9998" gradientUnits="userSpaceOnUse">
<stop stop-color="#FFC671"/>
<stop offset="0.59375" stop-color="#FF7541"/>
<stop offset="1" stop-color="#FF6F3D"/>
</linearGradient>
<linearGradient id="paint1_linear_1_19501" x1="-0.823035" y1="15.3167" x2="12.5689" y2="7.3929" gradientUnits="userSpaceOnUse">
<stop stop-color="#FF8E3D"/>
<stop offset="1" stop-color="#FF6F3D"/>
</linearGradient>
<linearGradient id="paint2_linear_1_19501" x1="32.5" y1="35.9999" x2="32.5" y2="54.3326" gradientUnits="userSpaceOnUse">
<stop stop-color="#FF8E3D"/>
<stop offset="1" stop-color="#FF6F3D"/>
</linearGradient>
<linearGradient id="paint3_linear_1_19501" x1="52.5" y1="35.9999" x2="52.5" y2="54.3326" gradientUnits="userSpaceOnUse">
<stop stop-color="#FF8E3D"/>
<stop offset="1" stop-color="#FF6F3D"/>
</linearGradient>
<clipPath id="clip0_1_19501">
<rect width="64" height="64" fill="white"/>
</clipPath>
</defs>
</svg>
