<svg width="64" height="64" viewBox="0 0 64 64" fill="none" xmlns="http://www.w3.org/2000/svg">
<path fill-rule="evenodd" clip-rule="evenodd" d="M8.82801 12.1553L15.548 5.44001C16.108 4.88472 16.9786 4.7906 17.6374 5.21413L19.8209 6.62119C20.7668 7.22824 21.9574 7.2706 22.9927 6.84236C24.028 6.41413 24.8374 5.53883 25.0774 4.44236L25.6327 1.90119C25.8021 1.12942 26.4845 0.583538 27.2704 0.583538H36.7668C37.5574 0.583538 38.2351 1.13413 38.4045 1.90119L38.9551 4.44236C39.1904 5.53883 39.9998 6.41413 41.0351 6.84236C42.0704 7.2706 43.261 7.22824 44.2068 6.62119L46.3951 5.21413C47.0586 4.78589 47.9292 4.88001 48.4845 5.44001L55.1951 12.1553C55.7504 12.7106 55.8445 13.5812 55.4162 14.2447L54.0092 16.4329C53.4021 17.3788 53.3551 18.5694 53.7833 19.6047C54.2115 20.64 55.0821 21.4494 56.1786 21.6894L58.7151 22.24C59.4868 22.4094 60.0327 23.0871 60.0327 23.8777L60.028 33.3741C60.028 34.16 59.4774 34.8424 58.7057 35.0118L56.1645 35.5624C55.068 35.8024 54.1927 36.6071 53.7645 37.6471C53.3315 38.6824 53.3786 39.873 53.9857 40.8188L55.388 43.0071C55.8115 43.6706 55.7174 44.5412 55.1621 45.0965L51.8021 48.4541L48.4421 51.8118C47.8868 52.3671 47.0162 52.4612 46.3527 52.0377L44.1692 50.6306C43.2233 50.0235 42.0327 49.9812 40.9974 50.4094C39.9621 50.8377 39.1527 51.713 38.9127 52.8094L38.3574 55.3506C38.188 56.1224 37.5057 56.6682 36.7198 56.6682H27.2327C26.4421 56.6682 25.7645 56.1177 25.5951 55.3506L25.0445 52.8094C24.8092 51.713 23.9998 50.8424 22.9645 50.4094C21.9292 49.9812 20.7386 50.0235 19.7927 50.6306L17.6045 52.0377C16.941 52.4659 16.0704 52.3671 15.5151 51.8118L8.80448 45.0965C8.24919 44.5412 8.15507 43.6706 8.5833 43.0071L9.99036 40.8188C10.5974 39.873 10.6445 38.6824 10.2162 37.6471C9.78801 36.6118 8.91742 35.8024 7.82095 35.5624L5.27977 35.0118C4.50801 34.8471 3.96213 34.1647 3.96213 33.3741L3.97154 23.8777C3.97154 23.0871 4.52213 22.4094 5.29389 22.24L7.83507 21.6894C8.93154 21.4494 9.80683 20.6447 10.2351 19.6047C10.6633 18.5694 10.621 17.3788 10.0139 16.4329L8.61154 14.2447C8.17389 13.5812 8.27272 12.7106 8.82801 12.1553Z" fill="url(#paint0_linear_1_20251)"/>
<path d="M38.3578 55.3506C38.1884 56.1223 37.5061 56.6682 36.7202 56.6682H27.2331C25.3668 56.6682 25.332 54.1344 25.0449 52.8094C24.5643 50.57 21.7172 49.3957 19.7931 50.6306C18.6518 51.3644 16.8356 53.1318 15.5155 51.8117L8.80488 45.0965C8.24958 44.5412 8.15547 43.6706 8.5837 43.007C9.64368 41.3586 11.0732 39.7179 10.2166 37.647C9.78841 36.6117 8.91782 35.8023 7.82135 35.5623C6.49329 35.2746 3.96252 35.2429 3.96252 33.3741L3.97194 23.8776C3.97194 23.087 4.52252 22.4094 5.29429 22.24C7.20832 21.8253 9.38203 21.6773 10.2355 19.6047C11.0922 17.5334 9.67032 15.8962 8.61194 14.2447C8.17429 13.5812 8.27311 12.7106 8.82841 12.1553L15.5484 5.43998C16.1084 4.88468 16.979 4.79057 17.6378 5.2141C19.2872 6.27695 20.9201 7.69981 22.9931 6.84233C25.0633 5.98604 25.2149 3.81516 25.6331 1.90115C25.8025 1.12939 26.4849 0.583508 27.2708 0.583508H36.7672C38.6335 0.583508 38.6684 3.11731 38.9555 4.44233C39.1908 5.5388 40.0002 6.4141 41.0355 6.84233C43.1088 7.69992 44.7445 6.27565 46.3955 5.2141C47.059 4.78586 47.9296 4.87998 48.4849 5.43998L55.1955 12.1553C55.7508 12.7106 55.8449 13.5812 55.4166 14.2447L54.0096 16.4329C52.7734 18.3591 53.94 21.1993 56.179 21.6894L58.7155 22.24C59.4872 22.4094 60.0331 23.087 60.0331 23.8776L60.0284 33.3741C60.0284 34.16 59.4778 34.8423 58.7061 35.0117L56.1649 35.5623C53.9264 36.0523 52.7473 38.8886 53.9861 40.8188L55.3884 43.007C55.8119 43.6706 55.7178 44.5412 55.1625 45.0965L51.8025 48.4541" stroke="#333333" stroke-linecap="round"/>
<path fill-rule="evenodd" clip-rule="evenodd" d="M32.3433 16.3106C36.748 16.4377 40.9739 18.8188 43.2704 22.9459C46.0045 27.8635 45.1857 33.793 41.6657 37.7788C45.101 43.9906 48.428 50.2635 51.9762 56.4141C53.5951 59.2141 53.0633 61.4118 50.6162 62.7718C49.3268 63.5153 46.4845 64.2777 44.6304 60.9271C41.1339 54.6071 37.6327 48.2871 34.1362 41.9671C28.8892 42.8565 23.4209 40.4235 20.6868 35.5059C18.3904 31.3741 18.6021 26.5318 20.8139 22.72C21.788 24.4753 22.7668 26.2306 23.7409 27.9859C25.1009 30.4282 28.2115 31.3177 30.6539 29.9577C31.5339 29.4682 32.4139 28.9788 33.2939 28.4894C35.7362 27.1294 36.6257 24.0188 35.2657 21.5718C34.2962 19.8212 33.3174 18.0659 32.3433 16.3106Z" fill="#D9F4FF"/>
<path d="M20.8227 23.7658C19.1025 27.2943 19.0733 31.5736 21.1239 35.263C23.7517 39.9895 29.0079 42.3292 34.0527 41.4741L34.4022 41.4149L34.5738 41.725C36.3219 44.885 38.0713 48.0449 39.8207 51.2049C41.5701 54.3649 43.3196 57.5249 45.0678 60.685C45.9259 62.2355 46.9682 62.7747 47.8959 62.8884C48.8576 63.0063 49.7807 62.6764 50.3665 62.3386L50.3733 62.3347L50.3733 62.3347C51.5096 61.7033 52.1354 60.9174 52.3327 60.025C52.5327 59.1209 52.3165 58.0017 51.5434 56.6644L51.5431 56.664C49.1618 52.5361 46.8777 48.3491 44.5971 44.1684C43.4769 42.1151 42.3577 40.0633 41.2281 38.0208L41.0574 37.7122L41.2909 37.4479C44.6751 33.6157 45.4613 27.9155 42.8334 23.1889C40.7822 19.5029 37.1301 17.2651 33.2252 16.8687C33.4756 17.3194 33.7263 17.7702 33.9769 18.221C34.5536 19.258 35.1301 20.2949 35.7029 21.3292C35.7029 21.3293 35.703 21.3294 35.7031 21.3296L35.2657 21.5718C36.6257 24.0188 35.7362 27.1294 33.2939 28.4894L20.8227 23.7658ZM20.8227 23.7658C21.1618 24.376 21.5012 24.9861 21.8405 25.596C22.3287 26.4737 22.8168 27.3511 23.3038 28.2285L23.3041 28.2291C24.7981 30.9122 28.2129 31.8892 30.8971 30.3945L20.8227 23.7658Z" fill="#D9F4FF" stroke="#333333"/>
<defs>
<linearGradient id="paint0_linear_1_20251" x1="2.92255" y1="-3.40159" x2="36.3829" y2="33.454" gradientUnits="userSpaceOnUse">
<stop stop-color="#FFC671"/>
<stop offset="1" stop-color="#FF6F3D"/>
</linearGradient>
</defs>
</svg>
