<svg width="64" height="64" viewBox="0 0 64 64" fill="none" xmlns="http://www.w3.org/2000/svg">
<g clip-path="url(#clip0_1_19596)">
<path d="M42.0741 20.47C43.7939 20.8264 45.5591 21.0557 47.3311 21.1002C46.8661 22.7061 46.487 24.2433 46.1646 25.7165C45.8999 26.9257 45.6756 28.7883 45.4757 30.5789C45.4381 30.9163 45.4012 31.2512 45.3652 31.5792C45.2078 33.0116 45.0646 34.3142 44.9258 35.1356C44.8961 35.3115 44.8666 35.4868 44.8372 35.6613C43.953 40.9086 43.1725 45.541 40.4974 49.6236C37.7633 53.7962 33.0031 57.4525 23.9275 60.4747C15.0492 57.6895 10.299 53.9475 7.55671 49.7191C4.78455 45.4448 4.01878 40.6144 3.21653 35.541C3.08906 34.7348 2.95832 33.5156 2.81325 32.1628C2.76613 31.7234 2.7175 31.2699 2.66698 30.8119C2.46316 28.9641 2.2285 27.0431 1.93948 25.7738C1.60387 24.3001 1.19809 22.7666 0.685412 21.1691C2.43306 21.114 4.19898 20.8626 5.93393 20.4788C10.7237 19.4192 15.316 17.342 18.7011 15.5382C20.396 14.635 21.7935 13.7976 22.7682 13.1854C23.2556 12.8792 23.6376 12.6292 23.8983 12.4552C23.9378 12.4289 23.9746 12.4043 24.0085 12.3815C24.0399 12.4035 24.0739 12.4272 24.1103 12.4525C24.3636 12.6284 24.735 12.881 25.2106 13.19C26.1616 13.8078 27.5304 14.6517 29.2056 15.559C32.5518 17.3714 37.1399 19.4473 42.0741 20.47Z" fill="url(#paint0_linear_1_19596)" stroke="#333333"/>
<path fill-rule="evenodd" clip-rule="evenodd" d="M32.5358 29.4147C33.2729 30.1313 33.3001 31.321 32.5965 32.0717L22.98 43.2799C22.6318 43.6514 22.1496 43.8616 21.6454 43.8616C21.1412 43.8616 20.6589 43.6514 20.3108 43.2799L15.4467 38.0894C14.7431 37.3386 14.7703 36.149 15.5074 35.4323C16.2444 34.7157 17.4123 34.7433 18.1159 35.4941L21.6454 39.2605L29.9273 29.4765C30.6309 28.7257 31.7988 28.698 32.5358 29.4147Z" fill="white"/>
<path d="M34.4988 2.21194C34.4988 1.25224 35.2681 0.5 36.2116 0.5H61.7859C62.7468 0.5 63.4988 1.26977 63.4988 2.21194V27.7882C63.4988 28.7468 62.7293 29.5 61.7859 29.5H36.2116C35.2511 29.5 34.4988 28.7295 34.4988 27.7882V2.21194Z" fill="#01679E" stroke="white"/>
<path d="M49.0191 9C46.255 9 43.9122 10.8523 43.1861 13.3619C42.5551 12.0307 41.1875 11.0982 39.6124 11.0982C37.4461 11.0982 35.6654 12.8583 35.6654 14.9996C35.6654 17.1409 37.4461 18.9018 39.6124 18.9018C41.1875 18.9018 42.5551 17.9687 43.1861 16.6373C43.9122 19.1471 46.255 21 49.0191 21C51.7627 21 54.0936 19.1751 54.8383 16.6936C55.481 17.9947 56.8316 18.9018 58.3844 18.9018C60.5506 18.9018 62.3321 17.1409 62.3321 14.9996C62.3321 12.8583 60.5506 11.0982 58.3844 11.0982C56.8316 11.0982 55.481 12.0047 54.8383 13.3056C54.0936 10.8243 51.7627 9 49.0191 9ZM49.0191 11.2902C51.1057 11.2902 52.7725 12.9371 52.7725 14.9996C52.7725 17.0621 51.1057 18.7098 49.0191 18.7098C46.9325 18.7098 45.2665 17.0621 45.2665 14.9996C45.2665 12.9371 46.9325 11.2902 49.0191 11.2902ZM39.6124 13.3884C40.5265 13.3884 41.2432 14.096 41.2432 14.9996C41.2432 15.9032 40.5265 16.6116 39.6124 16.6116C38.6982 16.6116 37.9824 15.9032 37.9824 14.9996C37.9824 14.096 38.6982 13.3884 39.6124 13.3884ZM58.3844 13.3884C59.2986 13.3884 60.0152 14.096 60.0152 14.9996C60.0152 15.9032 59.2986 16.6116 58.3844 16.6116C57.4702 16.6116 56.7544 15.9032 56.7544 14.9996C56.7544 14.096 57.4702 13.3884 58.3844 13.3884Z" fill="white"/>
</g>
<defs>
<linearGradient id="paint0_linear_1_19596" x1="37.3312" y1="55.114" x2="2.01383" y2="19.38" gradientUnits="userSpaceOnUse">
<stop stop-color="#FF6F3D"/>
<stop offset="1" stop-color="#FF8E3D"/>
</linearGradient>
<clipPath id="clip0_1_19596">
<rect width="64.0024" height="64" fill="white" transform="translate(-0.0012207)"/>
</clipPath>
</defs>
</svg>
