<svg width="448" height="294" viewBox="0 0 448 294" fill="none" xmlns="http://www.w3.org/2000/svg">
<ellipse cx="281.57" cy="268.347" rx="85.4521" ry="9.37567" fill="#DDDFE1" fill-opacity="0.6"/>
<ellipse cx="84.2844" cy="268.015" rx="69.5615" ry="9.37567" fill="#DDDFE1" fill-opacity="0.6"/>
<path d="M132.942 71.2584C154.92 40.767 167.198 15.7363 212.133 15.7363C256.615 15.7363 245.479 46.4782 287.317 46.4781C294.575 50.244 311.198 46.4781 323.488 56.2032C338.133 64.931 316.192 112.609 352.669 121.178C398.628 127.604 444.833 110.056 427.63 179.965C373.405 197.263 413.723 237.188 373.405 244.75C335.017 249.476 302.787 229.566 279.436 222.994C249.058 214.443 216.268 245.068 184.924 240.051C159.347 235.957 146.598 206.641 78.3422 224.985C-0.0379333 246.05 69.8319 171.677 45.8068 124.697C23.6481 81.3659 106.14 108.443 132.942 71.2584Z" fill="#E7EDF1"/>
<path fill-rule="evenodd" clip-rule="evenodd" d="M419.109 6.95116L427.397 25.2895L422.871 23.7613C394.238 77.0522 372.393 86.2971 313.077 96.0811C252.727 108.714 254.284 221.551 192.624 250.184C166.775 262.188 111.32 261.186 90.6377 261.186C89.257 261.186 88.1377 260.067 88.1377 258.686C88.1377 257.306 89.257 256.186 90.6377 256.186C111.546 256.186 139.962 257.71 164.636 246.252C225.765 217.865 225.464 134.972 270.569 106.286C321.818 73.6922 368.183 101.589 404.341 18.5698L398.89 17.2371L419.109 6.95116Z" fill="url(#paint0_linear_758_82592)"/>
<path d="M315.884 102.115L315.791 102.266L315.815 102.442C316.072 104.393 316.222 106.666 316.376 109.005C316.404 109.428 316.432 109.854 316.46 110.28C316.648 113.047 316.869 115.839 317.312 118.176C317.494 119.193 317.676 120.208 317.838 121.131L317.838 121.133C317.906 121.514 317.971 121.894 318.035 122.266C318.138 122.871 318.239 123.458 318.346 124.006L318.346 124.006L318.348 124.016L318.378 124.157L318.407 124.287C318.882 126.998 319.208 128.931 319.286 129.554C319.25 130.179 319.107 131.233 318.912 132.335C318.649 133.375 318.446 134.54 318.525 135.679C318.455 138.3 319.397 140.265 320.602 141.581C321.79 142.878 323.268 143.578 324.299 143.601L324.66 143.609L324.781 143.268C325.535 141.142 325.71 139.586 325.794 138.179C325.965 138.351 326.15 138.528 326.334 138.689C326.5 138.835 326.672 138.976 326.836 139.088C326.989 139.193 327.179 139.306 327.376 139.352C327.478 139.375 327.624 139.391 327.779 139.339C327.953 139.282 328.081 139.159 328.155 139.01C328.222 138.875 328.238 138.735 328.239 138.622C328.239 138.504 328.223 138.378 328.196 138.25L328.196 138.25L328.194 138.24C327.96 137.214 327.651 136.069 327.147 135.056C326.649 134.056 325.941 133.146 324.886 132.619C324.322 132.184 323.939 131.609 323.7 131.081C323.579 130.812 323.499 130.563 323.453 130.361C323.404 130.147 323.402 130.023 323.405 129.994L323.406 129.989C323.599 128.364 323.793 126.731 323.946 125.086L323.946 125.085C324.22 122.091 324.337 119.014 324.309 115.99L324.309 115.974L324.307 115.958C324.202 114.511 324.148 113.043 324.093 111.544C323.964 108.03 323.829 104.344 323.013 100.336L322.928 99.9155L322.5 99.936C320.69 100.022 319.282 100.189 318.217 100.511C317.14 100.836 316.363 101.335 315.884 102.115Z" fill="#F9F9F9" stroke="#333333"/>
<path d="M320.793 204.718L320.526 204.597L320.501 204.304C320.205 200.751 319.886 197.167 319.142 193.717C318.512 190.797 317.81 187.84 317.102 184.86C315.471 177.996 313.811 171.008 312.936 164.043C311.679 154.032 312.028 143.987 316.41 134.249L316.606 133.812L317.051 133.99C326.948 137.948 338.508 137.527 347.218 130.891L347.699 130.525L347.969 131.065C353.531 142.188 352.758 153.604 349.648 164.774C348.093 170.358 345.952 175.892 343.717 181.309C343.023 182.991 342.32 184.66 341.624 186.316C340.074 190 338.552 193.617 337.211 197.163C336.87 198.133 336.906 199.158 337.109 200.234C337.24 200.928 337.428 201.593 337.62 202.27C337.734 202.673 337.849 203.081 337.954 203.5L338.044 203.859L337.726 204.05C332.688 207.073 326.035 207.1 320.793 204.718Z" fill="#444444" stroke="#333333"/>
<path d="M326.606 179.892C326.606 166.713 330.077 161.555 331.5 155.192C329.242 155.42 324.405 153.852 323.354 151.401" stroke="#333333" stroke-linecap="round"/>
<path fill-rule="evenodd" clip-rule="evenodd" d="M349.425 270.825C351.008 270.611 351.592 270.269 352.875 269.798C353.303 269.627 353.688 269.499 354.03 269.328C354.372 269.157 354.714 268.943 355.014 268.686C355.27 268.515 355.442 268.301 355.613 268.13C355.784 267.916 355.955 267.702 356.083 267.488C356.212 267.274 356.254 267.103 356.34 266.889C356.383 266.676 356.425 266.462 356.383 266.248C356.34 265.777 356.254 265.392 356.083 265.007C355.912 264.622 355.741 264.237 355.484 263.938C355.313 263.724 355.099 263.51 354.843 263.339C354.586 263.125 354.329 262.997 354.073 262.826L353.645 262.612L353.217 262.826C352.832 263.04 352.362 263.168 351.848 263.254C351.335 263.339 350.736 263.382 350.18 263.339C349.581 263.296 349.939 263.211 349.34 263.04C348.741 262.869 348.185 262.655 347.629 262.355L347.329 262.184L347.03 262.227L346.217 262.355C346.046 262.398 345.832 262.441 345.618 262.484C345.404 262.526 345.233 262.569 345.019 262.612C344.292 262.74 343.608 262.911 342.923 263.125C342.239 263.296 341.554 263.51 340.87 263.724C340.271 263.895 339.758 264.066 339.33 264.237C338.902 264.409 338.389 264.58 337.833 264.794L337.105 265.093L337.234 265.735C337.191 265.478 337.105 265.264 337.02 265.05C336.849 264.665 336.678 264.28 336.421 263.981C336.25 263.767 336.036 263.553 335.779 263.339C335.565 263.168 335.309 262.997 335.009 262.826L334.582 262.612L334.154 262.826C333.769 263.04 333.298 263.168 332.785 263.254C332.272 263.339 331.673 263.382 331.117 263.339C330.518 263.296 329.876 263.211 329.277 262.997C328.678 262.826 328.122 262.612 327.566 262.313L327.309 262.141L327.01 262.184C326.924 262.184 326.753 262.227 326.539 262.27L326.069 262.355C325.898 262.398 325.684 262.441 325.47 262.484C325.299 262.526 325.171 262.526 324.957 262.569C322.903 262.997 320.807 263.553 318.925 264.237C317.043 264.922 315.375 265.692 314.091 266.505C313.621 266.804 313.236 267.103 312.894 267.36C312.551 267.659 312.252 267.959 312.038 268.258V268.301C311.867 268.558 311.739 268.814 311.696 269.028C311.653 269.285 311.653 269.499 311.696 269.713V269.798L311.824 270.012C311.91 270.183 312.038 270.354 312.209 270.525C312.337 270.654 312.509 270.782 312.722 270.91C313.193 271.21 313.877 271.424 314.69 271.509C315.417 271.595 316.316 271.68 317.257 271.68C318.283 271.68 319.353 271.68 320.422 271.595C321.492 271.552 322.561 271.466 323.631 271.338C324.016 271.295 324.401 271.253 324.828 271.253C326.154 271.124 327.737 270.996 329.363 270.782C330.817 270.568 332.272 270.311 333.512 269.884L330.903 270.868L334.111 271.552C334.539 271.638 335.052 271.723 335.565 271.766C336.079 271.809 336.635 271.809 337.277 271.809C338.303 271.809 339.373 271.766 340.442 271.723C341.511 271.638 342.624 271.552 343.65 271.466L344.164 271.424L344.848 271.381C346.303 271.167 347.885 271.039 349.425 270.825ZM336.507 268.173L336.421 268.258C336.464 268.216 336.507 268.173 336.549 268.087C336.72 267.873 336.892 267.659 337.02 267.446C336.977 267.574 336.892 267.659 336.806 267.788C336.72 267.959 336.635 268.044 336.507 268.173Z" fill="#444444"/>
<path fill-rule="evenodd" clip-rule="evenodd" d="M348.727 240.737C349.785 246.627 351.117 253.883 353.074 263.184C352.435 263.448 351.667 263.544 350.811 263.512C349.655 263.441 348.453 263.156 347.419 262.528L347.246 262.402L338.099 242.235C338.333 240.478 338.447 238.205 338.683 236.533C339.693 228.436 340.837 222.313 340.092 217.489C339.625 214.372 339.079 211.769 338.538 209.594C344.955 219.78 346.015 225.841 348.727 240.737Z" fill="#F9F9F9" stroke="#333333"/>
<path d="M339.889 217.025L339.889 217.025L339.889 217.028C340.541 221.764 340.061 228.582 338.991 236.497L338.991 236.498C337.92 244.341 336.249 253.379 334.452 262.661L334.404 262.911L334.173 263.019C333.433 263.365 332.446 263.495 331.457 263.451C330.448 263.405 329.349 263.13 328.382 262.624L328.081 262.466L328.117 262.128C328.924 254.571 328.33 243.793 327.176 233.492C325.894 222.165 323.93 211.426 322.235 206.127L321.932 205.181L322.872 205.501C324.808 206.161 327.011 206.372 329.107 206.288C332.091 206.162 334.925 205.446 336.685 204.546L337.245 204.259L337.398 204.87C337.434 205.013 337.47 205.159 337.507 205.307C338.222 208.16 339.153 211.875 339.889 217.025Z" fill="#F9F9F9" stroke="#333333"/>
<path fill-rule="evenodd" clip-rule="evenodd" d="M334.175 47.1083C335.587 48.9048 337.17 47.8355 337.469 47.0655C337.597 46.98 337.683 46.8516 337.811 46.7661C338.41 47.2366 341.148 45.9961 337.212 44.5418C336.656 44.3279 336.015 44.2423 335.416 44.2851C334.817 44.3279 334.175 44.6273 333.705 45.2689C333.363 45.7395 333.149 46.4239 333.063 47.4505L334.175 47.1083Z" fill="#333333"/>
<path fill-rule="evenodd" clip-rule="evenodd" d="M331.095 59.0424C330.454 58.9141 329.769 58.4436 329.341 57.8875C329.17 57.7164 328.358 56.8182 328.186 56.5187C328.443 56.6471 328.999 56.6471 329.085 56.5615C329.427 56.1338 330.24 55.5777 331.566 55.7916C332.079 55.4066 332.849 55.321 333.448 55.321C333.534 55.321 334.432 55.4494 334.988 55.2783C335.373 55.1499 334.731 56.6471 334.389 57.2459C333.576 58.5719 332.336 59.2991 331.095 59.0424Z" fill="#333333"/>
<rect x="328.832" y="48.0912" width="3.49733" height="5.5688" fill="#333333"/>
<path fill-rule="evenodd" clip-rule="evenodd" d="M340.926 58.8489C338.958 61.0304 335.544 62.2924 331.823 62.8057C330.668 62.9768 328.871 61.9502 327.203 60.0253C325.663 58.3143 324.636 55.9726 323.823 53.1066C323.587 51.8739 323.609 50.187 323.823 48.861C323.909 48.3905 323.994 47.92 324.123 47.4922C324.251 47.4922 324.337 47.4922 324.337 47.535C324.55 49.2888 326.818 49.8448 327.63 48.0911C328.315 48.3477 328.358 48.3049 328.7 48.0055C329.17 47.6205 327.673 45.6957 326.732 45.3962C326.433 45.2679 326.005 45.2251 325.705 45.1824C325.363 45.2251 325.021 45.2679 324.722 45.3535C325.919 41.7603 327.844 38.9372 330.154 37.6112C332.036 37.0551 334.389 37.5351 336.485 39.3317C338.838 41.3421 340.891 44.7118 344.142 44.7118L344.366 44.1322C344.833 43.5288 345.41 43.4478 345.709 44.1322C346.222 45.2443 346.3 46.8934 345.573 48.0055C344.76 49.246 344.249 50.1076 344.249 50.1076C343.993 53.1875 343.193 56.368 340.926 58.8489ZM331.438 52.668C330.283 52.5397 329.812 51.3847 330.154 50.957C330.411 50.572 331.138 49.2888 330.753 48.476C330.325 49.3743 329.812 49.8876 329.427 50.4865C329.256 50.7859 329.128 51.0853 329.17 51.4275C329.342 53.053 331.095 53.0102 331.438 52.668ZM334.389 57.2021C334.731 56.6033 335.33 55.1062 334.988 55.2345C334.432 55.4056 333.491 55.2773 333.448 55.2773C332.849 55.2773 332.079 55.3628 331.566 55.7478C330.197 55.5339 329.427 56.09 329.085 56.5177C328.999 56.6033 328.486 56.6461 328.187 56.475C328.358 56.7744 329.213 57.6727 329.342 57.8438C329.812 58.3999 330.454 58.8276 331.095 58.9987C332.336 59.2981 333.576 58.571 334.389 57.2021ZM334.175 47.1072C335.587 48.9038 337.17 47.8344 337.469 47.0645C337.597 46.9361 337.683 46.8506 337.811 46.765C338.41 47.2356 341.148 45.9951 337.213 44.5407C336.656 44.3268 336.015 44.2413 335.416 44.2841C334.817 44.3269 334.175 44.6263 333.705 45.2679C333.363 45.7384 333.149 46.4228 333.063 47.4494L334.175 47.1072Z" fill="#F9F9F9"/>
<path d="M344.275 49.5177L344.293 49.1734L344.621 49.0675C345.677 48.7264 346.226 47.5684 346.226 46.2496C346.226 45.3945 345.958 44.4617 345.543 43.9638C345.345 43.7258 345.151 43.6297 344.97 43.6227C344.784 43.6155 344.49 43.6979 344.086 44.0716L343.914 44.2303L343.682 44.2004C340.841 43.8334 339.142 42.1113 337.6 40.5496C337.479 40.4265 337.359 40.3045 337.239 40.1842C335.599 38.5389 334.023 37.1645 331.216 37.3323C326.947 39.2245 324.335 43.223 323.528 47.6558C322.736 52.6431 324.757 59.8125 331.649 63.2135L331.78 63.2781L331.856 63.4032C332.317 64.1672 332.333 64.9546 332.239 65.598C332.193 65.9181 332.118 66.212 332.054 66.4528C332.046 66.4821 332.038 66.5101 332.031 66.537C331.975 66.7482 331.937 66.8885 331.923 66.9946L331.86 67.4699L331.382 67.4265C329.907 67.2924 326.028 66.6632 324.587 66.3428L324.349 66.29L324.244 66.0706C323.886 65.3236 323.201 65.0995 321.923 64.9594C321.702 64.9352 321.467 64.9139 321.22 64.8914C320.09 64.7889 318.698 64.6625 317.212 64.1328L316.983 64.051L316.906 63.8199C315.336 59.1098 314.782 51.7126 316.079 45.2151C317.362 38.7875 320.516 33.0056 326.554 31.8338C333.396 26.8206 343.363 27.6275 348.712 34.8632L348.713 34.8652C351.062 38.0766 352.586 42.5204 353.611 47.2361C354.638 51.9607 355.174 57.0069 355.516 61.4556L355.539 61.7578L355.282 61.9182C353.458 63.0551 350.638 63.8237 347.997 64.3103C345.343 64.7994 342.789 65.0173 341.447 65.0173H340.964L340.948 64.5346C340.923 63.8148 340.932 63.0862 340.941 62.3706C340.944 62.1526 340.946 61.9358 340.948 61.7209C340.956 60.7916 340.945 59.8843 340.847 58.9956L340.823 58.7798L340.964 58.615C342.073 57.3213 342.809 55.8727 343.462 54.2432C344.032 52.6925 344.191 51.1702 344.275 49.5177Z" fill="#CCCCCC" stroke="#333333"/>
<path d="M329.825 70.7011L329.647 70.3308L329.976 70.0842C330.581 69.6299 331.088 68.7077 331.41 67.4974C331.728 66.305 331.844 64.9143 331.737 63.6233L331.699 63.1587L332.159 63.0879C335.176 62.6238 338.683 61.3275 340.572 58.9672L341.644 57.6272L341.459 59.3333C341.035 63.2587 341.196 64.5963 341.473 66.8867C341.496 67.0753 341.52 67.2704 341.544 67.4739L341.547 67.5032V67.5327C341.547 67.6613 341.557 67.7935 341.568 67.9395C341.568 67.9471 341.569 67.9547 341.569 67.9623C341.577 68.0653 341.585 68.1786 341.589 68.2906C341.659 68.4545 341.654 68.6247 341.63 68.7516C341.596 68.9344 341.51 69.1126 341.414 69.2705C341.219 69.5925 340.902 69.9594 340.515 70.3304C339.736 71.0774 338.593 71.916 337.325 72.5293C336.064 73.1391 334.623 73.5531 333.268 73.3737C331.874 73.1891 330.635 72.3838 329.825 70.7011Z" fill="#F9F9F9" stroke="#333333"/>
<path fill-rule="evenodd" clip-rule="evenodd" d="M303.517 118.13C303.409 118.96 302.738 120.744 302.623 121.373C303.841 122.346 303.933 122.263 305.126 123.182C307.155 124.81 311.287 129.162 314.28 127.435C318.144 125.205 315.122 120.796 315.531 119.744C314.904 118.881 314.917 118.301 311.641 117.12C309.593 116.382 307.992 117.418 306.604 116.909C305.348 116.448 304.64 115.539 304.312 115.19C304.312 115.19 303.625 117.3 303.517 118.13Z" fill="#FEFEFE" stroke="#333333"/>
<path d="M320.34 105.411C320.735 115.336 318.78 122.191 316.046 135.351C328.903 139.34 335.566 140.365 348.37 131.222C347.447 123.583 348.98 117.233 348.98 117.233C356.376 113.177 357.922 111.787 358.232 109.305C359.055 102.722 360.873 82.4491 358.232 79.1394C355.602 75.8424 347.696 71.3889 342.108 68.2416L342.043 68.2051C339.569 69.1466 338.142 70.0459 333.579 71.2208C333.119 70.9653 331.492 71.8039 330.437 69.8118C323.49 74.5418 321.421 74.0869 319.15 77.2865C316.738 80.6844 315.25 95.1333 315.25 106.337C315.25 106.337 317.591 106.548 320.34 105.411Z" fill="#BDECFF"/>
<path d="M320.34 105.411C320.735 115.336 318.78 122.191 316.046 135.351C328.903 139.34 335.566 140.365 348.37 131.222C347.447 123.583 348.98 117.233 348.98 117.233C356.376 113.177 357.922 111.787 358.232 109.305C359.055 102.722 360.873 82.4491 358.232 79.1394C355.592 75.8296 347.634 71.3544 342.043 68.2051C339.569 69.1466 338.142 70.0459 333.579 71.2208C333.119 70.9653 331.492 71.8039 330.437 69.8118C323.49 74.5418 321.421 74.0869 319.15 77.2865C316.738 80.6844 315.25 95.1333 315.25 106.337C315.25 106.337 317.591 106.548 320.34 105.411ZM320.34 105.411C319.239 102.007 318.044 100.539 318.044 96.526" stroke="#333333" stroke-linecap="round"/>
<path d="M347.131 116.965L346.91 118.347L349.445 116.965" stroke="#333333" stroke-linecap="round"/>
<path d="M333.406 71.2603C331.335 77.8825 330.769 80.1891 328.295 90.1384C327.718 92.9658 326.31 97.2283 329.051 103.562C330.852 113.632 326.972 125.588 328.295 138.161" stroke="#333333"/>
<path fill-rule="evenodd" clip-rule="evenodd" d="M327.673 48.0916C328.357 48.3482 328.4 48.3054 328.742 48.006C329.213 47.621 327.716 45.6962 326.775 45.3967C326.475 45.2684 326.048 45.2256 325.748 45.1829C325.106 45.2256 324.55 45.3967 324.08 45.6534C323.609 45.9528 323.139 46.3378 323.01 46.7228C322.882 46.8083 322.882 47.0222 322.839 47.2361L322.796 47.4499L322.882 47.5783C322.968 47.7066 324.294 47.3644 324.336 47.4927C324.55 49.2893 326.818 49.8453 327.673 48.0916Z" fill="#333333"/>
<path d="M305.246 123.744L305.237 123.729L305.228 123.714C305.148 123.577 305.128 123.434 305.126 123.328C305.123 123.217 305.138 123.104 305.16 122.999C305.205 122.787 305.291 122.551 305.403 122.311C305.629 121.828 305.988 121.268 306.444 120.761C307.33 119.775 308.751 118.827 310.353 119.422L310.383 119.433L310.41 119.448C312.547 120.566 313.921 120.786 314.663 120.638C315.018 120.567 315.193 120.421 315.276 120.286C315.361 120.148 315.398 119.944 315.328 119.667C315.27 119.439 315.245 119.203 315.298 118.979C315.356 118.736 315.499 118.544 315.699 118.419C315.882 118.305 316.088 118.262 316.267 118.245C316.451 118.227 316.648 118.234 316.841 118.249C317.057 118.266 317.318 118.299 317.579 118.332C317.756 118.355 317.933 118.378 318.096 118.395C318.509 118.439 318.91 118.462 319.277 118.426L343.417 108.335L343.629 108.246L343.835 108.35L343.61 108.796C343.835 108.35 343.835 108.35 343.835 108.35L343.836 108.35L343.838 108.351L343.842 108.353L343.855 108.36C343.865 108.365 343.879 108.373 343.897 108.383C343.931 108.402 343.98 108.43 344.039 108.466C344.159 108.54 344.324 108.649 344.517 108.797C344.903 109.094 345.404 109.549 345.876 110.191C346.828 111.486 347.635 113.51 347.181 116.438L347.144 116.676L346.934 116.796C345.677 117.512 344.896 117.757 342.575 118.487C341.591 118.797 340.329 119.193 338.637 119.75L338.627 119.753L338.618 119.756C335.319 120.696 331.359 121.078 327.956 121.344C327.457 121.383 326.971 121.419 326.501 121.455C325.356 121.54 324.304 121.619 323.386 121.711C322.09 121.841 321.136 121.991 320.599 122.194C318.452 123.245 317.453 123.697 316.671 124.051C316.599 124.083 316.528 124.115 316.459 124.146C315.648 124.514 314.99 124.821 313.257 125.728L313.183 125.767L313.102 125.779C310.628 126.164 309.002 126.181 307.818 125.823C306.589 125.452 305.896 124.696 305.246 123.744Z" fill="#F9F9F9" stroke="#333333"/>
<path d="M344.249 108.492L342.884 107.352C344.607 106.3 345.761 105.637 347.351 104.508C347.998 100.709 348.178 99.5183 348.178 96.5513" stroke="#333333" stroke-linecap="round"/>
<path d="M235.037 129.461L234.568 129.332L234.426 129.797C224 163.871 221.631 204.612 219.485 241.525C219.115 247.894 218.751 254.149 218.354 260.237L218.333 260.554L218.612 260.707C219.414 261.148 220.511 261.464 221.715 261.673C222.927 261.883 224.282 261.989 225.618 261.991C226.955 261.994 228.285 261.893 229.448 261.683C230.6 261.476 231.635 261.154 232.347 260.687L232.52 260.573L232.562 260.37C232.982 258.323 233.401 256.277 233.82 254.231C240.066 223.735 246.291 193.342 254.115 163.193L254.132 163.126L254.131 163.057C254.015 157.275 254.015 151.497 254.223 146.138L254.24 145.712L253.821 145.628C252.597 145.383 251.437 144.96 250.339 144.4L250.335 144.398C249.173 143.817 248.071 143.053 247.098 142.239C246.87 142.047 246.811 141.899 246.799 141.83C246.789 141.772 246.805 141.74 246.828 141.715C246.88 141.661 247.096 141.56 247.38 141.8C248.332 142.608 249.407 143.35 250.584 143.927C251.827 144.548 253.149 145.006 254.55 145.223L254.55 145.223L254.56 145.225L254.806 145.258L254.798 145.495C254.798 145.496 254.798 145.496 254.798 145.497C254.364 155.537 254.8 165.532 255.342 175.501C255.42 176.925 255.499 178.347 255.579 179.77C256.057 188.316 256.534 196.845 256.534 205.397C256.514 206.804 256.259 209.202 255.921 212.382C255.882 212.747 255.842 213.123 255.802 213.508C255.408 217.237 254.937 221.863 254.611 227.035C253.958 237.375 253.881 249.918 256.15 261.868L256.195 262.105L256.41 262.218C257.201 262.63 258.446 262.815 259.827 262.865C261.232 262.917 262.859 262.832 264.471 262.652C266.083 262.472 267.691 262.197 269.06 261.863C270.411 261.534 271.583 261.137 272.284 260.691L272.512 260.546L272.515 260.276C272.633 251.549 273.019 242.811 273.405 234.066C273.443 233.198 273.481 232.33 273.519 231.462C273.94 221.861 274.33 212.254 274.331 202.662C277.376 178.722 279.272 152.011 275.589 127.936L275.488 127.275L274.882 127.559C263.426 132.941 247.081 132.759 235.037 129.461Z" fill="#404040" stroke="#333333" stroke-miterlimit="22.9256"/>
<path d="M223.817 125.334C223.817 125.334 222.108 124.981 222.039 124.541C221.973 124.126 222.053 122.136 222.039 121.421C221.803 109.522 222.039 102.565 222.039 97.93C222.039 97.93 226.985 74.7597 230.912 68.3476C234.839 61.9355 243.485 61.3477 249.45 58.0489C249.45 58.0489 253.144 60.8521 256.316 60.7951C259.487 60.7381 262.414 57.7255 262.414 57.7255C270.677 60.1713 279.602 64.4302 282.481 66.5408C284.175 67.7829 286.84 81.9102 288.237 101.371C289.01 103.658 299.691 114.457 303.486 115.785L301.421 121.982C301.103 120.092 281.523 111.515 281.009 108.309C279.984 101.911 276.902 93.9507 276.226 82.9946C276.575 104.889 276.035 114.391 273.478 125.334C257.434 131.52 249.062 131.264 234.935 125.95L238.976 82.9946C234.074 94.8746 231.613 98.0825 231.613 100.762C231.613 104.688 226.965 113.417 227.476 121.754C227.691 122.722 228.015 125.424 227.909 125.95L224.919 125.301" stroke="#333333"/>
<path d="M250.657 103.312L255.108 60.4073H258.907L261.994 103.312L260.187 113.159C260.187 113.159 256.676 116.746 256.175 116.707C255.674 116.668 252.097 113.159 252.097 113.159L250.657 103.312Z" fill="url(#paint1_linear_758_82592)" stroke="#333333"/>
<path d="M229.875 147.766L254.141 148.551L256.121 101.612L250.765 79.9186L247.335 57.021C247.335 57.021 232.396 62.1 229.875 64.6525C227.353 67.205 217.132 105.382 217.247 107.997C217.362 110.612 218.639 144.231 218.639 144.231L228.875 142.995V112.933L237.052 90.1198L234.422 98.4248L235.041 112.23C233.412 123.96 229.875 139.888 229.875 147.766Z" fill="#666666" stroke="#333333" stroke-linecap="round"/>
<path d="M269.618 34.6444C269.618 42.9639 264.68 50.8066 258.193 52.1967C254.52 52.9838 249.59 46.8765 247.901 40.5511C246.998 39.5532 245.301 37.8981 245.301 36.1595C245.01 32.8627 247.162 33.5854 247.22 32.8627C247.801 25.618 251.363 20.4788 257.64 20.4788C264.544 20.4788 269.618 26.3249 269.618 34.6444Z" fill="white" stroke="#333333"/>
<path d="M247.98 57.6991C249.795 53.5799 250.328 51.2088 250.307 46.8934C253.244 50.7724 256.373 53.6237 262.77 50.5205C262.381 53.3754 262.354 54.9662 262.77 57.8208C262.77 57.8208 259.266 61.814 256.705 61.5479C254.144 61.2819 247.98 57.6991 247.98 57.6991Z" fill="white" stroke="#333333"/>
<mask id="path-31-outside-1_758_82592" maskUnits="userSpaceOnUse" x="247.797" y="56.1899" width="18" height="10" fill="black">
<rect fill="white" x="247.797" y="56.1899" width="18" height="10"/>
<path fill-rule="evenodd" clip-rule="evenodd" d="M248.797 58.7982C248.797 58.7982 250.721 63.8268 251.926 64.4887C252.754 64.9379 253.584 64.0719 255.522 60.8333C253.584 60.7387 251.267 59.8742 250.754 59.6963C249.734 59.3423 248.797 58.7982 248.797 58.7982ZM258.248 60.8333C259.17 61.9443 260.531 62.6449 261.24 63.1413C262.327 63.8741 263.06 63.9923 263.486 63.8505C263.84 63.7323 264.006 63.1176 264.077 62.3612C264.195 61.0374 264.647 59.7201 264.458 58.7982C264.246 58.593 263.054 58.3824 262.699 58.1899L262.351 58.6025C261.5 59.7372 259.738 60.5024 258.248 60.8333Z"/>
</mask>
<path fill-rule="evenodd" clip-rule="evenodd" d="M248.797 58.7982C248.797 58.7982 250.721 63.8268 251.926 64.4887C252.754 64.9379 253.584 64.0719 255.522 60.8333C253.584 60.7387 251.267 59.8742 250.754 59.6963C249.734 59.3423 248.797 58.7982 248.797 58.7982ZM258.248 60.8333C259.17 61.9443 260.531 62.6449 261.24 63.1413C262.327 63.8741 263.06 63.9923 263.486 63.8505C263.84 63.7323 264.006 63.1176 264.077 62.3612C264.195 61.0374 264.647 59.7201 264.458 58.7982C264.246 58.593 263.054 58.3824 262.699 58.1899L262.351 58.6025C261.5 59.7372 259.738 60.5024 258.248 60.8333Z" fill="#CCCCCC"/>
<path d="M248.797 58.7982L249.299 57.9335C248.933 57.7206 248.472 57.7619 248.149 58.0366C247.826 58.3112 247.712 58.7596 247.863 59.1555L248.797 58.7982ZM251.926 64.4887L251.445 65.3653L251.449 65.3676L251.926 64.4887ZM255.522 60.8333L256.38 61.3469L257.237 59.9158L255.571 59.8345L255.522 60.8333ZM250.754 59.6963L250.426 60.6411H250.426L250.754 59.6963ZM258.248 60.8333L258.031 59.8571L256.434 60.2122L257.479 61.4719L258.248 60.8333ZM261.24 63.1413L260.667 63.9605L260.674 63.9656L260.681 63.9705L261.24 63.1413ZM264.077 62.3612L265.072 62.4545L265.073 62.4501L264.077 62.3612ZM264.458 58.7982L265.438 58.5973L265.376 58.2937L265.153 58.0786L264.458 58.7982ZM262.699 58.1899L263.177 57.3111L262.461 56.9225L261.935 57.5448L262.699 58.1899ZM262.351 58.6025L261.587 57.9574L261.568 57.9795L261.551 58.0025L262.351 58.6025ZM248.797 58.7982C247.863 59.1555 247.863 59.1556 247.863 59.1557C247.863 59.1557 247.863 59.1559 247.863 59.156C247.863 59.1562 247.864 59.1566 247.864 59.157C247.864 59.1578 247.864 59.1589 247.865 59.1603C247.866 59.1632 247.868 59.1672 247.87 59.1724C247.874 59.1828 247.879 59.1978 247.887 59.2172C247.902 59.256 247.924 59.3123 247.952 59.3837C248.009 59.5265 248.091 59.7302 248.192 59.9763C248.395 60.4675 248.68 61.1325 249.005 61.8216C249.328 62.5065 249.7 63.2359 250.079 63.8471C250.268 64.1524 250.47 64.4459 250.678 64.6957C250.876 64.932 251.133 65.194 251.445 65.3653L252.407 63.6121C252.418 63.618 252.351 63.578 252.213 63.4126C252.086 63.2607 251.939 63.0527 251.779 62.7935C251.458 62.2757 251.123 61.6239 250.814 60.9689C250.507 60.3181 250.236 59.6846 250.041 59.2122C249.943 58.9766 249.865 58.7823 249.812 58.6475C249.785 58.5801 249.765 58.5277 249.751 58.4925C249.744 58.4749 249.739 58.4616 249.736 58.4529C249.734 58.4486 249.733 58.4454 249.732 58.4434C249.732 58.4424 249.731 58.4417 249.731 58.4413C249.731 58.4411 249.731 58.4409 249.731 58.4409C249.731 58.4409 249.731 58.4409 249.731 58.4409C249.731 58.4409 249.731 58.441 248.797 58.7982ZM251.449 65.3676C251.863 65.5923 252.346 65.6748 252.857 65.5188C253.313 65.3794 253.695 65.0774 254.022 64.7435C254.67 64.0813 255.418 62.9543 256.38 61.3469L254.664 60.3197C253.688 61.9509 253.051 62.8761 252.593 63.3443C252.367 63.5756 252.265 63.6083 252.272 63.6062C252.286 63.602 252.319 63.5958 252.361 63.6009C252.399 63.6057 252.416 63.6166 252.403 63.6099L251.449 65.3676ZM255.571 59.8345C253.808 59.7485 251.643 58.9461 251.082 58.7516L250.426 60.6411C250.891 60.8023 253.36 61.729 255.474 61.8321L255.571 59.8345ZM251.082 58.7516C250.627 58.5937 250.179 58.3891 249.839 58.2195C249.671 58.1356 249.533 58.0623 249.438 58.0107C249.391 57.9849 249.354 57.9646 249.331 57.9512C249.319 57.9446 249.31 57.9396 249.305 57.9366C249.302 57.9351 249.3 57.9341 249.299 57.9335C249.299 57.9333 249.299 57.9331 249.299 57.9331C249.299 57.9331 249.299 57.9331 249.299 57.9332C249.299 57.9332 249.299 57.9333 249.299 57.9333C249.299 57.9333 249.299 57.9334 249.299 57.9334C249.299 57.9334 249.299 57.9335 248.797 58.7982C248.295 59.6629 248.295 59.663 248.295 59.663C248.295 59.6631 248.295 59.6631 248.295 59.6632C248.295 59.6632 248.296 59.6633 248.296 59.6634C248.296 59.6636 248.296 59.6638 248.297 59.6641C248.298 59.6646 248.299 59.6653 248.3 59.666C248.303 59.6676 248.307 59.6696 248.311 59.6722C248.32 59.6773 248.332 59.6844 248.348 59.6933C248.38 59.7111 248.425 59.7361 248.481 59.7669C248.594 59.8283 248.754 59.9131 248.947 60.0095C249.33 60.2005 249.861 60.445 250.426 60.6411L251.082 58.7516ZM257.479 61.4719C258.023 62.1281 258.678 62.6411 259.255 63.0404C259.546 63.2411 259.826 63.4196 260.069 63.5726C260.32 63.7314 260.513 63.8532 260.667 63.9605L261.813 62.322C261.612 62.1812 261.37 62.0292 261.138 61.8823C260.896 61.7297 260.646 61.5705 260.393 61.3952C259.882 61.0423 259.395 60.6496 259.018 60.1947L257.479 61.4719ZM260.681 63.9705C261.837 64.7493 262.918 65.0938 263.802 64.7991L263.17 62.9018C263.199 62.8921 263.121 62.9277 262.879 62.8603C262.639 62.7937 262.282 62.6376 261.799 62.312L260.681 63.9705ZM263.802 64.7991C264.437 64.5874 264.71 64.0134 264.829 63.6835C264.965 63.3039 265.034 62.8642 265.072 62.4545L263.081 62.2678C263.049 62.6147 262.999 62.8604 262.947 63.0068C262.921 63.078 262.908 63.0863 262.926 63.0629C262.948 63.0348 263.024 62.9502 263.17 62.9018L263.802 64.7991ZM265.073 62.4501C265.127 61.8414 265.254 61.2658 265.368 60.5975C265.471 59.9965 265.575 59.2642 265.438 58.5973L263.479 58.9992C263.531 59.2541 263.503 59.6415 263.397 60.2605C263.303 60.8122 263.145 61.5571 263.081 62.2723L265.073 62.4501ZM265.153 58.0786C265.01 57.9409 264.853 57.86 264.769 57.8197C264.669 57.7717 264.566 57.7321 264.475 57.7C264.292 57.636 264.082 57.5765 263.899 57.5257C263.703 57.4712 263.534 57.4258 263.384 57.3804C263.215 57.3292 263.165 57.3049 263.177 57.3111L262.222 59.0688C262.411 59.1712 262.643 59.2454 262.804 59.2943C262.984 59.3488 263.192 59.405 263.365 59.4529C263.55 59.5044 263.701 59.5481 263.813 59.5873C263.868 59.6068 263.896 59.6188 263.903 59.6224C263.927 59.6337 263.853 59.6042 263.764 59.5178L265.153 58.0786ZM261.935 57.5448L261.587 57.9574L263.115 59.2476L263.463 58.835L261.935 57.5448ZM261.551 58.0025C261.25 58.4033 260.742 58.7927 260.084 59.1288C259.436 59.4599 258.705 59.7075 258.031 59.8571L258.465 61.8095C259.281 61.6281 260.176 61.3278 260.994 60.9099C261.802 60.497 262.601 59.9365 263.151 59.2025L261.551 58.0025Z" fill="#333333" mask="url(#path-31-outside-1_758_82592)"/>
<path fill-rule="evenodd" clip-rule="evenodd" d="M249.706 34.5871C248.619 33.6179 247.72 33.2397 247.058 33.287C246.728 33.3106 246.444 33.4288 246.231 33.6416C245.995 33.8543 245.829 34.1853 245.711 34.5399C245.451 35.5091 245.64 36.8565 246.42 38.0621C246.609 38.3694 246.94 38.724 247.342 38.984C247.531 39.1259 247.744 39.2204 247.957 39.315C248.784 39.6223 248.359 40.5206 247.886 40.3788C247.484 40.2606 247.106 40.0715 246.751 39.8351C246.231 39.4805 245.806 39.0313 245.546 38.6058C244.6 37.1402 244.387 35.4854 244.718 34.2562C244.86 33.6889 245.144 33.2161 245.522 32.8615C245.924 32.4832 246.42 32.2705 247.011 32.2469C247.957 32.1996 249.139 32.6724 250.486 33.878C250.935 34.3035 250.344 35.1781 249.706 34.5871Z" fill="#333333"/>
<path fill-rule="evenodd" clip-rule="evenodd" d="M248.207 35.2041C248.041 35.1805 247.923 35.1805 247.805 35.2041C247.663 35.2278 247.569 35.2987 247.521 35.3932C247.45 35.5114 247.403 35.6769 247.403 35.866C247.403 36.2443 247.569 36.7407 247.9 37.2607C248.018 37.4262 248.207 37.639 248.42 37.7808C248.514 37.8517 248.609 37.899 248.703 37.9463C249.247 38.1827 249.082 38.6318 248.632 38.4663C248.443 38.3954 248.278 38.3245 248.136 38.2063C247.852 38.0172 247.616 37.7572 247.474 37.5208C247.096 36.9298 246.907 36.3388 246.907 35.866C246.907 35.5824 246.978 35.3223 247.096 35.1332C247.238 34.9205 247.45 34.7786 247.71 34.7077C247.876 34.6604 248.065 34.6604 248.254 34.7077C248.916 34.7786 248.845 35.3223 248.207 35.2041Z" fill="#333333"/>
<path d="M249.167 33.2361L249.844 33.7178L249.952 32.8935C250.233 30.7536 250.8 28.591 251.218 27.1183L251.218 27.1183L251.219 27.1142C252.036 24.1437 253.578 21.2606 256.504 20.5243C256.847 22.9962 257.508 25.4576 260.212 27.246C260.641 27.5299 261.454 27.8263 262.144 28.0495C262.849 28.2776 263.529 28.4612 263.743 28.5025L264.724 28.6911L264.288 27.7929L264.288 27.7929L264.288 27.7928L264.287 27.7925L264.286 27.7896L264.28 27.7764C264.278 27.7725 264.276 27.7678 264.273 27.7624C264.268 27.7517 264.262 27.7384 264.254 27.7225C264.233 27.675 264.201 27.6056 264.165 27.5204C264.091 27.349 263.998 27.1177 263.917 26.8729C263.857 26.6948 263.808 26.5191 263.776 26.3598C264.675 26.7234 265.437 26.9831 266.006 27.1594C266.356 27.2679 266.633 27.3448 266.824 27.395C266.92 27.42 266.994 27.4384 267.045 27.4507C267.07 27.4568 267.09 27.4614 267.103 27.4646L267.104 27.4647L267.139 27.4757C267.175 27.4865 267.227 27.5018 267.293 27.5202C267.425 27.5572 267.614 27.6071 267.849 27.6607C268.318 27.7675 268.971 27.8898 269.711 27.9505C271.166 28.0701 273.061 27.9601 274.5 26.901L275.099 26.46L274.464 26.0719C273.43 25.4391 272.403 24.384 271.452 23.1937C270.62 22.1521 269.867 21.0325 269.236 20.0531C269.378 19.9428 269.548 19.8047 269.725 19.6466C270.166 19.2531 270.736 18.6637 270.954 18.0283L271.123 17.5366L270.625 17.3872C269.661 17.0979 268.15 16.2413 266.556 15.3094C266.411 15.225 266.266 15.14 266.121 15.0549C264.708 14.2271 263.282 13.3914 262.291 13.0061C259.31 11.8467 256.34 12.1214 253.888 13.0367C251.518 13.9216 249.59 15.4212 248.573 16.8686C246.46 17.7644 245.114 19.0056 244.314 20.4502C243.501 21.9178 243.278 23.5472 243.325 25.1381C243.373 26.7261 243.691 28.3107 243.989 29.6998C244.015 29.8218 244.041 29.942 244.066 30.0603C244.337 31.3191 244.561 32.3603 244.561 33.1381L244.561 34.7193L245.469 33.4279L245.469 33.4272L245.469 33.4271L245.477 33.4168C245.485 33.4062 245.499 33.3886 245.518 33.3655C245.557 33.3192 245.618 33.2517 245.7 33.1746C245.864 33.0191 246.105 32.8328 246.413 32.6993C246.994 32.4476 247.909 32.3414 249.167 33.2361Z" fill="#666666" stroke="#333333" stroke-miterlimit="22.9256"/>
<path d="M265.373 57.2521C273.537 59.7775 281.235 62.7826 285.145 67.7165C288.178 78.2218 287.666 83.2198 289.388 101.401C289.48 102.367 304.079 112.627 306.505 114.373C304.488 118.222 303.57 120.425 302.552 124.477C298.695 124.033 282.094 114.615 279.771 110.013C278.702 104.733 276.429 97.637 275.772 91.613C276.508 99.4264 276.983 97.8824 275.654 116.664C274.976 126.253 278.617 141.963 278.617 147.678H254.141L256.532 102.126L262.302 80.2771L265.373 57.2521Z" fill="#666666" stroke="#333333" stroke-linecap="round"/>
<path d="M272.18 60.8127L272.847 71.8757L270.081 73.9738L272.18 75.4997L260.687 100.394" stroke="#333333" stroke-linecap="round"/>
<path d="M241.805 60.7556L240.21 71.4902L243.037 73.5038L240.986 75.0924L254.952 108.546" stroke="#333333" stroke-linecap="round"/>
<path fill-rule="evenodd" clip-rule="evenodd" d="M259.873 39.5419C262.426 40.5584 263.3 39.3765 263.277 38.2654C263.23 36.7761 261.835 37.0834 262.119 34.6722C260.913 36.3743 263.631 38.2418 262 39.1401C261.669 39.3292 261.102 39.5183 259.873 39.5419Z" fill="#333333"/>
<path fill-rule="evenodd" clip-rule="evenodd" d="M261.244 43.1355C258.265 45.5467 257.178 41.268 256.658 40.6298C256.8 45.9013 260.866 45.5231 261.244 43.1355Z" fill="#333333"/>
<path fill-rule="evenodd" clip-rule="evenodd" d="M258.904 33.7978C257.32 30.0628 253.112 32.1904 253.112 34.1997C253.325 33.9869 254.199 33.4432 254.696 33.396C254.861 35.618 257.533 36.0908 258.242 33.7033C258.525 33.6796 258.691 33.6796 258.904 33.7978Z" fill="#333333"/>
<path fill-rule="evenodd" clip-rule="evenodd" d="M267.958 33.6323C266.516 29.8263 262.237 31.812 262.142 33.8214C262.355 33.6086 263.253 33.1122 263.75 33.0649C263.844 35.3106 266.492 35.8543 267.296 33.5141C267.603 33.5141 267.768 33.5141 267.958 33.6323Z" fill="#333333"/>
<path d="M209.888 271.803L209.887 271.804C209.374 272.659 209.023 273.523 209.03 274.337C209.038 275.198 209.444 275.932 210.28 276.475L210.374 276.536L210.486 276.551C210.82 276.596 211.268 276.504 211.734 276.369C212.225 276.227 212.821 276.009 213.492 275.736C214.836 275.188 216.515 274.402 218.317 273.501L218.319 273.5C222.33 271.471 226.85 268.824 229.655 266.675H229.695L229.829 266.541C229.837 266.535 229.848 266.527 229.868 266.514L229.871 266.512C229.916 266.482 229.984 266.437 230.06 266.376L230.06 266.376L230.071 266.367C230.477 266.023 230.979 265.346 230.835 264.22L230.834 264.217C230.772 263.754 230.599 263.417 230.33 263.045C230.198 262.862 230.021 262.645 229.812 262.387C229.639 262.173 229.443 261.932 229.231 261.66L229.06 261.44L228.783 261.47C227.869 261.568 226.346 261.593 225.003 261.569C223.468 261.522 221.669 261.467 219.967 261.467L219.749 261.467L219.601 261.626C219.13 262.132 218.827 262.41 218.498 262.7C218.442 262.75 218.385 262.8 218.325 262.852C218.036 263.106 217.7 263.399 217.219 263.86C216.969 264.063 216.745 264.286 216.543 264.489L216.538 264.493L216.531 264.5C213.978 266.936 211.252 269.537 209.888 271.803Z" fill="#666666" stroke="#333333"/>
<path fill-rule="evenodd" clip-rule="evenodd" d="M259.597 265.028C257.873 272.06 270.613 270.884 274.939 271.151C279.691 271.434 283.804 271.434 284.631 270.985C286.607 268.022 279.713 265.821 278.012 265.17C275.015 264.021 272.046 263.624 269.094 262.443C268.648 262.573 263.045 263.428 260.173 263.395C259.837 264.129 259.792 264.25 259.597 265.028Z" fill="#666666"/>
<path d="M278.191 264.703C276.709 264.135 275.237 263.748 273.799 263.37C273.754 263.359 273.708 263.347 273.663 263.335C272.175 262.944 270.723 262.556 269.279 261.979L269.119 261.915L268.953 261.963C268.953 261.963 268.951 261.964 268.946 261.965L268.925 261.97C268.907 261.974 268.883 261.979 268.852 261.985C268.791 261.998 268.711 262.013 268.613 262.03C268.416 262.065 268.153 262.109 267.839 262.157C267.211 262.255 266.384 262.372 265.481 262.484C263.667 262.71 261.578 262.911 260.179 262.895L259.853 262.891L259.718 263.187C259.37 263.947 259.315 264.097 259.112 264.907L259.112 264.907L259.112 264.909C258.88 265.856 258.883 266.699 259.105 267.442C259.328 268.187 259.76 268.797 260.331 269.292C261.456 270.266 263.133 270.805 264.913 271.119C266.707 271.435 268.682 271.533 270.464 271.57C271.168 271.585 271.836 271.59 272.453 271.595C273.417 271.603 274.256 271.609 274.909 271.65L274.91 271.65C277.292 271.792 279.521 271.863 281.263 271.843C282.133 271.832 282.89 271.799 283.487 271.738C283.785 271.707 284.051 271.669 284.276 271.622C284.492 271.576 284.703 271.515 284.87 271.425L284.979 271.365L285.047 271.262C285.341 270.822 285.488 270.367 285.484 269.907C285.48 269.451 285.329 269.03 285.094 268.653C284.634 267.917 283.82 267.293 282.955 266.781C281.494 265.913 279.697 265.256 278.677 264.883C278.485 264.813 278.321 264.753 278.191 264.703ZM278.191 264.703L278.012 265.17M278.191 264.703C278.191 264.703 278.191 264.703 278.191 264.703L278.012 265.17M278.012 265.17C278.15 265.222 278.321 265.285 278.518 265.357C280.768 266.181 286.447 268.261 284.631 270.985C283.804 271.434 279.691 271.434 274.939 271.151C274.275 271.11 273.412 271.103 272.434 271.095C267.041 271.052 258.137 270.98 259.597 265.028C259.792 264.25 259.837 264.129 260.173 263.395C263.045 263.428 268.648 262.573 269.094 262.443C270.612 263.05 272.135 263.45 273.663 263.852C275.107 264.231 276.556 264.612 278.012 265.17Z" stroke="#333333"/>
<path d="M219.786 154.732C218.474 151.913 218.597 149.65 218.935 147.901L220.318 144.099L226.96 143.326C226.96 143.326 227.856 145.764 228.529 146.836C229.202 147.908 229.269 150.677 229.269 150.677C229.436 152.426 228.949 153.288 227.926 152.788C226.903 152.288 226.571 150.835 226.386 149.113C226.582 151.85 226.153 151.673 225.235 155.218C223.98 158.426 220.857 157.033 219.786 154.732Z" fill="white" stroke="#333333"/>
<mask id="path-47-inside-2_758_82592" fill="white">
<path d="M27.3485 79.4074V74.9159C27.3485 73.8113 28.2439 72.9159 29.3485 72.9159H59.8593C60.9639 72.9159 61.8593 73.8113 61.8593 74.9159V116.663C61.8593 117.767 60.9639 118.663 59.8593 118.663H53.3206"/>
</mask>
<path d="M27.3485 79.4074V74.9159C27.3485 73.8113 28.2439 72.9159 29.3485 72.9159H59.8593C60.9639 72.9159 61.8593 73.8113 61.8593 74.9159V116.663C61.8593 117.767 60.9639 118.663 59.8593 118.663H53.3206" fill="#E8EAEC"/>
<path d="M28.3485 79.4074V74.9159H26.3485V79.4074H28.3485ZM29.3485 73.9159H59.8593V71.9159H29.3485V73.9159ZM60.8593 74.9159V116.663H62.8593V74.9159H60.8593ZM59.8593 117.663H53.3206V119.663H59.8593V117.663ZM60.8593 116.663C60.8593 117.215 60.4116 117.663 59.8593 117.663V119.663C61.5162 119.663 62.8593 118.32 62.8593 116.663H60.8593ZM59.8593 73.9159C60.4116 73.9159 60.8593 74.3636 60.8593 74.9159H62.8593C62.8593 73.259 61.5162 71.9159 59.8593 71.9159V73.9159ZM28.3485 74.9159C28.3485 74.3636 28.7962 73.9159 29.3485 73.9159V71.9159C27.6917 71.9159 26.3485 73.259 26.3485 74.9159H28.3485Z" fill="#D3D8DB" mask="url(#path-47-inside-2_758_82592)"/>
<path d="M54.9388 122.281C54.9388 123.109 54.2672 123.781 53.4388 123.781H24.5331C23.7047 123.781 23.0331 123.109 23.0331 122.281V80.5339C23.0331 79.7055 23.7047 79.0339 24.5331 79.0339H45.8056C46.2032 79.0339 46.5845 79.1918 46.8658 79.4728L54.4989 87.0993C54.7805 87.3807 54.9388 87.7624 54.9388 88.1604V122.281Z" fill="white" stroke="#D3D8DB"/>
<path fill-rule="evenodd" clip-rule="evenodd" d="M39.4688 89.2623H28.5524C28.3308 89.2623 28.1511 89.442 28.1511 89.6636C28.1511 89.8852 28.3308 90.0649 28.5524 90.0649H39.4688C39.6904 90.0649 39.8701 89.8852 39.8701 89.6636C39.8701 89.442 39.6904 89.2623 39.4688 89.2623ZM48.95 95.2556H28.5524C28.3308 95.2556 28.1511 95.4353 28.1511 95.6569C28.1511 95.8786 28.3308 96.0582 28.5524 96.0582H48.95C49.1716 96.0582 49.3513 95.8786 49.3513 95.6569C49.3513 95.4353 49.1716 95.2556 48.95 95.2556ZM28.5524 101.249H48.95C49.1716 101.249 49.3513 101.429 49.3513 101.65C49.3513 101.872 49.1716 102.051 48.95 102.051H28.5524C28.3308 102.051 28.1511 101.872 28.1511 101.65C28.1511 101.429 28.3308 101.249 28.5524 101.249ZM48.95 107.242H28.5524C28.3308 107.242 28.1511 107.422 28.1511 107.643C28.1511 107.865 28.3308 108.045 28.5524 108.045H48.95C49.1716 108.045 49.3513 107.865 49.3513 107.643C49.3513 107.422 49.1716 107.242 48.95 107.242ZM28.5524 113.235H48.95C49.1716 113.235 49.3513 113.415 49.3513 113.637C49.3513 113.858 49.1716 114.038 48.95 114.038H28.5524C28.3308 114.038 28.1511 113.858 28.1511 113.637C28.1511 113.415 28.3308 113.235 28.5524 113.235Z" fill="#D3D8DB"/>
<path d="M54.2415 86.8453L47.1431 86.8453V79.7648L54.2415 86.8453Z" fill="white" stroke="#D3D8DB"/>
<path d="M152.354 142.07L152.485 142.164H152.646H172.828V163.809L169.884 166.749L133.24 164.879L133.24 137.901L146.562 137.922L152.354 142.07Z" fill="#E8EAEC" stroke="#D0D4D6"/>
<mask id="path-53-outside-3_758_82592" maskUnits="userSpaceOnUse" x="137.071" y="125.74" width="28" height="35" fill="black">
<rect fill="white" x="137.071" y="125.74" width="28" height="35"/>
<path d="M138.071 157.929V126.74H163.656V159.788"/>
</mask>
<path d="M138.071 157.929V126.74H163.656V159.788" fill="white"/>
<path d="M138.071 126.74V125.74H137.071V126.74H138.071ZM163.656 126.74H164.656V125.74H163.656V126.74ZM139.071 157.929V126.74H137.071V157.929H139.071ZM138.071 127.74H163.656V125.74H138.071V127.74ZM162.656 126.74V159.788H164.656V126.74H162.656Z" fill="#D0D4D6" mask="url(#path-53-outside-3_758_82592)"/>
<path d="M150.013 145.863L150.151 145.977H150.33H169.553V166.751H131.108V141.099H144.228L150.013 145.863Z" fill="white" stroke="#D0D4D6"/>
<path d="M155.684 71.2919H162.8C164.733 71.2919 166.3 69.7249 166.3 67.7919V43.2867C166.3 41.3537 164.733 39.7867 162.8 39.7867H122.477C120.544 39.7867 118.977 41.3537 118.977 43.2867V67.7919C118.977 69.7249 120.544 71.2919 122.477 71.2919H147.498L155.315 78.2732L156.234 79.0933L156.147 77.8651L155.684 71.2919Z" fill="white" stroke="#D3D8DB"/>
<path fill-rule="evenodd" clip-rule="evenodd" d="M128.931 49.3253H155.202C155.443 49.3253 155.639 49.5213 155.639 49.7632C155.639 50.005 155.443 50.201 155.202 50.201H128.931C128.689 50.201 128.493 50.005 128.493 49.7632C128.493 49.5213 128.689 49.3253 128.931 49.3253ZM128.931 54.5795H155.201C155.443 54.5795 155.639 54.7756 155.639 55.0174C155.639 55.2592 155.443 55.4552 155.201 55.4552H128.931C128.689 55.4552 128.493 55.2592 128.493 55.0174C128.493 54.7756 128.689 54.5795 128.931 54.5795ZM128.931 59.8337H145.429C145.671 59.8337 145.867 60.0297 145.867 60.2716C145.867 60.5134 145.671 60.7094 145.429 60.7094H128.931C128.689 60.7094 128.493 60.5134 128.493 60.2716C128.493 60.0297 128.689 59.8337 128.931 59.8337Z" fill="#D3D8DB"/>
<path d="M24.9137 74.72C25.9155 74.72 25.923 76.3021 24.9137 76.3021C23.9044 76.3021 23.9044 74.72 24.9137 74.72Z" fill="white"/>
<path d="M6.328 160.049L13.1388 161.321L14.664 168.596L16.1891 161.321L22.9999 160.042L16.219 158.369L14.664 151.495L13.1164 158.369L6.328 160.049Z" fill="#D2DAE0"/>
<path d="M47.5817 15.5051L54.3925 16.7768L55.9176 24.0514L57.4428 16.7768L64.2536 15.4975L57.4727 13.8246L55.9176 6.95117L54.3701 13.8246L47.5817 15.5051Z" fill="#D2DAE0"/>
<path d="M383.06 159.389L389.296 160.543L390.691 167.103L392.079 160.543L398.314 159.389L392.106 157.874L390.691 151.676L389.269 157.874L383.06 159.389Z" fill="#D2DAE0"/>
<path d="M304.346 147.005L309.446 147.945L310.576 153.315L311.716 147.945L316.816 146.995L311.736 145.755L310.576 140.685L309.416 145.755L304.346 147.005Z" fill="white"/>
<path d="M60.0112 254.318H119.54C120.368 254.318 121.04 254.989 121.04 255.818V267.188C121.04 268.016 120.368 268.688 119.54 268.688H60.0112C59.1828 268.688 58.5112 268.016 58.5112 267.188V255.818C58.5112 254.989 59.1828 254.318 60.0112 254.318Z" fill="url(#paint2_linear_758_82592)" stroke="#333333"/>
<path d="M55.9127 239.973H115.441C116.269 239.973 116.941 240.644 116.941 241.473V251.818C116.941 252.646 116.269 253.318 115.441 253.318H55.9127C55.0843 253.318 54.4127 252.646 54.4127 251.818V241.473C54.4127 240.644 55.0843 239.973 55.9127 239.973Z" fill="url(#paint3_linear_758_82592)" stroke="#333333"/>
<path opacity="0.2" d="M118.837 240.312V243.445L55.2783 245.554V240.312H118.837Z" fill="white"/>
<path d="M61.0359 225.628H120.564C121.393 225.628 122.064 226.299 122.064 227.128V237.473C122.064 238.301 121.393 238.973 120.564 238.973H61.0359C60.2075 238.973 59.5359 238.301 59.5359 237.473V227.128C59.5359 226.299 60.2075 225.628 61.0359 225.628Z" fill="url(#paint4_linear_758_82592)" stroke="#333333"/>
<path opacity="0.2" d="M123.653 226.149V229.285L60.0949 231.391L60.0672 227.155C60.0635 226.601 60.5123 226.149 61.0671 226.149H123.653Z" fill="white"/>
<path d="M132.401 267.407L129.759 268.144L126.831 268.738C116.962 270.724 106.822 262.77 102.363 249.233C97.5688 234.692 102.252 218.85 111.842 214.677L119.664 213.366C110.074 217.539 103.823 233.124 108.617 247.665C113.081 261.202 123.739 269.496 132.401 267.407Z" fill="url(#paint5_linear_758_82592)"/>
<path fill-rule="evenodd" clip-rule="evenodd" d="M102.986 249.029C107.397 262.422 117.308 269.986 126.702 268.096L126.796 268.077C123.965 267.479 121.133 266.03 118.521 263.904C114.108 260.311 110.261 254.744 107.995 247.871C105.55 240.455 105.921 232.776 108.128 226.413C109.847 221.453 112.701 217.245 116.258 214.601L112.03 215.31C107.515 217.309 104.069 222.089 102.339 228.244C100.605 234.417 100.629 241.88 102.986 249.029ZM111.842 214.677C102.252 218.85 97.5688 234.692 102.363 249.234C106.822 262.77 116.962 270.724 126.831 268.738L129.759 268.144L132.401 267.407C131.51 267.622 130.599 267.727 129.675 267.728C129.664 267.728 129.654 267.728 129.643 267.728C129.33 267.727 129.016 267.715 128.7 267.69C120.899 267.092 112.461 259.323 108.617 247.665C104.14 234.087 109.295 219.599 117.804 214.342C118.408 213.969 119.028 213.643 119.664 213.366L111.842 214.677Z" fill="#333333"/>
<path d="M133.303 266.501L133.303 266.501C128.711 268.499 123.586 267.508 118.976 264.186C114.364 260.861 110.306 255.221 107.936 248.034C105.566 240.847 105.352 233.532 106.902 227.517C108.454 221.494 111.754 216.833 116.362 214.828C120.955 212.829 126.076 213.806 130.681 217.114C135.289 220.424 139.342 226.049 141.713 233.238C144.08 240.424 144.299 247.753 142.753 253.785C141.206 259.823 137.91 264.498 133.303 266.501Z" fill="url(#paint6_linear_758_82592)" stroke="#333333"/>
<path d="M80.4069 217.089C86.657 216.32 91.6043 213.749 94.4216 210.013C92.916 215.56 87.3284 219.991 79.1351 220.995L79.1349 220.995C73.2088 221.724 67.0964 220.51 62.011 217.956C56.9216 215.399 52.9034 211.523 51.104 206.964L51.104 206.964C50.0522 204.301 49.9393 201.692 50.5008 199.303L50.5031 199.293L50.505 199.283L50.5343 199.131C50.6989 200.205 50.997 201.305 51.441 202.43C53.3531 207.272 57.5523 211.309 62.7695 213.946C67.9906 216.584 74.2717 217.842 80.4067 217.089L80.4069 217.089Z" fill="url(#paint7_linear_758_82592)" stroke="#333333"/>
<path d="M66.6744 184.204L66.6746 184.204C72.6007 183.475 78.7131 184.689 83.7986 187.244C88.888 189.8 92.9062 193.677 94.7055 198.235C96.4974 202.775 95.7581 207.145 93.13 210.571C90.4925 214.008 85.9192 216.533 79.992 217.262C74.0659 217.99 67.9535 216.776 62.8681 214.222C57.7787 211.665 53.7605 207.789 51.9611 203.231C50.1692 198.691 50.9085 194.32 53.5366 190.894C56.1741 187.456 60.7474 184.931 66.6744 184.204Z" fill="url(#paint8_linear_758_82592)" stroke="#333333"/>
<path d="M76.9451 204.088L80.7586 204.794L81.6116 208.806L82.4605 204.794L86.274 204.088L82.4772 203.162L81.6116 199.371L80.7419 203.162L76.9451 204.088Z" fill="white"/>
<path d="M67.2112 195.197C68.0057 195.197 68.0057 196.428 67.2112 196.428C66.4167 196.428 66.4125 195.197 67.2112 195.197Z" fill="white"/>
<path d="M27.6678 254.318H87.1962C88.0246 254.318 88.6962 254.989 88.6962 255.818V267.188C88.6962 268.016 88.0246 268.688 87.1962 268.688H27.6678C26.8394 268.688 26.1678 268.016 26.1678 267.188V255.818C26.1678 254.989 26.8394 254.318 27.6678 254.318Z" fill="url(#paint9_linear_758_82592)" stroke="#333333"/>
<path opacity="0.2" d="M90.7898 254.727V257.471L27.2314 259.314V254.727H90.7898Z" fill="white"/>
<defs>
<linearGradient id="paint0_linear_758_82592" x1="252.808" y1="80.704" x2="434.19" y2="189.704" gradientUnits="userSpaceOnUse">
<stop stop-color="#FFC671"/>
<stop offset="0.481926" stop-color="#FF7541"/>
<stop offset="1" stop-color="#FF6F3D"/>
</linearGradient>
<linearGradient id="paint1_linear_758_82592" x1="250.657" y1="58.2081" x2="273.245" y2="62.9345" gradientUnits="userSpaceOnUse">
<stop stop-color="#FFC671"/>
<stop offset="0.59375" stop-color="#FF7541"/>
<stop offset="1" stop-color="#FF6F3D"/>
</linearGradient>
<linearGradient id="paint2_linear_758_82592" x1="58.0114" y1="253.217" x2="64.8057" y2="282.398" gradientUnits="userSpaceOnUse">
<stop stop-color="#FFC671"/>
<stop offset="0.59375" stop-color="#FF7541"/>
<stop offset="1" stop-color="#FF6F3D"/>
</linearGradient>
<linearGradient id="paint3_linear_758_82592" x1="53.9128" y1="238.912" x2="59.8709" y2="266.329" gradientUnits="userSpaceOnUse">
<stop stop-color="#FFC671"/>
<stop offset="0.59375" stop-color="#FF7541"/>
<stop offset="1" stop-color="#FF6F3D"/>
</linearGradient>
<linearGradient id="paint4_linear_758_82592" x1="59.036" y1="224.567" x2="64.9941" y2="251.984" gradientUnits="userSpaceOnUse">
<stop stop-color="#FFC671"/>
<stop offset="0.59375" stop-color="#FF7541"/>
<stop offset="1" stop-color="#FF6F3D"/>
</linearGradient>
<linearGradient id="paint5_linear_758_82592" x1="100.463" y1="211.192" x2="149.47" y2="240.404" gradientUnits="userSpaceOnUse">
<stop stop-color="#FFC671"/>
<stop offset="0.59375" stop-color="#FF7541"/>
<stop offset="1" stop-color="#FF6F3D"/>
</linearGradient>
<linearGradient id="paint6_linear_758_82592" x1="105.412" y1="211.157" x2="157.733" y2="249.722" gradientUnits="userSpaceOnUse">
<stop stop-color="#FFC671"/>
<stop offset="0.59375" stop-color="#FF7541"/>
<stop offset="1" stop-color="#FF6F3D"/>
</linearGradient>
<linearGradient id="paint7_linear_758_82592" x1="49.6673" y1="193.424" x2="72.9571" y2="234.785" gradientUnits="userSpaceOnUse">
<stop stop-color="#FFC671"/>
<stop offset="0.59375" stop-color="#FF7541"/>
<stop offset="1" stop-color="#FF6F3D"/>
</linearGradient>
<linearGradient id="paint8_linear_758_82592" x1="50.4792" y1="182.148" x2="83.2829" y2="227.338" gradientUnits="userSpaceOnUse">
<stop stop-color="#FFC671"/>
<stop offset="0.59375" stop-color="#FF7541"/>
<stop offset="1" stop-color="#FF6F3D"/>
</linearGradient>
<linearGradient id="paint9_linear_758_82592" x1="25.668" y1="253.217" x2="32.4623" y2="282.398" gradientUnits="userSpaceOnUse">
<stop stop-color="#FFC671"/>
<stop offset="0.59375" stop-color="#FF7541"/>
<stop offset="1" stop-color="#FF6F3D"/>
</linearGradient>
</defs>
</svg>
