<svg width="121" height="32" viewBox="0 0 121 32" fill="none" xmlns="http://www.w3.org/2000/svg">
<path d="M27.1019 10.75C25.6051 8.89998 23.5095 7.79998 21.5137 7.79998C18.8693 7.79998 17.7716 9.04998 15.9754 9.04998C14.0794 9.04998 12.6823 7.79998 10.3872 7.79998C8.14191 7.79998 5.79686 9.14998 4.30001 11.45C2.20444 14.7 2.5537 20.8 5.99643 26C7.2438 27.85 8.84043 29.95 10.9859 30C12.8819 30 13.4307 28.8 16.0253 28.75C18.6198 28.75 19.0688 30 21.0147 29.95C23.1602 29.95 24.8566 27.6 26.104 25.75C27.0021 24.4 27.3015 23.75 28 22.25C23.0105 20.4 22.2122 13.4 27.1019 10.75Z" fill="white"/>
<path d="M19.5179 5.7C20.4659 4.5 21.2144 2.75 20.9649 1C19.4181 1.1 17.572 2.1 16.5243 3.4C15.5763 4.55 14.7779 6.30001 15.0773 8.00001C16.7737 8.05001 18.52 7.00001 19.5179 5.7Z" fill="white"/>
<path d="M45.1936 2.78851C44.5444 2.19791 43.4957 1.87577 42.0974 1.87577C41.2984 1.87577 40.5993 1.92946 40 2.03684V9.33878C40.4994 9.39247 41.0986 9.44616 41.7978 9.44616C43.2959 9.44616 44.4445 9.07033 45.1936 8.37235C45.8927 7.67437 46.2922 6.70793 46.2922 5.47305C46.2922 4.23816 45.8927 3.37911 45.1936 2.78851ZM41.9476 8.58711C41.5481 8.58711 41.1985 8.58711 40.9488 8.53342V2.73482C41.1985 2.68113 41.598 2.62744 42.0974 2.62744C44.1948 2.62744 45.1936 3.70125 45.1936 5.47305C45.2435 7.4596 44.0949 8.6408 41.9476 8.58711Z" fill="white"/>
<path d="M49.8878 3.86242C48.3896 3.86242 47.1412 4.88255 47.1412 6.70803C47.1412 8.37244 48.2898 9.44626 49.7879 9.44626C51.0863 9.44626 52.5345 8.58721 52.5345 6.60065C52.5345 4.98993 51.4858 3.86242 49.8878 3.86242ZM49.8378 8.69459C48.8391 8.69459 48.1899 7.83554 48.1899 6.65434C48.1899 5.63422 48.6893 4.61409 49.8878 4.61409C51.0863 4.61409 51.5357 5.7416 51.5357 6.65434C51.5357 7.83554 50.7867 8.69459 49.8378 8.69459Z" fill="white"/>
<path d="M59.3262 6.65428C59.1264 7.29857 58.9766 7.83547 58.9267 8.37238H58.8767C58.7768 7.83547 58.5771 7.24488 58.3773 6.65428L57.5284 3.96974H56.6794L55.7806 6.65428C55.5808 7.24488 55.431 7.78178 55.2812 8.37238H55.2312C55.1313 7.83547 54.9815 7.24488 54.8317 6.65428L54.0826 3.96974H53.0839L54.7318 9.28512H55.6307L56.5296 6.76166C56.7294 6.17106 56.8792 5.63415 57.029 4.98986C57.1788 5.63415 57.3286 6.11737 57.5284 6.76166L58.3773 9.28512H59.2762L61.0241 3.96974H60.0253L59.3262 6.65428Z" fill="white"/>
<path d="M64.8194 3.86242C63.9205 3.86242 63.2713 4.34564 63.0216 4.82886L62.9717 3.9698H62.0728C62.1227 4.39933 62.1227 4.82885 62.1227 5.41945V9.28519H63.1215V6.06374C63.1215 5.90267 63.1215 5.7416 63.1714 5.63422C63.3712 5.09731 63.8706 4.66778 64.5198 4.66778C65.4686 4.66778 65.7682 5.36576 65.7682 6.22481V9.28519H66.767V6.11743C66.767 4.29195 65.5685 3.86242 64.8194 3.86242Z" fill="white"/>
<path d="M69.3637 1.5H68.365V9.28515H69.3637V1.5Z" fill="white"/>
<path d="M73.3588 3.86242C71.8607 3.86242 70.6122 4.88255 70.6122 6.70803C70.6122 8.37244 71.7608 9.44626 73.2589 9.44626C74.5573 9.44626 76.0055 8.58721 76.0055 6.60065C76.0055 4.98993 74.9568 3.86242 73.3588 3.86242ZM73.3089 8.69459C72.3101 8.69459 71.6609 7.83554 71.6609 6.65434C71.6609 5.63422 72.1603 4.61409 73.3588 4.61409C74.5573 4.61409 75.0068 5.7416 75.0068 6.65434C74.9568 7.83554 74.2577 8.69459 73.3089 8.69459Z" fill="white"/>
<path d="M81.1492 6.06374C81.1492 4.98993 80.7497 3.86242 79.0518 3.86242C78.3526 3.86242 77.7034 4.02349 77.254 4.34564L77.5037 4.98993C77.9032 4.72147 78.4026 4.61409 78.9519 4.61409C80.1005 4.61409 80.2004 5.41945 80.2004 5.84898V5.95636C78.053 5.95636 76.9044 6.65434 76.9044 7.94292C76.9044 8.69459 77.4537 9.44626 78.6023 9.44626C79.4014 9.44626 80.0006 9.07042 80.3002 8.6409H80.3502L80.4501 9.28519H81.3489C81.299 8.90935 81.2491 8.47982 81.2491 7.99661V6.06374H81.1492ZM80.1504 7.51339C80.1504 7.62077 80.1504 7.72815 80.1005 7.83554C79.9507 8.26506 79.5012 8.74828 78.7522 8.74828C78.2528 8.74828 77.8033 8.47982 77.8033 7.83554C77.8033 6.81541 79.0518 6.60065 80.1504 6.65434V7.51339Z" fill="white"/>
<path d="M87.4914 1.5H86.4926V4.66775C86.2429 4.23823 85.6936 3.86239 84.8446 3.86239C83.4963 3.86239 82.3477 4.93621 82.3977 6.708C82.3977 8.31872 83.4464 9.39254 84.7448 9.39254C85.6437 9.39254 86.2929 8.96301 86.5925 8.37241L86.6424 9.28516H87.5413C87.4914 8.90932 87.4914 8.37241 87.4914 7.8892V1.5ZM86.4926 7.08384C86.4926 7.24491 86.4926 7.35229 86.4427 7.51336C86.2429 8.21134 85.6437 8.64087 84.9945 8.64087C83.9458 8.64087 83.3465 7.72813 83.3465 6.65431C83.3465 5.47311 83.9458 4.61406 84.9945 4.61406C85.7435 4.61406 86.2929 5.09728 86.4427 5.74157C86.4926 5.84895 86.4926 6.01002 86.4926 6.17109V7.08384Z" fill="white"/>
<path d="M93.8835 3.86242C92.3853 3.86242 91.1369 4.88255 91.1369 6.70803C91.1369 8.37244 92.2855 9.44626 93.7836 9.44626C95.082 9.44626 96.5302 8.58721 96.5302 6.60065C96.5302 4.98993 95.4815 3.86242 93.8835 3.86242ZM93.8335 8.69459C92.8348 8.69459 92.1856 7.83554 92.1856 6.65434C92.1856 5.63422 92.685 4.61409 93.8835 4.61409C95.082 4.61409 95.5315 5.7416 95.5315 6.65434C95.4815 7.83554 94.7824 8.69459 93.8335 8.69459Z" fill="white"/>
<path d="M100.525 3.86242C99.6264 3.86242 98.9772 4.34564 98.7275 4.82886L98.6776 3.9698H97.7787C97.8286 4.39933 97.8286 4.82885 97.8286 5.41945V9.28519H98.8274V6.06374C98.8274 5.90267 98.8274 5.7416 98.8773 5.63422C99.0771 5.09731 99.5765 4.66778 100.226 4.66778C101.175 4.66778 101.474 5.36576 101.474 6.22481V9.28519H102.473V6.11743C102.473 4.29195 101.274 3.86242 100.525 3.86242Z" fill="white"/>
<path d="M107.716 2.73497L106.718 3.05711V4.02355H105.869V4.77522H106.718V7.67452C106.718 8.3188 106.818 8.74833 107.117 9.07048C107.367 9.33893 107.716 9.5 108.216 9.5C108.615 9.5 108.915 9.44631 109.115 9.39262L109.065 8.64095C108.915 8.69464 108.765 8.69464 108.465 8.69464C107.916 8.69464 107.716 8.3188 107.716 7.67452V4.82891H109.165V3.96986H107.716V2.73497Z" fill="white"/>
<path d="M113.01 3.86239C112.61 3.86239 112.261 3.96977 112.011 4.13085C111.711 4.29192 111.462 4.56037 111.312 4.82882V1.5H110.313V9.28515H111.312V6.06371C111.312 5.90264 111.312 5.74157 111.362 5.58049C111.562 5.04359 112.061 4.61406 112.71 4.61406C113.659 4.61406 113.959 5.31204 113.959 6.17109V9.23146H114.957V6.06371C114.908 4.29192 113.759 3.86239 113.01 3.86239Z" fill="white"/>
<path d="M121 6.38589C121 5.41945 120.551 3.86242 118.753 3.86242C117.155 3.86242 116.156 5.151 116.156 6.76172C116.156 8.37244 117.155 9.44626 118.853 9.44626C119.702 9.44626 120.351 9.28518 120.7 9.12411L120.501 8.42613C120.151 8.58721 119.702 8.69459 119.002 8.69459C118.004 8.69459 117.155 8.15768 117.105 6.8691H120.95C121 6.70803 121 6.54696 121 6.38589ZM117.155 6.11743C117.255 5.47314 117.654 4.5604 118.703 4.5604C119.801 4.5604 120.101 5.52683 120.101 6.11743H117.155Z" fill="white"/>
<path d="M44.9287 11.7L40 26.2501H42.2403L43.7339 21.8H48.5132L50.0068 26.2501H52.3467L47.4179 11.7H44.9287ZM44.2317 20.05L45.5261 16.15C45.7253 15.5 45.9244 14.85 46.0738 14.1C46.2231 14.75 46.4223 15.45 46.6712 16.15L48.0154 20H44.2317V20.05Z" fill="white"/>
<path d="M58.7191 15.5C57.2256 15.5 56.0307 16.1 55.2342 17.2L55.1346 15.75H53.1432V15.95C53.193 16.85 53.2428 17.85 53.2428 19.25V30.5H55.4333V25.25C56.1303 26.05 57.2256 26.55 58.4204 26.55C59.7148 26.55 60.8599 26.05 61.756 25.15C62.7019 24.15 63.1997 22.65 63.1997 20.9C63.1997 19.35 62.7517 18 61.9053 17.05C61.1088 16.05 59.9637 15.5 58.7191 15.5ZM58.0719 24.7C56.8273 24.7 55.7818 23.85 55.4831 22.65C55.4333 22.45 55.3835 22.2 55.3835 21.95V20.2C55.3835 20.05 55.4333 19.85 55.4333 19.65C55.4333 19.6 55.4333 19.55 55.4831 19.45C55.8316 18.2 56.8771 17.3 58.1217 17.3C60.0633 17.3 60.9594 19.1 60.9594 20.9C61.0092 23.25 59.9139 24.7 58.0719 24.7Z" fill="white"/>
<path d="M70.0203 15.5C68.5267 15.5 67.3319 16.1 66.5354 17.2L66.4358 15.75H64.4444V15.95C64.4942 16.85 64.544 17.85 64.544 19.25V30.5H66.7345V25.25C67.4315 26.05 68.477 26.55 69.7216 26.55C71.016 26.55 72.2108 26.05 73.0572 25.15C74.0031 24.15 74.5009 22.65 74.5009 20.9C74.5009 19.35 74.0529 18 73.2065 17.05C72.41 16.05 71.2649 15.5 70.0203 15.5ZM69.3731 24.7C68.1285 24.7 67.083 23.85 66.7843 22.65C66.7345 22.45 66.6847 22.2 66.6847 21.95V20.2C66.6847 20.05 66.7345 19.85 66.7345 19.65C66.7345 19.6 66.7345 19.55 66.7843 19.45C67.1328 18.2 68.1783 17.3 69.4229 17.3C71.3645 17.3 72.2606 19.1 72.2606 20.9C72.3104 23.25 71.2151 24.7 69.3731 24.7Z" fill="white"/>
<path d="M84.1592 17.9C82.118 17.1 81.4708 16.5 81.4708 15.3C81.4708 14.35 82.2176 13.35 83.9601 13.35C85.4038 13.35 86.3 13.85 86.5489 14L86.748 14.1L87.3455 12.25L87.2459 12.2C86.8974 12 85.8519 11.5 84.0597 11.5C81.2717 11.5 79.3301 13.15 79.3301 15.55C79.3301 17.45 80.5747 18.8 83.1635 19.75C85.0056 20.45 85.7026 21.15 85.7026 22.4C85.7026 23.8 84.6571 24.65 82.9146 24.65C81.7695 24.65 80.6245 24.3 79.7284 23.75L79.5292 23.65L78.9318 25.55L79.0314 25.6C79.8777 26.15 81.4211 26.55 82.7155 26.55C86.4991 26.55 87.8433 24.25 87.8433 22.25C87.8931 20.2 86.7978 18.95 84.1592 17.9Z" fill="white"/>
<path d="M91.8261 13.2L89.6853 13.9V15.75H88.0922V17.5H89.6853V22.9001C89.6853 24.2001 89.9342 25.1001 90.4321 25.7001C90.9299 26.2501 91.6767 26.5501 92.5728 26.5501C93.4192 26.5501 93.9668 26.4001 94.2655 26.3001L94.3651 26.2501L94.2655 24.5001L94.0664 24.5501C93.7677 24.6501 93.5188 24.6501 93.0209 24.6501C92.1746 24.6501 91.8261 24.1001 91.8261 22.85V17.5H94.4647V15.75H91.8261V13.2Z" fill="white"/>
<path d="M99.941 15.5C96.8543 15.5 94.7136 17.8 94.7136 21.1C94.7136 24.3 96.8045 26.55 99.7419 26.55C102.231 26.55 104.969 24.8 104.969 20.95C104.969 19.4 104.471 18.05 103.575 17.05C102.679 16 101.385 15.5 99.941 15.5ZM99.7916 24.8C98.0989 24.8 96.9041 23.2 96.9041 21.05C96.9041 19.15 97.8002 17.25 99.8414 17.25C101.833 17.25 102.729 19.2 102.729 21C102.729 23.2 101.484 24.8 99.7916 24.8Z" fill="white"/>
<path d="M111.69 15.6L111.541 15.55C111.342 15.5 111.192 15.5 110.993 15.5C109.848 15.5 108.803 16.2 108.255 17.25L108.205 15.7H106.214V15.9C106.264 16.75 106.313 17.75 106.313 19.05V26.25H108.504V20.65C108.504 20.35 108.504 20.05 108.554 19.8C108.803 18.45 109.699 17.6 110.844 17.6C111.093 17.6 111.242 17.6 111.441 17.65H111.69V15.6Z" fill="white"/>
<path d="M116.619 15.5C113.682 15.5 111.64 17.85 111.64 21.2C111.64 24.45 113.682 26.5 116.818 26.5C118.461 26.5 119.606 26.15 120.303 25.85L120.452 25.8L120.054 24.15L119.855 24.2C119.258 24.45 118.461 24.7 117.117 24.7C116.171 24.7 113.98 24.4 113.831 21.5H120.9L120.95 21.35C121 21.15 121 20.8 121 20.45C121 18.15 119.855 15.5 116.619 15.5ZM113.881 19.8C114.08 18.55 114.876 17.15 116.519 17.15C117.167 17.15 117.714 17.35 118.112 17.75C118.76 18.4 118.859 19.35 118.859 19.8H113.881Z" fill="white"/>
</svg>
