<svg width="128" height="32" viewBox="0 0 128 32" fill="none" xmlns="http://www.w3.org/2000/svg">
<g style="mix-blend-mode:luminosity">
<path d="M3 2V30L17 16L3 2Z" fill="url(#paint0_linear_11259_93614)"/>
</g>
<g style="mix-blend-mode:luminosity">
<path d="M27.4845 15.0452L22.2 12L18 16L22.2 20L27.4845 16.7484C27.7938 16.5935 28 16.2323 28 15.871C28 15.5097 27.7938 15.2 27.4845 15.0452Z" fill="url(#paint1_linear_11259_93614)"/>
</g>
<g style="mix-blend-mode:luminosity">
<path d="M4 30L21.6 20.45L17.5 16.5L4 30Z" fill="url(#paint2_linear_11259_93614)"/>
</g>
<g style="mix-blend-mode:luminosity">
<path d="M21.6 11.55L16.05 8.3L4 2L17.5 15.5L21.6 11.55Z" fill="url(#paint3_linear_11259_93614)"/>
</g>
<path d="M39.45 8.49989C40.45 8.49989 41.2 8.19107 41.85 7.52195C42.4 6.95578 42.65 6.23519 42.65 5.30872C42.65 5.15431 42.65 4.99989 42.6 4.79401H39.45V5.61754H41.8C41.75 6.18372 41.55 6.64695 41.25 6.95578C40.75 7.47048 40.15 7.67636 39.45 7.67636C38.75 7.67636 38.2 7.41901 37.7 6.95578C37.2 6.44107 36.95 5.82342 36.95 5.05136C36.95 4.27931 37.2 3.61019 37.7 3.14695C38.2 2.63225 38.8 2.42636 39.45 2.42636C40.2 2.42636 40.8 2.68372 41.2 3.19842L41.75 2.63225C41.5 2.32342 41.15 2.06607 40.75 1.91166C40.35 1.70578 39.9 1.65431 39.4 1.65431C38.45 1.65431 37.65 1.96313 37 2.63225C36.35 3.30136 36 4.12489 36 5.10283C36 6.08078 36.35 6.90431 37 7.57342C37.7 8.1396 38.5 8.49989 39.45 8.49989Z" fill="white"/>
<path d="M47.6 7.52189H44.65V5.4116H47.3V4.58807H44.65V2.47778H47.6V1.70572H43.8V8.34542H47.6V7.52189Z" fill="white"/>
<path d="M51.1 8.34542V2.47778H52.9V1.70572H48.45V2.47778H50.25V8.34542H51.1Z" fill="white"/>
<path d="M56.95 1.70572H56.1V8.34542H56.95V1.70572Z" fill="white"/>
<path d="M62.45 1.70572H58V2.47778H59.8V8.34542H60.65V2.47778H62.45V1.70572Z" fill="white"/>
<path d="M68.5 8.5C69.45 8.5 70.25 8.13971 70.85 7.47059C71.5 6.80147 71.8 5.97794 71.8 5C71.8 4.02206 71.5 3.19853 70.85 2.52941C70.2 1.86029 69.4 1.5 68.5 1.5C67.55 1.5 66.75 1.86029 66.15 2.52941C65.5 3.19853 65.2 4.02206 65.2 5C65.2 5.97794 65.5 6.80147 66.15 7.47059C66.75 8.13971 67.55 8.5 68.5 8.5ZM66.75 3.09559C67.25 2.58088 67.8 2.32353 68.5 2.32353C69.2 2.32353 69.8 2.58088 70.25 3.09559C70.75 3.61029 70.95 4.22794 70.95 5C70.95 5.77206 70.7 6.38971 70.25 6.90441C69.75 7.41912 69.2 7.67647 68.5 7.67647C67.8 7.67647 67.2 7.41912 66.75 6.90441C66.25 6.38971 66.05 5.77206 66.05 5C66.05 4.22794 66.25 3.61029 66.75 3.09559Z" fill="white"/>
<path d="M73.8 2.88954L77.1 8.34542H78V1.70572H77.15V5.56601L77.2 6.85278H77.15L74 1.70572H73V8.34542H73.8V2.88954Z" fill="white"/>
<path d="M92.5071 19.8059C92.1049 18.7157 90.9486 16.795 88.5355 16.795C86.1727 16.795 84.1617 18.7158 84.1617 21.5709C84.1617 24.2185 86.1224 26.3469 88.7366 26.3469C90.8481 26.3469 92.0546 24.9972 92.5574 24.2185L90.9989 23.1283C90.4962 23.907 89.7421 24.4261 88.7366 24.4261C87.6809 24.4261 86.977 23.9589 86.5246 22.9726L92.7082 20.325L92.5071 19.8059ZM86.1727 21.4152C86.1224 19.5983 87.53 18.6119 88.5858 18.6119C89.3901 18.6119 90.094 19.0272 90.2951 19.5983L86.1727 21.4152Z" fill="white"/>
<path d="M125.788 17.0545L123.425 23.1283H123.375L120.962 17.0545H118.8L122.42 25.5682L120.358 30.2404H122.47L128 17.0545H125.788Z" fill="white"/>
<path d="M77.8776 17.8333H77.8273C77.3749 17.2623 76.5202 16.7431 75.4142 16.7431C73.1016 16.7431 70.9902 18.8197 70.9902 21.5191C70.9902 24.1667 73.1016 26.2432 75.4142 26.2432C76.5202 26.2432 77.3749 25.724 77.8273 25.153H77.8776V25.8279C77.8776 27.6448 76.9224 28.6311 75.4142 28.6311C74.1574 28.6311 73.4033 27.6967 73.1017 26.918L71.3421 27.6967C71.8448 28.9426 73.2022 30.5 75.4142 30.5C77.7771 30.5 79.788 29.0464 79.788 25.5164V17.0546H77.8776V17.8333ZM75.5148 24.4262C74.1071 24.4262 72.9508 23.2322 72.9508 21.571C72.9508 19.9098 74.1071 18.6639 75.5148 18.6639C76.8721 18.6639 77.9781 19.9098 77.9781 21.571C77.9781 23.2322 76.9224 24.4262 75.5148 24.4262Z" fill="white"/>
<path d="M83.2065 12.0191H81.1956V26.0355H83.2065V12.0191Z" fill="white"/>
<path d="M109.55 12.0191H107.539V26.0355H109.55V12.0191Z" fill="white"/>
<path d="M101.958 12.0191H97.1322V26.0355H99.1432V20.7404H101.958C104.221 20.7404 106.383 19.0792 106.383 16.3798C106.383 13.6803 104.221 12.0191 101.958 12.0191ZM102.009 18.7678H99.1432V13.9918H102.009C103.517 13.9918 104.372 15.2896 104.372 16.3798C104.422 17.4699 103.567 18.7678 102.009 18.7678Z" fill="white"/>
<path d="M114.527 16.7431C113.069 16.7431 111.561 17.418 110.907 18.8716L112.717 19.6503C113.119 18.8716 113.823 18.612 114.577 18.612C115.633 18.612 116.688 19.235 116.688 20.4289V20.5847C116.337 20.377 115.532 20.0656 114.577 20.0656C112.616 20.0656 110.656 21.1557 110.656 23.2322C110.656 25.1011 112.264 26.2951 114.024 26.2951C115.381 26.2951 116.136 25.6721 116.588 24.9453H116.638V26.0355H118.599V20.6366C118.649 18.1448 116.839 16.7431 114.527 16.7431ZM114.275 24.4262C113.622 24.4262 112.667 24.0628 112.667 23.2322C112.667 22.1421 113.823 21.7268 114.828 21.7268C115.733 21.7268 116.135 21.9344 116.688 22.194C116.538 23.4918 115.482 24.4262 114.275 24.4262Z" fill="white"/>
<path d="M43.3399 20.2732H48.0153C47.8645 21.4153 47.5126 22.2459 46.9596 22.817C46.2557 23.5437 45.2 24.2705 43.3399 24.2705C40.4743 24.2705 38.212 21.8825 38.212 18.8716C38.212 15.9126 40.4743 13.4727 43.3399 13.4727C44.8984 13.4727 46.0546 14.0956 46.859 14.9262L48.2164 13.5246C47.0601 12.3825 45.5016 11.5 43.2896 11.5C39.318 11.5 36 14.8224 36 18.8716C36 22.9727 39.318 26.2432 43.2896 26.2432C45.4011 26.2432 47.0098 25.5164 48.2667 24.1667C49.5738 22.817 49.9759 20.9481 49.9759 19.4426C49.9759 18.9754 49.9257 18.5601 49.8754 18.1967H43.3399V20.2732Z" fill="white"/>
<path d="M55.3552 16.795C52.7912 16.795 50.73 18.8196 50.73 21.5709C50.73 24.3223 52.7912 26.3469 55.3552 26.3469C57.9191 26.3469 59.9803 24.3223 59.9803 21.5709C59.9803 18.7677 57.9191 16.795 55.3552 16.795ZM55.3552 24.4261C53.9475 24.4261 52.741 23.2322 52.741 21.519C52.741 19.8059 53.9475 18.6119 55.3552 18.6119C56.7628 18.6119 57.9694 19.8059 57.9694 21.519C57.9694 23.2322 56.7628 24.4261 55.3552 24.4261Z" fill="white"/>
<path d="M65.4601 16.795C62.8962 16.795 60.835 18.8196 60.835 21.5709C60.835 24.3223 62.8962 26.3469 65.4601 26.3469C68.024 26.3469 70.0852 24.3223 70.0852 21.5709C70.0852 18.7677 68.024 16.795 65.4601 16.795ZM65.4601 24.4261C64.0524 24.4261 62.8459 23.2322 62.8459 21.519C62.8459 19.8059 64.0524 18.6119 65.4601 18.6119C66.8677 18.6119 68.0743 19.8059 68.0743 21.519C68.0743 23.2322 66.8677 24.4261 65.4601 24.4261Z" fill="white"/>
<defs>
<linearGradient id="paint0_linear_11259_93614" x1="10" y1="11.5" x2="3" y2="20" gradientUnits="userSpaceOnUse">
<stop stop-color="#00E2FF"/>
<stop offset="1" stop-color="#03C6F5"/>
</linearGradient>
<linearGradient id="paint1_linear_11259_93614" x1="23" y1="12" x2="12.5" y2="12" gradientUnits="userSpaceOnUse">
<stop stop-color="#FFEA0D"/>
<stop offset="1" stop-color="#FFCF00"/>
</linearGradient>
<linearGradient id="paint2_linear_11259_93614" x1="13" y1="16" x2="1.5" y2="27.5" gradientUnits="userSpaceOnUse">
<stop stop-color="#F73547"/>
<stop offset="1" stop-color="#E22652"/>
</linearGradient>
<linearGradient id="paint3_linear_11259_93614" x1="19" y1="11.5" x2="4" y2="2" gradientUnits="userSpaceOnUse">
<stop stop-color="#2EF38F"/>
<stop offset="1" stop-color="#0EDE76"/>
</linearGradient>
</defs>
</svg>
