<svg width="32" height="32" viewBox="0 0 32 32" fill="none" xmlns="http://www.w3.org/2000/svg">
<path d="M29.2999 26.9154C29.1498 26.7648 28.9998 26.6142 28.7496 26.4635C28.6996 26.4635 28.5996 26.3631 28.4495 26.3129C28.2994 26.2124 28.1494 26.1622 28.0493 26.0618C27.9493 26.0116 27.8492 25.8609 27.6991 25.7103C27.5491 25.5596 27.449 25.3588 27.349 25.2081C27.2489 25.0073 27.1989 24.8064 27.0989 24.5051C26.9988 24.2038 26.9488 23.8523 26.9488 23.5008C26.7987 23.6514 26.6987 23.9527 26.6987 24.3545C26.6987 24.7562 26.7487 25.2081 26.9488 25.6601C27.1489 26.112 27.449 26.4133 27.8492 26.5137C28.2494 26.6644 28.5496 26.7648 28.7496 26.9154C28.9998 27.0661 29.1498 27.2167 29.1999 27.4176C29.2499 27.6185 29.1498 27.8193 28.8497 28.0202C28.5496 28.221 28.0993 28.4721 27.4991 28.673C26.6487 28.9743 25.9983 29.2254 25.6482 29.4262C25.298 29.6271 24.7478 30.0288 24.0474 30.6314C23.5972 31.0331 23.0469 31.234 22.5467 31.2842C21.9964 31.3344 21.5963 31.1335 21.2461 30.6816C20.8959 30.2799 20.7959 29.6773 20.946 28.8738C21.146 27.3674 21.146 26.2124 20.946 25.3588C20.7459 24.706 20.6958 24.1034 20.8459 23.6012C20.9459 23.0991 21.096 22.7978 21.3461 22.7476C21.5462 22.6471 21.7964 22.848 22.0965 23.2999C22.0965 23.3502 22.1965 23.5008 22.2466 23.6514C22.3466 23.8021 22.3966 23.9527 22.4467 24.003C22.4967 24.0532 22.5967 24.1536 22.6968 24.3042C22.7968 24.4047 22.9469 24.5051 23.097 24.5553C23.247 24.6055 23.4471 24.6558 23.6472 24.6558C24.0474 24.6558 24.3976 24.6055 24.7477 24.4047C25.0479 24.2038 25.298 24.003 25.4481 23.8021C25.5982 23.6012 25.7482 23.3502 25.9483 23.1493C26.0984 22.9484 26.2485 22.848 26.3485 22.7978C26.4986 22.7978 26.5986 22.6471 26.6987 22.3961C26.7987 22.145 26.8988 21.8437 26.8988 21.3918C26.9488 20.99 26.8988 20.4377 26.7987 19.8853C26.5986 18.8308 26.2485 17.726 25.7482 16.4706C25.198 15.2153 24.6477 14.2612 23.9974 13.5582C22.8468 12.3028 22.0465 10.9972 21.6463 9.64135C21.2461 8.23532 21.046 6.92972 21.096 5.82499C21.146 5.02154 20.996 4.11766 20.5958 3.16357C20.0955 2.20948 19.5453 1.50646 18.845 1.00431C18.3947 0.703015 17.8945 0.451939 17.2442 0.251077C16.6439 0.0502154 16.0436 0 15.3933 0C14.643 0 13.9927 0.100431 13.5424 0.401723C12.592 0.903877 11.9917 1.55668 11.6415 2.25969C11.3414 3.01292 11.1913 3.9168 11.1913 4.97132C11.2414 7.33145 11.3414 9.18942 11.4915 10.5452C11.3414 11.1478 10.591 12.353 9.29043 14.0603C9.04031 14.3114 8.84022 14.6127 8.5901 15.0144C8.39001 15.4161 8.18991 15.7676 8.03984 16.1191C7.88977 16.4204 7.7397 16.9226 7.5396 17.5252C7.33951 18.1278 7.13941 18.5797 7.08939 18.8308C6.98934 19.0316 6.88929 19.2827 6.6892 19.584C6.4891 19.8853 6.38906 20.1364 6.23899 20.4377C6.13894 20.6887 6.08892 21.0402 6.03889 21.3918C6.03889 21.6428 6.03889 21.8939 6.08892 22.0948C6.13894 22.3961 6.23899 22.4965 6.33903 22.3458C6.88929 21.9441 7.5396 22.1952 8.33998 23.0489C8.89024 23.6514 9.89072 25.1077 11.3414 27.3674C11.4415 27.5682 11.5915 27.7691 11.6916 28.0202C11.7916 28.2713 11.9417 28.5726 12.0417 28.9743C12.1418 29.376 12.1918 29.7275 12.1918 30.0288C12.1918 30.3301 12.0417 30.6314 11.7916 30.8825C11.5415 31.1335 11.1413 31.3344 10.6411 31.3846C10.391 31.4348 10.0408 31.3846 9.6406 31.3344C9.24041 31.234 8.79019 31.1335 8.18991 30.9327C7.58963 30.7318 7.13941 30.6314 6.88929 30.531C6.48911 30.4305 5.88882 30.3301 5.13847 30.1794C4.38811 30.0288 3.88787 29.9284 3.63776 29.8279C3.23757 29.7275 3.03747 29.5769 2.98745 29.376C2.98745 29.1249 3.03747 28.8236 3.28759 28.4219C3.48768 28.0202 3.58773 27.7189 3.58773 27.5682C3.58773 27.4176 3.58773 27.3172 3.58773 27.1665C3.58773 27.0159 3.53771 26.9154 3.48768 26.8652C3.43766 26.815 3.38764 26.6644 3.33761 26.5639C3.28759 26.4133 3.23757 26.3129 3.18754 26.2626C2.98745 25.7605 2.93742 25.409 3.08749 25.2583C3.18754 25.1077 3.43766 25.0575 3.83785 25.0575C4.43813 25.1077 4.93837 25.0073 5.28854 24.8064C5.93884 24.4047 6.08892 23.8021 5.8388 22.8982C5.8388 23.2999 5.78877 23.6012 5.6387 23.8021C5.48863 24.003 5.23851 24.2038 4.88835 24.4549C4.68825 24.5553 4.33809 24.6558 3.83785 24.6558C3.33761 24.6558 2.98745 24.7562 2.83738 24.9068C2.73733 25.0073 2.63728 25.1579 2.63728 25.409C2.63728 25.6098 2.63728 25.8609 2.73733 26.0618C2.78735 26.2626 2.83738 26.5137 2.93742 26.815C2.98745 27.0159 2.98745 27.267 2.98745 27.4176C2.98745 27.5682 2.8874 27.8695 2.68731 28.3717C2.48721 28.8738 2.43719 29.2756 2.58726 29.5769C2.63728 29.7275 2.73733 29.8279 2.8874 29.9284C2.98745 30.079 3.18754 30.1292 3.43766 30.2297C3.68778 30.2799 3.9379 30.3803 4.13799 30.3803C4.33809 30.4305 4.63823 30.4807 5.03842 30.531C5.43861 30.5812 5.73875 30.6314 5.93884 30.6816C6.6892 30.8322 7.5396 31.0833 8.54008 31.4348C9.49053 31.7863 10.1909 31.9872 10.491 31.9872C10.8412 31.9872 11.1413 31.937 11.4415 31.7863C11.7416 31.6357 11.9917 31.4851 12.1918 31.2842C12.3919 31.0833 12.7421 30.9327 13.1423 30.7318C13.5424 30.5812 14.0427 30.4807 14.5429 30.4807C14.793 30.4807 15.1432 30.4305 15.5934 30.4305C16.0436 30.4305 16.3938 30.3803 16.5939 30.3803C17.5944 30.3803 18.3947 30.3803 18.895 30.3803C19.2451 30.3803 19.5453 30.4305 19.7454 30.531C19.9455 30.6314 20.0955 30.7318 20.1456 30.8825C20.1956 31.0331 20.2956 31.1838 20.4457 31.3344C20.5958 31.4851 20.7459 31.6357 20.946 31.7361C21.3962 31.937 21.9464 32.0374 22.5467 31.9872C23.147 31.937 23.5472 31.8366 23.7473 31.6357C24.0974 31.3344 24.5477 30.9327 25.0979 30.4807C25.6482 30.0288 26.1484 29.7275 26.5986 29.4764C26.6987 29.4262 26.8487 29.3258 27.0989 29.2254C27.299 29.1249 27.4991 29.0245 27.6491 28.9241C27.7992 28.8236 27.9993 28.7232 28.1994 28.6228C28.3995 28.5223 28.5996 28.3717 28.7496 28.2713C28.8997 28.1708 28.9998 28.0704 29.1498 27.9198C29.2999 27.7691 29.4 27.6687 29.45 27.518C29.5 27.6185 29.5 27.4678 29.5 27.3172C29.5 27.2167 29.4 27.0661 29.2999 26.9154ZM19.7454 9.59114C19.7954 9.59114 19.7954 9.54092 19.7954 9.54092L19.8454 9.59114C19.8955 9.64135 19.8955 9.69157 19.9455 9.69157C19.9955 9.74179 19.9955 9.792 20.0455 9.84222C20.0955 9.89243 20.1456 9.94265 20.1956 9.99286C20.2456 10.0431 20.3457 10.0933 20.4457 10.0933C20.5458 10.0933 20.6458 10.1435 20.6958 10.1937C20.7459 10.2439 20.7959 10.2942 20.7959 10.3946C20.7959 10.5452 20.7959 10.6457 20.7459 10.7461C20.6958 10.8465 20.5958 10.8967 20.4957 10.8967C20.2956 10.8465 20.0455 10.6457 19.7954 10.3444C19.6453 10.0431 19.5953 9.792 19.7454 9.59114ZM17.5443 2.6112C17.5944 2.51077 17.6444 2.46055 17.6444 2.41034C17.6444 2.36012 17.6944 2.25969 17.6444 2.20948C17.5944 2.15926 17.6444 2.05883 17.6444 1.9584C17.6944 1.85797 17.7444 1.85797 17.8445 1.80775C17.9445 1.80775 18.0946 1.90818 18.2947 2.05883C18.3447 2.05883 18.3947 2.10905 18.4448 2.15926C18.5448 2.20948 18.5948 2.25969 18.5948 2.25969C18.6449 2.30991 18.6449 2.30991 18.6449 2.36012C18.6449 2.41034 18.5448 2.46055 18.4948 2.51077C18.3947 2.51077 18.3447 2.56098 18.2447 2.56098C18.1446 2.56098 18.0946 2.56098 18.0946 2.56098C17.9946 2.6112 17.8945 2.66142 17.8445 2.71163C17.7444 2.76185 17.6944 2.86228 17.6444 2.86228C17.5944 2.91249 17.5443 2.91249 17.4943 2.86228C17.4443 2.81206 17.4443 2.76185 17.4443 2.71163C17.4943 2.76185 17.4943 2.71163 17.5443 2.6112ZM8.99029 16.0187C9.09034 15.9183 9.14036 15.8681 9.19038 15.7676C9.24041 15.7174 9.24041 15.617 9.29043 15.5166C9.34046 15.4161 9.34046 15.3157 9.39048 15.3157C9.39048 15.2655 9.4405 15.2655 9.49053 15.2655C9.49053 15.2655 9.54055 15.2655 9.54055 15.3157C9.54055 15.3659 9.54055 15.3659 9.54055 15.3659V15.4663C9.54055 15.5166 9.54055 15.5166 9.49053 15.5668C9.49053 15.5668 9.49053 15.617 9.4405 15.6672C9.4405 15.7174 9.4405 15.7676 9.39048 15.7676C9.34046 15.8681 9.29043 16.0187 9.19038 16.0689C9.09034 16.1694 9.04031 16.2196 8.99029 16.1694C8.89024 16.2196 8.89024 16.1694 8.99029 16.0187ZM20.4457 25.7605C20.5458 26.3631 20.5958 26.815 20.5458 27.0661C20.5458 27.4678 20.4457 27.97 20.2956 28.673C20.1456 29.376 20.0955 29.8279 20.0455 30.0288C19.7954 30.0288 19.6453 29.9284 19.5953 29.7275C19.5453 29.5769 19.5953 29.3258 19.6954 29.0747C19.9455 28.2713 20.0955 27.7189 20.0955 27.4176C20.0955 26.8652 20.0455 26.5639 19.8955 26.4635C19.7454 26.3631 19.5453 26.5639 19.2952 27.0159C18.7949 27.8695 17.7444 28.3717 16.1437 28.5726C14.743 28.7734 13.7425 28.5726 13.1923 27.9198C13.0922 27.8193 12.9422 27.8193 12.8421 27.8695C12.7421 27.9198 12.642 27.97 12.592 28.0202C12.592 28.0202 12.592 28.0704 12.642 28.1206C12.692 28.1708 12.7421 28.221 12.7921 28.3215C12.8921 28.4219 12.9422 28.5223 12.9922 28.6228C13.4424 29.4262 13.3924 29.9786 12.8921 30.2799C12.8921 29.7275 12.8421 29.3258 12.7921 29.0245C12.692 28.7232 12.542 28.4219 12.2919 28.0704C12.0417 27.7189 11.8917 27.4678 11.7916 27.267C12.1418 27.2167 12.3919 27.1163 12.592 26.8652C12.7921 26.6142 12.8421 26.3631 12.8421 26.112C12.8421 25.8609 12.7421 25.6098 12.542 25.409C12.4419 25.3086 11.8917 24.8566 10.8912 24.0532C9.89072 23.2497 9.29043 22.6974 9.04031 22.4463C8.99029 22.3961 8.84022 22.2956 8.5901 22.0948C8.33998 21.8939 8.18991 21.7433 8.13989 21.5926C7.58963 20.3874 7.5396 19.3831 7.93979 18.6299L7.98982 18.5295C8.03984 18.5295 8.03984 18.6299 7.98982 18.8308C7.93979 19.1823 7.88977 19.4836 7.93979 19.8351C7.98982 20.5883 8.18991 21.1407 8.5901 21.5424C8.84022 21.7935 8.99029 21.7935 9.09034 21.4922C9.14036 21.3918 9.19038 21.0402 9.19038 20.4377C9.19038 19.8351 9.19038 19.4334 9.24041 19.1823C9.34046 18.4793 9.6406 17.6758 10.0908 16.6715C10.541 15.6672 10.9412 15.1148 11.1913 15.0646C10.9912 14.7131 10.8912 14.3616 10.9912 13.9097C11.0913 13.5079 11.1913 13.1564 11.3414 12.8551C11.4915 12.5538 11.6916 12.2526 11.8416 11.8508C12.0417 11.4491 12.0918 11.1478 12.0918 10.8465C12.0918 10.7461 12.0918 10.6959 12.0918 10.6457C12.1418 10.5452 12.2919 10.6457 12.542 11.0474C13.0422 11.8006 13.3924 12.2023 13.6425 12.353C13.8926 12.5036 14.1928 12.5036 14.4929 12.353C14.793 12.2023 15.1932 11.9513 15.6935 11.5998C16.1437 11.2482 16.5439 10.9972 16.894 10.7963C16.9441 10.7963 16.9941 10.7461 17.0441 10.6959C17.1442 10.6457 17.1942 10.6457 17.2442 10.5954C17.2942 10.5954 17.3442 10.5452 17.3943 10.495C17.4443 10.4448 17.4943 10.4448 17.5443 10.3946C17.5944 10.3946 17.5944 10.3444 17.6444 10.2942C17.6944 10.2439 17.6944 10.2439 17.6944 10.1937C17.6944 10.1435 17.6944 10.1435 17.6944 10.0933C17.6944 9.99286 17.6444 9.94265 17.5443 9.89243C17.4443 9.89243 17.3442 9.89243 17.2442 9.94265C17.0941 9.99286 16.9441 10.0933 16.794 10.1435C16.6439 10.2439 16.4438 10.3444 16.2437 10.4448C16.0436 10.5452 15.8435 10.6457 15.6434 10.7461C15.4433 10.8465 15.2433 10.947 14.9931 10.9972C14.793 11.0474 14.5429 11.0976 14.3428 11.1478C13.8426 11.1478 13.4424 11.0474 13.1423 10.7461C12.9422 10.5452 12.8421 10.4448 12.8421 10.3946C12.8421 10.3444 12.8921 10.3444 12.9922 10.3444C13.6425 10.4448 14.0927 10.4448 14.3928 10.3946C14.693 10.3444 15.0932 10.1937 15.6434 9.99286C15.7435 9.94265 16.0436 9.84222 16.4438 9.64135C16.894 9.44049 17.1942 9.34006 17.4443 9.23963C17.5944 9.18942 17.6944 9.1392 17.7444 9.08899C17.7945 8.98855 17.7945 8.93834 17.7945 8.88812C17.7945 8.83791 17.7444 8.78769 17.6944 8.73748C17.5443 8.68726 17.4443 8.73748 17.3442 8.88812C17.2942 8.98855 17.1441 9.08899 16.9941 9.18942C16.794 9.28985 16.6439 9.39028 16.4938 9.44049C16.3438 9.49071 16.1437 9.54092 15.8936 9.64135C15.6434 9.69157 15.4934 9.74179 15.4934 9.792C14.8431 9.99286 14.2428 10.0933 13.6925 10.0431C13.4424 10.0431 13.2423 9.99286 13.0422 9.94265C12.8921 9.89243 12.7921 9.792 12.692 9.69157C12.642 9.59114 12.542 9.49071 12.3919 9.34006C12.2418 9.18942 12.0918 9.08899 11.9417 8.98855C11.8416 8.93834 11.7916 8.83791 11.7916 8.68726C11.8416 8.53662 11.8917 8.38597 12.0417 8.18511C12.0417 8.18511 12.1918 8.08468 12.3919 7.98425C12.642 7.8336 12.7921 7.68295 12.8921 7.58252C12.9922 7.43188 13.1923 7.23102 13.4424 7.08037C13.4424 7.03015 13.4424 6.87951 13.4924 6.67865C13.4924 6.47779 13.4424 6.22671 13.3424 5.97563C13.2423 5.72455 13.0422 5.62412 12.8421 5.62412C12.542 5.62412 12.3419 5.67434 12.2418 5.8752C12.1418 6.07606 12.0918 6.27692 12.0918 6.528C12.0918 6.77908 12.1418 6.97994 12.2418 7.13059C12.3419 7.28123 12.4419 7.38166 12.542 7.38166C12.692 7.38166 12.692 7.43188 12.642 7.53231C12.592 7.68295 12.4919 7.73317 12.3419 7.78339C12.2418 7.78339 12.1918 7.73317 12.0417 7.53231C11.9417 7.33145 11.8416 7.13059 11.7916 6.87951C11.7416 6.62843 11.7416 6.37735 11.7416 6.22671C11.7416 5.8752 11.8416 5.52369 12.0417 5.17218C12.1918 4.82068 12.4419 4.67003 12.7921 4.67003C13.1423 4.67003 13.3924 4.87089 13.5925 5.27262C13.7926 5.67434 13.8926 6.22671 13.8926 6.87951C13.9426 6.97994 14.0427 6.97994 14.1928 6.97994C14.3428 6.97994 14.5429 6.92972 14.793 6.97994C15.0432 6.97994 15.1932 7.08037 15.2933 7.1808C15.2933 7.1808 15.2933 7.08037 15.2933 6.92972C15.0932 5.42326 15.5934 4.61982 16.894 4.51938C17.0941 4.5696 17.2442 4.61982 17.3943 4.67003C17.5443 4.72025 17.6444 4.82068 17.7945 4.92111C17.9445 5.02154 18.0446 5.2224 18.1446 5.47348C18.2447 5.72455 18.3447 6.02585 18.3947 6.37735V7.03015C18.3947 7.43188 18.2947 7.63274 18.1446 7.68295C17.8945 7.78339 17.6944 7.78339 17.5944 7.68295C17.4943 7.58252 17.4943 7.43188 17.6444 7.23102C17.7444 6.92972 17.7444 6.57822 17.5944 6.17649C17.4443 5.77477 17.1442 5.62412 16.6939 5.62412C16.3938 5.62412 16.1937 5.77477 16.0436 6.12628C15.8936 6.42757 15.8435 6.72886 15.8936 7.03015C15.9436 7.33145 15.9936 7.48209 16.0937 7.48209C16.1437 7.48209 16.3938 7.58252 16.744 7.78339C17.0941 7.98425 17.3442 8.08468 17.5443 8.08468C17.9946 8.18511 18.2447 8.33575 18.3447 8.53662C18.3947 8.73748 18.3947 9.03877 18.2447 9.44049C18.1446 9.84222 18.0946 10.1435 18.1446 10.3946C18.1946 10.6457 18.2947 10.8967 18.3947 11.0976C18.5448 11.2985 18.6449 11.4993 18.7949 11.7002C18.945 11.901 19.0951 12.2023 19.2952 12.7045C19.4953 13.2066 19.6954 13.8092 19.8454 14.5625C19.8454 14.5625 19.8955 14.6127 19.9955 14.7131C20.0955 14.7633 20.1456 14.8638 20.2456 14.9642C20.3457 15.0646 20.3957 15.2153 20.5458 15.4161C20.6458 15.617 20.7459 15.8681 20.8959 16.2196C20.996 16.5711 21.146 16.9728 21.2461 17.475C21.3962 18.0273 21.4462 18.6801 21.4462 19.3831C21.4462 20.1364 21.4962 20.5883 21.5963 20.8896C21.6963 21.1407 21.8964 21.2913 22.2966 21.2411C22.7468 21.2411 23.0469 20.99 23.197 20.4879C23.5972 19.0818 23.247 17.4247 22.2466 15.5166C21.8464 14.7633 21.4962 14.2612 21.2461 14.0101C21.6463 14.2612 22.0965 14.7131 22.5467 15.3659C22.9969 16.0187 23.247 16.6213 23.3971 17.2239C23.3971 17.2741 23.4471 17.4247 23.4972 17.6758C23.5472 17.9269 23.5972 18.0775 23.5972 18.1278C23.5972 18.178 23.6472 18.2784 23.6472 18.4793C23.6973 18.6801 23.6973 18.8308 23.6973 18.881C23.6973 18.9312 23.6973 19.0818 23.6973 19.2325C23.6973 19.3831 23.6973 19.5338 23.6973 19.6342C23.6973 19.7346 23.6472 19.8351 23.6472 20.0359C23.6472 20.1866 23.5972 20.3372 23.5472 20.4879C23.4972 20.6385 23.4471 20.7892 23.3971 20.99C24.0474 21.2913 24.3976 21.5424 24.3976 21.7433C24.1475 21.5424 23.7973 21.3918 23.3471 21.3415C22.8969 21.2913 22.4467 21.3415 22.0465 21.5424C21.6463 21.7433 21.4462 22.0446 21.4462 22.4965C20.996 22.4965 20.6958 22.5969 20.5458 22.7978C20.2956 23.0991 20.1456 23.551 20.1456 24.0532C20.3457 24.5553 20.3457 25.1579 20.4457 25.7605ZM13.1423 6.32714C13.0922 6.32714 13.0922 6.27692 13.0422 6.22671C13.0422 6.12628 13.0922 6.07606 13.1923 6.12628C13.2423 6.12628 13.3424 6.22671 13.3924 6.37735C13.4924 6.528 13.4924 6.67865 13.4924 6.87951C13.4924 6.92972 13.4924 6.92972 13.4424 6.92972C13.2923 6.92972 13.2423 6.82929 13.2923 6.57822C13.2923 6.42757 13.2423 6.32714 13.1423 6.32714ZM17.7444 6.57822L17.6944 6.62843C17.5944 6.67865 17.5443 6.67865 17.5443 6.67865C17.4943 6.37735 17.3943 6.17649 17.2442 6.12628L17.1942 6.07606C17.0941 6.02585 17.1442 5.97563 17.2942 5.92542C17.3442 5.92542 17.3943 5.92542 17.4443 5.97563C17.4943 6.02585 17.5944 6.07606 17.6444 6.17649C17.6944 6.32714 17.7444 6.47779 17.7444 6.57822Z" fill="black"/>
<path d="M13.5936 7.63262C13.5936 7.68283 13.6436 7.73305 13.6936 7.73305C13.7436 7.73305 13.7937 7.68283 13.8437 7.5824C13.8937 7.48197 13.9938 7.38154 14.0938 7.38154H13.8937C13.7436 7.38154 13.5936 7.48197 13.5936 7.63262Z" fill="black"/>
<path d="M15.1442 7.432C15.2443 7.38179 15.3443 7.432 15.4444 7.53243C15.5444 7.63287 15.5945 7.68308 15.6445 7.63287C15.6945 7.58265 15.7445 7.53243 15.6945 7.48222C15.6445 7.28136 15.4444 7.28136 15.1442 7.432Z" fill="black"/>
</svg>
