<svg width="32" height="32" viewBox="0 0 32 32" fill="none" xmlns="http://www.w3.org/2000/svg">
<path d="M27.1019 10.8828C25.6051 9.0456 23.5095 7.9532 21.5137 7.9532C18.8693 7.9532 17.7716 9.19457 15.9754 9.19457C14.0794 9.19457 12.6823 7.9532 10.3872 7.9532C8.14191 7.9532 5.79686 9.29388 4.30002 11.578C2.20444 14.8056 2.5537 20.8635 5.99644 26.0276C7.2438 27.8648 8.84043 29.9503 10.9859 30C12.8819 30 13.4307 28.8083 16.0253 28.7586C18.6198 28.7586 19.0688 30 21.0147 29.9503C23.1602 29.9503 24.8566 27.6166 26.104 25.7793C27.0021 24.4386 27.3015 23.7931 28 22.3035C23.0105 20.4662 22.2122 13.5146 27.1019 10.8828Z" fill="white"/>
<path d="M19.5178 5.66757C20.4658 4.47585 21.2142 2.73792 20.9647 1C19.418 1.09931 17.5719 2.09241 16.5241 3.38344C15.5761 4.5255 14.7778 6.26342 15.0771 7.95169C16.7735 8.00135 18.5199 6.95859 19.5178 5.66757Z" fill="white"/>
</svg>
