<svg width="134" height="32" viewBox="0 0 134 32" fill="none" xmlns="http://www.w3.org/2000/svg">
<g clip-path="url(#clip0_10966_31362)">
<g style="mix-blend-mode:luminosity">
<path fill-rule="evenodd" clip-rule="evenodd" d="M18.9053 7.23242L25.961 10.5145L18.9053 17.9001V7.23242Z" fill="#82BFA1"/>
<path fill-rule="evenodd" clip-rule="evenodd" d="M5.43506 32.0002L17.8836 18.9697L14.0856 15.0188L5.43506 32.0002Z" fill="#82BFA1"/>
<path fill-rule="evenodd" clip-rule="evenodd" d="M0.5 0L18.3075 18.5259V6.73708L0.5 0Z" fill="#82BFA1"/>
<path fill-rule="evenodd" clip-rule="evenodd" d="M29.5698 6.73633H19.3154L32.4995 12.8697L29.5698 6.73633Z" fill="#FA6340"/>
</g>
</g>
<path fill-rule="evenodd" clip-rule="evenodd" d="M45.381 6.35443H44.5171V8.64051C44.4399 8.66414 44.3137 8.68924 44.1385 8.71582C43.9633 8.74241 43.7511 8.7557 43.5017 8.7557C43.1513 8.7557 42.847 8.69663 42.5887 8.57848C42.3304 8.46034 42.1137 8.29346 41.9385 8.07785C41.7633 7.86224 41.6327 7.6038 41.5466 7.30253C41.4605 7.00127 41.4174 6.66751 41.4174 6.30127C41.4174 5.92321 41.4679 5.58207 41.5688 5.27785C41.6698 4.97363 41.8108 4.71519 41.9919 4.50253C42.173 4.28987 42.3927 4.12743 42.651 4.01519C42.9093 3.90295 43.1959 3.84684 43.5106 3.84684C43.8075 3.84684 44.0984 3.88375 44.3835 3.95759C44.6685 4.03144 44.8971 4.12447 45.0693 4.23671L45.3454 3.51899C45.3098 3.49536 45.243 3.45992 45.145 3.41266C45.047 3.3654 44.9208 3.31814 44.7665 3.27089C44.6121 3.22363 44.4265 3.18228 44.2098 3.14684C43.993 3.11139 43.7451 3.09367 43.466 3.09367C43.0563 3.09367 42.6718 3.16456 42.3126 3.30633C41.9533 3.4481 41.6401 3.65485 41.3729 3.92658C41.1057 4.19831 40.8934 4.53354 40.736 4.93228C40.5787 5.33102 40.5 5.78734 40.5 6.30127C40.5 6.81519 40.5698 7.27004 40.7093 7.66582C40.8489 8.06161 41.0463 8.39536 41.3016 8.66709C41.557 8.93882 41.8628 9.14557 42.2191 9.28734C42.5753 9.42911 42.9702 9.5 43.4037 9.5C43.6175 9.5 43.8282 9.48966 44.0361 9.46899C44.2439 9.44831 44.4354 9.42321 44.6106 9.39367C44.7858 9.36414 44.9401 9.3346 45.0737 9.30506C45.2074 9.27553 45.3098 9.24895 45.381 9.22532V6.35443ZM46.6013 6.01329C46.4825 6.31751 46.4232 6.67342 46.4232 7.08101C46.4232 7.42954 46.4692 7.75 46.5612 8.04241C46.6533 8.33481 46.7943 8.58734 46.9843 8.8C47.1743 9.01266 47.4163 9.17954 47.7102 9.30063C48.0042 9.42173 48.353 9.48228 48.7568 9.48228C49.0774 9.48228 49.364 9.45274 49.6163 9.39367C49.8687 9.3346 50.0453 9.27848 50.1463 9.22532L50.0305 8.53418C49.9295 8.58144 49.7796 8.63017 49.5807 8.68038C49.3818 8.73059 49.1368 8.7557 48.8459 8.7557C48.3293 8.7557 47.9492 8.63165 47.7058 8.38354C47.4623 8.13544 47.3228 7.77215 47.2871 7.29367H50.458C50.464 7.24641 50.4669 7.19473 50.4669 7.13861V7.00127C50.4669 6.2097 50.3007 5.62047 49.9681 5.23354C49.6356 4.84662 49.1576 4.65316 48.5341 4.65316C48.2669 4.65316 48.0056 4.70338 47.7503 4.8038C47.495 4.90422 47.2693 5.05485 47.0734 5.2557C46.8774 5.45654 46.7201 5.70907 46.6013 6.01329ZM49.3224 5.71203C49.5154 5.95127 49.6089 6.25696 49.603 6.62911H47.3049C47.3228 6.46962 47.3599 6.31308 47.4163 6.15949C47.4727 6.00591 47.5514 5.87004 47.6523 5.7519C47.7533 5.63375 47.8765 5.53776 48.022 5.46392C48.1674 5.39008 48.3352 5.35316 48.5252 5.35316C48.8637 5.35316 49.1294 5.47278 49.3224 5.71203ZM54.1901 4.76835H52.4354V3.34177L51.607 3.48354V7.59494C51.607 7.90211 51.6323 8.17236 51.6827 8.4057C51.7332 8.63903 51.8208 8.83544 51.9455 8.99494C52.0702 9.15443 52.235 9.27405 52.4398 9.3538C52.6447 9.43354 52.9045 9.47342 53.2192 9.47342C53.4864 9.47342 53.7239 9.44241 53.9318 9.38038C54.1396 9.31836 54.2851 9.26667 54.3682 9.22532L54.2079 8.54304C54.1485 8.56667 54.0431 8.60654 53.8917 8.66266C53.7403 8.71878 53.5399 8.74684 53.2905 8.74684C53.1479 8.74684 53.0232 8.72911 52.9164 8.69367C52.8095 8.65823 52.7204 8.59768 52.6492 8.51203C52.5779 8.42637 52.5245 8.30823 52.4888 8.1576C52.4532 8.00696 52.4354 7.81646 52.4354 7.58608V5.45949H54.1901V4.76835ZM57.2986 9.37595H58.127V4.76835H57.2986V9.37595ZM57.3298 3.78924C57.4337 3.88671 57.5599 3.93544 57.7083 3.93544C57.8568 3.93544 57.983 3.88671 58.0869 3.78924C58.1908 3.69177 58.2427 3.56034 58.2427 3.39494C58.2427 3.22953 58.1908 3.0981 58.0869 3.00063C57.983 2.90316 57.8568 2.85443 57.7083 2.85443C57.5599 2.85443 57.4337 2.90316 57.3298 3.00063C57.2259 3.0981 57.1739 3.22953 57.1739 3.39494C57.1739 3.56034 57.2259 3.69177 57.3298 3.78924ZM62.0817 4.76835H60.327V3.34177L59.4986 3.48354V7.59494C59.4986 7.90211 59.5239 8.17236 59.5743 8.4057C59.6248 8.63903 59.7124 8.83544 59.8371 8.99494C59.9618 9.15443 60.1266 9.27405 60.3314 9.3538C60.5363 9.43354 60.7961 9.47342 61.1108 9.47342C61.378 9.47342 61.6155 9.44241 61.8234 9.38038C62.0312 9.31836 62.1767 9.26667 62.2598 9.22532L62.0995 8.54304C62.0401 8.56667 61.9347 8.60654 61.7833 8.66266C61.6319 8.71878 61.4315 8.74684 61.1821 8.74684C61.0395 8.74684 60.9148 8.72911 60.808 8.69367C60.7011 8.65823 60.612 8.59768 60.5408 8.51203C60.4695 8.42637 60.4161 8.30823 60.3804 8.1576C60.3448 8.00696 60.327 7.81646 60.327 7.58608V5.45949H62.0817V4.76835ZM67.6263 2.55316C67.4511 2.51772 67.2418 2.5 66.9983 2.5C66.3748 2.5 65.9176 2.66097 65.6266 2.98291C65.3357 3.30485 65.1902 3.76118 65.1902 4.3519V9.37595H66.0186V5.45949H67.8V4.76835H66.0186V4.36962C66.0186 4.01519 66.0958 3.73312 66.2501 3.52342C66.4045 3.31371 66.6747 3.20886 67.0607 3.20886C67.2507 3.20886 67.411 3.22511 67.5417 3.2576C67.6723 3.29008 67.7732 3.32405 67.8445 3.35949L67.9959 2.65063C67.9247 2.6211 67.8014 2.58861 67.6263 2.55316ZM70.5834 4.68418C70.4914 4.67532 70.4097 4.67089 70.3385 4.67089C69.9762 4.67089 69.6496 4.7019 69.3587 4.76392C69.0677 4.82595 68.8243 4.89241 68.6283 4.96329V9.37595H69.4567V5.5038C69.5042 5.49198 69.6036 5.46983 69.755 5.43734C69.9065 5.40485 70.0594 5.38861 70.2138 5.38861C70.4513 5.38861 70.6457 5.40485 70.7972 5.43734C70.9486 5.46983 71.057 5.49789 71.1223 5.52152L71.2648 4.8038C71.2292 4.79198 71.1742 4.77869 71.1 4.76392C71.0258 4.74916 70.9441 4.73439 70.8551 4.71962C70.766 4.70485 70.6754 4.69304 70.5834 4.68418ZM75.5446 8.82658C75.7376 8.61392 75.8875 8.35992 75.9944 8.06456C76.1013 7.7692 76.1547 7.4384 76.1547 7.07215C76.1547 6.71181 76.1013 6.38249 75.9944 6.08418C75.8875 5.78586 75.7376 5.53038 75.5446 5.31772C75.3516 5.10506 75.1215 4.94114 74.8543 4.82595C74.5871 4.71076 74.2961 4.65316 73.9814 4.65316C73.6667 4.65316 73.3757 4.71076 73.1085 4.82595C72.8413 4.94114 72.6112 5.10506 72.4182 5.31772C72.2253 5.53038 72.0753 5.78586 71.9684 6.08418C71.8616 6.38249 71.8081 6.71181 71.8081 7.07215C71.8081 7.4384 71.8616 7.7692 71.9684 8.06456C72.0753 8.35992 72.2253 8.61392 72.4182 8.82658C72.6112 9.03924 72.8413 9.20317 73.1085 9.31836C73.3757 9.43355 73.6667 9.49114 73.9814 9.49114C74.2961 9.49114 74.5871 9.43355 74.8543 9.31836C75.1215 9.20317 75.3516 9.03924 75.5446 8.82658ZM74.9389 5.83608C75.1735 6.1403 75.2907 6.55232 75.2907 7.07215C75.2907 7.59199 75.1735 8.00401 74.9389 8.30823C74.7044 8.61245 74.3852 8.76456 73.9814 8.76456C73.5776 8.76456 73.2585 8.61245 73.0239 8.30823C72.7894 8.00401 72.6721 7.59199 72.6721 7.07215C72.6721 6.55232 72.7894 6.1403 73.0239 5.83608C73.2585 5.53186 73.5776 5.37975 73.9814 5.37975C74.3852 5.37975 74.7044 5.53186 74.9389 5.83608ZM78.0742 4.75063C77.7624 4.8038 77.5116 4.85401 77.3215 4.90127V9.37595H78.1499V5.48608C78.1736 5.48017 78.2212 5.47131 78.2924 5.45949C78.3637 5.44768 78.4423 5.43734 78.5284 5.42848C78.6145 5.41962 78.7051 5.41224 78.8001 5.40633C78.8951 5.40042 78.9842 5.39747 79.0673 5.39747C79.2633 5.39747 79.4251 5.42848 79.5527 5.49051C79.6804 5.55253 79.7814 5.64852 79.8556 5.77848C79.9298 5.90844 79.9818 6.07089 80.0115 6.26582C80.0412 6.46076 80.056 6.69409 80.056 6.96582V9.37595H80.8843V6.78861C80.8843 6.58776 80.8725 6.39578 80.8487 6.21266C80.825 6.02954 80.7893 5.86118 80.7418 5.70759C80.8072 5.64852 80.9304 5.58207 81.1115 5.50823C81.2926 5.43439 81.5227 5.39747 81.8018 5.39747C82.0037 5.39747 82.1684 5.42848 82.2961 5.49051C82.4238 5.55253 82.5247 5.64852 82.5989 5.77848C82.6732 5.90844 82.7236 6.07089 82.7504 6.26582C82.7771 6.46076 82.7904 6.69409 82.7904 6.96582V9.37595H83.6188V6.78861C83.6188 6.48143 83.5965 6.19789 83.552 5.93797C83.5075 5.67806 83.4214 5.45359 83.2937 5.26456C83.166 5.07553 82.9894 4.92933 82.7637 4.82595C82.5381 4.72257 82.2471 4.67089 81.8908 4.67089C81.7068 4.67089 81.5346 4.69008 81.3742 4.72848C81.2139 4.76688 81.0684 4.81118 80.9378 4.86139C80.8072 4.9116 80.6973 4.96329 80.6082 5.01646C80.5192 5.06962 80.4538 5.11097 80.4123 5.14051C80.2757 4.98692 80.1065 4.87025 79.9046 4.79051C79.7027 4.71076 79.4533 4.67089 79.1564 4.67089C78.7467 4.67089 78.3859 4.69747 78.0742 4.75063ZM89.5776 4.76835H87.8229V3.34177L86.9945 3.48354V7.59494C86.9945 7.90211 87.0198 8.17236 87.0703 8.4057C87.1207 8.63903 87.2083 8.83544 87.333 8.99494C87.4577 9.15443 87.6225 9.27405 87.8274 9.3538C88.0322 9.43354 88.292 9.47342 88.6067 9.47342C88.8739 9.47342 89.1114 9.44241 89.3193 9.38038C89.5271 9.31836 89.6726 9.26667 89.7557 9.22532L89.5954 8.54304C89.536 8.56667 89.4306 8.60654 89.2792 8.66266C89.1278 8.71878 88.9274 8.74684 88.678 8.74684C88.5355 8.74684 88.4108 8.72911 88.3039 8.69367C88.197 8.65823 88.1079 8.59768 88.0367 8.51203C87.9654 8.42637 87.912 8.30823 87.8763 8.1576C87.8407 8.00696 87.8229 7.81646 87.8229 7.58608V5.45949H89.5776V4.76835ZM90.6286 2.64177V9.37595H91.457V5.5481C91.4866 5.53629 91.5356 5.52152 91.6039 5.5038C91.6722 5.48608 91.7494 5.46983 91.8355 5.45506C91.9216 5.4403 92.0122 5.427 92.1072 5.41519C92.2022 5.40338 92.2942 5.39747 92.3833 5.39747C92.603 5.39747 92.7871 5.42553 92.9355 5.48165C93.084 5.53776 93.2027 5.62785 93.2918 5.7519C93.3809 5.87595 93.4447 6.0384 93.4833 6.23924C93.5219 6.44009 93.5412 6.68228 93.5412 6.96582V9.37595H94.3695V6.78861C94.3695 6.47553 94.3399 6.18903 94.2805 5.92911C94.2211 5.6692 94.1187 5.4462 93.9732 5.26013C93.8277 5.07405 93.6332 4.92933 93.3898 4.82595C93.1463 4.72257 92.8405 4.67089 92.4724 4.67089C92.3002 4.67089 92.1265 4.68713 91.9513 4.71962C91.7761 4.75211 91.6113 4.79789 91.457 4.85696V2.5L90.6286 2.64177ZM95.6343 6.01329C95.5156 6.31751 95.4562 6.67342 95.4562 7.08101C95.4562 7.42954 95.5022 7.75 95.5943 8.04241C95.6863 8.33481 95.8273 8.58734 96.0173 8.8C96.2074 9.01266 96.4493 9.17954 96.7433 9.30063C97.0372 9.42173 97.386 9.48228 97.7898 9.48228C98.1105 9.48228 98.397 9.45274 98.6494 9.39367C98.9017 9.3346 99.0784 9.27848 99.1793 9.22532L99.0635 8.53418C98.9626 8.58144 98.8127 8.63017 98.6137 8.68038C98.4148 8.73059 98.1699 8.7557 97.8789 8.7557C97.3623 8.7557 96.9823 8.63165 96.7388 8.38354C96.4953 8.13544 96.3558 7.77215 96.3202 7.29367H99.4911C99.497 7.24641 99.5 7.19473 99.5 7.13861V7.00127C99.5 6.2097 99.3337 5.62047 99.0012 5.23354C98.6687 4.84662 98.1907 4.65316 97.5672 4.65316C97.2999 4.65316 97.0387 4.70338 96.7833 4.8038C96.528 4.90422 96.3024 5.05485 96.1064 5.2557C95.9105 5.45654 95.7531 5.70907 95.6343 6.01329ZM98.3554 5.71203C98.5484 5.95127 98.6419 6.25696 98.636 6.62911H96.338C96.3558 6.46962 96.3929 6.31308 96.4493 6.15949C96.5057 6.00591 96.5844 5.87004 96.6854 5.7519C96.7863 5.63375 96.9095 5.53776 97.055 5.46392C97.2005 5.39008 97.3682 5.35316 97.5583 5.35316C97.8967 5.35316 98.1624 5.47278 98.3554 5.71203ZM47.5677 22.2919C47.5677 23.6879 46.5893 24.3859 44.6325 24.3859C43.7571 24.3859 43.0168 24.2785 42.4118 24.0638C41.8067 23.849 41.3561 23.6544 41.06 23.4799L40.5 25.0906C40.6416 25.1711 40.8379 25.2685 41.089 25.3826C41.34 25.4966 41.6393 25.604 41.9869 25.7047C42.3345 25.8054 42.7304 25.8926 43.1745 25.9664C43.6187 26.0403 44.1046 26.0772 44.6325 26.0772C46.1902 26.0772 47.3971 25.7483 48.2532 25.0906C49.1093 24.4329 49.5374 23.4933 49.5374 22.2718C49.5374 21.6141 49.4408 21.0537 49.2477 20.5906C49.0546 20.1275 48.781 19.7282 48.427 19.3926C48.073 19.057 47.6546 18.7685 47.1718 18.5268C46.6891 18.2852 46.158 18.0436 45.5787 17.802C45.1667 17.6409 44.7902 17.4799 44.449 17.3188C44.1079 17.1577 43.8086 16.9799 43.5511 16.7852C43.2936 16.5906 43.0941 16.3658 42.9525 16.1107C42.8108 15.8557 42.74 15.5403 42.74 15.1644C42.74 14.8289 42.8076 14.5369 42.9428 14.2886C43.078 14.0403 43.2614 13.8356 43.4931 13.6745C43.7249 13.5134 43.9952 13.3926 44.3042 13.3121C44.6132 13.2315 44.9479 13.1913 45.3083 13.1913C46.0164 13.1913 46.6376 13.2752 47.1718 13.443C47.7061 13.6107 48.1084 13.7819 48.3787 13.9564L48.9774 12.3658C48.6684 12.151 48.1824 11.953 47.5194 11.7718C46.8564 11.5906 46.1194 11.5 45.3083 11.5C43.9051 11.5 42.8044 11.8423 42.0062 12.5268C41.2081 13.2114 40.809 14.1644 40.809 15.3859C40.809 15.9765 40.9023 16.4799 41.089 16.896C41.2756 17.3121 41.5299 17.6711 41.8517 17.9732C42.1736 18.2752 42.5534 18.5369 42.9911 18.7584C43.4288 18.9799 43.8922 19.1779 44.3814 19.3524C44.8063 19.5134 45.2086 19.6745 45.5884 19.8356C45.9681 19.9966 46.3061 20.1879 46.6022 20.4094C46.8983 20.6309 47.1332 20.8926 47.307 21.1946C47.4808 21.4966 47.5677 21.8624 47.5677 22.2919ZM53.3223 15.2651C52.6399 15.3859 52.0928 15.5 51.6809 15.6074V25.7752H53.4767V16.9362C53.5411 16.9228 53.6473 16.9027 53.7954 16.8758C53.9434 16.849 54.1108 16.8255 54.2974 16.8054C54.4841 16.7852 54.6804 16.7685 54.8864 16.755C55.0924 16.7416 55.2919 16.7349 55.485 16.7349C55.9614 16.7349 56.3605 16.7987 56.6823 16.9262C57.0042 17.0537 57.2616 17.2584 57.4547 17.5403C57.6478 17.8221 57.7862 18.1913 57.8699 18.6477C57.9536 19.104 57.9954 19.6544 57.9954 20.2987V25.7752H59.7913V19.896C59.7913 19.1846 59.727 18.5336 59.5982 17.943C59.4695 17.3523 59.2474 16.8456 58.932 16.4228C58.6166 16 58.195 15.6711 57.6671 15.4362C57.1393 15.2013 56.4763 15.0839 55.6782 15.0839C54.7899 15.0839 54.0046 15.1443 53.3223 15.2651ZM67.2935 24.396C66.9652 24.4161 66.5887 24.4262 66.1638 24.4262C65.4558 24.4262 64.8958 24.2953 64.4838 24.0336C64.0718 23.7718 63.8659 23.3054 63.8659 22.6342C63.8659 22.2718 63.9495 21.9799 64.1169 21.7584C64.2843 21.5369 64.4935 21.3624 64.7445 21.2349C64.9955 21.1074 65.2723 21.0235 65.5749 20.9832C65.8774 20.943 66.1638 20.9228 66.4342 20.9228C66.8461 20.9228 67.1969 20.9463 67.4866 20.9933C67.7763 21.0403 67.9855 21.0973 68.1142 21.1644V24.2852C67.8953 24.3389 67.6218 24.3758 67.2935 24.396ZM67.8342 15.3356C67.3386 15.1409 66.7303 15.0436 66.0093 15.0436C65.3785 15.0436 64.7928 15.094 64.2521 15.1946C63.7114 15.2953 63.3252 15.3993 63.0934 15.5067L63.3059 17.057C63.5247 16.9631 63.8562 16.8725 64.3004 16.7852C64.7445 16.698 65.2627 16.6544 65.8549 16.6544C66.3183 16.6544 66.6949 16.7248 66.9845 16.8658C67.2742 17.0067 67.5027 17.1946 67.6701 17.4295C67.8374 17.6644 67.9533 17.9329 68.0176 18.2349C68.082 18.5369 68.1142 18.8423 68.1142 19.151V19.6745C68.0627 19.6611 67.9726 19.6409 67.8439 19.6141C67.7151 19.5872 67.5638 19.557 67.3901 19.5235C67.2163 19.4899 67.0328 19.4631 66.8397 19.443C66.6466 19.4228 66.4599 19.4128 66.2797 19.4128C65.7132 19.4128 65.1726 19.4732 64.6576 19.594C64.1426 19.7148 63.6921 19.9027 63.3059 20.1577C62.9196 20.4128 62.6139 20.7483 62.3886 21.1644C62.1633 21.5805 62.0507 22.0772 62.0507 22.6544C62.0507 23.2584 62.1472 23.7752 62.3403 24.2047C62.5334 24.6342 62.8038 24.9799 63.1514 25.2416C63.499 25.5034 63.9109 25.6946 64.3873 25.8154C64.8636 25.9362 65.385 25.9966 65.9514 25.9966C66.3505 25.9966 66.7528 25.9799 67.1583 25.9463C67.5639 25.9128 67.9404 25.8758 68.288 25.8356C68.6356 25.7953 68.9478 25.7517 69.2246 25.7047C69.5013 25.6577 69.717 25.6208 69.8715 25.594V19.0503C69.8715 18.4597 69.8071 17.9195 69.6784 17.4295C69.5496 16.9396 69.334 16.5168 69.0315 16.1611C68.7289 15.8054 68.3298 15.5302 67.8342 15.3356ZM78.9475 17.7416C79.5268 18.3993 79.8164 19.3389 79.8164 20.5604C79.8164 21.0973 79.7649 21.5973 79.662 22.0604C79.559 22.5235 79.3916 22.9262 79.1599 23.2685C78.9282 23.6107 78.6288 23.8792 78.2619 24.0738C77.895 24.2685 77.4541 24.3658 76.9392 24.3658C76.45 24.3658 75.9994 24.2785 75.5874 24.104C75.1755 23.9295 74.8601 23.7483 74.6412 23.5604V16.9564C74.8214 16.9027 75.0628 16.8557 75.3653 16.8154C75.6679 16.7752 76.0895 16.755 76.6302 16.755C77.5957 16.755 78.3681 17.0839 78.9475 17.7416ZM81.3903 22.755C81.5898 22.0839 81.6896 21.3524 81.6896 20.5604C81.6896 19.7148 81.5705 18.953 81.3323 18.2752C81.0942 17.5973 80.7562 17.0235 80.3185 16.5537C79.8808 16.0839 79.353 15.7215 78.735 15.4664C78.1171 15.2114 77.4219 15.0839 76.6495 15.0839C75.8127 15.0839 75.0757 15.1477 74.4384 15.2752C73.8012 15.4027 73.2701 15.5201 72.8453 15.6275V29.5H74.6412V25.3121C74.8601 25.4597 75.1915 25.6141 75.6357 25.7752C76.0798 25.9362 76.5916 26.0168 77.1709 26.0168C77.8918 26.0168 78.5323 25.8826 79.0923 25.6141C79.6523 25.3456 80.1254 24.9698 80.5116 24.4866C80.8978 24.0034 81.1907 23.4262 81.3903 22.755ZM94.8401 22.2919C94.8401 23.6879 93.8617 24.3859 91.9049 24.3859C91.0295 24.3859 90.2892 24.2785 89.6842 24.0638C89.0791 23.849 88.6285 23.6544 88.3324 23.4799L87.7724 25.0906C87.914 25.1711 88.1104 25.2685 88.3614 25.3826C88.6124 25.4966 88.9117 25.604 89.2593 25.7047C89.6069 25.8054 90.0028 25.8926 90.4469 25.9664C90.8911 26.0403 91.3771 26.0772 91.9049 26.0772C93.4626 26.0772 94.6695 25.7483 95.5256 25.0906C96.3818 24.4329 96.8098 23.4933 96.8098 22.2718C96.8098 21.6141 96.7132 21.0537 96.5201 20.5906C96.327 20.1275 96.0535 19.7282 95.6994 19.3926C95.3454 19.057 94.927 18.7685 94.4442 18.5268C93.9615 18.2852 93.4304 18.0436 92.8511 17.802C92.4392 17.6409 92.0626 17.4799 91.7215 17.3188C91.3803 17.1577 91.081 16.9799 90.8235 16.7852C90.566 16.5906 90.3665 16.3658 90.2249 16.1107C90.0833 15.8557 90.0125 15.5403 90.0125 15.1644C90.0125 14.8289 90.08 14.5369 90.2152 14.2886C90.3504 14.0403 90.5338 13.8356 90.7656 13.6745C90.9973 13.5134 91.2676 13.3926 91.5766 13.3121C91.8856 13.2315 92.2203 13.1913 92.5808 13.1913C93.2888 13.1913 93.91 13.2752 94.4442 13.443C94.9785 13.6107 95.3808 13.7819 95.6512 13.9564L96.2498 12.3658C95.9408 12.151 95.4548 11.953 94.7918 11.7718C94.1288 11.5906 93.3918 11.5 92.5808 11.5C91.1775 11.5 90.0768 11.8423 89.2787 12.5268C88.4805 13.2114 88.0814 14.1644 88.0814 15.3859C88.0814 15.9765 88.1747 16.4799 88.3614 16.896C88.5481 17.3121 88.8023 17.6711 89.1242 17.9732C89.446 18.2752 89.8258 18.5369 90.2635 18.7584C90.7012 18.9799 91.1646 19.1779 91.6539 19.3524C92.0787 19.5134 92.481 19.6745 92.8608 19.8356C93.2405 19.9966 93.5785 20.1879 93.8746 20.4094C94.1707 20.6309 94.4056 20.8926 94.5794 21.1946C94.7532 21.4966 94.8401 21.8624 94.8401 22.2919ZM104.437 15.3054H100.633V12.0638L98.8374 12.3859V21.7282C98.8374 22.4262 98.8921 23.0403 99.0016 23.5705C99.111 24.1007 99.3009 24.547 99.5712 24.9094C99.8416 25.2718 100.199 25.5436 100.643 25.7248C101.087 25.906 101.65 25.9966 102.333 25.9966C102.912 25.9966 103.427 25.9262 103.877 25.7852C104.328 25.6443 104.643 25.5268 104.824 25.4329L104.476 23.8826C104.347 23.9362 104.119 24.0268 103.791 24.1544C103.462 24.2819 103.028 24.3456 102.487 24.3456C102.178 24.3456 101.908 24.3054 101.676 24.2248C101.444 24.1443 101.251 24.0067 101.097 23.8121C100.942 23.6175 100.826 23.349 100.749 23.0067C100.672 22.6644 100.633 22.2315 100.633 21.7081V16.8758H104.437V15.3054ZM114.962 22.7953C115.194 22.1242 115.309 21.3725 115.309 20.5403C115.309 19.7215 115.194 18.9732 114.962 18.2953C114.73 17.6174 114.405 17.0369 113.987 16.5537C113.568 16.0705 113.069 15.698 112.49 15.4362C111.911 15.1745 111.28 15.0436 110.598 15.0436C109.915 15.0436 109.284 15.1745 108.705 15.4362C108.126 15.698 107.627 16.0705 107.209 16.5537C106.79 17.0369 106.465 17.6174 106.233 18.2953C106.002 18.9732 105.886 19.7215 105.886 20.5403C105.886 21.3725 106.002 22.1242 106.233 22.7953C106.465 23.4664 106.79 24.0436 107.209 24.5268C107.627 25.0101 108.126 25.3826 108.705 25.6443C109.284 25.906 109.915 26.0369 110.598 26.0369C111.28 26.0369 111.911 25.906 112.49 25.6443C113.069 25.3826 113.568 25.0101 113.987 24.5268C114.405 24.0436 114.73 23.4664 114.962 22.7953ZM112.673 17.7315C113.182 18.4228 113.436 19.3591 113.436 20.5403C113.436 21.7215 113.182 22.6577 112.673 23.349C112.165 24.0403 111.473 24.3859 110.598 24.3859C109.722 24.3859 109.03 24.0403 108.522 23.349C108.013 22.6577 107.759 21.7215 107.759 20.5403C107.759 19.3591 108.013 18.4228 108.522 17.7315C109.03 17.0403 109.722 16.6946 110.598 16.6946C111.473 16.6946 112.165 17.0403 112.673 17.7315ZM122.078 15.1141C121.878 15.094 121.701 15.0839 121.547 15.0839C120.761 15.0839 120.053 15.1544 119.423 15.2953C118.792 15.4362 118.264 15.5872 117.839 15.7483V25.7752H119.635V16.9765C119.738 16.9497 119.954 16.8993 120.282 16.8255C120.61 16.7517 120.942 16.7148 121.276 16.7148C121.791 16.7148 122.213 16.7517 122.541 16.8255C122.869 16.8993 123.104 16.9631 123.246 17.0168L123.555 15.3859C123.478 15.3591 123.359 15.3289 123.198 15.2953C123.037 15.2617 122.86 15.2282 122.667 15.1946C122.474 15.1611 122.277 15.1342 122.078 15.1141ZM125.119 18.1342C124.862 18.8255 124.733 19.6342 124.733 20.5604C124.733 21.3524 124.833 22.0805 125.032 22.745C125.232 23.4094 125.538 23.9832 125.95 24.4664C126.362 24.9497 126.886 25.3289 127.523 25.604C128.161 25.8792 128.917 26.0168 129.792 26.0168C130.488 26.0168 131.109 25.9497 131.656 25.8154C132.203 25.6812 132.586 25.5537 132.805 25.4329L132.554 23.8624C132.335 23.9698 132.01 24.0805 131.579 24.1946C131.147 24.3087 130.616 24.3658 129.985 24.3658C128.865 24.3658 128.042 24.0839 127.514 23.5201C126.986 22.9564 126.683 22.1309 126.606 21.0436H133.481C133.494 20.9362 133.5 20.8188 133.5 20.6913V20.3792C133.5 18.5805 133.14 17.2416 132.419 16.3624C131.698 15.4832 130.661 15.0436 129.31 15.0436C128.73 15.0436 128.164 15.1577 127.61 15.3859C127.057 15.6141 126.567 15.9564 126.143 16.4128C125.718 16.8691 125.377 17.443 125.119 18.1342ZM131.019 17.4497C131.437 17.9933 131.64 18.6879 131.627 19.5336H126.645C126.683 19.1711 126.764 18.8154 126.886 18.4664C127.008 18.1174 127.179 17.8087 127.398 17.5403C127.617 17.2718 127.884 17.0537 128.199 16.8859C128.515 16.7181 128.878 16.6342 129.29 16.6342C130.024 16.6342 130.6 16.906 131.019 17.4497Z" fill="#333333"/>
<defs>
<clipPath id="clip0_10966_31362">
<rect width="32" height="32" fill="white" transform="translate(0.5)"/>
</clipPath>
</defs>
</svg>
