<svg width="328" height="440" viewBox="0 0 328 440" fill="none" xmlns="http://www.w3.org/2000/svg">
<g clip-path="url(#clip0_6446_178264)">
<g filter="url(#filter0_d_6446_178264)">
<rect x="290" y="-41" width="110" height="110" rx="12" transform="rotate(90 290 -41)" fill="white"/>
<rect x="289.5" y="-40.5" width="109" height="109" rx="11.5" transform="rotate(90 289.5 -40.5)" stroke="#CCCCCC"/>
<rect x="201.568" y="-18.6943" width="66.8634" height="66.8634" rx="33.4317" stroke="#EAEAEA"/>
<rect x="211.748" y="-8.51477" width="46.5044" height="46.5044" rx="23.2522" stroke="#EAEAEA"/>
<rect x="201.568" y="-18.4519" width="66.8634" height="66.8634" stroke="#EAEAEA"/>
<rect x="218.873" y="-0.710571" width="31.5744" height="31.5744" stroke="#EAEAEA"/>
</g>
<g filter="url(#filter1_d_6446_178264)">
<rect width="110" height="110" rx="12" transform="matrix(-4.37114e-08 -1 -1 4.37114e-08 290 209)" fill="white"/>
<rect x="-0.5" y="-0.5" width="109" height="109" rx="11.5" transform="matrix(-4.37114e-08 -1 -1 4.37114e-08 289 208)" stroke="#CCCCCC"/>
<rect x="260.095" y="130.904" width="50.1913" height="50.1913" rx="25.0957" transform="rotate(90 260.095 130.904)" stroke="#EAEAEA"/>
<rect x="209.904" y="130.904" width="50.1913" height="50.1913" stroke="#EAEAEA"/>
<rect x="235" y="120.509" width="50.1913" height="50.1913" transform="rotate(45 235 120.509)" stroke="#EAEAEA"/>
</g>
<g filter="url(#filter2_d_6446_178264)">
<rect x="290" y="239" width="110" height="110" rx="12" transform="rotate(90 290 239)" fill="white"/>
<rect x="289.5" y="239.5" width="109" height="109" rx="11.5" transform="rotate(90 289.5 239.5)" stroke="#CCCCCC"/>
<rect x="201.75" y="262.75" width="66.5" height="66.5" rx="33.25" stroke="#EAEAEA"/>
<rect x="211.875" y="272.875" width="46.25" height="46.25" stroke="#EAEAEA"/>
</g>
<g filter="url(#filter3_d_6446_178264)">
<rect x="290" y="379" width="110" height="110" rx="12" transform="rotate(90 290 379)" fill="white"/>
<rect x="289.5" y="379.5" width="109" height="109" rx="11.5" transform="rotate(90 289.5 379.5)" stroke="#CCCCCC"/>
<rect x="192.5" y="391.5" width="85" height="85" rx="42.5" stroke="#EAEAEA"/>
<rect x="205.4" y="404.4" width="59.2" height="59.2" rx="29.6" stroke="#EAEAEA"/>
<rect x="205.4" y="404.4" width="59.2" height="59.2" stroke="#EAEAEA"/>
</g>
<g filter="url(#filter4_d_6446_178264)">
<rect x="142" y="169" width="110" height="110" rx="8" transform="rotate(90 142 169)" fill="white"/>
<rect x="141.5" y="169.5" width="109" height="109" rx="7.5" transform="rotate(90 141.5 169.5)" stroke="#CCCCCC"/>
<path fill-rule="evenodd" clip-rule="evenodd" d="M84.822 249.372L63.3705 239.29C61.5432 238.41 61.5432 237.05 63.3705 236.249L70.8388 232.729L84.7426 239.29C86.5699 240.17 89.5096 240.17 91.2574 239.29L105.161 232.729L112.629 236.249C114.457 237.13 114.457 238.49 112.629 239.29L91.178 249.372C89.5096 250.172 86.5699 250.172 84.822 249.372Z" fill="#FF6F3D"/>
<path fill-rule="evenodd" clip-rule="evenodd" d="M84.7525 236.896L63.3663 226.802C61.5446 225.921 61.5446 224.559 63.3663 223.758L70.6535 220.313L84.7525 226.962C86.5743 227.843 89.505 227.843 91.2475 226.962L105.347 220.313L112.634 223.758C114.455 224.639 114.455 226.001 112.634 226.802L91.2475 236.896C89.4257 237.777 86.4951 237.777 84.7525 236.896Z" fill="#95C038"/>
<path fill-rule="evenodd" clip-rule="evenodd" d="M84.7525 224.549L63.3663 214.6C61.5446 213.732 61.5446 212.39 63.3663 211.6L84.7525 201.651C86.5743 200.783 89.505 200.783 91.2475 201.651L112.634 211.6C114.455 212.469 114.455 213.811 112.634 214.6L91.2475 224.549C89.4257 225.339 86.4951 225.339 84.7525 224.549Z" fill="#5DC0E8"/>
</g>
<g filter="url(#filter5_d_6446_178264)">
<rect x="142" y="29" width="110" height="110" rx="8" transform="rotate(90 142 29)" fill="white"/>
<rect x="141.5" y="29.5" width="109" height="109" rx="7.5" transform="rotate(90 141.5 29.5)" stroke="#CCCCCC"/>
<rect x="48.9478" y="45.9478" width="76.1045" height="76.1045" rx="38.0522" stroke="#EAEAEA"/>
<rect x="66.3939" y="63.3939" width="41.2122" height="41.2122" rx="20.6061" stroke="#EAEAEA"/>
</g>
<g filter="url(#filter6_d_6446_178264)">
<rect x="142" y="309" width="110" height="110" rx="12" transform="rotate(90 142 309)" fill="white"/>
<rect x="141.5" y="309.5" width="109" height="109" rx="11.5" transform="rotate(90 141.5 309.5)" stroke="#CCCCCC"/>
<rect x="69.7729" y="347.773" width="34.4542" height="34.4542" stroke="#EAEAEA"/>
<rect x="87" y="330.207" width="49.2046" height="49.2046" transform="rotate(45 87 330.207)" stroke="#EAEAEA"/>
</g>
</g>
<defs>
<filter id="filter0_d_6446_178264" x="160" y="-51" width="150" height="150" filterUnits="userSpaceOnUse" color-interpolation-filters="sRGB">
<feFlood flood-opacity="0" result="BackgroundImageFix"/>
<feColorMatrix in="SourceAlpha" type="matrix" values="0 0 0 0 0 0 0 0 0 0 0 0 0 0 0 0 0 0 127 0" result="hardAlpha"/>
<feOffset dy="10"/>
<feGaussianBlur stdDeviation="10"/>
<feColorMatrix type="matrix" values="0 0 0 0 0.333333 0 0 0 0 0.333333 0 0 0 0 0.333333 0 0 0 0.05 0"/>
<feBlend mode="normal" in2="BackgroundImageFix" result="effect1_dropShadow_6446_178264"/>
<feBlend mode="normal" in="SourceGraphic" in2="effect1_dropShadow_6446_178264" result="shape"/>
</filter>
<filter id="filter1_d_6446_178264" x="160" y="89" width="150" height="150" filterUnits="userSpaceOnUse" color-interpolation-filters="sRGB">
<feFlood flood-opacity="0" result="BackgroundImageFix"/>
<feColorMatrix in="SourceAlpha" type="matrix" values="0 0 0 0 0 0 0 0 0 0 0 0 0 0 0 0 0 0 127 0" result="hardAlpha"/>
<feOffset dy="10"/>
<feGaussianBlur stdDeviation="10"/>
<feColorMatrix type="matrix" values="0 0 0 0 0.333333 0 0 0 0 0.333333 0 0 0 0 0.333333 0 0 0 0.05 0"/>
<feBlend mode="normal" in2="BackgroundImageFix" result="effect1_dropShadow_6446_178264"/>
<feBlend mode="normal" in="SourceGraphic" in2="effect1_dropShadow_6446_178264" result="shape"/>
</filter>
<filter id="filter2_d_6446_178264" x="160" y="229" width="150" height="150" filterUnits="userSpaceOnUse" color-interpolation-filters="sRGB">
<feFlood flood-opacity="0" result="BackgroundImageFix"/>
<feColorMatrix in="SourceAlpha" type="matrix" values="0 0 0 0 0 0 0 0 0 0 0 0 0 0 0 0 0 0 127 0" result="hardAlpha"/>
<feOffset dy="10"/>
<feGaussianBlur stdDeviation="10"/>
<feColorMatrix type="matrix" values="0 0 0 0 0.333333 0 0 0 0 0.333333 0 0 0 0 0.333333 0 0 0 0.05 0"/>
<feBlend mode="normal" in2="BackgroundImageFix" result="effect1_dropShadow_6446_178264"/>
<feBlend mode="normal" in="SourceGraphic" in2="effect1_dropShadow_6446_178264" result="shape"/>
</filter>
<filter id="filter3_d_6446_178264" x="160" y="369" width="150" height="150" filterUnits="userSpaceOnUse" color-interpolation-filters="sRGB">
<feFlood flood-opacity="0" result="BackgroundImageFix"/>
<feColorMatrix in="SourceAlpha" type="matrix" values="0 0 0 0 0 0 0 0 0 0 0 0 0 0 0 0 0 0 127 0" result="hardAlpha"/>
<feOffset dy="10"/>
<feGaussianBlur stdDeviation="10"/>
<feColorMatrix type="matrix" values="0 0 0 0 0.333333 0 0 0 0 0.333333 0 0 0 0 0.333333 0 0 0 0.05 0"/>
<feBlend mode="normal" in2="BackgroundImageFix" result="effect1_dropShadow_6446_178264"/>
<feBlend mode="normal" in="SourceGraphic" in2="effect1_dropShadow_6446_178264" result="shape"/>
</filter>
<filter id="filter4_d_6446_178264" x="12" y="159" width="150" height="150" filterUnits="userSpaceOnUse" color-interpolation-filters="sRGB">
<feFlood flood-opacity="0" result="BackgroundImageFix"/>
<feColorMatrix in="SourceAlpha" type="matrix" values="0 0 0 0 0 0 0 0 0 0 0 0 0 0 0 0 0 0 127 0" result="hardAlpha"/>
<feOffset dy="10"/>
<feGaussianBlur stdDeviation="10"/>
<feColorMatrix type="matrix" values="0 0 0 0 0.333333 0 0 0 0 0.333333 0 0 0 0 0.333333 0 0 0 0.05 0"/>
<feBlend mode="normal" in2="BackgroundImageFix" result="effect1_dropShadow_6446_178264"/>
<feBlend mode="normal" in="SourceGraphic" in2="effect1_dropShadow_6446_178264" result="shape"/>
</filter>
<filter id="filter5_d_6446_178264" x="12" y="19" width="150" height="150" filterUnits="userSpaceOnUse" color-interpolation-filters="sRGB">
<feFlood flood-opacity="0" result="BackgroundImageFix"/>
<feColorMatrix in="SourceAlpha" type="matrix" values="0 0 0 0 0 0 0 0 0 0 0 0 0 0 0 0 0 0 127 0" result="hardAlpha"/>
<feOffset dy="10"/>
<feGaussianBlur stdDeviation="10"/>
<feColorMatrix type="matrix" values="0 0 0 0 0.333333 0 0 0 0 0.333333 0 0 0 0 0.333333 0 0 0 0.05 0"/>
<feBlend mode="normal" in2="BackgroundImageFix" result="effect1_dropShadow_6446_178264"/>
<feBlend mode="normal" in="SourceGraphic" in2="effect1_dropShadow_6446_178264" result="shape"/>
</filter>
<filter id="filter6_d_6446_178264" x="12" y="299" width="150" height="150" filterUnits="userSpaceOnUse" color-interpolation-filters="sRGB">
<feFlood flood-opacity="0" result="BackgroundImageFix"/>
<feColorMatrix in="SourceAlpha" type="matrix" values="0 0 0 0 0 0 0 0 0 0 0 0 0 0 0 0 0 0 127 0" result="hardAlpha"/>
<feOffset dy="10"/>
<feGaussianBlur stdDeviation="10"/>
<feColorMatrix type="matrix" values="0 0 0 0 0.333333 0 0 0 0 0.333333 0 0 0 0 0.333333 0 0 0 0.05 0"/>
<feBlend mode="normal" in2="BackgroundImageFix" result="effect1_dropShadow_6446_178264"/>
<feBlend mode="normal" in="SourceGraphic" in2="effect1_dropShadow_6446_178264" result="shape"/>
</filter>
<clipPath id="clip0_6446_178264">
<rect width="328" height="440" fill="white"/>
</clipPath>
</defs>
</svg>
