<svg width="1547" height="646" viewBox="0 0 1547 646" fill="none" xmlns="http://www.w3.org/2000/svg">
<g clip-path="url(#clip0_6523_257611)">
<mask id="path-1-inside-1_6523_257611" fill="white">
<path d="M0 0H1547V646H0V0Z"/>
</mask>
<path d="M673.946 395.839L474.03 778.75L905.605 797.076L705.688 1179.99L273.488 1160.58L473.404 777.666L42.4554 760.425L242.372 377.513L673.946 395.839ZM741.308 1245.45L941.225 862.543L1372.8 880.868L1172.88 1263.78L741.308 1245.45ZM904.979 795.992L1104.89 413.08L673.946 395.839L872.23 13.8695L1303.8 32.1954L1103.89 415.107L1535.46 433.433L1335.55 816.345L904.979 795.992Z" fill="#F2F2F2"/>
</g>
<path d="M0 1H1547V-1H0V1Z" fill="#E2E2E2" mask="url(#path-1-inside-1_6523_257611)"/>
<defs>
<clipPath id="clip0_6523_257611">
<path d="M0 0H1547V646H0V0Z" fill="white"/>
</clipPath>
</defs>
</svg>
