<svg width="64" height="64" viewBox="0 0 64 64" fill="none" xmlns="http://www.w3.org/2000/svg">
<path fill-rule="evenodd" clip-rule="evenodd" d="M26.3449 7C25.0482 7 23.9971 8.0421 23.9971 9.32759V52.6724C23.9971 53.9579 25.0482 55 26.3449 55H57.6492C58.9459 55 59.9971 53.9579 59.9971 52.6724V18.5C59.9971 17.8827 59.7497 17.2907 59.3094 16.8541L50.1195 7.68173C49.6792 7.24523 49.082 7 48.4594 7H26.3449Z" fill="white"/>
<path d="M31 18.0079H43V19.0079H31V18.0079Z" fill="#333333"/>
<path d="M31 15.0079H43V16.0079H31V15.0079Z" fill="#333333"/>
<path d="M40 39H55.0172V40H40V39Z" fill="#333333"/>
<path d="M40 36H51.2508V37H40V36Z" fill="#333333"/>
<path d="M40 45H55.0172V46H40V45Z" fill="#333333"/>
<path d="M40 48H51.2508V49H40V48Z" fill="#333333"/>
<path d="M40 42H50.3132V43H40V42Z" fill="#333333"/>
<path d="M49.3536 7.64645C49.2106 7.50345 48.9955 7.46067 48.8087 7.53806C48.6218 7.61545 48.5 7.79777 48.5 8V16.182C48.5 16.8578 48.6636 17.4574 49.0734 17.8877C49.4874 18.3225 50.072 18.5001 50.7316 18.5001H59C59.2022 18.5001 59.3845 18.3783 59.4619 18.1915C59.5393 18.0046 59.4966 17.7896 59.3536 17.6466L49.3536 7.64645Z" fill="url(#paint0_linear_8925_74208)" stroke="#333333" stroke-linecap="round" stroke-linejoin="round"/>
<path fill-rule="evenodd" clip-rule="evenodd" d="M13 10.0244C13 9.44231 13.1365 8.922 13.3891 8.56238C13.6265 8.22416 13.9828 8 14.53 8H16.5C16.7761 8 17 7.77614 17 7.5C17 7.22386 16.7761 7 16.5 7H14.53C13.6501 7 12.9914 7.38852 12.5706 7.98774C12.1649 8.56556 12 9.30744 12 10.0244V32H13V10.0244ZM19.0164 32H18.0164V10.0244C18.0164 9.30744 18.1813 8.56556 18.587 7.98774C19.0078 7.38852 19.6665 7 20.5464 7H22.5164C22.7925 7 23.0164 7.22386 23.0164 7.5C23.0164 7.77614 22.7925 8 22.5164 8H20.5464C19.9992 8 19.6429 8.22416 19.4054 8.56238C19.1529 8.922 19.0164 9.44231 19.0164 10.0244V32ZM39 55H57.6492C58.9459 55 59.9971 53.9579 59.9971 52.6724V18.1093C59.9971 17.5316 59.7804 17.3182 59.3916 16.9353L59.3094 16.8541L50.1195 7.68173C50.0715 7.63409 50.0267 7.58873 49.9843 7.54572L49.9829 7.54432L49.9822 7.54364C49.6371 7.19385 49.4459 7 48.8923 7H26.3449C25.0482 7 23.9971 8.0421 23.9971 9.32759V32H24.9971V9.32759C24.9971 8.60253 25.5923 8 26.3449 8H48.8923C48.9724 8 49.0094 8.00704 49.02 8.00951C49.0327 8.01797 49.0634 8.04113 49.1336 8.1091C49.1681 8.14261 49.2059 8.18068 49.2542 8.22955L49.27 8.24561L49.2705 8.2461L49.2709 8.24653C49.3132 8.28936 49.3619 8.33878 49.4142 8.39064L49.4155 8.3919L58.603 17.5619L58.6054 17.5643C58.6408 17.5994 58.6722 17.6304 58.7007 17.6584L58.7015 17.6592L58.7017 17.6594C58.7732 17.7299 58.8261 17.7819 58.8764 17.8351C58.9408 17.9031 58.966 17.9373 58.9768 17.9542C58.9833 17.9642 58.9839 17.9665 58.9854 17.972L58.9855 17.9724C58.9882 17.9827 58.9971 18.0214 58.9971 18.1093V52.6724C58.9971 53.3975 58.4018 54 57.6492 54H39V55Z" fill="#333333"/>
<path d="M31 24H47V25H31V24Z" fill="#333333"/>
<path d="M31 27H47V28H31V27Z" fill="#333333"/>
<path d="M31 30H47V31H31V30Z" fill="#333333"/>
<path d="M31 24H32V30H31V27V24Z" fill="#333333"/>
<path d="M46 24H47V30H46V24Z" fill="#333333"/>
<path d="M41 24H42V30H41V24Z" fill="#333333"/>
<path d="M31 24H32V30H31V27V24Z" fill="#333333"/>
<path d="M36 24H37V30H36V24Z" fill="#333333"/>
<path d="M36 24H52V25H36V24Z" fill="#333333"/>
<path d="M36 27H52V28H36V27Z" fill="#333333"/>
<path d="M36 30H52V31H36V30Z" fill="#333333"/>
<path d="M36 24H37V30H36V27V24Z" fill="#333333"/>
<path d="M51 24H52V30H51V24Z" fill="#333333"/>
<path d="M46 24H47V30H46V24Z" fill="#333333"/>
<path d="M36 24H37V30H36V27V24Z" fill="#333333"/>
<path d="M41 24H42V30H41V24Z" fill="#333333"/>
<path d="M6.99719 35.5C5.61648 35.5 4.49719 36.6193 4.49719 38V52C4.49719 53.3807 5.61648 54.5 6.99719 54.5H32.9972C34.3779 54.5 35.4972 53.3807 35.4972 52V38C35.4972 36.6193 34.3779 35.5 32.9972 35.5H6.99719Z" fill="#0056CF" stroke="#0056CF"/>
<g clip-path="url(#clip0_8925_74208)">
<path d="M31.239 50.1117C31.5317 50.548 31.4732 51.1091 31.122 51.4207C30.7122 51.7324 30.1268 51.6701 29.8342 51.2961L27.7854 48.4909L25.7951 51.2337C25.5024 51.6701 24.9171 51.6701 24.5073 51.3584C24.0976 51.0467 24.039 50.4857 24.3317 50.0493L26.6732 46.8078L24.3317 43.5662C24.039 43.1298 24.1561 42.5065 24.5073 42.1948C24.9171 41.8831 25.5024 42.0078 25.7951 42.3818L27.7854 45.187L29.8342 42.5065C30.1268 42.0701 30.6537 42.0078 31.122 42.3194C31.5317 42.6311 31.5317 43.2545 31.239 43.6909L28.9561 46.8701L31.239 50.1117ZM20.5854 49.7376C19.0634 49.7376 17.8341 48.4909 17.8341 46.8701C17.8341 45.3117 19.0634 44.0026 20.5854 44.0026C22.1073 44.0026 23.3366 45.3117 23.3366 46.8701C23.2781 48.4909 22.0488 49.7376 20.5854 49.7376ZM12.5073 49.7376C10.9854 49.7376 9.7561 48.4909 9.7561 46.8701C9.7561 45.3117 10.9854 44.0026 12.5073 44.0026C14.0293 44.0026 15.2585 45.3117 15.2585 46.8701C15.2585 48.4909 14.0293 49.7376 12.5073 49.7376ZM20.5854 42.1324C18.8878 42.1324 17.3659 43.1298 16.6049 44.6259C15.8439 43.1298 14.322 42.1324 12.5659 42.1324C11.5122 42.1324 10.5756 42.5065 9.81463 43.0675V39.0779C9.81463 38.5792 9.40488 38.1428 8.93659 38.1428C8.40976 38.1428 8 38.5792 8 39.0779V46.9324C8.05854 49.5506 10.0488 51.6078 12.5073 51.6078C14.2634 51.6078 15.7854 50.548 16.5463 49.0519C17.3073 50.548 18.8293 51.6078 20.5268 51.6078C23.0439 51.6078 25.0927 49.4883 25.0927 46.8078C25.1512 44.2519 23.1024 42.1324 20.5854 42.1324Z" fill="white"/>
</g>
<defs>
<linearGradient id="paint0_linear_8925_74208" x1="49" y1="7.60937" x2="59.0002" y2="18" gradientUnits="userSpaceOnUse">
<stop stop-color="#FFC671"/>
<stop offset="0.59375" stop-color="#FF7541"/>
<stop offset="1" stop-color="#FF6F3D"/>
</linearGradient>
<clipPath id="clip0_8925_74208">
<rect width="24" height="13.7143" fill="white" transform="translate(8 38.1428)"/>
</clipPath>
</defs>
</svg>
