<svg width="2644" height="1353" viewBox="0 0 2644 1353" fill="none" xmlns="http://www.w3.org/2000/svg">
<path fill-rule="evenodd" clip-rule="evenodd" d="M2135.85 484.094L2478.18 977.649C2507.07 1020.16 2489.79 1050.1 2439.54 1044.58L1840.94 994.885C1789.68 991.122 1725.21 953.899 1698.06 912.392L1355.72 418.837C1326.83 376.324 1344.12 346.381 1394.37 351.906L1992.96 401.601C2043.21 407.126 2107.68 444.348 2135.85 484.094Z" fill="white"/>
<g style="mix-blend-mode:multiply" opacity="0.6">
<path fill-rule="evenodd" clip-rule="evenodd" d="M1035.2 235.739L1883.16 389.14C1955.59 402.959 1968.43 450.872 1911.86 496.239L1254.2 1053.07C1198.38 1101.25 1095.22 1128.9 1025.57 1114.33L177.611 960.928C105.176 947.109 92.3378 899.197 148.914 853.83L806.568 297C863.144 251.633 966.307 223.991 1035.2 235.739Z" fill="#F2F2F2"/>
</g>
</svg>
