<svg width="236" height="46" viewBox="0 0 236 46" fill="none" xmlns="http://www.w3.org/2000/svg">
<g clip-path="url(#clip0_6503_25762)">
<path d="M28.1214 8.64398L14.546 17.288L28.1214 25.9319L14.546 34.5759L0.970581 25.8852L14.546 17.2412L0.970581 8.64398L14.546 0L28.1214 8.64398ZM14.4758 37.356L28.0512 28.712L41.6266 37.356L28.0512 46L14.4758 37.356ZM28.1214 25.8852L41.6968 17.2412L28.1214 8.64398L41.6266 0L55.202 8.64398L41.6266 17.288L55.202 25.9319L41.6266 34.5759L28.1214 25.8852Z" fill="#0061FF"/>
<path d="M65.8517 8.64398H76.829C83.8274 8.64398 89.6087 12.6856 89.6087 21.9137V23.8527C89.6087 33.1508 84.2019 37.3327 77.0397 37.3327H65.8517V8.64398ZM71.984 13.8537V32.0995H76.6886C80.6676 32.0995 83.3359 29.5063 83.3359 23.7359V22.2174C83.3359 16.4469 80.5272 13.8537 76.478 13.8537H71.984ZM92.8621 14.1341H97.7773L98.5731 19.5307C99.5093 15.8629 101.897 13.9005 106.227 13.9005H107.748V20.0914H105.22C100.235 20.0914 99.0178 21.8202 99.0178 26.7263V37.4027H92.9557V14.1341H92.8621ZM108.965 26.2357V25.5815C108.965 17.8019 113.951 13.55 120.738 13.55C127.526 13.55 132.512 17.8019 132.512 25.5815V26.2357C132.512 33.8751 127.807 37.9868 120.738 37.9868C113.225 37.9167 108.965 33.8984 108.965 26.2357ZM126.309 26.1656V25.5815C126.309 21.2595 124.132 18.6663 120.668 18.6663C117.204 18.6663 115.027 21.0493 115.027 25.5815V26.1656C115.027 30.3474 117.204 32.7303 120.668 32.7303C124.132 32.6602 126.309 30.3474 126.309 26.1656ZM135.695 14.1341H140.751L141.336 18.5262C142.553 15.5825 145.151 13.55 148.989 13.55C154.911 13.55 158.82 17.8019 158.82 25.675V26.3291C158.82 33.9685 154.49 38.0102 148.989 38.0102C145.315 38.0102 142.787 36.3514 141.546 33.6882V45.4393H135.625L135.695 14.1341ZM152.664 26.1656V25.6516C152.664 21.0259 150.277 18.7364 147.093 18.7364C143.7 18.7364 141.453 21.3296 141.453 25.6516V26.0955C141.453 30.2072 143.629 32.8004 147.023 32.8004C150.511 32.7303 152.664 30.5109 152.664 26.1656ZM167.784 33.1041L167.269 37.356H162.073V6.35449H167.995V18.2458C169.306 15.2087 171.904 13.55 175.578 13.55C181.149 13.6201 185.268 17.4515 185.268 25.161V25.8852C185.268 33.5947 181.36 38.0102 175.438 38.0102C171.529 37.9167 169.001 36.1178 167.784 33.1041ZM179.043 25.8852V25.3012C179.043 21.0493 176.725 18.6663 173.472 18.6663C170.219 18.6663 167.831 21.3296 167.831 25.3713V25.8852C167.831 30.2072 170.078 32.7303 173.402 32.7303C176.959 32.7303 179.043 30.5109 179.043 25.8852ZM187.867 26.2357V25.5815C187.867 17.8019 192.852 13.55 199.64 13.55C206.427 13.55 211.413 17.8019 211.413 25.5815V26.2357C211.413 33.8751 206.638 37.9868 199.64 37.9868C192.126 37.9167 187.867 33.8984 187.867 26.2357ZM205.257 26.1656V25.5815C205.257 21.2595 203.08 18.6663 199.616 18.6663C196.152 18.6663 193.975 21.0493 193.975 25.5815V26.1656C193.975 30.3474 196.152 32.7303 199.616 32.7303C203.104 32.6602 205.257 30.3474 205.257 26.1656ZM219.347 25.3012L211.179 14.1341H218.177L222.882 21.1193L227.657 14.1341H234.585L226.299 25.2311L235.029 37.356H228.171L222.835 29.6465L217.639 37.356H210.477L219.347 25.3012Z" fill="black"/>
</g>
<defs>
<clipPath id="clip0_6503_25762">
<rect width="234.059" height="46" fill="white" transform="translate(0.970581)"/>
</clipPath>
</defs>
</svg>
