<svg width="360" height="200" viewBox="0 0 360 200" fill="none" xmlns="http://www.w3.org/2000/svg">
<path d="M120 19.5C115.306 19.5 111.5 23.3056 111.5 28V182C111.5 186.694 115.306 190.5 120 190.5H337C341.694 190.5 345.5 186.694 345.5 182V28C345.5 23.3056 341.694 19.5 337 19.5H120Z" fill="#333333"/>
<path d="M120 19.5C115.306 19.5 111.5 23.3056 111.5 28V182C111.5 186.694 115.306 190.5 120 190.5H337C341.694 190.5 345.5 186.694 345.5 182V28C345.5 23.3056 341.694 19.5 337 19.5H120Z" fill="url(#paint0_linear_1_19299)"/>
<path d="M120 19.5C115.306 19.5 111.5 23.3056 111.5 28V182C111.5 186.694 115.306 190.5 120 190.5H337C341.694 190.5 345.5 186.694 345.5 182V28C345.5 23.3056 341.694 19.5 337 19.5H120Z" stroke="#333333"/>
<rect x="118.5" y="26.5" width="219" height="157" rx="2.5" fill="white" stroke="#333333"/>
<path d="M335 27H121C119.895 27 119 27.8954 119 29V56H337V29C337 27.8954 336.105 27 335 27Z" fill="#01679E"/>
<path d="M139.852 35.5037C136.86 35.5037 134.323 37.5091 133.537 40.2263C132.854 38.7851 131.373 37.7754 129.668 37.7754C127.322 37.7754 125.394 39.6811 125.394 41.9995C125.394 44.3179 127.322 46.2245 129.668 46.2245C131.373 46.2245 132.854 45.2142 133.537 43.7727C134.323 46.4901 136.86 48.4962 139.852 48.4962C142.823 48.4962 145.347 46.5203 146.153 43.8336C146.849 45.2424 148.311 46.2245 149.992 46.2245C152.338 46.2245 154.267 44.3179 154.267 41.9995C154.267 39.6811 152.338 37.7754 149.992 37.7754C148.311 37.7754 146.849 38.7569 146.153 40.1654C145.347 37.4789 142.823 35.5037 139.852 35.5037ZM139.852 37.9833C142.112 37.9833 143.916 39.7664 143.916 41.9995C143.916 44.2326 142.112 46.0166 139.852 46.0166C137.593 46.0166 135.789 44.2326 135.789 41.9995C135.789 39.7664 137.593 37.9833 139.852 37.9833ZM129.668 40.255C130.657 40.255 131.433 41.0211 131.433 41.9995C131.433 42.9779 130.657 43.7448 129.668 43.7448C128.678 43.7448 127.903 42.9779 127.903 41.9995C127.903 41.0211 128.678 40.255 129.668 40.255ZM149.992 40.255C150.982 40.255 151.758 41.0211 151.758 41.9995C151.758 42.9779 150.982 43.7448 149.992 43.7448C149.003 43.7448 148.228 42.9779 148.228 41.9995C148.228 41.0211 149.003 40.255 149.992 40.255Z" fill="white"/>
<path d="M298.5 182C298.5 182.828 297.828 183.5 297 183.5H158C157.172 183.5 156.5 182.828 156.5 182V11.8942C156.5 10.5491 157.532 9.5 158.749 9.5H278.649C279.066 9.5 279.464 9.67386 279.748 9.9798L298.1 29.7602C298.357 30.0376 298.5 30.402 298.5 30.7804V136.998V182Z" fill="white" stroke="#333333" stroke-miterlimit="10"/>
<rect x="177" y="53" width="79" height="0.999046" rx="0.499523" fill="#E0E0E0"/>
<rect x="177" y="75" width="79" height="0.999046" rx="0.499523" fill="#E0E0E0"/>
<rect x="208" y="86" width="69" height="0.999046" rx="0.499523" fill="#E0E0E0"/>
<rect x="177" y="97" width="93" height="0.999046" rx="0.499523" fill="#E0E0E0"/>
<rect x="177" y="120" width="74" height="0.999046" rx="0.499523" fill="#E0E0E0"/>
<rect x="177.5" y="37.5" width="61" height="7" rx="0.5" fill="#F8F9F9" stroke="#E0E0E0"/>
<rect x="177.5" y="60.5" width="61" height="7" rx="0.5" fill="#F8F9F9" stroke="#E0E0E0"/>
<rect x="177.5" y="82.5" width="22.1867" height="7" rx="0.5" fill="#F8F9F9" stroke="#E0E0E0"/>
<rect x="245.5" y="60.5" width="31" height="7" rx="0.5" fill="#F8F9F9" stroke="#E0E0E0"/>
<rect x="-0.5" y="0.5" width="60.8312" height="7" rx="0.5" transform="matrix(-1 0 0 1 275.468 104)" fill="#F8F9F9" stroke="#E0E0E0"/>
<rect x="-0.5" y="0.5" width="31.2597" height="7" rx="0.5" transform="matrix(-1 0 0 1 208.26 104)" fill="#F8F9F9" stroke="#E0E0E0"/>
<path fill-rule="evenodd" clip-rule="evenodd" d="M277 10H278.077V29.9756H298V31H277V10Z" fill="#333333"/>
<path fill-rule="evenodd" clip-rule="evenodd" d="M177 131.5C177 131.224 177.224 131 177.5 131H177.5H202.5H227.499H252.499H276.5C276.767 131 276.985 131.209 276.999 131.472C277.013 131.209 277.231 131 277.498 131C277.774 131 277.998 131.224 277.998 131.5V164.496C277.998 164.772 277.774 164.996 277.498 164.996C277.231 164.996 277.013 164.787 276.999 164.524C276.985 164.787 276.767 164.996 276.5 164.996H252.502L252.499 164.996L252.496 164.996H227.502L227.499 164.996L227.496 164.996H202.503L202.5 164.996L202.497 164.996H177.503C177.502 164.996 177.501 164.996 177.5 164.996C177.224 164.996 177 164.772 177 164.496L177 164.474M178 153.997L178 152.998H202L202 142.998H178L178 141.999H202V131.999H178M177 131.5C177 131.507 177 131.514 177 131.522L177 131.5ZM177 131.522L177 142.476C177 142.484 177 142.491 177 142.499C177 142.506 177 142.514 177 142.521L177 153.475C177 153.483 177 153.49 177 153.498C177 153.505 177 153.513 177 153.52M178 153.997H202V163.997H178M276.5 131.999C276.763 131.999 276.979 131.796 276.999 131.538V142.46C276.979 142.202 276.763 141.999 276.5 141.999H252.999V131.999H276.5ZM276.5 142.998C276.763 142.998 276.979 142.795 276.999 142.537V153.459C276.979 153.201 276.763 152.998 276.5 152.998H252.999V142.998H276.5ZM276.5 153.997C276.763 153.997 276.979 153.794 276.999 153.536V164.458C276.979 164.2 276.763 163.997 276.5 163.997H252.999V153.997H276.5ZM251.999 163.997V153.997H227.999V163.997H251.999ZM251.999 152.998V142.998H227.999V152.998H251.999ZM251.999 141.999V131.999H227.999V141.999H251.999ZM203 131.999H227V141.999H203V131.999ZM203 142.998H227V152.998H203L203 142.998ZM203 153.997H227V163.997H203V153.997Z" fill="#E0E0E0"/>
<rect x="195" y="22" width="59" height="3" rx="1.5" fill="#D0D5DA"/>
<path d="M100.5 31C100.5 22.9921 94.0124 16.5 86.0041 16.5L57.5 16.5L28.9959 16.5C20.9876 16.5 14.5 22.9921 14.5 31V175C14.5 183.008 20.9919 189.5 29 189.5H86C94.0081 189.5 100.5 183.008 100.5 175V31Z" fill="#333333"/>
<path d="M100.5 31C100.5 22.9921 94.0124 16.5 86.0041 16.5L57.5 16.5L28.9959 16.5C20.9876 16.5 14.5 22.9921 14.5 31V175C14.5 183.008 20.9919 189.5 29 189.5H86C94.0081 189.5 100.5 183.008 100.5 175V31Z" fill="url(#paint1_linear_1_19299)"/>
<path d="M100.5 31C100.5 22.9921 94.0124 16.5 86.0041 16.5L57.5 16.5L28.9959 16.5C20.9876 16.5 14.5 22.9921 14.5 31V175C14.5 183.008 20.9919 189.5 29 189.5H86C94.0081 189.5 100.5 183.008 100.5 175V31Z" stroke="#333333"/>
<path d="M96.5 32C96.5 25.6488 91.3522 20.5 85.0009 20.5L68.9204 20.5C67.7032 20.5 66.5178 20.9038 65.5544 21.6485L62.1728 24.2625C59.4714 26.3507 55.7005 26.3507 52.9991 24.2625L49.6174 21.6485C48.6542 20.904 47.4713 20.5 46.2538 20.5L29.997 20.5C23.6455 20.5 18.5 25.6489 18.5 32V174C18.5 180.351 23.6487 185.5 30 185.5H85C91.3513 185.5 96.5 180.351 96.5 174V32Z" fill="white" stroke="#333333"/>
<circle cx="57.369" cy="21.0999" r="1.36634" fill="#333333"/>
<path d="M101 37.8405C102 37.8405 102 38.5353 102 38.5353V57.7496C102 57.7496 102 58.6257 101 58.6257C101 53.7373 101 37.8405 101 37.8405Z" fill="#333333"/>
<path d="M101 62.2944C102 62.2944 102 62.9735 102 62.9735V69.9413C102 69.9413 102 70.7975 101 70.7975C101 66.0201 101 62.2944 101 62.2944Z" fill="#333333"/>
<rect x="26" y="62" width="61" height="0.999046" rx="0.499523" fill="#E0E0E0"/>
<rect x="26" y="83" width="60" height="0.999046" rx="0.499523" fill="#E0E0E0"/>
<rect x="26" y="137" width="60" height="0.999046" rx="0.499523" fill="#E0E0E0"/>
<rect x="48" y="92" width="38" height="0.999046" rx="0.499523" fill="#E0E0E0"/>
<rect x="26" y="102" width="60" height="0.999046" rx="0.499523" fill="#E0E0E0"/>
<rect x="26.5" y="48.5" width="30.7354" height="7" rx="0.5" fill="#F8F9F9" stroke="#E0E0E0"/>
<rect x="26.5" y="69.5" width="60" height="7" rx="0.5" fill="#F8F9F9" stroke="#E0E0E0"/>
<rect x="26.5" y="88.5" width="16.25" height="7" rx="0.5" fill="#F8F9F9" stroke="#E0E0E0"/>
<rect x="61.5" y="48.5" width="26" height="7" rx="0.5" fill="#F8F9F9" stroke="#E0E0E0"/>
<rect width="38" height="0.999046" rx="0.499523" transform="matrix(-1 0 0 1 64 127)" fill="#E0E0E0"/>
<rect x="-0.5" y="0.5" width="16.25" height="7" rx="0.5" transform="matrix(-1 0 0 1 85 123)" fill="#F8F9F9" stroke="#E0E0E0"/>
<rect x="26.5" y="109.5" width="26" height="7" rx="0.5" fill="#F8F9F9" stroke="#E0E0E0"/>
<rect x="57.5" y="109.5" width="29.5" height="7" rx="0.5" fill="#F8F9F9" stroke="#E0E0E0"/>
<path fill-rule="evenodd" clip-rule="evenodd" d="M26.4995 146C26.2236 146 26 146.224 26 146.5C26 146.507 26.0002 146.514 26.0005 146.522L26.0005 154.477C26.0002 154.485 26 154.492 26 154.5C26 154.507 26.0002 154.514 26.0005 154.522L26.0005 161.477C26.0002 161.485 26 161.492 26 161.5C26 161.507 26.0002 161.514 26.0005 161.522L26.0005 168.477C26.0002 168.485 26 168.492 26 168.5C26 168.596 26.0274 168.686 26.0748 168.763C26.1629 168.905 26.3205 169 26.5002 169C26.5107 169 26.5211 169 26.5314 168.999H46.4686C46.4789 169 46.4893 169 46.4998 169L46.5139 169L46.5309 168.999H66.4681L66.484 169L66.4993 169C66.5097 169 66.5201 169 66.5304 168.999H86.4676C86.4779 169 86.4883 169 86.4988 169C86.7738 169 86.997 168.778 86.9985 168.503L86.9985 168.5L86.9985 168.497V161.502L86.9985 161.5L86.9985 161.497V154.502L86.9985 154.5L86.9985 154.497V146.502L86.9985 146.5C86.9985 146.224 86.7749 146 86.499 146H86.4988H66.4993H46.4998H26.5002H26.4995ZM27 146.999L27 154H46V146.999H27ZM27 154.999L27 161H46L46 154.999H27ZM27 161.999L27 168H46V161.999H27ZM85.999 161.999V168H66.999V161.999H85.999ZM85.999 154.999V161H66.999V154.999H85.999ZM85.999 146.999V154H66.999V146.999H85.999ZM65.9995 146.999H46.9995V154H65.9995V146.999ZM65.9995 154.999H46.9995L46.9995 161H65.9995V154.999ZM65.9995 161.999H46.9995V168H65.9995V161.999Z" fill="#E0E0E0"/>
<rect x="39" y="37" width="39" height="3" rx="1.5" fill="#D0D5DA"/>
<defs>
<linearGradient id="paint0_linear_1_19299" x1="122.234" y1="22.5951" x2="166.14" y2="225.88" gradientUnits="userSpaceOnUse">
<stop stop-color="#FFCE95"/>
<stop offset="1" stop-color="#FF8D63"/>
</linearGradient>
<linearGradient id="paint1_linear_1_19299" x1="18.7333" y1="19.6256" x2="113.633" y2="178.05" gradientUnits="userSpaceOnUse">
<stop stop-color="#FFCE95"/>
<stop offset="1" stop-color="#FF8D63"/>
</linearGradient>
</defs>
</svg>
