<svg width="640" height="690" viewBox="0 0 640 690" fill="none" xmlns="http://www.w3.org/2000/svg">
<g clip-path="url(#clip0_2652_11551)">
<ellipse cx="524.478" cy="666" rx="109.5" ry="5" fill="#E8E8E8"/>
<g clip-path="url(#clip1_2652_11551)">
<path d="M20.956 409.282C21.5789 412.234 22.3381 415.148 23.2725 418.062C23.5839 419.013 23.8954 419.985 24.2458 420.936C26.2313 426.511 28.7034 431.659 31.6233 436.476C36.6066 444.674 42.933 451.88 50.5247 458.427C52.6075 460.214 54.7682 461.962 57.0458 463.671C63.2554 468.353 70.1853 472.704 77.777 476.9C86.0695 481.464 95.16 485.835 105.029 490.186C105.535 490.4 106.041 490.633 106.567 490.866C114.626 494.382 123.21 497.898 132.281 501.511C139.445 504.366 146.9 507.28 154.667 510.291C156.127 510.854 157.743 511.495 159.534 512.175C163.855 513.846 169.111 515.846 175.204 518.061C178.785 519.362 182.64 520.742 186.786 522.16C194.903 524.976 204.033 527.987 214.038 531.017C219.586 532.688 225.387 534.378 231.441 536.029H503.048C506.65 534.669 510.251 533.232 513.813 531.697C523.02 527.793 532.111 523.364 541.065 518.352C541.24 518.255 541.416 518.158 541.591 518.061C546.983 515.031 552.336 511.806 557.611 508.348C560.629 506.367 564.288 503.978 568.318 501.22C572.717 498.189 577.564 494.712 582.489 490.866C586.888 487.428 591.326 483.679 595.57 479.677C600.865 474.724 605.828 469.363 610.013 463.671C616.243 455.221 620.7 446.053 621.751 436.476C622.043 433.912 622.082 431.329 621.849 428.706C621.167 421.111 618.325 414.818 613.868 409.282C609.274 403.571 602.967 398.656 595.57 393.955C589.282 389.973 582.216 386.127 574.722 382.087C572.619 380.96 570.478 379.795 568.318 378.629C559.441 373.792 550.156 368.567 541.065 362.351C537.62 360.02 534.213 357.534 530.846 354.892C524.928 350.211 519.186 345.024 513.813 339.158C510.523 335.603 507.389 331.796 504.43 327.697C502.62 325.211 500.888 322.627 499.214 319.927C495.165 313.381 491.992 306.912 489.52 300.502C488.391 297.569 487.398 294.655 486.561 291.761C484.75 285.526 483.563 279.387 482.843 273.307C481.772 264.042 481.811 254.97 482.492 246.113C483.193 236.789 484.614 227.717 486.133 218.918C486.269 218.082 486.425 217.247 486.561 216.431C488.06 207.923 489.617 199.687 490.688 191.723C491.972 182.244 492.595 173.153 491.641 164.528C490.941 158.137 489.364 151.999 486.561 146.133C485.14 143.122 483.388 140.189 481.247 137.333C480.779 136.673 480.273 136.032 479.748 135.391C474.375 128.767 467.465 123.27 459.309 118.88C451.347 114.567 442.198 111.284 432.056 109.012C423.608 107.108 414.479 105.884 404.804 105.321C396.142 104.816 387.012 104.855 377.552 105.399C368.734 105.904 359.624 106.856 350.299 108.235C341.404 109.556 332.294 111.284 323.047 113.363C314.073 115.403 304.963 117.792 295.795 120.531C286.743 123.231 277.653 126.261 268.543 129.622C262.022 132.03 255.481 134.594 248.979 137.333C246.41 138.421 243.841 139.509 241.29 140.655C232.142 144.676 223.031 149.046 214.038 153.708C207.42 157.147 200.86 160.74 194.397 164.528C191.847 166.004 189.317 167.5 186.786 169.035C177.481 174.707 168.371 180.709 159.534 187.042C157.373 188.576 155.232 190.149 153.11 191.723C145.966 197.065 138.997 202.601 132.281 208.37C131.951 208.642 131.639 208.933 131.308 209.205C129.07 211.128 125.293 214.45 120.446 218.918C116.066 222.978 110.811 227.97 105.029 233.797C101.272 237.566 97.3012 241.684 93.1939 246.113C88.1718 251.513 82.9744 257.34 77.777 263.556C75.1102 266.703 72.4628 269.966 69.8348 273.307C63.1581 281.757 56.5981 290.77 50.5247 300.191C50.4468 300.289 50.3884 300.386 50.3301 300.502C44.6849 309.263 39.4486 318.373 34.9714 327.697C30.6695 336.613 27.0294 345.704 24.3236 354.892C23.9537 356.135 23.6034 357.378 23.2725 358.621C21.1896 366.43 19.788 374.278 19.2235 382.087C18.5812 391.216 19.0678 400.327 20.956 409.282Z" fill="white" fill-opacity="0.6" stroke="#EEEEEE" stroke-linecap="round" stroke-linejoin="round"/>
<path d="M248.979 137.333H268.542H295.794H323.047H350.299H377.551H404.804H432.056H459.308H481.246" stroke="#EEEEEE" stroke-linecap="round" stroke-linejoin="round"/>
<path d="M491.641 164.528H486.561H459.308H432.056H404.804H377.552H350.299H323.047H295.795H268.542H241.29H214.038H194.397" stroke="#EEEEEE" stroke-linecap="round" stroke-linejoin="round"/>
<path d="M490.687 191.723H486.56H459.308H432.056H404.803H377.551H350.299H323.047H295.794H268.542H241.29H214.038H186.785H159.533H153.109" stroke="#EEEEEE" stroke-linecap="round" stroke-linejoin="round"/>
<path d="M486.561 218.917H486.132H459.308H432.056H404.804H377.552H350.299H323.047H295.795H268.543H241.29H214.038H186.786H159.533H132.281H120.446" stroke="#EEEEEE" stroke-linecap="round" stroke-linejoin="round"/>
<path d="M482.492 246.112H459.308H432.056H404.804H377.552H350.299H323.047H295.795H268.543H241.29H214.038H186.786H159.534H132.281H105.029H93.1937" stroke="#EEEEEE" stroke-linecap="round" stroke-linejoin="round"/>
<path d="M482.842 273.307H459.308H432.056H404.804H377.551H350.299H323.047H295.794H268.542H241.29H214.038H186.785H159.533H132.281H105.029H77.7765H69.8344" stroke="#EEEEEE" stroke-linecap="round" stroke-linejoin="round"/>
<path d="M489.519 300.502H486.56H459.308H432.056H404.803H377.551H350.299H323.047H295.794H268.542H241.29H214.038H186.785H159.533H132.281H105.029H77.7764H50.5242H50.3295" stroke="#EEEEEE" stroke-linecap="round" stroke-linejoin="round"/>
<path d="M34.9712 327.697H50.5245H77.7767H105.029H132.281H159.533H186.786H214.038H241.29H268.542H295.795H323.047H350.299H377.551H404.804H432.056H459.308H486.56H504.43" stroke="#EEEEEE" stroke-linecap="round" stroke-linejoin="round"/>
<path d="M24.3231 354.892H50.5243H77.7765H105.029H132.281H159.533H186.786H214.038H241.29H268.542H295.795H323.047H350.299H377.551H404.804H432.056H459.308H486.56H513.813H530.845" stroke="#EEEEEE" stroke-linecap="round" stroke-linejoin="round"/>
<path d="M19.223 382.086H23.2719H50.5242H77.7764H105.029H132.281H159.533H186.785H214.038H241.29H268.542H295.794H323.047H350.299H377.551H404.803H432.056H459.308H486.56H513.812H541.065H568.317H574.721" stroke="#EEEEEE" stroke-linecap="round" stroke-linejoin="round"/>
<path d="M20.9554 409.281H23.2719H50.5241H77.7764H105.029H132.281H159.533H186.785H214.038H241.29H268.542H295.794H323.047H350.299H377.551H404.803H432.056H459.308H486.56H513.812H541.065H568.317H595.569H613.867" stroke="#EEEEEE" stroke-linecap="round" stroke-linejoin="round"/>
<path d="M31.6229 436.476H50.5243H77.7766H105.029H132.281H159.533H186.786H214.038H241.29H268.542H295.795H323.047H350.299H377.551H404.804H432.056H459.308H486.56H513.813H541.065H568.317H595.569H621.751" stroke="#EEEEEE" stroke-linecap="round" stroke-linejoin="round"/>
<path d="M610.013 463.671H595.569H568.317H541.065H513.813H486.56H459.308H432.056H404.804H377.551H350.299H323.047H295.795H268.542H241.29H214.038H186.786H159.533H132.281H105.029H77.7768H57.0455" stroke="#EEEEEE" stroke-linecap="round" stroke-linejoin="round"/>
<path d="M582.488 490.866H568.317H541.065H513.813H486.56H459.308H432.056H404.804H377.551H350.299H323.047H295.795H268.542H241.29H214.038H186.786H159.533H132.281H106.567H105.029" stroke="#EEEEEE" stroke-linecap="round" stroke-linejoin="round"/>
<path d="M175.203 518.061H186.785H214.038H241.29H268.542H295.794H323.047H350.299H377.551H404.803H432.056H459.308H486.56H513.813H541.065H541.59" stroke="#EEEEEE" stroke-linecap="round" stroke-linejoin="round"/>
<path d="M595.569 393.955V409.281V436.476V463.671V479.677" stroke="#EEEEEE" stroke-linecap="round" stroke-linejoin="round"/>
<path d="M568.317 378.629V382.087V409.281V436.476V463.671V490.866V501.219" stroke="#EEEEEE" stroke-linecap="round" stroke-linejoin="round"/>
<path d="M541.065 518.352V518.061V490.866V463.671V436.476V409.282V382.087V362.351" stroke="#EEEEEE" stroke-linecap="round" stroke-linejoin="round"/>
<path d="M513.813 339.158V354.892V382.087V409.282V436.476V463.671V490.866V518.061V531.697" stroke="#EEEEEE" stroke-linecap="round" stroke-linejoin="round"/>
<path d="M486.561 146.132V164.528V191.723V216.431V218.917" stroke="#EEEEEE" stroke-linecap="round" stroke-linejoin="round"/>
<path d="M486.561 536.029V518.061V490.866V463.671V436.476V409.281V382.086V354.892V327.697V300.502V291.761" stroke="#EEEEEE" stroke-linecap="round" stroke-linejoin="round"/>
<path d="M459.308 536.029V518.061V490.866V463.671V436.476V409.281V382.086V354.892V327.697V300.502V273.307V246.112V218.918V191.723V164.528V137.333V118.879" stroke="#EEEEEE" stroke-linecap="round" stroke-linejoin="round"/>
<path d="M432.056 536.029V518.061V490.866V463.671V436.476V409.282V382.087V354.892V327.697V300.502V273.307V246.113V218.918V191.723V164.528V137.333V109.012" stroke="#EEEEEE" stroke-linecap="round" stroke-linejoin="round"/>
<path d="M404.804 105.321V137.333V164.528V191.723V218.917V246.112V273.307V300.502V327.697V354.892V382.086V409.281V436.476V463.671V490.866V518.061V536.029" stroke="#EEEEEE" stroke-linecap="round" stroke-linejoin="round"/>
<path d="M377.552 536.029V518.061V490.866V463.671V436.476V409.281V382.086V354.892V327.697V300.502V273.307V246.112V218.917V191.723V164.528V137.333V105.398" stroke="#EEEEEE" stroke-linecap="round" stroke-linejoin="round"/>
<path d="M350.299 536.029V518.061V490.866V463.671V436.476V409.282V382.087V354.892V327.697V300.502V273.307V246.113V218.918V191.723V164.528V137.333V108.235" stroke="#EEEEEE" stroke-linecap="round" stroke-linejoin="round"/>
<path d="M323.047 113.363V137.333V164.528V191.723V218.918V246.112V273.307V300.502V327.697V354.892V382.087V409.281V436.476V463.671V490.866V518.061V536.029" stroke="#EEEEEE" stroke-linecap="round" stroke-linejoin="round"/>
<path d="M295.795 536.029V518.061V490.866V463.671V436.476V409.282V382.087V354.892V327.697V300.502V273.307V246.113V218.918V191.723V164.528V137.333V120.531" stroke="#EEEEEE" stroke-linecap="round" stroke-linejoin="round"/>
<path d="M268.542 129.622V137.333V164.528V191.723V218.918V246.113V273.307V300.502V327.697V354.892V382.087V409.282V436.476V463.671V490.866V518.061V536.029" stroke="#EEEEEE" stroke-linecap="round" stroke-linejoin="round"/>
<path d="M241.29 536.029V518.061V490.866V463.671V436.476V409.281V382.087V354.892V327.697V300.502V273.307V246.112V218.918V191.723V164.528V140.655" stroke="#EEEEEE" stroke-linecap="round" stroke-linejoin="round"/>
<path d="M214.038 531.017V518.061V490.866V463.671V436.476V409.282V382.087V354.892V327.697V300.502V273.307V246.113V218.918V191.723V164.528V153.708" stroke="#EEEEEE" stroke-linecap="round" stroke-linejoin="round"/>
<path d="M186.786 169.035V191.723V218.918V246.113V273.307V300.502V327.697V354.892V382.087V409.282V436.476V463.671V490.866V518.061V522.16" stroke="#EEEEEE" stroke-linecap="round" stroke-linejoin="round"/>
<path d="M159.534 512.175V490.866V463.671V436.476V409.282V382.087V354.892V327.697V300.502V273.307V246.113V218.918V191.723V187.042" stroke="#EEEEEE" stroke-linecap="round" stroke-linejoin="round"/>
<path d="M132.281 501.511V490.866V463.671V436.477V409.282V382.087V354.892V327.697V300.502V273.308V246.113V218.918V208.37" stroke="#EEEEEE" stroke-linecap="round" stroke-linejoin="round"/>
<path d="M105.029 233.797V246.112V273.307V300.502V327.697V354.892V382.086V409.281V436.476V463.671V490.186V490.866" stroke="#EEEEEE" stroke-linecap="round" stroke-linejoin="round"/>
<path d="M77.7769 476.9V463.671V436.476V409.282V382.087V354.892V327.697V300.502V273.307V263.556" stroke="#EEEEEE" stroke-linecap="round" stroke-linejoin="round"/>
<path d="M50.5244 458.426V436.476V409.282V382.087V354.892V327.697V300.502V300.191" stroke="#EEEEEE" stroke-linecap="round" stroke-linejoin="round"/>
<path d="M23.2725 358.621V382.086V409.281V418.061" stroke="#EEEEEE" stroke-linecap="round" stroke-linejoin="round"/>
</g>
<path d="M500.876 324.221C497.099 218.513 407.457 134 297.5 134C187.543 134 97.9006 218.513 94.1239 324.221H94V325.221V331.166C94 440.092 185.145 528.331 297.5 528.331C409.855 528.331 501 440.092 501 331.166V325.221V324.221H500.876ZM296.466 396.792C263.155 396.845 231.63 402.315 203.986 412.114C197.664 387.873 194.084 360.788 194.002 332.166L296.466 332.166V396.792ZM147.516 452.551C161.568 440.577 178.898 430.399 198.631 422.544C203.754 439.944 210.303 455.828 218.017 469.697C229.512 490.363 243.758 506.812 259.925 516.968C215.08 508.511 175.719 485.204 147.516 452.551ZM447.244 452.829C419.057 485.336 379.793 508.535 335.075 516.968C351.241 506.812 365.488 490.363 376.983 469.697C384.62 455.967 391.114 440.262 396.214 423.067C415.773 430.953 433.032 441.07 447.244 452.829ZM370.013 465.904C352.534 497.329 329.497 516.852 304.655 520.009V404.748C335.134 405.549 363.662 411.084 388.769 420.215C383.79 437.155 377.443 452.545 370.013 465.904ZM408.953 332.166L492.95 332.166C492.719 375.287 477.603 414.999 452.316 446.728C437.216 434.259 418.955 423.636 398.36 415.435C405.088 390.145 408.87 361.916 408.953 332.166ZM400.998 332.166C400.916 360.981 397.288 388.237 390.886 412.602C365.002 403.279 335.756 397.685 304.655 396.89V332.166L400.998 332.166ZM449.556 212.221C475.3 243.051 491.246 281.864 492.823 324.221H408.887C408.311 294.561 404.055 266.529 396.885 241.561C416.967 233.876 434.819 223.924 449.556 212.221ZM304.655 259.056C335.062 258.358 363.864 253.105 389.397 244.285C396.252 268.355 400.359 295.452 400.931 324.221H304.655V259.056ZM335.075 145.363C378.279 153.511 416.392 175.442 444.343 206.233C430.489 217.209 413.642 226.642 394.594 233.998C389.764 218.855 383.833 204.95 376.983 192.634C365.488 171.968 351.241 155.519 335.075 145.363ZM387.125 236.736C362.414 245.324 334.388 250.497 304.655 251.198V142.322C329.497 145.479 352.534 165.003 370.013 196.427C376.649 208.358 382.42 221.908 387.125 236.736ZM200.489 233.738C181.619 226.325 164.92 216.811 151.166 205.675C179.069 175.177 216.983 153.462 259.925 145.363C243.758 155.519 229.512 171.968 218.017 192.634C211.206 204.88 205.304 218.696 200.489 233.738ZM207.944 236.517C212.636 221.775 218.384 208.299 224.987 196.427C243.895 162.434 269.296 142.375 296.466 141.878V251.277C264.469 251.145 234.309 245.829 207.944 236.517ZM296.466 324.221H194.069C194.643 295.365 198.773 268.19 205.666 244.066C232.881 253.615 263.823 259.001 296.466 259.133V324.221ZM198.189 241.302C190.974 266.335 186.691 294.458 186.113 324.221H102.177C103.764 281.598 119.901 242.565 145.929 211.642C160.573 223.519 178.283 233.558 198.189 241.302ZM142.453 446.438C117.305 414.757 102.28 375.156 102.05 332.166H186.047C186.129 361.71 189.86 389.755 196.5 414.91C175.754 423.066 157.414 433.739 142.453 446.438ZM296.466 404.647V520.453C269.296 519.956 243.895 499.898 224.987 465.904C217.485 452.417 211.088 436.86 206.088 419.727C232.914 410.128 263.72 404.701 296.466 404.647Z" fill="#F2F2F2" stroke="#808080" stroke-width="2" stroke-miterlimit="22.9256"/>
<path fill-rule="evenodd" clip-rule="evenodd" d="M593 247C596.314 247 599 249.686 599 253V283.256C599 286.57 596.314 289.256 593 289.256H551.01C550.025 289.256 549.055 289.498 548.186 289.962L531.471 298.88C530.805 299.236 530 298.753 530 297.998V283.266C530 283.262 530 283.259 530 283.256L530 278.382L530 253C530 249.686 532.686 247 536 247H593Z" fill="url(#paint0_linear_2652_11551)"/>
<path d="M531.471 298.88L531.941 299.762V299.762L531.471 298.88ZM530 283.256H529H530ZM530 278.382H531V278.382L530 278.382ZM530 253L529 253V253H530ZM548.186 289.962L547.715 289.08L548.186 289.962ZM598 253C598 250.239 595.761 248 593 248V246C596.866 246 600 249.134 600 253H598ZM598 283.256V253H600V283.256H598ZM593 288.256C595.761 288.256 598 286.017 598 283.256H600C600 287.122 596.866 290.256 593 290.256V288.256ZM551.01 288.256H593V290.256H551.01V288.256ZM548.656 290.844L531.941 299.762L531 297.998L547.715 289.08L548.656 290.844ZM531.941 299.762C530.609 300.473 529 299.508 529 297.998H531V297.998L531.941 299.762ZM529 297.998V283.266H531V297.998H529ZM531 283.256C531 283.257 531 283.258 531 283.26C531 283.261 531 283.263 531 283.266H529C529 283.265 529 283.264 529 283.262C529 283.26 529 283.258 529 283.256H531ZM529 283.256L529 278.382L531 278.382L531 283.256H529ZM531 253L531 278.382H529L529 253L531 253ZM536 248C533.239 248 531 250.239 531 253H529C529 249.134 532.134 246 536 246V248ZM593 248H536V246H593V248ZM551.01 290.256C550.189 290.256 549.381 290.458 548.656 290.844L547.715 289.08C548.729 288.539 549.861 288.256 551.01 288.256V290.256Z" fill="#333333"/>
<path d="M556.851 263.86C556.851 263.85 558.293 263.476 558.38 263.447C559.613 263.031 560.803 262.45 561.849 261.68C563.108 260.757 564.025 259.622 564.686 258.227C565.409 256.701 565.912 255.002 567.172 253.796C567.568 253.418 568.061 253.091 568.612 253.076C569.165 253.061 569.689 253.367 570.044 253.787C571.308 255.284 570.926 257.57 570.468 259.287C570.031 260.923 569.566 262.571 568.792 264.087C568.668 264.331 568.506 264.554 568.315 264.746C570.073 264.966 571.868 264.909 573.636 264.83C574.954 264.772 576.785 264.569 577.653 265.822C578.387 266.882 577.477 268.056 576.652 268.748C578.217 270.673 577.305 272 576.237 272.942C576.262 273.696 577.102 275.819 574.914 277.096C575.575 278.471 575.539 280.401 573.832 281.072C573.374 281.252 572.873 281.297 572.381 281.331C569.287 281.544 566.166 281.38 563.112 280.848C561.554 280.576 560.012 280.21 558.501 279.75C557.527 279.454 556.978 279.497 556.851 278.567C556.452 275.651 556.851 272.41 556.851 269.469C556.851 267.598 556.851 265.729 556.851 263.859V263.86Z" fill="white" stroke="#333333" stroke-width="2" stroke-linecap="round" stroke-linejoin="round"/>
<path d="M572.017 268.739H576.66" stroke="#333333" stroke-width="2" stroke-linecap="round" stroke-linejoin="round"/>
<path d="M575.886 273.16H571.088" stroke="#333333" stroke-width="2" stroke-linecap="round" stroke-linejoin="round"/>
<path d="M574.803 277.123H570.005" stroke="#333333" stroke-width="2" stroke-linecap="round" stroke-linejoin="round"/>
<path d="M552.158 261.955H556.359C556.845 261.955 557.238 262.343 557.238 262.82V279.992C557.238 280.471 556.843 280.858 556.359 280.858H552.158C550.733 280.858 549.577 279.719 549.577 278.315V264.497C549.577 263.093 550.733 261.955 552.158 261.955Z" fill="white" stroke="#333333" stroke-width="2" stroke-linecap="round" stroke-linejoin="round"/>
<ellipse cx="139.978" cy="666" rx="120" ry="5" fill="#E8E8E8"/>
<path d="M100.123 305.877C92.4878 295.856 83.2223 297.327 78.0528 299.315C61.4771 294.064 53.1047 308.759 49.8248 321.827C48.2355 328.159 49.2565 334.844 48.464 341.324C47.8626 346.241 46.1443 352 42.2633 357.175C35.1054 366.719 39.2808 371.889 42.2633 373.28C54.9884 372.684 82.4668 371.849 100.123 373.28C122.193 375.07 110.86 351.807 104.895 345.842C98.9299 339.877 109.667 318.403 100.123 305.877Z" fill="#333333" stroke="#333333" stroke-width="2"/>
<path d="M86.8821 660.48C88.2654 660.205 89.1194 658.97 89.1855 657.561C89.8608 643.167 94.3441 569.585 94.3441 569.585H73L76.5199 658.459C80.5087 661.115 84.4972 660.953 86.8821 660.48Z" fill="white" stroke="#333333" stroke-width="2" stroke-linecap="round" stroke-linejoin="round"/>
<path d="M87.0905 567.491L59.83 613.564L48.0843 641.38C46.4762 645.189 46.9377 649.556 49.3062 652.944C49.3322 652.981 49.3579 653.019 49.3768 653.06C49.3866 653.081 49.3975 653.108 49.408 653.139C51.1412 658.272 39.0374 654.467 36.2897 649.798C33.7286 645.446 33.6709 640.76 33.6709 640.76L38.5003 627.5C38.5003 627.5 49.2245 594.716 52.37 588.433C55.5154 582.151 66.0002 567.491 66.0002 567.491H87.0905Z" fill="white" stroke="#333333" stroke-width="2" stroke-linecap="round" stroke-linejoin="round"/>
<path d="M28.0677 651.102C22.4059 645.649 30.2044 641.211 34.543 639.526C34.7704 640.614 36.7898 646.641 47.0001 647C54.5441 649.48 58.414 661.867 58.5002 666.5C58.5105 667.051 58.435 667.476 58.2908 667.797C56.5082 671.771 50.3624 666.296 46.6749 663.98C40.2608 659.951 32.3609 655.236 28.0677 651.102Z" fill="white" stroke="#333333" stroke-width="2"/>
<path d="M107.5 467.5C107.5 467.5 114.138 482.169 112.5 494.5C111.146 504.695 103.834 558.803 101.342 577.243C100.862 580.793 97.8364 583.403 94.2539 583.403H55.2701C51.5859 583.403 48.5034 580.607 48.1459 576.94L41.1289 504.966L45.7761 471L64.3492 445.596L97.4096 444.642L107.5 467.5Z" fill="#AAAAAA" stroke="#333333" stroke-width="2" stroke-linecap="round" stroke-linejoin="round"/>
<path d="M91.1872 355.979C91.1872 355.979 88.1151 354.477 88.8013 342.271C89.4874 330.066 66.4075 343.226 66.4075 343.226L66.6882 346.794C66.6882 346.794 66.6882 351.175 65.7993 354.336L66.2827 371.878L95.928 375.023L91.2184 355.964L91.1872 355.979Z" fill="white" stroke="#333333" stroke-width="2" stroke-linecap="round" stroke-linejoin="round"/>
<path fill-rule="evenodd" clip-rule="evenodd" d="M94.9778 328.501C94.9778 338.641 88.9778 351.535 80.2164 351.535C72.0316 351.535 65.1502 344.241 63.1687 334.355C62.8568 334.496 62.5283 334.572 62.1891 334.572C60.1565 334.572 58.5088 331.854 58.5088 328.501C58.5088 325.147 60.1565 322.429 62.1891 322.429C62.5283 322.429 62.8568 322.505 63.1687 322.646C65.1502 312.76 72.0316 305.466 80.2164 305.466C89.9486 305.466 94.9778 315.779 94.9778 328.501Z" fill="white"/>
<path d="M63.1687 334.355L64.1492 334.158C64.0892 333.859 63.896 333.604 63.6244 333.465C63.3529 333.325 63.0327 333.318 62.755 333.444L63.1687 334.355ZM63.1687 322.646L62.755 323.557C63.0327 323.683 63.3529 323.676 63.6244 323.537C63.896 323.398 64.0892 323.142 64.1492 322.843L63.1687 322.646ZM80.2164 352.535C85.1285 352.535 89.0835 348.932 91.7484 344.321C94.4332 339.674 95.9778 333.743 95.9778 328.501H93.9778C93.9778 333.399 92.5223 338.984 90.0168 343.32C87.4914 347.69 84.0657 350.535 80.2164 350.535V352.535ZM62.1882 334.551C64.2236 344.706 71.3784 352.535 80.2164 352.535V350.535C72.6849 350.535 66.0768 343.775 64.1492 334.158L62.1882 334.551ZM62.1891 335.572C62.6807 335.572 63.1496 335.462 63.5824 335.265L62.755 333.444C62.5639 333.531 62.3759 333.572 62.1891 333.572V335.572ZM57.5088 328.501C57.5088 330.329 57.956 332.033 58.7316 333.312C59.496 334.573 60.6886 335.572 62.1891 335.572V333.572C61.657 333.572 61.0094 333.212 60.4419 332.275C59.8855 331.357 59.5088 330.025 59.5088 328.501H57.5088ZM62.1891 321.429C60.6886 321.429 59.496 322.428 58.7316 323.689C57.956 324.968 57.5088 326.672 57.5088 328.501H59.5088C59.5088 326.976 59.8855 325.644 60.4419 324.726C61.0094 323.789 61.657 323.429 62.1891 323.429V321.429ZM63.5823 321.736C63.1496 321.539 62.6807 321.429 62.1891 321.429V323.429C62.3759 323.429 62.5639 323.47 62.755 323.557L63.5823 321.736ZM80.2164 304.466C71.3783 304.466 64.2236 312.295 62.1882 322.45L64.1492 322.843C66.0768 313.226 72.6849 306.466 80.2164 306.466V304.466ZM95.9778 328.501C95.9778 322.028 94.7014 316.075 92.1066 311.703C89.491 307.295 85.5047 304.466 80.2164 304.466V306.466C84.6603 306.466 88.0547 308.794 90.3867 312.723C92.7396 316.688 93.9778 322.252 93.9778 328.501H95.9778Z" fill="#333333"/>
<path d="M91.1874 355.979L79.2459 370.299C79.2459 370.299 69.702 359.562 65.7839 354.336L55.1328 362.145L62.1036 402.032L64.3648 469.472C64.3648 469.472 90.3999 472.758 96.5441 469.472C102.688 466.186 100.217 380.234 100.217 380.234L91.203 355.979H91.1874Z" fill="white" stroke="#333333" stroke-width="2" stroke-linecap="round" stroke-linejoin="round"/>
<path d="M91.1873 355.979L99.9982 360.908L109.046 365.387C111.88 366.789 114.587 368.561 116.14 371.316C117.807 374.271 119.653 379.049 119.975 386.013C120.583 399.173 121.478 420 121.478 420L122.601 450.123C122.601 450.123 124.372 460.749 118.743 461.688C113.113 462.627 113.316 458.272 113.316 458.272V489.69C113.316 493.465 109.794 496.509 106.18 495.419C102.017 494.164 99.3407 492.049 96.7837 485.692C94.1616 479.172 90.6586 462.211 88.6601 451.883C87.5813 446.308 87.3423 440.618 87.8482 434.962C88.296 429.956 89.1058 424.997 90.0646 420.063C91.3844 413.272 93.0515 403.313 92.9183 396.915C92.7 386.43 94.353 363.193 91.1717 355.995L91.1873 355.979Z" fill="#AAAAAA" stroke="#333333" stroke-width="2" stroke-linecap="round" stroke-linejoin="round"/>
<path d="M99.9982 360.908L106.314 371.932C106.581 372.399 106.503 372.987 106.123 373.368L104.443 375.054C103.872 375.627 104.025 376.589 104.744 376.958L107.756 378.5C108.209 378.732 108.465 379.226 108.393 379.73L105.955 396.883C105.955 396.883 103.694 411.483 95.6006 424.941" stroke="#333333" stroke-width="2" stroke-linecap="round" stroke-linejoin="round"/>
<path d="M111.881 386.5V423.955" stroke="#333333" stroke-width="2" stroke-linecap="round" stroke-linejoin="round"/>
<path d="M148.478 442H90.4775C88.5445 442 86.9775 443.567 86.9775 445.5C86.9775 447.433 88.5445 449 90.4775 449H148.478C150.411 449 151.978 447.433 151.978 445.5C151.978 443.567 150.411 442 148.478 442Z" fill="white" stroke="#333333" stroke-width="2" stroke-linecap="round" stroke-linejoin="round"/>
<path d="M148.407 435.163H90.653C88.7604 435.163 87.2261 436.697 87.2261 438.59C87.2261 440.483 88.7604 442.017 90.653 442.017H148.407C150.3 442.017 151.834 440.483 151.834 438.59C151.834 436.697 150.3 435.163 148.407 435.163Z" fill="#9ADAF3" stroke="#333333" stroke-width="2" stroke-linecap="round" stroke-linejoin="round"/>
<path d="M148.407 428.309H90.653C88.7604 428.309 87.2261 429.843 87.2261 431.736C87.2261 433.628 88.7604 435.163 90.653 435.163H148.407C150.3 435.163 151.834 433.628 151.834 431.736C151.834 429.843 150.3 428.309 148.407 428.309Z" fill="white" stroke="#333333" stroke-width="2" stroke-linecap="round" stroke-linejoin="round"/>
<path d="M148.407 421.455H90.653C88.7604 421.455 87.2261 422.989 87.2261 424.882C87.2261 426.775 88.7604 428.309 90.653 428.309H148.407C150.3 428.309 151.834 426.775 151.834 424.882C151.834 422.989 150.3 421.455 148.407 421.455Z" fill="#9ADAF3" stroke="#333333" stroke-width="2" stroke-linecap="round" stroke-linejoin="round"/>
<path d="M32.0468 500.091L32.1648 502.578C32.2821 505.05 32.1183 507.528 31.6766 509.963C31.3133 511.965 31.7584 514.03 32.9144 515.705L34.3611 517.801C37.067 521.722 40.7178 524.897 44.9758 527.034L46.4452 527.771C47.3988 528.249 48.5598 527.93 49.1348 527.032C49.7484 526.073 49.6683 524.827 48.9372 523.954L42.4934 516.266L42.0006 514.009C41.8564 513.348 41.9715 512.658 42.3221 512.08C42.7414 511.389 43.7926 511.583 43.9375 512.378L44.241 514.043C44.4479 515.179 44.745 516.297 45.1295 517.385L45.1534 517.453C45.5913 518.693 46.5422 519.683 47.7629 520.172C48.3069 520.389 48.9121 520.045 49.0039 519.467L49.0807 518.982C49.3343 517.382 49.3024 515.75 48.9864 514.162L47.8267 508.333L45.6747 499.601C45.6747 499.601 41.4815 497.212 32.0468 500.091Z" fill="white" stroke="#333333" stroke-width="2" stroke-linecap="round" stroke-linejoin="round"/>
<path d="M82.0216 367.734C82.0216 367.734 93.6086 363.148 96.4677 367.196C96.9383 367.863 96.7869 368.746 96.4386 369.484L92.8264 377.135C92.0018 378.882 89.942 379.657 88.21 378.802C84.882 377.16 80.0728 374.5 79.8696 372.757C79.5577 370.081 82.0216 367.718 82.0216 367.718V367.734Z" fill="url(#paint1_linear_2652_11551)" stroke="#333333" stroke-width="2" stroke-linecap="round" stroke-linejoin="round"/>
<path d="M76.2252 368.237C76.2252 368.237 66.3764 360.602 62.5018 363.693C61.8641 364.202 61.7631 365.093 61.8919 365.898L63.2277 374.253C63.5327 376.16 65.2947 377.479 67.1963 377.141C70.8502 376.491 76.2103 375.278 76.8914 373.661C77.937 371.178 76.2296 368.222 76.2296 368.222L76.2252 368.237Z" fill="url(#paint2_linear_2652_11551)" stroke="#333333" stroke-width="2" stroke-linecap="round" stroke-linejoin="round"/>
<path d="M77.5573 373.036C77.5573 373.036 72.1304 371.705 71.2104 382.91C70.3451 393.446 70.6521 428.17 72.222 434.915C72.3524 435.476 72.9303 435.71 73.4859 435.56C74.9433 435.166 77.8534 434.56 80.6218 435.066C81.5205 435.23 82.4634 434.519 82.3834 433.609C81.9824 429.048 81.2137 417.896 82.5788 411.389C84.3254 403.065 82.5788 385.695 82.5788 385.695L80.9413 372.738L77.5573 373.051V373.036Z" fill="url(#paint3_linear_2652_11551)" stroke="#333333" stroke-width="2" stroke-linecap="round" stroke-linejoin="round"/>
<path d="M82.2047 372.77C82.2047 372.77 88.0371 383.458 87.7408 401.453C87.5446 413.366 86.5284 422.076 85.8639 426.604C85.5764 428.562 83.7027 429.817 81.7849 429.327C79.25 428.679 76.2632 427.766 76.2632 427.054C76.2632 425.818 81.0819 370.204 82.2047 372.77Z" fill="url(#paint4_linear_2652_11551)" stroke="#333333" stroke-width="2" stroke-linecap="round" stroke-linejoin="round"/>
<path d="M82.2278 367.912H76.2629C74.9452 367.912 73.877 368.98 73.877 370.298V372.684C73.877 374.002 74.9452 375.07 76.2629 375.07H82.2278C83.5456 375.07 84.6138 374.002 84.6138 372.684V370.298C84.6138 368.98 83.5456 367.912 82.2278 367.912Z" fill="url(#paint5_linear_2652_11551)" stroke="#333333" stroke-width="2" stroke-linecap="round" stroke-linejoin="round"/>
<path d="M92.9648 422.193H96.5438V427.561H92.9648V422.193Z" fill="white" stroke="#333333" stroke-width="2"/>
<path d="M121.597 435.912H125.176V441.281H121.597V435.912Z" fill="white" stroke="#333333" stroke-width="2"/>
<path d="M98.9297 428.922H122.789V434.515H98.9297V428.922Z" fill="white" stroke="#333333" stroke-width="2"/>
<path d="M92.9775 442H91.9775V443V448V449H92.9775H115.978H116.978V448V443V442H115.978H92.9775Z" fill="white" stroke="#333333" stroke-width="2"/>
<path d="M103.702 422.193H107.281V427.561H103.702V422.193Z" fill="white" stroke="#333333" stroke-width="2"/>
<path d="M132.333 435.912H135.912V441.281H132.333V435.912Z" fill="white" stroke="#333333" stroke-width="2"/>
<path d="M114.438 422.193H118.017V427.561H114.438V422.193Z" fill="white" stroke="#333333" stroke-width="2"/>
<path d="M143.07 435.912H146.649V441.281H143.07V435.912Z" fill="white" stroke="#333333" stroke-width="2"/>
<path d="M113.316 457.256C113.316 457.256 121.944 462.053 125.69 454.98C125.764 454.841 125.763 454.671 125.689 454.532C125.646 454.453 125.69 454.355 125.777 454.333L133.932 452.326C133.932 452.326 137.105 451.421 136.509 449.035L125.059 448.351L115.452 447.864C112.008 447.689 108.679 446.533 105.253 446.134C103.766 445.961 102.524 446.213 102.524 447.537C102.524 450.839 113.316 457.256 113.316 457.256Z" fill="white" stroke="#333333" stroke-width="2" stroke-linecap="round" stroke-linejoin="round"/>
<path d="M78.649 315.421C72.0876 319.597 62.5438 323.176 61.9473 322.579L67.3157 305.877L84.0174 302.298C89.5847 306.275 100.242 315.54 98.3332 320.79C96.4245 326.039 84.8128 319 78.649 315.421Z" fill="#333333" stroke="#333333" stroke-width="2"/>
<path d="M62.5361 326.158C60.4592 326.891 60.1173 329.715 61.9396 330.93" stroke="#333333" stroke-width="2" stroke-linecap="round"/>
<path d="M55.1171 362.145L50.2149 364.141C43.3213 366.948 38.2451 372.96 36.6337 380.227L35.1054 387.119L30.4799 497.606C30.4095 499.286 32.0649 500.55 33.7063 500.186C37.3939 499.367 43.2373 498.639 46.6922 501.102L46.6493 488.404C53.3707 496.542 61.4797 491.386 61.4797 486.845C64.0692 477.13 66.8853 458.132 68.2511 448.319C68.8251 444.194 69.0134 440.031 68.8651 435.87L68.0586 413.236L65.16 387.119L62.6025 367.387C62.6025 367.387 62.9144 357.622 63.429 356.183L55.1327 362.145H55.1171Z" fill="#AAAAAA" stroke="#333333" stroke-width="2" stroke-linecap="round" stroke-linejoin="round"/>
<path d="M55.1169 362.144L49.7943 373.903C49.561 374.418 49.7217 375.027 50.1792 375.359L51.8207 376.554C52.5606 377.092 52.4439 378.229 51.61 378.606L49.4312 379.59C48.8772 379.841 48.6 380.467 48.7877 381.046L58.5009 410.967L68.4999 441" stroke="#333333" stroke-width="2" stroke-linecap="round" stroke-linejoin="round"/>
<path d="M46.6494 489.011V391.772" stroke="#333333" stroke-width="2" stroke-linecap="round" stroke-linejoin="round"/>
<path d="M78.8844 667.151C71.1067 666.014 73.9533 657.865 76.4998 653.969C77.3183 654.722 81.0725 659.622 89.583 653.969C97.1603 651.593 114.389 659.814 117.157 663.531C117.486 663.973 117.672 664.362 117.742 664.707C118.606 668.975 110.423 668.118 106.069 668.132C97.1755 668.161 84.9312 668.035 78.8844 667.151Z" fill="white" stroke="#333333" stroke-width="2"/>
<path fill-rule="evenodd" clip-rule="evenodd" d="M86.1328 327.78C85.1173 327.891 83.8449 327.712 83.011 327.52C84.8658 327.477 85.8126 325.071 88.0373 325.043C89.0823 325.027 90.7125 325.501 91.6177 327.151C91.307 327.323 90.773 327.207 90.6722 327.203C90.6225 329.896 87.0421 330.112 86.1328 327.78Z" fill="#333333"/>
<path fill-rule="evenodd" clip-rule="evenodd" d="M70.6608 326.969C69.6197 326.893 68.4239 326.503 67.6638 326.162C69.4703 326.456 70.9449 324.307 73.1185 324.678C74.1556 324.846 75.638 325.618 76.2022 327.363C75.8606 327.471 75.3643 327.265 75.2647 327.23C74.5797 329.813 71.0275 329.382 70.6608 326.969Z" fill="#333333"/>
<path fill-rule="evenodd" clip-rule="evenodd" d="M79.1787 340.193C77.9578 340.075 76.8583 341.195 76.6887 342.679C76.5541 344.165 77.4096 345.435 78.6305 345.553C79.8513 345.671 80.9508 344.551 81.1204 343.066C81.2886 341.614 80.3995 340.311 79.1787 340.193Z" fill="#333333"/>
<path fill-rule="evenodd" clip-rule="evenodd" d="M75.0171 340.009C76.4511 341.999 80.1826 342.259 82.0859 341.525C82.0918 342.734 80.6883 344.078 78.7151 343.731C74.7992 343.005 75.0471 340.664 75.0171 340.009Z" fill="#333333"/>
<path fill-rule="evenodd" clip-rule="evenodd" d="M79.9604 335.727C81.0721 335.845 82.5706 334.474 82.6688 333.213C82.8685 330.493 80.205 330.25 80.2213 327.66C79.5016 330.505 83.7908 332.7 79.9604 335.727Z" fill="#333333"/>
<rect x="23.4775" y="120.5" width="63" height="50" rx="2.5" fill="#E8E8E8" stroke="#CCCCCC"/>
<rect x="28.4775" y="125.5" width="53" height="40" rx="2.5" fill="white" stroke="#CCCCCC"/>
<path d="M41.9775 153.06C41.9775 152.792 42.3644 151.801 43.1382 150.084C43.912 148.354 44.8054 146.377 45.8184 144.154C46.8454 141.917 47.5418 140.32 47.9076 139.364L48.3719 138.161C48.1468 137.823 47.9006 137.521 47.6333 137.253C48.0694 137.084 48.4844 137 48.8784 137C49.7647 137 50.4541 137.563 50.9465 138.688C51.256 139.406 51.6711 141.01 52.1916 143.5C52.2057 143.528 52.2268 143.619 52.2549 143.774C52.2831 143.929 52.4237 144.646 52.677 145.927C52.9443 147.193 53.1272 148.037 53.2257 148.459C53.3242 148.867 53.493 149.5 53.7322 150.358C54.112 151.808 54.5904 152.933 55.1672 153.735C54.506 154.129 53.9573 154.326 53.5211 154.326C53.0991 154.326 52.7895 154.199 52.5926 153.946C52.4097 153.679 52.2338 153.278 52.065 152.743C51.9102 152.194 51.5726 150.682 51.052 148.206C50.7425 148.684 50.1235 148.938 49.1949 148.966L45.4385 149.113C44.6366 151.28 44.0527 153.137 43.6869 154.685C42.5473 154.206 41.9775 153.665 41.9775 153.06ZM49.1105 140.039C47.4926 143.88 46.4585 146.377 46.0083 147.531H50.9043C50.2431 144.309 49.6451 141.812 49.1105 140.039Z" fill="#CCCCCC"/>
<path d="M60.3488 145.737C59.9408 146.44 59.6242 147.165 59.3991 147.91C59.1881 148.642 59.0825 149.346 59.0825 150.021C59.0825 150.696 59.2303 151.273 59.5257 151.751C59.8352 152.216 60.2714 152.448 60.8341 152.448C61.622 152.448 62.3606 152.019 63.05 151.16C63.7394 150.288 64.267 149.24 64.6328 148.016C65.0126 146.778 65.2025 145.638 65.2025 144.597C65.2025 143.542 65.1603 142.677 65.0759 142.002C65.4136 141.973 65.6246 141.959 65.709 141.959C66.9049 141.959 67.5028 142.571 67.5028 143.795C67.5028 144.063 67.334 145.153 66.9963 147.066C66.6587 148.966 66.4899 150.492 66.4899 151.646C66.4899 152.785 66.7079 153.798 67.1441 154.685C66.2577 154.502 65.6105 154.115 65.2025 153.524C64.8086 152.919 64.6116 152.054 64.6116 150.928C64.6116 150.731 64.6398 150.351 64.6961 149.789C64.3162 151.125 63.6479 152.202 62.6912 153.018C61.7345 153.834 60.7919 154.242 59.8634 154.242C58.9489 154.242 58.2103 153.897 57.6475 153.207C57.0848 152.504 56.8034 151.54 56.8034 150.316C56.8034 149.078 57.0285 147.875 57.4787 146.708C57.943 145.526 58.6323 144.506 59.5468 143.648C60.4754 142.789 61.5094 142.36 62.649 142.36C63.1414 142.36 63.6831 142.459 64.274 142.656C63.4439 142.867 62.6842 143.254 61.9948 143.816C61.3054 144.379 60.7568 145.019 60.3488 145.737Z" fill="#CCCCCC"/>
<path d="M440.684 490.977L446.526 553.691L455.289 604.738L439.304 618.157C439.304 618.157 441.375 630.456 454.52 633.373L460.485 653.595C460.904 655.017 461.767 656.276 463.085 656.953C466.543 658.728 474.198 661.4 482.889 656.398C484.89 655.245 485.853 652.941 485.676 650.638L483.039 616.406L504.462 596.957C511.365 590.69 515.76 582.132 516.83 572.87L519.552 549.316L523.933 493.894C523.933 493.894 452.368 458.89 440.684 490.977Z" fill="#AAAAAA" stroke="#333333" stroke-width="2" stroke-linecap="round" stroke-linejoin="round"/>
<path d="M468.072 350.624C468.072 350.624 472.613 349.662 475.635 338.937C477.095 327.269 494.723 334.92 494.723 334.92C494.723 334.92 496.26 346.499 498.322 346.499L500.565 371.382H474.276L468.072 350.624Z" fill="white" stroke="#333333" stroke-width="2" stroke-linecap="round" stroke-linejoin="round"/>
<path d="M470.809 349.417L448.901 358.168C441.387 361.92 435.556 368.356 432.562 376.204L428.069 387.982C426.387 392.39 425.363 397.021 425.029 401.726L423.385 424.875C423.385 424.875 440.138 423.799 443.059 432.55V438.384L446.153 430.987C447.47 427.84 448.404 424.547 448.935 421.178L450.362 412.131V423.718C450.362 429.582 449.612 435.422 448.129 441.095L446.278 448.183C443.167 460.089 441.355 472.297 440.873 484.593L440.647 490.361C440.602 491.499 441.233 492.531 442.293 492.947C450.7 496.246 488.245 509.713 517.525 499.617C523.152 497.676 526.309 492.006 526.309 486.054V450.052L532.151 397.547C532.151 397.547 552.598 412.131 570.124 404.839C570.124 404.839 583.269 401.922 575.966 380.045C575.966 380.045 570.678 395.293 556.072 383.625L556.979 377.128L551.145 374.797C545.33 372.475 539.888 369.308 534.995 365.399C530.212 361.578 524.82 358.587 519.046 356.552L506.53 352.141C504.163 351.307 501.999 349.983 500.177 348.258L498.322 346.5L489.268 354.183C488.447 354.88 487.849 355.802 487.547 356.835L485.947 362.312L484.655 357.736C484.211 356.162 483.089 354.867 481.593 354.203L470.809 349.417Z" fill="#9ADAF3" stroke="#333333" stroke-width="2" stroke-linecap="round" stroke-linejoin="round"/>
<path d="M490.072 354.062C490.072 354.062 493.77 355.717 495.413 359.198C495.948 360.334 497.728 360.939 498.574 360.012L505.885 352" stroke="#333333" stroke-width="2" stroke-linecap="round" stroke-linejoin="round"/>
<path d="M465.308 352.247L472.628 359.533C473.369 360.27 474.699 359.962 475.202 359.045C476.155 357.307 477.929 354.989 480.906 354.041" stroke="#333333" stroke-width="2" stroke-linecap="round" stroke-linejoin="round"/>
<path d="M485.96 362.631C485.96 362.631 490.001 451.718 481.822 501.875" stroke="#333333" stroke-width="2" stroke-linecap="round" stroke-linejoin="round"/>
<path d="M532.01 398.063C532.01 398.063 531.236 385.5 531.236 372.841" stroke="#333333" stroke-width="2" stroke-linecap="round" stroke-linejoin="round"/>
<path d="M555.385 384.312C555.385 384.312 553.143 388.884 556.064 393.259" stroke="#333333" stroke-width="2" stroke-linecap="round" stroke-linejoin="round"/>
<path d="M450.197 413.875L450.907 399.093L451.978 377.5" stroke="#333333" stroke-width="2" stroke-linecap="round" stroke-linejoin="round"/>
<path d="M479.123 580.938L485.959 574.11L481.578 534.732L479.123 580.938Z" fill="white"/>
<path d="M455.289 604.738L485.959 574.11M485.959 574.11L481.578 534.732M485.959 574.11L479.123 580.938L481.578 534.732M481.578 534.732L481.179 521.883C481.151 520.978 480.68 520.145 479.918 519.655L471.51 514.25" stroke="#333333" stroke-width="2" stroke-linecap="round" stroke-linejoin="round"/>
<path d="M456.693 635.003L483.039 616.406" stroke="#333333" stroke-width="2" stroke-linecap="round" stroke-linejoin="round"/>
<path d="M576.01 380.188L567.749 358.256L556.064 336.379L555.474 334.612C553.938 330.008 554.085 324.867 552.222 320.386C551.032 317.522 548.446 315.349 542.92 317.419C531.236 321.794 532.696 329.087 532.696 329.087C532.696 329.087 535.617 333.462 538.538 333.462C538.538 333.462 538.538 337.11 542.986 339.965C543.866 340.53 544.666 341.231 545.205 342.127L548.241 347.179C548.585 347.753 548.822 348.385 548.94 349.043L555.363 384.946C555.363 384.946 567.247 396.231 576.01 380.188Z" fill="white" stroke="#333333" stroke-width="2" stroke-linecap="round" stroke-linejoin="round"/>
<path d="M538.538 333.086V330.461C538.538 329.702 537.922 329.086 537.163 329.086H536.992C536.233 329.086 535.617 329.702 535.617 330.461V332.003" stroke="#333333" stroke-width="2" stroke-linecap="round" stroke-linejoin="round"/>
<path d="M439.56 376.521C439.364 375.228 438.285 374.252 436.979 374.187L384.286 371.556C382.51 371.468 381.118 373.063 381.446 374.81L389.177 415.981C389.406 417.203 390.428 418.12 391.669 418.215L446.526 422.429L439.56 376.521Z" fill="url(#paint6_linear_2652_11551)" stroke="#333333" stroke-width="2" stroke-linecap="round" stroke-linejoin="round"/>
<path d="M470.914 419.935C471.986 420.017 472.815 420.911 472.815 421.987C472.815 423.178 471.808 424.12 470.62 424.04L446.526 422.429L446.047 418.036L470.914 419.935Z" fill="#CCCCCC" stroke="#333333" stroke-width="2" stroke-linecap="round" stroke-linejoin="round"/>
<path d="M443.322 437.938C443.322 437.938 439.68 444.976 432.096 443.02C427.764 441.902 425.036 437.848 423.032 433.847C422.177 432.14 420.679 430.841 418.867 430.238L416.368 429.406C414.085 428.646 411.893 427.639 409.829 426.403L405.631 423.888C405.631 423.888 398.329 420.971 401.25 419.512C404.171 418.054 409.635 420.063 409.635 420.063C409.635 420.063 405.631 403.469 418.776 406.386C431.921 409.303 430.46 423.888 430.46 423.888C430.46 423.888 444.783 421.895 443.322 437.938Z" fill="white" stroke="#333333" stroke-width="2" stroke-linecap="round" stroke-linejoin="round"/>
<mask id="path-112-inside-1_2652_11551" fill="white">
<path fill-rule="evenodd" clip-rule="evenodd" d="M467.561 316.649C467.561 330.857 472.651 342.375 484.018 342.375C493.365 342.375 501.257 334.585 503.766 323.916C504.085 324.02 504.416 324.074 504.757 324.074C507.323 324.074 509.404 320.953 509.404 317.103C509.404 313.252 507.323 310.131 504.757 310.131C504.483 310.131 504.214 310.167 503.953 310.235C501.673 299.131 493.612 290.924 484.018 290.924C472.651 290.924 467.561 302.442 467.561 316.649Z"/>
</mask>
<path fill-rule="evenodd" clip-rule="evenodd" d="M467.561 316.649C467.561 330.857 472.651 342.375 484.018 342.375C493.365 342.375 501.257 334.585 503.766 323.916C504.085 324.02 504.416 324.074 504.757 324.074C507.323 324.074 509.404 320.953 509.404 317.103C509.404 313.252 507.323 310.131 504.757 310.131C504.483 310.131 504.214 310.167 503.953 310.235C501.673 299.131 493.612 290.924 484.018 290.924C472.651 290.924 467.561 302.442 467.561 316.649Z" fill="white"/>
<path d="M503.766 323.916L501.819 323.458C501.947 322.913 502.297 322.447 502.785 322.173C503.273 321.898 503.853 321.841 504.385 322.014L503.766 323.916ZM503.953 310.235L504.459 312.17C503.928 312.309 503.363 312.223 502.897 311.933C502.431 311.643 502.104 311.175 501.994 310.637L503.953 310.235ZM484.018 344.375C477.51 344.375 472.788 341.013 469.796 335.842C466.861 330.768 465.561 323.946 465.561 316.649H469.561C469.561 323.561 470.807 329.601 473.258 333.839C475.653 337.978 479.159 340.375 484.018 340.375V344.375ZM505.713 324.373C503.065 335.633 494.581 344.375 484.018 344.375V340.375C492.15 340.375 499.449 333.537 501.819 323.458L505.713 324.373ZM504.757 326.074C504.199 326.074 503.659 325.984 503.146 325.817L504.385 322.014C504.511 322.055 504.634 322.074 504.757 322.074V326.074ZM511.404 317.103C511.404 319.368 510.796 321.509 509.707 323.142C508.628 324.761 506.917 326.074 504.757 326.074V322.074C505.163 322.074 505.776 321.827 506.379 320.923C506.972 320.033 507.404 318.688 507.404 317.103H511.404ZM504.757 308.131C506.917 308.131 508.628 309.445 509.707 311.064C510.796 312.697 511.404 314.838 511.404 317.103H507.404C507.404 315.517 506.972 314.173 506.379 313.282C505.776 312.378 505.163 312.131 504.757 312.131V308.131ZM503.447 308.3C503.87 308.19 504.308 308.131 504.757 308.131V312.131C504.657 312.131 504.559 312.144 504.459 312.17L503.447 308.3ZM484.018 288.924C494.862 288.924 503.509 298.128 505.912 309.833L501.994 310.637C499.837 300.134 492.362 292.924 484.018 292.924V288.924ZM465.561 316.649C465.561 309.353 466.861 302.53 469.796 297.457C472.788 292.286 477.51 288.924 484.018 288.924V292.924C479.159 292.924 475.653 295.321 473.258 299.46C470.807 303.698 469.561 309.738 469.561 316.649H465.561Z" fill="#333333" mask="url(#path-112-inside-1_2652_11551)"/>
<path d="M478.999 282.575C493.393 277.43 502.812 284.037 502.696 288.324C526.25 293.196 512.367 322.191 503.168 326.344L503.971 323.627C508.753 324.062 509.586 319.099 509.405 316.563C508.97 308.303 505.066 309.746 503.168 311.5C503.168 311.5 495.559 304.631 495.013 298.107C492.245 300.25 484.633 303.986 476.328 301.782C468.024 299.577 470.104 310.756 468.649 316.02L464.985 310.222C462.422 306.164 460.391 301.652 460.42 296.853C460.509 281.971 471.731 280.698 478.999 282.575Z" fill="#333333" stroke="#333333" stroke-width="2" stroke-linejoin="round"/>
<path d="M503.423 316.538C504.372 317.487 504.375 319.023 503.423 319.976" stroke="#333333" stroke-width="2" stroke-linecap="round" stroke-linejoin="round"/>
<circle cx="411.776" cy="395.437" r="2.56585" transform="rotate(-5.49378 411.776 395.437)" fill="white" stroke="#333333" stroke-width="2"/>
<path d="M484.265 667.754C493.267 666.439 488.919 657.006 485.972 652.497C485.024 653.368 475.945 659.04 466.094 652.497C457.323 649.747 443.168 659.262 439.965 663.564C439.429 664.283 439.221 664.882 439.253 665.389C439.553 670.112 447.599 668.871 452.332 668.889C462.66 668.928 477.159 668.793 484.265 667.754Z" fill="white" stroke="#333333" stroke-width="2"/>
<path d="M430.601 628.88C425.845 621.124 435.873 618.42 441.223 617.795C441.162 619.08 442.623 629.685 453.958 633.058C461.688 638.031 463.45 654.995 462.198 660.211C461.989 661.083 461.663 661.626 461.253 661.926C457.434 664.722 453.233 657.749 450.187 654.126C443.541 646.221 434.356 635.001 430.601 628.88Z" fill="white" stroke="#333333" stroke-width="2"/>
<path fill-rule="evenodd" clip-rule="evenodd" d="M484.953 317.12C484.341 318.451 484.186 318.852 482.732 320.286C482.587 320.416 482.581 320.551 482.571 320.821C482.565 320.957 482.555 321.227 482.689 321.368C482.818 321.644 482.953 321.785 483.087 321.926C484.167 322.916 485 323.084 484.829 323.891C484.818 324.161 483.825 324.529 482.723 324.079C482.31 323.928 482.041 323.646 481.772 323.365C481.364 323.078 481.101 322.661 480.977 322.25C480.713 321.833 480.595 321.286 480.611 320.881C480.637 320.204 480.937 319.674 481.377 319.149C482.542 317.975 482.697 317.574 483.298 316.514C483.78 314.907 485.709 315.659 484.953 317.12Z" fill="#333333"/>
<path fill-rule="evenodd" clip-rule="evenodd" d="M487.43 331.346C487.074 332.72 486.718 334.093 484.449 334.004C482.796 333.688 482.986 332.686 482.714 331.919C482.265 331.775 480.914 331.471 480.182 330.812C479.743 330.416 479.612 329.907 480.08 329.547C480.549 329.187 481.592 329.606 482.031 330.001C482.324 330.265 482.772 330.408 483.221 330.552C483.821 330.701 484.577 330.731 485.187 330.628C485.797 330.526 486.411 330.298 486.875 330.064C488.27 329.235 488.899 328.629 489.197 328.767C489.494 328.905 489.777 329.42 489.45 330.038C489.128 330.53 488.352 331.004 487.43 331.346Z" fill="#333333"/>
<path fill-rule="evenodd" clip-rule="evenodd" d="M477.996 314.048C477.845 314.475 477.7 314.758 477.42 315.036C477.135 315.458 476.715 315.875 476.307 316.004C475.759 316.271 475.222 316.25 474.69 316.085C474.025 315.915 473.51 315.317 472.878 314.282L472.75 314.132L472.761 313.844C472.772 313.555 472.784 313.267 472.923 313.128C473.08 312.556 473.64 312.001 474.193 311.589C474.747 311.177 475.43 310.915 476.241 310.802C476.643 310.818 477.18 310.839 477.577 310.999C478.774 311.334 480.832 313.725 480.273 314.281C479.853 314.698 479.048 314.667 477.996 314.048Z" fill="#333333"/>
<path fill-rule="evenodd" clip-rule="evenodd" d="M494.078 314.049C493.927 314.476 493.782 314.759 493.502 315.037C493.217 315.459 492.797 315.876 492.389 316.005C491.841 316.272 491.304 316.251 490.772 316.086C490.107 315.916 489.592 315.318 488.961 314.283L488.832 314.133L488.843 313.845C488.854 313.556 488.866 313.268 489.006 313.129C489.162 312.557 489.722 312.002 490.275 311.59C490.829 311.178 491.512 310.916 492.323 310.803C492.725 310.819 493.262 310.84 493.66 311C494.856 311.335 496.914 313.726 496.355 314.282C495.935 314.699 495.13 314.667 494.078 314.049Z" fill="#333333"/>
<path d="M498.512 313.302L507.207 307.868" stroke="#333333" stroke-width="2" stroke-linecap="round"/>
<rect width="11.9551" height="8.69461" rx="2.17365" transform="matrix(-1 0 0 1 498.512 308.955)" stroke="#333333" stroke-width="2"/>
<path d="M486.557 313.303C485.47 312.215 483.84 312.216 482.753 313.302" stroke="#333333" stroke-width="2" stroke-linecap="round"/>
<rect width="13.0419" height="8.69461" rx="2.17365" transform="matrix(-1 0 0 1 482.21 308.955)" stroke="#333333" stroke-width="2"/>
<rect width="0.913159" height="3.75325" rx="0.456579" transform="matrix(0.88184 -0.47155 0.466496 0.884524 153.066 547.325)" fill="#333333"/>
<rect width="0.913257" height="3.75285" rx="0.456629" transform="matrix(0.872922 -0.487861 0.482735 0.875766 198.654 634.558)" fill="#333333"/>
<path d="M205.037 639.622C196.375 644.212 189.939 646.189 179.357 646.281C168.774 646.373 158.515 643.46 149.713 637.825C140.053 631.637 132.552 622.2 128.461 611.461C124.203 600.283 123.696 587.657 127.123 576.191C130.307 565.523 136.821 555.869 145.547 548.997C146.605 548.168 148.302 547.184 149.419 546.436" stroke="#333333" stroke-linecap="round" stroke-linejoin="round"/>
<path d="M152.298 547.999C153.937 547.999 155.266 546.664 155.266 545.016C155.266 543.369 153.937 542.033 152.298 542.033C150.658 542.033 149.33 543.369 149.33 545.016C149.33 546.664 150.658 547.999 152.298 547.999Z" fill="#E8E8E8" stroke="#333333" stroke-linecap="round" stroke-linejoin="round"/>
<path d="M202.942 643.154C204.581 643.154 205.91 641.819 205.91 640.171C205.91 638.524 204.581 637.188 202.942 637.188C201.303 637.188 199.974 638.524 199.974 640.171C199.974 641.819 201.303 643.154 202.942 643.154Z" fill="#E8E8E8" stroke="#333333" stroke-linecap="round" stroke-linejoin="round"/>
<path d="M129.391 618.529C131.03 618.529 132.359 617.193 132.359 615.546C132.359 613.899 131.03 612.563 129.391 612.563C127.751 612.563 126.422 613.899 126.422 615.546C126.422 617.193 127.751 618.529 129.391 618.529Z" fill="#E8E8E8" stroke="#333333" stroke-linecap="round" stroke-linejoin="round"/>
<path d="M205.773 664.173C204.958 667.308 200.29 667.205 197.802 667.037C193.528 666.755 189.308 666.776 185.023 666.776C175.034 666.776 165.045 666.776 155.056 666.776C154.899 666.776 154.732 666.776 154.608 666.684C154.5 666.608 154.446 666.483 154.397 666.359C153.426 663.858 155.293 661.803 157.581 661.195C164.127 659.454 170.803 658.055 177.398 656.466V646.167H183.334V656.444C183.647 656.808 185.325 656.911 185.811 657.025C188.515 657.659 191.181 658.38 193.922 658.841C196.664 659.302 199.605 659.693 202.373 660.474C203.911 660.908 205.671 661.77 205.838 663.37C205.865 663.641 205.838 663.913 205.773 664.167V664.173Z" fill="#E8E8E8" stroke="#333333" stroke-linecap="round" stroke-linejoin="round"/>
<path d="M215.343 572.996C226.256 594.464 217.752 620.792 196.349 631.801C174.947 642.81 148.75 634.331 137.837 612.863C126.924 591.394 135.429 565.066 156.831 554.058C178.233 543.049 204.43 551.528 215.343 572.996Z" fill="#9ADAF3" stroke="#333333"/>
<path d="M199.666 581.061C205.156 591.862 207.714 602.853 207.433 611.879C207.15 620.925 204.029 627.87 198.31 630.811C192.592 633.752 185.167 632.232 177.71 627.166C170.271 622.111 162.91 613.591 157.419 602.79C151.929 591.989 149.371 580.998 149.653 571.973C149.935 562.926 153.056 555.981 158.775 553.04C164.494 550.099 171.919 551.62 179.375 556.686C186.814 561.74 194.175 570.261 199.666 581.061Z" stroke="#333333"/>
<path fill-rule="evenodd" clip-rule="evenodd" d="M215.018 572.389L137.947 611.992L137.533 611.178L214.604 571.575L215.018 572.389Z" fill="#333333"/>
<path fill-rule="evenodd" clip-rule="evenodd" d="M196.463 631.717L157.087 554.33L157.902 553.911L197.278 631.298L196.463 631.717Z" fill="#333333"/>
<circle cx="564.5" cy="59.5" r="28" fill="#E8E8E8" stroke="#CCCCCC"/>
<circle cx="564.5" cy="59.5" r="23" fill="white" stroke="#CCCCCC"/>
<path d="M570.421 41.6216C570.48 41.3625 570.326 41.1026 570.07 41.0301C569.814 40.9577 569.547 41.0978 569.461 41.3493L560.865 66.4636C560.504 67.5187 561.113 68.6585 562.192 68.9436C563.244 69.2217 564.316 68.5716 564.557 67.5103L570.421 41.6216Z" fill="white" stroke="#CCCCCC" stroke-linejoin="round"/>
<path d="M581.205 59.6298C581.472 59.6169 581.681 59.3969 581.681 59.13C581.681 58.8631 581.471 58.6435 581.205 58.631L558.244 57.5551C557.324 57.512 556.559 58.2535 556.573 59.174C556.586 60.0765 557.345 60.7882 558.246 60.7444L581.205 59.6298Z" fill="white" stroke="#CCCCCC" stroke-linejoin="round"/>
<circle cx="564.5" cy="59.5" r="3" fill="#E8E8E8" stroke="#CCCCCC"/>
<rect x="486.36" y="96.5527" width="4.56167" height="102.987" fill="white" stroke="#333333" stroke-width="2"/>
<path d="M475.026 86.8391L445.834 192.208C445.208 194.466 443.57 196.267 441.532 196.876C378.998 215.563 313.906 197.529 269.905 149.327C268.471 147.756 267.993 145.368 268.618 143.11L293.233 54.2635C295.868 44.7524 306.375 41.2043 312.134 48.1287C324.536 63.0415 336.414 79.5399 348.613 95.894C361.375 113.653 381.469 119.642 401.806 111.898C426.725 102.634 451.244 92.9793 474.944 86.7395C474.998 86.7252 475.043 86.7793 475.026 86.8391Z" fill="#E2E2E2" stroke="#333333" stroke-width="2" stroke-linecap="round" stroke-linejoin="round"/>
<path d="M503.926 195.956C503.879 198.133 503.44 199.264 502.891 199.865C502.368 200.437 501.568 200.717 500.274 200.733C499.032 200.749 497.537 200.522 495.733 200.248C495.634 200.233 495.534 200.218 495.434 200.203C493.531 199.914 491.359 199.6 489.024 199.549C486.79 199.501 484.598 199.674 482.607 199.831C482.527 199.837 482.447 199.843 482.368 199.85C480.283 200.014 478.467 200.145 476.952 200.017C475.437 199.889 474.407 199.514 473.746 198.827C473.096 198.149 472.628 196.981 472.674 194.854C472.767 190.544 474.761 184.276 477.872 179.103C479.422 176.526 481.218 174.274 483.138 172.689C485.06 171.103 487.037 170.24 488.981 170.282C490.915 170.324 492.83 171.289 494.657 172.994C496.481 174.696 498.144 177.074 499.547 179.769C502.364 185.177 504.02 191.635 503.926 195.956Z" fill="url(#paint7_linear_2652_11551)" stroke="#333333" stroke-width="2"/>
<path d="M362.047 10.4881C388.024 4.89032 415.094 12.3901 434.487 30.5576L500.13 92.0524C511.317 102.532 506.128 121.263 491.143 124.492L403.213 143.44C377.236 149.038 350.166 141.538 330.773 123.37L265.13 61.8756C253.944 51.3959 259.133 32.665 274.117 29.436L362.047 10.4881Z" fill="url(#paint8_linear_2652_11551)" stroke="#333333" stroke-width="2"/>
<path d="M593.154 500.93V662.07C593.154 663.969 594.69 665.509 596.584 665.509H622.058C623.952 665.509 625.488 663.969 625.488 662.07V500.93C625.488 499.031 623.952 497.491 622.058 497.491H596.584C594.69 497.491 593.154 499.031 593.154 500.93Z" fill="url(#paint9_linear_2652_11551)" stroke="#333333" stroke-linecap="round" stroke-linejoin="round"/>
<path d="M593.154 651.262V658.14H625.488V651.262H593.154Z" fill="white" stroke="#333333" stroke-linecap="round" stroke-linejoin="round"/>
<path d="M593.154 637.506V644.384H625.488V637.506H593.154Z" fill="white" stroke="#333333" stroke-linecap="round" stroke-linejoin="round"/>
<path d="M593.154 623.75V630.628H625.488V623.75H593.154Z" fill="white" stroke="#333333" stroke-linecap="round" stroke-linejoin="round"/>
<path d="M599.523 506.118V540.94C599.523 542.177 600.523 543.18 601.757 543.18H616.885C618.119 543.18 619.119 542.177 619.119 540.94V506.118C619.119 504.881 618.119 503.878 616.885 503.878H601.757C600.523 503.878 599.523 504.881 599.523 506.118Z" fill="white" stroke="#333333" stroke-linecap="round" stroke-linejoin="round"/>
<path d="M573.558 665.681H577.477C586.139 665.681 593.154 658.645 593.154 649.96V518.297H587.53C586.305 518.297 585.316 519.289 585.316 520.517V524.192H563.76V520.517C563.76 519.289 562.771 518.297 561.546 518.297H560.086C558.861 518.297 557.872 519.289 557.872 520.517V649.96C557.872 658.645 564.887 665.681 573.548 665.681H573.558Z" fill="#9ADAF3" stroke="#333333" stroke-linecap="round" stroke-linejoin="round"/>
<path d="M564.25 524.192V648.424C564.25 651.984 567.238 654.873 570.922 654.873H579.133C582.817 654.873 585.316 651.984 585.316 648.424V524.192H564.25Z" fill="white" stroke="#333333" stroke-linecap="round" stroke-linejoin="round"/>
<path d="M569.639 530.087V648.977" stroke="#333333" stroke-linecap="round" stroke-linejoin="round"/>
<path d="M574.538 617.535V648.977" stroke="#333333" stroke-linecap="round" stroke-linejoin="round"/>
<path d="M574.538 578.724V610.166" stroke="#333333" stroke-linecap="round" stroke-linejoin="round"/>
<path d="M574.538 539.913V571.355" stroke="#333333" stroke-linecap="round" stroke-linejoin="round"/>
<path d="M579.437 530.087V582.163" stroke="#333333" stroke-linecap="round" stroke-linejoin="round"/>
<path d="M579.437 596.41V648.486" stroke="#333333" stroke-linecap="round" stroke-linejoin="round"/>
<path d="M529.095 539.979L512.504 658.852C512.285 660.421 513.376 661.871 514.941 662.09L537.415 665.238C538.98 665.457 540.426 664.363 540.645 662.794L557.236 543.921C557.455 542.351 556.364 540.902 554.799 540.682L532.325 537.534C530.761 537.315 529.314 538.41 529.095 539.979Z" fill="#E8E8E8" stroke="#333333" stroke-linecap="round" stroke-linejoin="round"/>
<path d="M530.271 581.177L525.458 615.664C525.287 616.889 526.138 618.021 527.36 618.192L537.491 619.611C538.713 619.782 539.842 618.928 540.013 617.702L544.826 583.216C544.997 581.991 544.145 580.859 542.923 580.688L532.793 579.269C531.571 579.097 530.442 579.952 530.271 581.177Z" fill="white" stroke="#333333" stroke-linecap="round" stroke-linejoin="round"/>
<path d="M514.145 647.097L513.194 653.908L541.335 657.85L542.285 651.038L514.145 647.097Z" fill="white" stroke="#333333" stroke-linecap="round" stroke-linejoin="round"/>
<path d="M515.775 635.42L514.824 642.231L542.965 646.173L543.915 639.361L515.775 635.42Z" fill="white" stroke="#333333" stroke-linecap="round" stroke-linejoin="round"/>
<path d="M526.776 556.599L525.825 563.411L553.966 567.352L554.916 560.541L526.776 556.599Z" fill="white" stroke="#333333" stroke-linecap="round" stroke-linejoin="round"/>
<path d="M528.405 544.922L527.455 551.734L555.595 555.676L556.546 548.864L528.405 544.922Z" fill="white" stroke="#333333" stroke-linecap="round" stroke-linejoin="round"/>
</g>
<defs>
<linearGradient id="paint0_linear_2652_11551" x1="599" y1="244.969" x2="549.536" y2="313.168" gradientUnits="userSpaceOnUse">
<stop stop-color="#FFC671"/>
<stop offset="0.59375" stop-color="#FF7541"/>
<stop offset="1" stop-color="#FF6F3D"/>
</linearGradient>
<linearGradient id="paint1_linear_2652_11551" x1="79.8423" y1="364.951" x2="94.336" y2="382.455" gradientUnits="userSpaceOnUse">
<stop stop-color="#FFC671"/>
<stop offset="0.59375" stop-color="#FF7541"/>
<stop offset="1" stop-color="#FF6F3D"/>
</linearGradient>
<linearGradient id="paint2_linear_2652_11551" x1="79.0941" y1="366.172" x2="60.2948" y2="378.941" gradientUnits="userSpaceOnUse">
<stop stop-color="#FFC671"/>
<stop offset="0.59375" stop-color="#FF7541"/>
<stop offset="1" stop-color="#FF6F3D"/>
</linearGradient>
<linearGradient id="paint3_linear_2652_11551" x1="70.7359" y1="370.273" x2="95.8934" y2="375.5" gradientUnits="userSpaceOnUse">
<stop stop-color="#FFC671"/>
<stop offset="0.59375" stop-color="#FF7541"/>
<stop offset="1" stop-color="#FF6F3D"/>
</linearGradient>
<linearGradient id="paint4_linear_2652_11551" x1="76.2632" y1="370.44" x2="99.1665" y2="375.199" gradientUnits="userSpaceOnUse">
<stop stop-color="#FFC671"/>
<stop offset="0.59375" stop-color="#FF7541"/>
<stop offset="1" stop-color="#FF6F3D"/>
</linearGradient>
<linearGradient id="paint5_linear_2652_11551" x1="73.877" y1="367.633" x2="80.3883" y2="377.781" gradientUnits="userSpaceOnUse">
<stop stop-color="#FFC671"/>
<stop offset="0.59375" stop-color="#FF7541"/>
<stop offset="1" stop-color="#FF6F3D"/>
</linearGradient>
<linearGradient id="paint6_linear_2652_11551" x1="446.526" y1="369.388" x2="397.531" y2="434.934" gradientUnits="userSpaceOnUse">
<stop stop-color="#FFC671"/>
<stop offset="0.59375" stop-color="#FF7541"/>
<stop offset="1" stop-color="#FF6F3D"/>
</linearGradient>
<linearGradient id="paint7_linear_2652_11551" x1="472.264" y1="167.661" x2="503.655" y2="202.857" gradientUnits="userSpaceOnUse">
<stop stop-color="#FFC671"/>
<stop offset="0.59375" stop-color="#FF7541"/>
<stop offset="1" stop-color="#FF6F3D"/>
</linearGradient>
<linearGradient id="paint8_linear_2652_11551" x1="259.433" y1="-45.9765" x2="314.878" y2="232.304" gradientUnits="userSpaceOnUse">
<stop stop-color="#FFC671"/>
<stop offset="0.59375" stop-color="#FF7541"/>
<stop offset="1" stop-color="#FF6F3D"/>
</linearGradient>
<linearGradient id="paint9_linear_2652_11551" x1="591.891" y1="665.508" x2="654.459" y2="653.921" gradientUnits="userSpaceOnUse">
<stop stop-color="#FFC671"/>
<stop offset="0.59375" stop-color="#FF7541"/>
<stop offset="1" stop-color="#FF6F3D"/>
</linearGradient>
<clipPath id="clip0_2652_11551">
<rect width="640" height="690" fill="white"/>
</clipPath>
<clipPath id="clip1_2652_11551">
<rect width="605" height="433" fill="white" transform="matrix(-1 0 0 1 622.978 104)"/>
</clipPath>
</defs>
</svg>
