<svg width="188" height="47" viewBox="0 0 188 47" fill="none" xmlns="http://www.w3.org/2000/svg">
<g clip-path="url(#clip0_3810_41823)">
<path d="M44.2208 46.195V30.0462C44.2208 26.6762 42.7854 24.9764 39.9453 24.9764C37.0898 24.9764 35.6545 26.6613 35.6545 30.0462V46.195H27.2409V30.0462C27.2409 26.6762 25.8361 24.9764 23.0265 24.9764C20.1711 24.9764 18.751 26.6613 18.751 30.0462V46.195H10.3374V29.0919C10.3374 25.5728 11.5895 22.9037 14.0937 21.0995C16.2926 19.4891 19.2854 18.6689 23.0417 18.6689C26.8439 18.6689 29.6535 19.6233 31.4553 21.5319C33.0128 19.6233 35.8377 18.6689 39.9453 18.6689C43.7016 18.6689 46.6792 19.4741 48.878 21.0995C51.3822 22.9037 52.6343 25.5728 52.6343 29.0919V46.195H44.2208Z" fill="#F98012"/>
<path d="M147.367 46.1202V0H155.796V46.1202H147.367Z" fill="#F98012"/>
<path d="M136.633 46.1202V43.4064C135.885 44.3905 134.602 45.1659 132.8 45.7624C131.197 46.2992 129.67 46.5676 128.219 46.5676C124.203 46.5676 120.981 45.2256 118.554 42.5266C116.126 39.8426 114.904 36.5025 114.904 32.5362C114.904 28.6145 116.095 25.3341 118.477 22.6948C120.584 20.3537 124.035 18.7284 127.99 18.7284C132.449 18.7284 135.06 20.3687 136.633 22.2475V0H144.833V46.1202H136.633ZM136.633 30.7617C136.633 29.3004 135.915 27.8839 134.495 26.5419C133.075 25.1999 131.594 24.5289 130.097 24.5289C127.944 24.5289 126.234 25.3937 124.982 27.0936C123.883 28.6145 123.333 30.4784 123.333 32.6704C123.333 34.8325 123.883 36.6666 124.982 38.1726C126.234 39.9321 127.944 40.8119 130.097 40.8119C131.395 40.8119 132.815 40.2154 134.342 39.0076C135.869 37.8147 136.633 36.5771 136.633 35.2947V30.7617Z" fill="#F98012"/>
<path d="M99.0389 46.851C94.7787 46.851 91.2514 45.5239 88.4723 42.8846C85.6933 40.2454 84.3037 36.8456 84.3037 32.6705C84.3037 28.5103 85.6933 25.1105 88.4723 22.4713C91.2514 19.832 94.7787 18.5049 99.0389 18.5049C103.299 18.5049 106.842 19.832 109.636 22.4713C112.446 25.1105 113.851 28.5252 113.851 32.6705C113.851 36.8307 112.446 40.2304 109.636 42.8846C106.826 45.5239 103.299 46.851 99.0389 46.851ZM99.0389 25.1105C97.0081 25.1105 95.4506 25.8561 94.3512 27.3621C93.267 28.8681 92.7173 30.6426 92.7173 32.7152C92.7173 34.7879 93.2212 36.5325 94.2443 37.949C95.4048 39.5744 97.0081 40.3796 99.0389 40.3796C101.07 40.3796 102.658 39.5744 103.834 37.949C104.903 36.5176 105.437 34.773 105.437 32.7152C105.437 30.6426 104.933 28.898 103.91 27.4814C102.734 25.9008 101.116 25.1105 99.0389 25.1105Z" fill="#F98012"/>
<path d="M68.576 46.851C64.3158 46.851 60.7885 45.5239 58.0094 42.8846C55.2304 40.2454 53.8408 36.8456 53.8408 32.6705C53.8408 28.5103 55.2304 25.1105 58.0094 22.4713C60.7885 19.832 64.3158 18.5049 68.576 18.5049C72.8363 18.5049 76.3636 19.832 79.1732 22.4713C81.9828 25.1105 83.3876 28.5252 83.3876 32.6705C83.3876 36.8307 81.9828 40.2304 79.1732 42.8846C76.3788 45.5239 72.8363 46.851 68.576 46.851ZM68.576 25.1105C66.5452 25.1105 64.9877 25.8561 63.8883 27.3621C62.8041 28.8681 62.2544 30.6426 62.2544 32.7152C62.2544 34.7879 62.7583 36.5325 63.7814 37.949C64.9419 39.5744 66.5452 40.3796 68.576 40.3796C70.6069 40.3796 72.195 39.5744 73.3707 37.949C74.4396 36.5176 74.974 34.773 74.974 32.7152C74.974 30.6426 74.4701 28.898 73.4471 27.4814C72.2866 25.9008 70.668 25.1105 68.576 25.1105Z" fill="#F98012"/>
<path d="M165.767 35.1752C165.951 37.1286 168.546 41.3485 172.837 41.3485C177.006 41.3485 178.976 38.9925 179.082 38.0382L187.954 37.9636C186.992 40.8564 183.053 46.9998 172.684 46.9998C168.378 46.9998 164.424 45.6876 161.599 43.0782C158.774 40.4538 157.354 37.0391 157.354 32.8342C157.354 28.4801 158.774 25.0207 161.599 22.4411C164.439 19.8764 168.104 18.5791 172.623 18.5791C177.54 18.5791 181.373 20.1746 184.121 23.3507C186.671 26.2882 187.954 30.2247 187.954 35.1752H165.767ZM179.525 30.1054C179.174 28.3459 178.426 26.8995 177.265 25.7663C175.952 24.5436 174.456 23.9322 172.746 23.9322C170.99 23.9322 169.524 24.5138 168.348 25.6917C167.172 26.8697 166.378 28.331 165.981 30.1054H179.525Z" fill="#F98012"/>
<path d="M26.6761 17.4312L35.0286 11.4668L34.9217 11.1089C19.8506 12.9131 12.9945 14.1955 0 21.5467L0.122157 21.8747L1.16049 21.8897C1.06888 22.9036 0.90091 25.4087 1.11468 29.1961C-0.320663 33.2669 1.08415 36.0404 2.39734 39.0524C2.61111 35.9211 2.58057 32.4915 1.60331 29.0768C1.40481 25.3341 1.57277 22.8589 1.66439 21.9046L10.2765 21.9791C10.2765 21.9791 10.2154 24.514 10.5361 26.9147C18.232 29.554 25.9737 26.8998 30.0812 20.3985C28.9207 19.1311 26.6761 17.4312 26.6761 17.4312Z" fill="#333333"/>
</g>
<defs>
<clipPath id="clip0_3810_41823">
<rect width="188" height="47" fill="white"/>
</clipPath>
</defs>
</svg>
