<svg width="136" height="40" viewBox="0 0 136 40" fill="none" xmlns="http://www.w3.org/2000/svg">
<mask id="mask0_6836_140988" style="mask-type:luminance" maskUnits="userSpaceOnUse" x="28" y="7" width="80" height="26">
<path d="M107.5 7.5H28.5V32.5H107.5V7.5Z" fill="white"/>
</mask>
<g mask="url(#mask0_6836_140988)">
<path d="M97.7505 32.4073C95.872 32.4073 94.036 31.8529 92.4745 30.8139C90.9125 29.7751 89.6955 28.2986 88.9765 26.571C88.258 24.8435 88.07 22.9425 88.4365 21.1086C88.803 19.2747 89.707 17.5901 91.035 16.2679C92.3635 14.9457 94.0555 14.0452 95.898 13.6805C97.74 13.3156 99.6495 13.5029 101.384 14.2184C103.12 14.934 104.603 16.1458 105.646 17.7005C106.69 19.2553 107.247 21.0832 107.247 22.953C107.247 25.4605 106.246 27.8652 104.465 29.6383C102.684 31.4111 100.269 32.4073 97.7505 32.4073ZM97.7505 28.4995C98.8525 28.4995 99.9295 28.1742 100.845 27.5648C101.762 26.9553 102.476 26.0891 102.897 25.0756C103.319 24.0621 103.429 22.9469 103.214 21.871C103 20.795 102.469 19.8068 101.69 19.0311C100.911 18.2554 99.918 17.7271 98.8375 17.5131C97.7565 17.2991 96.6365 17.4089 95.6185 17.8288C94.6005 18.2485 93.7305 18.9595 93.118 19.8716C92.5055 20.7837 92.179 21.856 92.179 22.953C92.179 24.4241 92.766 25.8348 93.811 26.875C94.8555 27.9152 96.273 28.4995 97.7505 28.4995ZM77.871 32.4073C75.9925 32.4073 74.1565 31.8529 72.595 30.8139C71.033 29.7751 69.816 28.2986 69.097 26.571C68.3785 24.8435 68.1905 22.9425 68.557 21.1086C68.923 19.2747 69.8275 17.5901 71.1555 16.2679C72.484 14.9457 74.176 14.0452 76.018 13.6805C77.8605 13.3156 79.7695 13.5029 81.505 14.2184C83.2405 14.934 84.7235 16.1458 85.767 17.7005C86.8105 19.2553 87.3675 21.0832 87.3675 22.953C87.3675 25.4605 86.367 27.8652 84.586 29.6383C82.805 31.4111 80.3895 32.4073 77.871 32.4073ZM77.871 28.4995C78.9725 28.4995 80.05 28.1742 80.966 27.5648C81.8825 26.9553 82.5965 26.0891 83.018 25.0756C83.4395 24.0621 83.55 22.9469 83.335 21.871C83.12 20.795 82.5895 19.8068 81.8105 19.0311C81.0315 18.2554 80.0385 17.7271 78.958 17.5131C77.877 17.2991 76.757 17.4089 75.739 17.8288C74.7205 18.2485 73.8505 18.9595 73.2385 19.8716C72.626 20.7837 72.2995 21.856 72.2995 22.953C72.2995 24.4241 72.8865 25.8348 73.9315 26.875C74.976 27.9152 76.393 28.4995 77.871 28.4995ZM67.488 22.827C67.488 28.1088 63.2335 32.4073 57.991 32.4073C52.749 32.4073 48.4946 28.1214 48.4946 22.8396C48.4946 17.5578 52.3565 13.4988 57.991 13.4988C60.068 13.4988 61.9925 13.94 63.5625 15.0871V9.60364C63.5625 8.55739 64.487 7.7002 65.525 7.7002C66.5635 7.7002 67.488 8.55739 67.488 9.60364V22.827ZM57.991 28.4995C59.093 28.4995 60.1705 28.1742 61.0865 27.5648C62.0025 26.9553 62.7165 26.0891 63.1385 25.0756C63.56 24.0621 63.6705 22.9469 63.4555 21.871C63.2405 20.795 62.71 19.8068 61.931 19.0311C61.1515 18.2554 60.159 17.7271 59.0785 17.5131C57.9975 17.2991 56.877 17.4089 55.859 17.8288C54.841 18.2485 53.971 18.9595 53.359 19.8716C52.7465 20.7837 52.42 21.856 52.42 22.953C52.42 24.4241 53.007 25.8348 54.052 26.875C55.0965 27.9152 56.5135 28.4995 57.991 28.4995Z" fill="#8F8F8F"/>
<path d="M38.1113 32.4074C36.2331 32.4074 34.397 31.8529 32.8353 30.8139C31.2736 29.7752 30.0564 28.2986 29.3376 26.5711C28.6188 24.8435 28.4308 22.9426 28.7972 21.1086C29.1636 19.2747 30.0681 17.5901 31.3962 16.2679C32.7243 14.9457 34.4165 14.0453 36.2586 13.6805C38.1008 13.3157 40.0103 13.5029 41.7455 14.2185C43.4808 14.934 44.964 16.1458 46.0075 17.7006C47.051 19.2553 47.6079 21.0832 47.6079 22.9531C47.6079 25.4605 46.6074 27.8652 44.8265 29.6383C43.0455 31.4112 40.63 32.4074 38.1113 32.4074ZM38.1113 28.4996C39.2133 28.4996 40.2904 28.1743 41.2066 27.5648C42.1228 26.9554 42.8369 26.0891 43.2586 25.0756C43.6803 24.0621 43.7906 22.9469 43.5756 21.871C43.3607 20.7951 42.83 19.8068 42.0509 19.0311C41.2717 18.2554 40.279 17.7272 39.1983 17.5132C38.1175 17.2991 36.9973 17.409 35.9793 17.8288C34.9612 18.2486 34.0911 18.9595 33.4789 19.8716C32.8668 20.7837 32.54 21.8561 32.54 22.9531C32.54 24.4241 33.127 25.8349 34.1718 26.875C35.2166 27.9152 36.6337 28.4996 38.1113 28.4996Z" fill="#A24689"/>
</g>
</svg>
