<svg width="272" height="80" viewBox="0 0 272 80" fill="none" xmlns="http://www.w3.org/2000/svg">
<path fill-rule="evenodd" clip-rule="evenodd" d="M77.391 57.7471C74.143 57.7471 71.51 60.3766 71.51 63.6202C71.51 66.8638 74.143 69.4933 77.391 69.4933C80.639 69.4933 83.272 66.8638 83.272 63.6202C83.272 60.3766 80.639 57.7471 77.391 57.7471ZM70.002 63.6202C70.002 59.5448 73.3101 56.2411 77.391 56.2411C81.4718 56.2411 84.78 59.5448 84.78 63.6202C84.78 67.6956 81.4718 70.9993 77.391 70.9993C73.3101 70.9993 70.002 67.6956 70.002 63.6202Z" fill="white"/>
<path fill-rule="evenodd" clip-rule="evenodd" d="M158.074 57.7465C154.826 57.7465 152.193 60.3762 152.193 63.6202C152.193 66.8642 154.826 69.4939 158.074 69.4939C161.323 69.4939 163.956 66.8642 163.956 63.6202C163.956 60.3762 161.323 57.7465 158.074 57.7465ZM150.685 63.6202C150.685 59.5445 153.993 56.2405 158.074 56.2405C162.155 56.2405 165.464 59.5445 165.464 63.6202C165.464 67.6959 162.155 70.9999 158.074 70.9999C153.993 70.9999 150.685 67.6959 150.685 63.6202Z" fill="white"/>
<path fill-rule="evenodd" clip-rule="evenodd" d="M88.0982 65.9904V56.9321H89.6063V65.9904C89.6063 67.9241 91.176 69.4913 93.1118 69.4913C95.0489 69.4913 96.618 67.9241 96.618 65.9904V56.9322C96.618 56.9321 96.618 56.9321 97.372 56.9321C98.126 56.9321 98.126 56.9321 98.126 56.9322V65.9903C98.126 68.7559 95.8816 70.9973 93.1118 70.9973C90.3432 70.9973 88.0982 68.756 88.0982 65.9904Z" fill="white"/>
<path fill-rule="evenodd" clip-rule="evenodd" d="M96.618 65.9904V56.9322H98.126V65.9903C98.126 67.9239 99.6956 69.4913 101.632 69.4913C103.569 69.4913 105.138 67.9241 105.138 65.9904V56.9322C105.138 56.9321 105.138 56.9321 105.892 56.9321C106.646 56.9321 106.646 56.9321 106.646 56.9322V65.9903C106.646 68.756 104.401 70.9973 101.632 70.9973C98.8631 70.9973 96.618 68.7561 96.618 65.9904Z" fill="white"/>
<path fill-rule="evenodd" clip-rule="evenodd" d="M143.674 65.9904V44.8828H145.182V65.9904C145.182 67.9241 146.751 69.4912 148.687 69.4912V70.9972C145.918 70.9972 143.674 68.7559 143.674 65.9904Z" fill="white"/>
<path fill-rule="evenodd" clip-rule="evenodd" d="M117.506 57.6857C114.258 57.6857 111.625 60.3154 111.625 63.5591V70.246H110.117V63.5591C110.117 59.4836 113.425 56.1797 117.506 56.1797C121.587 56.1797 124.896 59.4836 124.896 63.5591V70.2457C124.896 70.2458 124.896 70.246 124.142 70.246C123.388 70.246 123.388 70.246 123.388 70.246V63.5591C123.388 60.3154 120.755 57.6857 117.506 57.6857Z" fill="white"/>
<path fill-rule="evenodd" clip-rule="evenodd" d="M168.328 63.6202V56.9321H169.836V63.6202C169.836 66.8633 172.469 69.4931 175.717 69.4931C178.965 69.4931 181.599 66.8632 181.599 63.6202V56.9324C181.599 56.9323 181.599 56.9321 182.353 56.9321C183.107 56.9321 183.107 56.9321 183.107 56.9322V63.6202C183.107 67.6952 179.798 70.9991 175.717 70.9991C171.636 70.9991 168.328 67.6951 168.328 63.6202Z" fill="white"/>
<path fill-rule="evenodd" clip-rule="evenodd" d="M128.111 59.6546C128.111 53.3887 133.198 48.3096 139.472 48.3096V49.8156C134.03 49.8156 129.619 54.2206 129.619 59.6546C129.619 65.0885 134.03 69.493 139.472 69.493V70.999C133.198 70.999 128.111 65.9205 128.111 59.6546Z" fill="white"/>
<path fill-rule="evenodd" clip-rule="evenodd" d="M199.476 44.8828H200.984V56.9826H199.476V44.8828Z" fill="white"/>
<path fill-rule="evenodd" clip-rule="evenodd" d="M200.984 56.9781L200.23 56.9827C200.984 56.9781 200.984 56.978 200.984 56.9781V56.9784L200.985 57.2721C200.986 57.4607 200.988 57.7326 200.989 58.0661C200.993 58.7329 200.996 59.6457 200.999 60.6298C201.004 62.5944 201.004 64.8539 200.983 66.0007C200.958 67.3944 200.228 68.64 199.286 69.5183C198.349 70.3914 197.101 70.9954 195.899 70.9954H193.532C189.451 70.9954 186.143 67.6915 186.143 63.6166C186.143 59.5413 189.451 56.2374 193.531 56.2372C193.532 56.2372 193.532 56.2372 193.532 56.2372L200.979 56.2288L200.984 56.9781ZM199.48 57.7365L193.532 57.7432C190.284 57.7432 187.651 60.3729 187.651 63.6166C187.651 66.8597 190.284 69.4894 193.532 69.4894H195.899C196.624 69.4894 197.521 69.1031 198.257 68.4172C198.988 67.7365 199.46 66.8543 199.476 65.9733C199.496 64.8452 199.496 62.6025 199.491 60.6337C199.488 59.6511 199.485 58.7394 199.481 58.0733C199.481 57.9527 199.48 57.84 199.48 57.7365Z" fill="white"/>
<path d="M152.603 19.7463C147.351 19.7463 142.658 22.1608 139.557 25.9485C138.411 24.1802 137.744 22.0671 137.744 19.7971C137.744 13.578 142.747 8.53638 148.918 8.53638C155.09 8.53638 160.092 13.578 160.092 19.7971C160.092 20.3575 160.052 20.9083 159.973 21.4467C157.746 20.3573 155.245 19.7463 152.603 19.7463Z" fill="white"/>
<path d="M161.366 22.2117C162.228 22.739 163.038 23.3417 163.79 24.0106C165.042 25.1256 166.129 26.4246 167.009 27.8658C168.6 27.1526 170.352 26.7386 172.195 26.6946C171.324 21.4182 166.812 17.3823 161.35 17.2967C161.509 18.1053 161.593 18.9414 161.593 19.7971C161.593 20.6226 161.515 21.4298 161.366 22.2117Z" fill="white"/>
<path d="M138.608 27.2262C137.397 25.5224 136.591 23.5059 136.333 21.32C136.088 21.3241 135.844 21.3355 135.603 21.3542C134.445 21.4433 133.332 21.6971 132.288 22.0923C131.531 22.3789 130.81 22.7399 130.134 23.1664C128.37 24.2798 126.911 25.8399 125.914 27.6894C125.557 28.351 125.26 29.0496 125.029 29.7781C124.657 30.949 124.456 32.197 124.456 33.4923C124.456 37.1573 126.063 40.4442 128.606 42.676C129.705 40.2324 131.994 38.4483 134.728 38.0749C135.06 38.0295 135.399 38.005 135.743 38.0027C135.715 37.5988 135.701 37.1911 135.701 36.78C135.701 33.2391 136.773 29.9507 138.608 27.2262Z" fill="white"/>
<path d="M135.917 39.5155C135.877 39.5147 135.837 39.5143 135.797 39.5143C135.533 39.5143 135.272 39.5305 135.016 39.562C132.644 39.8533 130.674 41.4538 129.838 43.6246C129.649 44.1141 129.518 44.6325 129.453 45.1715C129.422 45.4282 129.407 45.6895 129.407 45.9546C129.407 47.444 129.908 48.8152 130.751 49.9062C131.92 51.4206 133.746 52.3949 135.797 52.3949C138.082 52.3949 140.088 51.1861 141.217 49.3683C138.461 46.835 136.539 43.3946 135.917 39.5155Z" fill="white"/>
<path d="M137.618 14.0086C136.854 13.6625 136.008 13.47 135.117 13.47C131.748 13.47 129.016 16.2225 129.016 19.6179C129.016 20.3982 129.161 21.1446 129.424 21.8314C131.415 20.5953 133.747 19.8627 136.244 19.8096L136.244 19.7971C136.244 17.7134 136.739 15.7463 137.618 14.0086Z" fill="white"/>
<path d="M181.95 50.228C184.51 47.7389 186.103 44.2451 186.103 40.3764C186.103 39.8755 186.076 39.3808 186.024 38.8938C186.051 38.8934 186.077 38.8933 186.104 38.8933C189.634 38.8933 192.495 41.7768 192.495 45.3339C192.495 48.8909 189.634 51.7744 186.104 51.7744C184.518 51.7744 183.067 51.1921 181.95 50.228Z" fill="white"/>
<path d="M164.526 48.8529C164.414 48.9653 164.3 49.0761 164.185 49.1853C166.353 51.2702 169.29 52.5503 172.523 52.5503C179.194 52.5503 184.603 47.0999 184.603 40.3764C184.603 33.653 179.194 28.2025 172.523 28.2025C170.824 28.2025 169.207 28.5559 167.741 29.1936C168.87 31.4781 169.506 34.0543 169.506 36.78C169.506 41.4834 167.614 45.7415 164.555 48.8236C164.545 48.8334 164.535 48.8432 164.526 48.8529Z" fill="white"/>
<path d="M123.474 29.7336C117.514 29.9745 112.756 34.9199 112.756 40.9854C112.756 47.2047 117.759 52.2464 123.93 52.2464C125.959 52.2464 127.861 51.7016 129.501 50.7492C128.5 49.4162 127.906 47.7553 127.906 45.9546C127.906 45.3569 127.972 44.7745 128.096 44.2144C124.964 41.7073 122.956 37.8361 122.956 33.4923C122.956 32.1888 123.137 30.9278 123.474 29.7336Z" fill="white"/>
<path d="M168.005 36.78C168.005 45.3517 161.109 52.3003 152.603 52.3003C144.097 52.3003 137.201 45.3517 137.201 36.78C137.201 28.2074 144.097 21.2582 152.603 21.2582C161.109 21.2582 168.005 28.2074 168.005 36.78Z" fill="white"/>
</svg>
