<svg width="190" height="41" viewBox="0 0 190 41" fill="none" xmlns="http://www.w3.org/2000/svg">
<g clip-path="url(#clip0_5352_12024)">
<path fill-rule="evenodd" clip-rule="evenodd" d="M32.1381 7.32461C34.1548 7.32461 35.7897 5.69084 35.7897 3.67549C35.7897 1.66014 34.1548 0.0263672 32.1381 0.0263672C30.1213 0.0263672 28.4863 1.66014 28.4863 3.67549C28.4863 5.69084 30.1213 7.32461 32.1381 7.32461Z" fill="white"/>
<path fill-rule="evenodd" clip-rule="evenodd" d="M35.4167 9.15234H28.8606V31.63H35.4167V9.15234Z" fill="white"/>
<path fill-rule="evenodd" clip-rule="evenodd" d="M137.644 7.32461C139.66 7.32461 141.295 5.69084 141.295 3.67549C141.295 1.66014 139.66 0.0263672 137.644 0.0263672C135.627 0.0263672 133.992 1.66014 133.992 3.67549C133.992 5.69084 135.627 7.32461 137.644 7.32461Z" fill="white"/>
<path fill-rule="evenodd" clip-rule="evenodd" d="M140.922 9.15234H134.366V31.63H140.922V9.15234Z" fill="white"/>
<path fill-rule="evenodd" clip-rule="evenodd" d="M188.599 19.6501C188.599 13.2343 183.48 8.6582 177.33 8.6582C170.416 8.6582 165.386 13.4589 165.386 20.3686C165.386 27.1891 170.102 32.0789 177.33 32.0789C183.48 32.0789 187.566 28.2659 188.329 24.048H181.998C181.279 25.8879 179.168 26.92 177.195 26.92C174.545 26.8754 172.57 25.3048 171.988 21.8946H188.554L188.599 19.6501ZM172.121 17.8104C172.84 14.4911 175.309 13.6836 177.328 13.6836C179.394 13.6836 181.819 14.7158 182.131 17.8104H172.121Z" fill="white"/>
<path fill-rule="evenodd" clip-rule="evenodd" d="M160.537 9.15234H167.272L158.111 31.63H151.199L142.039 9.15234H149.089L154.79 24.0463L160.537 9.15234Z" fill="white"/>
<path fill-rule="evenodd" clip-rule="evenodd" d="M124.486 12.7406C126.013 10.3625 128.437 8.83643 131.22 8.83643C131.714 8.83643 132.342 8.88096 132.747 9.01656V15.1632C132.209 15.0741 131.625 15.0296 131.086 15.0296C126.866 15.0296 124.666 18.1263 124.666 22.5666V31.6298H118.157V15.0741C118.157 14.7159 118.021 14.6248 117.618 14.6248H115.372V9.15216H121.029C123.319 9.15216 124.486 10.2289 124.486 12.2487V12.7406Z" fill="white"/>
<path fill-rule="evenodd" clip-rule="evenodd" d="M114.203 26.1551C113.845 26.1551 113.754 26.066 113.754 25.7057V3.27469C113.754 1.0322 112.587 0 110.207 0H104.506V5.42814H106.616C107.019 5.42814 107.155 5.56172 107.155 5.92199V11.2165C106.302 10.0953 103.923 8.65832 100.735 8.65832C94.4035 8.65832 89.7798 13.4591 89.7798 20.3686C89.7798 27.412 94.2253 32.0791 100.555 32.0791C104.101 32.0791 106.616 30.2838 107.558 28.8043C107.647 29.792 108.322 31.6319 110.746 31.6319H116.538V26.1591H114.203V26.1551ZM101.901 26.6934C98.758 26.6934 96.4695 24.2709 96.4695 20.3667C96.4695 16.6427 98.8046 14.131 101.946 14.131C105.492 14.131 107.289 17.2721 107.289 20.3222C107.289 25.0783 104.417 26.6934 101.901 26.6934Z" fill="white"/>
<path fill-rule="evenodd" clip-rule="evenodd" d="M88.3401 19.6501C88.3401 13.2343 83.2222 8.6582 77.0712 8.6582C70.1568 8.6582 65.1279 13.4589 65.1279 20.3686C65.1279 27.1891 69.8429 32.0789 77.0712 32.0789C83.2222 32.0789 87.3072 28.2659 88.0708 24.048H81.7396C81.0207 25.8879 78.9103 26.92 76.9356 26.92C74.2864 26.8754 72.3118 25.3048 71.7285 21.8946H88.2957L88.3401 19.6501ZM71.8641 17.8104C72.5831 14.4911 75.0521 13.6836 77.0712 13.6836C79.1371 13.6836 81.5614 14.7158 81.8754 17.8104H71.8641Z" fill="white"/>
<path fill-rule="evenodd" clip-rule="evenodd" d="M53.0989 8.6582C49.417 8.6582 46.8124 10.587 45.826 12.2466C45.6458 11.3035 45.018 9.15 42.5045 9.15H37.0281V14.6247H39.2721C39.6752 14.6247 39.7663 14.7138 39.7663 15.074V40.8263H46.3222V30.8667L46.2778 29.2515C47.2195 30.8221 49.735 32.0789 52.7871 32.0789C59.2074 32.0789 63.6975 27.3228 63.6975 20.3686C63.6936 13.3678 59.4281 8.6582 53.0989 8.6582ZM51.4362 26.6933C47.8898 26.6933 46.1825 23.5077 46.1825 20.4576C46.1825 15.7924 49.0119 14.1309 51.5254 14.1309C54.5775 14.1309 57.0018 16.689 57.0018 20.411C57.0038 24.8091 54.0408 26.6933 51.4362 26.6933Z" fill="white"/>
<path fill-rule="evenodd" clip-rule="evenodd" d="M27.326 20.3689C27.326 27.3231 22.8359 32.0794 16.4156 32.0794C13.3634 32.0794 10.8479 30.8226 9.90616 29.252L9.95071 30.867V40.8268H3.39676V15.0744C3.39676 14.7162 3.30765 14.6251 2.90259 14.6251H0.656494V9.15246H6.135C8.64842 9.15246 9.27829 11.3059 9.45653 12.2491C10.4449 10.5894 13.0474 8.66065 16.7295 8.66065C23.0606 8.65862 27.326 13.3683 27.326 20.3689ZM20.6363 20.4135C20.6363 16.6895 18.212 14.1333 15.1578 14.1333C12.6444 14.1333 9.81501 15.7929 9.81501 20.46C9.81501 23.5101 11.5203 26.6958 15.0687 26.6958C17.6732 26.6937 20.6363 24.8095 20.6363 20.4135Z" fill="white"/>
</g>
<defs>
<clipPath id="clip0_5352_12024">
<rect width="190" height="40.8264" fill="white"/>
</clipPath>
</defs>
</svg>
