<svg width="136" height="40" viewBox="0 0 136 40" fill="none" xmlns="http://www.w3.org/2000/svg">
<path d="M59.4971 17.7751V21.4628H55.139V35.3904H50.9333V21.4323H46.5752V17.7751H59.4971Z" fill="white"/>
<path d="M64.861 35.3904H60.9905V21.6762H64.861V24.2971C65.5924 22.4381 66.781 21.3409 68.8838 21.4933V25.5466C66.141 25.3333 64.861 26.0038 64.861 28.1981V35.3904Z" fill="white"/>
<path d="M90.0952 35.5123C87.5352 35.5123 85.9504 34.2933 85.9504 31.3981V16.3733H89.8514V30.8495C89.8514 31.6723 90.4 31.9771 91.0704 31.9771C91.2533 31.9771 91.4666 31.9771 91.6495 31.9466V35.3295C91.1314 35.4514 90.6133 35.5123 90.0952 35.5123Z" fill="white"/>
<path d="M98.2629 35.5123C95.7029 35.5123 94.1182 34.2933 94.1182 31.3981V16.3733H98.0191V30.8495C98.0191 31.6723 98.5677 31.9771 99.2382 31.9771C99.421 31.9771 99.6344 31.9771 99.8172 31.9466V35.3295C99.2991 35.4514 98.781 35.5123 98.2629 35.5123Z" fill="white"/>
<path d="M101.676 28.5333C101.676 24.2971 104.114 21.4019 108.32 21.4019C112.526 21.4019 114.903 24.2971 114.903 28.5333C114.903 32.7695 112.495 35.7257 108.32 35.7257C104.145 35.7257 101.676 32.739 101.676 28.5333ZM105.486 28.5333C105.486 30.6057 106.339 32.2209 108.32 32.2209C110.301 32.2209 111.093 30.5752 111.093 28.5333C111.093 26.4914 110.24 24.8761 108.32 24.8761C106.4 24.8761 105.486 26.4609 105.486 28.5333Z" fill="white"/>
<path d="M74.1257 29.7828C75.2228 29.9047 76.32 29.9656 77.3866 29.9656C80.3733 29.9656 82.8724 29.1732 82.8724 26.278C82.8724 23.4742 80.2819 21.3713 77.1733 21.3713C72.9981 21.3713 70.3162 24.419 70.3162 28.6247C70.3162 33.0132 72.6324 35.6342 77.8438 35.6342C79.3981 35.6647 80.9219 35.3904 82.3847 34.8418V31.5504C81.0438 31.9771 79.52 32.4037 77.9962 32.4037C75.9238 32.4342 74.4914 31.7332 74.1257 29.7828ZM77.1124 24.3885C78.2095 24.3885 79.0933 25.1199 79.0933 26.1561C79.0933 27.4666 77.6914 27.8932 76.1066 27.8932C75.4362 27.8932 74.7352 27.8323 74.0647 27.7409C74.1257 27.1009 74.3085 26.4913 74.6133 25.9123C75.1009 24.9675 76.0762 24.3885 77.1124 24.3885Z" fill="white"/>
<path d="M36.8533 16.3733H22.3771C21.1275 16.3733 20.1218 17.379 20.1218 18.6285V33.1352C20.1218 34.3847 21.1275 35.3904 22.3771 35.3904H36.8533C38.1028 35.3904 39.1085 34.3847 39.1085 33.1352V18.6285C39.1085 17.379 38.1028 16.3733 36.8533 16.3733ZM28.2894 30.0571C28.2894 30.4838 27.9542 30.819 27.5275 30.819H24.358C23.9314 30.819 23.5961 30.4838 23.5961 30.0571V20.64C23.5961 20.2133 23.9314 19.8781 24.358 19.8781H27.5275C27.9542 19.8781 28.2894 20.2133 28.2894 20.64V30.0571ZM35.6037 25.7295C35.6037 26.1561 35.2685 26.4914 34.8723 26.4914H31.6723C31.2456 26.4914 30.9104 26.1561 30.9104 25.7295V20.64C30.9104 20.2133 31.2456 19.8781 31.6723 19.8781H34.8418C35.2685 19.8781 35.6037 20.2133 35.6037 20.64V25.7295Z" fill="url(#paint0_linear_9981_67713)"/>
<g opacity="0.7">
<path d="M78.7887 9.08961C78.7887 7.87056 77.9964 7.32199 76.5335 6.95628C75.6192 6.71247 75.4059 6.52961 75.4059 6.22485C75.4059 5.85913 75.7411 5.67628 76.3507 5.67628C77.0821 5.70675 77.8135 5.88961 78.484 6.22485V4.70104C77.844 4.39628 77.1126 4.2439 76.4116 4.2439C74.7964 4.2439 73.9126 5.0058 73.9126 6.25533C73.9126 7.4439 74.7049 8.05342 76.0459 8.35818C76.9907 8.57152 77.2649 8.7239 77.2649 9.12009C77.2649 9.42485 77.0516 9.66866 76.3507 9.66866C75.4973 9.63818 74.644 9.39437 73.8821 8.96771V10.5829C74.644 10.9487 75.4668 11.162 76.3202 11.162C77.9659 11.162 78.7887 10.3391 78.7887 9.08961Z" fill="white"/>
<path d="M97.1963 4.36568V11.0704H98.6287V5.95044L99.2382 7.2914L101.25 11.04H103.048V4.33521H101.615V8.66282L101.067 7.4133L99.4515 4.33521H97.1963V4.36568Z" fill="white"/>
<path d="M88.1449 4.36572H86.5906V11.0705H88.1449V4.36572Z" fill="white"/>
<path d="M61.8135 4.36572V11.0705H65.0135L65.5011 9.60763H63.3678V4.36572H61.8135Z" fill="white"/>
<path d="M55.4744 4.36572V5.82858H57.2115V11.0705H58.7658V5.82858H60.6248V4.36572H55.4744Z" fill="white"/>
<path d="M53.2191 4.36572H51.1772L48.8306 11.0705H50.6287L50.9639 9.94287C51.3601 10.0648 51.7868 10.1257 52.2134 10.1257C52.6401 10.1257 53.0668 10.0648 53.4629 9.94287L53.7982 11.0705H55.5963L53.2191 4.36572ZM52.1829 8.72382C51.8782 8.72382 51.6039 8.69334 51.3296 8.60191L52.1829 5.6762L53.0363 8.60191C52.762 8.69334 52.4877 8.72382 52.1829 8.72382Z" fill="white"/>
<path d="M70.4992 4.36572H68.4573L66.1106 11.0705H67.9087L68.2439 9.94287C68.6401 10.0648 69.0668 10.1257 69.4935 10.1257C69.9201 10.1257 70.3468 10.0648 70.743 9.94287L71.0782 11.0705H72.8763L70.4992 4.36572ZM69.4935 8.72382C69.1887 8.72382 68.9144 8.69334 68.6401 8.60191L69.4935 5.6762L70.3468 8.60191C70.0725 8.69334 69.7677 8.72382 69.4935 8.72382Z" fill="white"/>
<path d="M93.7526 4.36572H91.7107L89.364 11.0705H91.1621L91.4973 9.94287C91.8935 10.0648 92.3202 10.1257 92.7469 10.1257C93.1735 10.1257 93.6002 10.0648 93.9964 9.94287L94.3316 11.0705H96.1297L93.7526 4.36572ZM92.7164 8.72382C92.4116 8.72382 92.1373 8.69334 91.8631 8.60191L92.7164 5.6762L93.5697 8.60191C93.2954 8.69334 93.0212 8.72382 92.7164 8.72382Z" fill="white"/>
<path d="M84.9754 9.08961C84.9754 7.87056 84.1831 7.32199 82.7202 6.95628C81.8059 6.71247 81.5926 6.52961 81.5926 6.22485C81.5926 5.85913 81.9278 5.67628 82.5069 5.67628C83.2383 5.70675 83.9697 5.88961 84.6402 6.22485V4.70104C83.9697 4.39628 83.2688 4.2439 82.5373 4.2439C80.9221 4.2439 80.0383 5.0058 80.0383 6.25533C80.0383 7.4439 80.8307 8.05342 82.1716 8.35818C83.1164 8.57152 83.3907 8.7239 83.3907 9.12009C83.3907 9.42485 83.1773 9.66866 82.4764 9.66866C81.6231 9.63818 80.7697 9.39437 80.0078 8.96771V10.5829C80.7697 10.9487 81.5926 11.162 82.4459 11.162C84.1831 11.162 84.9754 10.3391 84.9754 9.08961Z" fill="white"/>
</g>
<defs>
<linearGradient id="paint0_linear_9981_67713" x1="29.6152" y1="16.3733" x2="29.6152" y2="35.3904" gradientUnits="userSpaceOnUse">
<stop offset="0.51" stop-color="white"/>
<stop offset="1" stop-color="white" stop-opacity="0.3"/>
</linearGradient>
</defs>
</svg>
