<svg width="448" height="254" viewBox="0 0 448 254" fill="none" xmlns="http://www.w3.org/2000/svg">
<path d="M307.495 16.4962V188.5H6.5V16.4962C6.5 12.5941 9.59981 9.5 13.5052 9.5H300.495C304.315 9.5 307.358 12.4541 307.495 16.23V16.4962Z" fill="#AAAAAA" stroke="#333333"/>
<path d="M12.5 182.5V15.5H301.5V182.5H12.5Z" fill="white" stroke="#333333"/>
<g opacity="0.2">
<rect x="26" y="63.5909" width="44" height="5" rx="2.5" fill="#888888"/>
<rect x="26" y="76.5909" width="31.6968" height="5" rx="2.5" fill="#888888"/>
<rect x="26" y="89.5909" width="44" height="5" rx="2.5" fill="#888888"/>
<rect x="26" y="102.591" width="31.6968" height="5" rx="2.5" fill="#888888"/>
<rect x="26" y="115.591" width="44" height="5" rx="2.5" fill="#888888"/>
<rect x="26" y="128.591" width="31.6968" height="5" rx="2.5" fill="#888888"/>
<rect x="26" y="141.591" width="44" height="5" rx="2.5" fill="#888888"/>
</g>
<rect x="13" y="16" width="288" height="32" fill="#01679E"/>
<path d="M41.0229 25.0767C37.9133 25.0767 35.2776 27.1605 34.4608 29.9838C33.7508 28.4862 32.2123 27.4371 30.4403 27.4371C28.0033 27.4371 26 29.4173 26 31.8262C26 34.2351 28.0033 36.2162 30.4403 36.2162C32.2123 36.2162 33.7508 35.1664 34.4608 33.6686C35.2776 36.4922 37.9133 38.5767 41.0229 38.5767C44.1095 38.5767 46.7317 36.5236 47.5694 33.7319C48.2925 35.1957 49.8119 36.2162 51.5588 36.2162C53.9958 36.2162 56 34.2351 56 31.8262C56 29.4173 53.9958 27.4371 51.5588 27.4371C49.8119 27.4371 48.2925 28.457 47.5694 29.9205C46.7317 27.129 44.1095 25.0767 41.0229 25.0767ZM41.0229 27.6532C43.3702 27.6532 45.2455 29.5059 45.2455 31.8262C45.2455 34.1465 43.3702 36.0002 41.0229 36.0002C38.6755 36.0002 36.8012 34.1465 36.8012 31.8262C36.8012 29.5059 38.6755 27.6532 41.0229 27.6532ZM30.4403 30.0136C31.4687 30.0136 32.2749 30.8096 32.2749 31.8262C32.2749 32.8428 31.4687 33.6397 30.4403 33.6397C29.4118 33.6397 28.6065 32.8428 28.6065 31.8262C28.6065 30.8096 29.4118 30.0136 30.4403 30.0136ZM51.5588 30.0136C52.5873 30.0136 53.3934 30.8096 53.3934 31.8262C53.3934 32.8428 52.5872 33.6397 51.5588 33.6397C50.5304 33.6397 49.7251 32.8428 49.7251 31.8262C49.7251 30.8096 50.5304 30.0136 51.5588 30.0136Z" fill="white"/>
<path d="M106.641 72.2734C106.641 73.1536 106.529 73.9557 106.305 74.6797C106.086 75.3984 105.755 76.0182 105.312 76.5391C104.87 77.0547 104.315 77.4531 103.648 77.7344C102.982 78.0156 102.201 78.1562 101.305 78.1562C100.393 78.1562 99.6016 78.0156 98.9297 77.7344C98.263 77.4531 97.7083 77.0521 97.2656 76.5312C96.8281 76.0104 96.5 75.388 96.2812 74.6641C96.0625 73.9401 95.9531 73.138 95.9531 72.2578C95.9531 71.0807 96.1458 70.0547 96.5312 69.1797C96.9219 68.2995 97.513 67.6172 98.3047 67.1328C99.1016 66.6432 100.107 66.3984 101.32 66.3984C102.508 66.3984 103.495 66.6406 104.281 67.125C105.068 67.6094 105.656 68.2917 106.047 69.1719C106.443 70.0469 106.641 71.0807 106.641 72.2734ZM97.9219 72.2734C97.9219 73.1536 98.0417 73.9167 98.2812 74.5625C98.5208 75.2031 98.888 75.6979 99.3828 76.0469C99.8828 76.3906 100.523 76.5625 101.305 76.5625C102.091 76.5625 102.732 76.3906 103.227 76.0469C103.721 75.6979 104.086 75.2031 104.32 74.5625C104.555 73.9167 104.672 73.1536 104.672 72.2734C104.672 70.9349 104.404 69.888 103.867 69.1328C103.336 68.3724 102.487 67.9922 101.32 67.9922C100.539 67.9922 99.8958 68.1641 99.3906 68.5078C98.8906 68.8516 98.5208 69.3438 98.2812 69.9844C98.0417 70.6198 97.9219 71.3828 97.9219 72.2734ZM118.945 78H116.64L111.047 68.8828H110.976C110.997 69.1901 111.015 69.5156 111.031 69.8594C111.052 70.2031 111.067 70.5573 111.078 70.9219C111.093 71.2865 111.106 71.6562 111.117 72.0312V78H109.414V66.5781H111.703L117.289 75.6328H117.343C117.333 75.3672 117.32 75.0625 117.304 74.7188C117.289 74.375 117.273 74.0208 117.257 73.6562C117.247 73.2865 117.239 72.9297 117.234 72.5859V66.5781H118.945V78ZM122.265 78V66.5781H124.14V76.4062H128.992V78H122.265ZM134.522 71.7891L137.233 66.5781H139.257L135.46 73.5625V78H133.593V73.6328L129.788 66.5781H131.827L134.522 71.7891ZM151.217 72.2734C151.217 73.1536 151.106 73.9557 150.882 74.6797C150.663 75.3984 150.332 76.0182 149.889 76.5391C149.447 77.0547 148.892 77.4531 148.225 77.7344C147.559 78.0156 146.777 78.1562 145.882 78.1562C144.97 78.1562 144.178 78.0156 143.507 77.7344C142.84 77.4531 142.285 77.0521 141.842 76.5312C141.405 76.0104 141.077 75.388 140.858 74.6641C140.639 73.9401 140.53 73.138 140.53 72.2578C140.53 71.0807 140.723 70.0547 141.108 69.1797C141.499 68.2995 142.09 67.6172 142.882 67.1328C143.678 66.6432 144.684 66.3984 145.897 66.3984C147.085 66.3984 148.072 66.6406 148.858 67.125C149.645 67.6094 150.233 68.2917 150.624 69.1719C151.02 70.0469 151.217 71.0807 151.217 72.2734ZM142.499 72.2734C142.499 73.1536 142.619 73.9167 142.858 74.5625C143.098 75.2031 143.465 75.6979 143.96 76.0469C144.46 76.3906 145.1 76.5625 145.882 76.5625C146.668 76.5625 147.309 76.3906 147.803 76.0469C148.298 75.6979 148.663 75.2031 148.897 74.5625C149.132 73.9167 149.249 73.1536 149.249 72.2734C149.249 70.9349 148.981 69.888 148.444 69.1328C147.913 68.3724 147.064 67.9922 145.897 67.9922C145.116 67.9922 144.473 68.1641 143.967 68.5078C143.467 68.8516 143.098 69.3438 142.858 69.9844C142.619 70.6198 142.499 71.3828 142.499 72.2734ZM155.85 78H153.991V66.5781H160.444V68.1562H155.85V71.7188H160.147V73.2891H155.85V78ZM164.701 78H162.842V66.5781H169.295V68.1562H164.701V71.7188H168.998V73.2891H164.701V78ZM171.693 78V66.5781H173.568V78H171.693ZM181.771 68.0078C181.224 68.0078 180.734 68.1068 180.302 68.3047C179.875 68.5026 179.513 68.7891 179.216 69.1641C178.919 69.5339 178.693 69.9844 178.537 70.5156C178.38 71.0417 178.302 71.6354 178.302 72.2969C178.302 73.1823 178.427 73.9453 178.677 74.5859C178.927 75.2214 179.307 75.7109 179.818 76.0547C180.328 76.3932 180.974 76.5625 181.755 76.5625C182.24 76.5625 182.711 76.5156 183.169 76.4219C183.628 76.3281 184.102 76.2005 184.591 76.0391V77.6328C184.128 77.8151 183.659 77.9479 183.185 78.0312C182.711 78.1146 182.164 78.1562 181.544 78.1562C180.378 78.1562 179.409 77.9141 178.638 77.4297C177.872 76.9453 177.3 76.263 176.919 75.3828C176.544 74.5026 176.357 73.4714 176.357 72.2891C176.357 71.4245 176.477 70.6328 176.716 69.9141C176.956 69.1953 177.305 68.5755 177.763 68.0547C178.221 67.5286 178.787 67.125 179.458 66.8438C180.136 66.5573 180.909 66.4141 181.779 66.4141C182.352 66.4141 182.914 66.4792 183.466 66.6094C184.024 66.7344 184.539 66.9141 185.013 67.1484L184.357 68.6953C183.961 68.5078 183.547 68.3464 183.115 68.2109C182.682 68.0755 182.234 68.0078 181.771 68.0078ZM193.833 78H187.364V66.5781H193.833V68.1562H189.239V71.2578H193.544V72.8281H189.239V76.4141H193.833V78Z" fill="#403333"/>
<path d="M95.5 99C95.5 94.8579 98.8579 91.5 103 91.5H253C257.142 91.5 260.5 94.8579 260.5 99V118C260.5 122.142 257.142 125.5 253 125.5H103C98.8579 125.5 95.5 122.142 95.5 118V99Z" fill="white" stroke="#E2E2E2"/>
<path d="M108.521 111.227L108.654 109.166L106.928 110.322L106.214 109.065L108.073 108.159L106.214 107.254L106.928 105.996L108.654 107.152L108.521 105.091H109.954L109.815 107.152L111.541 105.996L112.255 107.254L110.401 108.159L112.255 109.065L111.541 110.322L109.815 109.166L109.954 111.227H108.521Z" fill="#192435"/>
<path d="M116.988 111.227L117.121 109.166L115.395 110.322L114.681 109.065L116.54 108.159L114.681 107.254L115.395 105.996L117.121 107.152L116.988 105.091H118.42L118.282 107.152L120.008 105.996L120.722 107.254L118.868 108.159L120.722 109.065L120.008 110.322L118.282 109.166L118.42 111.227H116.988Z" fill="#192435"/>
<path d="M125.454 111.227L125.588 109.166L123.862 110.322L123.148 109.065L125.007 108.159L123.148 107.254L123.862 105.996L125.588 107.152L125.454 105.091H126.887L126.749 107.152L128.475 105.996L129.188 107.254L127.335 108.159L129.188 109.065L128.475 110.322L126.749 109.166L126.887 111.227H125.454Z" fill="#192435"/>
<path d="M133.921 111.227L134.054 109.166L132.329 110.322L131.615 109.065L133.474 108.159L131.615 107.254L132.329 105.996L134.054 107.152L133.921 105.091H135.354L135.216 107.152L136.941 105.996L137.655 107.254L135.802 108.159L137.655 109.065L136.941 110.322L135.216 109.166L135.354 111.227H133.921Z" fill="#192435"/>
<path d="M142.388 111.227L142.521 109.166L140.795 110.322L140.082 109.065L141.941 108.159L140.082 107.254L140.795 105.996L142.521 107.152L142.388 105.091H143.821L143.682 107.152L145.408 105.996L146.122 107.254L144.268 108.159L146.122 109.065L145.408 110.322L143.682 109.166L143.821 111.227H142.388Z" fill="#192435"/>
<path d="M150.855 111.227L150.988 109.166L149.262 110.322L148.548 109.065L150.407 108.159L148.548 107.254L149.262 105.996L150.988 107.152L150.855 105.091H152.288L152.149 107.152L153.875 105.996L154.589 107.254L152.735 108.159L154.589 109.065L153.875 110.322L152.149 109.166L152.288 111.227H150.855Z" fill="#192435"/>
<path d="M159.322 111.227L159.455 109.166L157.729 110.322L157.015 109.065L158.874 108.159L157.015 107.254L157.729 105.996L159.455 107.152L159.322 105.091H160.754L160.616 107.152L162.342 105.996L163.056 107.254L161.202 108.159L163.056 109.065L162.342 110.322L160.616 109.166L160.754 111.227H159.322Z" fill="#192435"/>
<path d="M167.788 111.227L167.922 109.166L166.196 110.322L165.482 109.065L167.341 108.159L165.482 107.254L166.196 105.996L167.922 107.152L167.788 105.091H169.221L169.083 107.152L170.809 105.996L171.522 107.254L169.669 108.159L171.522 109.065L170.809 110.322L169.083 109.166L169.221 111.227H167.788Z" fill="#192435"/>
<path d="M176.255 111.227L176.388 109.166L174.663 110.322L173.949 109.065L175.808 108.159L173.949 107.254L174.663 105.996L176.388 107.152L176.255 105.091H177.688L177.55 107.152L179.275 105.996L179.989 107.254L178.136 108.159L179.989 109.065L179.275 110.322L177.55 109.166L177.688 111.227H176.255Z" fill="#192435"/>
<path d="M184.722 111.227L184.855 109.166L183.129 110.322L182.416 109.065L184.275 108.159L182.416 107.254L183.129 105.996L184.855 107.152L184.722 105.091H186.155L186.016 107.152L187.742 105.996L188.456 107.254L186.602 108.159L188.456 109.065L187.742 110.322L186.016 109.166L186.155 111.227H184.722Z" fill="#192435"/>
<path d="M193.189 111.227L193.322 109.166L191.596 110.322L190.882 109.065L192.741 108.159L190.882 107.254L191.596 105.996L193.322 107.152L193.189 105.091H194.622L194.483 107.152L196.209 105.996L196.923 107.254L195.069 108.159L196.923 109.065L196.209 110.322L194.483 109.166L194.622 111.227H193.189Z" fill="#192435"/>
<path d="M201.656 111.227L201.789 109.166L200.063 110.322L199.349 109.065L201.208 108.159L199.349 107.254L200.063 105.996L201.789 107.152L201.656 105.091H203.088L202.95 107.152L204.676 105.996L205.39 107.254L203.536 108.159L205.39 109.065L204.676 110.322L202.95 109.166L203.088 111.227H201.656Z" fill="#192435"/>
<path d="M210.122 111.227L210.256 109.166L208.53 110.322L207.816 109.065L209.675 108.159L207.816 107.254L208.53 105.996L210.256 107.152L210.122 105.091H211.555L211.417 107.152L213.143 105.996L213.856 107.254L212.003 108.159L213.856 109.065L213.143 110.322L211.417 109.166L211.555 111.227H210.122Z" fill="#192435"/>
<path d="M218.589 111.227L218.722 109.166L216.996 110.322L216.283 109.065L218.142 108.159L216.283 107.254L216.996 105.996L218.722 107.152L218.589 105.091H220.022L219.884 107.152L221.609 105.996L222.323 107.254L220.47 108.159L222.323 109.065L221.609 110.322L219.884 109.166L220.022 111.227H218.589Z" fill="#192435"/>
<path d="M227.056 111.227L227.189 109.166L225.463 110.322L224.75 109.065L226.609 108.159L224.75 107.254L225.463 105.996L227.189 107.152L227.056 105.091H228.489L228.35 107.152L230.076 105.996L230.79 107.254L228.936 108.159L230.79 109.065L230.076 110.322L228.35 109.166L228.489 111.227H227.056Z" fill="#192435"/>
<path d="M235.523 111.227L235.656 109.166L233.93 110.322L233.216 109.065L235.075 108.159L233.216 107.254L233.93 105.996L235.656 107.152L235.523 105.091H236.956L236.817 107.152L238.543 105.996L239.257 107.254L237.403 108.159L239.257 109.065L238.543 110.322L236.817 109.166L236.956 111.227H235.523Z" fill="#192435"/>
<rect x="95" y="135" width="66" height="25" rx="12.5" fill="#EEEEEE"/>
<rect x="110" y="145" width="36" height="5" rx="2.5" fill="#808080"/>
<path d="M194 248.5H194.561L194.497 247.943L190.831 215.943L190.78 215.5H190.334H122.4H121.964L121.905 215.932L117.505 247.932L117.427 248.5H118H194Z" fill="#CCCCCC" stroke="#333333"/>
<path d="M6.5 208.442V188.5H307.5V208.442C307.5 212.382 304.396 215.5 300.495 215.5H13.5054C9.59909 215.5 6.5 212.383 6.5 208.442Z" fill="#E2E2E2" stroke="#333333"/>
<path d="M107.333 251.5L117.106 248.5H194.894L204.667 251.5H107.333Z" fill="#E2E2E2" stroke="#333333"/>
<path d="M207.281 252.5L206.909 253.5H104.986L104.677 252.5H207.281Z" fill="#AAAAAA" stroke="#333333"/>
<path d="M162.5 201.497C162.5 204.26 160.259 206.5 157.5 206.5C154.741 206.5 152.5 204.26 152.5 201.497C152.5 198.74 154.74 196.5 157.5 196.5C160.26 196.5 162.5 198.735 162.5 201.497Z" fill="#AAAAAA" stroke="#333333"/>
<path d="M372.5 253C414.197 253 448 250.761 448 248C448 245.239 414.197 243 372.5 243C330.803 243 297 245.239 297 248C297 250.761 330.803 253 372.5 253Z" fill="#EFEFEF"/>
<path fill-rule="evenodd" clip-rule="evenodd" d="M358.579 47.113C358.238 48.9467 357.589 51.5149 356.441 52.1438C355.663 52.5758 354.472 51.8894 352.652 48.8747C354.477 48.7835 356.427 48.2459 358.161 47.3386C358.3 47.2666 358.44 47.1898 358.579 47.113ZM350.034 48.6683C349.159 49.7148 348.376 50.4252 347.694 50.8909C346.681 51.5773 345.984 51.6829 345.595 51.5485C345.264 51.4285 345.096 50.8669 345.033 50.1612C344.918 48.9179 345.153 47.3674 345.341 46.5033C345.701 46.4553 346.076 46.4073 346.455 46.3689L346.647 46.6377C347.454 47.689 348.645 48.3515 350.034 48.6683Z" fill="#CCCCCC"/>
<path fill-rule="evenodd" clip-rule="evenodd" d="M346.507 46.2551L346.734 46.5734C347.522 47.5995 348.689 48.2505 350.058 48.563L350.23 48.6022L350.117 48.7375C349.238 49.7896 348.448 50.5075 347.755 50.9801C346.734 51.6718 345.999 51.8022 345.56 51.6506L345.558 51.6501C345.347 51.5735 345.207 51.3647 345.112 51.1124C345.016 50.8558 344.957 50.5281 344.926 50.1709C344.809 48.9113 345.047 47.3482 345.235 46.4804L345.251 46.4063L345.326 46.3962C345.687 46.3482 346.063 46.3 346.444 46.2614L346.507 46.2551ZM345.43 46.6003C345.247 47.4727 345.03 48.9588 345.141 50.1512C345.172 50.4996 345.228 50.806 345.315 51.0366C345.402 51.2711 345.512 51.403 345.631 51.4467C345.971 51.5635 346.629 51.4821 347.634 50.8016C348.276 50.3628 349.014 49.7004 349.838 48.7325C348.504 48.3968 347.354 47.7352 346.562 46.7035L346.559 46.7005L346.404 46.4827C346.074 46.5171 345.747 46.5584 345.43 46.6003ZM358.727 46.908L358.685 47.1327C358.514 48.0517 358.266 49.1591 357.914 50.1174C357.739 50.5965 357.536 51.0416 357.303 51.4082C357.07 51.7739 356.803 52.069 356.493 52.2385C356.05 52.4844 355.509 52.3939 354.87 51.8863C354.232 51.3797 353.471 50.4412 352.559 48.9305L352.466 48.7758L352.646 48.7668C354.455 48.6764 356.39 48.1433 358.111 47.2429C358.249 47.1716 358.387 47.0953 358.527 47.0184L358.727 46.908ZM358.43 47.3178C358.357 47.3574 358.284 47.3965 358.211 47.4344C356.521 48.3187 354.626 48.8548 352.837 48.9721C353.703 50.3852 354.418 51.2515 355.005 51.7172C355.61 52.1983 356.054 52.2351 356.389 52.0493C356.654 51.9044 356.898 51.6424 357.121 51.2923C357.343 50.9433 357.539 50.5137 357.712 50.043C358.029 49.1775 358.262 48.1833 358.43 47.3178Z" fill="#CCCCCC"/>
<path fill-rule="evenodd" clip-rule="evenodd" d="M358.646 23.6391C358.685 21.8245 358.617 20.3076 358.469 19.0451C358.281 17.5042 357.959 16.3185 357.537 15.4208C357.224 14.7584 356.754 14.1199 356.182 13.6063C355.639 13.1118 354.996 12.7182 354.304 12.507C353.439 12.2429 352.599 12.2958 351.782 12.5454C351.018 12.7758 350.288 13.179 349.573 13.6495C349.217 13.8799 348.91 14.1007 348.617 14.3119C347.401 15.1808 346.431 15.8768 344.687 15.4064C344.567 15.3728 344.452 15.3152 344.356 15.2336C344.217 15.1136 344.106 14.9504 344.049 14.7584C343.986 14.5519 343.981 14.3119 344.053 14.0431C344.125 13.7647 344.289 13.4622 344.553 13.1502L344.587 13.1022C344.683 12.9678 344.803 12.8334 344.942 12.699C346.114 11.5565 348.453 10.6732 351.114 10.4908C353.795 10.3084 356.773 10.8604 359.175 12.5982C359.636 12.9294 360.073 13.3038 360.486 13.7311C361.461 14.7344 362.21 16.1313 362.6 18.0322C362.936 19.6788 363.003 21.6997 362.715 24.1671C362.58 23.9223 362.417 23.7063 362.225 23.5239C361.855 23.1782 361.384 22.967 360.827 22.9382C360.207 22.9046 359.472 23.111 358.646 23.6391Z" fill="#666666"/>
<path fill-rule="evenodd" clip-rule="evenodd" d="M359.111 12.6856C356.735 10.9663 353.784 10.4173 351.122 10.5985C348.474 10.78 346.164 11.6586 345.017 12.7763C344.882 12.9073 344.766 13.037 344.675 13.1646L344.636 13.2203C344.379 13.5233 344.225 13.8112 344.158 14.0701C344.09 14.3219 344.096 14.5421 344.152 14.727C344.204 14.8987 344.302 15.0446 344.426 15.1515C344.509 15.2216 344.61 15.2723 344.716 15.3022C345.567 15.5318 346.223 15.4757 346.813 15.2599C347.409 15.0421 347.943 14.6605 348.554 14.2241C348.847 14.013 349.156 13.7909 349.514 13.559C350.233 13.0862 350.973 12.6767 351.751 12.442C352.584 12.1874 353.447 12.1322 354.336 12.4036C355.045 12.6202 355.702 13.0228 356.255 13.5261C356.837 14.0493 357.316 14.6993 357.634 15.3747C358.064 16.2859 358.388 17.4837 358.576 19.032C358.72 20.2542 358.788 21.7121 358.758 23.4431C359.53 22.9834 360.229 22.7976 360.833 22.8303C361.416 22.8605 361.91 23.0821 362.299 23.4449C362.425 23.5651 362.54 23.6994 362.642 23.8453C362.889 21.5264 362.813 19.6175 362.494 18.0538C362.108 16.1699 361.367 14.7926 360.409 13.8063C360 13.3838 359.567 13.0132 359.111 12.6856ZM359.238 12.5105C356.811 10.7545 353.806 10.1994 351.107 10.383C348.433 10.5663 346.064 11.4542 344.867 12.6214C344.724 12.759 344.6 12.8983 344.499 13.0394L344.467 13.0842C344.198 13.4037 344.026 13.7189 343.949 14.0155C343.872 14.3012 343.876 14.5617 343.945 14.7895C344.009 15.0017 344.131 15.1823 344.286 15.3154C344.395 15.4082 344.525 15.4731 344.658 15.5104L344.659 15.5106C345.552 15.7514 346.253 15.6947 346.887 15.4628C347.512 15.2345 348.067 14.8375 348.667 14.4083L348.68 14.3997C348.973 14.1885 349.278 13.9689 349.631 13.74C350.343 13.272 351.064 12.8748 351.813 12.6487C352.613 12.4042 353.432 12.3536 354.272 12.6102C354.947 12.8161 355.577 13.2006 356.109 13.6861C356.67 14.1901 357.133 14.8174 357.439 15.4668C357.855 16.3509 358.175 17.5245 358.361 19.0579C358.51 20.3144 358.577 21.8261 358.538 23.6368L358.534 23.839L358.705 23.73C359.518 23.2103 360.23 23.014 360.821 23.046C361.353 23.0735 361.8 23.2742 362.151 23.6024C362.334 23.7765 362.491 23.9833 362.62 24.2191L362.783 24.5153L362.822 24.1796C363.111 21.7039 363.045 19.671 362.705 18.0106C362.313 16.0927 361.555 14.6762 360.564 13.656C360.146 13.224 359.704 12.8454 359.238 12.5105Z" fill="#666666"/>
<path fill-rule="evenodd" clip-rule="evenodd" d="M342.944 14.3839C342.079 15.3536 341.373 16.5969 340.84 18.0226C339.682 21.1333 339.341 25.1368 339.975 28.9627C340.614 32.8222 342.247 36.5281 345.019 39.0051C346.095 39.9652 347.344 40.7429 348.77 41.2757C348.982 41.3573 352.128 42.2406 355.865 39.0291C357.709 37.4402 359.741 34.8336 361.677 30.5949L360.351 29.99C358.516 34.0127 356.624 36.4561 354.919 37.9203C351.792 40.6085 349.433 39.9652 349.279 39.9076C348.03 39.4468 346.94 38.7651 345.999 37.9203C343.491 35.6785 342.012 32.2846 341.421 28.7275C340.825 25.1416 341.138 21.4069 342.209 18.5315C342.679 17.2737 343.289 16.1841 344.034 15.3536L342.944 14.3839Z" fill="#333333"/>
<path fill-rule="evenodd" clip-rule="evenodd" d="M358.613 24.6759C358.704 22.3909 358.646 20.538 358.464 19.045C358.276 17.5041 357.955 16.3184 357.532 15.4207C357.22 14.7583 356.749 14.1198 356.177 13.6062C355.635 13.1118 354.991 12.7181 354.299 12.5069C353.435 12.2429 352.594 12.2957 351.777 12.5453C351.014 12.7757 350.283 13.179 349.568 13.6494C349.212 13.8798 348.905 14.1006 348.612 14.3119C347.397 15.1807 346.426 15.8768 344.683 15.4063C344.562 15.3727 344.447 15.3151 344.351 15.2335C344.212 15.1135 344.101 14.9503 344.044 14.7583C343.981 14.5519 343.976 14.3119 344.049 14.043C344.121 13.7646 344.284 13.4622 344.548 13.1502L344.582 13.1022C344.678 12.9677 344.798 12.8333 344.937 12.6989C346.109 11.5564 348.449 10.6732 351.11 10.4907C353.79 10.3083 356.768 10.8604 359.17 12.5981C359.631 12.9293 360.068 13.3038 360.481 13.731C361.456 14.7343 362.206 16.1312 362.595 18.0322C362.955 19.8035 363.003 22.0021 362.643 24.7239L362.59 25.1367C362.407 26.5625 362.292 27.4505 361.413 28.6698C361.288 28.8427 361.144 29.0299 360.976 29.2315C360.832 29.4091 360.664 29.6011 360.472 29.8027L360.64 30.4076L361.538 30.7964C361.725 30.5948 361.913 30.3836 362.095 30.158C362.263 29.9563 362.427 29.7451 362.59 29.5195C363.68 28.0026 363.815 26.9753 364.031 25.324L364.084 24.9111C364.468 22.0213 364.41 19.6595 364.017 17.7393C363.57 15.5408 362.681 13.9038 361.519 12.7133C361.048 12.2285 360.544 11.8013 360.015 11.4172C357.306 9.45386 353.982 8.83461 350.999 9.03622C347.997 9.23784 345.307 10.2891 343.904 11.6524C343.722 11.8301 343.559 12.0173 343.414 12.2093C343.001 12.6941 342.747 13.1886 342.622 13.6638C342.478 14.2062 342.497 14.7247 342.636 15.1807C342.78 15.6512 343.049 16.0496 343.395 16.3424C343.659 16.5632 343.967 16.7265 344.293 16.8177C346.705 17.4657 347.92 16.592 349.452 15.4976C349.745 15.2911 350.048 15.0703 350.355 14.8687C350.966 14.4655 351.58 14.1246 352.19 13.9374C352.748 13.7694 353.305 13.731 353.862 13.899C354.333 14.043 354.784 14.3215 355.178 14.6815C355.606 15.0703 355.961 15.5504 356.197 16.04C356.557 16.7985 356.831 17.8353 356.999 19.2131C357.157 20.5332 357.22 22.1461 357.157 24.1095L357.527 24.6279L358.613 24.6759Z" fill="#333333"/>
<path fill-rule="evenodd" clip-rule="evenodd" d="M358.291 25.1272C359.314 24.2248 360.15 23.8743 360.784 23.9031C361.101 23.9175 361.36 24.0376 361.567 24.2248C361.788 24.4312 361.946 24.724 362.042 25.0744C362.297 25.9865 362.105 27.2394 361.384 28.3675C361.202 28.6555 360.894 28.9772 360.52 29.2364C360.337 29.3612 360.14 29.4668 359.938 29.5436C359.175 29.8268 359.554 30.6669 360.015 30.5421C360.395 30.4365 360.755 30.2589 361.072 30.0429C361.557 29.7116 361.961 29.2796 362.206 28.8956C363.08 27.5274 363.301 25.9769 362.984 24.82C362.84 24.2968 362.585 23.8455 362.23 23.5191C361.86 23.1735 361.389 22.9623 360.832 22.9335C359.953 22.8903 358.848 23.3223 357.58 24.4552C357.128 24.8632 357.676 25.6697 358.291 25.1272Z" fill="#333333"/>
<path fill-rule="evenodd" clip-rule="evenodd" d="M360.044 25.6072C360.188 25.5784 360.313 25.5784 360.419 25.6024C360.539 25.6312 360.635 25.6984 360.692 25.7896C360.76 25.9 360.798 26.0488 360.798 26.2216C360.798 26.5817 360.649 27.0425 360.342 27.5177C360.236 27.681 360.063 27.8682 359.847 28.0122C359.765 28.0698 359.674 28.1226 359.578 28.161C359.064 28.3818 359.232 28.7994 359.645 28.6554C359.813 28.5978 359.977 28.5114 360.121 28.4154C360.39 28.233 360.616 27.993 360.75 27.7818C361.106 27.2249 361.283 26.6729 361.283 26.2216C361.283 25.9528 361.221 25.7128 361.101 25.5256C360.971 25.324 360.779 25.1848 360.524 25.1271C360.375 25.0935 360.203 25.0887 360.006 25.1175C359.367 25.2232 359.439 25.7272 360.044 25.6072Z" fill="#333333"/>
<path fill-rule="evenodd" clip-rule="evenodd" d="M359.545 46.081L359.007 35.1697L357.546 35.2369L358.089 46.1482L359.545 46.081Z" fill="#333333"/>
<path fill-rule="evenodd" clip-rule="evenodd" d="M347.766 46.0233L348.564 40.1717L347.118 39.9749L346.316 45.8265L347.766 46.0233Z" fill="#333333"/>
<path fill-rule="evenodd" clip-rule="evenodd" d="M358.843 45.4856L358.829 45.5672C358.632 46.9017 357.988 51.2941 356.441 52.1437C355.577 52.6238 354.203 51.7261 352.022 47.7802L350.74 48.481C353.454 53.3966 355.558 54.2991 357.143 53.4206C359.328 52.2157 360.054 47.2713 360.275 45.7736L360.289 45.692L358.843 45.4856Z" fill="#333333"/>
<path fill-rule="evenodd" clip-rule="evenodd" d="M344.044 45.6537C343.847 46.3641 343.415 48.5723 343.578 50.2957C343.693 51.5294 344.121 52.571 345.11 52.9215C345.86 53.1855 347.046 53.0943 348.516 52.0958C349.505 51.419 350.673 50.3101 351.965 48.5675L350.793 47.6987C349.606 49.2924 348.564 50.2957 347.69 50.8909C346.676 51.5774 345.98 51.683 345.591 51.5486C345.259 51.4286 345.091 50.8669 345.029 50.1613C344.884 48.6443 345.273 46.681 345.446 46.0473L344.044 45.6537Z" fill="#333333"/>
<path fill-rule="evenodd" clip-rule="evenodd" d="M349.275 28.9867C346.887 29.9324 346.047 28.8235 346.08 27.7914C346.119 26.3993 347.425 26.6777 347.161 24.4215C348.295 26.0104 345.739 27.7722 347.267 28.6026C347.593 28.7803 348.112 28.9627 349.275 28.9867Z" fill="#333333"/>
<path fill-rule="evenodd" clip-rule="evenodd" d="M347.997 32.3421C350.788 34.5935 351.801 30.5996 352.291 29.9851C352.152 34.9439 348.348 34.5983 347.997 32.3421Z" fill="#333333"/>
<path fill-rule="evenodd" clip-rule="evenodd" d="M350.178 23.6007C351.662 20.0916 355.601 22.0934 355.615 23.9703C355.428 23.7639 354.602 23.2695 354.131 23.2119C353.968 25.3 351.47 25.7369 350.797 23.5095C350.533 23.4951 350.375 23.4807 350.178 23.6007Z" fill="#333333"/>
<path fill-rule="evenodd" clip-rule="evenodd" d="M341.685 23.4518C343.035 19.8899 347.051 21.7429 347.137 23.6198C346.94 23.423 346.099 22.9574 345.624 22.919C345.542 25.012 343.059 25.54 342.305 23.3414C342.036 23.3318 341.877 23.327 341.685 23.4518Z" fill="#333333"/>
<path fill-rule="evenodd" clip-rule="evenodd" d="M308.555 46.4502C307.767 42.9508 307.969 40.9379 308.267 39.4594L308.31 39.2529C308.401 38.7921 308.541 38.2785 308.67 37.7888C308.935 36.7903 309.175 35.8879 309.06 35.2302C308.915 34.3997 308.435 33.9725 307.383 34.1549C305.678 34.4477 304.861 36.0271 304.174 37.3472C303.809 38.0528 303.502 38.6433 303.411 38.6289C303.315 38.5953 303.219 38.5521 303.122 38.4993C303.017 38.4417 302.911 38.3649 302.796 38.2833C302.594 38.1344 302.263 37.8416 301.854 37.4864C299.544 35.451 295.005 31.4523 291.849 34.1213C290.974 34.8606 290.513 36.3007 290.998 38.2929C291.354 39.7426 292.219 41.5331 293.818 43.5925C293.881 43.6693 294.15 43.9669 294.721 44.3942C295.029 44.6198 295.437 44.8982 295.98 45.2198C296.537 45.5511 297.2 45.7959 297.997 46.0935C299.193 46.5399 300.721 47.1064 302.508 48.2009L303.719 47.0936C301.807 45.9223 299.765 45.191 298.506 44.7254C297.767 44.4518 297.157 44.2213 296.724 43.9669C296.239 43.6789 295.869 43.4293 295.591 43.2229C295.168 42.9108 295.009 42.7476 294.976 42.7044C293.511 40.8131 292.728 39.2193 292.415 37.9568C292.074 36.5695 292.305 35.6526 292.79 35.2398C294.981 33.3869 298.895 36.8335 300.884 38.5857C301.312 38.9601 301.657 39.2673 301.922 39.4642C302.075 39.5746 302.234 39.6802 302.397 39.7762C302.575 39.877 302.757 39.9586 302.945 40.021C304.213 40.4338 304.78 39.3393 305.462 38.024C305.995 36.9968 306.634 35.7726 307.619 35.5998C307.628 35.5998 307.604 35.4126 307.614 35.4846C307.671 35.8303 307.47 36.5887 307.249 37.4288C307.119 37.9184 306.984 38.4321 306.874 38.9841L306.831 39.1905C306.494 40.8563 306.269 42.994 307.119 46.7815L308.555 46.4502Z" fill="#333333"/>
<path fill-rule="evenodd" clip-rule="evenodd" d="M305.125 47.3436C304.433 47.6173 304.43 47.0172 303.906 47.3436C302.177 46.3307 299.669 45.1429 298.506 44.7109C297.767 44.4372 297.156 44.2068 296.724 43.9524C296.239 43.6644 295.869 43.4148 295.591 43.2083C295.168 42.8963 295.009 42.7331 294.976 42.6899C294.841 42.5171 294.716 42.3491 294.591 42.1811C293.371 40.5105 292.694 39.0896 292.415 37.9375C292.074 36.5502 292.305 35.6333 292.79 35.2205C293.011 35.0333 293.251 34.8989 293.501 34.8124C295.749 34.0444 299.092 36.987 300.884 38.5664C301.311 38.9408 301.657 39.248 301.922 39.4448C302.075 39.5552 302.234 39.6608 302.397 39.7569C302.575 39.8577 302.757 39.9393 302.945 40.0017C304.213 40.4145 304.78 39.32 305.462 38.0047C305.995 36.9774 306.634 35.7533 307.623 35.5805C307.628 35.9597 307.45 36.651 307.249 37.4095C307.119 37.8991 306.984 38.4127 306.874 38.9648L306.831 39.1712C306.518 40.7313 306.364 43.4628 307.031 46.6982C306.349 46.8806 305.874 47.0508 305.125 47.3436Z" fill="#FEFEFE"/>
<path fill-rule="evenodd" clip-rule="evenodd" d="M351.196 88.2955C350.034 88.0842 348.914 87.6714 347.387 86.9081C346.316 86.3705 345.446 85.8088 344.75 85.2424C344.154 84.7576 343.684 84.2679 343.323 83.7831C343.487 85.3432 343.919 87.0618 344.495 88.7851C345.321 91.2525 346.436 93.7295 347.483 95.8033C347.987 94.4208 348.66 92.9566 349.414 91.4973C349.976 90.4124 350.581 89.3323 351.196 88.2955Z" fill="#FF6F3D"/>
<path fill-rule="evenodd" clip-rule="evenodd" d="M342.934 82.7834L343.551 83.614C343.895 84.0774 344.349 84.5504 344.929 85.0225M342.934 82.7834L343.041 83.8126L342.934 82.7834ZM344.764 88.6951C344.307 87.328 343.943 85.9703 343.733 84.6984L344.764 88.6951ZM343.733 84.6984C343.982 84.9545 344.26 85.2095 344.571 85.4622L344.571 85.4623C345.286 86.0436 346.173 86.616 347.26 87.1615L347.26 87.1617C348.631 87.8466 349.689 88.2585 350.75 88.4945C350.202 89.4295 349.665 90.396 349.162 91.3669L349.162 91.3672C348.514 92.622 347.924 93.8836 347.447 95.0971C346.492 93.1574 345.509 90.9207 344.764 88.6952M343.041 83.8126C343.208 85.4004 343.646 87.1403 344.226 88.875L343.041 83.8126ZM344.929 85.0226C345.607 85.5741 346.458 86.1249 347.514 86.6547C349.028 87.4113 350.12 87.8119 351.247 88.0166L351.648 88.0894L351.44 88.44C350.827 89.4729 350.225 90.5482 349.666 91.6276C348.915 93.08 348.248 94.5327 347.749 95.9004L347.525 96.5153L347.23 95.9311C346.179 93.8497 345.058 91.3595 344.226 88.8751L344.226 88.875" fill="#FF6F3D"/>
<path fill-rule="evenodd" clip-rule="evenodd" d="M343.251 82.4102C343.237 84.2967 343.746 86.5337 344.495 88.7851C345.321 91.2525 346.436 93.7295 347.483 95.8033C347.987 94.4207 348.66 92.9566 349.414 91.4973C350.74 88.9387 352.315 86.3945 353.694 84.3591L354.823 85.1176C353.463 87.1241 351.912 89.6251 350.62 92.1214C349.611 94.0751 348.756 96.0289 348.28 97.7378L347.829 99.3652L347.027 97.877C345.768 95.5344 344.255 92.3758 343.203 89.2219C342.411 86.8457 341.873 84.4647 341.887 82.415L343.251 82.4102Z" fill="#333333"/>
<path fill-rule="evenodd" clip-rule="evenodd" d="M336.44 63.1799C334.148 66.3721 330.267 70.0156 326.136 72.5502C322.543 74.7536 318.787 76.1025 315.818 75.5313C315.492 75.4689 314.108 75.0177 311.928 71.5614C309.655 67.9563 306.711 61.2549 303.608 48.8171C304.074 48.6155 304.698 48.4283 305.352 48.2794C306.283 48.0634 307.263 47.9194 307.989 47.8666C308.45 48.9611 308.945 50.214 309.459 51.5149C311.543 56.8097 313.974 62.9879 317.961 67.1882L318.393 67.6442L318.907 67.2842C320.252 66.3481 323.84 62.1094 327.174 58.1635C329.907 54.9328 332.467 51.9037 333.341 51.2077C334.59 50.2092 336.137 49.1723 338.284 48.2938C340.355 47.4442 342.987 46.7433 346.455 46.3641L346.647 46.6329C347.786 48.1258 349.697 48.8315 351.84 48.8843C353.886 48.9323 356.168 48.3803 358.161 47.3386C358.718 47.0505 359.251 46.7241 359.751 46.3641C362.018 46.8009 365.208 48.2074 368.268 49.9932C371.356 51.7933 374.282 53.9631 375.977 55.9073C376.63 57.6834 377.404 59.6756 378.225 61.8022C382.443 72.6847 388.067 87.1963 386.021 94.7665C386.007 94.8145 385.743 95.1793 384.287 95.3761C383.346 95.5009 381.996 95.4865 380.07 95.1505C377.999 94.7905 375.233 93.9264 371.659 92.5487C368.042 91.1566 363.618 89.246 358.272 86.8074L357.666 88.1323C363.051 90.5901 367.504 92.5103 371.135 93.912C374.81 95.3281 377.668 96.2162 379.83 96.5906C381.914 96.9507 383.413 96.9651 384.489 96.821C386.804 96.509 387.395 95.3137 387.438 95.1505C389.609 87.1242 383.884 72.3534 379.589 61.2789C378.749 59.1091 377.961 57.0834 377.303 55.2832L377.255 55.1584L377.168 55.0576C375.382 52.9646 372.269 50.6364 369.002 48.7307C365.674 46.7865 362.148 45.2696 359.684 44.8712L359.376 44.8232L359.127 45.0152C358.613 45.404 358.065 45.7544 357.489 46.0521C355.706 46.9785 353.684 47.4778 351.873 47.4298C350.158 47.3866 348.66 46.8585 347.81 45.7496C347.689 45.5912 347.584 45.428 347.493 45.2552L347.262 44.8184L346.772 44.8664C342.92 45.2456 340.009 46.0089 337.732 46.9449C335.436 47.8858 333.774 48.9995 332.434 50.07C331.43 50.8717 328.831 53.9439 326.059 57.2226C323.158 60.6549 320.055 64.3224 318.561 65.6809C315.04 61.6966 312.773 55.9409 310.823 50.9821C310.256 49.5371 309.713 48.1594 309.137 46.8297L308.945 46.3881H308.464C307.643 46.3929 306.283 46.5657 305.035 46.8537C303.987 47.0985 302.988 47.4298 302.373 47.8234L301.936 48.1066L302.061 48.6107C305.26 61.5861 308.335 68.5755 310.703 72.339C313.2 76.3042 315.098 76.8802 315.554 76.9666C318.917 77.6147 323.028 76.1697 326.905 73.7935C331.233 71.1389 335.311 67.2986 337.698 63.9335C338.51 62.791 337.304 61.9798 336.44 63.1799Z" fill="#333333"/>
<path fill-rule="evenodd" clip-rule="evenodd" d="M377.38 55.3846L377.285 55.125L379.619 61.2553L379.384 60.6481L379.384 60.6469C378.65 58.7467 377.966 56.9773 377.38 55.3846ZM379.634 61.2948L379.619 61.2568L377.017 58.6754C377.326 59.4841 377.65 60.3226 377.984 61.185L377.985 61.1881L378.22 61.7973L378.223 61.8039C382.44 72.6856 388.062 87.1929 386.016 94.7616C386.002 94.8096 385.738 95.1745 384.282 95.3713C383.341 95.4961 381.991 95.4817 380.065 95.1456C377.994 94.7856 375.228 93.9216 371.654 92.5438C371.493 92.4818 371.331 92.4188 371.166 92.3547C370.896 92.2492 370.622 92.1409 370.343 92.0298C367.534 90.9114 364.278 89.5109 360.528 87.8238C360.028 87.5989 359.519 87.3689 359.002 87.1338L359.046 87.1007C359.463 86.7858 359.85 86.4262 360.206 86.0328C360.33 85.8949 360.451 85.7529 360.567 85.6073C360.904 85.1865 361.205 84.7383 361.473 84.2673L361.495 84.2295C361.581 84.2562 361.67 84.2829 361.76 84.3097L361.88 84.3452C363.676 84.873 366.075 85.4379 368.524 85.92C368.96 86.0058 369.398 86.089 369.833 86.1689C370.036 86.2064 370.239 86.2432 370.441 86.2793C372.415 86.6314 374.332 86.91 375.898 87.0542C376.128 87.0753 376.35 87.0936 376.564 87.1087C376.708 87.1189 376.848 87.1277 376.984 87.1351L377.072 87.1397L377.093 87.1407L377.149 87.1434C378.286 87.1955 378.456 85.7819 377.217 85.6827C377.2 85.6813 377.181 85.6801 377.164 85.6793C377.131 85.6772 377.098 85.6754 377.065 85.6736L377.004 85.6704C376.902 85.6652 376.8 85.6599 376.693 85.6505C376.683 85.6381 376.673 85.6253 376.662 85.6119C376.062 84.8468 374.631 82.4469 373.215 79.8708C371.878 77.4334 370.569 74.8632 370.007 73.3804C370 73.3603 369.992 73.3403 369.985 73.3206C369.979 73.3053 369.973 73.2901 369.968 73.275C370.015 71.0227 370.127 68.7424 370.3 66.4297L370.309 66.3145L370.311 66.2908L370.311 66.2883C370.373 65.1828 368.944 64.9607 368.853 66.18L368.852 66.2028L368.852 66.2044L368.839 66.3679C368.667 68.6734 368.557 70.9637 368.51 73.2445C368.507 73.3748 368.504 73.5051 368.502 73.6353C368.491 74.2856 368.485 74.9351 368.484 75.584C368.48 78.0646 368.554 80.5158 368.701 82.943C368.732 83.445 368.765 83.9459 368.802 84.4459L368.805 84.4936C368.29 84.392 367.78 84.2855 367.279 84.1757C365.363 83.7562 363.581 83.2897 362.187 82.8749C362.101 82.8621 362.013 82.8468 361.923 82.8291C361.558 82.7569 361.165 82.6447 360.751 82.4955C357.662 81.3823 353.372 78.2086 350.046 74.208C348.603 72.4722 347.342 70.5807 346.44 68.6343C346.363 68.4671 346.288 68.2995 346.216 68.1316C346.051 67.7483 345.901 67.3632 345.766 66.9771C345.901 66.2244 346.077 65.2389 346.27 64.1457C346.387 63.4878 346.51 62.7908 346.634 62.0821C346.875 60.7061 347.122 59.2858 347.338 58.0209C347.651 56.1831 347.897 54.6733 347.962 54.1039C347.978 53.9716 347.983 53.8901 347.978 53.8671C347.877 53.4446 347.781 53.0174 347.689 52.5805C347.648 52.6011 347.606 52.6208 347.565 52.6399L347.583 52.6028C347.602 52.5622 347.621 52.5219 347.641 52.4818C347.995 51.747 348.383 51.0918 348.8 50.5597C349.091 50.188 349.396 49.8763 349.716 49.6394C349.74 49.6215 349.764 49.6041 349.788 49.5871C350.211 49.2902 350.657 49.1249 351.125 49.1249C352.437 52.9214 356.254 53.9199 357.147 53.4254C358.66 52.5901 359.404 49.7554 359.805 47.634C359.912 47.0667 359.994 46.5505 360.06 46.1371L360.062 46.1249C360.543 46.3106 361.018 46.4984 361.491 46.6907C363.722 47.5991 365.892 48.6106 368.263 49.9931L376.022 56.0387C376.006 55.9931 375.989 55.9477 375.972 55.9024C374.277 53.9583 371.351 51.7885 368.263 49.9931L369.018 48.6974L369.017 48.6969C366.054 46.9687 363.398 45.8057 360.603 44.7257L358.874 44.0576L358.581 45.8882C358.423 46.8765 358.189 48.3342 357.776 49.6654C357.57 50.3294 357.335 50.9088 357.074 51.3565C356.861 51.7214 356.671 51.9304 356.526 52.0428C356.465 52.0419 356.376 52.0354 356.259 52.0161C355.93 51.9616 355.485 51.8223 355.004 51.5636C354.054 51.0515 353.058 50.125 352.542 48.6348L352.193 47.6249H351.125C349.324 47.6249 348.028 48.965 347.18 50.2445C346.932 50.6197 346.697 51.0263 346.476 51.4557C345.995 51.6002 345.71 51.5447 345.609 51.5087L345.606 51.5074C345.528 51.4799 345.44 51.4272 345.337 51.2341C345.219 51.0128 345.115 50.6585 345.066 50.1524C344.975 49.1824 345.111 47.953 345.28 47.0013L345.657 44.8846L343.54 45.2617C341.234 45.6726 339.326 46.2431 337.713 46.8998L337.711 46.9007C335.405 47.8444 333.736 48.9634 332.401 50.0306C331.833 50.4832 330.875 51.5361 329.82 52.743C328.739 53.9799 327.435 55.5219 326.096 57.1039L326.024 57.1899L326.01 57.2062C324.344 59.1757 322.631 61.2004 321.168 62.8505C320.434 63.6778 319.773 64.3989 319.22 64.9651C318.961 65.2296 318.74 65.4457 318.556 65.6166C315.094 61.6834 312.867 56.0855 310.849 50.9605L310.849 50.9589L310.67 50.5071C310.222 49.372 309.784 48.261 309.364 47.2742L308.947 46.2947L307.885 46.365C307.064 46.4193 306.008 46.5826 305.01 46.8129L305.003 46.8144C304.318 46.9755 303.594 47.1819 303.007 47.4356L301.839 47.941L302.148 49.1757C305.273 61.6885 308.26 68.5588 310.654 72.3563C312.92 75.9553 314.601 76.8232 315.533 76.9999C319.079 77.6812 323.249 76.0695 326.915 73.8246L326.916 73.8239C329.086 72.4922 331.191 70.8683 333.055 69.1518L333.039 69.5192L333.038 69.5332C332.888 74.0117 332.922 83.0185 333.39 91.527C333.708 97.2954 334.221 102.919 335.025 106.722L335.165 107.385L335.755 107.718C341.112 110.743 347.122 112.056 352.995 112.308C360.382 112.624 367.654 111.277 373.387 109.47L374.765 109.036L374.383 107.643C373.727 105.249 373.148 102.885 372.64 100.536C372.173 98.3773 371.769 96.2187 371.428 94.0637C374.881 95.3833 377.655 96.249 379.808 96.6235C381.835 96.9771 383.345 97.0087 384.479 96.8583L384.483 96.8577C385.309 96.7461 385.907 96.5734 386.347 96.3589C386.57 96.2504 386.77 96.1223 386.94 95.9706C387.025 95.895 387.111 95.807 387.188 95.7052C387.241 95.6372 387.374 95.456 387.453 95.1929L387.459 95.173L387.464 95.153C388.046 92.9995 388.06 90.4584 387.744 87.7722C387.426 85.0703 386.762 82.1237 385.911 79.1135C384.214 73.1134 381.734 66.714 379.634 61.2948ZM347.565 52.6399C347.084 52.8633 346.643 52.9847 346.251 53.0297C346.075 53.0498 345.91 53.0546 345.754 53.0464C345.512 53.0335 345.295 52.989 345.105 52.9214C344.116 52.5709 343.693 51.5293 343.573 50.2956C343.513 49.6627 343.533 48.9668 343.593 48.3032C343.643 47.7386 343.722 47.1975 343.803 46.7385C343.255 46.8361 342.732 46.943 342.232 47.0578C340.716 47.4057 339.413 47.827 338.279 48.289C336.132 49.1675 334.585 50.2043 333.337 51.2028C332.469 51.8932 329.944 54.8785 327.236 58.0792L327.147 58.1842C323.82 62.1181 320.244 66.3453 318.902 67.2793L318.388 67.6394L317.956 67.1833C313.974 62.983 311.538 56.8049 309.454 51.5101L309.275 51.0576C308.826 49.9194 308.395 48.8288 307.984 47.8618C307.258 47.9098 306.283 48.0586 305.347 48.2746C304.693 48.4282 304.069 48.6106 303.603 48.8122C306.711 61.2549 309.651 67.9514 311.923 71.5565C314.099 75.0128 315.482 75.464 315.813 75.5264C318.782 76.0977 322.534 74.7488 326.131 72.5454C328.674 70.9855 331.121 69.0075 333.162 66.9716C333.306 66.8279 333.448 66.6839 333.588 66.5398C334.687 65.4077 335.653 64.2656 336.435 63.175C336.444 63.1621 336.453 63.1494 336.463 63.1369C336.476 63.1191 336.49 63.1018 336.503 63.0849L336.504 63.0835C337.362 62.0133 338.483 62.8117 337.689 63.9287L337.619 64.025L337.611 64.037C336.789 65.1759 335.779 66.3712 334.634 67.553L334.585 68.465L334.537 69.5835C334.389 74.0143 334.422 82.9766 334.888 91.4445C335.205 97.205 335.714 102.73 336.492 106.412C341.594 109.292 347.358 110.564 353.06 110.809C360.236 111.117 367.331 109.806 372.936 108.039C372.274 105.62 371.688 103.23 371.174 100.853C370.639 98.3783 370.185 95.9033 369.812 93.433L369.805 93.3839C368.423 92.8349 366.902 92.1439 365.276 91.4051C363.139 90.4345 360.821 89.3815 358.399 88.4595L358.334 88.4347C357.794 88.2299 357.187 87.7604 356.538 87.0962C354.095 84.5967 351.06 79.339 348.791 75.0443C346.871 71.4098 345.5 68.465 345.5 68.465C345.5 68.465 345.603 67.8937 345.766 66.9771C345.458 66.0912 345.232 65.1999 345.105 64.3124C345.026 63.7615 345.043 62.9074 345.147 61.8789C345.269 60.6653 345.514 59.2089 345.867 57.721C346.128 56.6217 346.449 55.5051 346.823 54.4568C346.864 54.3429 346.905 54.2299 346.947 54.1178L346.949 54.1126C347.142 53.599 347.347 53.1046 347.565 52.6399ZM357.622 86.0593C357.667 86.1054 357.711 86.1496 357.754 86.192L358.107 85.9299C358.574 85.5829 359.006 85.1572 359.396 84.6698C359.612 84.4006 359.812 84.1155 359.997 83.8153C358.957 83.4156 357.86 82.8405 356.769 82.1546C355.468 81.3369 354.115 80.3236 352.794 79.1651C353.769 80.8251 354.773 82.4159 355.735 83.7507C356.413 84.6918 357.05 85.476 357.622 86.0593ZM374.712 85.4168C373.385 85.2535 371.877 85.0173 370.327 84.7345L370.301 84.3833C370.121 81.9342 370.015 79.4616 369.99 76.9598C370.569 78.1218 371.238 79.3852 371.9 80.5921L371.901 80.5935C372.628 81.9171 373.362 83.1988 373.99 84.2455C374.243 84.6659 374.487 85.0633 374.712 85.4168Z" fill="#333333"/>
<path fill-rule="evenodd" clip-rule="evenodd" d="M375.972 55.9024C376.625 57.6785 377.399 59.6707 378.22 61.7972C382.438 72.6797 388.063 87.1913 386.016 94.7616C386.002 94.8096 385.738 95.1744 384.282 95.3712C383.341 95.496 381.991 95.4816 380.065 95.1456C377.994 94.7856 375.228 93.9215 371.654 92.5438C368.205 91.2141 364.021 89.4139 359.002 87.1337C359.583 86.7017 360.106 86.1832 360.567 85.6072C360.913 85.1752 361.221 84.7143 361.495 84.2295C363.627 84.8823 366.769 85.6072 369.833 86.1688C372.586 86.6777 375.285 87.0569 377.149 87.1433C378.302 87.1961 378.46 85.7416 377.163 85.6792C377.01 85.6696 376.856 85.6648 376.693 85.6504C376.112 84.9303 374.656 82.4917 373.215 79.8707C371.846 77.3745 370.506 74.7391 369.968 73.275C370.016 70.9852 370.131 68.6666 370.309 66.3144C370.395 65.1863 368.945 64.9511 368.853 66.18C368.613 69.3386 368.488 72.4685 368.484 75.584C368.479 78.5938 368.589 81.5605 368.805 84.4935C366.322 84.0039 363.945 83.3981 362.187 82.8749C357.147 82.1249 346.353 73.0348 345.105 64.3124C344.672 61.2873 347.114 49.1249 351.125 49.1249C352.437 52.9213 356.254 53.9198 357.147 53.4254C359.069 52.3645 359.75 48.0786 360.062 46.1249C362.812 47.1874 365.39 48.3177 368.263 49.9931C371.351 51.7884 374.277 53.9582 375.972 55.9024ZM345.5 68.465C345.5 68.465 348.064 54.2222 347.978 53.867C347.877 53.4446 347.781 53.0173 347.689 52.5805C346.599 53.1181 345.71 53.1373 345.105 52.9213C344.116 52.5709 343.693 51.5292 343.573 50.2955C343.462 49.1242 343.626 47.7369 343.803 46.7384C341.594 47.132 339.788 47.6745 338.279 48.2889C336.132 49.1674 334.585 50.2043 333.337 51.2028C332.462 51.8988 329.902 54.9279 327.169 58.1585C323.835 62.0997 320.247 66.3432 318.902 67.2793L318.388 67.6393L317.956 67.1833C313.974 62.9829 311.538 56.8048 309.454 51.51C308.94 50.2091 308.45 48.9562 307.984 47.8617C307.258 47.9097 306.283 48.0585 305.347 48.2745C304.693 48.4281 304.069 48.6106 303.603 48.8122C306.711 61.2548 309.651 67.9513 311.923 71.5564C314.099 75.0127 315.482 75.464 315.813 75.5264C318.782 76.0976 322.534 74.7487 326.131 72.5453C330.262 70.0107 334.144 66.372 336.435 63.1749C337.299 61.97 338.505 62.7813 337.688 63.9286C336.853 65.0999 335.815 66.3336 334.633 67.5529L334.585 68.465L334.537 69.5835C334.388 74.0142 334.422 82.9766 334.888 91.4445C335.205 97.205 335.714 102.73 336.492 106.412C341.594 109.292 347.358 110.564 353.06 110.809C360.236 111.116 367.331 109.806 372.936 108.039C372.274 105.62 371.688 103.229 371.174 100.853C370.636 98.3618 370.179 95.8705 369.805 93.3839C366.591 92.1069 362.625 90.0624 358.334 88.4346C354.043 86.8069 345.5 68.465 345.5 68.465Z" fill="#EFEFEF"/>
<path fill-rule="evenodd" clip-rule="evenodd" d="M368.854 66.1801C368.613 69.3387 368.489 72.4686 368.484 75.584C368.479 78.9299 368.613 82.2182 368.882 85.468L370.343 85.348C370.074 82.0982 369.939 78.8483 369.944 75.584C369.949 72.5502 370.069 69.4683 370.314 66.3193C370.396 65.1912 368.945 64.9512 368.854 66.1801ZM369.757 93.0431L371.202 92.8318C371.587 95.4049 372.053 97.9779 372.61 100.56C373.167 103.153 373.811 105.745 374.536 108.337L374.723 109.009L374.061 109.225C368.22 111.145 360.668 112.605 353.002 112.278C346.974 112.019 340.878 110.651 335.484 107.526L335.21 107.367L335.138 107.051C334.297 103.282 333.755 97.5218 333.428 91.5261C332.962 83.0246 332.924 74.0143 333.077 69.5451L333.125 68.4026L333.188 67.2025L334.648 67.2938L334.586 68.4698L334.538 69.5883C334.389 74.0191 334.422 82.9814 334.888 91.4493C335.205 97.2098 335.714 102.735 336.493 106.417C341.594 109.297 347.358 110.569 353.06 110.814C360.236 111.121 367.331 109.811 372.937 108.044C372.274 105.625 371.688 103.234 371.174 100.858C370.621 98.2515 370.146 95.6497 369.757 93.0431Z" fill="#333333"/>
<path fill-rule="evenodd" clip-rule="evenodd" d="M382.971 236.57C381.828 237.861 380.377 239.249 378.888 240.67C376.477 242.974 373.969 245.369 372.716 247.419C371.774 248.96 371.601 250.294 372.937 251.173C373.748 251.274 376.65 250.05 380.012 248.35C383.773 246.449 388.01 243.953 390.609 241.98C390.628 241.961 390.681 241.923 390.7 241.913C390.753 241.875 390.839 241.817 390.94 241.731C391.478 241.265 392.328 240.002 389.696 236.945L390.806 235.994C394.302 240.06 392.789 242.062 391.886 242.839C391.757 242.95 391.627 243.041 391.54 243.103L391.473 243.151C388.793 245.182 384.484 247.726 380.67 249.651C376.899 251.557 373.513 252.872 372.447 252.56L372.355 252.536L372.274 252.483C369.901 251.039 370.05 248.984 371.472 246.661C372.826 244.448 375.401 241.985 377.884 239.614C379.354 238.207 380.79 236.839 381.881 235.605L382.971 236.57Z" fill="#333333"/>
<path fill-rule="evenodd" clip-rule="evenodd" d="M342.026 235.615C340.552 236.22 338.755 236.839 336.92 237.468C333.231 238.73 329.384 240.05 327.174 241.663C325.214 243.099 324.455 244.74 325.906 246.713L325.963 246.79L326.04 246.853C326.919 247.558 331.276 247.673 336.19 247.371C340.945 247.078 346.306 246.435 349.476 245.595L349.553 245.576C350.288 245.412 353.252 244.736 351.835 239.522C351.782 239.33 351.398 238.486 351.042 237.689C350.749 237.041 350.471 236.421 350.437 236.325L349.049 236.781C349.097 236.93 349.395 237.593 349.712 238.289C350.048 239.038 350.408 239.83 350.428 239.902C351.446 243.656 349.673 244.054 349.236 244.15L349.131 244.174C346.052 244.99 340.792 245.619 336.108 245.907C331.656 246.181 327.798 246.176 327.025 245.749C326.309 244.678 326.833 243.718 328.048 242.83C330.07 241.351 333.812 240.07 337.405 238.836C339.231 238.212 341.022 237.597 342.593 236.949L342.026 235.615Z" fill="#333333"/>
<path fill-rule="evenodd" clip-rule="evenodd" d="M378.888 240.67C376.477 242.974 373.969 245.369 372.716 247.419C371.774 248.96 371.601 250.294 372.937 251.173C373.748 251.274 376.65 250.05 380.012 248.35C383.773 246.449 388.01 243.953 390.609 241.98C390.628 241.961 390.681 241.923 390.7 241.913C390.753 241.875 390.839 241.817 390.94 241.731C391.233 241.481 391.612 241.001 391.488 240.132C391.396 239.47 391.007 238.577 390.061 237.386C389.076 237.813 387.832 237.996 386.588 237.962C385.137 237.924 383.648 237.597 382.563 237.026C381.66 238.01 380.598 239.037 379.498 240.094C379.292 240.286 379.09 240.478 378.888 240.67Z" fill="#FEFEFE"/>
<path fill-rule="evenodd" clip-rule="evenodd" d="M350.418 239.906C350.442 239.993 350.466 240.079 350.485 240.166C351.355 243.679 349.654 244.063 349.227 244.159L349.121 244.183C346.042 245 340.782 245.628 336.099 245.916C331.646 246.19 327.789 246.185 327.015 245.758C326.3 244.688 326.823 243.727 328.038 242.839C329.268 241.937 331.142 241.111 333.226 240.324C334.566 239.82 335.988 239.33 337.396 238.85C339.029 238.289 340.633 237.741 342.079 237.165C342.977 237.756 344.366 238.365 345.96 238.471C347.065 238.543 348.271 238.375 349.476 237.794C349.548 237.953 349.625 238.125 349.702 238.293C350.038 239.042 350.394 239.834 350.418 239.906Z" fill="#FEFEFE"/>
<path fill-rule="evenodd" clip-rule="evenodd" d="M371.159 110.099C374.546 121.173 378.331 141.177 381.645 163.796C386.425 187.092 389.504 213.331 389.46 235.562C388.581 236.047 387.299 236.33 386.021 236.359C384.753 236.388 383.523 236.176 382.74 235.682C381.64 231.496 377.207 213.519 371.25 192.666C366.226 175.067 359.621 155.952 356.153 142.545L354.765 137.48C354.679 150.072 353.833 163.297 353.286 171.875C353.122 174.458 352.983 176.618 352.896 178.264C352.892 178.375 352.896 178.797 352.906 179.503C352.988 185.614 353.353 213.629 349.015 236.388C347.997 236.92 346.974 237.074 346.042 237.016C344.774 236.935 343.664 236.46 342.939 235.989C342.857 229.408 342.636 219.951 342.017 209.87C341.382 199.564 340.321 188.571 338.553 179.253C338.409 178.495 335.748 163.239 335.594 142.602C335.517 132.291 336.07 120.636 337.876 108.774C342.646 111.016 347.848 112.048 352.997 112.273C359.453 112.552 365.823 111.563 371.159 110.099Z" fill="#404040"/>
<path fill-rule="evenodd" clip-rule="evenodd" d="M337.791 108.615L337.922 108.676C342.676 110.911 347.864 111.94 353.002 112.166C359.444 112.443 365.803 111.457 371.131 109.995L371.232 109.967L371.263 110.067C374.652 121.15 378.437 141.159 381.752 163.777C386.532 187.079 389.612 213.324 389.569 235.562L389.568 235.626L389.513 235.657C388.614 236.152 387.313 236.438 386.024 236.467C384.747 236.496 383.492 236.284 382.683 235.773L382.647 235.751L382.636 235.709C382.432 234.931 382.112 233.677 381.689 232.018C379.836 224.743 375.996 209.673 371.147 192.695C368.882 184.764 366.297 176.525 363.822 168.637C363.551 167.776 363.282 166.918 363.015 166.066C360.303 157.412 357.784 149.279 356.049 142.573C356.049 142.572 356.049 142.573 356.049 142.573L354.867 138.26C354.752 150.598 353.933 163.436 353.396 171.838L353.393 171.882C353.393 171.882 353.393 171.882 353.393 171.882M353.004 178.27C353 178.377 353.004 178.794 353.014 179.502C353.096 185.612 353.461 213.637 349.121 236.408L349.112 236.459L349.065 236.483C348.027 237.026 346.984 237.183 346.035 237.124C344.745 237.041 343.618 236.558 342.88 236.08L342.832 236.048L342.831 235.991C342.749 229.41 342.528 219.955 341.909 209.877C341.275 199.572 340.214 188.585 338.447 179.274C338.302 178.51 335.64 163.248 335.486 142.603C335.41 132.288 335.962 120.626 337.769 108.758L337.791 108.615M353.004 178.27C353.081 176.82 353.198 174.973 353.336 172.788C353.355 172.492 353.374 172.19 353.393 171.882M337.961 108.933C336.173 120.739 335.626 132.336 335.702 142.602C335.856 163.231 338.516 178.48 338.659 179.233C340.428 188.557 341.49 199.555 342.124 209.864C342.742 219.917 342.964 229.35 343.046 235.93C343.759 236.382 344.83 236.83 346.049 236.909C346.95 236.964 347.936 236.819 348.919 236.316C353.244 213.579 352.88 185.612 352.798 179.504C352.789 178.802 352.784 178.374 352.789 178.26C352.865 176.809 352.982 174.959 353.12 172.775C353.139 172.479 353.158 172.177 353.178 171.868L353.18 171.826C353.728 163.247 354.571 150.047 354.657 137.48L354.662 136.697L356.258 142.518C357.991 149.218 360.508 157.346 363.221 166.001C363.489 166.854 363.758 167.711 364.028 168.573C366.503 176.46 369.089 184.702 371.354 192.636C376.205 209.617 380.046 224.693 381.899 231.966C382.314 233.595 382.629 234.833 382.834 235.613C383.592 236.075 384.779 236.279 386.019 236.251C387.258 236.223 388.495 235.953 389.353 235.498C389.39 213.289 386.313 187.086 381.54 163.818L381.538 163.812C378.234 141.261 374.463 121.317 371.087 110.231C365.762 111.682 359.421 112.659 352.993 112.381C347.88 112.157 342.711 111.14 337.961 108.933Z" fill="#404040"/>
<path fill-rule="evenodd" clip-rule="evenodd" d="M354.77 137.336C354.688 149.971 353.838 163.263 353.29 171.875C353.127 174.458 352.988 176.618 352.901 178.265C352.897 178.375 352.901 178.797 352.911 179.503C352.993 185.614 353.358 213.629 349.02 236.388C348.002 236.921 346.979 237.074 346.047 237.017C344.779 236.935 343.669 236.46 342.944 235.989C342.862 229.408 342.641 219.951 342.021 209.87C341.387 199.564 340.326 188.571 338.558 179.253C338.414 178.495 335.753 163.239 335.599 142.602C335.522 132.003 336.104 119.993 338.035 107.795L336.594 107.569C334.653 119.844 334.067 131.941 334.144 142.602C334.297 163.378 336.978 178.749 337.122 179.513C338.88 188.763 339.932 199.693 340.566 209.947C341.2 220.234 341.416 229.821 341.493 236.378L341.498 236.738L341.786 236.954C342.656 237.602 344.178 238.351 345.96 238.466C347.243 238.548 348.655 238.308 350.053 237.482L350.336 237.314L350.399 236.993C354.828 214.042 354.453 185.648 354.376 179.479C354.366 178.826 354.362 178.428 354.366 178.332C354.448 176.776 354.587 174.583 354.756 171.962C355.236 164.463 355.942 153.427 356.168 142.338L354.77 137.336Z" fill="#333333"/>
<path fill-rule="evenodd" clip-rule="evenodd" d="M346.364 123.367C347.296 124.202 348.348 124.947 349.515 125.494C350.721 126.055 352.056 126.415 353.507 126.459L354.097 126.478L354.165 127.059C356.057 143.284 361.182 159.365 367.235 178.341C372.403 194.552 378.244 212.875 383.331 235.212C384.234 235.62 385.214 235.72 386.17 235.653C387.083 235.586 387.981 235.36 388.769 235.087C388.601 228.467 388.221 218.453 387.366 207.816C386.761 200.265 385.92 192.421 384.748 185.302C384.585 184.318 384.427 183.382 384.263 182.489C384.1 181.586 383.927 180.698 383.754 179.829C383.615 179.148 383.432 178.289 383.25 177.453C382.769 175.231 382.327 173.195 382.078 170.661C381.91 168.947 381.722 167.18 381.52 165.38C381.314 163.532 381.098 161.761 380.882 160.057C379.681 150.71 378.144 141.638 376.41 133.299C374.608 124.649 372.591 116.805 370.511 110.296L371.803 109.888C373.897 116.455 375.929 124.342 377.735 133.026C379.479 141.378 381.021 150.489 382.227 159.889C382.462 161.722 382.678 163.508 382.875 165.231C383.067 166.945 383.254 168.712 383.432 170.531C383.668 172.951 384.105 174.967 384.58 177.16C384.729 177.852 384.883 178.567 385.085 179.561C385.262 180.439 385.435 181.337 385.599 182.244C385.772 183.209 385.94 184.15 386.089 185.076C387.265 192.258 388.116 200.135 388.721 207.705C389.595 218.583 390.633 229.326 390.796 235.984L390.806 236.465L390.354 236.637C388.173 237.463 383.586 237.977 381.938 235.908L381.871 235.6C376.775 213.159 371.121 195.004 365.938 178.745C359.934 159.908 354.837 143.918 352.877 127.774C351.451 127.659 350.139 127.275 348.934 126.713C347.608 126.094 346.421 125.254 345.389 124.313C344.471 123.478 345.446 122.542 346.364 123.367Z" fill="#333333"/>
<path fill-rule="evenodd" clip-rule="evenodd" d="M351.869 47.425C353.675 47.4682 355.702 46.9737 357.484 46.0472C357.681 45.9464 357.873 45.836 358.065 45.7208L357.642 37.2241C357.037 37.9394 356.442 38.5346 355.865 39.0291C352.123 42.2453 348.982 41.3573 348.77 41.2757C348.655 41.2324 348.54 41.1892 348.429 41.1412L347.8 45.7352C347.8 45.7352 347.8 45.74 347.805 45.74C348.655 46.8537 350.154 47.3865 351.869 47.425Z" fill="#FEFEFE"/>
<path fill-rule="evenodd" clip-rule="evenodd" d="M350.178 23.6007C351.662 20.0916 355.601 22.0934 355.615 23.9703C355.428 23.7639 354.602 23.2694 354.131 23.2118C353.968 25.3 351.47 25.7369 350.797 23.5095C350.528 23.4951 350.375 23.4807 350.178 23.6007ZM349.28 39.9076C349.433 39.9652 351.792 40.6085 354.919 37.9203C356.552 36.5185 358.353 34.224 360.107 30.5132C360.078 30.5228 360.044 30.5324 360.015 30.5421C359.554 30.6669 359.175 29.8316 359.938 29.5436C360.14 29.4668 360.342 29.3612 360.52 29.2363C360.899 28.9771 361.202 28.6555 361.384 28.3675C362.105 27.2394 362.292 25.9865 362.042 25.0744C361.946 24.724 361.783 24.4263 361.567 24.2247C361.365 24.0327 361.101 23.9175 360.784 23.9031C360.15 23.8743 359.309 24.2199 358.291 25.1272C357.724 25.6312 357.22 24.9832 357.494 24.5608L357.176 24.1143C357.239 22.151 357.176 20.538 357.018 19.2179C356.85 17.8402 356.576 16.8033 356.216 16.0449C355.985 15.5552 355.63 15.0752 355.197 14.6863C354.804 14.3263 354.352 14.0479 353.881 13.9039C353.324 13.7311 352.762 13.7743 352.21 13.9423C351.6 14.1295 350.985 14.4703 350.375 14.8736C350.067 15.0752 349.765 15.2912 349.472 15.5024C347.944 16.5969 346.729 17.4658 344.313 16.8225C343.986 16.7361 343.679 16.5729 343.415 16.3473C343.386 16.3233 343.357 16.2993 343.333 16.2753C342.896 16.9377 342.521 17.701 342.204 18.5411C341.133 21.4213 340.821 25.1512 341.416 28.7371C342.007 32.2942 343.487 35.6881 345.994 37.9299C346.94 38.7651 348.031 39.4468 349.28 39.9076ZM360.044 25.6072C359.439 25.7273 359.372 25.2232 360.006 25.1176C360.198 25.0888 360.371 25.0888 360.525 25.1272C360.779 25.1848 360.971 25.324 361.101 25.5256C361.221 25.7129 361.283 25.9529 361.283 26.2217C361.283 26.6681 361.111 27.225 360.75 27.7818C360.616 27.993 360.39 28.2331 360.121 28.4155C359.977 28.5163 359.818 28.5979 359.645 28.6555C359.232 28.7995 359.064 28.3819 359.578 28.1611C359.669 28.1226 359.761 28.0698 359.847 28.0122C360.063 27.8682 360.236 27.681 360.342 27.5178C360.649 27.0378 360.798 26.5817 360.798 26.2217C360.798 26.0441 360.765 25.8953 360.693 25.7897C360.63 25.6936 360.539 25.6312 360.419 25.6024C360.313 25.5784 360.188 25.5784 360.044 25.6072ZM341.685 23.4519C343.035 19.89 347.051 21.7429 347.137 23.6199C346.94 23.4231 346.1 22.9574 345.624 22.919C345.542 25.012 343.059 25.54 342.305 23.3415C342.036 23.3319 341.877 23.3271 341.685 23.4519ZM347.997 32.3422C350.788 34.5936 351.801 30.5997 352.291 29.9852C352.152 34.944 348.348 34.5984 347.997 32.3422ZM347.267 28.6027C347.594 28.7803 348.117 28.9627 349.275 28.9867C346.887 29.9324 346.047 28.8235 346.08 27.7914C346.119 26.3993 347.425 26.6777 347.161 24.4215C348.295 26.0057 345.735 27.7722 347.267 28.6027Z" fill="#FEFEFE"/>
<path fill-rule="evenodd" clip-rule="evenodd" d="M332.672 36.5015C338.228 36.4211 343.682 39.1904 346.801 44.2647C350.514 50.3112 349.807 57.8264 345.589 63.0405C350.257 70.6792 354.791 78.4009 359.597 85.9563C361.79 89.3956 361.24 92.1935 358.231 94.0406C356.647 95.0478 353.108 96.1635 350.589 92.0433C345.838 84.2716 341.082 76.5002 336.332 68.7285C329.769 70.1356 322.747 67.3689 319.034 61.3224C315.915 56.2422 315.917 50.1297 318.496 45.2064C319.819 47.3647 321.148 49.5228 322.471 51.6811C324.318 54.684 328.286 55.6347 331.288 53.7879C332.37 53.1232 333.452 52.4585 334.534 51.7939C337.537 49.947 338.488 45.9794 336.641 42.9706C335.324 40.8179 333.995 38.6599 332.672 36.5015Z" fill="#FF6F3D"/>
<path fill-rule="evenodd" clip-rule="evenodd" d="M345.589 63.0405C349.807 57.8264 350.514 50.3112 346.801 44.2647C344.021 39.7419 339.386 37.0502 334.477 36.5756C333.878 36.5177 333.276 36.4928 332.672 36.5015C332.981 37.0064 333.291 37.5113 333.601 38.0161C333.833 38.3943 334.066 38.7726 334.298 39.1507C335.081 40.4252 335.863 41.6988 336.641 42.9706C338.488 45.9794 337.537 49.947 334.534 51.7939L331.288 53.7879C328.286 55.6347 324.318 54.684 322.471 51.6811C321.809 50.602 321.146 49.5229 320.483 48.4438C320.131 47.8702 319.778 47.2966 319.426 46.723C319.116 46.2175 318.806 45.7119 318.496 45.2064C318.215 45.7422 317.965 46.2921 317.746 46.8532C315.954 51.4479 316.254 56.795 319.034 61.3224C322.747 67.3689 329.769 70.1356 336.332 68.7285C338.706 72.6137 341.083 76.4989 343.459 80.384C345.836 84.2704 348.213 88.1569 350.589 92.0433C353.108 96.1635 356.647 95.0478 358.231 94.0406C361.24 92.1935 361.79 89.3956 359.597 85.9563C356.376 80.8917 353.276 75.7525 350.177 70.6137C348.652 68.0862 347.128 65.5589 345.589 63.0405ZM351.869 91.261C352.905 92.9562 354.01 93.4009 354.878 93.4694C355.849 93.5459 356.807 93.1689 357.426 92.7748L357.436 92.7685L357.446 92.7623C358.695 91.9955 359.242 91.16 359.387 90.3354C359.539 89.4753 359.312 88.2991 358.333 86.7626L358.332 86.7614C355.101 81.6822 351.985 76.5159 348.88 71.3679C347.358 68.8442 345.838 66.325 344.309 63.8226L343.758 62.9198L344.423 62.0972C348.253 57.3617 348.893 50.5379 345.523 45.0501C343.22 41.3019 339.512 38.9378 335.491 38.2266C335.519 38.2722 335.547 38.3178 335.575 38.3634C336.358 39.6389 337.142 40.9149 337.92 42.1867C340.2 45.9015 339.028 50.7914 335.32 53.0715L332.074 55.0656C332.074 55.0657 332.074 55.0654 332.074 55.0656C328.364 57.3469 323.473 56.1735 321.193 52.4669L321.192 52.4651C320.531 51.3867 319.868 50.3083 319.205 49.2291L319.204 49.2274C319.057 48.9868 318.909 48.7462 318.761 48.5055C317.579 52.4152 318.009 56.7868 320.312 60.5374C323.682 66.025 330.057 68.5399 336.017 67.2618L337.057 67.0389L337.612 67.9462C339.987 71.8318 342.363 75.7174 344.74 79.6032L344.749 79.6182C347.123 83.499 349.496 87.3799 351.869 91.261Z" fill="#333333"/>
<path d="M361.76 84.3346C361.935 87.2392 355.87 91.1426 352.166 91.366C348.462 91.5894 346.685 86.8643 346.51 83.9597C346.334 81.0551 351.306 79.9331 355.01 79.7097C358.713 79.4864 361.646 82.4439 361.76 84.3346Z" fill="white"/>
<path fill-rule="evenodd" clip-rule="evenodd" d="M359.669 85.7094C360.174 85.0562 360.274 84.6256 360.262 84.4249C360.242 84.0862 359.85 83.2278 358.806 82.4103C357.831 81.6467 356.524 81.1211 355.1 81.207C353.324 81.3141 351.334 81.6349 349.861 82.2226C348.252 82.8638 347.984 83.4884 348.007 83.8694C348.082 85.1172 348.513 86.7779 349.294 88.0521C350.071 89.3213 350.999 89.9337 352.076 89.8687C353.554 89.7795 355.731 88.902 357.558 87.6259C358.454 87.0005 359.186 86.3331 359.669 85.7094ZM352.166 91.366C355.87 91.1426 361.935 87.2392 361.76 84.3346C361.646 82.4439 358.713 79.4864 355.01 79.7097C351.306 79.9331 346.334 81.0551 346.51 83.9597C346.685 86.8643 348.462 91.5894 352.166 91.366Z" fill="#333333"/>
<rect x="68" y="25.0044" width="14" height="14" rx="7" fill="#3587B3"/>
<rect x="88" y="25.0044" width="14" height="14" rx="7" fill="#3587B3"/>
<rect x="108" y="25.0044" width="14" height="14" rx="7" fill="#3587B3"/>
</svg>
