<svg width="448" height="254" viewBox="0 0 448 254" fill="none" xmlns="http://www.w3.org/2000/svg">
<path d="M307.495 16.4962V188.5H6.5V16.4962C6.5 12.5941 9.59981 9.5 13.5052 9.5H300.495C304.315 9.5 307.358 12.4541 307.495 16.23V16.4962Z" fill="#AAAAAA" stroke="#333333"/>
<path d="M12.5 182.5V15.5H301.5V182.5H12.5Z" fill="white" stroke="#333333"/>
<path d="M301 16H13V48H301V16Z" fill="#0082C9"/>
<path d="M39.0229 24.0767C35.9133 24.0767 33.2776 26.1605 32.4608 28.9838C31.7508 27.4862 30.2123 26.4371 28.4403 26.4371C26.0033 26.4371 24 28.4173 24 30.8262C24 33.2351 26.0033 35.2162 28.4403 35.2162C30.2123 35.2162 31.7508 34.1664 32.4608 32.6686C33.2776 35.4922 35.9133 37.5767 39.0229 37.5767C42.1095 37.5767 44.7317 35.5236 45.5694 32.7319C46.2925 34.1957 47.8119 35.2162 49.5588 35.2162C51.9958 35.2162 54 33.2351 54 30.8262C54 28.4173 51.9958 26.4371 49.5588 26.4371C47.8119 26.4371 46.2925 27.457 45.5694 28.9205C44.7317 26.129 42.1095 24.0767 39.0229 24.0767ZM39.0229 26.6532C41.3702 26.6532 43.2455 28.5059 43.2455 30.8262C43.2455 33.1465 41.3702 35.0002 39.0229 35.0002C36.6755 35.0002 34.8012 33.1465 34.8012 30.8262C34.8012 28.5059 36.6755 26.6532 39.0229 26.6532ZM28.4403 29.0136C29.4687 29.0136 30.2749 29.8096 30.2749 30.8262C30.2749 31.8428 29.4687 32.6397 28.4403 32.6397C27.4118 32.6397 26.6065 31.8428 26.6065 30.8262C26.6065 29.8096 27.4118 29.0136 28.4403 29.0136ZM49.5588 29.0136C50.5873 29.0136 51.3934 29.8096 51.3934 30.8262C51.3934 31.8428 50.5872 32.6397 49.5588 32.6397C48.5304 32.6397 47.7251 31.8428 47.7251 30.8262C47.7251 29.8096 48.5304 29.0136 49.5588 29.0136Z" fill="white"/>
<path d="M67.0265 31.308H69.9865L68.5465 27.116H68.5145L67.0265 31.308ZM67.2665 24.3H69.8425L74.1145 35.724H71.5065L70.6425 33.18H66.3705L65.4745 35.724H62.9465L67.2665 24.3ZM79.0356 34.236C79.4089 34.236 79.7183 34.1613 79.9636 34.012C80.2196 33.8627 80.4223 33.6707 80.5716 33.436C80.7316 33.1907 80.8436 32.908 80.9076 32.588C80.9716 32.268 81.0036 31.9427 81.0036 31.612C81.0036 31.2813 80.9663 30.956 80.8916 30.636C80.8276 30.316 80.7156 30.0333 80.5556 29.788C80.3956 29.532 80.1876 29.3293 79.9316 29.18C79.6863 29.02 79.3823 28.94 79.0196 28.94C78.6463 28.94 78.3316 29.02 78.0756 29.18C77.8303 29.3293 77.6276 29.5267 77.4676 29.772C77.3183 30.0173 77.2116 30.3 77.1476 30.62C77.0836 30.94 77.0516 31.2707 77.0516 31.612C77.0516 31.9427 77.0836 32.268 77.1476 32.588C77.2223 32.908 77.3343 33.1907 77.4836 33.436C77.6436 33.6707 77.8516 33.8627 78.1076 34.012C78.3636 34.1613 78.6729 34.236 79.0356 34.236ZM74.8596 27.452H77.0196V28.508H77.0516C77.3289 28.06 77.6809 27.7347 78.1076 27.532C78.5343 27.3293 79.0036 27.228 79.5156 27.228C80.1663 27.228 80.7263 27.3507 81.1956 27.596C81.6649 27.8413 82.0543 28.1667 82.3636 28.572C82.6729 28.9773 82.9023 29.452 83.0516 29.996C83.2009 30.5293 83.2756 31.0893 83.2756 31.676C83.2756 32.2307 83.2009 32.764 83.0516 33.276C82.9023 33.788 82.6729 34.2413 82.3636 34.636C82.0649 35.0307 81.6863 35.3453 81.2276 35.58C80.7796 35.8147 80.2516 35.932 79.6436 35.932C79.1316 35.932 78.6569 35.8307 78.2196 35.628C77.7929 35.4147 77.4409 35.1053 77.1636 34.7H77.1316V38.62H74.8596V27.452ZM88.8169 34.236C89.1902 34.236 89.4995 34.1613 89.7449 34.012C90.0009 33.8627 90.2035 33.6707 90.3529 33.436C90.5129 33.1907 90.6249 32.908 90.6889 32.588C90.7529 32.268 90.7849 31.9427 90.7849 31.612C90.7849 31.2813 90.7475 30.956 90.6729 30.636C90.6089 30.316 90.4969 30.0333 90.3369 29.788C90.1769 29.532 89.9689 29.3293 89.7129 29.18C89.4675 29.02 89.1635 28.94 88.8009 28.94C88.4275 28.94 88.1129 29.02 87.8569 29.18C87.6115 29.3293 87.4089 29.5267 87.2489 29.772C87.0995 30.0173 86.9929 30.3 86.9289 30.62C86.8649 30.94 86.8329 31.2707 86.8329 31.612C86.8329 31.9427 86.8649 32.268 86.9289 32.588C87.0035 32.908 87.1155 33.1907 87.2649 33.436C87.4249 33.6707 87.6329 33.8627 87.8889 34.012C88.1449 34.1613 88.4542 34.236 88.8169 34.236ZM84.6409 27.452H86.8009V28.508H86.8329C87.1102 28.06 87.4622 27.7347 87.8889 27.532C88.3155 27.3293 88.7849 27.228 89.2969 27.228C89.9475 27.228 90.5075 27.3507 90.9769 27.596C91.4462 27.8413 91.8355 28.1667 92.1449 28.572C92.4542 28.9773 92.6835 29.452 92.8329 29.996C92.9822 30.5293 93.0569 31.0893 93.0569 31.676C93.0569 32.2307 92.9822 32.764 92.8329 33.276C92.6835 33.788 92.4542 34.2413 92.1449 34.636C91.8462 35.0307 91.4675 35.3453 91.0089 35.58C90.5609 35.8147 90.0329 35.932 89.4249 35.932C88.9129 35.932 88.4382 35.8307 88.0009 35.628C87.5742 35.4147 87.2222 35.1053 86.9449 34.7H86.9129V38.62H84.6409V27.452ZM100.635 33.036C100.635 33.2813 100.683 33.4947 100.779 33.676C100.886 33.8467 101.019 33.9907 101.179 34.108C101.339 34.2147 101.521 34.2947 101.723 34.348C101.937 34.4013 102.155 34.428 102.379 34.428C102.539 34.428 102.705 34.412 102.875 34.38C103.057 34.3373 103.217 34.2787 103.355 34.204C103.505 34.1187 103.627 34.012 103.723 33.884C103.819 33.7453 103.867 33.5747 103.867 33.372C103.867 33.0307 103.638 32.7747 103.179 32.604C102.731 32.4333 102.102 32.2627 101.291 32.092C100.961 32.0173 100.635 31.932 100.315 31.836C100.006 31.7293 99.7286 31.596 99.4832 31.436C99.2379 31.2653 99.0406 31.0573 98.8912 30.812C98.7419 30.556 98.6672 30.2467 98.6672 29.884C98.6672 29.3507 98.7686 28.9133 98.9712 28.572C99.1846 28.2307 99.4619 27.964 99.8032 27.772C100.145 27.5693 100.529 27.4307 100.955 27.356C101.382 27.2707 101.819 27.228 102.267 27.228C102.715 27.228 103.147 27.2707 103.563 27.356C103.99 27.4413 104.369 27.5853 104.699 27.788C105.03 27.9907 105.302 28.2627 105.515 28.604C105.739 28.9347 105.873 29.356 105.915 29.868H103.755C103.723 29.4307 103.558 29.1373 103.259 28.988C102.961 28.828 102.609 28.748 102.203 28.748C102.075 28.748 101.937 28.7587 101.787 28.78C101.638 28.7907 101.499 28.8227 101.371 28.876C101.254 28.9293 101.153 29.0093 101.067 29.116C100.982 29.212 100.939 29.3453 100.939 29.516C100.939 29.7187 101.014 29.884 101.163 30.012C101.313 30.14 101.505 30.2467 101.739 30.332C101.985 30.4067 102.262 30.476 102.571 30.54C102.881 30.604 103.195 30.6733 103.515 30.748C103.846 30.8227 104.166 30.9133 104.475 31.02C104.795 31.1267 105.078 31.2707 105.323 31.452C105.569 31.6227 105.766 31.8413 105.915 32.108C106.065 32.364 106.139 32.684 106.139 33.068C106.139 33.612 106.027 34.0707 105.803 34.444C105.59 34.8067 105.307 35.1 104.955 35.324C104.603 35.548 104.198 35.7027 103.739 35.788C103.291 35.884 102.833 35.932 102.363 35.932C101.883 35.932 101.414 35.884 100.955 35.788C100.497 35.692 100.086 35.532 99.7232 35.308C99.3712 35.084 99.0779 34.7907 98.8432 34.428C98.6192 34.0547 98.4966 33.5907 98.4752 33.036H100.635ZM110.349 27.452H112.013V28.972H110.349V33.068C110.349 33.452 110.413 33.708 110.541 33.836C110.669 33.964 110.925 34.028 111.309 34.028C111.437 34.028 111.56 34.0227 111.677 34.012C111.794 34.0013 111.906 33.9853 112.013 33.964V35.724C111.821 35.756 111.608 35.7773 111.373 35.788C111.138 35.7987 110.909 35.804 110.685 35.804C110.333 35.804 109.997 35.7773 109.677 35.724C109.368 35.6813 109.09 35.5907 108.845 35.452C108.61 35.3133 108.424 35.116 108.285 34.86C108.146 34.604 108.077 34.268 108.077 33.852V28.972H106.701V27.452H108.077V24.972H110.349V27.452ZM115.11 31.596C115.11 31.9267 115.142 32.252 115.206 32.572C115.27 32.8813 115.377 33.164 115.526 33.42C115.686 33.6653 115.894 33.8627 116.15 34.012C116.406 34.1613 116.726 34.236 117.11 34.236C117.494 34.236 117.814 34.1613 118.07 34.012C118.337 33.8627 118.545 33.6653 118.694 33.42C118.854 33.164 118.966 32.8813 119.03 32.572C119.094 32.252 119.126 31.9267 119.126 31.596C119.126 31.2653 119.094 30.94 119.03 30.62C118.966 30.3 118.854 30.0173 118.694 29.772C118.545 29.5267 118.337 29.3293 118.07 29.18C117.814 29.02 117.494 28.94 117.11 28.94C116.726 28.94 116.406 29.02 116.15 29.18C115.894 29.3293 115.686 29.5267 115.526 29.772C115.377 30.0173 115.27 30.3 115.206 30.62C115.142 30.94 115.11 31.2653 115.11 31.596ZM112.838 31.596C112.838 30.9347 112.939 30.3373 113.142 29.804C113.345 29.26 113.633 28.8013 114.006 28.428C114.379 28.044 114.827 27.7507 115.35 27.548C115.873 27.3347 116.459 27.228 117.11 27.228C117.761 27.228 118.347 27.3347 118.87 27.548C119.403 27.7507 119.857 28.044 120.23 28.428C120.603 28.8013 120.891 29.26 121.094 29.804C121.297 30.3373 121.398 30.9347 121.398 31.596C121.398 32.2573 121.297 32.8547 121.094 33.388C120.891 33.9213 120.603 34.38 120.23 34.764C119.857 35.1373 119.403 35.4253 118.87 35.628C118.347 35.8307 117.761 35.932 117.11 35.932C116.459 35.932 115.873 35.8307 115.35 35.628C114.827 35.4253 114.379 35.1373 114.006 34.764C113.633 34.38 113.345 33.9213 113.142 33.388C112.939 32.8547 112.838 32.2573 112.838 31.596ZM122.875 27.452H125.035V28.988H125.067C125.174 28.732 125.318 28.4973 125.499 28.284C125.681 28.06 125.889 27.8733 126.123 27.724C126.358 27.564 126.609 27.4413 126.875 27.356C127.142 27.2707 127.419 27.228 127.707 27.228C127.857 27.228 128.022 27.2547 128.203 27.308V29.42C128.097 29.3987 127.969 29.3827 127.819 29.372C127.67 29.3507 127.526 29.34 127.387 29.34C126.971 29.34 126.619 29.4093 126.331 29.548C126.043 29.6867 125.809 29.8787 125.627 30.124C125.457 30.3587 125.334 30.636 125.259 30.956C125.185 31.276 125.147 31.6227 125.147 31.996V35.724H122.875V27.452ZM134.381 30.7C134.274 30.124 134.082 29.6867 133.805 29.388C133.538 29.0893 133.127 28.94 132.573 28.94C132.21 28.94 131.906 29.004 131.661 29.132C131.426 29.2493 131.234 29.3987 131.085 29.58C130.946 29.7613 130.845 29.9533 130.781 30.156C130.727 30.3587 130.695 30.54 130.685 30.7H134.381ZM130.685 32.14C130.717 32.876 130.903 33.4093 131.245 33.74C131.586 34.0707 132.077 34.236 132.717 34.236C133.175 34.236 133.57 34.124 133.901 33.9C134.231 33.6653 134.434 33.42 134.509 33.164H136.509C136.189 34.156 135.698 34.8653 135.037 35.292C134.375 35.7187 133.575 35.932 132.637 35.932C131.986 35.932 131.399 35.8307 130.877 35.628C130.354 35.4147 129.911 35.116 129.549 34.732C129.186 34.348 128.903 33.8893 128.701 33.356C128.509 32.8227 128.413 32.236 128.413 31.596C128.413 30.9773 128.514 30.4013 128.717 29.868C128.919 29.3347 129.207 28.876 129.581 28.492C129.954 28.0973 130.397 27.788 130.909 27.564C131.431 27.34 132.007 27.228 132.637 27.228C133.341 27.228 133.954 27.3667 134.477 27.644C134.999 27.9107 135.426 28.2733 135.757 28.732C136.098 29.1907 136.343 29.7133 136.493 30.3C136.642 30.8867 136.695 31.5 136.653 32.14H130.685Z" fill="white"/>
<path d="M194 248.5H194.561L194.497 247.943L190.831 215.943L190.78 215.5H190.334H122.4H121.964L121.905 215.932L117.505 247.932L117.427 248.5H118H194Z" fill="#CCCCCC" stroke="#333333"/>
<path d="M6.5 208.442V188.5H307.5V208.442C307.5 212.382 304.396 215.5 300.495 215.5H13.5054C9.59909 215.5 6.5 212.383 6.5 208.442Z" fill="#E2E2E2" stroke="#333333"/>
<path d="M107.333 251.5L117.106 248.5H194.894L204.667 251.5H107.333Z" fill="#E2E2E2" stroke="#333333"/>
<path d="M207.281 252.5L206.909 253.5H104.986L104.677 252.5H207.281Z" fill="#AAAAAA" stroke="#333333"/>
<path d="M162.5 201.497C162.5 204.26 160.259 206.5 157.5 206.5C154.741 206.5 152.5 204.26 152.5 201.497C152.5 198.74 154.74 196.5 157.5 196.5C160.26 196.5 162.5 198.735 162.5 201.497Z" fill="#AAAAAA" stroke="#333333"/>
<path d="M372.5 253C414.197 253 448 250.761 448 248C448 245.239 414.197 243 372.5 243C330.803 243 297 245.239 297 248C297 250.761 330.803 253 372.5 253Z" fill="#EFEFEF"/>
<path fill-rule="evenodd" clip-rule="evenodd" d="M380.649 21.6391C380.687 19.8245 380.62 18.3076 380.471 17.0451C380.284 15.5042 379.962 14.3185 379.539 13.4208C379.227 12.7584 378.756 12.1199 378.185 11.6063C377.642 11.1118 376.998 10.7182 376.307 10.507C375.442 10.2429 374.601 10.2958 373.785 10.5454C373.021 10.7758 372.291 11.179 371.575 11.6495C371.22 11.8799 370.912 12.1007 370.619 12.3119C369.404 13.1808 368.434 13.8768 366.69 13.4064C366.57 13.3728 366.455 13.3152 366.359 13.2336C366.219 13.1136 366.109 12.9504 366.051 12.7584C365.989 12.5519 365.984 12.3119 366.056 12.0431C366.128 11.7647 366.291 11.4622 366.556 11.1502L366.589 11.1022C366.685 10.9678 366.805 10.8334 366.945 10.699C368.117 9.55649 370.456 8.67322 373.117 8.4908C375.797 8.30839 378.776 8.86043 381.177 10.5982C381.638 10.9294 382.076 11.3038 382.489 11.7311C383.464 12.7344 384.213 14.1313 384.602 16.0322C384.938 17.6788 385.006 19.6997 384.718 22.1671C384.583 21.9223 384.42 21.7063 384.228 21.5239C383.858 21.1782 383.387 20.967 382.83 20.9382C382.21 20.9046 381.475 21.111 380.649 21.6391Z" fill="#666666" stroke="#666666" stroke-width="0.216" stroke-miterlimit="22.9256"/>
<path d="M369.14 43.8586L368.39 43.8543L368.39 43.8004L368.398 43.747L369.099 39.0864L369.24 38.1536L370.117 38.5006C370.22 38.5416 370.331 38.5797 370.463 38.6245L370.469 38.6266C370.469 38.6266 370.471 38.627 370.473 38.6277C370.504 38.636 370.702 38.6896 371.048 38.7262C371.424 38.766 371.957 38.7835 372.608 38.7048C373.905 38.5482 375.692 38.0078 377.664 36.4646L377.665 36.4641C378.274 35.9881 378.909 35.4113 379.557 34.7135L380.759 33.4203L380.856 35.1832L381.327 43.803L381.353 44.2755L380.937 44.5022C380.717 44.6226 380.488 44.7426 380.249 44.8539C380.248 44.8543 380.248 44.8546 380.247 44.8549L379.93 44.1751C377.944 45.115 375.686 45.6166 373.673 45.5728L369.14 43.8586ZM369.14 43.8586C368.39 43.8543 368.39 43.8547 368.39 43.8551L368.39 43.856L368.39 43.8576L368.39 43.8609L368.39 43.8676L368.39 43.8818C368.39 43.8916 368.391 43.9021 368.392 43.9133C368.393 43.9353 368.396 43.9613 368.401 43.9904C368.411 44.0452 368.432 44.1282 368.481 44.2192C368.511 44.2742 368.552 44.3334 368.608 44.3891C369.76 45.7268 371.672 46.282 373.657 46.3226L369.14 43.8586Z" fill="#FEFEFE" stroke="#333333" stroke-width="1.5"/>
<path fill-rule="evenodd" clip-rule="evenodd" d="M364.946 12.3839C364.082 13.3536 363.376 14.5969 362.842 16.0226C361.685 19.1333 361.344 23.1368 361.978 26.9627C362.617 30.8222 364.25 34.5281 367.021 37.0051C368.097 37.9652 369.346 38.7429 370.773 39.2757C370.984 39.3573 374.131 40.2406 377.868 37.0291C379.712 35.4402 381.744 32.8336 383.68 28.5949L382.354 27.99C380.519 32.0127 378.627 34.4561 376.921 35.9203C373.794 38.6085 371.436 37.9652 371.282 37.9076C370.033 37.4468 368.943 36.7651 368.001 35.9203C365.494 33.6785 364.014 30.2846 363.424 26.7275C362.828 23.1416 363.14 19.4069 364.211 16.5315C364.682 15.2737 365.292 14.1841 366.037 13.3536L364.946 12.3839Z" fill="#333333"/>
<path fill-rule="evenodd" clip-rule="evenodd" d="M380.615 22.6759C380.707 20.3909 380.649 18.538 380.466 17.045C380.279 15.5041 379.957 14.3184 379.535 13.4207C379.222 12.7583 378.752 12.1198 378.18 11.6062C377.637 11.1118 376.994 10.7181 376.302 10.5069C375.437 10.2429 374.597 10.2957 373.78 10.5453C373.016 10.7757 372.286 11.179 371.57 11.6494C371.215 11.8798 370.908 12.1006 370.615 12.3119C369.399 13.1807 368.429 13.8768 366.685 13.4063C366.565 13.3727 366.45 13.3151 366.354 13.2335C366.215 13.1135 366.104 12.9503 366.046 12.7583C365.984 12.5519 365.979 12.3119 366.051 12.043C366.123 11.7646 366.287 11.4622 366.551 11.1502L366.584 11.1022C366.68 10.9677 366.801 10.8333 366.94 10.6989C368.112 9.55643 370.451 8.67316 373.112 8.49074C375.793 8.30833 378.771 8.86037 381.173 10.5981C381.634 10.9293 382.071 11.3038 382.484 11.731C383.459 12.7343 384.208 14.1312 384.597 16.0322C384.958 17.8035 385.006 20.0021 384.645 22.7239L384.593 23.1367C384.41 24.5625 384.295 25.4505 383.416 26.6698C383.291 26.8427 383.147 27.0299 382.979 27.2315C382.835 27.4091 382.666 27.6011 382.474 27.8027L382.642 28.4076L383.541 28.7964C383.728 28.5948 383.915 28.3836 384.098 28.158C384.266 27.9563 384.429 27.7451 384.593 27.5195C385.683 26.0026 385.818 24.9753 386.034 23.324L386.087 22.9111C386.471 20.0213 386.413 17.6595 386.019 15.7393C385.573 13.5408 384.684 11.9038 383.521 10.7133C383.051 10.2285 382.546 9.80125 382.018 9.41722C379.309 7.45386 375.985 6.83461 373.002 7.03622C370 7.23784 367.31 8.28913 365.907 9.65244C365.725 9.83005 365.561 10.0173 365.417 10.2093C365.004 10.6941 364.749 11.1886 364.625 11.6638C364.48 12.2062 364.5 12.7247 364.639 13.1807C364.783 13.6512 365.052 14.0496 365.398 14.3424C365.662 14.5632 365.97 14.7265 366.296 14.8177C368.708 15.4657 369.923 14.592 371.455 13.4976C371.748 13.2911 372.051 13.0703 372.358 12.8687C372.968 12.4655 373.583 12.1246 374.193 11.9374C374.75 11.7694 375.308 11.731 375.865 11.899C376.335 12.043 376.787 12.3215 377.181 12.6815C377.608 13.0703 377.964 13.5504 378.199 14.04C378.559 14.7985 378.833 15.8353 379.001 17.2131C379.16 18.5332 379.222 20.1461 379.16 22.1095L379.53 22.6279L380.615 22.6759Z" fill="#333333"/>
<path fill-rule="evenodd" clip-rule="evenodd" d="M380.293 23.1272C381.317 22.2248 382.152 21.8743 382.786 21.9031C383.103 21.9175 383.363 22.0376 383.569 22.2248C383.79 22.4312 383.949 22.724 384.045 23.0744C384.3 23.9865 384.107 25.2394 383.387 26.3675C383.204 26.6555 382.897 26.9772 382.522 27.2364C382.34 27.3612 382.143 27.4668 381.941 27.5436C381.177 27.8268 381.557 28.6669 382.018 28.5421C382.397 28.4365 382.758 28.2589 383.075 28.0429C383.56 27.7116 383.963 27.2796 384.208 26.8956C385.082 25.5274 385.303 23.9769 384.986 22.82C384.842 22.2968 384.588 21.8455 384.232 21.5191C383.862 21.1735 383.392 20.9623 382.834 20.9335C381.955 20.8903 380.851 21.3223 379.582 22.4552C379.131 22.8632 379.679 23.6697 380.293 23.1272Z" fill="#333333"/>
<path fill-rule="evenodd" clip-rule="evenodd" d="M382.047 23.6072C382.191 23.5784 382.316 23.5784 382.421 23.6024C382.541 23.6312 382.638 23.6984 382.695 23.7896C382.762 23.9 382.801 24.0488 382.801 24.2216C382.801 24.5817 382.652 25.0425 382.345 25.5177C382.239 25.681 382.066 25.8682 381.85 26.0122C381.768 26.0698 381.677 26.1226 381.581 26.161C381.067 26.3818 381.235 26.7994 381.648 26.6554C381.816 26.5978 381.979 26.5114 382.124 26.4154C382.393 26.233 382.618 25.993 382.753 25.7818C383.108 25.2249 383.286 24.6729 383.286 24.2216C383.286 23.9528 383.224 23.7128 383.103 23.5256C382.974 23.324 382.782 23.1848 382.527 23.1271C382.378 23.0935 382.205 23.0887 382.008 23.1175C381.369 23.2232 381.441 23.7272 382.047 23.6072Z" fill="#333333"/>
<path fill-rule="evenodd" clip-rule="evenodd" d="M380.737 45.3997C380.396 47.2335 379.748 49.8017 378.6 50.4305C377.821 50.8626 376.63 50.1761 374.81 47.1614C376.635 47.0702 378.585 46.5326 380.319 45.6253C380.459 45.5533 380.598 45.4765 380.737 45.3997ZM372.192 46.955C371.318 48.0015 370.535 48.712 369.853 49.1776C368.839 49.8641 368.142 49.9697 367.753 49.8353C367.422 49.7153 367.254 49.1536 367.191 48.448C367.076 47.2046 367.311 45.6541 367.499 44.7901C367.859 44.742 368.234 44.694 368.613 44.6556L368.805 44.9245C369.612 45.9757 370.804 46.6382 372.192 46.955Z" fill="#CCCCCC"/>
<path fill-rule="evenodd" clip-rule="evenodd" d="M371.277 26.9867C368.89 27.9324 368.049 26.8235 368.083 25.7914C368.121 24.3993 369.428 24.6777 369.164 22.4215C370.297 24.0104 367.742 25.7722 369.269 26.6026C369.596 26.7803 370.115 26.9627 371.277 26.9867Z" fill="#333333"/>
<path fill-rule="evenodd" clip-rule="evenodd" d="M370 30.3421C372.791 32.5935 373.804 28.5996 374.294 27.9851C374.155 32.9439 370.35 32.5983 370 30.3421Z" fill="#333333"/>
<path fill-rule="evenodd" clip-rule="evenodd" d="M372.18 21.6007C373.665 18.0916 377.604 20.0934 377.618 21.9703C377.431 21.7639 376.604 21.2695 376.134 21.2119C375.97 23.3 373.473 23.7369 372.8 21.5095C372.536 21.4951 372.377 21.4807 372.18 21.6007Z" fill="#333333"/>
<path fill-rule="evenodd" clip-rule="evenodd" d="M363.688 21.4518C365.038 17.8899 369.053 19.7429 369.14 21.6198C368.943 21.423 368.102 20.9574 367.627 20.919C367.545 23.012 365.062 23.54 364.307 21.3414C364.038 21.3318 363.88 21.327 363.688 21.4518Z" fill="#333333"/>
<mask id="path-23-outside-1_37_91939" maskUnits="userSpaceOnUse" x="323.606" y="41.7385" width="87" height="69" fill="black">
<rect fill="white" x="323.606" y="41.7385" width="87" height="69"/>
<path fill-rule="evenodd" clip-rule="evenodd" d="M397.975 53.9025C401.84 58.334 411.355 80.4182 408.019 92.7617C405.622 97.4669 384.893 86.3452 381.736 84.9111C382.753 84.1551 383.253 83.4028 383.497 82.2296C387.546 83.469 395.213 84.9609 399.152 85.1435C400.783 85.2182 399.805 83.7484 398.695 83.6505C397.561 82.2451 393.074 74.2774 391.971 71.2751C392.019 68.9853 392.134 66.6667 392.312 64.3145C392.398 63.1864 390.947 62.9512 390.856 64.1801C390.616 67.3388 390.491 70.4686 390.486 73.5841C390.481 76.5939 390.592 79.5606 390.808 82.4936C390.808 82.4936 382.095 80.2985 380.337 79.7752C376.575 78.6557 374.831 74.8018 374.831 74.8018C374.831 74.8018 373.407 49.2761 373.407 48.1064C373.407 48.1064 375.555 51.433 379.286 51.1917C381.767 50.504 381.807 46.6923 382.119 44.7385C387.778 46.9247 393.917 49.2499 397.975 53.9025ZM365.806 44.7385C363.596 45.1322 361.79 45.6746 360.282 46.2891C358.135 47.1675 356.588 48.2044 355.339 49.2029C354.465 49.899 351.905 52.928 349.172 56.1587C345.838 60.0998 342.25 64.3433 340.905 65.2794L340.391 65.6394L339.959 65.1834C335.976 60.9831 333.541 54.805 331.456 49.5101C330.942 48.2092 330.452 46.9563 329.986 45.8618C329.261 45.9098 328.286 46.0586 327.349 46.2746C326.696 46.4283 326.072 46.6107 325.606 46.8123C328.714 59.2549 331.653 65.9515 333.925 69.5566C336.101 73.0128 337.485 73.4641 337.816 73.5265C340.785 74.0977 344.536 72.7488 348.134 70.5454C352.265 68.0108 356.146 64.3721 358.437 61.1751C359.302 59.9702 360.508 60.7814 359.691 61.9287C358.855 63.1 357.818 64.3337 356.636 65.553L356.588 66.4651L356.54 67.5836C356.391 72.0144 356.425 80.9767 356.891 89.4446C357.208 95.2051 357.717 100.73 358.495 104.412C363.596 107.292 369.361 108.565 375.062 108.809C382.239 109.117 389.333 107.806 394.939 106.04C394.276 103.62 393.69 101.23 393.176 98.8534C392.638 96.362 392.182 93.8706 391.807 91.384C388.594 90.1071 384.414 87.5831 381.103 85.9698C377.793 84.3564 367.518 80.6676 366.136 74.8018L370.915 47.4962L365.806 44.7385Z"/>
</mask>
<path fill-rule="evenodd" clip-rule="evenodd" d="M397.975 53.9025C401.84 58.334 411.355 80.4182 408.019 92.7617C405.622 97.4669 384.893 86.3452 381.736 84.9111C382.753 84.1551 383.253 83.4028 383.497 82.2296C387.546 83.469 395.213 84.9609 399.152 85.1435C400.783 85.2182 399.805 83.7484 398.695 83.6505C397.561 82.2451 393.074 74.2774 391.971 71.2751C392.019 68.9853 392.134 66.6667 392.312 64.3145C392.398 63.1864 390.947 62.9512 390.856 64.1801C390.616 67.3388 390.491 70.4686 390.486 73.5841C390.481 76.5939 390.592 79.5606 390.808 82.4936C390.808 82.4936 382.095 80.2985 380.337 79.7752C376.575 78.6557 374.831 74.8018 374.831 74.8018C374.831 74.8018 373.407 49.2761 373.407 48.1064C373.407 48.1064 375.555 51.433 379.286 51.1917C381.767 50.504 381.807 46.6923 382.119 44.7385C387.778 46.9247 393.917 49.2499 397.975 53.9025ZM365.806 44.7385C363.596 45.1322 361.79 45.6746 360.282 46.2891C358.135 47.1675 356.588 48.2044 355.339 49.2029C354.465 49.899 351.905 52.928 349.172 56.1587C345.838 60.0998 342.25 64.3433 340.905 65.2794L340.391 65.6394L339.959 65.1834C335.976 60.9831 333.541 54.805 331.456 49.5101C330.942 48.2092 330.452 46.9563 329.986 45.8618C329.261 45.9098 328.286 46.0586 327.349 46.2746C326.696 46.4283 326.072 46.6107 325.606 46.8123C328.714 59.2549 331.653 65.9515 333.925 69.5566C336.101 73.0128 337.485 73.4641 337.816 73.5265C340.785 74.0977 344.536 72.7488 348.134 70.5454C352.265 68.0108 356.146 64.3721 358.437 61.1751C359.302 59.9702 360.508 60.7814 359.691 61.9287C358.855 63.1 357.818 64.3337 356.636 65.553L356.588 66.4651L356.54 67.5836C356.391 72.0144 356.425 80.9767 356.891 89.4446C357.208 95.2051 357.717 100.73 358.495 104.412C363.596 107.292 369.361 108.565 375.062 108.809C382.239 109.117 389.333 107.806 394.939 106.04C394.276 103.62 393.69 101.23 393.176 98.8534C392.638 96.362 392.182 93.8706 391.807 91.384C388.594 90.1071 384.414 87.5831 381.103 85.9698C377.793 84.3564 367.518 80.6676 366.136 74.8018L370.915 47.4962L365.806 44.7385Z" fill="#EFEFEF"/>
<path d="M397.975 53.9025L399.105 52.9165L397.975 53.9025ZM408.019 92.7617L409.356 93.4425L409.426 93.3036L409.467 93.1531L408.019 92.7617ZM381.736 84.9111L380.841 83.7073L378.799 85.2248L381.115 86.2768L381.736 84.9111ZM383.497 82.2296L383.936 80.7953L382.364 80.3142L382.029 81.9233L383.497 82.2296ZM399.152 85.1435L399.082 86.6418L399.083 86.6419L399.152 85.1435ZM398.695 83.6505L397.528 84.5927L397.929 85.0887L398.564 85.1447L398.695 83.6505ZM391.971 71.2751L390.471 71.2436L390.465 71.5267L390.563 71.7925L391.971 71.2751ZM392.312 64.3145L390.816 64.1999L390.816 64.2015L392.312 64.3145ZM390.856 64.1801L392.352 64.2938L392.352 64.2912L390.856 64.1801ZM390.486 73.5841L391.986 73.5865V73.5864L390.486 73.5841ZM390.808 82.4936L390.442 83.9482L392.457 84.4559L392.304 82.3834L390.808 82.4936ZM380.337 79.7752L380.764 78.3375L380.337 79.7752ZM374.831 74.8018L373.333 74.8853L373.349 75.1651L373.464 75.4203L374.831 74.8018ZM373.407 48.1064L374.667 47.2926C374.306 46.734 373.621 46.4796 372.983 46.6677C372.345 46.8557 371.907 47.4414 371.907 48.1064H373.407ZM379.286 51.1917L379.383 52.6885L379.537 52.6785L379.687 52.6372L379.286 51.1917ZM382.119 44.7385L382.66 43.3393L380.931 42.6712L380.638 44.5018L382.119 44.7385ZM365.806 44.7385L366.518 43.4185L366.058 43.17L365.543 43.2618L365.806 44.7385ZM360.282 46.2891L359.716 44.8999L359.714 44.9008L360.282 46.2891ZM355.339 49.2029L356.274 50.3764L356.276 50.3745L355.339 49.2029ZM349.172 56.1587L348.026 55.1898L348.026 55.19L349.172 56.1587ZM340.905 65.2794L340.048 64.0482L340.044 64.0508L340.905 65.2794ZM340.391 65.6394L339.302 66.6714L340.192 67.6101L341.251 66.868L340.391 65.6394ZM339.959 65.1834L341.047 64.1515L341.047 64.1514L339.959 65.1834ZM331.456 49.5101L332.852 48.9606L332.851 48.9589L331.456 49.5101ZM329.986 45.8618L331.367 45.2743L330.95 44.2948L329.887 44.3651L329.986 45.8618ZM327.349 46.2746L327.012 44.813L327.006 44.8145L327.349 46.2746ZM325.606 46.8123L325.01 45.4356L323.842 45.9411L324.15 47.1758L325.606 46.8123ZM333.925 69.5566L335.195 68.7574L335.194 68.7568L333.925 69.5566ZM337.816 73.5265L338.1 72.0535L338.094 72.0524L337.816 73.5265ZM348.134 70.5454L348.917 71.8246L348.918 71.824L348.134 70.5454ZM358.437 61.1751L357.219 60.3005L357.218 60.3013L358.437 61.1751ZM359.691 61.9287L360.912 62.8L360.913 62.7985L359.691 61.9287ZM356.636 65.553L355.559 64.5091L355.168 64.9128L355.138 65.4742L356.636 65.553ZM356.588 66.4651L355.09 66.3862L355.09 66.3935L355.09 66.4007L356.588 66.4651ZM356.54 67.5836L355.041 67.5192L355.041 67.5332L356.54 67.5836ZM356.891 89.4446L355.393 89.527V89.527L356.891 89.4446ZM358.495 104.412L357.028 104.722L357.168 105.385L357.758 105.718L358.495 104.412ZM375.062 108.809L374.998 110.308L374.998 110.308L375.062 108.809ZM394.939 106.04L395.39 107.47L396.767 107.036L396.386 105.643L394.939 106.04ZM393.176 98.8534L391.71 99.17L391.71 99.1705L393.176 98.8534ZM391.807 91.384L393.29 91.1605L393.162 90.3083L392.361 89.99L391.807 91.384ZM370.915 47.4962L372.393 47.7549L372.579 46.6898L371.628 46.1762L370.915 47.4962ZM366.136 74.8018L364.658 74.5432L364.605 74.8463L364.676 75.1459L366.136 74.8018ZM393.47 71.3066C393.518 69.0458 393.632 66.7545 393.807 64.4275L390.816 64.2015C390.636 66.5789 390.52 68.9248 390.471 71.2436L393.47 71.3066ZM393.807 64.4292C393.906 63.1355 393.061 62.0308 391.84 61.8754C391.252 61.8006 390.621 61.9666 390.129 62.4106C389.636 62.8553 389.405 63.464 389.36 64.069L392.352 64.2912C392.353 64.2818 392.337 64.459 392.139 64.6375C391.942 64.8152 391.686 64.88 391.461 64.8515C391.244 64.8239 391.064 64.7131 390.948 64.5642C390.824 64.4035 390.812 64.2523 390.816 64.1999L393.807 64.4292ZM389.36 64.0664C389.118 67.2606 388.991 70.4277 388.986 73.5818L391.986 73.5864C391.991 70.5096 392.114 67.4169 392.352 64.2938L389.36 64.0664ZM388.986 73.5817C388.981 76.6299 389.093 79.6342 389.312 82.6039L392.304 82.3834C392.091 79.487 391.982 76.558 391.986 73.5865L388.986 73.5817ZM390.808 82.4936C391.175 81.0391 391.175 81.0391 391.174 81.0391C391.174 81.039 391.174 81.039 391.174 81.039C391.174 81.0389 391.174 81.0388 391.173 81.0387C391.172 81.0384 391.17 81.038 391.168 81.0375C391.164 81.0365 391.158 81.0349 391.15 81.0328C391.133 81.0287 391.109 81.0225 391.077 81.0144C391.013 80.9982 390.918 80.9744 390.798 80.944C390.556 80.883 390.209 80.7953 389.788 80.6884C388.944 80.4747 387.801 80.1842 386.604 79.8775C384.19 79.2593 381.608 78.5887 380.764 78.3375L379.909 81.2129C380.823 81.485 383.477 82.1736 385.859 82.7837C387.06 83.0913 388.206 83.3823 389.051 83.5965C389.473 83.7036 389.821 83.7915 390.063 83.8526C390.184 83.8832 390.279 83.9071 390.343 83.9233C390.375 83.9314 390.4 83.9376 390.416 83.9418C390.425 83.9439 390.431 83.9455 390.435 83.9466C390.437 83.9471 390.439 83.9475 390.44 83.9478C390.441 83.9479 390.441 83.948 390.441 83.9481C390.441 83.9481 390.441 83.9481 390.442 83.9482C390.442 83.9482 390.442 83.9482 390.808 82.4936ZM373.407 48.1064C372.147 48.9202 372.147 48.9207 372.148 48.9213C372.148 48.9215 372.148 48.922 372.148 48.9224C372.149 48.9232 372.149 48.924 372.15 48.9249C372.151 48.9267 372.152 48.9287 372.154 48.9308C372.157 48.9352 372.16 48.9404 372.164 48.9463C372.172 48.9582 372.182 48.9733 372.194 48.9913C372.219 49.0273 372.253 49.0752 372.295 49.1331C372.379 49.2488 372.499 49.4056 372.654 49.5892C372.962 49.9544 373.416 50.4363 374.011 50.9116C375.197 51.8583 377.025 52.8411 379.383 52.6885L379.189 49.6948C377.817 49.7836 376.705 49.2237 375.884 48.5675C375.475 48.2413 375.159 47.9067 374.948 47.6557C374.843 47.5311 374.766 47.43 374.718 47.3647C374.694 47.3321 374.678 47.3087 374.67 47.2961C374.665 47.2898 374.663 47.2863 374.662 47.2856C374.662 47.2853 374.662 47.2857 374.663 47.2868C374.664 47.2874 374.664 47.2882 374.665 47.2892C374.665 47.2896 374.665 47.2902 374.666 47.2907C374.666 47.291 374.666 47.2915 374.666 47.2917C374.667 47.2921 374.667 47.2926 373.407 48.1064ZM379.687 52.6372C381.722 52.0731 382.565 50.2559 382.961 48.8442C383.348 47.4612 383.48 45.7302 383.601 44.9752L380.638 44.5018C380.447 45.7006 380.403 46.8524 380.072 48.0356C379.748 49.19 379.331 49.6225 378.885 49.7462L379.687 52.6372ZM365.543 43.2618C363.237 43.6727 361.328 44.2431 359.716 44.8999L360.848 47.6782C362.252 47.1061 363.956 46.5917 366.069 46.2153L365.543 43.2618ZM359.714 44.9008C357.407 45.8447 355.738 46.9639 354.403 48.0313L356.276 50.3745C357.439 49.4449 358.863 48.4904 360.85 47.6774L359.714 44.9008ZM354.405 48.0294C353.837 48.4813 352.879 49.5351 351.823 50.7431C350.722 52.0024 349.39 53.5778 348.026 55.1898L350.317 57.1275C351.686 55.5088 353.001 53.9544 354.082 52.7175C355.208 51.4293 355.967 50.6206 356.274 50.3764L354.405 48.0294ZM348.026 55.19C346.356 57.1645 344.638 59.1959 343.17 60.8505C342.436 61.6779 341.776 62.399 341.222 62.9652C340.646 63.5545 340.256 63.9031 340.048 64.0482L341.762 66.5106C342.226 66.1876 342.789 65.6548 343.368 65.062C343.97 64.4461 344.667 63.6845 345.415 62.8413C346.911 61.1549 348.653 59.0939 350.317 57.1274L348.026 55.19ZM340.044 64.0508L339.53 64.4109L341.251 66.868L341.765 66.508L340.044 64.0508ZM341.479 64.6075L341.047 64.1515L338.87 66.2153L339.302 66.6714L341.479 64.6075ZM341.047 64.1514C337.303 60.2022 334.963 54.3225 332.852 48.9606L330.061 50.0596C332.119 55.2874 334.65 61.7639 338.87 66.2154L341.047 64.1514ZM332.851 48.9589C332.341 47.6683 331.842 46.3917 331.367 45.2743L328.606 46.4494C329.063 47.5209 329.543 48.7501 330.061 50.0613L332.851 48.9589ZM329.887 44.3651C329.067 44.4194 328.011 44.5827 327.012 44.813L327.686 47.7363C328.561 47.5346 329.455 47.4002 330.086 47.3585L329.887 44.3651ZM327.006 44.8145C326.321 44.9756 325.596 45.1819 325.01 45.4356L326.201 48.1889C326.547 48.0394 327.071 47.8809 327.693 47.7348L327.006 44.8145ZM324.15 47.1758C327.276 59.6886 330.263 66.5589 332.656 70.3563L335.194 68.7568C333.044 65.3441 330.151 58.8212 327.061 46.4488L324.15 47.1758ZM332.656 70.3557C334.925 73.9594 336.607 74.8252 337.539 75.0006L338.094 72.0524C338.362 72.1029 337.278 72.0663 335.195 68.7574L332.656 70.3557ZM337.533 74.9995C341.08 75.6821 345.251 74.0701 348.917 71.8246L347.351 69.2663C343.822 71.4275 340.489 72.5134 338.1 72.0535L337.533 74.9995ZM348.918 71.824C353.207 69.1929 357.24 65.4206 359.657 62.0489L357.218 60.3013C355.052 63.3237 351.323 66.8288 347.35 69.2669L348.918 71.824ZM359.656 62.0496C359.734 61.9405 359.735 61.996 359.596 62.0433C359.451 62.0925 359.173 62.1159 358.89 61.9353C358.598 61.7496 358.475 61.4576 358.464 61.2378C358.453 61.0356 358.53 60.9732 358.469 61.0589L360.913 62.7985C361.261 62.3106 361.493 61.7166 361.459 61.0773C361.424 60.4203 361.099 59.7856 360.5 59.4043C359.227 58.5942 357.88 59.379 357.219 60.3005L359.656 62.0496ZM358.47 61.0574C357.684 62.1593 356.696 63.3357 355.559 64.5091L357.713 66.5969C358.939 65.3317 360.027 64.0408 360.912 62.8L358.47 61.0574ZM355.138 65.4742L355.09 66.3862L358.086 66.544L358.134 65.6319L355.138 65.4742ZM355.09 66.4007L355.041 67.5192L358.039 67.648L358.087 66.5295L355.09 66.4007ZM355.041 67.5332C354.89 72.0117 354.925 81.0185 355.393 89.527L358.388 89.3622C357.925 80.9349 357.892 72.017 358.039 67.634L355.041 67.5332ZM355.393 89.527C355.71 95.2954 356.224 100.919 357.028 104.722L359.963 104.102C359.21 100.541 358.705 95.1147 358.388 89.3622L355.393 89.527ZM357.758 105.718C363.115 108.743 369.125 110.056 374.998 110.308L375.127 107.311C369.596 107.073 364.078 105.842 359.233 103.106L357.758 105.718ZM374.998 110.308C382.385 110.624 389.656 109.277 395.39 107.47L394.488 104.609C389.01 106.335 382.092 107.609 375.126 107.311L374.998 110.308ZM396.386 105.643C395.73 103.249 395.15 100.885 394.642 98.5363L391.71 99.1705C392.23 101.574 392.822 103.991 393.492 106.436L396.386 105.643ZM394.642 98.5368C394.111 96.076 393.66 93.6156 393.29 91.1605L390.324 91.6075C390.703 94.1255 391.165 96.648 391.71 99.17L394.642 98.5368ZM392.361 89.99C390.841 89.3861 389.06 88.4728 387.197 87.4795C385.367 86.5034 383.448 85.444 381.761 84.6214L380.446 87.3182C382.069 88.1089 383.895 89.1181 385.786 90.1266C387.644 91.1179 389.56 92.105 391.253 92.778L392.361 89.99ZM380.764 78.3375C379.273 77.8938 378.131 76.8889 377.332 75.9166C376.939 75.4375 376.647 74.9881 376.456 74.6623C376.361 74.5001 376.292 74.3707 376.248 74.2863C376.227 74.2442 376.212 74.2135 376.203 74.1958C376.199 74.1869 376.196 74.1813 376.195 74.1792C376.195 74.1781 376.195 74.1779 376.195 74.1786C376.195 74.1789 376.196 74.1795 376.196 74.1803C376.196 74.1807 376.196 74.1811 376.196 74.1816C376.197 74.1819 376.197 74.1823 376.197 74.1824C376.197 74.1829 376.197 74.1833 374.831 74.8018C373.464 75.4203 373.464 75.4208 373.465 75.4213C373.465 75.4214 373.465 75.422 373.465 75.4223C373.465 75.4231 373.466 75.4239 373.466 75.4247C373.467 75.4265 373.468 75.4284 373.469 75.4306C373.471 75.435 373.473 75.4404 373.476 75.4466C373.482 75.4591 373.49 75.4753 373.499 75.495C373.518 75.5342 373.544 75.5874 373.578 75.6529C373.645 75.7836 373.741 75.964 373.868 76.1807C374.122 76.6124 374.501 77.1964 375.014 77.8207C376.028 79.0553 377.638 80.5371 379.909 81.2129L380.764 78.3375ZM374.831 74.8018C376.328 74.7183 376.328 74.7182 376.328 74.718C376.328 74.7178 376.328 74.7175 376.328 74.7171C376.328 74.7163 376.328 74.7152 376.328 74.7136C376.328 74.7105 376.328 74.7059 376.327 74.6998C376.327 74.6875 376.326 74.6692 376.324 74.6451C376.322 74.5968 376.318 74.525 376.312 74.4314C376.302 74.2442 376.287 73.9695 376.267 73.6194C376.228 72.9193 376.173 71.9177 376.106 70.7122C375.972 68.3012 375.795 65.0743 375.617 61.8111C375.439 58.5476 375.261 55.2486 375.127 52.6928C375.061 51.4147 375.005 50.3241 374.966 49.5173C374.947 49.1136 374.932 48.7832 374.922 48.5368C374.917 48.4134 374.913 48.3134 374.91 48.237C374.909 48.1988 374.908 48.1683 374.908 48.1447C374.907 48.133 374.907 48.1238 374.907 48.1169C374.907 48.1135 374.907 48.1109 374.907 48.109C374.907 48.1071 374.907 48.1063 374.907 48.1064H371.907C371.907 48.7455 372.268 55.4921 372.621 61.9744C372.799 65.2388 372.977 68.4665 373.111 70.878C373.177 72.0838 373.233 73.0856 373.272 73.786C373.291 74.1362 373.307 74.411 373.317 74.5983C373.322 74.6919 373.326 74.7637 373.329 74.812C373.33 74.8362 373.331 74.8545 373.332 74.8668C373.332 74.8729 373.333 74.8776 373.333 74.8807C373.333 74.8822 373.333 74.8834 373.333 74.8842C373.333 74.8846 373.333 74.8849 373.333 74.885C373.333 74.8852 373.333 74.8853 374.831 74.8018ZM381.579 46.1377C387.324 48.3574 393.076 50.5676 396.844 54.8884L399.105 52.9165C394.758 47.9322 388.231 45.492 382.66 43.3393L381.579 46.1377ZM396.844 54.8884C397.67 55.8351 398.918 57.8915 400.291 60.7563C401.645 63.5814 403.068 67.0796 404.269 70.8235C406.701 78.3999 408.118 86.6458 406.571 92.3703L409.467 93.1531C411.256 86.5341 409.584 77.5662 407.126 69.9067C405.882 66.0326 404.41 62.4074 402.997 59.4596C401.603 56.5516 400.212 54.1856 399.105 52.9165L396.844 54.8884ZM399.863 82.7084C399.395 82.1292 398.055 79.9141 396.635 77.3376C395.229 74.7872 393.886 72.1377 393.379 70.7577L390.563 71.7925C391.159 73.4148 392.61 76.2504 394.008 78.7857C395.391 81.295 396.861 83.7664 397.528 84.5927L399.863 82.7084ZM399.083 86.6419C399.601 86.6656 400.431 86.6101 401.021 85.9796C401.74 85.2093 401.528 84.2759 401.302 83.8081C401.069 83.328 400.686 82.9514 400.305 82.6933C399.912 82.4272 399.403 82.2071 398.827 82.1563L398.564 85.1447C398.543 85.1429 398.572 85.1433 398.624 85.1779C398.687 85.2206 398.654 85.2251 398.601 85.1153C398.572 85.0555 398.51 84.903 398.518 84.679C398.526 84.4266 398.624 84.1504 398.829 83.9313C399.015 83.7321 399.205 83.6696 399.267 83.6535C399.328 83.6374 399.325 83.6498 399.22 83.645L399.083 86.6419ZM383.058 83.6639C387.196 84.9306 394.99 86.4521 399.082 86.6418L399.221 83.6451C395.437 83.4696 387.896 82.0073 383.936 80.7953L383.058 83.6639ZM382.631 86.115C383.237 85.6644 383.754 85.1661 384.159 84.5518C384.566 83.933 384.813 83.2661 384.966 82.5359L382.029 81.9233C381.936 82.3663 381.811 82.6621 381.653 82.9018C381.493 83.1459 381.252 83.4017 380.841 83.7073L382.631 86.115ZM406.682 92.0809C406.672 92.1005 406.602 92.2618 406.067 92.3575C405.514 92.4563 404.693 92.4328 403.601 92.2437C401.433 91.8683 398.638 90.9236 395.724 89.7476C389.863 87.3825 384.082 84.3295 382.356 83.5454L381.115 86.2768C382.546 86.9267 388.709 90.1517 394.601 92.5296C397.564 93.7251 400.598 94.7683 403.089 95.1997C404.326 95.4139 405.543 95.4986 406.595 95.3107C407.664 95.1196 408.766 94.5992 409.356 93.4425L406.682 92.0809ZM371.628 46.1762L366.518 43.4185L365.094 46.0585L370.203 48.8162L371.628 46.1762ZM381.761 84.6214C379.936 83.7319 376.758 82.5125 373.657 80.6877C372.138 79.7933 370.735 78.8041 369.647 77.728C368.554 76.6479 367.854 75.5551 367.596 74.4578L364.676 75.1459C365.108 76.9814 366.211 78.5493 367.537 79.8611C368.868 81.1768 370.5 82.3106 372.136 83.2732C375.346 85.1626 378.961 86.5943 380.446 87.3182L381.761 84.6214ZM367.613 75.0604L372.393 47.7549L369.438 47.2376L364.658 74.5432L367.613 75.0604Z" fill="#333333" mask="url(#path-23-outside-1_37_91939)"/>
<path fill-rule="evenodd" clip-rule="evenodd" d="M390.856 64.1802C390.616 67.3388 390.491 70.4687 390.486 73.5842C390.482 76.93 390.616 80.2183 390.885 83.4682L392.345 83.3482C392.076 80.0983 391.942 76.8484 391.947 73.5842C391.951 70.5503 392.072 67.4685 392.317 64.3194C392.398 63.1913 390.948 62.9513 390.856 64.1802ZM391.759 91.0432L393.205 90.832C393.589 93.405 394.055 95.978 394.613 98.5606C395.17 101.153 395.813 103.745 396.539 106.337L396.726 107.009L396.063 107.225C390.222 109.145 382.671 110.605 375.005 110.278C368.976 110.019 362.881 108.651 357.487 105.526L357.213 105.368L357.141 105.051C356.3 101.282 355.757 95.5219 355.431 89.5263C354.965 81.0248 354.926 72.0144 355.08 67.5453L355.128 66.4028L355.19 65.2027L356.651 65.2939L356.588 66.47L356.54 67.5885C356.391 72.0192 356.425 80.9816 356.891 89.4495C357.208 95.2099 357.717 100.735 358.495 104.417C363.597 107.297 369.361 108.569 375.062 108.814C382.239 109.121 389.334 107.811 394.939 106.044C394.276 103.625 393.69 101.234 393.176 98.8582C392.624 96.2516 392.148 93.6498 391.759 91.0432Z" fill="#333333"/>
<path fill-rule="evenodd" clip-rule="evenodd" d="M404.974 234.57C403.831 235.861 402.38 237.249 400.891 238.67C398.479 240.974 395.972 243.369 394.718 245.419C393.777 246.96 393.604 248.294 394.939 249.173C395.751 249.274 398.652 248.05 402.015 246.35C405.776 244.449 410.013 241.953 412.611 239.98C412.631 239.961 412.683 239.923 412.703 239.913C412.755 239.875 412.842 239.817 412.943 239.731C413.481 239.265 414.331 238.002 411.699 234.945L412.808 233.994C416.305 238.06 414.792 240.062 413.889 240.839C413.759 240.95 413.63 241.041 413.543 241.103L413.476 241.151C410.796 243.182 406.487 245.726 402.673 247.651C398.902 249.557 395.516 250.872 394.449 250.56L394.358 250.536L394.276 250.483C391.903 249.039 392.052 246.984 393.474 244.661C394.829 242.448 397.403 239.985 399.887 237.614C401.357 236.207 402.793 234.839 403.883 233.605L404.974 234.57Z" fill="#333333"/>
<path fill-rule="evenodd" clip-rule="evenodd" d="M364.029 233.615C362.554 234.22 360.758 234.839 358.923 235.468C355.234 236.73 351.386 238.05 349.177 239.663C347.217 241.099 346.458 242.74 347.909 244.713L347.966 244.79L348.043 244.853C348.922 245.558 353.279 245.673 358.193 245.371C362.948 245.078 368.309 244.435 371.479 243.595L371.556 243.576C372.291 243.412 375.255 242.736 373.838 237.522C373.785 237.33 373.401 236.486 373.045 235.689C372.752 235.041 372.473 234.421 372.44 234.325L371.052 234.781C371.1 234.93 371.398 235.593 371.715 236.289C372.051 237.038 372.411 237.83 372.43 237.902C373.449 241.656 371.676 242.054 371.239 242.15L371.133 242.174C368.054 242.99 362.794 243.619 358.111 243.907C353.658 244.181 349.801 244.176 349.028 243.749C348.312 242.678 348.836 241.718 350.051 240.83C352.073 239.351 355.815 238.07 359.408 236.836C361.233 236.212 363.025 235.597 364.596 234.949L364.029 233.615Z" fill="#333333"/>
<path fill-rule="evenodd" clip-rule="evenodd" d="M400.891 238.67C398.48 240.974 395.972 243.369 394.719 245.419C393.777 246.96 393.604 248.294 394.939 249.173C395.751 249.274 398.653 248.05 402.015 246.35C405.776 244.449 410.013 241.953 412.611 239.98C412.631 239.961 412.684 239.923 412.703 239.913C412.756 239.875 412.842 239.817 412.943 239.731C413.236 239.481 413.615 239.001 413.49 238.132C413.399 237.47 413.01 236.577 412.064 235.386C411.079 235.813 409.835 235.996 408.591 235.962C407.14 235.924 405.651 235.597 404.566 235.026C403.663 236.01 402.601 237.037 401.501 238.094C401.294 238.286 401.093 238.478 400.891 238.67Z" fill="#FEFEFE"/>
<path fill-rule="evenodd" clip-rule="evenodd" d="M372.421 237.906C372.445 237.993 372.469 238.079 372.488 238.166C373.357 241.679 371.657 242.063 371.229 242.159L371.124 242.183C368.045 243 362.785 243.628 358.101 243.916C353.649 244.19 349.791 244.185 349.018 243.758C348.302 242.688 348.826 241.727 350.041 240.839C351.271 239.937 353.144 239.111 355.229 238.324C356.569 237.82 357.991 237.33 359.398 236.85C361.032 236.289 362.636 235.741 364.082 235.165C364.98 235.756 366.368 236.365 367.963 236.471C369.068 236.543 370.273 236.375 371.479 235.794C371.551 235.953 371.628 236.125 371.705 236.293C372.041 237.042 372.397 237.834 372.421 237.906Z" fill="#FEFEFE"/>
<path fill-rule="evenodd" clip-rule="evenodd" d="M393.162 108.099C396.549 119.173 400.334 139.177 403.648 161.796C408.428 185.092 411.507 211.331 411.463 233.562C410.584 234.047 409.302 234.33 408.024 234.359C406.756 234.388 405.526 234.176 404.743 233.682C403.643 229.496 399.21 211.519 393.253 190.666C388.229 173.067 381.624 153.952 378.156 140.545L376.768 135.48C376.681 148.072 375.836 161.297 375.288 169.875C375.125 172.458 374.986 174.618 374.899 176.264C374.895 176.375 374.899 176.797 374.909 177.503C374.991 183.614 375.356 211.629 371.018 234.388C370 234.92 368.977 235.074 368.045 235.016C366.777 234.935 365.667 234.46 364.942 233.989C364.86 227.408 364.639 217.951 364.019 207.87C363.385 197.564 362.324 186.571 360.556 177.253C360.412 176.495 357.751 161.239 357.597 140.602C357.52 130.291 358.073 118.636 359.879 106.774C364.649 109.016 369.851 110.048 375 110.273C381.456 110.552 387.826 109.563 393.162 108.099Z" fill="#404040" stroke="#404040" stroke-width="0.216" stroke-miterlimit="22.9256"/>
<path fill-rule="evenodd" clip-rule="evenodd" d="M376.773 135.336C376.691 147.971 375.841 161.263 375.293 169.875C375.13 172.458 374.991 174.618 374.904 176.265C374.899 176.375 374.904 176.797 374.914 177.503C374.995 183.614 375.36 211.629 371.023 234.388C370.004 234.921 368.981 235.074 368.049 235.017C366.781 234.935 365.672 234.46 364.946 233.989C364.865 227.408 364.644 217.951 364.024 207.87C363.39 197.564 362.329 186.571 360.561 177.253C360.417 176.495 357.756 161.239 357.602 140.602C357.525 130.003 358.106 117.993 360.037 105.795L358.596 105.569C356.656 117.844 356.07 129.941 356.146 140.602C356.3 161.378 358.981 176.749 359.125 177.513C360.883 186.763 361.935 197.693 362.569 207.947C363.203 218.234 363.419 227.821 363.496 234.378L363.501 234.738L363.789 234.954C364.658 235.602 366.181 236.351 367.963 236.466C369.246 236.548 370.658 236.308 372.056 235.482L372.339 235.314L372.401 234.993C376.83 212.042 376.456 183.648 376.379 177.479C376.369 176.826 376.364 176.428 376.369 176.332C376.451 174.776 376.59 172.583 376.758 169.962C377.239 162.463 377.945 151.427 378.17 140.338L376.773 135.336Z" fill="#333333"/>
<path fill-rule="evenodd" clip-rule="evenodd" d="M368.366 121.367C369.298 122.202 370.35 122.947 371.518 123.494C372.723 124.055 374.059 124.415 375.509 124.459L376.1 124.478L376.167 125.059C378.06 141.284 383.185 157.365 389.238 176.341C394.406 192.552 400.247 210.875 405.334 233.212C406.237 233.62 407.217 233.72 408.173 233.653C409.086 233.586 409.984 233.36 410.772 233.087C410.603 226.467 410.224 216.453 409.369 205.816C408.764 198.265 407.923 190.421 406.751 183.302C406.588 182.318 406.429 181.382 406.266 180.489C406.103 179.586 405.93 178.698 405.757 177.829C405.617 177.148 405.435 176.289 405.252 175.453C404.772 173.231 404.33 171.195 404.08 168.661C403.912 166.947 403.725 165.18 403.523 163.38C403.317 161.532 403.1 159.761 402.884 158.057C401.683 148.71 400.146 139.638 398.412 131.299C396.611 122.649 394.593 114.805 392.514 108.296L393.806 107.888C395.9 114.455 397.932 122.342 399.738 131.026C401.482 139.378 403.024 148.489 404.229 157.889C404.465 159.722 404.681 161.508 404.878 163.231C405.07 164.945 405.257 166.712 405.435 168.531C405.67 170.951 406.107 172.967 406.583 175.16C406.732 175.852 406.886 176.567 407.087 177.561C407.265 178.439 407.438 179.337 407.601 180.244C407.774 181.209 407.942 182.15 408.091 183.076C409.268 190.258 410.118 198.135 410.724 205.705C411.598 216.583 412.635 227.326 412.799 233.984L412.808 234.465L412.357 234.637C410.176 235.463 405.589 235.977 403.941 233.908L403.874 233.6C398.777 211.159 393.124 193.004 387.941 176.745C381.936 157.908 376.84 141.918 374.88 125.774C373.453 125.659 372.142 125.275 370.936 124.713C369.611 124.094 368.424 123.254 367.391 122.313C366.474 121.478 367.449 120.542 368.366 121.367Z" fill="#333333"/>
<path fill-rule="evenodd" clip-rule="evenodd" d="M372.18 21.6007C373.665 18.0916 377.604 20.0934 377.618 21.9703C377.431 21.7639 376.605 21.2694 376.134 21.2118C375.97 23.3 373.473 23.7369 372.8 21.5095C372.531 21.4951 372.377 21.4807 372.18 21.6007ZM371.282 37.9076C371.436 37.9652 373.794 38.6085 376.922 35.9203C378.555 34.5185 380.356 32.224 382.109 28.5132C382.08 28.5228 382.047 28.5324 382.018 28.5421C381.557 28.6669 381.177 27.8316 381.941 27.5436C382.143 27.4668 382.345 27.3612 382.522 27.2363C382.902 26.9771 383.204 26.6555 383.387 26.3675C384.108 25.2394 384.295 23.9865 384.045 23.0744C383.949 22.724 383.786 22.4263 383.57 22.2247C383.368 22.0327 383.104 21.9175 382.787 21.9031C382.153 21.8743 381.312 22.2199 380.294 23.1272C379.727 23.6312 379.222 22.9832 379.496 22.5608L379.179 22.1143C379.242 20.151 379.179 18.538 379.021 17.2179C378.853 15.8402 378.579 14.8033 378.218 14.0449C377.988 13.5552 377.632 13.0752 377.2 12.6863C376.806 12.3263 376.355 12.0479 375.884 11.9039C375.327 11.7311 374.765 11.7743 374.212 11.9423C373.602 12.1295 372.987 12.4703 372.377 12.8736C372.07 13.0752 371.767 13.2912 371.474 13.5024C369.947 14.5969 368.732 15.4658 366.315 14.8225C365.989 14.7361 365.681 14.5729 365.417 14.3473C365.388 14.3233 365.36 14.2993 365.336 14.2753C364.898 14.9377 364.524 15.701 364.207 16.5411C363.136 19.4213 362.823 23.1512 363.419 26.7371C364.01 30.2942 365.489 33.6881 367.997 35.9299C368.943 36.7651 370.033 37.4468 371.282 37.9076ZM382.047 23.6072C381.442 23.7273 381.374 23.2232 382.008 23.1176C382.201 23.0888 382.373 23.0888 382.527 23.1272C382.782 23.1848 382.974 23.324 383.104 23.5256C383.224 23.7129 383.286 23.9529 383.286 24.2217C383.286 24.6681 383.113 25.225 382.753 25.7818C382.618 25.993 382.393 26.2331 382.124 26.4155C381.98 26.5163 381.821 26.5979 381.648 26.6555C381.235 26.7995 381.067 26.3819 381.581 26.1611C381.672 26.1226 381.763 26.0698 381.85 26.0122C382.066 25.8682 382.239 25.681 382.345 25.5178C382.652 25.0378 382.801 24.5817 382.801 24.2217C382.801 24.0441 382.767 23.8953 382.695 23.7897C382.633 23.6937 382.542 23.6312 382.422 23.6024C382.316 23.5784 382.191 23.5784 382.047 23.6072ZM363.688 21.4519C365.038 17.89 369.053 19.7429 369.14 21.6199C368.943 21.4231 368.102 20.9574 367.627 20.919C367.545 23.012 365.062 23.54 364.308 21.3415C364.039 21.3319 363.88 21.3271 363.688 21.4519ZM370 30.3422C372.791 32.5936 373.804 28.5997 374.294 27.9852C374.155 32.944 370.35 32.5984 370 30.3422ZM369.27 26.6027C369.596 26.7803 370.12 26.9627 371.277 26.9867C368.89 27.9324 368.049 26.8235 368.083 25.7914C368.122 24.3993 369.428 24.6777 369.164 22.4215C370.298 24.0057 367.737 25.7722 369.27 26.6027Z" fill="#FEFEFE"/>
<path fill-rule="evenodd" clip-rule="evenodd" d="M374.028 86.7367L281.83 70.977C278.525 70.4106 276.306 67.2759 276.868 63.9733L281.898 36.4465C282.465 33.1438 285.602 30.9261 288.907 31.4877L381.105 47.2474C384.409 47.8139 386.629 50.9485 386.067 54.2512L381.041 81.7779C380.47 85.0806 377.333 87.3032 374.028 86.7367Z" fill="#01679E"/>
<path fill-rule="evenodd" clip-rule="evenodd" d="M357.318 63.2573L369.318 59.9834C370.317 59.7002 370.461 58.985 369.601 58.4185L359.173 51.5828C358.659 51.2419 357.885 51.0019 357.131 50.9251C356.632 50.8771 356.142 50.9011 355.743 51.0115L354.677 51.3043L343.744 54.2854C342.745 54.5686 342.601 55.2839 343.456 55.8503L348.134 58.9178L349.364 59.7242L353.884 62.6861C354.605 63.2573 356.175 63.5405 357.318 63.2573Z" fill="white"/>
<path fill-rule="evenodd" clip-rule="evenodd" d="M361.623 63.2094L359.538 63.7662L357.175 64.3951C356.175 64.6783 354.605 64.3951 353.745 63.8238L348.72 60.4827L347.495 59.6667L346.89 59.2634L342.745 60.4011C341.746 60.6843 341.602 61.3996 342.457 61.9661L344.392 63.2334L345.627 64.0398L352.89 68.797C353.212 69.0082 353.61 69.1859 354.057 69.3011C354.706 69.4739 355.44 69.5315 356.151 69.4211C356.257 69.4067 356.358 69.3875 356.459 69.3635L356.757 69.2819L358.236 68.8786L368.458 66.0896C369.457 65.8064 369.601 65.0911 368.746 64.5247L365.172 62.2445L361.623 63.2094Z" fill="white" fill-opacity="0.75"/>
<path fill-rule="evenodd" clip-rule="evenodd" d="M363.89 68.3794L358.198 69.9251L356.728 70.3236L356.031 70.5108C355.666 70.6164 355.224 70.6452 354.768 70.6068C354.148 70.5588 353.505 70.3956 352.991 70.1555C352.851 70.0883 352.722 70.0163 352.602 69.9395L345.886 65.528L343.653 66.1424L341.741 66.6705C341.669 66.6897 341.602 66.7137 341.534 66.7377C341.501 66.7521 341.467 66.7665 341.434 66.7809C340.718 67.1121 340.694 67.7313 341.453 68.2354L341.534 68.2882L348.72 72.9974L350.089 73.895L351.886 75.0711C352.746 75.6424 354.172 75.9256 355.171 75.6424L356.675 75.2344L358.135 74.8359L363.482 73.3766L367.175 72.3685C367.622 72.2437 367.896 72.0277 367.987 71.7829C368.102 71.4756 367.934 71.1156 367.459 70.8036L363.89 68.3794Z" fill="white" fill-opacity="0.5"/>
<path d="M310.157 46.2269C306.146 45.5689 302.305 47.699 300.654 51.1678C300.055 49.086 298.293 47.4071 296.007 47.0321C292.864 46.5164 289.861 48.6467 289.351 51.7539C288.841 54.8611 291.006 57.8403 294.149 58.3561C296.435 58.731 298.642 57.7025 299.874 55.9208C300.331 59.7356 303.289 62.9821 307.3 63.6401C311.281 64.2933 315.098 62.2 316.769 58.7764C317.392 60.8175 319.136 62.4554 321.39 62.8251C324.533 63.3408 327.537 61.2095 328.047 58.1023C328.557 54.9952 326.391 52.0168 323.247 51.5011C320.994 51.1315 318.818 52.1254 317.576 53.8602C317.086 50.0823 314.138 46.8801 310.157 46.2269ZM309.612 49.5503C312.639 50.047 314.666 52.8336 314.175 55.8265C313.684 58.8194 310.873 60.8135 307.845 60.3168C304.817 59.8201 302.792 57.0325 303.283 54.0396C303.774 51.0467 306.584 49.0535 309.612 49.5503ZM295.462 50.3555C296.788 50.5731 297.66 51.7705 297.445 53.0818C297.23 54.393 296.021 55.2503 294.695 55.0327C293.368 54.8151 292.498 53.6167 292.713 52.3055C292.928 50.9942 294.135 50.1379 295.462 50.3555ZM322.702 54.8245C324.029 55.0421 324.9 56.2395 324.685 57.5508C324.47 58.862 323.261 59.7193 321.935 59.5017C320.608 59.2841 319.738 58.0857 319.953 56.7745C320.168 55.4632 321.376 54.6069 322.702 54.8245Z" fill="white"/>
<path d="M383.308 82.4153C383.327 82.8791 383.093 83.4845 382.526 84.1897C381.971 84.8803 381.163 85.5828 380.214 86.2198C378.298 87.5061 375.971 88.4178 374.304 88.4875C372.838 88.5487 371.706 87.6587 370.878 86.2504C370.049 84.8395 369.623 83.0472 369.566 81.6959C369.528 80.7784 370.277 79.9765 371.935 79.3507C373.525 78.7504 375.61 78.4603 377.425 78.3845C379.065 78.316 380.536 78.9478 381.613 79.8236C382.724 80.7269 383.281 81.7726 383.308 82.4153Z" fill="white" stroke="#333333" stroke-width="1.5"/>
<path d="M328.946 37.3041C328.84 38.3948 327.916 39.524 326.404 40.3682C324.918 41.1974 323.04 41.6442 321.361 41.4804C317.888 41.1417 315.774 38.9215 316 36.6067C316.089 35.6927 316.942 35.0023 318.671 34.6122C320.329 34.2381 322.434 34.2397 324.243 34.4161C326.02 34.5894 327.264 35.0214 328.022 35.562C328.751 36.0821 329.008 36.6758 328.946 37.3041Z" fill="white" stroke="#333333" stroke-width="1.5"/>
<path d="M111.598 148.283V149.182C111.598 150.249 111.464 151.206 111.197 152.053C110.93 152.899 110.546 153.618 110.045 154.211C109.544 154.803 108.941 155.256 108.238 155.568C107.542 155.881 106.76 156.037 105.895 156.037C105.055 156.037 104.283 155.881 103.58 155.568C102.883 155.256 102.278 154.803 101.764 154.211C101.256 153.618 100.862 152.899 100.582 152.053C100.302 151.206 100.162 150.249 100.162 149.182V148.283C100.162 147.215 100.299 146.262 100.572 145.422C100.852 144.576 101.246 143.856 101.754 143.264C102.262 142.665 102.864 142.209 103.561 141.896C104.264 141.584 105.035 141.428 105.875 141.428C106.741 141.428 107.522 141.584 108.219 141.896C108.922 142.209 109.524 142.665 110.025 143.264C110.533 143.856 110.921 144.576 111.188 145.422C111.461 146.262 111.598 147.215 111.598 148.283ZM109.732 149.182V148.264C109.732 147.417 109.645 146.669 109.469 146.018C109.299 145.367 109.049 144.82 108.717 144.377C108.385 143.934 107.978 143.599 107.496 143.371C107.021 143.143 106.48 143.029 105.875 143.029C105.289 143.029 104.758 143.143 104.283 143.371C103.814 143.599 103.411 143.934 103.072 144.377C102.74 144.82 102.483 145.367 102.301 146.018C102.118 146.669 102.027 147.417 102.027 148.264V149.182C102.027 150.035 102.118 150.79 102.301 151.447C102.483 152.098 102.743 152.648 103.082 153.098C103.427 153.54 103.834 153.876 104.303 154.104C104.778 154.331 105.309 154.445 105.895 154.445C106.507 154.445 107.05 154.331 107.525 154.104C108.001 153.876 108.401 153.54 108.727 153.098C109.059 152.648 109.309 152.098 109.479 151.447C109.648 150.79 109.732 150.035 109.732 149.182ZM125.757 141.623V155.842H123.863L116.705 144.875V155.842H114.82V141.623H116.705L123.892 152.619V141.623H125.757ZM138.12 154.309V155.842H131.011V154.309H138.12ZM131.382 141.623V155.842H129.497V141.623H131.382ZM138.989 141.623L142.68 148.762L146.382 141.623H148.52L143.618 150.529V155.842H141.733V150.529L136.831 141.623H138.989ZM161.401 148.283V149.182C161.401 150.249 161.267 151.206 161 152.053C160.733 152.899 160.349 153.618 159.848 154.211C159.347 154.803 158.745 155.256 158.041 155.568C157.345 155.881 156.564 156.037 155.698 156.037C154.858 156.037 154.086 155.881 153.383 155.568C152.687 155.256 152.081 154.803 151.567 154.211C151.059 153.618 150.665 152.899 150.385 152.053C150.105 151.206 149.965 150.249 149.965 149.182V148.283C149.965 147.215 150.102 146.262 150.375 145.422C150.655 144.576 151.049 143.856 151.557 143.264C152.065 142.665 152.667 142.209 153.364 141.896C154.067 141.584 154.838 141.428 155.678 141.428C156.544 141.428 157.325 141.584 158.022 141.896C158.725 142.209 159.327 142.665 159.829 143.264C160.336 143.856 160.724 144.576 160.991 145.422C161.264 146.262 161.401 147.215 161.401 148.283ZM159.536 149.182V148.264C159.536 147.417 159.448 146.669 159.272 146.018C159.103 145.367 158.852 144.82 158.52 144.377C158.188 143.934 157.781 143.599 157.299 143.371C156.824 143.143 156.284 143.029 155.678 143.029C155.092 143.029 154.562 143.143 154.086 143.371C153.618 143.599 153.214 143.934 152.875 144.377C152.543 144.82 152.286 145.367 152.104 146.018C151.922 146.669 151.83 147.417 151.83 148.264V149.182C151.83 150.035 151.922 150.79 152.104 151.447C152.286 152.098 152.547 152.648 152.885 153.098C153.23 153.54 153.637 153.876 154.106 154.104C154.581 154.331 155.112 154.445 155.698 154.445C156.31 154.445 156.853 154.331 157.329 154.104C157.804 153.876 158.204 153.54 158.53 153.098C158.862 152.648 159.112 152.098 159.282 151.447C159.451 150.79 159.536 150.035 159.536 149.182ZM166.508 141.623V155.842H164.623V141.623H166.508ZM172.465 148.02V149.562H166.098V148.02H172.465ZM173.432 141.623V143.166H166.098V141.623H173.432ZM177.963 141.623V155.842H176.078V141.623H177.963ZM183.92 148.02V149.562H177.552V148.02H183.92ZM184.886 141.623V143.166H177.552V141.623H184.886ZM189.554 141.623V155.842H187.669V141.623H189.554ZM201.966 151.32H203.841C203.743 152.219 203.486 153.023 203.069 153.732C202.652 154.442 202.063 155.005 201.302 155.422C200.54 155.832 199.589 156.037 198.45 156.037C197.617 156.037 196.858 155.881 196.175 155.568C195.498 155.256 194.915 154.813 194.427 154.24C193.938 153.661 193.561 152.967 193.294 152.16C193.033 151.346 192.903 150.441 192.903 149.445V148.029C192.903 147.033 193.033 146.132 193.294 145.324C193.561 144.51 193.942 143.814 194.436 143.234C194.938 142.655 195.54 142.209 196.243 141.896C196.946 141.584 197.737 141.428 198.616 141.428C199.69 141.428 200.598 141.63 201.341 142.033C202.083 142.437 202.659 142.997 203.069 143.713C203.486 144.423 203.743 145.246 203.841 146.184H201.966C201.874 145.52 201.705 144.95 201.458 144.475C201.21 143.993 200.859 143.622 200.403 143.361C199.947 143.101 199.352 142.971 198.616 142.971C197.985 142.971 197.428 143.091 196.946 143.332C196.471 143.573 196.07 143.915 195.745 144.357C195.426 144.8 195.185 145.331 195.022 145.949C194.86 146.568 194.778 147.255 194.778 148.01V149.445C194.778 150.142 194.85 150.796 194.993 151.408C195.143 152.02 195.367 152.557 195.667 153.02C195.966 153.482 196.347 153.846 196.809 154.113C197.272 154.374 197.818 154.504 198.45 154.504C199.251 154.504 199.889 154.377 200.364 154.123C200.839 153.869 201.197 153.505 201.438 153.029C201.686 152.554 201.861 151.984 201.966 151.32ZM215.842 154.309V155.842H208.313V154.309H215.842ZM208.694 141.623V155.842H206.809V141.623H208.694ZM214.846 147.736V149.27H208.313V147.736H214.846ZM215.745 141.623V143.166H208.313V141.623H215.745Z" fill="#333333"/>
<rect x="101" y="61" width="162" height="64" rx="4" fill="#EEEEEE"/>
<g opacity="0.2">
<rect x="26" y="63" width="44" height="5" rx="2.5" fill="#0082C9"/>
<rect x="26" y="76" width="31.6968" height="5" rx="2.5" fill="#0082C9"/>
<rect x="26" y="89" width="44" height="5" rx="2.5" fill="#0082C9"/>
<rect x="26" y="102" width="31.6968" height="5" rx="2.5" fill="#0082C9"/>
<rect x="26" y="115" width="44" height="5" rx="2.5" fill="#0082C9"/>
<rect x="26" y="128" width="31.6968" height="5" rx="2.5" fill="#0082C9"/>
<rect x="26" y="141" width="44" height="5" rx="2.5" fill="#0082C9"/>
</g>
</svg>
