<svg width="130" height="24" viewBox="0 0 130 24" fill="none" xmlns="http://www.w3.org/2000/svg">
<path fill-rule="evenodd" clip-rule="evenodd" d="M11.1327 23.7058L0.668542 18.7648C-0.222847 18.3335 -0.222847 17.6668 0.668542 17.2747L4.31161 15.5493L11.0939 18.7648C11.9853 19.1962 13.4193 19.1962 14.2719 18.7648L21.0542 15.5493L24.6973 17.2747C25.5887 17.706 25.5887 18.3727 24.6973 18.7648L14.2332 23.7058C13.4193 24.098 11.9853 24.098 11.1327 23.7058Z" fill="#FF6F3D"/>
<path fill-rule="evenodd" clip-rule="evenodd" d="M11.0988 17.5916L0.666506 12.6448C-0.222169 12.213 -0.222169 11.5456 0.666506 11.153L4.2212 9.46478L11.0988 12.7234C11.9874 13.1552 13.4171 13.1552 14.2671 12.7234L21.1447 9.46478L24.6993 11.153C25.588 11.5848 25.588 12.2522 24.6993 12.6448L14.2671 17.5916C13.3784 18.0234 11.9488 18.0234 11.0988 17.5916Z" fill="#95C038"/>
<path fill-rule="evenodd" clip-rule="evenodd" d="M11.0988 11.5408L0.666506 6.6652C-0.222169 6.23956 -0.222169 5.58174 0.666506 5.19479L11.0988 0.319233C11.9874 -0.106411 13.4171 -0.106411 14.2671 0.319233L24.6993 5.19479C25.588 5.62044 25.588 6.27825 24.6993 6.6652L14.2671 11.5408C13.3784 11.9277 11.9488 11.9277 11.0988 11.5408Z" fill="#5DC0E8"/>
<path d="M37.6931 5.8667C34.674 5.8667 31.7073 7.64845 31.7073 12C31.7073 16.3516 34.674 18.1334 37.6931 18.1334C40.7121 18.1334 43.6788 16.3516 43.6788 12C43.6788 7.64845 40.7121 5.8667 37.6931 5.8667ZM37.6931 7.57992C38.618 7.57992 41.0611 7.9397 41.0611 12C41.0611 16.0604 38.618 16.4201 37.6931 16.4201C36.7682 16.4201 34.325 16.0604 34.325 12C34.325 7.9397 36.7682 7.57992 37.6931 7.57992Z" fill="#333333"/>
<path d="M45.6921 6.00376V17.9963H48.1701V10.9378L48.1178 8.81344H48.1701L48.7809 10.1497L53.039 17.9963H56.25V6.00376H53.7719V13.0622L53.8243 15.1866H53.7719L53.1262 13.5591L48.9031 6.00376H45.6921Z" fill="#333333"/>
<path d="M58.6952 6.00376V17.9963H66.0247V15.9747H61.1733V6.00376H58.6952Z" fill="#333333"/>
<path d="M63.9305 6.00376L68.4329 13.0965V17.9963H70.911V13.1308L75.3086 6.00376H72.691L70.1606 10.2183L69.7417 11.0406H69.6894L69.3055 10.2183L66.7925 6.00376H63.9305Z" fill="#333333"/>
<path d="M81.0822 5.8667C78.0632 5.8667 75.0965 7.64845 75.0965 12C75.0965 16.3516 78.0632 18.1334 81.0822 18.1334C84.1013 18.1334 87.068 16.3516 87.068 12C87.068 7.64845 84.1013 5.8667 81.0822 5.8667ZM81.0822 7.57992C82.0071 7.57992 84.4503 7.9397 84.4503 12C84.4503 16.0604 82.0071 16.4201 81.0822 16.4201C80.1573 16.4201 77.7142 16.0604 77.7142 12C77.7142 7.9397 80.1573 7.57992 81.0822 7.57992Z" fill="#333333"/>
<path d="M89.0812 6.00376V17.9963H91.5593V12.908H95.7127V10.9378H91.5593V8.02536H95.9221V6.00376H89.0812Z" fill="#333333"/>
<path d="M97.6705 6.00376V17.9963H100.149V12.908H104.302V10.9378H100.149V8.02536H104.511V6.00376H97.6705Z" fill="#333333"/>
<path d="M106.26 17.9963H108.738V6.00376H106.26V17.9963Z" fill="#333333"/>
<path d="M120.102 15.5807C119.492 15.8548 118.636 16.1118 117.554 16.1118C115.356 16.1118 113.366 14.9296 113.366 12.0343C113.366 9.58439 114.989 7.8883 117.729 7.8883C118.654 7.8883 119.439 8.05962 120.155 8.33374L120.259 6.27787C119.335 5.98662 118.514 5.8667 117.554 5.8667C113.715 5.8667 110.749 7.9397 110.749 12.0686C110.749 16.4373 114.064 18.1334 117.101 18.1334C118.078 18.1334 119.177 17.9792 120.259 17.6194L120.102 15.5807Z" fill="#333333"/>
<path d="M122.177 6.00376V17.9963H129.472V15.8719H124.655V12.8052H129.035V10.835H124.655V8.12815H129.472V6.00376H122.177Z" fill="#333333"/>
</svg>
