<svg width="4094" height="1230" viewBox="0 0 4094 1230" fill="none" xmlns="http://www.w3.org/2000/svg">
<g clip-path="url(#clip0_9092_321714)">
<rect width="4094" height="1230" transform="translate(0.00390625)" fill="#1C48AA"/>
<g style="mix-blend-mode:soft-light" opacity="0.3">
<path fill-rule="evenodd" clip-rule="evenodd" d="M2068.43 1160.02L858.219 853.161C754.911 825.915 741.166 755.375 827.494 695.483L1833.95 -43.3124C1919.47 -107.353 2071.35 -136.949 2170.55 -108.903L3380.77 197.951C3484.07 225.197 3497.82 295.737 3411.49 355.629L2405.04 1094.42C2318.71 1154.32 2166.83 1183.91 2068.43 1160.02Z" fill="#333333"/>
</g>
<g style="mix-blend-mode:overlay" opacity="0.2">
<path fill-rule="evenodd" clip-rule="evenodd" d="M2538.34 920.864L3942.46 1174.62C4062.93 1195.14 4117.83 1124.62 4065.16 1017.01L3474.73 -281.967C3425.3 -393.726 3288.63 -500.118 3171.86 -517.753L1767.73 -771.514C1647.26 -792.024 1592.37 -721.513 1645.03 -613.901L2235.46 685.078C2288.13 792.69 2424.79 899.081 2538.34 920.864Z" fill="white"/>
</g>
<g style="mix-blend-mode:soft-light" opacity="0.5">
<path fill-rule="evenodd" clip-rule="evenodd" d="M868.143 -222.842L1807.95 -218.412C1888.37 -217.265 1911.22 -168.23 1859.02 -108.803L1257.92 613.646C1207.08 675.957 1101.5 725.155 1023.93 722.679L84.1276 718.248C3.71143 717.102 -19.1378 668.066 33.0529 608.64L634.154 -113.81C686.344 -173.237 791.925 -222.434 868.143 -222.842Z" fill="#333333"/>
</g>
</g>
<defs>
<clipPath id="clip0_9092_321714">
<rect width="4094" height="1230" fill="white" transform="translate(0.00390625)"/>
</clipPath>
</defs>
</svg>
