<svg width="48" height="48" viewBox="0 0 48 48" fill="none" xmlns="http://www.w3.org/2000/svg">
<path d="M1.73899 36.6393C1.24242 37.435 0.684731 38.4614 0.211076 39.2332C0.00795268 39.5929 -0.0514197 40.0212 0.0457461 40.426C0.142912 40.8308 0.388841 41.1797 0.730568 41.3974L10.662 47.7628C10.8346 47.8738 11.0267 47.9479 11.227 47.9808C11.4274 48.0136 11.632 48.0046 11.829 47.9543C12.026 47.9039 12.2114 47.8132 12.3743 47.6874C12.5373 47.5617 12.6746 47.4034 12.7782 47.2218C13.1755 46.5296 13.6873 45.6304 14.245 44.6756C18.1794 37.9044 22.1367 38.7319 29.2721 42.2886L39.1119 47.1661C39.2965 47.2576 39.4968 47.3096 39.7011 47.319C39.9053 47.3284 40.1093 47.295 40.301 47.2208C40.4926 47.1466 40.668 47.0331 40.8167 46.8871C40.9655 46.741 41.0846 46.5653 41.1669 46.3704L45.8959 35.231C46.0651 34.8489 46.0821 34.4125 45.9433 34.0174C45.8044 33.6222 45.5209 33.3004 45.1548 33.1224C43.0692 32.104 38.9362 30.075 35.2233 28.2052C21.8159 21.4578 10.4405 21.9034 1.73899 36.6393Z" fill="url(#paint0_linear_8943_280020)"/>
<path d="M46.2622 11.3606C46.7588 10.565 47.3241 9.53856 47.7901 8.75882C47.9916 8.40084 48.0508 7.97509 47.9552 7.5723C47.8596 7.16952 47.6167 6.82155 47.2783 6.60257L37.3467 0.237289C37.1741 0.126314 36.9821 0.0522353 36.7817 0.0193735C36.5813 -0.0134883 36.3767 -0.00447546 36.1797 0.045886C35.9828 0.0962475 35.7974 0.186951 35.6344 0.312705C35.4714 0.438459 35.3341 0.596746 35.2305 0.778338C34.8409 1.47852 34.329 2.36966 33.7637 3.33241C29.7987 10.0478 25.8414 9.25213 18.7135 5.71939L8.86599 0.841993C8.68139 0.750482 8.48103 0.698486 8.27678 0.689085C8.07253 0.679685 7.86855 0.71307 7.67692 0.787265C7.48528 0.86146 7.30989 0.974954 7.16114 1.12103C7.01239 1.2671 6.89329 1.44278 6.81091 1.63765L2.08195 12.7769C1.93194 13.1528 1.92595 13.5743 2.06521 13.9546C2.20447 14.335 2.4784 14.6453 2.83064 14.8217C4.90864 15.8402 9.0417 17.8771 12.7622 19.7389C26.1928 26.5418 37.5683 26.0883 46.2622 11.3606Z" fill="url(#paint1_linear_8943_280020)"/>
<defs>
<linearGradient id="paint0_linear_8943_280020" x1="28.3151" y1="53.2816" x2="11.1613" y2="17.5471" gradientUnits="userSpaceOnUse">
<stop stop-color="#9FADC7"/>
<stop offset="0.66" stop-color="white"/>
<stop offset="1" stop-color="#FDFDFE"/>
</linearGradient>
<linearGradient id="paint1_linear_8943_280020" x1="-646351" y1="-277458" x2="-645265" y2="-276260" gradientUnits="userSpaceOnUse">
<stop stop-color="#7287AF"/>
<stop offset="1" stop-color="#E6EAF1"/>
</linearGradient>
</defs>
</svg>
