<svg width="58" height="32" viewBox="0 0 58 32" fill="none" xmlns="http://www.w3.org/2000/svg">
<path d="M19.7373 20.7273C19.675 20.6853 18.634 19.7531 18.3755 19.4228C18.1226 19.089 17.6351 19.0014 17.3803 18.8682C17.1237 18.7369 15.4302 18.1804 15.0234 18.4687C14.622 18.7569 14.0685 18.9321 13.854 18.4687C13.6433 18.0016 13.537 17.936 13.2401 17.8703C12.9431 17.8046 13.0916 17.4525 13.0714 17.1424C13.0476 16.8304 12.879 16.4983 12.6664 16.7209C12.4538 16.9435 11.7317 17.52 11.6272 17.2281C11.5209 16.9417 11.0095 15.7467 11.7756 15.5223C12.5381 15.3034 13.1759 15.4329 13.3683 15.6336C13.559 15.8306 13.7056 16.3871 13.942 16.3196C14.1766 16.252 14.0483 15.8288 14.1326 15.4785C14.2169 15.1264 14.7723 14.6594 15.0234 14.1741C15.2781 13.6833 15.3203 13.3969 15.6373 13.2637C15.9599 13.1323 16.1285 12.9554 16.4255 12.7328C16.7242 12.5102 17.1879 12.3132 17.362 12.2001C17.5325 12.087 18.2949 11.7111 18.5478 11.7786C18.8026 11.8461 18.9712 11.7567 18.7604 11.3809C18.5478 11.0051 18.2729 9.87397 17.8697 9.36679C17.4665 8.85961 17.4225 8.72278 17.2319 8.23932C17.0413 7.74856 16.8268 7.32895 16.6784 7.66099C16.5299 7.99303 16.2128 8.43635 16.0424 8.01492C15.8738 7.59348 15.8939 7.61355 15.6813 7.41652C15.4706 7.21766 15.2983 7.17205 15.0032 7.08265C14.7063 6.99326 14.4094 7.10637 14.4295 7.3928C14.4497 7.68105 14.151 8.19371 14.3452 8.57136C14.5358 8.94901 14.7063 9.34672 14.4497 9.47991C14.1968 9.61126 14.4497 10.4103 14.1968 10.3866C13.942 10.3666 13.8155 10.4103 13.8155 10.1203C13.8155 9.83566 13.942 9.39234 13.4728 9.39234C13.0073 9.39234 12.7305 9.14969 12.3915 8.9034C12.0506 8.66075 11.7756 8.79211 11.86 8.24114C11.9443 7.6847 11.8196 7.48767 12.199 7.17752C12.5821 6.8692 12.6682 6.68859 12.9431 6.82359C13.2199 6.95677 13.4087 6.95677 13.5828 6.8017C13.7514 6.64662 14.0685 6.71048 14.0685 6.51344C14.0685 6.31459 13.7074 6.31459 13.7514 5.98437C13.7917 5.64686 13.964 5.82747 14.0263 5.27286C14.0886 4.71824 13.6231 3.8772 13.1557 3.98849C12.6865 4.09795 11.9681 4.74196 11.8196 4.45188C11.6693 4.16545 11.3724 4.29681 10.7988 4.49749C10.2251 4.69817 7.84796 4.30046 7.67934 4.09795C7.67934 4.09795 7.2743 3.81152 7.06169 3.96659C6.85092 4.12167 6.0005 4.05416 5.74574 4.0122C5.48915 3.96659 5.25639 4.29863 4.94115 4.18917C4.61857 4.07788 3.49507 3.85531 3.24214 3.67834C2.98372 3.49955 2.60066 3.49955 2.43571 3.41198C2.26526 3.32258 1.64761 3.2788 1.52298 3.45576C1.39468 3.63273 0.92732 3.94105 0.692722 4.16363C0.459957 4.3862 0.18687 4.34242 0.417802 4.80764C0.650568 5.27286 -0.176024 5.56111 0.0347477 6.06829C0.245519 6.57547 -0.00740664 7.94924 0.841178 8.2156C1.6916 8.48196 2.39172 8.63704 2.87925 8.24114C3.37044 7.83978 4.11272 7.83978 4.34549 8.2831C4.57825 8.72643 4.70655 9.39051 5.46899 9.76634C6.23143 10.144 6.89124 11.2295 6.84909 11.713C6.80877 12.2019 6.87291 13.8165 7.65369 14.7469C8.44179 15.6774 9.24822 17.3631 9.3087 16.9617C9.37285 16.5622 9.37285 16.1627 9.54513 16.4527C9.71192 16.741 10.1591 17.6276 10.8812 17.7827C11.6052 17.9378 11.9663 17.9816 12.2393 18.2498C12.5143 18.5161 12.7507 18.6694 13.0458 18.8044C13.3427 18.9357 14.0648 19.3371 14.2133 19.6016C14.3636 19.868 14.2994 20.2219 14.1491 20.6215C14.0025 21.021 13.832 21.4187 14.0428 21.7964C14.2573 22.1722 14.7026 23.2577 15.0655 23.5004C15.4266 23.7467 15.784 24.1444 15.6997 24.6972C15.6154 25.25 15.2121 27.6198 15.2543 28.1526C15.2983 28.6816 14.7686 30.4312 15.192 31.1409C15.6154 31.8488 16.3411 32.0714 16.6582 31.9801C16.9753 31.8944 16.7224 31.8688 16.5721 31.5386C16.4236 31.2048 16.4438 30.7833 16.6142 30.475C16.7865 30.1649 16.7865 29.9879 16.7004 29.634C16.6142 29.28 16.6582 29.0794 16.869 28.8148C17.0834 28.5485 17.9742 27.8406 18.2509 27.5304C18.524 27.2203 20.2688 25.0931 20.5016 24.9161C20.7344 24.7391 21.264 24.3177 21.4363 23.6554C21.6068 22.9932 22.2208 21.6851 21.7974 21.3512C21.3722 21.0174 19.8015 20.7711 19.7373 20.7273Z" fill="url(#paint0_linear_4142_36521)"/>
<path d="M23.9824 2.03817C24.1034 1.80282 24.3966 1.21354 24.5542 0.890625H17.8279C17.9085 1.24638 18.1999 2.56724 18.145 3.10179C18.0808 3.72208 18.2733 3.50133 18.4419 3.7458C18.6123 3.99027 18.5702 4.36792 18.4639 4.65252C18.3557 4.94077 18.2934 5.58479 18.6361 6.33826C18.9734 7.08991 19.3766 8.04224 19.7157 8.08785C20.0584 8.12981 19.9723 8.61875 20.2069 8.43996C20.4396 8.26117 20.4799 7.8671 20.6742 7.28877C20.8648 6.71591 20.8648 6.29265 21.3542 6.0044C21.8435 5.71614 23.1998 4.78753 23.4967 4.45366C23.7955 4.1198 24.1345 3.98844 24.0282 3.41376C23.9183 2.83725 23.8138 2.37203 23.9824 2.03817Z" fill="url(#paint1_linear_4142_36521)"/>
<path d="M57.0994 4.65304C56.8446 4.47607 55.3179 3.2592 54.6581 3.41428C54.0038 3.56935 52.8345 3.05852 52.642 2.94906C52.4514 2.83777 50.8825 2.35796 50.0541 2.32877C49.6417 2.31417 47.9097 1.92922 47.1876 1.6209C46.4637 1.30893 45.8515 -0.218087 44.4714 0.0263812C44.2936 0.0592202 42.6258 0.292743 42.2006 0.670392C41.779 1.04804 41.5848 1.48772 41.352 1.57711C41.1192 1.66651 40.4393 1.6209 40.4393 1.95476C40.4393 2.2868 40.6739 3.30664 40.3989 3.10596C40.1222 2.9071 39.8454 2.44188 39.7208 2.79763C39.5943 3.15339 39.3762 3.35042 39.2516 3.21724C39.127 3.08406 38.4855 3.21724 38.403 3.438C38.3169 3.66057 37.4903 4.16775 37.1311 4.23708C36.77 4.30276 36.6197 4.47972 36.4291 4.56912C36.2385 4.65669 34.7924 5.32259 34.5193 5.07812C34.2426 4.83548 34.1583 4.99055 33.9878 5.03434C33.9878 5.03434 33.4783 4.94494 33.1612 4.54723C32.8405 4.14951 32.7782 4.28086 32.4171 3.90504C32.0579 3.52921 31.9717 3.15339 31.6125 3.30846C31.2533 3.46171 29.7247 5.03251 29.1291 5.7422C28.5371 6.45189 27.4741 7.18165 28.0037 7.68883C28.5371 8.19783 28.8102 8.13216 28.8761 8.41858C28.9421 8.70501 29.0044 9.01698 29.0887 9.12827C29.1731 9.24139 29.6807 9.63728 29.9373 9.10638C30.1958 8.57366 30.2342 8.19783 30.5312 8.28723C30.8281 8.3748 30.8904 8.57548 30.7401 8.9732C30.5916 9.37457 30.4872 9.99304 29.9777 9.96932C29.47 9.94743 28.9183 9.63728 28.746 9.70478C28.5774 9.77046 28.4748 9.92553 28.2805 10.0806C28.0899 10.2357 27.4942 10.9636 27.091 11.0767C26.6896 11.188 26.2021 11.0968 26.477 11.4288C26.7519 11.7609 27.1551 12.4925 26.7739 12.4687C26.3927 12.4468 25.7549 12.3812 25.7127 12.757C25.6706 13.1328 25.502 13.3554 25.5863 13.6199C25.6706 13.8863 25.9473 14.3971 26.2846 14.2183C26.6291 14.0395 27.2853 13.8662 27.4539 13.4649C27.6243 13.0653 27.8168 12.6256 28.2402 12.6475C28.6635 12.6694 29.6844 13.2222 29.6184 13.4229C29.5561 13.6199 29.3453 14.087 29.5983 13.9319C29.853 13.775 30.0638 13.598 30.2123 13.5324C30.3607 13.4649 30.5568 13.7549 30.6173 13.8662C30.6796 13.9793 31.1067 14.1983 31.1891 13.8407C31.2753 13.4886 31.3596 13.7549 31.6125 13.8662C31.8691 13.9793 32.6315 14.0633 32.7342 14.1527C32.8442 14.242 33.0769 14.5066 32.7782 14.8623C32.4813 15.2144 32.1404 15.3513 31.6528 15.0849C31.1635 14.8186 30.632 15.3075 30.0858 15.0393C29.5305 14.7748 29.787 14.3989 29.1291 14.1326C28.4748 13.8662 26.9865 14.1983 26.5173 14.3314C26.05 14.4628 26.0298 14.5084 25.8392 14.7292C25.6486 14.9517 24.3968 16.3894 24.3968 17.2085C24.3968 18.0258 24.8623 20.2443 26.3689 20.0217C27.8773 19.7991 28.79 19.9305 28.6214 20.372C28.4491 20.8172 28.5371 20.9284 28.812 21.4356C29.0869 21.9446 29.7266 25.3343 29.831 25.8853C29.941 26.4399 29.7486 27.146 30.4487 27.0365C31.1525 26.9252 31.8929 26.7501 32.188 26.1079C32.4868 25.4639 32.5326 24.736 32.9138 24.3601C33.2969 23.9825 33.7624 23.9825 33.8027 23.4516C33.843 22.9189 33.6964 21.6582 33.9512 21.3663C34.2078 21.0817 35.3936 19.7499 35.52 19.219C35.6483 18.6881 35.8169 18.5549 35.3294 18.5549C34.8419 18.5549 34.0135 18.4911 33.777 18.0477C33.5443 17.6099 32.9908 16.7688 32.9908 16.57C32.9908 16.3729 33.3317 16.393 33.4985 16.8126C33.6707 17.2322 34.2609 18.4984 34.9409 18.2283C35.6208 17.962 36.5776 17.6537 36.5977 17.2322C36.6179 16.8126 36.3008 16.3255 35.9599 16.3492C35.6172 16.3729 35.2579 16.1266 35.2579 15.884C35.2579 15.6414 35.3203 15.7307 35.7253 15.884C36.1304 16.0391 36.255 16.3036 36.8726 16.3492C37.4885 16.393 38.1886 16.9914 38.5258 17.2578C38.8667 17.5241 39.4587 19.3412 39.609 19.5164C39.7556 19.6952 39.9316 19.6952 40.0782 19.3394C40.2267 18.9836 40.8626 17.8562 41.2255 17.5442C41.5848 17.234 41.6068 16.8144 41.8157 17.0808C42.0283 17.3472 42.941 18.0094 43.0052 18.409C43.0693 18.8085 42.963 19.6714 43.1536 19.4051C43.3442 19.1387 43.4945 18.5877 43.6595 18.8322C43.8318 19.0767 43.8318 19.4525 44.2331 19.1643C44.6382 18.8796 45.3383 18.7665 44.9571 18.1462C44.5759 17.526 44.8306 17.1501 45.0671 17.1264C45.2998 17.1027 46.8925 16.8163 46.9347 15.9515C46.9768 15.0886 46.3812 14.6233 46.6634 14.18C46.9347 13.7367 47.3397 13.339 47.4259 13.6035C47.5102 13.8699 47.2133 14.7328 47.5945 14.5996C47.9776 14.4683 48.4229 14.4683 48.4229 14.2001C48.4229 13.9319 48.3368 13.2678 48.5091 13.0927C48.6795 12.9157 49.9295 11.7445 50.0779 11.2792C50.2264 10.8122 50.5031 10.4145 50.2685 10.0624C50.0339 9.70843 49.6326 9.81607 49.9496 9.37639C50.2685 8.93306 50.8001 8.52258 51.2033 8.48974C52.4917 8.37663 52.1288 9.96385 52.1508 10.3178C52.1747 10.6717 52.1747 11.5584 52.3634 11.115C52.554 10.6735 52.7758 10.128 53.1589 9.75222C53.5419 9.37821 53.7527 9.13192 53.7765 8.80171C53.7985 8.46967 53.815 8.35838 54.1797 8.18141C54.5408 8.00262 56.1317 7.38233 56.2801 6.96454C56.4286 6.54493 56.0895 6.16546 56.4707 6.191C56.852 6.21107 57.213 6.63068 57.4055 6.40993C57.5961 6.191 58.0213 5.79146 57.9993 5.56888C57.9736 5.33901 57.3578 4.83001 57.0994 4.65304Z" fill="url(#paint2_linear_4142_36521)"/>
<path d="M50.246 12.0912C50.1177 12.3813 50.0554 12.4269 49.8648 13.0253C49.6705 13.6201 49.7347 13.465 49.5422 13.8408C49.3516 14.2185 49.0364 14.2605 48.7175 14.5067C48.3949 14.7512 48.3106 15.2365 48.3106 15.2365C48.0357 15.6123 49.4359 14.7038 49.9234 14.4173C50.4128 14.1291 50.2863 13.7971 50.3285 13.3318C50.3706 12.8648 50.5026 12.7991 50.7097 12.6003C50.9205 12.4014 50.7519 12.0019 50.6511 11.7154C50.5411 11.429 50.3706 11.8066 50.246 12.0912Z" fill="url(#paint3_linear_4142_36521)"/>
<path d="M45.8933 22.1473C46.0418 22.0342 45.9336 21.7934 46.1664 21.8353C46.401 21.8791 46.6118 22.0159 46.8922 21.8609C47.1653 21.704 47.3999 21.7696 47.3577 21.5051C47.3174 21.2406 47.3577 20.8866 47.2954 20.6659C47.2313 20.4433 46.85 20.3758 46.5733 20.6221C46.2965 20.8684 45.9171 21.2442 45.9171 21.1092C45.9171 20.9778 46.0839 20.6221 45.9996 20.4013C45.9171 20.1806 46.0418 19.9817 45.6184 20.1569C45.1932 20.3357 44.9604 20.2901 44.812 20.5345C44.6653 20.7808 44.4931 21.1986 44.2401 20.9341C43.9872 20.6695 43.2413 20.1167 43.2413 20.1167C43.1808 20.0492 42.3322 19.3614 42.6291 19.8285C42.9242 20.2937 43.3714 21.091 43.584 21.3774C43.7929 21.6656 44.0275 21.9995 44.2841 21.8444C44.5389 21.6875 44.581 21.6456 44.9219 21.8444C45.2537 22.036 45.7449 22.2586 45.8933 22.1473Z" fill="url(#paint4_linear_4142_36521)"/>
<path d="M51.0948 21.5247C50.688 21.3477 50.8584 21.1926 50.369 21.1069C49.8797 21.0211 49.4801 21.1069 49.3482 21.0193C49.2199 20.9299 48.5857 20.7092 48.67 21.0193C48.7562 21.3313 49.328 21.417 49.4765 21.5046C49.6249 21.594 49.2639 21.7947 49.537 21.9479C49.8119 22.1012 50.0062 22.3913 50.3654 22.3019C50.7264 22.2106 50.8547 22.4131 51.148 22.4569C51.4467 22.4989 51.7436 22.4131 51.6208 22.2763C51.4926 22.1468 51.4101 21.9662 51.4302 21.8129C51.4522 21.6578 51.4962 21.7035 51.0948 21.5247Z" fill="url(#paint5_linear_4142_36521)"/>
<path d="M50.8825 23.4976C50.734 23.0543 50.373 22.2388 50.2905 22.6347C50.2044 23.0324 49.6325 23.3188 49.4163 23.2969C49.222 23.275 49.3319 23.0762 49.3319 22.8956C49.3319 22.7186 49.2201 22.5434 48.7363 22.6766C48.2451 22.808 48.1443 23.2732 48.0123 23.2312C47.8877 23.1875 47.545 23.0981 47.336 23.3425C47.1234 23.587 46.9291 24.0522 46.6781 24.1416C46.4215 24.231 45.571 24.3387 45.571 24.6962C45.571 25.0502 45.7855 25.5811 45.7635 25.8693C45.7415 26.1576 45.3548 26.8198 45.8698 27.0223C46.1667 27.1373 46.3775 27.1537 46.722 26.9785C47.0611 26.8016 48.5237 26.3364 48.718 26.4896C48.9086 26.6447 49.2165 27.0077 49.3539 27.0862C49.6234 27.2467 49.6967 27.6171 50.0577 27.7065C50.4133 27.7959 50.6937 27.8378 50.8403 27.8378C50.9906 27.8378 51.5185 27.6609 51.6468 27.3507C51.7751 27.0388 52.0078 26.309 52.1141 25.9551C52.2259 25.6011 52.3249 25.2034 52.0078 24.8914C51.6908 24.5831 51.0309 23.9409 50.8825 23.4976Z" fill="url(#paint6_linear_4142_36521)"/>
<defs>
<linearGradient id="paint0_linear_4142_36521" x1="4.22482e-05" y1="2.21424" x2="27.9512" y2="24.4467" gradientUnits="userSpaceOnUse">
<stop stop-color="#FF8E3D"/>
<stop offset="1" stop-color="#FF6F3D"/>
</linearGradient>
<linearGradient id="paint1_linear_4142_36521" x1="17.8279" y1="0.594199" x2="25.3963" y2="7.56484" gradientUnits="userSpaceOnUse">
<stop stop-color="#FF8E3D"/>
<stop offset="1" stop-color="#FF6F3D"/>
</linearGradient>
<linearGradient id="paint2_linear_4142_36521" x1="24.3969" y1="-1.05656" x2="50.6055" y2="32.7761" gradientUnits="userSpaceOnUse">
<stop stop-color="#FF8E3D"/>
<stop offset="1" stop-color="#FF6F3D"/>
</linearGradient>
<linearGradient id="paint3_linear_4142_36521" x1="48.2752" y1="11.4682" x2="51.7824" y2="13.9569" gradientUnits="userSpaceOnUse">
<stop stop-color="#FF8E3D"/>
<stop offset="1" stop-color="#FF6F3D"/>
</linearGradient>
<linearGradient id="paint4_linear_4142_36521" x1="42.5663" y1="19.5689" x2="44.5846" y2="23.5763" gradientUnits="userSpaceOnUse">
<stop stop-color="#FF8E3D"/>
<stop offset="1" stop-color="#FF6F3D"/>
</linearGradient>
<linearGradient id="paint5_linear_4142_36521" x1="48.6624" y1="20.7966" x2="49.9773" y2="23.3341" gradientUnits="userSpaceOnUse">
<stop stop-color="#FF8E3D"/>
<stop offset="1" stop-color="#FF6F3D"/>
</linearGradient>
<linearGradient id="paint6_linear_4142_36521" x1="45.5711" y1="22.3219" x2="50.7039" y2="29.0038" gradientUnits="userSpaceOnUse">
<stop stop-color="#FF8E3D"/>
<stop offset="1" stop-color="#FF6F3D"/>
</linearGradient>
</defs>
</svg>
