<svg width="448" height="254" viewBox="0 0 448 254" fill="none" xmlns="http://www.w3.org/2000/svg">
<path d="M372.5 253C414.197 253 448 250.761 448 248C448 245.239 414.197 243 372.5 243C330.803 243 297 245.239 297 248C297 250.761 330.803 253 372.5 253Z" fill="#EFEFEF"/>
<rect x="0.5" y="4.5" width="287" height="216" rx="3.5" fill="white"/>
<rect x="0.5" y="4.5" width="287" height="216" rx="3.5" stroke="#333333"/>
<rect x="13.5" y="72.5" width="78" height="45" rx="3.5" fill="#D9F4FF" stroke="#9ADAF3"/>
<rect x="104.5" y="72.5" width="78" height="45" rx="3.5" fill="url(#paint0_linear_16_14058)" stroke="#444444"/>
<rect x="195.5" y="72.5" width="78" height="45" rx="3.5" fill="#D9F4FF" stroke="#9ADAF3"/>
<rect x="13.5" y="130.5" width="78" height="45" rx="3.5" fill="#D9F4FF" stroke="#9ADAF3"/>
<rect x="104.5" y="130.5" width="78" height="45" rx="3.5" fill="#D9F4FF" stroke="#9ADAF3"/>
<rect x="195.5" y="130.5" width="78" height="45" rx="3.5" fill="#D9F4FF" stroke="#9ADAF3"/>
<path fill-rule="evenodd" clip-rule="evenodd" d="M68.1327 51.2059L57.6685 46.2649C56.7772 45.8335 56.7772 45.1669 57.6685 44.7747L61.3116 43.0493L68.0939 46.2649C68.9853 46.6963 70.4193 46.6963 71.2719 46.2649L78.0542 43.0493L81.6973 44.7747C82.5887 45.2061 82.5887 45.8727 81.6973 46.2649L71.2332 51.2059C70.4193 51.598 68.9853 51.598 68.1327 51.2059Z" fill="#FF6F3D"/>
<path fill-rule="evenodd" clip-rule="evenodd" d="M68.0988 45.0916L57.6665 40.1449C56.7778 39.713 56.7778 39.0456 57.6665 38.653L61.2212 36.9648L68.0988 40.2234C68.9874 40.6553 70.4171 40.6553 71.2671 40.2234L78.1447 36.9648L81.6993 38.653C82.588 39.0849 82.588 39.7523 81.6993 40.1449L71.2671 45.0916C70.3784 45.5235 68.9488 45.5235 68.0988 45.0916Z" fill="#95C038"/>
<path fill-rule="evenodd" clip-rule="evenodd" d="M68.0988 39.0408L57.6665 34.1652C56.7778 33.7396 56.7778 33.0817 57.6665 32.6948L68.0988 27.8192C68.9874 27.3936 70.4171 27.3936 71.2671 27.8192L81.6993 32.6948C82.588 33.1204 82.588 33.7783 81.6993 34.1652L71.2671 39.0408C70.3784 39.4277 68.9488 39.4277 68.0988 39.0408Z" fill="#5DC0E8"/>
<path d="M94.6928 33.3667C91.6737 33.3667 88.707 35.1484 88.707 39.5C88.707 43.8516 91.6737 45.6334 94.6928 45.6334C97.7118 45.6334 100.678 43.8516 100.678 39.5C100.678 35.1484 97.7118 33.3667 94.6928 33.3667ZM94.6928 35.0799C95.6177 35.0799 98.0608 35.4397 98.0608 39.5C98.0608 43.5604 95.6177 43.9201 94.6928 43.9201C93.7679 43.9201 91.3247 43.5604 91.3247 39.5C91.3247 35.4397 93.7679 35.0799 94.6928 35.0799Z" fill="#333333"/>
<path d="M102.692 33.5038V45.4963H105.17V38.4378L105.117 36.3134H105.17L105.781 37.6497L110.039 45.4963H113.25V33.5038H110.772V40.5622L110.824 42.6866H110.772L110.126 41.0591L105.903 33.5038H102.692Z" fill="#333333"/>
<path d="M115.695 33.5038V45.4963H123.024V43.4747H118.173V33.5038H115.695Z" fill="#333333"/>
<path d="M120.93 33.5038L125.433 40.5965V45.4963H127.911V40.6308L132.308 33.5038H129.691L127.16 37.7183L126.741 38.5406H126.689L126.305 37.7183L123.792 33.5038H120.93Z" fill="#333333"/>
<path d="M138.082 33.3667C135.063 33.3667 132.096 35.1484 132.096 39.5C132.096 43.8516 135.063 45.6334 138.082 45.6334C141.101 45.6334 144.068 43.8516 144.068 39.5C144.068 35.1484 141.101 33.3667 138.082 33.3667ZM138.082 35.0799C139.007 35.0799 141.45 35.4397 141.45 39.5C141.45 43.5604 139.007 43.9201 138.082 43.9201C137.157 43.9201 134.714 43.5604 134.714 39.5C134.714 35.4397 137.157 35.0799 138.082 35.0799Z" fill="#333333"/>
<path d="M146.081 33.5038V45.4963H148.559V40.408H152.712V38.4378H148.559V35.5254H152.922V33.5038H146.081Z" fill="#333333"/>
<path d="M154.67 33.5038V45.4963H157.148V40.408H161.302V38.4378H157.148V35.5254H161.511V33.5038H154.67Z" fill="#333333"/>
<path d="M163.259 45.4963H165.737V33.5038H163.259V45.4963Z" fill="#333333"/>
<path d="M177.102 43.0807C176.491 43.3548 175.636 43.6118 174.554 43.6118C172.355 43.6118 170.366 42.4296 170.366 39.5343C170.366 37.0844 171.989 35.3883 174.729 35.3883C175.654 35.3883 176.439 35.5596 177.154 35.8337L177.259 33.7779C176.334 33.4866 175.514 33.3667 174.554 33.3667C170.715 33.3667 167.748 35.4397 167.748 39.5686C167.748 43.9373 171.064 45.6334 174.1 45.6334C175.078 45.6334 176.177 45.4792 177.259 45.1194L177.102 43.0807Z" fill="#333333"/>
<path d="M179.177 33.5038V45.4963H186.471V43.3719H181.655V40.3052H186.035V38.335H181.655V35.6281H186.471V33.5038H179.177Z" fill="#333333"/>
<path d="M202.355 39.8159C202.355 41.8192 201.81 43.3521 200.72 44.4146C199.636 45.4715 198.072 46 196.03 46H192.668V33.8643H196.387C198.274 33.8643 199.741 34.3872 200.787 35.4331C201.833 36.479 202.355 37.9399 202.355 39.8159ZM200.861 39.8657C200.861 38.283 200.463 37.0905 199.666 36.2881C198.875 35.4857 197.696 35.0845 196.13 35.0845H194.08V44.7798H195.798C197.48 44.7798 198.745 44.3675 199.591 43.543C200.438 42.7129 200.861 41.4871 200.861 39.8657ZM212.545 41.4429C212.545 42.9259 212.171 44.0853 211.424 44.9209C210.677 45.751 209.645 46.166 208.328 46.166C207.515 46.166 206.792 45.9751 206.162 45.5933C205.531 45.2114 205.044 44.6636 204.701 43.9497C204.358 43.2358 204.186 42.4002 204.186 41.4429C204.186 39.9598 204.557 38.806 205.298 37.9814C206.04 37.1514 207.069 36.7363 208.386 36.7363C209.659 36.7363 210.669 37.1597 211.416 38.0063C212.169 38.853 212.545 39.9985 212.545 41.4429ZM205.614 41.4429C205.614 42.605 205.846 43.4904 206.311 44.0991C206.776 44.7078 207.459 45.0122 208.361 45.0122C209.263 45.0122 209.947 44.7106 210.412 44.1074C210.882 43.4987 211.117 42.6105 211.117 41.4429C211.117 40.2863 210.882 39.4092 210.412 38.8115C209.947 38.2083 209.258 37.9067 208.345 37.9067C207.443 37.9067 206.762 38.2028 206.303 38.7949C205.843 39.387 205.614 40.2697 205.614 41.4429ZM218.434 46.166C217.117 46.166 216.096 45.762 215.371 44.9541C214.652 44.1406 214.292 42.9924 214.292 41.5093C214.292 39.9875 214.658 38.8115 215.388 37.9814C216.124 37.1514 217.17 36.7363 218.526 36.7363C218.963 36.7363 219.4 36.7834 219.837 36.8774C220.274 36.9715 220.618 37.0822 220.867 37.2095L220.443 38.3799C220.139 38.2581 219.807 38.1585 219.447 38.0811C219.087 37.998 218.769 37.9565 218.493 37.9565C216.644 37.9565 215.72 39.1353 215.72 41.4927C215.72 42.6105 215.944 43.4683 216.392 44.0659C216.846 44.6636 217.516 44.9624 218.401 44.9624C219.159 44.9624 219.937 44.7992 220.734 44.4727V45.6929C220.125 46.0083 219.359 46.166 218.434 46.166ZM228.599 43.5181C228.599 44.3647 228.283 45.0177 227.653 45.4771C227.022 45.9364 226.136 46.166 224.996 46.166C223.79 46.166 222.849 45.9751 222.174 45.5933V44.3149C222.611 44.5363 223.079 44.7106 223.577 44.8379C224.08 44.9652 224.565 45.0288 225.03 45.0288C225.749 45.0288 226.302 44.9154 226.69 44.6885C227.077 44.4561 227.271 44.1047 227.271 43.6343C227.271 43.2801 227.116 42.9785 226.806 42.7295C226.502 42.4749 225.904 42.1761 225.013 41.833C224.166 41.5176 223.563 41.2437 223.203 41.0112C222.849 40.7733 222.584 40.5049 222.407 40.2061C222.235 39.9072 222.149 39.5503 222.149 39.1353C222.149 38.3937 222.451 37.8099 223.054 37.3838C223.657 36.9521 224.484 36.7363 225.536 36.7363C226.515 36.7363 227.473 36.9355 228.408 37.334L227.918 38.4546C227.005 38.0783 226.178 37.8901 225.436 37.8901C224.783 37.8901 224.291 37.9925 223.959 38.1973C223.627 38.402 223.461 38.6842 223.461 39.0439C223.461 39.2874 223.522 39.495 223.643 39.6665C223.771 39.8381 223.973 40.0013 224.249 40.1562C224.526 40.3112 225.057 40.5353 225.843 40.8286C226.922 41.2215 227.65 41.6172 228.026 42.0156C228.408 42.4141 228.599 42.9149 228.599 43.5181Z" fill="#333333"/>
<path d="M131.88 94.1303L132.231 93.7786L131.88 94.1303L138.873 101.121C138.98 101.228 139.107 101.328 139.266 101.399C139.427 101.47 139.595 101.5 139.77 101.5C140.049 101.5 140.412 101.376 140.668 101.121L155.12 86.674C155.627 86.1681 155.627 85.3853 155.12 84.8794L154.767 85.233L155.12 84.8794C154.614 84.3735 153.832 84.3735 153.326 84.8794L139.77 98.429L133.674 92.3357C133.168 91.8299 132.386 91.8299 131.88 92.3357C131.373 92.8417 131.373 93.6244 131.88 94.1303Z" fill="white" stroke="white"/>
<path d="M331.432 35.946C330.322 33.9409 329.173 28.527 329.609 26.2812C330.045 24.0355 331.313 21.9501 333.096 20.5465C333.373 19.7445 333.215 18.8221 333.294 17.9398C333.373 17.0576 333.888 16.0951 334.76 16.055C335.315 16.0149 335.79 16.4159 336.068 16.8972C336.345 17.3784 336.424 17.9398 336.503 18.4612C337.098 22.6319 337.177 27.7249 336.781 31.9357L331.432 35.946Z" fill="white"/>
<path d="M331.432 36.4269C331.392 36.4269 331.353 36.4269 331.313 36.4269C331.155 36.3868 331.036 36.3066 330.996 36.1863C329.808 34.0608 328.659 28.5266 329.094 26.1605C329.57 23.8346 330.838 21.7091 332.66 20.2253C332.779 19.8243 332.779 19.3431 332.779 18.8618C332.779 18.541 332.779 18.2202 332.819 17.8994C332.898 16.7765 333.611 15.6135 334.721 15.5333C335.394 15.4932 336.107 15.9343 336.504 16.6161C336.821 17.1374 336.939 17.7389 337.019 18.3806C337.613 22.3909 337.692 27.4839 337.296 31.9755C337.296 32.1359 337.217 32.2562 337.098 32.3364L331.749 36.3467C331.63 36.3868 331.551 36.4269 331.432 36.4269ZM334.8 16.5359C334.76 16.5359 334.8 16.5359 334.8 16.5359C334.245 16.576 333.849 17.2978 333.809 17.9796C333.77 18.2603 333.77 18.541 333.809 18.8618C333.809 19.4634 333.809 20.105 333.611 20.7066C333.572 20.7868 333.532 20.867 333.453 20.9472C331.749 22.2706 330.56 24.2757 330.125 26.4012C329.728 28.3261 330.679 33.0181 331.63 35.2238L336.305 31.6947C336.702 27.3235 336.583 22.431 336.028 18.5811C335.949 18.0598 335.87 17.5785 335.632 17.1775C335.473 16.8166 335.156 16.5359 334.8 16.5359Z" fill="#333333"/>
<path d="M330.996 34.4621C330.996 34.4621 331.036 61.9326 334.087 71.7578C335.077 74.966 363.803 56.9598 363.803 56.9598L373.827 44.2472C373.827 44.2472 368.993 44.3675 363.803 46.0518C358.612 47.7362 338.881 62.2534 338.881 62.2534C338.881 62.2534 335.87 40.2369 336.9 30.4919" fill="white"/>
<path d="M334.721 72.6396C334.522 72.6396 334.324 72.5995 334.166 72.5594C333.77 72.399 333.611 72.1183 333.532 71.9178C330.521 62.1327 330.441 35.5847 330.441 34.4618C330.441 34.1811 330.679 33.9404 330.917 33.9404C331.194 33.9404 331.392 34.1811 331.432 34.4217C331.432 34.7024 331.511 61.9322 334.483 71.5569C334.681 71.7173 336.424 72.1985 349.618 64.6993C356.235 60.9697 362.654 56.9594 363.367 56.5183L372.678 44.7281C370.974 44.8484 367.487 45.2895 363.882 46.4525C358.81 48.0967 339.317 62.4535 339.119 62.6139C338.96 62.7342 338.802 62.7342 338.643 62.654C338.485 62.5738 338.366 62.4535 338.366 62.253C338.326 62.0124 335.394 40.0361 336.345 30.3713C336.385 30.0906 336.622 29.8901 336.9 29.9302C337.177 29.9703 337.375 30.2109 337.336 30.4916C336.464 38.9934 338.683 57.2001 339.237 61.2905C342.803 58.6839 358.85 47.0139 363.605 45.49C368.835 43.8057 373.589 43.6453 373.787 43.6453C373.985 43.6453 374.144 43.7656 374.263 43.926C374.342 44.0864 374.342 44.3271 374.223 44.4474L364.199 57.16C364.159 57.2001 364.12 57.2402 364.08 57.2803C361.465 59.0047 339.594 72.6396 334.721 72.6396Z" fill="#333333"/>
<path d="M400.89 49.5008C395.422 45.3301 372.758 43.6057 367.33 44.3677C361.585 45.1697 344.469 57.6818 343.914 58.2833C349.303 61.0504 348.748 68.2289 349.065 68.1085C351.997 67.0659 361.902 62.6546 361.902 62.6546C361.149 67.1461 359.089 72.961 363.051 76.8109C363.963 77.6931 365.389 96.6618 365.666 103.319H396.729C396.729 95.3384 394.194 85.1122 399.146 69.5121C399.503 72.0386 399.622 76.5702 400.058 79.2571C403.465 77.1317 407.942 76.6906 411.191 77.0916C409.012 62.9754 406.952 54.0725 400.89 49.5008Z" fill="white"/>
<path d="M396.729 104H365.665C365.348 104 365.071 103.759 365.071 103.439C364.714 95.8592 363.328 78.7352 362.575 77.2915C359.009 73.8026 360.039 68.7897 360.871 64.7794C360.95 64.4185 361.03 64.0977 361.069 63.7368C358.454 64.8997 351.6 67.8673 349.222 68.7496C349.064 68.8298 348.826 68.7897 348.707 68.6694C348.43 68.4689 348.39 68.1882 348.311 67.4663C348.113 65.6617 347.638 60.8895 343.636 58.8442C343.477 58.764 343.359 58.6036 343.319 58.4031C343.279 58.2026 343.359 58.0421 343.477 57.8817C343.992 57.3203 361.149 44.6478 367.25 43.7655C372.361 43.0437 395.5 44.6478 401.245 49.019C407.743 53.9517 409.724 63.7367 411.824 77.0509C411.864 77.2514 411.785 77.4118 411.666 77.5722C411.547 77.6926 411.349 77.7728 411.151 77.7327C408.14 77.3717 403.742 77.7326 400.374 79.818C400.215 79.9383 399.978 79.9383 399.819 79.8581C399.621 79.7779 399.502 79.6175 399.462 79.417C399.225 77.8931 399.066 75.8478 398.908 73.8427C398.868 73.4416 398.868 73.0807 398.829 72.6797C396.015 83.0663 396.57 90.9265 397.006 97.343C397.164 99.4684 397.283 101.474 397.283 103.318C397.283 103.479 397.204 103.639 397.125 103.759C397.046 103.88 396.887 104 396.729 104ZM366.22 102.757H396.134C396.095 101.113 395.976 99.308 395.857 97.4633C395.381 90.3249 394.748 81.5023 398.591 69.3913C398.67 69.1105 398.947 68.9501 399.225 68.9902C399.502 69.0303 399.74 69.2308 399.779 69.5116C399.938 70.6746 400.057 72.1584 400.176 73.7625C400.295 75.3666 400.413 77.0108 400.572 78.3342C403.781 76.6098 407.624 76.2087 410.556 76.4494C408.258 61.892 406.119 54.1522 400.572 49.9414C395.381 46.0113 373.035 44.1265 367.448 44.9285C362.535 45.6103 348.232 55.6761 344.983 58.1625C348.826 60.6889 349.341 65.4211 349.539 67.2658C352.987 65.9424 361.584 62.1326 361.664 62.0925C361.862 62.0123 362.099 62.0524 362.258 62.1727C362.416 62.2931 362.496 62.5337 362.496 62.7342C362.377 63.4159 362.218 64.1378 362.06 64.8997C361.267 68.8298 360.356 73.3213 363.486 76.3692C364.714 77.6524 366.022 98.9872 366.22 102.757Z" fill="#333333"/>
<path d="M361.861 66.3034C362.099 63.9774 363.604 61.9321 363.485 59.6062C363.446 59.165 362.891 59.0046 362.653 59.3656C361.346 61.3707 360.514 63.8972 360.751 66.3034C360.831 67.0252 361.782 67.0252 361.861 66.3034Z" fill="#333333"/>
<path d="M391.182 43.2047C400.493 45.0495 404.97 44.9692 404.97 44.9692C404.97 44.9692 409.645 34.8633 405.762 22.5517C400.929 7.35275 383.139 2.86122 375.056 7.03192C372.599 8.27511 367.845 14.1702 365.784 22.8726C363.724 31.5749 365.071 40.3975 365.071 40.3975C365.071 40.3975 381.316 41.2397 391.182 43.2047Z" fill="url(#paint1_linear_16_14058)"/>
<path d="M404.851 45.6103C404.059 45.6103 399.581 45.5301 391.063 43.8057C381.316 41.8406 365.19 41.0386 365.031 41.0386C364.754 41.0386 364.516 40.7979 364.477 40.5172C364.437 40.1563 363.169 31.4941 365.19 22.7918C367.25 14.0093 372.124 7.91365 374.739 6.55016C379.097 4.3044 385.872 4.50492 391.974 7.1116C398.987 10.0792 404.059 15.4931 406.238 22.4309C410.16 34.8226 405.643 44.8483 405.445 45.2895C405.366 45.49 405.128 45.6504 404.93 45.6504C404.97 45.6103 404.93 45.6103 404.851 45.6103ZM391.3 42.6026C398.908 44.1265 403.306 44.327 404.574 44.3671C405.326 42.4823 408.536 33.419 405.168 22.7517C402.355 13.8489 395.421 9.79849 391.578 8.15427C385.753 5.708 379.374 5.46738 375.333 7.55273C373.233 8.6355 368.439 14.29 366.379 22.9923C364.675 30.3311 365.388 37.8303 365.626 39.7954C368.399 40.036 382.465 40.838 391.3 42.6026Z" fill="#333333"/>
<path d="M385.357 45.2497L386.625 33.6199L376.641 34.061L377.275 44.8086C376.007 45.6507 375.175 46.934 375.096 48.3777C375.016 51.0646 377.592 53.3505 380.92 53.4307C384.248 53.5109 386.982 51.4656 387.061 48.7787C387.14 47.4553 386.467 46.1721 385.357 45.2497Z" fill="white"/>
<path d="M381.197 53.9917C381.118 53.9917 381.038 53.9917 380.92 53.9917C377.354 53.8714 374.541 51.345 374.62 48.4175C374.659 46.9337 375.452 45.5702 376.759 44.6077L376.125 34.1409C376.125 34.0206 376.165 33.8602 376.244 33.78C376.324 33.6998 376.442 33.6196 376.601 33.6196L386.585 33.1785C386.744 33.1785 386.863 33.2186 386.982 33.3389C387.061 33.4592 387.14 33.5795 387.101 33.7399L385.833 45.089C386.942 46.1316 387.536 47.455 387.497 48.8586C387.457 51.7059 384.644 53.9917 381.197 53.9917ZM377.195 34.5821L377.79 44.8082C377.79 44.9686 377.71 45.1692 377.552 45.2494C376.363 46.0514 375.65 47.2144 375.61 48.4175C375.531 50.8236 377.908 52.8689 380.959 52.9491C381.038 52.9491 381.118 52.9491 381.197 52.9491C384.129 52.9491 386.506 51.1044 386.585 48.7784C386.625 47.6154 386.07 46.4926 385.08 45.6103C384.961 45.49 384.882 45.3296 384.921 45.1692L386.15 34.1409L377.195 34.5821Z" fill="#333333"/>
<path d="M393.282 29.5297C394.312 24.3564 392.291 19.0629 387.854 16.6166C382.267 13.4886 375.531 13.4886 372.124 19.7045C368.756 25.9204 370.024 36.0264 375.611 39.1544C380.999 42.1621 387.933 39.9163 391.459 34.1816C391.697 34.2618 391.935 34.3019 392.172 34.342C393.52 34.3821 394.669 33.2994 394.708 31.9359C394.748 30.813 394.153 29.9307 393.282 29.5297Z" fill="white"/>
<path d="M380.762 40.9584C378.899 40.9584 377.077 40.5172 375.373 39.5548C369.351 36.1861 368.32 25.6792 371.688 19.4231C373.352 16.3753 375.888 14.5707 379.097 14.1296C381.871 13.7686 385.08 14.4504 388.092 16.1347C392.489 18.581 394.788 23.8344 393.837 29.2483C394.708 29.8098 395.263 30.8123 395.223 31.8951C395.184 32.6972 394.867 33.4591 394.272 33.9805C393.678 34.5419 392.925 34.8226 392.133 34.7825C391.974 34.7825 391.816 34.7424 391.657 34.7023C389.082 38.7126 384.882 40.9584 380.762 40.9584ZM380.603 15.0118C380.128 15.0118 379.692 15.0519 379.216 15.092C376.364 15.4931 374.026 17.1373 372.56 19.8643C369.43 25.599 370.381 35.5846 375.848 38.6324C380.96 41.4797 387.616 39.3543 391.023 33.8201C391.142 33.6195 391.38 33.5393 391.618 33.6195C391.816 33.6998 392.014 33.7399 392.173 33.7399C392.688 33.7399 393.203 33.5794 393.599 33.2185C393.995 32.8576 394.193 32.3764 394.233 31.8149C394.272 31.0129 393.797 30.2509 393.084 29.9301C392.886 29.8499 392.767 29.6093 392.806 29.3686C393.837 24.2355 391.737 19.2627 387.616 16.9769C385.278 15.7337 382.822 15.0118 380.603 15.0118Z" fill="#333333"/>
<path d="M383.654 26.04C383.813 24.9172 383.337 23.9949 382.465 23.273C381.673 22.6314 380.524 22.3908 379.771 23.2329C379.137 23.9548 379.454 25.1177 380.286 25.5588C381.197 26.04 382.386 25.3583 382.426 24.3558C382.465 23.8344 381.792 23.5938 381.435 23.9147C381.356 23.9949 381.237 24.1954 381.118 24.2355C381.118 24.2355 380.841 24.3558 380.92 24.1954C380.92 24.1553 381.395 24.3157 381.514 24.3959C381.831 24.5964 382.069 24.9172 382.267 25.1979C382.505 25.5187 382.782 25.7994 383.02 26.1603C383.218 26.5213 383.614 26.3609 383.654 26.04Z" fill="#333333"/>
<path d="M376.561 24.3559C376.601 23.9147 376.561 23.4736 376.323 23.0726C376.086 22.6716 375.689 22.3507 375.333 22.07C374.58 21.5487 373.431 21.4685 372.876 22.3106C372.361 23.0726 372.718 24.1152 373.589 24.396C374.382 24.6767 375.531 24.035 375.412 23.1127C375.333 22.6315 374.778 22.2705 374.382 22.6716C374.303 22.7518 374.104 22.9523 374.104 23.0325C374.025 23.3934 374.065 23.0726 374.263 23.1929C374.382 23.2731 374.54 23.3132 374.659 23.3934C374.897 23.5538 375.095 23.7543 375.293 23.9548C375.491 24.1553 375.769 24.3158 375.967 24.5564C376.205 24.8371 376.561 24.6767 376.561 24.3559Z" fill="#333333"/>
<path d="M375.57 27.1229C375.253 27.524 375.015 27.8849 374.778 28.326C374.58 28.6468 374.302 29.1682 374.263 29.5291C374.223 30.3312 375.689 30.3312 376.204 30.2109C376.402 30.1708 376.402 29.9301 376.244 29.8499C376.006 29.6895 375.808 29.5692 375.491 29.5291C375.332 29.489 375.055 29.489 374.936 29.4088C374.936 29.4489 374.936 29.489 374.936 29.5291C374.936 29.4489 374.976 29.3286 375.015 29.2484C375.174 28.5666 375.451 27.925 375.808 27.2833C375.887 27.163 375.689 26.9625 375.57 27.1229Z" fill="#333333"/>
<path d="M375.729 33.259C376.363 34.2616 377.909 34.4622 378.978 34.4221C380.088 34.382 381.673 33.5799 381.356 32.2564C381.316 32.0559 380.999 31.9757 380.88 32.1361C380.167 32.858 379.771 33.4997 378.701 33.4997C377.948 33.4997 376.799 33.5398 376.244 32.8981C376.007 32.6575 375.571 32.9783 375.729 33.259Z" fill="#333333"/>
<path d="M377.71 10.3601C373.827 12.4856 372.876 15.373 373.035 15.2125C373.392 14.8516 377.908 13.4079 384.01 21.228C385.952 23.7544 392.132 30.8927 396.847 28.647L392.766 17.8192L384.525 12.8465L377.71 10.3601Z" fill="url(#paint2_linear_16_14058)"/>
<path d="M371.965 15.493C373.55 15.7336 375.174 15.3326 376.759 15.854C378.463 16.4154 379.77 17.7789 381.038 18.982C383.098 20.947 384.96 23.0725 386.942 25.1177C389.675 27.9249 394.826 32.4565 397.996 27.8447C398.115 27.6843 397.877 27.4838 397.758 27.6041C396.015 28.9275 394.549 29.2483 392.449 28.1254C391.221 27.4838 390.111 26.6015 389.081 25.6791C387.14 23.9146 385.436 21.8694 383.574 20.0246C380.602 17.057 376.482 12.8061 371.965 15.3326C371.846 15.3326 371.885 15.493 371.965 15.493Z" fill="#333333"/>
<path d="M384.049 83.227L371.608 84.0692C370.38 84.1494 369.231 83.3474 368.914 82.1042L365.031 66.7448C364.635 65.2209 365.625 63.7371 367.17 63.4964L380.008 61.6116C381.355 61.4111 382.623 62.2933 382.9 63.6568L386.387 80.0589C386.743 81.6229 385.594 83.1067 384.049 83.227Z" fill="#D9F4FF"/>
<path d="M371.411 84.7104C369.984 84.7104 368.677 83.7078 368.32 82.3042L364.437 66.9448C364.199 66.0625 364.358 65.1402 364.873 64.3782C365.388 63.6163 366.181 63.0949 367.052 62.9746L379.89 61.0898C381.554 60.8492 383.099 61.9319 383.455 63.6163L386.942 80.0183C387.14 80.9407 386.942 81.9032 386.387 82.625C385.833 83.387 385.001 83.8281 384.05 83.9083L371.609 84.7505C371.569 84.7104 371.49 84.7104 371.411 84.7104ZM380.365 62.2126C380.286 62.2126 380.167 62.2127 380.088 62.2528L367.25 64.1376C366.696 64.2178 366.181 64.5386 365.864 65.0199C365.547 65.5011 365.467 66.0625 365.586 66.624L369.469 81.9834C369.707 82.9459 370.578 83.5474 371.529 83.5073L383.971 82.6651C384.565 82.625 385.08 82.3443 385.437 81.8631C385.793 81.3818 385.912 80.7803 385.793 80.2189L382.306 63.8168C382.148 62.8543 381.316 62.2126 380.365 62.2126Z" fill="#333333"/>
<path d="M409.208 77.733C409.208 77.733 407.901 76.57 405.207 77.1314C401.958 77.7731 401.284 79.0162 401.284 79.0162L403.028 88.4404C403.028 88.4404 389.002 75.6476 388.843 74.645C388.645 73.1211 385.634 69.1108 385.198 69.5921C384.366 70.4342 384.564 72.5998 382.9 73.482C380.958 74.4846 377.115 75.2867 377.868 76.8106C378.66 78.535 381.275 80.2995 383.138 80.0188C384.683 79.8183 384.485 80.0589 385.832 79.2168C387.654 81.8234 400.096 99.188 406.197 99.188C411.229 99.1479 409.208 77.733 409.208 77.733Z" fill="white"/>
<path d="M406.198 99.6288C400.334 99.6288 389.359 84.9512 385.713 79.818C384.961 80.2591 384.723 80.2992 384.089 80.3393C383.891 80.3393 383.613 80.3794 383.217 80.4195C381.078 80.7002 378.304 78.7352 377.432 76.9306C377.274 76.5697 377.234 76.2087 377.393 75.8478C377.789 74.8853 379.295 74.2838 380.919 73.6822C381.593 73.4416 382.227 73.1609 382.742 72.9203C383.574 72.4792 383.851 71.5969 384.129 70.7547C384.327 70.1532 384.525 69.5516 384.921 69.1506C385.079 68.9902 385.357 68.91 385.595 68.9902C386.625 69.3511 389.121 72.9604 389.398 74.4442C389.913 75.4067 397.164 82.2643 402.315 86.9964L400.849 79.056C400.809 78.9357 400.849 78.8154 400.888 78.7352C400.968 78.5748 401.76 77.2915 405.128 76.6098C408.06 76.0082 409.486 77.2915 409.565 77.3316C409.645 77.4118 409.724 77.5321 409.724 77.6524C409.803 78.3743 411.348 95.0571 407.981 98.7867C407.426 99.3481 406.871 99.6288 406.198 99.6288ZM385.832 78.655C385.991 78.655 386.149 78.7352 386.228 78.8555C392.687 87.9589 401.76 98.6262 406.198 98.6262C406.554 98.6262 406.911 98.4658 407.188 98.1049C409.684 95.2977 409.169 82.8257 408.694 77.9733C408.298 77.7326 407.188 77.1712 405.247 77.5722C402.949 78.0535 402.037 78.8154 401.76 79.0961L403.464 88.2797C403.503 88.4802 403.424 88.7208 403.226 88.801C403.028 88.9213 402.83 88.8812 402.671 88.7208C397.402 83.9085 388.487 75.6473 388.328 74.6046C388.17 73.4416 386.149 70.6745 385.357 70.0329C385.198 70.2735 385.079 70.6745 384.961 71.0354C384.644 71.9979 384.287 73.1609 383.059 73.7624C382.504 74.0432 381.87 74.2838 381.157 74.5645C380.008 75.0056 378.423 75.6072 378.225 76.1686C378.185 76.2488 378.185 76.2889 378.265 76.4092C378.978 77.893 381.355 79.5774 383.019 79.3368C383.415 79.2967 383.693 79.2565 383.93 79.2565C384.525 79.2164 384.604 79.2164 385.515 78.6149C385.674 78.6951 385.753 78.655 385.832 78.655Z" fill="#333333"/>
<path d="M401.602 87.3974C402.038 88.0792 402.672 88.6406 403.306 89.162C403.702 89.4828 404.534 90.3651 405.129 90.0844C405.208 90.0443 405.247 89.9641 405.247 89.8838C405.168 89.3224 404.296 88.8412 403.9 88.5604C403.266 88.0792 402.632 87.638 402.038 87.1167C401.76 86.9162 401.443 87.1568 401.602 87.3974Z" fill="#333333"/>
<path fill-rule="evenodd" clip-rule="evenodd" d="M396.13 98.8595C397.208 103.043 400.132 108.287 401.267 114.56C402.925 123.714 404.171 134.818 405.302 146.892C405.585 149.922 405.187 153.054 405.575 156.185C409.879 181.054 412.654 209.069 412.615 232.799C411.824 233.318 410.67 233.615 409.515 233.654C408.374 233.688 407.267 233.462 406.563 232.929C405.571 228.462 401.579 209.265 396.216 187.005C391.688 168.216 385.745 147.809 382.621 133.497L381.37 128.094C381.294 141.537 380.532 155.652 380.038 164.811C379.889 167.568 379.765 169.878 379.688 171.631C379.683 171.751 379.688 172.203 379.698 172.952C379.77 179.474 380.1 209.381 376.195 233.683C375.275 234.249 374.354 234.418 373.516 234.355C372.37 234.269 371.374 233.76 370.717 233.26C370.64 226.234 370.444 216.138 369.888 205.375C369.313 194.372 368.359 182.639 366.768 172.692C366.639 171.886 362.446 154.605 362.307 132.575C362.24 121.567 362.963 106.347 365.959 96.3477C370.252 98.7442 375.136 100.954 379.774 101.189C385.587 101.482 391.324 100.42 396.13 98.8595Z" fill="#D9F4FF"/>
<path fill-rule="evenodd" clip-rule="evenodd" d="M396.183 98.845C396.609 100.492 397.319 102.308 398.095 104.282C399.288 107.322 400.63 110.746 401.32 114.545C402.149 119.122 402.873 124.189 403.534 129.621C404.195 135.048 404.79 140.84 405.355 146.882C405.489 148.294 405.47 149.721 405.456 151.166C405.437 152.828 405.422 154.504 405.628 156.176C407.828 168.903 409.63 182.452 410.861 195.832C412.035 208.598 412.687 221.21 412.668 232.799V232.828L412.644 232.842C412.251 233.102 411.767 233.303 411.24 233.452C410.698 233.601 410.109 233.687 409.52 233.707C408.925 233.726 408.341 233.673 407.814 233.543C407.32 233.423 406.879 233.236 406.534 232.972L406.52 232.962L406.515 232.943C406.328 232.098 406.036 230.743 405.652 228.952C403.98 221.167 400.525 205.101 396.169 187.024C394.132 178.561 391.798 169.758 389.57 161.334C386.853 151.075 384.289 141.378 382.568 133.516L381.418 128.541C381.327 141.844 380.58 155.753 380.091 164.806L380.076 165.056C379.933 167.712 379.813 169.936 379.741 171.641C379.736 171.756 379.741 172.188 379.751 172.904V172.956C379.822 179.483 380.153 209.39 376.247 233.692L376.243 233.716L376.224 233.731C375.783 234.004 375.342 234.187 374.91 234.293C374.431 234.413 373.962 234.441 373.516 234.408C372.994 234.369 372.5 234.24 372.054 234.067C371.518 233.856 371.053 233.577 370.689 233.303L370.669 233.289V233.265C370.631 229.754 370.564 225.47 370.435 220.725C370.305 215.98 370.118 210.764 369.836 205.385C369.548 199.881 369.169 194.199 368.657 188.647C368.149 183.095 367.511 177.678 366.716 172.707C366.706 172.635 366.658 172.428 366.586 172.092C365.858 168.73 362.379 152.622 362.254 132.58C362.216 126.403 362.427 118.897 363.15 111.731C363.716 106.126 364.593 100.728 365.906 96.3332L365.925 96.2708L365.983 96.3044C368.13 97.5003 370.42 98.6529 372.754 99.5318C375.088 100.411 377.465 101.021 379.775 101.141C382.501 101.28 385.214 101.122 387.821 100.747C390.758 100.329 393.566 99.6423 396.111 98.8162L396.164 98.797L396.183 98.845ZM397.994 104.32C397.228 102.361 396.518 100.564 396.092 98.9267C393.557 99.748 390.763 100.43 387.835 100.848C385.223 101.218 382.506 101.381 379.77 101.242C377.446 101.122 375.059 100.512 372.716 99.6279C370.396 98.7538 368.12 97.6107 365.987 96.4244C364.684 100.8 363.812 106.164 363.251 111.74C362.527 118.901 362.317 126.403 362.355 132.58C362.48 152.607 365.959 168.706 366.682 172.068C366.754 172.404 366.797 172.611 366.812 172.688C367.607 177.663 368.245 183.081 368.753 188.638C369.26 194.194 369.644 199.876 369.931 205.38C370.209 210.759 370.401 215.975 370.53 220.725C370.66 225.46 370.727 229.735 370.765 233.241C371.12 233.505 371.566 233.774 372.083 233.976C372.519 234.144 373.003 234.269 373.516 234.307C373.952 234.341 374.412 234.312 374.877 234.192C375.294 234.086 375.716 233.913 376.142 233.654C380.043 209.361 379.712 179.479 379.64 172.956V172.904C379.631 172.183 379.626 171.751 379.631 171.636C379.703 169.926 379.822 167.702 379.966 165.051L379.981 164.801C380.474 155.643 381.236 141.532 381.313 128.099L381.318 127.657L382.669 133.492C384.385 141.349 386.953 151.051 389.666 161.31C391.894 169.729 394.223 178.523 396.264 187C400.625 205.087 404.076 221.147 405.748 228.933C406.132 230.719 406.424 232.074 406.606 232.905C406.937 233.15 407.358 233.332 407.833 233.447C408.35 233.572 408.925 233.625 409.51 233.611C410.09 233.591 410.675 233.51 411.206 233.361C411.714 233.222 412.179 233.025 412.558 232.78C412.577 221.2 411.925 208.603 410.751 195.851C409.524 182.476 407.723 168.927 405.518 156.2V156.195C405.312 154.514 405.326 152.833 405.346 151.171C405.36 149.73 405.374 148.304 405.245 146.901C404.679 140.869 404.085 135.077 403.424 129.64C402.763 124.213 402.039 119.146 401.21 114.574C400.529 110.77 399.188 107.356 397.994 104.32Z" fill="#404040"/>
<path fill-rule="evenodd" clip-rule="evenodd" d="M381.37 127.935C381.298 141.421 380.531 155.614 380.038 164.806C379.889 167.563 379.765 169.873 379.688 171.626C379.683 171.746 379.688 172.198 379.698 172.947C379.769 179.469 380.1 209.376 376.194 233.678C375.274 234.245 374.354 234.413 373.516 234.35C372.37 234.264 371.374 233.755 370.717 233.255C370.64 226.229 370.444 216.133 369.888 205.37C369.313 194.367 368.359 182.634 366.768 172.687C363.145 149.961 360.883 117.946 366.299 96.4052L365 96.165C359.029 119.05 361.832 150.071 365.479 172.971C367.061 182.845 368.009 194.511 368.58 205.462C369.15 216.445 369.342 226.675 369.413 233.678L369.418 234.067L369.677 234.297C370.458 234.989 371.834 235.786 373.439 235.911C374.594 235.998 375.864 235.743 377.124 234.859L377.378 234.682L377.436 234.336C381.423 209.837 381.087 179.522 381.015 172.937C381.006 172.241 381.001 171.813 381.006 171.713C381.078 170.051 381.202 167.712 381.356 164.912C381.787 156.91 382.424 145.124 382.63 133.286L381.37 127.935Z" fill="#333333"/>
<path fill-rule="evenodd" clip-rule="evenodd" d="M369.73 233.255C368.163 233.904 366.246 234.561 364.29 235.234C360.361 236.583 356.268 237.991 353.915 239.715C351.826 241.247 351.021 243 352.564 245.108L352.626 245.19L352.708 245.252C353.642 246.002 358.281 246.127 363.509 245.805C368.575 245.493 374.277 244.801 377.656 243.908L377.737 243.888C378.518 243.711 380.426 243.307 378.916 237.736C378.859 237.53 378.451 236.631 378.073 235.777C377.761 235.085 377.464 234.422 377.431 234.321L375.95 234.811C376.003 234.975 376.319 235.681 376.654 236.42C377.014 237.217 377.392 238.063 377.416 238.144C378.504 242.15 377.862 242.265 377.397 242.371L377.282 242.395C374.004 243.264 368.407 243.941 363.423 244.244C358.679 244.537 354.577 244.532 353.757 244.076C352.995 242.933 353.556 241.91 354.845 240.959C356.997 239.379 360.979 238.01 364.803 236.699C366.749 236.031 368.656 235.373 370.324 234.686L369.73 233.255Z" fill="#333333"/>
<path fill-rule="evenodd" clip-rule="evenodd" d="M373.803 113.028C374.641 113.921 375.59 114.713 376.64 115.294C377.728 115.895 378.926 116.279 380.239 116.327L380.771 116.346L380.833 116.971C382.539 134.294 387.154 151.459 392.603 171.717C397.256 189.022 402.518 208.583 407.099 232.429C407.914 232.866 408.795 232.972 409.658 232.9C410.482 232.828 411.287 232.588 412.001 232.299C411.853 225.23 411.508 214.544 410.736 203.185C410.19 195.121 409.433 186.75 408.378 179.147C408.235 178.095 408.086 177.096 407.942 176.146C407.794 175.185 407.64 174.234 407.482 173.307C407.358 172.582 407.19 171.66 407.027 170.766C406.596 168.394 406.198 166.223 405.973 163.519C404.195 141.979 403.711 120.429 395.555 99.0804L396.719 98.6433C404.856 117.821 405.47 142.521 407.19 163.385C407.406 165.968 407.794 168.115 408.225 170.464C408.359 171.203 408.498 171.967 408.68 173.024C408.838 173.965 408.997 174.921 409.145 175.891C409.303 176.919 409.452 177.927 409.586 178.912C410.65 186.577 411.412 194.987 411.958 203.07C412.744 214.683 413.683 226.152 413.827 233.26L413.837 233.774L413.429 233.956C411.469 234.835 407.334 235.383 405.848 233.178L405.786 232.852C401.2 208.896 396.106 189.512 391.438 172.159C386.028 152.05 381.442 134.981 379.678 117.744C378.394 117.619 377.21 117.211 376.127 116.61C374.934 115.948 373.865 115.054 372.931 114.046C372.092 113.143 372.974 112.144 373.803 113.028Z" fill="#333333"/>
<path fill-rule="evenodd" clip-rule="evenodd" d="M406.599 232.785C405.199 233.745 402.703 235.354 400.93 236.42C397.369 238.562 393.66 240.8 391.724 242.976C390.004 244.912 389.582 246.794 391.527 248.533L391.604 248.6L391.695 248.648C392.764 249.186 397.331 248.336 402.377 246.924C407.265 245.555 412.699 243.687 415.814 242.107L415.891 242.073C416.619 241.737 418.402 240.94 415.761 235.81C415.661 235.623 415.076 234.826 414.525 234.072C414.075 233.462 413.648 232.876 413.591 232.78L412.244 233.567C412.33 233.712 412.786 234.341 413.27 234.994C413.787 235.7 414.338 236.449 414.372 236.521C416.269 240.21 415.666 240.459 415.234 240.656L415.129 240.704C412.105 242.241 406.771 244.076 401.96 245.421C397.383 246.698 393.368 247.558 392.471 247.284C391.489 246.328 391.82 245.205 392.884 244.009C394.657 242.015 398.27 239.84 401.73 237.755C403.493 236.694 405.985 235.09 407.476 234.067L406.599 232.785Z" fill="#333333"/>
<path fill-rule="evenodd" clip-rule="evenodd" d="M355.137 240.82C355.065 240.868 354.993 240.92 354.921 240.973C353.632 241.919 353.071 242.947 353.833 244.09C354.653 244.547 358.76 244.546 363.499 244.258C368.488 243.951 374.085 243.279 377.358 242.409L377.473 242.385C377.775 242.318 378.158 242.246 378.077 241.079C378.034 240.464 377.866 239.542 377.492 238.159C377.473 238.082 377.09 237.232 376.73 236.435C376.563 236.06 376.395 235.695 376.27 235.402C375.321 235.849 374.382 235.978 373.51 235.911C372.24 235.815 371.114 235.292 370.309 234.739C368.66 235.416 366.787 236.06 364.874 236.718C361.18 237.981 357.327 239.302 355.137 240.82Z" fill="#FEFEFE"/>
<path fill-rule="evenodd" clip-rule="evenodd" d="M401.733 237.76C399.778 238.937 397.775 240.142 396.083 241.329C394.78 242.246 393.658 243.144 392.882 244.013C391.818 245.209 391.488 246.328 392.47 247.289C393.366 247.563 397.382 246.703 401.958 245.425C405.826 244.345 410.033 242.947 413.105 241.641C413.853 241.324 414.533 241.012 415.127 240.709L415.233 240.661C415.664 240.459 416.268 240.214 414.37 236.526C414.332 236.454 413.786 235.705 413.268 234.998C413.071 234.734 412.885 234.475 412.722 234.249C411.121 234.758 408.821 234.994 407.22 234.249C405.711 235.272 403.396 236.756 401.733 237.76Z" fill="#FEFEFE"/>
<path d="M365.5 96.5C365.5 96.5 371.5 101 380.5 101.5C389.5 102 395.5 99 395.5 99" stroke="#333333" stroke-linecap="round" stroke-linejoin="round"/>
<path d="M148.159 224.528L143.299 188.267L106.23 199.874L110.716 236.509L148.159 224.528Z" fill="#CCCCCC" stroke="#333333"/>
<path d="M142.679 224.641L144.189 188.288L180.472 199.884L179.597 236.611L142.679 224.641Z" fill="#CCCCCC" stroke="#333333"/>
<mask id="path-51-inside-1_16_14058" fill="white">
<path fill-rule="evenodd" clip-rule="evenodd" d="M144.529 174.5C144.144 173.833 143.182 173.833 142.797 174.5L132.405 192.5C132.02 193.167 132.501 194 133.271 194H138.663V216C138.663 216.552 139.111 217 139.663 217H147.663C148.216 217 148.663 216.552 148.663 216V194H154.056C154.825 194 155.307 193.167 154.922 192.5L144.529 174.5Z"/>
</mask>
<path fill-rule="evenodd" clip-rule="evenodd" d="M144.529 174.5C144.144 173.833 143.182 173.833 142.797 174.5L132.405 192.5C132.02 193.167 132.501 194 133.271 194H138.663V216C138.663 216.552 139.111 217 139.663 217H147.663C148.216 217 148.663 216.552 148.663 216V194H154.056C154.825 194 155.307 193.167 154.922 192.5L144.529 174.5Z" fill="url(#paint3_linear_16_14058)"/>
<path d="M142.797 174.5L143.663 175V175L142.797 174.5ZM144.529 174.5L143.663 175L144.529 174.5ZM132.405 192.5L133.271 193H133.271L132.405 192.5ZM138.663 194H139.663V193H138.663V194ZM148.663 194V193H147.663V194H148.663ZM154.922 192.5L154.056 193L154.056 193L154.922 192.5ZM143.663 175L143.663 175L145.395 174C144.626 172.667 142.701 172.667 141.931 174L143.663 175ZM133.271 193L143.663 175L141.931 174L131.539 192L133.271 193ZM133.271 193H133.271L131.539 192C130.769 193.333 131.731 195 133.271 195V193ZM138.663 193H133.271V195H138.663V193ZM139.663 216V194H137.663V216H139.663ZM139.663 216H139.663H137.663C137.663 217.105 138.559 218 139.663 218V216ZM147.663 216H139.663V218H147.663V216ZM147.663 216H147.663V218C148.768 218 149.663 217.105 149.663 216H147.663ZM147.663 194V216H149.663V194H147.663ZM154.056 193H148.663V195H154.056V193ZM154.056 193L154.056 193V195C155.595 195 156.557 193.333 155.788 192L154.056 193ZM143.663 175L154.056 193L155.788 192L145.395 174L143.663 175Z" fill="black" mask="url(#path-51-inside-1_16_14058)"/>
<path d="M106.952 201.369C106.952 201.03 107.282 200.789 107.604 200.892L143.604 212.376C143.811 212.442 143.952 212.634 143.952 212.852V248.631C143.952 248.97 143.623 249.211 143.3 249.108L107.3 237.624C107.093 237.558 106.952 237.366 106.952 237.148V201.369Z" fill="#D9F4FF" stroke="#333333"/>
<path d="M105.676 200.435C105.798 200.245 106.032 200.16 106.247 200.227L142.603 211.608C142.917 211.707 143.052 212.077 142.875 212.355L136.324 222.608C136.202 222.798 135.968 222.884 135.753 222.816L99.3974 211.435C99.083 211.337 98.948 210.967 99.1254 210.689L105.676 200.435Z" fill="#9ADAF3" stroke="#333333"/>
<path d="M179.952 201.369C179.952 201.03 179.623 200.789 179.3 200.892L143.3 212.376C143.093 212.442 142.952 212.634 142.952 212.852V248.631C142.952 248.97 143.282 249.211 143.604 249.108L179.604 237.624C179.811 237.558 179.952 237.366 179.952 237.148V201.369Z" fill="#9ADAF3" stroke="#333333"/>
<path d="M180.987 200.435C180.865 200.245 180.631 200.16 180.416 200.227L144.06 211.608C143.746 211.707 143.611 212.077 143.789 212.355L150.339 222.608C150.461 222.798 150.695 222.884 150.91 222.816L187.266 211.435C187.58 211.337 187.715 210.967 187.538 210.689L180.987 200.435Z" fill="#D9F4FF" stroke="#333333"/>
<defs>
<linearGradient id="paint0_linear_16_14058" x1="104" y1="70.2031" x2="143.264" y2="140.268" gradientUnits="userSpaceOnUse">
<stop stop-color="#FF8E3D"/>
<stop offset="1" stop-color="#FF6F3D"/>
</linearGradient>
<linearGradient id="paint1_linear_16_14058" x1="364.639" y1="4.01351" x2="403.813" y2="48.0736" gradientUnits="userSpaceOnUse">
<stop stop-color="#FFC671"/>
<stop offset="0.59375" stop-color="#FF7541"/>
<stop offset="1" stop-color="#FF6F3D"/>
</linearGradient>
<linearGradient id="paint2_linear_16_14058" x1="375.135" y1="11.9241" x2="388.359" y2="27.5775" gradientUnits="userSpaceOnUse">
<stop stop-color="#FFAA60"/>
<stop offset="1" stop-color="#FF7541"/>
</linearGradient>
<linearGradient id="paint3_linear_16_14058" x1="132.27" y1="172.32" x2="168.634" y2="192.344" gradientUnits="userSpaceOnUse">
<stop stop-color="#FF8E3D"/>
<stop offset="1" stop-color="#FF6F3D"/>
</linearGradient>
</defs>
</svg>
