<svg width="448" height="254" viewBox="0 0 448 254" fill="none" xmlns="http://www.w3.org/2000/svg">
<g clip-path="url(#clip0_6344_154729)">
<path d="M237.402 253.553C353.712 253.553 448 251.414 448 248.776C448 246.138 353.712 244 237.402 244C121.091 244 26.8032 246.138 26.8032 248.776C26.8032 251.414 121.091 253.553 237.402 253.553Z" fill="#EFEFEF"/>
<path fill-rule="evenodd" clip-rule="evenodd" d="M317.909 2C312.386 2 307.909 6.47714 307.909 12V148.144H242.038C232.808 148.144 228.505 159.581 235.447 165.665L325.424 244.521C329.196 247.827 334.834 247.827 338.606 244.521L428.583 165.665C435.524 159.581 431.222 148.144 421.992 148.144H359.134V12C359.134 6.47715 354.657 2 349.134 2H317.909Z" fill="#EFEFEF"/>
<path d="M301.495 7.49621V179.5H0.5V7.49621C0.5 3.59413 3.59981 0.5 7.50524 0.5H294.495C298.315 0.5 301.358 3.45413 301.495 7.22998V7.49621Z" fill="#AAAAAA" stroke="#333333"/>
<path d="M6.5 173.5V6.5H295.5V173.5H6.5Z" fill="white" stroke="#333333"/>
<line x1="9" y1="39.5" x2="295" y2="39.5" stroke="#E2E2E2"/>
<g clip-path="url(#clip1_6344_154729)">
<path d="M32.3836 27.6131V22.5738C32.3836 21.5222 31.9332 20.9917 31.0418 20.9917C30.1457 20.9917 29.6953 21.5175 29.6953 22.5738V27.6131H27.0548V22.5738C27.0548 21.5222 26.614 20.9917 25.7322 20.9917C24.8361 20.9917 24.3904 21.5175 24.3904 22.5738V27.6131H21.75V22.276C21.75 21.1778 22.143 20.3449 22.9289 19.7819C23.6189 19.2794 24.5582 19.0234 25.737 19.0234C26.9302 19.0234 27.812 19.3212 28.3774 19.9168C28.8662 19.3212 29.7528 19.0234 31.0418 19.0234C32.2207 19.0234 33.1551 19.2747 33.8452 19.7819C34.6311 20.3449 35.024 21.1778 35.024 22.276V27.6131H32.3836Z" fill="#F98012"/>
<path d="M64.7549 27.5899V13.1978H67.4001V27.5899H64.7549Z" fill="#F98012"/>
<path d="M61.385 27.5899V26.743C61.1502 27.0501 60.7477 27.2921 60.1822 27.4782C59.6791 27.6457 59.1999 27.7295 58.7446 27.7295C57.4843 27.7295 56.4732 27.3107 55.7112 26.4685C54.9493 25.6309 54.5659 24.5886 54.5659 23.3509C54.5659 22.1271 54.9397 21.1034 55.6873 20.2798C56.3486 19.5493 57.4316 19.0421 58.6727 19.0421C60.072 19.0421 60.8915 19.5539 61.385 20.1402V13.1978H63.9584V27.5899H61.385ZM61.385 22.7972C61.385 22.3412 61.1598 21.8991 60.7141 21.4803C60.2685 21.0615 59.8037 20.8522 59.334 20.8522C58.6583 20.8522 58.1216 21.122 57.7287 21.6525C57.3837 22.1271 57.2111 22.7088 57.2111 23.3928C57.2111 24.0675 57.3837 24.6398 57.7287 25.1098C58.1216 25.6588 58.6583 25.9334 59.334 25.9334C59.7414 25.9334 60.187 25.7473 60.6662 25.3703C61.1454 24.9981 61.385 24.6119 61.385 24.2117V22.7972Z" fill="#F98012"/>
<path d="M49.5887 27.8178C48.2517 27.8178 47.1448 27.4036 46.2726 26.58C45.4004 25.7564 44.9644 24.6955 44.9644 23.3926C44.9644 22.0944 45.4004 21.0335 46.2726 20.2099C47.1448 19.3863 48.2517 18.9722 49.5887 18.9722C50.9257 18.9722 52.0375 19.3863 52.9144 20.2099C53.7962 21.0335 54.237 22.0991 54.237 23.3926C54.237 24.6909 53.7962 25.7518 52.9144 26.58C52.0327 27.4036 50.9257 27.8178 49.5887 27.8178ZM49.5887 21.0335C48.9514 21.0335 48.4626 21.2662 48.1175 21.7361C47.7773 22.2061 47.6048 22.7598 47.6048 23.4066C47.6048 24.0534 47.7629 24.5978 48.084 25.0399C48.4482 25.547 48.9514 25.7983 49.5887 25.7983C50.2261 25.7983 50.7244 25.547 51.0934 25.0399C51.4289 24.5932 51.5966 24.0487 51.5966 23.4066C51.5966 22.7598 51.4385 22.2154 51.1174 21.7734C50.7484 21.2801 50.2404 21.0335 49.5887 21.0335Z" fill="#F98012"/>
<path d="M40.0267 27.8178C38.6897 27.8178 37.5827 27.4036 36.7106 26.58C35.8384 25.7564 35.4023 24.6955 35.4023 23.3926C35.4023 22.0944 35.8384 21.0335 36.7106 20.2099C37.5827 19.3863 38.6897 18.9722 40.0267 18.9722C41.3637 18.9722 42.4707 19.3863 43.3524 20.2099C44.2341 21.0335 44.675 22.0991 44.675 23.3926C44.675 24.6909 44.2341 25.7518 43.3524 26.58C42.4754 27.4036 41.3637 27.8178 40.0267 27.8178ZM40.0267 21.0335C39.3894 21.0335 38.9006 21.2662 38.5555 21.7361C38.2153 22.2061 38.0428 22.7598 38.0428 23.4066C38.0428 24.0534 38.2009 24.5978 38.522 25.0399C38.8862 25.547 39.3894 25.7983 40.0267 25.7983C40.664 25.7983 41.1624 25.547 41.5314 25.0399C41.8669 24.5932 42.0346 24.0487 42.0346 23.4066C42.0346 22.7598 41.8764 22.2154 41.5554 21.7734C41.1912 21.2801 40.6832 21.0335 40.0267 21.0335Z" fill="#F98012"/>
<path d="M70.5311 24.1741C70.5886 24.7836 71.4032 26.1005 72.7498 26.1005C74.058 26.1005 74.6762 25.3653 74.7097 25.0675L77.4939 25.0442C77.192 25.9469 75.9557 27.864 72.7019 27.864C71.3505 27.864 70.1094 27.4545 69.2228 26.6402C68.3363 25.8213 67.8906 24.7557 67.8906 23.4435C67.8906 22.0848 68.3363 21.0053 69.2228 20.2003C70.1141 19.3999 71.2642 18.9951 72.6827 18.9951C74.2257 18.9951 75.4286 19.493 76.2911 20.4841C77.0914 21.4008 77.4939 22.6292 77.4939 24.1741H70.5311ZM74.8487 22.592C74.7385 22.0429 74.5037 21.5916 74.1395 21.2379C73.7274 20.8564 73.2577 20.6656 72.721 20.6656C72.1699 20.6656 71.7099 20.8471 71.3409 21.2147C70.9719 21.5823 70.7227 22.0383 70.5981 22.592H74.8487Z" fill="#F98012"/>
<path d="M26.8781 18.6375L29.4994 16.7762L29.4658 16.6646C24.736 17.2276 22.5844 17.6277 18.5063 19.9217L18.5447 20.0241L18.8705 20.0288C18.8418 20.3452 18.7891 21.1269 18.8562 22.3088C18.4057 23.5791 18.8466 24.4446 19.2587 25.3845C19.3258 24.4074 19.3162 23.3371 19.0095 22.2716C18.9472 21.1036 18.9999 20.3312 19.0287 20.0334L21.7314 20.0567C21.7314 20.0567 21.7122 20.8477 21.8129 21.5969C24.2281 22.4205 26.6577 21.5922 27.9467 19.5635C27.5825 19.1679 26.8781 18.6375 26.8781 18.6375Z" fill="#333333"/>
</g>
<line x1="45" y1="143" x2="258" y2="143" stroke="#CCCCCC" stroke-width="2" stroke-linecap="round"/>
<circle cx="74.6924" cy="143" r="6" fill="url(#paint0_linear_6344_154729)"/>
<circle cx="149.692" cy="143" r="6" fill="#D9D9D9"/>
<circle cx="224.692" cy="143" r="6" fill="#D9D9D9"/>
<rect x="45.5" y="63" width="213" height="55.0308" rx="1.5" stroke="#CCCCCC"/>
<rect x="55.5" y="72" width="193" height="36.5308" rx="1.5" stroke="#CCCCCC" stroke-dasharray="5 5"/>
<circle cx="151" cy="90" r="11.5" stroke="#808080"/>
<path fill-rule="evenodd" clip-rule="evenodd" d="M150.332 84.0371C149.78 84.0371 149.332 84.4848 149.332 85.0371V90.5189H145.892C144.969 90.5189 144.539 91.6628 145.233 92.2711L150.341 96.7458C150.718 97.0762 151.282 97.0762 151.659 96.7458L156.767 92.2711C157.461 91.6628 157.031 90.5189 156.108 90.5189H152.768V85.0371C152.768 84.4848 152.32 84.0371 151.768 84.0371H150.332Z" fill="#808080"/>
<path d="M183.888 207.5L187.439 238.5H112.573L116.836 207.5H183.888Z" fill="#CCCCCC" stroke="#333333"/>
<path d="M0.5 199.442V179.5H301.5V199.442C301.5 203.382 298.396 206.5 294.495 206.5H7.50536C3.59909 206.5 0.5 203.383 0.5 199.442Z" fill="#E2E2E2" stroke="#333333"/>
<path d="M101.333 242.5L111.106 239.5H188.894L198.667 242.5H101.333Z" fill="#E2E2E2" stroke="#333333"/>
<path d="M201.281 243.5L200.909 244.5H98.9858L98.6774 243.5H201.281Z" fill="#AAAAAA" stroke="#333333"/>
<path d="M156.5 192.497C156.5 195.26 154.259 197.5 151.5 197.5C148.741 197.5 146.5 195.26 146.5 192.497C146.5 189.74 148.74 187.5 151.5 187.5C154.26 187.5 156.5 189.735 156.5 192.497Z" fill="#AAAAAA" stroke="#333333"/>
<path fill-rule="evenodd" clip-rule="evenodd" d="M338.881 77.7538C339.415 77.7538 339.852 77.317 339.852 76.7841C339.852 76.2513 339.415 75.8145 338.881 75.8145C338.348 75.8145 337.911 76.2513 337.911 76.7841C337.916 77.3218 338.348 77.7538 338.881 77.7538Z" fill="#FEFEFE"/>
<path fill-rule="evenodd" clip-rule="evenodd" d="M391.037 24.0306C391.076 22.216 391.009 20.6991 390.86 19.4366C390.672 17.8957 390.35 16.71 389.928 15.8123C389.616 15.1498 389.145 14.5114 388.573 13.9977C388.03 13.5033 387.387 13.1097 386.695 12.8984C385.83 12.6344 384.99 12.6872 384.173 12.9369C383.409 13.1673 382.679 13.5705 381.964 14.0409C381.608 14.2714 381.301 14.4922 381.008 14.7034C379.792 15.5723 378.822 16.2683 377.078 15.7979C376.958 15.7643 376.843 15.7067 376.747 15.6251C376.608 15.5051 376.497 15.3418 376.44 15.1498C376.377 14.9434 376.372 14.7034 376.444 14.4346C376.516 14.1562 376.68 13.8537 376.944 13.5417L376.978 13.4937C377.074 13.3593 377.194 13.2249 377.333 13.0905C378.505 11.948 380.844 11.0647 383.506 10.8823C386.186 10.6999 389.164 11.2519 391.566 12.9897C392.027 13.3209 392.464 13.6953 392.877 14.1225C393.852 15.1258 394.602 16.5227 394.991 18.4237C395.327 20.0702 395.394 22.0912 395.106 24.5586C394.971 24.3138 394.808 24.0978 394.616 23.9154C394.246 23.5697 393.775 23.3585 393.218 23.3297C392.599 23.2961 391.864 23.5025 391.037 24.0306Z" fill="#666666" stroke="#666666" stroke-width="0.216" stroke-miterlimit="22.9256"/>
<path fill-rule="evenodd" clip-rule="evenodd" d="M375.335 14.7754C374.47 15.7451 373.764 16.9884 373.231 18.4141C372.073 21.5247 371.732 25.5283 372.366 29.3542C373.005 33.2137 374.638 36.9196 377.41 39.3966C378.486 40.3567 379.735 41.1344 381.161 41.6672C381.373 41.7488 384.519 42.6321 388.256 39.4206C390.101 37.8317 392.132 35.2251 394.068 30.9863L392.743 30.3815C390.908 34.4042 389.015 36.8476 387.31 38.3117C384.183 41 381.824 40.3567 381.67 40.2991C380.422 39.8383 379.331 39.1566 378.39 38.3117C375.882 36.0699 374.403 32.6761 373.812 29.119C373.216 25.5331 373.529 21.7984 374.6 18.9229C375.071 17.6652 375.681 16.5755 376.425 15.7451L375.335 14.7754Z" fill="#333333"/>
<path fill-rule="evenodd" clip-rule="evenodd" d="M391.004 25.0675C391.095 22.7825 391.037 20.9296 390.855 19.4366C390.668 17.8957 390.346 16.71 389.923 15.8123C389.611 15.1499 389.14 14.5114 388.568 13.9978C388.026 13.5034 387.382 13.1097 386.69 12.8985C385.826 12.6345 384.985 12.6873 384.168 12.9369C383.405 13.1673 382.675 13.5706 381.959 14.041C381.603 14.2714 381.296 14.4922 381.003 14.7035C379.788 15.5723 378.817 16.2684 377.074 15.7979C376.954 15.7643 376.838 15.7067 376.742 15.6251C376.603 15.5051 376.492 15.3419 376.435 15.1499C376.372 14.9435 376.368 14.7035 376.44 14.4346C376.512 14.1562 376.675 13.8538 376.939 13.5418L376.973 13.4938C377.069 13.3593 377.189 13.2249 377.328 13.0905C378.5 11.948 380.84 11.0648 383.501 10.8823C386.181 10.6999 389.159 11.252 391.561 12.9897C392.022 13.3209 392.459 13.6954 392.872 14.1226C393.847 15.1259 394.597 16.5228 394.986 18.4238C395.346 20.1951 395.394 22.3937 395.034 25.1155L394.981 25.5283C394.799 26.9541 394.683 27.8421 393.804 29.0614C393.679 29.2343 393.535 29.4215 393.367 29.6231C393.223 29.8007 393.055 29.9927 392.863 30.1943L393.031 30.7992L393.929 31.188C394.116 30.9864 394.304 30.7752 394.486 30.5496C394.654 30.3479 394.818 30.1367 394.981 29.9111C396.071 28.3942 396.206 27.3669 396.422 25.7156L396.475 25.3027C396.859 22.4129 396.802 20.0511 396.408 18.1309C395.961 15.9324 395.072 14.2954 393.91 13.1049C393.439 12.6201 392.935 12.1929 392.406 11.8088C389.697 9.84546 386.373 9.22621 383.39 9.42783C380.388 9.62944 377.698 10.6807 376.296 12.044C376.113 12.2217 375.95 12.4089 375.806 12.6009C375.392 13.0857 375.138 13.5802 375.013 14.0554C374.869 14.5979 374.888 15.1163 375.027 15.5723C375.172 16.0428 375.441 16.4412 375.786 16.734C376.051 16.9548 376.358 17.1181 376.685 17.2093C379.096 17.8573 380.311 16.9836 381.844 15.8892C382.137 15.6827 382.439 15.4619 382.747 15.2603C383.357 14.8571 383.971 14.5162 384.582 14.329C385.139 14.161 385.696 14.1226 386.253 14.2906C386.724 14.4346 387.175 14.7131 387.569 15.0731C387.997 15.4619 388.352 15.942 388.588 16.4316C388.948 17.1901 389.222 18.2269 389.39 19.6047C389.548 20.9248 389.611 22.5377 389.548 24.5011L389.918 25.0195L391.004 25.0675Z" fill="#333333"/>
<path fill-rule="evenodd" clip-rule="evenodd" d="M390.682 25.519C391.705 24.6165 392.541 24.2661 393.175 24.2949C393.492 24.3093 393.751 24.4293 393.958 24.6165C394.179 24.8229 394.337 25.1157 394.433 25.4662C394.688 26.3782 394.496 27.6311 393.775 28.7592C393.592 29.0473 393.285 29.3689 392.91 29.6281C392.728 29.7529 392.531 29.8585 392.329 29.9353C391.565 30.2186 391.945 31.0586 392.406 30.9338C392.786 30.8282 393.146 30.6506 393.463 30.4346C393.948 30.1034 394.351 29.6713 394.596 29.2873C395.471 27.9192 395.692 26.3686 395.375 25.2117C395.23 24.6885 394.976 24.2373 394.62 23.9108C394.251 23.5652 393.78 23.354 393.223 23.3252C392.344 23.282 391.239 23.714 389.971 24.8469C389.519 25.2549 390.067 26.0614 390.682 25.519Z" fill="#333333"/>
<path fill-rule="evenodd" clip-rule="evenodd" d="M392.435 25.9988C392.579 25.97 392.704 25.97 392.81 25.994C392.93 26.0228 393.026 26.09 393.083 26.1812C393.151 26.2916 393.189 26.4404 393.189 26.6132C393.189 26.9733 393.04 27.4341 392.733 27.9093C392.627 28.0726 392.454 28.2598 392.238 28.4038C392.156 28.4614 392.065 28.5142 391.969 28.5526C391.455 28.7734 391.623 29.191 392.036 29.047C392.204 28.9894 392.368 28.903 392.512 28.807C392.781 28.6246 393.006 28.3846 393.141 28.1734C393.496 27.6165 393.674 27.0645 393.674 26.6132C393.674 26.3444 393.612 26.1044 393.492 25.9172C393.362 25.7156 393.17 25.5764 392.915 25.5187C392.766 25.4851 392.593 25.4803 392.396 25.5091C391.758 25.6148 391.83 26.1188 392.435 25.9988Z" fill="#333333"/>
<path fill-rule="evenodd" clip-rule="evenodd" d="M391.936 46.4728L391.398 35.5615L389.938 35.6287L390.48 46.54L391.936 46.4728Z" fill="#333333"/>
<path fill-rule="evenodd" clip-rule="evenodd" d="M380.157 46.4147L380.955 40.563L379.509 40.3662L378.707 46.2179L380.157 46.4147Z" fill="#333333"/>
<path fill-rule="evenodd" clip-rule="evenodd" d="M376.435 46.0454C376.238 46.7559 375.805 48.964 375.969 50.6874C376.084 51.9211 376.512 52.9628 377.501 53.3132C378.25 53.5772 379.437 53.486 380.907 52.4875C381.896 51.8107 383.063 50.7018 384.356 48.9592L383.184 48.0904C381.997 49.6841 380.955 50.6874 380.08 51.2826C379.067 51.9691 378.37 52.0747 377.981 51.9403C377.65 51.8203 377.482 51.2586 377.419 50.553C377.275 49.0361 377.664 47.0727 377.837 46.439L376.435 46.0454Z" fill="#333333"/>
<path fill-rule="evenodd" clip-rule="evenodd" d="M381.665 29.3782C379.278 30.3238 378.438 29.2149 378.471 28.1829C378.51 26.7907 379.816 27.0692 379.552 24.813C380.686 26.4019 378.13 28.1637 379.658 28.9941C379.984 29.1717 380.503 29.3542 381.665 29.3782Z" fill="#333333"/>
<path fill-rule="evenodd" clip-rule="evenodd" d="M380.388 32.7339C383.179 34.9853 384.192 30.9914 384.682 30.377C384.543 35.3358 380.738 34.9901 380.388 32.7339Z" fill="#333333"/>
<path fill-rule="evenodd" clip-rule="evenodd" d="M382.569 23.9923C384.053 20.4832 387.992 22.485 388.006 24.3619C387.819 24.1555 386.993 23.6611 386.522 23.6035C386.359 25.6916 383.861 26.1285 383.189 23.9011C382.924 23.8867 382.766 23.8723 382.569 23.9923Z" fill="#333333"/>
<path fill-rule="evenodd" clip-rule="evenodd" d="M374.076 23.8434C375.426 20.2815 379.442 22.1345 379.528 24.0115C379.331 23.8146 378.491 23.349 378.015 23.3106C377.933 25.4036 375.45 25.9316 374.696 23.733C374.427 23.7234 374.268 23.7186 374.076 23.8434Z" fill="#333333"/>
<path fill-rule="evenodd" clip-rule="evenodd" d="M383.587 88.6872C382.424 88.476 381.305 88.0631 379.778 87.2999C378.706 86.7622 377.837 86.2006 377.14 85.6341C376.545 85.1493 376.074 84.6596 375.714 84.1748C375.877 85.7349 376.309 87.4535 376.886 89.1768C377.712 91.6442 378.826 94.1212 379.874 96.195C380.378 94.8125 381.05 93.3484 381.805 91.889C382.367 90.8042 382.972 89.7241 383.587 88.6872Z" fill="#FF6F3D" stroke="#FF6F3D" stroke-width="0.5669" stroke-miterlimit="22.9256"/>
<path fill-rule="evenodd" clip-rule="evenodd" d="M375.642 82.8018C375.627 84.6883 376.137 86.9253 376.886 89.1767C377.712 91.6441 378.827 94.1211 379.874 96.1949C380.378 94.8123 381.051 93.3482 381.805 91.8889C383.13 89.3303 384.706 86.7861 386.085 84.7507L387.213 85.5092C385.854 87.5157 384.302 90.0168 383.01 92.513C382.002 94.4667 381.147 96.4205 380.671 98.1294L380.22 99.7568L379.417 98.2686C378.159 95.926 376.646 92.7674 375.594 89.6135C374.801 87.2373 374.263 84.8563 374.278 82.8066L375.642 82.8018Z" fill="#333333"/>
<path fill-rule="evenodd" clip-rule="evenodd" d="M408.363 56.2941C409.017 58.0702 409.79 60.0624 410.611 62.189C414.829 73.0715 420.454 87.5831 418.407 95.1533C418.393 95.2013 418.129 95.5661 416.673 95.7629C415.732 95.8878 414.382 95.8734 412.456 95.5373C410.386 95.1773 407.619 94.3132 404.045 92.9355C400.596 91.6058 396.412 89.8057 391.393 87.5255C391.974 87.0934 392.497 86.575 392.959 85.9989C393.304 85.5669 393.612 85.1061 393.886 84.6212C396.018 85.2741 399.16 85.9989 402.224 86.5606C404.977 87.0694 407.676 87.4487 409.54 87.5351C410.693 87.5879 410.852 86.1334 409.555 86.0709C409.401 86.0613 409.247 86.0565 409.084 86.0421C408.503 85.3221 407.047 82.8835 405.606 80.2625C404.237 77.7663 402.897 75.1309 402.359 73.6667C402.407 71.3769 402.522 69.0584 402.7 66.7062C402.786 65.5781 401.336 65.3428 401.245 66.5717C401.004 69.7304 400.88 72.8603 400.875 75.9757C400.87 78.9856 400.98 81.9522 401.197 84.8853C398.713 84.3956 396.292 83.8244 394.534 83.3011C394.683 82.9459 387.857 83.3011 391.393 82.2306C391.811 80.9057 390.763 83.3587 390.725 82.2306C390.682 80.9105 388.506 81.9762 387.819 81.429C387.656 81.2994 387.492 81.2033 387.334 81.1313L387.535 80.1425C387.564 80.0224 387.579 79.9072 387.579 79.7968C387.579 79.4368 387.444 79.1008 387.223 78.832C387.012 78.5679 386.709 78.3711 386.373 78.2895C386.253 78.2607 386.133 78.2463 386.013 78.2463L387.118 72.3274C386.863 68.1175 382.916 69.7016 382.656 66.5717C381.75 62.8433 384.219 48.6807 384.219 48.6807L386.313 51.5945C386.313 51.5945 388.645 54.3115 389.538 53.8171C391.46 52.7562 391.782 48.797 392.094 46.8433C394.323 47.3617 397.781 48.7095 400.654 50.3848C403.742 52.1802 406.668 54.3499 408.363 56.2941ZM383.563 48.6807C383.462 48.2582 378.279 52.8738 378.188 52.437C377.198 52.0866 376.084 51.9209 375.964 50.6872C375.853 49.5159 376.017 48.1286 376.194 47.1301C373.985 47.5238 372.179 48.0662 370.67 48.6807C368.523 49.5591 366.977 50.596 365.728 51.5945C364.853 52.2906 362.293 55.3196 359.56 58.5503C356.226 62.4914 359.033 65.6357 357.688 66.5717L355.338 78.2463L350.563 84.6212L351.75 84.0308C354.719 84.602 354.925 75.1404 358.522 72.9371C368.375 66.892 367.417 58.6074 366.929 69.9752C366.78 74.406 366.813 83.3683 367.279 91.8362C367.596 97.5967 368.105 103.122 368.884 106.804C373.985 109.684 379.749 110.956 385.451 111.201C392.627 111.508 399.722 110.198 405.328 108.431C404.665 106.012 404.079 103.621 403.565 101.245C403.027 98.7536 402.57 96.2622 402.196 93.7756C398.982 92.4987 395.183 90.8473 390.725 88.8264C380.71 67.743 380.835 80.7185 380.494 80.4161C380.157 80.1137 377.684 80.6657 377.631 80.1905L372.203 74.1228L372.188 73.9307C372.188 73.5419 372.332 73.1819 372.573 72.9035C372.818 72.625 373.159 72.4282 373.548 72.385C373.62 72.3754 373.687 72.3706 373.735 72.3754L380.938 72.3274C381.173 69.8696 381.43 54.1291 383.563 48.6807Z" fill="#EFEFEF"/>
<path fill-rule="evenodd" clip-rule="evenodd" d="M409.675 55.5167L409.771 55.7764C410.357 57.3694 411.041 59.1392 411.775 61.0399C411.853 61.2414 411.931 61.4443 412.01 61.6486L412.025 61.6864C414.125 67.1057 416.605 73.5051 418.302 79.5053C419.152 82.5154 419.817 85.4621 420.135 88.164C420.451 90.8502 420.437 93.3913 419.855 95.5448L419.85 95.5648L419.844 95.5846C419.765 95.8478 419.631 96.029 419.579 96.097C419.501 96.1988 419.416 96.2868 419.331 96.3624C419.161 96.5141 418.961 96.6421 418.738 96.7506C418.298 96.9651 417.7 97.1379 416.874 97.2495L416.87 97.25C415.736 97.4004 414.226 97.3689 412.198 97.0151C410.045 96.6406 407.271 95.7749 403.818 94.4554C404.16 96.6106 404.564 98.7694 405.031 100.928C405.539 103.277 406.118 105.641 406.774 108.035L407.156 109.428L405.778 109.862C400.045 111.669 392.773 113.016 385.386 112.7C379.513 112.448 373.503 111.135 368.146 108.11L367.556 107.777L367.416 107.114C366.612 103.311 366.099 97.6871 365.781 91.9187L367.279 91.8363C367.596 97.5968 368.105 103.122 368.883 106.804C373.985 109.684 379.749 110.956 385.451 111.201C392.627 111.508 399.722 110.198 405.327 108.431C404.664 106.012 404.078 103.621 403.564 101.245C403.03 98.7701 402.576 96.2951 402.203 93.8248C402.2 93.8084 402.198 93.792 402.195 93.7757C398.997 92.5048 395.219 90.8631 390.788 88.8553C390.767 88.8457 390.746 88.8361 390.725 88.8265C390.396 88.1353 390.079 87.4807 389.772 86.861C389.044 85.391 388.375 84.1177 387.761 83.0187C387.589 82.7111 387.421 82.4173 387.257 82.1366C387.257 82.136 387.257 82.1355 387.256 82.135C387.184 82.0114 387.113 81.8904 387.043 81.7719C386.876 81.4917 386.714 81.2255 386.556 80.9728C386.368 80.6706 386.185 80.3876 386.008 80.123C385.922 79.9931 385.836 79.8676 385.752 79.7464C385.297 79.0885 384.883 78.5576 384.507 78.136C382.028 75.3569 381.18 77.3232 380.82 78.9266C380.818 78.9354 380.816 78.9443 380.814 78.9531C380.74 79.2848 380.687 79.5997 380.645 79.8522C380.606 80.0858 380.576 80.266 380.546 80.3566C380.546 80.3571 380.546 80.3575 380.546 80.358C380.529 80.4105 380.512 80.4323 380.493 80.4162C380.342 80.2797 379.754 80.3172 379.151 80.3559C378.417 80.4028 377.659 80.4513 377.63 80.1905L372.203 74.1228L372.188 73.9308C372.188 73.542 372.332 73.182 372.572 72.9035C372.817 72.6251 373.158 72.4283 373.548 72.3851C373.62 72.3755 373.687 72.3707 373.735 72.3755L380.938 72.3275C380.985 71.8303 381.034 70.7894 381.098 69.4001C381.131 68.7068 381.167 67.9269 381.209 67.0844C381.212 67.0304 381.215 66.9761 381.218 66.9215C381.221 66.8449 381.225 66.7677 381.229 66.6901C381.478 61.8341 381.926 55.1098 382.914 50.8649C382.976 50.5971 383.041 50.3393 383.108 50.0924C383.133 49.9977 383.159 49.9045 383.185 49.8131C383.235 49.6406 383.286 49.4741 383.338 49.314C383.41 49.0901 383.485 48.8786 383.563 48.6808C383.557 48.6568 383.535 48.6491 383.498 48.6556C383.453 48.6639 383.384 48.6946 383.297 48.7442C383.129 48.8395 382.891 49.0045 382.608 49.2136C382.505 49.2898 382.396 49.3718 382.282 49.4585C382.063 49.626 381.826 49.8107 381.58 50.0037C381.353 50.1823 381.119 50.368 380.885 50.5538C380.42 50.922 379.956 51.2905 379.546 51.6044C379.52 51.6241 379.495 51.6436 379.469 51.6629C379.034 51.9943 378.668 52.2579 378.439 52.3845C378.289 52.4675 378.199 52.4915 378.188 52.4371C378.05 52.3882 377.909 52.343 377.769 52.2979C376.907 52.0197 376.067 51.749 375.964 50.6873C375.904 50.0545 375.924 49.3586 375.983 48.695C376.034 48.1304 376.113 47.5892 376.194 47.1302C375.646 47.2279 375.123 47.3347 374.622 47.4495C373.107 47.7975 371.804 48.2188 370.67 48.6808C368.523 49.5592 366.976 50.5961 365.727 51.5946C364.86 52.285 362.335 55.2703 359.627 58.4711L359.56 58.5504C357.498 60.9877 357.785 63.1202 357.986 64.6142C358.11 65.5359 358.201 66.2146 357.688 66.5718L355.337 78.2464L350.563 84.6213L351.75 84.0308C353.273 84.3239 354.069 81.977 354.968 79.324C355.089 78.9684 355.211 78.6073 355.337 78.2464C355.979 76.4119 356.721 74.5806 357.825 73.49C358.043 73.2751 358.274 73.0889 358.522 72.9371C362.199 70.6812 364.37 68.1132 365.622 66.3713C365.85 66.0552 366.046 65.7663 366.217 65.5114C366.73 64.7425 366.999 64.283 367.122 64.3193C367.234 64.3527 367.222 64.8036 367.16 65.8164C367.141 66.1219 367.118 66.4786 367.093 66.8904C367.042 67.6972 366.982 68.7156 366.928 69.9753C366.779 74.4061 366.813 83.3684 367.279 91.8363L365.781 91.9187C365.313 83.4102 365.279 74.4034 365.429 69.9249L365.43 69.9109C365.443 69.5884 365.458 69.2815 365.472 68.9899C364.09 70.6003 362.108 72.4967 359.307 74.2157L359.306 74.2163C358.782 74.5371 358.25 75.2192 357.715 76.3308C357.375 77.0374 357.077 77.8223 356.787 78.6456L356.741 78.8745L356.678 78.9588C356.578 79.2481 356.478 79.5415 356.378 79.8372C356.359 79.8936 356.34 79.9501 356.321 80.0067C355.899 81.2483 355.435 82.6068 354.849 83.6068C354.359 84.4427 353.461 85.5485 352.046 85.5587L345.577 88.7764L353.934 77.6183L356.336 65.6849L356.579 65.516C356.57 65.3551 356.545 65.1552 356.506 64.8612C356.503 64.8436 356.501 64.8257 356.498 64.8076C356.46 64.5262 356.414 64.1825 356.383 63.8131C356.243 62.1415 356.422 59.9374 358.415 57.5817L358.487 57.496C359.825 55.9139 361.13 54.3718 362.211 53.1348C363.267 51.9277 364.224 50.8745 364.792 50.4221C366.127 49.355 367.796 48.2361 370.102 47.2925L370.104 47.2916C371.717 46.6348 373.625 46.0644 375.931 45.6535L378.048 45.2764L377.671 47.3931C377.502 48.3446 377.366 49.5738 377.457 50.5436C377.458 50.5541 377.459 50.5629 377.46 50.5702C377.469 50.5763 377.481 50.5837 377.496 50.5924C377.58 50.6403 377.708 50.6958 377.926 50.7703C377.977 50.788 378.03 50.8053 378.085 50.8233C378.111 50.8043 378.139 50.7842 378.168 50.7629C378.638 50.4202 379.271 49.9193 379.939 49.389L379.971 49.3638C380.612 48.8553 381.286 48.3214 381.808 47.9398C382.064 47.7525 382.337 47.5625 382.573 47.4302C382.643 47.3912 382.776 47.3179 382.944 47.2574L383.354 44.9067L387.489 50.6616C387.501 50.6752 387.516 50.6918 387.533 50.711C387.591 50.776 387.677 50.8704 387.783 50.983C387.998 51.2109 388.284 51.5009 388.587 51.7701C388.792 51.9527 388.979 52.1023 389.138 52.2129C389.218 52.1136 389.304 51.9874 389.392 51.8277C389.614 51.4268 389.806 50.9022 389.969 50.2833C390.217 49.3392 390.356 48.3677 390.482 47.4858C390.526 47.1804 390.568 46.8857 390.613 46.6066L390.867 45.0178L392.434 45.3823C394.824 45.9383 398.421 47.3465 401.408 49.0886C404.559 50.9201 407.643 53.1867 409.494 55.3082L409.675 55.5167ZM400.654 50.3849C398.35 49.0415 395.67 47.9088 393.549 47.2453C393.025 47.0814 392.535 46.9461 392.094 46.8433C392.056 47.0793 392.018 47.3445 391.977 47.6304C391.946 47.8534 391.912 48.0891 391.875 48.3331C391.569 50.3658 391.047 52.9844 389.538 53.8172C388.645 54.3116 386.313 51.5946 386.313 51.5946L384.219 48.6808C384.219 48.6808 384.204 48.7647 384.178 48.9215C384.138 49.155 384.072 49.5501 383.988 50.0695C383.987 50.0728 383.987 50.0761 383.986 50.0794C383.952 50.291 383.915 50.5232 383.875 50.7733C383.231 54.8565 381.967 63.7348 382.656 66.5718C382.668 66.7186 382.689 66.8551 382.716 66.9823C382.961 68.1064 383.78 68.5046 384.647 68.9263C385.773 69.4738 386.98 70.0609 387.117 72.3275L386.013 78.2464C386.133 78.2464 386.253 78.2608 386.373 78.2896C386.437 78.3053 386.501 78.3252 386.562 78.349C386.58 78.3557 386.597 78.3627 386.614 78.37C386.852 78.4721 387.064 78.633 387.223 78.832C387.441 79.0975 387.575 79.4285 387.578 79.7834C387.578 79.7879 387.578 79.7924 387.578 79.7969C387.578 79.9073 387.564 80.0225 387.535 80.1425L387.334 81.1314C387.492 81.2034 387.655 81.2994 387.819 81.429C388.013 81.584 388.327 81.6096 388.678 81.5967C388.826 81.5913 388.981 81.579 389.137 81.5666C389.224 81.5597 389.311 81.5528 389.397 81.547C389.999 81.5069 390.554 81.5248 390.692 82.0099C390.711 82.0748 390.722 82.1481 390.725 82.2307C390.728 82.3308 390.74 82.4027 390.757 82.4515C389.902 82.8115 390.61 82.9531 391.634 83.0299C391.702 83.0349 391.77 83.0397 391.84 83.0442C391.994 83.0542 392.153 83.063 392.313 83.0712C392.347 83.073 392.382 83.0747 392.417 83.0764C392.509 83.081 392.602 83.0854 392.694 83.0896C392.749 83.0922 392.804 83.0947 392.859 83.0972C392.903 83.0992 392.947 83.1012 392.99 83.1032C393 83.1037 393.01 83.1041 393.019 83.1046C393.029 83.105 393.038 83.1054 393.048 83.1059C393.554 83.1294 394.009 83.1534 394.279 83.1944C394.293 83.1965 394.307 83.1987 394.32 83.201C394.463 83.2254 394.543 83.2555 394.536 83.2944C394.536 83.2967 394.535 83.2989 394.534 83.3012C394.977 83.433 395.462 83.5679 395.979 83.7037C397.091 83.9956 398.353 84.2921 399.67 84.5724C400.173 84.6795 400.683 84.7841 401.196 84.8853C401.195 84.8694 401.194 84.8536 401.193 84.8377C401.156 84.3378 401.123 83.837 401.092 83.3351C400.945 80.9078 400.871 78.4565 400.875 75.9758C400.876 75.3269 400.882 74.6774 400.893 74.0271C400.895 73.8968 400.898 73.7665 400.901 73.6362C400.948 71.3555 401.058 69.0652 401.23 66.7596C401.234 66.7051 401.238 66.6506 401.243 66.5961C401.243 66.5956 401.243 66.5951 401.243 66.5946C401.243 66.587 401.244 66.5794 401.244 66.5718C401.335 65.3525 402.764 65.5746 402.702 66.68C402.702 66.6809 402.701 66.6818 402.701 66.6826C402.701 66.6904 402.7 66.6983 402.7 66.7062C402.697 66.7447 402.694 66.7831 402.691 66.8215C402.518 69.1342 402.406 71.4144 402.359 73.6668C402.371 73.7013 402.385 73.7364 402.398 73.7722C402.96 75.255 404.269 77.8251 405.606 80.2625C407.022 82.8386 408.453 85.2385 409.053 86.0037C409.063 86.017 409.074 86.0299 409.084 86.0422C409.191 86.0517 409.293 86.057 409.395 86.0622C409.415 86.0633 409.436 86.0643 409.456 86.0654C409.489 86.0672 409.522 86.069 409.554 86.071C409.572 86.0719 409.59 86.073 409.607 86.0744C409.607 86.0744 409.607 86.0743 409.607 86.0744C410.846 86.1736 410.677 87.5872 409.54 87.5352C409.521 87.5343 409.503 87.5334 409.484 87.5325C409.477 87.5321 409.47 87.5318 409.463 87.5315C409.434 87.53 409.404 87.5284 409.375 87.5268C409.239 87.5195 409.099 87.5107 408.955 87.5005C408.741 87.4853 408.519 87.4671 408.289 87.4459C406.722 87.3018 404.806 87.0232 402.832 86.6711C402.63 86.635 402.427 86.5982 402.224 86.5607C401.788 86.4808 401.351 86.3976 400.915 86.3118C398.397 85.816 395.931 85.2327 394.12 84.6922C394.051 84.6717 393.984 84.6513 393.917 84.631C393.906 84.6277 393.896 84.6245 393.885 84.6213C393.879 84.6331 393.872 84.6448 393.865 84.6565C393.864 84.6596 393.862 84.6627 393.86 84.6657C393.593 85.1343 393.294 85.5802 392.958 85.999C392.842 86.1447 392.721 86.2867 392.597 86.4246C392.307 86.7456 391.995 87.0442 391.664 87.3144C391.586 87.3773 391.508 87.4387 391.429 87.4985C391.417 87.5076 391.404 87.5166 391.392 87.5255C391.552 87.5981 391.711 87.6702 391.869 87.7419C392.223 87.9022 392.573 88.0601 392.919 88.2156C396.668 89.9027 399.925 91.3032 402.734 92.4215C403.013 92.5326 403.287 92.6409 403.557 92.7464C403.721 92.8105 403.884 92.8736 404.045 92.9356C407.619 94.3133 410.385 95.1774 412.456 95.5374C414.382 95.8734 415.732 95.8878 416.673 95.763C418.129 95.5662 418.393 95.2014 418.407 95.1534C420.453 87.5847 414.831 73.0774 410.614 62.1956L410.611 62.1891C410.532 61.9848 410.454 61.7817 410.376 61.58C409.642 59.6817 408.954 57.8997 408.363 56.2942C406.667 54.35 403.742 52.1802 400.654 50.3849ZM390.981 85.9234C391.266 85.6649 391.536 85.3761 391.787 85.0616C391.915 84.9016 392.038 84.7359 392.155 84.5648C391.955 84.5543 391.761 84.5429 391.586 84.5303C391.261 84.507 390.919 84.4751 390.624 84.4255C390.485 84.4023 390.325 84.3701 390.166 84.3224C390.43 84.8294 390.702 85.3627 390.981 85.9234ZM402.718 85.1263C404.268 85.4091 405.775 85.6453 407.103 85.8086C406.878 85.4551 406.634 85.0577 406.381 84.6372C405.753 83.5906 405.019 82.3089 404.292 80.9852L404.291 80.9838C403.629 79.777 402.96 78.5135 402.38 77.3516C402.406 79.8534 402.512 82.3259 402.692 84.7751L402.718 85.1263ZM391.327 82.0151C391.321 82.0245 391.314 82.034 391.308 82.0437C391.279 82.0855 391.248 82.1304 391.217 82.1753C391.207 82.1885 391.198 82.2018 391.189 82.2149C391.189 82.2147 391.188 82.2151 391.189 82.2149C391.163 82.2509 391.136 82.2871 391.109 82.3207C390.971 82.3673 390.854 82.4108 390.757 82.4515C390.821 82.628 390.965 82.5036 391.109 82.3207C391.195 82.2919 391.289 82.2619 391.392 82.2307C391.395 82.2232 391.397 82.2159 391.399 82.2086C391.399 82.2089 391.399 82.2083 391.399 82.2086C391.565 81.6785 391.483 81.7874 391.327 82.0151ZM384.841 76.3477L385.607 72.246C385.541 71.5669 385.352 71.2388 385.197 71.0519C385 70.816 384.72 70.6356 384.222 70.3883C384.165 70.36 384.1 70.329 384.031 70.2954C383.642 70.1086 383.081 69.8384 382.597 69.4591C382.533 70.8451 382.482 71.9347 382.431 72.4705L382.302 73.8184L373.992 73.8738L378.48 78.8901C378.585 78.8866 378.712 78.8802 378.864 78.871C378.917 78.8677 378.975 78.864 379.034 78.8602C379.12 78.8547 379.211 78.8488 379.304 78.8433C379.323 78.7504 379.343 78.6552 379.365 78.5592C379.472 78.0899 379.634 77.5144 379.895 76.9862C380.143 76.4846 380.585 75.8134 381.364 75.4615C382.236 75.0676 383.14 75.2382 383.912 75.6728C384.222 75.8472 384.531 76.0734 384.841 76.3477ZM377.466 50.5994C377.466 50.5994 377.466 50.5988 377.466 50.5976Z" fill="#333333"/>
<path fill-rule="evenodd" clip-rule="evenodd" d="M401.244 66.5719C401.004 69.7306 400.879 72.8604 400.875 75.9759C400.87 79.3218 401.004 82.61 401.273 85.8599L402.734 85.7399C402.465 82.49 402.33 79.2401 402.335 75.9759C402.34 72.942 402.46 69.8602 402.705 66.7111C402.786 65.583 401.336 65.343 401.244 66.5719ZM402.148 93.4349L403.593 93.2237C403.978 95.7967 404.444 98.3697 405.001 100.952C405.558 103.545 406.202 106.137 406.927 108.729L407.114 109.401L406.451 109.617C400.61 111.537 393.059 112.997 385.393 112.67C379.365 112.411 373.269 111.043 367.875 107.918L367.601 107.759L367.529 107.442C366.688 103.674 366.145 97.9137 365.819 91.918C365.353 83.4165 365.314 74.4061 365.468 69.937L365.516 68.7945L365.579 67.5944L367.039 67.6856L366.976 68.8617L366.928 69.9802C366.779 74.4109 366.813 83.3733 367.279 91.8412C367.596 97.6017 368.105 103.127 368.883 106.809C373.985 109.689 379.749 110.961 385.451 111.206C392.627 111.513 399.722 110.203 405.327 108.436C404.665 106.017 404.079 103.626 403.565 101.25C403.012 98.6433 402.537 96.0415 402.148 93.4349Z" fill="#333333"/>
<mask id="path-44-outside-1_6344_154729" maskUnits="userSpaceOnUse" x="375.394" y="44.7607" width="18" height="10" fill="black">
<rect fill="white" x="375.394" y="44.7607" width="18" height="10"/>
<path fill-rule="evenodd" clip-rule="evenodd" d="M391.5 46.8952C391.5 46.8952 389.98 51.9068 388.832 52.5356C388.054 52.9677 386.863 52.2812 385.042 49.2665C386.868 49.1753 389.938 48.6248 391.5 46.8952ZM382.424 49.0601C381.55 50.1066 380.767 50.8171 380.085 51.2827C379.072 51.9692 378.375 52.0748 377.986 51.9404C377.655 51.8204 377.487 51.2587 377.424 50.5531C377.309 49.3098 377.544 47.7592 377.731 46.8952C378.092 46.8471 378.466 46.7991 378.846 46.7607L379.038 47.0296C379.845 48.0809 381.036 48.7433 382.424 49.0601Z"/>
</mask>
<path fill-rule="evenodd" clip-rule="evenodd" d="M391.5 46.8952C391.5 46.8952 389.98 51.9068 388.832 52.5356C388.054 52.9677 386.863 52.2812 385.042 49.2665C386.868 49.1753 389.938 48.6248 391.5 46.8952ZM382.424 49.0601C381.55 50.1066 380.767 50.8171 380.085 51.2827C379.072 51.9692 378.375 52.0748 377.986 51.9404C377.655 51.8204 377.487 51.2587 377.424 50.5531C377.309 49.3098 377.544 47.7592 377.731 46.8952C378.092 46.8471 378.466 46.7991 378.846 46.7607L379.038 47.0296C379.845 48.0809 381.036 48.7433 382.424 49.0601Z" fill="#CCCCCC"/>
<path d="M391.5 46.8952L392.935 47.3304C393.139 46.6584 392.85 45.935 392.238 45.5894C391.627 45.2438 390.858 45.3685 390.387 45.8896L391.5 46.8952ZM388.832 52.5356L388.112 51.22L388.104 51.2242L388.832 52.5356ZM385.042 49.2665L384.968 47.7684L382.461 47.8937L383.758 50.042L385.042 49.2665ZM382.424 49.0601L383.576 50.0218L385.146 48.1426L382.758 47.5977L382.424 49.0601ZM380.085 51.2827L380.926 52.5247L380.931 52.5216L380.085 51.2827ZM377.986 51.9404L377.475 53.3508L377.486 53.3545L377.496 53.3582L377.986 51.9404ZM377.424 50.5531L378.918 50.4208L378.918 50.4146L377.424 50.5531ZM377.731 46.8952L377.533 45.4083L376.489 45.5475L376.266 46.5773L377.731 46.8952ZM378.846 46.7607L380.066 45.8885L379.56 45.1808L378.695 45.2684L378.846 46.7607ZM379.038 47.0296L377.818 47.9018L377.833 47.9226L377.848 47.9429L379.038 47.0296ZM391.5 46.8952C390.065 46.4599 390.065 46.4598 390.065 46.4597C390.065 46.4597 390.065 46.4596 390.065 46.4596C390.065 46.4596 390.065 46.4597 390.065 46.4598C390.064 46.4601 390.064 46.4607 390.064 46.4615C390.064 46.4633 390.063 46.4662 390.061 46.4702C390.059 46.4784 390.055 46.491 390.05 46.508C390.039 46.5419 390.023 46.593 390.002 46.6588C389.961 46.7905 389.899 46.9811 389.822 47.2123C389.667 47.6766 389.45 48.2967 389.201 48.9308C388.949 49.5723 388.677 50.1924 388.416 50.6718C388.285 50.9122 388.174 51.0862 388.087 51.1992C387.982 51.3353 387.985 51.2895 388.112 51.2201L389.553 53.8512C389.967 53.6245 390.268 53.2845 390.466 53.0262C390.682 52.7448 390.878 52.4241 391.051 52.1062C391.398 51.4691 391.721 50.7184 391.993 50.0283C392.267 49.3309 392.502 48.6588 392.667 48.1638C392.75 47.9154 392.817 47.7095 392.862 47.5647C392.885 47.4922 392.903 47.435 392.916 47.3952C392.922 47.3753 392.927 47.3597 392.93 47.3489C392.932 47.3434 392.933 47.3391 392.934 47.336C392.934 47.3345 392.935 47.3333 392.935 47.3323C392.935 47.3319 392.935 47.3315 392.935 47.3311C392.935 47.331 392.935 47.3308 392.935 47.3307C392.935 47.3306 392.935 47.3304 391.5 46.8952ZM388.104 51.2242C388.472 51.0202 388.651 51.3283 388.261 51.0189C387.851 50.6932 387.209 49.9525 386.326 48.4911L383.758 50.042C384.696 51.5952 385.56 52.7051 386.395 53.3683C387.251 54.0478 388.415 54.4831 389.56 53.8471L388.104 51.2242ZM385.117 50.7647C386.123 50.7144 387.474 50.5389 388.81 50.1293C390.123 49.7265 391.574 49.0511 392.613 47.9007L390.387 45.8896C389.864 46.4688 388.998 46.9335 387.93 47.2612C386.884 47.5821 385.787 47.7275 384.968 47.7684L385.117 50.7647ZM381.273 48.0985C380.464 49.0673 379.78 49.6745 379.239 50.0439L380.931 52.5216C381.754 51.9596 382.637 51.1459 383.576 50.0218L381.273 48.0985ZM379.244 50.0408C378.833 50.3194 378.555 50.4317 378.406 50.4723C378.249 50.5153 378.301 50.4623 378.476 50.5226L377.496 53.3582C378.578 53.7319 379.805 53.2842 380.926 52.5247L379.244 50.0408ZM378.497 50.53C378.738 50.6175 378.881 50.7624 378.946 50.845C379.007 50.9221 379.019 50.9684 379.009 50.9401C379 50.9168 378.983 50.8615 378.964 50.766C378.946 50.6727 378.93 50.5575 378.918 50.4208L375.93 50.6853C375.967 51.0999 376.041 51.5683 376.2 51.9925C376.336 52.3567 376.674 53.0606 377.475 53.3508L378.497 50.53ZM378.918 50.4146C378.823 49.3989 379.021 48.0249 379.197 47.213L376.266 46.5773C376.067 47.4935 375.794 49.2206 375.93 50.6915L378.918 50.4146ZM377.93 48.382C378.286 48.3345 378.642 48.2891 378.997 48.2531L378.695 45.2684C378.291 45.3092 377.897 45.3598 377.533 45.4083L377.93 48.382ZM377.626 47.633L377.818 47.9018L380.258 46.1573L380.066 45.8885L377.626 47.633ZM377.848 47.9429C378.915 49.3328 380.446 50.1471 382.091 50.5225L382.758 47.5977C381.627 47.3395 380.775 46.829 380.228 46.1162L377.848 47.9429Z" fill="#333333" mask="url(#path-44-outside-1_6344_154729)"/>
<path fill-rule="evenodd" clip-rule="evenodd" d="M415.362 236.962C414.219 238.253 412.768 239.641 411.279 241.061C408.868 243.366 406.36 245.761 405.107 247.811C404.165 249.352 403.992 250.686 405.328 251.565C406.14 251.666 409.041 250.441 412.403 248.742C416.164 246.841 420.401 244.345 423 242.372C423.019 242.353 423.072 242.314 423.091 242.305C423.144 242.266 423.23 242.209 423.331 242.122C423.869 241.657 424.719 240.394 422.087 237.336L423.197 236.386C426.694 240.452 425.18 242.454 424.277 243.231C424.148 243.342 424.018 243.433 423.932 243.495L423.864 243.543C421.184 245.574 416.875 248.118 413.061 250.043C409.291 251.949 405.904 253.264 404.838 252.952L404.747 252.928L404.665 252.875C402.292 251.43 402.441 249.376 403.863 247.052C405.217 244.839 407.792 242.377 410.275 240.005C411.745 238.599 413.181 237.231 414.272 235.997L415.362 236.962Z" fill="#333333"/>
<path fill-rule="evenodd" clip-rule="evenodd" d="M374.417 236.007C372.942 236.612 371.146 237.231 369.311 237.86C365.622 239.122 361.774 240.442 359.565 242.055C357.605 243.491 356.846 245.132 358.297 247.105L358.354 247.182L358.431 247.245C359.31 247.95 363.667 248.065 368.581 247.763C373.336 247.47 378.697 246.827 381.867 245.987L381.944 245.968C382.679 245.804 385.643 245.128 384.226 239.914C384.173 239.722 383.789 238.877 383.433 238.081C383.14 237.433 382.862 236.813 382.828 236.717L381.44 237.173C381.488 237.322 381.786 237.985 382.103 238.681C382.439 239.43 382.799 240.222 382.818 240.294C383.837 244.048 382.064 244.446 381.627 244.542L381.521 244.566C378.442 245.382 373.183 246.011 368.499 246.299C364.046 246.573 360.189 246.568 359.416 246.14C358.7 245.07 359.224 244.11 360.439 243.222C362.461 241.743 366.203 240.462 369.796 239.228C371.622 238.604 373.413 237.989 374.984 237.341L374.417 236.007Z" fill="#333333"/>
<path fill-rule="evenodd" clip-rule="evenodd" d="M411.279 241.061C408.868 243.366 406.36 245.761 405.107 247.811C404.165 249.352 403.992 250.686 405.328 251.565C406.139 251.666 409.041 250.441 412.403 248.742C416.164 246.841 420.401 244.345 423 242.372C423.019 242.353 423.072 242.314 423.091 242.305C423.144 242.266 423.23 242.209 423.331 242.122C423.624 241.873 424.004 241.393 423.879 240.524C423.787 239.861 423.398 238.968 422.452 237.778C421.467 238.205 420.223 238.388 418.979 238.354C417.529 238.316 416.039 237.989 414.954 237.418C414.051 238.402 412.989 239.429 411.889 240.485C411.683 240.677 411.481 240.869 411.279 241.061Z" fill="#FEFEFE"/>
<path fill-rule="evenodd" clip-rule="evenodd" d="M382.809 240.298C382.833 240.385 382.857 240.471 382.876 240.557C383.745 244.071 382.045 244.455 381.618 244.551L381.512 244.575C378.433 245.391 373.173 246.02 368.49 246.308C364.037 246.582 360.18 246.577 359.406 246.15C358.69 245.079 359.214 244.119 360.429 243.231C361.659 242.329 363.532 241.503 365.617 240.716C366.957 240.212 368.379 239.722 369.787 239.242C371.42 238.68 373.024 238.133 374.47 237.557C375.368 238.148 376.756 238.757 378.351 238.863C379.456 238.935 380.662 238.767 381.867 238.186C381.939 238.344 382.016 238.517 382.093 238.685C382.429 239.434 382.785 240.226 382.809 240.298Z" fill="#FEFEFE"/>
<path fill-rule="evenodd" clip-rule="evenodd" d="M403.55 110.491C406.937 121.565 410.722 141.569 414.036 164.188C418.816 187.484 421.895 213.723 421.852 235.954C420.973 236.439 419.69 236.722 418.412 236.751C417.144 236.78 415.915 236.568 415.132 236.074C414.032 231.888 409.598 213.911 403.642 193.058C398.617 175.459 392.012 156.344 388.544 142.937L387.156 137.872C387.07 150.464 386.224 163.689 385.677 172.267C385.513 174.85 385.374 177.01 385.288 178.657C385.283 178.767 385.288 179.189 385.297 179.895C385.379 186.006 385.744 214.021 381.406 236.78C380.388 237.313 379.365 237.466 378.433 237.409C377.165 237.327 376.055 236.852 375.33 236.381C375.248 229.8 375.027 220.343 374.408 210.262C373.774 199.956 372.712 188.963 370.944 179.645C370.8 178.887 368.139 163.631 367.985 142.994C367.909 132.683 368.461 121.028 370.267 109.166C375.037 111.408 380.239 112.44 385.388 112.665C391.844 112.944 398.214 111.955 403.55 110.491Z" fill="#404040" stroke="#404040" stroke-width="0.216" stroke-miterlimit="22.9256"/>
<path fill-rule="evenodd" clip-rule="evenodd" d="M387.161 137.728C387.079 150.363 386.229 163.655 385.682 172.267C385.518 174.85 385.379 177.01 385.292 178.656C385.288 178.767 385.292 179.189 385.302 179.895C385.384 186.006 385.749 214.021 381.411 236.78C380.393 237.312 379.37 237.466 378.438 237.408C377.17 237.327 376.06 236.852 375.335 236.381C375.253 229.8 375.032 220.343 374.413 210.262C373.779 199.956 372.717 188.963 370.949 179.645C370.805 178.887 368.144 163.631 367.99 142.994C367.913 132.395 368.495 120.384 370.426 108.187L368.985 107.961C367.044 120.236 366.458 132.333 366.535 142.994C366.689 163.77 369.369 179.141 369.513 179.904C371.271 189.155 372.323 200.085 372.957 210.339C373.591 220.626 373.807 230.213 373.884 236.77L373.889 237.13L374.177 237.346C375.047 237.994 376.569 238.743 378.351 238.858C379.634 238.94 381.046 238.7 382.444 237.874L382.727 237.706L382.79 237.384C387.219 214.434 386.844 186.039 386.767 179.871C386.758 179.218 386.753 178.82 386.758 178.724C386.839 177.168 386.978 174.974 387.147 172.353C387.627 164.855 388.333 153.819 388.559 142.73L387.161 137.728Z" fill="#333333"/>
<path fill-rule="evenodd" clip-rule="evenodd" d="M378.755 123.759C379.687 124.594 380.738 125.338 381.906 125.885C383.111 126.447 384.447 126.807 385.897 126.85L386.488 126.869L386.556 127.45C388.448 143.676 393.573 159.757 399.626 178.733C404.794 194.944 410.635 213.267 415.722 235.603C416.625 236.011 417.605 236.112 418.561 236.045C419.474 235.978 420.372 235.752 421.16 235.478C420.992 228.859 420.612 218.845 419.757 208.207C419.152 200.656 418.311 192.813 417.139 185.694C416.976 184.709 416.817 183.773 416.654 182.88C416.491 181.978 416.318 181.09 416.145 180.221C416.006 179.539 415.823 178.68 415.641 177.845C415.16 175.622 414.718 173.587 414.469 171.052C414.3 169.339 414.113 167.572 413.911 165.772C413.705 163.924 413.489 162.152 413.272 160.448C412.072 151.102 410.534 142.029 408.8 133.691C406.999 125.041 404.982 117.197 402.902 110.687L404.194 110.279C406.288 116.846 408.32 124.733 410.126 133.417C411.87 141.77 413.412 150.881 414.617 160.28C414.853 162.114 415.069 163.9 415.266 165.623C415.458 167.337 415.645 169.103 415.823 170.923C416.058 173.342 416.496 175.358 416.971 177.552C417.12 178.243 417.274 178.959 417.475 179.952C417.653 180.831 417.826 181.728 417.989 182.636C418.162 183.601 418.33 184.541 418.479 185.468C419.656 192.649 420.506 200.527 421.112 208.097C421.986 218.975 423.023 229.718 423.187 236.376L423.196 236.856L422.745 237.029C420.564 237.855 415.977 238.368 414.329 236.299L414.262 235.992C409.165 213.55 403.512 195.395 398.329 179.136C392.324 160.299 387.228 144.309 385.268 128.166C383.842 128.05 382.53 127.666 381.325 127.105C379.999 126.485 378.812 125.645 377.78 124.704C376.862 123.869 377.837 122.933 378.755 123.759Z" fill="#333333"/>
<path fill-rule="evenodd" clip-rule="evenodd" d="M384.259 47.8166C386.066 47.8598 388.093 47.3653 389.875 46.4388C390.072 46.338 390.264 46.2276 390.456 46.1124L390.033 37.6157C389.428 38.331 388.832 38.9262 388.256 39.4207C384.514 42.6369 381.373 41.7489 381.161 41.6673C381.046 41.6241 380.931 41.5808 380.82 41.5328L380.191 46.1268C380.191 46.1268 380.191 46.1316 380.196 46.1316C381.046 47.2453 382.545 47.7782 384.259 47.8166Z" fill="#FEFEFE"/>
<path fill-rule="evenodd" clip-rule="evenodd" d="M382.569 23.9923C384.053 20.4832 387.992 22.485 388.006 24.3619C387.819 24.1555 386.993 23.6611 386.522 23.6034C386.359 25.6916 383.861 26.1285 383.189 23.9011C382.92 23.8867 382.766 23.8723 382.569 23.9923ZM381.671 40.2992C381.824 40.3568 384.183 41.0001 387.31 38.3119C388.943 36.9101 390.744 34.6156 392.498 30.9048C392.469 30.9144 392.435 30.9241 392.406 30.9337C391.945 31.0585 391.566 30.2232 392.33 29.9352C392.531 29.8584 392.733 29.7528 392.911 29.6279C393.29 29.3687 393.593 29.0471 393.775 28.7591C394.496 27.631 394.683 26.3781 394.434 25.466C394.337 25.1156 394.174 24.8179 393.958 24.6163C393.756 24.4243 393.492 24.3091 393.175 24.2947C392.541 24.2659 391.7 24.6115 390.682 25.5188C390.115 26.0228 389.611 25.3748 389.885 24.9524L389.568 24.5059C389.63 22.5426 389.568 20.9296 389.409 19.6095C389.241 18.2318 388.967 17.1949 388.607 16.4365C388.376 15.9468 388.021 15.4668 387.589 15.0779C387.195 14.7179 386.743 14.4395 386.272 14.2955C385.715 14.1227 385.153 14.1659 384.601 14.3339C383.991 14.5211 383.376 14.8619 382.766 15.2652C382.458 15.4668 382.156 15.6828 381.863 15.894C380.335 16.9885 379.12 17.8574 376.704 17.2141C376.377 17.1277 376.07 16.9645 375.806 16.7389C375.777 16.7149 375.748 16.6909 375.724 16.6669C375.287 17.3293 374.912 18.0926 374.595 18.9327C373.524 21.8129 373.212 25.5428 373.807 29.1287C374.398 32.6858 375.878 36.0797 378.385 38.3215C379.331 39.1567 380.422 39.8384 381.671 40.2992ZM392.435 25.9988C391.83 26.1189 391.763 25.6148 392.397 25.5092C392.589 25.4804 392.762 25.4804 392.916 25.5188C393.17 25.5764 393.362 25.7156 393.492 25.9172C393.612 26.1045 393.675 26.3445 393.675 26.6133C393.675 27.0597 393.502 27.6166 393.141 28.1734C393.007 28.3846 392.781 28.6247 392.512 28.8071C392.368 28.9079 392.21 28.9895 392.037 29.0471C391.623 29.1911 391.455 28.7735 391.969 28.5527C392.061 28.5143 392.152 28.4614 392.238 28.4038C392.454 28.2598 392.627 28.0726 392.733 27.9094C393.041 27.4294 393.189 26.9733 393.189 26.6133C393.189 26.4357 393.156 26.2869 393.084 26.1813C393.021 26.0853 392.93 26.0228 392.81 25.994C392.704 25.97 392.579 25.97 392.435 25.9988ZM374.076 23.8435C375.426 20.2816 379.442 22.1345 379.528 24.0115C379.331 23.8147 378.491 23.349 378.015 23.3106C377.934 25.4036 375.45 25.9316 374.696 23.7331C374.427 23.7235 374.268 23.7187 374.076 23.8435ZM380.388 32.7338C383.179 34.9852 384.192 30.9913 384.682 30.3768C384.543 35.3356 380.739 34.99 380.388 32.7338ZM379.658 28.9943C379.985 29.1719 380.508 29.3543 381.666 29.3783C379.279 30.324 378.438 29.2151 378.472 28.183C378.51 26.7909 379.817 27.0693 379.552 24.8131C380.686 26.3973 378.126 28.1638 379.658 28.9943Z" fill="#FEFEFE"/>
<path d="M340.502 75.941L345.582 77.5504L341.865 89.276C340.779 92.6992 342.276 96.2559 345.697 97.3399L358.139 101.282L356.43 106.672C355.049 111.029 357.385 115.537 361.739 116.916C366.094 118.296 370.6 115.957 371.982 111.6L373.69 106.209L386.132 110.151C389.553 111.235 393.24 109.321 394.326 105.898L397.846 94.7946L393.18 93.3164C388.515 91.8382 385.966 86.9212 387.446 82.2531C388.926 77.585 393.842 75.0331 398.508 76.5113L403.173 77.9895L406.922 66.1636C408.008 62.7404 406.096 59.0526 402.675 57.9686L390.855 54.2238L389.376 58.8919C387.896 63.56 382.979 66.1119 378.314 64.6337C373.648 63.1555 371.1 58.2385 372.58 53.5704L374.06 48.9023L362.24 45.1575C358.819 44.0735 355.51 46.1075 354.425 49.5307L350.479 61.979L345.435 60.3807C341.08 59.0011 336.547 61.2883 335.165 65.6452C333.784 70.0021 336.147 74.5614 340.502 75.941Z" fill="url(#paint1_linear_6344_154729)"/>
<path fill-rule="evenodd" clip-rule="evenodd" d="M340.502 75.941C336.147 74.5614 333.784 70.0021 335.165 65.6452C336.547 61.2883 341.08 59.0011 345.435 60.3807L350.479 61.979L354.425 49.5307C355.51 46.1075 358.819 44.0735 362.24 45.1575L374.06 48.9023L372.58 53.5704C371.1 58.2385 373.648 63.1555 378.314 64.6337C382.979 66.1119 387.896 63.56 389.376 58.8919L390.855 54.2238L402.675 57.9686C406.096 59.0526 408.008 62.7404 406.922 66.1636L403.173 77.9895L398.508 76.5113C393.842 75.0331 388.926 77.585 387.446 82.2531C385.966 86.9212 388.515 91.8382 393.18 93.3164L397.846 94.7946L394.326 105.898C393.24 109.321 389.553 111.235 386.132 110.151L373.69 106.209L371.982 111.6C370.6 115.957 366.094 118.296 361.739 116.916C357.385 115.537 355.049 111.029 356.43 106.672L358.139 101.282L345.697 97.3399C342.276 96.2559 340.779 92.6992 341.865 89.276L345.582 77.5504L340.502 75.941ZM395.962 95.7714L392.896 105.445C392.061 108.079 389.216 109.555 386.585 108.721L372.714 104.326L370.552 111.147C369.421 114.715 365.756 116.616 362.192 115.486C358.628 114.357 356.729 110.694 357.86 107.126L360.022 100.305L346.15 95.9099C343.646 95.1166 342.417 92.4966 343.294 89.7293L347.465 76.5735L340.955 74.5111C340.955 74.5111 340.955 74.5111 340.955 74.5111C337.391 73.3819 335.464 69.6664 336.595 66.0985C337.72 62.5493 341.398 60.6754 344.981 61.8107L351.456 63.8619L355.855 49.984C356.729 47.2289 359.272 45.7905 361.787 46.5875L372.176 49.8791L371.15 53.1171C369.42 58.5742 372.405 64.3349 377.861 66.0636C383.317 67.7923 389.075 64.8021 390.805 59.3452L391.832 56.1067L402.222 59.3985C404.852 60.232 406.328 63.0761 405.492 65.7104L402.197 76.1065L398.961 75.0813C393.505 73.3527 387.746 76.3429 386.016 81.7998C384.286 87.2568 387.271 93.0176 392.727 94.7463L395.962 95.7714Z" fill="#333333"/>
<path d="M379.767 80.4134C381.692 77.0789 389.174 78.6275 392.267 80.4134C395.36 82.1993 393.267 86.0955 391.867 88.5213C390.466 90.9471 385.923 89.4492 382.83 87.6633C379.736 85.8774 378.855 81.9925 379.767 80.4134Z" fill="white"/>
<path fill-rule="evenodd" clip-rule="evenodd" d="M382.515 80.1962C381.735 80.4224 381.295 80.7676 381.066 81.1634C380.924 81.4091 380.786 82.2621 381.21 83.4601C381.604 84.5723 382.391 85.678 383.58 86.3643C385.038 87.2061 386.776 87.9399 388.239 88.1938C389.82 88.468 390.377 88.1013 390.568 87.7713C391.282 86.535 392.028 85.1527 392.283 83.9223C392.407 83.3267 392.389 82.8838 392.283 82.5645C392.19 82.2851 391.997 81.9892 391.517 81.7124C390.188 80.945 387.766 80.1673 385.463 79.9888C384.321 79.9003 383.304 79.9677 382.515 80.1962ZM392.267 80.4134C389.174 78.6275 381.692 77.0789 379.767 80.4134C378.855 81.9925 379.736 85.8774 382.83 87.6633C385.923 89.4492 390.466 90.9471 391.867 88.5213C393.267 86.0955 395.36 82.1993 392.267 80.4134Z" fill="#333333"/>
<path d="M349.077 82.2576C349.022 81.0566 348.253 79.6482 347.187 78.5165C346.664 77.9614 346.099 77.5051 345.569 77.1976C345.025 76.881 344.59 76.7633 344.307 76.776C344.168 76.7823 343.954 76.8695 343.691 77.2836C343.431 77.694 343.205 78.3066 343.029 79.0642C342.678 80.5701 342.571 82.4394 342.635 83.8421C342.688 85.02 343.233 85.6967 343.956 86.1059C344.723 86.5403 345.727 86.686 346.619 86.6457C347.183 86.6203 347.816 86.1148 348.343 85.1319C348.849 84.1863 349.112 83.0485 349.077 82.2576Z" fill="white" stroke="#333333" stroke-width="1.5"/>
</g>
<defs>
<linearGradient id="paint0_linear_6344_154729" x1="68.6924" y1="136.531" x2="80.6924" y2="149" gradientUnits="userSpaceOnUse">
<stop stop-color="#FF8E3D"/>
<stop offset="1" stop-color="#FF6F3D"/>
</linearGradient>
<linearGradient id="paint1_linear_6344_154729" x1="340.985" y1="38.4176" x2="388.181" y2="125.297" gradientUnits="userSpaceOnUse">
<stop stop-color="#FF8E3D"/>
<stop offset="1" stop-color="#FF6F3D"/>
</linearGradient>
<clipPath id="clip0_6344_154729">
<rect width="448" height="254" fill="white"/>
</clipPath>
<clipPath id="clip1_6344_154729">
<rect width="59" height="22" fill="white" transform="translate(18.5 9.53076)"/>
</clipPath>
</defs>
</svg>
