<svg width="448" height="254" viewBox="0 0 448 254" fill="none" xmlns="http://www.w3.org/2000/svg">
<path d="M222.431 253.553C332.682 253.553 422.059 251.414 422.059 248.776C422.059 246.138 332.682 244 222.431 244C112.18 244 22.8032 246.138 22.8032 248.776C22.8032 251.414 112.18 253.553 222.431 253.553Z" fill="#EFEFEF"/>
<path fill-rule="evenodd" clip-rule="evenodd" d="M295.28 72.465L272.497 95.232C270.614 97.1146 270.279 100.066 271.763 102.316L276.517 109.735C278.576 112.941 278.719 116.978 277.267 120.488C275.815 124.014 272.848 126.742 269.131 127.556L260.515 129.422C257.899 129.997 256.032 132.294 256.032 134.975L256 167.171C256 169.851 257.851 172.164 260.467 172.723L269.083 174.589C272.8 175.403 275.752 178.147 277.203 181.657C278.655 185.167 278.496 189.204 276.438 192.411L271.667 199.829C270.215 202.079 270.535 205.031 272.417 206.913L295.168 229.68C297.051 231.563 300.002 231.898 302.252 230.446L309.671 225.676C312.878 223.618 316.914 223.474 320.424 224.926C323.934 226.394 326.678 229.345 327.476 233.063L329.343 241.678C329.917 244.279 332.214 246.145 334.895 246.145H367.059C369.723 246.145 372.037 244.294 372.611 241.678L374.494 233.063C375.307 229.345 378.052 226.378 381.562 224.926C385.072 223.474 389.108 223.618 392.315 225.676L399.718 230.446C401.967 231.882 404.919 231.563 406.801 229.68L429.584 206.913C431.467 205.031 431.786 202.079 430.35 199.829L425.596 192.411C423.538 189.204 423.378 185.167 424.846 181.657C426.298 178.131 429.265 175.403 432.983 174.589L441.598 172.723C444.215 172.148 446.081 169.835 446.081 167.171L446.097 134.975C446.097 132.294 444.247 129.997 441.63 129.422L433.031 127.556C429.313 126.742 426.362 123.998 424.91 120.488C423.458 116.978 423.617 112.941 425.676 109.735L430.446 102.316C431.898 100.066 431.579 97.1146 429.696 95.232L406.945 72.465C405.062 70.5664 402.111 70.2473 399.861 71.6992L392.442 76.4696C389.236 78.5277 385.199 78.6713 381.689 77.2194C378.179 75.7676 375.435 72.8 374.637 69.0827L372.771 60.4672C372.196 57.8667 369.899 56 367.218 56H335.022C332.358 56 330.045 57.8507 329.47 60.4672L327.588 69.0827C326.774 72.8 324.03 75.7676 320.52 77.2194C317.01 78.6713 312.973 78.5277 309.766 76.4696L302.364 71.6992C300.13 70.2633 297.178 70.5824 295.28 72.465ZM351.049 191.265C372.642 191.265 390.146 173.761 390.146 152.168C390.146 130.575 372.642 113.071 351.049 113.071C329.456 113.071 311.952 130.575 311.952 152.168C311.952 173.761 329.456 191.265 351.049 191.265Z" fill="#EFEFEF"/>
<path d="M301.495 7.49621V179.5H0.5V7.49621C0.5 3.59413 3.59981 0.5 7.50524 0.5H294.495C298.315 0.5 301.358 3.45413 301.495 7.22998V7.49621Z" fill="#AAAAAA" stroke="#333333"/>
<path d="M6.5 173.5V6.5H295.5V173.5H6.5Z" fill="white" stroke="#333333"/>
<g clip-path="url(#clip0_6344_157598)">
<path fill-rule="evenodd" clip-rule="evenodd" d="M98 101C98 101.552 97.5523 102 97 102H48C47.4477 102 47 101.552 47 101C47 100.448 47.4477 100 48 100H97C97.5523 100 98 100.448 98 101Z" fill="#E2E2E2"/>
<path fill-rule="evenodd" clip-rule="evenodd" d="M98 125C98 125.552 97.5523 126 97 126H68C67.4477 126 67 125.552 67 125C67 124.448 67.4477 124 68 124H97C97.5523 124 98 124.448 98 125Z" fill="#E2E2E2"/>
<path fill-rule="evenodd" clip-rule="evenodd" d="M98 149C98 149.552 97.5523 150 97 150H58C57.4477 150 57 149.552 57 149C57 148.448 57.4477 148 58 148H97C97.5523 148 98 148.448 98 149Z" fill="#E2E2E2"/>
<path fill-rule="evenodd" clip-rule="evenodd" d="M98 86C98 87.1046 97.1046 88 96 88H43C41.8954 88 41 87.1046 41 86C41 84.8954 41.8954 84 43 84H96C97.1046 84 98 84.8954 98 86Z" fill="#E2E2E2"/>
<path d="M176.5 102C176.5 102.828 175.828 103.5 175 103.5H110C109.172 103.5 108.5 102.828 108.5 102V97C108.5 96.1716 109.172 95.5 110 95.5H175C175.828 95.5 176.5 96.1716 176.5 97V102Z" stroke="#E2E2E2"/>
<path d="M176.5 127C176.5 127.828 175.828 128.5 175 128.5H110C109.172 128.5 108.5 127.828 108.5 127V122C108.5 121.172 109.172 120.5 110 120.5H175C175.828 120.5 176.5 121.172 176.5 122V127Z" stroke="#E2E2E2"/>
<path d="M176.5 150C176.5 150.828 175.828 151.5 175 151.5H110C109.172 151.5 108.5 150.828 108.5 150V145C108.5 144.172 109.172 143.5 110 143.5H175C175.828 143.5 176.5 144.172 176.5 145V150Z" stroke="#E2E2E2"/>
<path fill-rule="evenodd" clip-rule="evenodd" d="M218 110C218 110.552 217.552 111 217 111H109C108.448 111 108 110.552 108 110C108 109.448 108.448 109 109 109H217C217.552 109 218 109.448 218 110Z" fill="#E2E2E2"/>
<path fill-rule="evenodd" clip-rule="evenodd" d="M272 135C272 135.552 271.552 136 271 136H109C108.448 136 108 135.552 108 135C108 134.448 108.448 134 109 134H271C271.552 134 272 134.448 272 135Z" fill="#E2E2E2"/>
<path fill-rule="evenodd" clip-rule="evenodd" d="M211 158C211 158.552 210.552 159 210 159H109C108.448 159 108 158.552 108 158C108 157.448 108.448 157 109 157H210C210.552 157 211 157.448 211 158Z" fill="#E2E2E2"/>
<path fill-rule="evenodd" clip-rule="evenodd" d="M79 55C79 56.1046 78.1046 57 77 57H42C40.8954 57 40 56.1046 40 55C40 53.8954 40.8954 53 42 53H77C78.1046 53 79 53.8954 79 55Z" fill="#E2E2E2"/>
<path fill-rule="evenodd" clip-rule="evenodd" d="M63 46C63 46.5523 62.5523 47 62 47H41C40.4477 47 40 46.5523 40 46C40 45.4477 40.4477 45 41 45H62C62.5523 45 63 45.4477 63 46Z" fill="#9ADAF3"/>
<path fill-rule="evenodd" clip-rule="evenodd" d="M105 46C105 46.5523 104.552 47 104 47H71C70.4477 47 70 46.5523 70 46C70 45.4477 70.4477 45 71 45H104C104.552 45 105 45.4477 105 46Z" fill="#E2E2E2"/>
<path fill-rule="evenodd" clip-rule="evenodd" d="M53 68C53 68.5523 52.5523 69 52 69H41C40.4477 69 40 68.5523 40 68C40 67.4477 40.4477 67 41 67H52C52.5523 67 53 67.4477 53 68Z" fill="#9ADAF3"/>
<path fill-rule="evenodd" clip-rule="evenodd" d="M74 68C74 68.5523 73.5523 69 73 69H62C61.4477 69 61 68.5523 61 68C61 67.4477 61.4477 67 62 67H73C73.5523 67 74 67.4477 74 68Z" fill="#9ADAF3"/>
<path fill-rule="evenodd" clip-rule="evenodd" d="M95 68C95 68.5523 94.5523 69 94 69H83C82.4477 69 82 68.5523 82 68C82 67.4477 82.4477 67 83 67H94C94.5523 67 95 67.4477 95 68Z" fill="#CCCCCC"/>
<path fill-rule="evenodd" clip-rule="evenodd" d="M116 68C116 68.5523 115.552 69 115 69H104C103.448 69 103 68.5523 103 68C103 67.4477 103.448 67 104 67H115C115.552 67 116 67.4477 116 68Z" fill="#9ADAF3"/>
<path fill-rule="evenodd" clip-rule="evenodd" d="M137 68C137 68.5523 136.552 69 136 69H125C124.448 69 124 68.5523 124 68C124 67.4477 124.448 67 125 67H136C136.552 67 137 67.4477 137 68Z" fill="#9ADAF3"/>
<path fill-rule="evenodd" clip-rule="evenodd" d="M158 68C158 68.5523 157.552 69 157 69H146C145.448 69 145 68.5523 145 68C145 67.4477 145.448 67 146 67H157C157.552 67 158 67.4477 158 68Z" fill="#9ADAF3"/>
<path fill-rule="evenodd" clip-rule="evenodd" d="M274 75H29V74H274V75Z" fill="#E2E2E2"/>
</g>
<line x1="8" y1="32.5" x2="294" y2="32.5" stroke="#E2E2E2"/>
<g clip-path="url(#clip1_6344_157598)">
<path d="M25.5013 25.102V20.7498C25.5013 19.8416 25.112 19.3835 24.3415 19.3835C23.5669 19.3835 23.1775 19.8376 23.1775 20.7498V25.102H20.8951V20.7498C20.8951 19.8416 20.514 19.3835 19.7518 19.3835C18.9772 19.3835 18.592 19.8376 18.592 20.7498V25.102H16.3096V20.4926C16.3096 19.5442 16.6492 18.8249 17.3286 18.3386C17.9251 17.9046 18.737 17.6836 19.756 17.6836C20.7874 17.6836 21.5496 17.9408 22.0384 18.4552C22.4609 17.9408 23.2272 17.6836 24.3415 17.6836C25.3605 17.6836 26.1682 17.9006 26.7647 18.3386C27.4441 18.8249 27.7837 19.5442 27.7837 20.4926V25.102H25.5013Z" fill="#F98012"/>
<path d="M53.4829 25.0819V12.6523H55.7695V25.0819H53.4829Z" fill="#F98012"/>
<path d="M50.5703 25.0819V24.3505C50.3673 24.6158 50.0193 24.8247 49.5306 24.9855C49.0956 25.1301 48.6814 25.2025 48.2879 25.2025C47.1984 25.2025 46.3244 24.8408 45.6658 24.1134C45.0072 23.3901 44.6758 22.4899 44.6758 21.421C44.6758 20.3641 44.9989 19.48 45.6451 18.7687C46.2167 18.1378 47.1529 17.6997 48.2257 17.6997C49.4353 17.6997 50.1436 18.1418 50.5703 18.6481V12.6523H52.7947V25.0819H50.5703ZM50.5703 20.9427C50.5703 20.5489 50.3756 20.1672 49.9904 19.8055C49.6051 19.4438 49.2033 19.263 48.7974 19.263C48.2133 19.263 47.7494 19.496 47.4097 19.9542C47.1115 20.3641 46.9623 20.8664 46.9623 21.4571C46.9623 22.0398 47.1115 22.5341 47.4097 22.94C47.7494 23.4142 48.2133 23.6513 48.7974 23.6513C49.1495 23.6513 49.5347 23.4905 49.9489 23.165C50.3632 22.8435 50.5703 22.51 50.5703 22.1644V20.9427Z" fill="#F98012"/>
<path d="M40.3733 25.2785C39.2176 25.2785 38.2607 24.9209 37.5068 24.2096C36.7529 23.4983 36.376 22.5821 36.376 21.4568C36.376 20.3357 36.7529 19.4194 37.5068 18.7081C38.2607 17.9968 39.2176 17.6392 40.3733 17.6392C41.529 17.6392 42.49 17.9968 43.2481 18.7081C44.0103 19.4194 44.3913 20.3397 44.3913 21.4568C44.3913 22.578 44.0103 23.4943 43.2481 24.2096C42.4859 24.9209 41.529 25.2785 40.3733 25.2785ZM40.3733 19.4194C39.8224 19.4194 39.3999 19.6203 39.1016 20.0262C38.8075 20.4321 38.6584 20.9103 38.6584 21.4689C38.6584 22.0275 38.7951 22.4977 39.0726 22.8794C39.3874 23.3175 39.8224 23.5345 40.3733 23.5345C40.9242 23.5345 41.355 23.3175 41.674 22.8794C41.964 22.4936 42.1089 22.0235 42.1089 21.4689C42.1089 20.9103 41.9722 20.4401 41.6947 20.0584C41.3757 19.6324 40.9367 19.4194 40.3733 19.4194Z" fill="#F98012"/>
<path d="M32.1077 25.2785C30.952 25.2785 29.9951 24.9209 29.2412 24.2096C28.4873 23.4983 28.1104 22.5821 28.1104 21.4568C28.1104 20.3357 28.4873 19.4194 29.2412 18.7081C29.9951 17.9968 30.952 17.6392 32.1077 17.6392C33.2634 17.6392 34.2202 17.9968 34.9824 18.7081C35.7446 19.4194 36.1257 20.3397 36.1257 21.4568C36.1257 22.578 35.7446 23.4943 34.9824 24.2096C34.2244 24.9209 33.2634 25.2785 32.1077 25.2785ZM32.1077 19.4194C31.5567 19.4194 31.1342 19.6203 30.836 20.0262C30.5419 20.4321 30.3928 20.9103 30.3928 21.4689C30.3928 22.0275 30.5295 22.4977 30.807 22.8794C31.1218 23.3175 31.5567 23.5345 32.1077 23.5345C32.6586 23.5345 33.0894 23.3175 33.4084 22.8794C33.6983 22.4936 33.8433 22.0235 33.8433 21.4689C33.8433 20.9103 33.7066 20.4401 33.4291 20.0584C33.1143 19.6324 32.6752 19.4194 32.1077 19.4194Z" fill="#F98012"/>
<path d="M58.4758 22.1319C58.5255 22.6583 59.2297 23.7956 60.3937 23.7956C61.5245 23.7956 62.0589 23.1607 62.0879 22.9035L64.4945 22.8834C64.2336 23.663 63.1649 25.3187 60.3522 25.3187C59.1841 25.3187 58.1112 24.965 57.3449 24.2618C56.5786 23.5545 56.1934 22.6342 56.1934 21.501C56.1934 20.3275 56.5786 19.3952 57.3449 18.7C58.1154 18.0088 59.1095 17.6592 60.3357 17.6592C61.6695 17.6592 62.7092 18.0892 63.4548 18.9451C64.1466 19.7368 64.4945 20.7977 64.4945 22.1319H58.4758ZM62.208 20.7656C62.1127 20.2914 61.9097 19.9016 61.5949 19.5962C61.2387 19.2666 60.8327 19.1019 60.3688 19.1019C59.8924 19.1019 59.4948 19.2586 59.1758 19.5761C58.8569 19.8935 58.6415 20.2874 58.5338 20.7656H62.208Z" fill="#F98012"/>
<path d="M20.742 17.3504L23.0078 15.7429L22.9788 15.6465C18.8904 16.1327 17.0305 16.4783 13.5054 18.4595L13.5385 18.5479L13.8202 18.5519C13.7953 18.8252 13.7498 19.5003 13.8078 20.5211C13.4184 21.6181 13.7995 22.3656 14.1557 23.1774C14.2137 22.3335 14.2054 21.4092 13.9403 20.4889C13.8865 19.4802 13.932 18.8132 13.9569 18.556L16.2931 18.5761C16.2931 18.5761 16.2766 19.2592 16.3636 19.9062C18.4513 20.6175 20.5514 19.9022 21.6657 18.1501C21.3509 17.8085 20.742 17.3504 20.742 17.3504Z" fill="#333333"/>
</g>
<path d="M188 239.5H188.561L188.497 238.943L184.831 206.943L184.78 206.5H184.334H116.4H115.964L115.905 206.932L111.505 238.932L111.427 239.5H112H188Z" fill="#CCCCCC" stroke="#333333"/>
<path d="M0.5 199.442V179.5H301.5V199.442C301.5 203.382 298.396 206.5 294.495 206.5H7.50536C3.59909 206.5 0.5 203.383 0.5 199.442Z" fill="#E2E2E2" stroke="#333333"/>
<path d="M101.333 242.5L111.106 239.5H188.894L198.667 242.5H101.333Z" fill="#E2E2E2" stroke="#333333"/>
<path d="M201.281 243.5L200.909 244.5H98.9858L98.6774 243.5H201.281Z" fill="#AAAAAA" stroke="#333333"/>
<path d="M156.5 192.497C156.5 195.26 154.259 197.5 151.5 197.5C148.741 197.5 146.5 195.26 146.5 192.497C146.5 189.74 148.74 187.5 151.5 187.5C154.26 187.5 156.5 189.735 156.5 192.497Z" fill="#AAAAAA" stroke="#333333"/>
<path fill-rule="evenodd" clip-rule="evenodd" d="M338.881 77.7538C339.415 77.7538 339.852 77.317 339.852 76.7841C339.852 76.2513 339.415 75.8145 338.881 75.8145C338.348 75.8145 337.911 76.2513 337.911 76.7841C337.916 77.3218 338.348 77.7538 338.881 77.7538Z" fill="#FEFEFE"/>
<path fill-rule="evenodd" clip-rule="evenodd" d="M358.579 47.1132C358.238 48.947 357.59 51.5152 356.442 52.144C355.664 52.5761 354.472 51.8896 352.652 48.8749C354.477 48.7837 356.427 48.2461 358.161 47.3388C358.301 47.2668 358.44 47.19 358.579 47.1132ZM350.034 48.6685C349.16 49.715 348.377 50.4255 347.695 50.8911C346.681 51.5776 345.985 51.6832 345.595 51.5488C345.264 51.4288 345.096 50.8671 345.033 50.1615C344.918 48.9182 345.154 47.3676 345.341 46.5036C345.701 46.4555 346.076 46.4075 346.455 46.3691L346.647 46.638C347.454 47.6892 348.646 48.3517 350.034 48.6685Z" fill="#CCCCCC" stroke="#CCCCCC" stroke-width="0.216" stroke-miterlimit="22.9256"/>
<path fill-rule="evenodd" clip-rule="evenodd" d="M358.646 23.639C358.685 21.8244 358.617 20.3075 358.469 19.045C358.281 17.5041 357.959 16.3184 357.537 15.4207C357.224 14.7582 356.754 14.1198 356.182 13.6061C355.639 13.1117 354.996 12.7181 354.304 12.5068C353.439 12.2428 352.599 12.2956 351.782 12.5452C351.018 12.7757 350.288 13.1789 349.573 13.6493C349.217 13.8798 348.91 14.1006 348.617 14.3118C347.401 15.1807 346.431 15.8767 344.687 15.4063C344.567 15.3727 344.452 15.3151 344.356 15.2335C344.217 15.1135 344.106 14.9502 344.049 14.7582C343.986 14.5518 343.981 14.3118 344.053 14.043C344.125 13.7645 344.289 13.4621 344.553 13.1501L344.587 13.1021C344.683 12.9677 344.803 12.8333 344.942 12.6989C346.114 11.5564 348.453 10.6731 351.114 10.4907C353.795 10.3083 356.773 10.8603 359.175 12.5981C359.636 12.9293 360.073 13.3037 360.486 13.7309C361.461 14.7342 362.21 16.1311 362.6 18.0321C362.936 19.6786 363.003 21.6996 362.715 24.167C362.58 23.9222 362.417 23.7062 362.225 23.5238C361.855 23.1781 361.384 22.9669 360.827 22.9381C360.207 22.9045 359.472 23.1109 358.646 23.639Z" fill="#666666" stroke="#666666" stroke-width="0.216" stroke-miterlimit="22.9256"/>
<path fill-rule="evenodd" clip-rule="evenodd" d="M342.944 14.3838C342.079 15.3535 341.373 16.5968 340.84 18.0225C339.682 21.1331 339.341 25.1367 339.975 28.9626C340.614 32.8221 342.247 36.528 345.019 39.005C346.095 39.9651 347.344 40.7428 348.77 41.2756C348.982 41.3572 352.128 42.2405 355.865 39.029C357.709 37.4401 359.741 34.8335 361.677 30.5947L360.351 29.9899C358.516 34.0126 356.624 36.456 354.919 37.9201C351.792 40.6084 349.433 39.9651 349.279 39.9075C348.03 39.4467 346.94 38.765 345.999 37.9201C343.491 35.6783 342.012 32.2845 341.421 28.7274C340.825 25.1415 341.138 21.4068 342.209 18.5313C342.679 17.2736 343.289 16.1839 344.034 15.3535L342.944 14.3838Z" fill="#333333"/>
<path fill-rule="evenodd" clip-rule="evenodd" d="M358.613 24.6759C358.704 22.3909 358.646 20.538 358.464 19.045C358.276 17.5041 357.955 16.3184 357.532 15.4207C357.22 14.7583 356.749 14.1198 356.177 13.6062C355.635 13.1118 354.991 12.7181 354.299 12.5069C353.435 12.2429 352.594 12.2957 351.777 12.5453C351.014 12.7757 350.283 13.179 349.568 13.6494C349.212 13.8798 348.905 14.1006 348.612 14.3119C347.397 15.1807 346.426 15.8768 344.683 15.4063C344.562 15.3727 344.447 15.3151 344.351 15.2335C344.212 15.1135 344.101 14.9503 344.044 14.7583C343.981 14.5519 343.976 14.3119 344.049 14.043C344.121 13.7646 344.284 13.4622 344.548 13.1502L344.582 13.1022C344.678 12.9677 344.798 12.8333 344.937 12.6989C346.109 11.5564 348.449 10.6732 351.11 10.4907C353.79 10.3083 356.768 10.8604 359.17 12.5981C359.631 12.9293 360.068 13.3038 360.481 13.731C361.456 14.7343 362.206 16.1312 362.595 18.0322C362.955 19.8035 363.003 22.0021 362.643 24.7239L362.59 25.1367C362.407 26.5625 362.292 27.4505 361.413 28.6698C361.288 28.8427 361.144 29.0299 360.976 29.2315C360.832 29.4091 360.664 29.6011 360.472 29.8027L360.64 30.4076L361.538 30.7964C361.725 30.5948 361.913 30.3836 362.095 30.158C362.263 29.9563 362.427 29.7451 362.59 29.5195C363.68 28.0026 363.815 26.9753 364.031 25.324L364.084 24.9111C364.468 22.0213 364.41 19.6595 364.017 17.7393C363.57 15.5408 362.681 13.9038 361.519 12.7133C361.048 12.2285 360.544 11.8013 360.015 11.4172C357.306 9.45386 353.982 8.83461 350.999 9.03622C347.997 9.23784 345.307 10.2891 343.904 11.6524C343.722 11.8301 343.559 12.0173 343.414 12.2093C343.001 12.6941 342.747 13.1886 342.622 13.6638C342.478 14.2062 342.497 14.7247 342.636 15.1807C342.78 15.6512 343.049 16.0496 343.395 16.3424C343.659 16.5632 343.967 16.7265 344.293 16.8177C346.705 17.4657 347.92 16.592 349.452 15.4976C349.745 15.2911 350.048 15.0703 350.355 14.8687C350.966 14.4655 351.58 14.1246 352.19 13.9374C352.748 13.7694 353.305 13.731 353.862 13.899C354.333 14.043 354.784 14.3215 355.178 14.6815C355.606 15.0703 355.961 15.5504 356.197 16.04C356.557 16.7985 356.831 17.8353 356.999 19.2131C357.157 20.5332 357.22 22.1461 357.157 24.1095L357.527 24.6279L358.613 24.6759Z" fill="#333333"/>
<path fill-rule="evenodd" clip-rule="evenodd" d="M358.29 25.1274C359.314 24.2249 360.149 23.8745 360.783 23.9033C361.101 23.9177 361.36 24.0377 361.566 24.2249C361.787 24.4313 361.946 24.7241 362.042 25.0746C362.297 25.9866 362.104 27.2395 361.384 28.3676C361.201 28.6557 360.894 28.9773 360.519 29.2365C360.337 29.3613 360.14 29.4669 359.938 29.5437C359.174 29.827 359.554 30.667 360.015 30.5422C360.394 30.4366 360.755 30.259 361.072 30.043C361.557 29.7118 361.96 29.2797 362.205 28.8957C363.08 27.5276 363.301 25.977 362.983 24.8201C362.839 24.2969 362.585 23.8457 362.229 23.5192C361.859 23.1736 361.389 22.9624 360.832 22.9336C359.952 22.8904 358.848 23.3224 357.58 24.4553C357.128 24.8633 357.676 25.6698 358.29 25.1274Z" fill="#333333"/>
<path fill-rule="evenodd" clip-rule="evenodd" d="M360.044 25.6072C360.188 25.5784 360.313 25.5784 360.418 25.6024C360.539 25.6312 360.635 25.6984 360.692 25.7896C360.759 25.9 360.798 26.0488 360.798 26.2216C360.798 26.5817 360.649 27.0425 360.342 27.5177C360.236 27.681 360.063 27.8682 359.847 28.0122C359.765 28.0698 359.674 28.1226 359.578 28.161C359.064 28.3818 359.232 28.7994 359.645 28.6554C359.813 28.5978 359.977 28.5114 360.121 28.4154C360.39 28.233 360.615 27.993 360.75 27.7818C361.105 27.2249 361.283 26.6729 361.283 26.2216C361.283 25.9528 361.221 25.7128 361.101 25.5256C360.971 25.324 360.779 25.1848 360.524 25.1271C360.375 25.0935 360.202 25.0887 360.005 25.1175C359.366 25.2232 359.439 25.7272 360.044 25.6072Z" fill="#333333"/>
<path fill-rule="evenodd" clip-rule="evenodd" d="M359.545 46.0807L359.007 35.1694L357.546 35.2366L358.089 46.1479L359.545 46.0807Z" fill="#333333"/>
<path fill-rule="evenodd" clip-rule="evenodd" d="M347.766 46.0231L348.563 40.1714L347.118 39.9746L346.315 45.8263L347.766 46.0231Z" fill="#333333"/>
<path fill-rule="evenodd" clip-rule="evenodd" d="M358.843 45.4858L358.829 45.5674C358.632 46.902 357.988 51.2943 356.441 52.144C355.577 52.624 354.203 51.7263 352.022 47.7804L350.74 48.4813C353.454 53.3969 355.558 54.2994 357.143 53.4209C359.328 52.216 360.054 47.2716 360.275 45.7739L360.289 45.6923L358.843 45.4858Z" fill="#333333"/>
<path fill-rule="evenodd" clip-rule="evenodd" d="M344.044 45.6538C343.847 46.3643 343.415 48.5724 343.578 50.2958C343.693 51.5295 344.121 52.5712 345.11 52.9216C345.86 53.1856 347.046 53.0944 348.516 52.0959C349.506 51.4191 350.673 50.3102 351.965 48.5676L350.793 47.6988C349.606 49.2925 348.564 50.2958 347.69 50.891C346.676 51.5775 345.98 51.6831 345.591 51.5487C345.259 51.4287 345.091 50.867 345.029 50.1614C344.885 48.6445 345.274 46.6811 345.447 46.0474L344.044 45.6538Z" fill="#333333"/>
<path fill-rule="evenodd" clip-rule="evenodd" d="M349.274 28.9866C346.887 29.9322 346.046 28.8233 346.08 27.7913C346.118 26.3991 347.425 26.6776 347.161 24.4214C348.294 26.0103 345.739 27.7721 347.266 28.6025C347.593 28.7801 348.112 28.9626 349.274 28.9866Z" fill="#333333"/>
<path fill-rule="evenodd" clip-rule="evenodd" d="M347.997 32.3423C350.788 34.5937 351.801 30.5998 352.291 29.9854C352.152 34.9442 348.348 34.5985 347.997 32.3423Z" fill="#333333"/>
<path fill-rule="evenodd" clip-rule="evenodd" d="M350.178 23.6007C351.662 20.0916 355.601 22.0934 355.615 23.9703C355.428 23.7639 354.602 23.2695 354.131 23.2119C353.968 25.3 351.47 25.7369 350.797 23.5095C350.533 23.4951 350.375 23.4807 350.178 23.6007Z" fill="#333333"/>
<path fill-rule="evenodd" clip-rule="evenodd" d="M341.685 23.4518C343.035 19.8899 347.051 21.7429 347.137 23.6198C346.94 23.423 346.099 22.9574 345.624 22.919C345.542 25.012 343.059 25.54 342.305 23.3414C342.036 23.3318 341.877 23.327 341.685 23.4518Z" fill="#333333"/>
<path fill-rule="evenodd" clip-rule="evenodd" d="M308.555 46.4504C307.767 42.9509 307.969 40.938 308.267 39.4595L308.31 39.2531C308.401 38.7922 308.541 38.2786 308.67 37.7889C308.935 36.7905 309.175 35.888 309.06 35.2303C308.915 34.3999 308.435 33.9726 307.383 34.155C305.678 34.4479 304.861 36.0272 304.174 37.3473C303.809 38.053 303.502 38.6434 303.411 38.629C303.315 38.5954 303.219 38.5522 303.122 38.4994C303.017 38.4418 302.911 38.365 302.796 38.2834C302.594 38.1346 302.263 37.8417 301.854 37.4865C299.544 35.4511 295.005 31.4524 291.849 34.1214C290.974 34.8607 290.513 36.3008 290.998 38.293C291.354 39.7427 292.219 41.5332 293.818 43.5926C293.881 43.6694 294.15 43.967 294.721 44.3943C295.029 44.6199 295.437 44.8983 295.98 45.2199C296.537 45.5512 297.2 45.796 297.997 46.0936C299.193 46.5401 300.721 47.1065 302.508 48.201L303.719 47.0938C301.807 45.9225 299.765 45.1911 298.506 44.7255C297.767 44.4519 297.157 44.2215 296.724 43.967C296.239 43.679 295.869 43.4294 295.591 43.223C295.168 42.911 295.009 42.7477 294.976 42.7045C293.511 40.8132 292.728 39.2195 292.415 37.957C292.074 36.5696 292.305 35.6528 292.79 35.2399C294.981 33.387 298.895 36.8337 300.884 38.5858C301.312 38.9602 301.657 39.2675 301.922 39.4643C302.075 39.5747 302.234 39.6803 302.397 39.7763C302.575 39.8771 302.757 39.9587 302.945 40.0211C304.213 40.434 304.78 39.3395 305.462 38.0242C305.995 36.9969 306.634 35.7728 307.619 35.6C307.628 35.6 307.604 35.4127 307.614 35.4847C307.671 35.8304 307.47 36.5888 307.249 37.4289C307.119 37.9186 306.984 38.4322 306.874 38.9842L306.831 39.1907C306.494 40.8564 306.269 42.9941 307.119 46.7816L308.555 46.4504Z" fill="#333333"/>
<path fill-rule="evenodd" clip-rule="evenodd" d="M305.125 47.3438C304.433 47.6174 304.43 47.0173 303.906 47.3438C302.177 46.3309 299.668 45.143 298.506 44.711C297.766 44.4374 297.156 44.2069 296.724 43.9525C296.239 43.6645 295.869 43.4149 295.59 43.2085C295.168 42.8964 295.009 42.7332 294.975 42.69C294.841 42.5172 294.716 42.3492 294.591 42.1812C293.371 40.5106 292.694 39.0897 292.415 37.9376C292.074 36.5503 292.305 35.6334 292.79 35.2206C293.011 35.0334 293.251 34.899 293.501 34.8126C295.749 34.0445 299.092 36.9871 300.884 38.5665C301.311 38.9409 301.657 39.2481 301.921 39.445C302.075 39.5554 302.234 39.661 302.397 39.757C302.575 39.8578 302.757 39.9394 302.944 40.0018C304.213 40.4146 304.779 39.3201 305.461 38.0048C305.995 36.9775 306.634 35.7534 307.623 35.5806C307.628 35.9599 307.45 36.6511 307.248 37.4096C307.119 37.8992 306.984 38.4129 306.874 38.9649L306.83 39.1713C306.518 40.7315 306.363 43.4629 307.031 46.6984C306.349 46.8808 305.874 47.0509 305.125 47.3438Z" fill="#FEFEFE"/>
<path fill-rule="evenodd" clip-rule="evenodd" d="M351.196 88.2956C350.034 88.0844 348.914 87.6715 347.387 86.9083C346.316 86.3706 345.446 85.809 344.75 85.2425C344.154 84.7577 343.684 84.268 343.323 83.7832C343.487 85.3433 343.919 87.0619 344.495 88.7852C345.321 91.2526 346.436 93.7296 347.483 95.8034C347.987 94.4209 348.66 92.9568 349.414 91.4974C349.976 90.4126 350.581 89.3325 351.196 88.2956Z" fill="#FF6F3D" stroke="#FF6F3D" stroke-width="0.5669" stroke-miterlimit="22.9256"/>
<path fill-rule="evenodd" clip-rule="evenodd" d="M343.251 82.4106C343.237 84.2972 343.746 86.5342 344.495 88.7856C345.321 91.253 346.436 93.73 347.483 95.8037C347.987 94.4212 348.66 92.9571 349.414 91.4978C350.74 88.9392 352.315 86.395 353.694 84.3596L354.823 85.1181C353.463 87.1246 351.912 89.6256 350.62 92.1218C349.611 94.0756 348.756 96.0294 348.28 97.7383L347.829 99.3656L347.027 97.8775C345.768 95.5349 344.255 92.3763 343.203 89.2224C342.411 86.8462 341.873 84.4652 341.887 82.4154L343.251 82.4106Z" fill="#333333"/>
<path fill-rule="evenodd" clip-rule="evenodd" d="M336.44 63.1799C334.149 66.3721 330.267 70.0156 326.136 72.5502C322.543 74.7536 318.787 76.1025 315.819 75.5313C315.492 75.4689 314.109 75.0177 311.928 71.5614C309.656 67.9563 306.711 61.2549 303.608 48.8171C304.074 48.6155 304.699 48.4283 305.352 48.2794C306.284 48.0634 307.264 47.9194 307.989 47.8666C308.45 48.9611 308.945 50.214 309.459 51.5149C311.544 56.8097 313.974 62.9879 317.961 67.1882L318.393 67.6442L318.907 67.2842C320.252 66.3481 323.84 62.1094 327.174 58.1635C329.907 54.9328 332.467 51.9037 333.342 51.2077C334.591 50.2092 336.137 49.1723 338.284 48.2938C340.355 47.4442 342.987 46.7433 346.455 46.3641L346.647 46.6329C347.786 48.1258 349.698 48.8315 351.84 48.8843C353.886 48.9323 356.168 48.3803 358.161 47.3386C358.718 47.0505 359.252 46.7241 359.751 46.3641C362.018 46.8009 365.208 48.2074 368.268 49.9932C371.356 51.7933 374.282 53.9631 375.977 55.9073C376.631 57.6834 377.404 59.6756 378.225 61.8022C382.443 72.6847 388.068 87.1963 386.021 94.7665C386.007 94.8145 385.743 95.1793 384.287 95.3761C383.346 95.5009 381.996 95.4865 380.07 95.1505C378 94.7905 375.233 93.9264 371.659 92.5487C368.042 91.1566 363.618 89.246 358.272 86.8074L357.667 88.1323C363.051 90.5901 367.504 92.5103 371.135 93.912C374.81 95.3281 377.668 96.2162 379.83 96.5906C381.914 96.9507 383.413 96.9651 384.489 96.821C386.804 96.509 387.395 95.3137 387.438 95.1505C389.61 87.1242 383.884 72.3534 379.59 61.2789C378.749 59.1091 377.961 57.0834 377.303 55.2832L377.255 55.1584L377.169 55.0576C375.382 52.9646 372.269 50.6364 369.003 48.7307C365.674 46.7865 362.148 45.2696 359.684 44.8712L359.377 44.8232L359.127 45.0152C358.613 45.404 358.065 45.7544 357.489 46.0521C355.707 46.9785 353.684 47.4778 351.874 47.4298C350.159 47.3866 348.66 46.8585 347.81 45.7496C347.69 45.5912 347.584 45.428 347.493 45.2552L347.262 44.8184L346.772 44.8664C342.92 45.2456 340.009 46.0089 337.732 46.9449C335.436 47.8858 333.774 48.9995 332.434 50.07C331.43 50.8717 328.831 53.9439 326.06 57.2226C323.158 60.6549 320.055 64.3224 318.561 65.6809C315.04 61.6966 312.773 55.9409 310.823 50.9821C310.256 49.5371 309.713 48.1594 309.137 46.8297L308.945 46.3881H308.464C307.643 46.3929 306.284 46.5657 305.035 46.8537C303.988 47.0985 302.989 47.4298 302.374 47.8234L301.937 48.1066L302.061 48.6107C305.261 61.5861 308.335 68.5755 310.703 72.339C313.201 76.3042 315.098 76.8802 315.554 76.9666C318.917 77.6147 323.029 76.1697 326.905 73.7935C331.233 71.1389 335.311 67.2986 337.698 63.9335C338.51 62.791 337.305 61.9798 336.44 63.1799Z" fill="#333333"/>
<path fill-rule="evenodd" clip-rule="evenodd" d="M375.972 55.9029C376.625 57.679 377.399 59.6712 378.22 61.7977C382.438 72.6802 388.063 87.1918 386.016 94.762C384.587 99.5224 362.221 88.5965 359.002 87.1342C359.583 86.7021 360.106 86.1837 360.567 85.6076C360.913 85.1756 361.221 84.7148 361.495 84.2299C365.543 85.4693 373.211 86.9612 377.149 87.1438C378.302 87.1966 378.46 85.7421 377.163 85.6797C377.01 85.6701 376.856 85.6653 376.693 85.6509C375.558 84.2454 371.071 76.2778 369.968 73.2755C370.016 70.9857 370.131 68.6671 370.309 66.3149C370.395 65.1868 368.945 64.9516 368.853 66.1805C368.381 72.3907 368.366 78.525 368.805 84.494C366.322 84.0043 363.945 83.3986 362.187 82.8753C357.147 82.1253 346.353 73.0352 345.105 64.3129C344.672 61.2878 347.114 49.1254 351.125 49.1254C356.307 57.5785 359.944 52.2637 360.151 46.4199C365.86 48.6258 371.846 51.172 375.972 55.9029ZM345.5 68.4655L347.978 53.8675L347.689 52.581C346.599 53.1186 345.71 53.1378 345.105 52.9218C344.116 52.5714 343.693 51.5297 343.573 50.296C343.462 49.1247 343.626 47.7374 343.803 46.7389C341.594 47.1326 339.788 47.675 338.279 48.2895C336.132 49.1679 334.585 50.2048 333.337 51.2033C332.462 51.8993 329.902 54.9284 327.169 58.159C324.47 61.3497 321.849 65.2155 318.388 67.6398C313.126 62.0887 310.911 54.7388 307.984 47.8622C306.528 47.9586 304.952 48.2291 303.603 48.8127C304.86 53.844 309.339 72.1956 315.813 75.5268C323.464 76.999 332.423 68.7734 336.435 63.1754C337.299 61.9705 338.505 62.7818 337.688 63.9291C336.853 65.1004 335.815 66.3341 334.633 67.5534L334.585 68.4655L334.537 69.584C334.388 74.0147 334.422 82.977 334.888 91.4449C335.205 97.2054 335.714 102.731 336.492 106.413C348.014 112.918 362.877 111.21 372.936 108.04C371.579 103.084 370.537 98.2427 369.805 93.3843C366.591 92.1074 362.625 90.0628 358.334 88.4351C354.043 86.8073 345.5 68.4655 345.5 68.4655Z" fill="#EFEFEF"/>
<path fill-rule="evenodd" clip-rule="evenodd" d="M377.285 55.1252L377.38 55.3849C377.966 56.9779 378.65 58.7477 379.384 60.6484C379.462 60.8493 379.54 61.0517 379.619 61.2555M379.619 61.2571L379.634 61.295C381.734 66.7143 384.214 73.1136 385.911 79.1138C386.762 82.1239 387.426 85.0706 387.744 87.7725C388.06 90.4587 388.046 92.9998 387.464 95.1533L387.459 95.1733L387.453 95.1932C387.054 96.5213 385.926 97.1165 384.877 97.3306C383.858 97.5386 382.643 97.4637 381.407 97.2649C378.905 96.8624 375.759 95.8528 372.653 94.6857C372.253 94.5357 371.853 94.3825 371.454 94.2269C372.165 98.6659 373.139 103.103 374.383 107.643L374.765 109.036L373.387 109.47C363.178 112.688 347.815 114.528 335.755 107.719L335.165 107.386L335.025 106.723C334.221 102.92 333.708 97.2956 333.39 91.5272C332.922 83.0187 332.888 74.0119 333.038 69.5334L333.039 69.5194L333.047 69.3368C331.617 70.7207 330.028 72.063 328.345 73.2336C324.535 75.8839 319.954 77.8511 315.53 76.9997L315.319 76.959L315.127 76.8605C313.124 75.83 311.452 73.756 310.062 71.4221C308.647 69.0446 307.404 66.187 306.345 63.3281C304.301 57.8079 302.877 52.1007 302.217 49.4533C302.193 49.3567 302.17 49.2643 302.148 49.176L301.839 47.9413L303.007 47.4359C304.572 46.7588 306.336 46.4678 307.885 46.3653L308.947 46.295L309.364 47.2745C309.959 48.6731 310.518 50.0661 311.07 51.4419C313.143 56.6108 315.119 61.5367 318.578 65.6067C319.75 64.6341 320.846 63.4738 321.924 62.2123C322.619 61.3989 323.293 60.5586 323.974 59.7082C324.011 59.6615 324.049 59.6147 324.086 59.5678C324.725 58.7693 325.371 57.9615 326.024 57.1902L326.096 57.1042C327.435 55.5222 328.739 53.9802 329.82 52.7433C330.875 51.5364 331.833 50.4835 332.401 50.0309C333.736 48.9637 335.405 47.8447 337.711 46.901L337.713 46.9001C339.326 46.2433 341.234 45.6729 343.54 45.262L345.657 44.8849L345.28 47.0016C345.111 47.9533 344.975 49.1827 345.066 50.1526C345.115 50.6588 345.219 51.0131 345.337 51.2344C345.44 51.4275 345.528 51.4802 345.606 51.5077L345.609 51.5089C345.71 51.5449 345.995 51.6005 346.476 51.4559C346.697 51.0266 346.932 50.62 347.18 50.2448C348.028 48.9653 349.324 47.6252 351.125 47.6252H351.965L352.404 48.3413C353.644 50.3652 354.678 51.3647 355.423 51.7808C356.067 52.1403 356.422 52.0433 356.701 51.8666C357.103 51.6121 357.584 51.008 357.98 49.9641C358.364 48.9537 358.605 47.6916 358.652 46.3668L358.726 44.2612L360.692 45.0205C366.378 47.2177 372.703 49.8723 377.103 54.9168L377.285 55.1252M348.78 50.5856C348.37 51.1131 347.99 51.759 347.641 52.482C347.621 52.5227 347.601 52.5637 347.582 52.6049C347.576 52.6166 347.571 52.6284 347.565 52.6401C347.084 52.8632 346.644 52.9846 346.253 53.0298C346.077 53.0501 345.91 53.0549 345.754 53.0467C345.512 53.0338 345.295 52.9893 345.105 52.9216C344.116 52.5712 343.693 51.5295 343.573 50.2958C343.513 49.663 343.533 48.9671 343.593 48.3035C343.643 47.7389 343.722 47.1977 343.803 46.7387C343.255 46.8364 342.732 46.9432 342.232 47.0581C340.716 47.406 339.413 47.8273 338.279 48.2893C336.132 49.1677 334.585 50.2046 333.337 51.2031C332.469 51.8935 329.944 54.8787 327.236 58.0795L327.169 58.1589C326.53 58.914 325.896 59.7069 325.254 60.5096C323.182 63.0986 321.03 65.7891 318.388 67.6397C314.143 63.161 311.881 57.5114 309.628 51.8843C309.088 50.5368 308.549 49.1906 307.984 47.862C306.528 47.9584 304.952 48.2289 303.603 48.8125C303.625 48.8985 303.647 48.9884 303.67 49.0821C305.013 54.4669 309.45 72.2524 315.813 75.5267C321.789 76.6766 328.564 71.9092 333.155 67.0991C333.318 66.9283 333.479 66.7574 333.636 66.5867C334.721 65.4109 335.668 64.2451 336.435 63.1753C336.444 63.1624 336.453 63.1497 336.463 63.1372C336.476 63.1194 336.49 63.1021 336.503 63.0852C336.503 63.0847 336.504 63.0843 336.504 63.0838C337.362 62.0136 338.483 62.812 337.689 63.9289C337.666 63.9608 337.643 63.9927 337.62 64.0246C337.62 64.0244 337.62 64.0248 337.62 64.0246C337.617 64.0286 337.614 64.0333 337.611 64.0372C336.789 65.1762 335.779 66.3715 334.634 67.5532L334.585 68.4653L334.537 69.5838C334.389 74.0146 334.422 82.9769 334.888 91.4448C335.205 97.2053 335.714 102.731 336.492 106.412C348.014 112.918 362.877 111.21 372.936 108.04C371.597 103.152 370.565 98.375 369.835 93.5835C369.825 93.5171 369.815 93.4506 369.805 93.3842C368.423 92.8351 366.902 92.1441 365.276 91.4054C363.139 90.4348 360.821 89.3818 358.399 88.4598C358.377 88.4515 358.356 88.4432 358.334 88.435C357.794 88.2301 357.187 87.7607 356.538 87.0965C354.095 84.597 351.06 79.3393 348.791 75.0445C346.871 71.4101 345.5 68.4653 345.5 68.4653L345.757 66.95C345.894 67.3453 346.047 67.7395 346.216 68.1319C346.286 68.2963 346.36 68.4604 346.435 68.6241C347.338 70.5742 348.601 72.4693 350.046 74.2082C353.372 78.2089 357.662 81.3826 360.751 82.4958C361.165 82.645 361.558 82.7572 361.923 82.8294C362.013 82.8471 362.101 82.8624 362.187 82.8752C363.581 83.2899 365.363 83.7565 367.279 84.176C367.78 84.2858 368.29 84.3923 368.805 84.4938C368.804 84.4782 368.803 84.4625 368.802 84.4469C368.765 83.9468 368.732 83.4456 368.702 82.9433C368.517 79.8804 368.452 76.7764 368.505 73.6431C368.507 73.5104 368.51 73.3776 368.512 73.2448C368.559 70.9662 368.667 68.6725 368.839 66.3682C368.843 66.3137 368.847 66.2591 368.852 66.2046C368.852 66.2041 368.852 66.2036 368.852 66.2031C368.852 66.1955 368.853 66.1879 368.853 66.1803C368.944 64.961 370.373 65.1831 370.311 66.2885C370.311 66.2894 370.311 66.2903 370.311 66.2911C370.31 66.2989 370.31 66.3068 370.309 66.3147C370.306 66.3532 370.303 66.3916 370.3 66.43C370.127 68.7427 370.015 71.0229 369.968 73.2753C369.981 73.312 369.995 73.3495 370.01 73.3877C371.17 76.4442 375.494 84.1245 376.662 85.6123C376.673 85.6256 376.683 85.6384 376.693 85.6507C376.8 85.6602 376.902 85.6655 377.004 85.6707C377.024 85.6718 377.045 85.6728 377.065 85.6739C377.098 85.6757 377.131 85.6775 377.164 85.6795C377.181 85.6804 377.199 85.6815 377.216 85.6829C377.216 85.6829 377.216 85.6829 377.216 85.6829C378.455 85.7821 378.286 87.1957 377.149 87.1437C377.131 87.1428 377.112 87.1419 377.093 87.141C377.086 87.1406 377.079 87.1403 377.072 87.1399C377.043 87.1385 377.013 87.1369 376.984 87.1353C376.848 87.128 376.708 87.1192 376.564 87.109C376.35 87.0938 376.128 87.0756 375.898 87.0544C374.332 86.9103 372.416 86.6318 370.441 86.2807C369.805 86.1676 369.163 86.047 368.524 85.9209C366.074 85.4373 363.676 84.8733 361.88 84.3455C361.84 84.3336 361.8 84.3218 361.76 84.31C361.67 84.2831 361.581 84.2564 361.495 84.2298C361.487 84.2424 361.48 84.255 361.473 84.2676C361.205 84.7386 360.904 85.1867 360.567 85.6075C360.45 85.7544 360.328 85.8975 360.203 86.0364C359.848 86.4285 359.462 86.7869 359.046 87.101C359.031 87.1121 359.016 87.1231 359.002 87.134C359.261 87.2519 359.645 87.4313 360.132 87.659C360.253 87.7154 360.38 87.7748 360.513 87.8369C362.656 88.8371 366.36 90.5536 370.294 92.1514C370.592 92.2722 370.891 92.3922 371.19 92.5113C378.015 95.2244 385.225 97.3977 386.016 94.7619C388.062 87.1932 382.44 72.6859 378.223 61.8041L378.22 61.7976C378.141 61.5932 378.063 61.3901 377.985 61.1883C377.251 59.2901 376.563 57.5082 375.972 55.9027C372.2 51.5771 366.872 49.0779 361.623 46.9954C361.131 46.8002 360.64 46.6087 360.151 46.4197C360.132 46.9457 360.086 47.4673 360.013 47.975C359.277 53.1086 355.84 56.8175 351.125 49.1252C350.267 49.1252 349.481 49.6814 348.78 50.5856ZM345.757 66.95C345.453 66.0731 345.231 65.1911 345.105 64.3127C345 63.58 345.064 62.3113 345.278 60.8093C345.355 60.2696 345.451 59.6997 345.566 59.1138C345.864 57.588 346.289 55.9532 346.823 54.457C346.867 54.3358 346.911 54.2156 346.955 54.0963C347.003 53.9692 347.052 53.8432 347.101 53.7185C347.249 53.3456 347.404 52.9847 347.565 52.6401C347.606 52.6211 347.648 52.6013 347.689 52.5808L347.978 53.8673L345.757 66.95ZM357.754 86.1922L358.107 85.9302C358.574 85.5831 359.006 85.1575 359.396 84.6701C359.612 84.4009 359.812 84.1158 359.997 83.8155C358.957 83.4159 357.86 82.8407 356.769 82.1549C355.468 81.3372 354.115 80.3238 352.794 79.1653C353.769 80.8254 354.773 82.4161 355.735 83.7509C356.413 84.692 357.05 85.4762 357.622 86.0596C357.667 86.1057 357.711 86.1499 357.754 86.1922ZM370.327 84.7362C371.865 85.0158 373.375 85.253 374.712 85.4174C373.966 84.2497 372.964 82.5269 372.005 80.7859C371.311 79.526 370.603 78.1919 369.993 76.9694C370.018 79.4655 370.121 81.939 370.301 84.3836L370.327 84.7362Z" fill="#333333"/>
<path fill-rule="evenodd" clip-rule="evenodd" d="M368.853 66.1803C368.613 69.339 368.488 72.4688 368.483 75.5843C368.479 78.9301 368.613 82.2184 368.882 85.4683L370.342 85.3483C370.073 82.0984 369.939 78.8485 369.944 75.5843C369.949 72.5504 370.069 69.4686 370.314 66.3195C370.395 65.1914 368.945 64.9514 368.853 66.1803ZM369.756 93.0433L371.202 92.8321C371.587 95.4051 372.052 97.9781 372.61 100.561C373.167 103.153 373.811 105.745 374.536 108.337L374.723 109.009L374.06 109.225C368.219 111.146 360.668 112.605 353.002 112.278C346.973 112.019 340.878 110.651 335.484 107.526L335.21 107.368L335.138 107.051C334.297 103.283 333.754 97.5221 333.428 91.5264C332.962 83.0249 332.923 74.0145 333.077 69.5454L333.125 68.4029L333.188 67.2028L334.648 67.294L334.585 68.4701L334.537 69.5886C334.388 74.0193 334.422 82.9817 334.888 91.4496C335.205 97.21 335.714 102.735 336.492 106.417C341.594 109.297 347.358 110.57 353.06 110.814C360.236 111.122 367.331 109.811 372.936 108.045C372.273 105.625 371.687 103.235 371.173 100.858C370.621 98.2517 370.145 95.6499 369.756 93.0433Z" fill="#333333"/>
<path fill-rule="evenodd" clip-rule="evenodd" d="M382.971 236.57C381.827 237.862 380.377 239.249 378.888 240.67C376.476 242.974 373.969 245.369 372.715 247.419C371.774 248.96 371.601 250.295 372.936 251.173C373.748 251.274 376.649 250.05 380.012 248.351C383.773 246.45 388.009 243.953 390.608 241.98C390.627 241.961 390.68 241.923 390.699 241.913C390.752 241.875 390.839 241.817 390.94 241.731C391.478 241.265 392.328 240.003 389.695 236.945L390.805 235.994C394.302 240.06 392.789 242.062 391.886 242.84C391.756 242.95 391.626 243.041 391.54 243.104L391.473 243.152C388.792 245.182 384.484 247.726 380.67 249.651C376.899 251.557 373.513 252.873 372.446 252.56L372.355 252.536L372.273 252.484C369.9 251.039 370.049 248.984 371.471 246.661C372.826 244.448 375.4 241.985 377.884 239.614C379.354 238.207 380.79 236.839 381.88 235.605L382.971 236.57Z" fill="#333333"/>
<path fill-rule="evenodd" clip-rule="evenodd" d="M342.026 235.615C340.551 236.22 338.755 236.839 336.92 237.468C333.231 238.731 329.383 240.051 327.174 241.664C325.214 243.099 324.455 244.741 325.906 246.714L325.963 246.791L326.04 246.853C326.919 247.559 331.276 247.674 336.19 247.371C340.945 247.079 346.306 246.435 349.476 245.595L349.553 245.576C350.288 245.413 353.252 244.736 351.835 239.523C351.782 239.331 351.398 238.486 351.042 237.689C350.749 237.041 350.471 236.422 350.437 236.326L349.049 236.782C349.097 236.931 349.395 237.593 349.712 238.289C350.048 239.038 350.408 239.83 350.427 239.902C351.446 243.656 349.673 244.054 349.236 244.15L349.13 244.174C346.051 244.99 340.792 245.619 336.108 245.907C331.655 246.181 327.798 246.176 327.025 245.749C326.309 244.678 326.833 243.718 328.048 242.83C330.07 241.352 333.812 240.07 337.405 238.836C339.23 238.212 341.022 237.598 342.593 236.95L342.026 235.615Z" fill="#333333"/>
<path fill-rule="evenodd" clip-rule="evenodd" d="M378.888 240.67C376.477 242.974 373.969 245.369 372.716 247.419C371.774 248.96 371.601 250.295 372.937 251.173C373.748 251.274 376.65 250.05 380.012 248.35C383.773 246.45 388.01 243.953 390.609 241.98C390.628 241.961 390.681 241.923 390.7 241.913C390.753 241.875 390.839 241.817 390.94 241.731C391.233 241.481 391.612 241.001 391.488 240.132C391.396 239.47 391.007 238.577 390.061 237.386C389.076 237.814 387.832 237.996 386.588 237.962C385.137 237.924 383.648 237.598 382.563 237.026C381.66 238.01 380.598 239.038 379.498 240.094C379.292 240.286 379.09 240.478 378.888 240.67Z" fill="#FEFEFE"/>
<path fill-rule="evenodd" clip-rule="evenodd" d="M350.418 239.907C350.442 239.993 350.466 240.079 350.485 240.166C351.354 243.68 349.654 244.064 349.226 244.16L349.121 244.184C346.042 245 340.782 245.629 336.098 245.917C331.646 246.19 327.788 246.185 327.015 245.758C326.299 244.688 326.823 243.728 328.038 242.84C329.268 241.937 331.141 241.111 333.226 240.324C334.566 239.82 335.988 239.331 337.395 238.85C339.029 238.289 340.633 237.742 342.079 237.166C342.977 237.756 344.365 238.366 345.96 238.471C347.065 238.543 348.271 238.375 349.476 237.794C349.548 237.953 349.625 238.126 349.702 238.294C350.038 239.042 350.394 239.835 350.418 239.907Z" fill="#FEFEFE"/>
<path fill-rule="evenodd" clip-rule="evenodd" d="M371.159 110.099C374.546 121.174 378.331 141.177 381.645 163.797C386.425 187.093 389.504 213.332 389.46 235.562C388.581 236.047 387.299 236.33 386.021 236.359C384.753 236.388 383.523 236.177 382.74 235.682C381.64 231.496 377.207 213.519 371.25 192.666C366.226 175.068 359.621 155.953 356.153 142.545L354.765 137.481C354.679 150.072 353.833 163.297 353.286 171.876C353.122 174.458 352.983 176.618 352.896 178.265C352.892 178.375 352.896 178.798 352.906 179.503C352.988 185.614 353.353 213.629 349.015 236.388C347.997 236.921 346.974 237.075 346.042 237.017C344.774 236.935 343.664 236.46 342.939 235.99C342.857 229.408 342.636 219.952 342.017 209.871C341.382 199.564 340.321 188.571 338.553 179.254C338.409 178.495 335.748 163.24 335.594 142.603C335.517 132.292 336.07 120.636 337.876 108.774C342.646 111.016 347.848 112.048 352.997 112.274C359.453 112.552 365.823 111.563 371.159 110.099Z" fill="#404040" stroke="#404040" stroke-width="0.216" stroke-miterlimit="22.9256"/>
<path fill-rule="evenodd" clip-rule="evenodd" d="M354.769 137.337C354.688 149.971 353.838 163.264 353.29 171.875C353.127 174.458 352.987 176.618 352.901 178.265C352.896 178.375 352.901 178.798 352.91 179.503C352.992 185.614 353.357 213.629 349.02 236.388C348.001 236.921 346.978 237.074 346.046 237.017C344.778 236.935 343.669 236.46 342.943 235.989C342.862 229.408 342.641 219.951 342.021 209.871C341.387 199.564 340.325 188.571 338.558 179.254C338.414 178.495 335.752 163.24 335.599 142.603C335.522 132.003 336.103 119.993 338.034 107.795L336.593 107.569C334.652 119.844 334.066 131.941 334.143 142.603C334.297 163.379 336.977 178.75 337.121 179.513C338.88 188.763 339.931 199.694 340.566 209.947C341.2 220.235 341.416 229.821 341.493 236.378L341.497 236.738L341.786 236.954C342.655 237.602 344.178 238.351 345.96 238.466C347.242 238.548 348.655 238.308 350.052 237.482L350.336 237.314L350.398 236.993C354.827 214.042 354.452 185.648 354.376 179.479C354.366 178.826 354.361 178.428 354.366 178.332C354.448 176.777 354.587 174.583 354.755 171.962C355.235 164.464 355.941 153.427 356.167 142.339L354.769 137.337Z" fill="#333333"/>
<path fill-rule="evenodd" clip-rule="evenodd" d="M346.364 123.367C347.295 124.202 348.347 124.947 349.515 125.494C350.72 126.055 352.056 126.415 353.506 126.459L354.097 126.478L354.164 127.059C356.057 143.284 361.182 159.365 367.235 178.341C372.403 194.552 378.244 212.875 383.331 235.212C384.234 235.62 385.214 235.72 386.17 235.653C387.083 235.586 387.981 235.36 388.769 235.087C388.601 228.467 388.221 218.453 387.366 207.816C386.761 200.265 385.92 192.421 384.748 185.302C384.585 184.318 384.426 183.382 384.263 182.489C384.1 181.586 383.927 180.698 383.754 179.829C383.614 179.148 383.432 178.289 383.249 177.453C382.769 175.231 382.327 173.195 382.077 170.661C381.909 168.947 381.722 167.18 381.52 165.38C381.314 163.532 381.097 161.761 380.881 160.057C379.68 150.71 378.143 141.638 376.409 133.299C374.608 124.649 372.591 116.805 370.511 110.296L371.803 109.888C373.897 116.455 375.929 124.342 377.735 133.026C379.479 141.378 381.021 150.489 382.226 159.889C382.462 161.722 382.678 163.508 382.875 165.231C383.067 166.945 383.254 168.712 383.432 170.531C383.667 172.951 384.104 174.967 384.58 177.16C384.729 177.852 384.883 178.567 385.084 179.561C385.262 180.439 385.435 181.337 385.598 182.244C385.771 183.209 385.939 184.15 386.088 185.076C387.265 192.258 388.115 200.135 388.721 207.705C389.595 218.583 390.632 229.326 390.796 235.984L390.805 236.465L390.354 236.637C388.173 237.463 383.586 237.977 381.938 235.908L381.871 235.6C376.774 213.159 371.121 195.004 365.938 178.745C359.933 159.908 354.837 143.918 352.877 127.774C351.45 127.659 350.139 127.275 348.933 126.713C347.608 126.094 346.421 125.254 345.388 124.313C344.471 123.478 345.446 122.542 346.364 123.367Z" fill="#333333"/>
<path fill-rule="evenodd" clip-rule="evenodd" d="M351.868 47.425C353.674 47.4682 355.702 46.9737 357.484 46.0472C357.681 45.9464 357.873 45.836 358.065 45.7208L357.642 37.2241C357.037 37.9394 356.441 38.5346 355.865 39.0291C352.123 42.2453 348.981 41.3573 348.77 41.2757C348.655 41.2324 348.54 41.1892 348.429 41.1412L347.8 45.7352C347.8 45.7352 347.8 45.74 347.805 45.74C348.655 46.8537 350.154 47.3865 351.868 47.425Z" fill="#FEFEFE"/>
<path fill-rule="evenodd" clip-rule="evenodd" d="M350.178 23.6007C351.662 20.0916 355.601 22.0934 355.615 23.9703C355.428 23.7639 354.602 23.2694 354.131 23.2118C353.968 25.3 351.47 25.7369 350.797 23.5095C350.528 23.4951 350.375 23.4807 350.178 23.6007ZM349.28 39.9076C349.433 39.9652 351.792 40.6085 354.919 37.9203C356.552 36.5185 358.353 34.224 360.107 30.5132C360.078 30.5228 360.044 30.5324 360.015 30.5421C359.554 30.6669 359.175 29.8316 359.938 29.5436C360.14 29.4668 360.342 29.3612 360.52 29.2363C360.899 28.9771 361.202 28.6555 361.384 28.3675C362.105 27.2394 362.292 25.9865 362.042 25.0744C361.946 24.724 361.783 24.4263 361.567 24.2247C361.365 24.0327 361.101 23.9175 360.784 23.9031C360.15 23.8743 359.309 24.2199 358.291 25.1272C357.724 25.6312 357.22 24.9832 357.494 24.5608L357.176 24.1143C357.239 22.151 357.176 20.538 357.018 19.2179C356.85 17.8402 356.576 16.8033 356.216 16.0449C355.985 15.5552 355.63 15.0752 355.197 14.6863C354.804 14.3263 354.352 14.0479 353.881 13.9039C353.324 13.7311 352.762 13.7743 352.21 13.9423C351.6 14.1295 350.985 14.4703 350.375 14.8736C350.067 15.0752 349.765 15.2912 349.472 15.5024C347.944 16.5969 346.729 17.4658 344.313 16.8225C343.986 16.7361 343.679 16.5729 343.415 16.3473C343.386 16.3233 343.357 16.2993 343.333 16.2753C342.896 16.9377 342.521 17.701 342.204 18.5411C341.133 21.4213 340.821 25.1512 341.416 28.7371C342.007 32.2942 343.487 35.6881 345.994 37.9299C346.94 38.7651 348.031 39.4468 349.28 39.9076ZM360.044 25.6072C359.439 25.7273 359.372 25.2232 360.006 25.1176C360.198 25.0888 360.371 25.0888 360.525 25.1272C360.779 25.1848 360.971 25.324 361.101 25.5256C361.221 25.7129 361.283 25.9529 361.283 26.2217C361.283 26.6681 361.111 27.225 360.75 27.7818C360.616 27.993 360.39 28.2331 360.121 28.4155C359.977 28.5163 359.818 28.5979 359.645 28.6555C359.232 28.7995 359.064 28.3819 359.578 28.1611C359.669 28.1226 359.761 28.0698 359.847 28.0122C360.063 27.8682 360.236 27.681 360.342 27.5178C360.649 27.0378 360.798 26.5817 360.798 26.2217C360.798 26.0441 360.765 25.8953 360.693 25.7897C360.63 25.6937 360.539 25.6312 360.419 25.6024C360.313 25.5784 360.188 25.5784 360.044 25.6072ZM341.685 23.4519C343.035 19.89 347.051 21.7429 347.137 23.6199C346.94 23.4231 346.1 22.9574 345.624 22.919C345.542 25.012 343.059 25.54 342.305 23.3415C342.036 23.3319 341.877 23.3271 341.685 23.4519ZM347.997 32.3422C350.788 34.5936 351.801 30.5997 352.291 29.9852C352.152 34.944 348.348 34.5984 347.997 32.3422ZM347.267 28.6027C347.594 28.7803 348.117 28.9627 349.275 28.9867C346.887 29.9324 346.047 28.8235 346.08 27.7914C346.119 26.3993 347.425 26.6777 347.161 24.4215C348.295 26.0057 345.735 27.7722 347.267 28.6027Z" fill="#FEFEFE"/>
<path fill-rule="evenodd" clip-rule="evenodd" d="M332.672 36.5015C338.228 36.4211 343.682 39.1904 346.801 44.2647C350.514 50.3112 349.807 57.8264 345.589 63.0405C350.257 70.6792 354.791 78.4009 359.597 85.9563C364.243 93.2592 354.637 98.6648 350.589 92.0433C345.838 84.2716 341.082 76.5002 336.332 68.7285C329.769 70.1356 322.747 67.3689 319.034 61.3224C315.915 56.2422 315.917 50.1297 318.496 45.2064C319.819 47.3647 321.148 49.5228 322.471 51.6811C324.318 54.684 328.286 55.6347 331.288 53.7879C332.37 53.1232 333.452 52.4585 334.534 51.7939C337.537 49.947 338.488 45.9794 336.641 42.9706C335.324 40.8179 333.995 38.6599 332.672 36.5015Z" fill="#FF6F3D"/>
<path fill-rule="evenodd" clip-rule="evenodd" d="M345.589 63.0405C349.807 57.8264 350.514 50.3112 346.801 44.2647C344.021 39.7419 339.386 37.0502 334.477 36.5756C333.878 36.5177 333.276 36.4928 332.672 36.5015C332.981 37.0064 333.291 37.5113 333.601 38.0161C333.833 38.3942 334.065 38.7722 334.297 39.1502C335.08 40.4248 335.863 41.6986 336.641 42.9706C338.488 45.9794 337.537 49.947 334.534 51.7939L331.288 53.7879C328.286 55.6347 324.318 54.684 322.471 51.6811C321.809 50.602 321.146 49.5229 320.483 48.4438C320.131 47.8702 319.778 47.2966 319.426 46.723C319.116 46.2175 318.806 45.7119 318.496 45.2064C318.215 45.7422 317.965 46.2921 317.746 46.8532C315.954 51.4479 316.254 56.7951 319.034 61.3224C322.747 67.3689 329.769 70.1356 336.332 68.7285C338.707 72.6143 341.084 76.5001 343.46 80.3859C345.837 84.2717 348.214 88.1575 350.589 92.0433C354.637 98.6648 364.243 93.2592 359.597 85.9563C356.376 80.8918 353.276 75.7527 350.177 70.6139C348.652 68.0864 347.128 65.5589 345.589 63.0405ZM351.868 91.2609C353.436 93.8244 355.907 93.9691 357.565 92.9451C358.411 92.4228 359.036 91.6009 359.253 90.6012C359.467 89.617 359.316 88.3092 358.332 86.7614C355.101 81.6822 351.985 76.5158 348.88 71.3678C347.358 68.8442 345.838 66.325 344.309 63.8226L343.758 62.9198L344.423 62.0972C348.253 57.3617 348.893 50.5379 345.523 45.0501M351.868 91.2609C349.493 87.3749 347.116 83.489 344.74 79.6033L344.739 79.6016C342.362 75.7163 339.986 71.8313 337.612 67.9462L337.057 67.0389L336.017 67.2618C330.057 68.5399 323.682 66.025 320.312 60.5375C318.009 56.7868 317.579 52.4152 318.761 48.5055C318.909 48.7467 319.057 48.9879 319.205 49.2291C319.868 50.3083 320.531 51.3867 321.192 52.4651L321.193 52.4669C323.473 56.1735 328.363 57.3473 332.074 55.066C332.073 55.0661 332.074 55.0658 332.074 55.066L335.32 53.072C339.027 50.7918 340.2 45.9015 337.92 42.1867C337.142 40.9149 336.358 39.6389 335.575 38.3634C335.547 38.3178 335.519 38.2722 335.491 38.2266C339.512 38.9377 343.22 41.3022 345.523 45.0501" fill="#333333"/>
<path d="M361.011 84.3797C361.039 84.8431 360.815 85.4526 360.262 86.1682C359.72 86.869 358.925 87.5863 357.988 88.2407C356.095 89.5622 353.786 90.5168 352.121 90.6172C350.656 90.7055 349.507 89.8366 348.654 88.4438C347.799 87.0485 347.339 85.2644 347.258 83.9144C347.203 82.9978 347.936 82.1822 349.583 81.5258C351.162 80.8962 353.241 80.5676 355.055 80.4583C356.692 80.3595 358.175 80.964 359.268 81.8197C360.395 82.7024 360.972 83.7376 361.011 84.3797Z" fill="white" stroke="#333333" stroke-width="1.5"/>
<mask id="path-73-inside-1_6344_157598" fill="white">
<path fill-rule="evenodd" clip-rule="evenodd" d="M429.237 12.8389L437.441 19.5899C438.119 20.1482 438.323 21.1066 437.907 21.8925L436.582 24.4796C436.009 25.598 436.09 26.9279 436.678 28.0342C437.267 29.1458 438.328 29.9472 439.575 30.0962L442.463 30.4351C443.34 30.5405 444.026 31.2355 444.111 32.1155L445.146 42.686C445.231 43.566 444.697 44.3845 443.855 44.6511L441.086 45.5379C439.891 45.9233 439.009 46.9182 438.644 48.1169C438.279 49.3155 438.46 50.6358 439.238 51.6233L441.04 53.9075C441.588 54.6 441.577 55.5793 441.019 56.2573L434.273 64.4563C433.715 65.1343 432.756 65.3381 431.971 64.933L429.384 63.6026C428.265 63.0288 426.935 63.11 425.829 63.6983C424.723 64.2919 423.916 65.3483 423.772 66.5942L423.433 69.4824C423.327 70.3546 422.632 71.0405 421.752 71.1258L411.191 72.1486C410.317 72.2334 409.498 71.6992 409.226 70.8584L408.334 68.0894C407.949 66.8947 406.953 66.0076 405.755 65.6425C404.556 65.2774 403.235 65.4529 402.248 66.2307L399.969 68.0324C399.276 68.5755 398.297 68.5645 397.619 68.0063L389.414 61.2553C388.736 60.6971 388.537 59.7381 388.937 58.9538L390.262 56.3666C390.836 55.2482 390.76 53.9178 390.167 52.812C389.578 51.7004 388.517 50.899 387.27 50.7501L384.382 50.4111C383.505 50.3057 382.818 49.6055 382.733 48.7307L381.704 38.1597C381.619 37.2797 382.154 36.4665 382.994 36.1947L385.759 35.3083C386.953 34.9229 387.835 33.928 388.2 32.7293C388.565 31.5307 388.385 30.2104 387.607 29.2229L385.805 26.9387C385.256 26.2462 385.267 25.2669 385.826 24.5889L392.572 16.39C393.13 15.7067 394.089 15.5081 394.873 15.9132L397.461 17.2437C398.579 17.8174 399.909 17.7362 401.016 17.1479C402.122 16.5596 402.929 15.4979 403.072 14.252L403.411 11.3638C403.517 10.4916 404.212 9.80567 405.092 9.72043L415.664 8.69658C416.539 8.61185 417.357 9.14595 417.629 9.98681L418.521 12.7558C418.906 13.9505 419.902 14.8376 421.1 15.2027C422.299 15.5678 423.62 15.3923 424.607 14.6145L426.886 12.8128C427.574 12.2703 428.553 12.2812 429.237 12.8389ZM414.276 53.6545C407.168 54.112 401.035 48.7203 400.577 41.612C400.12 34.5037 405.511 28.3704 412.62 27.9129C419.728 27.4555 425.861 32.8471 426.319 39.9555C426.776 47.0638 421.384 53.1971 414.276 53.6545Z"/>
</mask>
<path d="M437.441 19.5899L438.077 18.8177L438.077 18.8179L437.441 19.5899ZM429.237 12.8389L429.869 12.0643L429.872 12.0667L429.237 12.8389ZM437.907 21.8925L437.017 21.4365L437.024 21.4249L437.907 21.8925ZM436.582 24.4796L437.472 24.9355L437.472 24.9361L436.582 24.4796ZM436.678 28.0342L437.561 27.5647L437.562 27.5661L436.678 28.0342ZM439.575 30.0962L439.458 31.0893L439.456 31.0891L439.575 30.0962ZM442.463 30.4351L442.579 29.4419L442.582 29.4422L442.463 30.4351ZM444.111 32.1155L443.116 32.2129L443.116 32.2119L444.111 32.1155ZM445.146 42.686L446.141 42.5886L446.141 42.5896L445.146 42.686ZM443.855 44.6511L443.55 43.6987L443.553 43.6978L443.855 44.6511ZM441.086 45.5379L440.779 44.5862L440.781 44.5856L441.086 45.5379ZM438.644 48.1169L439.601 48.4082L439.601 48.4082L438.644 48.1169ZM439.238 51.6233L438.453 52.2427L438.452 52.242L439.238 51.6233ZM441.04 53.9075L440.256 54.5283L440.255 54.527L441.04 53.9075ZM441.019 56.2573L440.247 55.6219L440.247 55.6217L441.019 56.2573ZM434.273 64.4563L435.045 65.0916L435.045 65.0919L434.273 64.4563ZM431.971 64.933L432.428 64.0436L432.43 64.0444L431.971 64.933ZM429.384 63.6026L429.84 62.7128L429.841 62.7132L429.384 63.6026ZM425.829 63.6983L425.356 62.8172L425.359 62.8154L425.829 63.6983ZM423.772 66.5942L424.766 66.7088L424.765 66.7108L423.772 66.5942ZM423.433 69.4824L424.427 69.599L424.426 69.603L423.433 69.4824ZM421.752 71.1258L421.849 72.1211L421.849 72.1211L421.752 71.1258ZM411.191 72.1486L411.095 71.1533L411.191 72.1486ZM409.226 70.8584L408.275 71.166L408.274 71.1651L409.226 70.8584ZM408.334 68.0894L409.286 67.7824L409.286 67.7828L408.334 68.0894ZM405.755 65.6425L405.463 66.5991L405.755 65.6425ZM402.248 66.2307L401.628 65.4462L401.629 65.4451L402.248 66.2307ZM399.969 68.0324L400.589 68.8169L400.586 68.8196L399.969 68.0324ZM397.619 68.0063L398.254 67.2341L398.254 67.2343L397.619 68.0063ZM389.414 61.2553L388.778 62.0275L388.778 62.0273L389.414 61.2553ZM388.937 58.9538L388.046 58.4995L388.047 58.4979L388.937 58.9538ZM390.262 56.3666L389.372 55.9107L389.373 55.9102L390.262 56.3666ZM390.167 52.812L389.285 53.2849L389.283 53.2801L390.167 52.812ZM387.27 50.7501L387.387 49.7569L387.389 49.7571L387.27 50.7501ZM384.382 50.4111L384.265 51.4043L384.263 51.404L384.382 50.4111ZM382.733 48.7307L383.729 48.6338L383.729 48.6343L382.733 48.7307ZM381.704 38.1597L380.709 38.2566L380.709 38.2561L381.704 38.1597ZM382.994 36.1947L382.687 35.2431L382.689 35.2424L382.994 36.1947ZM385.759 35.3083L386.066 36.26L386.064 36.2605L385.759 35.3083ZM387.607 29.2229L388.392 28.6035L388.393 28.6042L387.607 29.2229ZM385.805 26.9387L386.589 26.3179L386.59 26.3193L385.805 26.9387ZM385.826 24.5889L386.598 25.2243L386.598 25.2245L385.826 24.5889ZM392.572 16.39L393.347 17.0224L393.344 17.0253L392.572 16.39ZM394.873 15.9132L394.416 16.8026L394.415 16.8018L394.873 15.9132ZM397.461 17.2437L397.005 18.1334L397.004 18.133L397.461 17.2437ZM401.016 17.1479L400.546 16.265L400.546 16.265L401.016 17.1479ZM403.072 14.252L402.079 14.1374L402.079 14.1354L403.072 14.252ZM403.411 11.3638L402.418 11.2472L402.419 11.2433L403.411 11.3638ZM405.092 9.72043L404.996 8.72509L405.092 9.72043ZM415.664 8.69658L415.567 7.70123L415.664 8.69658ZM417.629 9.98681L418.58 9.67925L418.581 9.68015L417.629 9.98681ZM418.521 12.7558L417.569 13.0628L417.569 13.0624L418.521 12.7558ZM421.1 15.2027L420.809 16.1593L420.809 16.1593L421.1 15.2027ZM424.607 14.6145L425.227 15.399L425.226 15.4001L424.607 14.6145ZM426.886 12.8128L426.266 12.0283L426.267 12.0276L426.886 12.8128ZM436.806 20.3621L428.601 13.6111L429.872 12.0667L438.077 18.8177L436.806 20.3621ZM437.024 21.4249C437.213 21.0663 437.124 20.6237 436.806 20.3618L438.077 18.8179C439.115 19.6726 439.433 21.1469 438.791 22.36L437.024 21.4249ZM435.692 24.0237L437.017 21.4366L438.798 22.3483L437.472 24.9355L435.692 24.0237ZM435.795 28.5038C435.074 27.1479 434.95 25.4702 435.693 24.0231L437.472 24.9361C437.067 25.7257 437.105 26.708 437.561 27.5647L435.795 28.5038ZM439.456 31.0891C437.847 30.8969 436.519 29.8696 435.794 28.5023L437.562 27.5661C438.015 28.422 438.809 28.9975 439.693 29.1032L439.456 31.0891ZM442.346 31.4283L439.458 31.0893L439.691 29.103L442.579 29.4419L442.346 31.4283ZM443.116 32.2119C443.076 31.8041 442.759 31.4779 442.343 31.428L442.582 29.4422C443.921 29.603 444.976 30.6668 445.107 32.0191L443.116 32.2119ZM444.15 42.7834L443.116 32.2129L445.107 32.0182L446.141 42.5886L444.15 42.7834ZM443.553 43.6978C443.939 43.5755 444.191 43.1989 444.15 42.7824L446.141 42.5896C446.271 43.9332 445.454 45.1935 444.157 45.6044L443.553 43.6978ZM440.781 44.5856L443.55 43.6987L444.16 45.6034L441.391 46.4903L440.781 44.5856ZM437.688 47.8255C438.135 46.3552 439.234 45.0847 440.779 44.5862L441.393 46.4896C440.549 46.7619 439.883 47.4813 439.601 48.4082L437.688 47.8255ZM438.452 52.242C437.448 50.9667 437.239 49.2978 437.688 47.8255L439.601 48.4082C439.319 49.3332 439.472 50.3049 440.023 51.0046L438.452 52.242ZM440.255 54.527L438.453 52.2427L440.023 51.0039L441.825 53.2881L440.255 54.527ZM440.247 55.6217C440.506 55.3073 440.512 54.8514 440.256 54.5283L441.824 53.2868C442.665 54.3486 442.649 55.8512 441.791 56.893L440.247 55.6217ZM433.501 63.8209L440.247 55.6219L441.791 56.8927L435.045 65.0916L433.501 63.8209ZM432.43 64.0444C432.791 64.231 433.239 64.1391 433.501 63.8206L435.045 65.0919C434.19 66.1295 432.721 66.4453 431.512 65.8215L432.43 64.0444ZM429.841 62.7132L432.428 64.0436L431.514 65.8223L428.926 64.4919L429.841 62.7132ZM425.359 62.8154C426.715 62.0943 428.393 61.9704 429.84 62.7128L428.927 64.4923C428.137 64.0872 427.155 64.1256 426.298 64.5812L425.359 62.8154ZM422.779 66.4796C422.965 64.8641 424.003 63.5433 425.356 62.8172L426.302 64.5794C425.443 65.0405 424.867 65.8325 424.766 66.7088L422.779 66.4796ZM422.44 69.3659L422.779 66.4777L424.765 66.7108L424.426 69.599L422.44 69.3659ZM421.656 70.1304C422.065 70.0908 422.391 69.7721 422.441 69.3619L424.426 69.603C424.264 70.9371 423.2 71.9903 421.849 72.1211L421.656 70.1304ZM411.095 71.1533L421.656 70.1304L421.849 72.1211L411.288 73.144L411.095 71.1533ZM410.178 70.5508C410.305 70.9437 410.687 71.1928 411.095 71.1533L411.288 73.144C409.947 73.2739 408.691 72.4548 408.275 71.166L410.178 70.5508ZM409.286 67.7828L410.178 70.5517L408.274 71.1651L407.382 68.3961L409.286 67.7828ZM406.046 64.6859C407.519 65.1344 408.788 66.239 409.286 67.7824L407.382 68.3964C407.11 67.5505 406.388 66.8808 405.463 66.5991L406.046 64.6859ZM401.629 65.4451C402.907 64.4387 404.577 64.2385 406.046 64.6859L405.463 66.5991C404.535 66.3164 403.564 66.4671 402.867 67.0163L401.629 65.4451ZM399.349 67.248L401.628 65.4462L402.868 67.0151L400.589 68.8169L399.349 67.248ZM398.254 67.2343C398.569 67.4933 399.027 67.4999 399.352 67.2453L400.586 68.8196C399.525 69.651 398.024 69.6358 396.983 68.7782L398.254 67.2343ZM390.049 60.4831L398.254 67.2341L396.983 68.7785L388.778 62.0275L390.049 60.4831ZM389.828 59.408C389.64 59.7758 389.735 60.2244 390.049 60.4834L388.778 62.0273C387.737 61.1697 387.434 59.7003 388.046 58.4995L389.828 59.408ZM391.152 56.8225L389.827 59.4097L388.047 58.4979L389.372 55.9107L391.152 56.8225ZM391.048 52.339C391.778 53.6993 391.893 55.3785 391.152 56.8231L389.373 55.9102C389.779 55.1179 389.742 54.1363 389.285 53.2849L391.048 52.339ZM387.389 49.7571C388.997 49.9494 390.326 50.9766 391.05 52.3439L389.283 53.2801C388.829 52.4242 388.036 51.8487 387.151 51.743L387.389 49.7571ZM384.498 49.4179L387.387 49.7569L387.154 51.7432L384.265 51.4043L384.498 49.4179ZM383.729 48.6343C383.768 49.0385 384.087 49.3685 384.501 49.4183L384.263 51.404C382.922 51.243 381.868 50.1725 381.738 48.8271L383.729 48.6343ZM382.7 38.0628L383.729 48.6338L381.738 48.8276L380.709 38.2566L382.7 38.0628ZM383.302 37.1462C382.908 37.2737 382.66 37.6513 382.7 38.0633L380.709 38.2561C380.578 36.908 381.4 35.6592 382.687 35.2431L383.302 37.1462ZM386.064 36.2605L383.3 37.1469L382.689 35.2424L385.453 34.356L386.064 36.2605ZM389.157 33.0207C388.709 34.4911 387.611 35.7615 386.066 36.26L385.452 34.3566C386.296 34.0843 386.961 33.3649 387.244 32.438L389.157 33.0207ZM388.393 28.6042C389.397 29.8795 389.605 31.5484 389.157 33.0207L387.244 32.438C387.525 31.513 387.372 30.5413 386.821 29.8416L388.393 28.6042ZM386.59 26.3193L388.392 28.6035L386.822 29.8423L385.02 27.5581L386.59 26.3193ZM386.598 25.2245C386.339 25.5389 386.333 25.9948 386.589 26.3179L385.021 27.5594C384.18 26.4976 384.196 24.995 385.054 23.9533L386.598 25.2245ZM393.344 17.0253L386.598 25.2243L385.053 23.9535L391.8 15.7546L393.344 17.0253ZM394.415 16.8018C394.049 16.613 393.605 16.706 393.346 17.0223L391.797 15.7576C392.654 14.7074 394.128 14.4031 395.332 15.0247L394.415 16.8018ZM397.004 18.133L394.416 16.8026L395.331 15.0239L397.918 16.3543L397.004 18.133ZM401.485 18.0308C400.129 18.7519 398.452 18.8758 397.005 18.1334L397.918 16.3539C398.707 16.7591 399.689 16.7206 400.546 16.265L401.485 18.0308ZM404.066 14.3666C403.88 15.9798 402.844 17.3083 401.485 18.0308L400.546 16.265C401.4 15.8108 401.978 15.0161 402.079 14.1374L404.066 14.3666ZM404.404 11.4803L404.066 14.3685L402.079 14.1354L402.418 11.2472L404.404 11.4803ZM405.189 10.7158C404.779 10.7554 404.454 11.0741 404.404 11.4843L402.419 11.2433C402.581 9.90914 403.645 8.85592 404.996 8.72509L405.189 10.7158ZM415.76 9.69192L405.189 10.7158L404.996 8.72509L415.567 7.70123L415.76 9.69192ZM416.677 10.2944C416.55 9.90146 416.169 9.65236 415.76 9.69192L415.567 7.70123C416.909 7.57133 418.164 8.39045 418.58 9.67925L416.677 10.2944ZM417.569 13.0624L416.677 10.2935L418.581 9.68015L419.473 12.4491L417.569 13.0624ZM420.809 16.1593C419.336 15.7108 418.067 14.6062 417.569 13.0628L419.473 12.4488C419.746 13.2947 420.467 13.9644 421.392 14.2461L420.809 16.1593ZM425.226 15.4001C423.948 16.4065 422.278 16.6067 420.809 16.1593L421.392 14.2461C422.32 14.5288 423.291 14.3781 423.989 13.8289L425.226 15.4001ZM427.506 13.5972L425.227 15.399L423.987 13.8301L426.266 12.0283L427.506 13.5972ZM428.604 13.6136C428.28 13.3493 427.822 13.3487 427.506 13.5979L426.267 12.0276C427.327 11.1918 428.826 11.213 429.869 12.0643L428.604 13.6136ZM401.575 41.5478C401.997 48.105 407.655 53.0785 414.212 52.6566L414.34 54.6524C406.681 55.1454 400.072 49.3357 399.579 41.6762L401.575 41.5478ZM412.684 28.9109C406.127 29.3328 401.153 34.9906 401.575 41.5478L399.579 41.6762C399.086 34.0167 404.896 27.4079 412.555 26.915L412.684 28.9109ZM425.321 40.0197C424.899 33.4625 419.241 28.4889 412.684 28.9109L412.555 26.915C420.215 26.4221 426.824 32.2317 427.317 39.8912L425.321 40.0197ZM414.212 52.6566C420.769 52.2346 425.743 46.5769 425.321 40.0197L427.317 39.8912C427.81 47.5507 422 54.1595 414.34 54.6524L414.212 52.6566Z" fill="#CCCCCC" mask="url(#path-73-inside-1_6344_157598)"/>
<defs>
<clipPath id="clip0_6344_157598">
<rect width="245" height="116" fill="white" transform="translate(29 45)"/>
</clipPath>
<clipPath id="clip1_6344_157598">
<rect width="51" height="19" fill="white" transform="translate(13.5 9.48535)"/>
</clipPath>
</defs>
</svg>
