<svg width="448" height="254" viewBox="0 0 448 254" fill="none" xmlns="http://www.w3.org/2000/svg">
<g clip-path="url(#clip0_6344_155765)">
<g clip-path="url(#clip1_6344_155765)">
<path d="M222.431 253.553C332.682 253.553 422.059 251.414 422.059 248.776C422.059 246.138 332.682 244 222.431 244C112.18 244 22.8032 246.138 22.8032 248.776C22.8032 251.414 112.18 253.553 222.431 253.553Z" fill="#EFEFEF"/>
<path d="M301.495 9.99621H301.5V9.49621C301.5 5.04379 297.981 1.5 293.544 1.5H8.45554C4.02379 1.5 0.5 5.04358 0.5 9.49621V182V182.5H1H300.995H301.495V182V9.99621Z" fill="#AAAAAA" stroke="#333333"/>
<path d="M7.5 175.5V8.5H294.5V175.5H7.5Z" fill="white" stroke="#333333"/>
<path d="M30.8836 30.0821V25.0428C30.8836 23.9912 30.4332 23.4607 29.5418 23.4607C28.6457 23.4607 28.1953 23.9865 28.1953 25.0428V30.0821H25.5548V25.0428C25.5548 23.9912 25.114 23.4607 24.2322 23.4607C23.3361 23.4607 22.8904 23.9865 22.8904 25.0428V30.0821H20.25V24.745C20.25 23.6468 20.643 22.8139 21.4289 22.2509C22.1189 21.7484 23.0582 21.4924 24.237 21.4924C25.4302 21.4924 26.312 21.7902 26.8774 22.3858C27.3662 21.7902 28.2528 21.4924 29.5418 21.4924C30.7207 21.4924 31.6551 21.7437 32.3452 22.2509C33.1311 22.8139 33.524 23.6468 33.524 24.745V30.0821H30.8836Z" fill="#F98012"/>
<path d="M63.2549 30.0589V15.6667H65.9001V30.0589H63.2549Z" fill="#F98012"/>
<path d="M59.885 30.0589V29.212C59.6502 29.5191 59.2477 29.7611 58.6822 29.9472C58.1791 30.1147 57.6999 30.1985 57.2446 30.1985C55.9843 30.1985 54.9732 29.7797 54.2112 28.9375C53.4493 28.0999 53.0659 27.0576 53.0659 25.8199C53.0659 24.5961 53.4397 23.5724 54.1873 22.7488C54.8486 22.0183 55.9316 21.5111 57.1727 21.5111C58.572 21.5111 59.3915 22.0229 59.885 22.6092V15.6667H62.4584V30.0589H59.885ZM59.885 25.2662C59.885 24.8102 59.6598 24.3681 59.2141 23.9493C58.7685 23.5305 58.3037 23.3212 57.834 23.3212C57.1583 23.3212 56.6216 23.591 56.2287 24.1215C55.8837 24.5961 55.7111 25.1777 55.7111 25.8618C55.7111 26.5365 55.8837 27.1088 56.2287 27.5788C56.6216 28.1278 57.1583 28.4024 57.834 28.4024C58.2414 28.4024 58.687 28.2162 59.1662 27.8393C59.6454 27.4671 59.885 27.0809 59.885 26.6807V25.2662Z" fill="#F98012"/>
<path d="M48.0887 30.2868C46.7517 30.2868 45.6448 29.8726 44.7726 29.049C43.9004 28.2254 43.4644 27.1645 43.4644 25.8616C43.4644 24.5634 43.9004 23.5025 44.7726 22.6789C45.6448 21.8553 46.7517 21.4412 48.0887 21.4412C49.4257 21.4412 50.5375 21.8553 51.4144 22.6789C52.2962 23.5025 52.737 24.5681 52.737 25.8616C52.737 27.1599 52.2962 28.2208 51.4144 29.049C50.5327 29.8726 49.4257 30.2868 48.0887 30.2868ZM48.0887 23.5025C47.4514 23.5025 46.9626 23.7352 46.6175 24.2051C46.2773 24.6751 46.1048 25.2288 46.1048 25.8756C46.1048 26.5224 46.2629 27.0668 46.584 27.5088C46.9482 28.016 47.4514 28.2673 48.0887 28.2673C48.7261 28.2673 49.2244 28.016 49.5934 27.5088C49.9289 27.0621 50.0966 26.5177 50.0966 25.8756C50.0966 25.2288 49.9385 24.6844 49.6174 24.2423C49.2484 23.7491 48.7404 23.5025 48.0887 23.5025Z" fill="#F98012"/>
<path d="M38.5267 30.2868C37.1897 30.2868 36.0827 29.8726 35.2106 29.049C34.3384 28.2254 33.9023 27.1645 33.9023 25.8616C33.9023 24.5634 34.3384 23.5025 35.2106 22.6789C36.0827 21.8553 37.1897 21.4412 38.5267 21.4412C39.8637 21.4412 40.9707 21.8553 41.8524 22.6789C42.7341 23.5025 43.175 24.5681 43.175 25.8616C43.175 27.1599 42.7341 28.2208 41.8524 29.049C40.9754 29.8726 39.8637 30.2868 38.5267 30.2868ZM38.5267 23.5025C37.8894 23.5025 37.4006 23.7352 37.0555 24.2051C36.7153 24.6751 36.5428 25.2288 36.5428 25.8756C36.5428 26.5224 36.7009 27.0668 37.022 27.5088C37.3862 28.016 37.8894 28.2673 38.5267 28.2673C39.164 28.2673 39.6624 28.016 40.0314 27.5088C40.3669 27.0621 40.5346 26.5177 40.5346 25.8756C40.5346 25.2288 40.3764 24.6844 40.0554 24.2423C39.6912 23.7491 39.1832 23.5025 38.5267 23.5025Z" fill="#F98012"/>
<path d="M69.0311 26.6433C69.0886 27.2529 69.9032 28.5697 71.2498 28.5697C72.558 28.5697 73.1762 27.8345 73.2097 27.5367L75.9939 27.5134C75.692 28.4161 74.4557 30.3332 71.2019 30.3332C69.8505 30.3332 68.6094 29.9238 67.7228 29.1095C66.8363 28.2905 66.3906 27.2249 66.3906 25.9128C66.3906 24.554 66.8363 23.4745 67.7228 22.6695C68.6141 21.8692 69.7642 21.4644 71.1827 21.4644C72.7257 21.4644 73.9286 21.9622 74.7911 22.9534C75.5914 23.87 75.9939 25.0985 75.9939 26.6433H69.0311ZM73.3487 25.0612C73.2385 24.5122 73.0037 24.0608 72.6395 23.7072C72.2274 23.3256 71.7577 23.1348 71.221 23.1348C70.6699 23.1348 70.2099 23.3163 69.8409 23.6839C69.4719 24.0515 69.2227 24.5075 69.0981 25.0612H73.3487Z" fill="#F98012"/>
<path d="M25.3781 21.1062L27.9994 19.245L27.9658 19.1333C23.236 19.6963 21.0844 20.0965 17.0063 22.3905L17.0447 22.4929L17.3705 22.4975C17.3418 22.8139 17.2891 23.5957 17.3562 24.7776C16.9057 26.0479 17.3466 26.9133 17.7587 27.8533C17.8258 26.8761 17.8162 25.8059 17.5095 24.7403C17.4472 23.5724 17.4999 22.8 17.5287 22.5022L20.2314 22.5254C20.2314 22.5254 20.2122 23.3165 20.3129 24.0656C22.7281 24.8892 25.1577 24.061 26.4467 22.0322C26.0825 21.6367 25.3781 21.1062 25.3781 21.1062Z" fill="#333333"/>
<path d="M188 242.5H188.561L188.497 241.943L184.831 209.943L184.78 209.5H184.334H116.4H115.964L115.905 209.932L111.505 241.932L111.427 242.5H112H188Z" fill="#CCCCCC" stroke="#333333"/>
<path d="M0.5 202.442V182.5H301.5V202.442C301.5 206.382 298.396 209.5 294.495 209.5H7.50536C3.59909 209.5 0.5 206.383 0.5 202.442Z" fill="#E2E2E2" stroke="#333333"/>
<path d="M101.333 245.5L111.106 242.5H188.894L198.667 245.5H101.333Z" fill="#E2E2E2" stroke="#333333"/>
<path d="M201.281 246.5L200.909 247.5H98.9858L98.6774 246.5H201.281Z" fill="#AAAAAA" stroke="#333333"/>
<path d="M156.5 195.497C156.5 198.26 154.259 200.5 151.5 200.5C148.741 200.5 146.5 198.26 146.5 195.497C146.5 192.74 148.74 190.5 151.5 190.5C154.26 190.5 156.5 192.735 156.5 195.497Z" fill="#AAAAAA" stroke="#333333"/>
<path fill-rule="evenodd" clip-rule="evenodd" d="M338.881 77.7536C339.415 77.7536 339.852 77.3167 339.852 76.7839C339.852 76.251 339.415 75.8142 338.881 75.8142C338.348 75.8142 337.911 76.251 337.911 76.7839C337.916 77.3215 338.348 77.7536 338.881 77.7536Z" fill="#FEFEFE"/>
<path fill-rule="evenodd" clip-rule="evenodd" d="M241 111.5C241 111.776 240.776 112 240.5 112H59.5C59.2239 112 59 111.776 59 111.5C59 111.224 59.2239 111 59.5 111H240.5C240.776 111 241 111.224 241 111.5Z" fill="#CCCCCC"/>
<path fill-rule="evenodd" clip-rule="evenodd" d="M97.5 126C97.5 126.552 97.0523 127 96.5 127H60C59.4477 127 59 126.552 59 126C59 125.448 59.4477 125 60 125H96.5C97.0523 125 97.5 125.448 97.5 126Z" fill="#EFEFEF"/>
<path fill-rule="evenodd" clip-rule="evenodd" d="M97.5 136C97.5 136.552 97.0523 137 96.5 137H60C59.4477 137 59 136.552 59 136C59 135.448 59.4477 135 60 135H96.5C97.0523 135 97.5 135.448 97.5 136Z" fill="#EFEFEF"/>
<path fill-rule="evenodd" clip-rule="evenodd" d="M97.5 145C97.5 145.552 97.0523 146 96.5 146H60C59.4477 146 59 145.552 59 145C59 144.448 59.4477 144 60 144H96.5C97.0523 144 97.5 144.448 97.5 145Z" fill="#EFEFEF"/>
<path fill-rule="evenodd" clip-rule="evenodd" d="M97.5 165C97.5 165.552 97.0523 166 96.5 166H60C59.4477 166 59 165.552 59 165C59 164.448 59.4477 164 60 164H96.5C97.0523 164 97.5 164.448 97.5 165Z" fill="#EFEFEF"/>
<path fill-rule="evenodd" clip-rule="evenodd" d="M97.5 155C97.5 155.552 97.0523 156 96.5 156H60C59.4477 156 59 155.552 59 155C59 154.448 59.4477 154 60 154H96.5C97.0523 154 97.5 154.448 97.5 155Z" fill="#EFEFEF"/>
<path fill-rule="evenodd" clip-rule="evenodd" d="M235 126C235 127.105 234.105 128 233 128H124C122.895 128 122 127.105 122 126C122 124.895 122.895 124 124 124H233C234.105 124 235 124.895 235 126Z" fill="#E2E2E2"/>
<path fill-rule="evenodd" clip-rule="evenodd" d="M172 136C172 136.552 171.552 137 171 137H123C122.448 137 122 136.552 122 136C122 135.448 122.448 135 123 135H171C171.552 135 172 135.448 172 136Z" fill="#EFEFEF"/>
<path fill-rule="evenodd" clip-rule="evenodd" d="M232 145C232 145.552 231.552 146 231 146H123C122.448 146 122 145.552 122 145C122 144.448 122.448 144 123 144H231C231.552 144 232 144.448 232 145Z" fill="#EFEFEF"/>
<path fill-rule="evenodd" clip-rule="evenodd" d="M209 155C209 155.552 208.552 156 208 156H123C122.448 156 122 155.552 122 155C122 154.448 122.448 154 123 154H208C208.552 154 209 154.448 209 155Z" fill="#EFEFEF"/>
<path fill-rule="evenodd" clip-rule="evenodd" d="M225 165C225 165.552 224.552 166 224 166H123C122.448 166 122 165.552 122 165C122 164.448 122.448 164 123 164H224C224.552 164 225 164.448 225 165Z" fill="#EFEFEF"/>
<path fill-rule="evenodd" clip-rule="evenodd" d="M163 67.8838C163 68.9884 162.105 69.8838 161 69.8838H112C110.895 69.8838 110 68.9884 110 67.8838C110 66.7792 110.895 65.8838 112 65.8838H161C162.105 65.8838 163 66.7792 163 67.8838Z" fill="#E2E2E2"/>
<path fill-rule="evenodd" clip-rule="evenodd" d="M209 71C209 71.5523 209.448 72 210 72H237C237.552 72 238 71.5523 238 71V63C238 62.4477 237.552 62 237 62H210C209.448 62 209 62.4477 209 63V71Z" fill="#117A00"/>
<path fill-rule="evenodd" clip-rule="evenodd" d="M133 81C133 81.5523 132.552 82 132 82H111C110.448 82 110 81.5523 110 81C110 80.4477 110.448 80 111 80H132C132.552 80 133 80.4477 133 81Z" fill="#E2E2E2"/>
<path fill-rule="evenodd" clip-rule="evenodd" d="M183 89C183 89.5523 182.552 90 182 90H111C110.448 90 110 89.5523 110 89C110 88.4477 110.448 88 111 88H182C182.552 88 183 88.4477 183 89Z" fill="#E2E2E2"/>
<path d="M100 58H60V98H100V58Z" fill="#333333"/>
<path fill-rule="evenodd" clip-rule="evenodd" d="M81.5506 77.7006L92.5563 73.0222C93.4713 72.6226 93.5156 71.9224 92.6229 71.4946L81.7998 66.3376C81.2658 66.0797 80.4979 65.9516 79.7694 65.9764C79.2873 65.9956 78.8236 66.0822 78.4582 66.2392L77.4803 66.6567L67.4525 70.9175C66.5375 71.3171 66.4932 72.0173 67.3813 72.4458L72.2371 74.76L73.5134 75.3685L78.2045 77.6027C78.9651 78.0533 80.4983 78.119 81.5506 77.7006Z" fill="#5DC0E8"/>
<path fill-rule="evenodd" clip-rule="evenodd" d="M85.6445 77.0954L83.7308 77.8968L81.5611 78.803C80.6461 79.2027 79.1129 79.137 78.2195 78.7045L72.9987 76.1746L71.7257 75.5563L71.0967 75.2508L67.2954 76.8734C66.3804 77.2731 66.336 77.9732 67.2242 78.4017L69.2331 79.3575L70.5139 79.9653L78.0513 83.5535C78.3853 83.7129 78.7882 83.8303 79.2288 83.882C79.869 83.9623 80.5766 83.9217 81.2396 83.7241C81.3384 83.6966 81.432 83.6652 81.5249 83.6293L81.7981 83.5128L83.1551 82.9364L92.5306 78.9509C93.4456 78.5513 93.49 77.8511 92.6018 77.4226L88.9008 75.7148L85.6445 77.0954Z" fill="#95C038"/>
<path fill-rule="evenodd" clip-rule="evenodd" d="M88.4778 81.7259L83.256 83.9383L81.9075 84.5089L81.2683 84.7777C80.9343 84.9258 80.517 85.0106 80.0773 85.0334C79.4807 85.0682 78.8463 84.9963 78.3255 84.8345C78.184 84.7885 78.0511 84.7368 77.9267 84.6792L70.956 81.3492L68.908 82.2249L67.1553 82.9764C67.0892 83.004 67.0282 83.0356 66.9673 83.0672C66.9371 83.0853 66.9069 83.1034 66.8768 83.1215C66.238 83.5301 66.2956 84.1231 67.0841 84.5047L67.1688 84.5444L74.6267 88.0968L76.0475 88.774L77.9118 89.661C78.8052 90.0934 80.2011 90.1778 81.1161 89.7782L82.4954 89.1941L83.8348 88.6247L88.7383 86.5397L92.1263 85.0992C92.5357 84.9223 92.7685 84.6809 92.8236 84.4358C92.8935 84.1281 92.6866 83.807 92.193 83.5716L88.4778 81.7259Z" fill="#FF6F3D"/>
<line x1="13.8828" y1="44.4558" x2="299.896" y2="44.4558" stroke="#E2E2E2"/>
<path d="M362.5 53.5V2.5H445.5V53.5H362.5Z" fill="white" stroke="#EBEBEB" stroke-miterlimit="22.9256"/>
<path d="M382 24H379V46H382V24Z" fill="#EBEBEB"/>
<path d="M394 14.303H391V46H394V14.303Z" fill="#EBEBEB"/>
<path d="M406 29.0066H403V46H406V29.0066Z" fill="#EBEBEB"/>
<path d="M418 21.7722H415V45.9998H418V21.7722Z" fill="#EBEBEB"/>
<path fill-rule="evenodd" clip-rule="evenodd" d="M430 26.592H427V46H430V26.592Z" fill="#EBEBEB"/>
<path d="M376 13H373V46H376V13Z" fill="#E0E0E0"/>
<path d="M388 17H385V46H388V17Z" fill="#E0E0E0"/>
<path d="M400 24.907H397V45.9999H400V24.907Z" fill="#E0E0E0"/>
<path d="M412 16.3479H409V45.9999H412V16.3479Z" fill="#E0E0E0"/>
<path d="M424 17.4329H421V46H424V17.4329Z" fill="#E0E0E0"/>
<path d="M436 22.8572H433V45.9999H436V22.8572Z" fill="#E0E0E0"/>
<path d="M448 0H360V3H448V0Z" fill="#EBEBEB"/>
<path d="M431 64H388V101H431V64Z" fill="#F5F5F5"/>
<path d="M390.5 96.5V61.5H431.5V96.5H390.5Z" stroke="#E0E0E0" stroke-miterlimit="22.9256"/>
<path fill-rule="evenodd" clip-rule="evenodd" d="M395.98 73H394V74.9738H395.98V73ZM401.05 73H399.07V74.9738H401.05V73ZM404.018 73H405.998V74.9738H404.018V73ZM411.068 73H409.088V74.9738H411.068V73ZM414.164 73H416.144V74.9738H414.164V73ZM421.091 73H419.111V74.9738H421.091V73ZM424.181 73H426.161V74.9738H424.181V73ZM395.98 76.9476H394V78.9214H395.98V76.9476ZM399.07 76.9476H401.05V78.9214H399.07V76.9476ZM406.121 76.9476H404.141V78.9214H406.121V76.9476ZM409.093 76.9476H411.073V78.9214H409.093V76.9476ZM416.144 76.9476H414.164V78.9214H416.144V76.9476ZM419.111 76.9476H421.091V78.9214H419.111V76.9476ZM426.161 76.9476H424.181V78.9214H426.161V76.9476ZM394 81.0131H395.98V82.9869H394V81.0131ZM401.05 81.0131H399.07V82.9869H401.05V81.0131ZM404.018 81.0131H405.998V82.9869H404.018V81.0131ZM411.068 81.0131H409.088V82.9869H411.068V81.0131ZM414.164 81.0131H416.144V82.9869H414.164V81.0131ZM421.091 81.0131H419.111V82.9869H421.091V81.0131ZM424.181 81.0131H426.161V82.9869H424.181V81.0131ZM395.98 84.9607H394V87.0573H395.98V84.9607ZM399.07 84.9607H401.05V87.0573H399.07V84.9607ZM406.121 84.9607H404.141V87.0573H406.121V84.9607ZM409.093 84.9607H411.073V87.0573H409.093V84.9607ZM416.144 84.9607H414.164V87.0573H416.144V84.9607ZM419.111 84.9607H421.091V87.0573H419.111V84.9607ZM426.161 84.9607H424.181V87.0573H426.161V84.9607ZM394 89.0262H395.98V91H394V89.0262ZM401.05 89.0262H399.07V91H401.05V89.0262ZM404.018 89.0262H405.998V91H404.018V89.0262ZM411.068 89.0262H409.088V91H411.068V89.0262ZM414.164 89.0262H416.144V91H414.164V89.0262ZM421.091 89.0262H419.111V91H421.091V89.0262ZM424.181 89.0262H426.161V91H424.181V89.0262Z" fill="#E0E0E0"/>
<path d="M425 68H394V69H425V68Z" fill="#E0E0E0"/>
<path fill-rule="evenodd" clip-rule="evenodd" d="M347.97 47.5046C347.629 49.3383 346.98 51.9065 345.832 52.5354C345.054 52.9674 343.863 52.281 342.042 49.2663C343.868 49.1751 345.818 48.6375 347.552 47.7302C347.691 47.6582 347.831 47.5814 347.97 47.5046ZM339.424 49.0599C338.55 50.1064 337.767 50.8168 337.085 51.2825C336.072 51.9689 335.375 52.0745 334.986 51.9401C334.655 51.8201 334.487 51.2585 334.424 50.5528C334.309 49.3095 334.544 47.759 334.731 46.8949C335.092 46.8469 335.466 46.7989 335.846 46.7605L336.038 47.0293C336.845 48.0806 338.036 48.7431 339.424 49.0599Z" fill="#CCCCCC" stroke="#CCCCCC" stroke-width="0.216" stroke-miterlimit="22.9256"/>
<path fill-rule="evenodd" clip-rule="evenodd" d="M348.037 24.0306C348.075 22.216 348.008 20.6991 347.859 19.4366C347.672 17.8957 347.35 16.71 346.927 15.8123C346.615 15.1498 346.144 14.5114 345.573 13.9977C345.03 13.5033 344.386 13.1097 343.695 12.8984C342.83 12.6344 341.989 12.6872 341.173 12.9369C340.409 13.1673 339.679 13.5705 338.963 14.0409C338.608 14.2714 338.3 14.4922 338.007 14.7034C336.792 15.5723 335.822 16.2683 334.078 15.7979C333.958 15.7643 333.843 15.7067 333.747 15.6251C333.607 15.5051 333.497 15.3418 333.439 15.1498C333.377 14.9434 333.372 14.7034 333.444 14.4346C333.516 14.1562 333.679 13.8537 333.944 13.5417L333.977 13.4937C334.073 13.3593 334.193 13.2249 334.333 13.0905C335.505 11.948 337.844 11.0647 340.505 10.8823C343.185 10.6999 346.164 11.2519 348.565 12.9897C349.026 13.3209 349.464 13.6953 349.877 14.1225C350.852 15.1258 351.601 16.5227 351.99 18.4237C352.326 20.0702 352.394 22.0912 352.105 24.5586C351.971 24.3138 351.808 24.0978 351.615 23.9154C351.246 23.5697 350.775 23.3585 350.218 23.3297C349.598 23.2961 348.863 23.5025 348.037 24.0306Z" fill="#666666" stroke="#666666" stroke-width="0.216" stroke-miterlimit="22.9256"/>
<path fill-rule="evenodd" clip-rule="evenodd" d="M332.334 14.7754C331.47 15.7451 330.763 16.9884 330.23 18.4141C329.073 21.5247 328.732 25.5283 329.366 29.3542C330.005 33.2137 331.638 36.9196 334.409 39.3966C335.485 40.3567 336.734 41.1344 338.161 41.6672C338.372 41.7488 341.518 42.6321 345.256 39.4206C347.1 37.8317 349.132 35.2251 351.068 30.9863L349.742 30.3815C347.907 34.4042 346.015 36.8476 344.309 38.3117C341.182 41 338.824 40.3567 338.67 40.2991C337.421 39.8383 336.331 39.1566 335.389 38.3117C332.882 36.0699 331.402 32.6761 330.812 29.119C330.216 25.5331 330.528 21.7984 331.599 18.9229C332.07 17.6652 332.68 16.5755 333.425 15.7451L332.334 14.7754Z" fill="#333333"/>
<path fill-rule="evenodd" clip-rule="evenodd" d="M348.003 25.0675C348.095 22.7825 348.037 20.9296 347.854 19.4366C347.667 17.8957 347.345 16.71 346.922 15.8123C346.61 15.1499 346.14 14.5114 345.568 13.9978C345.025 13.5034 344.381 13.1097 343.69 12.8985C342.825 12.6345 341.985 12.6873 341.168 12.9369C340.404 13.1673 339.674 13.5706 338.958 14.041C338.603 14.2714 338.295 14.4922 338.002 14.7035C336.787 15.5723 335.817 16.2684 334.073 15.7979C333.953 15.7643 333.838 15.7067 333.742 15.6251C333.602 15.5051 333.492 15.3419 333.434 15.1499C333.372 14.9435 333.367 14.7035 333.439 14.4346C333.511 14.1562 333.675 13.8538 333.939 13.5418L333.972 13.4938C334.068 13.3593 334.189 13.2249 334.328 13.0905C335.5 11.948 337.839 11.0648 340.5 10.8823C343.181 10.6999 346.159 11.252 348.56 12.9897C349.022 13.3209 349.459 13.6954 349.872 14.1226C350.847 15.1259 351.596 16.5228 351.985 18.4238C352.346 20.1951 352.394 22.3937 352.033 25.1155L351.981 25.5283C351.798 26.9541 351.683 27.8421 350.804 29.0614C350.679 29.2343 350.535 29.4215 350.367 29.6231C350.223 29.8007 350.054 29.9927 349.862 30.1943L350.03 30.7992L350.929 31.188C351.116 30.9864 351.303 30.7752 351.486 30.5496C351.654 30.3479 351.817 30.1367 351.981 29.9111C353.071 28.3942 353.205 27.3669 353.422 25.7156L353.474 25.3027C353.859 22.4129 353.801 20.0511 353.407 18.1309C352.96 15.9324 352.072 14.2954 350.909 13.1049C350.439 12.6201 349.934 12.1929 349.406 11.8088C346.697 9.84546 343.373 9.22621 340.39 9.42783C337.388 9.62944 334.698 10.6807 333.295 12.044C333.113 12.2217 332.949 12.4089 332.805 12.6009C332.392 13.0857 332.137 13.5802 332.013 14.0554C331.868 14.5979 331.888 15.1163 332.027 15.5723C332.171 16.0428 332.44 16.4412 332.786 16.734C333.05 16.9548 333.357 17.1181 333.684 17.2093C336.095 17.8573 337.311 16.9836 338.843 15.8892C339.136 15.6827 339.439 15.4619 339.746 15.2603C340.356 14.8571 340.971 14.5162 341.581 14.329C342.138 14.161 342.695 14.1226 343.253 14.2906C343.723 14.4346 344.175 14.7131 344.569 15.0731C344.996 15.4619 345.352 15.942 345.587 16.4316C345.947 17.1901 346.221 18.2269 346.389 19.6047C346.548 20.9248 346.61 22.5377 346.548 24.5011L346.918 25.0195L348.003 25.0675Z" fill="#333333"/>
<path fill-rule="evenodd" clip-rule="evenodd" d="M347.682 25.5187C348.705 24.6163 349.541 24.2658 350.175 24.2946C350.492 24.309 350.751 24.429 350.958 24.6163C351.179 24.8227 351.337 25.1155 351.433 25.4659C351.688 26.378 351.496 27.6309 350.775 28.759C350.592 29.047 350.285 29.3686 349.91 29.6279C349.728 29.7527 349.531 29.8583 349.329 29.9351C348.565 30.2183 348.945 31.0584 349.406 30.9336C349.786 30.828 350.146 30.6504 350.463 30.4343C350.948 30.1031 351.351 29.6711 351.596 29.287C352.471 27.9189 352.692 26.3684 352.375 25.2115C352.23 24.6883 351.976 24.237 351.62 23.9106C351.251 23.565 350.78 23.3537 350.223 23.3249C349.344 23.2817 348.239 23.7138 346.971 24.8467C346.519 25.2547 347.067 26.0612 347.682 25.5187Z" fill="#333333"/>
<path fill-rule="evenodd" clip-rule="evenodd" d="M349.435 25.9988C349.579 25.97 349.704 25.97 349.81 25.994C349.93 26.0228 350.026 26.09 350.083 26.1812C350.151 26.2916 350.189 26.4404 350.189 26.6132C350.189 26.9733 350.04 27.4341 349.733 27.9093C349.627 28.0726 349.454 28.2598 349.238 28.4038C349.156 28.4614 349.065 28.5142 348.969 28.5526C348.455 28.7734 348.623 29.191 349.036 29.047C349.204 28.9894 349.368 28.903 349.512 28.807C349.781 28.6246 350.006 28.3846 350.141 28.1734C350.496 27.6165 350.674 27.0645 350.674 26.6132C350.674 26.3444 350.612 26.1044 350.492 25.9172C350.362 25.7156 350.17 25.5764 349.915 25.5187C349.766 25.4851 349.593 25.4803 349.396 25.5091C348.758 25.6148 348.83 26.1188 349.435 25.9988Z" fill="#333333"/>
<path fill-rule="evenodd" clip-rule="evenodd" d="M348.935 46.4726L348.397 35.5613L346.937 35.6285L347.48 46.5398L348.935 46.4726Z" fill="#333333"/>
<path fill-rule="evenodd" clip-rule="evenodd" d="M337.157 46.415L337.954 40.5633L336.508 40.3665L335.706 46.2181L337.157 46.415Z" fill="#333333"/>
<path fill-rule="evenodd" clip-rule="evenodd" d="M348.234 45.8772L348.219 45.9588C348.022 47.2933 347.379 51.6857 345.832 52.5353C344.967 53.0154 343.594 52.1177 341.413 48.1718L340.13 48.8726C342.844 53.7882 344.948 54.6907 346.533 53.8122C348.719 52.6073 349.444 47.6629 349.665 46.1652L349.68 46.0836L348.234 45.8772Z" fill="#333333"/>
<path fill-rule="evenodd" clip-rule="evenodd" d="M333.435 46.0454C333.238 46.7559 332.805 48.964 332.969 50.6874C333.084 51.9211 333.512 52.9628 334.501 53.3132C335.25 53.5772 336.437 53.486 337.907 52.4875C338.896 51.8107 340.063 50.7018 341.356 48.9592L340.184 48.0904C338.997 49.6841 337.955 50.6874 337.08 51.2826C336.067 51.9691 335.37 52.0747 334.981 51.9403C334.65 51.8203 334.482 51.2586 334.419 50.553C334.275 49.0361 334.664 47.0727 334.837 46.439L333.435 46.0454Z" fill="#333333"/>
<path fill-rule="evenodd" clip-rule="evenodd" d="M338.665 29.3782C336.278 30.3238 335.437 29.2149 335.471 28.1829C335.509 26.7907 336.816 27.0692 336.551 24.813C337.685 26.4019 335.13 28.1637 336.657 28.9941C336.984 29.1717 337.503 29.3542 338.665 29.3782Z" fill="#333333"/>
<path fill-rule="evenodd" clip-rule="evenodd" d="M337.388 32.7337C340.179 34.9851 341.192 30.9912 341.682 30.3767C341.543 35.3355 337.738 34.9899 337.388 32.7337Z" fill="#333333"/>
<path fill-rule="evenodd" clip-rule="evenodd" d="M339.568 23.9923C341.053 20.4832 344.991 22.485 345.006 24.3619C344.819 24.1555 343.992 23.6611 343.522 23.6035C343.358 25.6916 340.861 26.1285 340.188 23.9011C339.924 23.8867 339.765 23.8723 339.568 23.9923Z" fill="#333333"/>
<path fill-rule="evenodd" clip-rule="evenodd" d="M331.076 23.8434C332.425 20.2815 336.441 22.1345 336.528 24.0115C336.331 23.8146 335.49 23.349 335.015 23.3106C334.933 25.4036 332.45 25.9316 331.695 23.733C331.426 23.7234 331.268 23.7186 331.076 23.8434Z" fill="#333333"/>
<path fill-rule="evenodd" clip-rule="evenodd" d="M281.946 43.842C281.158 40.3425 281.36 39.3296 281.658 37.8511L281.701 37.6447C281.792 37.1838 281.931 36.6702 282.061 36.1805C282.325 35.1821 282.565 34.2796 282.45 33.6219C282.306 32.7915 281.826 32.3642 280.774 32.5466C279.069 32.8395 278.252 34.4188 277.565 35.7389C277.2 36.4446 276.893 37.035 276.801 37.0206C276.705 36.987 276.609 36.9438 276.513 36.891C276.407 36.8334 276.302 36.7566 276.186 36.675C275.985 36.5262 275.653 36.2333 275.245 35.8781C272.934 33.8427 268.395 29.844 265.239 32.513C264.365 33.2523 263.904 34.6924 264.389 36.6846C264.745 38.1343 265.609 39.9248 267.209 41.9842C267.271 42.061 267.54 42.3586 268.112 42.7859C268.419 43.0115 268.827 43.2899 269.37 43.6116C269.927 43.9428 270.59 44.1876 271.388 44.4852C272.584 44.9317 274.111 45.4981 275.898 46.5926L276.662 45.3493C274.75 44.178 273.155 43.5827 271.897 43.1171C271.157 42.8435 270.547 42.6131 270.115 42.3586C269.63 42.0706 269.26 41.821 268.981 41.6146C268.558 41.3026 268.4 41.1393 268.366 41.0961C266.901 39.2048 266.118 37.6111 265.806 36.3486C265.465 34.9612 265.696 34.0444 266.181 33.6315C268.371 31.7786 272.286 35.2253 274.275 36.9774C274.702 37.3518 275.048 37.6591 275.312 37.8559C275.466 37.9663 275.624 38.0719 275.788 38.1679C275.965 38.2687 276.148 38.3503 276.335 38.4127C277.603 38.8256 278.17 37.7311 278.852 36.4158C279.386 35.3885 280.024 34.1644 281.009 33.9916C281.019 33.9916 280.995 33.8043 281.004 33.8763C281.062 34.222 280.86 34.9804 280.639 35.8205C280.51 36.3102 280.375 36.8238 280.265 37.3758L280.221 37.5823C279.885 39.248 279.659 40.3857 280.51 44.1732L281.946 43.842Z" fill="#333333"/>
<path fill-rule="evenodd" clip-rule="evenodd" d="M278.132 44.1827C277.44 44.4563 276.777 44.7635 276.253 45.09C274.524 44.0771 273.059 43.5346 271.897 43.1026C271.157 42.829 270.547 42.5985 270.115 42.3441C269.629 42.0561 269.26 41.8065 268.981 41.6001C268.558 41.288 268.4 41.1248 268.366 41.0816C268.232 40.9088 268.107 40.7408 267.982 40.5728C266.762 38.9022 266.084 37.4813 265.806 36.3292C265.465 34.9419 265.695 34.025 266.181 33.6122C266.401 33.425 266.642 33.2906 266.891 33.2042C269.139 32.4361 272.483 35.3787 274.274 36.9581C274.702 37.3325 275.048 37.6397 275.312 37.8366C275.466 37.947 275.624 38.0526 275.787 38.1486C275.965 38.2494 276.148 38.331 276.335 38.3934C277.603 38.8062 278.17 37.7117 278.852 36.3964C279.385 35.3691 280.024 34.145 281.014 33.9722C281.018 34.3515 280.841 35.0427 280.639 35.8012C280.509 36.2908 280.375 36.8045 280.264 37.3565L280.221 37.5629C279.909 39.1231 279.688 40.2175 280.356 43.453C279.673 43.6354 278.881 43.8899 278.132 44.1827Z" fill="#FEFEFE"/>
<path fill-rule="evenodd" clip-rule="evenodd" d="M340.587 88.6872C339.424 88.476 338.305 88.0631 336.778 87.2999C335.706 86.7622 334.837 86.2006 334.14 85.6341C333.545 85.1493 333.074 84.6596 332.714 84.1748C332.877 85.7349 333.309 87.4535 333.886 89.1768C334.712 91.6442 335.826 94.1212 336.874 96.195C337.378 94.8125 338.05 93.3484 338.805 91.889C339.367 90.8042 339.972 89.7241 340.587 88.6872Z" fill="#FF6F3D" stroke="#FF6F3D" stroke-width="0.5669" stroke-miterlimit="22.9256"/>
<path fill-rule="evenodd" clip-rule="evenodd" d="M332.642 82.802C332.627 84.6886 333.137 86.9255 333.886 89.1769C334.712 91.6443 335.827 94.1213 336.874 96.1951C337.378 94.8126 338.051 93.3485 338.805 91.8891C340.13 89.3305 341.706 86.7863 343.085 84.751L344.213 85.5094C342.854 87.516 341.302 90.017 340.01 92.5132C339.002 94.467 338.147 96.4207 337.671 98.1297L337.22 99.757L336.417 98.2689C335.159 95.9263 333.646 92.7676 332.594 89.6138C331.801 87.2376 331.263 84.8566 331.278 82.8068L332.642 82.802Z" fill="#333333"/>
<path fill-rule="evenodd" clip-rule="evenodd" d="M325.831 63.5715C323.539 66.7637 319.658 70.4072 315.527 72.9418C311.934 75.1452 308.178 76.4941 305.209 75.9229C304.883 75.8605 303.499 75.4093 301.318 71.953C299.046 68.3479 296.102 61.6465 292.999 49.2087C293.465 49.0071 294.089 48.8199 294.742 48.671C295.674 48.455 296.654 48.311 297.38 48.2582C297.841 49.3527 298.335 50.6056 298.849 51.9065C300.934 57.2013 303.365 63.3795 307.352 67.5798L307.784 68.0358L308.298 67.6758C309.643 66.7397 313.231 62.501 316.565 58.5551C319.298 55.3244 321.858 52.2953 322.732 51.5993C323.981 50.6008 325.528 49.5639 327.675 48.6854C329.745 47.8358 332.378 47.1349 335.846 46.7557L336.038 47.0245C337.176 48.5174 339.088 49.2231 341.231 49.2759C343.277 49.3239 345.558 48.7719 347.552 47.7302C348.109 47.4421 348.642 47.1157 349.142 46.7557C351.409 47.1925 354.599 48.599 357.658 50.3848C360.747 52.1849 363.672 54.3547 365.368 56.2989C366.021 58.075 366.795 60.0672 367.616 62.1938C371.833 73.0763 377.458 87.5879 375.412 95.1581C375.398 95.2061 375.133 95.5709 373.678 95.7677C372.737 95.8925 371.387 95.8781 369.461 95.5421C367.39 95.1821 364.623 94.318 361.05 92.9403C357.433 91.5482 353.009 89.6376 347.662 87.199L347.057 88.5239C352.442 90.9817 356.895 92.9019 360.526 94.3036C364.201 95.7197 367.059 96.6078 369.22 96.9822C371.305 97.3423 372.804 97.3567 373.88 97.2126C376.195 96.9006 376.786 95.7053 376.829 95.5421C379 87.5159 373.275 72.745 368.98 61.6705C368.14 59.5007 367.352 57.475 366.694 55.6748L366.646 55.55L366.559 55.4492C364.772 53.3562 361.66 51.028 358.393 49.1223C355.065 47.1781 351.539 45.6612 349.075 45.2628L348.767 45.2148L348.517 45.4068C348.003 45.7956 347.456 46.146 346.879 46.4437C345.097 47.3701 343.075 47.8694 341.264 47.8214C339.549 47.7782 338.051 47.2501 337.2 46.1412C337.08 45.9828 336.975 45.8196 336.883 45.6468L336.653 45.21L336.163 45.258C332.31 45.6372 329.4 46.4005 327.123 47.3365C324.827 48.2774 323.165 49.3911 321.824 50.4616C320.821 51.2633 318.222 54.3355 315.45 57.6142C312.549 61.0465 309.446 64.714 307.952 66.0725C304.431 62.0882 302.164 56.3325 300.214 51.3737C299.647 49.9287 299.104 48.551 298.528 47.2213L298.335 46.7797H297.855C297.034 46.7845 295.674 46.9573 294.425 47.2453C293.378 47.4901 292.379 47.8214 291.764 48.215L291.327 48.4982L291.452 49.0023C294.651 61.9777 297.725 68.9671 300.094 72.7306C302.591 76.6958 304.489 77.2718 304.945 77.3582C308.307 78.0063 312.419 76.5613 316.296 74.1851C320.624 71.5305 324.702 67.6902 327.089 64.3251C327.901 63.1826 326.695 62.3714 325.831 63.5715Z" fill="#333333"/>
<path fill-rule="evenodd" clip-rule="evenodd" d="M365.363 56.2941C366.016 58.0702 366.789 60.0624 367.611 62.189C371.828 73.0715 377.453 87.5831 375.407 95.1533C375.393 95.2013 375.128 95.5661 373.673 95.7629C372.731 95.8878 371.382 95.8734 369.455 95.5373C367.385 95.1773 364.618 94.3132 361.045 92.9355C357.596 91.6058 353.412 89.8057 348.392 87.5255C348.973 87.0934 349.497 86.575 349.958 85.9989C350.304 85.5669 350.611 85.1061 350.885 84.6212C353.018 85.2741 356.159 85.999 359.224 86.5606C361.976 87.0694 364.676 87.4487 366.54 87.5351C367.693 87.5879 367.851 86.1334 366.554 86.071C366.4 86.0614 366.247 86.0566 366.083 86.0422C365.502 85.3221 364.047 82.8835 362.606 80.2625C361.237 77.7663 359.896 75.1309 359.358 73.6667C359.407 71.3769 359.522 69.0584 359.7 66.7062C359.786 65.5781 358.335 65.3428 358.244 66.5717C358.004 69.7304 357.879 72.8603 357.874 75.9757C357.869 78.9856 357.98 81.9522 358.196 84.8853C355.713 84.3956 353.292 83.8244 351.534 83.3011C351.683 82.9459 351.812 82.5859 351.928 82.2306C352.345 80.9057 352.542 79.5616 352.504 78.4335C352.461 77.1134 345.505 81.9762 344.818 81.429C344.655 81.2994 344.492 81.2034 344.333 81.1313L344.535 80.1425C344.564 80.0225 344.578 79.9072 344.578 79.7968C344.578 79.4368 344.444 79.1008 344.223 78.832C344.011 78.5679 343.709 78.3711 343.373 78.2895C343.252 78.2607 343.132 78.2463 343.012 78.2463L344.117 72.3274C343.862 68.1175 343.545 64.3732 343.286 61.2433C343.065 58.5743 342.878 56.3373 342.796 54.7436C342.835 54.6428 342.873 54.5468 342.911 54.4412C343.06 54.0427 343.204 53.6251 343.339 53.1978C344.583 54.2395 345.645 54.3115 346.538 53.8171C348.459 52.7562 349.252 48.8007 349.564 46.8469C351.793 47.3654 354.781 48.7095 357.653 50.3848C360.742 52.1802 363.667 54.3499 365.363 56.2941ZM337.642 55.262C337.546 54.95 337.455 54.614 337.368 54.2587C337.267 53.8363 337.171 53.4091 337.08 52.9722C335.99 53.5099 335.101 53.5291 334.496 53.3131C333.506 52.9626 333.083 51.9209 332.963 50.6872C332.853 49.5159 333.016 48.1286 333.194 47.1301C330.984 47.5238 329.178 48.0662 327.67 48.6807C325.523 49.5592 323.976 50.596 322.727 51.5945C321.853 52.2906 319.293 55.3196 316.56 58.5503C313.226 62.4914 309.638 66.735 308.293 67.671L307.779 68.0311L307.346 67.575C303.364 63.3747 300.929 57.1966 298.844 51.9017C298.33 50.6008 297.84 49.3479 297.374 48.2534C296.649 48.3014 295.674 48.4503 294.737 48.6663C294.084 48.8199 293.46 49.0023 292.994 49.2039C296.102 61.6465 299.041 68.3431 301.313 71.9482C303.489 75.4045 304.873 75.8557 305.204 75.9181C308.173 76.4894 311.924 75.1405 315.522 72.9371C319.653 70.4025 323.534 66.7638 325.825 63.5667C326.69 62.3618 327.896 63.1731 327.079 64.3204C326.243 65.4917 325.206 66.7254 324.024 67.9447L323.976 68.8567L323.928 69.9752C323.779 74.406 323.813 83.3683 324.279 91.8362C324.596 97.5967 325.105 103.122 325.883 106.804C330.984 109.684 336.749 110.956 342.45 111.201C349.627 111.508 356.721 110.198 362.327 108.431C361.664 106.012 361.078 103.621 360.564 101.245C360.026 98.7536 359.57 96.2622 359.195 93.7756C355.982 92.4987 352.182 90.8473 347.724 88.8264C337.709 67.743 337.834 80.7185 337.493 80.4161C337.157 80.1137 334.683 80.6657 334.63 80.1905L329.202 74.1228L329.188 73.9307C329.188 73.5419 329.332 73.1819 329.572 72.9035C329.817 72.625 330.158 72.4282 330.547 72.385C330.619 72.3754 330.687 72.3706 330.735 72.3754L334.4 72.361C334.635 69.9032 335.509 60.7105 337.642 55.262Z" fill="#EFEFEF"/>
<path fill-rule="evenodd" clip-rule="evenodd" d="M366.675 55.5167L366.771 55.7764C367.357 57.3695 368.041 59.1394 368.775 61.0401C368.853 61.241 368.931 61.4433 369.01 61.647M369.01 61.6486L369.025 61.6865C371.125 67.1058 373.605 73.5051 375.301 79.5053C376.152 82.5154 376.817 85.4621 377.135 88.164C377.451 90.8502 377.437 93.3913 376.855 95.5448L376.85 95.5648L376.844 95.5847C376.765 95.8478 376.631 96.029 376.579 96.097C376.501 96.1988 376.416 96.2868 376.331 96.3624C376.16 96.5141 375.96 96.6421 375.738 96.7506C375.298 96.9652 374.699 97.1379 373.874 97.2495L373.87 97.25C372.735 97.4004 371.226 97.3689 369.198 97.0152C367.045 96.6408 364.271 95.7751 360.818 94.4554C361.16 96.6105 361.564 98.769 362.03 100.928C362.538 103.277 363.118 105.641 363.774 108.035L364.155 109.428L362.778 109.862C357.044 111.669 349.773 113.016 342.386 112.7C336.513 112.448 330.503 111.135 325.146 108.11L324.556 107.777L324.415 107.114C323.612 103.311 323.098 97.6871 322.781 91.9187C322.313 83.4102 322.278 74.4035 322.429 69.9249L322.429 69.9109L322.445 69.5436C320.582 71.26 318.477 72.884 316.306 74.2157L316.305 74.2163C312.64 76.4612 308.47 78.0729 304.924 77.3917C303.992 77.2151 302.31 76.3473 300.044 72.7474C297.651 68.9499 294.664 62.0796 291.538 49.5675L291.23 48.3328L292.398 47.8274C292.984 47.5737 293.709 47.3673 294.394 47.2062L294.4 47.2047C295.399 46.9744 296.455 46.8111 297.275 46.7568L298.338 46.6865L298.755 47.666C299.175 48.6528 299.613 49.7637 300.061 50.8988C300.12 51.0491 300.18 51.1998 300.239 51.3507L300.24 51.3523C302.258 56.4773 304.485 62.0752 307.947 66.0084C308.131 65.8375 308.352 65.6214 308.61 65.3569C309.164 64.7907 309.824 64.0696 310.558 63.2422C312.022 61.5922 313.735 59.5675 315.4 57.598L315.414 57.5817L315.487 57.4958C316.825 55.9138 318.13 54.3717 319.211 53.1348C320.266 51.9279 321.224 50.875 321.791 50.4224C323.126 49.3552 324.795 48.2362 327.102 47.2925L327.104 47.2916C328.716 46.6348 330.624 46.0644 332.931 45.6535L335.048 45.2764L334.671 47.3931C334.501 48.3448 334.365 49.5742 334.457 50.5441C334.506 51.0503 334.609 51.4046 334.727 51.6259C334.83 51.819 334.919 51.8717 334.996 51.8992L335 51.9004C335.135 51.9485 335.597 52.0313 336.417 51.627L338.152 50.7711L338.548 52.6656C338.636 53.0864 338.729 53.4986 338.826 53.9068C338.907 54.2372 338.99 54.5429 339.076 54.8207L339.23 55.3212L339.039 55.8089C336.998 61.0214 336.134 69.9813 335.893 72.5041L335.763 73.8558L330.993 73.8745L335.48 78.8901C335.585 78.8867 335.712 78.8802 335.864 78.871C335.917 78.8677 335.974 78.864 336.034 78.8602C336.12 78.8547 336.211 78.8488 336.304 78.8433C336.323 78.7504 336.343 78.6552 336.365 78.5593C336.472 78.09 336.634 77.5144 336.895 76.9862C337.143 76.4846 337.584 75.8134 338.363 75.4615C339.235 75.0676 340.139 75.2382 340.912 75.6728C341.221 75.8472 341.53 76.0734 341.841 76.3477L342.609 72.234C342.373 68.3744 342.085 64.9118 341.84 61.9497C341.823 61.7534 341.807 61.5592 341.791 61.3673L341.764 61.0332C341.555 58.5203 341.378 56.3753 341.298 54.8204L341.282 54.5047L341.395 54.2094C341.414 54.1583 341.429 54.1187 341.443 54.0838C341.464 54.0286 341.481 53.9855 341.502 53.9283L341.506 53.9161C341.646 53.5421 341.782 53.1494 341.908 52.7475L342.582 50.6076L344.302 52.0478C344.782 52.45 345.117 52.5716 345.31 52.603C345.479 52.6304 345.63 52.6055 345.812 52.5048L345.813 52.5041C345.994 52.4039 346.239 52.181 346.511 51.7516C346.778 51.3303 347.023 50.7901 347.239 50.172C347.671 48.9338 347.931 47.5613 348.083 46.6103L348.337 45.0215L349.904 45.386C352.342 45.9532 355.478 47.3801 358.408 49.0886C361.559 50.92 364.643 53.1866 366.493 55.3082L366.675 55.5167M357.653 50.3849C355.367 49.0515 353.008 47.9279 351.016 47.2634C350.506 47.093 350.019 46.9528 349.564 46.847C349.498 47.264 349.409 47.7722 349.292 48.324C348.862 50.3575 348.049 52.9827 346.538 53.8172C345.98 54.1262 345.356 54.214 344.662 53.982C344.246 53.8428 343.805 53.5886 343.339 53.1979C343.204 53.6252 343.06 54.0428 342.911 54.4412C342.886 54.5117 342.86 54.5779 342.834 54.6441C342.829 54.6592 342.823 54.6744 342.817 54.6896C342.81 54.7075 342.803 54.7255 342.796 54.7437C342.875 56.2741 343.05 58.3976 343.26 60.9272L343.286 61.2434C343.302 61.436 343.318 61.631 343.335 61.8283C343.584 64.8359 343.878 68.3767 344.117 72.3275L343.012 78.2464C343.132 78.2464 343.252 78.2608 343.373 78.2896C343.437 78.3053 343.5 78.3252 343.562 78.349C343.58 78.3557 343.597 78.3627 343.614 78.37C343.852 78.4721 344.063 78.633 344.223 78.832C344.441 79.0975 344.575 79.4285 344.578 79.7834C344.578 79.7879 344.578 79.7924 344.578 79.7969C344.578 79.9073 344.564 80.0225 344.535 80.1425L344.333 81.1314C344.492 81.2034 344.655 81.2994 344.818 81.4291C344.918 81.508 345.147 81.4743 345.468 81.3629C345.488 81.3558 345.508 81.3485 345.529 81.3409C345.628 81.3049 345.734 81.2622 345.847 81.2138C346.524 80.9243 347.442 80.4289 348.38 79.9227C349.308 79.4223 350.255 78.9113 351.007 78.5784C351.009 78.5777 351.01 78.5771 351.012 78.5764C351.092 78.541 351.17 78.5076 351.245 78.4765C351.247 78.4759 351.248 78.4753 351.25 78.4747C351.992 78.1688 352.492 78.0823 352.504 78.4336C352.539 79.4635 352.378 80.6734 352.032 81.8843C351.999 81.9998 351.964 82.1153 351.928 82.2307C351.817 82.5709 351.694 82.9154 351.552 83.256C351.546 83.2711 351.54 83.2861 351.534 83.3012C351.979 83.4339 352.468 83.5696 352.989 83.7063C354.098 83.9974 355.357 84.2929 356.67 84.5725C357.172 84.6795 357.683 84.7841 358.196 84.8853C358.195 84.8695 358.194 84.8536 358.193 84.8377C358.156 84.3378 358.122 83.837 358.092 83.3351C357.945 80.9078 357.87 78.4565 357.874 75.9758C357.875 75.3269 357.881 74.6774 357.893 74.0271C357.895 73.8968 357.898 73.7666 357.9 73.6362C357.947 71.3555 358.058 69.0652 358.23 66.7597C358.234 66.7052 358.238 66.6506 358.242 66.5961C358.242 66.5956 358.242 66.5951 358.242 66.5946C358.243 66.587 358.244 66.5794 358.244 66.5718C358.335 65.3525 359.764 65.5746 359.701 66.6801C359.701 66.6809 359.701 66.6818 359.701 66.6826C359.701 66.6905 359.7 66.6983 359.7 66.7062C359.697 66.7447 359.694 66.7831 359.691 66.8215C359.518 69.1342 359.406 71.4144 359.359 73.6668C359.371 73.7013 359.384 73.7364 359.398 73.7722C359.96 75.255 361.269 77.8251 362.606 80.2626C364.022 82.8386 365.452 85.2385 366.053 86.0037C366.063 86.0171 366.073 86.0299 366.083 86.0422C366.19 86.0517 366.293 86.057 366.394 86.0622C366.415 86.0633 366.435 86.0643 366.456 86.0654C366.489 86.0672 366.521 86.069 366.554 86.071C366.572 86.0719 366.589 86.073 366.607 86.0744C366.607 86.0744 366.606 86.0744 366.607 86.0744C367.846 86.1736 367.676 87.5872 366.54 87.5352C366.521 87.5343 366.503 87.5334 366.484 87.5325C366.477 87.5322 366.47 87.5318 366.463 87.5315C366.434 87.53 366.404 87.5285 366.374 87.5268C366.238 87.5195 366.099 87.5107 365.955 87.5005C365.741 87.4853 365.519 87.4671 365.289 87.4459C363.722 87.3018 361.806 87.0232 359.832 86.6711C359.63 86.635 359.427 86.5982 359.224 86.5607C358.788 86.4808 358.351 86.3976 357.915 86.3118C355.397 85.816 352.931 85.2327 351.12 84.6922C351.04 84.6685 350.962 84.6448 350.885 84.6213C350.877 84.6361 350.868 84.6509 350.86 84.6657C350.593 85.1343 350.293 85.5802 349.958 85.999C349.841 86.1447 349.721 86.2867 349.596 86.4246C349.306 86.7457 348.995 87.0442 348.663 87.3144C348.586 87.3773 348.508 87.4388 348.428 87.4986C348.416 87.5076 348.404 87.5166 348.392 87.5256C348.552 87.5981 348.711 87.6702 348.869 87.7419C349.223 87.9022 349.573 88.0601 349.918 88.2156C353.668 89.9027 356.924 91.3032 359.733 92.4216C360.012 92.5326 360.287 92.6409 360.557 92.7464C360.721 92.8105 360.884 92.8736 361.045 92.9356C364.618 94.3133 367.385 95.1774 369.455 95.5374C371.382 95.8734 372.731 95.8878 373.673 95.763C375.128 95.5662 375.393 95.2014 375.407 95.1534C377.453 87.5847 371.831 73.0774 367.613 62.1956L367.611 62.1891C367.532 61.9848 367.453 61.7817 367.376 61.58C366.642 59.6817 365.953 57.8997 365.363 56.2942C363.667 54.35 360.742 52.1803 357.653 50.3849ZM347.724 88.8265C347.746 88.8361 347.767 88.8457 347.788 88.8553C352.218 90.8631 355.997 92.5048 359.195 93.7757C359.198 93.792 359.2 93.8084 359.203 93.8248C359.576 96.2951 360.03 98.7701 360.564 101.245C361.078 103.621 361.664 106.012 362.327 108.431C356.721 110.198 349.627 111.508 342.45 111.201C336.749 110.956 330.984 109.684 325.883 106.804C325.105 103.122 324.596 97.5968 324.279 91.8363C323.813 83.3684 323.779 74.4061 323.928 69.9753L323.976 68.8568L324.024 67.9447C325.169 66.763 326.179 65.5677 327.001 64.4287C327.004 64.4248 327.007 64.4208 327.01 64.4168C327.01 64.4166 327.01 64.4171 327.01 64.4168C327.033 64.3849 327.056 64.3523 327.079 64.3205C327.874 63.2035 326.752 62.4051 325.895 63.4753C325.894 63.4758 325.894 63.4762 325.894 63.4767C325.88 63.4936 325.867 63.5109 325.853 63.5287C325.844 63.5412 325.835 63.5539 325.825 63.5668C325.044 64.6574 324.077 65.7995 322.979 66.9315C322.839 67.0757 322.697 67.2197 322.553 67.3634C320.512 69.3993 318.064 71.3773 315.522 72.9372C311.924 75.1405 308.173 76.4894 305.204 75.9182C304.873 75.8558 303.489 75.4046 301.313 71.9483C299.041 68.3432 296.102 61.6466 292.994 49.204C293.46 49.0024 294.084 48.82 294.737 48.6664C295.674 48.4503 296.649 48.3015 297.374 48.2535C297.786 49.2205 298.217 50.3112 298.666 51.4494C298.725 51.5994 298.784 51.7503 298.844 51.9018C300.929 57.1967 303.364 63.3748 307.346 67.5751L307.779 68.0312L308.293 67.6711C309.635 66.7371 313.21 62.51 316.538 58.5762L316.627 58.4712C319.334 55.2703 321.86 52.285 322.727 51.5946C323.976 50.5961 325.523 49.5592 327.67 48.6808C328.804 48.2188 330.106 47.7975 331.622 47.4496C332.122 47.3347 332.646 47.2279 333.194 47.1302C333.112 47.5892 333.034 48.1304 332.983 48.695C332.924 49.3586 332.904 50.0545 332.963 50.6873C333.083 51.921 333.506 52.9627 334.496 53.3131C334.807 53.4241 335.192 53.473 335.642 53.4214C336.067 53.3726 336.55 53.2338 337.08 52.9723C337.171 53.4092 337.267 53.8364 337.368 54.2588C337.385 54.329 337.403 54.3985 337.42 54.4672C337.491 54.7459 337.565 55.0118 337.642 55.2621C335.517 60.6903 334.642 69.8349 334.402 72.3334L334.4 72.3611L330.735 72.3755C330.687 72.3707 330.619 72.3755 330.547 72.3851C330.158 72.4283 329.817 72.6251 329.572 72.9035C329.332 73.182 329.188 73.542 329.188 73.9308L329.202 74.1229L334.63 80.1906C334.659 80.4513 335.417 80.4028 336.151 80.3559C336.754 80.3172 337.341 80.2797 337.493 80.4162C337.511 80.4324 337.528 80.4105 337.545 80.358C337.546 80.3575 337.546 80.3571 337.546 80.3566C337.575 80.266 337.606 80.0858 337.645 79.8522C337.687 79.5997 337.74 79.2848 337.814 78.9531C337.816 78.9443 337.818 78.9354 337.82 78.9266C338.18 77.3232 339.027 75.3569 341.507 78.136C341.883 78.5576 342.297 79.0885 342.752 79.7464C342.836 79.8676 342.921 79.9931 343.008 80.123C343.185 80.3876 343.367 80.6706 343.556 80.9729C343.714 81.2255 343.876 81.4917 344.042 81.7719C344.113 81.8904 344.184 82.0114 344.256 82.135C344.256 82.1355 344.257 82.136 344.257 82.1366C344.409 82.398 344.565 82.6708 344.725 82.9554C345.349 84.0687 346.03 85.3627 346.772 86.861C347.079 87.4807 347.396 88.1353 347.724 88.8265ZM347.981 85.9234C347.377 84.711 346.809 83.6269 346.277 82.6599C346.5 82.5695 346.728 82.4657 346.95 82.3595C347.594 82.0518 348.365 81.6354 349.108 81.2344C349.278 81.1427 349.447 81.0518 349.612 80.9632C350.059 80.7233 350.479 80.5013 350.858 80.3106C350.775 80.7845 350.655 81.2777 350.499 81.7738C350.394 82.0964 350.279 82.4142 350.15 82.7213L349.905 83.3067L349.579 83.8837C349.342 84.3042 349.079 84.6975 348.787 85.0616C348.535 85.3761 348.266 85.6649 347.981 85.9234ZM335.147 78.8857C335.148 78.8856 335.152 78.8861 335.16 78.8875C335.151 78.8865 335.147 78.8858 335.147 78.8857ZM359.718 85.1263C361.267 85.4091 362.775 85.6453 364.103 85.8086C363.877 85.4551 363.633 85.0577 363.381 84.6372C362.753 83.5906 362.019 82.3089 361.291 80.9852L361.29 80.9838C360.629 79.777 359.96 78.5135 359.38 77.3516C359.406 79.8534 359.512 82.3259 359.692 84.7751L359.718 85.1263Z" fill="#333333"/>
<path fill-rule="evenodd" clip-rule="evenodd" d="M358.244 66.5719C358.004 69.7306 357.879 72.8604 357.874 75.9759C357.869 79.3218 358.004 82.61 358.273 85.8599L359.733 85.7399C359.464 82.49 359.33 79.2401 359.334 75.9759C359.339 72.942 359.459 69.8602 359.704 66.7111C359.786 65.583 358.335 65.343 358.244 66.5719ZM359.147 93.4349L360.593 93.2237C360.977 95.7967 361.443 98.3697 362 100.952C362.557 103.545 363.201 106.137 363.926 108.729L364.114 109.401L363.451 109.617C357.61 111.537 350.059 112.997 342.392 112.67C336.364 112.411 330.269 111.043 324.874 107.918L324.6 107.759L324.528 107.442C323.688 103.674 323.145 97.9137 322.818 91.918C322.352 83.4165 322.314 74.4061 322.468 69.937L322.516 68.7945L322.578 67.5944L324.038 67.6856L323.976 68.8617L323.928 69.9802C323.779 74.4109 323.813 83.3733 324.279 91.8412C324.596 97.6017 325.105 103.127 325.883 106.809C330.984 109.689 336.748 110.961 342.45 111.206C349.627 111.513 356.721 110.203 362.327 108.436C361.664 106.017 361.078 103.626 360.564 101.25C360.012 98.6433 359.536 96.0415 359.147 93.4349Z" fill="#333333"/>
<path fill-rule="evenodd" clip-rule="evenodd" d="M372.361 236.962C371.218 238.253 369.767 239.641 368.278 241.061C365.867 243.366 363.36 245.761 362.106 247.811C361.164 249.352 360.991 250.686 362.327 251.565C363.139 251.666 366.04 250.441 369.402 248.742C373.163 246.841 377.4 244.345 379.999 242.372C380.018 242.353 380.071 242.314 380.09 242.305C380.143 242.266 380.229 242.209 380.33 242.122C380.868 241.657 381.718 240.394 379.086 237.336L380.196 236.386C383.693 240.452 382.18 242.454 381.276 243.231C381.147 243.342 381.017 243.433 380.931 243.495L380.863 243.543C378.183 245.574 373.874 248.118 370.06 250.043C366.29 251.949 362.903 253.264 361.837 252.952L361.746 252.928L361.664 252.875C359.291 251.43 359.44 249.376 360.862 247.052C362.216 244.839 364.791 242.377 367.274 240.005C368.744 238.599 370.18 237.231 371.271 235.997L372.361 236.962Z" fill="#333333"/>
<path fill-rule="evenodd" clip-rule="evenodd" d="M331.417 236.007C329.942 236.612 328.146 237.231 326.311 237.86C322.622 239.122 318.774 240.442 316.564 242.055C314.605 243.491 313.846 245.132 315.296 247.105L315.354 247.182L315.431 247.245C316.31 247.95 320.666 248.065 325.58 247.763C330.336 247.47 335.697 246.827 338.867 245.987L338.944 245.968C339.679 245.804 342.642 245.128 341.225 239.914C341.173 239.722 340.788 238.877 340.433 238.081C340.14 237.433 339.861 236.813 339.828 236.717L338.439 237.173C338.487 237.322 338.785 237.985 339.102 238.681C339.438 239.43 339.799 240.222 339.818 240.294C340.836 244.048 339.064 244.446 338.627 244.542L338.521 244.566C335.442 245.382 330.182 246.011 325.499 246.299C321.046 246.573 317.189 246.568 316.415 246.14C315.7 245.07 316.223 244.11 317.439 243.222C319.461 241.743 323.203 240.462 326.796 239.228C328.621 238.604 330.413 237.989 331.983 237.341L331.417 236.007Z" fill="#333333"/>
<path fill-rule="evenodd" clip-rule="evenodd" d="M368.279 241.061C365.867 243.366 363.36 245.761 362.106 247.811C361.165 249.352 360.992 250.686 362.327 251.565C363.139 251.666 366.04 250.441 369.403 248.742C373.164 246.841 377.4 244.345 379.999 242.372C380.018 242.353 380.071 242.314 380.09 242.305C380.143 242.266 380.23 242.209 380.331 242.122C380.624 241.873 381.003 241.393 380.878 240.524C380.787 239.861 380.398 238.968 379.452 237.778C378.467 238.205 377.223 238.388 375.979 238.354C374.528 238.316 373.039 237.989 371.953 237.418C371.05 238.402 369.989 239.429 368.889 240.485C368.682 240.677 368.48 240.869 368.279 241.061Z" fill="#FEFEFE"/>
<path fill-rule="evenodd" clip-rule="evenodd" d="M339.808 240.298C339.832 240.385 339.856 240.471 339.876 240.557C340.745 244.071 339.045 244.455 338.617 244.551L338.511 244.575C335.432 245.391 330.172 246.02 325.489 246.308C321.036 246.582 317.179 246.577 316.406 246.15C315.69 245.079 316.214 244.119 317.429 243.231C318.659 242.329 320.532 241.503 322.617 240.716C323.957 240.212 325.379 239.722 326.786 239.242C328.419 238.68 330.024 238.133 331.469 237.557C332.368 238.148 333.756 238.757 335.351 238.863C336.455 238.935 337.661 238.767 338.867 238.186C338.939 238.344 339.016 238.517 339.093 238.685C339.429 239.434 339.784 240.226 339.808 240.298Z" fill="#FEFEFE"/>
<path fill-rule="evenodd" clip-rule="evenodd" d="M360.55 110.491C363.936 121.565 367.721 141.568 371.036 164.188C375.815 187.484 378.894 213.723 378.851 235.954C377.972 236.439 376.69 236.722 375.412 236.751C374.144 236.779 372.914 236.568 372.131 236.074C371.031 231.888 366.597 213.91 360.641 193.057C355.617 175.459 349.012 156.344 345.544 142.937L344.156 137.872C344.069 150.464 343.224 163.689 342.676 172.267C342.513 174.85 342.374 177.01 342.287 178.656C342.282 178.767 342.287 179.189 342.297 179.895C342.378 186.006 342.743 214.021 338.406 236.779C337.388 237.312 336.364 237.466 335.432 237.408C334.164 237.327 333.055 236.851 332.329 236.381C332.248 229.8 332.027 220.343 331.407 210.262C330.773 199.956 329.712 188.963 327.944 179.645C327.8 178.887 325.139 163.631 324.985 142.994C324.908 132.683 325.46 121.028 327.267 109.166C332.036 111.408 337.239 112.44 342.388 112.665C348.844 112.944 355.213 111.955 360.55 110.491Z" fill="#404040" stroke="#404040" stroke-width="0.216" stroke-miterlimit="22.9256"/>
<path fill-rule="evenodd" clip-rule="evenodd" d="M344.16 137.728C344.078 150.363 343.228 163.655 342.681 172.267C342.517 174.85 342.378 177.01 342.292 178.656C342.287 178.767 342.291 179.189 342.301 179.895C342.383 186.006 342.748 214.021 338.41 236.78C337.392 237.312 336.369 237.466 335.437 237.408C334.169 237.327 333.059 236.852 332.334 236.381C332.252 229.8 332.031 220.343 331.412 210.262C330.778 199.956 329.716 188.963 327.948 179.645C327.804 178.887 325.143 163.631 324.989 142.994C324.913 132.395 325.494 120.384 327.425 108.187L325.984 107.961C324.043 120.236 323.457 132.333 323.534 142.994C323.688 163.77 326.368 179.141 326.512 179.904C328.27 189.155 329.322 200.085 329.956 210.339C330.59 220.626 330.806 230.213 330.883 236.77L330.888 237.13L331.176 237.346C332.046 237.994 333.568 238.743 335.35 238.858C336.633 238.94 338.045 238.7 339.443 237.874L339.726 237.706L339.789 237.384C344.218 214.434 343.843 186.039 343.766 179.871C343.757 179.218 343.752 178.82 343.757 178.724C343.838 177.168 343.978 174.974 344.146 172.353C344.626 164.855 345.332 153.819 345.558 142.73L344.16 137.728Z" fill="#333333"/>
<path fill-rule="evenodd" clip-rule="evenodd" d="M335.754 123.759C336.686 124.594 337.738 125.338 338.905 125.886C340.111 126.447 341.446 126.807 342.897 126.851L343.488 126.87L343.555 127.451C345.448 143.676 350.573 159.757 356.625 178.733C361.794 194.944 367.635 213.267 372.722 235.603C373.625 236.012 374.605 236.112 375.561 236.045C376.473 235.978 377.371 235.752 378.159 235.479C377.991 228.859 377.612 218.845 376.757 208.208C376.151 200.657 375.311 192.813 374.139 185.694C373.975 184.71 373.817 183.774 373.654 182.881C373.49 181.978 373.317 181.09 373.144 180.221C373.005 179.54 372.823 178.68 372.64 177.845C372.16 175.623 371.718 173.587 371.468 171.053C371.3 169.339 371.113 167.572 370.911 165.772C370.704 163.924 370.488 162.153 370.272 160.448C369.071 151.102 367.534 142.029 365.8 133.691C363.999 125.041 361.981 117.197 359.901 110.688L361.193 110.28C363.288 116.846 365.32 124.734 367.126 133.417C368.869 141.77 370.411 150.881 371.617 160.28C371.852 162.114 372.068 163.9 372.265 165.623C372.458 167.337 372.645 169.104 372.823 170.923C373.058 173.342 373.495 175.359 373.971 177.552C374.12 178.244 374.273 178.959 374.475 179.952C374.653 180.831 374.826 181.729 374.989 182.636C375.162 183.601 375.33 184.542 375.479 185.468C376.656 192.65 377.506 200.527 378.111 208.097C378.985 218.975 380.023 229.718 380.186 236.376L380.196 236.856L379.744 237.029C377.564 237.855 372.976 238.369 371.329 236.3L371.261 235.992C366.165 213.55 360.511 195.395 355.328 179.136C349.324 160.3 344.227 144.31 342.268 128.166C340.841 128.051 339.53 127.667 338.324 127.105C336.998 126.486 335.812 125.646 334.779 124.705C333.862 123.869 334.837 122.933 335.754 123.759Z" fill="#333333"/>
<path fill-rule="evenodd" clip-rule="evenodd" d="M341.259 47.8166C343.065 47.8598 345.092 47.3653 346.874 46.4388C347.071 46.338 347.263 46.2276 347.456 46.1124L347.033 37.6157C346.428 38.331 345.832 38.9262 345.255 39.4207C341.514 42.6369 338.372 41.7489 338.161 41.6673C338.045 41.6241 337.93 41.5808 337.82 41.5328L337.19 46.1268C337.19 46.1268 337.19 46.1316 337.195 46.1316C338.045 47.2453 339.544 47.7782 341.259 47.8166Z" fill="#FEFEFE"/>
<path fill-rule="evenodd" clip-rule="evenodd" d="M339.568 23.9923C341.053 20.4832 344.992 22.485 345.006 24.3619C344.819 24.1555 343.992 23.6611 343.522 23.6034C343.358 25.6916 340.861 26.1285 340.188 23.9011C339.919 23.8867 339.765 23.8723 339.568 23.9923ZM338.67 40.2992C338.824 40.3568 341.182 41.0001 344.309 38.3119C345.943 36.9101 347.744 34.6156 349.497 30.9048C349.468 30.9144 349.435 30.9241 349.406 30.9337C348.945 31.0585 348.565 30.2232 349.329 29.9352C349.531 29.8584 349.733 29.7528 349.91 29.6279C350.29 29.3687 350.592 29.0471 350.775 28.7591C351.495 27.631 351.683 26.3781 351.433 25.466C351.337 25.1156 351.174 24.8179 350.957 24.6163C350.756 24.4243 350.492 24.3091 350.175 24.2947C349.54 24.2659 348.7 24.6115 347.682 25.5188C347.115 26.0228 346.61 25.3748 346.884 24.9524L346.567 24.5059C346.63 22.5426 346.567 20.9296 346.409 19.6095C346.24 18.2318 345.967 17.1949 345.606 16.4365C345.376 15.9468 345.02 15.4668 344.588 15.0779C344.194 14.7179 343.743 14.4395 343.272 14.2955C342.715 14.1227 342.153 14.1659 341.6 14.3339C340.99 14.5211 340.375 14.8619 339.765 15.2652C339.458 15.4668 339.155 15.6828 338.862 15.894C337.335 16.9885 336.12 17.8574 333.703 17.2141C333.377 17.1277 333.069 16.9645 332.805 16.7389C332.776 16.7149 332.747 16.6909 332.723 16.6669C332.286 17.3293 331.912 18.0926 331.595 18.9327C330.523 21.8129 330.211 25.5428 330.807 29.1287C331.398 32.6858 332.877 36.0797 335.385 38.3215C336.331 39.1567 337.421 39.8384 338.67 40.2992ZM349.435 25.9988C348.83 26.1189 348.762 25.6148 349.396 25.5092C349.588 25.4804 349.761 25.4804 349.915 25.5188C350.17 25.5764 350.362 25.7156 350.492 25.9172C350.612 26.1045 350.674 26.3445 350.674 26.6133C350.674 27.0597 350.501 27.6166 350.141 28.1734C350.006 28.3846 349.781 28.6247 349.512 28.8071C349.368 28.9079 349.209 28.9895 349.036 29.0471C348.623 29.1911 348.455 28.7735 348.969 28.5527C349.06 28.5143 349.151 28.4614 349.238 28.4038C349.454 28.2598 349.627 28.0726 349.733 27.9094C350.04 27.4294 350.189 26.9733 350.189 26.6133C350.189 26.4357 350.155 26.2869 350.083 26.1813C350.021 26.0853 349.93 26.0228 349.809 25.994C349.704 25.97 349.579 25.97 349.435 25.9988ZM331.076 23.8435C332.426 20.2816 336.441 22.1345 336.528 24.0115C336.331 23.8147 335.49 23.349 335.015 23.3106C334.933 25.4036 332.45 25.9316 331.696 23.7331C331.427 23.7235 331.268 23.7187 331.076 23.8435ZM337.388 32.7338C340.178 34.9852 341.192 30.9913 341.682 30.3768C341.543 35.3356 337.738 34.99 337.388 32.7338ZM336.658 28.9943C336.984 29.1719 337.508 29.3543 338.665 29.3783C336.278 30.324 335.437 29.2151 335.471 28.183C335.509 26.7909 336.816 27.0693 336.552 24.8131C337.685 26.3973 335.125 28.1638 336.658 28.9943Z" fill="#FEFEFE"/>
<path fill-rule="evenodd" clip-rule="evenodd" d="M344.028 89.7369L251.83 73.9772C248.525 73.4107 246.306 70.2761 246.868 66.9734L251.898 39.4466C252.465 36.144 255.602 33.9262 258.907 34.4878L351.105 50.2475C354.409 50.814 356.629 53.9486 356.067 57.2513L351.041 84.778C350.47 88.0807 347.333 90.3033 344.028 89.7369Z" fill="#FF6F3D"/>
<path d="M285.266 68.9893L286.983 59.7729C287.341 57.8496 286.702 56.7269 285.082 56.425C283.452 56.1214 282.454 56.9304 282.094 58.8622L280.377 68.0785L275.575 67.1841L277.292 57.9677C277.65 56.0444 277.029 54.925 275.426 54.6263C273.796 54.3227 272.807 55.1333 272.447 57.0651L270.73 66.2815L265.928 65.387L267.746 55.626C268.121 53.6176 269.119 52.2275 270.74 51.464C272.166 50.7787 273.961 50.6288 276.105 51.0281C278.275 51.4324 279.777 52.2757 280.602 53.5565C281.694 52.6328 283.408 52.3885 285.752 52.8252C287.896 53.2246 289.51 54.0007 290.592 55.162C291.829 56.458 292.26 58.1144 291.886 60.1227L290.068 69.8837L285.266 68.9893Z" fill="white"/>
<path d="M278.312 50.7082L283.713 48.1922L283.69 47.9766C274.897 47.404 270.848 47.407 262.65 50.2209L262.685 50.4211L263.276 50.54C263.116 51.109 262.754 52.5208 262.473 54.7051C261.221 56.8757 261.728 58.6079 262.157 60.4666C262.612 58.7022 262.959 56.7416 262.765 54.6889C263.049 52.5318 263.408 51.137 263.562 50.6021L268.469 51.5602C268.469 51.5602 268.165 53.0005 268.092 54.4047C272.204 56.7291 276.905 56.0374 279.94 52.7637C279.412 51.917 278.312 50.7082 278.312 50.7082Z" fill="#333333"/>
<path fill-rule="evenodd" clip-rule="evenodd" d="M324.318 66.2576L336.318 62.9837C337.317 62.7005 337.461 61.9852 336.601 61.4188L326.173 54.583C325.659 54.2422 324.885 54.0022 324.131 53.9253C323.632 53.8773 323.142 53.9013 322.743 54.0118L321.677 54.3046L310.744 57.2856C309.745 57.5688 309.601 58.2841 310.456 58.8506L315.134 61.918L316.364 62.7245L320.884 65.6863C321.605 66.2576 323.175 66.5408 324.318 66.2576Z" fill="white"/>
<path fill-rule="evenodd" clip-rule="evenodd" d="M328.623 66.2096L326.538 66.7665L324.175 67.3953C323.175 67.6785 321.605 67.3953 320.745 66.8241L315.72 63.483L314.495 62.6669L313.89 62.2637L309.745 63.4014C308.746 63.6846 308.602 64.3999 309.457 64.9663L311.392 66.2336L312.627 67.0401L319.89 71.7973C320.212 72.0085 320.61 72.1861 321.057 72.3013C321.706 72.4741 322.44 72.5317 323.151 72.4213C323.257 72.4069 323.358 72.3877 323.459 72.3637L323.757 72.2821L325.236 71.8789L335.458 69.0898C336.457 68.8066 336.601 68.0914 335.746 67.5249L332.172 65.2447L328.623 66.2096Z" fill="white" fill-opacity="0.8"/>
<path fill-rule="evenodd" clip-rule="evenodd" d="M330.89 71.3795L325.198 72.9252L323.728 73.3237L323.031 73.5109C322.666 73.6165 322.224 73.6453 321.768 73.6069C321.148 73.5589 320.505 73.3957 319.991 73.1557C319.851 73.0885 319.722 73.0164 319.602 72.9396L312.886 68.5281L310.653 69.1425L308.741 69.6706C308.669 69.6898 308.602 69.7138 308.534 69.7378C308.501 69.7522 308.467 69.7666 308.434 69.781C307.718 70.1122 307.694 70.7315 308.453 71.2355L308.534 71.2883L315.72 75.9975L317.089 76.8952L318.886 78.0713C319.746 78.6425 321.172 78.9257 322.171 78.6425L323.675 78.2345L325.135 77.836L330.482 76.3767L334.175 75.3686C334.622 75.2438 334.896 75.0278 334.987 74.783C335.102 74.4758 334.934 74.1157 334.459 73.8037L330.89 71.3795Z" fill="white" fill-opacity="0.6"/>
</g>
</g>
<defs>
<clipPath id="clip0_6344_155765">
<rect width="448" height="254" fill="white"/>
</clipPath>
<clipPath id="clip1_6344_155765">
<rect width="448" height="254" fill="white"/>
</clipPath>
</defs>
</svg>
