<svg width="64" height="64" viewBox="0 0 64 64" fill="none" xmlns="http://www.w3.org/2000/svg">
<path fill-rule="evenodd" clip-rule="evenodd" d="M38.2411 40.939C31.8254 45.9993 31.1534 45.2208 25.8699 41.3282L5.1134 59.4954C5.49079 60.4019 6.81166 60.8114 7.56644 60.7912H56.0612C58.0277 60.8114 58.7029 60.4019 59.4577 59.6234L38.2411 40.939Z" fill="#EFEFEF"/>
<path fill-rule="evenodd" clip-rule="evenodd" d="M51.3619 18.1389V32.9389L62.1609 25.7389L51.3619 18.1389Z" fill="#BDECFF"/>
<path fill-rule="evenodd" clip-rule="evenodd" d="M13.7651 17.3389V33.3322L2.24304 25.4449L13.7651 17.3389Z" fill="#BDECFF"/>
<path fill-rule="evenodd" clip-rule="evenodd" d="M37.0701 7.1936L27.4968 7.1936L32.1607 4L37.0701 7.1936Z" fill="#BDECFF"/>
<path fill-rule="evenodd" clip-rule="evenodd" d="M61.9967 55.8799V27.1892C61.9967 25.8821 61.3659 24.656 60.3045 23.9001L34.8209 5.7506C33.4306 4.76039 31.5694 4.76039 30.1791 5.75059L4.6955 23.9001C3.63406 24.656 3.00329 25.8821 3.00329 27.1892V55.8799C3.00329 58.1066 4.78348 59.9921 6.99988 59.9921H57.9886C60.205 59.9921 61.9967 58.1066 61.9967 55.8799ZM4.11527 23.0778C2.78847 24.0228 2 25.5553 2 27.1892V55.8799C2 58.6633 4.22938 61 6.99988 61H57.9886C60.7591 61 63 58.6633 63 55.8799V27.1892C63 25.5553 62.2115 24.0228 60.8847 23.0778L35.4012 4.92831C33.6633 3.69056 31.3367 3.69056 29.5988 4.92831L4.11527 23.0778Z" fill="#333333"/>
<path fill-rule="evenodd" clip-rule="evenodd" d="M33.2579 44.3919L51.3615 32.7919V7.19189H19.9821L12.7407 14.3919L12.7013 32.9931L29.2349 44.3919C30.7079 45.1799 31.5933 45.1935 33.2579 44.3919ZM19.9821 14.3919H13.9476L19.9821 8.39189V14.3919Z" fill="white"/>
<path d="M42 23.4689C42 24.5734 41.8235 25.5852 41.4706 26.5043C41.1176 27.4157 40.6196 28.1262 39.9765 28.636C39.3412 29.1457 38.6039 29.4006 37.7647 29.4006C37.1451 29.4006 36.6078 29.2384 36.1529 28.914C35.698 28.5896 35.3922 28.1494 35.2353 27.5933H35.0941C34.7098 28.1957 34.2353 28.6476 33.6706 28.9488C33.1059 29.25 32.4706 29.4006 31.7647 29.4006C30.4863 29.4006 29.4784 28.9951 28.7412 28.1841C28.0118 27.3732 27.6471 26.2764 27.6471 24.8939C27.6471 23.3028 28.1333 22.013 29.1059 21.0244C30.0784 20.028 31.3843 19.5299 33.0235 19.5299C33.6196 19.5299 34.2784 19.5839 35 19.6921C35.7294 19.7925 36.3765 19.9354 36.9412 20.1207L36.6824 25.5079V25.786C36.6824 27.0217 37.0902 27.6396 37.9059 27.6396C38.5255 27.6396 39.0157 27.2457 39.3765 26.4579C39.7451 25.6701 39.9294 24.6661 39.9294 23.4457C39.9294 22.125 39.6549 20.9665 39.1059 19.9701C38.5569 18.9661 37.7765 18.1937 36.7647 17.653C35.7529 17.1124 34.5922 16.8421 33.2824 16.8421C31.6118 16.8421 30.1569 17.1819 28.9176 17.8616C27.6863 18.5413 26.7451 19.5144 26.0941 20.7811C25.4431 22.04 25.1176 23.5037 25.1176 25.172C25.1176 27.4118 25.7255 29.1341 26.9412 30.339C28.1569 31.5439 29.902 32.1463 32.1765 32.1463C33.9098 32.1463 35.7176 31.7988 37.6 31.1037V33.0037C35.9529 33.6679 34.1608 34 32.2235 34C29.3216 34 27.0588 33.2315 25.4353 31.6945C23.8118 30.1498 23 27.9988 23 25.2415C23 23.2256 23.4392 21.4337 24.3176 19.8659C25.1961 18.2902 26.4118 17.0854 27.9647 16.2512C29.5255 15.4171 31.2902 15 33.2588 15C34.9608 15 36.4745 15.3476 37.8 16.0427C39.1333 16.7378 40.1647 17.7303 40.8941 19.0201C41.6314 20.3022 42 21.7852 42 23.4689ZM29.9059 24.9402C29.9059 26.7398 30.6235 27.6396 32.0588 27.6396C33.5725 27.6396 34.4 26.5081 34.5412 24.2451L34.6824 21.4762C34.1882 21.3449 33.6588 21.2793 33.0941 21.2793C32.0902 21.2793 31.3059 21.6075 30.7412 22.264C30.1843 22.9205 29.9059 23.8126 29.9059 24.9402Z" fill="#FF6F3D"/>
<path d="M20.2985 8.13892V14.4118H13.7655L20.2985 8.13892Z" fill="#FF6F3D"/>
<path fill-rule="evenodd" clip-rule="evenodd" d="M13.978 14.9166H21.0145V8.0101H51.0455V32.846L52 31.9699V7H20.6584L13 14.3779V32.2736L13.978 33V14.9166ZM19.9732 14.0091H14.9877L19.9732 9.06523V14.0091Z" fill="#333333"/>
<path fill-rule="evenodd" clip-rule="evenodd" d="M39.4806 41.87L63 26.839L62.4427 26L38.3507 41.3969L34.2708 44.1182C32.7118 45.1581 30.6634 45.1581 29.1045 44.1182L25.8498 41.9473L2.57444 26.4062L2 27.2339L24.7242 42.4071L3.54676 59.9998L4.21159 60.7597L25.5985 42.9907L28.5304 44.9463C30.4358 46.2172 32.9394 46.2172 34.8448 44.9463L38.5946 42.4451L60.6592 61L61.3212 60.2378L39.4806 41.87Z" fill="#333333"/>
</svg>
