<svg width="64" height="64" viewBox="0 0 64 64" fill="none" xmlns="http://www.w3.org/2000/svg">
<path fill-rule="evenodd" clip-rule="evenodd" d="M57.6676 7.00012C60.0605 7.00012 62.0002 8.98477 62.0002 11.433V56.5673C62.0002 59.0155 60.0605 61.0001 57.6676 61.0001H6.33284C3.94001 61.0001 2.00024 59.0155 2.00024 56.5673V11.433C2.00024 8.98477 3.94002 7.00012 6.33285 7.00012C37.0959 7.00012 42.9596 7.00012 57.6676 7.00012Z" fill="white"/>
<path fill-rule="evenodd" clip-rule="evenodd" d="M57.6647 6.00012C60.6311 6.00012 62.997 8.45417 62.997 11.433V56.5673C62.997 59.5461 60.6311 62.0001 57.6647 62.0001H6.33256C3.36617 62.0001 1.00024 59.5461 1.00024 56.5673V11.433C1.00024 8.45417 3.36617 6.00012 6.33257 6.00012H57.6647ZM61.997 11.433C61.997 8.98477 60.0574 7.00012 57.6647 7.00012H6.33257C3.93986 7.00012 2.00019 8.98477 2.00019 11.433V56.5673C2.00019 59.0155 3.93986 61.0001 6.33256 61.0001H57.6647C60.0574 61.0001 61.997 59.0155 61.997 56.5673V11.433Z" fill="#333333"/>
<path d="M2.00024 12.1335C2.00024 8.86679 4.57896 7.00012 6.34235 7.00012H57.6581C60.4213 7.00012 62.0002 9.59051 62.0002 11.6668V21.0001H2.00024V12.1335Z" fill="#BDECFF"/>
<path fill-rule="evenodd" clip-rule="evenodd" d="M6.00024 17.5001C6.00024 17.224 6.1728 17.0001 6.38567 17.0001H57.6148C57.8277 17.0001 58.0002 17.224 58.0002 17.5001C58.0002 17.7763 57.8277 18.0001 57.6148 18.0001H6.38567C6.1728 18.0001 6.00024 17.7763 6.00024 17.5001Z" fill="#333333"/>
<path d="M31.0002 30.0001C31.0002 28.8956 31.8957 28.0001 33.0002 28.0001C34.1048 28.0001 35.0002 28.8956 35.0002 30.0001C35.0002 31.1047 34.1048 32.0001 33.0002 32.0001C31.8957 32.0001 31.0002 31.1047 31.0002 30.0001Z" fill="#EFEFEF"/>
<path fill-rule="evenodd" clip-rule="evenodd" d="M33.0002 29.0001C32.448 29.0001 32.0002 29.4478 32.0002 30.0001C32.0002 30.5524 32.448 31.0001 33.0002 31.0001C33.5525 31.0001 34.0002 30.5524 34.0002 30.0001C34.0002 29.4478 33.5525 29.0001 33.0002 29.0001ZM33.0002 28.0001C31.8957 28.0001 31.0002 28.8956 31.0002 30.0001C31.0002 31.1047 31.8957 32.0001 33.0002 32.0001C34.1048 32.0001 35.0002 31.1047 35.0002 30.0001C35.0002 28.8956 34.1048 28.0001 33.0002 28.0001Z" fill="#333333"/>
<path d="M31.0002 37.0001C31.0002 35.8956 31.8957 35.0001 33.0002 35.0001C34.1048 35.0001 35.0002 35.8956 35.0002 37.0001C35.0002 38.1047 34.1048 39.0001 33.0002 39.0001C31.8957 39.0001 31.0002 38.1047 31.0002 37.0001Z" fill="#EFEFEF"/>
<path fill-rule="evenodd" clip-rule="evenodd" d="M33.0002 36.0001C32.448 36.0001 32.0002 36.4478 32.0002 37.0001C32.0002 37.5524 32.448 38.0001 33.0002 38.0001C33.5525 38.0001 34.0002 37.5524 34.0002 37.0001C34.0002 36.4478 33.5525 36.0001 33.0002 36.0001ZM33.0002 35.0001C31.8957 35.0001 31.0002 35.8956 31.0002 37.0001C31.0002 38.1047 31.8957 39.0001 33.0002 39.0001C34.1048 39.0001 35.0002 38.1047 35.0002 37.0001C35.0002 35.8956 34.1048 35.0001 33.0002 35.0001Z" fill="#333333"/>
<path d="M31.0002 44.0001C31.0002 42.8956 31.8957 42.0001 33.0002 42.0001C34.1048 42.0001 35.0002 42.8956 35.0002 44.0001C35.0002 45.1047 34.1048 46.0001 33.0002 46.0001C31.8957 46.0001 31.0002 45.1047 31.0002 44.0001Z" fill="#EFEFEF"/>
<path fill-rule="evenodd" clip-rule="evenodd" d="M33.0002 43.0001C32.448 43.0001 32.0002 43.4478 32.0002 44.0001C32.0002 44.5524 32.448 45.0001 33.0002 45.0001C33.5525 45.0001 34.0002 44.5524 34.0002 44.0001C34.0002 43.4478 33.5525 43.0001 33.0002 43.0001ZM33.0002 42.0001C31.8957 42.0001 31.0002 42.8956 31.0002 44.0001C31.0002 45.1047 31.8957 46.0001 33.0002 46.0001C34.1048 46.0001 35.0002 45.1047 35.0002 44.0001C35.0002 42.8956 34.1048 42.0001 33.0002 42.0001Z" fill="#333333"/>
<path d="M31.0002 51.0001C31.0002 49.8956 31.8957 49.0001 33.0002 49.0001C34.1048 49.0001 35.0002 49.8956 35.0002 51.0001C35.0002 52.1047 34.1048 53.0001 33.0002 53.0001C31.8957 53.0001 31.0002 52.1047 31.0002 51.0001Z" fill="#EFEFEF"/>
<path fill-rule="evenodd" clip-rule="evenodd" d="M33.0002 50.0001C32.448 50.0001 32.0002 50.4478 32.0002 51.0001C32.0002 51.5524 32.448 52.0001 33.0002 52.0001C33.5525 52.0001 34.0002 51.5524 34.0002 51.0001C34.0002 50.4478 33.5525 50.0001 33.0002 50.0001ZM33.0002 49.0001C31.8957 49.0001 31.0002 49.8956 31.0002 51.0001C31.0002 52.1047 31.8957 53.0001 33.0002 53.0001C34.1048 53.0001 35.0002 52.1047 35.0002 51.0001C35.0002 49.8956 34.1048 49.0001 33.0002 49.0001Z" fill="#333333"/>
<path d="M17.0002 37.0001C17.0002 35.8956 17.8957 35.0001 19.0002 35.0001C20.1048 35.0001 21.0002 35.8956 21.0002 37.0001C21.0002 38.1047 20.1048 39.0001 19.0002 39.0001C17.8957 39.0001 17.0002 38.1047 17.0002 37.0001Z" fill="#EFEFEF"/>
<path fill-rule="evenodd" clip-rule="evenodd" d="M19.0002 36.0001C18.448 36.0001 18.0002 36.4478 18.0002 37.0001C18.0002 37.5524 18.448 38.0001 19.0002 38.0001C19.5525 38.0001 20.0002 37.5524 20.0002 37.0001C20.0002 36.4478 19.5525 36.0001 19.0002 36.0001ZM19.0002 35.0001C17.8957 35.0001 17.0002 35.8956 17.0002 37.0001C17.0002 38.1047 17.8957 39.0001 19.0002 39.0001C20.1048 39.0001 21.0002 38.1047 21.0002 37.0001C21.0002 35.8956 20.1048 35.0001 19.0002 35.0001Z" fill="#333333"/>
<path d="M17.0002 44.0001C17.0002 42.8956 17.8957 42.0001 19.0002 42.0001C20.1048 42.0001 21.0002 42.8956 21.0002 44.0001C21.0002 45.1047 20.1048 46.0001 19.0002 46.0001C17.8957 46.0001 17.0002 45.1047 17.0002 44.0001Z" fill="#EFEFEF"/>
<path fill-rule="evenodd" clip-rule="evenodd" d="M19.0002 43.0001C18.448 43.0001 18.0002 43.4478 18.0002 44.0001C18.0002 44.5524 18.448 45.0001 19.0002 45.0001C19.5525 45.0001 20.0002 44.5524 20.0002 44.0001C20.0002 43.4478 19.5525 43.0001 19.0002 43.0001ZM19.0002 42.0001C17.8957 42.0001 17.0002 42.8956 17.0002 44.0001C17.0002 45.1047 17.8957 46.0001 19.0002 46.0001C20.1048 46.0001 21.0002 45.1047 21.0002 44.0001C21.0002 42.8956 20.1048 42.0001 19.0002 42.0001Z" fill="#333333"/>
<path d="M17.0002 51.0001C17.0002 49.8956 17.8957 49.0001 19.0002 49.0001C20.1048 49.0001 21.0002 49.8956 21.0002 51.0001C21.0002 52.1047 20.1048 53.0001 19.0002 53.0001C17.8957 53.0001 17.0002 52.1047 17.0002 51.0001Z" fill="#EFEFEF"/>
<path fill-rule="evenodd" clip-rule="evenodd" d="M19.0002 50.0001C18.448 50.0001 18.0002 50.4478 18.0002 51.0001C18.0002 51.5524 18.448 52.0001 19.0002 52.0001C19.5525 52.0001 20.0002 51.5524 20.0002 51.0001C20.0002 50.4478 19.5525 50.0001 19.0002 50.0001ZM19.0002 49.0001C17.8957 49.0001 17.0002 49.8956 17.0002 51.0001C17.0002 52.1047 17.8957 53.0001 19.0002 53.0001C20.1048 53.0001 21.0002 52.1047 21.0002 51.0001C21.0002 49.8956 20.1048 49.0001 19.0002 49.0001Z" fill="#333333"/>
<path d="M45.0002 30.0001C45.0002 28.8956 45.8957 28.0001 47.0002 28.0001C48.1048 28.0001 49.0002 28.8956 49.0002 30.0001C49.0002 31.1047 48.1048 32.0001 47.0002 32.0001C45.8957 32.0001 45.0002 31.1047 45.0002 30.0001Z" fill="#EFEFEF"/>
<path fill-rule="evenodd" clip-rule="evenodd" d="M47.0002 29.0001C46.448 29.0001 46.0002 29.4478 46.0002 30.0001C46.0002 30.5524 46.448 31.0001 47.0002 31.0001C47.5525 31.0001 48.0002 30.5524 48.0002 30.0001C48.0002 29.4478 47.5525 29.0001 47.0002 29.0001ZM47.0002 28.0001C45.8957 28.0001 45.0002 28.8956 45.0002 30.0001C45.0002 31.1047 45.8957 32.0001 47.0002 32.0001C48.1048 32.0001 49.0002 31.1047 49.0002 30.0001C49.0002 28.8956 48.1048 28.0001 47.0002 28.0001Z" fill="#333333"/>
<path d="M45.0002 37.0001C45.0002 35.8956 45.8957 35.0001 47.0002 35.0001C48.1048 35.0001 49.0002 35.8956 49.0002 37.0001C49.0002 38.1047 48.1048 39.0001 47.0002 39.0001C45.8957 39.0001 45.0002 38.1047 45.0002 37.0001Z" fill="#EFEFEF"/>
<path fill-rule="evenodd" clip-rule="evenodd" d="M47.0002 36.0001C46.448 36.0001 46.0002 36.4478 46.0002 37.0001C46.0002 37.5524 46.448 38.0001 47.0002 38.0001C47.5525 38.0001 48.0002 37.5524 48.0002 37.0001C48.0002 36.4478 47.5525 36.0001 47.0002 36.0001ZM47.0002 35.0001C45.8957 35.0001 45.0002 35.8956 45.0002 37.0001C45.0002 38.1047 45.8957 39.0001 47.0002 39.0001C48.1048 39.0001 49.0002 38.1047 49.0002 37.0001C49.0002 35.8956 48.1048 35.0001 47.0002 35.0001Z" fill="#333333"/>
<path d="M45.0002 44.0001C45.0002 42.8956 45.8957 42.0001 47.0002 42.0001C48.1048 42.0001 49.0002 42.8956 49.0002 44.0001C49.0002 45.1047 48.1048 46.0001 47.0002 46.0001C45.8957 46.0001 45.0002 45.1047 45.0002 44.0001Z" fill="#EFEFEF"/>
<path fill-rule="evenodd" clip-rule="evenodd" d="M47.0002 43.0001C46.448 43.0001 46.0002 43.4478 46.0002 44.0001C46.0002 44.5524 46.448 45.0001 47.0002 45.0001C47.5525 45.0001 48.0002 44.5524 48.0002 44.0001C48.0002 43.4478 47.5525 43.0001 47.0002 43.0001ZM47.0002 42.0001C45.8957 42.0001 45.0002 42.8956 45.0002 44.0001C45.0002 45.1047 45.8957 46.0001 47.0002 46.0001C48.1048 46.0001 49.0002 45.1047 49.0002 44.0001C49.0002 42.8956 48.1048 42.0001 47.0002 42.0001Z" fill="#333333"/>
<path d="M10.0002 37.0001C10.0002 35.8956 10.8957 35.0001 12.0002 35.0001C13.1048 35.0001 14.0002 35.8956 14.0002 37.0001C14.0002 38.1047 13.1048 39.0001 12.0002 39.0001C10.8957 39.0001 10.0002 38.1047 10.0002 37.0001Z" fill="#EFEFEF"/>
<path fill-rule="evenodd" clip-rule="evenodd" d="M12.0002 36.0001C11.448 36.0001 11.0002 36.4478 11.0002 37.0001C11.0002 37.5524 11.448 38.0001 12.0002 38.0001C12.5525 38.0001 13.0002 37.5524 13.0002 37.0001C13.0002 36.4478 12.5525 36.0001 12.0002 36.0001ZM12.0002 35.0001C10.8957 35.0001 10.0002 35.8956 10.0002 37.0001C10.0002 38.1047 10.8957 39.0001 12.0002 39.0001C13.1048 39.0001 14.0002 38.1047 14.0002 37.0001C14.0002 35.8956 13.1048 35.0001 12.0002 35.0001Z" fill="#333333"/>
<path d="M10.0002 44.0001C10.0002 42.8956 10.8957 42.0001 12.0002 42.0001C13.1048 42.0001 14.0002 42.8956 14.0002 44.0001C14.0002 45.1047 13.1048 46.0001 12.0002 46.0001C10.8957 46.0001 10.0002 45.1047 10.0002 44.0001Z" fill="#EFEFEF"/>
<path fill-rule="evenodd" clip-rule="evenodd" d="M12.0002 43.0001C11.448 43.0001 11.0002 43.4478 11.0002 44.0001C11.0002 44.5524 11.448 45.0001 12.0002 45.0001C12.5525 45.0001 13.0002 44.5524 13.0002 44.0001C13.0002 43.4478 12.5525 43.0001 12.0002 43.0001ZM12.0002 42.0001C10.8957 42.0001 10.0002 42.8956 10.0002 44.0001C10.0002 45.1047 10.8957 46.0001 12.0002 46.0001C13.1048 46.0001 14.0002 45.1047 14.0002 44.0001C14.0002 42.8956 13.1048 42.0001 12.0002 42.0001Z" fill="#333333"/>
<path d="M10.0002 51.0001C10.0002 49.8956 10.8957 49.0001 12.0002 49.0001C13.1048 49.0001 14.0002 49.8956 14.0002 51.0001C14.0002 52.1047 13.1048 53.0001 12.0002 53.0001C10.8957 53.0001 10.0002 52.1047 10.0002 51.0001Z" fill="#EFEFEF"/>
<path fill-rule="evenodd" clip-rule="evenodd" d="M12.0002 50.0001C11.448 50.0001 11.0002 50.4478 11.0002 51.0001C11.0002 51.5524 11.448 52.0001 12.0002 52.0001C12.5525 52.0001 13.0002 51.5524 13.0002 51.0001C13.0002 50.4478 12.5525 50.0001 12.0002 50.0001ZM12.0002 49.0001C10.8957 49.0001 10.0002 49.8956 10.0002 51.0001C10.0002 52.1047 10.8957 53.0001 12.0002 53.0001C13.1048 53.0001 14.0002 52.1047 14.0002 51.0001C14.0002 49.8956 13.1048 49.0001 12.0002 49.0001Z" fill="#333333"/>
<path d="M38.0002 30.0001C38.0002 28.8956 38.8957 28.0001 40.0002 28.0001C41.1048 28.0001 42.0002 28.8956 42.0002 30.0001C42.0002 31.1047 41.1048 32.0001 40.0002 32.0001C38.8957 32.0001 38.0002 31.1047 38.0002 30.0001Z" fill="#EFEFEF"/>
<path fill-rule="evenodd" clip-rule="evenodd" d="M40.0002 29.0001C39.448 29.0001 39.0002 29.4478 39.0002 30.0001C39.0002 30.5524 39.448 31.0001 40.0002 31.0001C40.5525 31.0001 41.0002 30.5524 41.0002 30.0001C41.0002 29.4478 40.5525 29.0001 40.0002 29.0001ZM40.0002 28.0001C38.8957 28.0001 38.0002 28.8956 38.0002 30.0001C38.0002 31.1047 38.8957 32.0001 40.0002 32.0001C41.1048 32.0001 42.0002 31.1047 42.0002 30.0001C42.0002 28.8956 41.1048 28.0001 40.0002 28.0001Z" fill="#333333"/>
<path d="M38.0002 37.0001C38.0002 35.8956 38.8957 35.0001 40.0002 35.0001C41.1048 35.0001 42.0002 35.8956 42.0002 37.0001C42.0002 38.1047 41.1048 39.0001 40.0002 39.0001C38.8957 39.0001 38.0002 38.1047 38.0002 37.0001Z" fill="#EFEFEF"/>
<path fill-rule="evenodd" clip-rule="evenodd" d="M40.0002 36.0001C39.448 36.0001 39.0002 36.4478 39.0002 37.0001C39.0002 37.5524 39.448 38.0001 40.0002 38.0001C40.5525 38.0001 41.0002 37.5524 41.0002 37.0001C41.0002 36.4478 40.5525 36.0001 40.0002 36.0001ZM40.0002 35.0001C38.8957 35.0001 38.0002 35.8956 38.0002 37.0001C38.0002 38.1047 38.8957 39.0001 40.0002 39.0001C41.1048 39.0001 42.0002 38.1047 42.0002 37.0001C42.0002 35.8956 41.1048 35.0001 40.0002 35.0001Z" fill="#333333"/>
<path d="M38.0002 44.0001C38.0002 42.8956 38.8957 42.0001 40.0002 42.0001C41.1048 42.0001 42.0002 42.8956 42.0002 44.0001C42.0002 45.1047 41.1048 46.0001 40.0002 46.0001C38.8957 46.0001 38.0002 45.1047 38.0002 44.0001Z" fill="#EFEFEF"/>
<path fill-rule="evenodd" clip-rule="evenodd" d="M40.0002 43.0001C39.448 43.0001 39.0002 43.4478 39.0002 44.0001C39.0002 44.5524 39.448 45.0001 40.0002 45.0001C40.5525 45.0001 41.0002 44.5524 41.0002 44.0001C41.0002 43.4478 40.5525 43.0001 40.0002 43.0001ZM40.0002 42.0001C38.8957 42.0001 38.0002 42.8956 38.0002 44.0001C38.0002 45.1047 38.8957 46.0001 40.0002 46.0001C41.1048 46.0001 42.0002 45.1047 42.0002 44.0001C42.0002 42.8956 41.1048 42.0001 40.0002 42.0001Z" fill="#333333"/>
<path d="M38.0002 51.0001C38.0002 49.8956 38.8957 49.0001 40.0002 49.0001C41.1048 49.0001 42.0002 49.8956 42.0002 51.0001C42.0002 52.1047 41.1048 53.0001 40.0002 53.0001C38.8957 53.0001 38.0002 52.1047 38.0002 51.0001Z" fill="#EFEFEF"/>
<path fill-rule="evenodd" clip-rule="evenodd" d="M40.0002 50.0001C39.448 50.0001 39.0002 50.4478 39.0002 51.0001C39.0002 51.5524 39.448 52.0001 40.0002 52.0001C40.5525 52.0001 41.0002 51.5524 41.0002 51.0001C41.0002 50.4478 40.5525 50.0001 40.0002 50.0001ZM40.0002 49.0001C38.8957 49.0001 38.0002 49.8956 38.0002 51.0001C38.0002 52.1047 38.8957 53.0001 40.0002 53.0001C41.1048 53.0001 42.0002 52.1047 42.0002 51.0001C42.0002 49.8956 41.1048 49.0001 40.0002 49.0001Z" fill="#333333"/>
<path d="M24.0002 44.0001C24.0002 42.8956 24.8957 42.0001 26.0002 42.0001C27.1048 42.0001 28.0002 42.8956 28.0002 44.0001C28.0002 45.1047 27.1048 46.0001 26.0002 46.0001C24.8957 46.0001 24.0002 45.1047 24.0002 44.0001Z" fill="#EFEFEF"/>
<path fill-rule="evenodd" clip-rule="evenodd" d="M26.0002 43.0001C25.448 43.0001 25.0002 43.4478 25.0002 44.0001C25.0002 44.5524 25.448 45.0001 26.0002 45.0001C26.5525 45.0001 27.0002 44.5524 27.0002 44.0001C27.0002 43.4478 26.5525 43.0001 26.0002 43.0001ZM26.0002 42.0001C24.8957 42.0001 24.0002 42.8956 24.0002 44.0001C24.0002 45.1047 24.8957 46.0001 26.0002 46.0001C27.1048 46.0001 28.0002 45.1047 28.0002 44.0001C28.0002 42.8956 27.1048 42.0001 26.0002 42.0001Z" fill="#333333"/>
<path d="M24.0002 51.0001C24.0002 49.8956 24.8957 49.0001 26.0002 49.0001C27.1048 49.0001 28.0002 49.8956 28.0002 51.0001C28.0002 52.1047 27.1048 53.0001 26.0002 53.0001C24.8957 53.0001 24.0002 52.1047 24.0002 51.0001Z" fill="#EFEFEF"/>
<path fill-rule="evenodd" clip-rule="evenodd" d="M26.0002 50.0001C25.448 50.0001 25.0002 50.4478 25.0002 51.0001C25.0002 51.5524 25.448 52.0001 26.0002 52.0001C26.5525 52.0001 27.0002 51.5524 27.0002 51.0001C27.0002 50.4478 26.5525 50.0001 26.0002 50.0001ZM26.0002 49.0001C24.8957 49.0001 24.0002 49.8956 24.0002 51.0001C24.0002 52.1047 24.8957 53.0001 26.0002 53.0001C27.1048 53.0001 28.0002 52.1047 28.0002 51.0001C28.0002 49.8956 27.1048 49.0001 26.0002 49.0001Z" fill="#333333"/>
<path d="M52.0002 30.0001C52.0002 28.8956 52.8957 28.0001 54.0002 28.0001C55.1048 28.0001 56.0002 28.8956 56.0002 30.0001C56.0002 31.1047 55.1048 32.0001 54.0002 32.0001C52.8957 32.0001 52.0002 31.1047 52.0002 30.0001Z" fill="#EFEFEF"/>
<path fill-rule="evenodd" clip-rule="evenodd" d="M54.0002 29.0001C53.448 29.0001 53.0002 29.4478 53.0002 30.0001C53.0002 30.5524 53.448 31.0001 54.0002 31.0001C54.5525 31.0001 55.0002 30.5524 55.0002 30.0001C55.0002 29.4478 54.5525 29.0001 54.0002 29.0001ZM54.0002 28.0001C52.8957 28.0001 52.0002 28.8956 52.0002 30.0001C52.0002 31.1047 52.8957 32.0001 54.0002 32.0001C55.1048 32.0001 56.0002 31.1047 56.0002 30.0001C56.0002 28.8956 55.1048 28.0001 54.0002 28.0001Z" fill="#333333"/>
<path d="M52.0002 37.0001C52.0002 35.8956 52.8957 35.0001 54.0002 35.0001C55.1048 35.0001 56.0002 35.8956 56.0002 37.0001C56.0002 38.1047 55.1048 39.0001 54.0002 39.0001C52.8957 39.0001 52.0002 38.1047 52.0002 37.0001Z" fill="#EFEFEF"/>
<path fill-rule="evenodd" clip-rule="evenodd" d="M54.0002 36.0001C53.448 36.0001 53.0002 36.4478 53.0002 37.0001C53.0002 37.5524 53.448 38.0001 54.0002 38.0001C54.5525 38.0001 55.0002 37.5524 55.0002 37.0001C55.0002 36.4478 54.5525 36.0001 54.0002 36.0001ZM54.0002 35.0001C52.8957 35.0001 52.0002 35.8956 52.0002 37.0001C52.0002 38.1047 52.8957 39.0001 54.0002 39.0001C55.1048 39.0001 56.0002 38.1047 56.0002 37.0001C56.0002 35.8956 55.1048 35.0001 54.0002 35.0001Z" fill="#333333"/>
<path d="M52.0002 44.0001C52.0002 42.8956 52.8957 42.0001 54.0002 42.0001C55.1048 42.0001 56.0002 42.8956 56.0002 44.0001C56.0002 45.1047 55.1048 46.0001 54.0002 46.0001C52.8957 46.0001 52.0002 45.1047 52.0002 44.0001Z" fill="#EFEFEF"/>
<path fill-rule="evenodd" clip-rule="evenodd" d="M54.0002 43.0001C53.448 43.0001 53.0002 43.4478 53.0002 44.0001C53.0002 44.5524 53.448 45.0001 54.0002 45.0001C54.5525 45.0001 55.0002 44.5524 55.0002 44.0001C55.0002 43.4478 54.5525 43.0001 54.0002 43.0001ZM54.0002 42.0001C52.8957 42.0001 52.0002 42.8956 52.0002 44.0001C52.0002 45.1047 52.8957 46.0001 54.0002 46.0001C55.1048 46.0001 56.0002 45.1047 56.0002 44.0001C56.0002 42.8956 55.1048 42.0001 54.0002 42.0001Z" fill="#333333"/>
<path d="M24.0002 37.0001C24.0002 35.8956 24.8957 35.0001 26.0002 35.0001C27.1048 35.0001 28.0002 35.8956 28.0002 37.0001C28.0002 38.1047 27.1048 39.0001 26.0002 39.0001C24.8957 39.0001 24.0002 38.1047 24.0002 37.0001Z" fill="url(#paint0_linear)"/>
<path fill-rule="evenodd" clip-rule="evenodd" d="M17 3L17 11L16 11L16 3L17 3Z" fill="#333333"/>
<path fill-rule="evenodd" clip-rule="evenodd" d="M45 3L45 11L44 11L44 3L45 3Z" fill="#333333"/>
<path fill-rule="evenodd" clip-rule="evenodd" d="M20 3L20 11L19 11L19 3L20 3Z" fill="#333333"/>
<path fill-rule="evenodd" clip-rule="evenodd" d="M48 3L48 11L47 11L47 3L48 3Z" fill="#333333"/>
<defs>
<linearGradient id="paint0_linear" x1="24.0003" y1="34.8439" x2="28.0003" y2="39.0001" gradientUnits="userSpaceOnUse">
<stop stop-color="#FFC671"/>
<stop offset="0.59375" stop-color="#FF7541"/>
<stop offset="1" stop-color="#FF6F3D"/>
</linearGradient>
</defs>
</svg>
