<svg width="64" height="64" viewBox="0 0 64 64" fill="none" xmlns="http://www.w3.org/2000/svg">
<path d="M1.21448 7C1.21448 4.79086 2.95207 3 5.0955 3H59.4298C61.5732 3 63.3108 4.79086 63.3108 7V57C63.3108 59.2091 61.5732 61 59.4298 61H5.0955C2.95207 61 1.21448 59.2091 1.21448 57V7Z" fill="white"/>
<path fill-rule="evenodd" clip-rule="evenodd" d="M4.84848 2H59.1515C61.8293 2 64 4.23858 64 7V57C64 59.7614 61.8293 62 59.1515 62H4.84848C2.17074 62 0 59.7614 0 57V7C0 4.23857 2.17074 2 4.84848 2ZM4.84848 3C2.70629 3 0.969697 4.79086 0.969697 7V57C0.969697 59.2091 2.70629 61 4.84848 61H59.1515C61.2937 61 63.0303 59.2091 63.0303 57V7C63.0303 4.79086 61.2937 3 59.1515 3H4.84848Z" fill="#333333"/>
<path d="M28 54.5V44.5C28 43.6716 27.3284 43 26.5 43C25.6716 43 25 43.6716 25 44.5V54.5C25 55.3284 25.6716 56 26.5 56C27.3284 56 28 55.3284 28 54.5Z" fill="url(#paint0_linear)"/>
<path d="M35 54.5V42.5C35 41.6716 34.3284 41 33.5 41C32.6716 41 32 41.6716 32 42.5V54.5C32 55.3284 32.6716 56 33.5 56C34.3284 56 35 55.3284 35 54.5Z" fill="url(#paint1_linear)"/>
<path d="M42 54.5V38.5C42 37.6716 41.3284 37 40.5 37C39.6716 37 39 37.6716 39 38.5V54.5C39 55.3284 39.6716 56 40.5 56C41.3284 56 42 55.3284 42 54.5Z" fill="url(#paint2_linear)"/>
<path d="M49 54.5V36.5C49 35.6716 48.3284 35 47.5 35C46.6716 35 46 35.6716 46 36.5V54.5C46 55.3284 46.6716 56 47.5 56C48.3284 56 49 55.3284 49 54.5Z" fill="url(#paint3_linear)"/>
<path d="M55 54.5003V31.4997C55 30.6714 54.3284 30 53.5 30C52.6716 30 52 30.6714 52 31.4997V54.5003C52 55.3286 52.6716 56 53.5 56C54.3284 56 55 55.3286 55 54.5003Z" fill="url(#paint4_linear)"/>
<path d="M1 8C1 5.23858 3.1069 3 5.70588 3H17V61H5.70588C3.10689 61 1 58.7614 1 56V8Z" fill="#EFEFEF"/>
<path d="M36.0272 8.47192C37.4223 8.47192 40.0255 10.3334 40.3489 11.3334L34.5273 15.3334L36.0272 8.47192Z" fill="#BDECFF"/>
<path fill-rule="evenodd" clip-rule="evenodd" d="M39.6411 11.052C39.2562 10.6142 38.7133 10.1625 38.0785 9.76816C37.4543 9.3804 36.8344 9.10569 36.3162 8.9571L35.2984 14.2258L39.6411 11.052ZM40.9859 11.295C40.1488 9.56169 37.2191 7.82837 35.5449 7.82837L33.8707 16.495L40.9859 11.295Z" fill="#333333"/>
<path fill-rule="evenodd" clip-rule="evenodd" d="M40.9131 14.4922C40.961 14.8193 40.9858 15.1542 40.9858 15.4951C40.9858 19.177 38.0899 22.1617 34.5175 22.1617C30.9451 22.1617 28.0491 19.177 28.0491 15.4951C28.0491 12.3874 30.1123 9.77632 32.9039 9.03751L32.9496 7.99902C29.5943 8.74096 27.0789 11.8153 27.0789 15.4951C27.0789 19.7293 30.4092 23.1617 34.5175 23.1617C38.6257 23.1617 41.9561 19.7293 41.9561 15.4951C41.9561 14.9908 41.9089 14.4978 41.8187 14.0207L40.9131 14.4922Z" fill="#333333"/>
<path fill-rule="evenodd" clip-rule="evenodd" d="M54.0083 19.9417C45.4786 30.4495 34.257 36.2291 23.4695 36.7785L23.3154 35.7957C35.1918 34.1984 44.4508 29.0338 53.4047 19.0298L51.4376 19.0183C51.2602 19.036 51.0351 18.6959 51.0161 18.5107C50.997 18.3255 51.2532 18.0019 51.4307 17.9842L55.0082 17.9842L55.0089 18.0899L55.0089 20.8889L55.0089 21.9868L54.0146 21.9868L54.0083 19.9417Z" fill="#333333"/>
<path fill-rule="evenodd" clip-rule="evenodd" d="M12 14H5V13H12V14Z" fill="#333333"/>
<path fill-rule="evenodd" clip-rule="evenodd" d="M12 38H5V37H12V38Z" fill="#333333"/>
<path fill-rule="evenodd" clip-rule="evenodd" d="M12 26H5V25H12V26Z" fill="#333333"/>
<path fill-rule="evenodd" clip-rule="evenodd" d="M12 50H5V49H12V50Z" fill="#333333"/>
<path fill-rule="evenodd" clip-rule="evenodd" d="M12 20H5V19H12V20Z" fill="#333333"/>
<path fill-rule="evenodd" clip-rule="evenodd" d="M12 44H5V43H12V44Z" fill="#333333"/>
<path fill-rule="evenodd" clip-rule="evenodd" d="M12 32H5V31H12V32Z" fill="#333333"/>
<defs>
<linearGradient id="paint0_linear" x1="26.5" y1="43" x2="26.5" y2="56" gradientUnits="userSpaceOnUse">
<stop stop-color="#FF8E3D"/>
<stop offset="1" stop-color="#FF6F3D"/>
</linearGradient>
<linearGradient id="paint1_linear" x1="33.5" y1="41" x2="33.5" y2="56" gradientUnits="userSpaceOnUse">
<stop stop-color="#FF8E3D"/>
<stop offset="1" stop-color="#FF6F3D"/>
</linearGradient>
<linearGradient id="paint2_linear" x1="40.5" y1="37" x2="40.5" y2="56" gradientUnits="userSpaceOnUse">
<stop stop-color="#FF8E3D"/>
<stop offset="1" stop-color="#FF6F3D"/>
</linearGradient>
<linearGradient id="paint3_linear" x1="47.5" y1="35" x2="47.5" y2="56" gradientUnits="userSpaceOnUse">
<stop stop-color="#FF8E3D"/>
<stop offset="1" stop-color="#FF6F3D"/>
</linearGradient>
<linearGradient id="paint4_linear" x1="53.5" y1="30" x2="53.5" y2="56" gradientUnits="userSpaceOnUse">
<stop stop-color="#FF8E3D"/>
<stop offset="1" stop-color="#FF6F3D"/>
</linearGradient>
</defs>
</svg>
