<svg width="64" height="65" viewBox="0 0 64 65" fill="none" xmlns="http://www.w3.org/2000/svg">
<path d="M12 10.2572C12 8.45828 13.4551 7 15.25 7H47.75C49.5449 7 51 8.45828 51 10.2572V57.7428C51 59.5417 49.5449 61 47.75 61H15.25C13.4551 61 12 59.5417 12 57.7428V10.2572Z" fill="#EFEFEF"/>
<path fill-rule="evenodd" clip-rule="evenodd" d="M16.8646 6H15.1463C12.8544 6 11 7.90808 11 10.2572V57.7428C11 60.0919 12.8544 62 15.1463 62H46.8537C49.1456 62 51 60.0919 51 57.7428V10.2572C51 7.90807 49.1456 6 46.8537 6H45.1778V7H46.8537C48.6048 7 50.0244 8.45828 50.0244 10.2572V57.7428C50.0244 59.5417 48.6048 61 46.8537 61H15.1463C13.3952 61 11.9756 59.5417 11.9756 57.7428V10.2572C11.9756 8.45828 13.3952 7 15.1463 7H16.8646V6Z" fill="#333333"/>
<path fill-rule="evenodd" clip-rule="evenodd" d="M33.0996 4.01954C33.0996 2.54678 31.9219 1 30.4692 1C29.0165 1 27.8388 2.54678 27.8388 4.01954H20.3152C19.5888 4.01954 19 4.62603 19 5.36241V7.66667C19 8.40305 19.5888 9 20.3152 9H40.6848C41.4112 9 42 8.40305 42 7.66667V5.35288C42 4.6165 41.4112 4.01954 40.6848 4.01954H33.0996Z" fill="url(#paint0_linear)"/>
<path fill-rule="evenodd" clip-rule="evenodd" d="M40.6842 4.01954C41.4106 4.01954 41.9994 4.6165 41.9994 5.35288V7.66667C41.9994 8.40305 41.4106 9 40.6842 9H20.3158C19.5894 9 19.0006 8.40305 19.0006 7.66667V5.36241C19.0006 4.62603 19.5894 4.01954 20.3158 4.01954H27.8389C27.8389 2.54678 29.0165 1 30.4692 1C31.9218 1 33.0994 2.54678 33.0994 4.01954H40.6842ZM33.0977 1.31729C33.5015 1.80151 33.8082 2.39087 33.9706 3.01954H40.6842C41.9767 3.01954 43 4.07782 43 5.35288V7.66667C43 8.94172 41.9767 10 40.6842 10H20.3158C19.0233 10 18 8.94172 18 7.66667V5.36241C18 4.09672 19.0141 3.01954 20.3158 3.01954H26.9678C27.1301 2.39087 27.4368 1.80151 27.8406 1.31729C28.4543 0.581424 29.3727 0 30.4692 0C31.5657 0 32.4841 0.581424 33.0977 1.31729Z" fill="#333333"/>
<path d="M16 15.3194C16 14.5907 16.62 14 17.3847 14H44.6153C45.38 14 46 14.5907 46 15.3194V49.1131C46 49.4635 45.8537 49.7995 45.5935 50.047L39.7387 55.6145C39.4791 55.8614 39.1273 56 38.7606 56H17.3847C16.62 56 16 55.4093 16 54.6806V15.3194Z" fill="white"/>
<path fill-rule="evenodd" clip-rule="evenodd" d="M17.4133 13H44.5866C45.9047 13 47 14.0242 47 15.3194V49.1131C47 49.734 46.7412 50.3262 46.2859 50.7601L40.4435 56.3276C39.9899 56.7599 39.3785 57 38.7442 57H17.4133C16.0953 57 15 55.9758 15 54.6806V15.3194C15 14.0242 16.0953 13 17.4133 13ZM17.4133 14C16.6502 14 16.0316 14.5907 16.0316 15.3194V54.6806C16.0316 55.4093 16.6502 56 17.4133 56H38.7442C39.1102 56 39.4613 55.8614 39.7203 55.6145L45.5627 50.047C45.8225 49.7995 45.9684 49.4635 45.9684 49.1131V15.3194C45.9684 14.5907 45.3498 14 44.5866 14H17.4133Z" fill="#333333"/>
<path fill-rule="evenodd" clip-rule="evenodd" d="M24 18.5C24 18.2239 24.1486 18 24.3319 18H38.6681C38.8514 18 39 18.2239 39 18.5C39 18.7761 38.8514 19 38.6681 19H24.3319C24.1486 19 24 18.7761 24 18.5Z" fill="#333333"/>
<path d="M20.0161 23.6314C20.0161 23.2827 20.2996 23 20.6493 23H23.0647H25.48C25.8297 23 26.1132 23.2827 26.1132 23.6314V26V28.3686C26.1132 28.7173 25.8297 29 25.48 29H20.6493C20.2996 29 20.0161 28.7173 20.0161 28.3686V23.6314Z" fill="url(#paint1_linear)"/>
<path d="M20.0161 23.6314C20.0161 23.2827 20.2996 23 20.6493 23H23.0647H25.48C25.8297 23 26.1132 23.2827 26.1132 23.6314V26V28.3686C26.1132 28.7173 25.8297 29 25.48 29H20.6493C20.2996 29 20.0161 28.7173 20.0161 28.3686V23.6314Z" fill="#BDECFF"/>
<path fill-rule="evenodd" clip-rule="evenodd" d="M26 27.2053V28.3686C26 28.7173 25.721 29 25.3769 29H20.6231C20.279 29 20 28.7173 20 28.3686V23.6314C20 23.2827 20.279 23 20.6231 23H22.5989L23.5989 22H20.6231C19.7142 22 19 22.7429 19 23.6314V28.3686C19 29.2571 19.7142 30 20.6231 30H25.3769C26.2858 30 27 29.2571 27 28.3686V26.2053L26 27.2053Z" fill="#333333"/>
<path fill-rule="evenodd" clip-rule="evenodd" d="M31 24.4998C31 24.2236 31.1501 23.9998 31.3352 23.9998H41.6648C41.8499 23.9998 42 24.2236 42 24.4998C42 24.7759 41.8499 24.9998 41.6648 24.9998H31.3352C31.1501 24.9998 31 24.7759 31 24.4998Z" fill="#333333"/>
<path fill-rule="evenodd" clip-rule="evenodd" d="M31 26.4998C31 26.2236 31.1462 25.9998 31.3266 25.9998H36.6734C36.8538 25.9998 37 26.2236 37 26.4998C37 26.7759 36.8538 26.9998 36.6734 26.9998H31.3266C31.1462 26.9998 31 26.7759 31 26.4998Z" fill="#333333"/>
<path fill-rule="evenodd" clip-rule="evenodd" d="M27 23.7357L23.0925 28L21 25.6636L21.6747 24.9364L23.1001 26.5279L26.3329 23L27 23.7357Z" fill="#333333"/>
<path d="M20.0161 33.6314C20.0161 33.2827 20.2996 33 20.6493 33H23.0647H25.48C25.8297 33 26.1132 33.2827 26.1132 33.6314V36V38.3686C26.1132 38.7173 25.8297 39 25.48 39H20.6493C20.2996 39 20.0161 38.7173 20.0161 38.3686V33.6314Z" fill="url(#paint2_linear)"/>
<path d="M20.0161 33.6314C20.0161 33.2827 20.2996 33 20.6493 33H23.0647H25.48C25.8297 33 26.1132 33.2827 26.1132 33.6314V36V38.3686C26.1132 38.7173 25.8297 39 25.48 39H20.6493C20.2996 39 20.0161 38.7173 20.0161 38.3686V33.6314Z" fill="#BDECFF"/>
<path fill-rule="evenodd" clip-rule="evenodd" d="M26 37.2053V38.3686C26 38.7173 25.721 39 25.3769 39H20.6231C20.279 39 20 38.7173 20 38.3686V33.6314C20 33.2827 20.279 33 20.6231 33H22.5989L23.5989 32H20.6231C19.7142 32 19 32.7429 19 33.6314V38.3686C19 39.2571 19.7142 40 20.6231 40H25.3769C26.2858 40 27 39.2571 27 38.3686V36.2053L26 37.2053Z" fill="#333333"/>
<path fill-rule="evenodd" clip-rule="evenodd" d="M31 34.4998C31 34.2236 31.1501 33.9998 31.3352 33.9998H41.6648C41.8499 33.9998 42 34.2236 42 34.4998C42 34.7759 41.8499 34.9998 41.6648 34.9998H31.3352C31.1501 34.9998 31 34.7759 31 34.4998Z" fill="#333333"/>
<path fill-rule="evenodd" clip-rule="evenodd" d="M31 36.4998C31 36.2236 31.1462 35.9998 31.3266 35.9998H36.6734C36.8538 35.9998 37 36.2236 37 36.4998C37 36.7759 36.8538 36.9998 36.6734 36.9998H31.3266C31.1462 36.9998 31 36.7759 31 36.4998Z" fill="#333333"/>
<path fill-rule="evenodd" clip-rule="evenodd" d="M27 33.7357L23.0925 38L21 35.6636L21.6747 34.9364L23.1001 36.5279L26.3329 33L27 33.7357Z" fill="#333333"/>
<path d="M20.0161 43.6314C20.0161 43.2827 20.2996 43 20.6493 43H23.0647H25.48C25.8297 43 26.1132 43.2827 26.1132 43.6314V46V48.3686C26.1132 48.7173 25.8297 49 25.48 49H20.6493C20.2996 49 20.0161 48.7173 20.0161 48.3686V43.6314Z" fill="url(#paint3_linear)"/>
<path d="M20.0161 43.6314C20.0161 43.2827 20.2996 43 20.6493 43H23.0647H25.48C25.8297 43 26.1132 43.2827 26.1132 43.6314V46V48.3686C26.1132 48.7173 25.8297 49 25.48 49H20.6493C20.2996 49 20.0161 48.7173 20.0161 48.3686V43.6314Z" fill="#BDECFF"/>
<path fill-rule="evenodd" clip-rule="evenodd" d="M26 47.2053V48.3686C26 48.7173 25.721 49 25.3769 49H20.6231C20.279 49 20 48.7173 20 48.3686V43.6314C20 43.2827 20.279 43 20.6231 43H22.5989L23.5989 42H20.6231C19.7142 42 19 42.7429 19 43.6314V48.3686C19 49.2571 19.7142 50 20.6231 50H25.3769C26.2858 50 27 49.2571 27 48.3686V46.2053L26 47.2053Z" fill="#333333"/>
<path fill-rule="evenodd" clip-rule="evenodd" d="M31 44.4998C31 44.2236 31.1501 43.9998 31.3352 43.9998H41.6648C41.8499 43.9998 42 44.2236 42 44.4998C42 44.7759 41.8499 44.9998 41.6648 44.9998H31.3352C31.1501 44.9998 31 44.7759 31 44.4998Z" fill="#333333"/>
<path fill-rule="evenodd" clip-rule="evenodd" d="M31 46.4998C31 46.2236 31.1462 45.9998 31.3266 45.9998H36.6734C36.8538 45.9998 37 46.2236 37 46.4998C37 46.7759 36.8538 46.9998 36.6734 46.9998H31.3266C31.1462 46.9998 31 46.7759 31 46.4998Z" fill="#333333"/>
<path fill-rule="evenodd" clip-rule="evenodd" d="M27 43.7357L23.0925 48L21 45.6636L21.6747 44.9364L23.1001 46.5279L26.3329 43L27 43.7357Z" fill="#333333"/>
<path fill-rule="evenodd" clip-rule="evenodd" d="M40.15 49.9784C39.9745 49.9784 39.9505 49.8739 39.9505 50.0531V56.0307H38.9944V50.0531C38.9944 49.5156 39.6237 48.9907 40.15 48.9907H46.1615L45.6318 49.9784H40.15Z" fill="#333333"/>
<defs>
<linearGradient id="paint0_linear" x1="19" y1="0.6875" x2="23.8199" y2="15.0858" gradientUnits="userSpaceOnUse">
<stop stop-color="#FFC671"/>
<stop offset="0.59375" stop-color="#FF7541"/>
<stop offset="1" stop-color="#FF6F3D"/>
</linearGradient>
<linearGradient id="paint1_linear" x1="20.0161" y1="22.7656" x2="26.0117" y2="29.0962" gradientUnits="userSpaceOnUse">
<stop stop-color="#FFC671"/>
<stop offset="0.59375" stop-color="#FF7541"/>
<stop offset="1" stop-color="#FF6F3D"/>
</linearGradient>
<linearGradient id="paint2_linear" x1="20.0161" y1="32.7656" x2="26.0117" y2="39.0962" gradientUnits="userSpaceOnUse">
<stop stop-color="#FFC671"/>
<stop offset="0.59375" stop-color="#FF7541"/>
<stop offset="1" stop-color="#FF6F3D"/>
</linearGradient>
<linearGradient id="paint3_linear" x1="20.0161" y1="42.7656" x2="26.0117" y2="49.0962" gradientUnits="userSpaceOnUse">
<stop stop-color="#FFC671"/>
<stop offset="0.59375" stop-color="#FF7541"/>
<stop offset="1" stop-color="#FF6F3D"/>
</linearGradient>
</defs>
</svg>
