<svg width="64" height="64" viewBox="0 0 64 64" fill="none" xmlns="http://www.w3.org/2000/svg">
<path fill-rule="evenodd" clip-rule="evenodd" d="M14 36V22H10.9317C9.10559 22 8 23.4118 8 25.5795V36H14Z" fill="#BDECFF"/>
<path d="M13.5148 4.7019H43.1033L49.4199 11.8265V35.2358H13.5148V4.7019Z" fill="white"/>
<path d="M42.1991 4.5L49.1805 11.5H42.1991V4.5Z" fill="url(#paint0_linear)"/>
<path fill-rule="evenodd" clip-rule="evenodd" d="M13 3.9978L43.0396 3.9978L50 11.6082V30.9103H49.007V11.9566L42.5152 5.00611H14.0303V34.9646H25.804V35.9978H13V3.9978Z" fill="#333333"/>
<path fill-rule="evenodd" clip-rule="evenodd" d="M42.0001 4.00464H42.9833L49.4128 10.9929L50 12.0046H42L42.0001 4.00464ZM42.9833 5.57443L42.9912 11.0342L48.0322 10.9929L42.9833 5.57443Z" fill="#333333"/>
<path fill-rule="evenodd" clip-rule="evenodd" d="M8.00772 21.9981C8.68996 21.3202 9.62366 20.9956 10.6478 20.9956H14V35.9956H7L7.00012 24.9486C7.00012 23.6596 7.31963 22.6818 8.00772 21.9981ZM8.00772 25.2595V35.4999H12.9924V21.9981H10.6478C8.73636 21.9981 8.00772 23.4367 8.00772 25.2595Z" fill="#333333"/>
<path fill-rule="evenodd" clip-rule="evenodd" d="M49.4454 21.4724V30.4744H55.5642V24.4047C55.5642 22.2657 54.348 21.4724 52.5745 21.4724H49.4454Z" fill="#BDECFF"/>
<path fill-rule="evenodd" clip-rule="evenodd" d="M49 20.9956H52.5725C53.5324 20.9956 54.3965 21.2085 55.0239 21.7625C55.6616 22.3257 56 23.1918 56 24.3692V30.9956H49V20.9956ZM50.0244 22.0115V30.3607H55.0239V24.3692C55.0239 22.874 54.2171 22.0115 52.7327 22.0115H50.0244Z" fill="#333333"/>
<path fill-rule="evenodd" clip-rule="evenodd" d="M30.3333 31.0002L26.9029 34.9026H7.05635C5.41714 34.9026 3.83219 36.0775 4.01432 37.2971L7.47488 57.7485C7.65701 58.968 8.84088 60 10.4801 60H54.3744C56.0136 60 57.2886 58.968 57.3797 57.7485L59.9812 31.8385C60.1299 31.0724 59.3866 30 58.0486 30H32.6667C31.7747 30 30.9708 30.3435 30.3333 31.0002Z" fill="url(#paint1_linear)"/>
<path fill-rule="evenodd" clip-rule="evenodd" d="M27.0112 35.9647L6.97331 35.8865C6.3025 35.8865 5.9225 35.8574 5.45867 36.2149C4.98318 36.5813 4.9954 37.4257 5.03394 37.7007L8.23674 57.0176C8.3624 57.8582 9.12399 58.9703 10.4903 58.9703H54.2221C55.633 58.9703 56.511 58.1861 56.5682 57.422L58.8516 32.3989C58.8516 32.0989 58.9761 31.007 57.2248 31.007L33.2172 30.9132C32.5141 30.9132 32.0103 30.9375 31.4968 31.4606L27.0112 35.9647ZM30.3628 31.0002L26.4234 34.9482H6.67613C5.03533 34.9482 3.83601 36.0775 4.01832 37.2971L7.48223 57.7485C7.66454 58.9681 8.84955 60 10.4903 60H54.4272C56.068 60 57.4623 58.9387 57.5535 57.7192L59.9931 31.9767C60.0814 31.007 59.315 30 57.9758 30H32.6229C31.73 30 31.0009 30.3435 30.3628 31.0002Z" fill="#333333"/>
<path d="M31.9403 8H18.0009V21.9998H31.9403V8Z" fill="white"/>
<path fill-rule="evenodd" clip-rule="evenodd" d="M18.665 21.3334L22.9798 17.0001L25.3031 19.3334L28.8164 14.6667L31.2773 18.5264V21.3334" fill="#E0E0E0"/>
<path fill-rule="evenodd" clip-rule="evenodd" d="M18 8.66667C18 8.29848 18.2972 8 18.6638 8H31.1579C31.5246 8 32 8.34784 32 8.71603V21.1788C32 21.547 31.5708 22 31.2042 22H18.6844C18.3177 22 18 21.7015 18 21.3333V8.66667ZM30.9914 8.97567V21.0119H18.9805V8.97567H30.9914Z" fill="#333333"/>
<path fill-rule="evenodd" clip-rule="evenodd" d="M18.6643 21.3332H31.2766V18.5262L28.8372 14.6665L25.4319 19.7459L22.8766 17.2596L18.6643 21.3332ZM25.3242 18.7129L23.3384 16.7808C23.0816 16.5309 22.6737 16.5303 22.4161 16.7794L18.2039 20.853C17.9398 21.1084 17.9318 21.5304 18.1861 21.7956C18.4404 22.0609 18.8606 22.0688 19.1247 21.8134L19.2766 21.6665H30.7016C30.8163 21.8658 31.0309 21.9999 31.2766 21.9999C31.6432 21.9999 31.9404 21.7014 31.9404 21.3332V18.5262C31.9404 18.3996 31.9045 18.2757 31.837 18.1689L29.3977 14.3093C29.2776 14.1193 29.0702 14.003 28.8462 13.9999C28.6222 13.9969 28.4117 14.1076 28.2866 14.2942L25.3242 18.7129Z" fill="#333333"/>
<path fill-rule="evenodd" clip-rule="evenodd" d="M18 24.5C18 24.2239 18.1458 24 18.3256 24H45.6744C45.8542 24 46 24.2239 46 24.5C46 24.7761 45.8542 25 45.6744 25H18.3256C18.1458 25 18 24.7761 18 24.5Z" fill="#333333"/>
<path fill-rule="evenodd" clip-rule="evenodd" d="M34 11.5C34 11.2239 34.1599 11 34.3571 11H38.6429C38.8401 11 39 11.2239 39 11.5C39 11.7761 38.8401 12 38.6429 12H34.3571C34.1599 12 34 11.7761 34 11.5Z" fill="#333333"/>
<path fill-rule="evenodd" clip-rule="evenodd" d="M34 14.5C34 14.2239 34.1448 14 34.3235 14H44.6765C44.8552 14 45 14.2239 45 14.5C45 14.7761 44.8552 15 44.6765 15H39.5H34.3235C34.1448 15 34 14.7761 34 14.5Z" fill="#333333"/>
<path fill-rule="evenodd" clip-rule="evenodd" d="M34 17.5C34 17.2239 34.1448 17 34.3235 17H44.6765C44.8552 17 45 17.2239 45 17.5C45 17.7761 44.8552 18 44.6765 18H34.3235C34.1448 18 34 17.7761 34 17.5Z" fill="#333333"/>
<path fill-rule="evenodd" clip-rule="evenodd" d="M18 27.5C18 27.2239 18.155 27 18.3462 27H26.6538C26.845 27 27 27.2239 27 27.5C27 27.7761 26.845 28 26.6538 28H18.3462C18.155 28 18 27.7761 18 27.5Z" fill="#333333"/>
<path d="M23.1561 11.5352C23.1561 12.3636 22.4863 13.0352 21.6601 13.0352C20.8339 13.0352 20.1641 12.3636 20.1641 11.5352C20.1641 10.7067 20.8339 10.0352 21.6601 10.0352C22.4863 10.0352 23.1561 10.7067 23.1561 11.5352Z" fill="url(#paint2_linear)"/>
<defs>
<linearGradient id="paint0_linear" x1="42.1991" y1="4.22656" x2="49.1998" y2="11.4814" gradientUnits="userSpaceOnUse">
<stop stop-color="#FFC671"/>
<stop offset="0.59375" stop-color="#FF7541"/>
<stop offset="1" stop-color="#FF6F3D"/>
</linearGradient>
<linearGradient id="paint1_linear" x1="4.08304" y1="35.8219" x2="31.5688" y2="78.3796" gradientUnits="userSpaceOnUse">
<stop stop-color="#FFC671"/>
<stop offset="0.652615" stop-color="#FF8657"/>
</linearGradient>
<linearGradient id="paint2_linear" x1="21.6601" y1="10.0352" x2="21.6601" y2="13.0352" gradientUnits="userSpaceOnUse">
<stop stop-color="#FF8E3D"/>
<stop offset="1" stop-color="#FF6F3D"/>
</linearGradient>
</defs>
</svg>
