<svg width="80" height="80" viewBox="0 0 80 80" fill="none" xmlns="http://www.w3.org/2000/svg">
<path fill-rule="evenodd" clip-rule="evenodd" d="M39 66V49H41V66H39Z" fill="#333333"/>
<path fill-rule="evenodd" clip-rule="evenodd" d="M37 70C37 70.5523 36.5523 71 36 71L10.0001 71C9.4478 71 9.00008 70.5523 9.00008 70C9.00008 69.4477 9.4478 69 10.0001 69L36 69C36.5523 69 37 69.4477 37 70Z" fill="#333333"/>
<path fill-rule="evenodd" clip-rule="evenodd" d="M71.5557 70C71.5557 70.5523 71.1026 71 70.5436 71L44.5677 71C44.0088 71 43.5557 70.5523 43.5557 70C43.5557 69.4477 44.0088 69 44.5677 69L70.5436 69C71.1026 69 71.5557 69.4477 71.5557 70Z" fill="#333333"/>
<path d="M8 9.81001C8 7.15351 10.2386 5 13 5H67C69.7614 5 72 7.15352 72 9.81001V21.19C72 23.8465 69.7614 26 67 26H13C10.2386 26 8 23.8465 8 21.19V9.81001Z" fill="url(#paint0_linear)"/>
<path d="M8 33.81C8 31.1535 10.2386 29 13 29H67C69.7614 29 72 31.1535 72 33.81V45.19C72 47.8465 69.7614 50 67 50H13C10.2386 50 8 47.8465 8 45.19V33.81Z" fill="url(#paint1_linear)"/>
<path d="M23 15.7443C23 17.6471 21.433 19.1896 19.5 19.1896C17.567 19.1896 16 17.6471 16 15.7443C16 13.8415 17.567 12.299 19.5 12.299C21.433 12.299 23 13.8415 23 15.7443Z" fill="white"/>
<path fill-rule="evenodd" clip-rule="evenodd" d="M19.5 18C20.8807 18 22 16.8807 22 15.5C22 14.1193 20.8807 13 19.5 13C18.1193 13 17 14.1193 17 15.5C17 16.8807 18.1193 18 19.5 18ZM19.5 19C21.433 19 23 17.433 23 15.5C23 13.567 21.433 12 19.5 12C17.567 12 16 13.567 16 15.5C16 17.433 17.567 19 19.5 19Z" fill="white"/>
<path d="M23 39.5C23 41.433 21.433 43 19.5 43C17.567 43 16 41.433 16 39.5C16 37.567 17.567 36 19.5 36C21.433 36 23 37.567 23 39.5Z" fill="white"/>
<path fill-rule="evenodd" clip-rule="evenodd" d="M40 73.0313C41.6569 73.0313 43 71.7091 43 70.0781C43 68.4472 41.6569 67.125 40 67.125C38.3431 67.125 37 68.4472 37 70.0781C37 71.7091 38.3431 73.0313 40 73.0313ZM40 75C42.7614 75 45 72.7964 45 70.0781C45 67.3599 42.7614 65.1562 40 65.1562C37.2386 65.1562 35 67.3599 35 70.0781C35 72.7964 37.2386 75 40 75Z" fill="#333333"/>
<path fill-rule="evenodd" clip-rule="evenodd" d="M48.2306 14.7822C49.0718 14.7822 49.7537 14.1594 49.7537 13.3911C49.7537 12.6228 49.0718 12 48.2306 12C47.3895 12 46.7075 12.6228 46.7075 13.3911C46.7075 14.1594 47.3895 14.7822 48.2306 14.7822ZM45.5231 19C46.3643 19 47.0462 18.3772 47.0462 17.6089C47.0462 16.8406 46.3643 16.2178 45.5231 16.2178C44.6819 16.2178 44 16.8406 44 17.6089C44 18.3772 44.6819 19 45.5231 19ZM52.4615 17.6089C52.4615 18.3772 51.7796 19 50.9384 19C50.0973 19 49.4153 18.3772 49.4153 17.6089C49.4153 16.8406 50.0973 16.2178 50.9384 16.2178C51.7796 16.2178 52.4615 16.8406 52.4615 17.6089ZM53.6462 14.7822C54.4874 14.7822 55.1693 14.1594 55.1693 13.3911C55.1693 12.6228 54.4874 12 53.6462 12C52.805 12 52.1231 12.6228 52.1231 13.3911C52.1231 14.1594 52.805 14.7822 53.6462 14.7822ZM57.8769 17.6089C57.8769 18.3772 57.195 19 56.3538 19C55.5126 19 54.8307 18.3772 54.8307 17.6089C54.8307 16.8406 55.5126 16.2178 56.3538 16.2178C57.195 16.2178 57.8769 16.8406 57.8769 17.6089ZM59.0616 14.7822C59.9027 14.7822 60.5847 14.1594 60.5847 13.3911C60.5847 12.6228 59.9027 12 59.0616 12C58.2204 12 57.5385 12.6228 57.5385 13.3911C57.5385 14.1594 58.2204 14.7822 59.0616 14.7822ZM63.2925 17.6089C63.2925 18.3772 62.6105 19 61.7694 19C60.9282 19 60.2463 18.3772 60.2463 17.6089C60.2463 16.8406 60.9282 16.2178 61.7694 16.2178C62.6105 16.2178 63.2925 16.8406 63.2925 17.6089ZM64.4769 14.7822C65.3181 14.7822 66 14.1594 66 13.3911C66 12.6228 65.3181 12 64.4769 12C63.6357 12 62.9538 12.6228 62.9538 13.3911C62.9538 14.1594 63.6357 14.7822 64.4769 14.7822Z" fill="white"/>
<path fill-rule="evenodd" clip-rule="evenodd" d="M48.2306 39.7824C49.0718 39.7824 49.7537 39.1596 49.7537 38.3912C49.7537 37.6229 49.0718 37 48.2306 37C47.3895 37 46.7075 37.6229 46.7075 38.3912C46.7075 39.1596 47.3895 39.7824 48.2306 39.7824ZM45.5231 44C46.3643 44 47.0462 43.3771 47.0462 42.6088C47.0462 41.8404 46.3643 41.2176 45.5231 41.2176C44.6819 41.2176 44 41.8404 44 42.6088C44 43.3771 44.6819 44 45.5231 44ZM52.4615 42.6088C52.4615 43.3771 51.7796 44 50.9384 44C50.0973 44 49.4153 43.3771 49.4153 42.6088C49.4153 41.8404 50.0973 41.2176 50.9384 41.2176C51.7796 41.2176 52.4615 41.8404 52.4615 42.6088ZM53.6462 39.7824C54.4874 39.7824 55.1693 39.1596 55.1693 38.3912C55.1693 37.6229 54.4874 37 53.6462 37C52.805 37 52.1231 37.6229 52.1231 38.3912C52.1231 39.1596 52.805 39.7824 53.6462 39.7824ZM57.8769 42.6088C57.8769 43.3771 57.195 44 56.3538 44C55.5126 44 54.8307 43.3771 54.8307 42.6088C54.8307 41.8404 55.5126 41.2176 56.3538 41.2176C57.195 41.2176 57.8769 41.8404 57.8769 42.6088ZM59.0616 39.7824C59.9027 39.7824 60.5847 39.1596 60.5847 38.3912C60.5847 37.6229 59.9027 37 59.0616 37C58.2204 37 57.5385 37.6229 57.5385 38.3912C57.5385 39.1596 58.2204 39.7824 59.0616 39.7824ZM63.2925 42.6088C63.2925 43.3771 62.6105 44 61.7694 44C60.9282 44 60.2463 43.3771 60.2463 42.6088C60.2463 41.8404 60.9282 41.2176 61.7694 41.2176C62.6105 41.2176 63.2925 41.8404 63.2925 42.6088ZM64.4769 39.7824C65.3181 39.7824 66 39.1596 66 38.3912C66 37.6229 65.3181 37 64.4769 37C63.6357 37 62.9538 37.6229 62.9538 38.3912C62.9538 39.1596 63.6357 39.7824 64.4769 39.7824Z" fill="white"/>
<defs>
<linearGradient id="paint0_linear" x1="8.00012" y1="4.17969" x2="20.0694" y2="42.3992" gradientUnits="userSpaceOnUse">
<stop stop-color="#FF8E3D"/>
<stop offset="1" stop-color="#FF6F3D"/>
</linearGradient>
<linearGradient id="paint1_linear" x1="8.00012" y1="28.1797" x2="20.0694" y2="66.3992" gradientUnits="userSpaceOnUse">
<stop stop-color="#FF8E3D"/>
<stop offset="1" stop-color="#FF6F3D"/>
</linearGradient>
</defs>
</svg>
