<svg width="80" height="80" viewBox="0 0 80 80" fill="none" xmlns="http://www.w3.org/2000/svg">
<path fill-rule="evenodd" clip-rule="evenodd" d="M9.4876 30H1L9 57H53L64.3306 25H80.0001V18H57.1488L48 48H15L9.4876 30ZM22.5455 63.1389C22.5455 65.8236 20.2947 68 17.5182 68C14.7417 68 12.4909 65.8236 12.4909 63.1389C12.4909 60.4542 14.7417 58.2778 17.5182 58.2778C20.2947 58.2778 22.5455 60.4542 22.5455 63.1389ZM46.2455 68C49.022 68 51.2728 65.8236 51.2728 63.1389C51.2728 60.4542 49.022 58.2778 46.2455 58.2778C43.4691 58.2778 41.2183 60.4542 41.2183 63.1389C41.2183 65.8236 43.4691 68 46.2455 68Z" fill="#333E4E"/>
<path d="M33 24.569L42.5597 29L52 13.7909H33V24.569Z" fill="#68B0D0"/>
<path d="M51.9993 24.569L42.5591 29V13.7909H51.9993V24.569Z" fill="#5F9FBF"/>
<path d="M42.5597 9L33 13.7903L42.5597 18.1015L52 13.7903L42.5597 9Z" fill="#81C8DC"/>
<path d="M11 24.569L20.5596 29L29.9996 13.7909H11V24.569Z" fill="#E19759"/>
<path d="M29.9996 24.569L20.5596 29V13.7909H29.9996V24.569Z" fill="#D68251"/>
<path d="M20.56 9L11.0005 13.7903L20.56 18.1015L30.0001 13.7903L20.56 9Z" fill="#E9AC66"/>
<path d="M22 42.5687L31.5597 47L40.9999 31.4307H22V42.5687Z" fill="#4A7DB5"/>
<path d="M40.999 42.5687L31.5588 47V31.4307H40.999V42.5687Z" fill="#3768A6"/>
<path d="M31.5597 27L40.9999 31.4313L31.5597 36.1021L22 31.4313L31.5597 27Z" fill="#5592C2"/>
</svg>
