<svg width="280" height="172" viewBox="0 0 280 172" fill="none" xmlns="http://www.w3.org/2000/svg">
<path d="M261.884 0C207.677 0 161.731 36.3405 147.491 85.5779C135.115 59.4616 108.296 41.165 77.4046 41.165C34.9219 41.165 0 75.6986 0 117.709C0 159.719 34.9219 194.269 77.4046 194.269C108.296 194.269 135.115 175.961 147.491 149.84C161.731 199.081 207.677 235.434 261.884 235.434C315.691 235.434 361.402 199.629 376.006 150.944C388.611 176.472 415.098 194.269 445.551 194.269C488.034 194.269 522.971 159.719 522.971 117.709C522.971 75.6986 488.034 41.165 445.551 41.165C415.098 41.165 388.611 58.951 376.006 84.4742C361.402 35.7924 315.691 0 261.884 0ZM261.884 44.9331C302.805 44.9331 335.494 77.2435 335.494 117.709C335.494 158.174 302.805 190.501 261.884 190.501C220.964 190.501 188.29 158.174 188.29 117.709C188.29 77.2435 220.964 44.9331 261.884 44.9331ZM77.4046 86.0982C95.3328 86.0982 109.387 99.9801 109.387 117.709C109.387 135.438 95.3328 149.336 77.4046 149.336C59.4764 149.336 45.4383 135.438 45.4383 117.709C45.4383 99.9801 59.4764 86.0982 77.4046 86.0982ZM445.551 86.0982C463.479 86.0982 477.533 99.9801 477.533 117.709C477.533 135.438 463.479 149.336 445.551 149.336C427.623 149.336 413.585 135.438 413.585 117.709C413.585 99.9801 427.623 86.0982 445.551 86.0982Z" fill="url(#paint0_linear_14_14012)"/>
<defs>
<linearGradient id="paint0_linear_14_14012" x1="3.97808" y1="12.3915" x2="492.566" y2="291.077" gradientUnits="userSpaceOnUse">
<stop stop-color="#01679E"/>
<stop offset="0.5" stop-color="#0074B3"/>
<stop offset="1" stop-color="#01679E"/>
</linearGradient>
</defs>
</svg>
