<svg width="1144" height="331" viewBox="0 0 1144 331" fill="none" xmlns="http://www.w3.org/2000/svg">
<path d="M572.872 -18C454.293 -18 353.787 61.4623 322.637 169.125C295.565 112.019 236.897 72.0115 169.323 72.0115C76.3917 72.0115 0 147.523 0 239.383C0 331.243 76.3917 406.788 169.323 406.788C236.897 406.788 295.565 366.757 322.637 309.641C353.787 417.311 454.293 496.8 572.872 496.8C690.574 496.8 790.567 418.51 822.514 312.054C850.087 367.873 908.028 406.788 974.642 406.788C1067.57 406.788 1144 331.243 1144 239.383C1144 147.523 1067.57 72.0115 974.642 72.0115C908.028 72.0115 850.087 110.902 822.514 166.712C790.567 60.2637 690.574 -18 572.872 -18ZM572.872 80.2509C662.385 80.2509 733.894 150.901 733.894 239.383C733.894 327.865 662.385 398.549 572.872 398.549C483.358 398.549 411.885 327.865 411.885 239.383C411.885 150.901 483.358 80.2509 572.872 80.2509ZM169.323 170.262C208.54 170.262 239.284 200.617 239.284 239.383C239.284 278.149 208.54 308.538 169.323 308.538C130.105 308.538 99.3963 278.149 99.3963 239.383C99.3963 200.617 130.105 170.262 169.323 170.262ZM974.642 170.262C1013.86 170.262 1044.6 200.617 1044.6 239.383C1044.6 278.149 1013.86 308.538 974.642 308.538C935.425 308.538 904.716 278.149 904.716 239.383C904.716 200.617 935.425 170.262 974.642 170.262Z" fill="url(#paint0_linear_7_37193)"/>
<defs>
<linearGradient id="paint0_linear_7_37193" x1="8.70205" y1="9.09538" x2="1077.27" y2="618.848" gradientUnits="userSpaceOnUse">
<stop stop-color="#01679E"/>
<stop offset="0.5" stop-color="#0074B3"/>
<stop offset="1" stop-color="#01679E"/>
</linearGradient>
</defs>
</svg>
