<svg width="925" height="112" viewBox="0 0 925 112" fill="none" xmlns="http://www.w3.org/2000/svg">
<rect x="174.5" y="29.5" width="53" height="36" rx="1.5" stroke="#333333"/>
<path fill-rule="evenodd" clip-rule="evenodd" d="M223.895 33H179.348C178.595 33 178 33.6025 178 34.3276V60.6724C178 61.3975 178.595 62 179.348 62H222.652C223.405 62 224 61.3975 224 60.6724C224 52.4469 223.779 41.2248 223.895 33ZM224.933 33.5577C224.933 41.7039 225 52.524 225 60.6724C225 61.9579 223.949 63 222.652 63H179.348C178.051 63 177 61.9579 177 60.6724V34.3276C177 33.0421 178.051 32 179.348 32H223.457C224.489 32 224.933 32.7641 224.933 33.5577Z" fill="#333333"/>
<path fill-rule="evenodd" clip-rule="evenodd" d="M199.9 56.7787L192.474 53.0643C191.842 52.74 191.842 52.2389 192.474 51.9441L195.06 50.647L199.872 53.0643C200.505 53.3885 201.522 53.3885 202.127 53.0643L206.94 50.647L209.525 51.9441C210.158 52.2683 210.158 52.7695 209.525 53.0643L202.1 56.7787C201.522 57.0735 200.505 57.0735 199.9 56.7787Z" fill="url(#paint0_linear_2652_23933)"/>
<path fill-rule="evenodd" clip-rule="evenodd" d="M199.876 51.9916L192.473 48.2729C191.842 47.9483 191.842 47.4465 192.473 47.1514L194.995 45.8823L199.876 48.2729C200.506 48.5976 201.521 48.5976 202.124 48.2729L207.004 45.8823L209.527 47.1514C210.157 47.4761 210.157 47.9778 209.527 48.2729L202.124 51.9916C201.493 52.3163 200.479 52.3163 199.876 51.9916Z" fill="url(#paint1_linear_2652_23933)"/>
<path fill-rule="evenodd" clip-rule="evenodd" d="M199.876 47.2626L192.473 43.772C191.842 43.4672 191.842 42.9963 192.473 42.7192L199.876 39.2286C200.506 38.9238 201.521 38.9238 202.124 39.2286L209.527 42.7192C210.157 43.024 210.157 43.4949 209.527 43.772L202.124 47.2626C201.493 47.5397 200.479 47.5397 199.876 47.2626Z" fill="url(#paint2_linear_2652_23933)"/>
<rect x="185.5" y="72.5" width="31" height="3" rx="1.5" stroke="#333333"/>
<rect x="192" y="68" width="1" height="4" fill="#333333"/>
<path d="M209 68H210V72H209V68Z" fill="#333333"/>
<rect x="215.5" y="47.3379" width="18" height="33" rx="1.5" fill="white" stroke="#333333"/>
<path fill-rule="evenodd" clip-rule="evenodd" d="M223.828 67.8648L219.29 65.5949C218.904 65.3967 218.904 65.0905 219.29 64.9103L220.87 64.1177L223.811 65.5949C224.198 65.7931 224.82 65.7931 225.189 65.5949L228.13 64.1177L229.71 64.9103C230.097 65.1085 230.097 65.4148 229.71 65.5949L225.173 67.8648C224.82 68.045 224.198 68.045 223.828 67.8648Z" fill="url(#paint3_linear_2652_23933)"/>
<path fill-rule="evenodd" clip-rule="evenodd" d="M223.813 64.9395L219.29 62.667C218.904 62.4686 218.904 62.162 219.29 61.9816L220.831 61.2061L223.813 62.667C224.199 62.8654 224.819 62.8654 225.187 62.667L228.17 61.2061L229.711 61.9816C230.097 62.18 230.097 62.4866 229.711 62.667L225.187 64.9395C224.802 65.1379 224.182 65.1379 223.813 64.9395Z" fill="url(#paint4_linear_2652_23933)"/>
<path fill-rule="evenodd" clip-rule="evenodd" d="M223.813 62.0494L219.29 59.9162C218.904 59.73 218.904 59.4421 219.29 59.2728L223.813 57.1397C224.199 56.9534 224.819 56.9534 225.187 57.1397L229.711 59.2728C230.097 59.4591 230.097 59.7469 229.711 59.9162L225.187 62.0494C224.802 62.2187 224.182 62.2187 223.813 62.0494Z" fill="url(#paint5_linear_2652_23933)"/>
<rect x="221" y="77" width="7" height="1" rx="0.5" fill="#333333"/>
<path fill-rule="evenodd" clip-rule="evenodd" d="M274.937 55C271.552 63.8953 270.602 72.0555 274.732 80.8676H282.113L280.64 77.1126C279.41 69.6027 278.727 64.5388 281.498 57.072C281.969 55.8034 282.318 55 282.318 55H274.937Z" fill="url(#paint6_linear_2652_23933)"/>
<path d="M280.64 77.1126C280.64 77.1126 285.28 77.7734 287.611 78.3643C292.549 79.6159 297.862 81.0652 301.963 81.0652C306.063 81.0652 310.571 79.617 315.494 77.1126C318.449 75.6095 335.061 66.1882 330.705 62.0927C327.031 58.6394 317.654 66.7662 314.539 68.351C311.432 64.7421 307.833 64.8035 303.447 64.1788C299.27 63.584 295.987 59.8639 291.729 58.2269C287.47 56.59 281.498 57.072 281.498 57.072C278.727 64.5388 279.41 69.6027 280.64 77.1126Z" fill="white"/>
<path d="M274.937 55V54.5C274.73 54.5 274.544 54.6282 274.47 54.8221L274.937 55ZM274.732 80.8676L274.279 81.0798C274.362 81.2554 274.538 81.3676 274.732 81.3676V80.8676ZM282.113 80.8676V81.3676C282.279 81.3676 282.433 81.2859 282.526 81.1493C282.619 81.0127 282.639 80.8389 282.579 80.685L282.113 80.8676ZM282.318 55L282.777 55.1993C282.844 55.0448 282.829 54.8668 282.737 54.7258C282.644 54.5849 282.487 54.5 282.318 54.5V55ZM303.447 64.1788L303.517 63.6838L303.447 64.1788ZM330.705 62.0927L330.362 62.457L330.705 62.0927ZM315.494 77.1126L315.721 77.5583L315.494 77.1126ZM287.611 78.3643L287.734 77.8796L287.611 78.3643ZM280.64 77.1126L280.147 77.1934C280.152 77.2283 280.162 77.2624 280.175 77.2952L280.64 77.1126ZM306.491 71.6888L306.513 72.1883L306.491 71.6888ZM281.498 57.072L281.03 56.8981L281.498 57.072ZM274.732 81.3676H282.113V80.3676H274.732V81.3676ZM282.318 54.5H274.937V55.5H282.318V54.5ZM282.579 80.685L281.105 76.93L280.175 77.2952L281.648 81.0502L282.579 80.685ZM287.734 77.8796C286.545 77.5784 284.784 77.2625 283.333 77.0235C282.604 76.9035 281.949 76.8021 281.476 76.7307C281.24 76.695 281.048 76.6667 280.916 76.6474C280.85 76.6378 280.799 76.6303 280.764 76.6253C280.747 76.6228 280.733 76.6209 280.724 76.6196C280.72 76.6189 280.716 76.6185 280.714 76.6181C280.713 76.618 280.712 76.6178 280.711 76.6177C280.711 76.6177 280.711 76.6177 280.711 76.6176C280.711 76.6176 280.711 76.6176 280.711 76.6176C280.71 76.6176 280.71 76.6176 280.64 77.1126C280.569 77.6076 280.569 77.6076 280.57 77.6076C280.57 77.6076 280.57 77.6076 280.57 77.6076C280.57 77.6077 280.57 77.6077 280.57 77.6077C280.571 77.6078 280.572 77.6079 280.573 77.6081C280.575 77.6084 280.578 77.6088 280.582 77.6095C280.591 77.6107 280.604 77.6126 280.621 77.6151C280.656 77.62 280.706 77.6273 280.772 77.6369C280.902 77.656 281.092 77.684 281.327 77.7195C281.797 77.7904 282.447 77.8912 283.17 78.0102C284.622 78.2493 286.345 78.5593 287.488 78.8489L287.734 77.8796ZM303.376 64.6738C307.851 65.311 311.205 65.2449 314.16 68.6773L314.918 68.0248C311.658 64.2394 307.816 64.296 303.517 63.6838L303.376 64.6738ZM314.766 68.7967C315.58 68.3822 316.786 67.5518 318.143 66.6329C319.518 65.7019 321.082 64.656 322.658 63.7682C324.24 62.8772 325.801 62.1656 327.169 61.8803C328.539 61.5949 329.614 61.7539 330.362 62.457L331.047 61.7284C329.958 60.7049 328.484 60.5847 326.965 60.9014C325.445 61.2182 323.778 61.9898 322.167 62.8969C320.551 63.8072 318.956 64.8744 317.582 65.8049C316.19 66.7476 315.055 67.5274 314.312 67.9054L314.766 68.7967ZM330.362 62.457C330.8 62.8681 330.957 63.3182 330.924 63.8194C330.889 64.3483 330.638 64.9723 330.166 65.6781C329.222 67.0899 327.516 68.6579 325.537 70.1783C321.591 73.2086 316.728 75.924 315.268 76.667L315.721 77.5583C317.215 76.7982 322.136 74.0513 326.146 70.9713C328.144 69.4366 329.959 67.7873 330.997 66.2338C331.516 65.457 331.871 64.6613 331.922 63.8852C331.975 63.0814 331.699 62.3412 331.047 61.7284L330.362 62.457ZM314.049 68.253C313.906 68.9673 313.642 69.4656 313.288 69.8298C312.931 70.197 312.449 70.4612 311.817 70.6521C310.521 71.0433 308.75 71.0878 306.468 71.1893L306.513 72.1883C308.721 72.0901 310.658 72.0466 312.106 71.6094C312.846 71.386 313.495 71.0509 314.005 70.527C314.517 70.0001 314.856 69.3156 315.029 68.449L314.049 68.253ZM306.468 71.1893C304.376 71.2823 301.592 70.4818 298.949 69.6179C297.648 69.193 296.377 68.7516 295.292 68.4217C294.221 68.0957 293.249 67.851 292.549 67.851V68.851C293.079 68.851 293.915 69.048 295.001 69.3784C296.074 69.7048 297.31 70.1346 298.638 70.5685C301.251 71.4223 304.208 72.2907 306.513 72.1883L306.468 71.1893ZM281.967 57.246C282.2 56.6172 282.404 56.104 282.548 55.7486C282.62 55.571 282.678 55.4329 282.717 55.3395C282.737 55.2929 282.752 55.2574 282.762 55.2338C282.767 55.222 282.771 55.2132 282.773 55.2074C282.775 55.2045 282.776 55.2024 282.776 55.2011C282.777 55.2004 282.777 55.1999 282.777 55.1996C282.777 55.1995 282.777 55.1994 282.777 55.1993C282.777 55.1993 282.777 55.1993 282.777 55.1993C282.777 55.1993 282.777 55.1993 282.777 55.1993C282.777 55.1993 282.777 55.1993 282.318 55C281.86 54.8007 281.86 54.8007 281.86 54.8007C281.86 54.8007 281.86 54.8008 281.86 54.8008C281.86 54.8008 281.86 54.8009 281.86 54.801C281.86 54.8011 281.86 54.8013 281.859 54.8016C281.859 54.8021 281.859 54.8027 281.859 54.8036C281.858 54.8054 281.857 54.8079 281.855 54.8112C281.852 54.8178 281.848 54.8275 281.843 54.8402C281.832 54.8655 281.816 54.9027 281.796 54.9512C281.755 55.0481 281.696 55.1902 281.622 55.3719C281.474 55.7355 281.267 56.2583 281.03 56.8981L281.967 57.246ZM291.549 58.6937C293.617 59.4884 295.444 60.7867 297.347 62.0139C299.223 63.2233 301.169 64.3595 303.376 64.6738L303.517 63.6838C301.547 63.4033 299.764 62.3821 297.889 61.1735C296.042 59.9826 294.099 58.6025 291.908 57.7602L291.549 58.6937ZM281.498 57.072C281.539 57.5704 281.538 57.5704 281.538 57.5704C281.538 57.5704 281.538 57.5704 281.538 57.5704C281.539 57.5704 281.539 57.5704 281.539 57.5704C281.539 57.5703 281.54 57.5703 281.542 57.5702C281.544 57.57 281.548 57.5697 281.553 57.5693C281.564 57.5685 281.58 57.5673 281.601 57.5658C281.644 57.5628 281.708 57.5585 281.792 57.5537C281.96 57.5439 282.205 57.5317 282.514 57.522C283.13 57.5027 283.998 57.4937 284.996 57.5352C287.002 57.6185 289.495 57.9042 291.549 58.6937L291.908 57.7602C289.703 56.9127 287.081 56.621 285.037 56.5361C284.01 56.4934 283.118 56.5026 282.482 56.5225C282.164 56.5325 281.91 56.5451 281.734 56.5554C281.646 56.5605 281.578 56.565 281.532 56.5682C281.508 56.5699 281.49 56.5712 281.478 56.5721C281.472 56.5726 281.467 56.5729 281.464 56.5732C281.462 56.5733 281.461 56.5734 281.46 56.5735C281.459 56.5736 281.459 56.5736 281.459 56.5736C281.459 56.5736 281.458 56.5736 281.458 56.5736C281.458 56.5736 281.458 56.5737 281.498 57.072ZM315.268 76.667C310.377 79.1549 305.951 80.5652 301.963 80.5652V81.5652C306.176 81.5652 310.766 80.0791 315.721 77.5583L315.268 76.667ZM301.963 80.5652C297.941 80.5652 292.704 79.1396 287.734 77.8796L287.488 78.8489C292.393 80.0923 297.783 81.5652 301.963 81.5652V80.5652ZM274.47 54.8221C271.056 63.7919 270.072 72.1023 274.279 81.0798L275.185 80.6554C271.133 72.0087 272.047 63.9988 275.405 55.1779L274.47 54.8221ZM281.133 77.0318C279.906 69.5363 279.244 64.5834 281.967 57.246L281.03 56.8981C278.21 64.4943 278.914 69.669 280.147 77.1934L281.133 77.0318Z" fill="#333333"/>
<path d="M310.476 55L310.256 55.4488C310.396 55.5179 310.562 55.517 310.702 55.4463L310.476 55ZM310.476 55C310.702 55.4463 310.702 55.4462 310.702 55.4461L310.703 55.4457L310.705 55.4445L310.714 55.4401L310.747 55.4232C310.775 55.4084 310.817 55.3866 310.872 55.358C310.981 55.3007 311.14 55.216 311.341 55.1054C311.744 54.8841 312.318 54.5585 313.005 54.1398C314.38 53.303 316.216 52.0908 318.054 50.5908C319.89 49.0926 321.744 47.2957 323.141 45.2864C324.538 43.2781 325.5 41.0277 325.5 38.6341C325.5 34.9348 322.853 30.5 317.702 30.5C315.135 30.5 313.211 31.7302 311.947 32.9301C311.315 33.5309 310.84 34.1308 310.522 34.5809C310.51 34.5991 310.497 34.6172 310.485 34.6349C310.474 34.619 310.463 34.6029 310.452 34.5866C310.143 34.1346 309.675 33.5327 309.041 32.9301C307.77 31.7238 305.811 30.5 303.107 30.5C300.405 30.5 298.484 31.6569 297.251 33.2696C296.032 34.8648 295.5 36.8852 295.5 38.6341C295.5 41.0813 296.457 43.3591 297.85 45.3801C299.244 47.4012 301.092 49.1918 302.923 50.6765C304.756 52.1629 306.587 53.3543 307.958 54.1737C308.644 54.5837 309.216 54.9013 309.618 55.117C309.819 55.2248 309.977 55.3072 310.086 55.3629C310.14 55.3907 310.182 55.4119 310.21 55.4263L310.243 55.4427L310.252 55.447L310.255 55.4482L310.255 55.4486C310.256 55.4487 310.256 55.4488 310.476 55Z" fill="url(#paint7_linear_2652_23933)" stroke="#333333" stroke-linejoin="round"/>
<path d="M393.829 64.1275C393.829 61.9593 396.636 61.5025 398.995 61.5025L399.437 61.5209C399.53 61.5236 399.624 61.5148 399.716 61.4946L400.692 61.2925C401.058 60.8612 401.512 60.5163 402.022 60.2819C402.118 60.2372 402.214 60.1979 402.312 60.1612C402.294 60.0588 402.278 59.9539 402.265 59.8488C402.156 58.7558 402.497 57.6656 403.208 56.8379C405.619 54.0017 408.891 52.0623 412.507 51.3255C413.577 51.1067 414.687 51.3595 415.563 52.021C415.643 52.0788 415.721 52.1418 415.793 52.2075C415.868 52.1419 415.945 52.0789 416.025 52.0185C416.912 51.3547 418.034 51.1057 419.112 51.3333C422.201 51.9809 425.04 53.5193 427.29 55.7644L428.039 55.6094C428.417 55.5316 428.741 55.2861 428.923 54.9401C429.579 53.7309 429.948 52.3824 430 51.0026C430 47.8683 427.417 43.1276 423.542 43.1276C422.081 43.1475 420.677 43.7074 419.593 44.7026C418.986 45.2874 418.209 45.656 417.379 45.7526C417.108 44.8469 417.146 41.592 418.962 34.2025C419.404 32.3872 418.315 30.5513 416.529 30.1018C416.264 30.0353 415.993 30.002 415.721 30.0026H404.143C403.12 30.0017 402.199 30.6338 401.818 31.5986C401.428 32.578 401.667 33.7003 402.42 34.4283C403.441 35.2862 404.07 36.5322 404.161 37.875C404.161 40.0459 401.353 40.4999 398.995 40.4999C396.636 40.4999 393.829 40.0458 393.829 37.875C393.922 36.5296 394.555 35.2824 395.58 34.4257C396.334 33.6976 396.572 32.5754 396.182 31.596C395.801 30.6312 394.88 29.9993 393.857 30H382.28C380.439 29.9959 378.944 31.5087 378.94 33.3789C378.94 33.6556 378.972 33.9313 379.038 34.2C380.846 41.5788 380.892 44.8338 380.621 45.75C379.791 45.6534 379.014 45.2849 378.407 44.7C377.323 43.7048 375.919 43.145 374.458 43.125C370.583 43.125 368 47.8658 368 51C368 54.1342 370.583 58.875 374.458 58.875C375.919 58.855 377.323 58.2952 378.407 57.3C379.014 56.7151 379.791 56.3466 380.621 56.25C380.892 57.1557 380.854 60.4106 379.038 67.8C378.597 69.6173 379.689 71.4535 381.477 71.9016C381.741 71.9675 382.011 72.0006 382.282 72H393.852C394.875 72.0016 395.796 71.3693 396.177 70.404C396.566 69.4245 396.328 68.3027 395.575 67.5743C394.552 66.7174 393.921 65.4711 393.829 64.1275Z" fill="#D9F4FF"/>
<path fill-rule="evenodd" clip-rule="evenodd" d="M392.829 64.1617V64.1275C392.829 63.3479 393.089 62.6804 393.547 62.1493C393.989 61.6375 394.573 61.2986 395.167 61.0692C396.339 60.6162 397.78 60.5025 398.995 60.5025H399.016L399.469 60.5213C399.48 60.5214 399.491 60.5202 399.501 60.518L399.513 60.5153L400.173 60.3787C400.491 60.0557 400.852 59.7788 401.246 59.5564C401.219 58.3278 401.644 57.1253 402.448 56.1882C405.002 53.1844 408.47 51.1276 412.307 50.3457C413.512 50.0993 414.756 50.3266 415.793 50.9682C416.844 50.3222 418.103 50.0982 419.319 50.3549C422.421 51.0057 425.285 52.5025 427.605 54.6781L427.837 54.6302C427.917 54.6136 427.993 54.5599 428.037 54.4758L428.041 54.4694L428.044 54.4631C428.624 53.3952 428.951 52.2041 429 50.9842C428.995 49.6534 428.431 47.8946 427.411 46.4723C426.39 45.0468 425.044 44.1303 423.549 44.1276C422.342 44.1458 421.179 44.6077 420.277 45.4318C419.516 46.1621 418.54 46.6243 417.494 46.7459L416.661 46.8427L416.421 46.0395C416.222 45.3751 416.191 44.1548 416.394 42.3001C416.603 40.3932 417.076 37.6872 417.991 33.9646C418.305 32.6706 417.525 31.3838 416.285 31.0716C416.101 31.0253 415.912 31.0022 415.723 31.0026L415.721 31.0026L404.143 31.0026C403.538 31.0021 402.981 31.3761 402.748 31.9661L402.747 31.9688C402.51 32.5652 402.651 33.2447 403.094 33.689C404.307 34.7226 405.05 36.2099 405.159 37.8072L405.161 37.8411V37.875C405.161 38.6549 404.901 39.3228 404.443 39.8542C404.001 40.3663 403.416 40.7052 402.823 40.9344C401.651 41.387 400.209 41.4999 398.995 41.4999C397.78 41.4999 396.339 41.387 395.167 40.9344C394.573 40.7051 393.989 40.3662 393.547 39.8541C393.089 39.3227 392.829 38.6549 392.829 37.875V37.8405L392.831 37.806C392.942 36.2061 393.689 34.7177 394.906 33.6856C395.349 33.2411 395.49 32.5622 395.253 31.9662L395.252 31.9635C395.019 31.3736 394.463 30.9996 393.858 31L382.277 31C381.004 30.9972 379.943 32.0479 379.94 33.381C379.94 33.577 379.963 33.7724 380.009 33.9627C380.92 37.6796 381.393 40.3826 381.603 42.289C381.807 44.1441 381.778 45.3655 381.58 46.0338L381.341 46.8405L380.506 46.7433C379.46 46.6217 378.484 46.1595 377.723 45.4292C376.821 44.6051 375.658 44.1432 374.451 44.125C372.956 44.1278 371.61 45.0442 370.589 46.4697C369.565 47.8986 369 49.6671 369 51C369 52.3329 369.565 54.1014 370.589 55.5303C371.61 56.9558 372.956 57.8722 374.451 57.875C375.658 57.8568 376.821 57.3949 377.723 56.5708C378.484 55.8405 379.46 55.3783 380.506 55.2567L381.339 55.1599L381.579 55.9631C381.778 56.6275 381.809 57.8478 381.606 59.7025C381.397 61.6092 380.924 64.315 380.009 68.0372C379.696 69.333 380.478 70.6203 381.72 70.9315C381.904 70.9775 382.092 71.0004 382.28 71L382.282 71L393.853 71C394.458 71.0009 395.014 70.6271 395.246 70.0372L395.247 70.0344C395.485 69.4379 395.343 68.7586 394.901 68.3137C393.686 67.2813 392.941 65.794 392.831 64.1959L392.829 64.1617ZM395.575 67.5743C396.328 68.3027 396.566 69.4245 396.177 70.404C395.796 71.3693 394.875 72.0016 393.852 72H382.282C382.011 72.0006 381.741 71.9675 381.477 71.9016C379.689 71.4535 378.597 69.6173 379.038 67.8C380.854 60.4106 380.892 57.1557 380.621 56.25C379.791 56.3466 379.014 56.7151 378.407 57.3C377.323 58.2952 375.919 58.855 374.458 58.875C370.583 58.875 368 54.1342 368 51C368 47.8658 370.583 43.125 374.458 43.125C375.919 43.145 377.323 43.7048 378.407 44.7C379.014 45.2849 379.791 45.6534 380.621 45.75C380.892 44.8338 380.846 41.5788 379.038 34.2C378.972 33.9313 378.94 33.6556 378.94 33.3789C378.944 31.5087 380.439 29.9959 382.28 30H393.857C394.88 29.9993 395.801 30.6312 396.182 31.596C396.572 32.5754 396.334 33.6976 395.58 34.4257C394.555 35.2824 393.922 36.5296 393.829 37.875C393.829 40.0458 396.636 40.4999 398.995 40.4999C401.353 40.4999 404.161 40.0459 404.161 37.875C404.07 36.5322 403.441 35.2862 402.42 34.4283C401.667 33.7003 401.428 32.578 401.818 31.5986C402.199 30.6338 403.12 30.0017 404.143 30.0026H415.721C415.993 30.002 416.264 30.0353 416.529 30.1018C418.315 30.5513 419.404 32.3872 418.962 34.2025C417.146 41.592 417.108 44.8469 417.379 45.7526C418.209 45.656 418.986 45.2874 419.593 44.7026C420.677 43.7074 422.081 43.1475 423.542 43.1276C427.417 43.1276 430 47.8683 430 51.0026C429.948 52.3824 429.579 53.7309 428.923 54.9401C428.741 55.2861 428.417 55.5316 428.039 55.6094L427.29 55.7644C425.04 53.5193 422.201 51.9809 419.112 51.3333C418.034 51.1057 416.912 51.3547 416.025 52.0185C415.945 52.0789 415.868 52.1419 415.793 52.2075C415.721 52.1418 415.643 52.0788 415.563 52.021C414.687 51.3595 413.577 51.1067 412.507 51.3255C408.891 52.0623 405.619 54.0017 403.208 56.8379C402.497 57.6656 402.156 58.7558 402.265 59.8488C402.278 59.9539 402.294 60.0588 402.312 60.1612C402.214 60.1979 402.118 60.2372 402.022 60.2819C401.512 60.5163 401.058 60.8612 400.692 61.2925L399.716 61.4946C399.624 61.5148 399.53 61.5236 399.437 61.5209L398.995 61.5025C396.636 61.5025 393.829 61.9593 393.829 64.1275C393.921 65.4711 394.552 66.7174 395.575 67.5743Z" fill="#333333"/>
<path d="M429.187 63.4491C428.956 62.7524 428.162 62.3795 427.485 62.6714C426.91 62.9316 426.234 62.7162 425.907 62.1684C425.595 61.6038 425.753 60.8902 426.274 60.5172C426.862 60.0678 426.947 59.1836 426.467 58.6248C424.461 56.2605 421.741 54.6427 418.734 54.026C418.384 53.9528 418.019 54.0359 417.732 54.2541C417.444 54.471 417.259 54.8013 417.223 55.164C417.192 55.8548 416.617 56.3893 415.939 56.3579C415.305 56.3285 414.796 55.8109 414.768 55.164C414.731 54.8013 414.546 54.471 414.259 54.2541C413.971 54.0361 413.607 53.9531 413.256 54.026C410.249 54.6427 407.529 56.2606 405.523 58.6248C405.042 59.1841 405.13 60.0691 405.717 60.5172C406.277 60.9023 406.425 61.6773 406.047 62.2482C405.706 62.7636 405.044 62.9441 404.495 62.6714C403.817 62.3782 403.022 62.7542 402.793 63.4491C401.739 66.3889 401.739 69.6136 402.793 72.5534C403.029 73.261 403.816 73.624 404.493 73.3311C405.102 73.0314 405.833 73.291 406.128 73.911C406.391 74.4663 406.217 75.1344 405.717 75.4828C405.128 75.9322 405.044 76.8164 405.523 77.3752C407.529 79.7398 410.249 81.3576 413.256 81.974C413.607 82.0472 413.972 81.9642 414.259 81.7459C414.547 81.5284 414.732 81.197 414.768 80.8334C414.821 80.1426 415.414 79.6268 416.092 79.6813C416.696 79.7298 417.175 80.2183 417.223 80.8334C417.298 81.5751 418.018 82.1279 418.75 81.9715C421.757 81.3552 424.477 79.7373 426.482 77.3728C426.946 76.8348 426.893 76.0158 426.365 75.5436C425.838 75.0709 425.521 74.4158 425.97 73.7472C426.312 73.2382 426.968 73.0603 427.513 73.3288C428.192 73.6209 428.981 73.2438 429.213 72.5511C430.266 69.6113 430.241 66.3889 429.187 63.4491ZM415.984 74.4821C412.471 74.4821 409.623 71.5806 409.623 68.0013C409.623 64.4221 412.471 61.5205 415.984 61.5205C419.497 61.5205 422.345 64.4221 422.345 68.0013C422.345 71.5806 419.497 74.4821 415.984 74.4821Z" fill="url(#paint8_linear_2652_23933)"/>
<path fill-rule="evenodd" clip-rule="evenodd" d="M405.717 60.5172C405.13 60.0691 405.042 59.1841 405.523 58.6248C407.529 56.2606 410.249 54.6427 413.256 54.026C413.607 53.9531 413.971 54.0361 414.259 54.2541C414.546 54.471 414.731 54.8013 414.768 55.164C414.796 55.8109 415.305 56.3285 415.939 56.3579C416.617 56.3893 417.192 55.8548 417.223 55.164C417.259 54.8013 417.444 54.471 417.732 54.2541C418.019 54.0359 418.384 53.9528 418.734 54.026C421.741 54.6427 424.461 56.2605 426.467 58.6248C426.947 59.1836 426.862 60.0678 426.274 60.5172C425.753 60.8902 425.595 61.6038 425.907 62.1684C426.234 62.7162 426.91 62.9316 427.485 62.6714C428.162 62.3795 428.956 62.7524 429.187 63.4491C430.241 66.3889 430.266 69.6113 429.213 72.5511C428.981 73.2438 428.192 73.6209 427.513 73.3288C426.968 73.0603 426.312 73.2382 425.97 73.7472C425.521 74.4158 425.838 75.0709 426.365 75.5436C426.893 76.0158 426.946 76.8348 426.482 77.3728C424.477 79.7373 421.757 81.3552 418.75 81.9715C418.018 82.1279 417.298 81.5751 417.223 80.8334C417.175 80.2183 416.696 79.7298 416.092 79.6813C415.414 79.6268 414.821 80.1426 414.768 80.8334C414.732 81.197 414.547 81.5284 414.259 81.7459C413.972 81.9642 413.607 82.0472 413.256 81.974C410.249 81.3576 407.529 79.7398 405.523 77.3752C405.044 76.8164 405.128 75.9322 405.717 75.4828C406.217 75.1344 406.391 74.4663 406.128 73.911C405.833 73.291 405.102 73.0314 404.493 73.3311C403.816 73.624 403.029 73.261 402.793 72.5534C401.739 69.6136 401.739 66.3889 402.793 63.4491C403.022 62.7542 403.817 62.3782 404.495 62.6714C405.044 62.9441 405.706 62.7636 406.047 62.2482C406.425 61.6773 406.277 60.9023 405.717 60.5172ZM411.903 63.0295C413.008 62.0875 414.431 61.5205 415.984 61.5205C417.742 61.5205 419.333 62.247 420.484 63.4213C421.634 64.5939 422.345 66.213 422.345 68.0013C422.345 68.3801 422.313 68.7512 422.252 69.1121C421.988 70.6699 421.178 72.0373 420.03 73.0023C419.192 73.7065 418.175 74.1965 417.058 74.3901C416.709 74.4506 416.35 74.4821 415.984 74.4821C414.282 74.4821 412.737 73.8016 411.595 72.6931C410.38 71.5127 409.623 69.8471 409.623 68.0013C409.623 66.0043 410.509 64.2183 411.903 63.0295ZM426.341 63.6887C426.685 63.7911 427.054 63.8111 427.417 63.7378C427.574 63.7059 427.731 63.6563 427.884 63.5881C427.942 63.5646 428.012 63.5641 428.084 63.5977C428.161 63.6328 428.215 63.694 428.238 63.7643L428.242 63.7754L428.246 63.7865C429.223 66.5138 429.245 69.4975 428.271 72.2137L428.268 72.224L428.264 72.2344C428.241 72.3047 428.186 72.3667 428.11 72.4021C428.041 72.4342 427.975 72.4351 427.92 72.4149C426.926 71.9466 425.75 72.2817 425.14 73.1897C424.75 73.7707 424.67 74.4081 424.841 74.9978C425 75.5441 425.351 75.9775 425.699 76.289C425.819 76.3964 425.834 76.5934 425.725 76.72L425.72 76.726C423.857 78.9217 421.334 80.421 418.549 80.9919L418.541 80.9936C418.485 81.0054 418.414 80.995 418.341 80.9403C418.269 80.8856 418.227 80.8104 418.219 80.739C418.126 79.6552 417.274 78.773 416.172 78.6845C414.93 78.5847 413.874 79.5234 413.772 80.741C413.762 80.8277 413.717 80.9015 413.656 80.9476L413.653 80.9502C413.595 80.9941 413.526 81.0087 413.461 80.9951L413.457 80.9943C410.672 80.4234 408.148 78.9241 406.286 76.7284L406.282 76.7239C406.234 76.6676 406.205 76.5838 406.215 76.4875C406.224 76.397 406.263 76.3277 406.315 76.2844C407.201 75.648 407.496 74.4631 407.031 73.4822C406.825 73.0492 406.498 72.711 406.11 72.4919C405.509 72.1532 404.76 72.0989 404.085 72.4177C403.964 72.4624 403.797 72.4013 403.742 72.2376L403.738 72.2268L403.735 72.216C402.759 69.4943 402.759 66.5082 403.735 63.7865L403.739 63.7745L403.743 63.7623C403.765 63.6946 403.818 63.6331 403.895 63.5975C403.966 63.5651 404.032 63.5645 404.087 63.5845C405.086 64.0591 406.272 63.7193 406.881 62.8002C407.55 61.7901 407.304 60.4191 406.314 59.7147C406.263 59.6715 406.224 59.602 406.214 59.5116C406.205 59.4153 406.234 59.3327 406.281 59.2775L406.286 59.2717C408.148 57.0762 410.672 55.5769 413.457 55.0056L413.46 55.0051C413.525 54.9915 413.595 55.0061 413.654 55.0505L413.657 55.0526C413.715 55.0968 413.758 55.1667 413.771 55.2492C413.841 56.3788 414.74 57.3034 415.893 57.3569C417.127 57.4139 418.144 56.4559 418.22 55.2492C418.232 55.1667 418.275 55.0968 418.334 55.0526L418.337 55.05C418.395 55.0059 418.465 54.9914 418.53 55.0049L418.533 55.0056C421.319 55.5769 423.842 57.0761 425.704 59.2717L425.708 59.2761C425.756 59.3324 425.785 59.4162 425.776 59.5125C425.767 59.6045 425.726 59.6745 425.673 59.7177C424.75 60.3932 424.481 61.6556 425.032 62.6519L425.04 62.6666L425.048 62.6811C425.348 63.1831 425.816 63.5321 426.341 63.6887ZM408.623 68.0013C408.623 66.0675 409.347 64.2987 410.539 62.9672C411.882 61.466 413.82 60.5205 415.984 60.5205C418.386 60.5205 420.51 61.6861 421.851 63.4837C422.789 64.7412 423.345 66.308 423.345 68.0013C423.345 69.9436 422.614 71.7195 421.413 73.0531C420.07 74.544 418.139 75.4821 415.984 75.4821C413.637 75.4821 411.556 74.3696 410.21 72.6423C409.215 71.3646 408.623 69.7505 408.623 68.0013Z" fill="#333333"/>
<path fill-rule="evenodd" clip-rule="evenodd" d="M522.608 41.5643L522.606 41.5619L513.418 32.3919L513.417 32.3906C513.364 32.3384 513.315 32.2887 513.273 32.2456L513.257 32.2295C513.209 32.1807 513.171 32.1426 513.136 32.1091C513.066 32.0411 513.036 32.018 513.023 32.0095C513.012 32.007 512.975 32 512.895 32H490.348C489.595 32 489 32.6025 489 33.3276V76.6724C489 77.3975 489.595 78 490.348 78H521.652C522.405 78 523 77.3975 523 76.6724V42.1093C523 42.0214 522.991 41.9827 522.988 41.9724C522.987 41.9666 522.986 41.9644 522.98 41.9542C522.969 41.9373 522.944 41.9031 522.879 41.8351C522.829 41.7819 522.776 41.7298 522.704 41.6592C522.676 41.631 522.644 41.5998 522.608 41.5643ZM514.122 31.6817L523.312 40.8541C523.341 40.8821 523.368 40.9091 523.395 40.9353C523.783 41.3182 524 41.5316 524 42.1093V76.6724C524 77.9579 522.949 79 521.652 79H490.348C489.051 79 488 77.9579 488 76.6724V33.3276C488 32.0421 489.051 31 490.348 31H512.895C513.449 31 513.64 31.1939 513.985 31.5436C514.028 31.5873 514.074 31.6333 514.122 31.6817Z" fill="#333333"/>
<path fill-rule="evenodd" clip-rule="evenodd" d="M482.409 32.5624C482.156 32.922 482.02 33.4423 482.02 34.0244V76.148C482.02 77.2821 482.736 78.0001 483.396 78.0001H485.52C485.796 78.0001 486.02 78.2239 486.02 78.5001C486.02 78.7762 485.796 79.0001 485.52 79.0001H483.396C481.984 79.0001 481.02 77.6119 481.02 76.148V34.0244C481.02 33.3074 481.185 32.5656 481.59 31.9877C482.011 31.3885 482.67 31 483.55 31H485.52C485.796 31 486.02 31.2239 486.02 31.5C486.02 31.7761 485.796 32 485.52 32H483.55C483.003 32 482.646 32.2242 482.409 32.5624Z" fill="#333333"/>
<path fill-rule="evenodd" clip-rule="evenodd" d="M476.392 32.5624C476.14 32.922 476.003 33.4423 476.003 34.0244V76.1479C476.003 77.282 476.719 78 477.38 78H479.503C479.779 78 480.003 78.2239 480.003 78.5C480.003 78.7761 479.779 79 479.503 79H477.38C475.968 79 475.003 77.6118 475.003 76.1479V34.0244C475.003 33.3074 475.168 32.5656 475.574 31.9877C475.995 31.3885 476.653 31 477.533 31H479.503C479.779 31 480.003 31.2239 480.003 31.5C480.003 31.7761 479.779 32 479.503 32H477.533C476.986 32 476.63 32.2242 476.392 32.5624Z" fill="#333333"/>
<path d="M513.354 31.6464C513.211 31.5034 512.995 31.4607 512.809 31.5381C512.622 31.6154 512.5 31.7978 512.5 32V40.182C512.5 40.8578 512.664 41.4574 513.073 41.8877C513.487 42.3225 514.072 42.5001 514.732 42.5001H523C523.202 42.5001 523.385 42.3783 523.462 42.1915C523.539 42.0046 523.497 41.7896 523.354 41.6466L513.354 31.6464Z" fill="url(#paint9_linear_2652_23933)" stroke="#333333" stroke-linecap="round" stroke-linejoin="round"/>
<rect x="468.5" y="52.5" width="44.064" height="16" rx="1.5" fill="url(#paint10_linear_2652_23933)" stroke="#333333"/>
<path d="M479.378 60.4209C479.378 61.6025 479.085 62.5107 478.499 63.1455C477.913 63.7803 477.073 64.0977 475.979 64.0977C474.886 64.0977 474.046 63.7803 473.46 63.1455C472.874 62.5107 472.581 61.5993 472.581 60.4111C472.581 59.223 472.874 58.3164 473.46 57.6914C474.049 57.0632 474.892 56.749 475.989 56.749C477.086 56.749 477.924 57.0648 478.504 57.6963C479.087 58.3278 479.378 59.236 479.378 60.4209ZM474.168 60.4209C474.168 61.2184 474.319 61.819 474.622 62.2227C474.925 62.6263 475.377 62.8281 475.979 62.8281C477.187 62.8281 477.791 62.0257 477.791 60.4209C477.791 58.8128 477.19 58.0088 475.989 58.0088C475.387 58.0088 474.933 58.2122 474.627 58.6191C474.321 59.0228 474.168 59.6234 474.168 60.4209Z" fill="white"/>
<path d="M487.337 60.4209C487.337 61.6025 487.044 62.5107 486.458 63.1455C485.872 63.7803 485.032 64.0977 483.938 64.0977C482.845 64.0977 482.005 63.7803 481.419 63.1455C480.833 62.5107 480.54 61.5993 480.54 60.4111C480.54 59.223 480.833 58.3164 481.419 57.6914C482.008 57.0632 482.851 56.749 483.948 56.749C485.045 56.749 485.883 57.0648 486.463 57.6963C487.046 58.3278 487.337 59.236 487.337 60.4209ZM482.127 60.4209C482.127 61.2184 482.278 61.819 482.581 62.2227C482.884 62.6263 483.336 62.8281 483.938 62.8281C485.146 62.8281 485.75 62.0257 485.75 60.4209C485.75 58.8128 485.149 58.0088 483.948 58.0088C483.346 58.0088 482.892 58.2122 482.586 58.6191C482.28 59.0228 482.127 59.6234 482.127 60.4209Z" fill="white"/>
<path d="M494.588 64H492.859L491.199 61.2998L489.539 64H487.918L490.286 60.3184L488.069 56.8613H489.739L491.277 59.4297L492.786 56.8613H494.417L492.176 60.4014L494.588 64Z" fill="white"/>
<path d="M498.509 64L496.79 58.3994H496.746C496.808 59.5387 496.839 60.2988 496.839 60.6797V64H495.486V56.8613H497.547L499.236 62.3203H499.266L501.058 56.8613H503.118V64H501.707V60.6211C501.707 60.4616 501.709 60.2777 501.712 60.0693C501.718 59.861 501.741 59.3076 501.78 58.4092H501.736L499.896 64H498.509Z" fill="white"/>
<path d="M504.92 64V56.8613H506.434V62.75H509.329V64H504.92Z" fill="white"/>
<path d="M610 55C610 61.0751 605.075 66 599 66C592.925 66 588 61.0751 588 55C588 48.9249 592.925 44 599 44C605.075 44 610 48.9249 610 55Z" fill="white"/>
<path d="M599.504 43.4999C593.154 43.3878 588.113 47.3614 588.005 53.92C587.943 57.6387 589.403 61.7772 591.958 63.9998C592.125 63.8492 592.451 63.6695 592.65 63.5574L596.081 61.6243C596.531 61.3706 596.811 60.8834 596.811 60.3537V58.9015C596.811 58.9015 595.804 57.6573 595.42 55.9285C595.102 55.7156 594.888 55.3477 594.888 54.9286V53.3393C594.888 52.9897 595.039 52.6773 595.273 52.4585V50.161C595.273 50.161 594.816 46.5857 599.504 46.5857C604.191 46.5857 603.734 50.161 603.734 50.161V52.4585C603.969 52.6773 604.119 52.9897 604.119 53.3393V54.9286C604.119 55.4629 603.772 55.9124 603.3 56.0626C603.038 56.9056 602.659 57.7093 602.158 58.4398C602.032 58.624 601.914 58.78 601.811 58.9015V60.3904C601.811 60.9386 602.111 61.4401 602.585 61.6848L606.259 63.5821L607.003 63.4998C609.481 61.3655 610.443 58.5935 610.503 54.9998C610.595 49.419 605.854 43.6119 599.504 43.4999Z" fill="url(#paint11_linear_2652_23933)"/>
<path fill-rule="evenodd" clip-rule="evenodd" d="M611 55C611 61.6274 605.627 67 599 67C592.373 67 587 61.6274 587 55C587 48.3726 592.373 43 599 43C605.627 43 611 48.3726 611 55ZM599 66C605.075 66 610 61.0751 610 55C610 48.9249 605.075 44 599 44C592.925 44 588 48.9249 588 55C588 61.0751 592.925 66 599 66Z" fill="#333333"/>
<path d="M597.04 55.0003C597.04 61.0966 592.098 66.0387 586.003 66.0387C579.908 66.0387 574.967 61.0966 574.967 55.0003C574.967 48.904 579.908 43.9619 586.003 43.9619C592.098 43.9619 597.04 48.904 597.04 55.0003Z" fill="white"/>
<path d="M586.208 43.0018C579.582 42.8897 574.118 48.1159 574.005 54.6745C573.941 58.3933 575.462 61.7773 578.128 64C578.302 63.8494 578.643 63.6697 578.851 63.5576L582.431 61.6245C582.901 61.3708 583.193 60.8836 583.193 60.3538V58.9016C583.193 58.9016 582.142 57.6574 581.741 55.9286C581.409 55.7157 581.186 55.3477 581.186 54.9287V53.3393C581.186 52.9897 581.343 52.6773 581.587 52.4586V50.161C581.587 50.161 581.111 46.5857 586.003 46.5857C590.894 46.5857 590.418 50.161 590.418 50.161V52.4586C590.662 52.6773 590.819 52.9897 590.819 53.3393V54.9287C590.819 55.4629 590.457 55.9125 589.965 56.0626C589.691 56.9057 589.296 57.7094 588.773 58.4399C588.641 58.6242 588.518 58.7801 588.41 58.9016V60.3906C588.41 60.9387 588.723 61.4403 589.219 61.685L593.053 63.5823C593.283 63.6961 593.686 63.84 593.878 64C596.464 61.8656 597.938 58.6744 598 55.0806C598.114 48.5219 592.55 43.109 586.208 43.0018Z" fill="url(#paint12_linear_2652_23933)"/>
<path fill-rule="evenodd" clip-rule="evenodd" d="M598.003 55C598.003 61.6254 592.632 67 586.003 67C579.373 67 574.003 61.6254 574.003 55C574.003 48.3746 579.373 43 586.003 43C592.632 43 598.003 48.3746 598.003 55ZM586.003 66.0384C592.098 66.0384 597.039 61.0963 597.039 55C597.039 48.9037 592.098 43.9616 586.003 43.9616C579.908 43.9616 574.967 48.9037 574.967 55C574.967 61.0963 579.908 66.0384 586.003 66.0384Z" fill="#333333"/>
<path fill-rule="evenodd" clip-rule="evenodd" d="M620 50C620.351 50 620.677 50.1843 620.857 50.4855L623.857 55.4855C624.043 55.7944 624.048 56.1792 623.87 56.4927C623.693 56.8062 623.36 57 623 57H617C616.64 57 616.307 56.8062 616.13 56.4927C615.952 56.1792 615.957 55.7944 616.143 55.4855L619.143 50.4855C619.323 50.1843 619.649 50 620 50ZM620 51L617 56H623L620 51Z" fill="#333333"/>
<path fill-rule="evenodd" clip-rule="evenodd" d="M593 82C607.577 82 619.456 70.4484 619.982 56H620.982C620.456 71.0008 608.129 83 593 83C578.807 83 567.08 72.4397 565.249 58.7477L566 60L566.357 59.4043C568.46 72.2211 579.588 82 593 82ZM566 55C566 40.0883 578.088 28 593 28C606.69 28 618 38.1888 619.762 51.3971L620 51L620.888 52.4803C619.614 38.1969 607.615 27 593 27C577.536 27 565 39.536 565 55H566Z" fill="#333333"/>
<path fill-rule="evenodd" clip-rule="evenodd" d="M566 61C566.351 61 566.677 60.8157 566.857 60.5145L569.857 55.5145C570.043 55.2056 570.048 54.8208 569.87 54.5073C569.693 54.1938 569.36 54 569 54H563C562.64 54 562.307 54.1938 562.13 54.5073C561.952 54.8208 561.957 55.2056 562.143 55.5145L565.143 60.5145C565.323 60.8157 565.649 61 566 61ZM566 60L563 55H569L566 60Z" fill="#333333"/>
<mask id="path-37-inside-1_2652_23933" fill="white">
<path fill-rule="evenodd" clip-rule="evenodd" d="M784.321 50.4841C784.294 50.4845 784.267 50.4846 784.239 50.4846C780.819 50.4846 778.046 47.7118 778.046 44.2914C778.046 40.871 780.819 38.0982 784.239 38.0982C784.452 38.0982 784.662 38.1089 784.868 38.1298L784.868 38.0984C784.868 35.8303 786.707 33.9917 788.975 33.9917C789.522 33.9917 790.044 34.0986 790.521 34.2926C791.769 30.3542 795.454 27.5 799.805 27.5C804.856 27.5 809.009 31.3464 809.494 36.27C813.139 36.5818 816 39.639 816 43.3643C816 47.2969 812.812 50.4849 808.879 50.4849C808.845 50.4849 808.81 50.4846 808.775 50.4841H784.321Z"/>
</mask>
<path fill-rule="evenodd" clip-rule="evenodd" d="M784.321 50.4841C784.294 50.4845 784.267 50.4846 784.239 50.4846C780.819 50.4846 778.046 47.7118 778.046 44.2914C778.046 40.871 780.819 38.0982 784.239 38.0982C784.452 38.0982 784.662 38.1089 784.868 38.1298L784.868 38.0984C784.868 35.8303 786.707 33.9917 788.975 33.9917C789.522 33.9917 790.044 34.0986 790.521 34.2926C791.769 30.3542 795.454 27.5 799.805 27.5C804.856 27.5 809.009 31.3464 809.494 36.27C813.139 36.5818 816 39.639 816 43.3643C816 47.2969 812.812 50.4849 808.879 50.4849C808.845 50.4849 808.81 50.4846 808.775 50.4841H784.321Z" fill="#D9F4FF"/>
<path d="M784.321 50.4841V49.484L784.308 49.4842L784.321 50.4841ZM784.868 38.1298L784.768 39.1247L785.873 39.2362L785.868 38.126L784.868 38.1298ZM784.868 38.0984H783.868L783.868 38.1021L784.868 38.0984ZM790.521 34.2926L790.144 35.2189L791.147 35.6267L791.474 34.5946L790.521 34.2926ZM809.494 36.27L808.499 36.3681L808.581 37.1955L809.409 37.2664L809.494 36.27ZM808.775 50.4841L808.79 49.4842L808.782 49.4841H808.775V50.4841ZM784.308 49.4842C784.285 49.4845 784.262 49.4846 784.239 49.4846V51.4846C784.271 51.4846 784.302 51.4844 784.334 51.484L784.308 49.4842ZM784.239 49.4846C781.371 49.4846 779.046 47.1596 779.046 44.2914H777.046C777.046 48.2641 780.266 51.4846 784.239 51.4846V49.4846ZM779.046 44.2914C779.046 41.4233 781.371 39.0982 784.239 39.0982V37.0982C780.266 37.0982 777.046 40.3187 777.046 44.2914H779.046ZM784.239 39.0982C784.418 39.0982 784.594 39.1072 784.768 39.1247L784.969 37.1348C784.729 37.1106 784.485 37.0982 784.239 37.0982V39.0982ZM785.868 38.126L785.868 38.0946L783.868 38.1021L783.868 38.1335L785.868 38.126ZM785.868 38.0984C785.868 36.3826 787.259 34.9917 788.975 34.9917V32.9917C786.155 32.9917 783.868 35.278 783.868 38.0984H785.868ZM788.975 34.9917C789.391 34.9917 789.785 35.0727 790.144 35.2189L790.898 33.3662C790.303 33.1244 789.653 32.9917 788.975 32.9917V34.9917ZM791.474 34.5946C792.594 31.0598 795.902 28.5 799.805 28.5V26.5C795.005 26.5 790.943 29.6486 789.568 33.9905L791.474 34.5946ZM799.805 28.5C804.337 28.5 808.064 31.9512 808.499 36.3681L810.49 36.1719C809.954 30.7415 805.376 26.5 799.805 26.5V28.5ZM809.409 37.2664C812.541 37.5343 815 40.1627 815 43.3643H817C817 39.1153 813.737 35.6293 809.58 35.2737L809.409 37.2664ZM815 43.3643C815 46.7446 812.26 49.4849 808.879 49.4849V51.4849C813.364 51.4849 817 47.8492 817 43.3643H815ZM808.879 49.4849C808.849 49.4849 808.82 49.4846 808.79 49.4842L808.761 51.484C808.8 51.4846 808.84 51.4849 808.879 51.4849V49.4849ZM808.775 49.4841H784.321V51.4841H808.775V49.4841Z" fill="#444444" mask="url(#path-37-inside-1_2652_23933)"/>
<mask id="path-39-inside-2_2652_23933" fill="white">
<path fill-rule="evenodd" clip-rule="evenodd" d="M791.108 89.9959C793.827 89.8931 796 87.6562 796 84.9118C796 82.1019 793.722 79.824 790.912 79.824C790.607 79.824 790.309 79.8509 790.019 79.9023C789.568 77.1224 787.157 75 784.25 75C781.447 75 779.106 76.972 778.537 79.604C778.173 79.4486 777.773 79.3626 777.353 79.3626C776.606 79.3626 775.922 79.6347 775.395 80.0853C774.677 79.7162 773.863 79.5078 773 79.5078C770.103 79.5078 767.754 81.8565 767.754 84.7537C767.754 87.6509 770.103 89.9996 773 89.9996C773.014 89.9996 773.027 89.9995 773.041 89.9994H790.871C790.884 89.9995 790.898 89.9996 790.912 89.9996C790.926 89.9996 790.94 89.9995 790.954 89.9994H791.108V89.9959Z"/>
</mask>
<path fill-rule="evenodd" clip-rule="evenodd" d="M791.108 89.9959C793.827 89.8931 796 87.6562 796 84.9118C796 82.1019 793.722 79.824 790.912 79.824C790.607 79.824 790.309 79.8509 790.019 79.9023C789.568 77.1224 787.157 75 784.25 75C781.447 75 779.106 76.972 778.537 79.604C778.173 79.4486 777.773 79.3626 777.353 79.3626C776.606 79.3626 775.922 79.6347 775.395 80.0853C774.677 79.7162 773.863 79.5078 773 79.5078C770.103 79.5078 767.754 81.8565 767.754 84.7537C767.754 87.6509 770.103 89.9996 773 89.9996C773.014 89.9996 773.027 89.9995 773.041 89.9994H790.871C790.884 89.9995 790.898 89.9996 790.912 89.9996C790.926 89.9996 790.94 89.9995 790.954 89.9994H791.108V89.9959Z" fill="#D9F4FF"/>
<path d="M791.108 89.9959H790.108V89.033L791.07 88.9966L791.108 89.9959ZM790.019 79.9023L790.193 80.8869L789.194 81.0639L789.032 80.0623L790.019 79.9023ZM778.537 79.604L779.514 79.8153L779.258 80.9999L778.144 80.5235L778.537 79.604ZM775.395 80.0853L776.045 80.8452L775.535 81.2816L774.938 80.9747L775.395 80.0853ZM773.041 89.9994L773.033 88.9994H773.041V89.9994ZM790.871 89.9994V88.9994L790.879 88.9995L790.871 89.9994ZM790.954 89.9994L790.946 88.9994H790.954V89.9994ZM791.108 89.9994H792.108V90.9994H791.108V89.9994ZM791.07 88.9966C793.254 88.914 795 87.1166 795 84.9118H797C797 88.1958 794.4 90.8721 791.146 90.9952L791.07 88.9966ZM795 84.9118C795 82.6542 793.17 80.824 790.912 80.824V78.824C794.274 78.824 797 81.5496 797 84.9118H795ZM790.912 80.824C790.666 80.824 790.426 80.8457 790.193 80.8869L789.844 78.9176C790.192 78.856 790.549 78.824 790.912 78.824V80.824ZM789.032 80.0623C788.658 77.7589 786.658 76 784.25 76V74C787.655 74 790.478 76.486 791.006 79.7422L789.032 80.0623ZM784.25 76C781.928 76 779.986 77.6339 779.514 79.8153L777.559 79.3927C778.226 76.3102 780.967 74 784.25 74V76ZM778.144 80.5235C777.902 80.4203 777.636 80.3626 777.353 80.3626V78.3626C777.911 78.3626 778.445 78.477 778.93 78.6845L778.144 80.5235ZM777.353 80.3626C776.853 80.3626 776.397 80.5437 776.045 80.8452L774.745 79.3254C775.446 78.7257 776.358 78.3626 777.353 78.3626V80.3626ZM774.938 80.9747C774.358 80.6765 773.7 80.5078 773 80.5078V78.5078C774.025 78.5078 774.996 78.7558 775.852 79.1959L774.938 80.9747ZM773 80.5078C770.655 80.5078 768.754 82.4088 768.754 84.7537H766.754C766.754 81.3042 769.55 78.5078 773 78.5078V80.5078ZM768.754 84.7537C768.754 87.0986 770.655 88.9996 773 88.9996V90.9996C769.55 90.9996 766.754 88.2032 766.754 84.7537H768.754ZM773 88.9996C773.011 88.9996 773.022 88.9995 773.033 88.9994L773.049 90.9994C773.033 90.9995 773.016 90.9996 773 90.9996V88.9996ZM773.041 88.9994H790.871V90.9994H773.041V88.9994ZM790.879 88.9995C790.89 88.9995 790.901 88.9996 790.912 88.9996V90.9996C790.896 90.9996 790.879 90.9995 790.863 90.9994L790.879 88.9995ZM790.912 88.9996C790.923 88.9996 790.935 88.9995 790.946 88.9995L790.962 90.9994C790.945 90.9995 790.929 90.9996 790.912 90.9996V88.9996ZM790.954 88.9994H791.108V90.9994H790.954V88.9994ZM790.108 89.9994V89.9959H792.108V89.9994H790.108Z" fill="#444444" mask="url(#path-39-inside-2_2652_23933)"/>
<path d="M791.816 44.391C792.057 43.8492 792.594 43.5 793.187 43.5H846.813C847.362 43.5 847.867 43.7998 848.13 44.2817L852.754 52.7606C852.936 53.0938 852.695 53.5 852.315 53.5H788.539C788.177 53.5 787.935 53.1276 788.082 52.797L791.816 44.391Z" fill="url(#paint13_linear_2652_23933)" stroke="#333333"/>
<path d="M790.501 54.0002C790.501 53.7239 790.725 53.4997 791.001 53.4997H803.585C803.984 53.4997 804.366 53.3411 804.647 53.059L820.155 37.5099C820.355 37.3094 820.682 37.3148 820.875 37.5219L835.338 53.023C835.622 53.3271 836.019 53.4997 836.435 53.4997H849.937C850.213 53.4997 850.437 53.7236 850.437 53.9997V89.021C850.437 89.2971 850.213 89.521 849.937 89.521H791.038C790.762 89.521 790.538 89.2974 790.538 89.0215L790.501 54.0002Z" fill="white" stroke="#333333"/>
<circle cx="820.5" cy="49.5" r="4" fill="#D9F4FF" stroke="#333333"/>
<path d="M821.688 48.7881L820.5 49.5314L820.5 51.7881" stroke="#333333" stroke-linecap="round"/>
<path d="M796.5 59C796.5 58.7239 796.724 58.5 797 58.5H808C808.276 58.5 808.5 58.7239 808.5 59V68C808.5 68.2761 808.276 68.5 808 68.5H797C796.724 68.5 796.5 68.2761 796.5 68V59Z" fill="#D9F4FF" stroke="#333333"/>
<path d="M802.477 58.2617V68.1445" stroke="#333333"/>
<path d="M814.5 59C814.5 58.7239 814.724 58.5 815 58.5H826C826.276 58.5 826.5 58.7239 826.5 59V68C826.5 68.2761 826.276 68.5 826 68.5H815C814.724 68.5 814.5 68.2761 814.5 68V59Z" fill="#D9F4FF" stroke="#333333"/>
<path d="M820.477 58.2617V68.1445" stroke="#333333"/>
<path d="M796.5 74C796.5 73.7239 796.724 73.5 797 73.5H808C808.276 73.5 808.5 73.7239 808.5 74V83C808.5 83.2761 808.276 83.5 808 83.5H797C796.724 83.5 796.5 83.2761 796.5 83V74Z" fill="#D9F4FF" stroke="#333333"/>
<path d="M802.473 73.2612V83.144" stroke="#333333"/>
<path d="M832.5 59C832.5 58.7239 832.724 58.5 833 58.5H844C844.276 58.5 844.5 58.7239 844.5 59V68C844.5 68.2761 844.276 68.5 844 68.5H833C832.724 68.5 832.5 68.2761 832.5 68V59Z" fill="#D9F4FF" stroke="#333333"/>
<path d="M838.477 58.2617V68.1445" stroke="#333333"/>
<path d="M832.5 74C832.5 73.7239 832.724 73.5 833 73.5H846C846.276 73.5 846.5 73.7239 846.5 74V83C846.5 83.2761 846.276 83.5 846 83.5H833C832.724 83.5 832.5 83.2761 832.5 83V74Z" fill="#D9F4FF" stroke="#333333"/>
<path d="M838.473 73.2612V83.144" stroke="#333333"/>
<path d="M814.5 75C814.5 74.7239 814.724 74.5 815 74.5H826C826.276 74.5 826.5 74.7239 826.5 75V86.061C826.5 86.3372 826.276 86.561 826 86.561H815C814.724 86.561 814.5 86.3372 814.5 86.061V75Z" fill="url(#paint14_linear_2652_23933)" stroke="#333333"/>
<path d="M820.477 74.3096V86.0441" stroke="#333333"/>
<path d="M811.5 87C811.5 86.7239 811.724 86.5 812 86.5H829C829.276 86.5 829.5 86.7239 829.5 87V89C829.5 89.2761 829.276 89.5 829 89.5H812C811.724 89.5 811.5 89.2761 811.5 89V87Z" fill="white" stroke="#333333"/>
<rect x="820.5" y="24.5" width="8" height="6" rx="0.5" fill="#FF6F3D" stroke="#333333"/>
<path d="M820.5 23V36.8848" stroke="#333333" stroke-linecap="round"/>
<mask id="path-60-inside-3_2652_23933" fill="white">
<path fill-rule="evenodd" clip-rule="evenodd" d="M885.158 89.9993C885.199 89.9998 885.24 90.0001 885.281 90.0001C890.407 90.0001 894.562 85.845 894.562 80.7195C894.562 75.594 890.407 71.439 885.281 71.439C884.963 71.439 884.648 71.455 884.338 71.4863L884.338 71.439C884.338 68.0403 881.583 65.2851 878.184 65.2851C877.365 65.2851 876.583 65.4453 875.868 65.736C873.998 59.8345 868.476 55.5576 861.956 55.5576C854.387 55.5576 848.164 61.3213 847.436 68.6992C841.975 69.1664 837.688 73.7476 837.688 79.33C837.688 85.223 842.465 90.0001 848.358 90.0001C848.403 90.0001 848.448 89.9998 848.494 89.9993H885.158Z"/>
</mask>
<path fill-rule="evenodd" clip-rule="evenodd" d="M885.158 89.9993C885.199 89.9998 885.24 90.0001 885.281 90.0001C890.407 90.0001 894.562 85.845 894.562 80.7195C894.562 75.594 890.407 71.439 885.281 71.439C884.963 71.439 884.648 71.455 884.338 71.4863L884.338 71.439C884.338 68.0403 881.583 65.2851 878.184 65.2851C877.365 65.2851 876.583 65.4453 875.868 65.736C873.998 59.8345 868.476 55.5576 861.956 55.5576C854.387 55.5576 848.164 61.3213 847.436 68.6992C841.975 69.1664 837.688 73.7476 837.688 79.33C837.688 85.223 842.465 90.0001 848.358 90.0001C848.403 90.0001 848.448 89.9998 848.494 89.9993H885.158Z" fill="url(#paint15_linear_2652_23933)"/>
<path d="M885.158 89.9993V88.9992L885.171 88.9994L885.158 89.9993ZM884.338 71.4863L884.439 72.4813L883.334 72.5928L883.338 71.4826L884.338 71.4863ZM884.338 71.439H885.338L885.338 71.4428L884.338 71.439ZM875.868 65.736L876.244 66.6624L875.242 67.0702L874.915 66.0381L875.868 65.736ZM847.436 68.6992L848.431 68.7973L848.35 69.6247L847.521 69.6956L847.436 68.6992ZM848.494 89.9993L848.481 88.9993H848.494V89.9993ZM885.171 88.9994C885.208 88.9998 885.245 89.0001 885.281 89.0001V91.0001C885.236 91.0001 885.191 90.9998 885.145 90.9992L885.171 88.9994ZM885.281 89.0001C889.854 89.0001 893.562 85.2927 893.562 80.7195H895.562C895.562 86.3973 890.959 91.0001 885.281 91.0001V89.0001ZM893.562 80.7195C893.562 76.1463 889.854 72.439 885.281 72.439V70.439C890.959 70.439 895.562 75.0418 895.562 80.7195H893.562ZM885.281 72.439C884.996 72.439 884.715 72.4533 884.439 72.4813L884.238 70.4914C884.581 70.4567 884.929 70.439 885.281 70.439V72.439ZM883.338 71.4826L883.338 71.4352L885.338 71.4428L885.338 71.4901L883.338 71.4826ZM883.338 71.439C883.338 68.5926 881.031 66.2851 878.184 66.2851V64.2851C882.135 64.2851 885.338 67.488 885.338 71.439H883.338ZM878.184 66.2851C877.496 66.2851 876.842 66.4194 876.244 66.6624L875.491 64.8097C876.324 64.4711 877.234 64.2851 878.184 64.2851V66.2851ZM874.915 66.0381C873.172 60.5402 868.028 56.5576 861.956 56.5576V54.5576C868.925 54.5576 874.823 59.1289 876.821 65.434L874.915 66.0381ZM861.956 56.5576C854.906 56.5576 849.109 61.9261 848.431 68.7973L846.441 68.6011C847.219 60.7164 853.867 54.5576 861.956 54.5576V56.5576ZM847.521 69.6956C842.573 70.1189 838.688 74.2713 838.688 79.33H836.688C836.688 73.2239 841.377 68.2139 847.351 67.7028L847.521 69.6956ZM838.688 79.33C838.688 84.6707 843.017 89.0001 848.358 89.0001V91.0001C841.913 91.0001 836.688 85.7752 836.688 79.33H838.688ZM848.358 89.0001C848.399 89.0001 848.44 88.9999 848.481 88.9994L848.506 90.9992C848.457 90.9998 848.407 91.0001 848.358 91.0001V89.0001ZM848.494 88.9993H885.158V90.9993H848.494V88.9993Z" fill="#444444" mask="url(#path-60-inside-3_2652_23933)"/>
<path d="M852.573 86.8086H850.488V76.8145H856.216V78.5508H852.573V81.1279H855.963V82.8574H852.573V86.8086ZM861.083 76.8145C861.99 76.8145 862.738 76.9238 863.326 77.1426C863.918 77.3613 864.358 77.6917 864.645 78.1338C864.932 78.5758 865.076 79.1341 865.076 79.8086C865.076 80.2643 864.989 80.6631 864.816 81.0049C864.643 81.3467 864.415 81.6361 864.132 81.873C863.85 82.11 863.544 82.3037 863.216 82.4541L866.156 86.8086H863.804L861.418 82.9736H860.29V86.8086H858.171V76.8145H861.083ZM860.933 78.5508H860.29V81.251H860.974C861.676 81.251 862.177 81.1348 862.478 80.9023C862.783 80.6654 862.936 80.319 862.936 79.8633C862.936 79.3893 862.772 79.0521 862.444 78.8516C862.12 78.651 861.617 78.5508 860.933 78.5508ZM873.169 86.8086H867.413V76.8145H873.169V78.5508H869.533V80.7451H872.916V82.4814H869.533V85.0586H873.169V86.8086ZM881.017 86.8086H875.261V76.8145H881.017V78.5508H877.38V80.7451H880.764V82.4814H877.38V85.0586H881.017V86.8086Z" fill="white"/>
<g clip-path="url(#clip0_2652_23933)">
<path d="M49.5 49C49.5 48.1716 50.1716 47.5 51 47.5H101C101.828 47.5 102.5 48.1716 102.5 49V83.5H49.5V49Z" stroke="#333333"/>
<path d="M51.5 50C51.5 49.7239 51.7239 49.5 52 49.5H100C100.276 49.5 100.5 49.7239 100.5 50V80.5H51.5V50Z" fill="white" stroke="#333333"/>
<path fill-rule="evenodd" clip-rule="evenodd" d="M74.8997 74.7787L67.4744 71.0643C66.8419 70.74 66.8419 70.2389 67.4744 69.9441L70.0595 68.647L74.8722 71.0643C75.5048 71.3885 76.5223 71.3885 77.1273 71.0643L81.9401 68.647L84.5252 69.9441C85.1577 70.2683 85.1577 70.7695 84.5252 71.0643L77.0998 74.7787C76.5223 75.0735 75.5048 75.0735 74.8997 74.7787Z" fill="url(#paint16_linear_2652_23933)"/>
<path fill-rule="evenodd" clip-rule="evenodd" d="M74.8757 69.9916L67.473 66.2729C66.8423 65.9483 66.8423 65.4465 67.473 65.1514L69.9954 63.8823L74.8757 66.2729C75.5063 66.5976 76.5207 66.5976 77.1239 66.2729L82.0042 63.8823L84.5266 65.1514C85.1572 65.4761 85.1572 65.9778 84.5266 66.2729L77.1239 69.9916C76.4933 70.3163 75.4789 70.3163 74.8757 69.9916Z" fill="url(#paint17_linear_2652_23933)"/>
<path fill-rule="evenodd" clip-rule="evenodd" d="M74.8757 65.2626L67.473 61.772C66.8423 61.4672 66.8423 60.9963 67.473 60.7192L74.8757 57.2286C75.5063 56.9238 76.5207 56.9238 77.1239 57.2286L84.5267 60.7192C85.1573 61.024 85.1573 61.4949 84.5267 61.772L77.1239 65.2626C76.4933 65.5397 75.4789 65.5397 74.8757 65.2626Z" fill="url(#paint18_linear_2652_23933)"/>
<path d="M109.473 83.5C109.224 85.75 107.316 87.5 105 87.5H47C44.6837 87.5 42.7762 85.75 42.5275 83.5H76H109.473Z" fill="url(#paint19_linear_2652_23933)" stroke="#333333"/>
<rect x="112.488" y="50.4849" width="0.5" height="21.5" fill="white" stroke="#333333" stroke-width="0.5"/>
<path d="M109.857 44.842L103.554 63.0204C103.364 63.4058 102.992 63.6668 102.579 63.6946C89.9001 64.5482 77.8377 58.6154 70.7742 48.0516C70.5604 47.7319 70.5276 47.3174 70.676 46.9512C70.6987 46.895 70.7314 46.8436 70.7675 46.795L81.3995 32.4755C82.198 30.8521 81.1133 29.8618 82.019 31.3564C83.9697 34.5752 85.7709 38.0613 87.6386 41.5341C89.5729 45.2856 93.2838 47.1939 97.4576 46.6131C102.565 45.9422 106.277 44.9516 111.056 44.7814C111.067 44.781 108.514 44.5882 109.857 44.842Z" fill="#9ADAF3" stroke="#333333" stroke-linecap="round" stroke-linejoin="round"/>
<path d="M115.629 72.9569C115.629 73.3779 115.545 73.6172 115.447 73.7598C115.353 73.8961 115.209 73.9985 114.972 74.0713C114.725 74.1471 114.406 74.1815 114.002 74.1928C113.739 74.2002 113.466 74.1977 113.17 74.195C113.007 74.1935 112.837 74.1919 112.658 74.1919C112.477 74.1919 112.307 74.1935 112.145 74.195C111.855 74.1977 111.591 74.2002 111.34 74.1928C110.951 74.1816 110.656 74.1472 110.433 74.0741C110.224 74.0056 110.1 73.9103 110.016 73.7772C109.925 73.6324 109.847 73.3869 109.847 72.9569C109.847 72.0851 110.165 70.8505 110.717 69.8389C111.287 68.7922 111.987 68.1919 112.658 68.1919C112.991 68.1919 113.341 68.3351 113.698 68.6287C114.055 68.9229 114.393 69.3481 114.686 69.8513C115.278 70.866 115.629 72.0962 115.629 72.9569Z" fill="#FF6F3D" stroke="#333333"/>
<path d="M72.3551 27.6218L101.22 33.0784L120.213 51.1L90.2623 47.9641L72.3551 27.6218Z" fill="#D9F4FF" stroke="#333333"/>
<mask id="path-73-inside-4_2652_23933" fill="white">
<path d="M97.8086 39.4556L98.4982 38.7314L112.869 50.0678L112.179 50.7919L97.8086 39.4556Z"/>
</mask>
<path d="M97.8086 39.4556L98.4982 38.7314L112.869 50.0678L112.179 50.7919L97.8086 39.4556Z" fill="white"/>
<path d="M97.8086 39.4556L97.0844 38.7659L96.3274 39.5608L97.1892 40.2407L97.8086 39.4556ZM98.4982 38.7314L99.1176 37.9463L98.4024 37.3821L97.7741 38.0418L98.4982 38.7314ZM112.869 50.0678L113.593 50.7574L114.35 49.9625L113.488 49.2827L112.869 50.0678ZM112.179 50.7919L111.56 51.577L112.275 52.1413L112.903 51.4816L112.179 50.7919ZM98.5327 40.1452L99.2224 39.4211L97.7741 38.0418L97.0844 38.7659L98.5327 40.1452ZM97.8789 39.5165L112.249 50.8529L113.488 49.2827L99.1176 37.9463L97.8789 39.5165ZM112.145 49.3781L111.455 50.1023L112.903 51.4816L113.593 50.7574L112.145 49.3781ZM112.798 50.0068L98.4279 38.6705L97.1892 40.2407L111.56 51.577L112.798 50.0068Z" fill="#333333" mask="url(#path-73-inside-4_2652_23933)"/>
</g>
<path fill-rule="evenodd" clip-rule="evenodd" d="M673.405 32.5624C673.153 32.922 673.016 33.4423 673.016 34.0244V76.148C673.016 77.2821 673.732 78.0001 674.393 78.0001H676.516C676.793 78.0001 677.016 78.2239 677.016 78.5001C677.016 78.7762 676.793 79.0001 676.516 79.0001H674.393C672.981 79.0001 672.016 77.6119 672.016 76.148V34.0244C672.016 33.3074 672.181 32.5656 672.587 31.9877C673.008 31.3885 673.666 31 674.546 31H676.516C676.793 31 677.016 31.2239 677.016 31.5C677.016 31.7761 676.793 32 676.516 32H674.546C673.999 32 673.643 32.2242 673.405 32.5624Z" fill="#333333"/>
<path fill-rule="evenodd" clip-rule="evenodd" d="M667.389 32.5624C667.137 32.922 667 33.4423 667 34.0244V76.1479C667 77.282 667.716 78 668.377 78H670.5C670.776 78 671 78.2239 671 78.5C671 78.7761 670.776 79 670.5 79H668.377C666.965 79 666 77.6118 666 76.1479V34.0244C666 33.3074 666.165 32.5656 666.571 31.9877C666.991 31.3885 667.65 31 668.53 31H670.5C670.776 31 671 31.2239 671 31.5C671 31.7761 670.776 32 670.5 32H668.53C667.983 32 667.627 32.2242 667.389 32.5624Z" fill="#333333"/>
<path fill-rule="evenodd" clip-rule="evenodd" d="M680.345 31C679.048 31 677.997 32.0421 677.997 33.3276V76.6724C677.997 77.9579 679.048 79 680.345 79H711.649C712.946 79 713.997 77.9579 713.997 76.6724V42.5C713.997 41.8827 713.75 41.2907 713.309 40.8541L704.12 31.6817C703.679 31.2452 703.082 31 702.459 31H680.345Z" fill="white"/>
<path d="M703.354 31.6464C703.211 31.5034 702.995 31.4607 702.809 31.5381C702.622 31.6154 702.5 31.7978 702.5 32V40.182C702.5 40.8578 702.664 41.4574 703.073 41.8877C703.487 42.3225 704.072 42.5001 704.732 42.5001H713C713.202 42.5001 713.385 42.3783 713.462 42.1915C713.539 42.0046 713.497 41.7896 713.354 41.6466L703.354 31.6464Z" fill="url(#paint20_linear_2652_23933)" stroke="#333333" stroke-linecap="round" stroke-linejoin="round"/>
<path fill-rule="evenodd" clip-rule="evenodd" d="M712.605 41.5643L712.603 41.5619L703.415 32.3919L703.414 32.3906C703.362 32.3384 703.312 32.2887 703.27 32.2456L703.254 32.2295C703.206 32.1807 703.168 32.1426 703.134 32.1091C703.063 32.0411 703.033 32.018 703.02 32.0095C703.009 32.007 702.972 32 702.892 32H680.345C679.592 32 678.997 32.6025 678.997 33.3276V76.6724C678.997 77.3975 679.592 78 680.345 78H711.649C712.402 78 712.997 77.3975 712.997 76.6724V42.1093C712.997 42.0214 712.988 41.9827 712.985 41.9724C712.984 41.9666 712.983 41.9644 712.977 41.9542C712.966 41.9373 712.941 41.9031 712.876 41.8351C712.826 41.7819 712.773 41.7298 712.702 41.6592C712.673 41.631 712.641 41.5998 712.605 41.5643ZM704.12 31.6817L713.309 40.8541C713.338 40.8821 713.365 40.9091 713.392 40.9353C713.78 41.3182 713.997 41.5316 713.997 42.1093V76.6724C713.997 77.9579 712.946 79 711.649 79H680.345C679.048 79 677.997 77.9579 677.997 76.6724V33.3276C677.997 32.0421 679.048 31 680.345 31H702.892C703.446 31 703.637 31.1939 703.982 31.5436C704.025 31.5873 704.071 31.6333 704.12 31.6817Z" fill="#333333"/>
<rect x="658.5" y="61.5" width="37" height="18" rx="1.5" fill="url(#paint21_linear_2652_23933)" stroke="#333333"/>
<path d="M664.921 75H663V66H668.277V67.5636H664.921V69.8844H668.044V71.4419H664.921V75Z" fill="white"/>
<path d="M672.031 69.9952H672.66C673.278 69.9952 673.733 69.8947 674.027 69.6936C674.321 69.4925 674.468 69.1765 674.468 68.7456C674.468 68.3187 674.317 68.015 674.014 67.8345C673.716 67.6539 673.252 67.5636 672.623 67.5636H672.031V69.9952ZM672.031 71.5465V75H670.078V66H672.761C674.012 66 674.938 66.2237 675.538 66.671C676.139 67.1142 676.439 67.7893 676.439 68.6963C676.439 69.2257 676.29 69.6977 675.992 70.1122C675.694 70.5226 675.272 70.8447 674.726 71.0787C676.112 73.1019 677.014 74.409 677.434 75H675.268L673.07 71.5465H672.031Z" fill="white"/>
<path d="M683.895 75H678.593V66H683.895V67.5636H680.545V69.5397H683.662V71.1033H680.545V73.4241H683.895V75Z" fill="white"/>
<path d="M691.125 75H685.822V66H691.125V67.5636H687.775V69.5397H690.892V71.1033H687.775V73.4241H691.125V75Z" fill="white"/>
<defs>
<linearGradient id="paint0_linear_2652_23933" x1="192" y1="50.3988" x2="195.872" y2="61.7985" gradientUnits="userSpaceOnUse">
<stop stop-color="#FFC671"/>
<stop offset="0.59375" stop-color="#FF7541"/>
<stop offset="1" stop-color="#FF6F3D"/>
</linearGradient>
<linearGradient id="paint1_linear_2652_23933" x1="192" y1="45.6342" x2="195.872" y2="57.0338" gradientUnits="userSpaceOnUse">
<stop stop-color="#FFC671"/>
<stop offset="0.59375" stop-color="#FF7541"/>
<stop offset="1" stop-color="#FF6F3D"/>
</linearGradient>
<linearGradient id="paint2_linear_2652_23933" x1="192" y1="38.6691" x2="198.371" y2="52.7369" gradientUnits="userSpaceOnUse">
<stop stop-color="#FFC671"/>
<stop offset="0.59375" stop-color="#FF7541"/>
<stop offset="1" stop-color="#FF6F3D"/>
</linearGradient>
<linearGradient id="paint3_linear_2652_23933" x1="219.001" y1="63.966" x2="221.367" y2="70.9324" gradientUnits="userSpaceOnUse">
<stop stop-color="#FFC671"/>
<stop offset="0.59375" stop-color="#FF7541"/>
<stop offset="1" stop-color="#FF6F3D"/>
</linearGradient>
<linearGradient id="paint4_linear_2652_23933" x1="219.001" y1="61.0544" x2="221.367" y2="68.0208" gradientUnits="userSpaceOnUse">
<stop stop-color="#FFC671"/>
<stop offset="0.59375" stop-color="#FF7541"/>
<stop offset="1" stop-color="#FF6F3D"/>
</linearGradient>
<linearGradient id="paint5_linear_2652_23933" x1="219.001" y1="56.7978" x2="222.894" y2="65.3947" gradientUnits="userSpaceOnUse">
<stop stop-color="#FFC671"/>
<stop offset="0.59375" stop-color="#FF7541"/>
<stop offset="1" stop-color="#FF6F3D"/>
</linearGradient>
<linearGradient id="paint6_linear_2652_23933" x1="272" y1="53.9818" x2="290.691" y2="98.261" gradientUnits="userSpaceOnUse">
<stop stop-color="#FFC671"/>
<stop offset="0.59375" stop-color="#FF7541"/>
<stop offset="1" stop-color="#FF6F3D"/>
</linearGradient>
<linearGradient id="paint7_linear_2652_23933" x1="325" y1="55.9375" x2="301.591" y2="26.5468" gradientUnits="userSpaceOnUse">
<stop stop-color="#FFC671"/>
<stop offset="0.59375" stop-color="#FF7541"/>
<stop offset="1" stop-color="#FF6F3D"/>
</linearGradient>
<linearGradient id="paint8_linear_2652_23933" x1="402.003" y1="52.9062" x2="430.003" y2="81.9873" gradientUnits="userSpaceOnUse">
<stop stop-color="#FFC671"/>
<stop offset="0.59375" stop-color="#FF7541"/>
<stop offset="1" stop-color="#FF6F3D"/>
</linearGradient>
<linearGradient id="paint9_linear_2652_23933" x1="513" y1="31.6094" x2="523" y2="42" gradientUnits="userSpaceOnUse">
<stop stop-color="#FFC671"/>
<stop offset="0.59375" stop-color="#FF7541"/>
<stop offset="1" stop-color="#FF6F3D"/>
</linearGradient>
<linearGradient id="paint10_linear_2652_23933" x1="468" y1="51.3359" x2="478.915" y2="81.3983" gradientUnits="userSpaceOnUse">
<stop stop-color="#FFC671"/>
<stop offset="0.59375" stop-color="#FF7541"/>
<stop offset="1" stop-color="#FF6F3D"/>
</linearGradient>
<linearGradient id="paint11_linear_2652_23933" x1="611.003" y1="55.6452" x2="588.005" y2="55.6452" gradientUnits="userSpaceOnUse">
<stop stop-color="#FF6F3D"/>
<stop offset="1" stop-color="#FF8E3D"/>
</linearGradient>
<linearGradient id="paint12_linear_2652_23933" x1="598.003" y1="55.6454" x2="574.003" y2="55.6454" gradientUnits="userSpaceOnUse">
<stop stop-color="#FF6F3D"/>
<stop offset="1" stop-color="#FF8E3D"/>
</linearGradient>
<linearGradient id="paint13_linear_2652_23933" x1="787" y1="42.5703" x2="790.394" y2="64.0502" gradientUnits="userSpaceOnUse">
<stop stop-color="#FF8E3D"/>
<stop offset="1" stop-color="#FF6F3D"/>
</linearGradient>
<linearGradient id="paint14_linear_2652_23933" x1="814" y1="73.4898" x2="827.063" y2="86.9999" gradientUnits="userSpaceOnUse">
<stop stop-color="#FF8E3D"/>
<stop offset="1" stop-color="#FF6F3D"/>
</linearGradient>
<linearGradient id="paint15_linear_2652_23933" x1="894.562" y1="54.2122" x2="864.571" y2="105.669" gradientUnits="userSpaceOnUse">
<stop stop-color="#FF8E3D"/>
<stop offset="1" stop-color="#FF6F3D"/>
</linearGradient>
<linearGradient id="paint16_linear_2652_23933" x1="67" y1="68.3988" x2="70.8722" y2="79.7985" gradientUnits="userSpaceOnUse">
<stop stop-color="#FFC671"/>
<stop offset="0.59375" stop-color="#FF7541"/>
<stop offset="1" stop-color="#FF6F3D"/>
</linearGradient>
<linearGradient id="paint17_linear_2652_23933" x1="67" y1="63.6342" x2="70.8722" y2="75.0338" gradientUnits="userSpaceOnUse">
<stop stop-color="#FFC671"/>
<stop offset="0.59375" stop-color="#FF7541"/>
<stop offset="1" stop-color="#FF6F3D"/>
</linearGradient>
<linearGradient id="paint18_linear_2652_23933" x1="67" y1="56.6691" x2="73.3713" y2="70.7369" gradientUnits="userSpaceOnUse">
<stop stop-color="#FFC671"/>
<stop offset="0.59375" stop-color="#FF7541"/>
<stop offset="1" stop-color="#FF6F3D"/>
</linearGradient>
<linearGradient id="paint19_linear_2652_23933" x1="42.0001" y1="82.8047" x2="42.7048" y2="92.7622" gradientUnits="userSpaceOnUse">
<stop stop-color="#FF8E3D"/>
<stop offset="1" stop-color="#FF6F3D"/>
</linearGradient>
<linearGradient id="paint20_linear_2652_23933" x1="703" y1="31.6094" x2="713" y2="42" gradientUnits="userSpaceOnUse">
<stop stop-color="#FFC671"/>
<stop offset="0.59375" stop-color="#FF7541"/>
<stop offset="1" stop-color="#FF6F3D"/>
</linearGradient>
<linearGradient id="paint21_linear_2652_23933" x1="659" y1="61.3359" x2="671.816" y2="89.5363" gradientUnits="userSpaceOnUse">
<stop stop-color="#FF8E3D"/>
<stop offset="1" stop-color="#FF6F3D"/>
</linearGradient>
<clipPath id="clip0_2652_23933">
<rect width="120" height="64" fill="white" transform="translate(20 24)"/>
</clipPath>
</defs>
</svg>
