<svg width="64" height="64" viewBox="0 0 64 64" fill="none" xmlns="http://www.w3.org/2000/svg">
<g clip-path="url(#clip0_6446_179043)">
<path fill-rule="evenodd" clip-rule="evenodd" d="M3.96071 34.4694L3.96406 34.4758C4.09846 35.1999 3.25976 35.2861 3.07838 34.9401C2.4221 33.7309 2.05317 32.3824 2.00122 31.0026C2.00122 27.8683 4.58429 23.1276 8.45896 23.1276C9.92007 23.1475 11.324 23.7074 12.4086 24.7026C13.0148 25.2874 13.7918 25.656 14.6223 25.7526C14.8936 24.8469 14.8548 21.592 13.0389 14.2025C12.5967 12.3872 13.6864 10.5513 15.4727 10.1018C15.737 10.0353 16.0084 10.002 16.2807 10.0026H27.8582C28.8812 10.0017 29.8018 10.6338 30.183 11.5986C30.5733 12.578 30.3346 13.7003 29.5811 14.4283C28.5605 15.2862 27.9312 16.5322 27.84 17.875C27.84 20.0459 30.6478 20.4999 33.0063 20.4999C35.3648 20.4999 38.1726 20.0458 38.1726 17.875C38.0796 16.5296 37.4463 15.2824 36.4212 14.4257C35.6677 13.6976 35.4291 12.5754 35.8193 11.596C36.2005 10.6312 37.1211 9.99927 38.1441 10H49.7216C51.562 9.99595 53.0571 11.5087 53.0611 13.3789C53.0617 13.6556 53.0289 13.9313 52.9635 14.2C51.1554 21.5788 51.1089 24.8338 51.3801 25.75C52.2106 25.6534 52.9876 25.2849 53.5939 24.7C54.6784 23.7048 56.0824 23.145 57.5435 23.125C61.4181 23.125 64.0012 27.8658 64.0012 31C64.0012 34.1342 61.4181 38.875 57.5435 38.875C56.0824 38.855 54.6784 38.2952 53.5939 37.3C52.9876 36.7151 52.2106 36.3466 51.3801 36.25C51.1089 37.1557 51.1476 40.4106 52.9635 47.8C53.0801 48.2808 53.0895 48.7628 53.007 49.2201C52.9083 49.835 52.6364 50.3857 52.2453 50.8315C51.8096 51.343 51.2194 51.7273 50.5238 51.9016C50.2604 51.9675 49.9903 52.0006 49.7191 52V51.9991C49.6895 51.9997 49.6598 52.0001 49.6301 52H38.0526C37.0295 52.0007 36.1089 51.3688 35.7278 50.404C35.3375 49.4246 35.5762 48.3024 36.3297 47.5743C37.3548 46.7176 37.988 45.4704 38.081 44.125C38.081 42.3053 36.0658 41.8345 34.5993 41.4919C34.5369 41.4774 34.4755 41.463 34.4153 41.4488C34.4153 41.4488 33.2145 41.3332 33.8594 40.5156C34.5 40.3594 35.689 40.6588 36.7425 41.0656C37.3362 41.2949 37.9209 41.6338 38.3626 42.1459C38.8211 42.6773 39.081 43.3451 39.081 44.125V44.1595L39.0786 44.194C38.968 45.7939 38.2204 47.2823 37.0032 48.3144C36.5607 48.7589 36.4192 49.4378 36.6567 50.0338L36.6578 50.0365C36.8909 50.6264 37.4471 51.0004 38.0518 51H49.6323C50.305 51.0015 50.9411 50.7338 51.3919 50.2844C51.7297 49.9318 51.9573 49.4766 52.0333 48.9814C52.0442 48.8925 52.0499 48.8016 52.0501 48.7089C52.0502 48.6524 52.0538 48.601 52.0605 48.5545C52.0563 48.3837 52.034 48.2106 51.992 48.0372C51.0774 44.315 50.604 41.6092 50.3951 39.7025C50.1919 37.8478 50.2232 36.6275 50.4221 35.9631L50.6627 35.1599L51.4956 35.2567C52.5411 35.3783 53.517 35.8405 54.2782 36.5708C55.1804 37.3949 56.3429 37.8568 57.5502 37.875C59.0451 37.8722 60.391 36.9558 61.4125 35.5303C62.4365 34.1014 63.0012 32.3329 63.0012 31C63.0012 29.6671 62.4365 27.8986 61.4125 26.4697C60.391 25.0442 59.0451 24.1278 57.5502 24.125C56.3429 24.1432 55.1804 24.6051 54.2782 25.4292C53.517 26.1595 52.5411 26.6217 51.4956 26.7433L50.66 26.8405L50.4212 26.0338C50.2234 25.3655 50.1938 24.1441 50.398 22.289C50.6079 20.3826 51.0813 17.6796 51.9921 13.9627C52.0383 13.7724 52.0615 13.577 52.0611 13.381C52.0583 12.0479 50.9968 10.9972 49.7238 11L38.1434 11C37.5386 10.9996 36.9824 11.3736 36.7494 11.9635L36.7483 11.9662C36.5108 12.5622 36.6522 13.2411 37.0948 13.6856C38.3119 14.7177 39.0596 16.2061 39.1702 17.806L39.1726 17.8405V17.875C39.1726 18.6549 38.9126 19.3227 38.4542 19.8541C38.0124 20.3662 37.4278 20.7051 36.8341 20.9344C35.6619 21.387 34.2208 21.4999 33.0063 21.4999C31.7919 21.4999 30.3507 21.387 29.1785 20.9344C28.5848 20.7052 28.0002 20.3663 27.5584 19.8542C27.1 19.3228 26.84 18.6549 26.84 17.875V17.8411L26.8423 17.8072C26.9508 16.2099 27.6942 14.7226 28.9067 13.689C29.3499 13.2447 29.4917 12.5652 29.254 11.9688L29.253 11.9661C29.0199 11.3761 28.4628 11.0021 27.8582 11.0026L16.2807 11.0026L16.2784 11.0026C16.0893 11.0022 15.9006 11.0253 15.7165 11.0716C14.4762 11.3838 13.6957 12.6706 14.0102 13.9646C14.925 17.6872 15.3984 20.3932 15.6074 22.3001C15.8106 24.1548 15.7793 25.3751 15.5803 26.0395L15.3397 26.8427L14.5068 26.7459C13.4614 26.6243 12.4854 26.1621 11.7242 25.4318C10.822 24.6077 9.65955 24.1458 8.45226 24.1276C6.95733 24.1303 5.61145 25.0468 4.58992 26.4723C3.57064 27.8946 3.00643 29.6534 3.00126 30.9842C3.05012 32.2041 3.3777 33.3952 3.95728 34.4631L3.96071 34.4694Z" fill="#333333"/>
<rect x="6.5" y="30.5" width="25" height="23" rx="2.5" fill="url(#paint0_linear_6446_179043)"/>
<rect x="6.5" y="30.5" width="25" height="23" rx="2.5" stroke="#333333"/>
<path d="M13 46.9688V44M20 46.9688V39.4375C20 37.625 18.8877 36 16.4907 36C14.0938 36 13 37.75 13 39.4375V44M13 44H20M24 36.1713V46.9688" stroke="white" stroke-width="2" stroke-linecap="round" stroke-linejoin="round"/>
</g>
<defs>
<linearGradient id="paint0_linear_6446_179043" x1="6.00005" y1="29.0625" x2="29.8504" y2="55.9097" gradientUnits="userSpaceOnUse">
<stop stop-color="#FF8E3D"/>
<stop offset="1" stop-color="#FF6F3D"/>
</linearGradient>
<clipPath id="clip0_6446_179043">
<rect width="64" height="64" fill="white"/>
</clipPath>
</defs>
</svg>
