<svg width="64" height="64" viewBox="0 0 64 64" fill="none" xmlns="http://www.w3.org/2000/svg">
<path d="M58.9036 11.5H5.09639C3.66045 11.5 2.5 12.6684 2.5 14.1053V49.8947C2.5 51.3316 3.66045 52.5 5.09639 52.5H58.9036C60.3396 52.5 61.5 51.3316 61.5 49.8947V14.1053C61.5 12.6684 60.3396 11.5 58.9036 11.5Z" fill="#9ADAF3" stroke="#333333"/>
<path d="M49 52.4999H49.5V51.9999V28.9999C49.5 27.6192 48.3807 26.4999 47 26.4999H18C16.6193 26.4999 15.5 27.6192 15.5 28.9999V51.9999V52.4999H16H49Z" fill="white" stroke="#333333"/>
<line x1="4" y1="20.4999" x2="58" y2="20.4999" stroke="#333333"/>
<line x1="22.5" y1="14" x2="22.5" y2="18" stroke="#333333"/>
<line x1="42.5" y1="14.9999" x2="42.5" y2="18.9999" stroke="#333333"/>
<rect x="4.5" y="14.4999" width="18" height="5" fill="white" stroke="#333333"/>
</svg>
