<svg width="64" height="64" viewBox="0 0 64 64" fill="none" xmlns="http://www.w3.org/2000/svg">
<rect x="34.5" y="5.5" width="24" height="25" rx="2.5" stroke="#333333"/>
<rect x="38.5" y="9.5" width="16" height="3" rx="0.5" fill="#D9F4FF" stroke="#333333"/>
<rect x="38.5" y="38.5" width="16" height="3" rx="0.5" fill="#D9F4FF" stroke="#333333"/>
<rect x="9.5" y="9.5" width="16" height="3" rx="0.5" fill="#D9F4FF" stroke="#333333"/>
<rect x="9.5" y="38.5" width="16" height="3" rx="0.5" fill="#D9F4FF" stroke="#333333"/>
<path d="M44.2472 45.2442L51.1678 48.993C51.5139 49.1804 51.5177 49.6758 51.1745 49.8686L44.2947 53.7325L44.5395 54.1685L44.2947 53.7325C43.9624 53.9191 43.5519 53.6803 43.5498 53.2992L43.509 45.6865C43.507 45.3065 43.913 45.0632 44.2472 45.2442Z" fill="url(#paint0_linear_6446_179172)" stroke="#333333" stroke-linecap="round" stroke-linejoin="round"/>
<rect x="34.5" y="34.5" width="24" height="24" rx="2.5" stroke="#333333"/>
<rect x="5.5" y="5.5" width="24" height="24" rx="2.5" stroke="#333333"/>
<rect x="5.5" y="34.5" width="24" height="24" rx="2.5" stroke="#333333"/>
<path d="M40.437 23.0901C40.4405 23.083 40.4437 23.0757 40.4469 23.0684C40.5195 22.8969 40.8323 22.4893 41.4197 22.5002C42.0644 22.5122 42.3893 22.84 42.4581 22.9389L44.199 26.5H38.7956L39.4438 25.1535L40.437 23.0901Z" stroke="#333333" stroke-linecap="round" stroke-linejoin="round"/>
<path d="M46.779 19.3361C46.7828 19.3272 46.7863 19.3182 46.7895 19.3091C46.8639 19.0998 47.0529 18.7565 47.3601 18.4755C47.6586 18.2024 48.0543 17.9993 48.5681 18.0107C49.6812 18.0355 50.2854 18.7427 50.4299 19.0317L50.4305 19.0328L54.1886 26.5H43.7539L46.779 19.3361Z" stroke="#333333" stroke-linecap="round" stroke-linejoin="round"/>
<circle cx="40" cy="18" r="1.5" fill="url(#paint1_linear_6446_179172)" stroke="#333333"/>
<circle cx="14.5" cy="23.5" r="3" fill="url(#paint2_linear_6446_179172)" stroke="#333333"/>
<path fill-rule="evenodd" clip-rule="evenodd" d="M17 17.5C17 16.1193 18.1193 15 19.5 15H23.5C23.7761 15 24 15.2239 24 15.5C24 15.7761 23.7761 16 23.5 16H19.5C18.6716 16 18 16.6716 18 17.5V19H21.7C21.9761 19 22.2 19.2239 22.2 19.5C22.2 19.7761 21.9761 20 21.7 20H18V23.5C18 23.7761 17.7761 24 17.5 24C17.2239 24 17 23.7761 17 23.5V17.5Z" fill="#333333"/>
<path fill-rule="evenodd" clip-rule="evenodd" d="M17.3958 45.5C17.3958 45.2239 17.6197 45 17.8958 45H25.5C25.7761 45 26 45.2239 26 45.5C26 45.7761 25.7761 46 25.5 46H17.8958C17.6197 46 17.3958 45.7761 17.3958 45.5ZM9 48.5186C9 48.2425 9.22386 48.0186 9.5 48.0186H25.5C25.7761 48.0186 26 48.2425 26 48.5186C26 48.7948 25.7761 49.0186 25.5 49.0186H9.5C9.22386 49.0186 9 48.7948 9 48.5186ZM9 51.5932C9 51.317 9.22386 51.0932 9.5 51.0932H17.9272C18.2034 51.0932 18.4272 51.317 18.4272 51.5932C18.4272 51.8693 18.2034 52.0932 17.9272 52.0932H9.5C9.22386 52.0932 9 51.8693 9 51.5932ZM9 54.5C9 54.2239 9.22386 54 9.5 54H16.2189C16.495 54 16.7189 54.2239 16.7189 54.5C16.7189 54.7761 16.495 55 16.2189 55H9.5C9.22386 55 9 54.7761 9 54.5ZM18.2814 54.5C18.2814 54.2239 18.5053 54 18.7814 54H25.5C25.7761 54 26 54.2239 26 54.5C26 54.7761 25.7761 55 25.5 55H18.7814C18.5053 55 18.2814 54.7761 18.2814 54.5Z" fill="#333333"/>
<path fill-rule="evenodd" clip-rule="evenodd" d="M9.5 45C9.22386 45 9 45.2239 9 45.5C9 45.7761 9.22386 46 9.5 46H15.5C15.7761 46 16 45.7761 16 45.5C16 45.2239 15.7761 45 15.5 45H9.5ZM20.5 51C20.2239 51 20 51.2239 20 51.5C20 51.7761 20.2239 52 20.5 52H25.5C25.7761 52 26 51.7761 26 51.5C26 51.2239 25.7761 51 25.5 51H20.5Z" fill="#FF6F3D"/>
<defs>
<linearGradient id="paint0_linear_6446_179172" x1="43" y1="43.5703" x2="53.9902" y2="53.9517" gradientUnits="userSpaceOnUse">
<stop stop-color="#FF8E3D"/>
<stop offset="1" stop-color="#FF6F3D"/>
</linearGradient>
<linearGradient id="paint1_linear_6446_179172" x1="38" y1="15.8437" x2="42" y2="20" gradientUnits="userSpaceOnUse">
<stop stop-color="#FF8E3D"/>
<stop offset="1" stop-color="#FF6F3D"/>
</linearGradient>
<linearGradient id="paint2_linear_6446_179172" x1="11" y1="19.7266" x2="18" y2="27" gradientUnits="userSpaceOnUse">
<stop stop-color="#FF8E3D"/>
<stop offset="1" stop-color="#FF6F3D"/>
</linearGradient>
</defs>
</svg>
