<svg width="64" height="64" viewBox="0 0 64 64" fill="none" xmlns="http://www.w3.org/2000/svg">
<path d="M48 50.5H23C21.6193 50.5 20.5 49.3807 20.5 48V12C20.5 11.1716 21.1716 10.5 22 10.5H40.7929L49.5 19.2071V49C49.5 49.8284 48.8284 50.5 48 50.5Z" stroke="#333333"/>
<path d="M45.5 53.5V53.5C45.5 54.6046 44.6046 55.5 43.5 55.5H18.5C16.8431 55.5 15.5 54.1569 15.5 52.5V16.5C15.5 15.3954 16.3954 14.5 17.5 14.5H17.75" stroke="#333333" stroke-linecap="round"/>
<path d="M41.5 17.3637V11.2071L48.7929 18.5H42.5584C42.1278 18.5 41.8899 18.3864 41.754 18.2437C41.6138 18.0965 41.5 17.8326 41.5 17.3637Z" fill="url(#paint0_linear_6446_179325)" stroke="#333333" stroke-linecap="round" stroke-linejoin="round"/>
<path d="M8.5 33.5L5.61325 38.5H11.3868L8.5 33.5ZM56 41.8125C56 41.5364 55.7761 41.3125 55.5 41.3125C55.2239 41.3125 55 41.5364 55 41.8125H56ZM52.5 61H11.5V62H52.5V61ZM9 58.5V38H8V58.5H9ZM55 41.8125V58.5H56V41.8125H55ZM11.5 61C10.1193 61 9 59.8807 9 58.5H8C8 60.433 9.567 62 11.5 62V61ZM52.5 62C54.433 62 56 60.433 56 58.5H55C55 59.8807 53.8807 61 52.5 61V62Z" fill="#333333"/>
<path d="M55.5 33.5L58.3868 28.5L52.6132 28.5L55.5 33.5ZM8 25.1875C8 25.4636 8.22385 25.6875 8.5 25.6875C8.77614 25.6875 9 25.4636 9 25.1875L8 25.1875ZM11.5 6L52.5 6L52.5 5L11.5 5L11.5 6ZM55 8.5L55 29L56 29L56 8.5L55 8.5ZM9 25.1875L9 8.5L8 8.5L8 25.1875L9 25.1875ZM52.5 6C53.8807 6 55 7.11929 55 8.5L56 8.5C56 6.56701 54.433 5 52.5 5L52.5 6ZM11.5 5C9.567 5 8 6.567 8 8.5L9 8.5C9 7.11929 10.1193 6 11.5 6L11.5 5Z" fill="#333333"/>
<rect x="25.5" y="25.5" width="19" height="4" rx="0.5" fill="#D9F4FF" stroke="#333333"/>
<rect x="25.5" y="29.5" width="19" height="4" fill="#D9F4FF" stroke="#333333"/>
<rect x="25.5" y="33.5" width="19" height="4" rx="0.5" fill="#D9F4FF" stroke="#333333"/>
<circle cx="8.5" cy="29.5" r="1.5" fill="url(#paint1_linear_6446_179325)"/>
<circle cx="55.5" cy="37.5" r="1.5" fill="url(#paint2_linear_6446_179325)"/>
<defs>
<linearGradient id="paint0_linear_6446_179325" x1="41" y1="9.64844" x2="50" y2="19" gradientUnits="userSpaceOnUse">
<stop stop-color="#FFC671"/>
<stop offset="0.59375" stop-color="#FF7541"/>
<stop offset="1" stop-color="#FF6F3D"/>
</linearGradient>
<linearGradient id="paint1_linear_6446_179325" x1="7.00001" y1="27.8828" x2="10" y2="31" gradientUnits="userSpaceOnUse">
<stop stop-color="#FF8E3D"/>
<stop offset="1" stop-color="#FF6F3D"/>
</linearGradient>
<linearGradient id="paint2_linear_6446_179325" x1="54" y1="35.8828" x2="57" y2="39" gradientUnits="userSpaceOnUse">
<stop stop-color="#FF8E3D"/>
<stop offset="1" stop-color="#FF6F3D"/>
</linearGradient>
</defs>
</svg>
