<svg width="64" height="64" viewBox="0 0 64 64" fill="none" xmlns="http://www.w3.org/2000/svg">
<path fill-rule="evenodd" clip-rule="evenodd" d="M15.4054 9.56235C15.1529 9.92197 15.0164 10.4423 15.0164 11.0244V53.148C15.0164 54.2821 15.7322 55 16.393 55H18.5164C18.7925 55 19.0164 55.2239 19.0164 55.5C19.0164 55.7762 18.7925 56 18.5164 56H16.393C14.981 56 14.0164 54.6119 14.0164 53.148V11.0244C14.0164 10.3074 14.1813 9.56553 14.587 8.98771C15.0078 8.38849 15.6665 7.99997 16.5464 7.99997H18.5164C18.7925 7.99997 19.0164 8.22383 19.0164 8.49997C19.0164 8.77611 18.7925 8.99997 18.5164 8.99997H16.5464C15.9992 8.99997 15.6429 9.22413 15.4054 9.56235Z" fill="#333333"/>
<path fill-rule="evenodd" clip-rule="evenodd" d="M9.38905 9.56235C9.13655 9.92197 9 10.4423 9 11.0244V53.1479C9 54.282 9.71578 55 10.3766 55H12.5C12.7761 55 13 55.2238 13 55.5C13 55.7761 12.7761 56 12.5 56H10.3766C8.96462 56 8 54.6118 8 53.1479V11.0244C8 10.3074 8.16493 9.56553 8.57065 8.98771C8.99139 8.38849 9.65013 7.99997 10.53 7.99997H12.5C12.7761 7.99997 13 8.22383 13 8.49997C13 8.77611 12.7761 8.99997 12.5 8.99997H10.53C9.98278 8.99997 9.62654 9.22413 9.38905 9.56235Z" fill="#333333"/>
<path d="M45.3536 8.64642C45.2106 8.50342 44.9955 8.46064 44.8087 8.53803C44.6218 8.61542 44.5 8.79774 44.5 8.99997V17.1819C44.5 17.8577 44.6636 18.4574 45.0734 18.8877C45.4874 19.3225 46.072 19.5001 46.7316 19.5001H55C55.2022 19.5001 55.3845 19.3783 55.4619 19.1915C55.5393 19.0046 55.4966 18.7896 55.3536 18.6466L45.3536 8.64642Z" fill="url(#paint0_linear_6446_179056)" stroke="#333333" stroke-linecap="round" stroke-linejoin="round"/>
<path fill-rule="evenodd" clip-rule="evenodd" d="M54.6054 18.5643L54.603 18.5619L45.4155 9.39187L45.4142 9.3906C45.3615 9.33838 45.3125 9.28862 45.27 9.24558L45.2542 9.22952C45.2059 9.18065 45.1681 9.14258 45.1336 9.10907C45.0634 9.0411 45.0327 9.01794 45.02 9.00948C45.0094 9.00701 44.9724 8.99997 44.8923 8.99997H22.3449C21.5923 8.99997 20.9971 9.6025 20.9971 10.3276V53.6724C20.9971 54.3974 21.5923 55 22.3449 55H53.6492C54.4018 55 54.9971 54.3974 54.9971 53.6724V19.1093C54.9971 19.0214 54.9882 18.9827 54.9855 18.9723C54.9839 18.9666 54.9834 18.9644 54.9768 18.9541C54.966 18.9373 54.9408 18.9031 54.8764 18.835C54.826 18.7818 54.7731 18.7297 54.7015 18.6592C54.6728 18.6309 54.6411 18.5997 54.6054 18.5643ZM46.1195 8.6817L55.3094 17.8541C55.3376 17.8821 55.365 17.9091 55.3916 17.9353C55.7804 18.3181 55.9971 18.5315 55.9971 19.1093V53.6724C55.9971 54.9579 54.9459 56 53.6492 56H22.3449C21.0482 56 19.9971 54.9579 19.9971 53.6724V10.3276C19.9971 9.04207 21.0482 7.99997 22.3449 7.99997H44.8923C45.4459 7.99997 45.6371 8.19382 45.9822 8.54361C46.0253 8.58724 46.0707 8.63329 46.1195 8.6817Z" fill="#333333"/>
<rect x="25.5" y="24.5" width="25" height="5" rx="0.5" fill="#D9F4FF" stroke="#333333"/>
<path fill-rule="evenodd" clip-rule="evenodd" d="M38.1054 35.4706C38.1054 35.1944 38.3293 34.9706 38.6054 34.9706H50.2353C50.5114 34.9706 50.7353 35.1944 50.7353 35.4706C50.7353 35.7467 50.5114 35.9706 50.2353 35.9706H38.6054C38.3293 35.9706 38.1054 35.7467 38.1054 35.4706ZM25.2647 40.0873C25.2647 39.8111 25.4886 39.5873 25.7647 39.5873H50.2353C50.5114 39.5873 50.7353 39.8111 50.7353 40.0873C50.7353 40.3634 50.5114 40.5873 50.2353 40.5873H25.7647C25.4886 40.5873 25.2647 40.3634 25.2647 40.0873ZM25.2647 44.7895C25.2647 44.5134 25.4886 44.2895 25.7647 44.2895H38.6534C38.9296 44.2895 39.1534 44.5134 39.1534 44.7895C39.1534 45.0657 38.9296 45.2895 38.6534 45.2895H25.7647C25.4886 45.2895 25.2647 45.0657 25.2647 44.7895ZM25.2647 49.2353C25.2647 48.9591 25.4886 48.7353 25.7647 48.7353H36.0407C36.3168 48.7353 36.5407 48.9591 36.5407 49.2353C36.5407 49.5114 36.3168 49.7353 36.0407 49.7353H25.7647C25.4886 49.7353 25.2647 49.5114 25.2647 49.2353ZM39.4598 49.2353C39.4598 48.9591 39.6836 48.7353 39.9598 48.7353H50.2353C50.5114 48.7353 50.7353 48.9591 50.7353 49.2353C50.7353 49.5114 50.5114 49.7353 50.2353 49.7353H39.9598C39.6836 49.7353 39.4598 49.5114 39.4598 49.2353Z" fill="#333333"/>
<path fill-rule="evenodd" clip-rule="evenodd" d="M25.7647 34.9706C25.4886 34.9706 25.2647 35.1944 25.2647 35.4706C25.2647 35.7467 25.4886 35.9706 25.7647 35.9706H34.9412C35.2173 35.9706 35.4412 35.7467 35.4412 35.4706C35.4412 35.1944 35.2173 34.9706 34.9412 34.9706H25.7647ZM42.5882 44.1471C42.3121 44.1471 42.0882 44.3709 42.0882 44.6471C42.0882 44.9232 42.3121 45.1471 42.5882 45.1471H50.2353C50.5114 45.1471 50.7353 44.9232 50.7353 44.6471C50.7353 44.3709 50.5114 44.1471 50.2353 44.1471H42.5882Z" fill="#FF6F3D"/>
<defs>
<linearGradient id="paint0_linear_6446_179056" x1="45" y1="8.60934" x2="55.0002" y2="19" gradientUnits="userSpaceOnUse">
<stop stop-color="#FFC671"/>
<stop offset="0.59375" stop-color="#FF7541"/>
<stop offset="1" stop-color="#FF6F3D"/>
</linearGradient>
</defs>
</svg>
