<svg width="64" height="64" viewBox="0 0 64 64" fill="none" xmlns="http://www.w3.org/2000/svg">
<path fill-rule="evenodd" clip-rule="evenodd" d="M12.5 20C11.1193 20 10 21.1193 10 22.5V53H56V50H57V54H9V22.5C9 20.567 10.567 19 12.5 19H13.25V20H12.5Z" fill="#333333"/>
<path d="M15.5 9C15.5 7.61929 16.6193 6.5 18 6.5H57C58.3807 6.5 59.5 7.61929 59.5 9V13.5017L59.5 45C59.5 46.3807 58.3807 47.5 57 47.5H18C16.6193 47.5 15.5 46.3807 15.5 45V13.5017V9Z" stroke="#333333"/>
<path d="M5.5 54.2C5.5 56.5748 7.42518 58.5 9.8 58.5H56.2C58.5748 58.5 60.5 56.5748 60.5 54.2C60.5 53.8134 60.1866 53.5 59.8 53.5H6.2C5.8134 53.5 5.5 53.8134 5.5 54.2Z" stroke="#333333"/>
<path d="M50.1553 18.677C49.1886 17.0338 46.8122 17.0338 45.8456 18.677L39.3424 29.7324C38.3621 31.399 39.5637 33.5 41.4973 33.5H54.5036C56.4371 33.5 57.6388 31.399 56.6584 29.7324L50.1553 18.677Z" fill="url(#paint0_linear_6446_179181)" stroke="#333333"/>
<path d="M47.2906 29.7116C47.0969 29.5173 47 29.2827 47 29.0078C47 28.7328 47.0969 28.4992 47.2906 28.307C47.4865 28.1127 47.7229 28.0155 48 28.0155C48.2771 28.0155 48.5125 28.1127 48.7063 28.307C48.9021 28.4992 49 28.7328 49 29.0078C49 29.2827 48.9021 29.5173 48.7063 29.7116C48.5125 29.9039 48.2771 30 48 30C47.7229 30 47.4865 29.9039 47.2906 29.7116ZM47.2906 22.2915C47.4865 22.0972 47.7229 22 48 22C48.2771 22 48.5125 22.0972 48.7063 22.2915C48.9021 22.4837 49 22.7173 49 22.9922C49 23.4305 48.9219 24.0434 48.7656 24.831C48.6094 25.6165 48.4417 26.3266 48.2625 26.9612H47.7375C47.5583 26.3266 47.3906 25.6165 47.2344 24.831C47.0781 24.0434 47 23.4305 47 22.9922C47 22.7173 47.0969 22.4837 47.2906 22.2915Z" fill="white"/>
<path d="M34.7873 36.3295V33.5795C34.7873 32.8095 34.6723 32.0395 34.2123 31.2695C33.7523 30.4995 33.1773 29.8395 32.3723 29.3995C31.5673 28.8495 29.8423 28.7395 29.0373 28.7395L27.1973 30.6095L27.8873 32.0395V35.3395L26.7373 36.5495L25.5873 35.3395V32.0395L26.3923 30.6095L24.4373 28.7395C23.5173 28.7395 21.7923 28.8495 20.9873 29.3995C20.1823 29.8395 19.7223 30.4995 19.2623 31.2695C18.8023 32.0395 18.6873 32.6995 18.6873 33.5795V36.3295C18.6873 36.3295 21.6773 37.5395 26.7373 37.5395C31.7973 37.5395 34.7873 36.3295 34.7873 36.3295ZM26.7373 20.0495C24.5523 20.0495 23.2873 22.0295 23.6323 24.2295C23.9773 26.4295 25.1273 27.9695 26.7373 27.9695C28.3473 27.9695 29.4973 26.4295 29.8423 24.2295C30.1873 21.9195 28.9223 20.0495 26.7373 20.0495Z" fill="#9ADAF3" stroke="#333333"/>
<path d="M39.5006 37.5H55.5006M39.5006 40.5H49.0006" stroke="#333333" stroke-linecap="round" stroke-linejoin="round"/>
<circle cx="20" cy="11" r="1.5" fill="#9ADAF3" stroke="#333333"/>
<circle cx="25" cy="11" r="1.5" fill="#9ADAF3" stroke="#333333"/>
<circle cx="30" cy="11" r="1.5" fill="#9ADAF3" stroke="#333333"/>
<defs>
<linearGradient id="paint0_linear_6446_179181" x1="38.0005" y1="15.3359" x2="54.6755" y2="35.7199" gradientUnits="userSpaceOnUse">
<stop stop-color="#FFC671"/>
<stop offset="0.59375" stop-color="#FF7541"/>
<stop offset="1" stop-color="#FF6F3D"/>
</linearGradient>
</defs>
</svg>
