<svg width="64" height="64" viewBox="0 0 64 64" fill="none" xmlns="http://www.w3.org/2000/svg">
<path d="M58.9036 11.5H5.09639C3.66045 11.5 2.5 12.6684 2.5 14.1053V49.8947C2.5 51.3316 3.66045 52.5 5.09639 52.5H58.9036C60.3396 52.5 61.5 51.3316 61.5 49.8947V14.1053C61.5 12.6684 60.3396 11.5 58.9036 11.5Z" stroke="#333333"/>
<path d="M31.6143 34.3671H25.4066V33.6582C25.9528 33.625 26.4044 33.5584 26.7615 33.4586C27.1257 33.3587 27.3077 33.2356 27.3077 33.0891C27.3077 33.0292 27.3007 32.956 27.2867 32.8695C27.2727 32.783 27.2517 32.7064 27.2237 32.6399L25.9843 29.4649H20.7639C20.5678 29.9308 20.4068 30.3368 20.2807 30.683C20.1617 31.0291 20.0532 31.3486 19.9551 31.6414C19.8641 31.9276 19.8011 32.1606 19.7661 32.3403C19.731 32.52 19.7135 32.6665 19.7135 32.7796C19.7135 33.0459 19.9341 33.2522 20.3753 33.3987C20.8164 33.5451 21.3136 33.6316 21.8668 33.6582V34.3671H16.2578V33.6582C16.4399 33.6449 16.6675 33.6083 16.9406 33.5484C17.2137 33.4819 17.4377 33.3953 17.6128 33.2888C17.8929 33.1091 18.11 32.9227 18.264 32.7297C18.4181 32.53 18.5686 32.2571 18.7157 31.911C19.4649 30.1338 20.2912 28.137 21.1946 25.9205C22.0979 23.704 22.9032 21.7305 23.6104 19.9999H24.4507L29.419 32.2205C29.524 32.4801 29.6431 32.6898 29.7761 32.8495C29.9092 33.0093 30.0947 33.1657 30.3328 33.3188C30.4939 33.412 30.7039 33.4918 30.963 33.5584C31.2221 33.6183 31.4392 33.6516 31.6143 33.6582V34.3671ZM25.6061 28.5763L23.3478 23.085L21.1315 28.5763H25.6061Z" fill="url(#paint0_linear_6523_271266)"/>
<path d="M38.4312 33.0492H38.3576C38.2036 33.169 38.018 33.3221 37.801 33.5085C37.5909 33.6882 37.3423 33.8613 37.0552 34.0277C36.7821 34.1941 36.4845 34.3372 36.1624 34.457C35.8403 34.5834 35.4901 34.6467 35.112 34.6467C34.0966 34.6467 33.2984 34.3006 32.7171 33.6083C32.1429 32.9161 31.8558 31.9709 31.8558 30.7728C31.8558 29.9475 32.0169 29.1454 32.339 28.3666C32.6611 27.5879 33.1058 26.889 33.673 26.2699C34.2122 25.6776 34.8529 25.2016 35.5952 24.8422C36.3374 24.4761 37.1007 24.2931 37.885 24.2931C38.3822 24.2931 38.8548 24.3563 39.303 24.4828C39.7581 24.6092 40.1153 24.7523 40.3744 24.9121L42.2965 24.4428L42.4226 24.5926L40.826 31.0324C40.77 31.2387 40.7105 31.4917 40.6475 31.7912C40.5914 32.0841 40.5634 32.3004 40.5634 32.4402C40.5634 32.8196 40.6475 33.0758 40.8155 33.209C40.9836 33.3421 41.2672 33.4086 41.6663 33.4086C41.7994 33.4086 41.9884 33.3887 42.2335 33.3487C42.4786 33.3088 42.6677 33.2655 42.8007 33.2189L42.6432 33.8579C42.0129 34.0975 41.5438 34.2706 41.2357 34.3771C40.9276 34.4836 40.5529 34.5368 40.1118 34.5368C39.6076 34.5368 39.2085 34.3971 38.9143 34.1175C38.6202 33.838 38.4592 33.4819 38.4312 33.0492ZM39.9332 26.7392C39.9332 26.5195 39.9087 26.3099 39.8597 26.1102C39.8107 25.9105 39.7091 25.7241 39.5551 25.5511C39.415 25.3847 39.2225 25.2516 38.9774 25.1517C38.7323 25.0519 38.4242 25.002 38.053 25.002C37.5419 25.002 37.0447 25.1617 36.5615 25.4812C36.0783 25.8007 35.6442 26.23 35.2591 26.7692C34.8949 27.275 34.5973 27.8874 34.3662 28.6062C34.1352 29.3251 34.0196 30.054 34.0196 30.7928C34.0196 31.1988 34.0441 31.5582 34.0931 31.8711C34.1422 32.1839 34.2367 32.4701 34.3767 32.7297C34.5098 32.9826 34.7024 33.179 34.9544 33.3188C35.2065 33.4586 35.5251 33.5284 35.9103 33.5284C36.3024 33.5284 36.7121 33.4253 37.1392 33.2189C37.5734 33.0059 38.06 32.6365 38.5992 32.1107L39.9332 26.7392Z" fill="url(#paint1_linear_6523_271266)"/>
<path d="M14 39.5C13.9998 39.5 13.9995 39.5 13.9993 39.5C13.7493 39.5002 13.6511 39.6095 13.587 39.7321C13.5492 39.8042 13.5261 39.8819 13.513 39.9452C13.5067 39.9758 13.5032 40.0002 13.5015 40.015C13.5013 40.017 13.5011 40.0187 13.5009 40.0203L13.5 43.9797C13.5002 43.9812 13.5004 43.9829 13.5006 43.9848C13.5023 43.9996 13.5058 44.024 13.5121 44.0545C13.5253 44.1178 13.5484 44.1955 13.5863 44.2677C13.6507 44.3904 13.7493 44.5 14 44.5H44C44.2507 44.5 44.3493 44.3904 44.4137 44.2677C44.4516 44.1955 44.4747 44.1178 44.4879 44.0545C44.4942 44.024 44.4977 43.9996 44.4994 43.9848C44.4996 43.9829 44.4998 43.9812 44.5 43.9797V40.0001C44.5 39.8729 44.467 39.8088 44.441 39.7735C44.4108 39.7324 44.3628 39.6945 44.2926 39.6625C44.2217 39.6302 44.1442 39.6114 44.0798 39.6015C44.0489 39.5967 44.0241 39.5944 44.0087 39.5933C44.0015 39.5928 43.9966 39.5926 43.9944 39.5926C43.9943 39.5926 43.9942 39.5926 43.9941 39.5925M14 39.5L43.9935 39.5925C43.9929 39.5925 43.9931 39.5925 43.9941 39.5925M14 39.5L43.9941 39.5925M14 39.5L43.9941 39.5925M44.5009 43.9709L44.5009 43.9706L44.5009 43.9709Z" fill="#D9F4FF" stroke="#333333"/>
<path fill-rule="evenodd" clip-rule="evenodd" d="M50 35.9999V19.9999L51 19.9999V35.9999H50Z" fill="#333333"/>
<path fill-rule="evenodd" clip-rule="evenodd" d="M53 19.9999H48V18.9999H53V19.9999Z" fill="#333333"/>
<path fill-rule="evenodd" clip-rule="evenodd" d="M53 36.9999H48V35.9999H53V36.9999Z" fill="#333333"/>
<defs>
<linearGradient id="paint0_linear_6523_271266" x1="16.2579" y1="19.4277" x2="28.4014" y2="42.2938" gradientUnits="userSpaceOnUse">
<stop stop-color="#FF8E3D"/>
<stop offset="1" stop-color="#FF6F3D"/>
</linearGradient>
<linearGradient id="paint1_linear_6523_271266" x1="16.2579" y1="19.4277" x2="28.4014" y2="42.2938" gradientUnits="userSpaceOnUse">
<stop stop-color="#FF8E3D"/>
<stop offset="1" stop-color="#FF6F3D"/>
</linearGradient>
</defs>
</svg>
