<svg width="352" height="300" viewBox="0 0 352 300" fill="none" xmlns="http://www.w3.org/2000/svg">
<rect width="352" height="300" rx="10" fill="#F3F4F4"/>
<rect x="48" y="24" width="123.542" height="122" rx="61" fill="white"/>
<path d="M87.2466 88.0481C87.2466 86.4578 86.5897 85.6626 85.3088 85.6626C84.0278 85.6626 83.3709 86.4578 83.3709 88.0481V95.6023H79.5281V88.0481C79.5281 86.4578 78.904 85.6626 77.6231 85.6626C76.3421 85.6626 75.6852 86.4578 75.6852 88.0481V95.6023H71.8752V87.6174C71.8752 85.9608 72.4336 84.7349 73.5831 83.8734C74.5685 83.1114 75.948 82.7469 77.6231 82.7469C79.3638 82.7469 80.6119 83.1776 81.4331 84.0722C82.1228 83.1776 83.4038 82.7469 85.2759 82.7469C86.9838 82.7469 88.3305 83.1114 89.3158 83.8734C90.4654 84.7349 91.0238 85.9608 91.0238 87.6174V95.6355H87.2466V88.0481Z" fill="url(#paint0_linear_6435_121573)"/>
<path d="M98.2824 95.9337C96.3446 95.9337 94.768 95.3042 93.4871 94.0783C92.239 92.8524 91.5821 91.262 91.5821 89.3072C91.5821 87.3524 92.2061 85.762 93.4871 84.5361C94.7352 83.3102 96.3446 82.6807 98.2824 82.6807C100.22 82.6807 101.83 83.3102 103.078 84.5361C104.359 85.762 104.983 87.3524 104.983 89.3072C104.983 91.262 104.359 92.8524 103.078 94.0783C101.797 95.3042 100.187 95.9337 98.2824 95.9337ZM98.2824 85.762C97.3628 85.762 96.6402 86.1265 96.1475 86.8223C95.6548 87.5181 95.3921 88.3464 95.3921 89.3403C95.3921 90.3012 95.622 91.1295 96.0818 91.7922C96.6073 92.5542 97.3299 92.9187 98.2496 92.9187C99.1692 92.9187 99.8918 92.5542 100.417 91.7922C100.91 91.1295 101.14 90.3012 101.14 89.3403C101.14 88.3795 100.91 87.5512 100.45 86.8885C99.9575 86.1265 99.2021 85.762 98.2824 85.762Z" fill="url(#paint1_linear_6435_121573)"/>
<path d="M112.077 95.9337C110.139 95.9337 108.563 95.3042 107.282 94.0783C106.034 92.8524 105.377 91.262 105.377 89.3072C105.377 87.3524 106.001 85.762 107.282 84.5361C108.53 83.3102 110.139 82.6807 112.077 82.6807C114.015 82.6807 115.625 83.3102 116.873 84.5361C118.154 85.762 118.778 87.3524 118.778 89.3072C118.778 91.262 118.154 92.8524 116.873 94.0783C115.592 95.3042 113.982 95.9337 112.077 95.9337ZM112.077 85.762C111.158 85.762 110.435 86.1265 109.942 86.8223C109.45 87.5181 109.187 88.3464 109.187 89.3403C109.187 90.3012 109.417 91.1295 109.877 91.7922C110.402 92.5542 111.125 92.9187 112.044 92.9187C112.964 92.9187 113.687 92.5542 114.212 91.7922C114.705 91.1295 114.935 90.3012 114.935 89.3403C114.935 88.3795 114.705 87.5512 114.245 86.8885C113.752 86.1265 112.997 85.762 112.077 85.762Z" fill="url(#paint2_linear_6435_121573)"/>
<path d="M129.091 95.5693V94.3102C128.762 94.7741 128.171 95.1385 127.35 95.4036C126.627 95.6687 125.938 95.7681 125.281 95.7681C123.474 95.7681 121.996 95.1385 120.912 93.8795C119.796 92.6205 119.27 91.0632 119.27 89.2078C119.27 87.3855 119.796 85.8283 120.879 84.6024C121.963 83.3765 123.409 82.747 125.182 82.747C127.219 82.747 128.499 83.3102 129.091 84.4036V74H132.802V95.5693H129.091ZM129.091 88.4126C129.091 87.7169 128.762 87.0542 128.105 86.4247C127.448 85.7952 126.792 85.4638 126.102 85.4638C125.116 85.4638 124.361 85.8614 123.77 86.6566C123.277 87.3524 123.014 88.247 123.014 89.2741C123.014 90.2681 123.277 91.1295 123.77 91.8584C124.328 92.6867 125.116 93.0843 126.102 93.0843C126.693 93.0843 127.317 92.8193 128.04 92.256C128.729 91.6928 129.091 91.1295 129.091 90.5331V88.4126Z" fill="url(#paint3_linear_6435_121573)"/>
<path d="M134.149 95.5693V74H137.959V95.5693H134.149Z" fill="url(#paint4_linear_6435_121573)"/>
<path d="M142.524 90.4669C142.688 91.2621 143.083 91.9247 143.674 92.488C144.298 93.0512 144.955 93.3494 145.71 93.3494C146.236 93.3494 146.794 93.2169 147.418 92.9518C148.173 92.6205 148.535 92.256 148.535 91.8253L152.542 91.7922C151.983 93.1506 150.998 94.2108 149.651 94.9398C148.371 95.6355 146.991 96 145.447 96C143.509 96 141.867 95.3705 140.586 94.1777C139.305 92.9518 138.648 91.3615 138.648 89.3735C138.648 87.3193 139.305 85.7289 140.586 84.503C141.867 83.3103 143.542 82.7139 145.579 82.7139C147.812 82.7139 149.553 83.4428 150.801 84.9337C151.951 86.2922 152.542 88.1476 152.542 90.4669H142.524ZM148.765 88.0813C148.6 87.253 148.272 86.5904 147.746 86.0602C147.155 85.497 146.466 85.1988 145.71 85.1988C144.922 85.1988 144.265 85.4639 143.707 86.0271C143.181 86.5904 142.82 87.253 142.623 88.0813H148.765Z" fill="url(#paint5_linear_6435_121573)"/>
<path d="M72.2818 85.6917L71.8729 87.7368C75.621 88.9979 79.1646 87.7709 81.0387 84.4987C78.2787 82.59 75.7232 84.5328 72.2818 85.6917Z" fill="#58595B"/>
<path d="M72.2822 85.1809C72.1459 85.9649 72.0437 86.7149 71.9074 87.4989C75.4851 88.7261 78.9947 87.6693 80.8688 84.465C78.4836 81.7039 75.8259 83.9878 72.2822 85.1809Z" fill="url(#paint6_linear_6435_121573)"/>
<path d="M76.5407 86.101C74.9051 85.7601 73.1333 86.6123 71.9067 87.4987C71.123 81.7717 74.6666 81.9081 79.3006 83.3398C78.994 84.7374 78.4829 86.6123 77.5969 87.7373C77.5629 86.9873 77.2221 86.476 76.5407 86.101Z" fill="url(#paint7_linear_6435_121573)"/>
<path d="M67 85.1811C72.9969 81.5677 76.3702 80.8859 83.3553 80.17C75.2458 86.5787 75.0413 85.1811 67 85.1811Z" fill="url(#paint8_linear_6435_121573)"/>
<path d="M83.3553 80.2039L76.9155 84.8738" stroke="#4A4A4C" stroke-width="0.5"/>
<path opacity="0.23" d="M75.6883 82.6931C75.586 81.9759 75.7565 83.4444 75.6883 82.6931V82.6931Z" fill="#231F20"/>
<path d="M67 85.1812L76.9154 84.8744" stroke="#A8ABAD" stroke-width="0.5"/>
<path d="M75.0753 82.7603C73.3716 83.2375 67.7836 84.4646 67.7154 85.1805C67.5451 86.5099 67.6813 88.6233 67.6813 88.6233" stroke="#F16922" stroke-width="0.5"/>
<path d="M68.1937 93.7033C67.5802 92.1693 66.8304 90.4648 67.7166 88.3513C68.296 90.3285 68.1937 91.8284 68.1937 93.7033Z" fill="#F16922"/>
<path d="M74.8853 82.7859C75.0272 82.7354 75.1217 82.6367 75.0963 82.5656C75.071 82.4944 74.9354 82.4778 74.7935 82.5283C74.6516 82.5789 74.5571 82.6775 74.5825 82.7487C74.6078 82.8198 74.7434 82.8365 74.8853 82.7859Z" fill="#6D6E70"/>
<rect x="65" y="159" width="117" height="117" rx="58.5" fill="white"/>
<path fill-rule="evenodd" clip-rule="evenodd" d="M131.845 231.868L136.936 217.193C137.889 214.82 138.202 212.911 138.202 211.233C138.202 210.62 138.161 210.047 138.066 209.515C139.386 211.902 140.108 214.616 140.108 217.507C140.108 223.644 136.8 229.004 131.858 231.895L131.845 231.868ZM125.801 209.72C126.794 209.665 127.706 209.556 127.706 209.556C128.591 209.447 128.496 208.137 127.597 208.192C127.597 208.192 124.902 208.397 123.16 208.397C121.526 208.397 118.804 208.192 118.804 208.192C117.891 208.137 117.796 209.501 118.695 209.556C118.695 209.556 119.539 209.665 120.437 209.72L123.024 216.811L119.389 227.722L113.331 209.72C114.325 209.665 115.237 209.556 115.237 209.556C116.122 209.447 116.026 208.137 115.128 208.192C115.128 208.192 112.433 208.397 110.69 208.397C110.377 208.397 110.01 208.397 109.601 208.397C112.596 203.869 117.701 200.896 123.514 200.896C127.843 200.896 131.79 202.532 134.744 205.26C134.69 205.26 134.608 205.233 134.554 205.233C132.92 205.233 131.749 206.651 131.749 208.192C131.749 209.556 132.539 210.715 133.383 212.093C134.023 213.184 134.744 214.602 134.744 216.661C134.744 218.08 134.336 219.88 133.492 222.035L131.831 227.572L125.841 209.706L125.801 209.72ZM123.486 234.132C121.853 234.132 120.301 233.913 118.804 233.477L123.813 218.952L128.918 232.959C128.959 233.041 129 233.122 129.054 233.191C127.312 233.804 125.46 234.145 123.514 234.145L123.486 234.132ZM106.879 217.493C106.879 215.107 107.396 212.815 108.308 210.742L116.244 232.481C110.704 229.781 106.879 224.094 106.879 217.507V217.493ZM123.473 199C113.304 199 105 207.292 105 217.493C105 227.694 113.304 236 123.514 236C133.723 236 142 227.681 142 217.493C141.986 207.292 133.682 199 123.473 199Z" fill="#123C56"/>
<rect x="181" y="78" width="123.066" height="124" rx="61.5332" fill="white"/>
<path fill-rule="evenodd" clip-rule="evenodd" d="M241.902 142.818V142.893C241.902 147.925 237.848 152 232.842 152C227.837 152 223.783 147.925 223.783 142.893C223.783 137.862 227.837 133.786 232.842 133.786C234.895 133.786 236.784 134.478 238.311 135.623V129.811C238.31 129.573 238.356 129.337 238.446 129.117C238.536 128.897 238.669 128.697 238.836 128.528C239.004 128.36 239.203 128.227 239.422 128.136C239.641 128.045 239.876 127.999 240.113 128C241.101 128 241.914 128.818 241.914 129.811V142.73C241.914 142.755 241.914 142.792 241.902 142.818ZM232.842 148.264C235.793 148.264 238.185 145.859 238.185 142.893C238.185 139.927 235.793 137.522 232.842 137.522C229.891 137.522 227.499 139.927 227.499 142.893C227.499 145.859 229.891 148.264 232.842 148.264ZM260.859 142.893C260.859 147.923 256.803 152 251.799 152C246.796 152 242.74 147.923 242.74 142.893C242.74 137.863 246.796 133.786 251.799 133.786C256.803 133.786 260.859 137.863 260.859 142.893ZM257.141 142.893C257.141 145.862 254.751 148.264 251.798 148.264C248.845 148.264 246.455 145.862 246.455 142.893C246.455 139.924 248.845 137.522 251.798 137.522C254.751 137.522 257.141 139.924 257.141 142.893ZM280.066 142.893C280.066 147.923 276.01 152 271.007 152C266.003 152 261.947 147.923 261.947 142.893C261.947 137.863 266.003 133.786 271.007 133.786C276.01 133.786 280.066 137.863 280.066 142.893ZM276.35 142.893C276.35 145.862 273.96 148.264 271.007 148.264C268.054 148.264 265.664 145.862 265.664 142.893C265.664 139.924 268.054 137.522 271.007 137.522C273.96 137.522 276.35 139.924 276.35 142.893Z" fill="#888888"/>
<path fill-rule="evenodd" clip-rule="evenodd" d="M223.119 142.868C223.119 147.898 219.063 151.975 214.059 151.975C209.056 151.975 205 147.898 205 142.868C205 137.838 209.056 133.761 214.059 133.761C219.063 133.761 223.119 137.838 223.119 142.868ZM219.314 142.906C219.314 145.872 216.922 148.277 213.971 148.277C211.02 148.277 208.628 145.872 208.628 142.906C208.628 139.939 211.02 137.535 213.971 137.535C216.922 137.535 219.314 139.939 219.314 142.906Z" fill="#9C5789"/>
<defs>
<linearGradient id="paint0_linear_6435_121573" x1="71.8754" y1="73.1406" x2="82.6878" y2="114.335" gradientUnits="userSpaceOnUse">
<stop stop-color="#FF8E3D"/>
<stop offset="1" stop-color="#FF6F3D"/>
</linearGradient>
<linearGradient id="paint1_linear_6435_121573" x1="71.8754" y1="73.1406" x2="82.6878" y2="114.335" gradientUnits="userSpaceOnUse">
<stop stop-color="#FF8E3D"/>
<stop offset="1" stop-color="#FF6F3D"/>
</linearGradient>
<linearGradient id="paint2_linear_6435_121573" x1="71.8754" y1="73.1406" x2="82.6878" y2="114.335" gradientUnits="userSpaceOnUse">
<stop stop-color="#FF8E3D"/>
<stop offset="1" stop-color="#FF6F3D"/>
</linearGradient>
<linearGradient id="paint3_linear_6435_121573" x1="71.8754" y1="73.1406" x2="82.6878" y2="114.335" gradientUnits="userSpaceOnUse">
<stop stop-color="#FF8E3D"/>
<stop offset="1" stop-color="#FF6F3D"/>
</linearGradient>
<linearGradient id="paint4_linear_6435_121573" x1="71.8754" y1="73.1406" x2="82.6878" y2="114.335" gradientUnits="userSpaceOnUse">
<stop stop-color="#FF8E3D"/>
<stop offset="1" stop-color="#FF6F3D"/>
</linearGradient>
<linearGradient id="paint5_linear_6435_121573" x1="71.8754" y1="73.1406" x2="82.6878" y2="114.335" gradientUnits="userSpaceOnUse">
<stop stop-color="#FF8E3D"/>
<stop offset="1" stop-color="#FF6F3D"/>
</linearGradient>
<linearGradient id="paint6_linear_6435_121573" x1="71.9033" y1="85.5821" x2="80.8514" y2="85.5821" gradientUnits="userSpaceOnUse">
<stop stop-color="#929497"/>
<stop offset="0.1245" stop-color="#757578"/>
<stop offset="0.2792" stop-color="#575658"/>
<stop offset="0.4403" stop-color="#403E3F"/>
<stop offset="0.6085" stop-color="#302D2E"/>
<stop offset="0.7884" stop-color="#262223"/>
<stop offset="1" stop-color="#231F20"/>
</linearGradient>
<linearGradient id="paint7_linear_6435_121573" x1="73.6168" y1="82.5936" x2="77.3341" y2="87.9003" gradientUnits="userSpaceOnUse">
<stop stop-color="#231F20"/>
<stop offset="1" stop-color="#231F20" stop-opacity="0"/>
</linearGradient>
<linearGradient id="paint8_linear_6435_121573" x1="66.9888" y1="82.7567" x2="83.3437" y2="82.7567" gradientUnits="userSpaceOnUse">
<stop stop-color="#929497"/>
<stop offset="0.1245" stop-color="#757578"/>
<stop offset="0.2792" stop-color="#575658"/>
<stop offset="0.4403" stop-color="#403E3F"/>
<stop offset="0.6085" stop-color="#302D2E"/>
<stop offset="0.7884" stop-color="#262223"/>
<stop offset="1" stop-color="#231F20"/>
</linearGradient>
</defs>
</svg>
