<svg width="352" height="300" viewBox="0 0 352 300" fill="none" xmlns="http://www.w3.org/2000/svg">
<rect width="352" height="300" rx="6" transform="matrix(-1 0 0 1 352 0)" fill="#F3F4F4"/>
<rect width="78" height="78" rx="39" transform="matrix(-1 0 0 1 266 17)" fill="white"/>
<path d="M225.897 32.5625L204.941 40.0355L208.137 67.7441L225.897 77.5805L243.657 67.7441L246.853 40.0355L225.897 32.5625Z" fill="#DD0031"/>
<path d="M225.897 32.5625V37.5595V37.537V60.3386V77.5805L243.657 67.7441L246.853 40.0355L225.897 32.5625Z" fill="#C3002F"/>
<path d="M225.897 37.537L212.797 66.9113H217.682L220.315 60.3386H231.435L234.068 66.9113H238.953L225.897 37.537ZM229.724 56.287H222.071L225.897 47.0808L229.724 56.287Z" fill="white"/>
<rect x="86" y="17" width="78" height="78" rx="39" fill="white"/>
<path d="M129.755 37.9851L125 46.3057L120.245 37.9851H104.412L125 74.015L145.588 37.9851H129.755Z" fill="#41B883"/>
<path d="M129.754 37.9851L125 46.3058L120.245 37.9851H112.647L125 59.6027L137.353 37.9851H129.754Z" fill="#34495E"/>
<rect x="35" y="111" width="78" height="78" rx="39" fill="white"/>
<path d="M94.2675 140.594C94.2675 139.833 94.1051 139.146 93.7679 138.571C93.4433 137.997 92.9562 137.522 92.3069 137.148C86.9122 134.038 81.5051 130.929 76.1104 127.82C74.6493 126.983 73.2507 127.008 71.8022 127.857C69.6543 129.118 58.8899 135.287 55.6931 137.148C54.3693 137.91 53.7325 139.083 53.7325 140.607V159.388C53.7325 160.138 53.8948 160.799 54.207 161.374C54.5317 161.961 55.0312 162.46 55.6931 162.847C58.9024 164.708 69.6543 170.865 71.8022 172.138C73.2507 172.987 74.6618 173.025 76.1104 172.176C81.5051 169.054 86.9122 165.957 92.3069 162.847C92.9812 162.46 93.4683 161.973 93.7929 161.374C94.1051 160.799 94.2675 160.138 94.2675 159.388V140.594Z" fill="#9A4993"/>
<path d="M74.0501 149.923L54.1821 161.361C54.5068 161.948 55.0063 162.448 55.6682 162.835C58.8775 164.696 69.6294 170.852 71.7773 172.126C73.2258 172.975 74.637 173.012 76.0855 172.163C81.4802 169.041 86.8874 165.944 92.2821 162.835C92.9564 162.448 93.4434 161.961 93.7681 161.361L74.0501 149.923Z" fill="#6A1577"/>
<path d="M68.1682 153.307C69.3296 155.33 71.5024 156.691 73.9875 156.691C76.4975 156.691 78.6828 155.317 79.8317 153.269L74.0499 149.923L68.1682 153.307Z" fill="#6A1577"/>
<path d="M94.2675 140.594C94.2675 139.833 94.1051 139.146 93.768 138.571L74.0499 149.923L93.7929 161.361C94.1051 160.787 94.2675 160.125 94.2675 159.376V140.594Z" fill="#813084"/>
<path d="M79.8315 153.269C78.6826 155.305 76.4973 156.691 73.9872 156.691C71.4897 156.691 69.3169 155.33 68.168 153.307C67.6061 152.32 67.2813 151.196 67.2813 149.985C67.2813 146.276 70.2784 143.279 73.9872 143.279C76.4598 143.279 78.6202 144.628 79.7815 146.626L85.6382 143.254C83.3031 139.233 78.9573 136.523 73.9748 136.523C66.5321 136.523 60.5131 142.555 60.5131 149.985C60.5131 152.42 61.1624 154.718 62.2988 156.691C64.6215 160.725 68.9922 163.447 73.9872 163.447C78.9948 163.447 83.3655 160.712 85.6882 156.654L79.8315 153.269ZM87.2366 146.801H85.9004V153.257H87.2366V146.801ZM90.1962 146.801H88.86V153.257H90.1962V146.801Z" fill="white"/>
<path d="M91.2826 147.887H84.8265V149.223H91.2826V147.887ZM91.2826 150.834H84.8265V152.17H91.2826V150.834Z" fill="white"/>
<rect x="137" y="111" width="78" height="78" rx="39" fill="white"/>
<path d="M169.752 163.522C169.752 163.522 167.88 164.612 171.084 164.981C174.966 165.425 176.95 165.361 181.228 164.55C181.228 164.55 182.353 165.257 183.923 165.868C174.334 169.984 162.22 165.63 169.752 163.522Z" fill="#5382A1"/>
<path d="M168.58 158.151C168.58 158.151 166.481 159.707 169.687 160.04C173.834 160.468 177.109 160.503 182.775 159.41C182.775 159.41 183.559 160.206 184.792 160.641C173.197 164.037 160.283 160.909 168.58 158.151Z" fill="#5382A1"/>
<path d="M178.459 149.04C180.822 151.764 177.838 154.216 177.838 154.216C177.838 154.216 183.838 151.114 181.083 147.23C178.509 143.607 176.536 141.807 187.22 135.602C187.22 135.602 170.449 139.797 178.459 149.04Z" fill="#E76F00"/>
<path d="M191.142 167.495C191.142 167.495 192.528 168.638 189.617 169.523C184.081 171.202 166.578 171.709 161.716 169.589C159.968 168.828 163.246 167.771 164.277 167.549C165.352 167.316 165.967 167.359 165.967 167.359C164.023 165.988 153.403 170.052 160.572 171.216C180.124 174.392 196.214 169.786 191.142 167.495Z" fill="#5382A1"/>
<path d="M170.652 152.586C170.652 152.586 161.749 154.704 167.5 155.473C169.928 155.798 174.768 155.725 179.276 155.346C182.961 155.035 186.66 154.373 186.66 154.373C186.66 154.373 185.361 154.93 184.421 155.573C175.38 157.954 157.915 156.847 162.943 154.411C167.195 152.352 170.652 152.586 170.652 152.586Z" fill="#5382A1"/>
<path d="M186.624 161.526C195.814 156.743 191.565 152.147 188.599 152.766C187.872 152.918 187.548 153.049 187.548 153.049C187.548 153.049 187.818 152.626 188.333 152.443C194.201 150.377 198.714 158.536 186.439 161.767C186.439 161.768 186.581 161.64 186.624 161.526Z" fill="#5382A1"/>
<path d="M181.083 125.582C181.083 125.582 186.173 130.681 176.255 138.522C168.302 144.812 174.442 148.398 176.252 152.496C171.61 148.301 168.203 144.609 170.488 141.172C173.843 136.127 183.136 133.681 181.083 125.582Z" fill="#E76F00"/>
<path d="M171.556 174.487C180.377 175.053 193.924 174.173 194.245 169.993C194.245 169.993 193.629 171.578 186.954 172.836C179.425 174.255 170.138 174.09 164.63 173.18C164.63 173.18 165.758 174.115 171.556 174.487Z" fill="#5382A1"/>
<rect x="239" y="111" width="78" height="78" rx="39" fill="white"/>
<path fill-rule="evenodd" clip-rule="evenodd" d="M288.515 156.298L267.524 168.796L294.703 166.947L296.796 139.465L288.515 156.298Z" fill="url(#paint0_linear_6435_121610)"/>
<path fill-rule="evenodd" clip-rule="evenodd" d="M294.748 166.928L292.412 150.76L286.049 159.185L294.748 166.928Z" fill="url(#paint1_linear_6435_121610)"/>
<path fill-rule="evenodd" clip-rule="evenodd" d="M294.779 166.928L277.665 165.581L267.615 168.761L294.779 166.928Z" fill="url(#paint2_linear_6435_121610)"/>
<path fill-rule="evenodd" clip-rule="evenodd" d="M267.639 168.765L271.914 154.72L262.506 156.737L267.639 168.765Z" fill="url(#paint3_linear_6435_121610)"/>
<path fill-rule="evenodd" clip-rule="evenodd" d="M286.047 159.232L282.113 143.78L270.855 154.362L286.047 159.232Z" fill="url(#paint4_linear_6435_121610)"/>
<path fill-rule="evenodd" clip-rule="evenodd" d="M295.904 143.998L285.262 135.282L282.298 144.889L295.904 143.998Z" fill="url(#paint5_linear_6435_121610)"/>
<path fill-rule="evenodd" clip-rule="evenodd" d="M290.927 132.175L284.668 135.643L280.719 132.128L290.927 132.175Z" fill="url(#paint6_linear_6435_121610)"/>
<path fill-rule="evenodd" clip-rule="evenodd" d="M260.031 161.448L262.653 156.653L260.532 150.94L260.031 161.448Z" fill="url(#paint7_linear_6435_121610)"/>
<path fill-rule="evenodd" clip-rule="evenodd" d="M260.392 150.76L262.525 156.83L271.798 154.744L282.384 144.878L285.372 135.362L280.667 132.031L272.67 135.033C270.15 137.383 265.261 142.033 265.084 142.12C264.91 142.21 261.856 147.998 260.392 150.76Z" fill="white"/>
<path fill-rule="evenodd" clip-rule="evenodd" d="M267.884 139.856C273.345 134.426 280.386 131.218 283.087 133.952C285.787 136.685 282.924 143.328 277.463 148.756C272.002 154.184 265.049 157.568 262.349 154.835C259.647 152.103 262.423 145.284 267.884 139.856Z" fill="url(#paint8_linear_6435_121610)"/>
<path fill-rule="evenodd" clip-rule="evenodd" d="M267.639 168.759L271.881 154.669L285.969 159.208C280.875 163.997 275.21 168.046 267.639 168.759Z" fill="url(#paint9_linear_6435_121610)"/>
<path fill-rule="evenodd" clip-rule="evenodd" d="M282.402 144.85L286.019 159.215C290.274 154.729 294.093 149.906 295.963 143.94L282.402 144.85Z" fill="url(#paint10_linear_6435_121610)"/>
<path fill-rule="evenodd" clip-rule="evenodd" d="M295.926 144.013C297.374 139.632 297.708 133.349 290.883 132.182L285.282 135.284L295.926 144.013Z" fill="url(#paint11_linear_6435_121610)"/>
<path fill-rule="evenodd" clip-rule="evenodd" d="M260.031 161.385C260.232 168.614 265.433 168.722 267.649 168.785L262.531 156.8L260.031 161.385Z" fill="#9E1209"/>
<path fill-rule="evenodd" clip-rule="evenodd" d="M282.423 144.872C285.692 146.888 292.282 150.935 292.415 151.009C292.623 151.126 295.256 146.556 295.854 143.974L282.423 144.872Z" fill="url(#paint12_radial_6435_121610)"/>
<path fill-rule="evenodd" clip-rule="evenodd" d="M271.876 154.669L277.546 165.64C280.9 163.817 283.525 161.595 285.93 159.215L271.876 154.669Z" fill="url(#paint13_radial_6435_121610)"/>
<path fill-rule="evenodd" clip-rule="evenodd" d="M262.509 156.815L261.705 166.409C263.221 168.485 265.307 168.666 267.495 168.504C265.912 164.554 262.75 156.655 262.509 156.815Z" fill="url(#paint14_linear_6435_121610)"/>
<path fill-rule="evenodd" clip-rule="evenodd" d="M285.249 135.308L296.514 136.893C295.913 134.339 294.067 132.69 290.92 132.175L285.249 135.308Z" fill="url(#paint15_linear_6435_121610)"/>
<rect width="78" height="78" rx="39" transform="matrix(-1 0 0 1 265.633 205)" fill="white"/>
<g clip-path="url(#clip0_6435_121610)">
<path d="M226.633 256.5C240.439 256.5 251.633 250.904 251.633 244C251.633 237.097 240.439 231.5 226.633 231.5C212.826 231.5 201.633 237.097 201.633 244C201.633 250.904 212.826 256.5 226.633 256.5Z" fill="#777BB3"/>
<path fill-rule="evenodd" clip-rule="evenodd" d="M239.667 244.874C239.166 245.255 238.374 245.447 237.314 245.447H235.937L236.876 240.679H238.571C239.548 240.679 240.195 240.845 240.495 241.172C240.787 241.492 240.851 242.086 240.684 242.936C240.504 243.846 240.162 244.498 239.667 244.874ZM231.569 251.227C231.619 251.287 231.694 251.322 231.772 251.322H234.562C234.689 251.322 234.797 251.233 234.821 251.111L235.442 247.962H237.614C238.692 247.962 239.595 247.847 240.299 247.621C241.013 247.392 241.671 247.003 242.253 246.466C242.739 246.026 243.138 245.532 243.44 244.998C243.742 244.465 243.959 243.87 244.085 243.229C244.395 241.655 244.151 240.403 243.357 239.507C242.568 238.616 241.313 238.164 239.627 238.164H234.262C234.136 238.164 234.027 238.253 234.003 238.375L231.514 251.012C231.498 251.088 231.519 251.167 231.569 251.227ZM215.536 245.447C216.597 245.447 217.388 245.255 217.889 244.874C218.384 244.498 218.727 243.846 218.906 242.936C219.073 242.086 219.01 241.492 218.717 241.172C218.417 240.845 217.77 240.679 216.793 240.679H215.098L214.159 245.447H215.536ZM209.994 251.322C209.916 251.322 209.841 251.287 209.791 251.227C209.741 251.167 209.721 251.088 209.736 251.012L212.225 238.375C212.249 238.253 212.358 238.164 212.484 238.164H217.849C219.536 238.164 220.791 238.616 221.58 239.507C222.373 240.403 222.618 241.655 222.308 243.229C222.181 243.87 221.964 244.465 221.662 244.998C221.36 245.532 220.961 246.026 220.475 246.466C219.894 247.003 219.236 247.392 218.521 247.621C217.818 247.847 216.914 247.962 215.836 247.962H213.664L213.043 251.111C213.019 251.233 212.911 251.322 212.785 251.322H209.994ZM228.705 247.962C228.626 247.962 228.551 247.927 228.501 247.867C228.451 247.807 228.431 247.729 228.446 247.652L229.547 242.061C229.652 241.529 229.626 241.147 229.475 240.986C229.382 240.888 229.103 240.722 228.279 240.722H226.284L224.899 247.751C224.875 247.874 224.767 247.962 224.64 247.962H221.872C221.793 247.962 221.719 247.927 221.669 247.867C221.619 247.807 221.598 247.728 221.613 247.652L224.103 235.015C224.127 234.893 224.235 234.805 224.362 234.805H227.13C227.209 234.805 227.283 234.839 227.333 234.899C227.383 234.959 227.404 235.038 227.389 235.114L226.788 238.164H228.934C230.569 238.164 231.678 238.449 232.323 239.034C232.982 239.631 233.187 240.585 232.934 241.871L231.776 247.751C231.752 247.874 231.643 247.962 231.517 247.962H228.705Z" fill="white"/>
</g>
<rect x="86.3673" y="205" width="77.2653" height="78" rx="38.6326" fill="white"/>
<path d="M141.009 252.801C136.177 259.369 125.853 257.152 119.235 257.471C119.235 257.471 118.063 257.537 116.883 257.736C116.883 257.736 117.329 257.541 117.898 257.341C122.547 255.701 124.744 255.372 127.568 253.892C132.875 251.119 138.157 245.079 139.232 238.804C137.212 244.839 131.068 250.033 125.474 252.142C121.645 253.583 114.721 254.986 114.72 254.987C114.723 254.992 114.444 254.839 114.44 254.835C109.731 252.498 109.595 242.095 118.147 238.742C121.897 237.27 125.484 238.078 129.538 237.094C133.861 236.046 138.869 232.74 140.904 228.418C143.186 235.322 145.927 246.122 141.009 252.801ZM141.093 226.279C140.518 227.673 139.816 228.93 139.007 230.053C135.444 226.324 130.471 224 124.975 224C114.163 224 105.367 232.972 105.367 243.999C105.367 249.779 107.786 254.993 111.643 258.647L112.072 259.035C111.355 258.438 111.245 257.364 111.826 256.632C112.411 255.9 113.465 255.786 114.182 256.38C114.901 256.974 115.011 258.051 114.429 258.784C113.848 259.518 112.792 259.629 112.074 259.037L112.366 259.3C115.778 262.23 120.175 264 124.975 264C135.309 264 143.795 255.796 144.522 245.442C145.06 240.372 143.592 233.935 141.093 226.279Z" fill="#5FB832"/>
<defs>
<linearGradient id="paint0_linear_6435_121610" x1="292.332" y1="172.14" x2="284.544" y2="158.427" gradientUnits="userSpaceOnUse">
<stop stop-color="#FB7655"/>
<stop offset="0.41" stop-color="#E42B1E"/>
<stop offset="0.99" stop-color="#990000"/>
<stop offset="1" stop-color="#990000"/>
</linearGradient>
<linearGradient id="paint1_linear_6435_121610" x1="296.196" y1="160.605" x2="286.183" y2="153.904" gradientUnits="userSpaceOnUse">
<stop stop-color="#871101"/>
<stop offset="0.99" stop-color="#911209"/>
<stop offset="1" stop-color="#911209"/>
</linearGradient>
<linearGradient id="paint2_linear_6435_121610" x1="288.198" y1="172.556" x2="278.186" y2="165.856" gradientUnits="userSpaceOnUse">
<stop stop-color="#871101"/>
<stop offset="0.99" stop-color="#911209"/>
<stop offset="1" stop-color="#911209"/>
</linearGradient>
<linearGradient id="paint3_linear_6435_121610" x1="267.212" y1="155.736" x2="268.769" y2="165.833" gradientUnits="userSpaceOnUse">
<stop stop-color="white"/>
<stop offset="0.23" stop-color="#E57252"/>
<stop offset="0.46" stop-color="#DE3B20"/>
<stop offset="0.99" stop-color="#A60003"/>
<stop offset="1" stop-color="#A60003"/>
</linearGradient>
<linearGradient id="paint4_linear_6435_121610" x1="277.87" y1="146.306" x2="278.444" y2="156.612" gradientUnits="userSpaceOnUse">
<stop stop-color="white"/>
<stop offset="0.23" stop-color="#E4714E"/>
<stop offset="0.56" stop-color="#BE1A0D"/>
<stop offset="0.99" stop-color="#A80D00"/>
<stop offset="1" stop-color="#A80D00"/>
</linearGradient>
<linearGradient id="paint5_linear_6435_121610" x1="287.328" y1="136.78" x2="289.046" y2="144.164" gradientUnits="userSpaceOnUse">
<stop stop-color="white"/>
<stop offset="0.18" stop-color="#E46342"/>
<stop offset="0.4" stop-color="#C82410"/>
<stop offset="0.99" stop-color="#A80D00"/>
<stop offset="1" stop-color="#A80D00"/>
</linearGradient>
<linearGradient id="paint6_linear_6435_121610" x1="282.108" y1="134.179" x2="289.482" y2="130.502" gradientUnits="userSpaceOnUse">
<stop stop-color="white"/>
<stop offset="0.54" stop-color="#C81F11"/>
<stop offset="0.99" stop-color="#BF0905"/>
<stop offset="1" stop-color="#BF0905"/>
</linearGradient>
<linearGradient id="paint7_linear_6435_121610" x1="260.756" y1="153.161" x2="261.365" y2="159.247" gradientUnits="userSpaceOnUse">
<stop stop-color="white"/>
<stop offset="0.31" stop-color="#DE4024"/>
<stop offset="0.99" stop-color="#BF190B"/>
<stop offset="1" stop-color="#BF190B"/>
</linearGradient>
<linearGradient id="paint8_linear_6435_121610" x1="256.588" y1="160.893" x2="285.166" y2="131.588" gradientUnits="userSpaceOnUse">
<stop stop-color="#BD0012"/>
<stop offset="0.07" stop-color="white"/>
<stop offset="0.17" stop-color="white"/>
<stop offset="0.27" stop-color="#C82F1C"/>
<stop offset="0.33" stop-color="#820C01"/>
<stop offset="0.46" stop-color="#A31601"/>
<stop offset="0.72" stop-color="#B31301"/>
<stop offset="0.99" stop-color="#E82609"/>
<stop offset="1" stop-color="#E82609"/>
</linearGradient>
<linearGradient id="paint9_linear_6435_121610" x1="278.416" y1="163.856" x2="269.83" y2="161.743" gradientUnits="userSpaceOnUse">
<stop stop-color="#8C0C01"/>
<stop offset="0.54" stop-color="#990C00"/>
<stop offset="0.99" stop-color="#A80D0E"/>
<stop offset="1" stop-color="#A80D0E"/>
</linearGradient>
<linearGradient id="paint10_linear_6435_121610" x1="293.158" y1="153.526" x2="285.514" y2="146.694" gradientUnits="userSpaceOnUse">
<stop stop-color="#7E110B"/>
<stop offset="0.99" stop-color="#9E0C00"/>
<stop offset="1" stop-color="#9E0C00"/>
</linearGradient>
<linearGradient id="paint11_linear_6435_121610" x1="295.96" y1="140.951" x2="292.151" y2="136.89" gradientUnits="userSpaceOnUse">
<stop stop-color="#79130D"/>
<stop offset="0.99" stop-color="#9E120B"/>
<stop offset="1" stop-color="#9E120B"/>
</linearGradient>
<radialGradient id="paint12_radial_6435_121610" cx="0" cy="0" r="1" gradientUnits="userSpaceOnUse" gradientTransform="translate(286.721 146.804) scale(9.34435 9.37036)">
<stop stop-color="#A80D00"/>
<stop offset="0.99" stop-color="#7E0E08"/>
<stop offset="1" stop-color="#7E0E08"/>
</radialGradient>
<radialGradient id="paint13_radial_6435_121610" cx="0" cy="0" r="1" gradientUnits="userSpaceOnUse" gradientTransform="translate(273.78 159.152) scale(12.4221 12.4566)">
<stop stop-color="#A30C00"/>
<stop offset="0.99" stop-color="#800E08"/>
<stop offset="1" stop-color="#800E08"/>
</radialGradient>
<linearGradient id="paint14_linear_6435_121610" x1="264.98" y1="168.751" x2="261.869" y2="158.225" gradientUnits="userSpaceOnUse">
<stop stop-color="#8B2114"/>
<stop offset="0.43" stop-color="#9E100A"/>
<stop offset="0.99" stop-color="#B3100C"/>
<stop offset="1" stop-color="#B3100C"/>
</linearGradient>
<linearGradient id="paint15_linear_6435_121610" x1="288.727" y1="133.854" x2="295.672" y2="136.912" gradientUnits="userSpaceOnUse">
<stop stop-color="#B31000"/>
<stop offset="0.44" stop-color="#910F08"/>
<stop offset="0.99" stop-color="#791C12"/>
<stop offset="1" stop-color="#791C12"/>
</linearGradient>
<clipPath id="clip0_6435_121610">
<rect width="50" height="50" fill="white" transform="translate(201.633 219)"/>
</clipPath>
</defs>
</svg>
