<svg width="544" height="270" viewBox="0 0 544 270" fill="none" xmlns="http://www.w3.org/2000/svg">
<path d="M0 6C0 2.68629 2.68629 0 6 0H538C541.314 0 544 2.68629 544 6V270H0V6Z" fill="#F3F4F4"/>
<path d="M212 54.5C207.306 54.5 203.5 58.3056 203.5 63V217C203.5 221.694 207.306 225.5 212 225.5H429C433.694 225.5 437.5 221.694 437.5 217V63C437.5 58.3056 433.694 54.5 429 54.5H212Z" fill="#333333"/>
<path d="M212 54.5C207.306 54.5 203.5 58.3056 203.5 63V217C203.5 221.694 207.306 225.5 212 225.5H429C433.694 225.5 437.5 221.694 437.5 217V63C437.5 58.3056 433.694 54.5 429 54.5H212Z" fill="url(#paint0_linear_6435_121757)"/>
<path d="M212 54.5C207.306 54.5 203.5 58.3056 203.5 63V217C203.5 221.694 207.306 225.5 212 225.5H429C433.694 225.5 437.5 221.694 437.5 217V63C437.5 58.3056 433.694 54.5 429 54.5H212Z" stroke="#333333"/>
<rect x="210.5" y="61.5" width="219" height="157" rx="2.5" fill="white" stroke="#333333"/>
<path d="M390.5 217C390.5 217.828 389.828 218.5 389 218.5H250C249.172 218.5 248.5 217.828 248.5 217V46.8942C248.5 45.5491 249.532 44.5 250.749 44.5H370.649C371.066 44.5 371.464 44.6739 371.748 44.9798L390.1 64.7602C390.357 65.0376 390.5 65.402 390.5 65.7804V171.998V217Z" fill="white" stroke="#333333" stroke-miterlimit="10"/>
<rect x="269" y="88" width="79" height="0.999046" rx="0.499523" fill="#E0E0E0"/>
<rect x="269" y="110" width="79" height="0.999046" rx="0.499523" fill="#E0E0E0"/>
<rect x="300" y="121" width="69" height="0.999046" rx="0.499523" fill="#E0E0E0"/>
<rect x="269" y="132" width="93" height="0.999046" rx="0.499523" fill="#E0E0E0"/>
<rect x="269" y="155" width="74" height="0.999046" rx="0.499523" fill="#E0E0E0"/>
<rect x="269.5" y="72.5" width="61" height="7" rx="0.5" fill="#F8F9F9" stroke="#E0E0E0"/>
<rect x="269.5" y="95.5" width="61" height="7" rx="0.5" fill="#F8F9F9" stroke="#E0E0E0"/>
<rect x="269.5" y="117.5" width="22.1867" height="7" rx="0.5" fill="#F8F9F9" stroke="#E0E0E0"/>
<rect x="337.5" y="95.5" width="31" height="7" rx="0.5" fill="#F8F9F9" stroke="#E0E0E0"/>
<rect x="-0.5" y="0.5" width="60.8312" height="7" rx="0.5" transform="matrix(-1 0 0 1 367.468 139)" fill="#F8F9F9" stroke="#E0E0E0"/>
<rect x="-0.5" y="0.5" width="31.2597" height="7" rx="0.5" transform="matrix(-1 0 0 1 300.26 139)" fill="#F8F9F9" stroke="#E0E0E0"/>
<path fill-rule="evenodd" clip-rule="evenodd" d="M369 45H370.077V64.9756H390V66H369V45Z" fill="#333333"/>
<path fill-rule="evenodd" clip-rule="evenodd" d="M269 166.5C269 166.224 269.224 166 269.5 166H269.5H294.5H319.499H344.499H368.5C368.767 166 368.985 166.209 368.999 166.472C369.013 166.209 369.231 166 369.498 166C369.774 166 369.998 166.224 369.998 166.5V199.496C369.998 199.772 369.774 199.996 369.498 199.996C369.231 199.996 369.013 199.787 368.999 199.524C368.985 199.787 368.767 199.996 368.5 199.996H344.502L344.499 199.996L344.496 199.996H319.502L319.499 199.996L319.496 199.996H294.503L294.5 199.996L294.497 199.996H269.503C269.502 199.996 269.501 199.996 269.5 199.996C269.224 199.996 269 199.772 269 199.496L269 199.474M270 188.997L270 187.998H294L294 177.998H270L270 176.999H294V166.999H270M269 166.5C269 166.507 269 166.514 269 166.522L269 166.5ZM269 166.522L269 177.476C269 177.484 269 177.491 269 177.499C269 177.506 269 177.514 269 177.521L269 188.475C269 188.483 269 188.49 269 188.498C269 188.505 269 188.513 269 188.52M270 188.997H294V198.997H270M368.5 166.999C368.763 166.999 368.979 166.796 368.999 166.538V177.46C368.979 177.202 368.763 176.999 368.5 176.999H344.999V166.999H368.5ZM368.5 177.998C368.763 177.998 368.979 177.795 368.999 177.537V188.459C368.979 188.201 368.763 187.998 368.5 187.998H344.999V177.998H368.5ZM368.5 188.997C368.763 188.997 368.979 188.794 368.999 188.536V199.458C368.979 199.2 368.763 198.997 368.5 198.997H344.999V188.997H368.5ZM343.999 198.997V188.997H319.999V198.997H343.999ZM343.999 187.998V177.998H319.999V187.998H343.999ZM343.999 176.999V166.999H319.999V176.999H343.999ZM295 166.999H319V176.999H295V166.999ZM295 177.998H319V187.998H295L295 177.998ZM295 188.997H319V198.997H295V188.997Z" fill="#E0E0E0"/>
<rect x="287" y="57" width="59" height="3" rx="1.5" fill="#D0D5DA"/>
<path d="M192.5 66C192.5 57.9921 186.012 51.5 178.004 51.5L149.5 51.5L120.996 51.5C112.988 51.5 106.5 57.9921 106.5 66V210C106.5 218.008 112.992 224.5 121 224.5H178C186.008 224.5 192.5 218.008 192.5 210V66Z" fill="#333333"/>
<path d="M192.5 66C192.5 57.9921 186.012 51.5 178.004 51.5L149.5 51.5L120.996 51.5C112.988 51.5 106.5 57.9921 106.5 66V210C106.5 218.008 112.992 224.5 121 224.5H178C186.008 224.5 192.5 218.008 192.5 210V66Z" fill="url(#paint1_linear_6435_121757)"/>
<path d="M192.5 66C192.5 57.9921 186.012 51.5 178.004 51.5L149.5 51.5L120.996 51.5C112.988 51.5 106.5 57.9921 106.5 66V210C106.5 218.008 112.992 224.5 121 224.5H178C186.008 224.5 192.5 218.008 192.5 210V66Z" stroke="#333333"/>
<path d="M188.5 67C188.5 60.6488 183.352 55.5 177.001 55.5L160.92 55.5C159.703 55.5 158.518 55.9038 157.554 56.6485L154.173 59.2625C151.471 61.3507 147.7 61.3507 144.999 59.2625L141.617 56.6485C140.654 55.904 139.471 55.5 138.254 55.5L121.997 55.5C115.645 55.5 110.5 60.6489 110.5 67V209C110.5 215.351 115.649 220.5 122 220.5H177C183.351 220.5 188.5 215.351 188.5 209V67Z" fill="white" stroke="#333333"/>
<circle cx="149.369" cy="56.0999" r="1.36634" fill="#333333"/>
<path d="M193 72.8405C194 72.8405 194 73.5353 194 73.5353V92.7496C194 92.7496 194 93.6257 193 93.6257C193 88.7373 193 72.8405 193 72.8405Z" fill="#333333"/>
<path d="M193 97.2944C194 97.2944 194 97.9734 194 97.9734V104.941C194 104.941 194 105.797 193 105.797C193 101.02 193 97.2944 193 97.2944Z" fill="#333333"/>
<rect x="118" y="97" width="61" height="0.999046" rx="0.499523" fill="#E0E0E0"/>
<rect x="118" y="118" width="60" height="0.999046" rx="0.499523" fill="#E0E0E0"/>
<rect x="118" y="172" width="60" height="0.999046" rx="0.499523" fill="#E0E0E0"/>
<rect x="140" y="127" width="38" height="0.999046" rx="0.499523" fill="#E0E0E0"/>
<rect x="118" y="137" width="60" height="0.999046" rx="0.499523" fill="#E0E0E0"/>
<rect x="118.5" y="83.5" width="30.7354" height="7" rx="0.5" fill="#F8F9F9" stroke="#E0E0E0"/>
<rect x="118.5" y="104.5" width="60" height="7" rx="0.5" fill="#F8F9F9" stroke="#E0E0E0"/>
<rect x="118.5" y="123.5" width="16.25" height="7" rx="0.5" fill="#F8F9F9" stroke="#E0E0E0"/>
<rect x="153.5" y="83.5" width="26" height="7" rx="0.5" fill="#F8F9F9" stroke="#E0E0E0"/>
<rect width="38" height="0.999046" rx="0.499523" transform="matrix(-1 0 0 1 156 162)" fill="#E0E0E0"/>
<rect x="-0.5" y="0.5" width="16.25" height="7" rx="0.5" transform="matrix(-1 0 0 1 177 158)" fill="#F8F9F9" stroke="#E0E0E0"/>
<rect x="118.5" y="144.5" width="26" height="7" rx="0.5" fill="#F8F9F9" stroke="#E0E0E0"/>
<rect x="149.5" y="144.5" width="29.5" height="7" rx="0.5" fill="#F8F9F9" stroke="#E0E0E0"/>
<path fill-rule="evenodd" clip-rule="evenodd" d="M118.5 181C118.224 181 118 181.224 118 181.5C118 181.507 118 181.514 118 181.522L118 189.477C118 189.485 118 189.492 118 189.5C118 189.507 118 189.514 118 189.522L118 196.477C118 196.485 118 196.492 118 196.5C118 196.507 118 196.514 118 196.522L118 203.477C118 203.485 118 203.492 118 203.5C118 203.596 118.027 203.686 118.075 203.763C118.163 203.905 118.32 204 118.5 204C118.511 204 118.521 204 118.531 203.999H138.469C138.479 204 138.489 204 138.5 204L138.514 204L138.531 203.999H158.468L158.484 204L158.499 204C158.51 204 158.52 204 158.53 203.999H178.468C178.478 204 178.488 204 178.499 204C178.774 204 178.997 203.778 178.999 203.503L178.999 203.5L178.999 203.497V196.502L178.999 196.5L178.999 196.497V189.502L178.999 189.5L178.999 189.497V181.502L178.999 181.5C178.999 181.224 178.775 181 178.499 181H178.499H158.499H138.5H118.5H118.5ZM119 181.999L119 189H138V181.999H119ZM119 189.999L119 196H138L138 189.999H119ZM119 196.999L119 203H138V196.999H119ZM177.999 196.999V203H158.999V196.999H177.999ZM177.999 189.999V196H158.999V189.999H177.999ZM177.999 181.999V189H158.999V181.999H177.999ZM158 181.999H139V189H158V181.999ZM158 189.999H139L139 196H158V189.999ZM158 196.999H139V203H158V196.999Z" fill="#E0E0E0"/>
<rect x="131" y="72" width="39" height="3" rx="1.5" fill="#D0D5DA"/>
<defs>
<linearGradient id="paint0_linear_6435_121757" x1="214.234" y1="57.5951" x2="258.14" y2="260.88" gradientUnits="userSpaceOnUse">
<stop stop-color="#FFCE95"/>
<stop offset="1" stop-color="#FF8D63"/>
</linearGradient>
<linearGradient id="paint1_linear_6435_121757" x1="110.733" y1="54.6256" x2="205.633" y2="213.05" gradientUnits="userSpaceOnUse">
<stop stop-color="#FFCE95"/>
<stop offset="1" stop-color="#FF8D63"/>
</linearGradient>
</defs>
</svg>
