<svg width="4240" height="3044" viewBox="0 0 4240 3044" fill="none" xmlns="http://www.w3.org/2000/svg">
<g clip-path="url(#clip0_60_1073)">
<path fill-rule="evenodd" clip-rule="evenodd" d="M2987.63 1032.76L3679.04 2274.48C3738.29 2382.49 3684.69 2447.5 3559.23 2419.78L2059.24 2127.37C1930.63 2103.48 1819.02 2065.17 1724.35 1892.24L1018.94 636.213C959.693 528.198 1013.3 463.192 1138.76 490.905L2638.74 783.314C2837.16 821.328 2929.31 931.438 2987.63 1032.76Z" fill="url(#paint0_linear_60_1073)"/>
<path fill-rule="evenodd" clip-rule="evenodd" d="M2987.63 1032.76L3679.04 2274.48C3738.29 2382.49 3684.69 2447.5 3559.23 2419.78L2059.24 2127.37C1930.63 2103.48 1819.02 2065.17 1724.35 1892.24L1018.94 636.213C959.693 528.198 1013.3 463.192 1138.76 490.905L2638.74 783.314C2837.16 821.328 2929.31 931.438 2987.63 1032.76Z" fill="#E7F8FF"/>
<path fill-rule="evenodd" clip-rule="evenodd" d="M2811.99 1902.42L4120.1 1523.59C4233.17 1489.4 4243.4 1401.63 4142.96 1327.41L2969.11 411.691C2814.38 286.494 2715.74 289.419 2589.58 331.136L1264.14 716.376C1151.07 750.57 1140.84 838.333 1241.28 912.553L2415.14 1828.28C2570.8 1949.67 2685.19 1947.57 2811.99 1902.42Z" fill="url(#paint1_linear_60_1073)"/>
<path fill-rule="evenodd" clip-rule="evenodd" d="M2811.99 1902.42L4120.1 1523.59C4233.17 1489.4 4243.4 1401.63 4142.96 1327.41L2969.11 411.691C2814.38 286.494 2715.74 289.419 2589.58 331.136L1264.14 716.376C1151.07 750.57 1140.84 838.333 1241.28 912.553L2415.14 1828.28C2570.8 1949.67 2685.19 1947.57 2811.99 1902.42Z" fill="#D1F2FF"/>
<g style="mix-blend-mode:overlay" opacity="0.4">
<path fill-rule="evenodd" clip-rule="evenodd" d="M1638.57 2265.11L2914.71 1876.35C3027.73 1840.75 3041.31 1759.55 2945.07 1694.85L1822.13 894.148C1726.69 824.666 1559.01 797.41 1450.53 833.742L126.286 1236.65C13.2673 1272.24 -0.312898 1353.44 95.9304 1418.15L1218.87 2218.85C1329.15 2302.78 1466.55 2318.25 1638.57 2265.11Z" fill="url(#paint2_linear_60_1073)"/>
<path fill-rule="evenodd" clip-rule="evenodd" d="M1638.57 2265.11L2914.71 1876.35C3027.73 1840.75 3041.31 1759.55 2945.07 1694.85L1822.13 894.148C1726.69 824.666 1559.01 797.41 1450.53 833.742L126.286 1236.65C13.2673 1272.24 -0.312898 1353.44 95.9304 1418.15L1218.87 2218.85C1329.15 2302.78 1466.55 2318.25 1638.57 2265.11Z" fill="#E6F8FF"/>
</g>
</g>
<defs>
<linearGradient id="paint0_linear_60_1073" x1="1799.5" y1="524.987" x2="3316.49" y2="1715.3" gradientUnits="userSpaceOnUse">
<stop stop-color="#95C038"/>
<stop offset="1" stop-color="#5DC0E8"/>
</linearGradient>
<linearGradient id="paint1_linear_60_1073" x1="3868.1" y1="1131.66" x2="1045.53" y2="764.37" gradientUnits="userSpaceOnUse">
<stop stop-color="#FF6F3D"/>
<stop offset="1" stop-color="#FEFFC8"/>
</linearGradient>
<linearGradient id="paint2_linear_60_1073" x1="1213.24" y1="2209.49" x2="1361.49" y2="851.66" gradientUnits="userSpaceOnUse">
<stop stop-color="#F0FBFF"/>
<stop offset="1" stop-color="#DBF5FF"/>
</linearGradient>
<clipPath id="clip0_60_1073">
<rect width="4238.98" height="3043.46" fill="white" transform="translate(0.867188 0.0449219)"/>
</clipPath>
</defs>
</svg>
