<svg width="96" height="96" viewBox="0 0 96 96" fill="none" xmlns="http://www.w3.org/2000/svg">
<circle cx="48" cy="48" r="48" fill="#F5F5F5"/>
<path d="M48.3202 24C42.8203 30.9474 36.633 33.4737 27.0084 33.4737C26.7478 54.308 32.5082 63.1579 48.3202 72C63.4444 63.7895 69.6644 53.4407 68.9442 33.4737C60.0071 33.4737 54.4654 30.877 48.3202 24Z" fill="url(#paint0_linear)"/>
<path fill-rule="evenodd" clip-rule="evenodd" d="M55.5945 43.0505C56.2038 43.5574 56.2891 44.4651 55.7851 45.0779L47.8884 54.6779C47.6269 54.9957 47.2425 55.1856 46.8326 55.1992C46.4226 55.2129 46.0265 55.0491 45.7447 54.7493L41.2323 49.9493C40.6891 49.3714 40.7145 48.46 41.2891 47.9136C41.8637 47.3673 42.7699 47.3928 43.3132 47.9707L46.7136 51.5879L53.5786 43.2421C54.0827 42.6293 54.9852 42.5435 55.5945 43.0505Z" fill="white"/>
<defs>
<linearGradient id="paint0_linear" x1="48" y1="24" x2="48" y2="72" gradientUnits="userSpaceOnUse">
<stop stop-color="#FF8E3D"/>
<stop offset="1" stop-color="#FF6F3D"/>
</linearGradient>
</defs>
</svg>
