<svg width="96" height="96" viewBox="0 0 96 96" fill="none" xmlns="http://www.w3.org/2000/svg">
<circle cx="48" cy="48" r="48" fill="#F2F2F2"/>
<path d="M45 27C44.8276 26.9993 44.6568 27.0325 44.4973 27.0978C44.3378 27.1632 44.1927 27.2593 44.0703 27.3807C43.948 27.5022 43.8508 27.6465 43.7843 27.8055C43.7178 27.9646 43.6832 28.1351 43.6827 28.3075V31.6813C42.2197 32.0696 40.8152 32.652 39.5068 33.413L37.1269 31.0331C36.8807 30.7871 36.5469 30.6489 36.1988 30.6489C35.8507 30.6489 35.5169 30.7871 35.2707 31.0331L31.0359 35.2791C30.792 35.5252 30.6551 35.8578 30.6551 36.2044C30.6551 36.551 30.792 36.8836 31.0359 37.1297L33.4158 39.5096C32.6579 40.8184 32.0788 42.2229 31.6939 43.6855H28.3201C28.1469 43.6844 27.9752 43.7176 27.8149 43.7832C27.6546 43.8488 27.5089 43.9455 27.3862 44.0677C27.2634 44.1899 27.1661 44.3352 27.0999 44.4952C27.0336 44.6552 26.9996 44.8268 27 45V46.6799H45.7784L44.0901 45.091C43.896 44.9153 43.7588 44.6857 43.6962 44.4315C43.6336 44.1773 43.6484 43.9103 43.7387 43.6646C43.8289 43.4188 43.9906 43.2057 44.2029 43.0526C44.4152 42.8994 44.6684 42.8132 44.93 42.805C45.1085 42.7983 45.2865 42.8282 45.4531 42.8927C45.6196 42.9572 45.7713 43.055 45.8987 43.1801L49.9585 47.0089C50.0992 47.1326 50.2119 47.2848 50.2891 47.4555C50.3664 47.6261 50.4064 47.8113 50.4064 47.9986C50.4064 48.1859 50.3664 48.3711 50.2891 48.5417C50.2119 48.7124 50.0992 48.8646 49.9585 48.9883L45.8987 52.8171C44.6192 54.0196 42.819 52.1017 44.0971 50.9006L45.7938 49.3103H27V50.9902C26.9993 51.1626 27.0325 51.3334 27.0978 51.4929C27.1632 51.6524 27.2593 51.7975 27.3807 51.9199C27.5022 52.0422 27.6465 52.1394 27.8055 52.2059C27.9646 52.2724 28.1351 52.307 28.3075 52.3075H31.6883C32.0748 53.7701 32.6548 55.1744 33.413 56.4834L31.0331 58.8633C30.7892 59.1095 30.6523 59.442 30.6523 59.7886C30.6523 60.1352 30.7892 60.4678 31.0331 60.714L35.2595 64.9683C35.5057 65.2143 35.8395 65.3525 36.1876 65.3525C36.5357 65.3525 36.8695 65.2143 37.1157 64.9683L39.4956 62.5884C40.8039 63.3503 42.2084 63.9337 43.6715 64.3229V67.6827C43.6708 67.8551 43.704 68.0259 43.7693 68.1854C43.8347 68.3449 43.9308 68.49 44.0522 68.6123C44.1737 68.7347 44.318 68.8319 44.477 68.8984C44.6361 68.9649 44.8066 68.9995 44.979 69H50.986C51.1584 68.9995 51.329 68.9649 51.488 68.8984C51.647 68.8319 51.7914 68.7347 51.9128 68.6123C52.0342 68.49 52.1304 68.3449 52.1957 68.1854C52.261 68.0259 52.2943 67.8551 52.2935 67.6827V64.3229C53.7603 63.9352 55.1681 63.3518 56.4792 62.5884L58.8591 64.9683C59.1053 65.2123 59.4378 65.3491 59.7844 65.3491C60.131 65.3491 60.4636 65.2123 60.7098 64.9683L64.9529 60.7252C65.1969 60.479 65.3337 60.1464 65.3337 59.7998C65.3337 59.4532 65.1969 59.1207 64.9529 58.8745L62.573 56.4946C63.3349 55.1863 63.9183 53.7818 64.3075 52.3187H67.6673C67.8411 52.3211 68.0136 52.289 68.1749 52.2241C68.3361 52.1593 68.4829 52.0631 68.6066 51.941C68.7303 51.819 68.8286 51.6736 68.8956 51.5132C68.9627 51.3529 68.9972 51.1808 68.9972 51.007V45C68.9979 44.8276 68.9647 44.6568 68.8994 44.4973C68.834 44.3378 68.7379 44.1927 68.6165 44.0703C68.495 43.948 68.3507 43.8508 68.1917 43.7843C68.0326 43.7178 67.8621 43.6832 67.6897 43.6827C67.6881 43.682 67.6865 43.6817 67.6848 43.6817C67.6831 43.6817 67.6814 43.682 67.6799 43.6827H64.3089C63.9189 42.2227 63.335 40.8216 62.573 39.5166L64.9683 37.1255C65.2123 36.8794 65.3491 36.5468 65.3491 36.2002C65.3491 35.8536 65.2123 35.521 64.9683 35.2749L60.7252 31.0289C60.479 30.785 60.1464 30.6481 59.7998 30.6481C59.4532 30.6481 59.1207 30.785 58.8745 31.0289L56.4946 33.4088C55.1821 32.6444 53.7729 32.0596 52.3047 31.6701V28.3103C52.304 27.9635 52.1661 27.6311 51.9211 27.3856C51.6761 27.1401 51.344 27.0015 50.9972 27H45Z" fill="url(#paint0_linear)"/>
<defs>
<linearGradient id="paint0_linear" x1="27.0001" y1="25.3594" x2="69.0002" y2="68.9972" gradientUnits="userSpaceOnUse">
<stop stop-color="#FF8E3D"/>
<stop offset="1" stop-color="#FF6F3D"/>
</linearGradient>
</defs>
</svg>
