<svg width="150" height="23" viewBox="0 0 150 23" fill="none" xmlns="http://www.w3.org/2000/svg">
<g clip-path="url(#clip0_6435_122538)">
<path d="M14.3156 12.378C14.3156 8.2763 12.8736 6.4352 12.0828 5.71274C11.9432 5.57291 11.6874 5.68943 11.7106 5.89918C11.8502 8.20638 8.94288 8.78901 8.94288 12.4013V12.4246C8.94288 14.6386 10.6175 16.4331 12.6642 16.4331C14.711 16.4331 16.3856 14.6386 16.3856 12.4246V12.4013C16.3856 11.3759 15.9902 10.3971 15.6181 9.6513C15.525 9.51147 15.3157 9.55808 15.339 9.69791C16.06 12.8674 14.3156 14.7784 14.3156 12.378ZM9.87322 21.0242C9.78019 21.0242 9.68716 20.9776 9.61738 20.9077L0.104663 11.3759C-0.0348877 11.236 -0.0348877 11.003 0.104663 10.8632L10.1523 0.795367C10.2221 0.748757 10.2919 0.702148 10.3849 0.702148H13.269C13.4318 0.702148 13.5481 0.818672 13.5946 0.911893C13.6411 1.02842 13.6411 1.16825 13.5015 1.30808L4.08186 10.7699C3.89579 10.9564 3.89579 11.2594 4.08186 11.4458L11.5478 18.95C11.6874 19.0899 11.6874 19.3229 11.5478 19.4627L10.1058 20.9077C10.0593 20.9776 9.96626 21.0242 9.87322 21.0242ZM11.7804 22.6788C11.6176 22.6788 11.5013 22.5623 11.4548 22.4691C11.4083 22.3526 11.4083 22.2127 11.5478 22.0729L20.9908 12.611C21.0838 12.5178 21.1303 12.4013 21.1303 12.2615C21.1303 12.1216 21.0838 12.0051 20.9908 11.9119L13.5015 4.40766C13.362 4.26783 13.362 4.03478 13.5015 3.89494L14.9436 2.45003C15.0133 2.38011 15.0831 2.3335 15.1994 2.3335C15.3157 2.3335 15.3622 2.40342 15.432 2.47333L24.9215 12.0051C24.9912 12.075 25.0378 12.1449 25.0378 12.2615C25.0378 12.378 24.9912 12.4479 24.9215 12.5178L14.8738 22.5856C14.804 22.6555 14.7342 22.7021 14.618 22.7021L11.7804 22.6788Z" fill="#FF6600"/>
<path d="M35.7366 7.57765C35.6901 7.67087 35.6203 7.71748 35.5273 7.71748C35.4575 7.71748 35.3877 7.67087 35.2714 7.57765C35.1552 7.48442 35.0156 7.3679 34.8528 7.25138C34.6667 7.11154 34.4574 7.01832 34.1783 6.9251C33.8992 6.80857 33.5503 6.78527 33.1549 6.78527C32.7595 6.78527 32.4107 6.85518 32.085 6.94841C31.7827 7.06493 31.5268 7.22807 31.3175 7.41451C31.1082 7.60095 30.9454 7.834 30.8523 8.09035C30.736 8.34671 30.6895 8.62637 30.6895 8.90603C30.6895 9.30222 30.7826 9.58188 30.9221 9.83823C31.0617 10.0713 31.2942 10.281 31.5733 10.4675C31.8292 10.6306 32.1316 10.7937 32.4804 10.887C32.8293 11.0268 33.1549 11.12 33.5038 11.2365C33.8527 11.3531 34.1783 11.4696 34.5272 11.6327C34.8761 11.7726 35.1552 11.959 35.4343 12.1454C35.7134 12.3319 35.8994 12.6115 36.0855 12.9145C36.225 13.2175 36.3181 13.5904 36.3181 14.0565C36.3181 14.5226 36.225 14.9654 36.0855 15.3615C35.9459 15.7577 35.6901 16.1306 35.411 16.4336C35.1319 16.7365 34.7365 16.9696 34.2946 17.156C33.8527 17.3192 33.3643 17.4124 32.806 17.4124C32.085 17.4124 31.4338 17.2726 30.9221 17.0162C30.3872 16.7598 29.9453 16.387 29.5266 15.9442L29.6662 15.5946C29.7359 15.5014 29.8057 15.4781 29.8755 15.4781C29.922 15.4781 29.9918 15.5014 30.0383 15.5713C30.1081 15.6412 30.2011 15.7111 30.2941 15.8043C30.4104 15.8976 30.5267 15.9908 30.6895 16.1073C30.8523 16.2238 31.0151 16.3171 31.2012 16.4103C31.3873 16.5035 31.5966 16.5734 31.8525 16.6433C32.1083 16.7132 32.3874 16.7365 32.713 16.7365C33.1549 16.7365 33.5503 16.6666 33.8992 16.5501C34.2481 16.4103 34.5504 16.2238 34.783 16.0141C35.0156 15.8043 35.2017 15.5014 35.3412 15.1984C35.4808 14.8721 35.5273 14.5459 35.5273 14.1963C35.5273 13.8001 35.4343 13.4971 35.2947 13.2408C35.1552 12.9844 34.9226 12.7747 34.6435 12.5882C34.3876 12.4251 34.0853 12.262 33.7364 12.1687C33.3875 12.0522 33.0619 11.9357 32.713 11.8192C32.3641 11.7026 32.0385 11.5861 31.6896 11.4463C31.3408 11.3065 31.0617 11.1433 30.7826 10.9336C30.5267 10.7238 30.3174 10.4675 30.1313 10.1412C29.9918 9.81493 29.8987 9.44205 29.8987 8.95264C29.8987 8.57976 29.9685 8.23018 30.1081 7.88061C30.2476 7.53103 30.4569 7.22807 30.736 6.94841C31.0151 6.69205 31.3408 6.48231 31.7362 6.29587C32.1316 6.15603 32.5967 6.06281 33.1084 6.06281C33.6899 6.06281 34.2016 6.15603 34.6667 6.34247C35.1086 6.52891 35.5505 6.80857 35.9227 7.18146L35.7366 7.57765ZM32.6898 17.5988C31.9455 17.5988 31.271 17.459 30.736 17.2026C30.2011 16.9463 29.7127 16.5501 29.294 16.1073L29.2242 16.0374L29.5033 15.6179C29.6429 15.4781 29.7359 15.4548 29.829 15.4548C29.922 15.4548 29.9918 15.5014 30.0848 15.5946C30.1546 15.6645 30.2476 15.7344 30.3639 15.8276C30.4802 15.9209 30.5965 16.0141 30.736 16.1306C30.8756 16.2471 31.0384 16.3171 31.2245 16.4103C31.4105 16.5035 31.6199 16.5734 31.8757 16.62C32.1083 16.6899 32.3874 16.7132 32.713 16.7132C33.1317 16.7132 33.5271 16.6433 33.8527 16.5268C34.1783 16.387 34.4574 16.2238 34.69 16.0141C34.8993 15.8043 35.0854 15.548 35.2017 15.245C35.3412 14.9421 35.3645 14.6158 35.3645 14.2895C35.3645 13.9166 35.2947 13.637 35.1552 13.3806C35.0156 13.1243 34.8063 12.9611 34.5504 12.7747C34.2946 12.6115 34.0155 12.4717 33.6899 12.3785C33.3643 12.262 33.0386 12.1454 32.6665 12.0289C32.2944 11.9124 31.9687 11.7959 31.6431 11.656C31.2942 11.5162 30.9919 11.3298 30.7128 11.12C30.4337 10.9103 30.2244 10.6073 30.0615 10.281C29.8987 9.93146 29.8057 9.53527 29.8057 9.04586C29.8057 8.64968 29.8755 8.2768 30.015 7.90392C30.1546 7.53103 30.3872 7.22807 30.6663 6.94841C30.9454 6.66874 31.3175 6.459 31.7129 6.29587C32.1083 6.13273 32.62 6.03951 33.1317 6.03951C33.7364 6.03951 34.2713 6.13273 34.7365 6.31917C35.2017 6.50561 35.6436 6.80858 36.039 7.20476L36.1088 7.27467L35.8762 7.71748C35.7366 7.95053 35.504 8.02044 35.2249 7.74078C35.1086 7.64756 34.9923 7.55434 34.8063 7.43781C34.6435 7.32129 34.4109 7.22807 34.155 7.11154C33.8992 7.01832 33.5736 6.97171 33.1782 6.97171C32.7828 6.97171 32.4572 7.04163 32.1548 7.13485C31.8757 7.25138 31.6199 7.3912 31.4338 7.57765C31.2477 7.76409 31.0849 7.97383 30.9919 8.23018C30.8989 8.48654 30.8523 8.7429 30.8523 8.99926C30.8523 9.34883 30.9221 9.6518 31.0617 9.86154C31.2012 10.0946 31.4105 10.281 31.6664 10.4675C31.9222 10.6306 32.2013 10.7704 32.5269 10.887C32.8526 11.0035 33.1782 11.12 33.5503 11.2365C33.8992 11.3531 34.2481 11.4696 34.5737 11.6327C34.9226 11.7726 35.2249 11.959 35.504 12.1687C35.7831 12.3785 35.9925 12.6582 36.1553 12.9844C36.3181 13.3107 36.4111 13.7069 36.4111 14.173C36.4111 14.6391 36.3181 15.1052 36.1553 15.548C35.9925 15.9675 35.7599 16.3404 35.4343 16.6666C35.1086 16.9929 34.7365 17.2259 34.2713 17.4124C33.8062 17.4823 33.2712 17.5988 32.6898 17.5988ZM29.5964 15.9908C29.9685 16.387 30.3872 16.7132 30.8756 16.9463C31.3873 17.2026 32.0153 17.3425 32.713 17.3425C33.248 17.3425 33.7364 17.2493 34.155 17.0861C34.5737 16.923 34.9226 16.6899 35.2249 16.4103C35.504 16.1306 35.7366 15.7577 35.8762 15.3848C36.0157 14.9887 36.1088 14.5692 36.1088 14.1264C36.1088 13.7069 36.0157 13.334 35.8994 13.031C35.7599 12.7514 35.5505 12.495 35.2947 12.3086C35.0389 12.1221 34.7598 11.9357 34.4341 11.7959C34.1085 11.656 33.7829 11.5395 33.434 11.3997C33.0852 11.2832 32.7595 11.1666 32.4107 11.0501C32.0618 10.9103 31.7594 10.7704 31.4803 10.6073C31.2012 10.4442 30.9919 10.2111 30.8291 9.95476C30.6663 9.6984 30.5732 9.34883 30.5732 8.95264C30.5732 8.64968 30.643 8.34671 30.736 8.06705C30.8291 7.78739 31.0151 7.53104 31.2245 7.34459C31.4338 7.13485 31.7129 6.94841 32.0385 6.85519C32.3641 6.71536 32.7363 6.69205 33.1549 6.69205C33.5736 6.69205 33.9225 6.73866 34.2248 6.83188C34.5039 6.94841 34.7598 7.04163 34.9226 7.18146C35.1086 7.32129 35.2714 7.41451 35.3645 7.53103C35.504 7.64756 35.5273 7.64756 35.5273 7.64756C35.5505 7.64756 35.5971 7.64756 35.6203 7.57765L35.7599 7.29798C35.411 6.97171 35.0389 6.71536 34.6202 6.55222C34.1783 6.38909 33.6899 6.29587 33.1317 6.29587C32.6432 6.29587 32.2013 6.38909 31.8059 6.52892C31.4105 6.66875 31.1082 6.9018 30.8523 7.13485C30.5965 7.39121 30.4104 7.67086 30.2476 8.02044C30.1081 8.34671 30.0615 8.67298 30.0615 9.04586C30.0615 9.48866 30.1546 9.88484 30.2941 10.1878C30.4337 10.4908 30.643 10.7471 30.8989 10.9336C31.1547 11.12 31.4338 11.3065 31.7594 11.423C32.085 11.5628 32.4107 11.6793 32.7595 11.7959C33.1084 11.9124 33.434 12.0056 33.7829 12.1454C34.1318 12.2853 34.4341 12.4018 34.7132 12.5882C34.9923 12.7514 35.2249 12.9844 35.3645 13.2641C35.5273 13.5437 35.6203 13.8933 35.6203 14.3128C35.6203 14.709 35.5505 15.0353 35.4343 15.3848C35.2947 15.7344 35.1086 16.0141 34.8528 16.2471C34.597 16.4802 34.2946 16.6666 33.9225 16.8298C33.5503 16.9696 33.1549 17.0395 32.713 17.0395C32.3874 17.0395 32.085 16.9929 31.8059 16.923C31.5501 16.8531 31.3175 16.7832 31.1314 16.6899C30.9454 16.5967 30.736 16.5035 30.5965 16.3637C30.4569 16.2471 30.3174 16.1539 30.2011 16.0607C30.0848 15.9675 30.015 15.8976 29.9453 15.8276C29.8755 15.7577 29.829 15.7577 29.829 15.7577C29.8057 15.7577 29.7592 15.7577 29.7127 15.8276L29.5964 15.9908ZM48.459 11.7726C48.459 12.6348 48.3195 13.4039 48.0636 14.1031C47.8078 14.8022 47.4356 15.4082 46.9705 15.8976C46.5053 16.387 45.9471 16.7832 45.2959 17.0628C44.6446 17.3425 43.9236 17.459 43.1328 17.459C42.3653 17.459 41.6443 17.3192 40.993 17.0628C40.3418 16.7832 39.8069 16.4103 39.3184 15.8976C38.8533 15.4082 38.4811 14.8022 38.2253 14.1031C37.9694 13.4039 37.8299 12.6348 37.8299 11.7726C37.8299 10.9103 37.9694 10.1412 38.2253 9.44205C38.4811 8.7429 38.8533 8.13696 39.3184 7.64756C39.7836 7.15815 40.3418 6.76196 40.993 6.4823C41.6443 6.20264 42.3653 6.08612 43.1328 6.08612C43.9236 6.08612 44.6446 6.22595 45.2959 6.4823C45.9471 6.76196 46.482 7.13485 46.9705 7.64756C47.4356 8.13696 47.8078 8.7429 48.0636 9.44205C48.3195 10.1412 48.459 10.9103 48.459 11.7726ZM47.6217 11.7726C47.6217 11.0035 47.5054 10.3043 47.2961 9.6751C47.0868 9.04587 46.7844 8.53315 46.389 8.11366C45.9936 7.69417 45.5284 7.3679 44.9702 7.13485C44.412 6.9018 43.8073 6.78527 43.1561 6.78527C42.5048 6.78527 41.9001 6.9018 41.3419 7.13485C40.7837 7.3679 40.3185 7.69417 39.9231 8.11366C39.5277 8.53315 39.2254 9.04587 38.9928 9.6751C38.7602 10.3043 38.6672 10.9802 38.6672 11.7726C38.6672 12.5416 38.7835 13.2408 38.9928 13.87C39.2021 14.4993 39.5045 15.012 39.9231 15.4315C40.3185 15.8509 40.7837 16.1772 41.3419 16.4103C41.9001 16.6433 42.5048 16.7598 43.1561 16.7598C43.8073 16.7598 44.4353 16.6433 44.9702 16.4103C45.5284 16.2005 45.9936 15.8509 46.389 15.4315C46.7844 15.012 47.0635 14.4993 47.2961 13.87C47.5287 13.2408 47.6217 12.5649 47.6217 11.7726ZM43.1793 17.5755C42.3885 17.5755 41.6443 17.4357 40.993 17.1793C40.3418 16.8997 39.7603 16.5268 39.2719 15.9908C38.8067 15.4781 38.4113 14.8721 38.1555 14.1497C37.8997 13.4505 37.7601 12.6348 37.7601 11.7726C37.7601 10.9103 37.8997 10.0946 38.1555 9.39544C38.4113 8.69629 38.8067 8.06705 39.2719 7.55434C39.7371 7.04163 40.3185 6.64544 40.993 6.36578C41.6443 6.08612 42.3885 5.94629 43.1793 5.94629C43.9934 5.94629 44.7144 6.08612 45.3889 6.34247C46.0401 6.62213 46.6216 6.99502 47.11 7.53103C47.5984 8.06705 47.9706 8.67298 48.2264 9.37213C48.4823 10.0713 48.6218 10.8637 48.6218 11.7493C48.6218 12.6348 48.4823 13.4272 48.2264 14.1264C47.9706 14.8255 47.5752 15.4548 47.11 15.9675C46.6448 16.4802 46.0634 16.8764 45.3889 17.156C44.7144 17.4357 43.9701 17.5755 43.1793 17.5755ZM43.1793 6.22595C42.4351 6.22595 41.7373 6.36578 41.0861 6.62214C40.4581 6.87849 39.8999 7.27467 39.458 7.74078C39.0161 8.20688 38.6439 8.81281 38.4113 9.48866C38.1555 10.1645 38.0159 10.9336 38.0159 11.7726C38.0159 12.6115 38.1555 13.3806 38.4113 14.0565C38.6672 14.7323 39.0161 15.3149 39.458 15.8043C39.8999 16.2704 40.4581 16.6666 41.0861 16.923C41.714 17.1793 42.4118 17.3192 43.1793 17.3192C43.9469 17.3192 44.6446 17.1793 45.2726 16.923C45.9006 16.6666 46.4588 16.2704 46.9007 15.8043C47.3426 15.3382 47.7147 14.7323 47.9473 14.0798C48.2032 13.4039 48.3427 12.6349 48.3427 11.7959C48.3427 10.9569 48.2032 10.1878 47.9473 9.51196C47.6915 8.83612 47.3426 8.25349 46.9007 7.76408C46.4588 7.29798 45.9006 6.9018 45.2726 6.64544C44.6446 6.34248 43.9469 6.22595 43.1793 6.22595ZM54.8086 16.7598C55.3435 16.7598 55.8087 16.6666 56.2506 16.4802C56.6692 16.2937 57.0181 16.0374 57.3205 15.7111C57.6228 15.3848 57.8322 14.9887 57.9717 14.5459C58.1113 14.1031 58.2043 13.6137 58.2043 13.1009V6.22595H58.9951V13.1009C58.9951 13.7302 58.8788 14.2895 58.6927 14.8255C58.5067 15.3615 58.2276 15.8043 57.8554 16.2238C57.4833 16.62 57.0414 16.923 56.5297 17.156C56.018 17.3658 55.4133 17.5056 54.7853 17.5056C54.1341 17.5056 53.5526 17.3891 53.0409 17.156C52.5292 16.923 52.0873 16.62 51.7152 16.2238C51.3431 15.8276 51.064 15.3615 50.8779 14.8255C50.6918 14.2895 50.5755 13.7069 50.5755 13.1009V6.22595H51.3896V13.0776C51.3896 13.5904 51.4826 14.0798 51.6222 14.5226C51.7617 14.9654 52.0176 15.3615 52.2734 15.6878C52.5758 16.0141 52.9246 16.2704 53.3433 16.4569C53.7852 16.6666 54.2736 16.7598 54.8086 16.7598ZM54.8086 17.5988C54.1573 17.5988 53.5526 17.4823 53.0177 17.2493C52.4827 17.0162 52.0176 16.6899 51.6454 16.2937C51.2733 15.8976 50.9942 15.3848 50.7849 14.8488C50.5988 14.3128 50.4825 13.7069 50.4825 13.1009V6.10942H51.5524V13.1009C51.5524 13.5904 51.6454 14.0565 51.7617 14.5226C51.9013 14.942 52.1338 15.3382 52.4129 15.6412C52.692 15.9675 53.0409 16.2005 53.4363 16.387C53.8317 16.5501 54.2969 16.6666 54.8086 16.6666C55.3203 16.6666 55.7854 16.5734 56.1808 16.4103C56.5762 16.2471 56.9251 15.9908 57.2042 15.6645C57.4833 15.3382 57.6926 14.9887 57.8554 14.5459C57.995 14.1264 58.0648 13.637 58.0648 13.1243V6.10942H59.1346V13.1009C59.1346 13.7302 59.0184 14.3128 58.8323 14.8488C58.6462 15.3848 58.3439 15.8743 57.9717 16.2937C57.5996 16.6899 57.1344 17.0162 56.5995 17.2493C56.0645 17.4823 55.4598 17.5988 54.8086 17.5988ZM50.7151 6.34247V13.0776C50.7151 13.6836 50.8081 14.2429 50.9942 14.7556C51.1802 15.2683 51.4361 15.7111 51.8082 16.1073C52.1571 16.5035 52.5758 16.7832 53.0874 17.0162C53.5759 17.226 54.1573 17.3425 54.8086 17.3425C55.4365 17.3425 55.9948 17.226 56.5297 17.0162C57.0181 16.8065 57.46 16.5035 57.8089 16.1073C58.1578 15.7111 58.4369 15.2683 58.623 14.7556C58.809 14.2429 58.9021 13.6836 58.9021 13.0776V6.34247H58.3671V13.0776C58.3671 13.6137 58.2741 14.1031 58.1345 14.5692C57.995 15.0353 57.7391 15.4548 57.4368 15.781C57.1344 16.1306 56.7623 16.4103 56.3204 16.5967C55.8785 16.7832 55.39 16.8997 54.8551 16.8997C54.2969 16.8997 53.8085 16.7832 53.3898 16.5967C52.9712 16.4103 52.5758 16.1306 52.2734 15.781C51.971 15.4315 51.7385 15.0353 51.5989 14.5692C51.4594 14.1264 51.3663 13.6137 51.3663 13.0776V6.34247H50.7151ZM63.6003 11.7026C63.8096 11.7026 63.7863 11.7026 63.7863 11.7026H64.2515C64.7399 11.7026 65.1819 11.6327 65.5772 11.5395C65.9726 11.3997 66.2983 11.2598 66.5541 11.0268C66.8332 10.817 67.0193 10.5374 67.1821 10.2344C67.3216 9.93146 67.3914 9.58188 67.3914 9.18569C67.3914 8.39332 67.1356 7.81069 66.6239 7.43781C66.1122 7.04163 65.3679 6.85519 64.3678 6.85519H62.3443V11.7259V12.3319V17.3658H61.5303V6.24925H64.3445C65.6238 6.24925 66.5774 6.50561 67.2053 6.99502C67.8566 7.48442 68.1357 8.20688 68.1357 9.18569C68.1357 9.60519 68.0659 10.0014 67.9263 10.3509C67.7868 10.7005 67.5542 11.0035 67.2751 11.2832C66.996 11.5395 66.6704 11.7726 66.2983 11.9357C65.9029 12.0988 65.4609 12.2154 64.9958 12.2853C65.1353 12.3785 65.2284 12.4717 65.3447 12.6115L69.159 17.4124H68.4613C68.3683 17.4124 68.3217 17.3891 68.252 17.3658C68.1822 17.3425 68.1124 17.2726 68.0892 17.226L64.5539 12.6348C64.4608 12.5183 64.3678 12.4484 64.2748 12.4018C64.1585 12.3552 63.5538 12.3319 63.3444 12.3319C63.3444 11.7726 63.4142 11.7026 63.6003 11.7026ZM69.4614 17.459H68.5078C68.3915 17.459 68.3217 17.4357 68.2287 17.3891C68.1357 17.3425 68.0892 17.2726 68.0194 17.2026L64.4608 12.7048C64.3678 12.5882 64.3213 12.5416 64.2283 12.495C64.1352 12.4717 63.6235 12.4251 63.3444 12.4251H63.2049V11.8658C63.2049 11.6793 63.2514 11.5628 63.6003 11.5628C63.7863 11.5628 63.8096 11.5628 63.8096 11.5628H64.2748C64.7399 11.5628 65.1819 11.4929 65.554 11.3997C65.9261 11.2832 66.2285 11.12 66.4843 10.9103C66.7402 10.7005 66.9262 10.4675 67.0658 10.1645C67.2053 9.86155 67.2519 9.53527 67.2519 9.18569C67.2519 8.43993 67.0193 7.90391 66.5308 7.53103C66.0424 7.15815 65.3214 6.97171 64.3445 6.97171H62.4373V17.4357H61.3675V6.08612H64.3445C65.647 6.08612 66.6239 6.34247 67.2984 6.85519C67.9496 7.3679 68.2985 8.13696 68.2985 9.13908C68.2985 9.58188 68.2055 10.0014 68.0659 10.3509C67.9264 10.7005 67.6705 11.0268 67.4147 11.3065C67.1356 11.5861 66.7634 11.7959 66.3913 11.9823C66.0657 12.1221 65.7401 12.2154 65.3447 12.2853C65.3912 12.3319 65.4377 12.3785 65.4842 12.4251L69.4614 17.459ZM63.4607 12.1687C63.6933 12.1687 64.1817 12.1921 64.3213 12.262C64.4608 12.3319 64.5539 12.4018 64.6702 12.5416L68.2287 17.0395C68.2752 17.1094 68.3217 17.156 68.3683 17.1793C68.4148 17.2026 68.4613 17.226 68.5078 17.226H68.9265L65.2516 12.6348C65.1586 12.495 65.0656 12.4251 64.9493 12.3552L64.6236 12.1687L65.019 12.1221C65.4842 12.0755 65.9261 11.9823 66.275 11.7959C66.6471 11.6327 66.9495 11.423 67.2286 11.1666C67.4844 10.9103 67.6938 10.6306 67.8333 10.281C67.9729 9.93146 68.0426 9.58188 68.0426 9.16239C68.0426 8.23018 67.7403 7.55434 67.1356 7.08824C66.5308 6.62214 65.6005 6.38908 64.3678 6.38908H61.6698V17.2026H62.2048V6.71535H64.3678C65.3679 6.71535 66.1587 6.9018 66.6936 7.32129C67.2519 7.71747 67.531 8.34671 67.531 9.18569C67.531 9.58188 67.4379 9.95477 67.3216 10.281C67.1821 10.6073 66.9495 10.887 66.6704 11.12C66.3913 11.3531 66.0424 11.5162 65.647 11.656C65.2516 11.7959 64.7865 11.8425 64.2748 11.8425H63.8096C63.7863 11.8425 63.7631 11.8425 63.6235 11.8425C63.5538 11.8425 63.484 11.8425 63.4607 12.1687ZM78.5787 15.4548C78.6253 15.4548 78.695 15.4781 78.7183 15.5247L79.0439 15.8743C78.8113 16.1073 78.5787 16.3404 78.2996 16.5268C78.0205 16.7132 77.7182 16.8997 77.3926 17.0162C77.0669 17.156 76.7181 17.2493 76.3459 17.3425C75.9505 17.4357 75.5319 17.459 75.09 17.459C74.3224 17.459 73.6247 17.3192 72.9734 17.0628C72.3222 16.7832 71.7873 16.4103 71.3221 15.8976C70.8802 15.4082 70.508 14.8022 70.2522 14.1031C69.9964 13.4039 69.8568 12.6348 69.8568 11.7726C69.8568 10.9336 69.9964 10.1645 70.2522 9.46536C70.508 8.76621 70.9034 8.18358 71.3686 7.67086C71.8338 7.18146 72.4152 6.78527 73.0897 6.50561C73.741 6.22595 74.5085 6.10942 75.2993 6.10942C75.6947 6.10942 76.0668 6.13273 76.4157 6.20264C76.7646 6.27256 77.0669 6.34247 77.346 6.459C77.6484 6.57552 77.9042 6.71536 78.1601 6.87849C78.4159 7.04163 78.6718 7.25137 78.9044 7.46112L78.6718 7.8107C78.6253 7.88061 78.5555 7.90392 78.4857 7.90392C78.4392 7.90392 78.3694 7.88061 78.3229 7.8107C78.2764 7.74078 78.1601 7.67087 78.0438 7.60095C77.9275 7.50773 77.7879 7.43781 77.6484 7.34459C77.5088 7.22807 77.2995 7.15815 77.0669 7.08824C76.8576 6.99502 76.6018 6.94841 76.2994 6.87849C76.0203 6.80858 75.6714 6.78527 75.3225 6.78527C74.6481 6.78527 74.0201 6.9018 73.4619 7.13485C72.9037 7.3679 72.4152 7.69417 72.0198 8.13697C71.6245 8.55646 71.2988 9.09248 71.0662 9.69841C70.8337 10.3043 70.7174 11.0035 70.7174 11.7726C70.7174 12.5649 70.8337 13.2408 71.0662 13.87C71.2988 14.4993 71.6012 15.012 71.9966 15.4315C72.392 15.8509 72.8804 16.1772 73.4154 16.4103C73.9503 16.6433 74.555 16.7598 75.1597 16.7598C75.5551 16.7598 75.904 16.7365 76.2296 16.6666C76.5552 16.62 76.8343 16.5268 77.0902 16.4336C77.346 16.3171 77.6019 16.2005 77.8112 16.0374C78.0438 15.8976 78.2531 15.7111 78.4624 15.5014C78.4857 15.4781 78.509 15.4548 78.5322 15.4548C78.509 15.4781 78.5555 15.4548 78.5787 15.4548ZM75.0434 17.5988C74.2527 17.5988 73.5316 17.459 72.8804 17.2026C72.2292 16.923 71.671 16.5501 71.1825 16.0141C70.7174 15.5014 70.3452 14.8954 70.0894 14.173C69.8335 13.4738 69.694 12.6582 69.694 11.7959C69.694 10.9336 69.8335 10.1412 70.0894 9.44205C70.3685 8.7429 70.7406 8.11366 71.2291 7.60095C71.7175 7.08824 72.3222 6.66875 72.9734 6.41239C73.6479 6.13273 74.4155 5.9929 75.2295 5.9929C75.6249 5.9929 76.0203 6.0162 76.3692 6.08612C76.7181 6.15603 77.0204 6.22595 77.3228 6.34247C77.6251 6.459 77.9042 6.59883 78.1601 6.76197C78.4159 6.9251 78.6718 7.13485 78.9276 7.3679L79.0206 7.46112L78.7183 7.90392C78.6718 7.97383 78.5787 8.04375 78.4159 8.04375C78.3229 8.04375 78.2764 7.99714 78.1601 7.92722C78.0903 7.85731 77.9973 7.78739 77.881 7.74078C77.7647 7.64756 77.6484 7.57765 77.4856 7.48443C77.346 7.39121 77.1367 7.32129 76.9274 7.22807C76.7181 7.13485 76.4622 7.08823 76.1831 7.04162C75.904 6.99501 75.5784 6.94841 75.2295 6.94841C74.5783 6.94841 73.9736 7.06493 73.4154 7.29798C72.8804 7.53103 72.392 7.8573 71.9966 8.25349C71.6012 8.64968 71.2988 9.18569 71.0662 9.76832C70.8569 10.3743 70.7174 11.0501 70.7174 11.7726C70.7174 12.5416 70.8337 13.2175 71.043 13.8234C71.2523 14.4293 71.5547 14.942 71.9501 15.3382C72.3455 15.7344 72.7874 16.0607 73.3223 16.2704C73.834 16.4802 74.4155 16.5967 75.0434 16.5967C75.4388 16.5967 75.7877 16.5734 76.0901 16.5035C76.3924 16.4569 76.6715 16.3637 76.9274 16.2704C77.1832 16.1539 77.4158 16.0374 77.6251 15.8976C77.8345 15.7577 78.0438 15.5713 78.2764 15.3848C78.3229 15.3382 78.3461 15.3382 78.3927 15.3149C78.509 15.245 78.6718 15.2683 78.7648 15.3848L79.1602 15.8043L79.0672 15.8976C78.8346 16.1539 78.5787 16.3637 78.2996 16.5734C78.0205 16.7599 77.7182 16.9696 77.3693 17.0861C77.0437 17.2259 76.6948 17.3425 76.2761 17.4124C75.9505 17.5522 75.5086 17.5988 75.0434 17.5988ZM75.276 6.22595C74.4852 6.22595 73.7642 6.36578 73.113 6.62214C72.4618 6.87849 71.9036 7.27468 71.4384 7.76408C70.9732 8.25349 70.6011 8.83612 70.3452 9.51196C70.0894 10.1878 69.9498 10.9569 69.9498 11.7726C69.9498 12.5882 70.0894 13.3806 70.3452 14.0565C70.6011 14.7323 70.95 15.3149 71.3919 15.8043C71.8338 16.2704 72.3687 16.6666 72.9967 16.923C73.6247 17.1793 74.2992 17.3192 75.0434 17.3192C75.4854 17.3192 75.904 17.2726 76.2761 17.2026C76.6483 17.1327 76.9972 17.0395 77.2995 16.8764C77.6251 16.7365 77.9042 16.5734 78.1601 16.387C78.3927 16.2238 78.602 16.0141 78.8113 15.8276L78.5787 15.5713C78.5555 15.548 78.5322 15.548 78.509 15.5713C78.4857 15.5713 78.4624 15.5946 78.4392 15.6179C78.2299 15.8043 77.9973 16.0141 77.7647 16.1539C77.5321 16.2937 77.2763 16.4569 77.0204 16.5501C76.7413 16.6666 76.439 16.7365 76.1366 16.7832C75.811 16.8298 75.4621 16.8764 75.0434 16.8764C74.3922 16.8764 73.7875 16.7365 73.2293 16.5268C72.6711 16.2937 72.1827 15.9442 71.7873 15.5247C71.3919 15.1052 71.0662 14.5459 70.8337 13.9166C70.6011 13.2874 70.4848 12.5649 70.4848 11.7726C70.4848 11.0035 70.6011 10.3043 70.8337 9.6518C71.0662 9.02256 71.3919 8.46324 71.8105 8.04375C72.2292 7.60095 72.7409 7.25138 73.2991 7.01832C73.8573 6.78527 74.5085 6.64544 75.2063 6.64544C75.5784 6.64544 75.904 6.66875 76.2064 6.73866C76.5087 6.80858 76.7646 6.87849 76.9972 6.94841C77.2297 7.04163 77.4158 7.11154 77.6019 7.22807C77.7647 7.34459 77.9042 7.41451 77.9973 7.50773C78.1136 7.60095 78.2066 7.64756 78.2764 7.71748C78.3461 7.78739 78.3927 7.78739 78.3927 7.78739C78.4624 7.78739 78.4857 7.76408 78.4857 7.74078L78.6485 7.48443C78.4392 7.29799 78.2299 7.13485 77.9973 6.99502C77.7414 6.83188 77.4856 6.69205 77.2065 6.59883C76.9274 6.4823 76.6018 6.41239 76.2761 6.34247C76.0203 6.27256 75.6714 6.22595 75.276 6.22595ZM87.6961 6.22595V6.87849H81.8582V11.3764H86.7192V12.0289H81.8582V16.6433H87.6961V17.2959H81.0441V6.20264H87.6961V6.22595ZM87.8356 17.459H80.9278V6.08612H87.8356V7.01832H81.9977V11.2365H86.8587V12.1687H81.9977V16.5268H87.8356V17.459ZM81.1837 17.2026H87.5798V16.8065H81.7419V11.9124H86.6029V11.5162H81.7419V6.76197H87.5798V6.36578H81.1837V17.2026Z" fill="black"/>
<path d="M97.6275 6.08528V7.78655H92.6036V11.1425H96.8367V12.8438H92.6036V17.4582H90.4871V6.10858L97.6275 6.08528ZM109.931 11.7717C109.931 12.6107 109.792 13.3798 109.536 14.0789C109.257 14.7781 108.885 15.4073 108.35 15.92C107.861 16.4327 107.233 16.8522 106.535 17.1319C105.838 17.4349 105.047 17.5514 104.186 17.5514C103.326 17.5514 102.535 17.4116 101.837 17.1319C101.139 16.8289 100.535 16.456 100.023 15.92C99.5114 15.4073 99.116 14.7781 98.8369 14.0789C98.5578 13.3798 98.4415 12.6107 98.4415 11.7717C98.4415 10.9327 98.5811 10.1637 98.8369 9.46452C99.116 8.76537 99.4882 8.13612 100.023 7.62341C100.535 7.1107 101.139 6.69121 101.837 6.41155C102.535 6.10858 103.326 5.99206 104.186 5.99206C105.047 5.99206 105.838 6.13189 106.535 6.43486C107.233 6.73782 107.838 7.134 108.35 7.64672C108.838 8.15943 109.257 8.78866 109.536 9.48782C109.768 10.1637 109.931 10.9327 109.931 11.7717ZM107.768 11.7717C107.768 11.1425 107.675 10.5832 107.512 10.0938C107.35 9.60434 107.117 9.16155 106.815 8.83528C106.512 8.4857 106.14 8.22935 105.675 8.04291C105.233 7.85646 104.745 7.76324 104.186 7.76324C103.628 7.76324 103.14 7.85646 102.698 8.04291C102.256 8.22935 101.884 8.4857 101.558 8.83528C101.233 9.18485 101 9.60434 100.837 10.0938C100.674 10.5832 100.581 11.1425 100.581 11.7717C100.581 12.401 100.674 12.9603 100.837 13.4497C101 13.9391 101.233 14.3819 101.558 14.7082C101.884 15.0344 102.233 15.3141 102.698 15.5005C103.14 15.687 103.628 15.7802 104.186 15.7802C104.745 15.7802 105.233 15.687 105.675 15.5005C106.117 15.3141 106.489 15.0577 106.815 14.7082C107.117 14.3586 107.35 13.9391 107.512 13.4497C107.675 12.9603 107.768 12.3777 107.768 11.7717ZM114.327 11.5154H114.815C115.211 11.5154 115.56 11.4688 115.862 11.3755C116.164 11.259 116.397 11.1425 116.583 10.9793C116.769 10.8162 116.932 10.5832 117.002 10.3501C117.095 10.1171 117.141 9.8374 117.141 9.55774C117.141 8.97511 116.955 8.53231 116.56 8.22934C116.164 7.92638 115.606 7.76324 114.839 7.76324H113.466V11.5387V13.0535V17.4815H111.35V6.13188H114.815C115.583 6.13188 116.258 6.22511 116.792 6.36494C117.351 6.50477 117.793 6.76113 118.141 7.01748C118.49 7.29714 118.769 7.67002 118.909 8.04291C119.072 8.43909 119.165 8.88188 119.165 9.37129C119.165 9.76748 119.095 10.1171 119.002 10.4666C118.909 10.8162 118.723 11.1192 118.514 11.3988C118.304 11.6785 118.048 11.9116 117.723 12.1213C117.397 12.331 117.072 12.5175 116.653 12.6107C116.909 12.7505 117.141 12.9836 117.327 13.2632L120.165 17.4582H118.258C118.072 17.4582 117.909 17.4116 117.793 17.3416C117.653 17.2717 117.56 17.1785 117.467 17.0154L115.095 13.3798C115.025 13.2866 114.909 13.1001 114.769 13.0768C114.513 13.0768 114.257 13.0768 114.025 13.0768C114.025 13.0768 114.025 11.795 114.025 11.7018C114.094 11.5154 114.327 11.5154 114.327 11.5154ZM126.398 15.8967C126.863 15.8967 127.305 15.8501 127.631 15.7569C127.98 15.6637 128.305 15.5471 128.631 15.384V12.8205H127.212C127.073 12.8205 126.98 12.7738 126.887 12.7039C126.794 12.6107 126.747 12.5408 126.747 12.4243V11.2357H130.515V16.3395C130.236 16.5493 129.933 16.7357 129.608 16.8755C129.282 17.0154 128.957 17.1552 128.608 17.2717C128.236 17.3883 127.887 17.4349 127.468 17.4815C127.073 17.5281 126.631 17.5514 126.166 17.5514C125.328 17.5514 124.584 17.4116 123.886 17.1319C123.189 16.8522 122.584 16.456 122.095 15.9433C121.584 15.4306 121.188 14.8014 120.909 14.1022C120.63 13.4031 120.491 12.6107 120.491 11.7717C120.491 10.9094 120.63 10.1404 120.886 9.4179C121.165 8.71875 121.537 8.08952 122.072 7.5768C122.584 7.06409 123.212 6.6446 123.933 6.38824C124.654 6.10858 125.468 5.96875 126.375 5.96875C127.305 5.96875 128.096 6.10858 128.771 6.36494C129.445 6.6446 130.003 7.01748 130.492 7.43697L129.864 8.39248C129.724 8.57892 129.585 8.69545 129.399 8.69545C129.259 8.69545 129.143 8.64883 129.003 8.55561C128.84 8.43909 128.654 8.36918 128.491 8.25265C128.329 8.13612 128.119 8.06621 127.91 7.99629C127.701 7.92638 127.468 7.85647 127.212 7.83316C126.956 7.78655 126.631 7.76324 126.282 7.76324C125.724 7.76324 125.212 7.85646 124.77 8.04291C124.328 8.22935 123.933 8.4857 123.607 8.85858C123.282 9.20816 123.049 9.62765 122.886 10.1171C122.723 10.6065 122.63 11.1658 122.63 11.7717C122.63 12.4243 122.723 13.0069 122.909 13.5196C123.096 14.0323 123.351 14.4518 123.677 14.8014C124.003 15.151 124.398 15.4306 124.863 15.6171C125.305 15.8035 125.863 15.8967 126.398 15.8967ZM138.004 12.8904H134.562V15.7569H139.562V17.4582H132.422V6.10858H139.562V7.80985H134.539V11.3056H138.493V12.5408C138.493 12.5175 138.469 12.8904 138.004 12.8904Z" fill="black"/>
</g>
<defs>
<clipPath id="clip0_6435_122538">
<rect width="150" height="22" fill="white" transform="translate(0 0.702148)"/>
</clipPath>
</defs>
</svg>
