<svg width="384" height="64" viewBox="0 0 384 64" fill="none" xmlns="http://www.w3.org/2000/svg">
<path fill-rule="evenodd" clip-rule="evenodd" d="M11 10.6053C11 9.16841 12.1605 8 13.5964 8H61.4036C62.8396 8 64 9.16841 64 10.6053V51.3947C64 52.8316 62.8396 54 61.4036 54H30.001V53H61.4036C62.2833 53 63 52.2833 63 51.3947V10.6053C63 9.71671 62.2833 9 61.4036 9H13.5964C12.7167 9 12 9.71671 12 10.6053V26.1043H11V10.6053Z" fill="#333333"/>
<path d="M46.085 31.7203H39.8773V31.0114C40.4235 30.9781 40.8751 30.9115 41.2323 30.8117C41.5964 30.7119 41.7785 30.5887 41.7785 30.4423C41.7785 30.3824 41.7715 30.3092 41.7575 30.2226C41.7435 30.1361 41.7224 30.0596 41.6944 29.993L40.455 26.818H35.2346C35.0386 27.284 34.8775 27.69 34.7515 28.0361C34.6324 28.3822 34.5239 28.7017 34.4259 28.9946C34.3348 29.2808 34.2718 29.5138 34.2368 29.6935C34.2018 29.8732 34.1843 30.0196 34.1843 30.1328C34.1843 30.399 34.4049 30.6054 34.846 30.7518C35.2872 30.8982 35.7843 30.9848 36.3375 31.0114V31.7203H30.7285V31.0114C30.9106 30.9981 31.1382 30.9615 31.4113 30.9016C31.6844 30.835 31.9085 30.7485 32.0835 30.642C32.3636 30.4623 32.5807 30.2759 32.7348 30.0829C32.8888 29.8832 33.0394 29.6103 33.1864 29.2642C33.9357 27.487 34.762 25.4901 35.6653 23.2736C36.5686 21.0572 37.3739 19.0836 38.0812 17.353H38.9215L43.8897 29.5737C43.9948 29.8333 44.1138 30.0429 44.2468 30.2027C44.3799 30.3624 44.5655 30.5188 44.8035 30.6719C44.9646 30.7651 45.1747 30.845 45.4338 30.9115C45.6929 30.9715 45.9099 31.0047 46.085 31.0114V31.7203ZM40.0769 25.9294L37.8186 20.4381L35.6023 25.9294H40.0769Z" fill="url(#paint0_linear_18_185916)"/>
<path d="M52.9019 30.4024H52.8284C52.6743 30.5222 52.4888 30.6753 52.2717 30.8616C52.0616 31.0413 51.813 31.2144 51.5259 31.3808C51.2528 31.5472 50.9552 31.6903 50.6331 31.8101C50.311 31.9366 49.9609 31.9998 49.5827 31.9998C48.5674 31.9998 47.7691 31.6537 47.1879 30.9615C46.6137 30.2692 46.3266 29.3241 46.3266 28.126C46.3266 27.3006 46.4876 26.4985 46.8097 25.7198C47.1319 24.941 47.5765 24.2421 48.1437 23.6231C48.6829 23.0307 49.3236 22.5548 50.0659 22.1954C50.8082 21.8293 51.5714 21.6462 52.3557 21.6462C52.8529 21.6462 53.3256 21.7095 53.7737 21.8359C54.2289 21.9624 54.586 22.1055 54.8451 22.2652L56.7673 21.796L56.8933 21.9458L55.2968 28.3856C55.2407 28.5919 55.1812 28.8448 55.1182 29.1444C55.0622 29.4372 55.0342 29.6535 55.0342 29.7933C55.0342 30.1727 55.1182 30.429 55.2863 30.5621C55.4543 30.6952 55.7379 30.7618 56.1371 30.7618C56.2701 30.7618 56.4592 30.7418 56.7043 30.7019C56.9493 30.6619 57.1384 30.6187 57.2715 30.5721L57.1139 31.2111C56.4837 31.4507 56.0145 31.6238 55.7064 31.7303C55.3983 31.8368 55.0237 31.89 54.5825 31.89C54.0783 31.89 53.6792 31.7502 53.3851 31.4707C53.091 31.1911 52.9299 30.835 52.9019 30.4024ZM54.4039 24.0924C54.4039 23.8727 54.3794 23.663 54.3304 23.4633C54.2814 23.2637 54.1799 23.0773 54.0258 22.9042C53.8858 22.7378 53.6932 22.6047 53.4481 22.5049C53.203 22.405 52.8949 22.3551 52.5238 22.3551C52.0126 22.3551 51.5154 22.5149 51.0322 22.8343C50.5491 23.1538 50.1149 23.5832 49.7298 24.1223C49.3657 24.6282 49.0681 25.2405 48.837 25.9594C48.6059 26.6783 48.4903 27.4071 48.4903 28.1459C48.4903 28.552 48.5149 28.9114 48.5639 29.2242C48.6129 29.5371 48.7074 29.8233 48.8475 30.0829C48.9805 30.3358 49.1731 30.5322 49.4252 30.6719C49.6773 30.8117 49.9959 30.8816 50.381 30.8816C50.7732 30.8816 51.1828 30.7784 51.61 30.5721C52.0441 30.3591 52.5308 29.9897 53.07 29.4638L54.4039 24.0924Z" fill="url(#paint1_linear_18_185916)"/>
<path d="M30.9992 37.5015C30.9995 37.5015 30.9997 37.5015 31 37.5015L56.9935 37.594C56.9929 37.594 56.9931 37.594 56.9941 37.594L56.9944 37.594C56.9965 37.5941 57.0014 37.5943 57.0087 37.5948C57.0241 37.5959 57.0489 37.5981 57.0798 37.6029C57.1442 37.6129 57.2217 37.6317 57.2926 37.664C57.3628 37.696 57.4108 37.7339 57.441 37.7749C57.467 37.8103 57.5 37.8743 57.5 38.0016V41.9812C57.4998 41.9827 57.4996 41.9844 57.4994 41.9862C57.4977 42.0011 57.4942 42.0255 57.4879 42.056C57.4747 42.1193 57.4516 42.197 57.4137 42.2692C57.3493 42.3919 57.2507 42.5015 57 42.5015H31C30.7493 42.5015 30.6507 42.3919 30.5863 42.2692C30.5484 42.197 30.5253 42.1193 30.5121 42.056C30.5058 42.0255 30.5023 42.0011 30.5006 41.9862C30.5004 41.9844 30.5002 41.9827 30.5 41.9812L30.5009 38.0218C30.5011 38.0202 30.5013 38.0184 30.5015 38.0165C30.5032 38.0016 30.5067 37.9772 30.513 37.9467C30.5261 37.8834 30.5492 37.8057 30.587 37.7335C30.6511 37.611 30.7493 37.5017 30.9992 37.5015Z" fill="#D9F4FF" stroke="#333333"/>
<path fill-rule="evenodd" clip-rule="evenodd" d="M24 26V19L25 19V26H24Z" fill="#333333"/>
<path fill-rule="evenodd" clip-rule="evenodd" d="M27 19H22V18H27V19Z" fill="#333333"/>
<rect x="0.5" y="30.5" width="25" height="23" rx="2.5" fill="url(#paint2_linear_18_185916)"/>
<rect x="0.5" y="30.5" width="25" height="23" rx="2.5" stroke="#333333"/>
<path d="M7 46.9688V44M14 46.9688V39.4375C14 37.625 12.8877 36 10.4907 36C8.09375 36 7 37.75 7 39.4375V44M7 44H14M18 36.1713V46.9688" stroke="white" stroke-width="2" stroke-linecap="round" stroke-linejoin="round"/>
<path d="M122.075 20.4701C123.795 20.8265 125.56 21.0557 127.332 21.1003C126.867 22.7061 126.488 24.2433 126.166 25.7165C125.901 26.9257 125.677 28.7884 125.477 30.5789C125.439 30.9164 125.402 31.2512 125.366 31.5793C125.209 33.0117 125.066 34.3143 124.927 35.1356C124.897 35.3115 124.868 35.4868 124.838 35.6614C123.954 40.9086 123.174 45.5411 120.499 49.6236C117.764 53.7963 113.004 57.4525 103.929 60.4748C95.0504 57.6896 90.3002 53.9475 87.5579 49.7192C84.7858 45.4448 84.02 40.6144 83.2178 35.541C83.0903 34.7349 82.9595 33.5156 82.8145 32.1628C82.7673 31.7234 82.7187 31.2699 82.6682 30.8119C82.4644 28.9641 82.2297 27.0431 81.9407 25.7739C81.6051 24.3001 81.1993 22.7666 80.6866 21.1692C82.4343 21.114 84.2002 20.8626 85.9352 20.4788C90.7249 19.4193 95.3172 17.342 98.7023 15.5382C100.397 14.6351 101.795 13.7976 102.769 13.1854C103.257 12.8792 103.639 12.6292 103.9 12.4553C103.939 12.4289 103.976 12.4043 104.01 12.3815C104.041 12.4036 104.075 12.4273 104.112 12.4526C104.365 12.6285 104.736 12.8811 105.212 13.19C106.163 13.8079 107.532 14.6518 109.207 15.5591C112.553 17.3714 117.141 19.4474 122.075 20.4701Z" fill="url(#paint3_linear_18_185916)" stroke="#333333"/>
<path fill-rule="evenodd" clip-rule="evenodd" d="M112.537 29.4144C113.274 30.1311 113.301 31.3207 112.598 32.0715L102.981 43.2797C102.633 43.6512 102.151 43.8614 101.647 43.8614C101.142 43.8614 100.66 43.6512 100.312 43.2797L95.4479 38.0891C94.7443 37.3384 94.7715 36.1488 95.5086 35.4321C96.2456 34.7154 97.4135 34.7431 98.1171 35.4939L101.647 39.2603L109.929 29.4762C110.632 28.7254 111.8 28.6978 112.537 29.4144Z" fill="white"/>
<path d="M113.996 2.71194C113.996 1.75224 114.765 1 115.709 1H141.283C142.244 1 142.996 1.76977 142.996 2.71194V28.2882C142.996 29.2468 142.227 30 141.283 30H115.709C114.748 30 113.996 29.2295 113.996 28.2882V2.71194Z" fill="white" stroke="#333333"/>
<path d="M128.496 24.5761C126.693 24.5761 124.93 24.0438 123.431 23.0464C121.932 22.0491 120.763 20.6316 120.073 18.9732C119.383 17.3148 119.203 15.4899 119.555 13.7293C119.906 11.9687 120.775 10.3515 122.05 9.08216C123.325 7.81285 124.949 6.94844 126.718 6.59822C128.486 6.24803 130.319 6.42776 131.985 7.11471C133.651 7.80166 135.075 8.96497 136.076 10.4575C137.078 11.9501 137.613 13.7048 137.613 15.4999C137.613 17.907 136.652 20.2156 134.943 21.9177C133.233 23.6197 130.914 24.5761 128.496 24.5761ZM128.496 20.8246C129.554 20.8246 130.588 20.5123 131.468 19.9272C132.347 19.3421 133.033 18.5105 133.437 17.5376C133.842 16.5646 133.948 15.494 133.742 14.4611C133.535 13.4283 133.026 12.4795 132.278 11.7348C131.53 10.9902 130.577 10.483 129.54 10.2776C128.502 10.0721 127.427 10.1776 126.449 10.5806C125.472 10.9836 124.637 11.6661 124.049 12.5417C123.461 13.4174 123.148 14.4468 123.148 15.4999C123.148 16.9121 123.711 18.2665 124.714 19.265C125.717 20.2636 127.078 20.8246 128.496 20.8246Z" fill="#A24689"/>
<g clip-path="url(#clip0_18_185916)">
<path fill-rule="evenodd" clip-rule="evenodd" d="M176.346 4C175.05 4 173.999 5.0421 173.999 6.32759V49.6724C173.999 50.9579 175.05 52 176.346 52H207.651C208.947 52 209.999 50.9579 209.999 49.6724V15.5C209.999 14.8827 209.751 14.2907 209.311 13.8541L200.121 4.68173C199.681 4.24523 199.083 4 198.461 4H176.346Z" fill="white"/>
<path d="M199.356 4.64645C199.213 4.50345 198.998 4.46067 198.811 4.53806C198.624 4.61545 198.502 4.79777 198.502 5V13.182C198.502 13.8578 198.666 14.4574 199.076 14.8877C199.49 15.3225 200.074 15.5001 200.734 15.5001H209.002C209.205 15.5001 209.387 15.3783 209.464 15.1915C209.542 15.0046 209.499 14.7896 209.356 14.6466L199.356 4.64645Z" fill="url(#paint4_linear_18_185916)" stroke="#333333" stroke-linecap="round" stroke-linejoin="round"/>
<path fill-rule="evenodd" clip-rule="evenodd" d="M208.607 14.5643L208.604 14.5619L199.417 5.3919L199.416 5.39064C199.363 5.33841 199.314 5.28865 199.271 5.24561L199.256 5.22955C199.207 5.18068 199.17 5.14261 199.135 5.1091C199.065 5.04113 199.034 5.01797 199.021 5.00951C199.011 5.00704 198.974 5 198.894 5H175.346C174.594 5 173.999 5.60253 173.999 6.32759V49.6724C173.999 50.3975 174.594 51 175.346 51H207.651C208.403 51 208.999 50.3975 208.999 49.6724V15.1093C208.999 15.0214 208.99 14.9827 208.987 14.9724C208.985 14.9666 208.985 14.9644 208.978 14.9542C208.967 14.9373 208.942 14.9031 208.878 14.8351C208.827 14.7819 208.775 14.7298 208.703 14.6592C208.674 14.631 208.643 14.5998 208.607 14.5643ZM200.121 4.68173L209.311 13.8541C209.339 13.8821 209.366 13.9091 209.393 13.9353C209.782 14.3182 209.999 14.5316 209.999 15.1093V49.6724C209.999 50.9579 208.947 52 207.651 52H175.346C174.05 52 172.999 50.9579 172.999 49.6724V6.32759C172.999 5.0421 174.05 4 175.346 4H198.894C199.447 4 199.639 4.19385 199.984 4.54364C200.027 4.58727 200.072 4.63333 200.121 4.68173Z" fill="#333333"/>
<path d="M189.002 23H205.002V24H189.002V23Z" fill="#333333"/>
<path d="M189.002 26H205.002V27H189.002V26Z" fill="#333333"/>
<path d="M189.002 29H205.002V30H189.002V29Z" fill="#333333"/>
<path d="M189.002 23H190.002V29H189.002V26V23Z" fill="#333333"/>
<path d="M204.002 23H205.002V29H204.002V23Z" fill="#333333"/>
<path d="M199.002 23H200.002V29H199.002V23Z" fill="#333333"/>
<path d="M189.002 23H190.002V29H189.002V26V23Z" fill="#333333"/>
<path d="M194.002 23H195.002V29H194.002V23Z" fill="#333333"/>
<path d="M179.002 16H195.002V17H180.002L179.002 16Z" fill="#333333"/>
<path d="M179.002 10H194.002V12H179.002V10Z" fill="#333333"/>
<path d="M182.002 19H198.002V20H183.002L182.002 19Z" fill="#333333"/>
<path fill-rule="evenodd" clip-rule="evenodd" d="M160.345 16.0345C159.825 15.5146 159.849 14.6484 160.398 14.0997L164.069 10.4328C164.618 9.88414 165.485 9.86088 166.005 10.3808L182.359 26.7365C182.522 26.8998 182.834 27.105 182.89 27.332L183.913 32.2197C184.166 33.2352 183.2 34.2002 182.184 33.9466L177.295 32.8492C177.067 32.7925 176.862 32.5535 176.699 32.3903L160.345 16.0345Z" fill="url(#paint5_linear_18_185916)"/>
<path fill-rule="evenodd" clip-rule="evenodd" d="M177.006 32.3901C177.006 32.3901 177.349 32.1482 177.898 31.5996L181.569 27.9327C182.119 27.384 182.507 26.9999 182.507 26.9999C182.67 27.1631 182.835 27.1048 182.892 27.3319L183.914 32.2196C184.167 33.2351 183.201 34.2001 182.185 33.9465L177.296 32.8491C177.069 32.7924 177.169 32.5534 177.006 32.3901Z" fill="white"/>
<path fill-rule="evenodd" clip-rule="evenodd" d="M177.295 31.6105L161.079 15.5621C160.819 15.3021 160.804 14.9943 161.079 14.72L164.703 11.1109C164.977 10.8366 165.15 10.8509 165.41 11.1109L181.728 27.3316C181.81 27.4132 181.902 27.8041 181.93 27.9176L183.022 32.3899C183.148 32.8976 182.693 33.0907 182.185 32.9639L177.503 31.7759C177.389 31.7476 177.377 31.6921 177.295 31.6105ZM160.344 16.0341C159.824 15.5142 159.848 14.6479 160.397 14.0993L164.068 10.4324C164.617 9.88372 165.484 9.86045 166.004 10.3804L182.36 26.7362C182.523 26.8994 182.834 27.1046 182.891 27.3316L183.914 32.2194C184.167 33.2348 183.201 34.1999 182.185 33.9462L177.295 32.8489C177.068 32.7922 176.863 32.5531 176.7 32.3899L160.344 16.0341Z" fill="#333333"/>
<path d="M166.003 16.7065L179.712 30.4155L180.419 29.7088L166.71 15.9998L166.003 16.7065Z" fill="white"/>
<path fill-rule="evenodd" clip-rule="evenodd" d="M181.89 27.5115L177.352 31.9744L178.035 32.67L182.574 28.2215L181.89 27.5115Z" fill="#333333"/>
<path fill-rule="evenodd" clip-rule="evenodd" d="M168.279 13.0086L163.011 18.2584L163.708 18.9721L168.97 13.7135L168.279 13.0086Z" fill="#333333"/>
<path fill-rule="evenodd" clip-rule="evenodd" d="M182.703 30.6843L180.708 32.8281L182.704 33.4997L183.507 32.4998L182.703 30.6843Z" fill="#333333"/>
<path d="M182.572 46.7863C182.572 52.4271 187.07 56.9999 192.619 56.9999C198.168 56.9999 202.667 52.4271 202.667 46.7863C202.667 41.1455 198.168 36.5728 192.619 36.5728C187.07 36.5728 182.572 41.1455 182.572 46.7863Z" fill="white"/>
<path d="M192.219 36C197.002 36.0015 202.881 39.5873 203 46.3871C203.055 49.5133 202.208 52.3581 199.938 54.2265C199.789 54.0999 199.051 53.9488 198.875 53.8546L195.826 52.2296C195.426 52.0163 195.177 51.6067 195.177 51.1614V49.9406C195.177 49.9406 196.072 48.8946 196.413 47.4414C196.696 47.2624 196.886 46.9531 196.886 46.6008V45.2647C196.886 44.9708 196.752 44.7082 196.544 44.5243V42.5929C196.544 42.5929 196.95 39.5873 192.786 39.5873C188.621 39.5873 189.027 42.5929 189.027 42.5929V44.5243C188.819 44.7082 188.685 44.9708 188.685 45.2647V46.6008C188.685 47.0499 188.994 47.4278 189.412 47.554C189.646 48.2628 189.982 48.9383 190.427 49.5525C190.539 49.7074 190.644 49.8385 190.736 49.9406V51.1923C190.736 51.6531 190.469 52.0747 190.048 52.2804L186.657 53.7073C186.461 53.803 185.571 54.1983 185.408 54.3328C183.364 52.2557 182.002 50.0972 182.002 46.8851C182.002 40.44 187.519 35.9985 192.219 36Z" fill="url(#paint6_linear_18_185916)"/>
<path d="M192.619 57.4999C186.786 57.4999 182.072 52.6955 182.072 46.7863C182.072 40.8771 186.786 36.0728 192.619 36.0728C198.452 36.0728 203.167 40.8771 203.167 46.7863C203.167 52.6955 198.452 57.4999 192.619 57.4999Z" stroke="#333333"/>
<path d="M192.572 46.7863C192.572 52.4271 197.07 56.9999 202.619 56.9999C208.168 56.9999 212.667 52.4271 212.667 46.7863C212.667 41.1455 208.168 36.5728 202.619 36.5728C197.07 36.5728 192.572 41.1455 192.572 46.7863Z" fill="white"/>
<path d="M202.219 36C207.002 36.0015 212.881 39.5873 213 46.3871C213.055 49.5133 212.208 52.3581 209.938 54.2265C209.789 54.0999 209.051 53.9488 208.875 53.8546L205.826 52.2296C205.426 52.0163 205.177 51.6067 205.177 51.1614V49.9406C205.177 49.9406 206.072 48.8946 206.413 47.4414C206.696 47.2624 206.886 46.9531 206.886 46.6008V45.2647C206.886 44.9708 206.752 44.7082 206.544 44.5243V42.5929C206.544 42.5929 206.95 39.5873 202.786 39.5873C198.621 39.5873 199.027 42.5929 199.027 42.5929V44.5243C198.819 44.7082 198.685 44.9708 198.685 45.2647V46.6008C198.685 47.0499 198.994 47.4278 199.412 47.554C199.646 48.2628 199.982 48.9383 200.427 49.5525C200.539 49.7074 200.644 49.8385 200.736 49.9406V51.1923C200.736 51.6531 200.469 52.0747 200.048 52.2804L196.657 53.7073C196.461 53.803 195.571 54.1983 195.408 54.3328C193.364 52.2557 192.002 50.0972 192.002 46.8851C192.002 40.44 197.519 35.9985 202.219 36Z" fill="#9ADAF3"/>
<path d="M202.619 57.4999C196.786 57.4999 192.072 52.6955 192.072 46.7863C192.072 40.8771 196.786 36.0728 202.619 36.0728C208.452 36.0728 213.167 40.8771 213.167 46.7863C213.167 52.6955 208.452 57.4999 202.619 57.4999Z" stroke="#333333"/>
<path d="M202.572 46.7863C202.572 52.4271 207.07 56.9999 212.619 56.9999C218.168 56.9999 222.667 52.4271 222.667 46.7863C222.667 41.1455 218.168 36.5728 212.619 36.5728C207.07 36.5728 202.572 41.1455 202.572 46.7863Z" fill="white"/>
<path d="M212.219 36C217.002 36.0015 222.881 39.5873 223 46.3871C223.055 49.5133 222.208 52.3581 219.938 54.2265C219.789 54.0999 219.051 53.9488 218.875 53.8546L215.826 52.2296C215.426 52.0163 215.177 51.6067 215.177 51.1614V49.9406C215.177 49.9406 216.072 48.8946 216.413 47.4414C216.696 47.2624 216.886 46.9531 216.886 46.6008V45.2647C216.886 44.9708 216.752 44.7082 216.544 44.5243V42.5929C216.544 42.5929 216.95 39.5873 212.786 39.5873C208.621 39.5873 209.027 42.5929 209.027 42.5929V44.5243C208.819 44.7082 208.685 44.9708 208.685 45.2647V46.6008C208.685 47.0499 208.994 47.4278 209.412 47.554C209.646 48.2628 209.982 48.9383 210.427 49.5525C210.539 49.7074 210.644 49.8385 210.736 49.9406V51.1923C210.736 51.6531 210.469 52.0747 210.048 52.2804L206.657 53.7073C206.461 53.803 205.571 54.1983 205.408 54.3328C203.364 52.2557 202.002 50.0972 202.002 46.8851C202.002 40.44 207.519 35.9985 212.219 36Z" fill="url(#paint7_linear_18_185916)"/>
<path d="M212.619 57.4999C206.786 57.4999 202.072 52.6955 202.072 46.7863C202.072 40.8771 206.786 36.0728 212.619 36.0728C218.452 36.0728 223.167 40.8771 223.167 46.7863C223.167 52.6955 218.452 57.4999 212.619 57.4999Z" stroke="#333333"/>
</g>
<g clip-path="url(#clip1_18_185916)">
<path fill-rule="evenodd" clip-rule="evenodd" d="M255.408 8.56238C255.155 8.922 255.019 9.44231 255.019 10.0244V52.148C255.019 53.2821 255.735 54.0001 256.395 54.0001H258.519C258.795 54.0001 259.019 54.2239 259.019 54.5001C259.019 54.7762 258.795 55.0001 258.519 55.0001H256.395C254.983 55.0001 254.019 53.6119 254.019 52.148V10.0244C254.019 9.30744 254.184 8.56556 254.589 7.98774C255.01 7.38852 255.669 7 256.549 7H258.519C258.795 7 259.019 7.22386 259.019 7.5C259.019 7.77614 258.795 8 258.519 8H256.549C256.002 8 255.645 8.22416 255.408 8.56238Z" fill="#333333"/>
<path fill-rule="evenodd" clip-rule="evenodd" d="M249.391 8.56238C249.139 8.922 249.002 9.44231 249.002 10.0244V52.1479C249.002 53.282 249.718 54 250.379 54H252.502C252.779 54 253.002 54.2239 253.002 54.5C253.002 54.7761 252.779 55 252.502 55H250.379C248.967 55 248.002 53.6118 248.002 52.1479V10.0244C248.002 9.30744 248.167 8.56556 248.573 7.98774C248.994 7.38852 249.653 7 250.532 7H252.502C252.779 7 253.002 7.22386 253.002 7.5C253.002 7.77614 252.779 8 252.502 8H250.532C249.985 8 249.629 8.22416 249.391 8.56238Z" fill="#333333"/>
<path fill-rule="evenodd" clip-rule="evenodd" d="M262.347 7C261.051 7 260 8.0421 260 9.32759V52.6724C260 53.9579 261.051 55 262.347 55H293.652C294.948 55 296 53.9579 296 52.6724V18.5C296 17.8827 295.752 17.2907 295.312 16.8541L286.122 7.68173C285.682 7.24523 285.084 7 284.462 7H262.347Z" fill="white"/>
<path d="M285.356 7.64645C285.213 7.50345 284.998 7.46067 284.811 7.53806C284.624 7.61545 284.502 7.79777 284.502 8V16.182C284.502 16.8578 284.666 17.4574 285.076 17.8877C285.49 18.3225 286.074 18.5001 286.734 18.5001H295.002C295.205 18.5001 295.387 18.3783 295.464 18.1915C295.542 18.0046 295.499 17.7896 295.356 17.6466L285.356 7.64645Z" fill="url(#paint8_linear_18_185916)" stroke="#333333" stroke-linecap="round" stroke-linejoin="round"/>
<path fill-rule="evenodd" clip-rule="evenodd" d="M294.608 17.5643L294.605 17.5619L285.418 8.3919L285.417 8.39064C285.364 8.33841 285.315 8.28865 285.272 8.24561L285.257 8.22955C285.208 8.18068 285.171 8.14261 285.136 8.1091C285.066 8.04113 285.035 8.01797 285.022 8.00951C285.012 8.00704 284.975 8 284.895 8H262.347C261.595 8 261 8.60253 261 9.32759V52.6724C261 53.3975 261.595 54 262.347 54H293.652C294.404 54 295 53.3975 295 52.6724V18.1093C295 18.0214 294.991 17.9827 294.988 17.9724C294.986 17.9666 294.986 17.9644 294.979 17.9542C294.968 17.9373 294.943 17.9031 294.879 17.8351C294.828 17.7819 294.776 17.7298 294.704 17.6592C294.675 17.631 294.644 17.5998 294.608 17.5643ZM286.122 7.68173L295.312 16.8541C295.34 16.8821 295.367 16.9091 295.394 16.9353C295.783 17.3182 296 17.5316 296 18.1093V52.6724C296 53.9579 294.948 55 293.652 55H262.347C261.051 55 260 53.9579 260 52.6724V9.32759C260 8.0421 261.051 7 262.347 7H284.895C285.448 7 285.64 7.19385 285.985 7.54364C286.028 7.58727 286.073 7.63333 286.122 7.68173Z" fill="#333333"/>
<rect x="240.502" y="37.5" width="37" height="18" rx="1.5" fill="url(#paint9_linear_18_185916)" stroke="#333333"/>
<path d="M246.923 51H245.002V42H250.28V43.5636H246.923V45.8844H250.047V47.4419H246.923V51Z" fill="white"/>
<path d="M254.033 45.9952H254.663C255.28 45.9952 255.736 45.8947 256.03 45.6936C256.323 45.4925 256.47 45.1765 256.47 44.7456C256.47 44.3187 256.319 44.015 256.017 43.8345C255.719 43.6539 255.255 43.5636 254.625 43.5636H254.033V45.9952ZM254.033 47.5465V51H252.081V42H254.764C256.015 42 256.941 42.2237 257.541 42.671C258.141 43.1142 258.441 43.7893 258.441 44.6963C258.441 45.2257 258.292 45.6977 257.994 46.1122C257.696 46.5226 257.274 46.8447 256.729 47.0787C258.114 49.1019 259.017 50.409 259.436 51H257.27L255.072 47.5465H254.033Z" fill="white"/>
<path d="M265.898 51H260.595V42H265.898V43.5636H262.548V45.5397H265.665V47.1033H262.548V49.4241H265.898V51Z" fill="white"/>
<path d="M273.127 51H267.825V42H273.127V43.5636H269.777V45.5397H272.894V47.1033H269.777V49.4241H273.127V51Z" fill="white"/>
</g>
<path d="M354.502 8C354.502 6.61929 355.622 5.5 357.002 5.5H376.002C377.383 5.5 378.502 6.61929 378.502 8V27C378.502 28.3807 377.383 29.5 376.002 29.5H357.002C355.622 29.5 354.502 28.3807 354.502 27V8Z" stroke="#333333"/>
<path d="M362.002 11H372.002" stroke="#FF6F3D" stroke-width="2" stroke-linecap="round" stroke-linejoin="round"/>
<path d="M364.25 42.2442L371.17 45.993C371.516 46.1804 371.52 46.6758 371.177 46.8686L364.297 50.7325C363.965 50.9191 363.554 50.6803 363.552 50.2992L363.511 42.6865C363.509 42.3065 363.915 42.0632 364.25 42.2442Z" fill="url(#paint10_linear_18_185916)" stroke="#333333" stroke-linecap="round" stroke-linejoin="round"/>
<rect x="354.502" y="34.5" width="24" height="24" rx="2.5" stroke="#333333"/>
<rect x="329.502" y="38.5" width="16" height="16" rx="0.5" stroke="#333333"/>
<rect x="329.502" y="38.5" width="16" height="4" rx="0.5" fill="#D9F4FF" stroke="#333333"/>
<rect x="325.502" y="34.5" width="24" height="24" rx="2.5" stroke="#333333"/>
<path d="M360.439 23.0901C360.443 23.083 360.446 23.0757 360.449 23.0684C360.522 22.8969 360.835 22.4893 361.422 22.5002C362.067 22.5122 362.392 22.84 362.461 22.9389L364.201 26.5H358.798L359.446 25.1535L360.439 23.0901Z" stroke="#333333" stroke-linecap="round" stroke-linejoin="round"/>
<path d="M366.781 19.3361C366.785 19.3272 366.789 19.3182 366.792 19.3091C366.866 19.0998 367.055 18.7565 367.363 18.4755C367.661 18.2024 368.057 17.9993 368.571 18.0107C369.684 18.0355 370.288 18.7427 370.432 19.0317L370.433 19.0328L374.191 26.5H363.756L366.781 19.3361Z" stroke="#333333" stroke-linecap="round" stroke-linejoin="round"/>
<circle cx="360.002" cy="18" r="1.5" fill="url(#paint11_linear_18_185916)" stroke="#333333"/>
<rect x="325.502" y="5.5" width="24" height="24" rx="2.5" stroke="#333333"/>
<path fill-rule="evenodd" clip-rule="evenodd" d="M337.398 15.5C337.398 15.2239 337.622 15 337.898 15H345.502C345.779 15 346.002 15.2239 346.002 15.5C346.002 15.7761 345.779 16 345.502 16H337.898C337.622 16 337.398 15.7761 337.398 15.5ZM329.002 18.5186C329.002 18.2425 329.226 18.0186 329.502 18.0186H345.502C345.779 18.0186 346.002 18.2425 346.002 18.5186C346.002 18.7948 345.779 19.0186 345.502 19.0186H329.502C329.226 19.0186 329.002 18.7948 329.002 18.5186ZM329.002 21.5932C329.002 21.317 329.226 21.0932 329.502 21.0932H337.93C338.206 21.0932 338.43 21.317 338.43 21.5932C338.43 21.8693 338.206 22.0932 337.93 22.0932H329.502C329.226 22.0932 329.002 21.8693 329.002 21.5932ZM329.002 24.5C329.002 24.2239 329.226 24 329.502 24H336.221C336.497 24 336.721 24.2239 336.721 24.5C336.721 24.7761 336.497 25 336.221 25H329.502C329.226 25 329.002 24.7761 329.002 24.5ZM338.284 24.5C338.284 24.2239 338.508 24 338.784 24H345.502C345.779 24 346.002 24.2239 346.002 24.5C346.002 24.7761 345.779 25 345.502 25H338.784C338.508 25 338.284 24.7761 338.284 24.5Z" fill="#333333"/>
<path fill-rule="evenodd" clip-rule="evenodd" d="M329.502 15C329.226 15 329.002 15.2239 329.002 15.5C329.002 15.7761 329.226 16 329.502 16H335.502C335.779 16 336.002 15.7761 336.002 15.5C336.002 15.2239 335.779 15 335.502 15H329.502ZM340.502 21C340.226 21 340.002 21.2239 340.002 21.5C340.002 21.7761 340.226 22 340.502 22H345.502C345.779 22 346.002 21.7761 346.002 21.5C346.002 21.2239 345.779 21 345.502 21H340.502Z" fill="#FF6F3D"/>
<rect x="330.002" y="46" width="15" height="1" fill="#333333"/>
<rect x="330.002" y="50" width="15" height="1" fill="#333333"/>
<rect x="341.002" y="42" width="13" height="1" transform="rotate(90 341.002 42)" fill="#333333"/>
<rect x="336.002" y="42" width="13" height="1" transform="rotate(90 336.002 42)" fill="#333333"/>
<path d="M330.002 11H342.002" stroke="#333333" stroke-width="2" stroke-linecap="round" stroke-linejoin="round"/>
<defs>
<linearGradient id="paint0_linear_18_185916" x1="30.7286" y1="16.7809" x2="42.8721" y2="39.6469" gradientUnits="userSpaceOnUse">
<stop stop-color="#FF8E3D"/>
<stop offset="1" stop-color="#FF6F3D"/>
</linearGradient>
<linearGradient id="paint1_linear_18_185916" x1="30.7286" y1="16.7809" x2="42.8721" y2="39.6469" gradientUnits="userSpaceOnUse">
<stop stop-color="#FF8E3D"/>
<stop offset="1" stop-color="#FF6F3D"/>
</linearGradient>
<linearGradient id="paint2_linear_18_185916" x1="5.00581e-05" y1="29.0625" x2="23.8504" y2="55.9097" gradientUnits="userSpaceOnUse">
<stop stop-color="#FF8E3D"/>
<stop offset="1" stop-color="#FF6F3D"/>
</linearGradient>
<linearGradient id="paint3_linear_18_185916" x1="117.332" y1="55.1141" x2="82.015" y2="19.3801" gradientUnits="userSpaceOnUse">
<stop stop-color="#FF6F3D"/>
<stop offset="1" stop-color="#FF8E3D"/>
</linearGradient>
<linearGradient id="paint4_linear_18_185916" x1="199.002" y1="4.60937" x2="209.003" y2="15" gradientUnits="userSpaceOnUse">
<stop stop-color="#FFC671"/>
<stop offset="0.59375" stop-color="#FF7541"/>
<stop offset="1" stop-color="#FF6F3D"/>
</linearGradient>
<linearGradient id="paint5_linear_18_185916" x1="159.179" y1="15.3168" x2="172.571" y2="7.39302" gradientUnits="userSpaceOnUse">
<stop stop-color="#FF8E3D"/>
<stop offset="1" stop-color="#FF6F3D"/>
</linearGradient>
<linearGradient id="paint6_linear_18_185916" x1="192.502" y1="36" x2="192.502" y2="54.3328" gradientUnits="userSpaceOnUse">
<stop stop-color="#FF8E3D"/>
<stop offset="1" stop-color="#FF6F3D"/>
</linearGradient>
<linearGradient id="paint7_linear_18_185916" x1="212.502" y1="36" x2="212.502" y2="54.3328" gradientUnits="userSpaceOnUse">
<stop stop-color="#FF8E3D"/>
<stop offset="1" stop-color="#FF6F3D"/>
</linearGradient>
<linearGradient id="paint8_linear_18_185916" x1="285.002" y1="7.60937" x2="295.003" y2="18" gradientUnits="userSpaceOnUse">
<stop stop-color="#FFC671"/>
<stop offset="0.59375" stop-color="#FF7541"/>
<stop offset="1" stop-color="#FF6F3D"/>
</linearGradient>
<linearGradient id="paint9_linear_18_185916" x1="241.003" y1="37.3359" x2="253.819" y2="65.5363" gradientUnits="userSpaceOnUse">
<stop stop-color="#FF8E3D"/>
<stop offset="1" stop-color="#FF6F3D"/>
</linearGradient>
<linearGradient id="paint10_linear_18_185916" x1="363.002" y1="40.5703" x2="373.993" y2="50.9517" gradientUnits="userSpaceOnUse">
<stop stop-color="#FF8E3D"/>
<stop offset="1" stop-color="#FF6F3D"/>
</linearGradient>
<linearGradient id="paint11_linear_18_185916" x1="358.002" y1="15.8437" x2="362.002" y2="20" gradientUnits="userSpaceOnUse">
<stop stop-color="#FF8E3D"/>
<stop offset="1" stop-color="#FF6F3D"/>
</linearGradient>
<clipPath id="clip0_18_185916">
<rect width="64" height="64" fill="white" transform="translate(160.002)"/>
</clipPath>
<clipPath id="clip1_18_185916">
<rect width="64" height="64" fill="white" transform="translate(240.002)"/>
</clipPath>
</defs>
</svg>
