<svg width="271" height="79" viewBox="0 0 271 79" fill="none" xmlns="http://www.w3.org/2000/svg">
<path d="M148.64 39.081L135 25.708L121.359 39.081L135 52.454L148.64 39.081Z" fill="#0069B5"/>
<path d="M132.473 1.08057L121.265 12.0687L128.171 18.8394L146.285 1.08057H132.473Z" fill="#003F85"/>
<path d="M137.334 76.7308L148.542 65.7426L141.81 59.1421L123.869 76.7308H137.334Z" fill="#5696E8"/>
<path d="M107.626 38.981L121.342 25.5342L114.436 18.7446L100.701 32.2103L96.4185 36.4278V41.364L121.265 65.7422L128.075 59.0472L107.626 38.981Z" fill="#003F85"/>
<path d="M148.639 12.1633L141.81 18.8395L162.374 38.9813L148.716 52.3713L155.545 59.0475L169.183 45.6763L173.581 41.3643V36.5983L148.639 12.1633Z" fill="#5696E8"/>
</svg>
