<svg width="272" height="80" viewBox="0 0 272 80" fill="none" xmlns="http://www.w3.org/2000/svg">
<path fill-rule="evenodd" clip-rule="evenodd" d="M63.2807 47.7267L69.6585 41.3931H60.0735H60.0492C54.7404 41.3931 50.4399 45.6637 50.4399 50.9357C50.4399 56.2077 54.7404 60.4784 60.0492 60.4784C60.4501 60.4784 60.851 60.4543 61.2398 60.406C59.1381 56.3042 59.8184 51.1529 63.2685 47.7267H63.2807Z" fill="#8BDC01"/>
<path fill-rule="evenodd" clip-rule="evenodd" d="M71.0672 50.9243V41.9607L64.2885 48.6924L64.2763 48.7045C60.5225 52.4323 60.5225 58.4764 64.2763 62.2042C68.0301 65.932 74.1165 65.932 77.8703 62.2042C78.1497 61.9267 78.417 61.6251 78.6599 61.3115C74.2501 59.8879 71.0672 55.774 71.0672 50.9122V50.9243Z" fill="#8BDC01"/>
<path fill-rule="evenodd" clip-rule="evenodd" d="M78.8412 47.7269L72.4634 41.3931V50.924C72.4634 56.1962 76.7638 60.467 82.0726 60.467C87.3814 60.467 91.6818 56.1962 91.6818 50.924C91.6818 50.5259 91.6575 50.1277 91.6089 49.7417C87.4786 51.8288 82.2913 51.1532 78.8412 47.7269Z" fill="#8BDC01"/>
<path fill-rule="evenodd" clip-rule="evenodd" d="M93.4216 33.2378C93.1422 32.9603 92.8385 32.6949 92.5226 32.4536C91.0891 36.8328 86.9465 39.9935 82.0507 39.9935H73.0244L79.8032 46.7251L79.8154 46.7372C83.5692 50.4649 89.6556 50.4649 93.4095 46.7372C97.1633 43.0095 97.1633 36.9655 93.4095 33.2378H93.4216Z" fill="#8BDC01"/>
<path fill-rule="evenodd" clip-rule="evenodd" d="M82.0605 19.52C81.6596 19.52 81.2587 19.5441 80.8699 19.5924C82.9716 23.6943 82.2913 28.8459 78.8412 32.2722L72.4634 38.6061H82.0605C87.3692 38.6061 91.6697 34.3353 91.6697 29.0631C91.6697 23.7909 87.3692 19.52 82.0605 19.52Z" fill="#FBA100"/>
<path fill-rule="evenodd" clip-rule="evenodd" d="M77.8469 17.7959C74.0931 14.068 68.0068 14.068 64.253 17.7959C63.9736 18.0733 63.7063 18.3749 63.4634 18.6886C67.8732 20.1122 71.056 24.226 71.056 29.0879V38.0515L77.8348 31.3197L77.8469 31.3077C81.6007 27.5799 81.6007 21.5357 77.8469 17.8079V17.7959Z" fill="#33AAFF"/>
<path fill-rule="evenodd" clip-rule="evenodd" d="M63.2916 32.2843L63.5711 32.5618L69.6575 38.6061H69.6696V29.0872V29.0631C69.6696 23.7909 65.369 19.52 60.0601 19.52C54.7513 19.52 50.4507 23.7909 50.4507 29.0631C50.4507 29.4612 50.475 29.8593 50.5236 30.2454C54.6541 28.1582 59.8415 28.8459 63.3038 32.2722L63.2916 32.2843Z" fill="#33AAFF"/>
<path fill-rule="evenodd" clip-rule="evenodd" d="M49.625 47.449C49.6979 47.2318 49.7829 47.0026 49.8679 46.7975C49.8801 46.7734 49.8922 46.7372 49.9044 46.713C50.0016 46.4838 50.1109 46.2546 50.2202 46.0374C50.2445 45.9892 50.2688 45.9409 50.2931 45.8927C50.4146 45.6755 50.5361 45.4583 50.6576 45.2412C50.6697 45.217 50.6819 45.1929 50.7062 45.1809C50.8277 44.9878 50.9613 44.7948 51.0949 44.6018C51.1192 44.5656 51.1557 44.5294 51.18 44.4811C51.3257 44.2881 51.4837 44.0951 51.6416 43.902C51.6781 43.8658 51.7023 43.8296 51.7388 43.7935C51.8967 43.6125 52.0547 43.4436 52.2247 43.2747C52.2369 43.2626 52.249 43.2385 52.2733 43.2264C52.4556 43.0455 52.6378 42.8766 52.82 42.7197C52.8564 42.6835 52.905 42.6473 52.9415 42.6111C53.1359 42.4543 53.3181 42.2975 53.5246 42.1527C53.5489 42.1286 53.5732 42.1165 53.6097 42.0924C53.7919 41.9597 53.9863 41.827 54.1806 41.7063C54.2171 41.6822 54.2535 41.6581 54.3021 41.6339C54.5086 41.5012 54.7273 41.3806 54.946 41.272C54.9946 41.2479 55.0432 41.2237 55.0796 41.1996C55.2983 41.091 55.517 40.9825 55.7478 40.8859C55.7599 40.8859 55.7721 40.8739 55.7842 40.8739C56.015 40.7774 56.258 40.6929 56.501 40.6085C56.5496 40.5964 56.6103 40.5723 56.6589 40.5602C56.9019 40.4878 57.1448 40.4154 57.3878 40.343C57.4243 40.331 57.4607 40.331 57.4971 40.3189C57.728 40.2586 57.9588 40.2224 58.1896 40.1741C58.2382 40.1621 58.2746 40.1621 58.3232 40.15C58.5784 40.1138 58.8335 40.0776 59.0886 40.0535C59.1493 40.0535 59.1979 40.0414 59.2587 40.0414C59.5259 40.0173 59.7932 40.0052 60.0726 40.0052H69.0989L62.3079 33.2613C58.5541 29.5334 52.4677 29.5334 48.7138 33.2613C44.96 36.9891 44.96 43.0334 48.7138 46.7613C48.9932 47.0388 49.297 47.3042 49.6007 47.5455C49.6128 47.5213 49.625 47.4852 49.6371 47.461L49.625 47.449Z" fill="#33AAFF"/>
<path fill-rule="evenodd" clip-rule="evenodd" d="M62.3224 33.2621L67.7041 38.6065H60.4758L60.0628 38.6186C55.6651 38.6186 51.9477 35.687 50.8179 31.6696C54.4745 29.6307 59.2002 30.1616 62.3102 33.25L62.3224 33.2621Z" fill="#017DFF"/>
<path fill-rule="evenodd" clip-rule="evenodd" d="M69.6584 29.0749V36.6269L64.544 31.548L64.2524 31.2705C61.1424 28.1821 60.6079 23.5013 62.661 19.8701C66.7064 21.0041 69.6584 24.6836 69.6584 29.0628V29.0869V29.0749Z" fill="#017DFF"/>
<path fill-rule="evenodd" clip-rule="evenodd" d="M77.8846 31.2832L72.5029 36.6275V29.4495L72.4907 29.0393C72.4907 24.6722 75.4428 20.9806 79.4882 19.8586C81.5413 23.4899 81.0067 28.1828 77.8968 31.2711L77.8846 31.2832Z" fill="#017DFF"/>
<path fill-rule="evenodd" clip-rule="evenodd" d="M82.0502 38.5939H74.4453L79.5598 33.5144L79.8392 33.2249C82.9492 30.1361 87.6628 29.6053 91.3194 31.6443C90.1775 35.6621 86.4722 38.5939 82.0623 38.5939H82.0381H82.0502Z" fill="#FFE912"/>
<path fill-rule="evenodd" clip-rule="evenodd" d="M79.8125 46.7013L74.4307 41.3563H81.659L82.0721 41.3442C86.4699 41.3442 90.1873 44.2761 91.3171 48.2939C87.6604 50.3329 82.9346 49.802 79.8246 46.7133L79.8125 46.7013Z" fill="#47B41B"/>
<path fill-rule="evenodd" clip-rule="evenodd" d="M72.4751 50.8753V43.323L77.5896 48.4021L77.8812 48.6796C80.9912 51.7681 81.5258 56.4491 79.4727 60.0805C75.4272 58.9464 72.4751 55.2668 72.4751 50.8874V50.8633V50.8753Z" fill="#47B41B"/>
<path fill-rule="evenodd" clip-rule="evenodd" d="M64.3114 48.7162L69.6932 43.3721V50.5498L69.7053 50.96C69.7053 55.3269 66.7532 59.0183 62.7078 60.1402C60.6548 56.5091 61.1893 51.8165 64.2993 48.7282L64.3114 48.7162Z" fill="#47B41B"/>
<path fill-rule="evenodd" clip-rule="evenodd" d="M60.0969 41.4043H67.7017L62.5873 46.4838L62.3079 46.7734C59.1979 49.8621 54.4843 50.393 50.8276 48.3539C51.9696 44.3362 55.6748 41.4043 60.0847 41.4043H60.109H60.0969Z" fill="#47B41B"/>
<path fill-rule="evenodd" clip-rule="evenodd" d="M102.403 53.5222L105.838 44.9573H118.818L122.29 53.5222H125.205L114.016 25.9697H110.979L99.4756 53.5222H102.403ZM112.395 28.5988L117.911 42.7255H106.685L112.395 28.5988Z" fill="#474747"/>
<path fill-rule="evenodd" clip-rule="evenodd" d="M126.197 53.5222H128.713V25.9697H126.197V53.5222Z" fill="#474747"/>
<path fill-rule="evenodd" clip-rule="evenodd" d="M139.491 33.6115H135.414V31.8705C135.414 31.333 135.426 30.8305 135.45 30.3631C135.475 29.8957 135.571 29.4985 135.753 29.1479C135.922 28.7974 136.2 28.5286 136.575 28.3183C136.95 28.108 137.483 28.0145 138.172 28.0145C138.462 28.0145 138.753 28.0379 139.055 28.0729C139.345 28.108 139.672 28.1547 140.011 28.2132V26.1333C139.612 26.0865 139.249 26.0398 138.934 26.0164C138.62 25.9931 138.269 25.9814 137.894 25.9814C136.878 25.9814 136.055 26.1216 135.402 26.402C134.749 26.6825 134.241 27.0797 133.866 27.5939C133.491 28.108 133.237 28.7273 133.104 29.4517C132.971 30.1762 132.898 30.959 132.898 31.8003V33.6115H129.378V35.6563H132.898V53.5221H135.414V35.6563H139.491V33.6115Z" fill="#474747"/>
<path fill-rule="evenodd" clip-rule="evenodd" d="M140.265 53.5224H142.781V43.0763C142.781 42.0597 142.962 41.1132 143.337 40.2252C143.712 39.3372 144.232 38.5777 144.91 37.9467C145.587 37.3157 146.398 36.825 147.329 36.4861C148.261 36.1473 149.301 35.9954 150.45 36.0538V33.6234C148.587 33.5416 146.978 33.9038 145.636 34.6867C144.293 35.4695 143.301 36.6731 142.66 38.2972H142.575V33.6234H140.253V53.5341L140.265 53.5224Z" fill="#474747"/>
<path fill-rule="evenodd" clip-rule="evenodd" d="M167.518 44.2212C167.566 42.9008 167.433 41.6038 167.119 40.3185C166.804 39.0332 166.272 37.8998 165.546 36.9183C164.808 35.9251 163.865 35.1305 162.692 34.5229C161.518 33.9153 160.103 33.6115 158.458 33.6115C156.813 33.6115 155.397 33.8919 154.224 34.4645C153.051 35.037 152.095 35.7849 151.345 36.7196C150.595 37.6544 150.051 38.7177 149.688 39.9095C149.325 41.1014 149.143 42.3166 149.143 43.5552C149.143 44.8872 149.325 46.1608 149.688 47.3644C150.051 48.5679 150.595 49.6195 151.345 50.5309C152.095 51.4423 153.051 52.1668 154.224 52.7043C155.397 53.2418 156.813 53.5105 158.458 53.5105C161.071 53.5105 163.091 52.8912 164.506 51.641C165.933 50.3907 166.913 48.638 167.445 46.3712H164.929C164.53 47.8902 163.817 49.1171 162.776 50.0518C161.736 50.9866 160.296 51.4657 158.458 51.4657C157.26 51.4657 156.232 51.2437 155.361 50.788C154.49 50.3323 153.801 49.7597 153.268 49.0703C152.736 48.3809 152.337 47.6097 152.071 46.7451C151.805 45.8921 151.672 45.0391 151.672 44.2095H167.53L167.518 44.2212ZM151.66 42.1764C151.768 41.3468 151.986 40.5405 152.313 39.746C152.651 38.9514 153.087 38.262 153.655 37.6544C154.212 37.0468 154.889 36.5677 155.688 36.2055C156.486 35.8433 157.405 35.6563 158.446 35.6563C159.462 35.6563 160.369 35.8433 161.167 36.2055C161.966 36.5677 162.643 37.0585 163.2 37.6544C163.756 38.262 164.192 38.9514 164.494 39.7226C164.796 40.5055 164.966 41.3117 164.99 42.1647H151.647L151.66 42.1764Z" fill="#474747"/>
<path fill-rule="evenodd" clip-rule="evenodd" d="M184.2 39.4306C184.151 38.344 183.921 37.4092 183.522 36.6146C183.123 35.8201 182.579 35.1424 181.901 34.6049C181.224 34.0674 180.438 33.6701 179.543 33.413C178.647 33.156 177.68 33.0274 176.651 33.0274C175.744 33.0274 174.837 33.1326 173.918 33.3312C172.998 33.5416 172.164 33.8571 171.426 34.3011C170.676 34.7334 170.071 35.3176 169.611 36.0421C169.139 36.7665 168.91 37.6195 168.91 38.6244C168.91 39.4774 169.055 40.1901 169.345 40.7627C169.635 41.3469 170.047 41.826 170.567 42.2233C171.087 42.6206 171.692 42.9594 172.381 43.2282C173.071 43.4969 173.833 43.7306 174.656 43.9409L177.885 44.6303C178.442 44.7588 178.998 44.9107 179.543 45.0977C180.087 45.273 180.571 45.5067 181.006 45.7754C181.43 46.0442 181.768 46.383 182.022 46.8037C182.276 47.2126 182.397 47.7034 182.397 48.2642C182.397 48.9536 182.216 49.5496 181.853 50.0169C181.49 50.496 181.03 50.8816 180.474 51.1971C179.918 51.5009 179.301 51.7229 178.635 51.8514C177.97 51.98 177.341 52.0501 176.76 52.0501C175.079 52.0501 173.676 51.6294 172.551 50.7998C171.414 49.9585 170.797 48.7199 170.688 47.0724H168.172C168.39 49.5145 169.248 51.3023 170.748 52.4123C172.248 53.534 174.22 54.0949 176.639 54.0949C177.595 54.0949 178.575 53.9897 179.555 53.7677C180.534 53.5457 181.43 53.2069 182.216 52.7278C183.002 52.2487 183.643 51.6294 184.151 50.8699C184.659 50.1104 184.913 49.1873 184.913 48.1123C184.913 47.236 184.744 46.4765 184.393 45.8338C184.042 45.1912 183.595 44.6537 183.051 44.2097C182.506 43.7773 181.877 43.4151 181.176 43.1464C180.474 42.8776 179.76 42.6907 179.034 42.5855L175.684 41.8494C175.26 41.7442 174.789 41.6157 174.281 41.4404C173.772 41.2768 173.313 41.0665 172.877 40.8094C172.454 40.5524 172.103 40.2369 171.813 39.863C171.535 39.4891 171.389 39.0334 171.389 38.4959C171.389 37.8532 171.535 37.3157 171.825 36.8717C172.115 36.4394 172.502 36.0771 172.986 35.8084C173.47 35.5396 173.99 35.341 174.559 35.2242C175.127 35.1073 175.696 35.0489 176.252 35.0489C176.966 35.0489 177.655 35.1307 178.284 35.2943C178.926 35.4579 179.494 35.7266 179.978 36.0888C180.474 36.451 180.861 36.9068 181.151 37.4559C181.442 38.0051 181.599 38.6595 181.635 39.4073H184.151L184.2 39.4306Z" fill="#474747"/>
<path fill-rule="evenodd" clip-rule="evenodd" d="M203.191 40.4354C202.901 38.1452 201.982 36.4392 200.457 35.3058C198.921 34.1724 197.058 33.6115 194.845 33.6115C193.272 33.6115 191.881 33.8803 190.671 34.4177C189.462 34.9552 188.446 35.668 187.611 36.5677C186.788 37.4674 186.159 38.5191 185.736 39.746C185.313 40.9612 185.095 42.2348 185.095 43.5785C185.095 44.9456 185.313 46.2193 185.736 47.4228C186.159 48.6263 186.788 49.6779 187.611 50.5776C188.433 51.4774 189.45 52.1901 190.671 52.7276C191.881 53.2651 193.272 53.5339 194.845 53.5339C197.155 53.5339 199.066 52.8562 200.578 51.489C202.078 50.1219 203.01 48.2407 203.361 45.822H200.844C200.76 46.6399 200.554 47.3994 200.203 48.1005C199.853 48.7899 199.417 49.3975 198.885 49.8999C198.353 50.4024 197.736 50.7997 197.046 51.0801C196.357 51.3605 195.619 51.5007 194.845 51.5007C193.647 51.5007 192.595 51.2787 191.687 50.823C190.78 50.3673 190.03 49.7714 189.425 49.0236C188.833 48.2758 188.373 47.4345 188.071 46.488C187.768 45.5416 187.611 44.5717 187.611 43.5902C187.611 42.6087 187.768 41.6389 188.071 40.6924C188.373 39.746 188.833 38.9047 189.425 38.1568C190.03 37.409 190.78 36.8131 191.687 36.3574C192.595 35.9017 193.647 35.6797 194.845 35.6797C196.49 35.6797 197.796 36.1003 198.74 36.9533C199.683 37.8063 200.336 38.9748 200.675 40.4704H203.191V40.4354Z" fill="#474747"/>
<path fill-rule="evenodd" clip-rule="evenodd" d="M213.993 33.6115C212.421 33.6115 211.03 33.8803 209.82 34.4177C208.61 34.9552 207.594 35.668 206.76 36.5677C205.937 37.4674 205.308 38.5191 204.885 39.746C204.461 40.9612 204.243 42.2348 204.243 43.5785C204.243 44.9456 204.461 46.2193 204.885 47.4228C205.308 48.6263 205.937 49.6779 206.76 50.5776C207.582 51.4774 208.598 52.1901 209.82 52.7276C211.03 53.2651 212.421 53.5339 213.993 53.5339C215.566 53.5339 216.957 53.2651 218.167 52.7276C219.376 52.1901 220.392 51.4774 221.227 50.5776C222.049 49.6779 222.678 48.6263 223.102 47.4228C223.525 46.2193 223.743 44.934 223.743 43.5785C223.743 42.2465 223.525 40.9612 223.102 39.746C222.678 38.5308 222.049 37.4674 221.227 36.5677C220.404 35.668 219.388 34.9552 218.167 34.4177C216.957 33.8803 215.566 33.6115 213.993 33.6115ZM213.993 35.6563C215.191 35.6563 216.243 35.8783 217.15 36.334C218.058 36.7897 218.808 37.3857 219.412 38.1335C220.005 38.8813 220.465 39.7226 220.767 40.669C221.07 41.6155 221.227 42.5853 221.227 43.5668C221.227 44.5484 221.07 45.5182 220.767 46.4646C220.465 47.4111 220.005 48.2524 219.412 49.0002C218.808 49.748 218.058 50.344 217.15 50.7997C216.243 51.2554 215.191 51.4774 213.993 51.4774C212.796 51.4774 211.743 51.2554 210.836 50.7997C209.929 50.344 209.179 49.748 208.574 49.0002C207.969 48.2524 207.522 47.4111 207.219 46.4646C206.917 45.5182 206.76 44.5484 206.76 43.5668C206.76 42.5853 206.917 41.6155 207.219 40.669C207.522 39.7226 207.981 38.8813 208.574 38.1335C209.179 37.3857 209.929 36.7897 210.836 36.334C211.743 35.8783 212.796 35.6563 213.993 35.6563Z" fill="#474747"/>
<path fill-rule="evenodd" clip-rule="evenodd" d="M226.044 37.9185C225.704 37.9185 225.388 37.8581 225.084 37.7254C224.781 37.5927 224.525 37.4238 224.307 37.1946C224.088 36.9774 223.906 36.712 223.772 36.4224C223.638 36.1208 223.578 35.8071 223.578 35.4693C223.578 35.1315 223.638 34.8178 223.772 34.5162C223.906 34.2266 224.076 33.9612 224.307 33.744C224.525 33.5269 224.793 33.3459 225.084 33.2253C225.388 33.0926 225.704 33.0322 226.044 33.0322C226.385 33.0322 226.701 33.0926 226.992 33.2253C227.296 33.358 227.551 33.5269 227.77 33.744C227.989 33.9612 228.171 34.2266 228.292 34.5162C228.414 34.8178 228.487 35.1315 228.487 35.4693C228.487 35.8071 228.426 36.1208 228.292 36.4224C228.171 36.7241 227.989 36.9774 227.77 37.1946C227.551 37.4117 227.284 37.5927 226.992 37.7254C226.688 37.8581 226.372 37.9185 226.044 37.9185ZM226.044 37.5927C226.348 37.5927 226.616 37.5445 226.871 37.4238C227.126 37.3152 227.345 37.1705 227.527 36.9774C227.709 36.7844 227.855 36.5672 227.952 36.3018C228.062 36.0484 228.11 35.7589 228.11 35.4693C228.11 35.1677 228.062 34.8902 227.952 34.6368C227.843 34.3835 227.709 34.1543 227.527 33.9612C227.345 33.7682 227.126 33.6234 226.871 33.5148C226.616 33.4062 226.348 33.3459 226.044 33.3459C225.741 33.3459 225.473 33.4062 225.218 33.5148C224.963 33.6234 224.744 33.7682 224.562 33.9612C224.38 34.1543 224.234 34.3714 224.124 34.6368C224.015 34.8902 223.966 35.1677 223.966 35.4693C223.966 35.7709 224.015 36.0484 224.124 36.3018C224.234 36.5551 224.367 36.7844 224.562 36.9774C224.744 37.1705 224.963 37.3152 225.218 37.4238C225.473 37.5324 225.753 37.5927 226.044 37.5927ZM227.272 36.8326H226.871L226.081 35.5779H225.461V36.8326H225.121V34.106H226.324C226.688 34.106 226.944 34.1663 227.089 34.299C227.235 34.4317 227.308 34.6006 227.308 34.8299C227.308 34.9626 227.284 35.0832 227.247 35.1677C227.199 35.2642 227.138 35.3366 227.065 35.3969C226.992 35.4572 226.895 35.4934 226.786 35.5296C226.676 35.5538 226.567 35.5779 226.445 35.5779L227.272 36.8326ZM225.984 35.3125C226.081 35.3125 226.178 35.3125 226.3 35.3125C226.409 35.3125 226.518 35.3004 226.616 35.2763C226.713 35.2521 226.798 35.2039 226.859 35.1315C226.919 35.0591 226.956 34.9626 226.956 34.8178C226.956 34.7092 226.931 34.6248 226.895 34.5645C226.859 34.5041 226.798 34.4559 226.737 34.4197C226.676 34.3835 226.603 34.3714 226.518 34.3594C226.433 34.3473 226.348 34.3473 226.275 34.3473H225.485V35.3125H225.996H225.984Z" fill="#474747"/>
</svg>
