<svg width="108" height="60" viewBox="0 0 108 60" fill="none" xmlns="http://www.w3.org/2000/svg">
<path d="M104.576 52.3636C105.893 54.2727 105.629 56.7273 104.049 58.0909C102.205 59.4545 99.5707 59.1818 98.2537 57.5455L89.0341 45.2727L80.078 57.2727C78.761 59.1818 76.1268 59.1818 74.2829 57.8182C72.439 56.4545 72.1756 54 73.4927 52.0909L84.0293 37.9091L73.4927 23.7273C72.1756 21.8182 72.7024 19.0909 74.2829 17.7273C76.1268 16.3636 78.761 16.9091 80.078 18.5455L89.0341 30.8182L98.2537 19.0909C99.5707 17.1818 101.941 16.9091 104.049 18.2727C105.893 19.6364 105.893 22.3636 104.576 24.2727L94.3024 38.1818L104.576 52.3636ZM56.6341 50.7273C49.7854 50.7273 44.2537 45.2727 44.2537 38.1818C44.2537 31.3636 49.7854 25.6364 56.6341 25.6364C63.4829 25.6364 69.0146 31.3636 69.0146 38.1818C68.7512 45.2727 63.2195 50.7273 56.6341 50.7273ZM20.2829 50.7273C13.4341 50.7273 7.90244 45.2727 7.90244 38.1818C7.90244 31.3636 13.4341 25.6364 20.2829 25.6364C27.1317 25.6364 32.6634 31.3636 32.6634 38.1818C32.6634 45.2727 27.1317 50.7273 20.2829 50.7273ZM56.6341 17.4545C48.9951 17.4545 42.1463 21.8182 38.722 28.3636C35.2976 21.8182 28.4488 17.4545 20.5463 17.4545C15.8049 17.4545 11.5902 19.0909 8.16585 21.5455V4.09091C8.16585 1.90909 6.32195 0 4.21463 0C1.8439 0 0 1.90909 0 4.09091V38.4545C0.263415 49.9091 9.21951 58.9091 20.2829 58.9091C28.1854 58.9091 35.0341 54.2727 38.4585 47.7273C41.8829 54.2727 48.7317 58.9091 56.3707 58.9091C67.6976 58.9091 76.9171 49.6364 76.9171 37.9091C77.1805 26.7273 67.961 17.4545 56.6341 17.4545Z" fill="#0071F7"/>
</svg>
