<svg width="272" height="80" viewBox="0 0 272 80" fill="none" xmlns="http://www.w3.org/2000/svg">
<path d="M74.8875 45.635C74.8875 45.635 75.251 45.4577 75.363 44.8482C75.3632 44.8122 75.3634 44.7763 75.3636 44.7404L75.3641 44.6327C75.3308 44.0587 74.754 43.3739 74.105 42.6891C73.3475 41.9319 72.6969 41.5695 72.6969 41.5695C72.6969 41.5695 72.3784 40.0612 71.0112 37.9738C69.6807 35.8862 67.3711 33.6864 66.0992 34.3256C64.8268 34.9648 65.9415 36.7644 66.0113 37.3031C66.1173 37.8774 66.656 38.813 66.475 38.8121C66.2578 38.7751 63.5283 33.6311 56.6325 35.0317C54.8537 35.4169 53.3271 36.1631 52.0894 37.1252L52.0278 49.1076C52.4652 48.6792 52.6473 48.4646 52.6473 48.4646C52.6473 48.4646 53.1077 50.6197 53.9729 51.5929C54.8382 52.5657 55.8865 53.1452 56.2164 52.4289C56.5462 51.7491 55.5463 48.8025 55.5463 48.8025C55.5463 48.8025 57.4223 50.6055 57.9641 51.0388C58.5059 51.4716 59.5544 52.0152 59.8493 51.0483C60.1079 50.0812 59.3541 48.6066 58.7393 48.3525C58.1607 48.0982 57.7977 48.0964 57.7977 48.0964C57.7977 48.0964 57.4376 47.6281 57.2568 47.4835C57.0402 47.3388 57.0039 47.339 57.0039 47.339C57.0039 47.339 57.3311 47.1611 58.3463 47.2021C59.3974 47.2433 60.2312 47.2834 60.2312 47.2834C60.2312 47.2834 61.167 48.6512 61.7447 49.0846C62.2863 49.5538 63.6944 50.673 64.1997 51.1416C64.6687 51.6104 64.9575 51.8273 65.141 51.4332C65.2883 51.0393 65.0395 49.9978 64.3909 49.2412C63.7059 48.5203 62.9829 48.122 62.7306 47.762C62.5155 47.3304 62.372 47.0069 62.372 47.0069C62.372 47.0069 63.7086 47.982 64.0332 48.3069C64.3943 48.5956 66.7796 50.0784 67.1772 50.3314C67.5745 50.6207 67.7569 50.442 67.7569 50.442C67.7569 50.442 68.0457 50.6585 68.1554 50.5159C68.265 50.3728 68.5599 49.4058 67.8015 48.8283C67.007 48.2141 66.5371 47.9249 66.61 47.8534C66.6467 47.7822 67.443 48.0372 67.5526 47.8222C67.6261 47.6435 67.5187 47.3561 67.4102 47.2837C67.3381 47.1751 67.6296 46.9615 67.6296 46.9615C67.6296 46.9615 67.9195 46.963 69.1154 47.0768C70.3114 47.1905 73.3256 46.2014 73.9433 45.989C74.5606 45.7766 74.8875 45.635 74.8875 45.635ZM51.967 60.9458C54.4771 59.3444 54.6066 55.2551 53.2331 54.4589C52.8356 54.2059 52.4377 54.0248 52.0031 53.9144L51.9935 55.7802C52.1021 55.8522 52.2104 55.9609 52.2816 56.1404C52.4968 56.572 52.3856 57.1093 52.3856 57.1093C52.3856 57.1093 52.3528 56.4276 52.101 56.0677C52.0649 56.0316 52.0287 55.9955 51.9926 55.9594L51.967 60.9458ZM52.0894 37.1252C51.5438 37.5176 51.07 37.9812 50.6325 38.4454L50.5715 50.3196C50.9351 50.1064 51.2624 49.8925 51.5543 49.6071C51.7367 49.4289 51.8824 49.25 52.0283 49.1076L52.0894 37.1252ZM50.5138 61.5482C51.0583 61.4436 51.5667 61.2307 51.967 60.9458L51.9926 55.9594C51.7768 55.6714 51.5962 55.4909 51.5962 55.4909C51.5962 55.4909 51.7773 55.5636 51.9935 55.7802L52.0031 53.9144C51.5325 53.7688 51.0251 53.6944 50.5536 53.7998L50.5376 56.9209C50.6468 56.8496 50.828 56.8146 50.7541 57.0656C50.7171 57.2091 50.6082 57.2081 50.5356 57.2082L50.5262 59.0377C50.5988 59.038 50.7073 59.0386 50.78 59.003C50.78 59.003 50.7071 59.0745 50.5252 59.1449L50.5138 61.5482ZM50.6325 38.4454C48.0807 41.0873 46.9404 44.2745 46.6831 44.9907C46.2786 46.1007 43.684 50.1053 43.454 52.472C43.2602 54.8747 43.1943 60.722 48.7012 61.539C49.3531 61.6501 49.9697 61.6527 50.5138 61.5477L50.5261 59.1445C50.0177 59.2852 48.8931 59.4232 47.6314 57.982C45.9372 56.0362 46.7873 52.8834 48.1345 51.8136C49.0084 51.1006 49.8444 50.7101 50.5715 50.3191L50.6325 38.4454ZM50.5536 53.7994L50.5376 56.9204C50.4283 56.9917 50.3557 56.9913 50.2841 56.8832C50.2104 57.0984 50.355 57.2064 50.5361 57.2073L50.5267 59.0368C49.366 59.1382 47.7758 58.1259 48.1828 56.5494C48.6634 54.7587 49.5377 53.9738 50.5536 53.7994Z" fill="#2E75A3"/>
<path d="M57.7902 18.2274L60.0968 18.154C61.3349 18.1145 63.0303 18.983 62.9252 20.5508L62.2716 30.3004C62.1898 31.5229 61.6535 32.1672 60.6738 32.1623L57.6336 32.1467C56.3948 32.1401 55.8777 31.3617 55.7961 30.1392L55.1537 20.5108C55.0725 19.288 56.033 18.2835 57.7902 18.2274Z" fill="#EDDF0E"/>
<path d="M39.474 24.9548L41.3031 23.3724C42.2848 22.5231 44.2484 22.1087 45.2151 23.4504L51.2258 31.7939C51.9794 32.8402 51.9751 33.7169 51.1738 34.3595L48.6874 36.3539C47.6742 37.1664 46.7306 36.876 45.844 35.9376L38.8593 28.5479C37.9724 27.6098 38.0804 26.1601 39.474 24.9548Z" fill="#FD6600"/>
<path d="M30.7053 42.1742L31.0898 39.9698C31.2961 38.7868 32.4868 37.36 34.0096 37.7888L43.4788 40.4547C44.6659 40.7889 45.194 41.433 44.9952 42.3616L44.3776 45.2435C44.126 46.4176 43.2571 46.7446 42.0374 46.5656L32.4312 45.1546C31.2115 44.9755 30.4125 43.853 30.7053 42.1742Z" fill="#A4DC2D"/>
<path d="M32.0661 58.4368L31.1846 56.8915C30.7115 56.0618 30.712 54.5886 31.8518 54.0871L38.9401 50.9667C39.8288 50.5757 40.4745 50.7052 40.8235 51.3749L41.9063 53.4528C42.3475 54.2994 41.9863 54.9366 41.1563 55.4391L34.6196 59.3983C33.7895 59.9009 32.7377 59.6136 32.0661 58.4368Z" fill="#EF3E3E"/>
<path d="M230.171 50.8739V46.1145C231.76 46.1145 233.098 45.5765 234.185 44.4593C235.23 43.3419 235.774 41.8931 235.774 40.1551C235.774 38.4166 235.272 36.9682 234.185 35.8918C233.14 34.8159 231.802 34.2779 230.171 34.2779V29.4356C232.053 29.4768 233.892 29.9324 235.565 30.884C237.279 31.836 238.617 33.1604 239.579 34.8156C240.54 36.4302 241 38.2095 241 40.1132C241 42.0587 240.54 43.838 239.579 45.5351C238.575 47.2317 237.279 48.5149 235.606 49.4668C233.976 50.4184 232.136 50.8739 230.171 50.8739ZM230.171 29.4354V34.2776H230.129C228.54 34.2776 227.202 34.8156 226.115 35.892C225.071 37.0094 224.527 38.4163 224.527 40.1548C224.527 41.9342 225.071 43.383 226.115 44.4591C227.161 45.5763 228.499 46.1143 230.129 46.1143C230.129 46.1143 230.129 46.1143 230.171 46.1143V50.8737C230.129 50.8737 230.129 50.8737 230.087 50.8737C227.119 50.8737 224.61 49.8389 222.52 47.7697C220.429 45.659 219.384 43.1347 219.384 40.1548C219.384 36.968 220.555 34.3605 222.938 32.2082C224.987 30.3872 227.37 29.4354 230.046 29.4354C230.087 29.4354 230.129 29.4354 230.171 29.4354ZM149.434 50.8324V46.197C151.065 46.197 152.403 45.6176 153.448 44.5004C154.535 43.383 155.079 41.9342 155.079 40.1132C155.079 38.3339 154.535 36.8851 153.448 35.8089C152.403 34.7329 151.065 34.1947 149.434 34.1947V29.5181C150.27 29.601 151.065 29.8078 151.818 30.139C152.905 30.594 153.908 31.2978 154.828 32.2082V29.9734H160.012V50.3769H154.828V48.1835C153.824 49.177 152.821 49.8387 151.776 50.2528C151.065 50.5842 150.27 50.7498 149.434 50.8324ZM165.197 29.9736H170.381V32.3328C171.259 31.3393 172.263 30.6359 173.35 30.1806C174.437 29.6839 175.608 29.4356 176.862 29.4356C178.158 29.4356 179.329 29.7666 180.374 30.3874C181.42 31.0083 182.256 31.9187 182.883 33.119C183.678 31.9185 184.723 31.0083 185.894 30.3874C187.106 29.7666 188.402 29.4356 189.824 29.4356C191.287 29.4356 192.583 29.7665 193.671 30.4703C194.799 31.1322 195.594 32.0016 196.096 33.1192C196.555 34.195 196.806 35.9337 196.806 38.3753V50.3774H191.622V39.9895C191.622 37.6718 191.329 36.0991 190.744 35.3126C190.159 34.5261 189.28 34.1125 188.11 34.1125C187.232 34.1125 186.437 34.3608 185.726 34.8577C185.016 35.3126 184.514 36.0164 184.179 36.8855C183.803 37.7963 183.636 39.2032 183.636 41.1484V50.3776H178.451V40.4864C178.451 38.624 178.284 37.2996 178.034 36.5133C177.741 35.6856 177.323 35.1062 176.779 34.6921C176.236 34.3197 175.609 34.1127 174.814 34.1127C173.978 34.1127 173.183 34.361 172.473 34.8579C171.804 35.3128 171.26 36.058 170.925 36.9686C170.549 37.879 170.382 39.3274 170.382 41.2729V50.3778H165.198V29.9736H165.197ZM203.788 21.5718C204.708 21.5718 205.461 21.903 206.13 22.5239C206.757 23.186 207.091 23.9722 207.091 24.8831C207.091 25.8347 206.799 26.5797 206.13 27.242C205.503 27.9041 204.708 28.1938 203.83 28.1938C202.91 28.1938 202.116 27.8629 201.447 27.2006C200.82 26.5797 200.485 25.752 200.485 24.8414C200.485 23.9308 200.82 23.1446 201.447 22.5239C202.074 21.8616 202.869 21.5718 203.788 21.5718ZM201.196 29.9736H206.38V50.3771H201.196V29.9736ZM210.52 22.0684H215.704V50.3769H210.52V22.0684ZM112.222 27.6557L108.501 31.1737C105.951 28.5248 103.108 27.2006 99.9721 27.2006C97.2961 27.2006 95.0384 28.1112 93.2406 29.8907C91.4008 31.7119 90.4811 33.9052 90.4811 36.5127C90.4811 38.3751 90.8992 39.9893 91.6937 41.4374C92.4882 42.845 93.6589 43.9622 95.1223 44.7899C96.6274 45.6173 98.2581 45.9897 100.056 45.9897C101.603 45.9897 103.024 45.7419 104.279 45.1623C105.575 44.5828 106.996 43.5481 108.502 42.0585L112.097 45.7419C110.049 47.7697 108.083 49.1358 106.244 49.9221C104.446 50.6666 102.355 51.0395 99.9721 51.0395C95.6656 51.0395 92.1115 49.715 89.3101 46.9832C86.5506 44.2519 85.1709 40.7755 85.1709 36.5127C85.1709 33.7811 85.7979 31.3393 87.0943 29.1871C88.3485 27.0764 90.1463 25.3381 92.4878 24.0554C94.829 22.7309 97.3377 22.0686 100.055 22.0686C102.355 22.0686 104.571 22.5653 106.703 23.5172C108.836 24.5104 110.675 25.8761 112.222 27.6557ZM149.434 29.5181V34.1947H149.393C147.762 34.1947 146.466 34.7329 145.379 35.8089C144.334 36.9263 143.79 38.3751 143.79 40.1132C143.79 41.8929 144.334 43.3413 145.421 44.5004C146.508 45.6176 147.846 46.197 149.393 46.197C149.435 46.197 149.435 46.197 149.435 46.197V50.8324C149.142 50.8737 148.808 50.8737 148.473 50.8737C145.797 50.8737 143.498 49.8802 141.532 47.8109C139.609 45.7831 138.647 43.2172 138.647 40.1961C138.647 37.0507 139.567 34.4845 141.448 32.4565C143.33 30.4701 145.63 29.4354 148.306 29.4354C148.723 29.4354 149.058 29.4768 149.434 29.5181ZM116.32 22.0684H121.463V32.0428C122.466 31.1737 123.512 30.5113 124.515 30.0975C125.56 29.6424 126.564 29.4354 127.609 29.4354C129.616 29.4354 131.372 30.139 132.752 31.5461C133.965 32.7462 134.55 34.5676 134.55 36.8849V50.3769H129.449V41.396C129.449 39.0368 129.365 37.4229 129.114 36.5952C128.905 35.7675 128.487 35.188 127.985 34.774C127.442 34.3601 126.773 34.1533 125.978 34.1533C124.891 34.1533 124.013 34.4845 123.261 35.188C122.508 35.8087 121.965 36.7607 121.672 37.9608C121.546 38.5819 121.463 39.9476 121.463 42.141V50.3767H116.32V22.0684Z" fill="#2E75A3"/>
<path d="M238.198 61.0958V60.4335C238.617 60.4335 238.951 60.3508 239.285 60.1438C239.62 59.9367 239.871 59.647 240.038 59.2748H240.791C240.581 59.8543 240.205 60.3095 239.787 60.6405C239.327 60.9302 238.826 61.0958 238.24 61.0958H238.198ZM238.198 58.5296V57.9502H240.205C240.08 57.3707 239.871 56.9154 239.494 56.6257C239.16 56.336 238.742 56.1704 238.198 56.1704V55.5085C238.24 55.5085 238.24 55.5085 238.24 55.5085C239.077 55.5085 239.704 55.7982 240.205 56.3362C240.707 56.8742 241 57.6188 241 58.4884V58.5296H238.198ZM238.198 55.5085V56.1704H238.157C237.655 56.1704 237.195 56.3362 236.86 56.6257C236.484 56.9567 236.275 57.4122 236.192 57.9502H238.199V58.5296H236.15C236.192 59.109 236.401 59.5643 236.777 59.8953C237.154 60.2677 237.655 60.4333 238.199 60.4333V61.0956C237.446 61.0956 236.777 60.8054 236.275 60.2675C235.732 59.7295 235.439 59.0674 235.439 58.3223C235.439 57.4947 235.732 56.8328 236.234 56.2946C236.777 55.7982 237.404 55.55 238.198 55.5085ZM229.46 61.0958V60.4747C229.501 60.4747 229.502 60.4747 229.502 60.4747C230.045 60.4747 230.505 60.2264 230.923 59.8128C231.3 59.3987 231.509 58.8608 231.509 58.2813C231.509 57.7019 231.3 57.2054 230.923 56.7913C230.505 56.3777 230.045 56.1706 229.502 56.1706C229.502 56.1706 229.501 56.1706 229.46 56.1706V55.55C229.501 55.55 229.502 55.55 229.543 55.55C229.962 55.55 230.296 55.6327 230.672 55.7982C231.007 55.9636 231.3 56.2119 231.508 56.5016V55.6739H232.178V60.9302H231.508V60.1025C231.3 60.4335 231.007 60.6405 230.631 60.8475C230.296 61.0129 229.878 61.0954 229.46 61.0954V61.0958H229.46ZM233.934 60.93H233.265V55.6737H233.892V56.2943C234.059 56.0465 234.268 55.8807 234.435 55.7564C234.644 55.6324 234.895 55.591 235.146 55.591V56.336C234.728 56.3772 234.394 56.5014 234.227 56.7084C234.059 56.9154 233.934 57.2878 233.934 57.7431V60.93ZM229.46 55.55V56.1706C228.916 56.1706 228.456 56.3777 228.038 56.7913C227.662 57.2054 227.453 57.7433 227.453 58.364C227.453 58.9434 227.662 59.44 228.038 59.854C228.456 60.2677 228.916 60.4335 229.46 60.4747V61.0958C228.707 61.0958 228.038 60.8057 227.537 60.3093C226.993 59.7714 226.742 59.1088 226.742 58.3226C226.742 57.5363 226.993 56.8742 227.537 56.3362C228.039 55.8395 228.707 55.55 229.46 55.55ZM219.551 56.3362V55.7151L221.349 60.93H221.767L223.021 56.9154L224.276 60.93H224.735L226.533 55.6737H225.78L224.484 59.6056L223.272 55.6737H222.77L221.558 59.6056L220.262 55.6737H219.551V56.3362H219.551ZM219.551 55.7151V56.3362H218.547V60.93H217.878V56.3362H216.875V55.6739H217.878V53.9773H218.547V55.6739H219.551V55.7151ZM211.105 61.0958V60.4335C211.105 60.4335 211.105 60.4335 211.147 60.4335C211.69 60.4335 212.192 60.2264 212.568 59.8128C212.944 59.44 213.154 58.902 213.154 58.2813C213.154 57.6607 212.944 57.1639 212.568 56.7499C212.192 56.3775 211.69 56.1704 211.105 56.1704V55.5085C211.857 55.5085 212.527 55.7982 213.07 56.2946C213.614 56.8325 213.865 57.4951 213.865 58.2401C213.865 59.0266 213.614 59.6885 213.07 60.2679C212.527 60.8059 211.9 61.096 211.147 61.096C211.105 61.0958 211.105 61.0958 211.105 61.0958ZM215.62 60.93H214.952V56.2531H214.241V55.6737H214.952V55.5083C214.952 54.9699 215.077 54.5563 215.369 54.2666C215.663 54.0183 216.08 53.8937 216.666 53.8937H216.75V54.4736C216.331 54.4736 216.039 54.5563 215.871 54.7219C215.704 54.8872 215.62 55.1355 215.62 55.5083V55.6737H216.75V56.2531H215.62V60.93H215.62ZM211.105 55.5085V56.1704H211.063C210.519 56.1704 210.06 56.3775 209.683 56.7499C209.265 57.1639 209.098 57.7019 209.098 58.2813C209.098 58.902 209.265 59.44 209.683 59.8128C210.06 60.2264 210.519 60.4335 211.105 60.4335V61.0958C210.353 61.0958 209.683 60.8057 209.182 60.2677C208.638 59.7297 208.345 59.0676 208.345 58.3226C208.345 57.5361 208.638 56.8742 209.182 56.3362C209.725 55.7564 210.353 55.5085 211.063 55.5085C211.105 55.5085 211.105 55.5085 211.105 55.5085ZM193.544 61.0958V60.4335C194.129 60.4335 194.589 60.2264 195.008 59.8128C195.384 59.44 195.551 58.902 195.551 58.2813C195.551 57.6607 195.384 57.1639 194.966 56.7499C194.589 56.3775 194.129 56.1704 193.544 56.1704V55.5085C194.296 55.5085 194.923 55.7982 195.467 56.2946C196.01 56.8325 196.304 57.4951 196.304 58.2401C196.304 59.0266 196.01 59.6885 195.509 60.2679C194.966 60.8057 194.297 61.0958 193.544 61.0958ZM197.098 55.6739H197.767V56.2533C197.976 56.0467 198.227 55.8397 198.478 55.7153C198.771 55.6327 199.063 55.55 199.439 55.55C199.816 55.55 200.192 55.6327 200.485 55.7566C200.777 55.9224 201.028 56.1294 201.196 56.3777C201.321 56.5847 201.404 56.7913 201.488 57.081C201.53 57.3293 201.572 57.7021 201.572 58.1989V60.9302H200.861V57.9916C200.861 57.371 200.736 56.9157 200.527 56.6259C200.276 56.3362 199.9 56.2119 199.356 56.2119C199.063 56.2119 198.771 56.2531 198.562 56.3777C198.311 56.5016 198.143 56.7086 197.976 56.9157C197.892 57.081 197.851 57.2466 197.809 57.4124C197.767 57.619 197.767 57.9091 197.767 58.364V60.9302H197.098V55.6739ZM203.788 58.9432H204.457C204.457 59.3985 204.582 59.7297 204.791 59.978C205.042 60.2262 205.335 60.3508 205.711 60.3508C206.129 60.3508 206.464 60.2264 206.715 59.978C206.966 59.7295 207.091 59.3985 207.091 58.9432C207.091 58.3226 206.589 57.8258 205.586 57.4949C205.502 57.4949 205.461 57.4536 205.418 57.4536C204.875 57.2878 204.541 57.0396 204.29 56.7913C204.08 56.5016 203.955 56.1706 203.955 55.7153C203.955 55.1774 204.123 54.7223 204.499 54.3497C204.833 54.0187 205.293 53.8117 205.837 53.8117C206.38 53.8117 206.799 53.9775 207.091 54.3084C207.426 54.6394 207.593 55.0949 207.635 55.6741H206.966C206.924 55.3017 206.799 55.0122 206.631 54.8052C206.422 54.5981 206.171 54.4742 205.837 54.4742C205.502 54.4742 205.21 54.5981 205.001 54.8052C204.75 55.0534 204.666 55.3432 204.666 55.6741C204.666 55.8811 204.666 56.0051 204.75 56.1709C204.833 56.2952 204.917 56.4191 205.084 56.5018C205.21 56.6262 205.502 56.7501 205.92 56.8746C206.171 56.9573 206.339 57.04 206.464 57.0812C206.924 57.247 207.258 57.4541 207.467 57.7436C207.677 58.0331 207.76 58.3642 207.76 58.8195C207.76 59.5233 207.593 60.0613 207.217 60.4749C206.84 60.889 206.339 61.096 205.712 61.096C205.168 61.096 204.666 60.889 204.332 60.5162C203.955 60.1025 203.788 59.6058 203.788 58.9439V58.9432H203.788ZM193.544 55.5085V56.1704C193.502 56.1704 193.502 56.1704 193.502 56.1704C192.959 56.1704 192.457 56.3775 192.081 56.7499C191.704 57.1639 191.495 57.7019 191.495 58.2813C191.495 58.902 191.704 59.44 192.081 59.8128C192.499 60.2264 192.959 60.4335 193.544 60.4335V61.0958C192.75 61.0958 192.122 60.8057 191.579 60.2677C191.036 59.7297 190.784 59.0676 190.784 58.3226C190.784 57.5361 191.035 56.8742 191.579 56.3362C192.122 55.7564 192.75 55.5085 193.502 55.5085C193.502 55.5085 193.502 55.5085 193.544 55.5085ZM182.799 61.0958V60.4747C183.342 60.4747 183.802 60.2264 184.221 59.8128C184.597 59.3987 184.806 58.8608 184.806 58.2813C184.806 57.7019 184.597 57.2054 184.221 56.7913C183.802 56.3777 183.342 56.1706 182.799 56.1706V55.55C182.799 55.55 182.799 55.55 182.84 55.55C183.259 55.55 183.635 55.6327 183.97 55.7982C184.304 55.9636 184.597 56.2119 184.806 56.5016V55.6739H185.475V60.9302H184.806V60.1025C184.597 60.4335 184.304 60.6405 183.97 60.8475C183.593 61.0129 183.217 61.0954 182.799 61.0954V61.0958ZM187.022 60.93V56.3362H186.018V55.6739H187.022V53.9773H187.733V55.6739H188.736V56.3362H187.733V60.93H187.022ZM189.99 55.0532H189.279V53.9773H189.99V55.0532ZM189.279 60.93V55.6737H189.99V60.93H189.279ZM182.799 55.55V56.1706C182.213 56.1706 181.753 56.3777 181.336 56.7913C180.959 57.2054 180.75 57.7433 180.75 58.364C180.75 58.9434 180.959 59.44 181.336 59.854C181.753 60.2677 182.213 60.4335 182.799 60.4747V61.0958H182.757C182.004 61.0958 181.336 60.8057 180.834 60.3093C180.29 59.7714 180.039 59.1088 180.039 58.3226C180.039 57.5363 180.29 56.8742 180.834 56.3362C181.336 55.8395 182.004 55.55 182.799 55.55ZM174.269 61.0958V60.4335C174.855 60.4335 175.315 60.2264 175.733 59.8128C176.109 59.44 176.318 58.902 176.318 58.2813C176.318 57.6607 176.109 57.1639 175.733 56.7499C175.315 56.3775 174.855 56.1704 174.269 56.1704V55.5085C175.022 55.5085 175.649 55.7982 176.193 56.2946C176.736 56.8325 177.029 57.4951 177.029 58.2401C177.029 59.0266 176.736 59.6885 176.235 60.2679C175.691 60.8057 175.022 61.0958 174.269 61.0958ZM178.492 60.93H177.824V55.6737H178.451V56.2943C178.618 56.0465 178.827 55.8807 178.994 55.7564C179.203 55.6324 179.454 55.591 179.705 55.591V56.336C179.287 56.3772 178.994 56.5014 178.785 56.7084C178.618 56.9154 178.492 57.2878 178.492 57.7431V60.93ZM174.269 55.5085V56.1704H174.227C173.684 56.1704 173.224 56.3775 172.806 56.7499C172.43 57.1639 172.22 57.7019 172.22 58.2813C172.22 58.902 172.43 59.44 172.806 59.8128C173.224 60.2264 173.684 60.4335 174.269 60.4335V61.0958C173.517 61.0958 172.847 60.8057 172.304 60.2677C171.802 59.7297 171.509 59.0676 171.509 58.3226C171.509 57.5361 171.802 56.8742 172.304 56.3362C172.847 55.7564 173.475 55.5085 174.227 55.5085H174.269ZM168.249 61.0958V60.4747C168.792 60.4335 169.252 60.2264 169.67 59.8128C170.047 59.3987 170.256 58.902 170.256 58.2813C170.256 57.7019 170.047 57.2054 169.67 56.7913C169.252 56.3777 168.792 56.1706 168.249 56.1706V55.55H168.29C169.043 55.55 169.67 55.7982 170.213 56.3364C170.715 56.8744 170.966 57.5365 170.966 58.3228C170.966 59.109 170.715 59.7716 170.171 60.2679C169.67 60.8057 169.001 61.0958 168.249 61.0958ZM168.249 55.55V56.1706C168.249 56.1706 168.249 56.1706 168.207 56.1706C167.663 56.1706 167.203 56.3777 166.785 56.833C166.409 57.2466 166.2 57.7433 166.2 58.364C166.2 58.9434 166.409 59.3987 166.827 59.8128C167.203 60.2677 167.663 60.4747 168.207 60.4747C168.207 60.4747 168.207 60.4747 168.248 60.4747V61.0958C168.207 61.0958 168.207 61.0958 168.207 61.0958C167.788 61.0958 167.454 61.0127 167.12 60.8475C166.785 60.6817 166.493 60.4747 166.2 60.1438V60.9302H165.531V53.9773H166.2V56.1706V56.543C166.493 56.2121 166.827 55.9636 167.161 55.7985C167.496 55.6324 167.831 55.55 168.249 55.55ZM161.768 61.0958V60.4747C162.311 60.4747 162.813 60.2264 163.189 59.8128C163.608 59.3987 163.817 58.8608 163.817 58.2813C163.817 57.7019 163.608 57.2054 163.189 56.7913C162.813 56.3777 162.312 56.1706 161.81 56.1706H161.768V55.55H161.81C162.228 55.55 162.604 55.6327 162.938 55.7982C163.273 55.9636 163.566 56.2119 163.817 56.5016V55.6739H164.485V60.9302H163.817V60.1025C163.607 60.4335 163.315 60.6405 162.938 60.8475C162.562 61.0129 162.186 61.0954 161.768 61.0954V61.0958ZM161.768 55.55V56.1706C161.224 56.1706 160.723 56.3777 160.346 56.7913C159.928 57.2054 159.719 57.7433 159.719 58.364C159.719 58.9434 159.928 59.44 160.346 59.854C160.723 60.2677 161.224 60.4335 161.768 60.4747V61.0958C160.973 61.0958 160.346 60.8057 159.803 60.3093C159.301 59.7714 159.008 59.1088 159.008 58.3226C159.008 57.5363 159.301 56.8742 159.803 56.3362C160.347 55.8395 160.974 55.55 161.768 55.55ZM152.151 61.0958V60.4335C152.737 60.4335 153.197 60.2264 153.573 59.8128C153.991 59.44 154.159 58.902 154.159 58.2813C154.159 57.6607 153.991 57.1639 153.573 56.7499C153.197 56.3775 152.737 56.1704 152.151 56.1704V55.5085C152.904 55.5085 153.531 55.7982 154.074 56.2946C154.618 56.8325 154.911 57.4951 154.911 58.2401C154.911 59.0266 154.618 59.6885 154.074 60.2679C153.573 60.8057 152.904 61.0958 152.151 61.0958ZM155.705 60.93V53.9771H156.374V60.93H155.705ZM157.503 60.93V53.9771H158.172V60.93H157.503ZM152.151 55.5085V56.1704C152.11 56.1704 152.11 56.1704 152.11 56.1704C151.566 56.1704 151.064 56.3775 150.688 56.7499C150.312 57.1639 150.103 57.7019 150.103 58.2813C150.103 58.902 150.312 59.44 150.688 59.8128C151.064 60.2264 151.566 60.4335 152.151 60.4335V61.0958C151.357 61.0958 150.73 60.8057 150.186 60.2677C149.643 59.7297 149.392 59.0676 149.392 58.3226C149.392 57.5361 149.643 56.8742 150.186 56.3362C150.73 55.7564 151.357 55.5085 152.11 55.5085C152.11 55.5085 152.11 55.5085 152.151 55.5085ZM136.18 61.0958V60.392C136.473 60.3508 136.723 60.2677 136.933 60.1023C137.183 59.8953 137.434 59.6056 137.685 59.1503L136.18 57.7846V56.6672C136.514 56.5014 136.723 56.3775 136.89 56.1704C137.058 55.9634 137.141 55.7151 137.141 55.4254C137.141 55.1771 137.058 54.9287 136.89 54.7635C136.682 54.5565 136.473 54.4738 136.222 54.4738C136.222 54.4738 136.222 54.4738 136.18 54.4738V53.8115C136.222 53.8115 136.222 53.8115 136.264 53.8115C136.682 53.8115 137.058 53.9773 137.392 54.3082C137.727 54.6392 137.894 55.012 137.894 55.4669C137.894 55.8397 137.769 56.1292 137.518 56.4604C137.309 56.7501 136.975 56.9571 136.514 57.1641L137.978 58.4886L138.772 56.2948H139.567L138.48 58.9437L140.069 60.3925L139.609 60.8892L138.187 59.6062C137.978 60.103 137.685 60.4339 137.309 60.7236C136.975 60.9306 136.598 61.0546 136.18 61.096V61.0958H136.18ZM147.928 55.7566C147.636 55.3429 147.26 55.012 146.884 54.805C146.507 54.5979 146.047 54.5152 145.546 54.5152C144.751 54.5152 144.082 54.805 143.538 55.3429C142.953 55.9224 142.702 56.6259 142.702 57.4124C142.702 58.2813 142.953 58.9851 143.538 59.5645C144.082 60.144 144.751 60.4335 145.546 60.4335C146.047 60.4335 146.465 60.3096 146.884 60.1025C147.26 59.9367 147.594 59.6058 147.887 59.2336H148.723C148.389 59.813 147.971 60.2679 147.427 60.5993C146.884 60.9302 146.256 61.096 145.587 61.096C144.542 61.096 143.706 60.7232 142.995 60.0196C142.284 59.3163 141.95 58.4473 141.95 57.4126C141.95 56.9159 142.034 56.4606 142.242 56.0051C142.41 55.5914 142.702 55.1774 143.078 54.8464C143.413 54.5155 143.789 54.2257 144.208 54.0599C144.626 53.8941 145.086 53.8117 145.546 53.8117C146.256 53.8117 146.884 53.9775 147.469 54.3084C148.012 54.6808 148.473 55.1361 148.765 55.7568H147.928V55.7566ZM136.18 53.8115V54.4738C135.929 54.4738 135.678 54.5565 135.511 54.7635C135.344 54.9289 135.26 55.1771 135.26 55.4669C135.26 55.6739 135.302 55.8809 135.427 56.088C135.553 56.2533 135.762 56.4604 136.054 56.7086C136.096 56.7086 136.138 56.6674 136.18 56.6674V57.7848L135.803 57.4538C135.469 57.6196 135.176 57.8262 135.009 58.0745C134.842 58.3642 134.716 58.6539 134.716 58.9853C134.716 59.399 134.842 59.7299 135.093 60.0201C135.386 60.2679 135.678 60.3925 136.096 60.3925C136.138 60.3925 136.18 60.3925 136.18 60.3925V61.0962C136.138 61.0962 136.096 61.0962 136.054 61.0962C135.469 61.0962 135.009 60.8892 134.591 60.4751C134.215 60.0615 134.006 59.5648 134.006 58.9855C134.006 58.5715 134.131 58.1578 134.34 57.8265C134.591 57.4541 134.926 57.1646 135.344 56.9988C135.009 56.7091 134.8 56.4608 134.716 56.2538C134.591 56.0055 134.508 55.7574 134.508 55.4673C134.508 55.0124 134.675 54.6396 135.009 54.3087C135.344 54.0185 135.72 53.8527 136.18 53.8115ZM128.779 62.9995V62.3371C129.364 62.3371 129.866 62.1718 130.243 61.7577C130.619 61.3436 130.786 60.8057 130.786 60.1435V60.0192C130.535 60.3506 130.243 60.6403 129.908 60.8057C129.574 60.9715 129.197 61.0539 128.821 61.0539C128.779 61.0539 128.779 61.0539 128.779 61.0539V60.4333C129.281 60.4333 129.783 60.2262 130.159 59.8126C130.577 59.3985 130.786 58.9018 130.786 58.3226C130.786 57.7433 130.577 57.2051 130.159 56.7911C129.783 56.3775 129.323 56.1704 128.779 56.1704V55.5498C129.198 55.5498 129.574 55.6324 129.908 55.798C130.243 55.9219 130.536 56.2117 130.786 56.5426V55.6737H131.455V60.0609C131.455 61.0125 131.204 61.7163 130.745 62.213C130.285 62.751 129.657 62.9995 128.821 62.9995H128.779ZM128.779 55.55V56.1706C128.194 56.1706 127.775 56.3777 127.399 56.7501C126.982 57.1641 126.772 57.6609 126.772 58.2816C126.772 58.861 126.982 59.399 127.399 59.813C127.776 60.2267 128.194 60.4337 128.779 60.4337V61.0544C128.026 61.0544 127.358 60.8061 126.856 60.2679C126.312 59.7299 126.061 59.0678 126.061 58.2816C126.061 57.4953 126.312 56.8744 126.856 56.3364C127.358 55.7985 128.026 55.55 128.737 55.55C128.737 55.55 128.737 55.55 128.779 55.55ZM128.779 62.3371V62.9995C128.194 62.9995 127.734 62.8337 127.316 62.5854C126.856 62.2544 126.605 61.8816 126.48 61.3853H127.274C127.358 61.675 127.567 61.9233 127.818 62.0886C128.11 62.2544 128.361 62.3371 128.779 62.3371ZM107.204 61.0958V60.4747C107.748 60.4747 108.208 60.2264 108.626 59.8128C109.044 59.3987 109.212 58.8608 109.212 58.2813C109.212 57.7019 109.044 57.2054 108.626 56.7913C108.208 56.3777 107.748 56.1706 107.247 56.1706C107.205 56.1706 107.205 56.1706 107.205 56.1706V55.55H107.247C107.665 55.55 108.041 55.6327 108.375 55.7982C108.71 55.9636 109.003 56.2119 109.212 56.5016V55.6739H109.88V60.9302H109.212V60.1025C109.003 60.4335 108.71 60.6405 108.375 60.8475C107.999 61.0129 107.623 61.0954 107.205 61.0954V61.0958H107.204ZM111.678 60.93H110.967V55.6737H111.636V56.2943C111.804 56.0465 111.971 55.8807 112.18 55.7564C112.347 55.6324 112.598 55.591 112.849 55.591V56.336C112.431 56.3772 112.138 56.5014 111.929 56.7084C111.762 56.9154 111.678 57.2878 111.678 57.7431V60.93H111.678ZM113.476 55.6739H114.145V56.2533C114.354 56.0467 114.563 55.8397 114.856 55.7153C115.149 55.6327 115.441 55.55 115.818 55.55C116.194 55.55 116.528 55.6327 116.863 55.7566C117.156 55.9224 117.406 56.1294 117.574 56.3777C117.699 56.5847 117.783 56.7913 117.824 57.081C117.908 57.3293 117.908 57.7021 117.908 58.1989V60.9302H117.239V57.9916C117.239 57.371 117.114 56.9157 116.905 56.6259C116.654 56.3362 116.278 56.2119 115.734 56.2119C115.4 56.2119 115.149 56.2531 114.898 56.3777C114.689 56.5016 114.48 56.7086 114.354 56.9157C114.271 57.081 114.229 57.2466 114.187 57.4124C114.145 57.619 114.145 57.9091 114.145 58.364V60.9302H113.476V55.6739H113.476ZM119.706 55.0532H119.037V53.9773H119.706V55.0532ZM119.037 60.93V55.6737H119.706V60.93H119.037ZM120.794 55.6739H121.462V56.2533C121.671 56.0467 121.922 55.8397 122.215 55.7153C122.466 55.6327 122.8 55.55 123.135 55.55C123.553 55.55 123.887 55.6327 124.18 55.7566C124.514 55.9224 124.723 56.1294 124.933 56.3777C125.058 56.5847 125.142 56.7913 125.183 57.081C125.225 57.3293 125.267 57.7021 125.267 58.1989V60.9302H124.598V57.9916C124.598 57.371 124.473 56.9157 124.222 56.6259C123.97 56.3362 123.594 56.2119 123.051 56.2119C122.758 56.2119 122.508 56.2531 122.257 56.3777C122.006 56.5016 121.838 56.7086 121.713 56.9157C121.629 57.081 121.546 57.2466 121.504 57.4124C121.504 57.619 121.462 57.9091 121.462 58.364V60.9302H120.794V55.6739ZM107.204 55.55V56.1706C106.619 56.1706 106.159 56.3777 105.783 56.7913C105.365 57.2054 105.156 57.7433 105.156 58.364C105.156 58.9434 105.365 59.44 105.783 59.854C106.159 60.2677 106.619 60.4335 107.204 60.4747V61.0958C106.41 61.0958 105.741 60.8057 105.239 60.3093C104.696 59.7714 104.445 59.1088 104.445 58.3226C104.445 57.5363 104.738 56.8742 105.239 56.3362C105.783 55.8395 106.41 55.55 107.204 55.55ZM101.184 61.0958V60.4335C101.56 60.4335 101.936 60.3508 102.271 60.1438C102.564 59.9367 102.814 59.647 102.982 59.2748H103.776C103.525 59.8543 103.191 60.3095 102.731 60.6405C102.271 60.9302 101.769 61.0954 101.184 61.0954V61.0958ZM101.184 58.5296V57.9502H103.191C103.065 57.3703 102.814 56.9154 102.48 56.6257C102.146 56.336 101.685 56.1704 101.184 56.1704V55.5081C101.184 55.5081 101.184 55.5081 101.226 55.5081C102.02 55.5081 102.689 55.7982 103.191 56.3362C103.692 56.8742 103.943 57.6188 103.943 58.4884V58.5296H101.184ZM87.7205 57.0808H90.6892V57.7846H87.7205V60.2677H90.6892V60.93H87.0098V53.9771H90.6892V54.6389H87.7205V57.0808ZM101.184 55.5085V56.1704C101.142 56.1704 101.142 56.1704 101.1 56.1704C100.598 56.1704 100.18 56.3362 99.8041 56.6257C99.4279 56.9567 99.2187 57.4122 99.1352 57.9502H101.184V58.5296H99.1352C99.1771 59.109 99.386 59.5643 99.7624 59.8953C100.139 60.2677 100.599 60.4333 101.184 60.4333V61.0956C100.39 61.0956 99.7624 60.8054 99.2189 60.2675C98.6754 59.7295 98.4244 59.0674 98.4244 58.3223C98.4244 57.4947 98.6752 56.8327 99.2189 56.2941C99.7205 55.7982 100.389 55.55 101.184 55.5085ZM93.9085 57.9916V58.6123H91.609V57.9916H93.9085ZM98.2153 60.93H95.0376V53.9771H95.7065V60.2677H98.2153V60.93Z" fill="#2E75A3"/>
</svg>
