<svg width="272" height="80" viewBox="0 0 272 80" fill="none" xmlns="http://www.w3.org/2000/svg">
<path d="M62.2608 44.8568C61.4485 45.2653 59.6215 45.7027 57.242 45.7027C50.4814 45.7027 47 41.4767 47 35.883C47 29.1804 51.7579 25.4517 57.6764 25.4517C59.9686 25.4517 61.7093 25.9168 62.4918 26.3254L61.5921 29.852C60.6936 29.4724 59.4458 29.1238 57.8786 29.1238C54.3685 29.1238 51.6408 31.2507 51.6408 35.6222C51.6408 39.5552 53.9617 42.0317 57.9074 42.0317C59.2414 42.0317 60.7212 41.7398 61.591 41.3912L62.2608 44.8568Z" fill="white"/>
<path d="M77.7536 38.1264C77.7536 43.3426 74.0688 45.7325 70.2691 45.7325C66.1212 45.7325 62.9294 42.9929 62.9294 38.3905C62.9294 33.786 65.9466 30.8432 70.5023 30.8432C74.8524 30.8421 77.7536 33.8437 77.7536 38.1264ZM67.4828 38.2729C67.4828 40.7206 68.4985 42.5555 70.384 42.5555C72.096 42.5555 73.1979 40.836 73.1979 38.2729C73.1979 36.146 72.3856 33.9891 70.384 33.9891C68.2664 33.9891 67.4828 36.1749 67.4828 38.2729Z" fill="white"/>
<path d="M79.7554 35.7087C79.7554 33.9315 79.6979 32.4162 79.6394 31.163H83.3529L83.5551 33.0856H83.6424C84.2514 32.1831 85.4992 30.8422 87.9362 30.8422C89.7642 30.8422 91.2143 31.7746 91.8243 33.261H91.8829C92.4046 32.5317 93.0423 31.9489 93.7098 31.5415C94.4934 31.0753 95.3632 30.8422 96.4077 30.8422C99.1342 30.8422 101.194 32.7659 101.194 37.0197V45.4129H96.9006V37.6624C96.9006 35.5933 96.233 34.3988 94.8117 34.3988C93.7961 34.3988 93.071 35.0982 92.7815 35.9429C92.6654 36.2637 92.6068 36.7289 92.6068 37.0785V45.4129H88.3142V37.4282C88.3142 35.6221 87.6754 34.3988 86.2828 34.3988C85.1511 34.3988 84.4846 35.2736 84.2227 36.0006C84.0779 36.3503 84.0481 36.7588 84.0481 37.1085V45.4129H79.7543V35.7087H79.7554Z" fill="white"/>
<path d="M103.981 35.7087C103.981 33.9315 103.922 32.4162 103.865 31.163H107.578L107.78 33.0856H107.868C108.477 32.1831 109.724 30.8422 112.161 30.8422C113.989 30.8422 115.439 31.7746 116.05 33.261H116.107C116.63 32.5317 117.267 31.9489 117.934 31.5415C118.718 31.0753 119.588 30.8422 120.632 30.8422C123.359 30.8422 125.418 32.7659 125.418 37.0197V45.4129H121.125V37.6624C121.125 35.5933 120.457 34.3988 119.036 34.3988C118.02 34.3988 117.295 35.0982 117.006 35.9429C116.89 36.2637 116.831 36.7289 116.831 37.0785V45.4129H112.537V37.4282C112.537 35.6221 111.898 34.3988 110.507 34.3988C109.375 34.3988 108.709 35.2736 108.447 36.0006C108.302 36.3503 108.273 36.7588 108.273 37.1085V45.4129H103.981V35.7087Z" fill="white"/>
<path d="M141.579 40.8361C141.579 42.7021 141.637 44.2162 141.695 45.4118H137.865L137.662 43.4003H137.573C137.024 44.2739 135.689 45.7315 133.136 45.7315C130.263 45.7315 128.146 43.9243 128.146 39.5251V31.1618H132.585V38.8246C132.585 40.8927 133.253 42.1471 134.79 42.1471C136.009 42.1471 136.706 41.3023 136.995 40.6018C137.111 40.3399 137.14 39.9902 137.14 39.6416V31.1618H141.579V40.8361Z" fill="white"/>
<path d="M144.395 35.7087C144.395 33.9315 144.337 32.4162 144.279 31.163H148.107L148.312 33.1156H148.399C148.979 32.212 150.431 30.8422 152.779 30.8422C155.68 30.8422 157.858 32.7659 157.858 36.9609V45.4118H153.448V37.5148C153.448 35.6787 152.81 34.4266 151.214 34.4266C149.995 34.4266 149.27 35.2713 148.98 36.0872C148.864 36.3492 148.806 36.7866 148.806 37.1951V45.4118H144.397V35.7087H144.395Z" fill="white"/>
<path d="M165.223 27.2C165.223 28.4244 164.295 29.4146 162.845 29.4146C161.452 29.4146 160.523 28.4233 160.553 27.2C160.524 25.9179 161.452 24.9565 162.875 24.9565C164.297 24.9565 165.195 25.9179 165.223 27.2ZM160.669 45.4118V31.1629H165.079V45.4118H160.669Z" fill="white"/>
<path d="M184.372 44.5083C183.009 44.9745 180.426 45.6161 177.847 45.6161C174.277 45.6161 171.695 44.7125 169.897 42.9641C168.097 41.2735 167.11 38.7093 167.14 35.8242C167.168 29.297 171.898 25.5672 178.309 25.5672C180.833 25.5672 182.777 26.0622 183.735 26.5285L182.806 30.0829C181.731 29.6178 180.397 29.2382 178.251 29.2382C174.566 29.2382 171.781 31.3362 171.781 35.5911C171.781 39.6417 174.305 42.0306 177.931 42.0306C178.946 42.0306 179.759 41.9151 180.107 41.7386V37.6303H177.091V34.1635H184.372V44.5083Z" fill="white"/>
<path d="M195.251 45.4118L194.989 43.9831H194.903C193.975 45.1187 192.525 45.7315 190.841 45.7315C187.969 45.7315 186.258 43.6334 186.258 41.36C186.258 37.6601 189.565 35.8818 194.584 35.9107V35.7064C194.584 34.9482 194.178 33.8715 192.002 33.8715C190.551 33.8715 189.014 34.3666 188.086 34.9494L187.273 32.0943C188.26 31.5403 190.204 30.841 192.785 30.841C197.512 30.841 199.022 33.6384 199.022 36.9897V41.9428C199.022 43.3126 199.081 44.6247 199.225 45.4118H195.251ZM194.728 38.6803C192.407 38.6525 190.608 39.2054 190.608 40.9237C190.608 42.0593 191.364 42.6122 192.35 42.6122C193.452 42.6122 194.353 41.884 194.641 40.9815C194.7 40.7472 194.727 40.4853 194.727 40.2222V38.6803H194.728Z" fill="white"/>
<path d="M206.479 27.0835V31.163H209.641V34.4266H206.479V39.584C206.479 41.3035 206.885 42.0894 208.219 42.0894C208.769 42.0894 209.206 42.0306 209.525 41.9739L209.553 45.3241C208.974 45.5583 207.929 45.7038 206.682 45.7038C205.26 45.7038 204.071 45.2087 203.374 44.4794C202.564 43.6346 202.155 42.2648 202.155 40.2544V34.4266H200.269V31.163H202.155V28.0737L206.479 27.0835Z" fill="white"/>
<path d="M214.72 39.7005C214.864 41.5354 216.662 42.4102 218.723 42.4102C220.231 42.4102 221.449 42.2048 222.638 41.8274L223.218 44.829C221.766 45.4118 219.998 45.7026 218.084 45.7026C213.268 45.7026 210.511 42.9053 210.511 38.4472C210.511 34.834 212.745 30.8422 217.677 30.8422C222.259 30.8422 224 34.4266 224 37.9521C224 38.7103 223.915 39.3808 223.855 39.7005H214.72ZM219.911 36.67C219.911 35.5921 219.447 33.7849 217.417 33.7849C215.559 33.7849 214.806 35.4745 214.689 36.67H219.911Z" fill="white"/>
<path d="M138.711 56.0371C138.711 56.8563 138.397 57.4135 137.767 57.7043C137.355 57.9018 136.684 58.0006 135.757 58.0006H132.995C131.959 58.0006 131.254 57.8541 130.883 57.5611C130.469 57.2281 130.263 56.5666 130.263 55.5731H131.196C131.196 56.2391 131.288 56.6676 131.471 56.8574C131.674 57.0683 132.124 57.1737 132.821 57.1737H135.908C136.558 57.1737 137.004 57.1049 137.248 56.9706C137.599 56.773 137.776 56.3845 137.776 55.8018C137.776 55.3201 137.584 54.9826 137.199 54.7851C136.888 54.6297 136.412 54.552 135.77 54.552C135.506 54.552 135.079 54.5686 134.487 54.5986C133.894 54.6286 133.45 54.6441 133.153 54.6441C132.248 54.6441 131.571 54.512 131.125 54.2456C130.55 53.906 130.263 53.311 130.263 52.4619C130.263 51.5861 130.57 50.9945 131.185 50.6882C131.604 50.4828 132.312 50.3818 133.305 50.3818H135.445C136.532 50.3818 137.276 50.4917 137.677 50.7104C138.246 51.0245 138.528 51.6594 138.528 52.6162L137.595 52.6051C137.588 52.0357 137.419 51.6472 137.087 51.4385C136.842 51.2776 136.444 51.1977 135.889 51.1977C135.781 51.1977 135.611 51.1977 135.378 51.1977C135.144 51.1977 134.965 51.1977 134.844 51.1977H133.788C132.868 51.1977 132.292 51.2276 132.062 51.2887C131.479 51.4585 131.189 51.8736 131.189 52.5329C131.189 53.0091 131.361 53.3454 131.706 53.543C131.997 53.7051 132.438 53.7883 133.026 53.7883C133.303 53.7883 133.763 53.765 134.407 53.7173C135.051 53.6695 135.534 53.6462 135.859 53.6462C136.745 53.6462 137.414 53.7961 137.86 54.0924C138.426 54.4665 138.711 55.1136 138.711 56.0371Z" fill="white"/>
<path d="M152.826 50.4627L148.611 54.7661V57.9184H147.617V54.7661L143.403 50.4627H144.741L148.114 53.9225L151.487 50.4627H152.826Z" fill="white"/>
<path d="M165.985 56.0371C165.985 56.8563 165.672 57.4135 165.042 57.7043C164.629 57.9018 163.958 58.0006 163.031 58.0006H160.269C159.233 58.0006 158.53 57.8541 158.158 57.5611C157.744 57.2281 157.538 56.5666 157.538 55.5731H158.473C158.473 56.2391 158.564 56.6676 158.746 56.8574C158.948 57.0683 159.399 57.1737 160.097 57.1737H163.184C163.834 57.1737 164.28 57.1049 164.524 56.9706C164.876 56.773 165.054 56.3845 165.054 55.8018C165.054 55.3201 164.86 54.9826 164.476 54.7851C164.165 54.6297 163.688 54.552 163.046 54.552C162.782 54.552 162.354 54.5686 161.762 54.5986C161.171 54.6286 160.726 54.6441 160.428 54.6441C159.524 54.6441 158.848 54.512 158.401 54.2456C157.827 53.906 157.54 53.311 157.54 52.4619C157.54 51.5861 157.847 50.9945 158.462 50.6882C158.882 50.4828 159.589 50.3818 160.582 50.3818H162.724C163.81 50.3818 164.554 50.4917 164.954 50.7104C165.522 51.0245 165.806 51.6594 165.806 52.6162L164.871 52.6051C164.865 52.0357 164.697 51.6472 164.363 51.4385C164.12 51.2776 163.72 51.1977 163.166 51.1977C163.057 51.1977 162.886 51.1977 162.652 51.1977C162.419 51.1977 162.241 51.1977 162.119 51.1977H161.064C160.142 51.1977 159.567 51.2276 159.337 51.2887C158.756 51.4585 158.464 51.8736 158.464 52.5329C158.464 53.0091 158.636 53.3454 158.982 53.543C159.273 53.7051 159.712 53.7883 160.301 53.7883C160.579 53.7883 161.04 53.765 161.683 53.7173C162.326 53.6695 162.81 53.6462 163.135 53.6462C164.02 53.6462 164.687 53.7961 165.134 54.0924C165.701 54.4665 165.985 55.1136 165.985 56.0371Z" fill="white"/>
<path d="M175.417 51.2886V57.9184H174.424V51.2886H170.708V50.4627H179.135V51.2886H175.417Z" fill="white"/>
<path d="M191.309 57.9184H184.049V50.4627H191.268V51.2886H185.044V53.6661H191.025V54.4908H185.044V57.0926H191.309V57.9184Z" fill="white"/>
<path d="M207.719 57.9184V51.3718L203.221 57.9184H202.51L198.012 51.3718V57.9184H197.016V50.4627H198.548L202.865 56.7118L207.183 50.4627H208.714V57.9184H207.719Z" fill="white"/>
<path d="M222.687 56.0371C222.687 56.8563 222.372 57.4135 221.742 57.7043C221.33 57.9018 220.66 58.0006 219.733 58.0006H216.97C215.935 58.0006 215.23 57.8541 214.859 57.5611C214.446 57.2281 214.238 56.5666 214.238 55.5731H215.173C215.173 56.2391 215.265 56.6676 215.447 56.8574C215.65 57.0683 216.1 57.1737 216.798 57.1737H219.884C220.534 57.1737 220.982 57.1049 221.225 56.9706C221.577 56.773 221.754 56.3845 221.754 55.8018C221.754 55.3201 221.56 54.9826 221.176 54.7851C220.866 54.6297 220.39 54.552 219.747 54.552C219.483 54.552 219.056 54.5686 218.463 54.5986C217.873 54.6286 217.428 54.6441 217.13 54.6441C216.225 54.6441 215.548 54.512 215.102 54.2456C214.526 53.906 214.24 53.311 214.24 52.4619C214.24 51.5861 214.55 50.9945 215.163 50.6882C215.584 50.4828 216.289 50.3818 217.283 50.3818H219.425C220.512 50.3818 221.256 50.4917 221.655 50.7104C222.223 51.0245 222.507 51.6594 222.507 52.6162L221.572 52.6051C221.565 52.0357 221.397 51.6472 221.065 51.4385C220.821 51.2776 220.422 51.1977 219.867 51.1977C219.758 51.1977 219.587 51.1977 219.354 51.1977C219.121 51.1977 218.943 51.1977 218.82 51.1977H217.765C216.843 51.1977 216.268 51.2276 216.037 51.2887C215.457 51.4585 215.165 51.8736 215.165 52.5329C215.165 53.0091 215.338 53.3454 215.684 53.543C215.975 53.7051 216.415 53.7883 217.002 53.7883C217.281 53.7883 217.74 53.765 218.384 53.7173C219.027 53.6695 219.511 53.6462 219.836 53.6462C220.722 53.6462 221.389 53.7961 221.837 54.0924C222.402 54.4665 222.687 55.1136 222.687 56.0371Z" fill="white"/>
<path fill-rule="evenodd" clip-rule="evenodd" d="M49.855 54.1042H123.352V54.5929H49.855V54.1042Z" fill="white"/>
<path d="M162.983 29.639C165.083 29.639 166.786 27.929 166.786 25.8195C166.786 23.7101 165.083 22 162.983 22C160.883 22 159.18 23.7101 159.18 25.8195C159.18 27.929 160.883 29.639 162.983 29.639Z" fill="#FF8800"/>
</svg>
