<svg width="272" height="80" viewBox="0 0 272 80" fill="none" xmlns="http://www.w3.org/2000/svg">
<path d="M103.608 56.9587C102.863 58.1523 102.027 59.6919 101.316 60.8496C101.012 61.3891 100.923 62.0316 101.068 62.6388C101.214 63.246 101.583 63.7693 102.096 64.096L116.993 73.6441C117.252 73.8105 117.54 73.9217 117.841 73.9709C118.141 74.0202 118.448 74.0067 118.743 73.9312C119.039 73.8556 119.317 73.7196 119.561 73.5309C119.806 73.3423 120.012 73.1049 120.167 72.8325C120.763 71.7941 121.531 70.4454 122.368 69.0132C128.269 58.8564 134.205 60.0977 144.908 65.4327L159.668 72.7489C159.945 72.8862 160.246 72.9642 160.552 72.9783C160.858 72.9924 161.164 72.9423 161.452 72.831C161.739 72.7197 162.002 72.5495 162.225 72.3304C162.449 72.1113 162.627 71.8477 162.751 71.5554L169.844 54.8462C170.098 54.2731 170.124 53.6186 169.915 53.0258C169.707 52.4331 169.282 51.9504 168.733 51.6834C165.604 50.1557 159.405 47.1123 153.835 44.3075C133.724 34.1865 116.661 34.8549 103.608 56.9587Z" fill="url(#paint0_linear_2206_8060)"/>
<path d="M170.446 19.041C171.191 17.8475 172.039 16.3079 172.738 15.1382C173.041 14.6013 173.129 13.9626 172.986 13.3585C172.843 12.7543 172.478 12.2323 171.971 11.9039L157.073 2.35593C156.814 2.18947 156.526 2.07835 156.226 2.02906C155.925 1.97977 155.618 1.99329 155.323 2.06883C155.027 2.14437 154.749 2.28043 154.505 2.46906C154.26 2.65769 154.054 2.89512 153.899 3.16751C153.314 4.21778 152.547 5.5545 151.699 6.99862C145.751 17.0717 139.815 15.8782 129.123 10.5791L114.352 3.26299C114.075 3.12572 113.774 3.04773 113.468 3.03363C113.161 3.01953 112.855 3.06961 112.568 3.1809C112.281 3.29219 112.018 3.46243 111.794 3.68154C111.571 3.90065 111.393 4.16417 111.269 4.45648L104.176 21.1654C103.951 21.7292 103.942 22.3614 104.15 22.932C104.359 23.5025 104.77 23.968 105.299 24.2326C108.416 25.7603 114.615 28.8157 120.196 31.6084C140.342 41.8128 157.405 41.1325 170.446 19.041Z" fill="url(#paint1_linear_2206_8060)"/>
<defs>
<linearGradient id="paint0_linear_2206_8060" x1="169.443" y1="78.5852" x2="123.482" y2="53.2272" gradientUnits="userSpaceOnUse">
<stop stop-color="#0052CC"/>
<stop offset="0.92" stop-color="#2380FB"/>
<stop offset="1" stop-color="#2684FF"/>
</linearGradient>
<linearGradient id="paint1_linear_2206_8060" x1="-969434" y1="-416186" x2="-967805" y2="-414388" gradientUnits="userSpaceOnUse">
<stop stop-color="#0052CC"/>
<stop offset="1" stop-color="#2684FF"/>
</linearGradient>
</defs>
</svg>
