<svg width="272" height="80" viewBox="0 0 272 80" fill="none" xmlns="http://www.w3.org/2000/svg">
<path d="M163.343 32.5552H155.623L155.636 47.0608C155.636 51.2996 153.826 54.7289 149.605 54.7289C145.382 54.7289 143.555 51.2996 143.555 47.0608V32.5689H135.856L135.854 47.0608C135.854 55.4373 141.216 62.2263 149.558 62.2263C157.898 62.2263 163.341 55.4373 163.341 47.0608L163.343 32.5552Z" fill="white"/>
<path d="M240.635 23.716H232.953V61.478H240.635V23.716Z" fill="white"/>
<path d="M246.307 25.109V23.7522H252.293V25.109H250.103V31.0885H248.497V25.109H246.307Z" fill="white"/>
<path d="M255.392 23.7527L257.101 28.7968H257.121L258.737 23.7527H261V31.0885H259.496V25.8894H259.475L257.685 31.0885H256.446L254.656 25.9409H254.635V31.0885H253.132V23.7527H255.392Z" fill="white"/>
<path d="M129.576 32.2399C122.954 30.705 118.777 37.3116 118.603 37.6658C118.518 37.8397 118.515 37.9409 118.222 37.9335C117.979 37.9283 117.952 37.6658 117.952 37.6658L117.13 32.612H110.248V61.4535H117.963V45.842C117.963 44.5665 121.383 38.4501 128.011 40.024C131.362 40.8209 132.785 42.2494 132.785 42.2494V33.4627C131.777 32.9068 130.697 32.4952 129.576 32.2399Z" fill="white"/>
<path d="M181.287 39.5476C182.81 39.5473 184.298 40.0004 185.564 40.8497C186.83 41.6989 187.817 42.9061 188.4 44.3186C188.983 45.7311 189.135 47.2855 188.838 48.7851C188.541 50.2846 187.808 51.6621 186.732 52.7432C185.655 53.8244 184.283 54.5606 182.79 54.8588C181.297 55.157 179.749 55.0038 178.343 54.4186C176.936 53.8333 175.734 52.8423 174.888 51.5709C174.043 50.2995 173.591 48.8048 173.592 47.2758C173.592 45.2264 174.403 43.261 175.846 41.8118C177.289 40.3626 179.247 39.5482 181.287 39.5476ZM173.81 70.9528V60.5754L173.812 60.5776L173.814 56.6908C173.814 56.6908 173.826 56.3798 174.105 56.3766C174.354 56.3735 174.41 56.539 174.47 56.6908C175.055 58.1529 178.271 63.7201 185.41 61.9743C188.133 61.2029 190.588 59.6837 192.498 57.5876C194.409 55.4915 195.699 52.9016 196.224 50.1093C196.748 47.317 196.487 44.4331 195.469 41.7819C194.45 39.1307 192.716 36.8174 190.46 35.1023C188.204 33.3872 185.516 32.3382 182.698 32.0735C179.881 31.8087 177.046 32.3386 174.512 33.6035C171.979 34.8685 169.847 36.8183 168.356 39.2337C166.866 41.6491 166.076 44.4343 166.076 47.2758V70.9528L173.81 70.9528Z" fill="white"/>
<path d="M222.32 47.276C222.32 48.8049 221.869 50.2995 221.023 51.5709C220.177 52.8423 218.975 53.8333 217.569 54.4186C216.162 55.0039 214.615 55.1571 213.122 54.859C211.628 54.5609 210.257 53.8248 209.18 52.7438C208.103 51.6627 207.37 50.2854 207.073 48.7858C206.776 47.2863 206.929 45.732 207.511 44.3195C208.094 42.907 209.08 41.6997 210.346 40.8503C211.612 40.0009 213.1 39.5476 214.623 39.5477C216.664 39.5482 218.621 40.3625 220.064 41.8117C221.508 43.2609 222.319 45.2263 222.32 47.276ZM222.1 61.4663H229.835V47.276C229.834 44.4345 229.045 41.6494 227.554 39.2341C226.064 36.8188 223.932 34.869 221.398 33.604C218.865 32.339 216.03 31.809 213.213 32.0737C210.396 32.3384 207.708 33.3872 205.452 35.1022C203.196 36.8172 201.461 39.1303 200.443 41.7813C199.424 44.4324 199.163 47.3162 199.687 50.1084C200.212 52.9006 201.502 55.4904 203.412 57.5865C205.323 59.6826 207.777 61.2019 210.501 61.9734C217.639 63.7202 220.855 58.152 221.44 56.6909C221.501 56.5391 221.555 56.3736 221.805 56.3757C222.084 56.3799 222.096 56.6909 222.096 56.6909" fill="white"/>
<path d="M88.1785 30.2368H85.0776V54.8636L88.2625 54.9459C94.7949 54.9459 99.0023 54.3492 99.0023 42.5529C99.0023 31.2415 95.2883 30.2368 88.1785 30.2368M86.0843 61.4059H77.3096V23.7009H86.7246C98.1247 23.7009 106.771 25.8019 106.771 42.5529C106.771 59.1436 97.6124 61.4059 86.0843 61.4059" fill="white"/>
<path d="M44.3497 22.2065C40.0052 17.8457 35.8601 13.6885 34.6264 9C33.3927 13.6885 29.247 17.8457 24.9032 22.2065C18.3875 28.7458 11 36.157 11 47.2726C11 50.3885 11.6111 53.4739 12.7985 56.3527C13.9859 59.2314 15.7262 61.8471 17.9202 64.0504C20.1142 66.2537 22.7188 68.0014 25.5854 69.1939C28.452 70.3863 31.5244 71 34.6271 71C37.7299 71 40.8023 70.3863 43.6688 69.1939C46.5354 68.0014 49.1401 66.2537 51.334 64.0504C53.528 61.8471 55.2684 59.2314 56.4558 56.3527C57.6431 53.4739 58.2543 50.3885 58.2543 47.2726C58.2543 36.1577 50.8674 28.7458 44.3497 22.2065ZM21.0423 52.8015C19.5936 52.7521 14.2469 43.4973 24.1658 33.6433L30.7295 40.8435C30.7858 40.8993 30.8297 40.9666 30.8584 41.0407C30.887 41.1149 30.8996 41.1943 30.8955 41.2737C30.8913 41.3531 30.8705 41.4308 30.8343 41.5016C30.7982 41.5723 30.7475 41.6346 30.6857 41.6843C29.1194 43.2975 22.4436 50.0204 21.6139 52.345C21.4426 52.8248 21.1924 52.8066 21.0423 52.8015ZM34.6272 64.999C33.56 64.999 32.5034 64.7879 31.5175 64.3778C30.5316 63.9677 29.6358 63.3666 28.8812 62.6089C28.1266 61.8511 27.5281 60.9515 27.1197 59.9614C26.7113 58.9713 26.5012 57.9102 26.5012 56.8385C26.5312 54.8599 27.2474 52.9537 28.5266 51.4483C29.9918 49.6491 34.6261 44.5884 34.6261 44.5884C34.6261 44.5884 39.1894 49.7233 40.7147 51.4312C42.0433 52.9144 42.7706 54.8436 42.7531 56.8385C42.7531 59.0028 41.897 61.0785 40.3731 62.6088C38.8492 64.1392 36.7823 64.999 34.6272 64.999ZM50.1803 51.7656C50.0051 52.1503 49.6078 52.7924 49.0716 52.812C48.1158 52.847 48.0137 52.3552 47.3072 51.3052C45.7561 49.0002 32.2204 34.7937 29.6886 32.0462C27.4617 29.6296 29.3751 27.9259 30.2626 27.0331C31.3761 25.9129 34.6263 22.6509 34.6263 22.6509C34.6263 22.6509 44.3178 31.8851 48.3549 38.1946C52.392 44.5042 51.0006 49.9639 50.1803 51.7656Z" fill="white"/>
</svg>
