<svg width="272" height="80" viewBox="0 0 272 80" fill="none" xmlns="http://www.w3.org/2000/svg">
<path d="M58.0568 41.6301H74.4177V35.6912H58.0568V27.8936H75.7212V22H51V56.5H76.5752V50.5611H58.0568V41.6301Z" fill="#1A7FC2"/>
<path d="M104.261 34.1805H110.952C110.324 26.4662 104.665 22 96.7164 22C87.0612 22 81.0884 28.9023 81.0884 40.0451C81.0884 51.0526 87.0612 58 96.5817 58C105.069 58 110.728 53.0376 111.177 45.188H104.351C103.947 49.5639 101.162 52.0451 96.8062 52.0451C91.3724 52.0451 88.1839 47.6241 88.1839 40.1353C88.1839 32.5564 91.5071 28.0451 97.0308 28.0451C102.824 28.0451 103.902 32.4662 104.261 34.1805Z" fill="#1A7FC2"/>
<path d="M163.832 30.931H156.31V56.5H163.832V30.931ZM163.832 22H156.31V27.8936H163.832V22Z" fill="#3EB4E6"/>
<path d="M169.85 31.4005V56.5H176.387V41.4136C176.387 38.4319 178.491 36.4738 181.67 36.4738C184.491 36.4738 185.879 37.9869 185.879 40.9686V56.4555H192.416V39.678C192.416 34.1597 189.327 31 183.954 31C180.551 31 178.267 32.2461 176.387 35.0497V31.4005H169.85Z" fill="#3EB4E6"/>
<path d="M207.513 58C210.639 58 212.828 56.8076 214.48 54.2853V56.8994H221V22H214.48V34.3822C212.828 31.814 210.639 30.5758 207.513 30.5758C201.484 30.5758 196.929 36.4917 196.929 44.3338C196.929 51.9006 201.172 58 207.513 58ZM208.987 36.2166C212.292 36.2166 214.48 39.5185 214.48 44.4713C214.48 49.149 212.247 52.4051 208.987 52.4051C205.727 52.4051 203.494 49.1032 203.494 44.3796C203.449 39.5643 205.727 36.2166 208.987 36.2166Z" fill="#3EB4E6"/>
<path d="M122.992 29.6163L129.404 56.5H136.752C126.643 22 136.752 56.5 126.643 22H115.69V56.5H123.039V29.6163" fill="#197EC2"/>
<path d="M142.99 29.6163L136.578 56.5H129.23C139.34 22 129.23 56.5 139.34 22H150.292V56.5H142.944V29.6163" fill="#3EB4E6"/>
<path d="M132.967 44.5L129.23 56.5H136.752L132.967 44.5Z" fill="#085A86"/>
</svg>
