<svg width="272" height="80" viewBox="0 0 272 80" fill="none" xmlns="http://www.w3.org/2000/svg">
<path fill-rule="evenodd" clip-rule="evenodd" d="M153.619 16.631C154.933 17.6564 155.18 19.57 154.171 20.9051L122.495 62.8085C121.486 64.1435 119.603 64.3945 118.289 63.369C116.975 62.3436 116.728 60.43 117.737 59.0949L149.413 17.1915C150.422 15.8564 152.306 15.6055 153.619 16.631Z" fill="#FFCB08"/>
<path fill-rule="evenodd" clip-rule="evenodd" d="M118.38 16.631C117.067 17.6564 116.82 19.57 117.829 20.9051L149.505 62.8085C150.514 64.1435 152.397 64.3945 153.711 63.369C155.025 62.3436 155.272 60.43 154.263 59.0949L122.587 17.1915C121.578 15.8564 119.694 15.6055 118.38 16.631Z" fill="#FFCB08"/>
<path fill-rule="evenodd" clip-rule="evenodd" d="M98.8837 58C103.704 58 107.913 55.3187 110.165 51.3333H116.615C113.962 58.726 107.024 64 98.8837 64C88.4545 64 80 55.3442 80 44.6667C80 33.9892 88.4545 25.3333 98.8837 25.3333C109.313 25.3333 117.767 33.9892 117.767 44.6667C117.767 44.8898 117.764 45.112 117.756 45.3333H85.8765C86.2157 52.3874 91.9095 58 98.8837 58ZM86.9441 39.3333C88.9537 34.6242 93.5433 31.3333 98.8837 31.3333C104.224 31.3333 108.814 34.6242 110.823 39.3333H86.9441Z" fill="#FFCB08"/>
<path d="M186.14 44.6667C186.14 52.0305 180.309 58 173.116 58C169.383 58 166.016 56.3916 163.642 53.8147L159.21 57.7463C162.661 61.5907 167.614 64 173.116 64C183.545 64 192 55.3442 192 44.6667C192 40.0262 190.403 35.7677 187.741 32.4355L183.31 36.3671C185.081 38.6445 186.14 41.529 186.14 44.6667Z" fill="#FFCB08"/>
<path d="M185.601 30.0486L180.96 33.9402C178.741 32.368 176.005 31.4398 173.045 31.4398C165.639 31.4398 159.635 37.2498 159.635 44.4168C159.635 46.6184 160.201 48.6919 161.201 50.5082L156.56 54.4001C154.685 51.5066 153.601 48.0842 153.601 44.4168C153.601 34.0246 162.306 25.6001 173.045 25.6001C177.831 25.6001 182.213 27.2735 185.601 30.0486Z" fill="#B6B7BA"/>
</svg>
