<svg width="272" height="80" viewBox="0 0 272 80" fill="none" xmlns="http://www.w3.org/2000/svg">
<path d="M129.955 51.1603H125.517V41.3176H117.2V51.1603H112.747V28.3552H117.2V37.2932H125.517V28.3552H129.955V51.1603Z" fill="#A4A4A4"/>
<path d="M144.143 51.1603L143.554 48.9297H143.325C142.855 49.7408 142.19 50.37 141.328 50.8171C140.466 51.2539 139.485 51.4723 138.383 51.4723C136.497 51.4723 135.075 50.9263 134.117 49.8344C133.159 48.7321 132.681 47.1515 132.681 45.0924V34.4441H137.062V43.907C137.062 45.1652 137.268 46.1115 137.679 46.7459C138.091 47.3698 138.747 47.6818 139.647 47.6818C140.873 47.6818 141.759 47.2398 142.305 46.3559C142.851 45.4616 143.124 44.708 143.124 42.649V34.4441H147.505V51.1603H144.143Z" fill="#A4A4A4"/>
<path d="M164.321 51.1603H159.94V41.6975C159.94 40.4392 159.744 39.4981 159.351 38.8741C158.968 38.2398 158.36 37.9226 157.527 37.9226C156.407 37.9226 155.593 38.3698 155.085 39.2641C154.577 40.1584 154.324 41.6299 154.324 43.6785V51.1603H149.943V34.4441H153.289L153.878 36.6747H154.123C154.554 35.874 155.176 35.2501 155.99 34.8029C156.804 34.3453 157.738 34.1166 158.791 34.1166C161.195 34.1166 162.823 34.9693 163.675 36.6747H164.063C164.494 35.8636 165.126 35.2345 165.959 34.7873C166.802 34.3401 167.75 34.1166 168.803 34.1166C170.623 34.1166 171.997 34.6261 172.926 35.6452C173.864 36.6539 174.333 38.2762 174.333 40.512V51.1603H169.938V41.6975C169.938 40.4392 169.742 39.4981 169.349 38.8741C168.966 38.2398 168.358 37.9226 167.525 37.9226C166.452 37.9226 165.648 38.3386 165.111 39.1705C164.585 40.0024 164.321 41.3231 164.321 43.1325V51.1603Z" fill="#A4A4A4"/>
<path d="M194.594 51.1603H192.152V40.4285H180.404V51.1603H177.962V28.3552H180.404V38.0575H192.152V28.3552H194.594V51.1603Z" fill="#A4A4A4"/>
<path d="M200.78 34.0643V45.1548C200.78 46.5483 201.072 47.5882 201.656 48.2745C202.24 48.9609 203.155 49.3041 204.4 49.3041C206.047 49.3041 207.248 48.8153 208.005 47.8378C208.771 46.8603 209.154 45.264 209.154 43.049V34.0643H211.539V51.1603H209.571L209.226 48.8673H209.097C208.608 49.7096 207.928 50.3544 207.057 50.8015C206.195 51.2487 205.209 51.4723 204.098 51.4723C202.183 51.4723 200.746 50.9783 199.789 49.9904C198.84 49.0025 198.366 47.4218 198.366 45.2484V34.0643H200.78Z" fill="#A4A4A4"/>
<path d="M222.464 33.7835C224.533 33.7835 226.137 34.553 227.276 36.0921C228.426 37.6207 229 39.7889 229 42.5967C229 45.4044 228.421 47.5882 227.262 49.1481C226.113 50.6975 224.514 51.4723 222.464 51.4723C221.44 51.4723 220.501 51.2695 219.649 50.8639C218.806 50.448 218.097 49.8136 217.523 48.9609H217.351L216.848 51.1603H215.138V26.8889H217.523V32.7852C217.523 34.1059 217.485 35.2913 217.408 36.3416H217.523C218.634 34.6362 220.281 33.7835 222.464 33.7835ZM222.12 35.9517C220.492 35.9517 219.318 36.4612 218.6 37.4803C217.882 38.489 217.523 40.1945 217.523 42.5967C217.523 44.9988 217.892 46.7199 218.629 47.7598C219.366 48.7893 220.549 49.3041 222.177 49.3041C223.642 49.3041 224.734 48.7269 225.452 47.5726C226.17 46.4079 226.529 44.7389 226.529 42.5655C226.529 40.3401 226.17 38.6814 225.452 37.5895C224.734 36.4976 223.623 35.9517 222.12 35.9517Z" fill="#A4A4A4"/>
<path d="M109.007 35.3689L109.009 35.3685C109.651 36.6499 109.995 37.2932 111.027 37.2932C112.747 37.2932 112.747 34.8423 112.747 34.8423V44.9649C112.747 44.9649 112.747 42.7958 111.027 42.7958C109.995 42.7958 109.651 43.5188 108.938 44.6126C108.932 44.6107 108.926 44.6088 108.92 44.607C107.932 46.411 106.883 47.134 105.524 47.134C103.055 47.134 101.053 43.8969 101.053 39.9036C101.053 35.9104 103.055 32.6732 105.524 32.6732C106.932 32.6732 108.187 33.7249 109.007 35.3689Z" fill="#A4A4A4"/>
<path d="M44.3918 33.1785C41.2027 37.1792 41.2027 42.81 44.3918 46.8107L59.1149 65.281C62.0698 68.9881 67.0883 70.436 71.6056 68.8848L93.5395 61.3531C98.0582 59.8015 101.077 55.5919 101.052 50.8766L101.024 48.8242C101.024 46.362 99.7389 46.0171 99.039 45.6723C97.2893 45.3275 95.3676 46.0644 94.2821 47.7371C92.8933 49.446 90.9902 50.4999 88.8909 50.4999C84.6391 50.4999 81.1924 46.1771 81.1924 40.8448C81.1924 35.5124 84.6391 31.1896 88.8909 31.1896C91.0492 31.1896 93.0001 32.3035 94.398 34.098L94.4553 34.0904C95.8896 35.6723 97.4739 36.1729 99.039 35.6723C100.604 35.1718 100.976 33.9482 100.976 31.2946L100.939 29.0138C100.914 24.3468 97.9131 20.1995 93.4432 18.6565L71.6144 11.1212C67.0933 9.56046 62.0654 11.0067 59.1063 14.719L44.3918 33.1785Z" fill="#5EC0CF"/>
</svg>
