<svg width="272" height="80" viewBox="0 0 272 80" fill="none" xmlns="http://www.w3.org/2000/svg">
<circle cx="136" cy="40" r="39" fill="#D32E2E"/>
<path fill-rule="evenodd" clip-rule="evenodd" d="M132.866 64.375C132.866 44.3875 132.866 32.5119 127.643 16.9088C132.344 15.4494 138.611 14.962 145.402 16.9088C140.701 32.5119 140.15 44.2384 139.656 64.375H132.866ZM125.031 64.375C123.987 48.2875 121.375 40 115.107 28.7875C116.674 27.325 120.853 24.4 123.464 23.425C127.121 30.2499 130.254 46.3374 130.254 64.375H125.031ZM157.415 28.7875C151.147 40 148.536 48.2875 147.491 64.375H142.268C142.268 46.3374 145.402 30.2499 149.058 23.425C151.669 24.4 155.848 27.325 157.415 28.7875ZM154.46 64.3751C155.14 57.1825 159.689 48.0718 165.25 44.7153C164.239 42.3177 161.206 37.0432 159.689 35.1251C154.635 40.3997 150.591 50.4694 149.58 64.3751H154.46ZM106.75 44.7153C112.31 48.0718 116.859 57.1825 117.539 64.3751H122.419C121.408 50.4694 117.364 40.3997 112.31 35.1251C110.793 37.0432 107.76 42.3177 106.75 44.7153Z" fill="white"/>
</svg>
