<svg width="272" height="80" viewBox="0 0 272 80" fill="none" xmlns="http://www.w3.org/2000/svg">
<path d="M58.4319 27.8241H61.7971V44.9051C61.7971 49.4303 59.8171 52.5533 55.1772 52.5533C53.8051 52.5739 52.4396 52.3583 51.1406 51.916V48.6442C52.2487 49.0736 53.428 49.2899 54.6163 49.2816C57.4589 49.2816 58.4404 47.582 58.4404 45.1303L58.4319 27.8241Z" fill="#253858"/>
<path d="M67.928 26.5114C68.483 26.4717 69.031 26.6539 69.4517 27.018C69.8724 27.3821 70.1313 27.8983 70.1715 28.4532C70.18 28.5536 70.18 28.6545 70.1715 28.7549C70.1715 29.3499 69.9351 29.9205 69.5144 30.3413C69.0937 30.762 68.523 30.9984 67.928 30.9984C67.333 30.9984 66.7624 30.762 66.3417 30.3413C65.9209 29.9205 65.6846 29.3499 65.6846 28.7549C65.6448 28.2 65.827 27.6519 66.1911 27.2313C66.5552 26.8106 67.0715 26.5517 67.6264 26.5114C67.7267 26.5029 67.8277 26.5029 67.928 26.5114ZM66.2837 33.6922H69.5002V52.3878H66.2837V33.6922Z" fill="#253858"/>
<path d="M74.3569 33.6876H77.4969V36.9763C78.5804 34.7711 80.4712 33.1989 84.1169 33.4241V36.5641C80.0039 36.1392 77.4969 37.3884 77.4969 41.3485V52.3959H74.3569V33.6876Z" fill="#253858"/>
<path d="M99.1842 49.0181C97.986 51.4867 95.7425 52.7572 92.8659 52.7572C87.8946 52.7572 85.3877 48.5337 85.3877 43.0355C85.3877 37.7625 88.0051 33.3138 93.2398 33.3138C95.9677 33.3138 98.0625 34.546 99.1884 36.9764V33.6877H102.405V52.3833H99.1884L99.1842 49.0181ZM93.7242 49.7659C96.6051 49.7659 99.1842 47.9346 99.1842 43.7833V42.2707C99.1842 38.1194 96.8303 36.2881 94.0854 36.2881C90.4568 36.2881 88.5872 38.6803 88.5872 43.0185C88.5872 47.5224 90.3973 49.7659 93.7285 49.7659H93.7242Z" fill="#253858"/>
<path d="M121.432 52.7573C116.681 52.7573 114.476 51.8226 112.568 50.8495V47.4121C114.85 48.6103 118.364 49.4686 121.614 49.4686C125.315 49.4686 126.713 48.0112 126.713 45.84C126.713 43.6687 125.366 42.513 120.692 41.3913C115.169 40.0443 112.692 38.1365 112.692 34.1C112.692 30.2759 115.606 27.446 121.33 27.446C124.882 27.446 127.164 28.2958 128.846 29.2391V32.6043C126.507 31.3168 123.868 30.6717 121.198 30.7348C117.982 30.7348 116.074 31.8565 116.074 34.1C116.074 36.1183 117.646 37.1295 121.98 38.213C127.176 39.5217 130.095 41.1873 130.095 45.6148C130.07 49.8765 127.529 52.7573 121.432 52.7573Z" fill="#253858"/>
<path d="M132.913 42.9972C132.913 37.3886 136.201 33.3138 141.81 33.3138C147.419 33.3138 150.635 37.3886 150.635 42.9972C150.635 48.6059 147.38 52.7699 141.81 52.7699C136.24 52.7699 132.913 48.6059 132.913 42.9972ZM136.053 42.9972C136.053 46.5494 137.812 49.7659 141.81 49.7659C145.808 49.7659 147.495 46.5494 147.495 42.9972C147.495 39.4451 145.774 36.3221 141.81 36.3221C137.846 36.3221 136.07 39.4451 136.07 42.9972H136.053Z" fill="#253858"/>
<path d="M158.823 33.6879H163.646V36.6622H158.823V52.3835H155.683V36.6622H152.641V33.6879H155.67V31.6484C155.67 28.1727 157.616 25.8145 161.619 25.8145C162.351 25.8113 163.081 25.9115 163.786 26.1119V29.0862C163.121 28.9584 162.445 28.8958 161.767 28.8993C159.787 28.8993 158.793 30.0593 158.793 31.7419L158.823 33.6879Z" fill="#253858"/>
<path d="M174.527 49.2432C175.207 49.2215 175.883 49.1332 176.546 48.9798V52.0815C175.841 52.282 175.111 52.3822 174.379 52.379C170.376 52.379 168.43 50.025 168.43 46.5451V36.6789H165.388V33.7046H168.417V29.7233H171.557V33.6876H176.529V36.6619H171.557V46.4771C171.574 48.1215 172.547 49.2432 174.527 49.2432Z" fill="#253858"/>
<path d="M177.446 33.6878H180.998L186.382 49.5408L191.838 33.6878H194.905L200.365 49.5408L205.753 33.6878H209.305L202.426 52.3834H198.313L195.097 43.3373L193.397 37.5799L191.697 43.3373L188.438 52.3834H184.325L177.446 33.6878Z" fill="#253858"/>
<path d="M223.994 49.0181C222.796 51.4867 220.553 52.7572 217.676 52.7572C212.705 52.7572 210.198 48.5337 210.198 43.0355C210.198 37.7625 212.815 33.3138 218.05 33.3138C220.778 33.3138 222.873 34.546 223.999 36.9764V33.6877H227.215V52.3833H223.999L223.994 49.0181ZM218.534 49.7659C221.415 49.7659 223.994 47.9346 223.994 43.7833V42.2707C223.994 38.1194 221.64 36.2881 218.895 36.2881C215.284 36.3221 213.402 38.6972 213.402 43.0355C213.402 47.5224 215.207 49.7659 218.539 49.7659H218.534Z" fill="#253858"/>
<path d="M232.072 33.6876H235.212V36.9763C236.295 34.7711 238.186 33.1989 241.832 33.4241V36.5641C237.719 36.1392 235.212 37.3884 235.212 41.3485V52.3959H232.072V33.6876Z" fill="#253858"/>
<path d="M253.159 52.7573C246.165 52.7573 243.102 48.7207 243.102 42.9846C243.102 37.3377 246.242 33.3011 251.927 33.3011C257.684 33.3011 260 37.3037 260 42.9846V44.442H246.356C246.807 47.6202 248.863 49.6768 253.274 49.6768C255.213 49.6755 257.138 49.3332 258.959 48.6655V51.6398C257.425 52.4684 255.067 52.7573 253.159 52.7573ZM246.318 41.7099H256.741C256.554 38.2342 254.982 36.2499 251.77 36.2499C248.37 36.2499 246.671 38.4467 246.318 41.6886V41.7099Z" fill="#253858"/>
<path d="M43.6168 39.1045L29.38 25.3347L28 24L17.2831 34.3654L12.3832 39.1045C12.1378 39.3421 12 39.6642 12 40C12 40.3358 12.1378 40.6579 12.3832 40.8955L22.1743 50.3654L28 56L38.7169 45.6346L38.8829 45.4741L43.6168 40.8955C43.8622 40.6579 44 40.3358 44 40C44 39.6642 43.8622 39.3421 43.6168 39.1045ZM28 44.7307L23.1088 40L28 35.2693L32.8912 40L28 44.7307Z" fill="#2684FF"/>
<path d="M28 35.2691C26.4617 33.781 25.5945 31.7647 25.588 29.6604C25.5814 27.5561 26.436 25.5348 27.9651 24.0378L17.2612 34.3863L23.087 40.0209L28 35.2691Z" fill="url(#paint0_linear_2950_23842)"/>
<path d="M32.9048 39.9875L28.0005 44.731C29.5448 46.2249 30.4124 48.2509 30.4124 50.3635C30.4124 52.476 29.5448 54.5021 28.0005 55.996L38.7305 45.6222L32.9048 39.9875Z" fill="url(#paint1_linear_2950_23842)"/>
<defs>
<linearGradient id="paint0_linear_2950_23842" x1="27.1222" y1="30.4835" x2="20.5198" y2="37.3098" gradientUnits="userSpaceOnUse">
<stop offset="0.18" stop-color="#0052CC"/>
<stop offset="1" stop-color="#2684FF"/>
</linearGradient>
<linearGradient id="paint1_linear_2950_23842" x1="444.111" y1="289.879" x2="675.257" y2="444.81" gradientUnits="userSpaceOnUse">
<stop offset="0.18" stop-color="#0052CC"/>
<stop offset="1" stop-color="#2684FF"/>
</linearGradient>
</defs>
</svg>
