<svg width="272" height="80" viewBox="0 0 272 80" fill="none" xmlns="http://www.w3.org/2000/svg">
<path fill-rule="evenodd" clip-rule="evenodd" d="M104.31 3C101.392 3 99 5.33386 99 8.30956V69.6904C99 72.6078 101.334 75 104.31 75H165.69C168.608 75 171 72.6661 171 69.6904V8.30956C171 5.39221 168.666 3 165.69 3H104.31ZM109.677 15.0195C109.677 14.261 110.261 13.6775 111.019 13.6775H119.013C119.771 13.6775 120.355 14.261 120.355 15.0195V23.013C120.355 23.7715 119.771 24.355 119.013 24.355H111.019C110.261 24.355 109.677 23.7715 109.677 23.013V15.0195ZM124.322 13.6775C123.564 13.6775 122.98 14.261 122.98 15.0195V23.013C122.98 23.7715 123.564 24.355 124.322 24.355H132.316C133.074 24.355 133.658 23.7715 133.658 23.013V15.0195C133.658 14.261 133.074 13.6775 132.316 13.6775H124.322ZM136.342 15.0195C136.342 14.261 136.925 13.6775 137.684 13.6775H145.677C146.436 13.6775 147.019 14.261 147.019 15.0195V23.013C147.019 23.7715 146.436 24.355 145.677 24.355H137.684C136.925 24.355 136.342 23.7715 136.342 23.013V15.0195ZM111.019 27.0389C110.261 27.0389 109.677 27.6223 109.677 28.3808V36.3744C109.677 37.1329 110.261 37.7163 111.019 37.7163H119.013C119.771 37.7163 120.355 37.1329 120.355 36.3744V28.3808C120.355 27.6223 119.771 27.0389 119.013 27.0389H111.019ZM122.98 28.3224C122.98 27.5639 123.564 26.9805 124.322 26.9805H132.316C133.074 26.9805 133.658 27.5639 133.658 28.3224V36.3743C133.658 37.1328 133.074 37.7163 132.316 37.7163H124.322C123.564 37.7163 122.98 37.1328 122.98 36.3743V28.3224ZM151.045 27.0389C150.287 27.0389 149.703 27.6223 149.703 28.3808V36.3744C149.703 37.1329 150.287 37.7163 151.045 37.7163H159.039C159.797 37.7163 160.381 37.1329 160.381 36.3744V28.3808C160.381 27.6223 159.797 27.0389 159.039 27.0389H151.045ZM109.677 41.684C109.677 40.9255 110.261 40.342 111.019 40.342H119.013C119.771 40.342 120.355 40.9255 120.355 41.684V49.6775C120.355 50.436 119.771 51.0194 119.013 51.0194H111.019C110.261 51.0194 109.677 50.436 109.677 49.6775V41.684ZM137.684 40.342C136.925 40.342 136.342 40.9255 136.342 41.684V49.6775C136.342 50.436 136.925 51.0194 137.684 51.0194H145.677C146.436 51.0194 147.019 50.436 147.019 49.6775V41.684C147.019 40.9255 146.436 40.342 145.677 40.342H137.684ZM149.703 41.684C149.703 40.9255 150.287 40.342 151.045 40.342H159.039C159.797 40.342 160.381 40.9255 160.381 41.684V49.6775C160.381 50.436 159.797 51.0194 159.039 51.0194H151.045C150.287 51.0194 149.703 50.436 149.703 49.6775V41.684ZM124.322 53.7033C123.564 53.7033 122.98 54.2868 122.98 55.0453V63.0388C122.98 63.7973 123.564 64.3808 124.322 64.3808H132.316C133.074 64.3808 133.658 63.7973 133.658 63.0388V55.0453C133.658 54.2868 133.074 53.7033 132.316 53.7033H124.322ZM136.342 55.0453C136.342 54.2868 136.925 53.7033 137.684 53.7033H145.677C146.436 53.7033 147.019 54.2868 147.019 55.0453V63.0388C147.019 63.7973 146.436 64.3808 145.677 64.3808H137.684C136.925 64.3808 136.342 63.7973 136.342 63.0388V55.0453ZM151.045 53.7033C150.287 53.7033 149.703 54.2868 149.703 55.0453V63.0388C149.703 63.7973 150.287 64.3808 151.045 64.3808H159.039C159.797 64.3808 160.381 63.7973 160.381 63.0388V55.0453C160.381 54.2868 159.797 53.7033 159.039 53.7033H151.045Z" fill="white"/>
</svg>
