<svg width="272" height="80" viewBox="0 0 272 80" fill="none" xmlns="http://www.w3.org/2000/svg">
<g clip-path="url(#clip0_10573_1550)">
<path fill-rule="evenodd" clip-rule="evenodd" d="M179.237 18.7503L183.177 9.87412L141.313 5.00098L135.34 11.5384L179.237 18.7503ZM84.1254 18.7499L97.6324 28.181L132.526 11.5379L122.395 5.99018L84.1254 18.7499ZM145.47 47.5985L155.6 43.16L97.6326 28.736L83 29.2907L145.47 47.5985ZM157.289 43.7146L154.475 75.3365L172.484 48.7073L173.047 42.605L157.289 43.7146ZM111.14 60.9124L101.01 35.9477L145.47 48.7085L156.163 44.2701L153.35 77.0008L111.14 60.9124ZM184.303 40.9413L158.414 42.6056L179.8 19.3052L196.684 17.0861L184.303 40.9413Z" fill="#55BCEC"/>
<path fill-rule="evenodd" clip-rule="evenodd" d="M134.777 12.6476L136.465 37.0575L157.289 42.0506L177.549 19.5353L134.777 12.6476ZM133.651 12.6476L135.34 36.5028L101.009 28.1812L133.651 12.6476Z" fill="#F2AB54"/>
</g>
<defs>
<clipPath id="clip0_10573_1550">
<rect width="272" height="80" fill="white"/>
</clipPath>
</defs>
</svg>
