<svg width="272" height="80" viewBox="0 0 272 80" fill="none" xmlns="http://www.w3.org/2000/svg"><g clip-path="url(#clip0)" fill-rule="evenodd" clip-rule="evenodd"><path d="M104.681 41.248c0-.685-.113-1.243-.34-1.672a2.555 2.555 0 00-.936-1.006c-.397-.243-.887-.408-1.468-.493a13.363 13.363 0 00-1.937-.129c-1.532 0-3.163.3-4.894.9a11.602 11.602 0 01-.893-2.1c-.198-.657-.298-1.443-.298-2.357a22.508 22.508 0 013.745-.943c1.248-.2 2.412-.3 3.489-.3 2.951 0 5.256.714 6.915 2.143 1.66 1.429 2.49 3.714 2.49 6.857v12.856c-.993.314-2.199.614-3.618.9-1.418.286-3.021.429-4.808.429-1.447 0-2.773-.13-3.98-.386-1.205-.257-2.24-.686-3.105-1.286a6.038 6.038 0 01-2-2.314c-.468-.943-.703-2.1-.703-3.471s.291-2.521.873-3.45a6.749 6.749 0 012.255-2.228 9.937 9.937 0 013.085-1.2 16.223 16.223 0 013.405-.365c.822 0 1.73.044 2.723.129v-.514zm0 4.414c-.34-.057-.709-.108-1.107-.15a10.048 10.048 0 00-1.063-.064c-1.39 0-2.49.25-3.298.75-.809.5-1.213 1.307-1.213 2.42 0 .744.156 1.315.468 1.715.312.4.688.693 1.128.878.44.186.907.3 1.404.343.497.043.929.065 1.298.065.426 0 .851-.036 1.276-.108.426-.071.795-.135 1.107-.193v-5.656zm9.901-7.371h-2.766l-.213-.857 7.958-10.243h.979v6.471h5.149c.084.429.141.815.17 1.157.028.343.042.7.042 1.072 0 .4-.014.785-.042 1.157-.029.371-.086.786-.17 1.243h-5.149v8.7c0 .885.071 1.599.213 2.142.141.542.347.971.616 1.286.27.314.603.528 1 .642.398.115.866.172 1.404.172.426 0 .845-.036 1.256-.107.411-.072.773-.136 1.085-.193.199.542.34 1.107.426 1.693a11.017 11.017 0 01.106 2.357 7.924 7.924 0 01-.064.621 17.18 17.18 0 01-4.042.471c-2.582 0-4.554-.607-5.915-1.82-1.362-1.215-2.043-3.194-2.043-5.936V38.29zm15.966 0h-2.766l-.213-.857 7.958-10.243h.978v6.471h5.149c.085.429.142.815.171 1.157.028.343.042.7.042 1.072 0 .4-.014.785-.042 1.157-.029.371-.086.786-.171 1.243h-5.149v8.7c0 .885.072 1.599.213 2.142.142.542.348.971.617 1.286.27.314.603.528 1 .642.397.115.866.172 1.404.172.426 0 .844-.036 1.256-.107.411-.072.773-.136 1.085-.193.199.542.34 1.107.425 1.693a10.885 10.885 0 01.107 2.357 7.924 7.924 0 01-.064.621 17.181 17.181 0 01-4.043.471c-2.581 0-4.553-.607-5.915-1.82-1.361-1.215-2.042-3.194-2.042-5.936V38.29zm27.953 4.071c-.057-1.372-.433-2.478-1.128-3.321-.695-.843-1.667-1.265-2.915-1.265-1.419 0-2.497.4-3.234 1.2-.738.8-1.177 1.929-1.319 3.386h8.596zm-8.639 4.243c.114 1.714.709 2.957 1.787 3.728 1.078.772 2.497 1.157 4.256 1.157.965 0 1.95-.093 2.957-.279a16.642 16.642 0 002.873-.792c.312.571.581 1.257.808 2.057.227.8.355 1.657.383 2.57-2.213.858-4.709 1.287-7.49 1.287-2.042 0-3.793-.286-5.255-.858-1.461-.57-2.652-1.364-3.574-2.378-.922-1.014-1.603-2.221-2.043-3.621-.44-1.4-.659-2.928-.659-4.585 0-1.629.226-3.157.68-4.586.454-1.429 1.128-2.671 2.022-3.728.893-1.058 1.999-1.893 3.319-2.507 1.319-.615 2.858-.922 4.617-.922 1.532 0 2.894.271 4.085.814a8.996 8.996 0 013.043 2.23c.837.941 1.468 2.063 1.894 3.363.425 1.3.638 2.693.638 4.178 0 .543-.021 1.08-.064 1.607-.042.529-.093.95-.149 1.265h-14.128zm16.649-12.943c.425-.085.829-.15 1.212-.192.384-.044.802-.065 1.256-.065.426 0 .844.03 1.255.086.412.057.816.129 1.212.214.086.144.164.35.235.622.071.271.135.557.191.857.057.3.106.6.149.9l.107.75a10.988 10.988 0 012.298-2.378c.908-.7 2.042-1.05 3.404-1.05.284 0 .61.013.979.042.368.029.638.072.808.13.057.284.1.613.128.984.029.372.043.758.043 1.158 0 .485-.022 1.014-.064 1.585a11.519 11.519 0 01-.235 1.629 5.78 5.78 0 00-1.042-.086h-.702a9.88 9.88 0 00-1.617.15c-.596.1-1.163.364-1.702.793-.54.428-.986 1.071-1.341 1.928-.354.857-.532 2.057-.532 3.6v10.542c-.51.086-1.021.143-1.532.172a25.4 25.4 0 01-2.957 0 15.69 15.69 0 01-1.553-.172V33.662zm16.109 0c.397-.085.795-.15 1.191-.192.398-.044.837-.065 1.32-.065.482 0 .908.021 1.276.065.369.042.752.107 1.149.192.085.143.164.35.235.622.07.271.134.557.191.857.057.3.106.593.149.878.043.286.078.529.106.729a7.05 7.05 0 01.894-1.286 6.545 6.545 0 011.319-1.157 7.139 7.139 0 011.724-.835c.638-.215 1.354-.322 2.149-.322 3.432 0 5.631 1.315 6.595 3.943.568-1.057 1.369-1.978 2.404-2.764 1.036-.786 2.348-1.179 3.937-1.179 2.496 0 4.333.693 5.511 2.08 1.177 1.384 1.766 3.549 1.766 6.491v14.1a18.222 18.222 0 01-3.021.256c-.994 0-2.001-.085-3.022-.257V43.306c0-1.543-.192-2.728-.575-3.557-.382-.828-1.155-1.243-2.318-1.243-.483 0-.958.072-1.426.214a3.04 3.04 0 00-1.277.793c-.382.386-.694.929-.936 1.629-.241.699-.362 1.607-.362 2.72V55.82a18.213 18.213 0 01-3.021.256c-.993 0-2-.085-3.022-.257V43.306c0-1.543-.191-2.728-.574-3.557-.383-.828-1.156-1.243-2.319-1.243a5.09 5.09 0 00-1.447.214c-.482.143-.915.422-1.298.836s-.688.992-.915 1.736c-.227.742-.34 1.714-.34 2.914v11.614a18.225 18.225 0 01-3.022.256c-.993 0-1.999-.085-3.021-.257V33.663zm44.222 18.042c1.589 0 2.731-.592 3.426-1.778.695-1.186 1.043-2.893 1.043-5.121 0-2.229-.348-3.936-1.043-5.121-.695-1.186-1.837-1.78-3.426-1.78-1.56 0-2.688.594-3.383 1.78-.695 1.185-1.043 2.892-1.043 5.12 0 2.23.348 3.936 1.043 5.122s1.823 1.778 3.383 1.778zm0 4.629c-1.787 0-3.34-.294-4.659-.88-1.319-.585-2.412-1.399-3.277-2.442-.865-1.043-1.518-2.264-1.957-3.664-.44-1.4-.66-2.914-.66-4.542 0-1.629.22-3.157.66-4.586.439-1.428 1.092-2.664 1.957-3.706.865-1.044 1.958-1.864 3.277-2.465 1.319-.6 2.872-.9 4.659-.9 1.788 0 3.348.3 4.681.9 1.333.6 2.44 1.421 3.32 2.465.879 1.042 1.531 2.278 1.957 3.706.426 1.428.638 2.957.638 4.586 0 1.628-.212 3.142-.638 4.542-.426 1.4-1.078 2.621-1.957 3.664-.88 1.043-1.987 1.857-3.32 2.443-1.333.585-2.893.879-4.681.879zm18.354-10.157c-1.589-.457-2.83-1.136-3.723-2.036-.894-.9-1.341-2.25-1.341-4.05 0-2.171.773-3.87 2.32-5.099 1.546-1.228 3.652-1.843 6.319-1.843 1.106 0 2.198.1 3.276.3 1.079.2 2.171.5 3.277.9a11.798 11.798 0 01-.426 2.314c-.226.8-.496 1.5-.808 2.1a16.663 16.663 0 00-2.256-.75 10.27 10.27 0 00-2.595-.321c-.965 0-1.716.15-2.256.45-.539.3-.808.779-.808 1.435 0 .629.191 1.072.574 1.329.383.257.93.5 1.639.728l2.425.73c.795.228 1.511.506 2.149.835a5.936 5.936 0 011.639 1.22c.454.486.808 1.087 1.063 1.8.256.715.384 1.586.384 2.615 0 1.057-.22 2.043-.66 2.957a6.815 6.815 0 01-1.915 2.378c-.837.672-1.851 1.2-3.043 1.586-1.191.386-2.539.579-4.042.579-.681 0-1.305-.022-1.872-.065a14.817 14.817 0 01-1.639-.214c-.525-.1-1.042-.221-1.553-.364a18.697 18.697 0 01-1.66-.557c.057-.772.192-1.55.404-2.336.213-.785.49-1.55.83-2.293.937.372 1.823.65 2.66.836.837.186 1.71.279 2.617.279.398 0 .83-.036 1.298-.108.468-.071.901-.2 1.298-.385a3.076 3.076 0 001-.729c.27-.3.404-.692.404-1.179 0-.685-.206-1.178-.617-1.478-.411-.3-.986-.565-1.723-.793l-2.639-.77zm14.719-7.885h-2.766l-.213-.857 7.958-10.243h.978v6.471h5.149c.086.429.142.815.171 1.157.028.343.042.7.042 1.072 0 .4-.014.785-.042 1.157-.029.371-.085.786-.171 1.243h-5.149v8.7c0 .885.072 1.599.213 2.142.142.542.348.971.617 1.286.27.314.603.528 1 .642.397.115.866.172 1.405.172.425 0 .843-.036 1.255-.107.411-.072.773-.136 1.085-.193.199.542.341 1.107.425 1.693a10.885 10.885 0 01.107 2.357 7.924 7.924 0 01-.064.621 17.18 17.18 0 01-4.042.471c-2.582 0-4.554-.607-5.916-1.82-1.361-1.215-2.042-3.194-2.042-5.936V38.29zM59.313 26.878a25.64 25.64 0 013.55-.259c1.198 0 2.382.087 3.55.26l7.606 15.899 7.837-15.9a17.966 17.966 0 013.18-.259c1.169 0 2.29.087 3.366.26l1.567 29.195a22.733 22.733 0 01-3.318.259c-1.046 0-2.075-.086-3.089-.259l-.83-21.109-6.73 14.59c-.431.057-.877.108-1.338.15-.461.044-.921.065-1.383.065-.4 0-.799-.014-1.198-.043-.4-.028-.814-.086-1.245-.172l-6.27-14.892-.645 21.411c-.983.173-1.936.259-2.858.259a18.65 18.65 0 01-3.042-.259l1.29-29.196" fill="#211F1E"/><path d="M35.707 27.07l-.235-4.776c7.707 5.634 11.242 15.857 8.028 25.418C39.544 59.48 26.865 65.79 15.18 61.806 3.496 57.823-2.77 45.054 1.185 33.287c3.22-9.577 12.218-15.539 21.755-15.279l-3.057 3.638c-5.658 1.03-10.543 4.92-12.463 10.633-2.857 8.498 1.931 17.81 10.695 20.797 8.763 2.988 18.183-1.48 21.04-9.978 1.914-5.693.397-11.75-3.448-16.028zm-5.873 2.64l.161 6.676s.07 3.07-2.044 5.156c-2.115 2.086-4.712 1.896-6.402 1.32-1.69-.577-3.867-2.014-4.288-4.964-.422-2.95 1.485-5.347 1.485-5.347l4.156-5.205 2.42-2.972 2.077-2.59s.954-1.286 1.226-1.552a.615.615 0 01.163-.113l.04-.02.006-.003a.515.515 0 01.655.217l.012.02.012.025c.03.056.054.12.066.2.055.377.037 1.982.037 1.982l.088 3.328.13 3.842z" fill="#0F5BC8"/></g><defs><clipPath id="clip0"><path fill="#fff" d="M0 0h272v80H0z"/></clipPath></defs></svg>