<svg width="272" height="80" viewBox="0 0 272 80" fill="none" xmlns="http://www.w3.org/2000/svg">
<path d="M86.2437 62.6948V46.546C86.2437 43.1761 84.8084 41.4762 81.9682 41.4762C79.1128 41.4762 77.6774 43.1612 77.6774 46.546V62.6948H69.2639V46.546C69.2639 43.1761 67.859 41.4762 65.0494 41.4762C62.194 41.4762 60.7739 43.1612 60.7739 46.546V62.6948H52.3604V45.5917C52.3604 42.0727 53.6125 39.4036 56.1167 37.5993C58.3155 35.9889 61.3084 35.1688 65.0647 35.1688C68.8668 35.1688 71.6765 36.1231 73.4783 38.0317C75.0358 36.1231 77.8607 35.1688 81.9682 35.1688C85.7245 35.1688 88.7021 35.974 90.9009 37.5993C93.4052 39.4036 94.6573 42.0727 94.6573 45.5917V62.6948H86.2437Z" fill="#F98012"/>
<path d="M189.391 62.6203V16.5H197.82V62.6203H189.391Z" fill="#F98012"/>
<path d="M178.656 62.6203V59.9064C177.908 60.8906 176.625 61.6659 174.823 62.2624C173.22 62.7992 171.693 63.0676 170.242 63.0676C166.226 63.0676 163.005 61.7256 160.577 59.0267C158.149 56.3427 156.927 53.0025 156.927 49.0362C156.927 45.1145 158.118 41.8341 160.5 39.1948C162.608 36.8538 166.058 35.2284 170.013 35.2284C174.472 35.2284 177.083 36.8687 178.656 38.7475V16.5H186.856V62.6203H178.656ZM178.656 47.2618C178.656 45.8005 177.938 44.3839 176.518 43.0419C175.098 41.6999 173.617 41.0289 172.121 41.0289C169.968 41.0289 168.257 41.8937 167.005 43.5936C165.906 45.1145 165.356 46.9784 165.356 49.1704C165.356 51.3325 165.906 53.1666 167.005 54.6726C168.257 56.4321 169.968 57.3119 172.121 57.3119C173.418 57.3119 174.839 56.7154 176.366 55.5076C177.892 54.3147 178.656 53.0771 178.656 51.7947V47.2618Z" fill="#F98012"/>
<path d="M141.062 63.3509C136.802 63.3509 133.274 62.0238 130.495 59.3845C127.716 56.7452 126.327 53.3455 126.327 49.1704C126.327 45.0101 127.716 41.6104 130.495 38.9711C133.274 36.3318 136.802 35.0048 141.062 35.0048C145.322 35.0048 148.865 36.3318 151.659 38.9711C154.469 41.6104 155.873 45.0251 155.873 49.1704C155.873 53.3306 154.469 56.7303 151.659 59.3845C148.849 62.0238 145.322 63.3509 141.062 63.3509ZM141.062 41.6104C139.031 41.6104 137.474 42.356 136.374 43.862C135.29 45.368 134.74 47.1424 134.74 49.2151C134.74 51.2877 135.244 53.0324 136.267 54.4489C137.428 56.0742 139.031 56.8794 141.062 56.8794C143.093 56.8794 144.681 56.0742 145.857 54.4489C146.925 53.0174 147.46 51.2728 147.46 49.2151C147.46 47.1424 146.956 45.3978 145.933 43.9813C144.757 42.4007 143.139 41.6104 141.062 41.6104Z" fill="#F98012"/>
<path d="M110.599 63.3509C106.339 63.3509 102.811 62.0238 100.032 59.3845C97.2533 56.7452 95.8638 53.3455 95.8638 49.1704C95.8638 45.0101 97.2533 41.6104 100.032 38.9711C102.811 36.3318 106.339 35.0048 110.599 35.0048C114.859 35.0048 118.387 36.3318 121.196 38.9711C124.006 41.6104 125.411 45.0251 125.411 49.1704C125.411 53.3306 124.006 56.7303 121.196 59.3845C118.402 62.0238 114.859 63.3509 110.599 63.3509ZM110.599 41.6104C108.568 41.6104 107.011 42.356 105.911 43.862C104.827 45.368 104.277 47.1424 104.277 49.2151C104.277 51.2877 104.781 53.0324 105.804 54.4489C106.965 56.0742 108.568 56.8794 110.599 56.8794C112.63 56.8794 114.218 56.0742 115.394 54.4489C116.463 53.0174 116.997 51.2728 116.997 49.2151C116.997 47.1424 116.493 45.3978 115.47 43.9813C114.31 42.4007 112.691 41.6104 110.599 41.6104Z" fill="#F98012"/>
<path d="M207.791 51.6754C207.974 53.6288 210.57 57.8486 214.86 57.8486C219.029 57.8486 220.999 55.4927 221.106 54.5384L229.977 54.4638C229.015 57.3566 225.076 63.5 214.708 63.5C210.402 63.5 206.447 62.1878 203.622 59.5783C200.797 56.954 199.377 53.5393 199.377 49.3344C199.377 44.9803 200.797 41.5209 203.622 38.9413C206.462 36.3765 210.127 35.0793 214.647 35.0793C219.563 35.0793 223.396 36.6748 226.145 39.8508C228.695 42.7884 229.977 46.7249 229.977 51.6754H207.791ZM221.548 46.6056C221.197 44.8461 220.449 43.3997 219.289 42.2665C217.975 41.0437 216.479 40.4324 214.769 40.4324C213.013 40.4324 211.547 41.0139 210.371 42.1919C209.195 43.3699 208.401 44.8312 208.004 46.6056H221.548Z" fill="#F98012"/>
<path d="M68.699 33.9312L77.0515 27.9667L76.9447 27.6089C61.8735 29.4131 55.0174 30.6955 42.0229 38.0467L42.1451 38.3747L43.1834 38.3896C43.0918 39.4036 42.9239 41.9087 43.1376 45.6961C41.7023 49.7668 43.1071 52.5403 44.4203 55.5524C44.6341 52.421 44.6035 48.9915 43.6263 45.5768C43.4278 41.8341 43.5957 39.3589 43.6873 38.4045L52.2994 38.4791C52.2994 38.4791 52.2383 41.014 52.559 43.4147C60.2549 46.054 67.9966 43.3998 72.1042 36.8985C70.9437 35.6311 68.699 33.9312 68.699 33.9312Z" fill="#333333"/>
</svg>
