<svg width="272" height="80" viewBox="0 0 272 80" fill="none" xmlns="http://www.w3.org/2000/svg">
<path d="M90.0781 44.5035C90.0781 41.2767 88.7453 39.6633 86.1462 39.6633C83.5472 39.6633 82.2144 41.2767 82.2144 44.5035V59.8309H74.4172V44.5035C74.4172 41.2767 73.151 39.6633 70.552 39.6633C67.953 39.6633 66.6201 41.2767 66.6201 44.5035V59.8309H58.8896V43.6296C58.8896 40.2683 60.0226 37.781 62.355 36.0331C64.3543 34.4869 67.1533 33.7474 70.552 33.7474C74.084 33.7474 76.6164 34.6214 78.2825 36.4364C79.682 34.6214 82.281 33.7474 86.0796 33.7474C89.545 33.7474 92.2773 34.4869 94.2766 36.0331C96.609 37.781 97.7419 40.2683 97.7419 43.6296V59.8982H90.0781V44.5035Z" fill="white"/>
<path d="M112.47 60.5033C108.538 60.5033 105.339 59.226 102.74 56.7387C100.208 54.2513 98.8747 51.0245 98.8747 47.0582C98.8747 43.0919 100.141 39.8651 102.74 37.3777C105.272 34.8904 108.538 33.6131 112.47 33.6131C116.402 33.6131 119.667 34.8904 122.199 37.3777C124.798 39.8651 126.065 43.0919 126.065 47.0582C126.065 51.0245 124.798 54.2513 122.199 56.7387C119.6 59.226 116.335 60.5033 112.47 60.5033ZM112.47 39.8651C110.604 39.8651 109.138 40.6045 108.138 42.0163C107.138 43.428 106.605 45.1087 106.605 47.1254C106.605 49.075 107.072 50.7556 108.005 52.1001C109.071 53.6463 110.537 54.3858 112.403 54.3858C114.269 54.3858 115.735 53.6463 116.801 52.1001C117.801 50.7556 118.268 49.075 118.268 47.1254C118.268 45.1759 117.801 43.4952 116.868 42.1507C115.868 40.6045 114.336 39.8651 112.47 39.8651Z" fill="white"/>
<path d="M140.459 60.5033C136.527 60.5033 133.329 59.226 130.73 56.7387C128.197 54.2513 126.864 51.0245 126.864 47.0582C126.864 43.0919 128.131 39.8651 130.73 37.3777C133.262 34.8904 136.527 33.6131 140.459 33.6131C144.391 33.6131 147.657 34.8904 150.189 37.3777C152.788 39.8651 154.054 43.0919 154.054 47.0582C154.054 51.0245 152.788 54.2513 150.189 56.7387C147.59 59.226 144.325 60.5033 140.459 60.5033ZM140.459 39.8651C138.593 39.8651 137.127 40.6045 136.128 42.0163C135.128 43.428 134.595 45.1087 134.595 47.1254C134.595 49.075 135.061 50.7556 135.994 52.1001C137.061 53.6463 138.527 54.3858 140.393 54.3858C142.259 54.3858 143.725 53.6463 144.791 52.1001C145.791 50.7556 146.257 49.075 146.257 47.1254C146.257 45.1759 145.791 43.4952 144.858 42.1507C143.858 40.6045 142.325 39.8651 140.459 39.8651Z" fill="white"/>
<path d="M174.979 59.7638V57.2093C174.313 58.1504 173.113 58.8899 171.447 59.4277C169.981 59.9655 168.582 60.1672 167.249 60.1672C163.584 60.1672 160.585 58.8899 158.386 56.3353C156.12 53.7808 155.053 50.6212 155.053 46.8565C155.053 43.1591 156.12 39.9995 158.319 37.5122C160.518 35.0248 163.45 33.7475 167.049 33.7475C171.181 33.7475 173.78 34.8904 174.979 37.1088V16H182.51V59.7638H174.979ZM174.979 45.2431C174.979 43.8314 174.313 42.4869 172.98 41.2096C171.647 39.9323 170.314 39.26 168.915 39.26C166.916 39.26 165.383 40.0667 164.183 41.6802C163.184 43.0919 162.651 44.907 162.651 46.991C162.651 49.0077 163.184 50.7556 164.183 52.2346C165.316 53.9152 166.916 54.7219 168.915 54.7219C170.115 54.7219 171.381 54.1841 172.847 53.0413C174.246 51.8984 174.979 50.7556 174.979 49.5456V45.2431Z" fill="white"/>
<path d="M185.242 59.7638V16H192.973V59.7638H185.242Z" fill="white"/>
<path d="M202.236 49.4111C202.569 51.0246 203.369 52.3691 204.568 53.5119C205.834 54.6547 207.167 55.2598 208.7 55.2598C209.766 55.2598 210.899 54.9909 212.165 54.4531C213.698 53.7808 214.431 53.0413 214.431 52.1674L222.562 52.1002C221.429 54.8564 219.429 57.0076 216.697 58.4866C214.098 59.8983 211.299 60.6378 208.167 60.6378C204.235 60.6378 200.903 59.3605 198.304 56.9404C195.705 54.4531 194.372 51.2262 194.372 47.1927C194.372 43.0247 195.705 39.7979 198.304 37.3105C200.903 34.8904 204.302 33.6804 208.433 33.6804C212.965 33.6804 216.497 35.1593 219.03 38.1845C221.362 40.9407 222.562 44.7053 222.562 49.4111H202.236ZM214.898 44.5709C214.565 42.8903 213.898 41.5457 212.832 40.4701C211.632 39.3273 210.233 38.7223 208.7 38.7223C207.101 38.7223 205.768 39.2601 204.635 40.4029C203.569 41.5457 202.836 42.8903 202.436 44.5709H214.898Z" fill="white"/>
<path d="M59.7158 38.2353L58.8862 42.3848C66.4911 44.9437 73.6811 42.454 77.4835 35.8148C71.8836 31.942 66.6985 35.884 59.7158 38.2353Z" fill="#58595B"/>
<path d="M59.716 37.1977C59.4395 38.7885 59.2321 40.3101 58.9556 41.9009C66.2147 44.3908 73.3356 42.2467 77.138 35.7452C72.2986 30.1429 66.9061 34.7769 59.716 37.1977Z" fill="url(#paint0_linear_2206_19846)"/>
<path d="M68.3568 39.0656C65.0384 38.3739 61.4434 40.1031 58.9545 41.9014C57.3644 30.2814 64.5544 30.5581 73.9568 33.4631C73.3345 36.2989 72.2975 40.1031 70.5 42.3855C70.4309 40.8639 69.7395 39.8264 68.3568 39.0656Z" fill="url(#paint1_linear_2206_19846)"/>
<path d="M49 37.1973C61.1677 29.8658 68.0121 28.4825 82.1847 27.03C65.7306 40.0331 65.3158 37.1973 49 37.1973Z" fill="url(#paint2_linear_2206_19846)"/>
<path d="M82.1846 27.1001L69.1182 36.5754" stroke="#4A4A4C" stroke-width="0.5"/>
<path opacity="0.23" d="M66.6282 32.1497C66.4207 30.6945 66.7665 33.6741 66.6282 32.1497V32.1497Z" fill="#231F20"/>
<path d="M49 37.198L69.1182 36.5754" stroke="#A8ABAD" stroke-width="0.5"/>
<path d="M65.3843 32.287C61.9276 33.2553 50.5895 35.7452 50.4512 37.1976C50.1055 39.895 50.3821 44.1831 50.3821 44.1831" stroke="#F16922" stroke-width="0.5"/>
<path d="M51.4199 54.4897C50.1751 51.3772 48.6538 47.9189 50.4517 43.6306C51.6273 47.6422 51.4199 50.6855 51.4199 54.4897Z" fill="#F16922"/>
<path d="M64.998 32.3384C65.286 32.2358 65.4777 32.0356 65.4263 31.8913C65.3749 31.7469 65.0998 31.7131 64.8119 31.8157C64.5239 31.9183 64.3322 32.1185 64.3836 32.2628C64.435 32.4072 64.7101 32.441 64.998 32.3384Z" fill="#6D6E70"/>
<defs>
<linearGradient id="paint0_linear_2206_19846" x1="58.9473" y1="38.0118" x2="77.1028" y2="38.0118" gradientUnits="userSpaceOnUse">
<stop stop-color="#929497"/>
<stop offset="0.1245" stop-color="#757578"/>
<stop offset="0.2792" stop-color="#575658"/>
<stop offset="0.4403" stop-color="#403E3F"/>
<stop offset="0.6085" stop-color="#302D2E"/>
<stop offset="0.7884" stop-color="#262223"/>
<stop offset="1" stop-color="#231F20"/>
</linearGradient>
<linearGradient id="paint1_linear_2206_19846" x1="62.4244" y1="31.949" x2="69.9668" y2="42.7164" gradientUnits="userSpaceOnUse">
<stop stop-color="#231F20"/>
<stop offset="1" stop-color="#231F20" stop-opacity="0"/>
</linearGradient>
<linearGradient id="paint2_linear_2206_19846" x1="48.9772" y1="32.2783" x2="82.1612" y2="32.2783" gradientUnits="userSpaceOnUse">
<stop stop-color="#929497"/>
<stop offset="0.1245" stop-color="#757578"/>
<stop offset="0.2792" stop-color="#575658"/>
<stop offset="0.4403" stop-color="#403E3F"/>
<stop offset="0.6085" stop-color="#302D2E"/>
<stop offset="0.7884" stop-color="#262223"/>
<stop offset="1" stop-color="#231F20"/>
</linearGradient>
</defs>
</svg>
