<svg width="272" height="80" viewBox="0 0 272 80" fill="none" xmlns="http://www.w3.org/2000/svg">
<path d="M136.082 5C124.888 5 115.399 12.4119 112.459 22.4541C109.903 17.1276 104.364 13.3958 97.985 13.3958C89.2118 13.3958 82 20.4392 82 29.0074C82 37.5757 89.2118 44.6222 97.985 44.6222C104.364 44.6222 109.903 40.8883 112.459 35.5608C115.399 45.6038 124.888 53.0181 136.082 53.0181C147.194 53.0181 156.634 45.7156 159.65 35.7859C162.253 40.9924 167.723 44.6222 174.012 44.6222C182.785 44.6222 190 37.5757 190 29.0074C190 20.4392 182.785 13.3958 174.012 13.3958C167.723 13.3958 162.253 17.0234 159.65 22.229C156.634 12.3001 147.194 5 136.082 5ZM136.082 14.1644C144.533 14.1644 151.284 20.7543 151.284 29.0074C151.284 37.2606 144.533 43.8537 136.082 43.8537C127.632 43.8537 120.884 37.2606 120.884 29.0074C120.884 20.7543 127.632 14.1644 136.082 14.1644ZM97.985 22.5602C101.687 22.5602 104.59 25.3915 104.59 29.0074C104.59 32.6234 101.687 35.4579 97.985 35.4579C94.2826 35.4579 91.3836 32.6234 91.3836 29.0074C91.3836 25.3915 94.2826 22.5602 97.985 22.5602ZM174.012 22.5602C177.714 22.5602 180.616 25.3915 180.616 29.0074C180.616 32.6234 177.714 35.4579 174.012 35.4579C170.309 35.4579 167.41 32.6234 167.41 29.0074C167.41 25.3915 170.309 22.5602 174.012 22.5602Z" fill="white"/>
<path d="M109.603 64.8305C112.235 64.8305 113.707 66.6796 113.707 69.4531C113.707 69.7172 113.484 69.9374 113.216 69.9374H106.124C106.169 72.4027 107.908 73.8115 109.915 73.8115C111.164 73.8115 112.056 73.2832 112.502 72.931C112.77 72.7549 112.993 72.7989 113.127 73.0631L113.261 73.2832C113.395 73.5033 113.35 73.7235 113.127 73.8996C112.592 74.2958 111.432 74.9561 109.871 74.9561C106.971 74.9561 104.741 72.887 104.741 69.8933C104.786 66.7236 106.927 64.8305 109.603 64.8305ZM112.324 68.9688C112.235 66.9437 110.986 65.9311 109.559 65.9311C107.908 65.9311 106.481 66.9877 106.169 68.9688H112.324Z" fill="white"/>
<path d="M127.102 62.8495C127.102 62.5414 127.28 62.3653 127.593 62.3653H127.949C128.262 62.3653 128.395 62.5414 128.395 62.8495V65.1388H130.403C130.715 65.1388 130.893 65.3149 130.893 65.6231V65.7551C130.893 66.0633 130.715 66.1954 130.403 66.1954H128.395V71.0381C128.395 73.2833 129.778 73.5475 130.536 73.5915C130.938 73.6355 131.072 73.7235 131.072 74.0757V74.3399C131.072 74.6481 130.938 74.7801 130.536 74.7801C128.395 74.7801 127.102 73.5034 127.102 71.2142V62.8495Z" fill="white"/>
<path d="M137.316 64.8305C139.011 64.8305 140.082 65.5349 140.572 65.9311C140.795 66.1072 140.84 66.3274 140.617 66.5915L140.483 66.8116C140.305 67.0758 140.082 67.0758 139.814 66.8997C139.368 66.5915 138.52 66.0192 137.361 66.0192C135.22 66.0192 133.525 67.6041 133.525 69.9374C133.525 72.2266 135.22 73.8115 137.361 73.8115C138.744 73.8115 139.68 73.1952 140.126 72.7989C140.394 72.6228 140.572 72.6669 140.751 72.931L140.885 73.1071C141.018 73.3713 140.974 73.5473 140.751 73.7675C140.26 74.1637 139.056 75.0002 137.272 75.0002C134.372 75.0002 132.142 72.931 132.142 69.9374C132.187 66.9437 134.417 64.8305 137.316 64.8305Z" fill="white"/>
<path d="M143.249 61.7049C143.249 61.3967 143.07 61.2206 143.383 61.2206H143.739C144.052 61.2206 144.542 61.3967 144.542 61.7049V72.2267C144.542 73.4594 145.122 73.5914 145.568 73.6355C145.791 73.6355 145.97 73.7675 145.97 74.0757V74.3839C145.97 74.692 145.836 74.8681 145.479 74.8681C144.676 74.8681 143.249 74.604 143.249 72.4908V61.7049Z" fill="white"/>
<path d="M152.393 64.8305C155.248 64.8305 157.567 66.9877 157.567 69.8493C157.567 72.7549 155.248 74.9561 152.393 74.9561C149.538 74.9561 147.219 72.7549 147.219 69.8493C147.219 66.9877 149.538 64.8305 152.393 64.8305ZM152.393 73.8115C154.489 73.8115 156.184 72.1386 156.184 69.8493C156.184 67.6481 154.489 66.0192 152.393 66.0192C150.297 66.0192 148.557 67.6921 148.557 69.8493C148.602 72.0946 150.297 73.8115 152.393 73.8115Z" fill="white"/>
<path d="M174.651 64.8307C177.015 64.8307 177.862 66.7678 177.862 66.7678H177.907C177.907 66.7678 177.862 66.4596 177.862 66.0194V61.661C177.862 61.3528 177.728 61.1767 178.04 61.1767H178.397C178.71 61.1767 179.2 61.3528 179.2 61.661V74.2079C179.2 74.5161 179.066 74.6922 178.754 74.6922H178.442C178.13 74.6922 177.951 74.5601 177.951 74.2519V73.5035C177.951 73.1513 178.04 72.8872 178.04 72.8872H177.996C177.996 72.8872 177.148 74.9123 174.606 74.9123C171.974 74.9123 170.324 72.8431 170.324 69.8495C170.235 66.8558 172.063 64.8307 174.651 64.8307ZM174.695 73.8117C176.345 73.8117 177.862 72.667 177.862 69.8935C177.862 67.9124 176.836 66.0194 174.74 66.0194C173 66.0194 171.573 67.4282 171.573 69.8935C171.617 72.2708 172.866 73.8117 174.695 73.8117Z" fill="white"/>
<path d="M93.2463 74.7361H93.6032C93.9154 74.7361 94.0938 74.56 94.0938 74.2518V64.7988C94.0938 63.3019 95.7442 62.2332 97.6176 62.2332C99.4911 62.2332 101.141 63.3019 101.141 64.7988V74.2518C101.141 74.56 101.32 74.7361 101.632 74.7361H101.989C102.301 74.7361 102.435 74.56 102.435 74.2518V64.7426C102.435 62.2332 99.8925 61.0005 97.573 61.0005C95.3428 61.0005 92.8003 62.2332 92.8003 64.7426V74.2518C92.8003 74.56 92.9341 74.7361 93.2463 74.7361Z" fill="white"/>
<path d="M167.692 65.0507H167.336C167.023 65.0507 166.845 65.2268 166.845 65.5349V70.8619C166.845 72.3587 165.864 73.7235 163.946 73.7235C162.072 73.7235 161.046 72.3587 161.046 70.8619V65.5349C161.046 65.2268 160.868 65.0507 160.556 65.0507H160.199C159.886 65.0507 159.753 65.2268 159.753 65.5349V71.2141C159.753 73.7235 161.626 74.9561 163.946 74.9561C166.265 74.9561 168.138 73.7235 168.138 71.2141V65.5349C168.183 65.2268 168.005 65.0507 167.692 65.0507Z" fill="white"/>
<path d="M123.537 64.9785C123.428 64.9957 123.323 65.0677 123.222 65.1857L120.066 68.8986L116.911 65.1857C116.81 65.0677 116.697 65.0032 116.579 64.9931C116.461 64.9831 116.338 65.0274 116.219 65.1264L115.945 65.3525C115.706 65.5506 115.718 65.77 115.919 66.006L119.223 69.8908L117.03 72.4695C117.028 72.4715 117.027 72.4736 117.026 72.4755L115.919 73.7765C115.718 74.0126 115.741 74.2611 115.98 74.4592L116.254 74.6845C116.493 74.8826 116.71 74.8329 116.911 74.5968L120.067 70.884L122.112 73.2907C122.114 73.2923 122.115 73.2934 122.117 73.295L123.223 74.5968C123.424 74.8329 123.675 74.8542 123.914 74.6561L124.188 74.43C124.427 74.2319 124.415 74.0126 124.214 73.7765L120.91 69.8917L123.103 67.313C123.105 67.3111 123.106 67.3089 123.107 67.307L124.214 66.006C124.415 65.77 124.392 65.5214 124.153 65.3233L123.879 65.0972C123.76 64.9981 123.646 64.9613 123.537 64.9785Z" fill="white"/>
</svg>
