<svg width="272" height="80" viewBox="0 0 272 80" fill="none" xmlns="http://www.w3.org/2000/svg">
<path fill-rule="evenodd" clip-rule="evenodd" d="M55 25H62.5516H62.5517H77.6549L85.2066 32.5V55H77.6549V32.5L62.5517 32.5V55H55V25Z" fill="white"/>
<path fill-rule="evenodd" clip-rule="evenodd" d="M118.079 55H110.527H110.527H95.4237L87.872 47.5V25H95.4237V47.5L110.527 47.5V25H118.079V55Z" fill="white"/>
<path fill-rule="evenodd" clip-rule="evenodd" d="M194.059 25H209.5L217 32.5V55L209.941 55H194.5L187 47.5V25H194.059V25ZM209.5 47.5V32.5L194.5 32.5L194.5 47.5L209.5 47.5Z" fill="white"/>
<path fill-rule="evenodd" clip-rule="evenodd" d="M184 25H161.391H154H154V32.5H154L154 36.4707H154V43.5295H154L154 47.5H154V55H154V55H161.391V55H184V47.5H161.391V43.5295H184V36.4707H161.391V32.5H184V25Z" fill="white"/>
<path fill-rule="evenodd" clip-rule="evenodd" d="M151.207 25V31.1765L142.322 40L151.207 48.8235V55H144.988L136.103 46.1765L127.219 55H121L121 48.8235L129.884 40L121 31.1765L121 25H127.219L136.103 33.8235L144.988 25H151.207Z" fill="#79D1CE"/>
</svg>
