<svg width="272" height="80" viewBox="0 0 272 80" fill="none" xmlns="http://www.w3.org/2000/svg">
<g clip-path="url(#clip0_3071_25442)">
<path d="M195.501 64.8148C191.744 64.8148 188.072 63.7059 184.949 61.628C181.825 59.5504 179.391 56.5973 177.953 53.1422C176.516 49.6871 176.14 45.8852 176.873 42.2174C177.606 38.5495 179.414 35.1803 182.07 32.5359C184.727 29.8915 188.111 28.0906 191.796 27.3611C195.48 26.6314 199.299 27.0059 202.769 28.437C206.24 29.8682 209.206 32.2917 211.293 35.4012C213.38 38.5107 214.494 42.1665 214.494 45.9062C214.494 50.9211 212.493 55.7305 208.931 59.2767C205.369 62.8224 200.538 64.8148 195.501 64.8148ZM195.501 56.9992C197.705 56.9992 199.859 56.3486 201.691 55.1297C203.524 53.9108 204.952 52.1783 205.795 50.1513C206.639 48.1244 206.859 45.8939 206.429 43.7421C206 41.5902 204.938 39.6137 203.38 38.0623C201.822 36.5109 199.836 35.4544 197.675 35.0264C195.513 34.5983 193.273 34.818 191.237 35.6577C189.201 36.4972 187.461 37.9191 186.236 39.7433C185.011 41.5675 184.358 43.7122 184.358 45.9062C184.358 48.8483 185.532 51.6698 187.622 53.7502C189.711 55.8305 192.546 56.9992 195.501 56.9992ZM155.742 64.8148C151.985 64.8148 148.313 63.7059 145.19 61.628C142.066 59.5504 139.632 56.5973 138.194 53.1422C136.757 49.6871 136.381 45.8852 137.114 42.2174C137.846 38.5495 139.655 35.1803 142.311 32.5359C144.968 29.8915 148.352 28.0906 152.036 27.3611C155.721 26.6314 159.539 27.0059 163.01 28.437C166.481 29.8682 169.447 32.2917 171.534 35.4012C173.621 38.5107 174.735 42.1665 174.735 45.9062C174.735 50.9211 172.734 55.7305 169.172 59.2767C165.61 62.8224 160.779 64.8148 155.742 64.8148ZM155.742 56.9992C157.945 56.9992 160.1 56.3486 161.932 55.1297C163.765 53.9108 165.193 52.1783 166.036 50.1513C166.879 48.1244 167.1 45.8939 166.67 43.7421C166.24 41.5902 165.179 39.6137 163.621 38.0623C162.063 36.5109 160.077 35.4544 157.916 35.0264C155.754 34.5983 153.514 34.818 151.478 35.6577C149.441 36.4972 147.701 37.9191 146.477 39.7433C145.252 41.5675 144.599 43.7122 144.599 45.9062C144.599 48.8483 145.773 51.6698 147.863 53.7502C149.952 55.8305 152.786 56.9992 155.742 56.9992ZM134.976 45.6541C134.976 56.2177 126.467 64.8148 115.982 64.8148C105.498 64.8148 96.9893 56.2429 96.9893 45.6793C96.9893 35.1158 104.713 26.9977 115.982 26.9977C120.136 26.9977 123.985 27.8801 127.125 30.1744V19.2074C127.125 17.1149 128.974 15.4005 131.05 15.4005C133.127 15.4005 134.976 17.1149 134.976 19.2074V45.6541ZM115.982 56.9992C118.186 56.9992 120.341 56.3486 122.173 55.1297C124.005 53.9108 125.433 52.1783 126.277 50.1513C127.12 48.1244 127.341 45.8939 126.911 43.7421C126.481 41.5902 125.42 39.6137 123.862 38.0623C122.303 36.5109 120.318 35.4544 118.157 35.0264C115.995 34.5983 113.754 34.818 111.718 35.6577C109.682 36.4972 107.942 37.9191 106.718 39.7433C105.493 41.5675 104.84 43.7122 104.84 45.9062C104.84 48.8483 106.014 51.6698 108.104 53.7502C110.193 55.8305 113.027 56.9992 115.982 56.9992Z" fill="#8F8F8F"/>
<path d="M76.2227 64.8148C72.4662 64.8148 68.7941 63.7059 65.6706 61.6279C62.5472 59.5504 60.1128 56.5972 58.6753 53.1422C57.2377 49.6871 56.8616 45.8852 57.5945 42.2173C58.3273 38.5494 60.1362 35.1803 62.7925 32.5358C65.4487 29.8914 68.833 28.0906 72.5173 27.361C76.2016 26.6314 80.0206 27.0058 83.4911 28.437C86.9617 29.8681 89.928 32.2917 92.015 35.4012C94.102 38.5107 95.2159 42.1664 95.2159 45.9062C95.2159 50.921 93.2149 55.7305 89.653 59.2766C86.0911 62.8224 81.2601 64.8148 76.2227 64.8148ZM76.2227 56.9992C78.4266 56.9992 80.5809 56.3486 82.4133 55.1297C84.2457 53.9108 85.6739 52.1783 86.5172 50.1513C87.3606 48.1243 87.5813 45.8939 87.1513 43.742C86.7214 41.5902 85.6601 39.6136 84.1018 38.0622C82.5435 36.5108 80.558 35.4544 78.3966 35.0264C76.2351 34.5983 73.9947 34.818 71.9586 35.6576C69.9225 36.4972 68.1823 37.919 66.9579 39.7433C65.7336 41.5675 65.08 43.7122 65.08 45.9062C65.08 48.8482 66.254 51.6698 68.3437 53.7501C70.4333 55.8305 73.2675 56.9992 76.2227 56.9992Z" fill="#A24689"/>
</g>
<defs>
<clipPath id="clip0_3071_25442">
<rect width="158" height="50" fill="white" transform="translate(57 15)"/>
</clipPath>
</defs>
</svg>
