<svg width="272" height="80" viewBox="0 0 272 80" fill="none" xmlns="http://www.w3.org/2000/svg">
<path fill-rule="evenodd" clip-rule="evenodd" d="M141.792 40.235L142 39.9732L141.816 39.7436C148.509 31.8411 153.287 28 161.48 28C166.839 28 172 31.9747 172 39.9732C172 48.0091 166.803 52 161.5 52C153.278 52 148.476 48.1885 141.792 40.235ZM136 47.3455C142.79 55.2136 149.904 61 161.5 61C172 61 181 52.75 181 39.9732C181 27.1964 172 19 161.48 19C149.899 19 142.789 24.8395 136 32.6657C129.211 24.8395 122.101 19 110.52 19C100 19 91 27.1964 91 39.9732C91 52.75 100 61 110.5 61C122.096 61 129.21 55.2136 136 47.3455ZM130.184 39.7436L130 39.9732L130.208 40.235C123.524 48.1885 118.722 52 110.5 52C105.197 52 100 48.0091 100 39.9732C100 31.9747 105.161 28 110.52 28C118.713 28 123.491 31.8411 130.184 39.7436Z" fill="white"/>
</svg>
