<svg width="272" height="80" viewBox="0 0 272 80" fill="none" xmlns="http://www.w3.org/2000/svg">
<path fill-rule="evenodd" clip-rule="evenodd" d="M178.639 49.346V17.5H184.179V35.8115H185.259L192.16 26.8665H198.358L189.954 37.3101L199.25 49.346H192.771L185.165 38.996H184.179V49.346H178.639ZM84.8326 48.8308C86.335 49.4241 88.4947 49.7207 91.3117 49.7207H92.2507C95.0677 49.7207 97.1961 49.4241 98.6359 48.8308C100.107 48.2064 101.14 47.1761 101.735 45.7399C102.329 44.2725 102.627 42.165 102.627 39.4175V36.7481C102.627 34.0318 102.329 31.9556 101.735 30.5194C101.14 29.052 100.107 28.0217 98.6359 27.4285C97.1648 26.804 95.0364 26.4918 92.2507 26.4918H91.3117C88.4947 26.4918 86.3507 26.804 84.8796 27.4285C83.4085 28.0217 82.3599 29.052 81.7339 30.5194C81.1392 31.9556 80.8419 34.0318 80.8419 36.7481V39.4175C80.8419 42.165 81.1392 44.2725 81.7339 45.7399C82.3286 47.1761 83.3615 48.2064 84.8326 48.8308ZM95.3024 44.9438C94.6139 45.256 93.534 45.4121 92.0629 45.4121H91.4526C89.9815 45.4121 88.9016 45.256 88.213 44.9438C87.5244 44.6315 87.0393 44.0696 86.7576 43.2578C86.5072 42.4148 86.382 41.1347 86.382 39.4175V36.7481C86.382 34.9997 86.5072 33.7196 86.7576 32.9078C87.008 32.0961 87.4775 31.5341 88.1661 31.2219C88.886 30.9097 89.9815 30.7536 91.4526 30.7536H92.0629C93.534 30.7536 94.6139 30.9097 95.3024 31.2219C96.0223 31.5341 96.5075 32.0961 96.7579 32.9078C97.0083 33.7196 97.1335 34.9997 97.1335 36.7481V39.4175C97.1335 41.1347 97.0083 42.4148 96.7579 43.2578C96.5075 44.0696 96.0223 44.6315 95.3024 44.9438ZM111.161 26.8665H105.762V59.8961H111.349V46.3487H111.443C111.819 47.2542 112.304 47.9566 112.898 48.4562C113.493 48.9245 114.213 49.2523 115.058 49.4397C115.903 49.627 116.967 49.7207 118.251 49.7207H118.814C121.099 49.7207 122.836 49.4084 124.026 48.784C125.246 48.1284 126.091 47.0512 126.561 45.5526C127.062 44.0227 127.312 41.8216 127.312 38.9492V37.1228C127.312 34.2816 127.062 32.1117 126.561 30.6131C126.091 29.1144 125.262 28.0529 124.072 27.4285C122.914 26.804 121.193 26.4918 118.908 26.4918H118.298C116.357 26.4918 114.839 26.726 113.743 27.1943C112.648 27.6626 111.819 28.49 111.255 29.6764H111.161V26.8665ZM119.941 44.9438C119.284 45.256 118.251 45.4121 116.842 45.4121H116.185C114.776 45.4121 113.712 45.256 112.992 44.9438C112.304 44.6315 111.819 44.0539 111.537 43.211C111.286 42.368 111.161 41.1035 111.161 39.4175V36.7481C111.161 35.0309 111.286 33.7508 111.537 32.9078C111.819 32.0649 112.304 31.5029 112.992 31.2219C113.712 30.9097 114.776 30.7536 116.185 30.7536H116.842C118.251 30.7536 119.284 30.9097 119.941 31.2219C120.629 31.5341 121.099 32.1117 121.349 32.9547C121.6 33.7977 121.725 35.109 121.725 36.8886V39.2302C121.725 41.0098 121.6 42.3368 121.349 43.211C121.099 44.0539 120.629 44.6315 119.941 44.9438ZM139.826 49.7207C137.072 49.7207 134.975 49.4241 133.535 48.8308C132.127 48.2376 131.141 47.2229 130.577 45.7867C130.014 44.3193 129.732 42.1963 129.732 39.4175V36.9354C129.732 34.0943 130.029 31.94 130.624 30.4726C131.25 29.0051 132.267 27.9748 133.676 27.3816C135.116 26.7884 137.15 26.4918 139.779 26.4918H140.624C143.316 26.4918 145.351 26.7572 146.728 27.288C148.105 27.8187 149.075 28.7554 149.639 30.0979C150.234 31.4404 150.531 33.423 150.531 36.0456V39.277H135.131V40.2605C135.131 41.8216 135.257 42.9768 135.507 43.7261C135.757 44.4442 136.227 44.9438 136.915 45.2248C137.604 45.4745 138.7 45.5994 140.202 45.5994H140.859C142.174 45.5994 143.16 45.5057 143.817 45.3184C144.474 45.1311 144.928 44.8189 145.179 44.3818C145.429 43.9134 145.554 43.2266 145.554 42.3211V41.8997H150.625V42.4148C150.625 44.2881 150.296 45.7555 149.639 46.8171C149.013 47.8786 148.011 48.6279 146.634 49.065C145.257 49.5021 143.363 49.7207 140.953 49.7207H139.826ZM145.413 35.8583V35.109C145.413 33.7664 145.288 32.7673 145.038 32.1117C144.819 31.456 144.365 31.0033 143.676 30.7536C143.019 30.4726 141.97 30.3321 140.531 30.3321H140.108C138.637 30.3321 137.557 30.4726 136.868 30.7536C136.18 31.0033 135.71 31.5029 135.46 32.2522C135.241 33.0015 135.116 34.2035 135.084 35.8583H145.413ZM159.228 26.8665H153.735V49.346H159.322V36.2329C159.322 34.828 159.479 33.7352 159.792 32.9547C160.136 32.1741 160.668 31.6278 161.388 31.3155C162.108 31.0033 163.094 30.8472 164.346 30.8472H164.815C166.161 30.8472 167.147 30.9877 167.773 31.2687C168.399 31.5497 168.822 32.0649 169.041 32.8142C169.26 33.5323 169.37 34.6719 169.37 36.2329V49.346H174.957V35.3431C174.957 32.9703 174.722 31.1594 174.252 29.9106C173.783 28.6617 172.985 27.7875 171.858 27.288C170.731 26.7572 169.088 26.4918 166.928 26.4918H166.506C164.44 26.4918 162.859 26.8196 161.764 27.4753C160.668 28.0997 159.839 29.0988 159.275 30.4726H159.228V26.8665ZM205.964 26.8665H200.471V49.346H206.058V36.2329C206.058 34.7967 206.198 33.704 206.48 32.9547C206.793 32.1741 207.278 31.6278 207.936 31.3155C208.593 31.0033 209.516 30.8472 210.706 30.8472H211.128C212.224 30.8472 213.037 30.9877 213.57 31.2687C214.133 31.5497 214.524 32.0649 214.743 32.8142C214.962 33.5635 215.072 34.7031 215.072 36.2329V49.346H220.659V35.9988C220.659 34.6875 220.8 33.6572 221.082 32.9078C221.395 32.1585 221.864 31.6278 222.49 31.3155C223.147 31.0033 224.024 30.8472 225.119 30.8472H225.542C226.731 30.8472 227.608 30.9877 228.171 31.2687C228.766 31.5497 229.157 32.0649 229.345 32.8142C229.564 33.5635 229.673 34.7031 229.673 36.2329V49.346H235.26V35.2963C235.26 32.9547 235.041 31.175 234.603 29.9574C234.196 28.7085 233.461 27.8187 232.396 27.288C231.332 26.7572 229.783 26.4918 227.748 26.4918H227.326C225.354 26.4918 223.805 26.8665 222.678 27.6158C221.551 28.3651 220.722 29.4422 220.19 30.8472H220.143C219.892 29.8169 219.501 28.9895 218.969 28.3651C218.468 27.7095 217.748 27.2411 216.809 26.9601C215.901 26.6479 214.712 26.4918 213.241 26.4918H212.818C209.25 26.4918 206.981 27.8187 206.011 30.4726H205.964V26.8665ZM118.31 53.6273V56.5799H118.981L121.762 53.6273H122.75L119.651 56.887L123.128 60.3896H122.08L118.981 57.2239H118.31V60.3896H117.545V53.6273H118.31ZM124.565 55.6535H125.235L125.215 56.2975L125.235 56.3124C125.447 55.8269 125.973 55.5841 126.814 55.5841C127.493 55.5841 127.952 55.703 128.19 55.9408C128.432 56.1786 128.553 56.6344 128.553 57.3081V60.3896H127.857V57.3676V57.1892C127.857 56.783 127.78 56.5105 127.624 56.3718C127.468 56.2298 127.169 56.1588 126.725 56.1588C125.748 56.1588 125.26 56.6195 125.26 57.541V60.3896H124.565V55.6535ZM134.395 56.0399C134.133 55.736 133.564 55.5841 132.686 55.5841C131.812 55.5841 131.245 55.736 130.983 56.0399C130.721 56.3437 130.591 57.0043 130.591 58.0215C130.591 59.0387 130.721 59.6993 130.983 60.0031C131.245 60.307 131.812 60.4589 132.686 60.4589C133.564 60.4589 134.133 60.307 134.395 60.0031C134.657 59.6993 134.787 59.0387 134.787 58.0215C134.787 57.0043 134.657 56.3437 134.395 56.0399ZM131.539 56.461C131.688 56.2595 132.071 56.1588 132.686 56.1588C133.306 56.1588 133.688 56.2595 133.834 56.461C133.983 56.6591 134.057 57.1793 134.057 58.0215C134.057 58.8637 133.983 59.3855 133.834 59.587C133.688 59.7852 133.306 59.8842 132.686 59.8842C132.071 59.8842 131.688 59.7852 131.539 59.587C131.394 59.3855 131.321 58.8637 131.321 58.0215C131.321 57.1793 131.394 56.6591 131.539 56.461ZM141.633 60.3896H140.6L139.964 57.7589L139.77 56.9564L139.681 56.5551L139.587 56.1538H139.572L139.477 56.5551L139.383 56.9564L139.189 57.7589L138.549 60.3896H137.496L136.209 55.6535H136.939L137.61 58.2742L137.818 59.0965L137.918 59.5077L138.017 59.9189H138.037L138.131 59.5077L138.231 59.0965L138.429 58.2791L139.08 55.6535H140.093L140.739 58.2841L140.937 59.1015L141.032 59.5077L141.126 59.9189H141.141L141.245 59.5077L141.345 59.0965L141.553 58.2742L142.219 55.6535H142.964L141.633 60.3896ZM145.22 60.3896V53.6273H144.525V60.3896H145.22ZM150.66 58.9578H151.37L151.375 59.1312C151.375 59.6233 151.225 59.9685 150.923 60.1666C150.625 60.3615 150.1 60.4589 149.349 60.4589C148.475 60.4589 147.9 60.3004 147.625 59.9833C147.354 59.663 147.218 58.9925 147.218 57.972C147.218 57.0274 147.356 56.3933 147.63 56.0696C147.905 55.7459 148.443 55.5841 149.245 55.5841C150.119 55.5841 150.691 55.7245 150.963 56.0052C151.234 56.2859 151.37 56.8771 151.37 57.7788V58.1503H147.953C147.953 58.8967 148.033 59.3723 148.192 59.5771C148.354 59.7819 148.73 59.8842 149.319 59.8842C149.879 59.8842 150.241 59.8363 150.407 59.7406C150.576 59.6415 150.66 59.4301 150.66 59.1065V58.9578ZM150.66 57.6103L150.655 57.3874C150.655 56.8755 150.571 56.5436 150.402 56.3916C150.233 56.2364 149.869 56.1588 149.309 56.1588C148.746 56.1588 148.38 56.2496 148.212 56.4313C148.046 56.6096 147.963 57.0026 147.963 57.6103H150.66ZM157.356 60.3896V53.6273H156.661V56.243L156.646 56.2529C156.481 55.807 155.966 55.5841 155.102 55.5841C154.41 55.5841 153.93 55.7575 153.661 56.1043C153.393 56.4478 153.259 57.0637 153.259 57.9522C153.259 58.9165 153.392 59.5754 153.656 59.9288C153.925 60.2822 154.423 60.4589 155.151 60.4589C155.949 60.4589 156.457 60.2294 156.676 59.7703L156.696 59.7752L156.661 60.3896H157.356ZM154.242 56.5155C154.411 56.2777 154.752 56.1588 155.266 56.1588C155.812 56.1588 156.179 56.2777 156.368 56.5155C156.56 56.75 156.656 57.2057 156.656 57.8828C156.656 58.7184 156.57 59.2617 156.398 59.5127C156.226 59.7604 155.853 59.8842 155.28 59.8842C154.754 59.8842 154.406 59.7604 154.237 59.5127C154.072 59.2617 153.989 58.7399 153.989 57.9472C153.989 57.2272 154.074 56.75 154.242 56.5155ZM163.472 55.6535V60.6967C163.472 61.3837 163.323 61.856 163.025 62.1136C162.727 62.3712 162.18 62.5 161.386 62.5C160.677 62.5 160.194 62.391 159.936 62.173C159.677 61.955 159.548 61.5472 159.548 60.9494H160.219C160.219 61.3556 160.293 61.6198 160.442 61.742C160.595 61.8642 160.926 61.9253 161.436 61.9253C161.965 61.9253 162.321 61.8461 162.503 61.6875C162.685 61.529 162.776 61.2185 162.776 60.7562V59.805L162.762 59.8C162.583 60.2393 162.066 60.4589 161.212 60.4589C160.51 60.4589 160.027 60.2872 159.762 59.9437C159.497 59.5969 159.364 58.9661 159.364 58.0512C159.364 57.1034 159.499 56.456 159.767 56.1092C160.038 55.7592 160.54 55.5841 161.272 55.5841C162.05 55.5841 162.558 55.8219 162.796 56.2975L162.811 56.2925L162.776 55.6535H163.472ZM161.401 56.1588C160.854 56.1588 160.5 56.2744 160.338 56.5056C160.176 56.7335 160.095 57.2355 160.095 58.0116C160.095 58.7943 160.176 59.303 160.338 59.5375C160.5 59.7686 160.854 59.8842 161.401 59.8842C161.954 59.8842 162.318 59.7571 162.493 59.5028C162.669 59.2452 162.757 58.7118 162.757 57.9026C162.757 57.1892 162.669 56.7202 162.493 56.4957C162.318 56.2711 161.954 56.1588 161.401 56.1588ZM169.622 58.9578H168.912V59.1065C168.912 59.4301 168.827 59.6415 168.658 59.7406C168.493 59.8363 168.13 59.8842 167.571 59.8842C166.981 59.8842 166.606 59.7819 166.443 59.5771C166.284 59.3723 166.205 58.8967 166.205 58.1503H169.622V57.7788C169.622 56.8771 169.486 56.2859 169.215 56.0052C168.943 55.7245 168.37 55.5841 167.496 55.5841C166.695 55.5841 166.157 55.7459 165.882 56.0696C165.607 56.3933 165.47 57.0274 165.47 57.972C165.47 58.9925 165.606 59.663 165.877 59.9833C166.152 60.3004 166.726 60.4589 167.601 60.4589C168.352 60.4589 168.877 60.3615 169.175 60.1666C169.476 59.9685 169.627 59.6233 169.627 59.1312L169.622 58.9578ZM168.907 57.3874L168.912 57.6103H166.215C166.215 57.0026 166.298 56.6096 166.463 56.4313C166.632 56.2496 166.998 56.1588 167.561 56.1588C168.12 56.1588 168.485 56.2364 168.653 56.3916C168.822 56.5436 168.907 56.8755 168.907 57.3874ZM179.114 53.6273V60.3896H178.35V54.9797V54.5735L178.355 54.3704L178.36 54.1673H178.34L178.28 54.3258C178.25 54.405 178.23 54.4562 178.22 54.4794L178.091 54.7964L175.782 60.3896H175.017L172.703 54.8608L172.569 54.5487L172.509 54.3902C172.492 54.3539 172.473 54.3027 172.449 54.2366H172.43L172.434 54.4199L172.439 54.6082V54.9797V60.3896H171.675V53.6273H173.001L174.808 58.0017L175.097 58.7101L175.241 59.0619L175.38 59.4136H175.399L175.539 59.0619C175.608 58.8934 175.654 58.7762 175.678 58.7101L175.971 58.0067L177.769 53.6273H179.114ZM181.321 56.9812H182.011C182.008 56.9118 182.007 56.8656 182.007 56.8424C182.007 56.3636 182.434 56.1241 183.288 56.1241C183.791 56.1241 184.117 56.205 184.266 56.3669C184.415 56.5254 184.49 56.8755 184.49 57.4171V57.9918L184.475 57.9967C184.309 57.6698 183.809 57.5063 182.975 57.5063C182.273 57.5063 181.788 57.6153 181.52 57.8333C181.252 58.0512 181.118 58.4459 181.118 59.0173C181.118 59.9784 181.717 60.4589 182.915 60.4589C183.727 60.4589 184.265 60.2641 184.529 59.8743L184.544 59.8793L184.49 60.3896H185.185V57.2635C185.185 56.6096 185.046 56.167 184.768 55.9359C184.49 55.7014 183.955 55.5841 183.164 55.5841C182.435 55.5841 181.945 55.6799 181.694 55.8715C181.445 56.0597 181.321 56.4296 181.321 56.9812ZM182.086 58.2147C182.248 58.1024 182.596 58.0463 183.129 58.0463C183.679 58.0463 184.048 58.1107 184.236 58.2395C184.429 58.3683 184.525 58.6193 184.525 58.9925C184.525 59.587 184.035 59.8842 183.054 59.8842C182.568 59.8842 182.245 59.8231 182.086 59.7009C181.927 59.5754 181.848 59.3211 181.848 58.938C181.848 58.5681 181.927 58.327 182.086 58.2147ZM187.387 55.6535H188.057L188.037 56.2975L188.057 56.3124C188.269 55.8269 188.796 55.5841 189.637 55.5841C190.315 55.5841 190.774 55.703 191.012 55.9408C191.254 56.1786 191.375 56.6344 191.375 57.3081V60.3896H190.68V57.3676V57.1892C190.68 56.783 190.602 56.5105 190.446 56.3718C190.291 56.2298 189.991 56.1588 189.547 56.1588C188.57 56.1588 188.082 56.6195 188.082 57.541V60.3896H187.387V55.6535ZM193.582 56.9812H194.272C194.269 56.9118 194.267 56.8656 194.267 56.8424C194.267 56.3636 194.694 56.1241 195.548 56.1241C196.052 56.1241 196.378 56.205 196.527 56.3669C196.676 56.5254 196.75 56.8755 196.75 57.4171V57.9918L196.735 57.9967C196.57 57.6698 196.07 57.5063 195.235 57.5063C194.534 57.5063 194.048 57.6153 193.78 57.8333C193.512 58.0512 193.378 58.4459 193.378 59.0173C193.378 59.9784 193.977 60.4589 195.176 60.4589C195.987 60.4589 196.525 60.2641 196.79 59.8743L196.805 59.8793L196.75 60.3896H197.446V57.2635C197.446 56.6096 197.307 56.167 197.028 55.9359C196.75 55.7014 196.216 55.5841 195.424 55.5841C194.696 55.5841 194.206 55.6799 193.954 55.8715C193.706 56.0597 193.582 56.4296 193.582 56.9812ZM194.346 58.2147C194.509 58.1024 194.856 58.0463 195.389 58.0463C195.939 58.0463 196.308 58.1107 196.497 58.2395C196.689 58.3683 196.785 58.6193 196.785 58.9925C196.785 59.587 196.295 59.8842 195.315 59.8842C194.828 59.8842 194.505 59.8231 194.346 59.7009C194.188 59.5754 194.108 59.3211 194.108 58.938C194.108 58.5681 194.188 58.327 194.346 58.2147ZM203.62 55.6535V60.6967C203.62 61.3837 203.471 61.856 203.174 62.1136C202.876 62.3712 202.329 62.5 201.535 62.5C200.826 62.5 200.343 62.391 200.084 62.173C199.826 61.955 199.697 61.5472 199.697 60.9494H200.367C200.367 61.3556 200.442 61.6198 200.591 61.742C200.743 61.8642 201.074 61.9253 201.584 61.9253C202.114 61.9253 202.47 61.8461 202.652 61.6875C202.834 61.529 202.925 61.2185 202.925 60.7562V59.805L202.91 59.8C202.731 60.2393 202.215 60.4589 201.361 60.4589C200.659 60.4589 200.175 60.2872 199.911 59.9437C199.646 59.5969 199.513 58.9661 199.513 58.0512C199.513 57.1034 199.647 56.456 199.915 56.1092C200.187 55.7592 200.689 55.5841 201.42 55.5841C202.198 55.5841 202.707 55.8219 202.945 56.2975L202.96 56.2925L202.925 55.6535H203.62ZM201.549 56.1588C201.003 56.1588 200.649 56.2744 200.487 56.5056C200.324 56.7335 200.243 57.2355 200.243 58.0116C200.243 58.7943 200.324 59.303 200.487 59.5375C200.649 59.7686 201.003 59.8842 201.549 59.8842C202.102 59.8842 202.467 59.7571 202.642 59.5028C202.818 59.2452 202.905 58.7118 202.905 57.9026C202.905 57.1892 202.818 56.7202 202.642 56.4957C202.467 56.2711 202.102 56.1588 201.549 56.1588ZM209.771 58.9578H209.06V59.1065C209.06 59.4301 208.976 59.6415 208.807 59.7406C208.642 59.8363 208.279 59.8842 207.719 59.8842C207.13 59.8842 206.754 59.7819 206.592 59.5771C206.433 59.3723 206.354 58.8967 206.354 58.1503H209.771V57.7788C209.771 56.8771 209.635 56.2859 209.363 56.0052C209.092 55.7245 208.519 55.5841 207.645 55.5841C206.844 55.5841 206.306 55.7459 206.031 56.0696C205.756 56.3933 205.619 57.0274 205.619 57.972C205.619 58.9925 205.754 59.663 206.026 59.9833C206.301 60.3004 206.875 60.4589 207.749 60.4589C208.501 60.4589 209.026 60.3615 209.324 60.1666C209.625 59.9685 209.776 59.6233 209.776 59.1312L209.771 58.9578ZM209.055 57.3874L209.06 57.6103H206.364C206.364 57.0026 206.446 56.6096 206.612 56.4313C206.781 56.2496 207.147 56.1588 207.71 56.1588C208.269 56.1588 208.633 56.2364 208.802 56.3916C208.971 56.5436 209.055 56.8755 209.055 57.3874ZM211.789 55.6535H212.484L212.469 56.3669L212.484 56.3817C212.752 55.85 213.269 55.5841 214.033 55.5841C214.838 55.5841 215.326 55.85 215.499 56.3817H215.518C215.816 55.85 216.361 55.5841 217.152 55.5841C218.272 55.5841 218.831 56.1538 218.831 57.2933V60.3896H218.136V57.2289C218.136 56.8127 218.061 56.5303 217.912 56.3817C217.763 56.2331 217.482 56.1588 217.068 56.1588C216.518 56.1588 216.146 56.2628 215.951 56.4709C215.755 56.6757 215.657 57.0687 215.657 57.65V60.3896H214.962V57.2933L214.952 57.0753C214.952 56.4643 214.603 56.1588 213.904 56.1588C212.957 56.1588 212.484 56.6724 212.484 57.6995V60.3896H211.789V55.6535ZM225.12 58.9578H224.41V59.1065C224.41 59.4301 224.326 59.6415 224.157 59.7406C223.991 59.8363 223.629 59.8842 223.069 59.8842C222.48 59.8842 222.104 59.7819 221.942 59.5771C221.783 59.3723 221.703 58.8967 221.703 58.1503H225.12V57.7788C225.12 56.8771 224.984 56.2859 224.713 56.0052C224.441 55.7245 223.869 55.5841 222.995 55.5841C222.193 55.5841 221.655 55.7459 221.38 56.0696C221.106 56.3933 220.968 57.0274 220.968 57.972C220.968 58.9925 221.104 59.663 221.376 59.9833C221.65 60.3004 222.225 60.4589 223.099 60.4589C223.85 60.4589 224.375 60.3615 224.673 60.1666C224.975 59.9685 225.125 59.6233 225.125 59.1312L225.12 58.9578ZM224.405 57.3874L224.41 57.6103H221.713C221.713 57.0026 221.796 56.6096 221.962 56.4313C222.13 56.2496 222.496 56.1588 223.059 56.1588C223.619 56.1588 223.983 56.2364 224.152 56.3916C224.321 56.5436 224.405 56.8755 224.405 57.3874ZM227.138 55.6535H227.809L227.789 56.2975L227.809 56.3124C228.021 55.8269 228.547 55.5841 229.388 55.5841C230.067 55.5841 230.525 55.703 230.764 55.9408C231.005 56.1786 231.126 56.6344 231.126 57.3081V60.3896H230.431V57.3676V57.1892C230.431 56.783 230.353 56.5105 230.198 56.3718C230.042 56.2298 229.742 56.1588 229.299 56.1588C228.322 56.1588 227.834 56.6195 227.834 57.541V60.3896H227.138V55.6535ZM235.816 56.2281V55.6535H233.989V54.514H233.293V55.6535H232.638V56.2281H233.293V59.1263V59.2947C233.293 60.0708 233.752 60.4589 234.669 60.4589C235.556 60.4589 236 59.9932 236 59.0619L235.995 58.7101H235.349L235.339 58.9727L235.335 59.2055C235.335 59.658 235.111 59.8842 234.664 59.8842C234.214 59.8842 233.989 59.6316 233.989 59.1263V56.2281H235.816ZM53.6436 40.1072V31.873L55.7074 30.0717V22.3521C55.7074 22.3521 55.532 21.617 55.1914 21.3228C54.7282 20.9227 53.6436 21.0655 53.6436 21.0655C53.6436 21.0655 36.3313 32.3876 36.1019 32.9022C35.8726 33.4169 36.1019 49.1134 36.1019 49.1134L51.8379 59.4063C51.8379 59.4063 52.7222 59.4635 53.1277 59.1489C53.4144 58.9265 53.6436 58.377 53.6436 58.377V44.2243C53.6436 44.2243 50.806 42.6804 50.806 42.1658C50.806 41.6511 53.6436 40.1072 53.6436 40.1072ZM50.0317 42.9377C49.5158 42.9377 39.4551 49.3708 39.4551 49.8854C39.4551 50.1995 52.0954 58.377 52.0954 58.377L52.6114 58.1197C52.6114 58.1197 53.4078 45.2432 52.8693 44.739C52.3309 44.2348 50.5476 42.9377 50.0317 42.9377ZM57.6674 48.5782V40.3439C57.6674 40.3439 60.505 38.8 60.505 38.2853C60.505 37.7707 57.6674 36.2268 57.6674 36.2268V22.0741C57.6674 22.0741 57.8966 21.5246 58.1833 21.3022C58.5888 20.9876 59.4732 21.0449 59.4732 21.0449L75.2091 31.3377C75.2091 31.3377 75.4384 47.0342 75.2091 47.5489C74.9798 48.0635 57.6674 59.3856 57.6674 59.3856C57.6674 59.3856 56.5828 59.5285 56.1196 59.1283C55.779 58.8341 55.6037 58.099 55.6037 58.099V50.3794L57.6674 48.5782ZM71.856 30.5657C71.856 31.0803 61.7952 37.5134 61.2793 37.5134C60.7634 37.5134 58.9801 36.2163 58.4417 35.7121C57.9033 35.2079 58.6997 22.3314 58.6997 22.3314L59.2156 22.0741C59.2156 22.0741 71.856 30.2516 71.856 30.5657Z" fill="#3F8EAF"/>
</svg>
