<svg width="272" height="80" viewBox="0 0 272 80" fill="none" xmlns="http://www.w3.org/2000/svg">
<g clip-path="url(#clip0_5352_12036)">
<path fill-rule="evenodd" clip-rule="evenodd" d="M73.1381 26.4992C75.1548 26.4992 76.7897 24.8654 76.7897 22.8501C76.7897 20.8347 75.1548 19.2009 73.1381 19.2009C71.1213 19.2009 69.4863 20.8347 69.4863 22.8501C69.4863 24.8654 71.1213 26.4992 73.1381 26.4992Z" fill="white"/>
<path fill-rule="evenodd" clip-rule="evenodd" d="M76.4169 28.3269H69.8608V50.8045H76.4169V28.3269Z" fill="white"/>
<path fill-rule="evenodd" clip-rule="evenodd" d="M178.644 26.4992C180.661 26.4992 182.296 24.8654 182.296 22.8501C182.296 20.8347 180.661 19.2009 178.644 19.2009C176.627 19.2009 174.992 20.8347 174.992 22.8501C174.992 24.8654 176.627 26.4992 178.644 26.4992Z" fill="white"/>
<path fill-rule="evenodd" clip-rule="evenodd" d="M181.922 28.3269H175.366V50.8045H181.922V28.3269Z" fill="white"/>
<path fill-rule="evenodd" clip-rule="evenodd" d="M229.599 38.8248C229.599 32.409 224.48 27.8329 218.33 27.8329C211.416 27.8329 206.386 32.6337 206.386 39.5434C206.386 46.3639 211.102 51.2536 218.33 51.2536C224.48 51.2536 228.566 47.4406 229.329 43.2228H222.998C222.279 45.0626 220.168 46.0947 218.195 46.0947C215.545 46.0501 213.57 44.4796 212.988 41.0693H229.554L229.599 38.8248ZM213.121 36.9851C213.84 33.6659 216.309 32.8583 218.328 32.8583C220.394 32.8583 222.819 33.8905 223.131 36.9851H213.121Z" fill="white"/>
<path fill-rule="evenodd" clip-rule="evenodd" d="M201.538 28.3269H208.272L199.111 50.8045H192.2L183.039 28.3269H190.089L195.79 43.2209L201.538 28.3269Z" fill="white"/>
<path fill-rule="evenodd" clip-rule="evenodd" d="M165.486 31.9153C167.013 29.5372 169.437 28.0112 172.22 28.0112C172.714 28.0112 173.342 28.0557 173.747 28.1913V34.3379C173.209 34.2489 172.625 34.2044 172.086 34.2044C167.866 34.2044 165.666 37.301 165.666 41.7414V50.8045H159.157V34.2489C159.157 33.8906 159.021 33.7996 158.618 33.7996H156.372V28.3269H162.029C164.319 28.3269 165.486 29.4036 165.486 31.4235V31.9153Z" fill="white"/>
<path fill-rule="evenodd" clip-rule="evenodd" d="M155.203 45.3298C154.845 45.3298 154.754 45.2406 154.754 44.8804V22.4493C154.754 20.2068 153.587 19.1746 151.207 19.1746H145.506V24.6028H147.616C148.019 24.6028 148.155 24.7363 148.155 25.0966V30.3912C147.302 29.2699 144.923 27.8329 141.735 27.8329C135.404 27.8329 130.78 32.6337 130.78 39.5432C130.78 46.5866 135.225 51.2537 141.555 51.2537C145.101 51.2537 147.616 49.4584 148.558 47.9789C148.647 48.9666 149.322 50.8065 151.746 50.8065H157.538V45.3337H155.203V45.3298ZM142.901 45.8681C139.758 45.8681 137.47 43.4455 137.47 39.5414C137.47 35.8174 139.805 33.3056 142.946 33.3056C146.492 33.3056 148.289 36.4467 148.289 39.4968C148.289 44.2529 145.417 45.8681 142.901 45.8681Z" fill="white"/>
<path fill-rule="evenodd" clip-rule="evenodd" d="M129.34 38.8248C129.34 32.409 124.222 27.8329 118.071 27.8329C111.157 27.8329 106.128 32.6337 106.128 39.5434C106.128 46.3639 110.843 51.2536 118.071 51.2536C124.222 51.2536 128.307 47.4406 129.071 43.2228H122.74C122.021 45.0626 119.91 46.0947 117.936 46.0947C115.286 46.0501 113.312 44.4796 112.728 41.0693H129.296L129.34 38.8248ZM112.864 36.9851C113.583 33.6659 116.052 32.8583 118.071 32.8583C120.137 32.8583 122.561 33.8905 122.875 36.9851H112.864Z" fill="white"/>
<path fill-rule="evenodd" clip-rule="evenodd" d="M94.0987 27.8329C90.4168 27.8329 87.8122 29.7617 86.8258 31.4213C86.6455 30.4782 86.0177 28.3247 83.5042 28.3247H78.0278V33.7994H80.2719C80.675 33.7994 80.766 33.8885 80.766 34.2488V60.001H87.322V50.0414L87.2775 48.4262C88.2192 49.9968 90.7348 51.2536 93.7868 51.2536C100.207 51.2536 104.697 46.4975 104.697 39.5434C104.693 32.5426 100.428 27.8329 94.0987 27.8329ZM92.436 45.868C88.8895 45.868 87.1822 42.6824 87.1822 39.6324C87.1822 34.9672 90.0117 33.3056 92.5251 33.3056C95.5772 33.3056 98.0015 35.8638 98.0015 39.5857C98.0036 43.9839 95.0405 45.868 92.436 45.868Z" fill="white"/>
<path fill-rule="evenodd" clip-rule="evenodd" d="M68.3258 39.5433C68.3258 46.4974 63.8356 51.2537 57.4154 51.2537C54.3631 51.2537 51.8477 49.9969 50.9059 48.4263L50.9505 50.0413V60.0011H44.3965V34.2487C44.3965 33.8905 44.3074 33.7994 43.9023 33.7994H41.6562V28.3268H47.1348C49.6482 28.3268 50.2781 30.4802 50.4563 31.4234C51.4447 29.7638 54.0472 27.835 57.7293 27.835C64.0603 27.8329 68.3258 32.5426 68.3258 39.5433ZM61.636 39.5879C61.636 35.8639 59.2117 33.3076 56.1576 33.3076C53.6441 33.3076 50.8148 34.9672 50.8148 39.6343C50.8148 42.6844 52.5201 45.8701 56.0685 45.8701C58.673 45.8681 61.636 43.9838 61.636 39.5879Z" fill="white"/>
</g>
<defs>
<clipPath id="clip0_5352_12036">
<rect width="190" height="40.8264" fill="white" transform="translate(41 19.1746)"/>
</clipPath>
</defs>
</svg>
