<svg width="272" height="80" viewBox="0 0 272 80" fill="none" xmlns="http://www.w3.org/2000/svg">
<path d="M120.577 43.0063H112.639V56.7258H107.35V21.8428H120.577C127.383 21.8428 131.744 26.3477 131.744 32.4185C131.744 38.4893 127.383 43.0063 120.577 43.0063ZM120.276 26.6006H112.626V38.2122H120.276C123.95 38.2122 126.444 36.1043 126.444 32.4305C126.456 28.7567 123.95 26.6006 120.276 26.6006Z" fill="white"/>
<path d="M143.035 56.7258C138.337 56.7258 136.229 53.5458 136.229 49.872V21.8428H141.228V49.5709C141.228 51.4861 141.915 52.4618 143.927 52.4618H146.131V56.7258H143.035Z" fill="white"/>
<path d="M168.078 54.0745C166.463 55.7368 164.006 57.0136 160.633 57.0136C157.248 57.0136 154.85 55.7368 153.236 54.0745C150.887 51.6294 150.297 48.4856 150.297 44.2818C150.297 40.1141 150.887 36.9824 153.236 34.5372C154.85 32.8749 157.26 31.5981 160.633 31.5981C164.018 31.5981 166.463 32.8749 168.078 34.5372C170.427 36.9824 171.017 40.1262 171.017 44.2818C171.017 48.4976 170.427 51.6294 168.078 54.0745ZM164.307 37.4762C163.379 36.5487 162.102 36.0549 160.633 36.0549C159.163 36.0549 157.934 36.5487 157.007 37.4762C155.489 38.9939 155.296 41.5957 155.296 44.2818C155.296 46.9679 155.489 49.5696 157.007 51.0873C157.934 52.0148 159.163 52.5569 160.633 52.5569C162.102 52.5569 163.379 52.0148 164.307 51.0873C165.825 49.5696 166.018 46.9679 166.018 44.2818C166.018 41.5957 165.825 38.9939 164.307 37.4762Z" fill="white"/>
<path d="M190.823 56.7265V41.5857C190.823 37.7192 188.618 36.0449 185.823 36.0449C183.029 36.0449 180.679 37.7553 180.679 41.5857V56.7265H175.68V31.8893H180.583V34.3826C182.306 32.5156 184.703 31.5881 187.197 31.5881C189.738 31.5881 191.847 32.4193 193.316 33.8406C195.232 35.6956 195.81 38.0564 195.81 40.8389V56.7145L190.823 56.7265Z" fill="white"/>
<path d="M205.436 45.7513C205.436 50.0153 207.689 52.7014 211.761 52.7014C214.556 52.7014 216.025 51.9185 217.784 50.1598L220.964 53.1471C218.411 55.6886 216.013 57.0136 211.652 57.0136C205.424 57.0136 200.485 53.7373 200.485 44.2818C200.485 36.2476 204.653 31.5981 211.014 31.5981C217.676 31.5981 221.543 36.5006 221.543 43.547V45.7513C221.555 45.7513 205.436 45.7513 205.436 45.7513ZM215.929 38.8976C215.146 37.0305 213.387 35.7658 211.026 35.7658C208.677 35.7658 206.858 37.0426 206.075 38.8976C205.581 40.0298 205.485 40.7646 205.436 42.2823H216.604C216.555 40.7525 216.411 40.0178 215.929 38.8976Z" fill="white"/>
<path d="M63.3444 34.2258C66.2718 34.2258 68.6449 31.8529 68.6449 28.9259C68.6449 25.9988 66.2718 23.626 63.3444 23.626C60.417 23.626 58.0439 25.9988 58.0439 28.9259C58.0439 31.8529 60.417 34.2258 63.3444 34.2258Z" fill="white"/>
<path d="M79.4271 39.5238C79.4271 42.4508 77.0539 44.8237 74.1266 44.8237C71.1993 44.8237 68.8262 42.4508 68.8262 39.5238C68.8262 36.5968 71.2114 34.2239 74.1266 34.2239C77.0539 34.2119 79.4271 36.5848 79.4271 39.5238Z" fill="white"/>
<path d="M63.3239 55.4502C66.2513 55.4502 68.6244 53.0773 68.6244 50.1502C68.6244 47.2232 66.2513 44.8503 63.3239 44.8503C60.3965 44.8503 58.0234 47.2232 58.0234 50.1502C58.0234 53.0773 60.3965 55.4502 63.3239 55.4502Z" fill="white"/>
<path d="M66.5026 15C52.9744 15 42 25.9732 42 39.5C42 53.0268 52.9744 64 66.5026 64C80.0308 64 91.0052 53.0268 91.0052 39.5C91.0052 25.9732 80.0429 15 66.5026 15ZM80.2958 53.2918C76.7542 56.821 71.8994 59.0012 66.5026 59.0012C61.1058 59.0012 56.251 56.821 52.7093 53.2918C49.1797 49.7505 46.9993 44.8963 46.9993 39.5C46.9993 34.1037 49.1797 29.2495 52.7093 25.7082C56.251 22.179 61.1058 19.9988 66.5026 19.9988C71.8994 19.9988 76.7542 22.179 80.2958 25.7082C83.8255 29.2495 86.0059 34.1037 86.0059 39.5C86.0059 44.8963 83.8375 49.7505 80.2958 53.2918Z" fill="white"/>
<path d="M227.386 27.0356C225.941 27.0356 224.784 28.2042 224.784 29.6497C224.784 31.0953 225.953 32.2638 227.386 32.2638C228.832 32.2638 230 31.0953 230 29.6497C230 28.2042 228.832 27.0356 227.386 27.0356ZM227.386 31.8783C226.157 31.8783 225.158 30.8785 225.158 29.6497C225.158 28.421 226.145 27.4211 227.386 27.4211C228.615 27.4211 229.615 28.421 229.615 29.6497C229.615 30.8905 228.615 31.8783 227.386 31.8783Z" fill="white"/>
<path d="M228.011 31.2016L227.36 29.9006H226.77V31.2016H226.3V28.1177H227.493C228.071 28.1177 228.457 28.4911 228.457 29.0212C228.457 29.4669 228.192 29.744 227.842 29.8403L228.553 31.2136L228.011 31.2016ZM227.469 28.5393H226.782V29.503H227.469C227.782 29.503 227.999 29.3223 227.999 29.0212C227.999 28.72 227.782 28.5393 227.469 28.5393Z" fill="white"/>
</svg>
