<svg width="272" height="80" viewBox="0 0 272 80" fill="none" xmlns="http://www.w3.org/2000/svg">
<path d="M41.1185 64C36.3193 63.9991 31.6208 62.685 27.5788 60.2134C23.5367 57.7417 20.3204 54.2158 18.3102 50.0528C16.3 45.8898 15.58 41.2638 16.2354 36.7222C16.8909 32.1806 18.8943 27.9133 22.0088 24.4253C25.1232 20.9372 29.2183 18.3742 33.8096 17.0395C38.401 15.7049 43.2964 15.6544 47.9169 16.894C52.5373 18.1336 56.6894 20.6115 59.8819 24.0346C63.0745 27.4576 65.174 31.6825 65.9319 36.2095L66.0046 36.6473H61.0279C58.0184 36.6473 56.557 37.4855 55.9562 39.5409C55.8864 39.7865 55.7411 40.2349 55.5594 40.8061C55.1403 42.1195 54.3551 44.5619 54.3551 45.0103C54.3551 47.6797 55.5874 47.9039 62.5033 47.9039H64.8533L64.6549 48.4164C62.8451 52.9852 59.6259 56.9213 55.4231 59.704C51.2203 62.4867 46.2321 63.9848 41.1185 64ZM41.1185 16.7528C36.7013 16.754 32.3679 17.9039 28.5828 20.079C24.7977 22.2541 21.7038 25.3724 19.6329 29.0995C17.562 32.8266 16.5922 37.0219 16.8275 41.2355C17.0628 45.4491 18.4943 49.5221 20.9685 53.0176C23.4428 56.5131 26.8664 59.2993 30.8722 61.0774C34.878 62.8555 39.3149 63.5584 43.7072 63.1107C48.0994 62.6631 52.2812 61.0818 55.8042 58.5364C59.3271 55.991 62.0583 52.5775 63.7049 48.662H62.5033C56.1826 48.662 53.5615 48.662 53.5615 45.0103C53.5615 44.4925 54.1204 42.6987 54.7994 40.5846C54.9726 40.0507 55.1235 39.5756 55.1906 39.3407C55.878 36.9543 57.6775 35.8892 61.0251 35.8892H65.0685C64.0846 30.5115 61.1401 25.6399 56.7566 22.1374C52.373 18.6348 46.8332 16.7273 41.1185 16.7528Z" fill="white"/>
<path d="M29.0325 47.2042L32.1761 36.2599C33.2938 33.0567 36.3256 32.7898 38.603 32.7898H49.4309C53.5274 32.7898 55.3688 33.8575 55.3688 35.726C55.3601 36.3578 55.2662 36.9858 55.0894 37.5946C54.5305 38.9293 53.6755 39.1962 47.8242 39.1962H36.3675L33.8527 47.2042H29.0325ZM46.0973 37.3277C49.6628 37.3277 51.7362 37.5946 52.2951 36.5268C52.3918 36.3165 52.4417 36.0893 52.4417 35.8595C52.4417 35.6298 52.3918 35.4025 52.2951 35.1922C51.7362 34.3914 50.9706 34.3914 47.9974 34.3914H41.1626C39.3798 34.3914 37.7647 34.6583 37.4853 35.4591L36.647 37.3277H46.0973Z" fill="white"/>
<path d="M183.018 39.997C182.912 40.5629 182.163 43.5178 181.917 44.2679C180.833 47.4711 179.436 47.2042 176.418 47.2042H169.516C163.928 47.2042 162.659 47.351 162.659 44.679C162.659 44.1051 163.821 40.7524 164.056 39.997C164.615 38.1285 165.99 37.3277 168.739 37.3277H175.605C179.565 37.3277 183.569 37.0607 183.018 39.997ZM167.817 43.8488C167.239 45.5946 168.885 45.3036 170.986 45.3036H174.339C176.086 45.3036 176.625 44.978 177.044 43.6113C177.136 43.3257 177.338 42.5275 177.762 41.337C178.475 39.3403 177.128 39.2015 175.027 39.2015H171.277C169.759 39.2015 169.189 39.4097 168.829 40.5923C168.667 41.0807 167.935 43.4885 167.817 43.8488Z" fill="white"/>
<path d="M75.717 39.997C75.6108 40.5629 74.8619 43.5178 74.616 44.2679C73.5318 47.4711 72.1347 47.2042 69.1168 47.2042H62.2149C56.6263 47.2042 55.3577 47.351 55.3577 44.679C55.3577 44.1051 56.5201 40.7524 56.7548 39.997C57.3137 38.1285 58.6885 37.3277 61.4381 37.3277H68.3037C72.2632 37.3277 76.2675 37.0607 75.717 39.997ZM60.516 43.8488C59.9375 45.5946 61.5834 45.3036 63.6847 45.3036H67.0379C68.7843 45.3036 69.3236 44.978 69.7428 43.6113C69.835 43.3257 70.0222 42.5275 70.4609 41.337C71.1734 39.3403 69.8266 39.2015 67.7253 39.2015H63.9753C62.458 39.2015 61.888 39.4097 61.5275 40.5923C61.3654 41.0807 60.6333 43.4885 60.516 43.8488Z" fill="white"/>
<path d="M188.347 33.3236H193.276L189.216 47.2042H184.038L188.347 33.3236Z" fill="white"/>
<path d="M216.041 33.3236H211.291L209.894 37.3463C208.835 37.3063 207.502 37.3276 206.331 37.3276H198.907C196.157 37.3276 195.333 37.5946 194.782 39.4631C194.559 40.2185 193.385 44.1051 193.385 44.679C193.385 47.3483 194.662 47.2042 200.242 47.2042H209.056C212.018 47.2042 212.129 45.8695 212.655 44.2679C212.828 43.7474 216.041 33.3236 216.041 33.3236ZM207.779 43.6059C207.36 44.9726 206.82 45.2983 205.074 45.2983H201.721C199.619 45.2983 197.973 45.5892 198.552 43.8435C198.669 43.4831 199.39 41.0754 199.563 40.5816C199.924 39.3991 200.494 39.1908 202.011 39.1908H205.758C208.494 39.1908 209.053 39.4578 208.609 40.9499C208.611 40.9553 207.871 43.323 207.779 43.6059Z" fill="white"/>
<path d="M93.6983 37.341C93.6983 37.341 91.7758 43.7688 91.6948 44.0143C91.3288 45.1435 90.5771 45.0821 89.0514 45.0607L91.4154 37.3276H86.9445L84.5721 45.0687C83.5913 45.0687 82.4736 45.0687 82.753 44.2679C82.8676 43.9369 84.9885 37.3276 84.9885 37.3276H79.6793C79.6793 37.3276 77.4438 44.1051 77.4438 44.679C77.4438 47.3483 79.6793 47.2042 81.0764 47.2042H90.2977C94.6204 47.2042 95.8863 47.2175 97.004 44.001C97.2555 43.2509 98.6806 37.3276 98.6806 37.3276L93.6983 37.341Z" fill="white"/>
<path d="M117.961 37.3276H105.666C102.872 37.3276 102.034 37.5946 101.475 39.4631C101.249 40.2185 100.078 44.1051 100.078 44.679C100.078 47.3483 101.374 47.2042 107.047 47.2042H117.961C117.961 47.2042 118.241 46.1365 118.481 45.0687H110.542C109.928 45.0687 105.328 45.0687 104.549 45.0687L105.107 43.4671H115.726C117.123 43.4671 119.079 43.7341 119.548 41.8015C119.719 41.1021 120.149 39.69 120.197 39.4631C120.476 38.1284 119.638 37.3276 117.961 37.3276ZM105.7 41.0647C105.745 40.9259 105.784 40.7978 105.809 40.7391C106.158 39.6526 106.711 39.4631 108.181 39.4631H114.049C116.086 39.4631 115.726 39.1962 115.167 41.0647H105.7Z" fill="white"/>
<path d="M233.925 37.3276H221.63C218.836 37.3276 217.997 37.5946 217.439 39.4631C217.212 40.2185 216.041 44.1051 216.041 44.679C216.041 47.3483 217.338 47.2042 223.01 47.2042H234.484C234.484 47.2042 234.763 45.6026 235.004 45.0687H226.506C225.891 45.0687 221.292 45.0687 220.512 45.0687L221.071 43.4671H232.807C234.204 43.4671 235.602 43.4671 236.071 41.5345C236.246 40.6736 236.369 39.8037 236.44 38.9292C236.44 37.5946 235.322 37.3276 233.925 37.3276ZM221.664 41.0647C221.708 40.9259 221.747 40.7978 221.773 40.7391C222.122 39.6526 222.675 39.4631 224.145 39.4631H230.013C232.05 39.4631 231.69 39.1962 231.131 41.0647H221.664Z" fill="white"/>
<path d="M127.884 41.2729C128.233 40.1865 128.786 39.4631 130.256 39.4631H138.639L139.198 37.3276H127.462C124.668 37.3276 123.765 38.1124 123.27 39.997C122.991 41.0647 121.314 47.2042 121.314 47.2042C121.314 47.2042 122.533 47.1882 126.344 47.2042C126.344 47.0814 127.741 41.7267 127.884 41.2729Z" fill="white"/>
<path d="M244.406 41.2729C244.756 40.1865 245.03 39.4631 246.499 39.4631H250.691C251.361 39.4631 251.948 39.4364 252.423 39.4631H255.162C255.721 38.1285 256 37.3276 256 37.3276H243.984C241.19 37.3276 240.352 38.1285 239.793 39.997C239.567 40.7524 237.837 47.2042 237.837 47.2042C237.837 47.2042 239.055 47.1882 242.867 47.2042C242.867 47.0814 244.264 41.7267 244.406 41.2729Z" fill="white"/>
<path d="M162.55 37.3277H148.525L149.258 35.726C149.59 34.9252 150.213 34.6583 152.331 34.6583H168.164L169.002 32.8085L163.439 32.7898H150.571C147.866 32.7898 144.261 33.0567 142.934 36.2599L139.477 47.2042H145.22L147.913 39.1962H161.745L162.55 37.3277Z" fill="white"/>
</svg>
