<svg width="272" height="80" viewBox="0 0 272 80" fill="none" xmlns="http://www.w3.org/2000/svg">
<path d="M169.725 51.2225V27.2542C169.725 25.5276 168.274 24.1058 166.512 24.1058C164.854 24.2073 163.404 25.5276 163.404 27.2542V51.2225C163.404 52.949 164.854 54.3708 166.616 54.3708C168.377 54.3708 169.725 52.949 169.725 51.2225Z" fill="#EA6D4D"/>
<path d="M125.479 24.3088C123.717 24.3088 122.266 25.7306 122.266 27.4572V39.4413C122.266 44.2147 118.329 48.074 113.458 48.074C108.588 48.074 104.651 44.2147 104.651 39.4413V27.4572C104.651 25.7306 103.2 24.3088 101.438 24.3088C99.6769 24.3088 98.2262 25.7306 98.2262 27.4572V39.4413C98.2262 47.6677 105.065 54.3708 113.458 54.3708C116.774 54.3708 119.779 53.3551 122.266 51.6286V51.9333C122.266 56.7066 118.329 60.5659 113.458 60.5659C111.697 60.5659 110.246 61.9878 110.246 63.7143C110.246 65.4409 111.697 66.8627 113.458 66.8627C121.852 66.8627 128.691 60.1597 128.691 51.9333V40.7616C128.691 40.6601 128.691 40.4569 128.691 40.3554C128.691 40.0507 128.691 39.746 128.691 39.4413V27.4572C128.691 25.7306 127.24 24.3088 125.479 24.3088Z" fill="#EA6D4D"/>
<path d="M166.616 21.8714C168.688 21.8714 170.346 20.2465 170.346 18.2153C170.346 16.184 168.585 14.5591 166.616 14.5591C164.543 14.5591 162.885 16.184 162.885 18.2153C162.885 20.2465 164.543 21.8714 166.616 21.8714Z" fill="#EA6D4D"/>
<path d="M81.2323 18.6215C73.1498 18.6215 66.4145 24.8167 66 32.7384C66 32.84 66 32.9416 66 33.1447V55.0818C66 56.8083 67.4507 58.2302 69.2122 58.2302C70.9738 58.2302 72.4245 56.8083 72.4245 55.0818V45.9413C74.9114 47.5663 77.9164 48.5819 81.2323 48.5819C89.6256 48.5819 96.4646 41.8789 96.4646 33.6525V33.4494C96.4646 25.3245 89.6256 18.6215 81.2323 18.6215ZM90.0401 33.754C90.0401 38.5274 86.1025 42.3867 81.2323 42.3867C76.3621 42.3867 72.4245 38.5274 72.4245 33.754V33.5509C72.4245 28.7776 76.3621 24.9183 81.2323 24.9183C86.1025 24.9183 90.0401 28.7776 90.0401 33.5509V33.754Z" fill="#EA6D4D"/>
<path d="M157.704 14.4574C155.943 14.4574 154.492 15.8792 154.492 17.6057V27.0509C152.005 25.3243 148.897 24.3087 145.684 24.3087C137.291 24.3087 130.452 31.0117 130.452 39.2381V39.4413C130.452 47.6677 137.291 54.3707 145.684 54.3707C153.663 54.3707 160.295 48.277 160.813 40.5584C160.813 40.3553 160.813 40.2538 160.813 40.0506V17.7073C160.917 15.8792 159.466 14.4574 157.704 14.4574ZM154.492 39.4413C154.492 44.2146 150.554 48.0739 145.684 48.0739C140.814 48.0739 136.877 44.2146 136.877 39.4413V39.2381C136.877 34.4648 140.814 30.6055 145.684 30.6055C150.554 30.6055 154.492 34.4648 154.492 39.2381V39.4413Z" fill="#EA6D4D"/>
<path d="M204.127 28.4729C203.091 28.4729 202.262 29.2854 202.262 30.301C202.262 31.3166 203.091 32.1291 204.127 32.1291C205.163 32.1291 205.992 31.3166 205.992 30.301C206.096 29.2854 205.163 28.4729 204.127 28.4729Z" fill="#EA6D4D"/>
<path d="M204.645 17.7074C204.956 16.2856 205.267 14.2544 203.816 13.3403C202.365 12.4263 200.604 13.5435 199.464 14.4575C198.117 15.4731 196.459 17.0981 194.49 19.3324C192.936 21.0589 191.278 23.0902 189.62 25.3245C190.552 25.5276 191.485 25.8323 192.418 26.137C193.557 24.6136 194.697 23.1917 195.837 21.973C199.464 17.7074 201.329 16.2856 202.158 15.8794C202.054 16.7934 201.64 19.0277 199.257 24.1058C198.531 25.6292 197.702 27.3557 196.77 29.0822C196.77 29.0822 196.77 29.1838 196.666 29.1838C194.594 33.0431 192.107 37.3086 189.413 41.5742C186.926 45.5351 184.231 49.2928 181.745 52.5427C181.641 52.7459 181.537 52.8474 181.434 53.0505C180.087 54.7771 178.843 56.402 177.6 57.8239C173.973 62.0894 172.108 63.5113 171.279 63.9175C171.382 63.0035 171.797 60.7692 174.18 55.6911C175.009 53.9646 175.838 52.2381 176.874 50.3084C176.978 50.2068 176.978 50.0037 177.082 49.9022C176.356 49.2928 175.735 48.5819 175.113 47.7694C175.009 47.871 175.009 47.9725 174.906 48.1756C173.455 50.9178 172.108 53.4568 171.072 55.7927C169.932 58.4333 169.103 60.566 168.688 62.2926C168.377 63.7144 168.067 65.7456 169.517 66.6597C170.968 67.5737 172.73 66.4565 173.869 65.5425C175.216 64.5269 176.874 62.9019 178.843 60.6676C180.501 58.7379 182.263 56.5036 184.128 54.0662C184.231 53.863 184.439 53.6599 184.542 53.5583C186.822 50.41 189.309 46.9569 191.589 43.3007C194.179 39.2383 196.459 35.2774 198.531 31.6212C199.878 29.0822 201.122 26.6448 202.054 24.4104C203.505 21.5667 204.334 19.434 204.645 17.7074Z" fill="#EA6D4D"/>
<path d="M196.031 28.8571C196.134 28.75 196.134 28.5357 196.237 28.4286C193.768 26.2857 190.578 25 187.183 25C179.261 25 172.882 31.6428 172.882 39.8928V40.1071C172.882 46.107 176.277 51.1427 181.113 53.607C183.582 50.0713 186.257 45.9999 188.829 41.8213C191.504 37.3214 194.076 32.8214 196.031 28.8571Z" fill="#0A71B3"/>
<path d="M186.463 55C186.668 55 186.977 55 187.183 55C195.105 55 201.484 48.3572 201.484 40.1072V39.8929C201.484 37.3215 200.867 34.9644 199.735 32.8215C197.78 36.5715 195.619 40.5358 193.15 44.6072C190.99 48.25 188.726 51.7857 186.463 55Z" fill="#0A71B3"/>
</svg>
