<svg width="272" height="80" viewBox="0 0 272 80" fill="none" xmlns="http://www.w3.org/2000/svg">
<path d="M24 46.9817H34.1758L34.9026 38.259L25.4531 36.079L24 46.9817Z" fill="#4C4C4C"/>
<path d="M25.8169 34.6247L34.9024 36.8053L37.083 29.1734L29.4511 25.1764L25.8169 34.6247Z" fill="#4C4C4C"/>
<path d="M30.1772 23.7221L37.4457 27.7197L43.261 23.7221L37.8097 17.5439L30.1772 23.7221Z" fill="#4C4C4C"/>
<path d="M70.8807 46.9817H60.7055L59.978 38.259L69.4276 36.079L70.8807 46.9817Z" fill="#4C4C4C"/>
<path d="M69.0638 34.6247L59.9783 36.8053L57.7983 29.1734L65.4296 25.1764L69.0638 34.6247Z" fill="#4C4C4C"/>
<path d="M64.7027 23.7221L57.4342 27.7197L51.6201 23.7221L57.0714 17.5439L64.7027 23.7221Z" fill="#4C4C4C"/>
<path d="M39.6274 16.4537L45.0788 22.9953H50.166L54.8911 16.4537L50.166 15H44.951L39.6274 16.4537Z" fill="#4C4C4C"/>
<path d="M24 46.9817H34.1758L34.9026 38.259L25.4531 36.079L24 46.9817Z" fill="#9C0000"/>
<path d="M25.8169 34.6247L34.9024 36.8053L37.083 29.1734L29.4511 25.1764L25.8169 34.6247Z" fill="#B50808"/>
<path d="M30.1772 23.7221L37.4457 27.7197L43.261 23.7221L37.8097 17.5439L30.1772 23.7221Z" fill="#C61818"/>
<path d="M70.8807 46.9817H60.7055L59.978 38.259L69.4276 36.079L70.8807 46.9817Z" fill="#9C0000"/>
<path d="M69.0638 34.6247L59.9783 36.8053L57.7983 29.1734L65.4296 25.1764L69.0638 34.6247Z" fill="#B50808"/>
<path d="M64.7027 23.7221L57.4342 27.7197L51.6201 23.7221L57.0714 17.5439L64.7027 23.7221Z" fill="#C61818"/>
<path d="M39.6274 16.4537L45.0788 22.9953H50.166L54.8911 16.4537L50.166 15H44.951L39.6274 16.4537Z" fill="#CE3129"/>
<path d="M83.2983 24.0704V46.9659H87.2505V38.7889L94.7007 46.9659H98.2592V45.3608L91.763 38.6072C93.4559 38.393 94.7915 37.5722 95.7758 36.1541C96.76 34.7361 97.2688 33.1339 97.2901 31.3388C97.3218 29.2552 96.6495 27.532 95.2912 26.1752C93.933 24.8185 91.6979 24.1189 88.5679 24.0704H83.2983ZM101.575 24.0704V46.9659H114.295V43.362H105.528V36.8204H111.963V33.2619H105.528V27.5986H113.932V24.0704H101.575ZM118.111 24.0704V46.9659H124.653C126.799 46.93 128.528 46.3665 129.831 45.27C131.135 44.1734 132.078 42.7565 132.663 41.03C133.248 39.3036 133.521 37.4741 133.511 35.5484C133.527 33.6448 133.287 31.8366 132.769 30.0971C132.251 28.3577 131.368 26.9294 130.119 25.8118C128.87 24.6942 127.147 24.1085 124.971 24.0704H118.111ZM87.2505 27.4926H88.5679C90.2101 27.504 91.3943 27.8371 92.1416 28.5072C92.8889 29.1772 93.2583 30.1161 93.247 31.3085C93.2446 32.5457 92.9237 33.5936 92.2627 34.4582C91.6018 35.3228 90.6175 35.768 89.3251 35.8059C88.8254 35.7862 88.359 35.7165 87.932 35.5787C87.5049 35.4409 87.2778 35.3561 87.2505 35.3364V27.4926ZM122.033 27.4926H124.834C126.219 27.5346 127.249 28.0042 127.923 28.9009C128.598 29.7975 129.035 30.8631 129.241 32.1111C129.447 33.359 129.534 34.5283 129.513 35.6241C129.531 36.7516 129.43 37.9263 129.195 39.1372C128.96 40.3482 128.491 41.3788 127.787 42.2263C127.084 43.0738 126.04 43.5065 124.653 43.5437H122.033V27.4926Z" fill="#9C0000"/>
<path d="M138.206 24.0704V46.9659H142.173V34.3522L141.87 31.7022L147.185 46.9659H150.456L155.756 31.7022L155.468 34.3522V46.9659H159.435V24.0704H154.772L149.32 39.5915C149.14 40.1374 149.022 40.6038 148.942 40.9998C148.861 41.3957 148.819 41.6017 148.82 41.6206C148.822 41.6039 148.78 41.4041 148.699 41.0149C148.619 40.6257 148.486 40.1533 148.306 39.5915L142.854 24.0704H138.206ZM164.66 24.0704V46.9659H168.582V24.0704H164.66ZM173.639 24.0704V46.9659H177.606V33.9585C177.596 33.165 177.544 32.4624 177.47 31.8688C177.396 31.2752 177.36 30.9754 177.349 30.9451L184.572 46.9659H188.388V24.0704H184.436C184.436 27.6806 184.436 30.3802 184.436 32.1716C184.436 33.9631 184.436 35.2158 184.436 35.9119C184.436 36.6079 184.436 37.1171 184.436 37.4413C184.436 37.7654 184.436 38.2647 184.436 38.9404C184.428 38.8844 184.316 38.4937 184.118 37.7744C183.919 37.0551 183.674 36.3343 183.376 35.6241L178.288 24.0704H173.639ZM193.703 24.0704V46.9659H206.423V43.362H197.655V36.8204H204.091V33.2619H197.655V27.5986H206.059V24.0704H193.703Z" fill="#CE3129"/>
<path d="M87.2358 53.3107C87.201 53.2974 86.961 53.3301 86.509 53.4167C86.057 53.5032 85.5982 53.7221 85.1462 54.0678C84.6941 54.4135 84.4541 54.9694 84.4193 55.7335V56.5814H83.4502V57.7171L84.4193 57.8837V64.0013H86.0093V57.914H87.3873V56.5814H86.0093V55.8092C86.0278 55.3969 86.1624 55.0936 86.403 54.9006C86.6436 54.7076 86.8741 54.5906 87.1147 54.5372C87.3553 54.4838 87.4899 54.4549 87.5084 54.4615L87.2358 53.3107ZM88.5078 53.4772V60.8971C88.5157 61.7618 88.5624 62.4419 88.6592 62.9413C88.7561 63.4407 88.8558 63.7953 88.9469 64.0013H90.5823C90.4151 63.4518 90.2915 62.9495 90.2038 62.487C90.1161 62.0246 90.0681 61.492 90.0675 60.8971V53.4772H88.5078ZM109.48 53.4772V63.2442C109.862 63.5369 110.283 63.7767 110.737 63.9559C111.191 64.135 111.658 64.2234 112.145 64.2284C112.947 64.2117 113.588 63.9883 114.053 63.547C114.519 63.1057 114.841 62.5464 115.038 61.8813C115.234 61.2163 115.331 60.5403 115.325 59.8522C115.329 58.9778 115.108 58.1828 114.659 57.4749C114.21 56.767 113.512 56.396 112.569 56.3543C112.309 56.3628 112.033 56.4423 111.752 56.5966C111.471 56.7509 111.247 56.9288 111.07 57.1266V53.4772H109.48ZM116.855 53.4772V60.8971C116.863 61.7618 116.909 62.4419 117.006 62.9413C117.103 63.4407 117.203 63.7953 117.294 64.0013H118.929C118.762 63.4518 118.638 62.9495 118.551 62.487C118.463 62.0246 118.415 61.492 118.414 60.8971V53.4772H116.855ZM106.543 53.7044C106.253 53.7119 106.009 53.8104 105.801 54.0072C105.592 54.2041 105.477 54.4539 105.467 54.7492C105.476 55.0347 105.577 55.2682 105.77 55.4458C105.964 55.6234 106.201 55.713 106.482 55.7183C106.772 55.7108 107.015 55.6123 107.224 55.4155C107.433 55.2186 107.547 54.9688 107.557 54.6735C107.549 54.388 107.448 54.1545 107.254 53.9769C107.061 53.7993 106.823 53.7097 106.543 53.7044ZM153.045 53.7044C152.755 53.7119 152.512 53.8104 152.303 54.0072C152.095 54.2041 151.98 54.4539 151.97 54.7492C151.978 55.0347 152.079 55.2682 152.273 55.4458C152.467 55.6234 152.704 55.713 152.985 55.7183C153.275 55.7108 153.518 55.6123 153.727 55.4155C153.935 55.2186 154.05 54.9688 154.06 54.6735C154.052 54.388 153.951 54.1545 153.757 53.9769C153.563 53.7993 153.326 53.7097 153.045 53.7044ZM169.46 55.2489V56.5814H168.445V57.7171L169.399 57.8837V62.3659C169.393 62.8807 169.513 63.3123 169.748 63.6682C169.982 64.024 170.367 64.2133 170.914 64.2284C171.265 64.2294 171.55 64.1953 171.762 64.1224C171.973 64.0496 172.228 63.9322 172.534 63.7742L172.155 62.6536C172.144 62.6618 172.062 62.7022 171.898 62.7596C171.733 62.817 171.553 62.8423 171.368 62.8505C171.193 62.8435 171.092 62.793 171.05 62.6839C171.008 62.5747 170.982 62.4486 170.989 62.3205V57.9291H172.307V56.5814H170.959V55.2489H169.46ZM252.971 55.2489V56.5814H251.956V57.7171L252.91 57.8837V62.3659C252.904 62.8807 253.024 63.3123 253.259 63.6682C253.493 64.024 253.878 64.2133 254.425 64.2284C254.776 64.2294 255.061 64.1953 255.273 64.1224C255.484 64.0496 255.739 63.9322 256.045 63.7742L255.666 62.6536C255.655 62.6618 255.573 62.7022 255.409 62.7596C255.245 62.817 255.064 62.8423 254.879 62.8505C254.704 62.8435 254.603 62.793 254.561 62.6839C254.519 62.5747 254.493 62.4486 254.5 62.3205V57.9291H255.818V56.5814H254.47V55.2489H252.971ZM95.0494 56.3543C94.02 56.3935 93.2187 56.7922 92.6569 57.5354C92.095 58.2787 91.8161 59.1317 91.8089 60.1097C91.804 60.7516 91.8956 61.3914 92.0814 62.0176C92.2673 62.6439 92.5703 63.1597 93.0051 63.5773C93.44 63.9949 94.0347 64.2124 94.7768 64.2284C95.2156 64.2152 95.6762 64.094 96.1548 63.865C96.6333 63.636 97.0409 63.3786 97.3813 63.0927L96.8514 62.063C96.5832 62.2694 96.2753 62.4587 95.9125 62.6233C95.5497 62.788 95.1964 62.8713 94.8677 62.8807C94.3301 62.8334 93.9515 62.5457 93.732 62.0025C93.5124 61.4592 93.4064 60.9444 93.414 60.4731C93.4116 60.3822 93.4164 60.2914 93.4291 60.2005H97.7599C97.7594 60.034 97.7642 59.8674 97.7599 59.7008C97.7555 59.5343 97.7453 59.3677 97.7448 59.2011C97.7044 58.4664 97.4293 57.814 96.9271 57.2477C96.4248 56.6815 95.8015 56.3849 95.0494 56.3543ZM123.396 56.3543C122.367 56.3935 121.566 56.7922 121.004 57.5354C120.442 58.2787 120.163 59.1317 120.156 60.1097C120.151 60.7516 120.242 61.3914 120.428 62.0176C120.614 62.6439 120.917 63.1597 121.352 63.5773C121.787 63.9949 122.382 64.2124 123.124 64.2284C123.562 64.2152 124.023 64.094 124.502 63.865C124.98 63.636 125.388 63.3786 125.728 63.0927L125.198 62.063C124.93 62.2694 124.622 62.4587 124.259 62.6233C123.897 62.788 123.543 62.8713 123.215 62.8807C122.677 62.8334 122.298 62.5457 122.079 62.0025C121.859 61.4592 121.753 60.9444 121.761 60.4731C121.758 60.3822 121.763 60.2914 121.776 60.2005H126.107C126.106 60.034 126.111 59.8674 126.107 59.7008C126.102 59.5343 126.092 59.3677 126.092 59.2011C126.051 58.4664 125.776 57.814 125.274 57.2477C124.772 56.6815 124.148 56.3849 123.396 56.3543ZM135.586 56.3543C135.157 56.3751 134.798 56.4811 134.511 56.6723C134.224 56.8635 134.039 57.0149 133.951 57.1266V56.5814H132.345V66.6512H133.951V63.4713C134.102 63.7347 134.322 63.9253 134.602 64.0467C134.882 64.1682 135.177 64.23 135.495 64.2284C136.255 64.2093 136.837 63.9817 137.252 63.5319C137.666 63.0821 137.956 62.5179 138.115 61.8662C138.273 61.2145 138.349 60.583 138.342 59.9582C138.345 59.086 138.125 58.2771 137.676 57.5354C137.227 56.7938 136.529 56.4013 135.586 56.3543ZM142.854 56.3543C142.594 56.3865 142.342 56.5228 142.097 56.748C141.852 56.9733 141.721 57.0944 141.704 57.1266V56.5814H140.098V64.0013H141.688V58.4743C141.704 58.4465 141.817 58.3355 142.022 58.1411C142.226 57.9468 142.43 57.8358 142.642 57.808C142.837 57.8194 143.024 57.8648 143.203 57.9443C143.382 58.0238 143.478 58.0692 143.49 58.0806L143.748 56.5814C143.746 56.572 143.673 56.5417 143.521 56.4754C143.368 56.4092 143.143 56.3638 142.854 56.3543ZM147.518 56.3543C146.498 56.4029 145.732 56.8244 145.232 57.6263C144.732 58.4282 144.488 59.3191 144.49 60.2914C144.488 61.2703 144.732 62.1574 145.232 62.9565C145.732 63.7555 146.498 64.1808 147.518 64.2284C148.539 64.1808 149.305 63.7555 149.805 62.9565C150.305 62.1574 150.548 61.2703 150.547 60.2914C150.548 59.3191 150.305 58.4282 149.805 57.6263C149.305 56.8244 148.539 56.4029 147.518 56.3543ZM158.709 56.3543C157.679 56.3935 156.878 56.7922 156.316 57.5354C155.754 58.2787 155.475 59.1317 155.468 60.1097C155.463 60.7516 155.555 61.3914 155.741 62.0176C155.927 62.6439 156.23 63.1597 156.664 63.5773C157.099 63.9949 157.694 64.2124 158.436 64.2284C158.875 64.2152 159.336 64.094 159.814 63.865C160.293 63.636 160.7 63.3786 161.041 63.0927L160.511 62.063C160.242 62.2694 159.935 62.4587 159.572 62.6233C159.209 62.788 158.856 62.8713 158.527 62.8807C157.989 62.8334 157.611 62.5457 157.391 62.0025C157.172 61.4592 157.066 60.9444 157.073 60.4731C157.071 60.3822 157.076 60.2914 157.088 60.2005H161.419C161.419 60.034 161.424 59.8674 161.419 59.7008C161.415 59.5343 161.405 59.3677 161.404 59.2011C161.364 58.4664 161.089 57.814 160.586 57.2477C160.084 56.6815 159.461 56.3849 158.709 56.3543ZM165.644 56.3543C164.939 56.3699 164.354 56.5838 163.903 56.9903C163.451 57.3968 163.119 57.9096 162.903 58.5197C162.687 59.1298 162.584 59.7407 162.585 60.3671C162.585 60.9725 162.698 61.567 162.918 62.1539C163.139 62.7408 163.472 63.2327 163.918 63.6227C164.364 64.0128 164.923 64.2136 165.599 64.2284C166.018 64.2212 166.44 64.1164 166.87 63.9256C167.301 63.7347 167.677 63.5013 167.991 63.2139L167.446 62.1236C167.216 62.3075 166.949 62.4829 166.628 62.6385C166.308 62.794 165.995 62.871 165.705 62.8807C165.319 62.8644 165.02 62.7081 164.796 62.3962C164.572 62.0843 164.406 61.7171 164.311 61.3059C164.217 60.8947 164.172 60.5298 164.175 60.2157C164.174 59.9175 164.226 59.5761 164.327 59.186C164.427 58.7958 164.593 58.4522 164.811 58.1563C165.03 57.8603 165.307 57.7024 165.659 57.6869C165.893 57.6893 166.139 57.7449 166.386 57.8383C166.633 57.9317 166.841 58.0478 167.022 58.2017L167.824 57.2629C167.568 56.96 167.231 56.7329 166.825 56.5814C166.419 56.43 166.029 56.3543 165.644 56.3543ZM181.968 56.3543C181.643 56.3698 181.299 56.4695 180.923 56.642C180.547 56.8146 180.271 56.9673 180.105 57.1114V56.5814H178.515V64.0013H180.105V58.55C180.255 58.4232 180.504 58.2642 180.862 58.0654C181.22 57.8667 181.561 57.7531 181.877 57.7323C182.129 57.7373 182.298 57.8332 182.392 58.0048C182.485 58.1765 182.533 58.3935 182.528 58.6711V64.0013H184.118V58.4137C184.289 58.2793 184.509 58.143 184.784 57.9897C185.059 57.8364 185.363 57.7455 185.693 57.7323C185.945 57.7284 186.114 57.7891 186.208 57.8988C186.301 58.0086 186.349 58.1904 186.344 58.4591V64.0013H187.934V58.4591C187.949 57.8613 187.807 57.3704 187.495 56.9752C187.183 56.5799 186.608 56.3691 185.784 56.3543C185.402 56.3729 185.026 56.4852 184.648 56.6874C184.27 56.8897 183.954 57.0701 183.709 57.2326C183.55 57.0171 183.332 56.8215 183.043 56.642C182.753 56.4625 182.391 56.3654 181.968 56.3543ZM192.583 56.3543C192.095 56.3638 191.611 56.5001 191.144 56.748C190.677 56.996 190.292 57.2988 189.978 57.6717L190.523 58.6257C190.767 58.3891 191.069 58.1847 191.417 58.0048C191.765 57.825 192.104 57.7266 192.446 57.7171C192.708 57.7121 192.923 57.7601 193.082 57.8686C193.242 57.9771 193.32 58.1765 193.325 58.4591V59.2011L190.069 60.6094C189.957 60.8214 189.859 61.0636 189.766 61.3362C189.673 61.6088 189.62 61.8662 189.615 62.1085C189.614 62.7732 189.78 63.2969 190.114 63.6682C190.449 64.0395 190.955 64.2224 191.629 64.2284C192.056 64.2265 192.418 64.1281 192.719 63.9407C193.019 63.7533 193.283 63.4883 193.506 63.1382C193.572 63.4745 193.724 63.7369 193.961 63.9256C194.197 64.1142 194.485 64.2101 194.824 64.2133C195.014 64.2123 195.201 64.1783 195.384 64.1224C195.567 64.0666 195.739 63.9947 195.899 63.8953L195.49 63.0927C195.444 63.1164 195.399 63.1353 195.354 63.1533C195.308 63.1713 195.263 63.1826 195.217 63.1836C195.106 63.1786 195.032 63.1432 194.99 63.0625C194.949 62.9817 194.927 62.8858 194.93 62.7899V58.4743C194.917 57.75 194.692 57.2149 194.263 56.8692C193.834 56.5234 193.277 56.3518 192.583 56.3543ZM200.85 56.3543C200.512 56.3619 200.151 56.4452 199.775 56.5966C199.399 56.748 199.084 56.9222 198.821 57.1266V56.5814H197.231V64.0013H198.821V58.5197C199.016 58.361 199.293 58.1957 199.639 58.02C199.985 57.8443 200.323 57.7471 200.669 57.7323C200.912 57.7289 201.075 57.7922 201.153 57.914C201.232 58.0358 201.266 58.2351 201.259 58.5197V64.0013H202.849V58.5197C202.872 57.9326 202.751 57.4241 202.486 57.0054C202.221 56.5868 201.676 56.3736 200.85 56.3543ZM207.498 56.3543C207.01 56.3638 206.527 56.5001 206.059 56.748C205.592 56.996 205.207 57.2988 204.893 57.6717L205.439 58.6257C205.682 58.3891 205.984 58.1847 206.332 58.0048C206.68 57.825 207.019 57.7266 207.362 57.7171C207.624 57.7121 207.838 57.7601 207.998 57.8686C208.157 57.9771 208.236 58.1765 208.24 58.4591V59.2011L204.984 60.6094C204.873 60.8214 204.774 61.0636 204.681 61.3362C204.589 61.6088 204.536 61.8662 204.53 62.1085C204.53 62.7732 204.695 63.2969 205.03 63.6682C205.364 64.0395 205.87 64.2224 206.544 64.2284C206.971 64.2265 207.334 64.1281 207.634 63.9407C207.935 63.7533 208.199 63.4883 208.422 63.1382C208.488 63.4745 208.639 63.7369 208.876 63.9256C209.113 64.1142 209.4 64.2101 209.739 64.2133C209.93 64.2123 210.116 64.1783 210.299 64.1224C210.482 64.0666 210.654 63.9947 210.814 63.8953L210.405 63.0927C210.36 63.1164 210.314 63.1353 210.269 63.1533C210.224 63.1713 210.178 63.1826 210.133 63.1836C210.021 63.1786 209.947 63.1432 209.906 63.0625C209.864 62.9817 209.843 62.8858 209.845 62.7899V58.4743C209.832 57.75 209.608 57.2149 209.179 56.8692C208.75 56.5234 208.192 56.3518 207.498 56.3543ZM214.464 56.3543C213.65 56.3641 213.006 56.6076 212.525 57.0812C212.045 57.5547 211.795 58.1995 211.783 59.0194C211.781 59.4598 211.88 59.8888 212.086 60.3065C212.292 60.7242 212.618 61.0321 213.055 61.2302C212.779 61.3299 212.538 61.4788 212.328 61.6845C212.119 61.8902 212.006 62.1451 211.995 62.4416C212.004 62.7079 212.092 62.9476 212.268 63.1533C212.443 63.359 212.653 63.4776 212.889 63.5167C212.587 63.6404 212.288 63.8398 211.995 64.1073C211.703 64.3748 211.548 64.6953 211.526 65.0764C211.559 65.7859 211.85 66.2844 212.389 66.5755C212.927 66.8667 213.514 67.0093 214.161 66.9995C215.004 66.9961 215.763 66.7566 216.447 66.2878C217.131 65.819 217.497 65.1401 217.537 64.2436C217.521 63.6966 217.328 63.2877 216.962 63.0019C216.596 62.7161 216.153 62.5646 215.63 62.5628H215.145C214.928 62.5763 214.622 62.5852 214.236 62.5779C213.851 62.5706 213.643 62.4659 213.6 62.275C213.623 62.0318 213.744 61.869 213.964 61.7753C214.183 61.6817 214.365 61.6173 214.509 61.5936C214.599 61.5719 214.682 61.5605 214.766 61.5482C214.851 61.5359 214.941 61.517 215.024 61.5028C215.641 61.3463 216.116 61.0611 216.447 60.6396C216.778 60.2182 216.943 59.6907 216.947 59.0648C216.944 58.8743 216.928 58.68 216.886 58.4894C216.844 58.2989 216.79 58.1197 216.735 57.9443H217.598V56.5814H215.705C215.514 56.4991 215.311 56.4348 215.1 56.3997C214.888 56.3648 214.677 56.3534 214.464 56.3543ZM221.793 56.3543C220.763 56.3935 219.962 56.7922 219.4 57.5354C218.838 58.2787 218.559 59.1317 218.552 60.1097C218.547 60.7516 218.639 61.3914 218.825 62.0176C219.01 62.6439 219.313 63.1597 219.748 63.5773C220.183 63.9949 220.778 64.2124 221.52 64.2284C221.959 64.2152 222.419 64.094 222.898 63.865C223.376 63.636 223.784 63.3786 224.124 63.0927L223.594 62.063C223.326 62.2694 223.018 62.4587 222.656 62.6233C222.293 62.788 221.94 62.8713 221.611 62.8807C221.073 62.8334 220.695 62.5457 220.475 62.0025C220.256 61.4592 220.15 60.9444 220.157 60.4731C220.155 60.3822 220.16 60.2914 220.172 60.2005H224.503C224.503 60.034 224.507 59.8674 224.503 59.7008C224.499 59.5343 224.489 59.3677 224.488 59.2011C224.448 58.4664 224.172 57.814 223.67 57.2477C223.168 56.6815 222.545 56.3849 221.793 56.3543ZM229.636 56.3543C229.312 56.3698 228.967 56.4695 228.592 56.642C228.216 56.8146 227.939 56.9673 227.774 57.1114V56.5814H226.184V64.0013H227.774V58.55C227.923 58.4232 228.173 58.2642 228.531 58.0654C228.889 57.8667 229.229 57.7531 229.546 57.7323C229.798 57.7373 229.967 57.8332 230.06 58.0048C230.154 58.1765 230.202 58.3935 230.197 58.6711V64.0013H231.787V58.4137C231.957 58.2793 232.178 58.143 232.453 57.9897C232.728 57.8364 233.032 57.7455 233.361 57.7323C233.614 57.7284 233.783 57.7891 233.876 57.8988C233.97 58.0086 234.018 58.1904 234.013 58.4591V64.0013H235.603V58.4591C235.618 57.8613 235.475 57.3704 235.163 56.9752C234.851 56.5799 234.277 56.3691 233.452 56.3543C233.071 56.3729 232.695 56.4852 232.317 56.6874C231.939 56.8897 231.623 57.0701 231.378 57.2326C231.219 57.0171 231.001 56.8215 230.711 56.642C230.422 56.4625 230.06 56.3654 229.636 56.3543ZM240.6 56.3543C239.57 56.3935 238.769 56.7922 238.207 57.5354C237.645 58.2787 237.366 59.1317 237.359 60.1097C237.354 60.7516 237.446 61.3914 237.632 62.0176C237.817 62.6439 238.12 63.1597 238.555 63.5773C238.99 63.9949 239.585 64.2124 240.327 64.2284C240.766 64.2152 241.226 64.094 241.705 63.865C242.184 63.636 242.591 63.3786 242.932 63.0927L242.402 62.063C242.133 62.2694 241.825 62.4587 241.463 62.6233C241.1 62.788 240.747 62.8713 240.418 62.8807C239.88 62.8334 239.502 62.5457 239.282 62.0025C239.063 61.4592 238.957 60.9444 238.964 60.4731C238.962 60.3822 238.967 60.2914 238.979 60.2005H243.31C243.31 60.034 243.314 59.8674 243.31 59.7008C243.306 59.5343 243.296 59.3677 243.295 59.2011C243.255 58.4664 242.979 57.814 242.477 57.2477C241.975 56.6815 241.352 56.3849 240.6 56.3543ZM248.595 56.3543C248.257 56.3619 247.896 56.4452 247.52 56.5966C247.144 56.748 246.828 56.9222 246.566 57.1266V56.5814H244.976V64.0013H246.566V58.5197C246.76 58.361 247.038 58.1957 247.383 58.02C247.729 57.8443 248.067 57.7471 248.413 57.7323C248.656 57.7289 248.819 57.7922 248.898 57.914C248.976 58.0358 249.01 58.2351 249.004 58.5197V64.0013H250.594V58.5197C250.616 57.9326 250.495 57.4241 250.23 57.0054C249.965 56.5868 249.42 56.3736 248.595 56.3543ZM98.5776 56.5814L100.592 60.1702L98.4413 64.0013H100.183L101.47 61.4876L102.802 64.0013H104.619L102.348 60.0794C102.444 59.917 102.65 59.5586 102.969 59.0043C103.288 58.4499 103.599 57.9115 103.893 57.3991C104.186 56.8868 104.341 56.6176 104.362 56.5814H102.621L101.485 58.8074L100.364 56.5814H98.5776ZM105.725 56.5814V64.0013H107.285V56.5814H105.725ZM152.243 56.5814V64.5464C152.231 64.8657 152.124 65.1357 151.91 65.349C151.695 65.5622 151.444 65.7111 151.168 65.8033L151.501 66.939C151.994 66.8099 152.499 66.5815 153 66.2424C153.501 65.9033 153.763 65.3644 153.802 64.6373V56.5814H152.243ZM214.373 57.5051C214.767 57.5241 215.036 57.6907 215.19 57.9897C215.345 58.2888 215.424 58.6068 215.418 58.9588C215.424 59.3011 215.354 59.6178 215.206 59.8977C215.057 60.1775 214.79 60.3201 214.403 60.3368C213.968 60.3223 213.681 60.1734 213.54 59.8825C213.398 59.5917 213.331 59.2459 213.343 58.8528C213.337 58.5052 213.417 58.1973 213.57 57.9291C213.723 57.661 213.985 57.5197 214.373 57.5051ZM94.9434 57.5354C95.3286 57.5481 95.6201 57.6818 95.8217 57.9443C96.0232 58.2067 96.1406 58.5222 96.1699 58.8831H93.6411C93.72 58.5289 93.8613 58.2247 94.0651 57.9594C94.2689 57.6941 94.5617 57.549 94.9434 57.5354ZM123.29 57.5354C123.675 57.5481 123.967 57.6818 124.169 57.9443C124.37 58.2067 124.487 58.5222 124.517 58.8831H121.988C122.067 58.5289 122.208 58.2247 122.412 57.9594C122.616 57.6941 122.909 57.549 123.29 57.5354ZM158.603 57.5354C158.988 57.5481 159.279 57.6818 159.481 57.9443C159.683 58.2067 159.8 58.5222 159.829 58.8831H157.3C157.379 58.5289 157.521 58.2247 157.724 57.9594C157.928 57.6941 158.221 57.549 158.603 57.5354ZM221.687 57.5354C222.072 57.5481 222.363 57.6818 222.565 57.9443C222.766 58.2067 222.884 58.5222 222.913 58.8831H220.384C220.463 58.5289 220.604 58.2247 220.808 57.9594C221.012 57.6941 221.305 57.549 221.687 57.5354ZM240.494 57.5354C240.879 57.5481 241.17 57.6818 241.372 57.9443C241.573 58.2067 241.691 58.5222 241.72 58.8831H239.191C239.27 58.5289 239.412 58.2247 239.615 57.9594C239.819 57.6941 240.112 57.549 240.494 57.5354ZM147.518 57.7171C147.969 57.7411 148.326 58.0036 148.578 58.5045C148.83 59.0055 148.953 59.6011 148.957 60.2914C148.953 60.9882 148.83 61.5801 148.578 62.0782C148.326 62.5763 147.969 62.8426 147.518 62.8656C147.068 62.8426 146.71 62.5763 146.458 62.0782C146.206 61.5801 146.084 60.9882 146.08 60.2914C146.084 59.6011 146.206 59.0055 146.458 58.5045C146.71 58.0036 147.068 57.7411 147.518 57.7171ZM112.433 57.7777C112.963 57.8194 113.311 58.0844 113.478 58.5803C113.644 59.0762 113.72 59.5532 113.705 60.0037C113.71 60.3258 113.673 60.7174 113.599 61.1696C113.525 61.6219 113.386 62.0146 113.175 62.3659C112.964 62.7172 112.655 62.9069 112.251 62.9262C112.056 62.9223 111.86 62.8846 111.646 62.805C111.432 62.7255 111.235 62.6271 111.07 62.5173V58.5348C111.233 58.3774 111.445 58.2172 111.706 58.0503C111.967 57.8834 112.21 57.7913 112.433 57.7777ZM135.435 57.7777C135.978 57.8219 136.334 58.1045 136.495 58.6257C136.655 59.1468 136.724 59.6415 136.707 60.1097C136.712 60.3962 136.686 60.7598 136.631 61.1848C136.576 61.6098 136.465 61.9846 136.283 62.3205C136.1 62.6563 135.813 62.8315 135.435 62.8505C134.816 62.8063 134.417 62.5161 134.223 61.9722C134.029 61.4283 133.933 60.8958 133.951 60.3822V58.5348C134.126 58.3575 134.335 58.1935 134.587 58.0351C134.838 57.8768 135.123 57.7884 135.435 57.7777ZM193.355 60.5488V60.8214C193.351 61.3066 193.215 61.7709 192.946 62.2145C192.677 62.658 192.299 62.8953 191.81 62.9262C191.583 62.918 191.413 62.8322 191.295 62.6688C191.177 62.5053 191.114 62.3135 191.114 62.0933C191.115 61.9861 191.135 61.875 191.159 61.7602C191.183 61.6454 191.203 61.5343 191.235 61.4271L193.355 60.5488ZM208.27 60.5488V60.8214C208.266 61.3066 208.13 61.7709 207.861 62.2145C207.593 62.658 207.214 62.8953 206.726 62.9262C206.498 62.918 206.329 62.8322 206.211 62.6688C206.093 62.5053 206.03 62.3135 206.029 62.0933C206.031 61.9861 206.051 61.875 206.075 61.7602C206.099 61.6454 206.119 61.5343 206.15 61.4271L208.27 60.5488ZM213.979 63.7893H214.857C215.084 63.7773 215.325 63.805 215.584 63.865C215.843 63.925 215.986 64.089 216.008 64.3647C215.988 64.8373 215.804 65.1982 215.448 65.455C215.091 65.7118 214.68 65.8455 214.221 65.8487C213.929 65.856 213.675 65.7941 213.449 65.6518C213.223 65.5096 213.098 65.2433 213.086 64.8644C213.123 64.548 213.279 64.2893 213.54 64.0922C213.8 63.895 213.942 63.7953 213.979 63.7893Z" fill="#636363"/>
</svg>
