<svg width="272" height="80" viewBox="0 0 272 80" fill="none" xmlns="http://www.w3.org/2000/svg">
<g clip-path="url(#clip0_10573_4425)">
<path d="M99.2692 73.8287C93.6975 71.8253 90.5324 66.398 91.952 61.2916C92.6362 58.8298 94.995 54.4434 100.482 52.3123C98.2749 46.5177 99.6858 39.78 104.021 35.4126C113.777 25.5843 126.039 33.8867 127.249 35.9993C128.573 29.1637 135.026 22.9257 137.341 21.3777C152.369 11.3283 172.218 22.215 172.857 39.0681C172.994 42.6626 172.289 46.773 171.78 49.358C172.289 49.2275 174.704 47.1861 179.891 48.0002C193.829 50.1877 195.097 71.0114 181.158 75C168.487 75 150.748 75 150.748 75C150.748 75 141.995 71.3182 141.995 63.1755C141.995 56.8979 146.666 52.2221 152.077 52.2221H153.792C150.431 53.8297 148.215 57.9884 150.178 62.1575C152.648 66.4092 159.41 66.415 161.91 62.2847C163.116 60.2917 163.694 56.2055 162.469 52.9093C160.284 47.027 153.763 43.1744 147.41 43.1969C129.783 43.2588 123.905 68.6025 108.786 73.7049C106.103 74.6105 101.6 74.6699 99.2685 73.8306L99.2692 73.8287ZM82.324 36.955C78.2059 36.955 77.2555 33.2732 78.5227 31.4323C79.0381 30.4191 80.4835 29.5914 81.6904 29.5914C83.2743 29.5914 83.9078 30.205 84.2247 30.5118C84.2247 26.2164 85.8142 23.1272 88.6596 21.3072C91.8329 19.2775 95.6287 19.1595 98.9569 19.8683C98.9569 18.5459 99.1695 17.7914 99.4299 16.3982C100.421 11.0927 104.279 6.92426 109.034 4.43944C112.418 2.67134 118.659 2.62159 121.769 3.80248C126.863 5.73618 130.369 9.44576 131.986 14.6121C132.493 16.2322 132.791 18.0052 133.008 18.546C129.207 21.0005 126.673 24.9891 125.137 28.411C113.051 24.0687 102.281 26.5232 97.5293 36.955C92.3552 36.955 87.498 36.955 82.324 36.955Z" fill="white"/>
</g>
<defs>
<clipPath id="clip0_10573_4425">
<rect width="272" height="80" fill="white"/>
</clipPath>
</defs>
</svg>
