<svg width="272" height="80" viewBox="0 0 272 80" fill="none" xmlns="http://www.w3.org/2000/svg">
<path d="M168.416 32.6206C167.893 32.6176 167.372 32.6725 166.861 32.7844C164.938 27.8593 161.198 23.8546 156.408 21.5915C156.593 20.1033 156.331 18.5938 155.653 17.2548C154.976 15.9159 153.915 14.8078 152.605 14.0715C151.295 13.3353 149.795 13.004 148.296 13.1198C146.797 13.2356 145.366 13.7933 144.185 14.7219V26.5829C144.999 27.2225 145.935 27.6891 146.936 27.9539C147.938 28.2186 148.983 28.276 150.007 28.1225C151.032 27.969 152.014 27.6078 152.893 27.0611C153.772 26.5145 154.53 25.7941 155.119 24.9443C159.054 26.8688 162.099 30.2253 163.625 34.3222C162.75 35.0358 162.046 35.9356 161.565 36.9556C161.083 37.9755 160.836 39.09 160.842 40.2173C160.848 41.3447 161.107 42.4564 161.6 43.4712C162.092 44.4859 162.806 45.3781 163.689 46.0823C162.176 50.2511 159.105 53.6748 155.119 55.6367C154.53 54.7869 153.772 54.0665 152.893 53.5199C152.014 52.9733 151.032 52.612 150.007 52.4585C148.983 52.305 147.938 52.3624 146.936 52.6271C145.935 52.8919 144.999 53.3585 144.185 53.9981V65.8591C145.302 66.7394 146.645 67.2884 148.061 67.4431C149.476 67.5978 150.907 67.352 152.189 66.7339C153.471 66.1158 154.552 65.1503 155.309 63.9479C156.067 62.7455 156.469 61.3548 156.471 59.9349C156.49 59.6159 156.49 59.296 156.471 58.9769C161.317 56.6913 165.089 52.6268 167 47.6327C167.467 47.7173 167.941 47.7553 168.416 47.7462C170.427 47.7462 172.356 46.9494 173.779 45.5311C175.201 44.1128 176 42.1891 176 40.1834C176 38.1776 175.201 36.2539 173.779 34.8356C172.356 33.4173 170.427 32.6206 168.416 32.6206Z" fill="white"/>
<path d="M96.0885 10.9787L96 69.8039L140.025 77.7826V3L96.0885 10.9787ZM120.901 55.0945C117.311 57.691 112.609 56.5944 108.83 55.0945C108.83 52.9013 108.728 50.7081 108.653 48.5023C111.08 50.2921 114.669 52.9265 117.564 50.4812C119.801 46.6999 115.402 44.3554 112.862 42.5404C107.401 39.2506 107.199 30.251 112.495 26.7343C115.592 24.7806 119.371 25.3982 122.784 25.8772L122.911 31.9904C120.067 31.0955 116.439 29.293 114.063 32.1795C112.432 36.4272 117.589 38.028 120.079 40.2463C125.009 43.4353 125.439 51.5022 120.901 55.0945Z" fill="white"/>
</svg>
