<svg xmlns="http://www.w3.org/2000/svg" width="569" height="151" fill-rule="evenodd" xmlns:v="https://vecta.io/nano"><g opacity=".975" fill="#8e75ff"><path d="M85.118 109.53V68.261a2.66 2.66 0 0 0-2.661-2.661h-41.06V23h83.457a2.66 2.66 0 0 1 2.661 2.661v83.869H85.118z"/><path d="M41.397 23v42.599H2.202a1.33 1.33 0 0 1-.943-2.269L41.397 23zm43.721 125.906V109.53h42.397l-40.123 40.315a1.33 1.33 0 0 1-2.274-.939z" opacity=".405"/><path d="M41.397 65.599h42.391a1.33 1.33 0 0 1 1.331 1.331v42.6h-41.06a2.66 2.66 0 0 1-2.661-2.661V65.599z" opacity=".405"/></g><path d="M290.841 52.402h-16.769v31.777c0 2.648.66 4.583 1.981 5.805s3.251 1.91 5.79 2.062c2.323.14 5.157.13 8.5-.028l.474-.024a.45.45 0 0 1 .473.426l.001.023v16.998a.45.45 0 0 1-.401.447l-.31.034c-13.135 1.404-22.421.105-27.86-3.898-5.536-4.074-8.305-11.356-8.305-21.847V52.402h-12.807a.45.45 0 0 1-.45-.45V33.908a.45.45 0 0 1 .45-.45h12.807V20.837a.9.9 0 0 1 .537-.823l18.488-8.158a.45.45 0 0 1 .632.412v21.191h16.769a.45.45 0 0 1 .45.45v18.044a.45.45 0 0 1-.45.45zm36.091-5.805c1.829-4.889 4.851-8.555 9.066-11 3.858-2.237 8.12-3.45 12.787-3.64a35.14 35.14 0 0 1 .851-.021.45.45 0 0 1 .457.443v20.728a.74.74 0 0 1-.808.738c-5.668-.514-10.758.736-15.268 3.751-4.724 3.157-7.086 8.403-7.086 15.736v36.063a.45.45 0 0 1-.45.45h-18.757a.45.45 0 0 1-.45-.45V33.908a.45.45 0 0 1 .45-.45h18.757a.45.45 0 0 1 .45.45v12.689zm92.943-13.139h18.757a.45.45 0 0 1 .45.45v75.487a.45.45 0 0 1-.45.45h-18.757a.45.45 0 0 1-.45-.45v-8.564c-5.892 7.435-14.171 11.153-24.837 11.153-10.158 0-18.869-3.896-26.133-11.687s-10.895-17.34-10.895-28.645 3.632-20.854 10.895-28.645 15.974-11.687 26.133-11.687c10.666 0 18.945 3.717 24.837 11.153v-8.564a.45.45 0 0 1 .45-.45zm-36.716 53.777c3.962 3.972 8.99 5.958 15.085 5.958s11.149-2.012 15.161-6.035 6.019-9.192 6.019-15.507-2.006-11.484-6.019-15.507-9.066-6.035-15.161-6.035-11.123 2.012-15.085 6.035-5.943 9.192-5.943 15.507 1.981 11.509 5.943 15.583zm115.012-55.916c10.26 0 19.022 3.896 26.285 11.687s10.895 17.34 10.895 28.645-3.632 20.854-10.895 28.645-16.025 11.687-26.285 11.687c-10.666 0-18.895-3.717-24.685-11.153v39.119a.45.45 0 0 1-.45.45h-18.757a.45.45 0 0 1-.45-.45V33.908a.45.45 0 0 1 .45-.45h18.757a.45.45 0 0 1 .45.45v8.564c5.79-7.435 14.019-11.153 24.685-11.153zm-18.742 55.916c3.962 3.972 8.99 5.958 15.085 5.958s11.149-2.012 15.161-6.035 6.019-9.192 6.019-15.507-2.006-11.484-6.019-15.507-9.066-6.035-15.161-6.035-11.123 2.012-15.085 6.035-5.943 9.192-5.943 15.507 1.981 11.509 5.943 15.583zm77.381-62.943c-3.251 0-6.07-1.197-8.457-3.59s-3.581-5.22-3.581-8.479 1.194-6.111 3.581-8.555S553.559 0 556.81 0c3.352 0 6.222 1.222 8.609 3.667S569 8.963 569 12.222s-1.194 6.086-3.581 8.479-5.257 3.59-8.609 3.59zm-9.752 85.104V33.908a.45.45 0 0 1 .45-.45h18.757a.45.45 0 0 1 .45.45v75.487a.45.45 0 0 1-.45.45h-18.757a.45.45 0 0 1-.45-.45zM194.989 55.152c0 2.037 1.346 3.692 4.038 4.965s5.968 2.393 9.828 3.361a101.39 101.39 0 0 1 11.581 3.667c3.86 1.477 7.136 3.947 9.828 7.41s4.038 7.791 4.038 12.986c0 7.842-2.921 13.877-8.762 18.104s-13.13 6.34-21.866 6.34c-15.293 0-25.829-5.791-31.609-17.374l-.189-.387a.45.45 0 0 1 .21-.601l16.547-7.351a.9.9 0 0 1 1.164.408c2.582 4.958 7.206 7.43 13.878 7.43 7.009 0 10.514-2.19 10.514-6.569 0-2.037-1.346-3.692-4.038-4.965s-5.968-2.419-9.828-3.437a102.57 102.57 0 0 1-11.581-3.819c-3.86-1.528-7.136-3.947-9.828-7.257s-4.038-7.46-4.038-12.451c0-7.537 2.768-13.47 8.305-17.798s12.419-6.493 20.647-6.493c6.197 0 11.835 1.4 16.914 4.201 4.611 2.543 8.288 5.88 11.131 10.361.145.228.34.55.584.964a.45.45 0 0 1-.205.64l-16.576 7.353c-.293.13-.636.028-.812-.24-2.488-3.807-6.166-5.71-11.036-5.71-2.54 0-4.647.56-6.324 1.681s-2.514 2.648-2.514 4.583z" fill="#2f2e8b" fill-rule="nonzero"/></svg>