<svg width="264" height="60" viewBox="0 0 264 60" fill="none" xmlns="http://www.w3.org/2000/svg">
<g clip-path="url(#clip0_5749_8996)">
<rect width="149" height="60" fill="#EB6758"/>
<ellipse cx="212" cy="32" rx="80" ry="58" fill="#5D566A"/>
<path d="M175.152 37.706C175.328 37.706 175.504 37.7427 175.68 37.816C175.856 37.8747 176.025 37.9847 176.186 38.146L179.134 41.248C177.843 42.9347 176.223 44.2107 174.272 45.076C172.336 45.9267 170.041 46.352 167.386 46.352C164.951 46.352 162.766 45.9413 160.83 45.12C158.909 44.284 157.273 43.14 155.924 41.688C154.589 40.2213 153.563 38.4907 152.844 36.496C152.125 34.4867 151.766 32.3087 151.766 29.962C151.766 27.5713 152.155 25.3787 152.932 23.384C153.709 21.3747 154.802 19.644 156.21 18.192C157.618 16.74 159.305 15.6107 161.27 14.804C163.235 13.9973 165.399 13.594 167.76 13.594C168.963 13.594 170.092 13.704 171.148 13.924C172.219 14.1293 173.216 14.4227 174.14 14.804C175.064 15.1707 175.915 15.618 176.692 16.146C177.469 16.674 178.159 17.246 178.76 17.862L176.252 21.228C176.091 21.4333 175.9 21.624 175.68 21.8C175.46 21.9613 175.152 22.042 174.756 22.042C174.492 22.042 174.243 21.9833 174.008 21.866C173.773 21.7487 173.524 21.6093 173.26 21.448C172.996 21.272 172.703 21.0887 172.38 20.898C172.072 20.6927 171.698 20.5093 171.258 20.348C170.833 20.172 170.327 20.0253 169.74 19.908C169.168 19.7907 168.493 19.732 167.716 19.732C166.484 19.732 165.355 19.9593 164.328 20.414C163.316 20.8687 162.436 21.536 161.688 22.416C160.955 23.2813 160.383 24.352 159.972 25.628C159.576 26.8893 159.378 28.334 159.378 29.962C159.378 31.6047 159.598 33.064 160.038 34.34C160.493 35.616 161.101 36.694 161.864 37.574C162.641 38.4393 163.543 39.0993 164.57 39.554C165.597 40.0087 166.697 40.236 167.87 40.236C168.545 40.236 169.161 40.2067 169.718 40.148C170.275 40.0747 170.796 39.9647 171.28 39.818C171.764 39.6567 172.219 39.4513 172.644 39.202C173.069 38.938 173.502 38.608 173.942 38.212C174.118 38.0653 174.309 37.948 174.514 37.86C174.719 37.7573 174.932 37.706 175.152 37.706Z" fill="white"/>
<path d="M192.368 29.016C193.38 29.016 194.238 28.8913 194.942 28.642C195.661 28.378 196.247 28.0187 196.702 27.564C197.157 27.1093 197.487 26.5813 197.692 25.98C197.897 25.364 198 24.704 198 24C198 22.592 197.538 21.492 196.614 20.7C195.705 19.908 194.289 19.512 192.368 19.512H189.376V29.016H192.368ZM208.164 46H201.432C200.185 46 199.291 45.5307 198.748 44.592L193.424 35.286C193.175 34.89 192.896 34.604 192.588 34.428C192.28 34.2373 191.84 34.142 191.268 34.142H189.376V46H181.94V13.946H192.368C194.685 13.946 196.658 14.188 198.286 14.672C199.929 15.1413 201.263 15.8013 202.29 16.652C203.331 17.5027 204.087 18.5073 204.556 19.666C205.025 20.8247 205.26 22.086 205.26 23.45C205.26 24.4913 205.121 25.474 204.842 26.398C204.563 27.322 204.153 28.18 203.61 28.972C203.067 29.7493 202.393 30.446 201.586 31.062C200.794 31.678 199.877 32.184 198.836 32.58C199.32 32.8293 199.775 33.1447 200.2 33.526C200.625 33.8927 201.007 34.3327 201.344 34.846L208.164 46Z" fill="white"/>
<path d="M246.454 13.946V46H239.898V27.564C239.898 27.1387 239.905 26.6767 239.92 26.178C239.949 25.6793 239.993 25.1733 240.052 24.66L231.538 41.138C231.274 41.6513 230.915 42.04 230.46 42.304C230.02 42.568 229.514 42.7 228.942 42.7H227.93C227.358 42.7 226.845 42.568 226.39 42.304C225.95 42.04 225.598 41.6513 225.334 41.138L216.82 24.616C216.864 25.144 216.901 25.6647 216.93 26.178C216.959 26.6767 216.974 27.1387 216.974 27.564V46H210.418V13.946H216.094C216.417 13.946 216.695 13.9533 216.93 13.968C217.179 13.9827 217.399 14.0267 217.59 14.1C217.781 14.1733 217.949 14.2907 218.096 14.452C218.257 14.5987 218.411 14.8113 218.558 15.09L226.808 31.348C227.101 31.9053 227.38 32.4847 227.644 33.086C227.923 33.6873 228.187 34.3033 228.436 34.934C228.685 34.2887 228.942 33.658 229.206 33.042C229.485 32.426 229.778 31.8393 230.086 31.282L238.314 15.09C238.461 14.8113 238.607 14.5987 238.754 14.452C238.915 14.2907 239.091 14.1733 239.282 14.1C239.473 14.0267 239.685 13.9827 239.92 13.968C240.169 13.9533 240.455 13.946 240.778 13.946H246.454Z" fill="white"/>
<path d="M30.172 24.8041C30.076 24.9721 29.972 25.0961 29.86 25.1761C29.756 25.2481 29.624 25.2841 29.464 25.2841C29.296 25.2841 29.112 25.2241 28.912 25.1041C28.72 24.9761 28.488 24.8361 28.216 24.6841C27.944 24.5321 27.624 24.3961 27.256 24.2761C26.896 24.1481 26.468 24.0841 25.972 24.0841C25.524 24.0841 25.132 24.1401 24.796 24.2521C24.46 24.3561 24.176 24.5041 23.944 24.6961C23.72 24.8881 23.552 25.1201 23.44 25.3921C23.328 25.6561 23.272 25.9481 23.272 26.2681C23.272 26.6761 23.384 27.0161 23.608 27.2881C23.84 27.5601 24.144 27.7921 24.52 27.9841C24.896 28.1761 25.324 28.3481 25.804 28.5001C26.284 28.6521 26.776 28.8161 27.28 28.9921C27.784 29.1601 28.276 29.3601 28.756 29.5921C29.236 29.8161 29.664 30.1041 30.04 30.4561C30.416 30.8001 30.716 31.2241 30.94 31.7281C31.172 32.2321 31.288 32.8441 31.288 33.5641C31.288 34.3481 31.152 35.0841 30.88 35.7721C30.616 36.4521 30.224 37.0481 29.704 37.5601C29.192 38.0641 28.564 38.4641 27.82 38.7601C27.076 39.0481 26.224 39.1921 25.264 39.1921C24.712 39.1921 24.168 39.1361 23.632 39.0241C23.096 38.9201 22.58 38.7681 22.084 38.5681C21.596 38.3681 21.136 38.1281 20.704 37.8481C20.272 37.5681 19.888 37.2561 19.552 36.9121L20.5 35.3641C20.58 35.2521 20.684 35.1601 20.812 35.0881C20.94 35.0081 21.076 34.9681 21.22 34.9681C21.42 34.9681 21.636 35.0521 21.868 35.2201C22.1 35.3801 22.376 35.5601 22.696 35.7601C23.016 35.9601 23.388 36.1441 23.812 36.3121C24.244 36.4721 24.76 36.5521 25.36 36.5521C26.28 36.5521 26.992 36.3361 27.496 35.9041C28 35.4641 28.252 34.8361 28.252 34.0201C28.252 33.5641 28.136 33.1921 27.904 32.9041C27.68 32.6161 27.38 32.3761 27.004 32.1841C26.628 31.9841 26.2 31.8161 25.72 31.6801C25.24 31.5441 24.752 31.3961 24.256 31.2361C23.76 31.0761 23.272 30.8841 22.792 30.6601C22.312 30.4361 21.884 30.1441 21.508 29.7841C21.132 29.4241 20.828 28.9761 20.596 28.4401C20.372 27.8961 20.26 27.2281 20.26 26.4361C20.26 25.8041 20.384 25.1881 20.632 24.5881C20.888 23.9881 21.256 23.4561 21.736 22.9921C22.216 22.5281 22.808 22.1561 23.512 21.8761C24.216 21.5961 25.024 21.4561 25.936 21.4561C26.96 21.4561 27.904 21.6161 28.768 21.9361C29.632 22.2561 30.368 22.7041 30.976 23.2801L30.172 24.8041Z" fill="white"/>
<path d="M47.8079 36.3961C48.4319 36.3961 48.9879 36.2921 49.4759 36.0841C49.9719 35.8761 50.3879 35.5841 50.7239 35.2081C51.0599 34.8321 51.3159 34.3761 51.4919 33.8401C51.6759 33.3041 51.7679 32.7041 51.7679 32.0401V21.6481H54.9959V32.0401C54.9959 33.0721 54.8279 34.0281 54.4919 34.9081C54.1639 35.7801 53.6879 36.5361 53.0639 37.1761C52.4479 37.8081 51.6959 38.3041 50.8079 38.6641C49.9199 39.0161 48.9199 39.1921 47.8079 39.1921C46.6879 39.1921 45.6839 39.0161 44.7959 38.6641C43.9079 38.3041 43.1519 37.8081 42.5279 37.1761C41.9119 36.5361 41.4359 35.7801 41.0999 34.9081C40.7719 34.0281 40.6079 33.0721 40.6079 32.0401V21.6481H43.8359V32.0281C43.8359 32.6921 43.9239 33.2921 44.0999 33.8281C44.2839 34.3641 44.5439 34.8241 44.8799 35.2081C45.2239 35.5841 45.6399 35.8761 46.1279 36.0841C46.6239 36.2921 47.1839 36.3961 47.8079 36.3961Z" fill="white"/>
<path d="M68.5964 39.0001H65.3564V21.6481H68.5964V39.0001Z" fill="white"/>
<path d="M91.3214 24.3001H86.0894V39.0001H82.8614V24.3001H77.6294V21.6481H91.3214V24.3001Z" fill="white"/>
<path d="M103.552 24.2161V29.0281H109.624V31.5121H103.552V36.4201H111.256V39.0001H100.312V21.6481H111.256V24.2161H103.552Z" fill="white"/>
</g>
<defs>
<clipPath id="clip0_5749_8996">
<rect width="264" height="60" fill="white"/>
</clipPath>
</defs>
</svg>
