<svg width="272" height="80" viewBox="0 0 272 80" fill="none" xmlns="http://www.w3.org/2000/svg">
<path d="M159.725 34.3265C157.63 34.3265 155.854 33.6832 154 33.0001V54.0001L146.933 47.0896C145.747 45.9402 144.199 45.0001 142.5 45.0001H111V24.0001H144C143.388 22.3103 142.947 19.9455 142.947 18.058C142.947 15.8649 143.684 13.9055 144.5 12.0001H105C101.7 12.0001 99 14.8583 99 18.058V50.5001C99 53.6998 102.2 57.0001 105.5 57.0001H140L155.461 72.1305L155.479 72.1485C155.572 72.2384 155.683 72.3283 155.795 72.4181C155.832 72.4541 155.887 72.4901 155.924 72.544C156.073 72.6698 156.221 72.7777 156.388 72.8855C156.48 72.9395 156.555 72.9934 156.647 73.0473C156.722 73.1012 156.814 73.1552 156.888 73.1911C156.981 73.2451 157.055 73.281 157.148 73.317C157.241 73.3529 157.333 73.4068 157.426 73.4428C157.5 73.4787 157.593 73.4967 157.667 73.5327C157.76 73.5686 157.871 73.6046 157.982 73.6405C158.056 73.6585 158.149 73.6765 158.223 73.6945C158.334 73.7304 158.446 73.7484 158.557 73.7664C158.65 73.7843 158.742 73.8023 158.853 73.8023C158.946 73.8203 159.057 73.8383 159.15 73.8383C159.336 73.8562 159.539 73.8742 159.743 73.8742C159.947 73.8742 160.133 73.8562 160.337 73.8383C160.411 73.8383 160.503 73.8203 160.578 73.8023L160.911 73.7484C161.004 73.7304 161.097 73.7124 161.189 73.6765C161.282 73.6585 161.375 73.6405 161.467 73.6046C161.56 73.5866 161.653 73.5507 161.746 73.5147C161.838 73.4787 161.931 73.4608 162.024 73.4248C162.116 73.3889 162.191 73.3529 162.283 73.317C162.376 73.281 162.469 73.2271 162.561 73.1911C162.635 73.1552 162.728 73.1012 162.802 73.0653C162.895 73.0114 162.969 72.9754 163.062 72.9215C163.136 72.8676 163.229 72.8136 163.303 72.7597L163.525 72.5979C163.618 72.526 163.692 72.4541 163.785 72.3822C163.84 72.3283 163.896 72.2923 163.952 72.2384L163.97 72.2204C164.063 72.1305 164.137 72.0406 164.23 71.9508C164.285 71.8968 164.322 71.8429 164.378 71.807C164.452 71.7171 164.508 71.6272 164.582 71.5373C164.693 71.3935 164.805 71.2317 164.897 71.0699C164.99 70.9081 165.083 70.7464 165.175 70.5666L165.287 70.3509C165.324 70.279 165.342 70.1891 165.379 70.1172C165.453 69.9374 165.509 69.7577 165.546 69.5779C165.602 69.3981 165.639 69.2184 165.657 69.0386L165.713 68.715C165.713 68.6431 165.713 68.5712 165.731 68.5173C165.731 68.3915 166 67.5001 166 67.5001V33.0001C164.09 33.6832 161.838 34.3265 159.725 34.3265Z" fill="white"/>
<path d="M104.968 12C101.669 12 99 14.5878 99 17.7867C99 20.9855 101.669 23.5913 104.968 23.5913H110.936V17.8046C110.936 14.6058 108.267 12 104.968 12ZM111 51.5V45H105C101.701 45 99 47.8012 99 51C99 54.1988 101.701 57 105 57C108.299 57 111 54.6988 111 51.5ZM153.99 53.9983V68C153.99 71.3435 157.689 74 161 74C163.689 74.0719 166 71.2574 166 68.2673C166 66.7936 165.444 65.32 164.295 64.1878L153.99 53.9983ZM142.5 45C137 45 134.727 51.7538 138.5 55.5L140 57.0533H142.925C150.569 57.0533 151 45 142.5 45Z" fill="#CDCDCD"/>
<path d="M160 30C166.627 30 172 24.6274 172 18C172 11.3726 166.627 6 160 6C153.373 6 148 11.3726 148 18C148 24.6274 153.373 30 160 30Z" fill="#FF6363"/>
</svg>
