<svg width="272" height="80" viewBox="0 0 272 80" fill="none" xmlns="http://www.w3.org/2000/svg">
<path d="M118.994 35.5505V42.9258H110.278V70.781H101.867V42.8648H93.1504V35.5505H118.994Z" fill="white"/>
<path d="M129.722 70.781H121.981V43.3524H129.722V48.5943C131.185 44.8762 133.562 42.682 137.768 42.9867V51.0934C132.282 50.6667 129.722 52.0077 129.722 56.3962V70.781Z" fill="white"/>
<path d="M180.19 71.0248C175.07 71.0248 171.901 68.5867 171.901 62.7962V32.7467H179.703V61.6991C179.703 63.3448 180.8 63.9543 182.141 63.9543C182.507 63.9543 182.933 63.9543 183.299 63.8934V70.6591C182.263 70.9029 181.227 71.0248 180.19 71.0248Z" fill="white"/>
<path d="M196.526 71.0248C191.406 71.0248 188.236 68.5867 188.236 62.7962V32.7467H196.038V61.6991C196.038 63.3448 197.135 63.9543 198.476 63.9543C198.842 63.9543 199.269 63.9543 199.634 63.8934V70.6591C198.598 70.9029 197.562 71.0248 196.526 71.0248Z" fill="white"/>
<path d="M203.353 57.0667C203.353 48.5943 208.229 42.8038 216.64 42.8038C225.052 42.8038 229.806 48.5943 229.806 57.0667C229.806 65.5391 224.991 71.4515 216.64 71.4515C208.29 71.4515 203.353 65.4781 203.353 57.0667ZM210.972 57.0667C210.972 61.2115 212.678 64.4419 216.64 64.4419C220.602 64.4419 222.187 61.1505 222.187 57.0667C222.187 52.9829 220.48 49.7524 216.64 49.7524C212.8 49.7524 210.972 52.9219 210.972 57.0667Z" fill="white"/>
<path d="M148.251 59.5658C150.446 59.8096 152.64 59.9315 154.773 59.9315C160.747 59.9315 165.745 58.3467 165.745 52.5563C165.745 46.9486 160.564 42.7429 154.347 42.7429C145.996 42.7429 140.632 48.8382 140.632 57.2496C140.632 66.0267 145.265 71.2686 155.688 71.2686C158.796 71.3296 161.844 70.781 164.769 69.6839V63.101C162.088 63.9543 159.04 64.8077 155.992 64.8077C151.848 64.8686 148.983 63.4667 148.251 59.5658ZM154.225 48.7772C156.419 48.7772 158.187 50.2401 158.187 52.3124C158.187 54.9334 155.383 55.7867 152.213 55.7867C150.872 55.7867 149.47 55.6648 148.129 55.482C148.251 54.202 148.617 52.9829 149.227 51.8248C150.202 49.9353 152.152 48.7772 154.225 48.7772Z" fill="white"/>
<path d="M73.7065 32.7467H44.7541C42.2551 32.7467 40.2437 34.7581 40.2437 37.2572V66.2705C40.2437 68.7696 42.2551 70.781 44.7541 70.781H73.7065C76.2056 70.781 78.217 68.7696 78.217 66.2705V37.2572C78.217 34.7581 76.2056 32.7467 73.7065 32.7467ZM56.5789 60.1143C56.5789 60.9677 55.9084 61.6381 55.0551 61.6381H48.716C47.8627 61.6381 47.1922 60.9677 47.1922 60.1143V41.28C47.1922 40.4267 47.8627 39.7562 48.716 39.7562H55.0551C55.9084 39.7562 56.5789 40.4267 56.5789 41.28V60.1143ZM71.2075 51.4591C71.2075 52.3124 70.537 52.9829 69.7446 52.9829H63.3446C62.4913 52.9829 61.8208 52.3124 61.8208 51.4591V41.28C61.8208 40.4267 62.4913 39.7562 63.3446 39.7562H69.6837C70.537 39.7562 71.2075 40.4267 71.2075 41.28V51.4591Z" fill="url(#paint0_linear_9981_67637)"/>
<g opacity="0.7">
<path d="M157.577 18.1791C157.577 15.741 155.993 14.6439 153.067 13.9124C151.238 13.4248 150.812 13.0591 150.812 12.4496C150.812 11.7181 151.482 11.3524 152.701 11.3524C154.164 11.4134 155.627 11.7791 156.968 12.4496V9.40196C155.688 8.79243 154.225 8.48767 152.823 8.48767C149.593 8.48767 147.825 10.0115 147.825 12.5105C147.825 14.8877 149.41 16.1067 152.092 16.7162C153.981 17.1429 154.53 17.4477 154.53 18.2401C154.53 18.8496 154.103 19.3372 152.701 19.3372C150.995 19.2762 149.288 18.7886 147.764 17.9353V21.1658C149.288 21.8972 150.934 22.3239 152.64 22.3239C155.932 22.3239 157.577 20.6781 157.577 18.1791Z" fill="white"/>
<path d="M194.393 8.73148V22.141H197.257V11.901L198.476 14.5829L202.499 22.0801H206.095V8.67053H203.231V17.3258L202.134 14.8267L198.903 8.67053H194.393V8.73148Z" fill="white"/>
<path d="M176.29 8.73145H173.181V22.141H176.29V8.73145Z" fill="white"/>
<path d="M123.627 8.73145V22.141H130.027L131.002 19.2153H126.736V8.73145H123.627Z" fill="white"/>
<path d="M110.949 8.73145V11.6572H114.423V22.141H117.532V11.6572H121.25V8.73145H110.949Z" fill="white"/>
<path d="M106.438 8.73145H102.354L97.6611 22.141H101.257L101.928 19.8857C102.72 20.1295 103.574 20.2514 104.427 20.2514C105.28 20.2514 106.134 20.1295 106.926 19.8857L107.596 22.141H111.193L106.438 8.73145ZM104.366 17.4476C103.756 17.4476 103.208 17.3867 102.659 17.2038L104.366 11.3524L106.073 17.2038C105.524 17.3867 104.975 17.4476 104.366 17.4476Z" fill="white"/>
<path d="M140.998 8.73145H136.915L132.221 22.141H135.817L136.488 19.8857C137.28 20.1295 138.134 20.2514 138.987 20.2514C139.84 20.2514 140.694 20.1295 141.486 19.8857L142.156 22.141H145.753L140.998 8.73145ZM138.987 17.4476C138.377 17.4476 137.829 17.3867 137.28 17.2038L138.987 11.3524L140.694 17.2038C140.145 17.3867 139.535 17.4476 138.987 17.4476Z" fill="white"/>
<path d="M187.505 8.73145H183.421L178.728 22.141H182.324L182.995 19.8857C183.787 20.1295 184.64 20.2514 185.494 20.2514C186.347 20.2514 187.2 20.1295 187.993 19.8857L188.663 22.141H192.259L187.505 8.73145ZM185.433 17.4476C184.823 17.4476 184.275 17.3867 183.726 17.2038L185.433 11.3524L187.139 17.2038C186.591 17.3867 186.042 17.4476 185.433 17.4476Z" fill="white"/>
<path d="M169.951 18.1791C169.951 15.741 168.366 14.6439 165.44 13.9124C163.612 13.4248 163.185 13.0591 163.185 12.4496C163.185 11.7181 163.856 11.3524 165.014 11.3524C166.477 11.4134 167.939 11.7791 169.28 12.4496V9.40196C167.939 8.79243 166.538 8.48767 165.075 8.48767C161.844 8.48767 160.077 10.0115 160.077 12.5105C160.077 14.8877 161.661 16.1067 164.343 16.7162C166.233 17.1429 166.781 17.4477 166.781 18.2401C166.781 18.8496 166.355 19.3372 164.953 19.3372C163.246 19.2762 161.539 18.7886 160.016 17.9353V21.1658C161.539 21.8972 163.185 22.3239 164.892 22.3239C168.366 22.3239 169.951 20.6781 169.951 18.1791Z" fill="white"/>
</g>
<defs>
<linearGradient id="paint0_linear_9981_67637" x1="59.2303" y1="32.7467" x2="59.2303" y2="70.781" gradientUnits="userSpaceOnUse">
<stop offset="0.51" stop-color="white"/>
<stop offset="1" stop-color="white" stop-opacity="0.3"/>
</linearGradient>
</defs>
</svg>
