<svg width="272" height="80" viewBox="0 0 272 80" fill="none" xmlns="http://www.w3.org/2000/svg">
<g clip-path="url(#clip0_2705_22901)">
<path d="M22.2867 39.8396C24.8638 39.8396 26.9529 37.7505 26.9529 35.1735C26.9529 32.5964 24.8638 30.5073 22.2867 30.5073C19.7097 30.5073 17.6206 32.5964 17.6206 35.1735C17.6206 37.7505 19.7097 39.8396 22.2867 39.8396Z" fill="#03AAFD"/>
<path d="M0 4.61481V26.9476C1.89123 23.7954 4.56612 21.1864 7.76446 19.3743C10.9628 17.5623 14.5757 16.6089 18.2517 16.6068C22.721 16.5358 27.0967 17.8913 30.7432 20.4764C34.3897 23.0616 37.1173 26.7418 38.5298 30.9827L38.5569 31.0676L38.5899 31.1502C38.6076 31.1926 38.6229 31.2374 38.6383 31.2823L39.1702 32.8628L40.8345 32.9607L55.0865 33.7946C55.0975 33.7954 55.1079 33.7997 55.1162 33.807C55.1245 33.8142 55.1302 33.8239 55.1325 33.8347C55.1325 33.8571 55.6751 33.8795 55.655 33.8901L38.985 43.3262C38.985 43.2165 38.985 43.2708 38.985 43.3262L26.0671 75.3852H70.7704V4.61481H0Z" fill="#03AAFD"/>
<path d="M115.963 28.9728L112.356 43.5621L108.134 28.9728H105.073L100.848 43.5644L97.2738 28.9728H93.0063L98.9227 51.144H102.36L106.603 37.1527L110.846 51.144H114.283L120.231 28.9728H115.963Z" fill="#1E1E1E"/>
<path d="M135.191 44.2026V42.6138C135.191 37.8002 132.504 34.8102 128.177 34.8102C123.849 34.8102 121.161 37.97 121.161 43.0549C121.161 48.5479 123.67 51.3327 128.618 51.3327C129.742 51.4009 130.867 51.2174 131.912 50.7956C132.956 50.3739 133.893 49.7244 134.655 48.8946L132.371 46.6677C131.897 47.1721 131.318 47.5667 130.675 47.8239C130.032 48.081 129.34 48.1944 128.649 48.1563C128.142 48.1932 127.633 48.1195 127.158 47.9403C126.683 47.7611 126.252 47.4807 125.896 47.1185C125.54 46.7563 125.267 46.321 125.096 45.8427C124.925 45.3645 124.859 44.8547 124.905 44.3488V44.2014L135.191 44.2026ZM124.899 41.689L124.905 41.5357C124.897 40.906 125.031 40.2827 125.298 39.7122C125.563 39.1752 125.973 38.723 126.481 38.4069C126.99 38.0907 127.577 37.9232 128.176 37.9232C128.775 37.9232 129.361 38.0907 129.87 38.4069C130.379 38.723 130.789 39.1752 131.054 39.7122C131.32 40.2822 131.455 40.9052 131.446 41.5345L131.454 41.6878L124.899 41.689Z" fill="#1E1E1E"/>
<path d="M146.809 51.3327C147.517 51.3606 148.223 51.2479 148.887 51.0011C149.551 50.7543 150.16 50.3783 150.677 49.8949C152.211 48.3273 152.338 45.8704 152.338 43.0537C152.338 40.3597 152.212 37.812 150.677 36.2468C150.162 35.7601 149.553 35.382 148.888 35.135C148.224 34.888 147.516 34.7771 146.807 34.809C146.084 34.7569 145.359 34.8734 144.688 35.1493C144.018 35.4252 143.421 35.853 142.943 36.3989L142.684 36.6962V28.9728H138.876V51.1475H142.557V49.3617L142.814 49.6472C143.302 50.2197 143.918 50.6701 144.612 50.9627C145.305 51.2554 146.058 51.382 146.809 51.3327ZM145.609 38.2071C148.307 38.2071 148.533 40.6027 148.533 43.0561C148.533 45.5095 148.308 47.9369 145.609 47.9369C142.91 47.9369 142.685 45.526 142.685 43.0561C142.685 40.5862 142.91 38.2071 145.609 38.2071Z" fill="#1E1E1E"/>
<path d="M176.442 28.9728L172.837 43.5621L168.612 28.9728H165.552L161.328 43.5644L157.753 28.9728H153.487L159.402 51.144H162.84L167.082 37.1527L171.324 51.144H174.763L180.71 28.9728H176.442Z" fill="#1E1E1E"/>
<path d="M195.672 44.2026V42.6138C195.672 37.8002 192.984 34.8102 188.657 34.8102C184.331 34.8102 181.644 37.97 181.644 43.0561C181.644 48.549 184.153 51.3338 189.1 51.3338C190.224 51.4018 191.349 51.2182 192.394 50.7965C193.438 50.3747 194.376 49.7254 195.138 48.8958L192.849 46.6689C192.375 47.1736 191.796 47.5683 191.154 47.8255C190.511 48.0826 189.819 48.1959 189.128 48.1574C188.621 48.1943 188.113 48.1206 187.637 47.9415C187.162 47.7623 186.731 47.4819 186.375 47.1197C186.019 46.7575 185.746 46.3222 185.574 45.844C185.403 45.3657 185.338 44.856 185.383 44.35V44.2026H195.672ZM185.378 41.689L185.385 41.5357C185.378 40.9066 185.511 40.2837 185.777 39.7134C186.042 39.1761 186.452 38.7237 186.961 38.4074C187.47 38.0911 188.057 37.9234 188.656 37.9234C189.255 37.9234 189.842 38.0911 190.351 38.4074C190.86 38.7237 191.27 39.1761 191.535 39.7134C191.801 40.2833 191.935 40.9057 191.928 41.5345L191.935 41.6878L185.378 41.689Z" fill="#1E1E1E"/>
<path d="M211.761 51.1439V40.4718C211.761 36.7174 209.454 34.8102 204.905 34.8102C202.192 34.8102 200.731 35.3633 199.209 36.9934L201.586 39.3395C201.967 38.8782 202.453 38.5148 203.003 38.2794C203.553 38.0441 204.151 37.9437 204.748 37.9866C206.967 37.9866 207.956 38.8299 207.956 40.7207V41.6878H203.991C200.579 41.6878 198.46 43.4571 198.46 46.3056C198.417 47.627 198.888 48.9135 199.774 49.8948C200.328 50.3903 200.975 50.77 201.678 51.0115C202.381 51.2529 203.125 51.3513 203.866 51.3008C204.595 51.358 205.327 51.2498 206.009 50.9843C206.69 50.7188 207.303 50.3028 207.801 49.7675L208.052 49.5162V51.1439H211.761ZM207.954 45.2334C208.012 45.6268 207.98 46.0281 207.862 46.4078C207.744 46.7875 207.543 47.1359 207.272 47.4273C206.933 47.7354 206.533 47.9682 206.097 48.1105C205.662 48.2528 205.201 48.3014 204.746 48.253C202.449 48.253 202.106 46.9944 202.106 46.2478C202.106 45.3172 202.553 44.2073 204.683 44.2073H207.954V45.2334Z" fill="#1E1E1E"/>
<path d="M224.713 35.0001L221.292 45.4859L221.151 45.0589L217.84 35.0001H213.836L219.785 51.144H222.798L228.716 35.0001H224.713Z" fill="#1E1E1E"/>
<path d="M244.188 44.2026V42.6138C244.188 37.8002 241.5 34.8102 237.174 34.8102C232.847 34.8102 230.159 37.97 230.159 43.0549C230.159 48.5479 232.668 51.3327 237.615 51.3327C238.739 51.401 239.865 51.2176 240.909 50.7958C241.954 50.374 242.891 49.7245 243.653 48.8946L241.368 46.6677C240.894 47.1724 240.315 47.5671 239.672 47.8243C239.029 48.0814 238.338 48.1948 237.647 48.1563C237.14 48.1932 236.631 48.1195 236.156 47.9403C235.681 47.7611 235.25 47.4807 234.894 47.1185C234.538 46.7564 234.264 46.3211 234.093 45.8428C233.922 45.3646 233.856 44.8548 233.902 44.3488V44.2014L244.188 44.2026ZM233.896 41.689L233.903 41.5357C233.895 40.9061 234.029 40.2828 234.296 39.7122C234.561 39.1752 234.971 38.7232 235.48 38.4071C235.988 38.091 236.575 37.9235 237.174 37.9235C237.773 37.9235 238.36 38.091 238.869 38.4071C239.378 38.7232 239.788 39.1752 240.053 39.7122C240.32 40.2822 240.454 40.9052 240.446 41.5345L240.453 41.6878L233.896 41.689Z" fill="#1E1E1E"/>
<path d="M254.48 38.2071C254.887 38.1939 255.293 38.2691 255.668 38.4275C256.044 38.5859 256.381 38.8238 256.656 39.1248L259.54 36.2102C259.06 35.7322 258.485 35.3604 257.853 35.1192C257.22 34.878 256.544 34.7727 255.868 34.8102C255.116 34.802 254.37 34.9501 253.678 35.2451C252.986 35.5401 252.363 35.9756 251.848 36.524L251.587 36.8377V35.0001H247.875V51.144H251.683V41.3836C251.64 40.9877 251.679 40.5872 251.799 40.2075C251.92 39.8278 252.117 39.4774 252.381 39.1785C252.644 38.8796 252.966 38.6388 253.328 38.4716C253.689 38.3044 254.081 38.2143 254.48 38.2071Z" fill="#1E1E1E"/>
<path d="M262.53 36.6915C262.53 35.7551 262.807 34.8397 263.328 34.0611C263.848 33.2825 264.587 32.6757 265.452 32.3173C266.318 31.959 267.27 31.8652 268.188 32.0479C269.106 32.2306 269.95 32.6815 270.612 33.3437C271.274 34.0058 271.725 34.8494 271.908 35.7678C272.091 36.6862 271.997 37.6382 271.638 38.5033C271.28 39.3684 270.673 40.1079 269.895 40.6281C269.116 41.1483 268.201 41.426 267.264 41.426C266.009 41.4241 264.806 40.9247 263.919 40.0372C263.031 39.1497 262.532 37.9466 262.53 36.6915ZM270.845 36.6915C270.877 36.2016 270.809 35.7103 270.643 35.2481C270.478 34.7859 270.219 34.3625 269.884 34.0042C269.548 33.6459 269.142 33.3603 268.692 33.165C268.242 32.9697 267.756 32.869 267.265 32.869C266.774 32.869 266.288 32.9697 265.838 33.165C265.387 33.3603 264.982 33.6459 264.646 34.0042C264.311 34.3625 264.052 34.7859 263.887 35.2481C263.721 35.7103 263.652 36.2016 263.685 36.6915C263.652 37.1814 263.721 37.6726 263.887 38.1349C264.052 38.5971 264.311 39.0205 264.646 39.3788C264.982 39.7371 265.387 40.0227 265.838 40.218C266.288 40.4132 266.774 40.514 267.265 40.514C267.756 40.514 268.242 40.4132 268.692 40.218C269.142 40.0227 269.548 39.7371 269.884 39.3788C270.219 39.0205 270.478 38.5971 270.643 38.1349C270.809 37.6726 270.877 37.1814 270.845 36.6915ZM265.442 33.9845H267.435C268.721 33.9845 269.416 34.4304 269.416 35.558C269.431 35.7479 269.405 35.9389 269.34 36.1181C269.276 36.2973 269.174 36.4606 269.041 36.5971C268.908 36.7337 268.747 36.8403 268.57 36.9099C268.393 36.9794 268.202 37.0103 268.012 37.0005L269.455 39.3489H268.432L267.04 37.0453H266.436V39.3536H265.44L265.442 33.9845ZM266.439 36.2798H267.317C267.907 36.2798 268.419 36.2008 268.419 35.4801C268.419 34.8503 267.842 34.7453 267.33 34.7453H266.439V36.2798Z" fill="#1E1E1E"/>
</g>
<defs>
<clipPath id="clip0_2705_22901">
<rect width="272" height="70.7704" fill="white" transform="translate(0 4.61481)"/>
</clipPath>
</defs>
</svg>
