<svg width="272" height="80" viewBox="0 0 272 80" fill="none" xmlns="http://www.w3.org/2000/svg">
<path fill-rule="evenodd" clip-rule="evenodd" d="M111.001 0C106.583 0 103.001 3.58172 103.001 8V71.9991C103.001 76.4174 106.583 79.9991 111.001 79.9991H160.999C165.418 79.9991 168.999 76.4174 168.999 71.9991V18.1774C168.999 15.9683 167.208 14.1774 164.999 14.1774H155.813V4C155.813 1.79086 154.022 0 151.813 0H111.001ZM109.001 8C109.001 6.89543 109.897 6 111.001 6H149.813V16.1774C149.813 18.3865 151.604 20.1774 153.813 20.1774H162.999V71.9991C162.999 73.1037 162.104 73.9991 160.999 73.9991H111.001C109.897 73.9991 109.001 73.1037 109.001 71.9991V8ZM128.156 19.3936C127.594 18.8252 126.829 18.5042 126.03 18.5019C125.231 18.4996 124.464 18.8161 123.899 19.3813L114.99 28.2965C113.828 29.4588 113.818 31.3392 114.967 32.5143L142.478 60.6563C142.909 61.0977 143.467 61.3953 144.073 61.5084L154.68 63.4849C155.586 63.6539 156.521 63.3964 157.213 62.7867C157.905 62.177 158.278 61.2828 158.224 60.362L157.641 50.3061C157.599 49.578 157.293 48.8903 156.78 48.3714L128.156 19.3936ZM146.105 55.7837L121.33 30.4404L126.009 25.7583L151.717 51.783L152.013 56.8846L146.105 55.7837Z" fill="#EB8169"/>
</svg>
