<svg width="272" height="81" viewBox="0 0 272 81" fill="none" xmlns="http://www.w3.org/2000/svg">
<path d="M154.998 33.8777H145.275V34.9083C148.316 34.9083 148.805 35.5596 148.805 39.413V46.3612C148.805 50.2146 148.317 50.9207 145.275 50.9207C142.94 50.5949 141.364 49.3466 139.192 46.9581L136.693 44.2446C140.06 43.6467 141.852 41.5306 141.852 39.142C141.852 36.1575 139.3 33.8777 134.52 33.8777H124.96V34.9083C128.001 34.9083 128.491 35.5596 128.491 39.413V46.3612C128.491 50.2146 128.002 50.9207 124.96 50.9207V51.9518H135.769V50.9207C132.728 50.9207 132.239 50.2146 132.239 46.3612V44.4082H133.162L139.192 51.9518H154.999C162.765 51.9518 166.134 47.8274 166.134 42.8876C166.133 37.9482 162.766 33.8777 154.998 33.8777ZM132.239 42.7239V35.5062H134.466C136.91 35.5062 137.997 37.1886 137.997 39.1425C137.997 41.0424 136.91 42.7244 134.466 42.7244L132.239 42.7239ZM155.162 50.269H154.781C152.826 50.269 152.555 49.7813 152.555 47.2844V35.5062H155.162C160.811 35.5062 161.842 39.6306 161.842 42.8332C161.842 46.1436 160.81 50.269 155.162 50.269ZM94.7065 44.7331L98.4545 33.6597C99.5413 30.4575 99.0523 29.5357 95.5761 29.5357V28.4497H105.788V29.5357C102.366 29.5357 101.551 30.3492 100.193 34.3114L94.0003 52.8742H93.2945L87.7539 35.8855L82.105 52.8742H81.3987L75.3697 34.3119C74.0656 30.3497 73.197 29.5361 70.0459 29.5361V28.4502H82.1045V29.5361C78.8995 29.5361 78.0299 30.2957 79.1712 33.6601L82.8103 44.7336L88.2964 28.4502H89.3288L94.7065 44.7331ZM113.174 52.6566C107.199 52.6566 102.31 48.2607 102.31 42.8867C102.31 37.5675 107.2 33.1711 113.174 33.1711C119.149 33.1711 124.037 37.5675 124.037 42.8867C124.037 48.2607 119.149 52.6566 113.174 52.6566ZM113.174 34.8549C108.177 34.8549 106.439 39.3587 106.439 42.8871C106.439 46.4699 108.177 50.9203 113.174 50.9203C118.226 50.9203 119.965 46.4699 119.965 42.8871C119.964 39.3587 118.226 34.8549 113.174 34.8549Z" fill="white"/>
<path d="M179.549 50.8659V51.9514H167.11V50.8659C170.75 50.8659 171.402 49.9431 171.402 44.5146V35.8315C171.402 30.4031 170.75 29.5356 167.11 29.5356V28.4492H178.354C183.948 28.4492 187.045 31.3259 187.045 35.1802C187.045 38.9253 183.948 41.856 178.354 41.856H175.258V44.5146C175.258 49.9435 175.909 50.8659 179.549 50.8659ZM178.354 30.4031H175.258V39.8477H178.354C181.396 39.8477 182.808 37.7311 182.808 35.1802C182.808 32.575 181.396 30.4031 178.354 30.4031ZM224.361 46.8497L224.089 47.8265C223.601 49.6176 223.002 50.2689 219.146 50.2689H218.385C215.561 50.2689 215.072 49.6176 215.072 45.7647V43.2683C219.309 43.2683 219.635 43.6476 219.635 46.4704H220.668V38.3824H219.635C219.635 41.2047 219.309 41.5845 215.072 41.5845V35.5061H218.059C221.916 35.5061 222.513 36.1574 223.002 37.9486L223.275 38.9797H224.143L223.763 33.8781H207.793V34.9088C210.835 34.9088 211.324 35.5601 211.324 39.4135V46.3611C211.324 49.8864 210.909 50.7744 208.511 50.9015C206.232 50.5532 204.667 49.3114 202.526 46.958L200.027 44.2445C203.395 43.6467 205.188 41.5305 205.188 39.142C205.188 36.1574 202.634 33.8776 197.855 33.8776H188.295V34.9083C191.336 34.9083 191.825 35.5596 191.825 39.413V46.3611C191.825 50.2146 191.337 50.9207 188.295 50.9207V51.9518H199.105V50.9207C196.064 50.9207 195.574 50.2146 195.574 46.3611V44.4081H196.497L202.527 51.9518H224.851L225.177 46.8506L224.361 46.8497ZM195.573 42.7239V35.5061H197.8C200.244 35.5061 201.331 37.1885 201.331 39.1424C201.331 41.0424 200.244 42.7244 197.8 42.7244L195.573 42.7239ZM235.387 52.6566C233.214 52.6566 231.313 51.5172 230.498 50.811C230.226 51.083 229.738 51.897 229.63 52.6566H228.597V45.1669H229.684C230.119 48.7492 232.616 50.8659 235.822 50.8659C237.56 50.8659 238.972 49.8887 238.972 48.2611C238.972 46.8502 237.723 45.7642 235.496 44.7331L232.399 43.2678C230.226 42.2358 228.597 40.4441 228.597 38.0569C228.597 35.4517 231.042 33.2268 234.41 33.2268C236.202 33.2268 237.723 33.8786 238.646 34.6382C238.918 34.4206 239.19 33.8237 239.353 33.172H240.385V39.5771H239.244C238.863 37.0258 237.451 34.9092 234.573 34.9092C233.052 34.9092 231.639 35.7772 231.639 37.1351C231.639 38.546 232.78 39.3056 235.387 40.4994L238.374 41.9647C240.982 43.213 242.013 45.2222 242.013 46.8502C242.014 50.2689 239.026 52.6566 235.387 52.6566ZM252.117 52.6566C249.943 52.6566 248.042 51.5172 247.228 50.811C246.956 51.083 246.468 51.897 246.36 52.6566H245.327V45.1669H246.414C246.848 48.7492 249.346 50.8659 252.552 50.8659C254.29 50.8659 255.702 49.8887 255.702 48.2611C255.702 46.8502 254.453 45.7642 252.226 44.7331L249.129 43.2678C246.956 42.2358 245.327 40.4441 245.327 38.0569C245.327 35.4517 247.771 33.2268 251.139 33.2268C252.932 33.2268 254.452 33.8786 255.376 34.6382C255.647 34.4206 255.919 33.8237 256.081 33.172H257.114V39.5771H255.973C255.593 37.0258 254.181 34.9092 251.302 34.9092C249.782 34.9092 248.369 35.7772 248.369 37.1351C248.369 38.546 249.509 39.3056 252.117 40.4994L255.104 41.9647C257.712 43.213 258.743 45.2222 258.743 46.8502C258.743 50.2689 255.755 52.6566 252.117 52.6566Z" fill="white"/>
<path d="M15.7261 39.8344C15.7261 49.3425 21.2557 57.5584 29.274 61.4525L17.8077 30.0589C16.433 33.1347 15.7236 36.4658 15.7261 39.8344ZM55.9925 38.6223C55.9925 35.6537 54.9254 33.5979 54.0101 31.9977C52.7916 30.0192 51.6494 28.3436 51.6494 26.365C51.6494 24.157 53.3254 22.1016 55.686 22.1016C55.7926 22.1016 55.8937 22.1149 55.9975 22.1208C51.7208 18.2062 46.0229 15.8153 39.7651 15.8153C31.3671 15.8153 23.9782 20.1207 19.6804 26.642C20.2439 26.6589 20.7759 26.6703 21.2273 26.6703C23.7417 26.6703 27.6337 26.3655 27.6337 26.3655C28.9296 26.2891 29.0824 28.1909 27.7879 28.3441C27.7879 28.3441 26.4857 28.4972 25.0366 28.573L33.79 54.5913L39.0506 38.8261L35.3054 28.5726C34.0109 28.4967 32.7841 28.3436 32.7841 28.3436C31.4888 28.2677 31.6406 26.2887 32.936 26.365C32.936 26.365 36.9063 26.6699 39.2683 26.6699C41.7818 26.6699 45.6748 26.365 45.6748 26.365C46.9715 26.2887 47.1238 28.1905 45.8289 28.3436C45.8289 28.3436 44.5235 28.4967 43.0772 28.5726L51.7642 54.3933L54.162 46.3871C55.2016 43.0648 55.9925 40.6786 55.9925 38.6223Z" fill="white"/>
<path d="M40.187 41.9355L32.9741 62.8768C35.1793 63.5261 37.4663 63.8558 39.7652 63.8558C42.4839 63.8565 45.183 63.3961 47.7474 62.4942C47.6808 62.3892 47.6235 62.2785 47.5764 62.1633L40.187 41.9355ZM60.8581 28.3103C60.9619 29.0754 61.02 29.8972 61.02 30.7802C61.02 33.2177 60.5644 35.9577 59.1922 39.3838L51.8495 60.597C58.996 56.4328 63.8029 48.6962 63.8029 39.8344C63.8093 35.8064 62.7963 31.8422 60.8581 28.3103Z" fill="white"/>
<path d="M39.7648 11.8353C24.3141 11.8353 11.7432 24.3956 11.7432 39.8344C11.7432 55.275 24.3141 67.8353 39.7653 67.8353C55.2151 67.8353 67.7883 55.2755 67.7883 39.8344C67.7874 24.3956 55.2151 11.8353 39.7648 11.8353ZM39.7648 66.5515C25.0226 66.5515 13.028 54.5662 13.028 39.8344C13.028 25.104 25.0221 13.1196 39.7648 13.1196C54.5066 13.1196 66.4998 25.104 66.4998 39.8344C66.5002 54.5662 54.5066 66.5515 39.7648 66.5515Z" fill="white"/>
</svg>
