<svg width="272" height="80" viewBox="0 0 272 80" fill="none" xmlns="http://www.w3.org/2000/svg">
<g clip-path="url(#clip0_10573_1768)">
<path d="M108.64 42C109.266 41.9988 109.867 41.6822 110.309 41.1198C110.751 40.5573 111 39.7949 111 39C111 38.2051 110.751 37.4427 110.309 36.8802C109.867 36.3178 109.266 36.0012 108.64 36H98.3634C97.7366 36 97.1355 36.3161 96.6922 36.8787C96.249 37.4413 96 38.2044 96 39V39C96 39.7956 96.249 40.5587 96.6922 41.1213C97.1355 41.6839 97.7366 42 98.3634 42H108.64Z" fill="#008FD4"/>
<path d="M129 62.3607C129 61.7346 129.316 61.1341 129.879 60.6914C130.441 60.2487 131.204 60 132 60C132.796 60 133.559 60.2487 134.121 60.6914C134.684 61.1341 135 61.7346 135 62.3607V72.6393C135 73.2654 134.684 73.8659 134.121 74.3086C133.559 74.7513 132.796 75 132 75C131.204 75 130.441 74.7513 129.879 74.3086C129.316 73.8659 129 73.2654 129 72.6393V62.3607Z" fill="#ED1C24"/>
<path d="M129 5.35994C129.001 4.73373 129.318 4.13347 129.88 3.691C130.443 3.24852 131.205 3 132 3V3C132.795 3 133.557 3.24852 134.12 3.691C134.682 4.13347 134.999 4.73373 135 5.35994V15.6366C135 16.2634 134.684 16.8645 134.121 17.3078C133.559 17.751 132.796 18 132 18C131.204 18 130.441 17.751 129.879 17.3078C129.316 16.8645 129 16.2634 129 15.6366V5.35994Z" fill="#8CC63F"/>
<path d="M165.404 42C166.093 41.9988 166.753 41.6822 167.24 41.1198C167.727 40.5573 168 39.7949 168 39C168 38.2051 167.727 37.4427 167.24 36.8802C166.753 36.3178 166.093 36.0012 165.404 36H154.1C153.41 36 152.749 36.3161 152.261 36.8787C151.774 37.4413 151.5 38.2044 151.5 39C151.5 39.7956 151.774 40.5587 152.261 41.1213C152.749 41.6839 153.41 42 154.1 42H165.404Z" fill="#F78D1E"/>
<path d="M137.996 39.0138L159.399 13.6677C159.788 13.2066 160.085 12.6719 160.271 12.0941C160.458 11.5164 160.531 10.9068 160.486 10.3003C160.441 9.69376 160.28 9.10215 160.011 8.55922C159.742 8.01629 159.37 7.53267 158.918 7.13599C158.466 6.73931 157.941 6.43732 157.374 6.24728C156.807 6.05724 156.209 5.98286 155.614 6.02839C155.019 6.07392 154.438 6.23846 153.905 6.51263C153.373 6.7868 152.898 7.16523 152.509 7.6263L132 31.8995L111.491 7.61092C110.705 6.67974 109.588 6.10496 108.386 6.013C107.184 5.92105 105.996 6.31947 105.082 7.12061C104.168 7.92174 103.604 9.05998 103.514 10.2849C103.424 11.5098 103.815 12.7211 104.601 13.6523L126.004 39.0138L104.601 64.3445C104.211 64.8056 103.915 65.3403 103.728 65.9182C103.541 66.4961 103.468 67.1058 103.513 67.7125C103.557 68.3192 103.718 68.911 103.987 69.4542C104.256 69.9973 104.628 70.4812 105.08 70.8781C105.994 71.6798 107.183 72.0787 108.385 71.9871C109.587 71.8955 110.705 71.3209 111.491 70.3897L132 46.1012L152.509 70.3897C153.295 71.3209 154.413 71.8955 155.615 71.9871C156.817 72.0787 158.006 71.6798 158.92 70.8781C159.834 70.0765 160.397 68.9378 160.487 67.7125C160.577 66.4872 160.186 65.2757 159.399 64.3445L137.996 39.0138Z" fill="#626366"/>
</g>
<defs>
<clipPath id="clip0_10573_1768">
<rect width="272" height="80" fill="white"/>
</clipPath>
</defs>
</svg>
