<svg width="272" height="81" viewBox="0 0 272 81" fill="none" xmlns="http://www.w3.org/2000/svg">
<g clip-path="url(#clip0_8357_75482)">
<path d="M81.1468 50.3189L81.1178 50.227L99.5103 33.4684V25.3937H70.0025V33.4684H87.6276L87.6566 33.5458L69.4438 50.3189V58.3937H99.8065V50.3189H81.1468Z" fill="#0D1117"/>
<path d="M117.917 24.6235C114.514 24.6235 111.74 25.1345 109.595 26.1563C107.598 27.0468 105.916 28.5141 104.766 30.3677C103.667 32.2335 102.977 34.3097 102.741 36.46L111.694 37.7123C112.018 35.8137 112.666 34.4679 113.637 33.6749C114.742 32.8456 116.103 32.4265 117.485 32.4903C119.302 32.4903 120.62 32.9739 121.44 33.9409C122.251 34.9079 122.664 36.2472 122.664 38.0121V38.892H114.055C109.673 38.892 106.525 39.8591 104.611 41.7931C102.697 43.7272 101.742 46.2802 101.745 49.452C101.745 52.7012 102.7 55.1189 104.611 56.7046C106.522 58.2907 108.925 59.0789 111.821 59.069C115.412 59.069 118.175 57.8394 120.108 55.38C121.25 53.8684 122.066 52.1384 122.503 50.2982H122.829L124.063 58.3727H132.176V37.9251C132.176 33.6991 131.057 30.4258 128.819 28.1049C126.581 25.784 122.947 24.6235 117.917 24.6235ZM120.754 49.8292C119.467 50.8977 117.782 51.4296 115.683 51.4296C113.953 51.4296 112.752 51.1282 112.078 50.5254C111.75 50.2402 111.489 49.8866 111.313 49.4897C111.138 49.0928 111.052 48.6622 111.063 48.2287C111.043 47.8199 111.108 47.4114 111.253 47.0282C111.397 46.645 111.618 46.2951 111.903 45.9997C112.211 45.7124 112.574 45.4901 112.971 45.3463C113.368 45.2026 113.789 45.1402 114.211 45.1632H122.678V45.7193C122.696 46.5053 122.531 47.2846 122.198 47.9972C121.864 48.7098 121.37 49.3366 120.754 49.8292Z" fill="#0D1117"/>
<path d="M181.23 25.3937H171.645V58.3983H181.23V25.3937Z" fill="#0D1117"/>
<path d="M237.817 25.3937C235.11 25.3937 232.975 26.3446 231.414 28.2464C230.293 29.6132 229.442 31.6327 228.859 34.3048H228.577L227.324 25.3937H219.138V58.3937H228.723V41.4705C228.723 39.3366 229.225 37.7007 230.229 36.5629C231.233 35.425 233.085 34.8561 235.786 34.8561H239.425V25.3937H237.817Z" fill="#0D1117"/>
<path d="M209.636 26.4714C207.398 25.1466 204.576 24.4858 201.169 24.489C195.806 24.489 191.608 26.0089 188.577 29.0486C185.545 32.0883 184.03 36.2787 184.03 41.6199C183.952 44.8491 184.661 48.049 186.094 50.9469C187.406 53.5293 189.45 55.6725 191.973 57.1116C194.512 58.5721 197.532 59.3038 201.032 59.3067C204.061 59.3067 206.59 58.8427 208.621 57.9145C210.53 57.0807 212.192 55.7738 213.45 54.1189C214.647 52.4941 215.536 50.6654 216.073 48.7228L207.815 46.4212C207.467 47.6845 206.798 48.8369 205.871 49.7671C204.938 50.6955 203.376 51.1597 201.183 51.1597C198.576 51.1597 196.633 50.4167 195.353 48.9307C194.426 47.8573 193.843 46.3245 193.585 44.3373H216.2C216.292 43.4089 216.34 42.6305 216.34 42.0019V39.947C216.395 37.1864 215.822 34.4492 214.664 31.94C213.581 29.6542 211.828 27.748 209.636 26.4714ZM200.892 32.3558C204.778 32.3558 206.982 34.2592 207.503 38.0661H193.755C193.974 36.7959 194.502 35.5986 195.296 34.58C196.555 33.094 198.421 32.3526 200.892 32.3558Z" fill="#0D1117"/>
<path d="M176.54 12.0918C175.819 12.0674 175.1 12.1875 174.427 12.445C173.753 12.7025 173.139 13.0921 172.62 13.5907C172.108 14.0941 171.707 14.6979 171.441 15.3637C171.176 16.0296 171.053 16.743 171.08 17.4588C171.054 18.1792 171.177 18.8971 171.443 19.5678C171.708 20.2386 172.11 20.8477 172.622 21.3572C173.134 21.8667 173.747 22.2656 174.421 22.5291C175.095 22.7926 175.816 22.9149 176.54 22.8886C177.259 22.9156 177.976 22.7933 178.645 22.5294C179.314 22.2656 179.921 21.8659 180.426 21.3558C180.928 20.8406 181.319 20.2297 181.577 19.56C181.835 18.8902 181.954 18.1755 181.927 17.4588C181.96 16.7463 181.844 16.0347 181.585 15.3695C181.327 14.7043 180.932 14.1002 180.425 13.5956C179.918 13.091 179.312 12.6971 178.644 12.439C177.976 12.1809 177.261 12.0643 176.545 12.0967L176.54 12.0918Z" fill="#0D1117"/>
<path d="M156.742 24.489C153.478 24.489 150.855 25.5092 148.873 27.5496C147.405 29.0614 146.329 31.3178 145.642 34.3188H145.336L144.083 25.4077H135.896V67.8797H145.481V50.386H145.831C146.124 51.5525 146.534 52.6864 147.056 53.7705C147.866 55.5366 149.196 57.0169 150.869 58.0158C152.604 58.958 154.558 59.427 156.533 59.3747C160.546 59.3747 163.602 57.8194 165.701 54.7085C167.799 51.598 168.849 47.2577 168.849 41.6876C168.849 36.3077 167.834 32.0963 165.803 29.0534C163.772 26.0105 160.752 24.489 156.742 24.489ZM157.714 48.4036C156.597 50.0153 154.848 50.8212 152.467 50.8212C151.486 50.8663 150.508 50.678 149.614 50.2719C148.72 49.8657 147.936 49.2535 147.328 48.4858C146.087 46.9354 145.469 44.8127 145.472 42.1179V41.4894C145.472 38.7527 146.09 36.6574 147.328 35.2037C148.565 33.7499 150.278 33.0311 152.467 33.0472C154.89 33.0472 156.65 33.8128 157.748 35.3439C158.846 36.875 159.395 39.0106 159.395 41.7504C159.402 44.5838 158.844 46.8016 157.724 48.4036H157.714Z" fill="#0D1117"/>
<path d="M65.7313 50.3176H32.5703V58.4021H65.7313V50.3176Z" fill="#FF4F00"/>
</g>
<defs>
<clipPath id="clip0_8357_75482">
<rect width="206.857" height="56" fill="white" transform="translate(32.5713 12.088)"/>
</clipPath>
</defs>
</svg>
