<svg width="272" height="81" viewBox="0 0 272 81" fill="none" xmlns="http://www.w3.org/2000/svg">
<g clip-path="url(#clip0_6826_139960)">
<path d="M86.3387 58.7003H56.3605C54.3789 58.7003 52.4989 57.6437 51.5843 55.8397C50.5427 53.7779 50.9238 51.3039 52.5243 49.6801L73.382 28.5215H58.4437C54.3281 28.5215 51 25.1454 51 20.9703H78.6155C80.597 20.9703 82.477 22.0269 83.3916 23.831C84.4333 25.8927 84.0522 28.3668 82.4516 29.9905L61.594 51.1492H78.8949C83.0106 51.1492 86.3387 54.5253 86.3387 58.7003ZM204.981 20.4033C200.688 20.4033 196.826 22.2847 194.183 25.3C191.516 22.2847 187.654 20.4033 183.387 20.4033C175.409 20.4033 168.906 27.3102 168.906 35.3768V58.7003C173.021 58.7003 176.349 55.3242 176.349 51.1492V35.2995C176.349 31.4079 179.322 28.1091 183.132 27.9545C187.147 27.7998 190.475 31.0728 190.475 35.1191V51.1492C190.475 55.3242 193.803 58.7003 197.918 58.7003V35.2995C197.918 31.4079 200.891 28.1091 204.701 27.9545C208.715 27.7998 212.044 31.0728 212.044 35.1191V51.1492C212.044 55.3242 215.372 58.7003 219.486 58.7003V35.3768C219.461 27.3102 212.958 20.4033 204.981 20.4033ZM123.887 39.8353C123.887 50.5565 115.301 59.2674 104.732 59.2674C94.1634 59.2674 85.5765 50.5565 85.5765 39.8353C85.5765 29.1142 94.1888 20.4033 104.732 20.4033C115.275 20.4033 123.887 29.1142 123.887 39.8353ZM116.444 39.8353C116.444 33.2893 111.185 27.9545 104.732 27.9545C98.2791 27.9545 93.0201 33.2893 93.0201 39.8353C93.0201 46.3815 98.2791 51.7162 104.732 51.7162C111.185 51.7162 116.444 46.3815 116.444 39.8353ZM165.171 39.8353C165.171 50.5565 156.584 59.2674 146.016 59.2674C135.446 59.2674 126.86 50.5565 126.86 39.8353C126.86 29.1142 135.473 20.4033 146.016 20.4033C156.558 20.4033 165.171 29.1142 165.171 39.8353ZM157.727 39.8353C157.727 33.2893 152.469 27.9545 146.016 27.9545C139.563 27.9545 134.304 33.2893 134.304 39.8353C134.304 46.3815 139.563 51.7162 146.016 51.7162C152.469 51.7162 157.727 46.3815 157.727 39.8353Z" fill="white"/>
</g>
<defs>
<clipPath id="clip0_6826_139960">
<rect width="170" height="39.3684" fill="white" transform="translate(51 20.4033)"/>
</clipPath>
</defs>
</svg>
