<svg width="301" height="183" viewBox="0 0 301 183" fill="none" xmlns="http://www.w3.org/2000/svg">
<path d="M118 9H92V16H118V9Z" fill="#FF4B55"/>
<path d="M118 16H92V23H118V16Z" fill="#FFE15A"/>
<path d="M118 2H92V9H118V2Z" fill="#464655"/>
<path fill-rule="evenodd" clip-rule="evenodd" d="M90 2C90 0.89543 90.8954 0 92 0H118C119.105 0 120 0.89543 120 2V22C120 23.1046 119.105 24 118 24H92C90.8954 24 90 23.1046 90 22V2ZM92 2V22H118V2H92Z" fill="#B5B5B5"/>
<path d="M210 8H184V16H210V8Z" fill="#F5F5F5"/>
<path d="M210 16H184V22H210V16Z" fill="#FF4B55"/>
<path d="M210 2H184V8H210V2Z" fill="#FF4B55"/>
<path fill-rule="evenodd" clip-rule="evenodd" d="M182 2C182 0.89543 182.895 0 184 0H210C211.105 0 212 0.89543 212 2V22C212 23.1046 211.105 24 210 24H184C182.895 24 182 23.1046 182 22V2ZM184 2V22H210V2H184Z" fill="#B5B5B5"/>
<path d="M210 48H184V56H210V48Z" fill="#41479B"/>
<path d="M210 56H184V62H210V56Z" fill="#FF4B55"/>
<path d="M210 42H184V48H210V42Z" fill="#F5F5F5"/>
<path fill-rule="evenodd" clip-rule="evenodd" d="M182 42C182 40.8954 182.895 40 184 40H210C211.105 40 212 40.8954 212 42V62C212 63.1046 211.105 64 210 64H184C182.895 64 182 63.1046 182 62V42ZM184 42V62H210V42H184Z" fill="#B5B5B5"/>
<path d="M210 81H184V101H210V81Z" fill="#FF4B55"/>
<path d="M188.5 85L189.235 86.4887L190.878 86.7275L189.689 87.8863L189.969 89.5225L188.5 88.75L187.031 89.5225L187.311 87.8863L186.122 86.7275L187.765 86.4887L188.5 85Z" fill="#FFE15A"/>
<path d="M191 83L191.294 83.5955L191.951 83.691L191.476 84.1545L191.588 84.809L191 84.5L190.412 84.809L190.524 84.1545L190.049 83.691L190.706 83.5955L191 83Z" fill="#FFE15A"/>
<path d="M191 90L191.294 90.5955L191.951 90.691L191.476 91.1545L191.588 91.809L191 91.5L190.412 91.809L190.524 91.1545L190.049 90.691L190.706 90.5955L191 90Z" fill="#FFE15A"/>
<path d="M193 85L193.294 85.5955L193.951 85.691L193.476 86.1545L193.588 86.809L193 86.5L192.412 86.809L192.524 86.1545L192.049 85.691L192.706 85.5955L193 85Z" fill="#FFE15A"/>
<path d="M193 88L193.294 88.5955L193.951 88.691L193.476 89.1545L193.588 89.809L193 89.5L192.412 89.809L192.524 89.1545L192.049 88.691L192.706 88.5955L193 88Z" fill="#FFE15A"/>
<path fill-rule="evenodd" clip-rule="evenodd" d="M182 81C182 79.8954 182.895 79 184 79H210C211.105 79 212 79.8954 212 81V101C212 102.105 211.105 103 210 103H184C182.895 103 182 102.105 182 101V81ZM184 81V101H210V81H184Z" fill="#B5B5B5"/>
<path d="M210 161H184V181H210V161Z" fill="#FF4B55"/>
<path fill-rule="evenodd" clip-rule="evenodd" d="M182 161C182 159.895 182.895 159 184 159H210C211.105 159 212 159.895 212 161V181C212 182.105 211.105 183 210 183H184C182.895 183 182 182.105 182 181V161ZM184 161V181H210V161H184Z" fill="#B5B5B5"/>
<path fill-rule="evenodd" clip-rule="evenodd" d="M198.747 166.314C198.203 166.111 197.615 166 197 166C194.239 166 192 168.239 192 171C192 173.761 194.239 176 197 176C197.615 176 198.203 175.889 198.747 175.686C197.72 176.508 196.418 177 195 177C191.686 177 189 174.314 189 171C189 167.686 191.686 165 195 165C196.418 165 197.72 165.492 198.747 166.314Z" fill="white"/>
<path d="M200 169L200.588 170.191L201.902 170.382L200.951 171.309L201.176 172.618L200 172L198.824 172.618L199.049 171.309L198.098 170.382L199.412 170.191L200 169Z" fill="white"/>
<path d="M210 120H184V140H210V120Z" fill="#73AF00"/>
<path fill-rule="evenodd" clip-rule="evenodd" d="M182 120C182 118.895 182.895 118 184 118H210C211.105 118 212 118.895 212 120V140C212 141.105 211.105 142 210 142H184C182.895 142 182 141.105 182 140V120ZM184 120V140H210V120H184Z" fill="#B5B5B5"/>
<path d="M197 123L208 130L197 137L186 130L197 123Z" fill="#FFE15A"/>
<path d="M201 130C201 132.182 199.182 134 197 134C194.818 134 193 132.182 193 130C193 127.818 194.818 126 197 126C199.182 126 201 127.818 201 130Z" fill="#41479B"/>
<path d="M193.372 128.029C193.186 128.426 193 128.824 193 129.221C195.233 129.022 198.581 129.816 200.814 132C201 131.603 201 131.206 201 130.809C198.767 128.625 195.791 127.831 193.372 128.029Z" fill="#F5F5F5"/>
<path d="M194.5 130L194.647 130.298L194.976 130.345L194.738 130.577L194.794 130.905L194.5 130.75L194.206 130.905L194.262 130.577L194.024 130.345L194.353 130.298L194.5 130Z" fill="white"/>
<path d="M195.5 132L195.647 132.298L195.976 132.345L195.738 132.577L195.794 132.905L195.5 132.75L195.206 132.905L195.262 132.577L195.024 132.345L195.353 132.298L195.5 132Z" fill="white"/>
<path d="M197.5 131L197.647 131.298L197.976 131.345L197.738 131.577L197.794 131.905L197.5 131.75L197.206 131.905L197.262 131.577L197.024 131.345L197.353 131.298L197.5 131Z" fill="white"/>
<path d="M198.5 132L198.647 132.298L198.976 132.345L198.738 132.577L198.794 132.905L198.5 132.75L198.206 132.905L198.262 132.577L198.024 132.345L198.353 132.298L198.5 132Z" fill="white"/>
<path d="M199.5 131L199.647 131.298L199.976 131.345L199.738 131.577L199.794 131.905L199.5 131.75L199.206 131.905L199.262 131.577L199.024 131.345L199.353 131.298L199.5 131Z" fill="white"/>
<path d="M28 167H2V174H28V167Z" fill="#008836"/>
<path d="M28 174H2V181H28V174Z" fill="#D20000"/>
<path d="M28 161H2V167H28V161Z" fill="white"/>
<path fill-rule="evenodd" clip-rule="evenodd" d="M0 161C0 159.895 0.89543 159 2 159H28C29.1046 159 30 159.895 30 161V181C30 182.105 29.1046 183 28 183H2C0.89543 183 0 182.105 0 181V161ZM2 161V181H28V161H2Z" fill="#B5B5B5"/>
<path d="M118 42H92V62H118V42Z" fill="white"/>
<path d="M92 50H118V54H92V50Z" fill="#005C9F"/>
<path d="M98 62L98 42L102 42L102 62L98 62Z" fill="#005C9F"/>
<path fill-rule="evenodd" clip-rule="evenodd" d="M90 42C90 40.8954 90.8954 40 92 40H118C119.105 40 120 40.8954 120 42V62C120 63.1046 119.105 64 118 64H92C90.8954 64 90 63.1046 90 62V42ZM118 42V62H92V42H118Z" fill="#B5B5B5"/>
<path d="M92 161H101V181H92V161Z" fill="#73AF00"/>
<path d="M101 161H109V181H101V161Z" fill="white"/>
<path d="M109 161H118V181H109V161Z" fill="#FF4B55"/>
<path fill-rule="evenodd" clip-rule="evenodd" d="M90 161C90 159.895 90.8954 159 92 159H118C119.105 159 120 159.895 120 161V181C120 182.105 119.105 183 118 183H92C90.8954 183 90 182.105 90 181V161ZM92 161V181H118V161H92Z" fill="#B5B5B5"/>
<path d="M92 120H101V140H92V120Z" fill="#41479B"/>
<path d="M101 120H109V140H101V120Z" fill="white"/>
<path d="M109 120H118V140H109V120Z" fill="#FF4B55"/>
<path fill-rule="evenodd" clip-rule="evenodd" d="M90 120C90 118.895 90.8954 118 92 118H118C119.105 118 120 118.895 120 120V140C120 141.105 119.105 142 118 142H92C90.8954 142 90 141.105 90 140V120ZM92 120V140H118V120H92Z" fill="#B5B5B5"/>
<path d="M28 62L2 62L2 52L28 52L28 62Z" fill="#FF4B55"/>
<path d="M28 52L2 52L2 42L28 42L28 52Z" fill="white"/>
<path fill-rule="evenodd" clip-rule="evenodd" d="M30 62C30 63.1046 29.1046 64 28 64L2 64C0.89543 64 7.82811e-08 63.1046 1.74846e-07 62L1.9233e-06 42C2.01987e-06 40.8954 0.895432 40 2 40L28 40C29.1046 40 30 40.8954 30 42L30 62ZM28 62L28 42L2 42L2 62L28 62Z" fill="#B5B5B5"/>
<path d="M15 52L2 62L2 42L15 52Z" fill="#41479B"/>
<path d="M2 2L28 2V12L2 12L2 2Z" fill="#FF4B55"/>
<path d="M2 12L28 12V22L2 22L2 12Z" fill="white"/>
<path fill-rule="evenodd" clip-rule="evenodd" d="M0 2C0 0.89543 0.89543 0 2 0L28 0C29.1046 0 30 0.89543 30 2L30 22C30 23.1046 29.1046 24 28 24L2 24C0.89543 24 0 23.1046 0 22L0 2ZM2 2L2 22L28 22L28 2L2 2Z" fill="#B5B5B5"/>
<path fill-rule="evenodd" clip-rule="evenodd" d="M0 120C0 118.895 0.89543 118 2 118H28C29.1046 118 30 118.895 30 120V140C30 141.105 29.1046 142 28 142H2C0.89543 142 0 141.105 0 140V120ZM2 120V140H28V120H2Z" fill="#B5B5B5"/>
<path d="M27.5125 140H2.4875C2.1625 140 2 139.833 2 139.5L2 120.5C2 120.167 2.1625 120 2.4875 120H27.5125C27.8375 120 28 120.167 28 120.5L28 139.5C28 139.833 27.8375 140 27.5125 140Z" fill="#41479B"/>
<path d="M28 120.5C28 120.167 28 120 28 120H23.125L18.25 125V120H11.75V125L6.875 120H2.4875C2.1625 120 2 120.167 2 120.5L2 121.667L6.875 126.667H2L2 133.333H6.875L2 138.333V139.5C2 139.833 2.1625 140 2.4875 140H6.875L11.75 135L11.75 140H18.25V133.333L24.75 140H28V139.5V138.333L23.125 133.333H28L28 126.667H23.125L28 121.667V120.5Z" fill="#F5F5F5"/>
<path d="M28 128.333H16.625V120H13.375L13.375 128.333H2L2 131.667H13.375L13.375 140H16.625L16.625 131.667H28L28 128.333Z" fill="#FF4B55"/>
<path d="M23.125 140L18.25 135V133.333H19.875L24.75 138.333L26.375 140H23.125Z" fill="#FF4B55"/>
<path d="M3.625 120L10.125 126.667H11.75L11.75 125L6.875 120H3.625Z" fill="#FF4B55"/>
<path d="M3.625 140L10.125 133.333H8.5H6.875L2 138.333V140H3.625Z" fill="#FF4B55"/>
<path d="M26.375 120L19.875 126.667H21.5H23.125L28 121.667V120H26.375Z" fill="#FF4B55"/>
<path d="M2 81H28V88H2V81Z" fill="white"/>
<path d="M2 88H28V94H2V88Z" fill="#41479B"/>
<path d="M2 94H28V101H2V94Z" fill="#FF4B55"/>
<path fill-rule="evenodd" clip-rule="evenodd" d="M0 81C0 79.8954 0.89543 79 2 79H28C29.1046 79 30 79.8954 30 81V101C30 102.105 29.1046 103 28 103H2C0.89543 103 0 102.105 0 101V81ZM2 81V101H28V81H2Z" fill="#B5B5B5"/>
<path d="M9.40665 95.6035C7.92313 93.9551 6.27478 92.3068 6.27478 90.6584L6.27478 85.7134H12.8682V90.6584C12.8682 92.3068 9.73632 95.4386 9.57148 95.6035H9.40665Z" fill="#FF4B55"/>
<path d="M11.2198 89.8344L10.1708 89.9889H9.87115V89.3385L10.1708 89.3707L10.9201 89.5253L10.7702 89.0617L10.9201 88.5981L10.1708 88.7526H9.87115V88.4435L10.3956 87.3618H9.57145H8.74727L9.27175 88.4435V88.7526H9.1219L8.37265 88.5981L8.5225 89.0617L8.37265 89.5253L9.1219 89.3707H9.27175V89.9889H8.97205L7.9231 89.8344L8.07295 90.2979L7.9231 90.7615L8.97205 90.607H9.27175L9.1219 92.6417H10.0093L9.87115 90.607H10.1708L11.2198 90.7615L11.0699 90.2979L11.2198 89.8344Z" fill="#F5F5F5"/>
<path d="M9.57148 92.3066C8.74731 92.3066 7.92313 93.1308 7.92313 93.955C7.92313 93.955 8.15861 92.966 7.92313 92.966C6.98122 92.966 6.27478 93.3616 6.27478 93.8891C7.68765 94.944 9.336 95.6033 9.336 95.6033H9.80696C9.80696 95.6033 11.4553 94.944 12.8682 93.8891C12.8682 93.3616 12.1617 92.966 11.2198 92.966C11.2198 92.966 11.4553 93.955 11.2198 93.955C11.2198 93.1308 10.2779 92.3066 9.57148 92.3066Z" fill="#41479B"/>
<path d="M12.8682 85.7133L12.8682 90.329C12.8682 92.3067 9.57146 93.955 9.57146 93.955C9.57146 93.955 6.27475 92.3067 6.27475 90.329L6.27475 85.7133H12.8682ZM14.5165 84.0649H4.6264L4.6264 90.6583C4.6264 94.1199 9.57146 95.6034 9.57146 95.9334C9.57146 95.6034 14.5165 94.1199 14.5165 90.6583L14.5165 84.0649Z" fill="#F5F5F5"/>
<path d="M118 81H92V101H118V81Z" fill="#C8414B"/>
<path fill-rule="evenodd" clip-rule="evenodd" d="M90 81C90 79.8954 90.8954 79 92 79H118C119.105 79 120 79.8954 120 81V101C120 102.105 119.105 103 118 103H92C90.8954 103 90 102.105 90 101V81ZM118 81V101H92V81H118Z" fill="#B5B5B5"/>
<path d="M118 85H92V97H118V85Z" fill="#FFD250"/>
<path d="M102.857 90.6593L103.187 88.6812C103.187 88.5164 103.022 88.3516 102.857 88.3516H102.527C102.363 88.3516 102.198 88.5164 102.198 88.6812L102.857 90.6593Z" fill="#C8414B"/>
<path d="M103.352 89.6704H102.363V94.121H103.352V89.6704Z" fill="#F5F5F5"/>
<path d="M103.352 89.1758H102.033V89.6703H103.352V89.1758Z" fill="#FAB446"/>
<path d="M103.516 90.6592H101.209V91.1537H103.516V90.6592Z" fill="#C8414B"/>
<path d="M103.516 92.8025L102.198 92.308V91.8135L103.516 92.308V92.8025Z" fill="#C8414B"/>
<path d="M95.9341 90.6593L96.2638 88.6812C96.2638 88.5164 96.0989 88.3516 95.9341 88.3516H95.7692C95.6044 88.3516 95.4396 88.5164 95.4396 88.6812L95.9341 90.6593Z" fill="#C8414B"/>
<path d="M97.5824 89.1758C97.2527 89.1758 97.0879 89.3406 97.0879 89.6703V93.1318C97.0879 93.7912 97.5824 94.945 99.3956 94.945C101.209 94.945 101.703 93.7912 101.703 93.1318V89.6703C101.703 89.3406 101.538 89.1758 101.209 89.1758H97.5824Z" fill="#F5F5F5"/>
<path d="M99.3956 91.6481H97.0879V89.5052C97.0879 89.1756 97.2527 89.0107 97.5824 89.0107H99.3956V91.6481Z" fill="#C8414B"/>
<path d="M99.3956 91.6484H101.703V92.9671C101.703 93.6265 101.209 94.2858 100.549 94.2858C99.8901 94.2858 99.3956 93.6265 99.3956 92.9671V91.6484Z" fill="#C8414B"/>
<path d="M97.0879 91.6484H99.3956V92.9671C99.3956 93.6265 98.9011 94.2858 98.2417 94.2858C97.5824 94.2858 97.0879 93.6265 97.0879 92.9671V91.6484Z" fill="#FAB446"/>
<path d="M98.9011 93.9561V91.6484H98.4066V94.2858C98.5714 94.2858 98.7362 94.121 98.9011 93.9561Z" fill="#C8414B"/>
<path d="M98.0769 94.2858V91.6484H97.5824V93.9561C97.7472 94.121 97.9121 94.2858 98.0769 94.2858Z" fill="#C8414B"/>
<path d="M98.9011 90.6592H97.5824V91.1537H98.9011V90.6592Z" fill="#FFB441"/>
<path d="M98.9011 89.6704H97.5824V90.1649H98.9011V89.6704Z" fill="#FAB446"/>
<path d="M98.7363 90H97.7473V90.989H98.7363V90Z" fill="#FAB446"/>
<path d="M96.4286 89.6704H95.4396V94.121H96.4286V89.6704Z" fill="#F5F5F5"/>
<path d="M96.5935 93.791H95.2748V94.2855H96.5935V93.791Z" fill="#FAB446"/>
<path d="M96.5935 89.1758H95.2748V89.6703H96.5935V89.1758Z" fill="#FAB446"/>
<path d="M96.923 94.2856H95.1099V94.7801H96.923V94.2856Z" fill="#5064AA"/>
<path d="M103.681 93.791H102.363V94.2855H103.681V93.791Z" fill="#FAB446"/>
<path d="M103.681 94.2856H101.868V94.7801H103.681V94.2856Z" fill="#5064AA"/>
<path d="M100.879 88.5166H98.077V89.0111H100.879V88.5166Z" fill="#FAB446"/>
<path d="M99.7252 87.0332H99.2307V88.5167H99.7252V87.0332Z" fill="#FFB441"/>
<path d="M98.9011 87.8573C98.5714 87.8573 98.2418 87.5277 98.2418 87.0332C98.2418 86.5387 98.5714 86.209 98.9011 86.209C99.2308 86.209 99.5604 86.5387 99.5604 87.0332C99.5604 87.5277 99.2308 87.8573 98.9011 87.8573ZM98.9011 86.7035C98.7363 86.7035 98.7363 86.8683 98.7363 87.0332C98.7363 87.198 98.9011 87.3628 98.9011 87.3628C99.0659 87.3628 99.0659 87.198 99.0659 87.0332C99.0659 86.8683 99.0659 86.7035 98.9011 86.7035Z" fill="#F5F5F5"/>
<path d="M99.8901 87.8573C99.5604 87.8573 99.2307 87.5277 99.2307 87.0332C99.2307 86.5387 99.5604 86.209 99.8901 86.209C100.22 86.209 100.549 86.5387 100.549 87.0332C100.549 87.5277 100.22 87.8573 99.8901 87.8573ZM99.8901 86.7035C99.7252 86.7035 99.7252 86.8683 99.7252 87.0332C99.7252 87.198 99.8901 87.3628 99.8901 87.3628C100.055 87.3628 100.055 87.198 100.055 87.0332C100.055 86.8683 99.8901 86.7035 99.8901 86.7035Z" fill="#F5F5F5"/>
<path d="M100.714 88.3515C100.385 88.3515 100.055 88.0218 100.055 87.5273C100.055 87.0328 100.385 86.7031 100.714 86.7031C101.044 86.7031 101.374 87.0328 101.374 87.5273C101.374 88.0218 101.044 88.3515 100.714 88.3515ZM100.714 87.1976C100.549 87.1976 100.549 87.3625 100.549 87.5273C100.549 87.6921 100.714 87.857 100.714 87.857C100.714 87.857 100.879 87.6921 100.879 87.5273C101.044 87.3625 100.879 87.1976 100.714 87.1976Z" fill="#F5F5F5"/>
<path d="M98.0769 88.3515C97.7473 88.3515 97.4176 88.0218 97.4176 87.5273C97.4176 87.0328 97.7473 86.7031 98.0769 86.7031C98.4066 86.7031 98.7363 87.0328 98.7363 87.5273C98.7363 88.0218 98.4066 88.3515 98.0769 88.3515ZM98.0769 87.1976C97.9121 87.1976 97.9121 87.3625 97.9121 87.5273C97.9121 87.6921 98.0769 87.857 98.0769 87.857C98.2418 87.857 98.2418 87.6921 98.2418 87.5273C98.2418 87.3625 98.0769 87.1976 98.0769 87.1976Z" fill="#F5F5F5"/>
<path d="M100.714 92.8019V93.1316C100.714 93.2964 100.549 93.4613 100.549 93.4613C100.385 93.4613 100.385 93.2964 100.385 93.1316V92.8019H100.714ZM101.209 92.1426H99.8901V92.9668C99.8901 93.4613 100.22 93.7909 100.549 93.7909C100.879 93.7909 101.209 93.4613 101.209 92.9668V92.1426Z" fill="#FAB446"/>
<path d="M100.549 91.1539C100.22 91.1539 100.055 90.9891 100.055 90.6594V90.1649C100.055 89.8352 100.22 89.6704 100.549 89.6704C100.879 89.6704 101.044 89.8352 101.044 90.1649V90.6594C101.044 90.9891 100.714 91.1539 100.549 91.1539Z" fill="#FFA0D2"/>
<path d="M100.055 91.6484C100.055 92.1429 99.7252 92.4726 99.3955 92.4726C99.0659 92.4726 98.7362 92.1429 98.7362 91.6484C98.7362 91.1539 99.0659 90.8242 99.3955 90.8242C99.7252 90.9891 100.055 91.3187 100.055 91.6484Z" fill="#5064AA"/>
<path d="M99.7252 86.0439H99.2307V87.5275H99.7252V86.0439Z" fill="#FAB446"/>
<path d="M98.0769 88.5167L97.5824 88.0222L97.9121 87.6925C98.2417 87.3629 98.7362 87.0332 99.3956 87.0332C100.055 87.0332 100.549 87.3629 100.879 87.6925L101.209 88.0222L100.714 88.5167H98.0769Z" fill="#C8414B"/>
<path d="M99.5604 88.0221C99.5604 88.1869 99.3955 88.3517 99.3955 88.3517C99.2307 88.3517 99.2307 88.1869 99.2307 88.0221C99.2307 87.8572 99.3955 87.6924 99.3955 87.6924C99.5604 87.8572 99.5604 87.8572 99.5604 88.0221Z" fill="#FFD250"/>
<path d="M98.7362 88.0221C98.7362 88.1869 98.5714 88.3517 98.5714 88.3517C98.4066 88.3517 98.4066 88.1869 98.4066 88.0221C98.4066 87.8572 98.5714 87.6924 98.5714 87.6924C98.5714 87.8572 98.7362 87.8572 98.7362 88.0221Z" fill="#FFD250"/>
<path d="M100.549 88.0221C100.549 88.1869 100.385 88.3517 100.385 88.3517C100.22 88.3517 100.22 88.1869 100.22 88.0221C100.22 87.8572 100.385 87.6924 100.385 87.6924C100.385 87.8572 100.549 87.8572 100.549 88.0221Z" fill="#FFD250"/>
<path d="M97.5825 90.6592H95.2748V91.1537H97.5825V90.6592Z" fill="#C8414B"/>
<path d="M95.2748 92.8023L96.5935 92.1429V91.6484L95.2748 92.1429V92.8023Z" fill="#C8414B"/>
<path fill-rule="evenodd" clip-rule="evenodd" d="M271 2C271 0.89543 271.895 0 273 0H299C300.105 0 301 0.89543 301 2V22C301 23.1046 300.105 24 299 24H273C271.895 24 271 23.1046 271 22V2ZM273 2V22H299V2H273Z" fill="#B5B5B5"/>
<path d="M299 2H273V22H299V2Z" fill="#FC4A4A"/>
<path d="M286 2H273V22H286V2Z" fill="#32600F"/>
<path fill-rule="evenodd" clip-rule="evenodd" d="M289.908 15.0537C288.401 15.0085 281.491 10.7119 281.443 10.0277L281.825 9.39378C282.51 10.3859 289.575 14.5644 290.269 14.4163L289.908 15.0535" fill="#D6DF03"/>
<path d="M289.908 15.0537C288.401 15.0085 281.491 10.7119 281.443 10.0277L281.825 9.39378C282.51 10.3859 289.575 14.5644 290.269 14.4163L289.908 15.0535" stroke="black" stroke-width="0.03" stroke-linecap="round" stroke-linejoin="round"/>
<path fill-rule="evenodd" clip-rule="evenodd" d="M281.745 9.31117C281.609 9.67359 283.548 10.8673 285.88 12.2803C288.212 13.6931 290.223 14.5663 290.372 14.4411C290.381 14.4249 290.446 14.3148 290.44 14.3157C290.412 14.3576 290.344 14.3709 290.238 14.3404C289.608 14.1594 287.964 13.408 285.929 12.1786C283.894 10.9492 282.123 9.81622 281.848 9.33484C281.829 9.30149 281.815 9.24062 281.818 9.19329L281.811 9.19319L281.753 9.29521L281.745 9.3112H281.745L281.745 9.31117ZM289.943 15.0771C289.918 15.1233 289.87 15.1248 289.78 15.1149C289.216 15.0528 287.506 14.2242 285.482 13.0174C283.127 11.6132 281.182 10.3337 281.393 9.99927L281.45 9.89818L281.461 9.90168C281.272 10.4684 285.3 12.7627 285.537 12.909C287.868 14.3473 289.833 15.1873 290.007 14.969L289.943 15.0773V15.0772L289.943 15.0771Z" fill="#D6DF03" stroke="black" stroke-width="0.03" stroke-linecap="round" stroke-linejoin="round"/>
<path fill-rule="evenodd" clip-rule="evenodd" d="M286.013 10.44C287.522 10.4281 289.383 10.2347 290.454 9.80941L290.223 9.43591C289.59 9.78496 287.719 10.0145 286.001 10.0488C283.969 10.0302 282.534 9.84172 281.816 9.36138L281.598 9.75911C282.919 10.316 284.273 10.4342 286.013 10.44" fill="#D6DF03"/>
<path d="M286.013 10.44C287.522 10.4281 289.383 10.2347 290.454 9.80941L290.223 9.43591C289.59 9.78496 287.719 10.0145 286.001 10.0488C283.969 10.0302 282.534 9.84172 281.816 9.36138L281.598 9.75911C282.919 10.316 284.273 10.4342 286.013 10.44" stroke="black" stroke-width="0.03" stroke-linecap="round" stroke-linejoin="round"/>
<path fill-rule="evenodd" clip-rule="evenodd" d="M290.516 9.82321C290.479 9.88193 289.78 10.1219 288.751 10.299C288.053 10.405 287.143 10.4955 286.007 10.4966C284.928 10.4976 284.047 10.4211 283.379 10.331C282.299 10.1623 281.741 9.92755 281.535 9.84459C281.555 9.80555 281.568 9.77816 281.587 9.7417C282.18 9.97702 282.74 10.1189 283.396 10.2195C284.059 10.3089 284.93 10.3865 286.004 10.3855C287.135 10.3844 288.035 10.2869 288.728 10.1841C289.784 10.0146 290.36 9.79639 290.441 9.69507L290.516 9.82321H290.516H290.516ZM290.313 9.44445C290.199 9.53595 289.629 9.73727 288.626 9.89679C287.957 9.99232 287.106 10.0778 286.019 10.0789C284.986 10.0799 284.142 10.0105 283.5 9.91743C282.482 9.78495 281.94 9.54598 281.745 9.47631C281.764 9.44283 281.784 9.40961 281.804 9.37626C281.956 9.45251 282.479 9.664 283.512 9.80967C284.146 9.89928 284.991 9.96607 286.019 9.96502C287.101 9.96392 287.942 9.87676 288.607 9.78175C289.615 9.64362 290.157 9.38686 290.24 9.32257L290.313 9.44436V9.44446L290.313 9.44445Z" fill="#D6DF03" stroke="black" stroke-width="0.03" stroke-linecap="round" stroke-linejoin="round"/>
<path fill-rule="evenodd" clip-rule="evenodd" d="M281.061 12.2503C281.988 12.7473 284.049 12.9978 285.999 13.015C287.774 13.0178 290.087 12.7417 290.952 12.2851L290.928 11.7876C290.658 12.2088 288.179 12.6129 285.98 12.5963C283.78 12.5798 281.738 12.2414 281.057 11.8034L281.061 12.2501" fill="#D6DF03"/>
<path d="M281.061 12.2503C281.988 12.7473 284.049 12.9978 285.999 13.015C287.774 13.0178 290.087 12.7417 290.952 12.2851L290.928 11.7876C290.658 12.2088 288.179 12.6129 285.98 12.5963C283.78 12.5798 281.738 12.2414 281.057 11.8034L281.061 12.2501" stroke="black" stroke-width="0.03" stroke-linecap="round" stroke-linejoin="round"/>
<path fill-rule="evenodd" clip-rule="evenodd" d="M290.999 12.1847L290.999 12.3034C290.869 12.4582 290.054 12.6922 289.032 12.857C288.254 12.9758 287.24 13.0654 285.976 13.0654C284.775 13.0654 283.818 12.9801 283.075 12.8666C281.901 12.6963 281.151 12.3982 281 12.3092L281.001 12.1708C281.453 12.4706 282.68 12.6899 283.092 12.7571C283.829 12.8699 284.781 12.9545 285.976 12.9545C287.234 12.9545 288.242 12.8655 289.015 12.7475C289.749 12.6419 290.793 12.3675 290.999 12.1848H290.999L290.999 12.1847ZM291 11.7628L291 11.8814C290.87 12.0361 290.054 12.2701 289.032 12.4349C288.254 12.5537 287.24 12.6433 285.976 12.6433C284.776 12.6433 283.818 12.5581 283.076 12.4445C281.902 12.2743 281.151 11.9762 281 11.8872L281.001 11.7488C281.454 12.0486 282.68 12.2679 283.092 12.3349C283.83 12.4478 284.782 12.5325 285.976 12.5325C287.234 12.5325 288.243 12.4434 289.016 12.3253C289.749 12.2198 290.794 11.9454 290.999 11.7627L291 11.7628L291 11.7628Z" fill="#D6DF03" stroke="black" stroke-width="0.03" stroke-linecap="round" stroke-linejoin="round"/>
<path fill-rule="evenodd" clip-rule="evenodd" d="M285.994 14.966C283.861 14.9534 282.033 14.3867 281.646 14.2931L281.928 14.732C282.61 15.0178 284.393 15.4436 286.015 15.3964C287.636 15.3493 289.053 15.2242 290.052 14.74L290.34 14.285C289.66 14.6043 287.344 14.9628 285.994 14.966" fill="#D6DF03"/>
<path d="M285.994 14.966C283.861 14.9534 282.033 14.3867 281.646 14.2931L281.928 14.732C282.61 15.0178 284.393 15.4436 286.015 15.3964C287.636 15.3493 289.053 15.2242 290.052 14.74L290.34 14.285C289.66 14.6043 287.344 14.9628 285.994 14.966" stroke="black" stroke-width="0.03" stroke-linecap="round" stroke-linejoin="round"/>
<path fill-rule="evenodd" clip-rule="evenodd" d="M290.16 14.6381C290.117 14.7026 290.074 14.7664 290.03 14.8284C289.559 14.9938 288.817 15.1675 288.504 15.2181C287.864 15.3494 286.874 15.4464 285.996 15.4468C284.106 15.4193 282.559 15.0507 281.831 14.7363L281.772 14.6358L281.782 14.6206L281.881 14.6591C283.176 15.1204 284.63 15.3044 286.007 15.3375C286.882 15.3405 287.757 15.2376 288.466 15.1114C289.552 14.8947 289.991 14.7313 290.126 14.6573L290.16 14.6381H290.16L290.16 14.6381ZM290.41 14.2269C290.411 14.2282 290.412 14.2294 290.413 14.2308C290.382 14.2841 290.349 14.3383 290.315 14.3929C290.064 14.4823 289.382 14.681 288.387 14.8196C287.731 14.9087 287.323 14.9949 286.019 15.0201C283.573 14.9581 281.99 14.4819 281.614 14.3644L281.559 14.258C282.976 14.6264 284.423 14.8836 286.019 14.9099C287.212 14.8846 287.72 14.797 288.371 14.7087C289.532 14.5289 290.116 14.3385 290.292 14.2836C290.29 14.2804 290.287 14.2771 290.284 14.2737L290.41 14.2268L290.41 14.2269L290.41 14.2269Z" fill="#D6DF03" stroke="black" stroke-width="0.03" stroke-linecap="round" stroke-linejoin="round"/>
<path fill-rule="evenodd" clip-rule="evenodd" d="M290.436 11.8584C290.443 13.2565 289.724 14.5111 289.146 15.0645C288.327 15.8476 287.242 16.3513 285.975 16.3745C284.559 16.4004 283.225 15.4814 282.867 15.0777C282.167 14.2884 281.598 13.286 281.579 11.9352C281.666 10.4093 282.267 9.34639 283.139 8.6175C284.011 7.88861 285.172 7.53363 286.138 7.55902C287.254 7.58834 288.556 8.13333 289.457 9.21526C290.046 9.92412 290.302 10.6934 290.436 11.8584ZM285.987 7.07123C288.705 7.07123 290.94 9.27434 290.94 11.9757C290.94 14.677 288.705 16.8802 285.987 16.8802C283.269 16.8802 281.052 14.677 281.052 11.9757C281.052 9.27434 283.269 7.07123 285.987 7.07123" fill="#D6DF03"/>
<path d="M285.987 7.07123C288.705 7.07123 290.94 9.27434 290.94 11.9757C290.94 14.677 288.705 16.8802 285.987 16.8802C283.269 16.8802 281.052 14.677 281.052 11.9757C281.052 9.27434 283.269 7.07123 285.987 7.07123M290.436 11.8584C290.443 13.2565 289.724 14.5111 289.146 15.0645C288.327 15.8476 287.242 16.3513 285.975 16.3745C284.559 16.4004 283.225 15.4814 282.867 15.0777C282.167 14.2884 281.598 13.286 281.579 11.9352C281.666 10.4093 282.267 9.34639 283.139 8.6175C284.011 7.88861 285.172 7.53363 286.138 7.55902C287.254 7.58834 288.556 8.13333 289.457 9.21526C290.046 9.92412 290.302 10.6934 290.436 11.8584Z" stroke="black" stroke-width="0.03" stroke-linecap="round" stroke-linejoin="round"/>
<path fill-rule="evenodd" clip-rule="evenodd" d="M286.001 7.05814C288.721 7.05814 290.94 9.26845 290.94 11.9784C290.94 14.6884 288.721 16.8986 286.001 16.8986C283.28 16.8986 281.062 14.6884 281.062 11.9784C281.062 9.26845 283.28 7.05814 286.001 7.05814V7.05814ZM281.17 11.9785C281.17 14.6249 283.352 16.7904 286.001 16.7904C288.649 16.7904 290.831 14.6249 290.831 11.9785C290.831 9.33192 288.649 7.16638 286.001 7.16638C283.352 7.16638 281.17 9.33202 281.17 11.9785Z" fill="#D6DF03" stroke="black" stroke-width="0.03" stroke-linecap="round" stroke-linejoin="round"/>
<path fill-rule="evenodd" clip-rule="evenodd" d="M286.005 7.46561C288.485 7.46561 290.529 9.49396 290.529 11.9726C290.529 14.4513 288.485 16.4795 286.005 16.4795C283.524 16.4795 281.48 14.4513 281.48 11.9726C281.48 9.49396 283.524 7.46561 286.005 7.46561ZM281.589 11.9726C281.589 14.3917 283.583 16.3712 286.005 16.3712C288.426 16.3712 290.42 14.3917 290.42 11.9726C290.42 9.55341 288.426 7.57385 286.005 7.57385C283.583 7.57385 281.589 9.55341 281.589 11.9726Z" fill="#D6DF03"/>
<path d="M281.589 11.9726C281.589 14.3917 283.583 16.3712 286.005 16.3712C288.426 16.3712 290.42 14.3917 290.42 11.9726C290.42 9.55341 288.426 7.57385 286.005 7.57385C283.583 7.57385 281.589 9.55341 281.589 11.9726Z" fill="#D6DF03"/>
<path fill-rule="evenodd" clip-rule="evenodd" d="M286.005 7.46561C288.485 7.46561 290.529 9.49396 290.529 11.9726C290.529 14.4513 288.485 16.4795 286.005 16.4795C283.524 16.4795 281.48 14.4513 281.48 11.9726C281.48 9.49396 283.524 7.46561 286.005 7.46561ZM281.589 11.9726C281.589 14.3917 283.583 16.3712 286.005 16.3712C288.426 16.3712 290.42 14.3917 290.42 11.9726C290.42 9.55341 288.426 7.57385 286.005 7.57385C283.583 7.57385 281.589 9.55341 281.589 11.9726Z" stroke="black" stroke-width="0.03" stroke-linecap="round" stroke-linejoin="round"/>
<path d="M281.589 11.9726C281.589 14.3917 283.583 16.3712 286.005 16.3712C288.426 16.3712 290.42 14.3917 290.42 11.9726C290.42 9.55341 288.426 7.57385 286.005 7.57385C283.583 7.57385 281.589 9.55341 281.589 11.9726Z" stroke="black" stroke-width="0.03" stroke-linecap="round" stroke-linejoin="round"/>
<path fill-rule="evenodd" clip-rule="evenodd" d="M286.204 7.0387H285.78L285.781 16.9248H286.206L286.204 7.0387Z" fill="#D6DF03" stroke="black" stroke-width="0.03" stroke-linecap="round" stroke-linejoin="round"/>
<path fill-rule="evenodd" clip-rule="evenodd" d="M286.161 6.98047H286.269L286.27 16.9804H286.162L286.161 6.98047H286.161ZM285.741 6.98056H285.85L285.85 16.9805H285.741V6.98056H285.741Z" fill="#D6DF03" stroke="black" stroke-width="0.03" stroke-linecap="round" stroke-linejoin="round"/>
<path fill-rule="evenodd" clip-rule="evenodd" d="M290.942 12.1685V11.803L290.644 11.5257L288.948 11.0785L286.503 10.8301L283.56 10.9791L281.465 11.476L281.042 11.7881V12.1536L282.113 11.6748L284.658 11.2773H287.102L288.898 11.476L290.145 11.7742L290.942 12.1685Z" fill="#D6DF03" stroke="black" stroke-width="0.03" stroke-linecap="round" stroke-linejoin="round"/>
<path fill-rule="evenodd" clip-rule="evenodd" d="M286.003 11.2133C287.169 11.2111 288.301 11.3233 289.198 11.4975C290.125 11.6819 290.777 11.9126 291 12.1718L290.999 12.3001C290.73 11.9776 289.853 11.7412 289.178 11.606C288.287 11.4334 287.163 11.322 286.003 11.3241C284.779 11.3264 283.639 11.4419 282.761 11.6125C282.057 11.7517 281.117 12.0283 281 12.3011V12.1675C281.064 11.9786 281.764 11.6964 282.745 11.5008C283.63 11.329 284.771 11.2155 286.003 11.2133V11.2133ZM286.003 10.7913C287.17 10.7892 288.301 10.9015 289.199 11.0755C290.125 11.26 290.777 11.4907 291 11.7498L291 11.8781C290.731 11.5557 289.854 11.3193 289.178 11.1842C288.287 11.0115 287.163 10.9 286.003 10.9023C284.779 10.9044 283.645 11.02 282.767 11.1905C282.087 11.3189 281.109 11.6064 281 11.8792V11.7455C281.065 11.5587 281.778 11.2664 282.746 11.0788C283.63 10.907 284.772 10.7936 286.003 10.7913V10.7913Z" fill="#D6DF03" stroke="black" stroke-width="0.03" stroke-linecap="round" stroke-linejoin="round"/>
<path fill-rule="evenodd" clip-rule="evenodd" d="M285.979 8.64347C287.817 8.63431 289.42 8.89948 290.154 9.27377L290.421 9.73484C289.784 9.39258 288.054 9.03671 285.982 9.08992C284.293 9.10027 282.488 9.27512 281.583 9.75625L281.902 9.22413C282.645 8.84033 284.398 8.6456 285.979 8.64357" fill="#D6DF03"/>
<path d="M285.979 8.64347C287.817 8.63431 289.42 8.89948 290.154 9.27377L290.421 9.73484C289.784 9.39258 288.054 9.03671 285.982 9.08992C284.293 9.10027 282.488 9.27512 281.583 9.75625L281.902 9.22413C282.645 8.84033 284.398 8.6456 285.979 8.64357" stroke="black" stroke-width="0.03" stroke-linecap="round" stroke-linejoin="round"/>
<path fill-rule="evenodd" clip-rule="evenodd" d="M286.003 9.01964C287.052 9.01688 288.065 9.07578 288.871 9.22057C289.621 9.35966 290.336 9.56844 290.439 9.68071L290.518 9.82033C290.269 9.65849 289.65 9.47829 288.855 9.32811C288.057 9.17863 287.044 9.12911 286.002 9.13183C284.818 9.1278 283.899 9.19003 283.11 9.32706C282.275 9.48259 281.697 9.70477 281.554 9.81034L281.631 9.66275C281.909 9.52172 282.349 9.35173 283.089 9.21904C283.905 9.07057 284.834 9.02604 286.004 9.01965H286.004L286.003 9.01964ZM286.003 8.59807C287.006 8.59544 287.997 8.65113 288.769 8.7894C289.378 8.9075 289.981 9.09186 290.201 9.25594L290.317 9.43956C290.12 9.22119 289.377 9.01426 288.722 8.89835C287.956 8.7667 287.006 8.7146 286.003 8.70627C284.95 8.7092 283.977 8.77345 283.222 8.9104C282.502 9.04695 282.037 9.20861 281.84 9.33486L281.942 9.18148C282.213 9.03915 282.652 8.90842 283.204 8.80154C283.965 8.66358 284.944 8.601 286.003 8.59807H286.003Z" fill="#D6DF03" stroke="black" stroke-width="0.03" stroke-linecap="round" stroke-linejoin="round"/>
<path fill-rule="evenodd" clip-rule="evenodd" d="M288.457 14.0192C287.548 13.8503 286.638 13.8257 286.002 13.8332C282.939 13.8689 281.949 14.4597 281.829 14.6386L281.6 14.2668C282.379 13.7038 284.048 13.388 286.019 13.4203C287.042 13.437 287.925 13.5047 288.668 13.648L288.457 14.0193" fill="#D6DF03"/>
<path d="M288.457 14.0192C287.548 13.8503 286.638 13.8257 286.002 13.8332C282.939 13.8689 281.949 14.4597 281.829 14.6386L281.6 14.2668C282.379 13.7038 284.048 13.388 286.019 13.4203C287.042 13.437 287.925 13.5047 288.668 13.648L288.457 14.0193" stroke="black" stroke-width="0.03" stroke-linecap="round" stroke-linejoin="round"/>
<path fill-rule="evenodd" clip-rule="evenodd" d="M285.984 13.7805C286.836 13.7931 287.672 13.8282 288.48 13.9782L288.421 14.081C287.671 13.9431 286.872 13.8903 285.987 13.8946C284.856 13.8858 283.713 13.991 282.717 14.2756C282.403 14.3627 281.883 14.5638 281.83 14.73L281.772 14.6345C281.789 14.5363 282.103 14.3323 282.69 14.1679C283.831 13.8427 284.897 13.7878 285.984 13.7804V13.7805L285.984 13.7805ZM286.022 13.3533C286.905 13.3698 287.817 13.4104 288.703 13.5853L288.642 13.6923C287.842 13.5341 287.077 13.4813 286.028 13.4652C284.894 13.4673 283.691 13.5478 282.597 13.8646C282.244 13.967 281.634 14.1886 281.614 14.364L281.556 14.2613C281.569 14.102 282.097 13.8942 282.571 13.7567C283.673 13.4375 284.88 13.3554 286.022 13.3533L286.022 13.3533Z" fill="#D6DF03" stroke="black" stroke-width="0.03" stroke-linecap="round" stroke-linejoin="round"/>
<path fill-rule="evenodd" clip-rule="evenodd" d="M290.375 14.3235L290.007 14.8924L288.949 13.9568L286.205 12.1183L283.113 10.4289L281.507 9.88182L281.849 9.24977L281.965 9.18667L282.963 9.43511L286.255 11.1245L288.151 12.3171L289.747 13.4599L290.396 14.2053L290.375 14.3235Z" fill="#D6DF03" stroke="black" stroke-width="0.03" stroke-linecap="round" stroke-linejoin="round"/>
<path fill-rule="evenodd" clip-rule="evenodd" d="M281.449 9.90131C281.731 9.71103 283.8 10.6295 285.966 11.9303C288.126 13.2348 290.19 14.709 290.004 14.9848L289.943 15.0809L289.914 15.1029C289.92 15.0987 289.952 15.0608 289.911 14.9586C289.819 14.6569 288.355 13.4932 285.926 12.0321C283.558 10.6255 281.584 9.77768 281.387 10.02L281.449 9.90129H281.449L281.449 9.90131ZM290.45 14.32C290.628 13.9696 288.708 12.529 286.328 11.1264C283.893 9.7517 282.138 8.94252 281.817 9.1838L281.746 9.31295C281.746 9.32005 281.749 9.30414 281.764 9.29257C281.822 9.24192 281.919 9.24533 281.962 9.24454C282.514 9.25278 284.091 9.97542 286.303 11.2385C287.272 11.8007 290.397 13.797 290.385 14.3584C290.385 14.4066 290.389 14.4166 290.37 14.4405L290.45 14.32V14.3199L290.45 14.32Z" fill="#D6DF03" stroke="black" stroke-width="0.03" stroke-linecap="round" stroke-linejoin="round"/>
<path d="M283 12.5524C283 13.366 283.325 14.1018 283.851 14.6395C284.378 15.1784 285.095 15.5185 285.889 15.5185C286.688 15.5185 287.413 15.1859 287.938 14.649C288.463 14.1123 288.788 13.3714 288.788 12.555H288.788V8.5956L283 8.58854L283 12.5524H283L283 12.5524Z" fill="#F7F9CD"/>
<path d="M283.109 12.5562V12.5584C283.109 13.3363 283.423 14.0446 283.927 14.5589C284.432 15.0741 285.127 15.3945 285.887 15.3945C286.652 15.3945 287.346 15.0764 287.848 14.5632C288.351 14.0499 288.662 13.3415 288.662 12.561H288.662V8.71967L283.112 8.71875L283.109 12.5562M287.546 9.8688L287.547 12.3133L287.545 12.5719H287.545C287.545 12.64 287.541 12.7175 287.533 12.7836C287.488 13.1701 287.314 13.5069 287.058 13.769C286.757 14.0758 286.343 14.2661 285.885 14.2661C285.431 14.2661 285.026 14.0692 284.724 13.7611C284.414 13.4451 284.235 13.0118 284.235 12.5637L284.234 9.86256L287.546 9.86869L287.546 9.86879L287.546 9.8688Z" fill="#F72D01"/>
<path d="M283.109 12.5562V12.5584C283.109 13.3363 283.423 14.0446 283.927 14.5589C284.432 15.0741 285.127 15.3945 285.887 15.3945C286.652 15.3945 287.346 15.0764 287.848 14.5632C288.351 14.0499 288.662 13.3415 288.662 12.561H288.662V8.71967L283.112 8.71875L283.109 12.5562M287.546 9.8688L287.547 12.3133L287.545 12.5719H287.545C287.545 12.64 287.541 12.7175 287.533 12.7836C287.488 13.1701 287.314 13.5069 287.058 13.769C286.757 14.0758 286.343 14.2661 285.885 14.2661C285.431 14.2661 285.026 14.0692 284.724 13.7611C284.414 13.4451 284.235 13.0118 284.235 12.5637L284.234 9.86256L287.546 9.86869L287.546 9.86879L287.546 9.8688Z" stroke="black" stroke-width="0.03"/>
<path d="M283.468 9.72529C283.475 9.44924 283.666 9.38389 283.667 9.38292C283.668 9.382 283.873 9.4533 283.873 9.72785L283.468 9.72529" fill="#FFFF00"/>
<path d="M283.303 9.3913L283.27 9.70853L283.472 9.70898C283.474 9.44652 283.665 9.40286 283.67 9.40383C283.674 9.40358 283.864 9.46186 283.87 9.70898H284.072L284.035 9.38932L283.303 9.39122V9.39132L283.303 9.3913Z" fill="#FFFF00" stroke="black" stroke-width="0.03"/>
<path d="M283.257 9.70833H284.083C284.101 9.70833 284.115 9.72597 284.115 9.74753C284.115 9.76905 284.101 9.7866 284.083 9.7866H283.257C283.24 9.7866 283.225 9.76905 283.225 9.74753C283.225 9.72597 283.24 9.70833 283.257 9.70833Z" fill="#FFFF00" stroke="black" stroke-width="0.03"/>
<path d="M283.557 9.7059C283.558 9.54027 283.667 9.4934 283.668 9.49349C283.668 9.49349 283.782 9.54182 283.783 9.7059H283.557" fill="#FFFF00"/>
<path d="M283.557 9.7059C283.558 9.54027 283.667 9.4934 283.668 9.49349C283.668 9.49349 283.782 9.54182 283.783 9.7059H283.557" stroke="black" stroke-width="0.03"/>
<path d="M283.275 9.25911H284.067C284.083 9.25911 284.097 9.27503 284.097 9.29435C284.097 9.31371 284.083 9.32958 284.067 9.32958H283.275C283.258 9.32958 283.244 9.31379 283.244 9.29435C283.244 9.27503 283.258 9.25911 283.275 9.25911Z" fill="#FFFF00" stroke="black" stroke-width="0.03"/>
<path d="M283.291 9.32422H284.048C284.064 9.32422 284.077 9.34005 284.077 9.35941C284.077 9.37881 284.064 9.39464 284.048 9.39464H283.291C283.275 9.39464 283.262 9.37881 283.262 9.35941C283.262 9.34005 283.275 9.32422 283.291 9.32422Z" fill="#FFFF00" stroke="black" stroke-width="0.03"/>
<path d="M283.536 8.79775L283.596 8.79785V8.84141H283.64V8.79688L283.701 8.79707V8.84144H283.745V8.7969H283.806L283.806 8.89748C283.806 8.91327 283.794 8.9235 283.779 8.9235H283.564C283.55 8.9235 283.537 8.91164 283.537 8.89718L283.536 8.79778H283.536L283.536 8.79775Z" fill="#FFFF00" stroke="black" stroke-width="0.03"/>
<path d="M283.761 8.93443L283.775 9.257L283.565 9.25621L283.579 8.93359L283.761 8.93443" fill="#FFFF00"/>
<path d="M283.761 8.93443L283.775 9.257L283.565 9.25621L283.579 8.93359L283.761 8.93443" stroke="black" stroke-width="0.03"/>
<path d="M283.506 9.08333L283.512 9.25721L283.311 9.25731L283.317 9.08334H283.506H283.506L283.506 9.08333Z" fill="#FFFF00" stroke="black" stroke-width="0.03"/>
<path d="M283.279 8.95399L283.338 8.95414V8.99775H283.381V8.95312L283.441 8.95332V8.99778H283.483V8.95315L283.543 8.95325L283.543 9.05383C283.543 9.06953 283.531 9.07976 283.517 9.07976H283.307C283.293 9.07976 283.279 9.06799 283.279 9.05348L283.279 8.95404H283.279L283.279 8.95399Z" fill="#FFFF00" stroke="black" stroke-width="0.03"/>
<path d="M283.649 9.03537C283.648 9.00401 283.692 9.00366 283.691 9.03537V9.11219H283.649V9.03539" fill="black"/>
<path d="M283.389 9.14576C283.389 9.11546 283.43 9.11484 283.429 9.14576V9.20511H283.389V9.14576" fill="black"/>
<path d="M283.474 12.5924C283.48 12.3163 283.671 12.251 283.672 12.25C283.674 12.2491 283.879 12.3204 283.878 12.5949L283.474 12.5924" fill="#FFFF00"/>
<path d="M283.308 12.2585L283.275 12.5757L283.477 12.5762C283.479 12.3137 283.671 12.27 283.675 12.271C283.68 12.2708 283.87 12.329 283.875 12.5762H284.077L284.041 12.2565L283.308 12.2584V12.2585L283.308 12.2585Z" fill="#FFFF00" stroke="black" stroke-width="0.03"/>
<path d="M283.262 12.5755H284.088C284.106 12.5755 284.12 12.5932 284.12 12.6147C284.12 12.6362 284.106 12.6538 284.088 12.6538H283.262C283.245 12.6538 283.231 12.6362 283.231 12.6147C283.231 12.5932 283.245 12.5755 283.262 12.5755Z" fill="#FFFF00" stroke="black" stroke-width="0.03"/>
<path d="M283.562 12.5731C283.563 12.4075 283.673 12.3606 283.673 12.3607C283.673 12.3607 283.787 12.409 283.788 12.5731H283.562" fill="#FFFF00"/>
<path d="M283.562 12.5731C283.563 12.4075 283.673 12.3606 283.673 12.3607C283.673 12.3607 283.787 12.409 283.788 12.5731H283.562" stroke="black" stroke-width="0.03"/>
<path d="M283.28 12.1263H284.072C284.089 12.1263 284.102 12.1422 284.102 12.1615C284.102 12.1809 284.089 12.1968 284.072 12.1968H283.28C283.263 12.1968 283.25 12.181 283.25 12.1615C283.25 12.1422 283.263 12.1263 283.28 12.1263Z" fill="#FFFF00" stroke="black" stroke-width="0.03"/>
<path d="M283.296 12.1914H284.054C284.07 12.1914 284.083 12.2072 284.083 12.2266C284.083 12.246 284.07 12.2618 284.054 12.2618H283.296C283.28 12.2618 283.267 12.246 283.267 12.2266C283.267 12.2072 283.28 12.1914 283.296 12.1914Z" fill="#FFFF00" stroke="black" stroke-width="0.03"/>
<path d="M283.542 11.6649L283.602 11.665V11.7086H283.645V11.6641L283.707 11.6643V11.7086H283.75V11.6641H283.812L283.812 11.7647C283.812 11.7805 283.799 11.7907 283.785 11.7907H283.57C283.555 11.7907 283.542 11.7788 283.542 11.7644L283.542 11.665H283.542L283.542 11.6649Z" fill="#FFFF00" stroke="black" stroke-width="0.03"/>
<path d="M283.767 11.8016L283.78 12.1242L283.57 12.1234L283.584 11.8008L283.767 11.8016" fill="#FFFF00"/>
<path d="M283.767 11.8016L283.78 12.1242L283.57 12.1234L283.584 11.8008L283.767 11.8016" stroke="black" stroke-width="0.03"/>
<path d="M283.511 11.9505L283.518 12.1244L283.316 12.1245L283.322 11.9505H283.511H283.511L283.511 11.9505Z" fill="#FFFF00" stroke="black" stroke-width="0.03"/>
<path d="M283.285 11.8212L283.343 11.8213V11.8649H283.386V11.8203L283.446 11.8205V11.865H283.489V11.8203L283.549 11.8204L283.549 11.921C283.549 11.9367 283.537 11.947 283.523 11.947H283.312C283.298 11.947 283.285 11.9352 283.285 11.9207L283.285 11.8212H283.285L283.285 11.8212Z" fill="#FFFF00" stroke="black" stroke-width="0.03"/>
<path d="M283.654 11.9026C283.653 11.8712 283.697 11.8708 283.697 11.9026V11.9794H283.654V11.9026" fill="black"/>
<path d="M283.396 12.0125C283.396 11.9822 283.437 11.9816 283.436 12.0125V12.0719H283.396V12.0125" fill="black"/>
<path d="M285.813 9.72843C285.82 9.45238 286.011 9.38703 286.012 9.38606C286.013 9.38513 286.218 9.45644 286.218 9.73099L285.813 9.72843" fill="#FFFF00"/>
<path d="M285.648 9.39443L285.615 9.71167L285.817 9.71212C285.819 9.44965 286.01 9.40599 286.015 9.40696C286.019 9.40671 286.209 9.46499 286.214 9.71212H286.417L286.38 9.39246L285.648 9.39435V9.39445L285.648 9.39443Z" fill="#FFFF00" stroke="black" stroke-width="0.03"/>
<path d="M285.602 9.71147H286.428C286.445 9.71147 286.46 9.72911 286.46 9.75067C286.46 9.77219 286.445 9.78974 286.428 9.78974H285.602C285.585 9.78974 285.57 9.77219 285.57 9.75067C285.57 9.72911 285.585 9.71147 285.602 9.71147Z" fill="#FFFF00" stroke="black" stroke-width="0.03"/>
<path d="M285.902 9.70904C285.903 9.54341 286.012 9.49653 286.013 9.49662C286.013 9.49662 286.127 9.54495 286.128 9.70904H285.902" fill="#FFFF00"/>
<path d="M285.902 9.70904C285.903 9.54341 286.012 9.49653 286.013 9.49662C286.013 9.49662 286.127 9.54495 286.128 9.70904H285.902" stroke="black" stroke-width="0.03"/>
<path d="M285.62 9.26225H286.412C286.428 9.26225 286.442 9.27817 286.442 9.29748C286.442 9.31684 286.428 9.33272 286.412 9.33272H285.62C285.603 9.33272 285.589 9.31693 285.589 9.29748C285.589 9.27817 285.603 9.26225 285.62 9.26225Z" fill="#FFFF00" stroke="black" stroke-width="0.03"/>
<path d="M285.636 9.32735H286.393C286.409 9.32735 286.422 9.34319 286.422 9.36254C286.422 9.38195 286.409 9.39778 286.393 9.39778H285.636C285.62 9.39778 285.607 9.38195 285.607 9.36254C285.607 9.34319 285.62 9.32735 285.636 9.32735Z" fill="#FFFF00" stroke="black" stroke-width="0.03"/>
<path d="M285.881 8.8009L285.941 8.801V8.84457H285.985V8.80003L286.046 8.80023V8.8446H286.09V8.80006H286.151L286.151 8.90064C286.151 8.91643 286.139 8.92666 286.124 8.92666H285.909C285.895 8.92666 285.882 8.9148 285.881 8.90033L285.881 8.80094H285.881L285.881 8.8009Z" fill="#FFFF00" stroke="black" stroke-width="0.03"/>
<path d="M286.106 8.93757L286.12 9.26014L285.91 9.25934L285.924 8.93673L286.106 8.93757" fill="#FFFF00"/>
<path d="M286.106 8.93757L286.12 9.26014L285.91 9.25934L285.924 8.93673L286.106 8.93757" stroke="black" stroke-width="0.03"/>
<path d="M285.851 9.08647L285.857 9.26034L285.656 9.26044L285.662 9.08648H285.851H285.851L285.851 9.08647Z" fill="#FFFF00" stroke="black" stroke-width="0.03"/>
<path d="M285.624 8.95713L285.683 8.95728V9.00089H285.726V8.95626L285.786 8.95646V9.00091H285.828V8.95628L285.888 8.95638L285.888 9.05697C285.888 9.07267 285.876 9.0829 285.862 9.0829H285.652C285.638 9.0829 285.624 9.07112 285.624 9.05662L285.624 8.95718H285.624L285.624 8.95713Z" fill="#FFFF00" stroke="black" stroke-width="0.03"/>
<path d="M285.994 9.0385C285.993 9.00715 286.037 9.0068 286.036 9.0385V9.11532H285.994V9.03852" fill="black"/>
<path d="M285.735 9.14838C285.735 9.11809 285.776 9.11747 285.776 9.14838V9.20774H285.735V9.14839" fill="black"/>
<path d="M287.928 9.72859C287.934 9.45254 288.125 9.38719 288.127 9.38622C288.128 9.3853 288.333 9.4566 288.332 9.73115L287.928 9.72859" fill="#FFFF00"/>
<path d="M287.763 9.3946L287.729 9.71183L287.931 9.71228C287.933 9.44982 288.125 9.40616 288.13 9.40713C288.134 9.40688 288.324 9.46516 288.329 9.71228H288.532L288.495 9.39262L287.763 9.39452V9.39462L287.763 9.3946Z" fill="#FFFF00" stroke="black" stroke-width="0.03"/>
<path d="M287.717 9.71163H288.543C288.56 9.71163 288.574 9.72927 288.574 9.75083C288.574 9.77235 288.56 9.7899 288.543 9.7899H287.717C287.699 9.7899 287.685 9.77235 287.685 9.75083C287.685 9.72927 287.699 9.71163 287.717 9.71163Z" fill="#FFFF00" stroke="black" stroke-width="0.03"/>
<path d="M288.017 9.7092C288.018 9.54357 288.127 9.49669 288.128 9.49678C288.128 9.49678 288.242 9.54512 288.243 9.7092H288.017" fill="#FFFF00"/>
<path d="M288.017 9.7092C288.018 9.54357 288.127 9.49669 288.128 9.49678C288.128 9.49678 288.242 9.54512 288.243 9.7092H288.017" stroke="black" stroke-width="0.03"/>
<path d="M287.734 9.26241H288.526C288.543 9.26241 288.557 9.27833 288.557 9.29764C288.557 9.317 288.543 9.33288 288.526 9.33288H287.734C287.718 9.33288 287.704 9.31709 287.704 9.29764C287.704 9.27833 287.718 9.26241 287.734 9.26241Z" fill="#FFFF00" stroke="black" stroke-width="0.03"/>
<path d="M287.751 9.32751H288.508C288.524 9.32751 288.537 9.34335 288.537 9.3627C288.537 9.38211 288.524 9.39794 288.508 9.39794H287.751C287.735 9.39794 287.722 9.38211 287.722 9.3627C287.722 9.34335 287.735 9.32751 287.751 9.32751Z" fill="#FFFF00" stroke="black" stroke-width="0.03"/>
<path d="M287.996 8.80104L288.056 8.80114V8.84471H288.1V8.80017L288.161 8.80037V8.84473H288.205V8.80019H288.266L288.266 8.90078C288.266 8.91657 288.253 8.9268 288.239 8.9268H288.024C288.01 8.9268 287.996 8.91494 287.996 8.90047L287.996 8.80108H287.996L287.996 8.80104Z" fill="#FFFF00" stroke="black" stroke-width="0.03"/>
<path d="M288.221 8.93773L288.234 9.2603L288.025 9.2595L288.039 8.93689L288.221 8.93773" fill="#FFFF00"/>
<path d="M288.221 8.93773L288.234 9.2603L288.025 9.2595L288.039 8.93689L288.221 8.93773" stroke="black" stroke-width="0.03"/>
<path d="M287.965 9.08663L287.972 9.2605L287.771 9.2606L287.776 9.08664H287.966H287.965L287.965 9.08663Z" fill="#FFFF00" stroke="black" stroke-width="0.03"/>
<path d="M287.739 8.95729L287.798 8.95744V9.00105H287.84V8.95642L287.9 8.95662V9.00107H287.943V8.95644L288.003 8.95654L288.003 9.05713C288.003 9.07283 287.991 9.08306 287.977 9.08306H287.766C287.752 9.08306 287.739 9.07129 287.739 9.05678L287.739 8.95734H287.739L287.739 8.95729Z" fill="#FFFF00" stroke="black" stroke-width="0.03"/>
<path d="M288.109 9.03866C288.108 9.00731 288.152 9.00696 288.151 9.03866V9.11548H288.109V9.03868" fill="black"/>
<path d="M287.85 9.14854C287.85 9.11825 287.891 9.11763 287.89 9.14854V9.2079H287.85V9.14855" fill="black"/>
<path d="M287.928 12.593C287.934 12.3169 288.125 12.2516 288.127 12.2506C288.128 12.2497 288.333 12.321 288.332 12.5955L287.928 12.593" fill="#FFFF00"/>
<path d="M287.763 12.2591L287.729 12.5763L287.931 12.5768C287.933 12.3143 288.125 12.2707 288.13 12.2716C288.134 12.2714 288.324 12.3297 288.329 12.5768H288.532L288.495 12.2571L287.763 12.259V12.2591L287.763 12.2591Z" fill="#FFFF00" stroke="black" stroke-width="0.03"/>
<path d="M287.717 12.5761H288.543C288.56 12.5761 288.574 12.5938 288.574 12.6153C288.574 12.6369 288.56 12.6544 288.543 12.6544H287.717C287.699 12.6544 287.685 12.6369 287.685 12.6153C287.685 12.5938 287.699 12.5761 287.717 12.5761Z" fill="#FFFF00" stroke="black" stroke-width="0.03"/>
<path d="M288.017 12.5737C288.018 12.4081 288.127 12.3612 288.128 12.3613C288.128 12.3613 288.242 12.4096 288.243 12.5737H288.017" fill="#FFFF00"/>
<path d="M288.017 12.5737C288.018 12.4081 288.127 12.3612 288.128 12.3613C288.128 12.3613 288.242 12.4096 288.243 12.5737H288.017" stroke="black" stroke-width="0.03"/>
<path d="M287.734 12.1269H288.526C288.543 12.1269 288.557 12.1428 288.557 12.1621C288.557 12.1815 288.543 12.1974 288.526 12.1974H287.734C287.718 12.1974 287.704 12.1816 287.704 12.1621C287.704 12.1428 287.718 12.1269 287.734 12.1269Z" fill="#FFFF00" stroke="black" stroke-width="0.03"/>
<path d="M287.751 12.192H288.508C288.524 12.192 288.537 12.2078 288.537 12.2272C288.537 12.2466 288.524 12.2624 288.508 12.2624H287.751C287.735 12.2624 287.722 12.2466 287.722 12.2272C287.722 12.2078 287.735 12.192 287.751 12.192Z" fill="#FFFF00" stroke="black" stroke-width="0.03"/>
<path d="M287.996 11.6655L288.056 11.6656V11.7092H288.1V11.6647L288.161 11.6649V11.7092H288.205V11.6647H288.266L288.266 11.7653C288.266 11.7811 288.253 11.7913 288.239 11.7913H288.024C288.01 11.7913 287.996 11.7794 287.996 11.765L287.996 11.6656H287.996L287.996 11.6655Z" fill="#FFFF00" stroke="black" stroke-width="0.03"/>
<path d="M288.221 11.8022L288.234 12.1248L288.025 12.124L288.039 11.8014L288.221 11.8022" fill="#FFFF00"/>
<path d="M288.221 11.8022L288.234 12.1248L288.025 12.124L288.039 11.8014L288.221 11.8022" stroke="black" stroke-width="0.03"/>
<path d="M287.965 11.9511L287.972 12.125L287.771 12.1251L287.776 11.9511H287.966H287.965L287.965 11.9511Z" fill="#FFFF00" stroke="black" stroke-width="0.03"/>
<path d="M287.739 11.8218L287.798 11.8219V11.8655H287.84V11.8209L287.9 11.8211V11.8656H287.943V11.8209L288.003 11.821L288.003 11.9216C288.003 11.9373 287.991 11.9476 287.977 11.9476H287.766C287.752 11.9476 287.739 11.9358 287.739 11.9213L287.739 11.8218H287.739L287.739 11.8218Z" fill="#FFFF00" stroke="black" stroke-width="0.03"/>
<path d="M288.109 11.9032C288.108 11.8718 288.152 11.8715 288.151 11.9032V11.98H288.109V11.9032" fill="black"/>
<path d="M287.85 12.0131C287.85 11.9829 287.891 11.9822 287.89 12.0131V12.0725H287.85V12.0132" fill="black"/>
<path d="M287.184 14.1046C287.398 13.9377 287.567 14.0501 287.569 14.0506C287.57 14.0511 287.644 14.2599 287.434 14.4305L287.184 14.1046" fill="#FFFF00"/>
<path d="M287.335 13.7661L287.073 13.9373L287.198 14.0994C287.399 13.9373 287.552 14.0638 287.554 14.0681C287.557 14.0715 287.632 14.2602 287.446 14.4184L287.573 14.5807L287.793 14.352L287.335 13.766L287.335 13.7661L287.335 13.7661Z" fill="#FFFF00" stroke="black" stroke-width="0.03"/>
<path d="M287.064 13.9263L287.579 14.5887C287.59 14.6026 287.586 14.625 287.569 14.6385C287.553 14.6519 287.531 14.6514 287.52 14.6375L287.005 13.9751C286.994 13.9612 286.998 13.9388 287.015 13.9254C287.031 13.912 287.053 13.9124 287.064 13.9263Z" fill="#FFFF00" stroke="black" stroke-width="0.03"/>
<path d="M287.254 14.1635C287.381 14.061 287.485 14.1194 287.485 14.1199C287.485 14.12 287.519 14.2416 287.395 14.3447L287.254 14.1635" fill="#FFFF00"/>
<path d="M287.254 14.1635C287.381 14.061 287.485 14.1194 287.485 14.1199C287.485 14.12 287.519 14.2416 287.395 14.3447L287.254 14.1635" stroke="black" stroke-width="0.03"/>
<path d="M287.419 13.6583L287.913 14.2932C287.923 14.3066 287.92 14.3275 287.905 14.3395C287.89 14.3516 287.87 14.3505 287.859 14.3372L287.365 13.7022C287.355 13.6888 287.358 13.668 287.373 13.6559C287.388 13.6439 287.409 13.6449 287.419 13.6583Z" fill="#FFFF00" stroke="black" stroke-width="0.03"/>
<path d="M287.378 13.7125L287.851 14.3198C287.861 14.3326 287.857 14.353 287.842 14.3651C287.827 14.3772 287.807 14.3766 287.797 14.3638L287.325 13.7565C287.315 13.7437 287.319 13.7233 287.334 13.7112C287.348 13.6991 287.369 13.6997 287.378 13.7125Z" fill="#FFFF00" stroke="black" stroke-width="0.03"/>
<path d="M287.933 13.5792L287.97 13.6272L287.937 13.6544L287.964 13.6894L287.998 13.6616L288.036 13.7108L288.002 13.7385L288.029 13.7736L288.063 13.7458L288.102 13.795L288.025 13.8576C288.013 13.8675 287.997 13.8639 287.988 13.8524L287.854 13.68C287.845 13.6684 287.846 13.6503 287.857 13.6413L287.933 13.5792L287.933 13.5792L287.933 13.5792Z" fill="#FFFF00" stroke="black" stroke-width="0.03"/>
<path d="M287.969 13.8471L287.732 14.0591L287.602 13.8905L287.856 13.7004L287.969 13.8471" fill="#FFFF00"/>
<path d="M287.969 13.8471L287.732 14.0591L287.602 13.8905L287.856 13.7004L287.969 13.8471" stroke="black" stroke-width="0.03"/>
<path d="M287.696 13.7347L287.567 13.8483L287.442 13.6871L287.578 13.5832L287.696 13.7347L287.696 13.7347L287.696 13.7347Z" fill="#FFFF00" stroke="black" stroke-width="0.03"/>
<path d="M287.653 13.4718L287.69 13.5187L287.656 13.5459L287.683 13.5802L287.717 13.5524L287.754 13.6006L287.72 13.6283L287.747 13.6627L287.781 13.6348L287.819 13.683L287.742 13.7456C287.73 13.7554 287.714 13.7521 287.706 13.7408L287.575 13.5721C287.566 13.5608 287.567 13.543 287.578 13.5339L287.653 13.4717L287.653 13.4718L287.653 13.4718Z" fill="#FFFF00" stroke="black" stroke-width="0.03"/>
<path d="M287.823 13.8212C287.846 13.8006 287.874 13.8357 287.85 13.8551L287.791 13.903L287.765 13.8691L287.823 13.8212" fill="black"/>
<path d="M287.576 13.6808C287.599 13.6618 287.625 13.6942 287.601 13.7131L287.556 13.7501L287.531 13.7178L287.576 13.6808" fill="black"/>
<path d="M284.59 14.7737C284.407 14.5719 284.498 14.3881 284.499 14.3864C284.499 14.3848 284.694 14.2885 284.881 14.485L284.59 14.7737" fill="#FFFF00"/>
<path d="M284.247 14.6532L284.44 14.9036L284.584 14.7589C284.406 14.5701 284.513 14.4012 284.517 14.3986C284.52 14.3953 284.696 14.3003 284.868 14.4731L285.013 14.3277L284.768 14.1258L284.247 14.6532L284.247 14.6532L284.247 14.6532Z" fill="#FFFF00" stroke="black" stroke-width="0.03"/>
<path d="M284.43 14.9139L285.02 14.3205C285.032 14.308 285.054 14.3104 285.069 14.3258C285.084 14.3411 285.086 14.3639 285.073 14.3764L284.483 14.9698C284.471 14.9823 284.449 14.98 284.434 14.9646C284.419 14.9492 284.418 14.9264 284.43 14.9139Z" fill="#FFFF00" stroke="black" stroke-width="0.03"/>
<path d="M284.641 14.6944C284.529 14.5755 284.575 14.4635 284.575 14.4631C284.575 14.4631 284.69 14.4156 284.803 14.5321L284.641 14.6944" fill="#FFFF00"/>
<path d="M284.641 14.6944C284.529 14.5755 284.575 14.4635 284.575 14.4631C284.575 14.4631 284.69 14.4156 284.803 14.5321L284.641 14.6944" stroke="black" stroke-width="0.03"/>
<path d="M284.134 14.5793L284.699 14.0105C284.711 13.9985 284.732 14.0001 284.745 14.0138C284.758 14.0277 284.759 14.0488 284.747 14.0608L284.182 14.6296C284.17 14.6416 284.15 14.6402 284.136 14.6263C284.123 14.6125 284.122 14.5913 284.134 14.5793Z" fill="#FFFF00" stroke="black" stroke-width="0.03"/>
<path d="M284.19 14.6162L284.731 14.0721C284.742 14.0607 284.762 14.0626 284.775 14.0764C284.789 14.0902 284.79 14.1109 284.779 14.1224L284.238 14.6665C284.227 14.6779 284.207 14.676 284.193 14.6621C284.18 14.6483 284.179 14.6276 284.19 14.6162Z" fill="#FFFF00" stroke="black" stroke-width="0.03"/>
<path d="M284.003 14.0647L284.046 14.0218L284.076 14.0529L284.107 14.0216L284.077 13.9898L284.12 13.9459L284.151 13.9776L284.182 13.9461L284.152 13.9143L284.195 13.8703L284.264 13.9422C284.275 13.9534 284.273 13.9696 284.263 13.98L284.109 14.1344C284.099 14.1448 284.081 14.1459 284.071 14.1356L284.003 14.0648L284.003 14.0647L284.003 14.0647Z" fill="#FFFF00" stroke="black" stroke-width="0.03"/>
<path d="M284.261 13.9987L284.491 14.2193L284.34 14.3694L284.13 14.1291L284.261 13.9987" fill="#FFFF00"/>
<path d="M284.261 13.9987L284.491 14.2193L284.34 14.3694L284.13 14.1291L284.261 13.9987" stroke="black" stroke-width="0.03"/>
<path d="M284.18 14.2886L284.303 14.4082L284.16 14.5527L284.045 14.4244L284.18 14.2886L284.18 14.2886L284.18 14.2886Z" fill="#FFFF00" stroke="black" stroke-width="0.03"/>
<path d="M283.929 14.3607L283.971 14.3188L284 14.3499L284.031 14.3192L284 14.2874L284.043 14.2445L284.074 14.2762L284.104 14.2454L284.074 14.2135L284.117 14.1705L284.185 14.2424C284.196 14.2536 284.194 14.2696 284.184 14.2797L284.034 14.4308C284.024 14.441 284.007 14.442 283.997 14.4317L283.929 14.3608L283.929 14.3608L283.929 14.3607Z" fill="#FFFF00" stroke="black" stroke-width="0.03"/>
<path d="M284.251 14.1525C284.228 14.131 284.259 14.0992 284.281 14.1222L284.333 14.177L284.303 14.2073L284.251 14.1525" fill="black"/>
<path d="M284.139 14.4159C284.118 14.3944 284.147 14.3645 284.168 14.3869L284.208 14.4293L284.18 14.4582L284.139 14.4159" fill="black"/>
<path d="M285.537 12.1217V12.1219C285.537 12.2325 285.578 12.3333 285.645 12.4064C285.711 12.4797 285.803 12.5253 285.903 12.5253C286.004 12.5253 286.096 12.48 286.162 12.407C286.228 12.3341 286.269 12.2334 286.269 12.1224V11.584L285.538 11.5833L285.537 12.1216" fill="#003399"/>
<path d="M285.705 11.8625C285.745 11.8625 285.777 11.8292 285.777 11.7882C285.777 11.7471 285.745 11.7139 285.705 11.7139C285.665 11.7139 285.632 11.7471 285.632 11.7882C285.632 11.8292 285.665 11.8625 285.705 11.8625Z" fill="white"/>
<path d="M286.109 11.8622C286.149 11.8622 286.182 11.8289 286.182 11.7879C286.182 11.7468 286.149 11.7136 286.109 11.7136C286.069 11.7136 286.037 11.7468 286.037 11.7879C286.037 11.8289 286.069 11.8622 286.109 11.8622Z" fill="white"/>
<path d="M285.906 12.064C285.946 12.064 285.979 12.0307 285.979 11.9897C285.979 11.9487 285.946 11.9154 285.906 11.9154C285.866 11.9154 285.834 11.9487 285.834 11.9897C285.834 12.0307 285.866 12.064 285.906 12.064Z" fill="white"/>
<path d="M285.705 12.2723C285.745 12.2723 285.777 12.2391 285.777 12.198C285.777 12.157 285.745 12.1237 285.705 12.1237C285.665 12.1237 285.632 12.157 285.632 12.198C285.632 12.2391 285.665 12.2723 285.705 12.2723Z" fill="white"/>
<path d="M286.109 12.2723C286.149 12.2723 286.182 12.2391 286.182 12.198C286.182 12.157 286.149 12.1237 286.109 12.1237C286.069 12.1237 286.037 12.157 286.037 12.198C286.037 12.2391 286.069 12.2723 286.109 12.2723Z" fill="white"/>
<path d="M285.57 13.4057V13.406C285.57 13.5166 285.612 13.6174 285.678 13.6905C285.745 13.7638 285.836 13.8093 285.937 13.8093C286.037 13.8093 286.129 13.7641 286.195 13.6911C286.261 13.6181 286.303 13.5175 286.303 13.4064V12.868L285.572 12.8674L285.57 13.4057" fill="#003399"/>
<path d="M285.738 13.1462C285.778 13.1462 285.81 13.1129 285.81 13.0719C285.81 13.0309 285.778 12.9976 285.738 12.9976C285.698 12.9976 285.666 13.0309 285.666 13.0719C285.666 13.1129 285.698 13.1462 285.738 13.1462Z" fill="white"/>
<path d="M286.144 13.1462C286.184 13.1462 286.217 13.1129 286.217 13.0719C286.217 13.0309 286.184 12.9976 286.144 12.9976C286.104 12.9976 286.072 13.0309 286.072 13.0719C286.072 13.1129 286.104 13.1462 286.144 13.1462Z" fill="white"/>
<path d="M285.941 13.348C285.981 13.348 286.014 13.3148 286.014 13.2737C286.014 13.2327 285.981 13.1994 285.941 13.1994C285.901 13.1994 285.869 13.2327 285.869 13.2737C285.869 13.3148 285.901 13.348 285.941 13.348Z" fill="white"/>
<path d="M285.738 13.5564C285.778 13.5564 285.81 13.5231 285.81 13.4821C285.81 13.441 285.778 13.4078 285.738 13.4078C285.698 13.4078 285.666 13.441 285.666 13.4821C285.666 13.5231 285.698 13.5564 285.738 13.5564Z" fill="white"/>
<path d="M286.143 13.5564C286.183 13.5564 286.215 13.5231 286.215 13.4821C286.215 13.441 286.183 13.4078 286.143 13.4078C286.103 13.4078 286.07 13.441 286.07 13.4821C286.07 13.5231 286.103 13.5564 286.143 13.5564Z" fill="white"/>
<path d="M286.562 12.1217V12.1219C286.562 12.2325 286.603 12.3333 286.67 12.4064C286.736 12.4797 286.828 12.5253 286.928 12.5253C287.029 12.5253 287.12 12.48 287.187 12.407C287.253 12.3341 287.294 12.2334 287.294 12.1224V11.584L286.563 11.5834L286.562 12.1217" fill="#003399"/>
<path d="M286.729 11.8625C286.769 11.8625 286.802 11.8292 286.802 11.7882C286.802 11.7471 286.769 11.7139 286.729 11.7139C286.689 11.7139 286.657 11.7471 286.657 11.7882C286.657 11.8292 286.689 11.8625 286.729 11.8625Z" fill="white"/>
<path d="M287.134 11.8622C287.174 11.8622 287.207 11.8289 287.207 11.7879C287.207 11.7468 287.174 11.7136 287.134 11.7136C287.094 11.7136 287.062 11.7468 287.062 11.7879C287.062 11.8289 287.094 11.8622 287.134 11.8622Z" fill="white"/>
<path d="M286.931 12.064C286.971 12.064 287.003 12.0307 287.003 11.9897C287.003 11.9487 286.971 11.9154 286.931 11.9154C286.891 11.9154 286.859 11.9487 286.859 11.9897C286.859 12.0307 286.891 12.064 286.931 12.064Z" fill="white"/>
<path d="M286.729 12.2723C286.769 12.2723 286.802 12.2391 286.802 12.198C286.802 12.157 286.769 12.1237 286.729 12.1237C286.689 12.1237 286.657 12.157 286.657 12.198C286.657 12.2391 286.689 12.2723 286.729 12.2723Z" fill="white"/>
<path d="M287.134 12.2723C287.174 12.2723 287.207 12.2391 287.207 12.198C287.207 12.157 287.174 12.1237 287.134 12.1237C287.094 12.1237 287.062 12.157 287.062 12.198C287.062 12.2391 287.094 12.2723 287.134 12.2723Z" fill="white"/>
<path d="M284.435 12.1217V12.1219C284.435 12.2325 284.476 12.3333 284.542 12.4064C284.609 12.4797 284.701 12.5253 284.801 12.5253C284.902 12.5253 284.993 12.48 285.059 12.407C285.126 12.3341 285.167 12.2334 285.167 12.1224V11.584L284.436 11.5834L284.435 12.1217" fill="#003399"/>
<path d="M284.602 11.8625C284.642 11.8625 284.675 11.8292 284.675 11.7882C284.675 11.7471 284.642 11.7139 284.602 11.7139C284.562 11.7139 284.53 11.7471 284.53 11.7882C284.53 11.8292 284.562 11.8625 284.602 11.8625Z" fill="white"/>
<path d="M285.008 11.8622C285.048 11.8622 285.081 11.8289 285.081 11.7879C285.081 11.7468 285.048 11.7136 285.008 11.7136C284.968 11.7136 284.936 11.7468 284.936 11.7879C284.936 11.8289 284.968 11.8622 285.008 11.8622Z" fill="white"/>
<path d="M284.805 12.064C284.845 12.064 284.878 12.0307 284.878 11.9897C284.878 11.9487 284.845 11.9154 284.805 11.9154C284.765 11.9154 284.733 11.9487 284.733 11.9897C284.733 12.0307 284.765 12.064 284.805 12.064Z" fill="white"/>
<path d="M284.602 12.2723C284.642 12.2723 284.675 12.2391 284.675 12.198C284.675 12.157 284.642 12.1237 284.602 12.1237C284.562 12.1237 284.53 12.157 284.53 12.198C284.53 12.2391 284.562 12.2723 284.602 12.2723Z" fill="white"/>
<path d="M285.007 12.2723C285.047 12.2723 285.079 12.2391 285.079 12.198C285.079 12.157 285.047 12.1237 285.007 12.1237C284.967 12.1237 284.934 12.157 284.934 12.198C284.934 12.2391 284.967 12.2723 285.007 12.2723Z" fill="white"/>
<path d="M285.538 10.8717V10.8719C285.538 10.9825 285.58 11.0833 285.646 11.1564C285.712 11.2297 285.804 11.2753 285.904 11.2753C286.005 11.2753 286.097 11.23 286.163 11.157C286.229 11.0841 286.27 10.9834 286.27 10.8724V10.334L285.539 10.3334L285.538 10.8717" fill="#003399"/>
<path d="M285.706 10.6125C285.746 10.6125 285.778 10.5792 285.778 10.5382C285.778 10.4971 285.746 10.4639 285.706 10.4639C285.666 10.4639 285.633 10.4971 285.633 10.5382C285.633 10.5792 285.666 10.6125 285.706 10.6125Z" fill="white"/>
<path d="M286.112 10.6122C286.152 10.6122 286.184 10.5789 286.184 10.5379C286.184 10.4968 286.152 10.4636 286.112 10.4636C286.072 10.4636 286.04 10.4968 286.04 10.5379C286.04 10.5789 286.072 10.6122 286.112 10.6122Z" fill="white"/>
<path d="M285.909 10.814C285.949 10.814 285.981 10.7807 285.981 10.7397C285.981 10.6987 285.949 10.6654 285.909 10.6654C285.869 10.6654 285.836 10.6987 285.836 10.7397C285.836 10.7807 285.869 10.814 285.909 10.814Z" fill="white"/>
<path d="M285.706 11.0223C285.746 11.0223 285.778 10.9891 285.778 10.948C285.778 10.907 285.746 10.8737 285.706 10.8737C285.666 10.8737 285.633 10.907 285.633 10.948C285.633 10.9891 285.666 11.0223 285.706 11.0223Z" fill="white"/>
<path d="M286.11 11.0223C286.15 11.0223 286.183 10.9891 286.183 10.948C286.183 10.907 286.15 10.8737 286.11 10.8737C286.07 10.8737 286.038 10.907 286.038 10.948C286.038 10.9891 286.07 11.0223 286.11 11.0223Z" fill="white"/>
<path fill-rule="evenodd" clip-rule="evenodd" d="M271 120C271 118.895 271.895 118 273 118H299C300.105 118 301 118.895 301 120V140C301 141.105 300.105 142 299 142H273C271.895 142 271 141.105 271 140V120ZM273 120V140H299V120H273Z" fill="#B5B5B5"/>
<path d="M299 119H273V138H299V119Z" fill="#D84A4A"/>
<path d="M299 138H273V140H299V138Z" fill="#FCFCFC"/>
<path d="M290 119H273V131H290V119Z" fill="#4A4A91"/>
<path d="M279.49 121C277.012 121 275 122.792 275 125C275 127.208 277.012 129 279.49 129C280.386 129 281.22 128.766 281.92 128.363C281.512 128.489 281.075 128.558 280.619 128.558C278.421 128.558 276.637 126.969 276.637 125.011C276.637 123.053 278.421 121.464 280.619 121.464C281.104 121.464 281.57 121.542 282 121.684C281.283 121.252 280.419 121 279.49 121Z" fill="#FCD84A"/>
<path d="M287.203 127.499L285.174 126.44L285.774 128.607L284.417 126.794L283.994 129L283.577 126.793L282.215 128.601L282.821 126.437L280.789 127.489L282.299 125.796L280 125.884L282.113 124.997L280.003 124.104L282.301 124.199L280.797 122.501L282.826 123.56L282.226 121.393L283.583 123.206L284.006 121L284.423 123.207L285.785 121.399L285.179 123.563L287.211 122.511L285.701 124.204L288 124.116L285.887 125.003L287.997 125.896L285.699 125.801L287.203 127.499Z" fill="#FCD84A"/>
<path fill-rule="evenodd" clip-rule="evenodd" d="M271 81C271 79.8954 271.895 79 273 79H299C300.105 79 301 79.8954 301 81V101C301 102.105 300.105 103 299 103H273C271.895 103 271 102.105 271 101V81ZM273 81V101H299V81H273Z" fill="#B5B5B5"/>
<path fill-rule="evenodd" clip-rule="evenodd" d="M273 81H299V101H273V81Z" fill="#FB4A4A"/>
<path fill-rule="evenodd" clip-rule="evenodd" d="M273 81H287V91H273V81Z" fill="#4A4AB2"/>
<path d="M280 82L278 89.4641L283.464 84L276 86L283.464 88L278 82.5359L280 90L282 82.5359L276.536 88L284 86L276.536 84L282 89.4641L280 82Z" fill="#FCFCFC"/>
<path fill-rule="evenodd" clip-rule="evenodd" d="M280 87.3333C280.736 87.3333 281.333 86.7364 281.333 86C281.333 85.2636 280.736 84.6667 280 84.6667C279.264 84.6667 278.667 85.2636 278.667 86C278.667 86.7364 279.264 87.3333 280 87.3333ZM282 86C282 87.1046 281.105 88 280 88C278.895 88 278 87.1046 278 86C278 84.8954 278.895 84 280 84C281.105 84 282 84.8954 282 86Z" fill="#4A4AB2"/>
<path d="M273 42V62H299V42H273Z" fill="#DB5349"/>
<path fill-rule="evenodd" clip-rule="evenodd" d="M272.39 61.2074L298.39 41.2074L299.61 42.7926L273.61 62.7926L272.39 61.2074Z" fill="#31AD6B"/>
<path fill-rule="evenodd" clip-rule="evenodd" d="M299.61 61.2074L273.61 41.2074L272.39 42.7926L298.39 62.7926L299.61 61.2074Z" fill="#31AD6B"/>
<path d="M286 42V62ZM273 52.28H299Z" fill="black"/>
<path fill-rule="evenodd" clip-rule="evenodd" d="M285 51V42H287V51H299V53H287V62H285V53H273V51H285Z" fill="#FDFDFD"/>
<path fill-rule="evenodd" clip-rule="evenodd" d="M271 42C271 40.8954 271.895 40 273 40H299C300.105 40 301 40.8954 301 42V62C301 63.1046 300.105 64 299 64H273C271.895 64 271 63.1046 271 62V42ZM273 42V62H299V42H273Z" fill="#B5B5B5"/>
<path d="M299 161H273V181H299V161Z" fill="#F3BF4A"/>
<path d="M299 161H273V174H299V161Z" fill="#4A6DB9"/>
<path d="M299 161H273V168H299V161Z" fill="#E14A56"/>
<path fill-rule="evenodd" clip-rule="evenodd" d="M271 161C271 159.895 271.895 159 273 159H299C300.105 159 301 159.895 301 161V181C301 182.105 300.105 183 299 183H273C271.895 183 271 182.105 271 181V161ZM273 161V181H299V161H273Z" fill="#B5B5B5"/>
</svg>
