<svg width="419" height="204" viewBox="0 0 419 204" fill="none" xmlns="http://www.w3.org/2000/svg">
<path d="M414.867 148H323.133C320.814 148 319 146.189 319 143.875V22.1254C319 19.8111 320.814 18 323.133 18H414.867C417.185 18 419 19.8111 419 22.1254V143.875C419 146.189 417.185 148 414.867 148Z" fill="white"/>
<path fill-rule="evenodd" clip-rule="evenodd" d="M323.133 147H414.867C416.635 147 418 145.635 418 143.875V22.1254C418 20.3652 416.635 19 414.867 19H323.133C321.365 19 320 20.3652 320 22.1254V143.875C320 145.635 321.365 147 323.133 147ZM323.133 148H414.867C417.185 148 419 146.189 419 143.875V22.1254C419 19.8111 417.185 18 414.867 18H323.133C320.814 18 319 19.8111 319 22.1254V143.875C319 146.189 320.814 148 323.133 148Z" fill="#CCCCCC"/>
<path opacity="0.5" d="M410.662 43H329.338C328.618 43 328 42.3077 328 41.5C328 40.6923 328.618 40 329.338 40H410.662C411.382 40 412 40.6923 412 41.5C412 42.3077 411.382 43 410.662 43Z" fill="#CCCCCC"/>
<path opacity="0.5" d="M410.662 81H329.338C328.618 81 328 80.3077 328 79.5C328 78.6923 328.618 78 329.338 78H410.662C411.382 78 412 78.6923 412 79.5C412 80.3077 411.382 81 410.662 81Z" fill="#CCCCCC"/>
<path opacity="0.5" d="M410.662 119H329.338C328.618 119 328 118.308 328 117.5C328 116.692 328.618 116 329.338 116H410.662C411.382 116 412 116.692 412 117.5C412 118.308 411.382 119 410.662 119Z" fill="#CCCCCC"/>
<path opacity="0.5" d="M410.662 50H329.338C328.618 50 328 49.3077 328 48.5C328 47.6923 328.618 47 329.338 47H410.662C411.382 47 412 47.6923 412 48.5C412 49.3077 411.382 50 410.662 50Z" fill="#CCCCCC"/>
<path opacity="0.5" d="M410.662 88H329.338C328.618 88 328 87.3077 328 86.5C328 85.6923 328.618 85 329.338 85H410.662C411.382 85 412 85.6923 412 86.5C412 87.3077 411.382 88 410.662 88Z" fill="#CCCCCC"/>
<path opacity="0.5" d="M410.662 126H329.338C328.618 126 328 125.308 328 124.5C328 123.692 328.618 123 329.338 123H410.662C411.382 123 412 123.692 412 124.5C412 125.308 411.382 126 410.662 126Z" fill="#CCCCCC"/>
<path opacity="0.5" d="M410.662 57H329.338C328.618 57 328 56.3077 328 55.5C328 54.6923 328.618 54 329.338 54H410.662C411.382 54 412 54.6923 412 55.5C412 56.3077 411.382 57 410.662 57Z" fill="#CCCCCC"/>
<path opacity="0.5" d="M410.662 95H329.338C328.618 95 328 94.3077 328 93.5C328 92.6923 328.618 92 329.338 92H410.662C411.382 92 412 92.6923 412 93.5C412 94.3077 411.382 95 410.662 95Z" fill="#CCCCCC"/>
<path opacity="0.5" d="M410.662 133H329.338C328.618 133 328 132.308 328 131.5C328 130.692 328.618 130 329.338 130H410.662C411.382 130 412 130.692 412 131.5C412 132.308 411.382 133 410.662 133Z" fill="#CCCCCC"/>
<path opacity="0.5" d="M410.662 64H329.338C328.618 64 328 63.3077 328 62.5C328 61.6923 328.618 61 329.338 61H410.662C411.382 61 412 61.6923 412 62.5C412 63.3077 411.382 64 410.662 64Z" fill="#CCCCCC"/>
<path opacity="0.5" d="M410.662 102H329.338C328.618 102 328 101.308 328 100.5C328 99.6923 328.618 99 329.338 99H410.662C411.382 99 412 99.6923 412 100.5C412 101.308 411.382 102 410.662 102Z" fill="#CCCCCC"/>
<path opacity="0.5" d="M410.662 140H329.338C328.618 140 328 139.308 328 138.5C328 137.692 328.618 137 329.338 137H410.662C411.382 137 412 137.692 412 138.5C412 139.308 411.382 140 410.662 140Z" fill="#CCCCCC"/>
<path d="M25.5 181.5V153.5H67.5V181.5H25.5Z" fill="white" stroke="#CCCCCC" stroke-linecap="round" stroke-linejoin="round"/>
<path d="M66.5926 181.5H26.4074L46.5 165.162L66.5926 181.5Z" fill="white" stroke="#CCCCCC" stroke-linecap="round" stroke-linejoin="round"/>
<path d="M26.2597 153.5H66.7403L46.5 172.572L26.2597 153.5Z" fill="white" stroke="#CCCCCC" stroke-linecap="round" stroke-linejoin="round"/>
<path d="M239.399 27.5816C239.539 27.5989 239.679 27.5566 239.786 27.4651C239.893 27.3735 239.956 27.2412 239.96 27.1006C240.362 13.96 251.193 3.5 264.544 3.5C274.778 3.5 283.61 9.77523 287.322 18.6403C287.42 18.8736 287.677 18.9972 287.92 18.9282C289.306 18.5351 290.796 18.3374 292.288 18.3374C301.844 18.3374 309.5 25.9422 309.5 35.4187C309.5 44.8952 301.844 52.5 292.288 52.5H237.106C230.11 52.5 224.501 46.9277 224.501 39.9919L224.501 39.9849C224.403 32.9567 230.106 27.3821 237.106 27.3821C237.809 27.3821 238.432 27.4603 239.155 27.5511C239.235 27.5611 239.316 27.5713 239.399 27.5816Z" fill="white" stroke="#CCCCCC" stroke-linecap="round" stroke-linejoin="round"/>
<path d="M209.5 17C209.5 26.1127 202.113 33.5 193 33.5C183.887 33.5 176.5 26.1127 176.5 17C176.5 7.8873 183.887 0.5 193 0.5C202.113 0.5 209.5 7.8873 209.5 17Z" fill="white" stroke="#CCCCCC" stroke-linecap="round" stroke-linejoin="round"/>
<path d="M192.871 4.8131C193.381 4.8131 193.795 4.40045 193.795 3.89141C193.795 3.38238 193.381 2.96973 192.871 2.96973C192.36 2.96973 191.946 3.38238 191.946 3.89141C191.946 4.40045 192.36 4.8131 192.871 4.8131Z" fill="#CCCCCC"/>
<path d="M186.194 6.65661C186.705 6.65661 187.119 6.24395 187.119 5.73492C187.119 5.22589 186.705 4.81323 186.194 4.81323C185.684 4.81323 185.27 5.22589 185.27 5.73492C185.27 6.24395 185.684 6.65661 186.194 6.65661Z" fill="#CCCCCC"/>
<path d="M181.264 11.5724C181.775 11.5724 182.189 11.1597 182.189 10.6507C182.189 10.1417 181.775 9.729 181.264 9.729C180.754 9.729 180.34 10.1417 180.34 10.6507C180.34 11.1597 180.754 11.5724 181.264 11.5724Z" fill="#CCCCCC"/>
<path d="M179.518 18.2289C180.029 18.2289 180.443 17.8162 180.443 17.3072C180.443 16.7982 180.029 16.3855 179.518 16.3855C179.008 16.3855 178.594 16.7982 178.594 17.3072C178.594 17.8162 179.008 18.2289 179.518 18.2289Z" fill="#CCCCCC"/>
<path d="M181.264 24.9879C181.775 24.9879 182.189 24.5753 182.189 24.0662C182.189 23.5572 181.775 23.1445 181.264 23.1445C180.754 23.1445 180.34 23.5572 180.34 24.0662C180.34 24.5753 180.754 24.9879 181.264 24.9879Z" fill="#CCCCCC"/>
<path d="M186.194 29.8014C186.705 29.8014 187.119 29.3887 187.119 28.8797C187.119 28.3707 186.705 27.958 186.194 27.958C185.684 27.958 185.27 28.3707 185.27 28.8797C185.27 29.3887 185.684 29.8014 186.194 29.8014Z" fill="#CCCCCC"/>
<path d="M192.871 31.6446C193.381 31.6446 193.795 31.232 193.795 30.723C193.795 30.2139 193.381 29.8013 192.871 29.8013C192.36 29.8013 191.946 30.2139 191.946 30.723C191.946 31.232 192.36 31.6446 192.871 31.6446Z" fill="#CCCCCC"/>
<path d="M199.65 29.8014C200.161 29.8014 200.574 29.3887 200.574 28.8797C200.574 28.3707 200.161 27.958 199.65 27.958C199.139 27.958 198.726 28.3707 198.726 28.8797C198.726 29.3887 199.139 29.8014 199.65 29.8014Z" fill="#CCCCCC"/>
<path d="M204.581 24.9879C205.091 24.9879 205.505 24.5753 205.505 24.0662C205.505 23.5572 205.091 23.1445 204.581 23.1445C204.07 23.1445 203.656 23.5572 203.656 24.0662C203.656 24.5753 204.07 24.9879 204.581 24.9879Z" fill="#CCCCCC"/>
<path d="M206.327 18.2289C206.837 18.2289 207.251 17.8162 207.251 17.3072C207.251 16.7982 206.837 16.3855 206.327 16.3855C205.816 16.3855 205.402 16.7982 205.402 17.3072C205.402 17.8162 205.816 18.2289 206.327 18.2289Z" fill="#CCCCCC"/>
<path d="M204.581 11.5724C205.091 11.5724 205.505 11.1597 205.505 10.6507C205.505 10.1417 205.091 9.729 204.581 9.729C204.07 9.729 203.656 10.1417 203.656 10.6507C203.656 11.1597 204.07 11.5724 204.581 11.5724Z" fill="#CCCCCC"/>
<path d="M199.65 6.65661C200.161 6.65661 200.574 6.24395 200.574 5.73492C200.574 5.22589 200.161 4.81323 199.65 4.81323C199.139 4.81323 198.726 5.22589 198.726 5.73492C198.726 6.24395 199.139 6.65661 199.65 6.65661Z" fill="#CCCCCC"/>
<path d="M192.666 7.37354V17.3073L197.904 23.0422" stroke="#CCCCCC" stroke-linecap="round" stroke-linejoin="round"/>
<path d="M304.975 194H306V192.977V51.2059C306 46.0915 301.9 42 296.776 42H89.2245C84.0998 42 80 46.0915 80 51.2059V192.977V194H81.0249H304.975Z" fill="#F5F5F5" stroke="#333333" stroke-width="2"/>
<path d="M307.657 203.5H76.9149C76.3434 203.5 75.3928 203.342 74.2636 203.038C73.1444 202.737 71.8856 202.301 70.7075 201.767C69.5251 201.231 68.4478 200.607 67.6746 199.936C67.1023 199.439 66.7409 198.956 66.5866 198.5H319.386C319.196 198.967 318.771 199.462 318.1 199.969C317.197 200.652 315.953 201.276 314.602 201.806C311.889 202.871 308.895 203.5 307.657 203.5Z" fill="#AAAAAA" stroke="#333333"/>
<path d="M89.0375 189.5H296.963C298.362 189.5 299.5 188.351 299.5 186.95V51.0498C299.5 49.6491 298.362 48.5 296.963 48.5H89.0375C87.6379 48.5 86.5 49.6491 86.5 51.0498V186.95C86.5 188.351 87.6379 189.5 89.0375 189.5Z" fill="white" stroke="#333333"/>
<path d="M68 193.5H318C319.381 193.5 320.5 194.619 320.5 196V197C320.5 198.381 319.381 199.5 318 199.5H68C66.6193 199.5 65.5 198.381 65.5 197V196C65.5 194.619 66.6193 193.5 68 193.5Z" fill="#F5F5F5" stroke="#333333"/>
<path d="M97 60.8376C98.1046 60.8376 99 59.9422 99 58.8376C99 57.7331 98.1046 56.8376 97 56.8376C95.8954 56.8376 95 57.7331 95 58.8376C95 59.9422 95.8954 60.8376 97 60.8376Z" fill="#CCCCCC"/>
<path d="M104 60.8376C105.105 60.8376 106 59.9422 106 58.8376C106 57.7331 105.105 56.8376 104 56.8376C102.895 56.8376 102 57.7331 102 58.8376C102 59.9422 102.895 60.8376 104 60.8376Z" fill="#CCCCCC"/>
<path d="M111 60.8376C112.105 60.8376 113 59.9422 113 58.8376C113 57.7331 112.105 56.8376 111 56.8376C109.895 56.8376 109 57.7331 109 58.8376C109 59.9422 109.895 60.8376 111 60.8376Z" fill="#CCCCCC"/>
<path d="M292.498 59.0425C292.499 59.0284 292.5 59.0142 292.5 59C292.5 57.6125 291.342 56.5 289.951 56.5H119.049C117.658 56.5 116.5 57.6125 116.5 59C116.5 60.3875 117.658 61.5 119.049 61.5H289.951C291.365 61.5 292.376 60.4733 292.498 59.0425Z" fill="white" stroke="#CCCCCC" stroke-linecap="round" stroke-linejoin="round"/>
<path fill-rule="evenodd" clip-rule="evenodd" d="M184.456 123H99.5444C96.4642 123 94 120.546 94 117.48V73.5204C94 70.4535 96.4642 68 99.5444 68H184.456C187.536 68 190 70.4535 190 73.5204V117.48C190 120.546 187.536 123 184.456 123Z" fill="#F0F0F0"/>
<path fill-rule="evenodd" clip-rule="evenodd" d="M186.916 135H97.0835C95.3362 135 94 133.6 94 132C94 130.3 95.439 129 97.0835 129H186.916C188.664 129 190 130.4 190 132C190 133.7 188.664 135 186.916 135Z" fill="#F0F0F0"/>
<path fill-rule="evenodd" clip-rule="evenodd" d="M186.916 147H97.0835C95.3362 147 94 145.6 94 144C94 142.3 95.439 141 97.0835 141H186.916C188.664 141 190 142.4 190 144C190 145.7 188.664 147 186.916 147Z" fill="#F0F0F0"/>
<path fill-rule="evenodd" clip-rule="evenodd" d="M186.916 159H97.0835C95.3362 159 94 157.6 94 156C94 154.3 95.439 153 97.0835 153H186.916C188.664 153 190 154.4 190 156C190 157.7 188.664 159 186.916 159Z" fill="#F0F0F0"/>
<path fill-rule="evenodd" clip-rule="evenodd" d="M186.916 171H97.0835C95.3362 171 94 169.6 94 168C94 166.3 95.439 165 97.0835 165H186.916C188.664 165 190 166.4 190 168C190 169.7 188.664 171 186.916 171Z" fill="#F0F0F0"/>
<path fill-rule="evenodd" clip-rule="evenodd" d="M186.916 183H97.0835C95.3362 183 94 181.6 94 180C94 178.3 95.439 177 97.0835 177H186.916C188.664 177 190 178.4 190 180C190 181.7 188.664 183 186.916 183Z" fill="#F0F0F0"/>
<path d="M21 60.5H20.7929L20.6464 60.6464L16.0033 65.2896C15.92 65.2048 15.8239 65.1071 15.7174 64.9988C15.3274 64.6025 14.7968 64.0642 14.2345 63.4967C13.1148 62.3669 11.8549 61.1067 11.3384 60.6319L11.1949 60.5H11H3.13281C2.18475 60.5 1.5 59.7065 1.5 59V42C1.5 41.6748 1.6719 41.3003 2.00002 40.9962C2.32383 40.6961 2.76404 40.5 3.23438 40.5H37.8672C38.8153 40.5 39.5 41.2935 39.5 42V59C39.5 59.7607 38.7611 60.5 37.7656 60.5H21Z" fill="white" stroke="#333333"/>
<path fill-rule="evenodd" clip-rule="evenodd" d="M21 48.5C21 48.2239 21.1819 48 21.4062 48H33.5938C33.8181 48 34 48.2239 34 48.5C34 48.7761 33.8181 49 33.5938 49H21.4062C21.1819 49 21 48.7761 21 48.5Z" fill="#333333"/>
<path fill-rule="evenodd" clip-rule="evenodd" d="M21 51.5C21 51.2239 21.1891 51 21.4223 51H29.5777C29.8109 51 30 51.2239 30 51.5C30 51.7761 29.8109 52 29.5777 52H21.4223C21.1891 52 21 51.7761 21 51.5Z" fill="#333333"/>
<path d="M375.794 176.5H205.206C203.122 176.5 201.5 174.879 201.5 172.799V73.2011C201.5 71.1211 203.122 69.5 205.206 69.5H375.794C377.878 69.5 379.5 71.1211 379.5 73.2011V172.696C379.5 174.784 377.768 176.5 375.794 176.5Z" fill="white" stroke="#333333"/>
<path d="M380 84H201V73.1275C201 70.8121 202.846 69 205.206 69H375.794C378.154 69 380 70.8121 380 73.1275V84Z" fill="#39784B"/>
<path fill-rule="evenodd" clip-rule="evenodd" d="M202 83H379V73.1275C379 71.382 377.619 70 375.794 70H205.206C203.381 70 202 71.382 202 73.1275V83ZM380 84V73.1275C380 70.8121 378.154 69 375.794 69H205.206C202.846 69 201 70.8121 201 73.1275V84H380Z" fill="#333333"/>
<path d="M202 96H379" stroke="#D0D0D0" stroke-miterlimit="10"/>
<path d="M202 106H379" stroke="#D0D0D0" stroke-miterlimit="10"/>
<path d="M202 116H379" stroke="#D0D0D0" stroke-miterlimit="10"/>
<path d="M202 126H379" stroke="#D0D0D0" stroke-miterlimit="10"/>
<path d="M202 137H379" stroke="#D0D0D0" stroke-miterlimit="10"/>
<path d="M202 147H379" stroke="#D0D0D0" stroke-miterlimit="10"/>
<path d="M202 157H379" stroke="#D0D0D0" stroke-miterlimit="10"/>
<path d="M202 168H379" stroke="#D0D0D0" stroke-miterlimit="10"/>
<path d="M221 85V176" stroke="#D0D0D0" stroke-miterlimit="10"/>
<path d="M244.982 85V176" stroke="#D0D0D0" stroke-miterlimit="10"/>
<path d="M267.966 85V176" stroke="#D0D0D0" stroke-miterlimit="10"/>
<path d="M291.051 85V176" stroke="#D0D0D0" stroke-miterlimit="10"/>
<path d="M314.034 85V176" stroke="#D0D0D0" stroke-miterlimit="10"/>
<path d="M337.017 85V176" stroke="#D0D0D0" stroke-miterlimit="10"/>
<path d="M360 85V176" stroke="#D0D0D0" stroke-miterlimit="10"/>
<path d="M314 96H221V107H314V96Z" fill="white"/>
<path fill-rule="evenodd" clip-rule="evenodd" d="M220 95H315V108H220V95ZM314 96V107H221V96H314Z" fill="#4FB000"/>
<path d="M230 101.5H257.322" stroke="#4FB000" stroke-miterlimit="10"/>
<path d="M276 101.5H303.425" stroke="#4FB000" stroke-miterlimit="10"/>
<path d="M314 116H221V126H314V116Z" fill="white"/>
<path fill-rule="evenodd" clip-rule="evenodd" d="M220 115H315V127H220V115ZM313.989 116V126H221.011V116H313.989Z" fill="#333333"/>
<path d="M230 121.5H257.322" stroke="#333333" stroke-miterlimit="10"/>
<path d="M276 121.5H303.425" stroke="#333333" stroke-miterlimit="10"/>
<path d="M314 137H221V147H314V137Z" fill="white"/>
<path fill-rule="evenodd" clip-rule="evenodd" d="M220 136H315V148H220V136ZM313.989 137V147H221.011V137H313.989Z" fill="#FF8700"/>
<path d="M230 142.5H257.322" stroke="#FF8700" stroke-miterlimit="10"/>
<path d="M276 142.5H303.425" stroke="#FF8700" stroke-miterlimit="10"/>
<path d="M400.369 186H329.631C328.113 186 327 184.785 327 183.368V130.632C327 129.113 328.214 128 329.631 128H400.369C401.887 128 403 129.215 403 130.632V183.368C403 184.785 401.887 186 400.369 186Z" fill="white"/>
<path fill-rule="evenodd" clip-rule="evenodd" d="M400.369 187H329.631C327.536 187 326 185.312 326 183.368V130.632C326 128.536 327.687 127 329.631 127H400.369C402.464 127 404 128.688 404 130.632V183.368C404 185.312 402.464 187 400.369 187ZM329.631 186H400.369C401.887 186 403 184.785 403 183.368V130.632C403 129.215 401.887 128 400.369 128H329.631C328.214 128 327 129.113 327 130.632V183.368C327 184.785 328.113 186 329.631 186Z" fill="#333333"/>
<path d="M332 182L357.621 146L373.569 168.834L384.887 157.417L396 182H332Z" fill="url(#paint0_linear)"/>
<path d="M379 150C382.314 150 385 147.314 385 144C385 140.686 382.314 138 379 138C375.686 138 373 140.686 373 144C373 147.314 375.686 150 379 150Z" fill="url(#paint1_linear)"/>
<path d="M5.11946 146.5H96.8805C99.4332 146.5 101.5 144.4 101.5 141.752V84.1444C101.5 81.5917 99.4252 79.5 96.8805 79.5H5.11946C2.57477 79.5 0.5 81.5917 0.5 84.1444V141.856C0.5 144.408 2.57477 146.5 5.11946 146.5Z" fill="white" stroke="#333333"/>
<path d="M56.8075 110.982L45.4783 104.323C43.9876 103.415 42 104.525 42 106.341V119.659C42 121.475 43.8882 122.585 45.4783 121.677L56.8075 115.018C58.3975 114.11 58.3975 111.89 56.8075 110.982Z" fill="url(#paint2_linear)"/>
<path d="M6 47.8C6 46.8059 6.80589 46 7.8 46H13.2C14.1941 46 15 46.8059 15 47.8V53.2C15 54.1941 14.1941 55 13.2 55H7.8C6.80589 55 6 54.1941 6 53.2V47.8Z" fill="#BDECFF"/>
<path fill-rule="evenodd" clip-rule="evenodd" d="M8.5 47C7.67157 47 7 47.6716 7 48.5V52.5C7 53.3284 7.67157 54 8.5 54H12.5C13.3284 54 14 53.3284 14 52.5V50.0556C14 49.7794 14.2239 49.5556 14.5 49.5556C14.7761 49.5556 15 49.7794 15 50.0556V52.5C15 53.8807 13.8807 55 12.5 55H8.5C7.11929 55 6 53.8807 6 52.5V48.5C6 47.1193 7.11929 46 8.5 46H10.9444C11.2206 46 11.4444 46.2239 11.4444 46.5C11.4444 46.7761 11.2206 47 10.9444 47H8.5Z" fill="#333333"/>
<path fill-rule="evenodd" clip-rule="evenodd" d="M15.8848 46.1398C16.0462 46.3174 16.0369 46.5958 15.864 46.7616L10.6304 52L8.13604 49.6079C7.96315 49.4421 7.9538 49.1637 8.11517 48.986C8.27653 48.8084 8.5475 48.7988 8.72039 48.9646L10.6304 50.7963L15.2796 46.1183C15.4525 45.9525 15.7235 45.9621 15.8848 46.1398Z" fill="#333333"/>
<defs>
<linearGradient id="paint0_linear" x1="332.007" y1="163.992" x2="395.969" y2="163.992" gradientUnits="userSpaceOnUse">
<stop stop-color="#FF6F3D"/>
<stop offset="1" stop-color="#FF8E3D"/>
</linearGradient>
<linearGradient id="paint1_linear" x1="373.017" y1="143.975" x2="384.961" y2="143.975" gradientUnits="userSpaceOnUse">
<stop stop-color="#FF6F3D"/>
<stop offset="1" stop-color="#FF8E3D"/>
</linearGradient>
<linearGradient id="paint2_linear" x1="42.0571" y1="113.03" x2="57.9889" y2="113.03" gradientUnits="userSpaceOnUse">
<stop stop-color="#FF6F3D"/>
<stop offset="1" stop-color="#FF8E3D"/>
</linearGradient>
</defs>
</svg>
