<svg width="230" height="169" viewBox="0 0 230 169" fill="none" xmlns="http://www.w3.org/2000/svg">
<path d="M198.077 123.828H121.03C119.083 123.828 117.559 122.309 117.559 120.367V18.224C117.559 16.2824 119.083 14.7629 121.03 14.7629H198.077C200.025 14.7629 201.549 16.2824 201.549 18.224V120.367C201.549 122.309 200.025 123.828 198.077 123.828Z" fill="white"/>
<path fill-rule="evenodd" clip-rule="evenodd" d="M121.029 15.1751C119.308 15.1751 117.97 16.5112 117.97 18.224V120.367C117.97 122.08 119.308 123.416 121.029 123.416H198.076C199.797 123.416 201.135 122.08 201.135 120.367V18.224C201.135 16.5112 199.797 15.1751 198.076 15.1751H121.029ZM117.146 18.224C117.146 16.0537 118.855 14.3508 121.029 14.3508H198.076C200.25 14.3508 201.96 16.0537 201.96 18.224V120.367C201.96 122.538 200.25 124.241 198.076 124.241H121.029C118.855 124.241 117.146 122.538 117.146 120.367V18.224Z" fill="#CCCCCC"/>
<path opacity="0.5" d="M192.997 39.4126H126.109C125.517 39.4126 125.009 38.9061 125.009 38.3152C125.009 37.7243 125.517 37.2178 126.109 37.2178H192.997C193.589 37.2178 194.097 37.7243 194.097 38.3152C194.097 38.9061 193.589 39.4126 192.997 39.4126Z" fill="#CCCCCC"/>
<path opacity="0.5" d="M192.997 44.8149H126.109C125.517 44.8149 125.009 44.3084 125.009 43.7175C125.009 43.1266 125.517 42.6201 126.109 42.6201H192.997C193.589 42.6201 194.097 43.1266 194.097 43.7175C194.097 44.3084 193.589 44.8149 192.997 44.8149Z" fill="#CCCCCC"/>
<path opacity="0.5" d="M192.997 50.1333H126.109C125.517 50.1333 125.009 49.6268 125.009 49.0359C125.009 48.445 125.517 47.9385 126.109 47.9385H192.997C193.589 47.9385 194.097 48.445 194.097 49.0359C194.097 49.6268 193.589 50.1333 192.997 50.1333Z" fill="#CCCCCC"/>
<path opacity="0.5" d="M192.997 55.5359H126.109C125.517 55.5359 125.009 55.0294 125.009 54.4385C125.009 53.8476 125.517 53.3411 126.109 53.3411H192.997C193.589 53.3411 194.097 53.8476 194.097 54.4385C194.097 55.0294 193.589 55.5359 192.997 55.5359Z" fill="#CCCCCC"/>
<path opacity="0.5" d="M192.997 67.4385H126.109C125.517 67.4385 125.009 66.932 125.009 66.3411C125.009 65.7501 125.517 65.2437 126.109 65.2437H192.997C193.589 65.2437 194.097 65.7501 194.097 66.3411C194.097 66.932 193.589 67.4385 192.997 67.4385Z" fill="#CCCCCC"/>
<path opacity="0.5" d="M192.997 72.8411H126.109C125.517 72.8411 125.009 72.3346 125.009 71.7437C125.009 71.1527 125.517 70.6462 126.109 70.6462H192.997C193.589 70.6462 194.097 71.1527 194.097 71.7437C194.097 72.3346 193.589 72.8411 192.997 72.8411Z" fill="#CCCCCC"/>
<path opacity="0.5" d="M192.997 78.2439H126.109C125.517 78.2439 125.009 77.7374 125.009 77.1465C125.009 76.5556 125.517 76.0491 126.109 76.0491H192.997C193.589 76.0491 194.097 76.5556 194.097 77.1465C194.097 77.7374 193.589 78.2439 192.997 78.2439Z" fill="#CCCCCC"/>
<path opacity="0.5" d="M192.997 83.562H126.109C125.517 83.562 125.009 83.0555 125.009 82.4646C125.009 81.8737 125.517 81.3672 126.109 81.3672H192.997C193.589 81.3672 194.097 81.8737 194.097 82.4646C194.097 83.1399 193.589 83.562 192.997 83.562Z" fill="#CCCCCC"/>
<path opacity="0.5" d="M192.997 98.4189H126.109C125.517 98.4189 125.009 97.9124 125.009 97.3215C125.009 96.7306 125.517 96.2241 126.109 96.2241H192.997C193.589 96.2241 194.097 96.7306 194.097 97.3215C194.097 97.9124 193.589 98.4189 192.997 98.4189Z" fill="#CCCCCC"/>
<path opacity="0.5" d="M192.997 103.738H126.109C125.517 103.738 125.009 103.231 125.009 102.64C125.009 102.049 125.517 101.543 126.109 101.543H192.997C193.589 101.543 194.097 102.049 194.097 102.64C194.097 103.231 193.589 103.738 192.997 103.738Z" fill="#CCCCCC"/>
<path opacity="0.5" d="M192.997 109.14H126.109C125.517 109.14 125.009 108.633 125.009 108.042C125.009 107.452 125.517 106.945 126.109 106.945H192.997C193.589 106.945 194.097 107.452 194.097 108.042C194.097 108.633 193.589 109.14 192.997 109.14Z" fill="#CCCCCC"/>
<path opacity="0.5" d="M192.997 114.543H126.109C125.517 114.543 125.009 114.036 125.009 113.445C125.009 112.854 125.517 112.348 126.109 112.348H192.997C193.589 112.348 194.097 112.854 194.097 113.445C194.097 114.036 193.589 114.543 192.997 114.543Z" fill="#CCCCCC"/>
<path d="M95.8663 126.699H60.1367V150.504H95.8663V126.699Z" fill="white"/>
<path fill-rule="evenodd" clip-rule="evenodd" d="M59.7246 126.699C59.7246 126.471 59.9091 126.286 60.1368 126.286H95.8664C96.094 126.286 96.2785 126.471 96.2785 126.699V150.504C96.2785 150.731 96.094 150.916 95.8664 150.916H60.1368C59.9091 150.916 59.7246 150.731 59.7246 150.504V126.699ZM60.5489 127.111V150.092H95.4542V127.111H60.5489Z" fill="#CCCCCC"/>
<path d="M78.0015 136.153L60.1367 150.504H95.8663L78.0015 136.153Z" fill="white"/>
<path fill-rule="evenodd" clip-rule="evenodd" d="M77.7435 135.832C77.8942 135.711 78.1089 135.711 78.2597 135.832L96.1245 150.183C96.2608 150.292 96.3132 150.476 96.2552 150.641C96.1971 150.806 96.0413 150.916 95.8664 150.916H60.1368C59.9619 150.916 59.8061 150.806 59.748 150.641C59.69 150.476 59.7423 150.292 59.8787 150.183L77.7435 135.832ZM61.308 150.092H94.6952L78.0016 136.682L61.308 150.092Z" fill="#CCCCCC"/>
<path d="M78.0015 143.329L95.8663 126.699H60.1367L78.0015 143.329Z" fill="white"/>
<path fill-rule="evenodd" clip-rule="evenodd" d="M59.7532 126.548C59.8152 126.39 59.9674 126.286 60.1368 126.286H95.8664C96.0358 126.286 96.1879 126.39 96.2499 126.548C96.3119 126.705 96.2712 126.885 96.1472 127L78.2824 143.63C78.1242 143.777 77.879 143.777 77.7208 143.63L59.856 127C59.732 126.885 59.6912 126.705 59.7532 126.548ZM61.1844 127.111L78.0016 142.765L94.8187 127.111H61.1844Z" fill="#CCCCCC"/>
<path d="M111.477 22.6136C112.155 22.6136 112.747 22.6981 113.425 22.7825C113.763 11.6396 122.907 2.77588 134.168 2.77588C142.804 2.77588 150.255 8.09409 153.388 15.6071C154.573 15.2694 155.843 15.1006 157.113 15.1006C165.241 15.1006 171.76 21.6006 171.76 29.7046C171.76 37.8085 165.241 44.3085 157.113 44.3085H111.477C105.466 44.3085 100.64 39.4968 100.64 33.5033C100.555 27.4253 105.466 22.6136 111.477 22.6136Z" fill="white"/>
<path fill-rule="evenodd" clip-rule="evenodd" d="M134.168 3.18807C123.128 3.18807 114.168 11.8764 113.837 22.795C113.833 22.911 113.781 23.0201 113.693 23.0955C113.605 23.171 113.489 23.2058 113.374 23.1915C113.305 23.183 113.238 23.1745 113.172 23.1661C112.574 23.0907 112.059 23.0258 111.477 23.0258C105.689 23.0258 100.971 27.6561 101.052 33.4976L101.052 33.5033C101.052 39.2681 105.692 43.8964 111.477 43.8964H157.113C165.014 43.8964 171.348 37.5798 171.348 29.7046C171.348 21.8295 165.014 15.5128 157.113 15.5128C155.879 15.5128 154.647 15.677 153.5 16.0035C153.3 16.0608 153.088 15.9586 153.007 15.7658C149.936 8.40035 142.631 3.18807 134.168 3.18807ZM113.031 22.3177C113.607 11.164 122.839 2.36377 134.168 2.36377C142.849 2.36377 150.353 7.63144 153.626 15.1161C154.748 14.8306 155.931 14.6885 157.113 14.6885C165.467 14.6885 172.173 21.3719 172.173 29.7046C172.173 38.0373 165.467 44.7207 157.113 44.7207H111.477C105.24 44.7207 100.229 39.7272 100.228 33.5062C100.141 27.1932 105.244 22.2015 111.477 22.2015C112.027 22.2015 112.524 22.2549 113.031 22.3177Z" fill="#CCCCCC"/>
<path d="M105.822 28.9447C113.725 28.9447 120.131 22.5575 120.131 14.6784C120.131 6.79935 113.725 0.412109 105.822 0.412109C97.9199 0.412109 91.5137 6.79935 91.5137 14.6784C91.5137 22.5575 97.9199 28.9447 105.822 28.9447Z" fill="white"/>
<path fill-rule="evenodd" clip-rule="evenodd" d="M105.822 0.824297C98.1464 0.824297 91.9259 7.02817 91.9259 14.6784C91.9259 22.3287 98.1464 28.5326 105.822 28.5326C113.499 28.5326 119.719 22.3287 119.719 14.6784C119.719 7.02817 113.499 0.824297 105.822 0.824297ZM91.1016 14.6784C91.1016 6.57061 97.6935 0 105.822 0C113.951 0 120.543 6.57061 120.543 14.6784C120.543 22.7863 113.951 29.3569 105.822 29.3569C97.6935 29.3569 91.1016 22.7863 91.1016 14.6784Z" fill="#CCCCCC"/>
<path d="M105.823 4.37959C106.243 4.37959 106.585 4.03945 106.585 3.61985C106.585 3.20026 106.243 2.86011 105.823 2.86011C105.402 2.86011 105.061 3.20026 105.061 3.61985C105.061 4.03945 105.402 4.37959 105.823 4.37959Z" fill="#CCCCCC"/>
<path d="M130.819 5.89913C131.239 5.89913 131.581 5.55898 131.581 5.13938C131.581 4.71979 131.239 4.37964 130.819 4.37964C130.398 4.37964 130.057 4.71979 130.057 5.13938C130.057 5.55898 130.398 5.89913 130.819 5.89913Z" fill="#CCCCCC"/>
<path d="M126.754 9.95113C127.175 9.95113 127.516 9.61098 127.516 9.19138C127.516 8.77179 127.175 8.43164 126.754 8.43164C126.333 8.43164 125.992 8.77179 125.992 9.19138C125.992 9.61098 126.333 9.95113 126.754 9.95113Z" fill="#CCCCCC"/>
<path d="M125.315 15.4382C125.736 15.4382 126.077 15.098 126.077 14.6784C126.077 14.2588 125.736 13.9187 125.315 13.9187C124.894 13.9187 124.553 14.2588 124.553 14.6784C124.553 15.098 124.894 15.4382 125.315 15.4382Z" fill="#CCCCCC"/>
<path d="M126.754 21.0097C127.175 21.0097 127.516 20.6696 127.516 20.25C127.516 19.8304 127.175 19.4902 126.754 19.4902C126.333 19.4902 125.992 19.8304 125.992 20.25C125.992 20.6696 126.333 21.0097 126.754 21.0097Z" fill="#CCCCCC"/>
<path d="M130.819 24.9773C131.239 24.9773 131.581 24.6371 131.581 24.2175C131.581 23.7979 131.239 23.4578 130.819 23.4578C130.398 23.4578 130.057 23.7979 130.057 24.2175C130.057 24.6371 130.398 24.9773 130.819 24.9773Z" fill="#CCCCCC"/>
<path d="M105.823 26.4968C106.243 26.4968 106.585 26.1566 106.585 25.737C106.585 25.3174 106.243 24.9773 105.823 24.9773C105.402 24.9773 105.061 25.3174 105.061 25.737C105.061 26.1566 105.402 26.4968 105.823 26.4968Z" fill="#CCCCCC"/>
<path d="M111.411 24.9773C111.832 24.9773 112.173 24.6371 112.173 24.2175C112.173 23.7979 111.832 23.4578 111.411 23.4578C110.991 23.4578 110.649 23.7979 110.649 24.2175C110.649 24.6371 110.991 24.9773 111.411 24.9773Z" fill="#CCCCCC"/>
<path d="M115.475 21.0097C115.896 21.0097 116.237 20.6696 116.237 20.25C116.237 19.8304 115.896 19.4902 115.475 19.4902C115.054 19.4902 114.713 19.8304 114.713 20.25C114.713 20.6696 115.054 21.0097 115.475 21.0097Z" fill="#CCCCCC"/>
<path d="M116.913 15.4382C117.334 15.4382 117.675 15.098 117.675 14.6784C117.675 14.2588 117.334 13.9187 116.913 13.9187C116.493 13.9187 116.151 14.2588 116.151 14.6784C116.151 15.098 116.493 15.4382 116.913 15.4382Z" fill="#CCCCCC"/>
<path d="M115.475 9.95113C115.896 9.95113 116.237 9.61098 116.237 9.19138C116.237 8.77179 115.896 8.43164 115.475 8.43164C115.054 8.43164 114.713 8.77179 114.713 9.19138C114.713 9.61098 115.054 9.95113 115.475 9.95113Z" fill="#CCCCCC"/>
<path d="M111.411 5.89913C111.832 5.89913 112.173 5.55898 112.173 5.13938C112.173 4.71979 111.832 4.37964 111.411 4.37964C110.991 4.37964 110.649 4.71979 110.649 5.13938C110.649 5.55898 110.991 5.89913 111.411 5.89913Z" fill="#CCCCCC"/>
<path fill-rule="evenodd" clip-rule="evenodd" d="M105.653 6.07788C105.881 6.07788 106.066 6.26241 106.066 6.49003V14.5185L110.276 19.1277C110.429 19.2958 110.417 19.5565 110.249 19.71C110.081 19.8635 109.821 19.8517 109.667 19.6836L105.349 14.9563C105.28 14.8804 105.241 14.7812 105.241 14.6784V6.49003C105.241 6.26241 105.426 6.07788 105.653 6.07788Z" fill="#CCCCCC"/>
<path d="M198.364 160.803H199.211V159.958V42.9578C199.211 38.737 195.824 35.3604 191.591 35.3604H20.1396C15.9062 35.3604 12.5195 38.737 12.5195 42.9578V159.958V160.803H13.3662H198.364Z" fill="#F5F5F5"/>
<path fill-rule="evenodd" clip-rule="evenodd" d="M11.6953 42.9576C11.6953 38.2793 15.4534 34.5359 20.1397 34.5359H191.591C196.277 34.5359 200.035 38.2793 200.035 42.9576V161.627H11.6953V42.9576ZM20.1397 36.1845C16.3592 36.1845 13.3439 39.1944 13.3439 42.9576V159.978H198.387V42.9576C198.387 39.1944 195.371 36.1845 191.591 36.1845H20.1397Z" fill="#333333"/>
<path fill-rule="evenodd" clip-rule="evenodd" d="M201.074 168.569H9.55647C7.43979 168.569 0.49707 166.796 0.49707 164.686H211.319C211.234 166.88 203.275 168.569 201.074 168.569Z" fill="#AAAAAA"/>
<path fill-rule="evenodd" clip-rule="evenodd" d="M0.0849609 164.273H211.747L211.731 164.701C211.715 165.104 211.52 165.459 211.251 165.758C210.983 166.057 210.617 166.328 210.201 166.573C209.368 167.064 208.261 167.492 207.111 167.844C204.815 168.547 202.231 168.981 201.074 168.981H9.55651C8.43294 168.981 6.11848 168.522 4.09571 167.807C3.0808 167.448 2.1096 167.015 1.38395 166.524C0.688653 166.053 0.0849609 165.439 0.0849609 164.686V164.273ZM1.04907 165.098C1.19051 165.32 1.44604 165.571 1.84601 165.841C2.48827 166.276 3.38504 166.682 4.3704 167.03C6.34816 167.729 8.5634 168.157 9.55651 168.157H201.074C202.118 168.157 204.615 167.746 206.869 167.056C207.994 166.712 209.031 166.306 209.783 165.863C210.159 165.641 210.446 165.42 210.638 165.207C210.672 165.17 210.702 165.133 210.728 165.098H1.04907Z" fill="#333333"/>
<path fill-rule="evenodd" clip-rule="evenodd" d="M192.269 156.244H19.4629C18.5315 156.244 17.7695 155.484 17.7695 154.556V42.6202C17.7695 41.6916 18.5315 40.9319 19.4629 40.9319H192.269C193.2 40.9319 193.962 41.6916 193.962 42.6202V154.556C193.962 155.484 193.2 156.244 192.269 156.244Z" fill="white"/>
<path fill-rule="evenodd" clip-rule="evenodd" d="M19.4619 41.3441C18.7571 41.3441 18.1807 41.9204 18.1807 42.6202V154.556C18.1807 155.256 18.7571 155.832 19.4619 155.832H192.268C192.973 155.832 193.549 155.256 193.549 154.556V42.6202C193.549 41.9204 192.973 41.3441 192.268 41.3441H19.4619ZM17.3564 42.6202C17.3564 41.4629 18.3041 40.5198 19.4619 40.5198H192.268C193.426 40.5198 194.373 41.4629 194.373 42.6202V154.556C194.373 155.713 193.426 156.656 192.268 156.656H19.4619C18.3041 156.656 17.3564 155.713 17.3564 154.556V42.6202Z" fill="#333333"/>
<path d="M211.234 159.789H0.412109V164.685H211.234V159.789Z" fill="#F5F5F5"/>
<path fill-rule="evenodd" clip-rule="evenodd" d="M0 159.377H211.646V165.098H0V159.377ZM0.824297 160.201V164.273H210.822V160.201H0.824297Z" fill="#333333"/>
<path d="M88.0576 50.6398C88.9928 50.6398 89.751 49.8839 89.751 48.9515C89.751 48.0191 88.9928 47.2632 88.0576 47.2632C87.1224 47.2632 86.3643 48.0191 86.3643 48.9515C86.3643 49.8839 87.1224 50.6398 88.0576 50.6398Z" fill="#CCCCCC"/>
<path d="M61.9834 50.6398C62.9186 50.6398 63.6767 49.8839 63.6767 48.9515C63.6767 48.0191 62.9186 47.2632 61.9834 47.2632C61.0482 47.2632 60.29 48.0191 60.29 48.9515C60.29 49.8839 61.0482 50.6398 61.9834 50.6398Z" fill="#CCCCCC"/>
<path d="M67.3174 50.6398C68.2526 50.6398 69.0107 49.8839 69.0107 48.9515C69.0107 48.0191 68.2526 47.2632 67.3174 47.2632C66.3822 47.2632 65.624 48.0191 65.624 48.9515C65.624 49.8839 66.3822 50.6398 67.3174 50.6398Z" fill="#CCCCCC"/>
<path fill-rule="evenodd" clip-rule="evenodd" d="M186.341 50.5551H45.1162C44.1849 50.5551 43.4229 49.7954 43.4229 48.8668C43.4229 47.9382 44.1849 47.1785 45.1162 47.1785H186.341C187.273 47.1785 188.035 47.9382 188.035 48.8668C187.95 49.8798 187.273 50.5551 186.341 50.5551Z" fill="white"/>
<path fill-rule="evenodd" clip-rule="evenodd" d="M45.1162 47.5907C44.4114 47.5907 43.835 48.167 43.835 48.8668C43.835 49.5666 44.4114 50.143 45.1162 50.143H186.341C187.024 50.143 187.547 49.6692 187.622 48.8501C187.613 48.1578 187.041 47.5907 186.341 47.5907H45.1162ZM43.0107 48.8668C43.0107 47.7095 43.9584 46.7664 45.1162 46.7664H186.341C187.499 46.7664 188.447 47.7095 188.447 48.8668C188.447 48.8783 188.446 48.8897 188.445 48.9012C188.345 50.0972 187.516 50.9673 186.341 50.9673H45.1162C43.9584 50.9673 43.0107 50.0242 43.0107 48.8668Z" fill="#CCCCCC"/>
<path fill-rule="evenodd" clip-rule="evenodd" d="M129.633 102.218H59.613C57.073 102.218 55.041 100.192 55.041 97.6591V61.3602C55.041 58.8277 57.073 56.8018 59.613 56.8018H129.633C132.173 56.8018 134.205 58.8277 134.205 61.3602V97.6591C134.205 100.192 132.173 102.218 129.633 102.218Z" fill="#F0F0F0"/>
<path fill-rule="evenodd" clip-rule="evenodd" d="M131.665 111.757H57.666C56.2267 111.757 55.126 110.575 55.126 109.224C55.126 107.789 56.3113 106.692 57.666 106.692H131.665C133.105 106.692 134.205 107.873 134.205 109.224C134.205 110.659 133.105 111.757 131.665 111.757Z" fill="#F0F0F0"/>
<path fill-rule="evenodd" clip-rule="evenodd" d="M131.665 120.536H57.666C56.2267 120.536 55.126 119.354 55.126 118.003C55.126 116.568 56.3113 115.471 57.666 115.471H131.665C133.105 115.471 134.205 116.653 134.205 118.003C134.205 119.354 133.105 120.536 131.665 120.536Z" fill="#F0F0F0"/>
<path fill-rule="evenodd" clip-rule="evenodd" d="M131.665 129.231H57.666C56.2267 129.231 55.126 128.049 55.126 126.698C55.126 125.263 56.3113 124.166 57.666 124.166H131.665C133.105 124.166 134.205 125.348 134.205 126.698C134.205 128.049 133.105 129.231 131.665 129.231Z" fill="#F0F0F0"/>
<path fill-rule="evenodd" clip-rule="evenodd" d="M131.665 137.926H57.666C56.2267 137.926 55.126 136.744 55.126 135.393C55.126 133.958 56.3113 132.861 57.666 132.861H131.665C133.105 132.861 134.205 134.043 134.205 135.393C134.205 136.744 133.105 137.926 131.665 137.926Z" fill="#F0F0F0"/>
<path fill-rule="evenodd" clip-rule="evenodd" d="M131.665 146.621H57.666C56.2267 146.621 55.126 145.439 55.126 144.088C55.126 142.653 56.3113 141.556 57.666 141.556H131.665C133.105 141.556 134.205 142.737 134.205 144.088C134.205 145.439 133.105 146.621 131.665 146.621Z" fill="#F0F0F0"/>
<path d="M70.6349 51.2307H57.0882L53.4475 54.7762C52.8548 55.3671 51.7541 55.3671 51.2461 54.6917L48.0287 51.2307H41.7634C40.7474 51.2307 39.9854 50.5554 39.9854 49.7112V34.6007C39.9854 33.7566 40.832 32.9968 41.848 32.9968H70.7196C71.7356 32.9968 72.4976 33.6722 72.4976 34.5163V49.6268C72.4976 50.5554 71.6509 51.2307 70.6349 51.2307Z" fill="white"/>
<path fill-rule="evenodd" clip-rule="evenodd" d="M41.8481 33.409C41.0051 33.409 40.3975 34.0353 40.3975 34.6008V49.7112C40.3975 50.2733 40.9165 50.8186 41.7634 50.8186H48.2084L51.5626 54.4269L51.5755 54.444C51.74 54.6627 52.0136 54.7888 52.3256 54.7968C52.6392 54.8048 52.9491 54.6911 53.1565 54.4843L53.1599 54.4809L56.9207 50.8186H70.635C71.493 50.8186 72.0855 50.2639 72.0855 49.6268V34.5164C72.0855 33.9543 71.5666 33.409 70.7196 33.409H41.8481ZM39.5732 34.6008C39.5732 33.4779 40.6591 32.5847 41.8481 32.5847H70.7196C71.9047 32.5847 72.9098 33.3901 72.9098 34.5164V49.6268C72.9098 50.8469 71.809 51.6429 70.635 51.6429H57.2557L53.7367 55.0698C53.3515 55.4528 52.8157 55.6339 52.3045 55.6208C51.7979 55.6079 51.2745 55.4018 50.9307 54.9578L47.8492 51.6429H41.7634C40.5783 51.6429 39.5732 50.8375 39.5732 49.7112V34.6008Z" fill="#333333"/>
<path d="M44.9812 39.0749C44.9812 38.6528 45.3198 38.2307 45.8278 38.2307H52.0085C52.4319 38.2307 52.8552 38.5684 52.8552 39.0749V45.1528C52.8552 45.5749 52.5165 45.997 52.0085 45.997H45.7432C45.3198 45.997 44.8965 45.6593 44.8965 45.1528V39.0749H44.9812Z" fill="url(#paint0_linear)"/>
<path d="M44.9812 39.0749C44.9812 38.6528 45.3198 38.2307 45.8278 38.2307H52.0085C52.4319 38.2307 52.8552 38.5684 52.8552 39.0749V45.1528C52.8552 45.5749 52.5165 45.997 52.0085 45.997H45.7432C45.3198 45.997 44.8965 45.6593 44.8965 45.1528V39.0749H44.9812Z" fill="#BDECFF"/>
<path fill-rule="evenodd" clip-rule="evenodd" d="M45.7422 38.6427C45.487 38.6427 45.3077 38.8542 45.3077 39.0747V45.1526C45.3077 45.4041 45.5181 45.5846 45.7422 45.5846H51.9229C52.002 45.5846 52.0495 45.572 52.084 45.5567C52.1204 45.5406 52.1643 45.5118 52.2246 45.4517C52.3003 45.3762 52.3299 45.3103 52.3432 45.266C52.3571 45.2197 52.3575 45.1843 52.3575 45.1526V41.8604C52.3575 41.6328 52.542 41.4482 52.7696 41.4482C52.9972 41.4482 53.1818 41.6328 53.1818 41.8604V45.1526C53.1818 45.2791 53.1755 45.6676 52.8066 46.0354C52.6976 46.1441 52.5722 46.242 52.418 46.3103C52.2621 46.3794 52.0979 46.4089 51.9229 46.4089H45.7422C45.1197 46.4089 44.4834 45.9142 44.4834 45.1526V39.0747C44.4834 38.451 44.9814 37.8184 45.7422 37.8184H49.6369C49.8645 37.8184 50.0491 38.0029 50.0491 38.2305C50.0491 38.4581 49.8645 38.6427 49.6369 38.6427H45.7422Z" fill="#333333"/>
<path fill-rule="evenodd" clip-rule="evenodd" d="M53.4851 38.6148C53.6458 38.776 53.6454 39.037 53.4843 39.1977L48.8275 43.8405C48.6667 44.0009 48.4064 44.0009 48.2455 43.8405L46.3829 41.9834C46.2217 41.8227 46.2213 41.5617 46.382 41.4005C46.5427 41.2393 46.8037 41.239 46.9649 41.3997L48.5365 42.9667L52.9023 38.6139C53.0634 38.4532 53.3244 38.4536 53.4851 38.6148Z" fill="#333333"/>
<path fill-rule="evenodd" clip-rule="evenodd" d="M55.7451 41.1009C55.7451 40.8732 55.9296 40.6887 56.1573 40.6887H68.6034C68.831 40.6887 69.0155 40.8732 69.0155 41.1009C69.0155 41.3285 68.831 41.513 68.6034 41.513H56.1573C55.9296 41.513 55.7451 41.3285 55.7451 41.1009Z" fill="#333333"/>
<path fill-rule="evenodd" clip-rule="evenodd" d="M55.7451 43.1267C55.7451 42.8991 55.9296 42.7146 56.1573 42.7146H64.116C64.3436 42.7146 64.5281 42.8991 64.5281 43.1267C64.5281 43.3544 64.3436 43.5389 64.116 43.5389H56.1573C55.9296 43.5389 55.7451 43.3544 55.7451 43.1267Z" fill="#333333"/>
<path d="M226.117 147.043H85.3151C83.3678 147.043 81.8438 145.523 81.8438 143.582V61.5292C81.8438 59.5876 83.3678 58.0681 85.3151 58.0681H226.117C228.064 58.0681 229.588 59.5876 229.588 61.5292V143.497C229.588 145.439 227.98 147.043 226.117 147.043Z" fill="white"/>
<path fill-rule="evenodd" clip-rule="evenodd" d="M85.3152 58.4803C83.5943 58.4803 82.2559 59.8164 82.2559 61.5292V143.582C82.2559 145.294 83.5943 146.63 85.3152 146.63H226.117C227.747 146.63 229.176 145.216 229.176 143.497V61.5292C229.176 59.8164 227.838 58.4803 226.117 58.4803H85.3152ZM81.4316 61.5292C81.4316 59.3589 83.1413 57.656 85.3152 57.656H226.117C228.291 57.656 230 59.3589 230 61.5292V143.497C230 145.661 228.212 147.455 226.117 147.455H85.3152C83.1413 147.455 81.4316 145.752 81.4316 143.582V61.5292Z" fill="#333333"/>
<path d="M229.588 70.6461H81.8438V61.5292C81.8438 59.5876 83.3678 58.0681 85.3151 58.0681H226.117C228.064 58.0681 229.588 59.5876 229.588 61.5292V70.6461Z" fill="#39784B"/>
<path fill-rule="evenodd" clip-rule="evenodd" d="M85.3152 58.4803C83.5943 58.4803 82.2559 59.8164 82.2559 61.5292V70.234H229.176V61.5292C229.176 59.8164 227.838 58.4803 226.117 58.4803H85.3152ZM81.4316 61.5292C81.4316 59.3589 83.1413 57.656 85.3152 57.656H226.117C228.291 57.656 230 59.3589 230 61.5292V71.0583H81.4316V61.5292Z" fill="#333333"/>
<path fill-rule="evenodd" clip-rule="evenodd" d="M228.826 79.5846H82.5205V78.7603H228.826V79.5846Z" fill="#D0D0D0"/>
<path fill-rule="evenodd" clip-rule="evenodd" d="M228.826 88.1107H82.5205V87.2864H228.826V88.1107Z" fill="#D0D0D0"/>
<path fill-rule="evenodd" clip-rule="evenodd" d="M228.826 96.5521H82.5205V95.7278H228.826V96.5521Z" fill="#D0D0D0"/>
<path fill-rule="evenodd" clip-rule="evenodd" d="M228.826 105.078H82.5205V104.254H228.826V105.078Z" fill="#D0D0D0"/>
<path fill-rule="evenodd" clip-rule="evenodd" d="M228.826 113.52H82.5205V112.695H228.826V113.52Z" fill="#D0D0D0"/>
<path fill-rule="evenodd" clip-rule="evenodd" d="M228.826 122.046H82.5205V121.221H228.826V122.046Z" fill="#D0D0D0"/>
<path fill-rule="evenodd" clip-rule="evenodd" d="M228.826 130.487H82.5205V129.663H228.826V130.487Z" fill="#D0D0D0"/>
<path fill-rule="evenodd" clip-rule="evenodd" d="M228.826 139.013H82.5205V138.189H228.826V139.013Z" fill="#D0D0D0"/>
<path fill-rule="evenodd" clip-rule="evenodd" d="M128.271 146.367V71.406H129.096V146.367H128.271Z" fill="#D0D0D0"/>
<path fill-rule="evenodd" clip-rule="evenodd" d="M116.738 146.367V71.406H117.563V146.367H116.738Z" fill="#D0D0D0"/>
<path fill-rule="evenodd" clip-rule="evenodd" d="M135.703 146.367V71.406H136.527V146.367H135.703Z" fill="#D0D0D0"/>
<path fill-rule="evenodd" clip-rule="evenodd" d="M154.754 146.367V71.406H155.578V146.367H154.754Z" fill="#D0D0D0"/>
<path fill-rule="evenodd" clip-rule="evenodd" d="M142.396 146.367V71.406H143.22V146.367H142.396Z" fill="#D0D0D0"/>
<path fill-rule="evenodd" clip-rule="evenodd" d="M161.361 146.367V71.406H162.186V146.367H161.361Z" fill="#D0D0D0"/>
<path fill-rule="evenodd" clip-rule="evenodd" d="M149.828 146.367V71.406H150.652V146.367H149.828Z" fill="#D0D0D0"/>
<path d="M174.131 79.1724H98.1846V87.6984H174.131V79.1724Z" fill="white"/>
<path fill-rule="evenodd" clip-rule="evenodd" d="M97.7725 78.7603H174.543V88.1106H97.7725V78.7603ZM98.5968 79.5846V87.2863H173.719V79.5846H98.5968Z" fill="#4FB000"/>
<path fill-rule="evenodd" clip-rule="evenodd" d="M128.41 83.8053H105.889V82.981H128.41V83.8053Z" fill="#4FB000"/>
<path fill-rule="evenodd" clip-rule="evenodd" d="M166.426 83.8053H143.82V82.981H166.426V83.8053Z" fill="#4FB000"/>
<path d="M174.131 96.1401H98.1846V104.666H174.131V96.1401Z" fill="white"/>
<path fill-rule="evenodd" clip-rule="evenodd" d="M97.7725 95.7278H174.543V105.078H97.7725V95.7278ZM98.5968 96.5521V104.254H173.719V96.5521H98.5968Z" fill="#333333"/>
<path fill-rule="evenodd" clip-rule="evenodd" d="M128.41 100.773H105.889V99.9485H128.41V100.773Z" fill="#333333"/>
<path fill-rule="evenodd" clip-rule="evenodd" d="M166.426 100.773H143.82V99.9485H166.426V100.773Z" fill="#333333"/>
<path d="M174.131 113.107H98.1846V121.633H174.131V113.107Z" fill="white"/>
<path fill-rule="evenodd" clip-rule="evenodd" d="M97.7725 112.695H174.543V122.046H97.7725V112.695ZM98.5968 113.52V121.221H173.719V113.52H98.5968Z" fill="#FF8700"/>
<path fill-rule="evenodd" clip-rule="evenodd" d="M128.41 117.74H105.889V116.916H128.41V117.74Z" fill="#FF8700"/>
<path fill-rule="evenodd" clip-rule="evenodd" d="M166.426 117.74H143.82V116.916H166.426V117.74Z" fill="#FF8700"/>
<path d="M185.292 154.302H126.11C124.84 154.302 123.908 153.289 123.908 152.108V108.127C123.908 106.861 124.924 105.932 126.11 105.932H185.292C186.562 105.932 187.493 106.945 187.493 108.127V152.108C187.493 153.289 186.562 154.302 185.292 154.302Z" fill="white"/>
<path fill-rule="evenodd" clip-rule="evenodd" d="M126.11 106.344C125.14 106.344 124.32 107.1 124.32 108.127V152.108C124.32 153.071 125.076 153.89 126.11 153.89H185.292C186.325 153.89 187.081 153.071 187.081 152.108V108.127C187.081 107.164 186.325 106.344 185.292 106.344H126.11ZM123.496 108.127C123.496 106.622 124.708 105.52 126.11 105.52H185.292C186.799 105.52 187.906 106.727 187.906 108.127V152.108C187.906 153.508 186.799 154.715 185.292 154.715H126.11C124.603 154.715 123.496 153.508 123.496 152.108V108.127Z" fill="#333333"/>
<path d="M127.464 150.25L148.546 120.705L161.669 139.445L170.983 130.075L180.127 150.25H127.464Z" fill="url(#paint1_linear)"/>
<path d="M164.209 123.744C166.781 123.744 168.866 121.665 168.866 119.101C168.866 116.537 166.781 114.458 164.209 114.458C161.638 114.458 159.553 116.537 159.553 119.101C159.553 121.665 161.638 123.744 164.209 123.744Z" fill="url(#paint2_linear)"/>
<path d="M118.811 120.536H43.372C41.5094 120.536 39.9854 119.017 39.9854 117.16V70.1398C39.9854 68.2827 41.5094 66.7632 43.372 66.7632H118.811C120.673 66.7632 122.197 68.2827 122.197 70.1398V117.075C122.197 119.017 120.673 120.536 118.811 120.536Z" fill="white"/>
<path fill-rule="evenodd" clip-rule="evenodd" d="M43.3721 67.1754C41.7359 67.1754 40.3975 68.5115 40.3975 70.1399V117.16C40.3975 118.788 41.7359 120.124 43.3721 120.124H118.811C120.44 120.124 121.785 118.795 121.785 117.075V70.1399C121.785 68.5115 120.447 67.1754 118.811 67.1754H43.3721ZM39.5732 70.1399C39.5732 68.0539 41.2829 66.3511 43.3721 66.3511H118.811C120.9 66.3511 122.61 68.0539 122.61 70.1399V117.075C122.61 119.239 120.906 120.948 118.811 120.948H43.3721C41.2829 120.948 39.5732 119.246 39.5732 117.16V70.1399Z" fill="#333333"/>
<path d="M86.299 91.9191L76.647 86.3477C75.3769 85.5879 73.6836 86.5165 73.6836 88.036V99.1789C73.6836 100.698 75.2923 101.627 76.647 100.867L86.299 95.2958C87.6537 94.536 87.6537 92.6789 86.299 91.9191Z" fill="url(#paint3_linear)"/>
<defs>
<linearGradient id="paint0_linear" x1="44.9409" y1="37.9903" x2="52.6023" y2="46.0808" gradientUnits="userSpaceOnUse">
<stop stop-color="#FFC671"/>
<stop offset="0.5938" stop-color="#FF7541"/>
<stop offset="1" stop-color="#FF6F3D"/>
</linearGradient>
<linearGradient id="paint1_linear" x1="127.47" y1="135.471" x2="180.101" y2="135.471" gradientUnits="userSpaceOnUse">
<stop stop-color="#FF6F3D"/>
<stop offset="1" stop-color="#FF8E3D"/>
</linearGradient>
<linearGradient id="paint2_linear" x1="159.566" y1="119.081" x2="168.836" y2="119.081" gradientUnits="userSpaceOnUse">
<stop stop-color="#FF6F3D"/>
<stop offset="1" stop-color="#FF8E3D"/>
</linearGradient>
<linearGradient id="paint3_linear" x1="73.7323" y1="93.6324" x2="87.3056" y2="93.6324" gradientUnits="userSpaceOnUse">
<stop stop-color="#FF6F3D"/>
<stop offset="1" stop-color="#FF8E3D"/>
</linearGradient>
</defs>
</svg>
