<svg width="96" height="96" viewBox="0 0 96 96" fill="none" xmlns="http://www.w3.org/2000/svg">
<path d="M86.4082 43.282C81.7611 62.5878 63.4289 79.6033 47.9638 87.405C32.4975 79.6033 14.1652 62.5878 9.51936 43.282C6.41286 30.359 7.51448 16.6321 9.4625 8.0661H86.4652C88.4131 16.6321 89.5134 30.359 86.4082 43.282Z" fill="#002E47"/>
<path d="M47.9639 84.5902L47.796 84.5003C40.0502 80.3681 32.3361 74.3225 26.0768 67.4755C18.8298 59.5483 13.9445 50.9797 11.9515 42.698C9.66493 33.184 9.47317 21.2818 11.437 10.8593L11.4926 10.5684H84.4352L84.4907 10.8593C86.4559 21.2818 86.2629 33.184 83.9763 42.698C81.9833 50.9797 77.0982 59.5469 69.851 67.4742C63.5917 74.3211 55.8777 80.3668 48.1318 84.499L47.9639 84.5889V84.5902ZM12.0851 11.2825C10.1966 21.541 10.4029 33.1985 12.6458 42.5301C14.611 50.694 19.438 59.1542 26.6032 66.9916C32.7634 73.7301 40.3438 79.6858 47.9626 83.7783C55.5814 79.6858 63.1605 73.7301 69.3219 66.9916C76.4885 59.1529 81.3142 50.694 83.2793 42.5301C85.5224 33.1972 85.7287 21.5397 83.8401 11.2811H12.0851V11.2825Z" fill="white"/>
<path d="M0.065918 52.0356L5.01861 36.3106H16.5096L11.5569 52.0356H0.065918Z" fill="#E54747"/>
<g opacity="0.4">
<path d="M4.70947 55.6111L9.66348 39.8861L16.5073 36.3119L11.5546 52.0368L4.70947 55.6111Z" fill="#002E47"/>
</g>
<path d="M95.8543 43.4572L90.9017 59.1821H79.4106L84.3634 43.4572H95.8543Z" fill="#E54747"/>
<g opacity="0.4">
<path d="M91.2085 39.8859L86.2544 55.6108L79.4106 59.1837L84.3634 43.4588L91.2085 39.8859Z" fill="#002E47"/>
</g>
<path d="M91.2099 39.8859L86.256 55.6108H4.71191L9.66592 39.8859H91.2099Z" fill="#FF9D28"/>
<path d="M23.2109 49.3766C23.1065 50.2269 22.7442 50.888 22.1239 51.3614C21.5023 51.8348 20.6877 52.0715 19.6813 52.0715C19.2593 52.0715 18.8666 52.0239 18.503 51.93C18.1392 51.8361 17.8324 51.6999 17.5825 51.5188L17.8285 49.5075C18.126 49.7098 18.4739 49.8804 18.8719 50.0179C19.2712 50.1568 19.639 50.2255 19.9762 50.2255C20.2591 50.2255 20.4813 50.166 20.6414 50.047C20.8014 49.928 20.8953 49.7601 20.9218 49.5406C20.935 49.4374 20.9218 49.3409 20.8887 49.251C20.8556 49.1611 20.7988 49.0712 20.7261 48.9812C20.6533 48.8913 20.4509 48.693 20.1203 48.3862C19.7157 48.0265 19.4352 47.6576 19.2779 47.2834C19.1205 46.9079 19.0689 46.4966 19.1245 46.0484C19.1853 45.5459 19.3665 45.095 19.6668 44.6956C19.9669 44.295 20.3596 43.9842 20.8437 43.7647C21.329 43.5439 21.8541 43.4341 22.4214 43.4341C23.3366 43.4341 24.1354 43.6391 24.8178 44.049L23.8326 45.7548C23.2189 45.4176 22.682 45.2497 22.2217 45.2497C21.9771 45.2497 21.7814 45.3039 21.6359 45.411C21.4904 45.5181 21.4057 45.6755 21.3793 45.8817C21.3568 46.0695 21.3991 46.2454 21.5075 46.4067C21.616 46.5693 21.833 46.7875 22.1609 47.0586C22.5721 47.3918 22.8645 47.7422 23.0377 48.1098C23.2109 48.4774 23.2691 48.8993 23.2109 49.374V49.3766Z" fill="#002E47"/>
<path d="M30.1602 51.9561H27.9133L29.0507 48.5313H27.0616L25.9124 51.9561H23.6655L26.4691 43.5541H28.716L27.691 46.6681H29.6907L30.7156 43.5541H32.9691L30.1589 51.9561H30.1602Z" fill="#002E47"/>
<path d="M37.8478 43.4221C38.8436 43.4221 39.5842 43.7064 40.0682 44.275C40.5523 44.8436 40.7321 45.6383 40.6078 46.6565C40.4835 47.676 40.1793 48.6069 39.694 49.4519C39.2099 50.2968 38.6043 50.9434 37.8782 51.3944C37.1521 51.8453 36.3468 52.0701 35.4621 52.0701C34.4318 52.0701 33.6701 51.7844 33.1795 51.2132C32.6874 50.642 32.5036 49.8499 32.6279 48.8343C32.7522 47.8188 33.0631 46.8866 33.5616 46.0363C34.0603 45.1861 34.6765 44.5368 35.4118 44.0912C36.1471 43.6456 36.9577 43.4221 37.8478 43.4221ZM38.3345 46.6803C38.3874 46.2439 38.3372 45.9015 38.1836 45.6542C38.0303 45.4069 37.779 45.2839 37.4299 45.2839C37.0503 45.2839 36.6827 45.4453 36.3243 45.7666C35.9672 46.0879 35.6591 46.5309 35.3999 47.0942C35.1407 47.6575 34.9753 48.234 34.9039 48.8238C34.7902 49.7507 35.1169 50.2148 35.8839 50.2148C36.2476 50.2148 36.606 50.0562 36.9564 49.7375C37.3069 49.4188 37.6058 48.9904 37.8491 48.4509C38.0937 47.9114 38.2552 47.3203 38.3332 46.6816H38.3345V46.6803Z" fill="#002E47"/>
<path d="M43.539 48.8989L42.5154 51.9561H40.2686L43.0723 43.5541H45.2967C46.2621 43.5541 46.9776 43.7458 47.4444 44.1293C47.9111 44.5128 48.0964 45.0893 48.0025 45.8589C47.9296 46.4566 47.73 46.9775 47.4034 47.4218C47.0768 47.8661 46.631 48.206 46.0664 48.4387L47.082 51.9561H44.7769L43.9583 48.8989H43.539ZM44.1104 47.1918H44.404C44.7676 47.1918 45.0705 47.0873 45.3099 46.8784C45.5505 46.6695 45.6933 46.3772 45.7383 46.0017C45.7674 45.7637 45.7238 45.5825 45.6061 45.4582C45.4884 45.3339 45.3046 45.2718 45.052 45.2718H44.7478L44.1104 47.1904V47.1918Z" fill="#002E47"/>
<path d="M50.9344 51.9561H48.6875L50.8497 45.4106H49.0275L49.6516 43.5541H55.5605L54.9256 45.4106H53.0979L50.9357 51.9561H50.9344Z" fill="#002E47"/>
<path d="M54.0146 51.9561L56.8184 43.5541H59.0652L56.8765 50.122H59.5467L58.9317 51.9547H54.0146V51.9561Z" fill="#002E47"/>
<path d="M60.1309 51.9561L62.9346 43.5541H65.2158L62.4121 51.9561H60.1309Z" fill="#002E47"/>
<path d="M69.8272 49.3766C69.7227 50.2269 69.3604 50.888 68.7401 51.3614C68.1186 51.8348 67.3039 52.0715 66.2975 52.0715C65.8756 52.0715 65.4828 52.0239 65.1192 51.93C64.7554 51.8361 64.4486 51.6999 64.1987 51.5188L64.4447 49.5075C64.7422 49.7098 65.0901 49.8804 65.4881 50.0179C65.8875 50.1568 66.2552 50.2255 66.5924 50.2255C66.8754 50.2255 67.0976 50.166 67.2576 50.047C67.4176 49.928 67.5115 49.7601 67.538 49.5406C67.5512 49.4374 67.5393 49.3409 67.5049 49.251C67.4705 49.1611 67.415 49.0712 67.3423 48.9812C67.2695 48.8913 67.0672 48.693 66.7365 48.3862C66.3319 48.0265 66.0516 47.6576 65.8941 47.2834C65.7367 46.9079 65.6851 46.4966 65.7407 46.0484C65.8015 45.5459 65.9828 45.095 66.283 44.6956C66.5831 44.295 66.976 43.9842 67.46 43.7647C67.9452 43.5439 68.4703 43.4341 69.0376 43.4341C69.9528 43.4341 70.7516 43.6391 71.434 44.049L70.4488 45.7548C69.8351 45.4176 69.2982 45.2497 68.8379 45.2497C68.5933 45.2497 68.3976 45.3039 68.2521 45.411C68.1067 45.5181 68.0219 45.6755 67.9955 45.8817C67.973 46.0695 68.0153 46.2454 68.1239 46.4067C68.2323 46.5693 68.4492 46.7875 68.7771 47.0586C69.1885 47.3918 69.4807 47.7422 69.6539 48.1098C69.8272 48.4774 69.8853 48.8993 69.8272 49.374V49.3766Z" fill="#002E47"/>
<path d="M73.7137 51.9561H71.4668L73.629 45.4106H71.8066L72.4309 43.5541H78.3397L77.7049 45.4106H75.8772L73.715 51.9561H73.7137Z" fill="#002E47"/>
<path d="M14.1289 23.4524L20.2651 23.4537H23.9959V19.7037L14.1289 23.4524Z" fill="#FF9D28"/>
<path d="M23.9985 19.7044V32.9448L28.659 17.9338L23.9985 19.7044Z" fill="#68C5ED"/>
<path d="M23.9949 23.4542H20.2642L23.9949 32.9444V23.4542Z" fill="#044D80"/>
<path d="M14.1289 23.4519L21.2213 25.8876L20.2651 23.4532L14.1289 23.4519Z" fill="#E54747"/>
<path d="M36.7336 29.4579C36.6794 29.5121 36.5895 29.5808 36.4639 29.6628C36.3382 29.7448 36.1729 29.8268 35.9706 29.9101C35.7683 29.9921 35.5196 30.0635 35.2274 30.123C34.9338 30.1825 34.5991 30.2116 34.2209 30.2116C33.4909 30.2116 32.8602 30.0926 32.3285 29.8546C31.7969 29.6165 31.3577 29.286 31.0113 28.8602C30.6649 28.4344 30.4095 27.9319 30.2482 27.3514C30.0855 26.7709 30.0049 26.1336 30.0049 25.4393C30.0049 24.7451 30.0922 24.1025 30.268 23.5127C30.4439 22.923 30.7072 22.4139 31.0589 21.9841C31.4106 21.5544 31.8498 21.2185 32.3761 20.9766C32.9038 20.7346 33.5226 20.6129 34.2342 20.6129C34.5859 20.6129 34.9034 20.6447 35.1864 20.7094C35.4707 20.7729 35.7179 20.8483 35.9296 20.9356C36.1412 21.0228 36.3171 21.1141 36.4572 21.2093C36.5974 21.3058 36.7032 21.3851 36.7746 21.4486C36.8554 21.5213 36.9255 21.6086 36.9837 21.7091C37.0418 21.8096 37.0709 21.9193 37.0709 22.0384C37.0709 22.2208 37.0035 22.4046 36.8686 22.5871C36.7336 22.7696 36.5842 22.9389 36.4229 23.0949C36.3144 22.9851 36.1928 22.8741 36.0579 22.759C35.923 22.6453 35.7723 22.5448 35.6055 22.4575C35.4389 22.3703 35.2498 22.2975 35.0383 22.238C34.8267 22.1785 34.5899 22.1494 34.3281 22.1494C33.8692 22.1494 33.483 22.2433 33.1722 22.4311C32.8615 22.6189 32.6116 22.8635 32.4223 23.165C32.2332 23.4665 32.0984 23.8116 32.0164 24.2003C31.9357 24.5891 31.8947 24.9845 31.8947 25.3865C31.8947 25.8162 31.9357 26.2274 32.0164 26.6202C32.097 27.0129 32.2372 27.3607 32.4356 27.6622C32.634 27.9636 32.8932 28.2056 33.2132 28.3894C33.5332 28.5719 33.9314 28.6631 34.4087 28.6631C34.6613 28.6631 34.8928 28.6314 35.1044 28.5666C35.316 28.5032 35.5024 28.4251 35.665 28.3339C35.8278 28.2427 35.9693 28.1474 36.091 28.0456C36.2126 27.9451 36.3144 27.8579 36.3951 27.7851C36.4493 27.8486 36.5115 27.9266 36.5842 28.0179C36.6556 28.1091 36.7244 28.2056 36.7865 28.3061C36.8501 28.4066 36.9043 28.5071 36.9493 28.6076C36.9942 28.7081 37.0167 28.7993 37.0167 28.8813C37.0167 29.0003 36.9942 29.1008 36.9493 29.1828C36.9043 29.2648 36.8316 29.356 36.7323 29.4565" fill="white"/>
<path d="M43.6979 28.4071C43.6979 29.1331 43.8023 29.662 44.0099 29.9939C43.8473 30.0587 43.6952 30.1037 43.555 30.1314C43.4147 30.1592 43.2666 30.1724 43.1133 30.1724C42.7866 30.1724 42.5394 30.1076 42.3726 29.9794C42.2047 29.8511 42.0989 29.6673 42.0526 29.428C41.853 29.6395 41.5898 29.8194 41.2644 29.9662C40.9378 30.1129 40.5398 30.187 40.0676 30.187C39.8229 30.187 39.5783 30.1526 39.3337 30.0838C39.0889 30.0151 38.8668 29.9027 38.6671 29.7467C38.4674 29.5906 38.3048 29.3817 38.1777 29.1212C38.0508 28.8594 37.9873 28.542 37.9873 28.1652C37.9873 27.6971 38.0984 27.3176 38.3207 27.024C38.5428 26.7305 38.8218 26.4991 39.1564 26.3298C39.4924 26.1605 39.8547 26.0442 40.2448 25.9794C40.635 25.9146 40.992 25.8736 41.3186 25.8551C41.427 25.8458 41.5343 25.8419 41.6387 25.8419H41.931V25.5906C41.931 25.2376 41.8384 24.9863 41.652 24.8369C41.4655 24.6888 41.1639 24.6134 40.7474 24.6134C40.3572 24.6134 40.0107 24.6782 39.7079 24.8065C39.4038 24.9348 39.1074 25.0829 38.8179 25.2481C38.6909 25.0921 38.5891 24.9189 38.5124 24.7311C38.4357 24.5433 38.3974 24.4019 38.3974 24.3106C38.3974 24.1824 38.4674 24.0581 38.6076 23.9377C38.7478 23.8187 38.9408 23.7103 39.1855 23.6138C39.4302 23.5172 39.7105 23.4392 40.0279 23.3797C40.3453 23.3202 40.6799 23.2898 41.0343 23.2898C41.5237 23.2898 41.9389 23.34 42.2787 23.4419C42.6187 23.5437 42.8951 23.6997 43.108 23.9113C43.3209 24.1229 43.4729 24.3873 43.563 24.7047C43.6529 25.022 43.6992 25.3923 43.6992 25.8154V28.4085L43.6979 28.4071ZM41.9574 26.8072H41.767C41.7035 26.8072 41.6401 26.8124 41.5766 26.8204C41.3503 26.8389 41.1256 26.8667 40.9034 26.9037C40.6813 26.9407 40.4842 27.0055 40.3122 27.0967C40.1403 27.1893 40.0001 27.3083 39.8904 27.4551C39.7819 27.6019 39.7277 27.791 39.7277 28.021C39.7277 28.2789 39.8005 28.4971 39.9446 28.6756C40.09 28.8554 40.3347 28.944 40.6786 28.944C40.8505 28.944 41.0145 28.9215 41.1679 28.8752C41.3213 28.829 41.4576 28.7695 41.5753 28.6954C41.693 28.6214 41.7855 28.542 41.8543 28.4534C41.9217 28.3662 41.9561 28.2855 41.9561 28.2128V26.8058H41.9574V26.8072Z" fill="white"/>
<path d="M47.0822 24.0898C47.2263 23.9152 47.4524 23.7381 47.7592 23.5582C48.0661 23.3784 48.4549 23.2898 48.9243 23.2898C49.259 23.2898 49.5777 23.3467 49.8805 23.4617C50.1833 23.5767 50.4519 23.7632 50.6872 24.0197C50.9226 24.2776 51.109 24.6174 51.2493 25.0405C51.3895 25.4637 51.4596 25.9833 51.4596 26.5995C51.4596 27.3162 51.3776 27.9073 51.2148 28.3714C51.0522 28.8356 50.8419 29.2032 50.5854 29.4756C50.3276 29.7467 50.0405 29.9371 49.7244 30.0481C49.4084 30.1579 49.0923 30.2134 48.7762 30.2134C48.5144 30.2134 48.2856 30.183 48.0913 30.1235C47.8967 30.064 47.7315 29.9966 47.5966 29.9238C47.4617 29.8498 47.3572 29.7771 47.2845 29.703C47.2118 29.629 47.1668 29.5787 47.1496 29.551V32.9414H45.3008V23.4815C45.3457 23.4723 45.4013 23.463 45.4647 23.4538C45.5203 23.4445 45.5838 23.4379 45.6565 23.4326C45.7292 23.4286 45.8165 23.426 45.917 23.426C46.2186 23.426 46.4738 23.4762 46.6841 23.5781C46.8943 23.6799 47.0267 23.8491 47.0822 24.0885M49.5301 26.6405C49.5301 26.3642 49.5076 26.1076 49.4626 25.8683C49.4177 25.629 49.3436 25.4227 49.2392 25.2481C49.136 25.0736 48.9957 24.9374 48.8199 24.8409C48.644 24.7443 48.4298 24.6967 48.1785 24.6967C47.8002 24.6967 47.5358 24.7708 47.3877 24.9176C47.2396 25.0643 47.1642 25.2257 47.1642 25.4002V28.3252C47.2356 28.3992 47.3639 28.4865 47.549 28.587C47.7341 28.6888 47.9483 28.7391 48.1918 28.7391C48.6519 28.7391 48.9891 28.5553 49.2061 28.1876C49.423 27.82 49.5301 27.3043 49.5301 26.6432" fill="white"/>
<path d="M52.8867 29.0137C52.8231 28.8299 52.7821 28.6368 52.7636 28.4345C52.7451 28.2322 52.7358 28.0299 52.7358 27.8275V21.4275C52.7993 21.4183 52.8668 21.409 52.9396 21.3998C53.0031 21.3905 53.0705 21.3839 53.1432 21.3786C53.216 21.3747 53.2887 21.372 53.3601 21.372C53.5056 21.372 53.6497 21.3852 53.7951 21.413C53.9407 21.4408 54.0716 21.4963 54.1893 21.5783C54.307 21.6616 54.4022 21.774 54.4749 21.9168C54.5477 22.0596 54.5834 22.2461 54.5834 22.4748V23.4547H56.4865V24.8484H54.5834V27.7905C54.5834 28.4318 54.8412 28.7532 55.3584 28.7532C55.4853 28.7532 55.6057 28.732 55.7181 28.691C55.8318 28.65 55.9336 28.6037 56.0235 28.5535C56.1136 28.5033 56.1942 28.4504 56.2617 28.3948C56.3291 28.3393 56.3767 28.2983 56.4045 28.2705C56.5407 28.4728 56.6451 28.6487 56.7165 28.7955C56.7893 28.9436 56.825 29.0824 56.825 29.212C56.825 29.3323 56.7774 29.4513 56.6822 29.5677C56.5869 29.6841 56.4534 29.7912 56.2815 29.8877C56.1096 29.9856 55.9005 30.0636 55.6559 30.1244C55.4113 30.1852 55.1442 30.2156 54.8531 30.2156C54.2911 30.2156 53.8533 30.1046 53.5413 29.8851C53.2292 29.6642 53.0084 29.3747 52.8814 29.0163" fill="white"/>
<path d="M61.1759 28.8344C61.4033 28.8344 61.603 28.8092 61.7764 28.759C61.9496 28.7087 62.1043 28.6466 62.2405 28.5725C62.3767 28.4985 62.4957 28.4192 62.5949 28.3306C62.6954 28.2433 62.7854 28.1626 62.8674 28.0886C62.9758 28.2261 63.0895 28.4033 63.2085 28.6201C63.3262 28.837 63.3857 29.0129 63.3857 29.1517C63.3857 29.354 63.272 29.5378 63.0459 29.7031C62.8555 29.8499 62.5856 29.9768 62.2365 30.0826C61.8874 30.1884 61.4774 30.2413 61.0066 30.2413C60.5807 30.2413 60.1615 30.1858 59.749 30.076C59.3363 29.9663 58.9687 29.7732 58.6474 29.4968C58.3259 29.2205 58.0654 28.8515 57.8657 28.3861C57.6661 27.922 57.5669 27.3362 57.5669 26.6274C57.5669 26.0482 57.6555 25.5497 57.8314 25.1306C58.0085 24.7127 58.2439 24.3649 58.5388 24.0886C58.8338 23.8122 59.1657 23.6099 59.5386 23.4816C59.9103 23.3534 60.2911 23.2886 60.6812 23.2886C61.1891 23.2886 61.6189 23.3692 61.9734 23.5306C62.3264 23.6919 62.6147 23.9074 62.837 24.1785C63.0591 24.4496 63.2191 24.7603 63.3196 25.1094C63.4188 25.4585 63.469 25.8261 63.469 26.2135V26.4066C63.469 26.4806 63.4664 26.5587 63.4624 26.6406C63.4585 26.7239 63.4532 26.8046 63.4492 26.8826C63.4439 26.9606 63.4373 27.0228 63.4294 27.0691H59.4183C59.454 27.5755 59.6087 27.996 59.8825 28.3319C60.1549 28.6677 60.5873 28.8357 61.1785 28.8357M61.7988 26.035C61.7988 25.5934 61.7141 25.235 61.5461 24.9587C61.3769 24.6823 61.0741 24.5448 60.6363 24.5448C60.262 24.5448 59.9645 24.6757 59.741 24.9375C59.5174 25.1993 59.4064 25.5656 59.4064 26.0337H61.8002H61.7988V26.035Z" fill="white"/>
<path d="M66.6841 24.1242C66.7383 24.0422 66.811 23.951 66.9011 23.8505C66.991 23.75 67.1021 23.6587 67.2343 23.5767C67.3652 23.4948 67.5107 23.426 67.6693 23.3718C67.828 23.3176 67.9974 23.2898 68.1799 23.2898C68.2883 23.2898 68.4047 23.2991 68.5263 23.3176C68.6493 23.3361 68.7617 23.3705 68.8662 23.4207C68.9708 23.471 69.0541 23.5397 69.1175 23.6257C69.181 23.7129 69.2127 23.82 69.2127 23.947C69.2127 24.148 69.1625 24.3781 69.0633 24.6386C68.9627 24.8991 68.8635 25.1212 68.7643 25.305C68.6096 25.1767 68.4563 25.0776 68.3015 25.0088C68.1468 24.94 67.9657 24.9057 67.7579 24.9057C67.4776 24.9057 67.2409 24.989 67.0505 25.1543C66.8599 25.3209 66.7647 25.5179 66.7647 25.7493V30.2148H64.916V23.4842C64.961 23.4749 65.0152 23.4657 65.0787 23.4564C65.1329 23.4472 65.1963 23.4405 65.2691 23.4352C65.3418 23.4313 65.4278 23.4286 65.5269 23.4286C65.8166 23.4286 66.0679 23.4855 66.2821 23.5992C66.495 23.7129 66.6285 23.8888 66.6828 24.1255" fill="white"/>
<path d="M71.9407 24.1242C71.9949 24.0422 72.0676 23.951 72.1589 23.8505C72.2488 23.75 72.36 23.6587 72.4922 23.5767C72.6232 23.4948 72.7686 23.426 72.9273 23.3718C73.086 23.3176 73.2552 23.2898 73.4378 23.2898C73.5463 23.2898 73.6626 23.2991 73.7843 23.3176C73.9073 23.3361 74.0196 23.3705 74.1241 23.4207C74.2286 23.471 74.3119 23.5397 74.3753 23.6257C74.4388 23.7129 74.4707 23.82 74.4707 23.947C74.4707 24.148 74.4203 24.3781 74.3211 24.6386C74.2206 24.8991 74.1215 25.1212 74.0223 25.305C73.8676 25.1767 73.7142 25.0776 73.5595 25.0088C73.4048 24.94 73.2235 24.9057 73.0159 24.9057C72.7355 24.9057 72.4988 24.989 72.3083 25.1543C72.1179 25.3209 72.0227 25.5179 72.0227 25.7493V30.2148H70.1738V23.4842C70.2188 23.4749 70.2731 23.4657 70.3366 23.4564C70.3908 23.4472 70.4543 23.4405 70.527 23.4352C70.5997 23.4313 70.6857 23.4286 70.7849 23.4286C71.0745 23.4286 71.3271 23.4855 71.54 23.5992C71.7529 23.7129 71.8865 23.8888 71.9407 24.1255" fill="white"/>
<path d="M80.7675 28.4071C80.7675 29.1331 80.8721 29.662 81.0797 29.9939C80.9171 30.0587 80.7649 30.1037 80.6247 30.1314C80.4846 30.1592 80.3365 30.1724 80.1831 30.1724C79.8565 30.1724 79.6091 30.1076 79.4425 29.9794C79.2745 29.8511 79.1687 29.6673 79.1225 29.428C78.9228 29.6395 78.6595 29.8194 78.3342 29.9662C78.0076 30.1129 77.6095 30.187 77.1374 30.187C76.8928 30.187 76.6481 30.1526 76.4034 30.0838C76.1587 30.0151 75.9366 29.9027 75.7369 29.7467C75.5373 29.5906 75.3745 29.3817 75.2475 29.1212C75.1206 28.8594 75.0571 28.542 75.0571 28.1652C75.0571 27.6971 75.1682 27.3176 75.3904 27.024C75.6126 26.7305 75.8916 26.4991 76.2262 26.3298C76.5607 26.1605 76.9245 26.0442 77.3133 25.9794C77.7035 25.9146 78.0605 25.8736 78.3871 25.8551C78.4955 25.8458 78.6026 25.8419 78.7071 25.8419H78.9995V25.5906C78.9995 25.2376 78.9069 24.9863 78.7205 24.8369C78.5339 24.6888 78.2324 24.6134 77.8159 24.6134C77.4257 24.6134 77.0792 24.6782 76.7764 24.8065C76.4721 24.9348 76.1759 25.0829 75.8864 25.2481C75.7594 25.0921 75.6576 24.9189 75.5809 24.7311C75.5042 24.5433 75.4657 24.4019 75.4657 24.3106C75.4657 24.1824 75.5359 24.0581 75.6761 23.9377C75.8163 23.8187 76.0093 23.7103 76.254 23.6138C76.4986 23.5172 76.779 23.4392 77.0964 23.3797C77.4138 23.3202 77.7498 23.2898 78.1028 23.2898C78.5921 23.2898 79.0074 23.34 79.3472 23.4419C79.6871 23.5437 79.9636 23.6997 80.1765 23.9113C80.3894 24.1229 80.5414 24.3873 80.6313 24.7047C80.7213 25.022 80.7675 25.3923 80.7675 25.8154V28.4085V28.4071ZM79.0272 26.8072H78.8368C78.7734 26.8072 78.7099 26.8124 78.6463 26.8204C78.4202 26.8389 78.1954 26.8667 77.9732 26.9037C77.7511 26.9407 77.5539 27.0055 77.382 27.0967C77.2101 27.1893 77.07 27.3083 76.9602 27.4551C76.8518 27.6019 76.7976 27.791 76.7976 28.021C76.7976 28.2789 76.8703 28.4971 77.0157 28.6756C77.1612 28.8554 77.4058 28.944 77.7498 28.944C77.9217 28.944 78.0856 28.9215 78.239 28.8752C78.3924 28.829 78.5286 28.7695 78.6463 28.6954C78.7641 28.6214 78.8567 28.542 78.9254 28.4534C78.9929 28.3662 79.0272 28.2855 79.0272 28.2128V26.8058V26.8072Z" fill="white"/>
<path d="M42.3528 68.5852H37.4716V67.5578L39.2242 65.7846C39.7438 65.253 40.082 64.8841 40.242 64.6778C40.4006 64.4728 40.5156 64.2824 40.5857 64.1066C40.6558 63.932 40.69 63.7495 40.69 63.5618C40.69 63.2814 40.6135 63.0725 40.4587 62.9363C40.3042 62.7988 40.0979 62.7314 39.8402 62.7314C39.5692 62.7314 39.3062 62.7935 39.0525 62.9178C38.7974 63.0421 38.5317 63.2193 38.2555 63.4481L37.4531 62.4973C37.7968 62.2038 38.0823 61.9975 38.3083 61.8758C38.5344 61.7542 38.7815 61.6616 39.0485 61.5968C39.3155 61.532 39.6155 61.499 39.946 61.499C40.3821 61.499 40.7667 61.5783 41.1011 61.7383C41.4355 61.8983 41.6946 62.1204 41.8796 62.4074C42.0647 62.6943 42.1573 63.0223 42.1573 63.3912C42.1573 63.7125 42.1004 64.0153 41.988 64.297C41.8743 64.5786 41.6999 64.8682 41.4633 65.1644C41.2267 65.4606 40.8077 65.8824 40.2103 66.4312L39.3128 67.2775V67.3449H42.3555V68.5866L42.3528 68.5852Z" fill="white"/>
<path d="M47.8011 65.0923C47.8011 66.3128 47.6016 67.216 47.2024 67.8018C46.8033 68.3875 46.1874 68.6811 45.356 68.6811C44.5246 68.6811 43.943 68.3783 43.5347 67.7727C43.1249 67.1671 42.9214 66.2745 42.9214 65.0923C42.9214 63.9102 43.1209 62.9515 43.5188 62.3671C43.9166 61.7826 44.5299 61.4904 45.3574 61.4904C46.1847 61.4904 46.7716 61.7958 47.184 62.408C47.5963 63.019 47.8024 63.9142 47.8024 65.0937L47.8011 65.0923ZM44.3872 65.0923C44.3872 65.9492 44.4612 66.5628 44.6092 66.9343C44.7573 67.3059 45.0058 67.491 45.356 67.491C45.7062 67.491 45.9482 67.3032 46.1014 66.9277C46.2548 66.5522 46.33 65.9399 46.33 65.0923C46.33 64.2447 46.2535 63.6206 46.0988 63.2451C45.9442 62.8709 45.6971 62.6831 45.356 62.6831C45.015 62.6831 44.7613 62.8709 44.6105 63.2451C44.4612 63.6193 44.3859 64.2355 44.3859 65.0923H44.3872Z" fill="white"/>
<path d="M53.3226 68.5852H48.4414V67.5578L50.194 65.7846C50.7135 65.253 51.0517 64.8841 51.2117 64.6778C51.3703 64.4728 51.4853 64.2824 51.5554 64.1066C51.6255 63.932 51.6597 63.7495 51.6597 63.5618C51.6597 63.2814 51.5832 63.0725 51.4285 62.9363C51.2739 62.7988 51.0676 62.7314 50.8099 62.7314C50.539 62.7314 50.2759 62.7935 50.0222 62.9178C49.7684 63.0421 49.5015 63.2193 49.2252 63.4481L48.4229 62.4973C48.7665 62.2038 49.052 61.9975 49.278 61.8758C49.5041 61.7542 49.7512 61.6616 50.0182 61.5968C50.2852 61.532 50.5852 61.499 50.9157 61.499C51.3518 61.499 51.7364 61.5783 52.0709 61.7383C52.4053 61.8983 52.6643 62.1204 52.8493 62.4074C53.0344 62.6943 53.127 63.0223 53.127 63.3912C53.127 63.7125 53.0701 64.0153 52.9577 64.297C52.844 64.5786 52.6696 64.8682 52.433 65.1644C52.1965 65.4606 51.7774 65.8824 51.1787 66.4312L50.2812 67.2775V67.3449H53.3239V68.5866L53.3226 68.5852Z" fill="white"/>
<path d="M58.9672 67.1372H58.1266V68.5851H56.6846V67.1372H53.7041V66.1097L56.7651 61.5993H58.1266V65.9907H58.9672V67.1372ZM56.6846 65.9907V64.8059C56.6846 64.6089 56.6925 64.3219 56.7084 63.9464C56.7243 63.5709 56.7375 63.3527 56.7467 63.2919H56.7084C56.5907 63.5537 56.4494 63.8076 56.2827 64.0562L55.0033 65.9907H56.6846Z" fill="white"/>
</svg>
