<svg width="224" height="96" viewBox="0 0 224 96" fill="none" xmlns="http://www.w3.org/2000/svg">
<g clip-path="url(#clip0_6173_384437)">
<path fill-rule="evenodd" clip-rule="evenodd" d="M35.5148 83.2817C34.298 83.3482 30.2615 84.4171 29.5347 84.6666C28.7872 84.9203 27.5705 85.3737 26.8645 85.6939C25.9882 86.089 25.2574 86.6214 24.3894 86.9998L23.6045 86.8543C23.4758 86.7004 23.2889 86.6089 23.3346 86.3677C23.4966 85.4943 30.5231 83.3815 33.5713 83.0113C25.6353 81.0525 19.0448 76.2654 14.6885 69.9396C9.98749 63.1229 7.88617 54.5055 9.50577 45.7133C11.1254 36.9211 16.1503 29.6179 22.9733 24.9182C24.3105 23.9949 25.7183 23.1714 27.1843 22.4602C27.1552 22.4519 27.1303 22.4436 27.1012 22.4353C28.4301 17.4486 30.5231 18.8918 35.5729 17.8645C35.4359 19.7818 31.4367 23.2297 27.8279 22.6141C26.2208 23.3669 24.6801 24.2486 23.2225 25.2551C16.4866 29.8924 11.524 37.1083 9.9252 45.7882C8.32637 54.468 10.3986 62.9815 15.0415 69.7108C19.6801 76.4484 26.8894 81.4143 35.5646 83.0155L35.5148 83.2775V83.2817ZM23.7623 22.7389C27.5289 21.2125 26.171 19.8193 26.4284 15.9639C24.8379 16.2966 22.3628 20.073 23.7623 22.7389ZM20.0248 26.0911C23.3429 23.7953 21.7067 22.7223 21.0879 18.896C19.6178 19.5573 18.0605 23.7828 20.0248 26.0911ZM23.0024 26.7981C25.5937 28.2704 29.5264 26.1493 29.9459 24.6645C26.0671 24.6895 24.7424 23.3295 23.0024 26.7981ZM18.3388 31.086C21.0589 32.313 24.759 29.83 25.0331 28.3161C21.1793 28.7029 19.73 27.4677 18.3388 31.086ZM15.9426 29.8383C19.4019 27.4469 17.6951 26.324 17.0514 22.3355C15.519 23.0259 13.8953 27.4344 15.9426 29.8383ZM13.0772 33.9599C15.4277 30.5246 13.4343 30.0588 11.3787 26.5319C10.2034 27.7089 10.2948 32.4045 13.0772 33.9599ZM14.0946 36.7381C17.3338 37.4535 20.7391 33.9183 20.6685 32.209C16.5905 33.5024 14.7258 32.4918 14.0946 36.7381ZM10.0373 38.9341C12.7034 35.0371 10.4401 34.5089 8.11042 30.5079C6.77322 31.843 6.8812 37.1707 10.0373 38.9341ZM11.5157 42.1781C14.8131 42.5441 17.7906 38.6596 17.5248 36.9627C13.6253 38.6887 11.6611 37.8777 11.5157 42.1781ZM8.28069 44.1869C4.70928 42.9559 3.56311 37.5117 4.6636 35.8939C7.82388 39.5704 10.245 39.6952 8.28069 44.1869ZM7.47505 49.6935C8.72919 44.7318 6.21675 44.9896 2.32972 41.6957C1.47009 43.5465 3.58387 48.9948 7.47505 49.6935ZM10.2117 49.6477C14.3313 49.4814 17.2134 44.137 16.5572 42.0991C12.1137 44.9564 9.53899 44.3284 10.2117 49.6477ZM7.95677 56.0651C8.35959 50.6334 5.77655 51.3404 1.10465 48.5539C0.544017 50.6459 3.75829 56.0027 7.95677 56.0651ZM9.41856 60.9935C7.45428 55.8655 5.41941 57.5582 0 56.9011C0.390364 59.0388 5.59798 62.6363 9.41856 60.9935ZM10.5896 56.8844C14.6677 56.1483 16.7483 50.4088 15.7931 48.4624C11.7898 51.931 9.13617 51.6607 10.5896 56.8844ZM11.9684 66.0758C8.93683 61.4552 7.32555 63.5305 1.89783 63.9922C2.745 66.0051 8.60046 68.459 11.9684 66.0758ZM13.3928 64.4996C16.8189 62.5947 16.8521 56.7638 15.3654 55.2874C12.8778 59.646 10.4069 60.2033 13.3928 64.4996ZM14.7258 71.5325C11.6943 66.916 10.083 68.983 4.65529 69.4488C5.49831 71.4659 11.3579 73.9281 14.7258 71.5325ZM18.5713 71.9858C21.2333 68.8083 18.9659 62.9358 16.9061 62.0083C16.1461 67.3111 13.9036 68.7834 18.5713 71.9858ZM19.3355 75.7663C14.9459 71.7404 13.8454 74.3107 8.3679 76.1864C9.78816 78.0663 16.5074 79.1185 19.3355 75.7663ZM24.1942 79.4512C19.1984 76.3985 18.6502 79.0728 13.779 81.8967C15.5107 83.4397 22.1511 83.1985 24.1942 79.4512ZM25.8886 78.2285C27.6244 74.032 23.2972 68.5504 20.8305 68.2094C21.7939 74.0362 19.9376 76.2987 25.8886 78.2285Z" fill="#BEAA6E"/>
<path d="M57.9484 82.5536L56.8272 79.7089H52.5166L51.4202 82.5536H50.897L54.4102 73.645H54.9833L58.4966 82.5536H57.9484ZM54.6719 74.1815L52.7034 79.2472H56.6528L54.6719 74.1815Z" fill="#2B292A"/>
<path d="M66.4322 82.5536L64.1897 74.3188L61.9472 82.5536H61.399L58.9447 73.645H59.4804L61.6731 81.9048L63.953 73.6824H64.4887L66.7312 81.9173L68.9363 73.645H69.4471L67.0053 82.5536H66.4322Z" fill="#2B292A"/>
<path d="M76.947 82.5536L75.8257 79.7089H71.5151L70.4188 82.5536H69.8955L73.4088 73.645H73.9819L77.4951 82.5536H76.947ZM73.6704 74.1815L71.702 79.2472H75.6513L73.6704 74.1815Z" fill="#2B292A"/>
<path d="M84.9705 82.5536L83.1142 78.4861C82.9232 78.5194 82.6782 78.536 82.3792 78.536H79.8999V82.5536H79.4141V73.645H82.3418C84.277 73.645 85.2446 74.4435 85.2446 76.0406C85.2446 76.6478 85.1034 77.1511 84.8293 77.5462C84.5511 77.9413 84.14 78.2199 83.6001 78.378L85.5311 82.5578H84.9705V82.5536ZM82.3542 78.0868C83.1765 78.0868 83.7787 77.9246 84.1607 77.5961C84.5428 77.2675 84.7338 76.7518 84.7338 76.0531C84.7338 75.3544 84.5428 74.8761 84.1524 74.5642C83.7621 74.2522 83.1391 74.0984 82.2753 74.0984H79.8958V78.091H82.3501L82.3542 78.0868Z" fill="#2B292A"/>
<path d="M87.724 82.5536V73.645H90.6517C91.9308 73.645 92.9109 74.0235 93.5836 74.7721C94.2605 75.5249 94.601 76.6187 94.601 78.0494C94.601 79.4801 94.2397 80.6322 93.5213 81.4016C92.8029 82.171 91.7647 82.5536 90.4026 82.5536H87.724ZM90.4399 82.1045C92.8652 82.1045 94.0778 80.7652 94.0778 78.0868C94.0778 76.7809 93.7871 75.7911 93.2057 75.1132C92.6243 74.4352 91.773 74.0984 90.6517 74.0984H88.2223V82.1086H90.4399V82.1045Z" fill="#2B292A"/>
<path d="M100.381 82.5535V82.1044L102.387 80.2827C103.185 79.5507 103.778 78.9643 104.165 78.5151C104.551 78.0701 104.817 77.6708 104.97 77.3173C105.12 76.9638 105.195 76.5853 105.195 76.1736C105.195 75.5248 105.016 75.0257 104.655 74.6722C104.293 74.3187 103.783 74.1398 103.126 74.1398C102.52 74.1398 102.03 74.2896 101.665 74.5849C101.295 74.8801 101.017 75.3501 100.826 75.9989L100.39 75.8991C100.564 75.1838 100.888 74.6389 101.366 74.2605C101.843 73.882 102.437 73.6948 103.151 73.6948C103.932 73.6948 104.555 73.9153 105.016 74.3561C105.477 74.797 105.71 75.3959 105.71 76.1528C105.71 76.6269 105.614 77.0719 105.423 77.4878C105.232 77.9038 104.92 78.3529 104.489 78.8354C104.057 79.3178 103.459 79.9042 102.695 80.5946L101.025 82.0919H105.772L105.66 82.5535H100.39H100.381Z" fill="#C35632"/>
<path d="M109.8 82.7781C108.812 82.7781 108.056 82.3913 107.537 81.6177C107.017 80.8442 106.756 79.7171 106.756 78.2365C106.756 76.7559 107.017 75.6496 107.549 74.8677C108.076 74.0858 108.832 73.6948 109.821 73.6948C110.809 73.6948 111.565 74.0816 112.084 74.8552C112.603 75.6288 112.865 76.7559 112.865 78.2365C112.865 79.7171 112.603 80.8234 112.076 81.6053C111.548 82.3872 110.788 82.7781 109.8 82.7781ZM109.812 82.3289C111.498 82.3289 112.341 80.9648 112.341 78.2365C112.341 75.5082 111.498 74.144 109.812 74.144C108.126 74.144 107.283 75.5082 107.283 78.2365C107.283 80.9648 108.126 82.3289 109.812 82.3289Z" fill="#C35632"/>
<path d="M113.637 82.5535V82.1044L115.643 80.2827C116.44 79.5507 117.034 78.9643 117.421 78.5151C117.807 78.0701 118.077 77.6708 118.222 77.3173C118.372 76.9638 118.446 76.5853 118.446 76.1736C118.446 75.5248 118.268 75.0257 117.906 74.6722C117.545 74.3187 117.034 74.1398 116.382 74.1398C115.776 74.1398 115.286 74.2896 114.916 74.5849C114.547 74.8801 114.264 75.3501 114.078 75.9989L113.641 75.8991C113.816 75.1838 114.14 74.6389 114.617 74.2605C115.095 73.882 115.689 73.6948 116.403 73.6948C117.184 73.6948 117.807 73.9153 118.268 74.3561C118.729 74.797 118.961 75.3959 118.961 76.1528C118.961 76.6269 118.866 77.0719 118.675 77.4878C118.484 77.9038 118.172 78.3529 117.74 78.8354C117.308 79.3178 116.71 79.9042 115.946 80.5946L114.277 82.0919H119.024L118.911 82.5535H113.641H113.637Z" fill="#C35632"/>
<path d="M124.103 82.5538V80.1956H119.767V79.7714L124.065 73.9321H124.576V79.7714H125.847L125.735 80.1956H124.576V82.5538H124.103ZM124.103 74.5685L120.278 79.7714H124.103V74.5685Z" fill="#C35632"/>
<path d="M62.4993 46.4118C62.437 47.1106 62.2751 47.7594 62.0134 48.3541C61.7477 48.9488 61.3864 49.4646 60.9296 49.9013C60.4686 50.338 59.9038 50.679 59.2352 50.9244C58.5666 51.1698 57.79 51.2945 56.9096 51.2945C55.9171 51.2945 55.0409 51.1282 54.2892 50.7954C53.5334 50.4627 52.9022 49.9969 52.3955 49.3939C51.8848 48.7908 51.5027 48.063 51.2452 47.2104C50.9877 46.3578 50.859 45.4137 50.859 44.3822C50.859 43.3508 51.0002 42.3568 51.2826 41.5084C51.565 40.6599 51.9678 39.9363 52.4952 39.3332C53.0226 38.7301 53.6622 38.2727 54.4097 37.9524C55.1572 37.6322 56.0043 37.4741 56.947 37.4741C57.7817 37.4741 58.5085 37.5781 59.1272 37.786C59.746 37.994 60.2693 38.2976 60.6928 38.6886C61.1164 39.0837 61.457 39.5536 61.7144 40.1068C61.9719 40.6599 62.1629 41.2796 62.2834 41.9659L59.5591 42.3152C59.4221 41.5416 59.1646 40.9344 58.7784 40.4894C58.3922 40.0486 57.7817 39.8281 56.947 39.8281C55.8922 39.8281 55.0907 40.2232 54.5467 41.0176C54.0027 41.8078 53.7286 42.9308 53.7286 44.3781C53.7286 45.8254 54.0193 46.965 54.6007 47.751C55.1821 48.5371 55.967 48.9322 56.947 48.9322C57.7942 48.9322 58.4171 48.7159 58.8158 48.2792C59.2145 47.8425 59.4636 47.2187 59.5591 46.4077H62.5035L62.4993 46.4118Z" fill="#E95D0F"/>
<path d="M64.3975 37.8066H67.1383V48.6034H73.3551L73.0602 50.9616H64.3975V37.8066Z" fill="#E95D0F"/>
<path d="M80.2528 51.2948C79.2727 51.2948 78.3965 51.1367 77.6241 50.8165C76.8516 50.4962 76.1955 50.0346 75.6556 49.4357C75.1158 48.8326 74.7005 48.109 74.414 47.2605C74.1274 46.4121 73.9821 45.4555 73.9821 44.3866C73.9821 43.3178 74.1274 42.3612 74.414 41.5128C74.7005 40.6643 75.1199 39.9407 75.6639 39.3376C76.208 38.7345 76.8683 38.277 77.6407 37.9568C78.4131 37.6366 79.2852 37.4785 80.2528 37.4785C81.2204 37.4785 82.1091 37.6366 82.8815 37.9568C83.6539 38.277 84.3059 38.7387 84.8416 39.3376C85.3732 39.9407 85.7843 40.6643 86.0667 41.5128C86.3491 42.3612 86.4903 43.3178 86.4903 44.3866C86.4903 45.4555 86.3533 46.4121 86.075 47.2605C85.7968 48.109 85.394 48.8326 84.8624 49.4357C84.3308 50.0387 83.6747 50.4962 82.9023 50.8165C82.1299 51.1367 81.2453 51.2948 80.2528 51.2948ZM80.2362 48.9366C81.3907 48.9366 82.2461 48.5457 82.8109 47.7554C83.3757 46.9694 83.6581 45.8465 83.6581 44.3825C83.6581 42.9185 83.3757 41.8122 82.8109 41.022C82.2461 40.2318 81.3865 39.8325 80.2362 39.8325C79.0859 39.8325 78.2262 40.2276 77.6614 41.022C77.0967 41.8122 76.8143 42.9351 76.8143 44.3825C76.8143 45.8298 77.0967 46.9694 77.6614 47.7554C78.2262 48.5415 79.0859 48.9366 80.2362 48.9366Z" fill="#E95D0F"/>
<path d="M88.4963 37.8066H91.2372V45.6381C91.2372 46.7568 91.4324 47.5845 91.8269 48.1252C92.2172 48.6658 92.8734 48.9362 93.7953 48.9362C94.7172 48.9362 95.3692 48.6658 95.7554 48.1252C96.1416 47.5845 96.3368 46.7568 96.3368 45.6381V37.8066H99.0777V45.6381C99.0777 46.6321 98.9531 47.4888 98.7081 48.2C98.4631 48.9112 98.1142 49.4976 97.6616 49.9593C97.2089 50.4209 96.6524 50.7578 95.9963 50.9741C95.3402 51.1904 94.601 51.2985 93.7787 51.2985C92.9564 51.2985 92.2006 51.1862 91.5445 50.9658C90.8884 50.7453 90.3319 50.4043 89.8792 49.9426C89.4266 49.481 89.0819 48.8904 88.8493 48.1667C88.6168 47.4431 88.5005 46.5822 88.5005 45.5882V37.815L88.4963 37.8066Z" fill="#E95D0F"/>
<path d="M101.503 37.8066H106.416C108.426 37.8066 109.995 38.3515 111.117 39.4453C112.238 40.5391 112.798 42.1611 112.798 44.3072C112.798 45.401 112.641 46.3576 112.329 47.1811C112.018 48.0045 111.565 48.6991 110.975 49.2647C110.386 49.8304 109.667 50.2546 108.824 50.5374C107.977 50.8202 107.022 50.9616 105.955 50.9616H101.503V37.8066ZM106.009 48.6201C106.719 48.6201 107.325 48.5203 107.832 48.3165C108.334 48.1127 108.741 47.8215 109.057 47.4431C109.368 47.0604 109.601 46.6113 109.746 46.0872C109.896 45.5674 109.966 44.9768 109.966 44.328C109.966 43.6792 109.904 43.1094 109.775 42.5853C109.646 42.0655 109.443 41.6246 109.161 41.2669C108.878 40.9093 108.513 40.6348 108.064 40.4393C107.616 40.2438 107.068 40.144 106.42 40.144H104.248V48.6201H106.013H106.009Z" fill="#E95D0F"/>
<path d="M126.283 46.4118C126.22 47.1106 126.058 47.7594 125.797 48.3541C125.531 48.9488 125.17 49.4646 124.713 49.9013C124.252 50.338 123.687 50.679 123.019 50.9244C122.35 51.1698 121.573 51.2945 120.693 51.2945C119.7 51.2945 118.824 51.1282 118.073 50.7954C117.317 50.4627 116.686 49.9969 116.179 49.3939C115.668 48.7908 115.286 48.063 115.029 47.2104C114.771 46.3578 114.642 45.4137 114.642 44.3822C114.642 43.3508 114.784 42.3568 115.066 41.5084C115.348 40.6599 115.751 39.9363 116.279 39.3332C116.806 38.7301 117.445 38.2727 118.193 37.9524C118.94 37.6322 119.788 37.4741 120.73 37.4741C121.565 37.4741 122.292 37.5781 122.911 37.786C123.529 37.994 124.053 38.2976 124.476 38.6886C124.9 39.0837 125.24 39.5536 125.498 40.1068C125.755 40.6599 125.946 41.2796 126.067 41.9659L123.342 42.3152C123.205 41.5416 122.948 40.9344 122.562 40.4894C122.176 40.0486 121.565 39.8281 120.73 39.8281C119.676 39.8281 118.874 40.2232 118.33 41.0176C117.786 41.8078 117.512 42.9308 117.512 44.3781C117.512 45.8254 117.803 46.965 118.384 47.751C118.965 48.5371 119.75 48.9322 120.73 48.9322C121.578 48.9322 122.2 48.7159 122.599 48.2792C122.998 47.8425 123.247 47.2187 123.342 46.4077H126.287L126.283 46.4118Z" fill="#E95D0F"/>
<path d="M134.023 51.2948C133.043 51.2948 132.167 51.1367 131.394 50.8165C130.622 50.4962 129.966 50.0346 129.426 49.4357C128.886 48.8326 128.471 48.109 128.184 47.2605C127.898 46.4121 127.752 45.4555 127.752 44.3866C127.752 43.3178 127.898 42.3612 128.184 41.5128C128.471 40.6643 128.89 39.9407 129.434 39.3376C129.978 38.7345 130.639 38.277 131.411 37.9568C132.183 37.6366 133.056 37.4785 134.023 37.4785C134.991 37.4785 135.879 37.6366 136.652 37.9568C137.424 38.277 138.076 38.7387 138.612 39.3376C139.144 39.9407 139.555 40.6643 139.837 41.5128C140.119 42.3612 140.261 43.3178 140.261 44.3866C140.261 45.4555 140.124 46.4121 139.845 47.2605C139.567 48.109 139.164 48.8326 138.633 49.4357C138.101 50.0387 137.445 50.4962 136.673 50.8165C135.9 51.1367 135.016 51.2948 134.023 51.2948ZM134.007 48.9366C135.161 48.9366 136.017 48.5457 136.581 47.7554C137.146 46.9694 137.428 45.8465 137.428 44.3825C137.428 42.9185 137.146 41.8122 136.581 41.022C136.017 40.2318 135.157 39.8325 134.007 39.8325C132.856 39.8325 131.997 40.2276 131.432 41.022C130.867 41.8164 130.585 42.9351 130.585 44.3825C130.585 45.8298 130.867 46.9694 131.432 47.7554C131.997 48.5415 132.856 48.9366 134.007 48.9366Z" fill="#E95D0F"/>
<path d="M142.524 37.8066H145.817L149.09 47.6261L152.458 37.8066H155.659V50.9616H153.139V42.1902L150.14 50.9616H148.006L144.991 42.211V50.9616H142.524V37.8066Z" fill="#E95D0F"/>
<path d="M158.346 37.8066H163.039C164.044 37.8066 164.874 37.9189 165.531 38.1477C166.187 38.3764 166.706 38.6759 167.096 39.0502C167.482 39.4245 167.752 39.8612 167.906 40.3603C168.06 40.8594 168.134 41.3751 168.134 41.9157C168.134 42.4938 168.06 43.047 167.906 43.5752C167.752 44.1034 167.482 44.5692 167.096 44.9643C166.71 45.3636 166.195 45.6797 165.551 45.9126C164.908 46.1455 164.094 46.2619 163.114 46.2619H161.054V50.9616H158.35V37.8066H158.346ZM163.018 43.9786C163.496 43.9786 163.89 43.9287 164.206 43.833C164.521 43.7374 164.766 43.6001 164.949 43.4296C165.132 43.2591 165.261 43.047 165.327 42.7933C165.393 42.5438 165.427 42.2693 165.427 41.974C165.427 41.6787 165.389 41.3959 165.315 41.163C165.24 40.9301 165.111 40.7346 164.928 40.5724C164.746 40.4143 164.496 40.2896 164.185 40.2022C163.874 40.1149 163.475 40.0733 162.997 40.0733H161.046V43.9786H163.014H163.018Z" fill="#E95D0F"/>
<path d="M169.862 37.8066H172.603V45.6381C172.603 46.7568 172.798 47.5845 173.193 48.1252C173.583 48.6658 174.239 48.9362 175.161 48.9362C176.083 48.9362 176.735 48.6658 177.121 48.1252C177.507 47.5845 177.703 46.7568 177.703 45.6381V37.8066H180.443V45.6381C180.443 46.6321 180.319 47.4888 180.074 48.2C179.829 48.9112 179.48 49.4976 179.023 49.9593C178.566 50.4209 178.014 50.7578 177.358 50.9741C176.702 51.1904 175.963 51.2985 175.14 51.2985C174.318 51.2985 173.562 51.1862 172.906 50.9658C172.25 50.7453 171.693 50.4043 171.241 49.9426C170.788 49.481 170.443 48.8904 170.211 48.1667C169.978 47.4431 169.862 46.5822 169.862 45.5882V37.815V37.8066Z" fill="#E95D0F"/>
<path d="M185.846 40.1858H181.893V37.811H192.561V40.1858H188.608V50.9618H185.85V40.1858H185.846Z" fill="#E95D0F"/>
<path d="M194.272 37.8066H197.013V50.9616H194.272V37.8066Z" fill="#E95D0F"/>
<path d="M199.7 37.8066H202.167L207.574 46.4283V37.8066H210.24V50.9616H207.794L202.366 42.4148V50.9616H199.7V37.8066Z" fill="#E95D0F"/>
<path d="M218.977 43.7584H224.019V49.3232C223.346 49.9512 222.54 50.4336 221.61 50.7788C220.676 51.124 219.717 51.2945 218.72 51.2945C217.678 51.2945 216.768 51.1282 215.987 50.7954C215.207 50.4627 214.563 49.9969 214.048 49.3939C213.533 48.7908 213.147 48.063 212.889 47.2104C212.632 46.3578 212.503 45.4137 212.503 44.3822C212.503 43.3508 212.644 42.3568 212.927 41.5084C213.209 40.6599 213.612 39.9363 214.131 39.3332C214.65 38.7301 215.286 38.2727 216.033 37.9524C216.781 37.6322 217.615 37.4741 218.533 37.4741C219.38 37.4741 220.107 37.5781 220.713 37.786C221.32 37.994 221.835 38.2851 222.258 38.6511C222.682 39.0213 223.018 39.4497 223.271 39.9404C223.521 40.4312 223.703 40.9594 223.815 41.525L221.091 41.8744C221.016 41.5416 220.929 41.2505 220.825 41.001C220.722 40.7514 220.572 40.5352 220.377 40.3563C220.182 40.1775 219.937 40.0444 219.642 39.9529C219.347 39.8614 218.982 39.8156 218.537 39.8156C217.47 39.8156 216.673 40.2149 216.145 41.0134C215.618 41.812 215.352 42.9349 215.352 44.3864C215.352 45.8379 215.618 46.9733 216.153 47.7677C216.689 48.5579 217.553 48.9572 218.757 48.9572C219.335 48.9572 219.833 48.8989 220.256 48.7825C220.68 48.666 221.087 48.483 221.482 48.2377V46.0459H218.982V43.7625L218.977 43.7584Z" fill="#E95D0F"/>
<path d="M51.2788 54.1021H54.0197V67.257H51.2788V54.1021Z" fill="#2B292A"/>
<path d="M56.7068 54.1021H59.1736L64.5805 62.7237V54.1021H67.2466V67.257H64.8006L59.3729 58.7102V67.257H56.7068V54.1021Z" fill="#2B292A"/>
<path d="M71.8853 62.9649C71.9476 63.7759 72.2092 64.3665 72.666 64.7325C73.127 65.1026 73.8039 65.2856 74.7009 65.2856C75.1286 65.2856 75.4899 65.2399 75.7848 65.1484C76.0796 65.0569 76.3163 64.9321 76.5032 64.7782C76.6859 64.6243 76.8188 64.4455 76.8977 64.2334C76.9766 64.0254 77.0181 63.7967 77.0181 63.5513C77.0181 63.2061 76.8894 62.8859 76.6319 62.5822C76.3745 62.2828 75.901 62.0624 75.2158 61.9293L73.5049 61.6174C72.8321 61.4967 72.2341 61.3345 71.7192 61.1391C71.2042 60.9436 70.7723 60.6899 70.4235 60.3738C70.0747 60.0619 69.8089 59.6751 69.622 59.2218C69.4393 58.7684 69.3479 58.2278 69.3479 57.5997C69.3479 56.9717 69.4725 56.4186 69.7258 55.9403C69.975 55.462 70.328 55.0628 70.7765 54.7425C71.225 54.4223 71.7607 54.181 72.3878 54.0147C73.0148 53.8483 73.7001 53.7651 74.4476 53.7651C75.4027 53.7651 76.2 53.8774 76.8396 54.0979C77.4791 54.3183 77.9941 54.6094 78.3844 54.9713C78.7748 55.3331 79.0696 55.7531 79.2565 56.2314C79.4475 56.7097 79.5721 57.2088 79.6344 57.7245L77.0389 58.0572C76.9019 57.3336 76.6444 56.8095 76.2582 56.4893C75.872 56.169 75.2864 56.011 74.5015 56.011C74.0364 56.011 73.6502 56.0526 73.3512 56.1316C73.0522 56.2106 72.8072 56.3146 72.6245 56.4435C72.4418 56.5725 72.313 56.7222 72.2383 56.8969C72.1635 57.0674 72.1261 57.2462 72.1261 57.4292C72.1261 57.92 72.2632 58.2901 72.5414 58.5355C72.8155 58.7809 73.2848 58.9722 73.9492 59.1053L75.7515 59.4547C77.176 59.7375 78.2183 60.195 78.8786 60.8271C79.5389 61.4593 79.8711 62.3701 79.8711 63.5638C79.8711 64.1419 79.7632 64.6742 79.5472 65.1567C79.3313 65.6433 79.0156 66.0675 78.5921 66.4293C78.1685 66.7912 77.6369 67.074 77.0015 67.2778C76.362 67.4816 75.6145 67.5814 74.759 67.5814C72.9692 67.5814 71.5987 67.1988 70.6477 66.4293C69.6968 65.6599 69.186 64.5037 69.1112 62.9566H71.8894L71.8853 62.9649Z" fill="#2B292A"/>
<path d="M81.7976 54.1021H84.5385V67.257H81.7976V54.1021Z" fill="#2B292A"/>
<path d="M87.225 54.1021H92.1377C94.1477 54.1021 95.7175 54.6469 96.8387 55.7407C97.96 56.8345 98.5206 58.4565 98.5206 60.6026C98.5206 61.6964 98.3628 62.653 98.0513 63.4765C97.7399 64.3 97.2872 64.9945 96.6975 65.5601C96.1078 66.1258 95.3894 66.55 94.5464 66.8328C93.6992 67.1156 92.7441 67.257 91.6768 67.257H87.225V54.1021ZM91.7308 64.9155C92.4409 64.9155 93.0472 64.8157 93.5539 64.6119C94.0563 64.4081 94.4633 64.117 94.7789 63.7385C95.0904 63.3559 95.3229 62.9067 95.4683 62.3826C95.6136 61.8628 95.6884 61.2722 95.6884 60.6234C95.6884 59.9746 95.6219 59.4048 95.4932 58.8808C95.3645 58.3609 95.161 57.92 94.8786 57.5624C94.5962 57.2047 94.2308 56.9302 93.7823 56.7347C93.3338 56.5392 92.7856 56.4394 92.1377 56.4394H89.9658V64.9155H91.7308Z" fill="#2B292A"/>
<path d="M100.785 54.1021H109.742V56.4436H103.526V59.3175H109.377V61.6756H103.526V64.9197H110.129L109.85 67.2612H100.781V54.1062L100.785 54.1021Z" fill="#2B292A"/>
<path d="M112.08 54.1018H116.735C117.765 54.1018 118.616 54.2224 119.281 54.4595C119.949 54.7007 120.473 55.0126 120.855 55.3994C121.237 55.7862 121.498 56.2146 121.644 56.6887C121.789 57.1628 121.864 57.6245 121.864 58.0778C121.864 58.9263 121.71 59.6375 121.403 60.2156C121.095 60.7937 120.581 61.2761 119.858 61.6712L122.524 67.2526H119.563L117.354 62.3159H114.779V67.2526H112.076V54.0977L112.08 54.1018ZM116.918 60.0326C117.345 60.0326 117.703 59.9868 117.985 59.8953C118.267 59.8038 118.492 59.6749 118.658 59.5085C118.824 59.3422 118.936 59.1425 118.998 58.9096C119.061 58.6767 119.09 58.4189 119.09 58.1361C119.09 57.9032 119.052 57.6786 118.978 57.4623C118.903 57.246 118.778 57.0589 118.6 56.8925C118.421 56.7262 118.176 56.5972 117.865 56.5057C117.553 56.4142 117.154 56.3685 116.677 56.3685H114.783V60.0367H116.918V60.0326Z" fill="#2B292A"/>
<path fill-rule="evenodd" clip-rule="evenodd" d="M36.5889 52.1192C36.8416 49.8739 38.6465 48.1518 40.8301 47.9448L40.8206 50.7627C40.145 50.9268 39.5984 51.4479 39.412 52.1325L36.5889 52.1192ZM36.5947 53.231C36.8604 55.3689 38.577 57.1168 40.7984 57.3441L40.8079 54.5221C40.1524 54.3587 39.6406 53.867 39.4379 53.2445L36.5947 53.231ZM43.1141 53.2618C42.9225 53.8312 42.4762 54.2757 41.9199 54.4714L41.9103 57.3247C43.97 57.0417 45.6662 55.4055 45.953 53.2753L43.1141 53.2618ZM45.9708 52.1635C45.752 50.0402 44.0976 48.2799 41.9419 47.9715L41.9322 50.8213C42.5352 51.0364 42.9908 51.5379 43.1519 52.1502L45.9708 52.1635Z" fill="#2B292A"/>
<path fill-rule="evenodd" clip-rule="evenodd" d="M30.0017 51.6458C30.5089 45.9063 35.2351 41.5321 40.8524 41.3218L40.8397 45.0989C37.1675 45.3185 34.093 48.2043 33.7588 52.0012C33.7557 52.036 33.7529 52.0707 33.7504 52.1054L29.9713 52.0876C29.9785 51.9407 29.9887 51.7935 30.0017 51.6458ZM29.9703 53.1994C30.2384 58.7625 34.5802 63.4265 40.281 63.9337C40.4465 63.9485 40.6115 63.9595 40.776 63.9669L40.7888 60.1932C40.7367 60.1896 40.6845 60.1855 40.6323 60.1808C36.8909 59.8495 34.018 56.8357 33.7501 53.2173L29.9703 53.1994ZM41.8879 63.9618L41.9006 60.1875C44.6671 59.968 47.0525 58.2262 48.163 55.75V61.6274C46.388 62.9881 44.215 63.8356 41.8879 63.9618ZM41.9642 41.3347L41.9515 45.1143L41.9632 45.1153C44.7779 45.3633 47.0801 47.1323 48.163 49.5461V43.6646C46.5097 42.3916 44.4968 41.5567 42.2814 41.3583C42.1755 41.3489 42.0697 41.3411 41.9642 41.3347Z" fill="#2B292A"/>
<path fill-rule="evenodd" clip-rule="evenodd" d="M41.9741 38.5096L41.9861 34.9339C42.2709 34.9455 42.5569 34.9639 42.8438 34.9894C44.7244 35.1547 46.5099 35.6135 48.1632 36.3078V40.2798C46.4769 39.3416 44.5756 38.7299 42.5297 38.548C42.3439 38.5316 42.1587 38.5188 41.9741 38.5096ZM27.1832 51.3981C27.8237 44.1724 33.7847 38.6977 40.8623 38.4976L40.8743 34.9233C31.9595 35.1168 24.4258 41.9963 23.6245 51.084C23.5956 51.4099 23.5758 51.7345 23.5647 52.0575L27.1392 52.0744C27.1485 51.8499 27.1631 51.6244 27.1832 51.3981ZM27.1366 53.1863L23.5613 53.1694C23.8106 62.0367 30.6667 69.5058 39.7191 70.3075C40.0659 70.3382 40.4112 70.3586 40.7547 70.3691L40.7668 66.7941C40.5233 66.7853 40.2787 66.7702 40.0332 66.7488V66.7446C32.8487 66.1078 27.3952 60.2108 27.1366 53.1863ZM41.8787 66.7913L41.8666 70.3682C44.0824 70.297 46.2083 69.8119 48.1632 68.9848V65.017C46.2773 66.069 44.1373 66.6976 41.8787 66.7913Z" fill="#2B292A"/>
<path d="M47.0177 13.5848H51.1124V18.1057C50.5642 18.6131 49.9122 19.0082 49.1523 19.2868C48.3964 19.5655 47.6116 19.7069 46.8059 19.7069C45.9587 19.7069 45.2195 19.5738 44.5842 19.3035C43.9529 19.0331 43.4255 18.6547 43.0061 18.1639C42.5867 17.6731 42.2752 17.0826 42.0634 16.388C41.8558 15.6934 41.7478 14.9282 41.7478 14.0881C41.7478 13.2479 41.8641 12.4411 42.0925 11.7507C42.3209 11.0603 42.649 10.4739 43.0725 9.98312C43.4961 9.49236 44.0111 9.11804 44.6215 8.86019C45.2279 8.60233 45.9089 8.46924 46.6564 8.46924C47.3458 8.46924 47.9355 8.55242 48.4297 8.72294C48.9238 8.89346 49.3433 9.12636 49.6838 9.42581C50.0285 9.72526 50.3026 10.0746 50.5061 10.4739C50.7096 10.8731 50.8591 11.3015 50.9463 11.7632L48.7328 12.046C48.6747 11.7757 48.5999 11.5386 48.5169 11.3348C48.4338 11.131 48.3092 10.9563 48.1514 10.8108C47.9936 10.6652 47.7943 10.5571 47.5534 10.4822C47.3126 10.4073 47.0136 10.3699 46.6564 10.3699C45.7885 10.3699 45.1406 10.6943 44.7129 11.3431C44.2852 11.9919 44.0692 12.9069 44.0692 14.0839C44.0692 15.2609 44.2852 16.1884 44.7212 16.833C45.1531 17.4777 45.8591 17.7979 46.835 17.7979C47.3043 17.7979 47.7112 17.7522 48.0518 17.6565C48.3964 17.5608 48.7287 17.4153 49.0443 17.2156V15.4356H47.0094V13.5807L47.0177 13.5848Z" fill="#BEAA6E"/>
<path d="M58.455 19.7108C57.6577 19.7108 56.9434 19.5819 56.3163 19.3199C55.6892 19.062 55.1535 18.6877 54.7175 18.1969C54.2773 17.7062 53.9409 17.1197 53.7083 16.4293C53.4758 15.7389 53.3553 14.9612 53.3553 14.092C53.3553 13.2227 53.4716 12.445 53.7083 11.7546C53.9409 11.0642 54.2814 10.4778 54.7258 9.98703C55.1701 9.49626 55.7058 9.12195 56.3329 8.86409C56.96 8.60623 57.6701 8.47314 58.455 8.47314C59.2399 8.47314 59.9666 8.60207 60.5937 8.86409C61.2208 9.12195 61.7523 9.49626 62.1842 9.98703C62.6161 10.4778 62.9483 11.0642 63.1767 11.7546C63.4051 12.445 63.5214 13.2227 63.5214 14.092C63.5214 14.9612 63.4093 15.7389 63.185 16.4293C62.9608 17.1197 62.6327 17.7062 62.1967 18.1969C61.7648 18.6877 61.2332 19.062 60.6061 19.3199C59.9791 19.5777 59.2606 19.7108 58.455 19.7108ZM58.4425 17.7935C59.3811 17.7935 60.0787 17.4733 60.5355 16.8369C60.9924 16.1964 61.2249 15.2856 61.2249 14.0961C61.2249 12.9067 60.9965 12.0083 60.5355 11.3637C60.0787 10.719 59.3811 10.3988 58.4425 10.3988C57.504 10.3988 56.8063 10.719 56.3495 11.3637C55.8927 12.0083 55.6602 12.9191 55.6602 14.0961C55.6602 15.2731 55.8886 16.1964 56.3495 16.8369C56.8063 17.4774 57.504 17.7935 58.4425 17.7935Z" fill="#BEAA6E"/>
<path d="M66.113 8.74805H68.3389V17.5236H73.3929L73.152 19.4409H66.1089V8.75221L66.113 8.74805Z" fill="#BEAA6E"/>
<path d="M75.5892 8.74805H79.5801C81.2163 8.74805 82.487 9.19306 83.4007 10.0789C84.3143 10.969 84.7669 12.2832 84.7669 14.03C84.7669 14.92 84.6382 15.6978 84.3849 16.3674C84.1316 17.037 83.7661 17.5984 83.2844 18.0601C82.8068 18.5176 82.2213 18.8628 81.5361 19.0915C80.8467 19.3203 80.0701 19.4367 79.2022 19.4367H75.5851V8.74805H75.5892ZM79.252 17.5402C79.8292 17.5402 80.3234 17.457 80.7304 17.2948C81.1374 17.1285 81.4696 16.8914 81.7229 16.5836C81.9762 16.2759 82.1631 15.9057 82.2836 15.4815C82.404 15.0573 82.4621 14.579 82.4621 14.0508C82.4621 13.5226 82.4081 13.0609 82.3043 12.6367C82.2005 12.2125 82.0344 11.8548 81.8018 11.5679C81.5734 11.2767 81.2744 11.0521 80.9131 10.8941C80.5477 10.7361 80.1033 10.6529 79.5759 10.6529H77.811V17.5402H79.2479H79.252Z" fill="#BEAA6E"/>
<path d="M46.7148 26.1739C46.6733 26.4817 46.5944 26.7686 46.474 27.0306C46.3535 27.2927 46.1916 27.5214 45.9881 27.7127C45.7846 27.904 45.5354 28.0579 45.2447 28.1661C44.954 28.2784 44.6177 28.3324 44.2314 28.3324C43.8245 28.3324 43.4549 28.2617 43.1185 28.1245C42.7821 27.9872 42.4956 27.7751 42.2547 27.5006C42.0139 27.222 41.827 26.8851 41.6941 26.4775C41.5612 26.0741 41.4948 25.6041 41.4948 25.0759C41.4948 24.5477 41.5695 24.0653 41.7148 23.6577C41.8602 23.2459 42.0554 22.9049 42.3045 22.6263C42.5496 22.3518 42.8403 22.1396 43.1683 21.9982C43.4964 21.8568 43.8452 21.7861 44.219 21.7861C44.5927 21.7861 44.9208 21.836 45.1949 21.9359C45.469 22.0357 45.6974 22.1729 45.8884 22.3518C46.0753 22.5306 46.229 22.7385 46.3452 22.9839C46.4615 23.2293 46.5529 23.4955 46.6235 23.7783L46.1168 23.8906C46.0545 23.6327 45.9715 23.404 45.876 23.2002C45.7804 22.9964 45.66 22.8259 45.5105 22.6845C45.361 22.5431 45.1824 22.4391 44.9748 22.3601C44.7672 22.2852 44.5138 22.2478 44.2148 22.2478C43.8702 22.2478 43.567 22.3185 43.2971 22.4557C43.0271 22.593 42.8029 22.7926 42.616 23.0422C42.4291 23.2917 42.2879 23.5911 42.1883 23.9322C42.0886 24.2774 42.0388 24.6517 42.0388 25.0593C42.0388 25.4669 42.0886 25.8495 42.1841 26.1905C42.2796 26.5316 42.4208 26.8269 42.6035 27.0764C42.7863 27.3259 43.0147 27.5214 43.2888 27.6587C43.5629 27.7959 43.8743 27.8625 44.2314 27.8625C44.5886 27.8625 44.8502 27.8209 45.0828 27.7377C45.3112 27.6545 45.5022 27.5339 45.6517 27.3842C45.8012 27.2344 45.9175 27.0556 46.0005 26.8477C46.0836 26.6397 46.1459 26.4193 46.1874 26.1781H46.7107L46.7148 26.1739Z" fill="#2B292A"/>
<path d="M47.9065 21.936H48.4381V27.6755H51.8226L51.7105 28.1746H47.9065V21.9402V21.936Z" fill="#2B292A"/>
<path d="M54.8171 28.3324C54.4142 28.3324 54.0405 28.2659 53.6958 28.1286C53.3511 27.9914 53.0521 27.7876 52.803 27.5131C52.5538 27.2386 52.3586 26.8976 52.2133 26.49C52.0721 26.0824 52.0015 25.6124 52.0015 25.0759C52.0015 24.5394 52.0721 24.0653 52.2133 23.6577C52.3545 23.2459 52.5538 22.9049 52.8071 22.6263C53.0604 22.3518 53.3594 22.1396 53.7 21.9982C54.0446 21.8568 54.4142 21.7861 54.8171 21.7861C55.2199 21.7861 55.5895 21.8527 55.9342 21.9899C56.2789 22.1272 56.5737 22.331 56.8187 22.6055C57.0679 22.88 57.2589 23.2168 57.4043 23.6244C57.5455 24.0278 57.6161 24.4978 57.6161 25.0343C57.6161 25.5708 57.5455 26.0533 57.4084 26.4609C57.2672 26.8726 57.0762 27.2136 56.827 27.4923C56.5779 27.771 56.283 27.9789 55.9425 28.1203C55.5978 28.2617 55.224 28.3324 54.8171 28.3324ZM54.8171 27.8583C55.1825 27.8583 55.5064 27.7917 55.7847 27.6545C56.0629 27.5173 56.2996 27.3259 56.4865 27.0764C56.6734 26.831 56.8187 26.5316 56.9142 26.1905C57.0097 25.8453 57.0596 25.4669 57.0596 25.0551C57.0596 24.6434 57.0097 24.2649 56.9101 23.9197C56.8104 23.5745 56.6692 23.2792 56.4782 23.0338C56.2872 22.7843 56.0546 22.593 55.7764 22.4557C55.4981 22.3185 55.1784 22.2519 54.8171 22.2519C54.4392 22.2519 54.1111 22.3185 53.8287 22.4557C53.5463 22.593 53.3137 22.7843 53.1269 23.0338C52.94 23.2834 52.7988 23.5787 52.7033 23.9197C52.6078 24.2649 52.5579 24.6434 52.5579 25.0551C52.5579 25.4669 52.6036 25.8453 52.6991 26.1905C52.7905 26.5357 52.9317 26.831 53.1227 27.0764C53.3096 27.3259 53.5463 27.5173 53.8287 27.6545C54.1111 27.7917 54.4392 27.8583 54.8171 27.8583Z" fill="#2B292A"/>
<path d="M58.7748 21.9361H59.3063V25.7374C59.3063 26.4403 59.4434 26.9726 59.7175 27.3261C59.9916 27.6796 60.4401 27.8585 61.0713 27.8585C61.391 27.8585 61.661 27.8127 61.8769 27.7212C62.0929 27.6297 62.2714 27.4967 62.4085 27.3178C62.5455 27.139 62.6452 26.9186 62.7033 26.6524C62.7656 26.3862 62.7947 26.0784 62.7947 25.7291V21.9277H63.3263V25.7166C63.3263 26.1782 63.2764 26.5692 63.1726 26.9019C63.0688 27.2305 62.9234 27.5008 62.7283 27.7088C62.5331 27.9167 62.2964 28.0748 62.014 28.1704C61.7316 28.2702 61.4118 28.3201 61.0588 28.3201C60.7058 28.3201 60.3695 28.2702 60.0871 28.1704C59.8047 28.0706 59.568 27.9167 59.3728 27.7046C59.1776 27.4925 59.0281 27.218 58.9284 26.8853C58.8246 26.5526 58.7748 26.1491 58.7748 25.6833V21.9277V21.9361Z" fill="#2B292A"/>
<path d="M64.713 21.936H66.8143C67.2504 21.936 67.6407 21.9984 67.9896 22.1232C68.3384 22.248 68.6333 22.4393 68.8741 22.6888C69.115 22.9425 69.3019 23.2628 69.4306 23.6454C69.5635 24.028 69.6258 24.4855 69.6258 25.0095C69.6258 25.5336 69.5552 26.0036 69.4181 26.3987C69.277 26.7938 69.0776 27.1223 68.816 27.3843C68.5544 27.6464 68.2387 27.8418 67.865 27.9749C67.4912 28.1039 67.076 28.1704 66.6192 28.1704H64.7089V21.936H64.713ZM66.6565 27.7046C67.4871 27.7046 68.0976 27.4717 68.4879 27.01C68.8783 26.5484 69.0735 25.8871 69.0735 25.0303C69.0735 24.1736 68.8907 23.5373 68.5294 23.0839C68.164 22.6306 67.5951 22.4018 66.8143 22.4018H65.2446V27.7046H66.6565Z" fill="#2B292A"/>
<path d="M77.7691 26.1739C77.7276 26.4817 77.6487 26.7686 77.5283 27.0306C77.4079 27.2927 77.2459 27.5214 77.0424 27.7127C76.8389 27.904 76.5898 28.0579 76.2991 28.1661C76.0084 28.2784 75.672 28.3324 75.2858 28.3324C74.8788 28.3324 74.5092 28.2617 74.1728 28.1245C73.8364 27.9872 73.5499 27.7751 73.309 27.5006C73.0682 27.222 72.8813 26.8851 72.7484 26.4775C72.6155 26.0741 72.5491 25.6041 72.5491 25.0759C72.5491 24.5477 72.6238 24.0653 72.7692 23.6577C72.9145 23.2459 73.1097 22.9049 73.3589 22.6263C73.6039 22.3518 73.8946 22.1396 74.2227 21.9982C74.5507 21.8568 74.8996 21.7861 75.2733 21.7861C75.6471 21.7861 75.9751 21.836 76.2492 21.9359C76.5233 22.0357 76.7517 22.1729 76.9427 22.3518C77.1296 22.5306 77.2833 22.7385 77.3996 22.9839C77.5158 23.2293 77.6072 23.4955 77.6778 23.7783L77.1711 23.8906C77.1089 23.6327 77.0258 23.404 76.9303 23.2002C76.8348 22.9964 76.7143 22.8259 76.5648 22.6845C76.4153 22.5431 76.2368 22.4391 76.0291 22.3601C75.8215 22.2852 75.5682 22.2478 75.2692 22.2478C74.9245 22.2478 74.6213 22.3185 74.3514 22.4557C74.0815 22.593 73.8572 22.7926 73.6703 23.0422C73.4835 23.2917 73.3423 23.5911 73.2426 23.9322C73.1429 24.2774 73.0931 24.6517 73.0931 25.0593C73.0931 25.4669 73.1429 25.8495 73.2384 26.1905C73.334 26.5316 73.4751 26.8269 73.6579 27.0764C73.8406 27.3259 74.069 27.5214 74.3431 27.6587C74.6172 27.7959 74.9286 27.8625 75.2858 27.8625C75.6429 27.8625 75.9045 27.8209 76.1371 27.7377C76.3655 27.6545 76.5565 27.5339 76.706 27.3842C76.8555 27.2344 76.9718 27.0556 77.0549 26.8477C77.1379 26.6397 77.2002 26.4193 77.2417 26.1781H77.765L77.7691 26.1739Z" fill="#2B292A"/>
<path d="M81.4655 28.3324C81.0627 28.3324 80.6889 28.2659 80.3442 28.1286C79.9996 27.9914 79.7006 27.7876 79.4514 27.5131C79.2022 27.2386 79.007 26.8976 78.8617 26.49C78.7205 26.0824 78.6499 25.6124 78.6499 25.0759C78.6499 24.5394 78.7205 24.0653 78.8617 23.6577C79.0029 23.2459 79.2022 22.9049 79.4555 22.6263C79.7089 22.3518 80.0079 22.1396 80.3484 21.9982C80.6931 21.8568 81.0627 21.7861 81.4655 21.7861C81.8683 21.7861 82.2379 21.8527 82.5826 21.9899C82.9273 22.1272 83.2221 22.331 83.4672 22.6055C83.7163 22.88 83.9073 23.2168 84.0527 23.6244C84.1939 24.0278 84.2645 24.4978 84.2645 25.0343C84.2645 25.5708 84.1939 26.0533 84.0569 26.4609C83.9157 26.8726 83.7246 27.2136 83.4755 27.4923C83.2263 27.771 82.9314 27.9789 82.5909 28.1203C82.2462 28.2617 81.8725 28.3324 81.4655 28.3324ZM81.4655 27.8583C81.8309 27.8583 82.1549 27.7917 82.4331 27.6545C82.7113 27.5173 82.9481 27.3259 83.1349 27.0764C83.3218 26.831 83.4672 26.5316 83.5627 26.1905C83.6582 25.8453 83.708 25.4669 83.708 25.0551C83.708 24.6434 83.6582 24.2649 83.5585 23.9197C83.4589 23.5745 83.3177 23.2792 83.1266 23.0338C82.9356 22.7843 82.703 22.593 82.4248 22.4557C82.1466 22.3185 81.8268 22.2519 81.4655 22.2519C81.0876 22.2519 80.7595 22.3185 80.4771 22.4557C80.1947 22.593 79.9622 22.7843 79.7753 23.0338C79.5884 23.2834 79.4472 23.5787 79.3517 23.9197C79.2562 24.2649 79.2064 24.6434 79.2064 25.0551C79.2064 25.4669 79.2521 25.8453 79.3476 26.1905C79.4389 26.5357 79.5801 26.831 79.7712 27.0764C79.958 27.3259 80.1947 27.5173 80.4771 27.6545C80.7595 27.7917 81.0876 27.8583 81.4655 27.8583Z" fill="#2B292A"/>
<path d="M85.4688 21.936H86.0543L89.5426 27.3344V21.936H90.0576V28.1704H89.4804L85.9837 22.7554V28.1704H85.4688V21.936Z" fill="#2B292A"/>
<path d="M93.0807 22.4268H90.9171V21.936H95.7676V22.4268H93.6123V28.1746H93.0807V22.4268Z" fill="#2B292A"/>
<path d="M96.6313 21.936H100.547V22.4185H97.1629V24.7059H100.373V25.205H97.1629V27.6838H100.693L100.572 28.1746H96.6313V21.9402V21.936Z" fill="#2B292A"/>
<path d="M101.761 21.936H102.346L105.835 27.3344V21.936H106.349V28.1704H105.772L102.276 22.7554V28.1704H101.761V21.936Z" fill="#2B292A"/>
<path d="M109.372 22.4268H107.209V21.936H112.059V22.4268H109.904V28.1746H109.372V22.4268Z" fill="#2B292A"/>
<path d="M114.867 21.936H115.556L117.807 27.5507L120.091 21.936H120.747V28.1704H120.249V22.8261C120.22 22.8801 120.128 23.1047 119.971 23.4998C119.9 23.6703 119.813 23.8825 119.709 24.1403C119.605 24.3982 119.476 24.7184 119.323 25.0927C119.169 25.467 118.986 25.9079 118.779 26.4153C118.571 26.9227 118.33 27.505 118.056 28.1704H117.55L115.369 22.8593V28.1704H114.871V21.936H114.867Z" fill="#2B292A"/>
<path d="M124.032 21.936H124.659L127.118 28.1704H126.545L125.793 26.2656H122.861L122.118 28.1704H121.561L124.028 21.936H124.032ZM125.602 25.779L124.319 22.5225L123.056 25.779H125.602Z" fill="#2B292A"/>
<path d="M127.939 21.936H128.525L132.013 27.3344V21.936H132.528V28.1704H131.951L128.454 22.7554V28.1704H127.939V21.936Z" fill="#2B292A"/>
<path d="M135.813 21.936H136.44L138.898 28.1704H138.321L137.569 26.2656H134.638L133.894 28.1704H133.338L135.805 21.936H135.813ZM137.383 25.779L136.099 22.5225L134.837 25.779H137.383Z" fill="#2B292A"/>
<path d="M142.118 25.0928H144.402V27.505C144.252 27.6506 144.082 27.7753 143.891 27.8793C143.7 27.9833 143.509 28.0706 143.305 28.1372C143.106 28.2037 142.898 28.2536 142.691 28.2869C142.483 28.3202 142.28 28.3368 142.08 28.3368C141.64 28.3368 141.242 28.2661 140.889 28.1247C140.536 27.9833 140.237 27.7712 139.992 27.4967C139.742 27.218 139.555 26.8812 139.423 26.4736C139.294 26.0702 139.227 25.6043 139.227 25.0803C139.227 24.5563 139.298 24.0697 139.439 23.6621C139.58 23.2503 139.776 22.9093 140.025 22.6306C140.27 22.3562 140.565 22.144 140.901 22.0026C141.237 21.8612 141.603 21.7905 141.989 21.7905C142.641 21.7905 143.148 21.9403 143.509 22.2397C143.874 22.5392 144.124 22.9592 144.265 23.4916L143.766 23.6039C143.708 23.4042 143.634 23.2254 143.542 23.059C143.451 22.8927 143.339 22.7513 143.197 22.6306C143.056 22.51 142.89 22.4185 142.691 22.352C142.492 22.2854 142.259 22.2522 141.985 22.2522C141.624 22.2522 141.308 22.3229 141.03 22.4601C140.751 22.5974 140.523 22.797 140.336 23.0465C140.149 23.2961 140.008 23.5955 139.913 23.9366C139.817 24.2818 139.767 24.6561 139.767 25.0637C139.767 25.4713 139.813 25.8539 139.908 26.1949C140 26.536 140.145 26.8313 140.336 27.0808C140.527 27.3303 140.768 27.5258 141.055 27.6631C141.341 27.8003 141.682 27.8668 142.072 27.8668C142.404 27.8668 142.728 27.8211 143.044 27.7296C143.359 27.6381 143.642 27.5009 143.887 27.3137V25.5752H142.109V25.0928H142.118Z" fill="#2B292A"/>
<path d="M145.66 21.936H149.576V22.4185H146.191V24.7059H149.401V25.205H146.191V27.6838H149.721L149.601 28.1746H145.66V21.9402V21.936Z" fill="#2B292A"/>
<path d="M150.788 21.936H151.478L153.729 27.5507L156.013 21.936H156.669V28.1704H156.17V22.8261C156.141 22.8801 156.05 23.1047 155.892 23.4998C155.822 23.6703 155.734 23.8825 155.631 24.1403C155.527 24.3982 155.398 24.7184 155.244 25.0927C155.091 25.467 154.908 25.9079 154.7 26.4153C154.493 26.9227 154.252 27.505 153.978 28.1704H153.471L151.291 22.8593V28.1704H150.792V21.936H150.788Z" fill="#2B292A"/>
<path d="M158.097 21.936H162.013V22.4185H158.629V24.7059H161.839V25.205H158.629V27.6838H162.159L162.038 28.1746H158.097V21.9402V21.936Z" fill="#2B292A"/>
<path d="M163.222 21.936H163.807L167.296 27.3344V21.936H167.811V28.1704H167.233L163.737 22.7554V28.1704H163.222V21.936Z" fill="#2B292A"/>
<path d="M170.838 22.4268H168.675V21.936H173.525V22.4268H171.37V28.1746H170.838V22.4268Z" fill="#2B292A"/>
</g>
<defs>
<clipPath id="clip0_6173_384437">
<rect width="224" height="96" fill="white"/>
</clipPath>
</defs>
</svg>
