<svg width="96" height="97" viewBox="0 0 96 97" fill="none" xmlns="http://www.w3.org/2000/svg">
<g clip-path="url(#clip0_6435_122015)">
<path d="M48.0453 95.5067H47.9159C26.1603 95.5067 8.52671 76.224 8.52671 52.4373L7.34251 1.34841C7.34249 1.29981 7.36137 1.2531 7.39517 1.21813C7.42898 1.18317 7.47506 1.16269 7.5237 1.16101H88.4116C88.4371 1.16265 88.462 1.16931 88.485 1.1806C88.5079 1.19189 88.5284 1.2076 88.5452 1.22681C88.562 1.24603 88.5749 1.26837 88.5831 1.29257C88.5912 1.31676 88.5945 1.34233 88.5928 1.3678L87.4021 52.4179C87.428 76.224 69.7944 95.5067 48.0453 95.5067Z" fill="url(#paint0_linear_6435_122015)"/>
<path d="M56.82 42.35L87.881 34.4405V33.3032L56.1729 38.7119L88.3016 14.9187V14.2725L54.4775 35.5197L76.8673 1.16101H76.1102L51.9473 33.161L60.185 1.16101H58.9361L48.8865 31.9268L47.1782 1.16101H45.8452L45.664 31.9526L34.0161 1.16101H32.7737L42.6679 33.245L16.499 1.16101H15.7937L40.2542 35.6489L7.69196 16.3791V17.2773L38.7205 38.867L8.1061 34.2337V35.468L38.2546 42.518L8.48789 50.1045V51.3387L38.9017 46.1691L10.8239 66.9251C10.921 67.2353 11.031 67.5714 11.1345 67.8492L40.5907 49.3419L19.301 82.0205L19.7993 82.5891L43.095 51.7006L32.6766 92.1788L33.259 92.4243L46.1816 52.9348L48.5436 95.4938H49.1519L49.4042 52.9219L64.1064 91.7717L64.6953 91.4873L52.4003 51.6295L76.932 81.7103L77.4303 81.1093L54.8269 49.2127L85.092 67.1255C85.189 66.8153 85.2796 66.4793 85.3767 66.2014L56.3476 45.9946L87.4668 50.7054V49.5229L56.82 42.35Z" fill="url(#paint1_linear_6435_122015)"/>
<path d="M88.3663 1.99456L87.1821 52.7603C87.1821 76.3209 69.6715 95.4097 48.0647 95.4097H47.9418C26.3544 95.4097 8.82438 76.308 8.82438 52.7603L7.64018 1.99456H88.3663ZM89.6605 0.702148H6.2942L6.32656 2.02687L7.53017 52.7926C7.53017 76.9929 25.6491 96.7345 47.9418 96.7345H48.0647C70.3509 96.7345 88.4763 77.0253 88.4763 52.7926L89.6605 2.05918V0.766769V0.702148Z" fill="#004745"/>
<path d="M5.16801 53.2515L9.02475 54.699H87.1042L90.8445 53.2515H5.16801Z" fill="#015655"/>
<path d="M90.838 31.3322H5.16154V53.904H90.838V31.3322Z" fill="url(#paint2_linear_6435_122015)"/>
<path fill-rule="evenodd" clip-rule="evenodd" d="M5 31.3322C5 31.243 5.07243 31.1707 5.16178 31.1707H90.8382C90.9276 31.1707 91 31.243 91 31.3322V53.9041C91 53.9933 90.9276 54.0656 90.8382 54.0656H5.16178C5.07243 54.0656 5 53.9933 5 53.9041V31.3322ZM5.32355 31.4938V53.7425H90.6765V31.4938H5.32355Z" fill="#929497"/>
<path d="M60.284 66.8863V61.8599H61.0518V62.6219C61.2477 62.2654 61.4278 62.0303 61.5921 61.9167C61.7595 61.8031 61.9428 61.7463 62.1419 61.7463C62.4294 61.7463 62.7217 61.8378 63.0187 62.0208L62.7248 62.8112C62.5163 62.6882 62.3078 62.6267 62.0992 62.6267C61.9128 62.6267 61.7453 62.6835 61.5968 62.797C61.4483 62.9075 61.3425 63.0621 61.2793 63.2609C61.1845 63.5638 61.1371 63.8951 61.1371 64.2548V66.8863H60.284Z" fill="white"/>
<path d="M58.336 65.2676L59.2176 65.3765C59.0785 65.8908 58.821 66.29 58.445 66.5739C58.069 66.8579 57.5888 66.9999 57.0042 66.9999C56.268 66.9999 55.6835 66.7743 55.2506 66.3231C54.8209 65.8687 54.606 65.2329 54.606 64.4157C54.606 63.5701 54.824 62.9138 55.2601 62.4468C55.6961 61.9798 56.2617 61.7463 56.9568 61.7463C57.6298 61.7463 58.1796 61.9751 58.6062 62.4326C59.0327 62.8901 59.246 63.5338 59.246 64.3637C59.246 64.4141 59.2444 64.4899 59.2413 64.5908H55.4876C55.5192 65.143 55.6756 65.5658 55.9568 65.8593C56.238 66.1527 56.5887 66.2994 57.009 66.2994C57.3218 66.2994 57.5888 66.2174 57.8099 66.0533C58.0311 65.8892 58.2065 65.6273 58.336 65.2676ZM55.535 63.8904H58.3455C58.3076 63.4675 58.2002 63.1504 58.0232 62.939C57.7515 62.6109 57.3992 62.4468 56.9663 62.4468C56.5745 62.4468 56.2443 62.5778 55.9757 62.8396C55.7103 63.1015 55.5634 63.4518 55.535 63.8904Z" fill="white"/>
<path d="M54.0515 66.1243L54.1747 66.8768C53.9346 66.9273 53.7197 66.9526 53.5301 66.9526C53.2205 66.9526 52.9804 66.9037 52.8097 66.8058C52.6391 66.708 52.5191 66.5802 52.4495 66.4225C52.38 66.2616 52.3453 65.9255 52.3453 65.4144V62.5225H51.7197V61.8599H52.3453V60.6152L53.1936 60.104V61.8599H54.0515V62.5225H53.1936V65.4617C53.1936 65.7046 53.2079 65.8608 53.2363 65.9302C53.2679 65.9997 53.3169 66.0549 53.3832 66.0959C53.4527 66.1369 53.5507 66.1574 53.6771 66.1574C53.7719 66.1574 53.8967 66.1464 54.0515 66.1243Z" fill="white"/>
<path d="M46.7858 66.8863V61.8599H47.5536V62.5746C47.9233 62.0224 48.4573 61.7463 49.1556 61.7463C49.4589 61.7463 49.737 61.8016 49.9897 61.912C50.2457 62.0193 50.4368 62.1613 50.5632 62.338C50.6896 62.5147 50.7781 62.7245 50.8286 62.9674C50.8602 63.1252 50.876 63.4013 50.876 63.7957V66.8863H50.0229V63.8288C50.0229 63.4817 49.9897 63.223 49.9234 63.0526C49.857 62.8791 49.7385 62.7418 49.5679 62.6409C49.4004 62.5367 49.203 62.4847 48.9755 62.4847C48.6121 62.4847 48.2977 62.5998 48.0323 62.8302C47.7701 63.0605 47.6389 63.4975 47.6389 64.1412V66.8863H46.7858Z" fill="white"/>
<path d="M44.6293 60.9276V59.9479H45.4824V60.9276H44.6293ZM44.6293 66.8864V61.86H45.4824V66.8864H44.6293Z" fill="white"/>
<path d="M36.7807 66.8864L34.937 59.9479H35.8802L36.9371 64.4962C37.0508 64.9727 37.1488 65.446 37.2309 65.9161C37.4079 65.1746 37.5121 64.7471 37.5437 64.6335L38.8661 59.9479H39.9751L40.9704 63.4597C41.22 64.3306 41.4001 65.1494 41.5107 65.9161C41.5992 65.4775 41.7145 64.9743 41.8567 64.4063L42.9468 59.9479H43.871L41.9657 66.8864H41.0794L39.6149 61.5997C39.4917 61.1579 39.419 60.8866 39.3969 60.7856C39.3242 61.1043 39.2563 61.3756 39.1931 61.5997L37.7191 66.8864H36.7807Z" fill="white"/>
<path d="M62.6913 81.3806V79.0218H57.887V77.0548L62.9795 69.6105H64.8692V77.0468H66.3265V79.0218H64.8692V81.3806H62.6913ZM62.6913 77.0468V73.0408L59.9928 77.0468H62.6913Z" fill="white"/>
<path d="M56.7499 79.2937V81.3806H48.8629C48.9483 80.5917 49.2045 79.8454 49.6316 79.1417C50.0586 78.4328 50.902 77.4946 52.1618 76.3271C53.1761 75.3836 53.798 74.7439 54.0275 74.4081C54.3371 73.9443 54.4919 73.4859 54.4919 73.0328C54.4919 72.5317 54.3558 72.1479 54.0836 71.8813C53.8166 71.6095 53.4457 71.4735 52.9706 71.4735C52.5008 71.4735 52.1271 71.6148 51.8496 71.8973C51.572 72.1799 51.4118 72.649 51.3691 73.3046L49.1271 73.0808C49.2606 71.844 49.6796 70.9565 50.3842 70.4181C51.0889 69.8797 51.9697 69.6105 53.0266 69.6105C54.185 69.6105 55.0951 69.9223 55.7571 70.546C56.419 71.1697 56.7499 71.9453 56.7499 72.8729C56.7499 73.4006 56.6539 73.9043 56.4617 74.3841C56.2748 74.8585 55.9759 75.357 55.5649 75.8794C55.2926 76.2259 54.8015 76.7243 54.0916 77.3746C53.3816 78.025 52.9305 78.4568 52.7384 78.67C52.5515 78.8832 52.3994 79.0911 52.2819 79.2937H56.7499Z" fill="white"/>
<path d="M43.8264 69.6105C44.9634 69.6105 45.8522 70.0156 46.4928 70.8259C47.2561 71.7854 47.6378 73.3766 47.6378 75.5995C47.6378 77.8171 47.2534 79.4109 46.4848 80.3811C45.8495 81.1807 44.9634 81.5805 43.8264 81.5805C42.684 81.5805 41.7632 81.1434 41.0639 80.2692C40.3646 79.3896 40.015 77.8251 40.015 75.5755C40.015 73.3686 40.3993 71.7801 41.168 70.8099C41.8032 70.0103 42.6894 69.6105 43.8264 69.6105ZM43.8264 71.4735C43.5541 71.4735 43.3113 71.5615 43.0977 71.7374C42.8842 71.908 42.7187 72.2172 42.6013 72.665C42.4465 73.246 42.3691 74.2242 42.3691 75.5995C42.3691 76.9748 42.4385 77.921 42.5773 78.4381C42.7161 78.9498 42.8895 79.291 43.0977 79.4616C43.3113 79.6322 43.5541 79.7175 43.8264 79.7175C44.0986 79.7175 44.3415 79.6322 44.555 79.4616C44.7686 79.2857 44.934 78.9738 45.0515 78.526C45.2063 77.9503 45.2837 76.9748 45.2837 75.5995C45.2837 74.2242 45.2143 73.2807 45.0755 72.7689C44.9367 72.2518 44.7605 71.908 44.547 71.7374C44.3388 71.5615 44.0986 71.4735 43.8264 71.4735Z" fill="white"/>
<path d="M38.4936 79.2937V81.3806H30.6066C30.692 80.5917 30.9482 79.8454 31.3752 79.1417C31.8023 78.4328 32.6457 77.4946 33.9055 76.3271C34.9197 75.3836 35.5416 74.7439 35.7712 74.4081C36.0808 73.9443 36.2356 73.4859 36.2356 73.0328C36.2356 72.5317 36.0995 72.1479 35.8272 71.8813C35.5603 71.6095 35.1893 71.4735 34.7142 71.4735C34.2445 71.4735 33.8708 71.6148 33.5932 71.8973C33.3156 72.1799 33.1555 72.649 33.1128 73.3046L30.8708 73.0808C31.0042 71.844 31.4233 70.9565 32.1279 70.4181C32.8325 69.8797 33.7133 69.6105 34.7703 69.6105C35.9286 69.6105 36.8388 69.9223 37.5007 70.546C38.1626 71.1697 38.4936 71.9453 38.4936 72.8729C38.4936 73.4006 38.3975 73.9043 38.2054 74.3841C38.0185 74.8585 37.7196 75.357 37.3085 75.8794C37.0363 76.2259 36.5452 76.7243 35.8352 77.3746C35.1253 78.025 34.6742 78.4568 34.482 78.67C34.2952 78.8832 34.143 79.0911 34.0256 79.2937H38.4936Z" fill="white"/>
<path d="M24.0895 48.6893H17.7285L19.9934 37.2515H22.8342L21.0287 46.3952H24.549L24.0895 48.6893Z" fill="#231F20"/>
<path d="M34.5467 39.4291H31.1365L30.6576 41.8072H33.8479L33.4725 43.8427H30.3017L29.784 46.4275H33.4725L33.026 48.6569H26.6003L28.8652 37.2191H34.9738L34.5467 39.4291Z" fill="#231F20"/>
<path d="M41.7231 48.6893L41.6649 46.5374H38.6494L37.6722 48.6893H34.6956L40.3577 37.2515H43.9168L44.5639 48.6893H41.7231ZM41.5937 39.72H41.516L39.3612 44.644H41.7037L41.5937 39.72Z" fill="#231F20"/>
<path d="M57.2277 41.7102C57.2246 42.5396 57.1136 43.365 56.8977 44.1658C56.6858 44.9771 56.3164 45.739 55.8105 46.4081C55.2776 47.0974 54.5965 47.6583 53.8175 48.0495C52.8639 48.507 51.8141 48.7286 50.7567 48.6957H46.9776L49.2424 37.2579H52.6915C53.4 37.2381 54.1061 37.3476 54.7752 37.581C55.3124 37.7661 55.7965 38.0788 56.1859 38.4921C56.5547 38.8979 56.8268 39.3817 56.9818 39.9073C57.1527 40.4928 57.2356 41.1004 57.2277 41.7102ZM54.3351 41.9106C54.3383 41.576 54.3036 41.2422 54.2316 40.9154C54.1775 40.6306 54.0652 40.36 53.9016 40.1206C53.7511 39.899 53.5491 39.7171 53.3127 39.5907C53.0402 39.4536 52.7376 39.387 52.4327 39.3968H51.6432L50.239 46.5374H51.0737C51.5781 46.5462 52.073 46.3996 52.4909 46.1173C52.9084 45.8299 53.2629 45.4605 53.5327 45.0317C53.8253 44.5734 54.0437 44.0718 54.1798 43.5455C54.2947 43.0083 54.3468 42.4597 54.3351 41.9106Z" fill="#231F20"/>
<path d="M66.8178 39.4291H63.4075L62.9287 41.8072H66.1189L65.7112 43.8427H62.5404L62.0227 46.4275H65.75L65.31 48.6569H58.839L61.1103 37.2191H67.2125L66.8178 39.4291Z" fill="#231F20"/>
<path d="M77.812 40.1916C77.845 40.9752 77.6175 41.7477 77.1649 42.3887C76.7139 42.9813 76.0827 43.4121 75.366 43.6165L76.8284 48.6892H73.8453L72.7517 44.0818H71.794L70.888 48.6892H68.1314L70.3962 37.2514H74.24C75.1815 37.1898 76.1162 37.4471 76.8932 37.9816C77.2084 38.2528 77.4557 38.5939 77.6153 38.9777C77.7748 39.3615 77.8422 39.7772 77.812 40.1916ZM74.9907 40.5147C75.0101 40.3385 74.9826 40.1603 74.9111 39.998C74.8395 39.8358 74.7263 39.6953 74.583 39.5906C74.3087 39.4163 73.9892 39.3264 73.6641 39.3322H72.7064L72.1111 42.3241H73.0364C73.5361 42.3347 74.0245 42.1752 74.4212 41.8717C74.6149 41.7051 74.7672 41.4957 74.866 41.2602C74.9649 41.0247 75.0075 40.7695 74.9907 40.5147Z" fill="#231F20"/>
<path d="M79.4169 14.2271V11.8427H78.4527C78.4527 11.8427 78.4527 12.5599 77.262 13.5163C76.4856 13.9969 75.5869 14.2437 74.6736 14.2271V15.6553H75.6378V21.3612H79.4169V15.6553H80.381V14.2271H79.4169Z" fill="white"/>
<path d="M69.9109 14.2272C67.4131 14.2272 65.6141 15.6553 65.6141 17.8071C65.6141 20.1916 67.4001 21.3806 69.9109 21.3806C72.4217 21.3806 74.2012 20.1916 74.2012 17.8071C74.2012 15.6553 72.4022 14.2272 69.9109 14.2272ZM70.3768 19.9396C70.3768 19.9396 70.3768 20.1722 69.8915 20.1722C69.4062 20.1722 69.4126 19.9396 69.4126 19.9396V15.6553C69.4126 15.6553 69.4126 15.4226 69.8915 15.4226C70.3703 15.4226 70.3768 15.6553 70.3768 15.6553V19.9396Z" fill="white"/>
<path d="M60.3597 14.2272C60.3597 14.2272 55.1246 13.5163 55.1246 17.8071C55.1246 21.5034 59.4149 21.3806 59.4149 21.3806H64.6564V11.8621H60.3597V14.2272ZM60.3597 19.9396H59.8808C59.6479 19.9396 58.9166 19.2288 58.9166 17.5551C58.9166 15.6553 59.3955 15.6553 59.3955 15.6553H60.3597V19.9396Z" fill="white"/>
<path d="M20.304 14.001C20.304 13.7683 20.7893 13.7683 20.7893 13.7683H21.747V12.8055C20.974 12.2819 20.0862 11.9517 19.1586 11.8427C15.5737 11.8427 15.5737 13.4646 15.5737 14.2271C15.5737 14.9897 15.9878 15.5195 16.4472 16.5082C17.0361 17.7683 17.6573 18.6795 17.2497 19.2288C17.0441 19.3816 16.7941 19.4633 16.5378 19.4614H15.5478V20.883C15.7768 20.9839 16.0152 21.0618 16.2596 21.1157C17.1232 21.2807 18.0012 21.3586 18.8804 21.3483C20.304 21.3483 22.2129 20.8637 22.2129 18.9638C22.2129 17.7683 20.3622 15.0866 20.2716 14.1948L20.304 14.001Z" fill="white"/>
<path d="M27.4739 11.8427H23.1771V21.3612H27.4739V11.8427Z" fill="white"/>
<path d="M36.2874 14.9186C35.4018 14.458 34.4192 14.2144 33.4208 14.2078C32.1408 14.1316 30.8605 14.3528 29.6805 14.854C29.5899 14.9057 29.5381 15.1577 29.5381 15.3903C29.5424 15.552 29.5663 15.7126 29.6093 15.8685C30.5504 15.6649 31.5143 15.5867 32.476 15.6359C32.476 15.6359 32.709 15.6359 32.709 16.1205C32.709 16.6052 32.476 16.5987 32.476 16.5987H31.7642C31.0503 16.567 30.3368 16.67 29.6611 16.9024C29.2603 17.0686 28.9231 17.3581 28.6984 17.7288C28.4738 18.0996 28.3735 18.5322 28.4122 18.9638C28.4122 19.4576 28.5449 19.9423 28.7965 20.3674C29.048 20.7925 29.4092 21.1424 29.8423 21.3806H37.4652V16.1529C37.4652 16.1529 37.4652 15.6553 36.2874 14.938M32.709 20.4243H32.2236C31.9971 20.4243 31.7448 19.9396 31.7448 18.9961C31.7448 17.5745 32.2236 17.5745 32.2236 17.5745H32.709V20.4243Z" fill="white"/>
<path d="M42.7196 15.8297C42.7196 15.6553 43.0755 15.6553 43.0755 15.6553H43.6644V14.6924C42.8956 14.4192 42.0914 14.2581 41.2766 14.2142C38.5846 14.2142 38.4099 15.3128 38.4099 15.8814C38.5272 16.5655 38.7684 17.2225 39.1217 17.82C39.5682 18.7635 40.1571 19.5454 39.8336 19.9525C39.6495 20.0992 39.4219 20.181 39.1865 20.1852H38.4099V21.148C39.0318 21.3166 39.6747 21.3949 40.3189 21.3806H41.0825C41.9755 21.3806 44.1303 21.0252 44.1303 19.5971C44.1303 18.7118 42.739 16.6827 42.7002 16.0236V15.8621L42.7196 15.8297Z" fill="white"/>
<path d="M51.7726 14.001C50.9518 13.9906 50.1381 14.1535 49.3848 14.4792V11.8621H45.1204V21.3806H49.4172V15.6682C49.4172 15.6682 49.4172 15.442 49.896 15.442C50.3749 15.442 50.3813 15.6682 50.3813 15.6682V21.3806H54.1798V15.4226C54.1798 15.4226 54.1798 14.001 51.792 14.001" fill="white"/>
</g>
<defs>
<linearGradient id="paint0_linear_6435_122015" x1="7.34251" y1="48.3339" x2="88.6187" y2="48.3339" gradientUnits="userSpaceOnUse">
<stop stop-color="#006665"/>
<stop offset="1" stop-color="#007F68"/>
</linearGradient>
<linearGradient id="paint1_linear_6435_122015" x1="7.69196" y1="48.3274" x2="88.3145" y2="48.3274" gradientUnits="userSpaceOnUse">
<stop stop-color="#006665"/>
<stop offset="0.22" stop-color="#007066"/>
<stop offset="0.59" stop-color="#007B68"/>
<stop offset="1" stop-color="#007F68"/>
</linearGradient>
<linearGradient id="paint2_linear_6435_122015" x1="28.9944" y1="20.9864" x2="86.5348" y2="86.649" gradientUnits="userSpaceOnUse">
<stop stop-color="white"/>
<stop offset="1" stop-color="#231F20"/>
</linearGradient>
<clipPath id="clip0_6435_122015">
<rect width="96" height="96" fill="white" transform="translate(0 0.702148)"/>
</clipPath>
</defs>
</svg>
