<svg width="24" height="24" viewBox="0 0 24 24" fill="none" xmlns="http://www.w3.org/2000/svg">
<path fill-rule="evenodd" clip-rule="evenodd" d="M16.455 7.45493C16.665 7.24684 16.9484 7.12973 17.2439 7.12891C17.5395 7.1281 17.8235 7.24364 18.0346 7.45057C18.2457 7.6575 18.3668 7.93919 18.3719 8.23473C18.3769 8.53028 18.2654 8.81593 18.0615 9.02993L12.0735 16.5149C11.9706 16.6258 11.8464 16.7147 11.7083 16.7765C11.5703 16.8382 11.4211 16.8715 11.2699 16.8743C11.1187 16.8771 10.9684 16.8494 10.8282 16.7928C10.6879 16.7362 10.5605 16.6519 10.4535 16.5449L6.48604 12.5759C6.37551 12.4729 6.28685 12.3487 6.22537 12.2107C6.16388 12.0727 6.13082 11.9238 6.12815 11.7727C6.12549 11.6217 6.15327 11.4716 6.20985 11.3315C6.26644 11.1915 6.35065 11.0642 6.45748 10.9574C6.56431 10.8505 6.69156 10.7663 6.83164 10.7097C6.97172 10.6532 7.12177 10.6254 7.27282 10.628C7.42388 10.6307 7.57285 10.6638 7.71085 10.7253C7.84884 10.7867 7.97304 10.8754 8.07604 10.9859L11.217 14.1254L16.4265 7.48793C16.4358 7.47631 16.4459 7.46529 16.4565 7.45493H16.455Z" fill="black"/>
</svg>
