<svg width="16" height="17" viewBox="0 0 16 17" fill="none" xmlns="http://www.w3.org/2000/svg">
<path fill-rule="evenodd" clip-rule="evenodd" d="M12 8.70068C12 10.9098 10.2091 12.7007 8 12.7007C5.79086 12.7007 4 10.9098 4 8.70068C4 6.49154 5.79086 4.70068 8 4.70068C10.2091 4.70068 12 6.49154 12 8.70068ZM14 8.70068C14 12.0144 11.3137 14.7007 8 14.7007C4.68629 14.7007 2 12.0144 2 8.70068C2 5.38697 4.68629 2.70068 8 2.70068C11.3137 2.70068 14 5.38697 14 8.70068ZM8 5.70068V8.70068H5V9.70068H8.5H9V9.20068V5.70068H8Z" fill="#666666"/>
</svg>
