<svg width="24" height="25" viewBox="0 0 24 25" fill="none" xmlns="http://www.w3.org/2000/svg">
<path fill-rule="evenodd" clip-rule="evenodd" d="M5.2945 5.7945C4.90397 6.18502 4.90029 6.82186 5.29082 7.21239L10.5785 12.5L10.5785 12.5001L5.2909 17.7877C4.90038 18.1782 4.90406 18.8151 5.29458 19.2056C5.68511 19.5961 6.32195 19.5998 6.71248 19.2093L12.0001 13.9217L17.2877 19.2093C17.6782 19.5998 18.3151 19.5961 18.7056 19.2056C19.0961 18.8151 19.0998 18.1782 18.7093 17.7877L13.4217 12.5001L13.4217 12.5L18.7093 7.21239C19.0999 6.82186 19.0962 6.18502 18.7057 5.7945C18.3151 5.40397 17.6783 5.40029 17.2878 5.79082L12.0001 11.0785L12.0001 11.0785L12 11.0785L6.71239 5.79082C6.32187 5.40029 5.68502 5.40397 5.2945 5.7945Z" fill="white"/>
</svg>
