<svg width="24" height="24" viewBox="0 0 24 24" fill="none" xmlns="http://www.w3.org/2000/svg">
<path d="M12 5.75C11.2358 5.74354 10.4731 5.81897 9.725 5.975L12 8.25C12.9946 8.25 13.9484 8.64509 14.6517 9.34835C15.3549 10.0516 15.75 11.0054 15.75 12L19.325 15.575C20.4573 14.5839 21.3687 13.3659 22 12C21.1222 10.0981 19.7085 8.49369 17.9322 7.3835C16.1559 6.27332 14.0942 5.70561 12 5.75Z" fill="#666666"/>
<path d="M13.7875 12.5375C13.843 12.3636 13.8725 12.1825 13.875 12C13.875 11.5027 13.6775 11.0258 13.3258 10.6742C12.9742 10.3225 12.4973 10.125 12 10.125C11.8175 10.1275 11.6364 10.157 11.4625 10.2125L4.5 3.25L3.25 4.5L6.125 7.375C4.32291 8.47484 2.8874 10.0843 2 12C2.87779 13.9019 4.29152 15.5063 6.06781 16.6165C7.84411 17.7267 9.90577 18.2944 12 18.25C13.4429 18.2743 14.8758 18.0064 16.2125 17.4625L18.25 19.5L19.5 18.25L13.7875 12.5375ZM12 15.75C11.0054 15.75 10.0516 15.3549 9.34835 14.6517C8.64509 13.9484 8.25 12.9946 8.25 12C8.25308 11.3143 8.44793 10.6432 8.8125 10.0625L10.2125 11.4625C10.157 11.6364 10.1275 11.8175 10.125 12C10.125 12.4973 10.3225 12.9742 10.6742 13.3258C11.0258 13.6775 11.5027 13.875 12 13.875C12.1825 13.8725 12.3636 13.843 12.5375 13.7875L13.9375 15.1875C13.3568 15.5521 12.6857 15.7469 12 15.75Z" fill="#666666"/>
</svg>
