<svg width="24" height="24" viewBox="0 0 24 24" fill="none" xmlns="http://www.w3.org/2000/svg">
<path d="M12 13.875C13.0355 13.875 13.875 13.0355 13.875 12C13.875 10.9644 13.0355 10.125 12 10.125C10.9645 10.125 10.125 10.9644 10.125 12C10.125 13.0355 10.9645 13.875 12 13.875Z" fill="#666666"/>
<path d="M12 5.74998C9.90577 5.70559 7.84411 6.27329 6.06781 7.38348C4.29152 8.49366 2.87779 10.0981 2 12C2.87779 13.9019 4.29152 15.5063 6.06781 16.6165C7.84411 17.7267 9.90577 18.2944 12 18.25C14.0942 18.2944 16.1559 17.7267 17.9322 16.6165C19.7085 15.5063 21.1222 13.9019 22 12C21.1222 10.0981 19.7085 8.49366 17.9322 7.38348C16.1559 6.27329 14.0942 5.70559 12 5.74998ZM12 15.75C11.2583 15.75 10.5333 15.53 9.91661 15.118C9.29993 14.7059 8.81928 14.1203 8.53545 13.435C8.25162 12.7498 8.17736 11.9958 8.32206 11.2684C8.46675 10.541 8.8239 9.87277 9.34835 9.34833C9.8728 8.82388 10.541 8.46673 11.2684 8.32203C11.9958 8.17734 12.7498 8.2516 13.4351 8.53543C14.1203 8.81926 14.706 9.2999 15.118 9.91659C15.5301 10.5333 15.75 11.2583 15.75 12C15.75 12.9945 15.3549 13.9484 14.6517 14.6516C13.9484 15.3549 12.9946 15.75 12 15.75Z" fill="#666666"/>
</svg>
