<svg width="24" height="24" viewBox="0 0 24 24" fill="none" xmlns="http://www.w3.org/2000/svg">
<circle cx="12.5" cy="12.5002" r="9" stroke="#444444"/>
<path d="M21.5 12.5002C21.5 13.7655 20.6102 15.0053 18.967 15.9566C17.3367 16.9005 15.0514 17.5002 12.5 17.5002C9.94863 17.5002 7.66329 16.9005 6.033 15.9566C4.38977 15.0053 3.5 13.7655 3.5 12.5002C3.5 11.235 4.38977 9.99521 6.033 9.04387C7.66329 8.10002 9.94863 7.50024 12.5 7.50024C15.0514 7.50024 17.3367 8.10002 18.967 9.04387C20.6102 9.99521 21.5 11.235 21.5 12.5002Z" stroke="#444444"/>
<path d="M12.5 21.5002C11.2348 21.5002 9.99497 20.6105 9.04363 18.9672C8.09977 17.337 7.5 15.0516 7.5 12.5002C7.5 9.94887 8.09977 7.66354 9.04363 6.03325C9.99497 4.39002 11.2348 3.50024 12.5 3.50024C13.7652 3.50024 15.005 4.39002 15.9564 6.03325C16.9002 7.66354 17.5 9.94887 17.5 12.5002C17.5 15.0516 16.9002 17.337 15.9564 18.9672C15.005 20.6105 13.7652 21.5002 12.5 21.5002Z" stroke="#444444"/>
<path fill-rule="evenodd" clip-rule="evenodd" d="M21 13.0002H4V12.0002H21V13.0002Z" fill="#444444"/>
<path fill-rule="evenodd" clip-rule="evenodd" d="M12 21.0002L12 4.00024L13 4.00024L13 21.0002L12 21.0002Z" fill="#444444"/>
</svg>
