<svg width="24" height="25" viewBox="0 0 24 25" fill="none" xmlns="http://www.w3.org/2000/svg">
<path d="M12.0681 19.25C8.29857 19.25 5.25568 16.235 5.25568 12.5C5.25568 8.765 8.29857 5.75 12.0681 5.75C13.8812 5.75 15.5247 6.47759 16.7397 7.62194C16.8255 7.70274 16.9152 7.7797 17.0198 7.83409C17.3161 7.98823 17.9843 8.24308 18.487 7.745C18.9865 7.25001 18.7356 6.59308 18.5798 6.29677C18.5233 6.1894 18.4438 6.09682 18.3556 6.01353C16.7181 4.46709 14.5151 3.5 12.0681 3.5C7.05719 3.5 3 7.535 3 12.5C3 17.465 7.05719 21.5 12.0681 21.5C16.0816 21.5 19.4798 18.9184 20.6694 15.3342C20.8962 14.6509 20.3444 14 19.6244 14C19.0825 14 18.6221 14.3784 18.4283 14.8844C17.4527 17.4315 14.9806 19.25 12.0681 19.25Z" fill="white"/>
</svg>
