<svg width="12" height="16" viewBox="0 0 12 16" fill="none" xmlns="http://www.w3.org/2000/svg">
<path fill-rule="evenodd" clip-rule="evenodd" d="M10 6.20068C10 7.93158 8.92808 9.70496 7.53039 11.2191C6.99462 11.7995 6.45485 12.2942 6 12.6784C5.54515 12.2942 5.00538 11.7995 4.46961 11.2191C3.07192 9.70496 2 7.93158 2 6.20068C2 3.99154 3.79086 2.20068 6 2.20068C8.20914 2.20068 10 3.99154 10 6.20068ZM12 6.20068C12 11.2007 6 15.2007 6 15.2007C6 15.2007 0 11.2007 0 6.20068C0 2.88698 2.68629 0.200684 6 0.200684C9.31371 0.200684 12 2.88698 12 6.20068ZM6 8.20068C7.10457 8.20068 8 7.30525 8 6.20068C8 5.09611 7.10457 4.20068 6 4.20068C4.89543 4.20068 4 5.09611 4 6.20068C4 7.30525 4.89543 8.20068 6 8.20068Z" fill="#666666"/>
</svg>
