<svg width="91" height="48" viewBox="0 0 91 48" fill="none" xmlns="http://www.w3.org/2000/svg">
<path d="M8.28834 1.10996C8.45914 0.699319 9.04086 0.699318 9.21166 1.10996L10.9471 5.28252C11.0191 5.45563 11.1819 5.57392 11.3688 5.5889L15.8734 5.95003C16.3168 5.98558 16.4965 6.53883 16.1588 6.82816L12.7267 9.76808C12.5843 9.89005 12.5221 10.0814 12.5656 10.2638L13.6142 14.6596C13.7174 15.0922 13.2468 15.4341 12.8672 15.2023L9.01063 12.8467C8.85062 12.749 8.64938 12.749 8.48937 12.8467L4.63279 15.2023C4.25324 15.4341 3.78262 15.0922 3.88581 14.6596L4.93435 10.2638C4.97786 10.0814 4.91567 9.89005 4.77328 9.76808L1.34123 6.82816C1.00347 6.53883 1.18323 5.98558 1.62655 5.95003L6.13117 5.5889C6.31807 5.57392 6.48087 5.45563 6.55288 5.28252L8.28834 1.10996Z" fill="#FF6F3D"/>
<path d="M26.125 1.1982C26.2903 0.77318 26.8917 0.773178 27.057 1.1982L28.6422 5.27417C28.7113 5.45188 28.8755 5.57482 29.0654 5.59111L33.2373 5.94879C33.6711 5.98598 33.8534 6.52149 33.5323 6.81564L30.3058 9.77144C30.1739 9.89227 30.1166 10.0744 30.1555 10.249L31.1325 14.6293C31.2302 15.067 30.7466 15.402 30.3711 15.1567L26.8644 12.8661C26.6983 12.7576 26.4837 12.7576 26.3175 12.8661L22.8108 15.1567C22.4353 15.402 21.9517 15.067 22.0494 14.6293L23.0264 10.249C23.0653 10.0744 23.008 9.89227 22.8761 9.77144L19.6496 6.81564C19.3285 6.52149 19.5108 5.98598 19.9446 5.94879L24.1165 5.59111C24.3065 5.57482 24.4706 5.45188 24.5398 5.27417L26.125 1.1982Z" fill="#FF6F3D"/>
<path d="M44.5339 1.1982C44.6992 0.773176 45.3006 0.773178 45.4659 1.1982L47.0511 5.27417C47.1203 5.45188 47.2844 5.57482 47.4744 5.59111L51.6463 5.94879C52.0801 5.98598 52.2624 6.52149 51.9413 6.81564L48.7148 9.77144C48.5829 9.89227 48.5256 10.0744 48.5645 10.249L49.5415 14.6293C49.6392 15.067 49.1556 15.402 48.7801 15.1567L45.2734 12.8661C45.1072 12.7576 44.8926 12.7576 44.7265 12.8661L41.2198 15.1567C40.8443 15.402 40.3607 15.067 40.4584 14.6293L41.4354 10.249C41.4743 10.0744 41.417 9.89227 41.2851 9.77144L38.0586 6.81564C37.7375 6.52149 37.9198 5.98598 38.3536 5.94879L42.5254 5.59111C42.7154 5.57482 42.8796 5.45188 42.9487 5.27417L44.5339 1.1982Z" fill="#FF6F3D"/>
<path d="M62.9431 1.1982C63.1084 0.773176 63.7098 0.773177 63.8751 1.1982L65.4603 5.27417C65.5294 5.45188 65.6936 5.57482 65.8836 5.59111L70.0554 5.94879C70.4893 5.98598 70.6715 6.52149 70.3504 6.81564L67.1239 9.77144C66.992 9.89227 66.9347 10.0744 66.9736 10.249L67.9507 14.6293C68.0483 15.067 67.5647 15.402 67.1892 15.1567L63.6825 12.8661C63.5164 12.7576 63.3018 12.7576 63.1356 12.8661L59.629 15.1567C59.2534 15.402 58.7699 15.067 58.8675 14.6293L59.8445 10.249C59.8835 10.0744 59.8262 9.89227 59.6943 9.77144L56.4677 6.81564C56.1466 6.52149 56.3289 5.98598 56.7628 5.94879L60.9346 5.59111C61.1246 5.57482 61.2888 5.45188 61.3579 5.27417L62.9431 1.1982Z" fill="#FF6F3D"/>
<path d="M81.3522 1.1982C81.5175 0.773176 82.1189 0.773177 82.2842 1.1982L83.8694 5.27417C83.9385 5.45188 84.1027 5.57482 84.2927 5.59111L88.4645 5.94879C88.8984 5.98598 89.0807 6.52149 88.7596 6.81564L85.5331 9.77144C85.4011 9.89227 85.3438 10.0744 85.3828 10.249L86.3598 14.6293C86.4574 15.067 85.9739 15.402 85.5984 15.1567L82.0917 12.8661C81.9255 12.7576 81.7109 12.7576 81.5448 12.8661L78.0381 15.1567C77.6626 15.402 77.179 15.067 77.2766 14.6293L78.2537 10.249C78.2926 10.0744 78.2353 9.89227 78.1034 9.77144L74.8769 6.81564C74.5558 6.52149 74.738 5.98598 75.1719 5.94879L79.3437 5.59111C79.5337 5.57482 79.6979 5.45188 79.767 5.27417L81.3522 1.1982Z" fill="#FF6F3D"/>
<path d="M81.7158 31.1982C81.8811 30.7732 82.4825 30.7732 82.6478 31.1982L84.233 35.2742C84.3021 35.4519 84.4663 35.5748 84.6563 35.5911L88.8281 35.9488C89.262 35.986 89.4443 36.5215 89.1232 36.8156L85.8966 39.7714C85.7647 39.8923 85.7074 40.0744 85.7464 40.249L86.7234 44.6293C86.821 45.067 86.3375 45.402 85.962 45.1567L82.4553 42.8661C82.2891 42.7576 82.0745 42.7576 81.9084 42.8661L78.4017 45.1567C78.0262 45.402 77.5426 45.067 77.6402 44.6293L78.6173 40.249C78.6562 40.0744 78.5989 39.8923 78.467 39.7714L75.2405 36.8156C74.9194 36.5215 75.1016 35.986 75.5355 35.9488L79.7073 35.5911C79.8973 35.5748 80.0615 35.4519 80.1306 35.2742L81.7158 31.1982Z" fill="#E5E5E5"/>
<path d="M62.7158 31.1982C62.8811 30.7732 63.4825 30.7732 63.6478 31.1982L65.233 35.2742C65.3021 35.4519 65.4663 35.5748 65.6563 35.5911L69.8281 35.9488C70.262 35.986 70.4443 36.5215 70.1232 36.8156L66.8966 39.7714C66.7647 39.8923 66.7074 40.0744 66.7464 40.249L67.7234 44.6293C67.821 45.067 67.3375 45.402 66.962 45.1567L63.4553 42.8661C63.2891 42.7576 63.0745 42.7576 62.9084 42.8661L59.4017 45.1567C59.0262 45.402 58.5426 45.067 58.6402 44.6293L59.6173 40.249C59.6562 40.0744 59.5989 39.8923 59.467 39.7714L56.2405 36.8156C55.9194 36.5215 56.1016 35.986 56.5355 35.9488L60.7073 35.5911C60.8973 35.5748 61.0615 35.4519 61.1306 35.2742L62.7158 31.1982Z" fill="#E5E5E5"/>
<path d="M44.7158 31.1982C44.8811 30.7732 45.4825 30.7732 45.6478 31.1982L47.233 35.2742C47.3021 35.4519 47.4663 35.5748 47.6563 35.5911L51.8281 35.9488C52.262 35.986 52.4443 36.5215 52.1232 36.8156L48.8966 39.7714C48.7647 39.8923 48.7074 40.0744 48.7464 40.249L49.7234 44.6293C49.821 45.067 49.3375 45.402 48.962 45.1567L45.4553 42.8661C45.2891 42.7576 45.0745 42.7576 44.9084 42.8661L41.4017 45.1567C41.0262 45.402 40.5426 45.067 40.6402 44.6293L41.6173 40.249C41.6562 40.0744 41.5989 39.8923 41.467 39.7714L38.2405 36.8156C37.9194 36.5215 38.1016 35.986 38.5355 35.9488L42.7073 35.5911C42.8973 35.5748 43.0615 35.4519 43.1306 35.2742L44.7158 31.1982Z" fill="#E5E5E5"/>
<path d="M26.7158 31.1982C26.8811 30.7732 27.4825 30.7732 27.6478 31.1982L29.233 35.2742C29.3021 35.4519 29.4663 35.5748 29.6563 35.5911L33.8281 35.9488C34.262 35.986 34.4443 36.5215 34.1232 36.8156L30.8966 39.7714C30.7647 39.8923 30.7074 40.0744 30.7464 40.249L31.7234 44.6293C31.821 45.067 31.3375 45.402 30.962 45.1567L27.4553 42.8661C27.2891 42.7576 27.0745 42.7576 26.9084 42.8661L23.4017 45.1567C23.0262 45.402 22.5426 45.067 22.6402 44.6293L23.6173 40.249C23.6562 40.0744 23.5989 39.8923 23.467 39.7714L20.2405 36.8156C19.9194 36.5215 20.1016 35.986 20.5355 35.9488L24.7073 35.5911C24.8973 35.5748 25.0615 35.4519 25.1306 35.2742L26.7158 31.1982Z" fill="#E5E5E5"/>
<path d="M8.71582 31.1982C8.88112 30.7732 9.48252 30.7732 9.64782 31.1982L11.233 35.2742C11.3021 35.4519 11.4663 35.5748 11.6563 35.5911L15.8281 35.9488C16.262 35.986 16.4443 36.5215 16.1232 36.8156L12.8966 39.7714C12.7647 39.8923 12.7074 40.0744 12.7464 40.249L13.7234 44.6293C13.821 45.067 13.3375 45.402 12.962 45.1567L9.45526 42.8661C9.28912 42.7576 9.07452 42.7576 8.90838 42.8661L5.40169 45.1567C5.02618 45.402 4.5426 45.067 4.64024 44.6293L5.61726 40.249C5.6562 40.0744 5.5989 39.8923 5.46699 39.7714L2.24047 36.8156C1.91938 36.5215 2.10164 35.986 2.5355 35.9488L6.70733 35.5911C6.89732 35.5748 7.0615 35.4519 7.13061 35.2742L8.71582 31.1982Z" fill="#E5E5E5"/>
</svg>
