<svg width="448" height="254" viewBox="0 0 448 254" fill="none" xmlns="http://www.w3.org/2000/svg">
<g clip-path="url(#clip0_6502_203518)">
<path d="M225.402 254.553C328.457 254.553 412 253.086 412 251.276C412 249.467 328.457 248 225.402 248C122.346 248 38.8032 249.467 38.8032 251.276C38.8032 253.086 122.346 254.553 225.402 254.553Z" fill="#EFEFEF"/>
<path d="M339.495 15.9962H339.5V15.4962C339.5 11.0438 335.981 7.5 331.544 7.5H46.4555C42.0238 7.5 38.5 11.0436 38.5 15.4962V188V188.5H39H338.995H339.495V188V15.9962Z" fill="#AAAAAA" stroke="#333333"/>
<path d="M45.5 181.5V14.5H332.5V181.5H45.5Z" fill="white" stroke="#333333"/>
<path d="M226 248.5H226.561L226.497 247.943L222.831 215.943L222.78 215.5H222.334H154.4H153.964L153.905 215.932L149.505 247.932L149.427 248.5H150H226Z" fill="#CCCCCC" stroke="#333333"/>
<path d="M38.5 208.442V188.5H339.5V208.442C339.5 212.382 336.396 215.5 332.495 215.5H45.5054C41.5991 215.5 38.5 212.383 38.5 208.442Z" fill="#E2E2E2" stroke="#333333"/>
<path d="M139.333 251.5L149.106 248.5H226.894L236.667 251.5H139.333Z" fill="#E2E2E2" stroke="#333333"/>
<path d="M154.5 91.5V91H154V91.5H154.5ZM154.5 95.5H154V96H154.5V95.5ZM164.5 91.5H165V91H164.5V91.5ZM164.5 95.5V96H165V95.5H164.5ZM165.5 88.5H166V88.293L165.854 88.146L165.5 88.5ZM162.5 85.5L162.854 85.146L162.707 85H162.5V85.5ZM154 91.5V95.5H155V91.5H154ZM154.5 96H155.5V95H154.5V96ZM157 94.5V92.5H156V94.5H157ZM155.5 91H154.5V92H155.5V91ZM157 92.5C157 92.1022 156.842 91.7206 156.561 91.4393C156.279 91.158 155.898 91 155.5 91V92C155.633 92 155.76 92.0527 155.854 92.1464C155.947 92.2402 156 92.3674 156 92.5H157ZM155.5 96C155.898 96 156.279 95.842 156.561 95.5607C156.842 95.2794 157 94.8978 157 94.5H156C156 94.6326 155.947 94.7598 155.854 94.8536C155.76 94.9473 155.633 95 155.5 95V96ZM158 92.5V94.5H159V92.5H158ZM161 94.5V92.5H160V94.5H161ZM161 92.5C161 92.1022 160.842 91.7206 160.561 91.4393C160.279 91.158 159.898 91 159.5 91V92C159.633 92 159.76 92.0527 159.854 92.1464C159.947 92.2402 160 92.3674 160 92.5H161ZM159.5 96C159.898 96 160.279 95.842 160.561 95.5607C160.842 95.2794 161 94.8978 161 94.5H160C160 94.6326 159.947 94.7598 159.854 94.8536C159.76 94.9473 159.633 95 159.5 95V96ZM158 94.5C158 94.8978 158.158 95.2794 158.439 95.5607C158.721 95.842 159.102 96 159.5 96V95C159.367 95 159.24 94.9473 159.146 94.8536C159.053 94.7598 159 94.6326 159 94.5H158ZM159 92.5C159 92.3674 159.053 92.2402 159.146 92.1464C159.24 92.0527 159.367 92 159.5 92V91C159.102 91 158.721 91.158 158.439 91.4393C158.158 91.7206 158 92.1022 158 92.5H159ZM162 91V96H163V91H162ZM162.5 92H164.5V91H162.5V92ZM164 91.5V93H165V91.5H164ZM162.5 96H164.5V95H162.5V96ZM165 95.5V94H164V95.5H165ZM154 90V86.5H153V90H154ZM165 88.5V90H166V88.5H165ZM154.5 86H162.5V85H154.5V86ZM162.146 85.854L165.146 88.854L165.854 88.146L162.854 85.146L162.146 85.854ZM154 86.5C154 86.3674 154.053 86.2402 154.146 86.1464C154.24 86.0527 154.367 86 154.5 86V85C154.102 85 153.721 85.158 153.439 85.4393C153.158 85.7206 153 86.1022 153 86.5H154ZM153 97V98.5H154V97H153ZM154.5 100H164.5V99H154.5V100ZM166 98.5V97H165V98.5H166ZM164.5 100C164.898 100 165.279 99.842 165.561 99.5607C165.842 99.2794 166 98.8978 166 98.5H165C165 98.6326 164.947 98.7598 164.854 98.8536C164.76 98.9473 164.633 99 164.5 99V100ZM153 98.5C153 98.8978 153.158 99.2794 153.439 99.5607C153.721 99.842 154.102 100 154.5 100V99C154.367 99 154.24 98.9473 154.146 98.8536C154.053 98.7598 154 98.6326 154 98.5H153Z" fill="black"/>
<path d="M239.281 252.5L238.909 253.5H136.986L136.677 252.5H239.281Z" fill="#AAAAAA" stroke="#333333"/>
<path d="M194.5 201.497C194.5 204.26 192.259 206.5 189.5 206.5C186.741 206.5 184.5 204.26 184.5 201.497C184.5 198.74 186.74 196.5 189.5 196.5C192.26 196.5 194.5 198.735 194.5 201.497Z" fill="#AAAAAA" stroke="#333333"/>
<path fill-rule="evenodd" clip-rule="evenodd" d="M370.881 77.7536C371.415 77.7536 371.852 77.3167 371.852 76.7839C371.852 76.251 371.415 75.8142 370.881 75.8142C370.348 75.8142 369.911 76.251 369.911 76.7839C369.916 77.3215 370.348 77.7536 370.881 77.7536Z" fill="#FEFEFE"/>
<path fill-rule="evenodd" clip-rule="evenodd" d="M46 181H332V15H46V181Z" fill="white"/>
<path d="M319.5 37C319.5 37.8284 318.828 38.5 318 38.5H119C118.172 38.5 117.5 37.8284 117.5 37V28C117.5 27.1716 118.172 26.5 119 26.5H318C318.828 26.5 319.5 27.1716 319.5 28V37Z" stroke="#CCCCCC"/>
<rect width="65" height="25" transform="translate(117 44)" fill="#0061FF"/>
<path d="M130 53H127V56H126V53H123V52H126V49H127V52H130V53Z" fill="white"/>
<rect x="186.5" y="44.5" width="64" height="24" fill="white"/>
<rect x="186.5" y="44.5" width="64" height="24" stroke="#CCCCCC"/>
<path d="M194 54V50.9348L192.925 51.9112L192.312 51.2976L194.5 49L196.688 51.2976L196.075 51.9112L195 50.9348V54H194ZM191.875 56C191.634 56 191.428 55.8703 191.257 55.7047C191.086 55.5391 191 55.3397 191 55.1067V54H192V55H197V54H198V55.1067C198 55.3394 197.914 55.5388 197.743 55.7047C197.572 55.8706 197.366 56.0003 197.125 56H191.875Z" fill="black"/>
<rect x="255.5" y="44.5" width="64" height="24" fill="white"/>
<rect x="255.5" y="44.5" width="64" height="24" stroke="#CCCCCC"/>
<path d="M260.001 55C259.739 55 259.493 55.0039 259.263 54.7812C258.966 54.4961 259.001 54.2497 259.001 54V49C259.001 48.7506 258.998 48.4252 259.208 48.2589C259.413 48.034 259.739 48.0003 260.001 48H263.001L263.501 49H267.001C267.264 49 267.517 48.9766 267.798 49.2227C268.029 49.4531 268.001 49.7509 268.001 50V54C268.001 54.2494 268.032 54.6092 267.802 54.8164C267.575 55.0116 267.264 55.0003 267.001 55H260.001ZM260.001 54H267.001V50H263.001L262.501 49L260.001 49.0043L260.001 54Z" fill="black"/>
<rect width="55" height="166" transform="translate(46 15)" fill="#FBF8F6"/>
<g clip-path="url(#clip1_6502_203518)">
<path d="M61.656 25.4429L57.828 27.8857L61.656 30.3286L57.828 32.7715L54 30.3154L57.828 27.8725L54 25.4429L57.828 23L61.656 25.4429ZM57.8082 33.5571L61.6362 31.1143L65.4642 33.5571L61.6362 36L57.8082 33.5571ZM61.656 30.3154L65.484 27.8725L61.656 25.4429L65.4642 23L69.2922 25.4429L65.4642 27.8857L69.2922 30.3286L65.4642 32.7715L61.656 30.3154Z" fill="#0061FF"/>
</g>
<path fill-rule="evenodd" clip-rule="evenodd" d="M93 46.5C93 46.7761 92.7761 47 92.5 47H54.5C54.2239 47 54 46.7761 54 46.5C54 46.2239 54.2239 46 54.5 46H92.5C92.7761 46 93 46.2239 93 46.5Z" fill="#CCCCCC"/>
<path fill-rule="evenodd" clip-rule="evenodd" d="M93 57.5C93 57.7761 92.7761 58 92.5 58H54.5C54.2239 58 54 57.7761 54 57.5C54 57.2239 54.2239 57 54.5 57H92.5C92.7761 57 93 57.2239 93 57.5Z" fill="#CCCCCC"/>
<path fill-rule="evenodd" clip-rule="evenodd" d="M93 68.5C93 68.7761 92.7761 69 92.5 69H54.5C54.2239 69 54 68.7761 54 68.5C54 68.2239 54.2239 68 54.5 68H92.5C92.7761 68 93 68.2239 93 68.5Z" fill="#CCCCCC"/>
<path fill-rule="evenodd" clip-rule="evenodd" d="M93 79.5C93 79.7761 92.7761 80 92.5 80H54.5C54.2239 80 54 79.7761 54 79.5C54 79.2239 54.2239 79 54.5 79H92.5C92.7761 79 93 79.2239 93 79.5Z" fill="#CCCCCC"/>
<path fill-rule="evenodd" clip-rule="evenodd" d="M93 90.5C93 90.7761 92.7761 91 92.5 91H54.5C54.2239 91 54 90.7761 54 90.5C54 90.2239 54.2239 90 54.5 90H92.5C92.7761 90 93 90.2239 93 90.5Z" fill="#CCCCCC"/>
<line x1="101.5" y1="181" x2="101.5" y2="15" stroke="#E2E2E2"/>
<path fill-rule="evenodd" clip-rule="evenodd" d="M138 127C138 127.552 137.552 128 137 128H127C126.448 128 126 127.552 126 127V117C126 116.448 126.448 116 127 116H137C137.552 116 138 116.448 138 117V127Z" fill="#EFEFEF"/>
<path fill-rule="evenodd" clip-rule="evenodd" d="M297 122C297 122.552 296.552 123 296 123H144C143.448 123 143 122.552 143 122C143 121.448 143.448 121 144 121H296C296.552 121 297 121.448 297 122Z" fill="#E2E2E2"/>
<path fill-rule="evenodd" clip-rule="evenodd" d="M304 122C304 122.552 303.552 123 303 123C302.448 123 302 122.552 302 122C302 121.448 302.448 121 303 121C303.552 121 304 121.448 304 122Z" fill="#AAAAAA"/>
<path fill-rule="evenodd" clip-rule="evenodd" d="M307 122C307 122.552 306.552 123 306 123C305.448 123 305 122.552 305 122C305 121.448 305.448 121 306 121C306.552 121 307 121.448 307 122Z" fill="#AAAAAA"/>
<path fill-rule="evenodd" clip-rule="evenodd" d="M310 122C310 122.552 309.552 123 309 123C308.448 123 308 122.552 308 122C308 121.448 308.448 121 309 121C309.552 121 310 121.448 310 122Z" fill="#AAAAAA"/>
<path fill-rule="evenodd" clip-rule="evenodd" d="M138 147C138 147.552 137.552 148 137 148H127C126.448 148 126 147.552 126 147V137C126 136.448 126.448 136 127 136H137C137.552 136 138 136.448 138 137V147Z" fill="#EFEFEF"/>
<path fill-rule="evenodd" clip-rule="evenodd" d="M297 142C297 142.552 296.552 143 296 143H144C143.448 143 143 142.552 143 142C143 141.448 143.448 141 144 141H296C296.552 141 297 141.448 297 142Z" fill="#E2E2E2"/>
<path fill-rule="evenodd" clip-rule="evenodd" d="M304 142C304 142.552 303.552 143 303 143C302.448 143 302 142.552 302 142C302 141.448 302.448 141 303 141C303.552 141 304 141.448 304 142Z" fill="#AAAAAA"/>
<path fill-rule="evenodd" clip-rule="evenodd" d="M307 142C307 142.552 306.552 143 306 143C305.448 143 305 142.552 305 142C305 141.448 305.448 141 306 141C306.552 141 307 141.448 307 142Z" fill="#AAAAAA"/>
<path fill-rule="evenodd" clip-rule="evenodd" d="M310 142C310 142.552 309.552 143 309 143C308.448 143 308 142.552 308 142C308 141.448 308.448 141 309 141C309.552 141 310 141.448 310 142Z" fill="#AAAAAA"/>
<path fill-rule="evenodd" clip-rule="evenodd" d="M138 167C138 167.552 137.552 168 137 168H127C126.448 168 126 167.552 126 167V157C126 156.448 126.448 156 127 156H137C137.552 156 138 156.448 138 157V167Z" fill="#EFEFEF"/>
<path fill-rule="evenodd" clip-rule="evenodd" d="M297 162C297 162.552 296.552 163 296 163H144C143.448 163 143 162.552 143 162C143 161.448 143.448 161 144 161H296C296.552 161 297 161.448 297 162Z" fill="#E2E2E2"/>
<path fill-rule="evenodd" clip-rule="evenodd" d="M304 162C304 162.552 303.552 163 303 163C302.448 163 302 162.552 302 162C302 161.448 302.448 161 303 161C303.552 161 304 161.448 304 162Z" fill="#AAAAAA"/>
<path fill-rule="evenodd" clip-rule="evenodd" d="M307 162C307 162.552 306.552 163 306 163C305.448 163 305 162.552 305 162C305 161.448 305.448 161 306 161C306.552 161 307 161.448 307 162Z" fill="#AAAAAA"/>
<path fill-rule="evenodd" clip-rule="evenodd" d="M310 162C310 162.552 309.552 163 309 163C308.448 163 308 162.552 308 162C308 161.448 308.448 161 309 161C309.552 161 310 161.448 310 162Z" fill="#AAAAAA"/>
<g clip-path="url(#clip2_6502_203518)">
<rect x="117" y="81" width="203" height="28" rx="2" fill="#E9F2FF"/>
<path fill-rule="evenodd" clip-rule="evenodd" d="M287 96C287 96.5523 286.552 97 286 97H158C157.448 97 157 96.5523 157 96C157 95.4477 157.448 95 158 95H286C286.552 95 287 95.4477 287 96Z" fill="#666666"/>
<path fill-rule="evenodd" clip-rule="evenodd" d="M294 96C294 96.5523 293.552 97 293 97C292.448 97 292 96.5523 292 96C292 95.4477 292.448 95 293 95C293.552 95 294 95.4477 294 96Z" fill="#666666"/>
<path fill-rule="evenodd" clip-rule="evenodd" d="M297 96C297 96.5523 296.552 97 296 97C295.448 97 295 96.5523 295 96C295 95.4477 295.448 95 296 95C296.552 95 297 95.4477 297 96Z" fill="#666666"/>
<path fill-rule="evenodd" clip-rule="evenodd" d="M300 96C300 96.5523 299.552 97 299 97C298.448 97 298 96.5523 298 96C298 95.4477 298.448 95 299 95C299.552 95 300 95.4477 300 96Z" fill="#666666"/>
<path d="M127.5 94.5V94H127V94.5H127.5ZM127.5 98.5H127V99H127.5V98.5ZM137.5 94.5H138V94H137.5V94.5ZM137.5 98.5V99H138V98.5H137.5ZM138.5 91.5H139V91.293L138.854 91.146L138.5 91.5ZM135.5 88.5L135.854 88.146L135.707 88H135.5V88.5ZM127 94.5V98.5H128V94.5H127ZM127.5 99H128.5V98H127.5V99ZM130 97.5V95.5H129V97.5H130ZM128.5 94H127.5V95H128.5V94ZM130 95.5C130 95.1022 129.842 94.7206 129.561 94.4393C129.279 94.158 128.898 94 128.5 94V95C128.633 95 128.76 95.0527 128.854 95.1464C128.947 95.2402 129 95.3674 129 95.5H130ZM128.5 99C128.898 99 129.279 98.842 129.561 98.5607C129.842 98.2794 130 97.8978 130 97.5H129C129 97.6326 128.947 97.7598 128.854 97.8536C128.76 97.9473 128.633 98 128.5 98V99ZM131 95.5V97.5H132V95.5H131ZM134 97.5V95.5H133V97.5H134ZM134 95.5C134 95.1022 133.842 94.7206 133.561 94.4393C133.279 94.158 132.898 94 132.5 94V95C132.633 95 132.76 95.0527 132.854 95.1464C132.947 95.2402 133 95.3674 133 95.5H134ZM132.5 99C132.898 99 133.279 98.842 133.561 98.5607C133.842 98.2794 134 97.8978 134 97.5H133C133 97.6326 132.947 97.7598 132.854 97.8536C132.76 97.9473 132.633 98 132.5 98V99ZM131 97.5C131 97.8978 131.158 98.2794 131.439 98.5607C131.721 98.842 132.102 99 132.5 99V98C132.367 98 132.24 97.9473 132.146 97.8536C132.053 97.7598 132 97.6326 132 97.5H131ZM132 95.5C132 95.3674 132.053 95.2402 132.146 95.1464C132.24 95.0527 132.367 95 132.5 95V94C132.102 94 131.721 94.158 131.439 94.4393C131.158 94.7206 131 95.1022 131 95.5H132ZM135 94V99H136V94H135ZM135.5 95H137.5V94H135.5V95ZM137 94.5V96H138V94.5H137ZM135.5 99H137.5V98H135.5V99ZM138 98.5V97H137V98.5H138ZM127 93V89.5H126V93H127ZM138 91.5V93H139V91.5H138ZM127.5 89H135.5V88H127.5V89ZM135.146 88.854L138.146 91.854L138.854 91.146L135.854 88.146L135.146 88.854ZM127 89.5C127 89.3674 127.053 89.2402 127.146 89.1464C127.24 89.0527 127.367 89 127.5 89V88C127.102 88 126.721 88.158 126.439 88.4393C126.158 88.7206 126 89.1022 126 89.5H127ZM126 100V101.5H127V100H126ZM127.5 103H137.5V102H127.5V103ZM139 101.5V100H138V101.5H139ZM137.5 103C137.898 103 138.279 102.842 138.561 102.561C138.842 102.279 139 101.898 139 101.5H138C138 101.633 137.947 101.76 137.854 101.854C137.76 101.947 137.633 102 137.5 102V103ZM126 101.5C126 101.898 126.158 102.279 126.439 102.561C126.721 102.842 127.102 103 127.5 103V102C127.367 102 127.24 101.947 127.146 101.854C127.053 101.76 127 101.633 127 101.5H126Z" fill="#446995"/>
</g>
<g filter="url(#filter0_d_6502_203518)">
<rect x="295" y="89" width="107" height="144" rx="4" fill="white"/>
<rect x="294.5" y="88.5" width="108" height="145" rx="4.5" stroke="#AAAAAA"/>
<path fill-rule="evenodd" clip-rule="evenodd" d="M385 107C385 108.105 384.105 109 383 109H314C312.895 109 312 108.105 312 107C312 105.895 312.895 105 314 105H383C384.105 105 385 105.895 385 107Z" fill="#E2E2E2"/>
<path fill-rule="evenodd" clip-rule="evenodd" d="M385 121C385 122.105 384.105 123 383 123H314C312.895 123 312 122.105 312 121C312 119.895 312.895 119 314 119H383C384.105 119 385 119.895 385 121Z" fill="#E2E2E2"/>
<path fill-rule="evenodd" clip-rule="evenodd" d="M385 135C385 136.105 384.105 137 383 137H314C312.895 137 312 136.105 312 135C312 133.895 312.895 133 314 133H383C384.105 133 385 133.895 385 135Z" fill="#E2E2E2"/>
<path d="M321.186 160.989C321.186 161.759 321.088 162.461 320.892 163.095C320.7 163.724 320.411 164.266 320.023 164.722C319.636 165.173 319.151 165.521 318.567 165.768C317.984 166.014 317.3 166.137 316.517 166.137C315.719 166.137 315.026 166.014 314.438 165.768C313.855 165.521 313.37 165.171 312.982 164.715C312.6 164.259 312.312 163.715 312.121 163.081C311.93 162.448 311.834 161.746 311.834 160.976C311.834 159.946 312.003 159.048 312.34 158.282C312.682 157.512 313.199 156.915 313.892 156.491C314.589 156.063 315.468 155.849 316.53 155.849C317.569 155.849 318.433 156.061 319.121 156.484C319.809 156.908 320.324 157.505 320.666 158.275C321.012 159.041 321.186 159.946 321.186 160.989ZM313.557 160.989C313.557 161.759 313.661 162.427 313.871 162.992C314.081 163.553 314.402 163.986 314.835 164.291C315.272 164.592 315.833 164.742 316.517 164.742C317.205 164.742 317.765 164.592 318.198 164.291C318.631 163.986 318.95 163.553 319.155 162.992C319.36 162.427 319.463 161.759 319.463 160.989C319.463 159.818 319.228 158.902 318.759 158.241C318.294 157.576 317.551 157.243 316.53 157.243C315.847 157.243 315.284 157.394 314.842 157.694C314.404 157.995 314.081 158.426 313.871 158.986C313.661 159.542 313.557 160.21 313.557 160.989ZM327.051 158.289C327.949 158.289 328.669 158.617 329.211 159.273C329.758 159.93 330.031 160.905 330.031 162.199C330.031 163.056 329.904 163.778 329.648 164.366C329.398 164.95 329.045 165.392 328.589 165.692C328.138 165.989 327.611 166.137 327.01 166.137C326.627 166.137 326.294 166.087 326.012 165.986C325.729 165.886 325.488 165.756 325.287 165.597C325.087 165.433 324.918 165.255 324.781 165.063H324.686C324.708 165.246 324.729 165.449 324.747 165.672C324.77 165.891 324.781 166.091 324.781 166.273V169.356H323.168V158.433H324.48L324.706 159.479H324.781C324.923 159.264 325.093 159.066 325.294 158.884C325.499 158.701 325.745 158.558 326.032 158.453C326.324 158.344 326.663 158.289 327.051 158.289ZM326.62 159.602C326.178 159.602 325.823 159.69 325.554 159.868C325.289 160.041 325.096 160.303 324.973 160.654C324.854 161.005 324.79 161.445 324.781 161.974V162.199C324.781 162.76 324.838 163.236 324.952 163.628C325.071 164.015 325.264 164.312 325.533 164.517C325.807 164.717 326.176 164.817 326.641 164.817C327.033 164.817 327.356 164.71 327.611 164.496C327.871 164.282 328.065 163.977 328.192 163.58C328.32 163.184 328.384 162.716 328.384 162.179C328.384 161.363 328.238 160.729 327.946 160.278C327.659 159.827 327.217 159.602 326.62 159.602ZM334.905 158.289C335.58 158.289 336.159 158.428 336.642 158.706C337.125 158.984 337.496 159.378 337.756 159.889C338.016 160.399 338.146 161.01 338.146 161.721V162.582H333.094C333.112 163.316 333.308 163.881 333.682 164.277C334.06 164.674 334.589 164.872 335.268 164.872C335.751 164.872 336.184 164.826 336.566 164.735C336.954 164.64 337.353 164.501 337.763 164.318V165.624C337.384 165.802 336.999 165.932 336.607 166.014C336.215 166.096 335.746 166.137 335.199 166.137C334.456 166.137 333.802 165.993 333.237 165.706C332.677 165.414 332.237 164.981 331.918 164.407C331.604 163.833 331.446 163.12 331.446 162.268C331.446 161.42 331.59 160.7 331.877 160.107C332.164 159.515 332.567 159.064 333.087 158.754C333.606 158.444 334.213 158.289 334.905 158.289ZM334.905 159.499C334.399 159.499 333.989 159.663 333.675 159.991C333.365 160.319 333.183 160.8 333.128 161.434H336.573C336.569 161.055 336.505 160.72 336.382 160.429C336.263 160.137 336.081 159.909 335.835 159.745C335.593 159.581 335.284 159.499 334.905 159.499ZM343.901 158.289C344.754 158.289 345.417 158.51 345.891 158.952C346.369 159.39 346.608 160.094 346.608 161.064V166H345.002V161.365C345.002 160.777 344.881 160.338 344.64 160.046C344.398 159.75 344.024 159.602 343.519 159.602C342.785 159.602 342.274 159.827 341.987 160.278C341.705 160.729 341.563 161.383 341.563 162.24V166H339.957V158.433H341.208L341.434 159.458H341.522C341.687 159.194 341.889 158.977 342.131 158.809C342.377 158.635 342.65 158.506 342.951 158.419C343.257 158.332 343.573 158.289 343.901 158.289ZM354.101 158.433V166H352.494V158.433H354.101ZM353.308 155.534C353.554 155.534 353.766 155.6 353.943 155.732C354.126 155.865 354.217 156.092 354.217 156.416C354.217 156.735 354.126 156.963 353.943 157.1C353.766 157.232 353.554 157.298 353.308 157.298C353.052 157.298 352.836 157.232 352.658 157.1C352.485 156.963 352.398 156.735 352.398 156.416C352.398 156.092 352.485 155.865 352.658 155.732C352.836 155.6 353.052 155.534 353.308 155.534ZM360.349 158.289C361.201 158.289 361.864 158.51 362.338 158.952C362.816 159.39 363.056 160.094 363.056 161.064V166H361.449V161.365C361.449 160.777 361.328 160.338 361.087 160.046C360.845 159.75 360.472 159.602 359.966 159.602C359.232 159.602 358.722 159.827 358.435 160.278C358.152 160.729 358.011 161.383 358.011 162.24V166H356.404V158.433H357.655L357.881 159.458H357.97C358.134 159.194 358.337 158.977 358.578 158.809C358.824 158.635 359.098 158.506 359.398 158.419C359.704 158.332 360.021 158.289 360.349 158.289Z" fill="#333333"/>
<path d="M383 158L386 161L383 164" stroke="#333333" stroke-width="2" stroke-linecap="round"/>
<path fill-rule="evenodd" clip-rule="evenodd" d="M385 187C385 188.105 384.105 189 383 189H314C312.895 189 312 188.105 312 187C312 185.895 312.895 185 314 185H383C384.105 185 385 185.895 385 187Z" fill="#E2E2E2"/>
<path fill-rule="evenodd" clip-rule="evenodd" d="M385 201C385 202.105 384.105 203 383 203H314C312.895 203 312 202.105 312 201C312 199.895 312.895 199 314 199H383C384.105 199 385 199.895 385 201Z" fill="#E2E2E2"/>
<path fill-rule="evenodd" clip-rule="evenodd" d="M385 215C385 216.105 384.105 217 383 217H314C312.895 217 312 216.105 312 215C312 213.895 312.895 213 314 213H383C384.105 213 385 213.895 385 215Z" fill="#E2E2E2"/>
</g>
</g>
<defs>
<filter id="filter0_d_6502_203518" x="279" y="80" width="139" height="176" filterUnits="userSpaceOnUse" color-interpolation-filters="sRGB">
<feFlood flood-opacity="0" result="BackgroundImageFix"/>
<feColorMatrix in="SourceAlpha" type="matrix" values="0 0 0 0 0 0 0 0 0 0 0 0 0 0 0 0 0 0 127 0" result="hardAlpha"/>
<feOffset dy="7"/>
<feGaussianBlur stdDeviation="7.5"/>
<feColorMatrix type="matrix" values="0 0 0 0 0.333333 0 0 0 0 0.333333 0 0 0 0 0.333333 0 0 0 0.1 0"/>
<feBlend mode="normal" in2="BackgroundImageFix" result="effect1_dropShadow_6502_203518"/>
<feBlend mode="normal" in="SourceGraphic" in2="effect1_dropShadow_6502_203518" result="shape"/>
</filter>
<clipPath id="clip0_6502_203518">
<rect width="448" height="254" fill="white"/>
</clipPath>
<clipPath id="clip1_6502_203518">
<rect width="16" height="13" fill="white" transform="translate(54 23)"/>
</clipPath>
<clipPath id="clip2_6502_203518">
<rect x="117" y="81" width="203" height="28" rx="2" fill="white"/>
</clipPath>
</defs>
</svg>
