<svg width="448" height="254" viewBox="0 0 448 254" fill="none" xmlns="http://www.w3.org/2000/svg">
<g clip-path="url(#clip0_6502_202490)">
<path d="M222.431 255.553C332.682 255.553 422.059 253.414 422.059 250.776C422.059 248.138 332.682 246 222.431 246C112.18 246 22.8032 248.138 22.8032 250.776C22.8032 253.414 112.18 255.553 222.431 255.553Z" fill="#EFEFEF"/>
<path d="M307.495 15.9962H307.5V15.4962C307.5 11.0438 303.981 7.5 299.544 7.5H14.4555C10.0238 7.5 6.5 11.0436 6.5 15.4962V188V188.5H7H306.995H307.495V188V15.9962Z" fill="#AAAAAA" stroke="#333333"/>
<path d="M13.5 181.5V14.5H300.5V181.5H13.5Z" fill="white" stroke="#333333"/>
<path d="M194 248.5H194.561L194.497 247.943L190.831 215.943L190.78 215.5H190.334H122.4H121.964L121.905 215.932L117.505 247.932L117.427 248.5H118H194Z" fill="#CCCCCC" stroke="#333333"/>
<path d="M6.5 208.442V188.5H307.5V208.442C307.5 212.382 304.396 215.5 300.495 215.5H13.5054C9.59909 215.5 6.5 212.383 6.5 208.442Z" fill="#E2E2E2" stroke="#333333"/>
<path d="M107.333 251.5L117.106 248.5H194.894L204.667 251.5H107.333Z" fill="#E2E2E2" stroke="#333333"/>
<path d="M207.281 252.5L206.909 253.5H104.986L104.677 252.5H207.281Z" fill="#AAAAAA" stroke="#333333"/>
<path d="M162.5 201.497C162.5 204.26 160.259 206.5 157.5 206.5C154.741 206.5 152.5 204.26 152.5 201.497C152.5 198.74 154.74 196.5 157.5 196.5C160.26 196.5 162.5 198.735 162.5 201.497Z" fill="#AAAAAA" stroke="#333333"/>
<path fill-rule="evenodd" clip-rule="evenodd" d="M338.881 61.0329C339.415 61.0329 339.852 60.5002 339.852 59.8505C339.852 59.2008 339.415 58.6682 338.881 58.6682C338.348 58.6682 337.911 59.2008 337.911 59.8505C337.916 60.5061 338.348 61.0329 338.881 61.0329Z" fill="#FEFEFE"/>
<path fill-rule="evenodd" clip-rule="evenodd" d="M14 181H300V15H14V181Z" fill="white"/>
<path fill-rule="evenodd" clip-rule="evenodd" d="M213 120C213 121.105 212.105 122 211 122H102C100.895 122 100 121.105 100 120C100 118.895 100.895 118 102 118H211C212.105 118 213 118.895 213 120Z" fill="#CCCCCC"/>
<path fill-rule="evenodd" clip-rule="evenodd" d="M182 130C182 130.552 181.552 131 181 131H133C132.448 131 132 130.552 132 130C132 129.448 132.448 129 133 129H181C181.552 129 182 129.448 182 130Z" fill="#E2E2E2"/>
<path fill-rule="evenodd" clip-rule="evenodd" d="M212 139C212 139.552 211.552 140 211 140H103C102.448 140 102 139.552 102 139C102 138.448 102.448 138 103 138H211C211.552 138 212 138.448 212 139Z" fill="#E2E2E2"/>
<path fill-rule="evenodd" clip-rule="evenodd" d="M200 149C200 149.552 199.552 150 199 150H114C113.448 150 113 149.552 113 149C113 148.448 113.448 148 114 148H199C199.552 148 200 148.448 200 149Z" fill="#E2E2E2"/>
<path fill-rule="evenodd" clip-rule="evenodd" d="M208 159C208 159.552 207.552 160 207 160H106C105.448 160 105 159.552 105 159C105 158.448 105.448 158 106 158H207C207.552 158 208 158.448 208 159Z" fill="#E2E2E2"/>
<path d="M164 61.9692H150C142.544 61.9692 136.5 68.0134 136.5 75.4692V89.4692C136.5 96.9251 142.544 102.969 150 102.969H164C171.456 102.969 177.5 96.9251 177.5 89.4692V75.4692C177.5 68.0134 171.456 61.9692 164 61.9692Z" fill="white" stroke="#CCCCCC"/>
<path fill-rule="evenodd" clip-rule="evenodd" d="M158.551 82.1698L169.556 77.4915C170.471 77.0918 170.516 76.3917 169.623 75.9638L158.8 70.8069C158.266 70.549 157.498 70.4208 156.769 70.4457C156.287 70.4649 155.824 70.5514 155.458 70.7084L154.48 71.126L144.453 75.3867C143.537 75.7864 143.493 76.4865 144.381 76.915L149.237 79.2292L150.513 79.8377L155.204 82.0719C155.965 82.5225 157.498 82.5882 158.551 82.1698Z" fill="#5DC0E8"/>
<path fill-rule="evenodd" clip-rule="evenodd" d="M162.644 81.5646L160.731 82.366L158.561 83.2723C157.646 83.6719 156.113 83.6062 155.219 83.1738L149.999 80.6438L148.726 80.0256L148.097 79.7201L144.295 81.3427C143.38 81.7423 143.336 82.4425 144.224 82.871L146.233 83.8267L147.514 84.4346L155.051 88.0227C155.385 88.1821 155.788 88.2995 156.229 88.3512C156.869 88.4315 157.577 88.3909 158.24 88.1933C158.338 88.1659 158.432 88.1345 158.525 88.0985L158.798 87.9821L160.155 87.4056L169.531 83.4202C170.446 83.0205 170.49 82.3204 169.602 81.8919L165.901 80.1841L162.644 81.5646Z" fill="#95C038"/>
<path fill-rule="evenodd" clip-rule="evenodd" d="M165.478 86.1952L160.256 88.4075L158.908 88.9781L158.268 89.247C157.934 89.395 157.517 89.4799 157.077 89.5026C156.481 89.5374 155.846 89.4656 155.325 89.3037C155.184 89.2578 155.051 89.206 154.927 89.1485L147.956 85.8185L145.908 86.6941L144.155 87.4456C144.089 87.4733 144.028 87.5049 143.967 87.5365C143.937 87.5546 143.907 87.5727 143.877 87.5908C143.238 87.9993 143.296 88.5924 144.084 88.9739L144.169 89.0136L151.627 92.566L153.048 93.2433L154.912 94.1302C155.805 94.5627 157.201 94.6471 158.116 94.2474L159.495 93.6633L160.835 93.094L165.738 91.0089L169.126 89.5685C169.536 89.3915 169.768 89.1501 169.824 88.905C169.893 88.5974 169.687 88.2762 169.193 88.0408L165.478 86.1952Z" fill="#FF6F3D"/>
<line x1="14" y1="43.925" x2="300.014" y2="43.925" stroke="#E2E2E2"/>
<g clip-path="url(#clip1_6502_202490)">
<path d="M39.2732 27.4429L35.4452 29.8857L39.2732 32.3286L35.4452 34.7715L31.6172 32.3154L35.4452 29.8725L31.6172 27.4429L35.4452 25L39.2732 27.4429ZM35.4254 35.5571L39.2534 33.1143L43.0814 35.5571L39.2534 38L35.4254 35.5571ZM39.2732 32.3154L43.1012 29.8725L39.2732 27.4429L43.0814 25L46.9094 27.4429L43.0814 29.8857L46.9094 32.3286L43.0814 34.7715L39.2732 32.3154Z" fill="#0061FF"/>
<path d="M49.9126 27.4428H53.008C54.9814 27.4428 56.6116 28.585 56.6116 31.1929V31.7409C56.6116 34.3687 55.087 35.5505 53.0674 35.5505H49.9126V27.4428ZM51.6418 28.9151V34.0716H52.9684C54.0904 34.0716 54.8428 33.3387 54.8428 31.7079V31.2788C54.8428 29.648 54.0508 28.9151 52.909 28.9151H51.6418ZM57.529 28.9944H58.915L59.1394 30.5195C59.4034 29.4829 60.0766 28.9283 61.2976 28.9283H61.7266V30.678H61.0138C59.608 30.678 59.2648 31.1665 59.2648 32.553V35.5703H57.5554V28.9944H57.529ZM62.0698 32.4144V32.2295C62.0698 30.0309 63.4756 28.8293 65.3896 28.8293C67.3036 28.8293 68.7094 30.0309 68.7094 32.2295V32.4144C68.7094 34.5733 67.3828 35.7353 65.3896 35.7353C63.271 35.7155 62.0698 34.5799 62.0698 32.4144ZM66.9604 32.3946V32.2295C66.9604 31.0081 66.3466 30.2752 65.3698 30.2752C64.393 30.2752 63.7792 30.9486 63.7792 32.2295V32.3946C63.7792 33.5764 64.393 34.2498 65.3698 34.2498C66.3466 34.23 66.9604 33.5764 66.9604 32.3946ZM69.607 28.9944H71.0326L71.1976 30.2356C71.5408 29.4037 72.2734 28.8293 73.3558 28.8293C75.0256 28.8293 76.1278 30.0309 76.1278 32.2559V32.4408C76.1278 34.5997 74.9068 35.7419 73.3558 35.7419C72.3196 35.7419 71.6068 35.2732 71.257 34.5205V37.8415H69.5872L69.607 28.9944ZM74.392 32.3946V32.2493C74.392 30.942 73.7188 30.295 72.8212 30.295C71.8642 30.295 71.2306 31.0279 71.2306 32.2493V32.3748C71.2306 33.5368 71.8444 34.2696 72.8014 34.2696C73.7848 34.2498 74.392 33.6226 74.392 32.3946ZM78.6556 34.3555L78.5104 35.5571H77.0452V26.7958H78.715V30.1564C79.0846 29.2981 79.8172 28.8293 80.8534 28.8293C82.4242 28.8491 83.5858 29.9319 83.5858 32.1107V32.3153C83.5858 34.4941 82.4836 35.7419 80.8138 35.7419C79.7116 35.7155 78.9988 35.2072 78.6556 34.3555ZM81.8302 32.3153V32.1503C81.8302 30.9486 81.1768 30.2752 80.2594 30.2752C79.342 30.2752 78.6688 31.0279 78.6688 32.1701V32.3153C78.6688 33.5368 79.3024 34.2498 80.2396 34.2498C81.2428 34.2498 81.8302 33.6226 81.8302 32.3153ZM84.3184 32.4144V32.2295C84.3184 30.0309 85.7242 28.8293 87.6382 28.8293C89.5522 28.8293 90.958 30.0309 90.958 32.2295V32.4144C90.958 34.5733 89.6116 35.7353 87.6382 35.7353C85.5196 35.7155 84.3184 34.5799 84.3184 32.4144ZM89.2222 32.3946V32.2295C89.2222 31.0081 88.6084 30.2752 87.6316 30.2752C86.6548 30.2752 86.041 30.9486 86.041 32.2295V32.3946C86.041 33.5764 86.6548 34.2498 87.6316 34.2498C88.615 34.23 89.2222 33.5764 89.2222 32.3946ZM93.1954 32.1503L90.892 28.9944H92.8654L94.192 30.9685L95.5384 28.9944H97.492L95.1556 32.1305L97.6174 35.5571H95.6836L94.1788 33.3783L92.7136 35.5571H90.694L93.1954 32.1503Z" fill="black"/>
</g>
<rect x="227.5" y="36.5" width="142" height="134" rx="7.5" fill="white"/>
<rect x="227.5" y="36.5" width="142" height="134" rx="7.5" stroke="#AAAAAA"/>
<g clip-path="url(#clip2_6502_202490)">
<circle cx="298" cy="88" r="35" fill="#9ADAF3"/>
<path d="M308.018 75.8903L311.5 78.333L296.402 100.11H292.92L284.5 88.3118L287.982 85.0635L294.661 91.3003L308.018 75.8903Z" fill="white"/>
</g>
<path fill-rule="evenodd" clip-rule="evenodd" d="M294 135C294 135.552 293.552 136 293 136H245C244.448 136 244 135.552 244 135C244 134.448 244.448 134 245 134H293C293.552 134 294 134.448 294 135Z" fill="#E2E2E2"/>
<path fill-rule="evenodd" clip-rule="evenodd" d="M294 145C294 145.552 293.552 146 293 146H245C244.448 146 244 145.552 244 145C244 144.448 244.448 144 245 144H293C293.552 144 294 144.448 294 145Z" fill="#E2E2E2"/>
<path fill-rule="evenodd" clip-rule="evenodd" d="M294 155C294 155.552 293.552 156 293 156H245C244.448 156 244 155.552 244 155C244 154.448 244.448 154 245 154H293C293.552 154 294 154.448 294 155Z" fill="#E2E2E2"/>
<path fill-rule="evenodd" clip-rule="evenodd" d="M353 135C353 135.552 352.552 136 352 136H304C303.448 136 303 135.552 303 135C303 134.448 303.448 134 304 134H352C352.552 134 353 134.448 353 135Z" fill="#E2E2E2"/>
<path fill-rule="evenodd" clip-rule="evenodd" d="M353 145C353 145.552 352.552 146 352 146H304C303.448 146 303 145.552 303 145C303 144.448 303.448 144 304 144H352C352.552 144 353 144.448 353 145Z" fill="#E2E2E2"/>
<path fill-rule="evenodd" clip-rule="evenodd" d="M353 155C353 155.552 352.552 156 352 156H304C303.448 156 303 155.552 303 155C303 154.448 303.448 154 304 154H352C352.552 154 353 154.448 353 155Z" fill="#E2E2E2"/>
</g>
<defs>
<clipPath id="clip0_6502_202490">
<rect width="448" height="254" fill="white"/>
</clipPath>
<clipPath id="clip1_6502_202490">
<rect width="66" height="13" fill="white" transform="translate(31.6172 25)"/>
</clipPath>
<clipPath id="clip2_6502_202490">
<rect width="70" height="70" fill="white" transform="translate(263 53)"/>
</clipPath>
</defs>
</svg>
