<svg width="448" height="254" viewBox="0 0 448 254" fill="none" xmlns="http://www.w3.org/2000/svg">
<g clip-path="url(#clip0_6472_194441)">
<path d="M258.935 252.557C374.95 252.557 469 250.418 469 247.779C469 245.14 374.95 243 258.935 243C142.919 243 48.8691 245.14 48.8691 247.779C48.8691 250.418 142.919 252.557 258.935 252.557Z" fill="#EFEFEF"/>
<path opacity="0.2392" fill-rule="evenodd" clip-rule="evenodd" d="M425.141 162.093C424.053 160.379 423.813 158.299 423.569 156.224C423.329 154.025 423.329 151.7 423.809 149.621C424.412 147.416 425.62 145.461 427.556 144.606C428.524 144.117 429.732 144.117 430.7 143.507C431.788 142.897 432.511 141.547 433.479 140.447C435.291 138.248 437.831 136.778 440.37 135.798C442.91 134.943 445.69 134.574 448.469 134.208C445.086 136.533 441.578 139.103 439.647 142.892C438.679 144.847 438.075 147.051 437.351 149.131C436.383 151.82 435.295 154.39 433.848 156.714C432.88 158.304 431.792 159.894 430.345 160.993C428.893 162.093 426.962 162.708 425.39 162.093H425.141Z" fill="#D3D3D3"/>
<path opacity="0.2392" fill-rule="evenodd" clip-rule="evenodd" d="M425.221 161.363C424.502 160.182 424.143 158.88 423.903 157.579C423.664 156.042 423.544 154.62 423.544 153.083C423.544 150.365 424.143 147.286 426.299 145.634C427.258 144.808 428.576 144.688 429.654 144.217C430.852 143.862 431.571 143.036 432.409 142.09C433.248 141.028 434.087 139.962 435.045 139.131C436.123 138.305 437.202 137.594 438.4 137.119C441.395 135.817 444.629 135.342 447.864 134.991C447.864 134.756 447.744 134.521 447.625 134.28C444.03 136.763 440.197 139.482 438.28 143.742C437.202 146.105 436.603 148.708 435.524 151.076C434.566 153.439 433.368 155.806 431.81 157.819C430.373 160.182 427.857 162.074 425.221 161.363C424.742 161.128 424.502 161.839 424.981 161.954C429.893 163.376 433.248 157.934 435.285 153.914C436.483 151.551 437.321 149.063 438.16 146.58C438.999 144.097 440.077 141.85 441.874 139.957C443.671 137.945 445.947 136.408 448.104 134.871C448.343 134.636 448.343 134.16 447.864 134.16C442.353 134.871 436.243 135.817 432.409 140.663C431.571 141.845 430.732 142.911 429.294 143.382C427.977 143.852 426.779 143.972 425.7 144.919C423.783 146.576 422.945 149.294 422.705 151.897C422.585 153.669 422.705 155.446 422.945 157.103C423.184 158.64 423.544 160.297 424.382 161.599C424.862 162.189 425.461 161.834 425.221 161.363Z" fill="#D3D3D3"/>
<path opacity="0.2392" fill-rule="evenodd" clip-rule="evenodd" d="M416.803 127.965C416.079 110.228 414.143 92.6118 411.124 75.245C414.871 76.2248 417.891 79.4042 419.587 83.1984C421.279 86.9926 421.643 91.3919 421.518 95.5511C421.518 97.1408 421.279 98.7305 421.882 100.2C422.486 101.425 423.454 102.4 424.178 103.625C425.505 105.829 425.75 108.884 425.021 111.453C424.417 114.023 423.085 116.467 421.758 118.792C420.066 121.851 418.739 125.03 416.923 128.09L416.803 127.965Z" fill="#D3D3D3"/>
<path opacity="0.2392" fill-rule="evenodd" clip-rule="evenodd" d="M417.162 127.965C416.558 114.143 415.226 100.32 413.295 86.7428C412.691 82.8285 412.087 79.0343 411.483 75.2449C411.363 75.365 411.244 75.61 411.119 75.7348C414.263 76.5897 416.918 78.9143 418.614 81.9736C420.545 85.398 421.274 89.6821 421.393 93.7164C421.393 95.6759 421.029 97.7555 421.513 99.5902C421.997 101.425 423.325 102.525 424.293 103.994C426.349 107.544 425.141 111.948 423.444 115.372C422.476 117.452 421.269 119.411 420.181 121.486C419.093 123.69 418.125 125.77 416.918 127.97C416.678 128.34 417.282 128.825 417.521 128.34C418.609 126.38 419.577 124.425 420.545 122.466C421.513 120.511 422.601 118.672 423.564 116.717C425.376 113.292 426.828 109.258 425.5 105.339C425.256 104.484 424.896 103.749 424.293 103.015C423.689 102.28 423.085 101.545 422.601 100.69C421.513 98.8553 421.997 96.4107 421.997 94.2062C421.997 90.0471 421.393 85.8879 419.582 82.2186C417.771 78.7942 414.871 75.9798 411.363 75C411.124 75 410.879 75.2449 410.999 75.4899C413.419 88.9472 415.111 102.645 416.074 116.347C416.314 120.261 416.558 124.176 416.678 127.97C416.438 128.455 417.162 128.455 417.162 127.965Z" fill="#D3D3D3"/>
<path opacity="0.2392" fill-rule="evenodd" clip-rule="evenodd" d="M409.55 130.289C405.683 123.931 401.087 118.422 395.893 113.163C392.39 109.614 389.001 106.069 385.498 102.52C382.959 99.9504 380.543 97.3809 378.003 94.8114C383.203 95.5462 388.278 97.0111 393.233 99.0907C395.044 99.8255 396.98 100.805 397.949 102.64C398.433 103.62 398.792 104.844 399.401 105.699C400.608 107.169 402.664 107.169 404.356 107.779C406.896 108.759 408.707 111.573 409.555 114.508C410.403 117.442 410.279 120.501 410.159 123.561C410.039 125.765 410.039 127.965 409.919 130.289H409.55Z" fill="#D3D3D3"/>
<path opacity="0.2392" fill-rule="evenodd" clip-rule="evenodd" d="M409.792 130.169C406.649 125.155 403.026 120.506 399.158 116.222C394.927 111.573 390.336 107.169 385.865 102.645C383.325 100.075 380.79 97.3857 378.25 94.8162C378.13 95.0611 378.006 95.3061 378.006 95.4261C381.753 96.0361 385.501 96.8958 389.124 98.1157C390.815 98.7256 392.507 99.3404 394.199 100.075C395.526 100.685 396.978 101.665 397.702 103.135C398.425 104.604 398.67 106.069 400.117 106.929C401.325 107.664 402.896 107.784 404.224 108.274C407.123 109.498 408.815 112.923 409.423 116.102C409.788 118.427 409.788 120.871 409.668 123.196C409.548 125.64 409.548 127.965 409.423 130.289C409.423 130.779 410.147 130.779 410.147 130.289C410.267 128.09 410.267 125.885 410.391 123.561C410.391 121.361 410.511 119.281 410.272 117.202C409.907 113.777 408.7 110.473 406.165 108.394C404.837 107.414 403.385 107.169 401.933 106.679C401.21 106.434 400.361 106.189 399.757 105.579C399.154 104.969 398.909 103.989 398.55 103.135C397.222 99.8303 393.595 98.7304 390.695 97.6306C386.589 96.0409 382.237 95.0611 378.006 94.4512C377.642 94.4512 377.522 94.9411 377.766 95.0611C382.237 99.7102 386.708 104.234 391.179 108.763C395.411 113.047 399.638 117.327 403.385 122.096C405.441 124.665 407.372 127.48 409.064 130.289C409.548 130.904 410.157 130.534 409.792 130.169Z" fill="#D3D3D3"/>
<path opacity="0.2392" fill-rule="evenodd" clip-rule="evenodd" d="M369.666 133.229C370.993 134.084 372.685 133.963 374.137 133.474C375.589 132.864 376.917 132.004 378.369 131.269C379.696 130.534 381.392 130.044 382.84 130.414C384.292 130.779 385.38 132.004 386.827 132.494C389.726 133.719 392.99 132.369 396.013 133.229C399.037 134.208 401.213 137.268 402.056 140.567C402.905 143.872 403.024 147.296 402.905 150.84C402.54 149.496 401.213 148.516 400.005 148.271C398.917 148.026 397.83 148.516 396.862 148.761C393.598 149.496 390.09 148.396 387.555 145.946C386.103 144.602 385.015 142.767 383.568 141.297C379.576 137.508 373.773 136.898 369.666 133.229Z" fill="#D3D3D3"/>
<path opacity="0.2392" fill-rule="evenodd" clip-rule="evenodd" d="M369.546 133.594C372.206 135.308 375.225 133.594 377.645 132.124C379.097 131.269 380.664 130.534 382.36 130.779C383.932 131.024 385.14 132.124 386.467 132.859C389.367 134.204 392.391 132.979 395.41 133.594C398.069 134.204 400.125 136.408 401.213 139.098C402.785 142.767 402.785 147.046 402.54 150.965C402.785 150.965 403.024 150.965 403.264 150.84C402.9 149.616 402.056 148.886 401.088 148.396C399.881 147.786 398.668 148.031 397.341 148.396C394.681 149.006 392.022 148.761 389.606 147.296C387.191 145.826 385.739 143.137 383.683 141.177C381.872 139.343 379.696 138.363 377.52 137.263C374.981 136.038 372.201 134.938 370.025 132.979C369.666 132.614 369.182 133.104 369.546 133.594C373.294 136.898 378.249 137.633 382.236 140.812C384.412 142.527 385.739 145.096 387.795 146.926C389.726 148.516 392.146 149.371 394.561 149.496C395.165 149.496 395.889 149.496 396.493 149.371C397.341 149.251 398.184 148.881 399.032 148.761C400.484 148.641 402.176 149.496 402.536 151.085C402.655 151.45 403.139 151.45 403.259 150.965C403.623 144.971 403.139 136.528 397.58 133.474C394.801 131.884 391.657 132.984 388.758 132.619C387.186 132.374 385.859 131.394 384.527 130.659C383.199 129.924 381.747 129.804 380.175 130.169C377.032 131.149 373.409 135.063 370.021 132.859C369.546 132.739 369.182 133.349 369.546 133.594Z" fill="#D3D3D3"/>
<path opacity="0.2392" fill-rule="evenodd" clip-rule="evenodd" d="M398.31 145.461C403.265 151.945 407.377 159.164 410.516 166.867C413.659 174.576 415.835 182.769 416.798 191.088C417.402 195.857 417.646 200.631 417.646 205.4C417.646 206.38 418.974 206.38 418.974 205.4C419.213 196.837 418.126 188.153 416.074 179.71C414.019 171.391 410.875 163.438 406.888 156.099C404.592 151.94 402.053 148.026 399.153 144.357C398.794 143.627 397.706 144.727 398.31 145.461Z" fill="#D3D3D3"/>
<path opacity="0.2392" fill-rule="evenodd" clip-rule="evenodd" d="M406.647 122.951C409.666 133.104 412.689 143.257 415.105 153.655C417.52 163.928 419.336 174.451 419.94 184.969C420.304 190.963 420.304 196.957 419.7 202.826C419.581 203.805 421.028 203.805 421.028 202.826C421.876 192.183 421.267 181.54 419.7 171.022C418.129 160.504 415.589 150.106 412.809 139.828C411.237 133.954 409.546 128.33 407.854 122.581C407.734 121.606 406.407 122.096 406.647 122.951Z" fill="#D3D3D3"/>
<path opacity="0.2392" fill-rule="evenodd" clip-rule="evenodd" d="M416.437 120.261C416.317 131.149 417.285 142.037 418.248 152.92C419.216 163.808 420.184 174.691 420.304 185.579C420.304 191.693 420.065 197.811 419.216 203.925C419.216 204.29 419.336 204.78 419.7 204.905C420.065 205.025 420.544 204.785 420.544 204.415C421.871 193.527 421.871 182.64 421.148 171.756C420.424 160.749 419.212 149.981 418.488 138.973C418.124 132.859 417.764 126.62 417.884 120.381C417.769 119.281 416.437 119.281 416.437 120.261Z" fill="#D3D3D3"/>
<path opacity="0.2392" fill-rule="evenodd" clip-rule="evenodd" d="M421.757 207.355C421.877 192.922 421.996 178.365 425.744 164.418C426.712 160.624 427.92 156.954 429.491 153.41C429.856 152.555 428.643 151.695 428.284 152.675C422.605 165.643 421.033 180.32 420.549 194.507C420.429 198.791 420.31 203.071 420.31 207.35C420.425 208.334 421.757 208.334 421.757 207.355Z" fill="#D3D3D3"/>
<path fill-rule="evenodd" clip-rule="evenodd" d="M428.04 159.039C428.404 157.939 429.128 157.079 429.852 156.224C430.695 155.49 431.543 154.88 432.511 154.51C431.663 155.245 430.939 155.979 430.216 156.714C429.492 157.449 428.888 158.304 428.04 159.039Z" fill="#D3D3D3"/>
<path fill-rule="evenodd" clip-rule="evenodd" d="M429.855 153.775C430.339 152.305 431.182 151.085 432.27 150.106C433.238 149.126 434.446 148.271 435.773 147.906C434.685 148.761 433.598 149.62 432.63 150.595C431.666 151.575 430.698 152.675 429.855 153.775Z" fill="#D3D3D3"/>
<path fill-rule="evenodd" clip-rule="evenodd" d="M432.994 147.661C433.358 146.681 434.082 145.826 434.806 145.216C435.529 144.606 436.377 144.117 437.345 143.872C436.622 144.482 435.893 145.096 435.17 145.706C434.446 146.316 433.842 147.051 432.994 147.661Z" fill="#D3D3D3"/>
<path fill-rule="evenodd" clip-rule="evenodd" d="M425.38 148.886C426.348 150.355 426.828 151.945 427.192 153.78C427.431 155.494 427.556 157.329 427.192 159.039C427.072 157.324 426.952 155.614 426.708 153.9C426.229 152.065 425.864 150.475 425.38 148.886Z" fill="#D3D3D3"/>
<path fill-rule="evenodd" clip-rule="evenodd" d="M427.921 146.316C428.645 147.171 429.129 148.276 429.373 149.376C429.613 150.475 429.613 151.7 429.373 152.8C429.133 151.7 429.009 150.6 428.769 149.496C428.525 148.516 428.161 147.416 427.921 146.316Z" fill="#D3D3D3"/>
<path fill-rule="evenodd" clip-rule="evenodd" d="M432.391 143.502C432.755 144.112 432.875 144.971 432.875 145.701C432.875 146.436 432.63 147.291 432.271 147.906C432.271 147.051 432.271 146.436 432.271 145.701C432.391 144.971 432.391 144.237 432.391 143.502Z" fill="#D3D3D3"/>
<path fill-rule="evenodd" clip-rule="evenodd" d="M417.162 123.441C418.614 120.626 419.942 117.937 421.149 115.122C422.357 112.308 423.325 109.253 424.168 106.194C423.804 109.373 422.841 112.433 421.628 115.367C420.55 118.302 418.978 120.996 417.162 123.441Z" fill="#D3D3D3"/>
<path fill-rule="evenodd" clip-rule="evenodd" d="M416.921 118.672C418.129 116.227 419.337 113.777 420.305 111.208C421.273 108.639 422.116 106.069 422.964 103.38C422.6 106.194 421.876 108.883 420.908 111.453C419.821 114.022 418.613 116.467 416.921 118.672Z" fill="#D3D3D3"/>
<path fill-rule="evenodd" clip-rule="evenodd" d="M416.802 114.143C417.65 111.938 418.374 109.858 419.217 107.659C420.065 105.454 420.669 103.375 421.393 101.175C421.153 103.5 420.425 105.824 419.701 107.904C418.977 110.108 418.009 112.188 416.802 114.143Z" fill="#D3D3D3"/>
<path fill-rule="evenodd" clip-rule="evenodd" d="M416.074 107.664C417.042 105.459 417.885 103.38 418.614 101.305C419.457 99.1051 420.185 97.0255 420.789 94.7009C420.545 97.0255 419.941 99.35 419.098 101.55C418.374 103.745 417.286 105.824 416.074 107.664Z" fill="#D3D3D3"/>
<path fill-rule="evenodd" clip-rule="evenodd" d="M415.715 101.425C416.683 98.7353 417.407 95.9208 418.011 93.1064C418.615 90.292 418.979 87.4776 419.218 84.5431C419.458 87.4776 419.099 90.4121 418.495 93.2265C418.011 96.161 417.043 98.9754 415.715 101.425Z" fill="#D3D3D3"/>
<path fill-rule="evenodd" clip-rule="evenodd" d="M414.985 96.7758C415.349 93.9614 415.953 91.2718 416.312 88.4574C416.677 85.643 416.796 82.8285 416.552 80.0189C416.916 81.3637 417.156 82.8333 417.156 84.2982C417.156 85.7678 417.156 87.1126 416.911 88.5775C416.677 91.2718 415.953 94.0814 414.985 96.7758Z" fill="#D3D3D3"/>
<path fill-rule="evenodd" clip-rule="evenodd" d="M384.412 97.2656C386.224 98.8553 387.676 100.69 389.003 102.525C390.33 104.484 391.543 106.564 392.506 108.763C391.179 106.804 389.846 104.724 388.519 102.89C387.192 100.935 385.74 99.1003 384.412 97.2656Z" fill="#D3D3D3"/>
<path fill-rule="evenodd" clip-rule="evenodd" d="M389.607 98.2406C391.539 100.2 393.11 102.52 394.323 104.969C395.531 107.414 396.499 110.228 396.863 113.043C396.015 110.353 395.051 107.784 393.844 105.334C392.507 102.77 391.179 100.445 389.607 98.2406Z" fill="#D3D3D3"/>
<path fill-rule="evenodd" clip-rule="evenodd" d="M394.805 100.81C396.257 103.255 397.345 105.704 398.308 108.394C399.276 111.083 400.12 113.778 400.484 116.587C399.516 113.898 398.672 111.328 397.704 108.634C396.856 106.069 395.893 103.38 394.805 100.81Z" fill="#D3D3D3"/>
<path fill-rule="evenodd" clip-rule="evenodd" d="M400.97 107.904C401.938 109.738 402.781 111.818 403.145 113.898C403.629 116.102 403.869 118.182 403.749 120.381C403.385 118.182 403.145 116.102 402.661 114.022C402.177 111.943 401.574 109.863 400.97 107.904Z" fill="#D3D3D3"/>
<path fill-rule="evenodd" clip-rule="evenodd" d="M403.988 108.394C404.956 110.598 405.679 112.918 406.044 115.367C406.408 117.817 406.528 120.261 406.163 122.706C406.044 120.261 405.799 117.812 405.44 115.487C405.076 113.168 404.472 110.843 403.988 108.394Z" fill="#D3D3D3"/>
<path fill-rule="evenodd" clip-rule="evenodd" d="M406.891 111.698C407.739 113.777 408.219 115.977 408.463 118.182C408.703 120.381 408.703 122.706 408.343 124.91C408.223 122.711 408.099 120.506 407.979 118.306C407.615 115.977 407.251 113.898 406.891 111.698Z" fill="#D3D3D3"/>
<path fill-rule="evenodd" clip-rule="evenodd" d="M382.719 131.759C384.291 132.369 385.619 133.349 386.951 134.449C388.278 135.548 389.366 136.898 390.334 138.488C389.126 137.263 387.919 136.043 386.706 134.938C385.499 133.839 384.166 132.739 382.719 131.759Z" fill="#D3D3D3"/>
<path fill-rule="evenodd" clip-rule="evenodd" d="M389.607 133.839C390.695 134.573 391.663 135.673 392.387 136.773C393.235 137.873 393.714 139.218 394.198 140.567C393.475 139.343 392.871 138.243 392.023 137.143C391.179 135.918 390.456 134.818 389.607 133.839Z" fill="#D3D3D3"/>
<path fill-rule="evenodd" clip-rule="evenodd" d="M392.99 133.349C394.198 134.329 395.166 135.793 396.009 137.263C396.733 138.853 397.217 140.442 397.217 142.157C396.853 140.567 396.249 138.978 395.645 137.508C394.926 136.038 393.958 134.694 392.99 133.349Z" fill="#D3D3D3"/>
<path fill-rule="evenodd" clip-rule="evenodd" d="M397.46 135.183C398.668 136.653 399.396 138.363 400 140.198C400.604 142.032 400.848 143.992 400.848 145.946C400.608 144.112 400.244 142.157 399.64 140.443C399.032 138.608 398.308 136.898 397.46 135.183Z" fill="#D3D3D3"/>
<path fill-rule="evenodd" clip-rule="evenodd" d="M382.595 139.953C383.443 139.463 384.406 139.098 385.254 138.973C386.222 138.848 387.19 138.848 388.034 139.093C387.066 139.213 386.222 139.338 385.254 139.458C384.411 139.588 383.563 139.712 382.595 139.953Z" fill="#D3D3D3"/>
<path fill-rule="evenodd" clip-rule="evenodd" d="M396.617 149.251C397.585 149.006 398.553 148.641 399.516 148.761C397.221 146.806 396.253 143.132 393.593 141.787C392.625 141.297 391.417 141.177 390.21 141.177C389.122 141.177 388.034 141.542 386.826 141.667C385.619 141.787 384.411 141.912 383.323 141.912C384.651 143.382 385.863 145.091 387.31 146.561C389.726 148.886 393.353 149.986 396.617 149.251Z" fill="#D3D3D3"/>
<path fill-rule="evenodd" clip-rule="evenodd" d="M448.225 134.329C446.05 135.063 443.874 136.288 441.818 137.508C439.887 138.733 437.831 139.833 436.14 141.547C434.688 143.017 433.6 144.851 432.636 146.686C429.857 151.335 426.958 156.229 425.87 161.733L425.266 160.878C425.266 161.368 425.386 161.858 425.506 162.223C427.078 162.588 428.889 162.098 430.221 160.998C431.673 159.898 432.761 158.309 433.724 156.719C435.052 154.394 436.264 151.825 437.227 149.135C437.951 147.056 438.435 144.856 439.523 142.897C441.579 139.098 444.962 136.653 448.225 134.329Z" fill="#D3D3D3"/>
<path d="M436.498 236.305H436.498L436.498 236.314C436.615 243.096 431.664 248.5 425.495 248.5H413.503C407.464 248.5 402.5 243.099 402.5 236.305V208.695C402.5 201.896 407.459 196.5 413.503 196.5H425.495C431.534 196.5 436.498 201.901 436.498 208.695V236.305Z" fill="#F5F5F5" stroke="#CCCCCC"/>
<path fill-rule="evenodd" clip-rule="evenodd" d="M370.812 132.657C372.02 133.022 372.988 133.637 374.076 134.492C375.163 135.347 376.012 136.082 376.855 137.181C375.887 136.447 374.919 135.712 373.831 134.982C372.868 134.007 371.78 133.392 370.812 132.657Z" fill="#D3D3D3"/>
<path fill-rule="evenodd" clip-rule="evenodd" d="M369 137.551C369.968 136.941 371.056 136.696 372.144 136.696C373.232 136.696 374.319 136.941 375.287 137.431C374.2 137.306 373.112 137.186 372.144 137.186C371.176 137.186 370.088 137.306 369 137.551Z" fill="#D3D3D3"/>
<path fill-rule="evenodd" clip-rule="evenodd" d="M436.621 141.912C437.225 140.812 438.073 139.833 439.036 139.098C440.004 138.363 441.092 137.873 442.18 137.628C441.212 138.238 440.249 138.973 439.281 139.708C438.313 140.322 437.464 141.177 436.621 141.912Z" fill="#D3D3D3"/>
<path fill-rule="evenodd" clip-rule="evenodd" d="M435.171 141.057C435.411 141.667 435.535 142.282 435.411 142.892C435.291 143.502 435.047 144.117 434.562 144.482C434.562 143.872 434.682 143.257 434.802 142.767C434.931 142.157 435.051 141.667 435.171 141.057Z" fill="#D3D3D3"/>
<path d="M301.416 8.99621H301.42V8.49621C301.42 4.04379 297.902 0.5 293.465 0.5H8.37595C3.9442 0.5 0.42041 4.04358 0.42041 8.49621V181V181.5H0.92041H300.916H301.416V181V8.99621Z" fill="#AAAAAA" stroke="#333333"/>
<path d="M7.5 174.5V7.5H294.5V174.5H7.5Z" fill="white" stroke="#333333"/>
<path d="M188 241.5H188.561L188.497 240.943L184.831 208.943L184.78 208.5H184.334H116.4H115.964L115.905 208.932L111.505 240.932L111.427 241.5H112H188Z" fill="#CCCCCC" stroke="#333333"/>
<path d="M0.5 201.442V181.5H301.5V201.442C301.5 205.382 298.396 208.5 294.495 208.5H7.50536C3.59909 208.5 0.5 205.383 0.5 201.442Z" fill="#E2E2E2" stroke="#333333"/>
<path d="M101.333 244.5L111.106 241.5H188.894L198.667 244.5H101.333Z" fill="#E2E2E2" stroke="#333333"/>
<path d="M201.281 245.5L200.909 246.5H98.9858L98.6774 245.5H201.281Z" fill="#AAAAAA" stroke="#333333"/>
<path d="M156.5 194.497C156.5 197.26 154.259 199.5 151.5 199.5C148.741 199.5 146.5 197.26 146.5 194.497C146.5 191.74 148.74 189.5 151.5 189.5C154.26 189.5 156.5 191.735 156.5 194.497Z" fill="#AAAAAA" stroke="#333333"/>
<path d="M226.5 69C226.5 72.0376 224.038 74.5 221 74.5H81C77.9624 74.5 75.5 72.0376 75.5 69V61C75.5 57.9624 77.9624 55.5 81 55.5H221C224.038 55.5 226.5 57.9624 226.5 61L226.5 69Z" fill="white" stroke="#C7D1D9"/>
<path d="M226.5 96C226.5 99.0376 224.038 101.5 221 101.5H81C77.9624 101.5 75.5 99.0376 75.5 96V88C75.5 84.9624 77.9624 82.5 81 82.5H221C224.038 82.5 226.5 84.9624 226.5 88L226.5 96Z" fill="white" stroke="#C7D1D9"/>
<path d="M226.5 123C226.5 126.038 224.038 128.5 221 128.5H81C77.9624 128.5 75.5 126.038 75.5 123V115C75.5 111.962 77.9624 109.5 81 109.5H221C224.038 109.5 226.5 111.962 226.5 115L226.5 123Z" fill="white" stroke="#C7D1D9"/>
<rect x="75.5" y="136.5" width="151" height="19" rx="5.5" fill="url(#paint0_linear_6472_194441)"/>
<rect x="75.5" y="136.5" width="151" height="19" rx="5.5" stroke="#333333"/>
<path d="M120.702 141.72C121.544 141.72 122.238 141.821 122.784 142.024C123.334 142.228 123.742 142.534 124.009 142.945C124.276 143.355 124.409 143.874 124.409 144.5C124.409 144.923 124.329 145.293 124.168 145.611C124.007 145.928 123.795 146.197 123.533 146.417C123.271 146.637 122.987 146.817 122.682 146.957L125.412 151H123.228L121.013 147.439H119.966V151H117.998V141.72H120.702ZM120.562 143.332H119.966V145.839H120.6C121.252 145.839 121.717 145.731 121.997 145.516C122.28 145.296 122.422 144.974 122.422 144.551C122.422 144.111 122.27 143.798 121.965 143.611C121.665 143.425 121.197 143.332 120.562 143.332ZM133.095 151H127.75V141.72H133.095V143.332H129.718V145.37H132.86V146.982H129.718V149.375H133.095V151ZM139.73 145.789H143.412V150.6C142.925 150.761 142.419 150.89 141.894 150.987C141.37 151.08 140.775 151.127 140.111 151.127C139.188 151.127 138.405 150.945 137.762 150.581C137.119 150.217 136.63 149.68 136.296 148.969C135.961 148.258 135.794 147.384 135.794 146.347C135.794 145.374 135.981 144.532 136.353 143.821C136.73 143.11 137.278 142.56 137.997 142.17C138.721 141.781 139.603 141.586 140.644 141.586C141.135 141.586 141.619 141.639 142.098 141.745C142.576 141.851 143.009 141.988 143.399 142.158L142.745 143.732C142.461 143.588 142.138 143.467 141.774 143.37C141.41 143.273 141.029 143.224 140.631 143.224C140.06 143.224 139.563 143.355 139.14 143.618C138.721 143.88 138.395 144.248 138.162 144.722C137.933 145.192 137.819 145.746 137.819 146.385C137.819 146.99 137.902 147.528 138.067 147.998C138.232 148.463 138.492 148.829 138.848 149.096C139.203 149.358 139.666 149.489 140.238 149.489C140.517 149.489 140.752 149.477 140.942 149.451C141.137 149.422 141.319 149.392 141.488 149.362V147.426H139.73V145.789ZM146.797 151V141.72H148.765V151H146.797ZM157.749 148.423C157.749 148.973 157.615 149.451 157.349 149.857C157.082 150.264 156.693 150.577 156.181 150.797C155.673 151.017 155.055 151.127 154.327 151.127C154.006 151.127 153.69 151.106 153.381 151.063C153.077 151.021 152.783 150.96 152.499 150.879C152.22 150.795 151.953 150.691 151.699 150.568V148.74C152.139 148.935 152.596 149.111 153.07 149.267C153.544 149.424 154.014 149.502 154.48 149.502C154.801 149.502 155.059 149.46 155.254 149.375C155.453 149.29 155.597 149.174 155.686 149.026C155.774 148.878 155.819 148.708 155.819 148.518C155.819 148.285 155.741 148.086 155.584 147.921C155.427 147.756 155.212 147.602 154.937 147.458C154.666 147.314 154.359 147.16 154.016 146.995C153.8 146.893 153.565 146.77 153.312 146.626C153.058 146.478 152.816 146.299 152.588 146.087C152.359 145.875 152.171 145.619 152.023 145.319C151.879 145.014 151.807 144.65 151.807 144.227C151.807 143.673 151.934 143.199 152.188 142.805C152.442 142.412 152.804 142.111 153.273 141.904C153.747 141.692 154.306 141.586 154.949 141.586C155.432 141.586 155.891 141.644 156.327 141.758C156.767 141.868 157.226 142.029 157.704 142.24L157.069 143.77C156.642 143.597 156.259 143.463 155.92 143.37C155.582 143.273 155.237 143.224 154.886 143.224C154.64 143.224 154.431 143.264 154.257 143.345C154.084 143.421 153.953 143.531 153.864 143.675C153.775 143.814 153.731 143.977 153.731 144.164C153.731 144.384 153.794 144.57 153.921 144.722C154.052 144.87 154.247 145.014 154.505 145.154C154.767 145.293 155.093 145.456 155.482 145.643C155.956 145.867 156.361 146.102 156.695 146.347C157.033 146.588 157.294 146.874 157.476 147.204C157.658 147.53 157.749 147.936 157.749 148.423ZM164.181 151H162.213V143.357H159.693V141.72H166.701V143.357H164.181V151ZM174.644 151H169.299V141.72H174.644V143.332H171.267V145.37H174.409V146.982H171.267V149.375H174.644V151ZM180.46 141.72C181.302 141.72 181.996 141.821 182.542 142.024C183.092 142.228 183.501 142.534 183.767 142.945C184.034 143.355 184.167 143.874 184.167 144.5C184.167 144.923 184.087 145.293 183.926 145.611C183.765 145.928 183.554 146.197 183.291 146.417C183.029 146.637 182.745 146.817 182.441 146.957L185.17 151H182.987L180.771 147.439H179.724V151H177.756V141.72H180.46ZM180.321 143.332H179.724V145.839H180.359C181.01 145.839 181.476 145.731 181.755 145.516C182.039 145.296 182.18 144.974 182.18 144.551C182.18 144.111 182.028 143.798 181.723 143.611C181.423 143.425 180.955 143.332 180.321 143.332Z" fill="white"/>
<path fill-rule="evenodd" clip-rule="evenodd" d="M355.894 100.78C356.32 102.428 357.03 104.243 357.806 106.217C358.999 109.257 360.341 112.681 361.031 116.48C361.86 121.057 362.584 126.124 363.245 131.556C363.906 136.983 364.501 142.776 365.066 148.817C365.2 150.229 365.181 151.656 365.167 153.102C365.148 154.763 365.133 156.439 365.339 158.111C367.539 170.838 369.341 184.387 370.572 197.767C371.746 210.533 372.398 223.145 372.379 234.734V234.763L372.355 234.777C371.962 235.037 371.478 235.238 370.951 235.387C370.409 235.536 369.82 235.623 369.231 235.642C368.636 235.661 368.052 235.608 367.525 235.479C367.031 235.358 366.59 235.171 366.245 234.907L366.231 234.897L366.226 234.878C366.039 234.033 365.747 232.679 365.363 230.887C363.691 223.102 360.236 207.037 355.88 188.959C353.843 180.496 351.509 171.693 349.281 163.269C346.564 153.01 344 143.313 342.279 135.451L341.129 130.476C341.038 143.779 340.291 157.688 339.802 166.741L339.787 166.991C339.644 169.647 339.524 171.871 339.452 173.576C339.447 173.691 339.452 174.123 339.462 174.839V174.892C339.533 181.419 339.864 211.325 335.958 235.627L335.954 235.651L335.934 235.666C335.494 235.94 335.053 236.122 334.621 236.228C334.142 236.348 333.673 236.377 333.227 236.343C332.705 236.305 332.211 236.175 331.765 236.002C331.229 235.791 330.764 235.512 330.4 235.238L330.38 235.224V235.2C330.342 231.689 330.275 227.405 330.146 222.66C330.016 217.915 329.829 212.699 329.546 207.32C329.259 201.816 328.88 196.134 328.368 190.582C327.86 185.03 327.222 179.613 326.427 174.642C326.417 174.57 326.369 174.363 326.297 174.027C325.569 170.665 322.09 154.557 321.965 134.515C321.927 128.338 322.138 120.832 322.861 113.666C323.427 108.061 324.304 102.663 325.617 98.2684L325.636 98.2059L325.694 98.2396C327.84 99.4354 330.131 100.588 332.465 101.467C334.799 102.346 337.176 102.956 339.485 103.076C342.212 103.215 344.925 103.057 347.532 102.682C350.469 102.264 353.277 101.577 355.822 100.751L355.875 100.732L355.894 100.78ZM357.705 106.255C356.939 104.296 356.229 102.5 355.803 100.862C353.268 101.683 350.474 102.365 347.546 102.783C344.934 103.153 342.217 103.316 339.481 103.177C337.156 103.057 334.77 102.447 332.427 101.563C330.107 100.689 327.831 99.5459 325.698 98.3596C324.395 102.735 323.523 108.1 322.962 113.676C322.238 120.837 322.028 128.338 322.066 134.515C322.19 154.542 325.67 170.641 326.393 174.003C326.465 174.339 326.508 174.546 326.523 174.623C327.318 179.598 327.955 185.016 328.463 190.573C328.971 196.129 329.355 201.811 329.642 207.315C329.92 212.694 330.112 217.91 330.241 222.66C330.371 227.395 330.438 231.67 330.476 235.176C330.831 235.44 331.276 235.709 331.794 235.911C332.23 236.079 332.714 236.204 333.227 236.242C333.663 236.276 334.123 236.247 334.588 236.127C335.005 236.021 335.427 235.848 335.853 235.589C339.754 211.297 339.423 181.414 339.351 174.892V174.839C339.342 174.118 339.337 173.686 339.342 173.571C339.414 171.861 339.533 169.637 339.677 166.986L339.692 166.737C340.185 157.578 340.947 143.467 341.024 130.034L341.029 129.592L342.38 135.427C344.096 143.285 346.664 152.986 349.377 163.245C351.605 171.664 353.934 180.458 355.975 188.935C360.336 207.022 363.787 223.083 365.459 230.868C365.842 232.654 366.135 234.009 366.317 234.84C366.648 235.085 367.069 235.267 367.544 235.382C368.061 235.507 368.636 235.56 369.221 235.546C369.801 235.527 370.385 235.445 370.917 235.296C371.425 235.157 371.89 234.96 372.269 234.715C372.288 223.135 371.636 210.538 370.462 197.786C369.235 184.411 367.433 170.862 365.229 158.135V158.13C365.023 156.449 365.037 154.768 365.057 153.106C365.071 151.665 365.085 150.239 364.956 148.837C364.39 142.804 363.796 137.012 363.135 131.576C362.474 126.148 361.75 121.081 360.921 116.509C360.24 112.705 358.899 109.291 357.705 106.255Z" fill="#404040"/>
<path fill-rule="evenodd" clip-rule="evenodd" d="M341.08 129.87C341.008 143.357 340.241 157.549 339.748 166.741C339.599 169.498 339.475 171.808 339.398 173.561C339.393 173.681 339.398 174.133 339.408 174.882C339.479 181.404 339.81 211.311 335.904 235.613C334.984 236.18 334.064 236.348 333.226 236.285C332.08 236.199 331.083 235.69 330.427 235.19C330.35 228.164 330.154 218.068 329.598 207.305C329.023 196.302 328.069 184.569 326.478 174.623C322.855 151.896 320.593 119.881 326.009 98.3404L324.71 98.1002C318.739 120.985 321.542 152.006 325.189 174.906C326.771 184.781 327.719 196.446 328.29 207.397C328.86 218.381 329.052 228.611 329.123 235.613L329.128 236.002L329.387 236.233C330.168 236.924 331.544 237.721 333.149 237.846C334.304 237.933 335.574 237.678 336.834 236.794L337.088 236.617L337.146 236.271C341.133 211.772 340.797 181.457 340.725 174.872C340.716 174.176 340.711 173.749 340.716 173.648C340.788 171.986 340.912 169.647 341.066 166.847C341.497 158.846 342.134 147.06 342.34 135.221L341.08 129.87Z" fill="#333333"/>
<path fill-rule="evenodd" clip-rule="evenodd" d="M329.44 235.19C327.872 235.839 325.956 236.497 324 237.169C320.071 238.519 315.978 239.926 313.625 241.65C311.536 243.182 310.731 244.935 312.274 247.044L312.336 247.125L312.418 247.188C313.352 247.937 317.991 248.062 323.219 247.74C328.285 247.428 333.987 246.736 337.366 245.843L337.447 245.824C338.228 245.646 340.136 245.242 338.626 239.671C338.569 239.465 338.161 238.567 337.783 237.712C337.471 237.02 337.174 236.357 337.141 236.257L335.66 236.746C335.712 236.91 336.029 237.616 336.364 238.355C336.724 239.153 337.102 239.998 337.126 240.08C338.214 244.085 337.572 244.2 337.107 244.306L336.992 244.33C333.714 245.199 328.117 245.876 323.133 246.179C318.389 246.472 314.287 246.467 313.467 246.011C312.705 244.868 313.266 243.845 314.555 242.894C316.707 241.314 320.689 239.945 324.513 238.634C326.459 237.966 328.366 237.308 330.034 236.622L329.44 235.19Z" fill="#333333"/>
<path fill-rule="evenodd" clip-rule="evenodd" d="M333.513 114.963C334.351 115.856 335.3 116.648 336.35 117.23C337.438 117.83 338.636 118.214 339.949 118.262L340.481 118.281L340.543 118.906C342.249 136.229 346.864 153.394 352.312 173.652C356.966 190.957 362.228 210.518 366.809 234.364C367.624 234.801 368.505 234.907 369.368 234.835C370.192 234.763 370.997 234.523 371.711 234.235C371.563 227.165 371.218 216.479 370.446 205.12C369.9 197.056 369.143 188.685 368.088 181.082C367.945 180.031 367.796 179.032 367.652 178.081C367.504 177.12 367.35 176.169 367.192 175.242C367.068 174.517 366.9 173.595 366.737 172.702C366.306 170.329 365.908 168.158 365.683 165.454C363.905 143.914 363.421 122.364 355.264 101.015L356.429 100.578C364.566 119.756 365.179 144.456 366.9 165.32C367.116 167.904 367.504 170.05 367.935 172.399C368.069 173.139 368.208 173.902 368.39 174.959C368.548 175.9 368.707 176.856 368.855 177.826C369.013 178.854 369.162 179.862 369.296 180.847C370.36 188.512 371.122 196.922 371.668 205.005C372.454 216.618 373.393 228.087 373.537 235.195L373.547 235.709L373.139 235.891C371.179 236.77 367.044 237.318 365.558 235.113L365.496 234.787C360.91 210.831 355.816 191.447 351.148 174.094C345.738 153.985 341.152 136.916 339.388 119.679C338.104 119.554 336.92 119.146 335.837 118.546C334.644 117.883 333.575 116.989 332.641 115.981C331.802 115.078 332.684 114.079 333.513 114.963Z" fill="#333333"/>
<path fill-rule="evenodd" clip-rule="evenodd" d="M355.841 100.795C356.919 104.978 359.842 110.222 360.978 116.495C362.636 125.649 363.882 136.753 365.013 148.827C365.296 151.858 364.898 154.989 365.286 158.12C369.589 182.989 372.364 211.004 372.326 234.734C371.535 235.253 370.38 235.551 369.225 235.589C368.085 235.623 366.978 235.397 366.273 234.864C365.281 230.397 361.289 211.201 355.927 188.94C351.398 170.151 345.456 149.744 342.331 135.432L341.081 130.029C341.004 143.472 340.242 157.587 339.748 166.746C339.6 169.503 339.475 171.813 339.399 173.566C339.394 173.686 339.399 174.138 339.408 174.887C339.48 181.409 339.811 211.316 335.905 235.618C334.985 236.184 334.065 236.353 333.226 236.29C332.081 236.204 331.084 235.695 330.428 235.195C330.351 228.169 330.154 218.073 329.599 207.31C329.023 196.307 328.07 184.574 326.479 174.627C326.349 173.821 322.156 156.54 322.017 134.51C321.95 123.502 322.674 108.282 325.669 98.2827C329.963 100.679 334.846 102.889 339.485 103.124C345.298 103.417 351.034 102.355 355.841 100.795Z" fill="#404040"/>
<path fill-rule="evenodd" clip-rule="evenodd" d="M320.574 65.4895C321.144 63.0929 322.083 61.2006 323.257 59.3131C324.091 57.9779 324.877 56.71 325.49 55.9368C326.482 54.6832 326.885 55.005 325.96 56.1769C325.38 56.9117 324.743 57.9299 323.947 59.2074C322.845 60.9749 321.604 63.2946 321.077 65.5039C320.612 67.4538 320.392 69.7063 321.235 71.4353C321.968 72.9385 323.784 74.8212 325.855 75.7578C327.642 76.435 328.557 77.7221 329.765 79.0813C330.393 79.7873 331.251 80.2676 332.013 80.9207L332.444 80.9736C339.172 81.7756 346.03 81.1657 350.563 80.3876C350.875 78.3657 351.565 76.4205 352.097 74.7444C352.576 73.2219 353.189 71.5697 353.875 70.4939C352.686 68.0685 351.028 65.2397 348.953 62.0555C348.095 60.7395 348.622 60.9316 349.423 62.1611C355.753 71.8579 356.587 77.0737 357.047 78.8075L357.315 79.8113L356.424 79.9025C355.571 79.989 354.368 80.2243 352.911 80.5077C348.282 81.4106 341.257 82.1214 332.727 81.2521C332.717 81.5835 332.693 81.9197 332.64 82.2895C332.568 82.789 332.453 85.1087 332.252 85.7763C346.399 88.5283 355.513 88.8693 360.401 88.4707C363.392 88.2257 365.826 87.4141 366.718 86.881C367.321 86.5159 367.499 86.247 367.547 86.1221C364.604 51.0235 350.841 47.6616 347.966 47.1573C347.602 47.0949 347.357 47.0516 347.165 46.9412L347.098 46.898C346.701 46.6098 346.15 46.1775 345.541 45.7069C344.563 44.948 343.169 43.8386 342.464 43.3679C340.945 44.4293 338.731 45.534 336.647 45.8365C334.643 46.1247 332.334 45.8221 330.939 44.583C330.676 44.9096 330.383 45.2314 330.096 45.5244C329.463 46.1631 327.805 46.9892 327.407 47.1909L327.331 47.2293L327.254 47.2486C319.74 49.1553 316.711 55.1587 313.395 60.3073C311.31 63.5443 308.521 67.5883 305.991 69.1972C308.378 69.0867 311.976 68.9618 314.521 68.8418L320.411 75.3927C321.019 75.3063 323.013 75.2006 323.598 75.2054C322.864 74.485 321.455 72.8233 321.043 71.978C320.027 69.9032 320.032 67.766 320.574 65.4895ZM332.065 88.3794L329.372 84.9551C329.65 84.9791 329.918 85.0175 330.177 85.0751L330.992 85.0079L331.931 85.8724C339.086 87.2892 346.729 88.4851 351.311 88.9365C351.296 90.118 352.389 91.3475 352.427 92.3801C352.47 93.4896 355.37 99.3489 355.494 100.396C352.667 102.572 342.201 102.019 337.423 102.298C333.781 102.509 328.486 100.281 325.198 97.8985C325.538 96.5777 326.506 94.258 326.756 92.9661C327 91.6837 327.407 90.1949 327.489 88.8933L332.065 88.3794ZM297.523 66.8678C294.509 65.6575 290.857 63.7508 287.503 61.3351C287.211 61.7625 286.357 62.4589 285.917 62.8527C285.485 63.237 284.417 64.0102 283.856 64.332C284.838 65.3214 286.621 66.7622 287.685 67.7083C288.476 68.4143 289.401 69.2548 290.254 69.9656C291.226 69.9176 292.702 69.8023 293.675 69.7543C293.699 69.7447 293.709 69.7399 293.709 69.7399L293.819 69.6919C296.483 69.5574 300.916 69.2644 303.413 69.1444C302.1 68.8514 298.923 67.4298 297.523 66.8678Z" fill="url(#paint1_linear_6472_194441)"/>
<path fill-rule="evenodd" clip-rule="evenodd" d="M335.079 14.2152C337.643 14.7627 340.816 16.1987 343.188 18.4752C344.932 20.1514 346.255 22.279 346.614 24.8437C346.811 24.9061 346.988 25.0022 347.165 25.1174C347.501 25.3432 347.745 25.689 347.898 26.1116C348.033 26.5006 348.09 26.9569 348.057 27.4468C347.975 28.5994 347.381 29.9826 346.13 31.0632C346.039 31.6108 345.962 32.1247 345.895 32.6193C345.881 32.7106 345.871 32.8018 345.857 32.8883C348.512 29.6704 349.849 26.3325 350.112 23.1963C350.41 19.6903 349.36 16.4292 347.309 13.8838C346.312 12.6447 345.1 11.564 343.763 10.6755C341.304 9.05218 338.405 8.07242 335.535 7.98117C332.702 7.88992 329.904 8.65836 327.608 10.517C326.688 11.2615 325.845 12.1884 325.107 13.3074C324.067 14.8827 323.42 16.7174 323.391 18.6721C323.367 20.2234 323.731 21.8612 324.599 23.5229C326.396 22.7257 331.72 20.2907 334.226 14.6522L334.48 14.0855L335.079 14.2152Z" fill="#666666"/>
<path fill-rule="evenodd" clip-rule="evenodd" d="M335.094 14.1671C336.459 14.4601 337.998 15.0028 339.493 15.7857C340.816 16.4821 342.109 17.3658 343.226 18.4368C344.141 19.3157 344.942 20.3243 345.55 21.4481C346.097 22.4663 346.489 23.5853 346.662 24.8004C346.748 24.8293 346.835 24.8677 346.921 24.9109C347.012 24.9589 347.103 25.0118 347.194 25.0742C347.366 25.1895 347.515 25.3335 347.64 25.5064C347.764 25.6793 347.87 25.8763 347.946 26.0972C348.018 26.2941 348.066 26.515 348.09 26.7408C348.119 26.9665 348.124 27.2066 348.104 27.4516C348.061 28.0663 347.874 28.7483 347.52 29.4159C347.208 30.0018 346.763 30.5782 346.178 31.0921C346.135 31.3562 346.092 31.6156 346.053 31.8701L345.934 32.7154C347.165 31.2025 348.104 29.6608 348.775 28.124C349.509 26.4574 349.925 24.7956 350.06 23.1915C350.203 21.4673 350.026 19.8008 349.557 18.2543C349.077 16.6646 348.301 15.1997 347.266 13.9174C346.772 13.3074 346.226 12.7311 345.641 12.2028C345.047 11.6649 344.405 11.1702 343.729 10.7235C342.493 9.90707 341.146 9.25389 339.752 8.79763C338.376 8.34617 336.948 8.08202 335.53 8.03879C334.078 7.99076 332.635 8.17327 331.265 8.61032C329.971 9.02336 328.744 9.66693 327.637 10.565C327.172 10.9397 326.727 11.3623 326.305 11.833C325.893 12.2892 325.505 12.7935 325.145 13.341C324.613 14.1431 324.187 15.0172 323.89 15.9393C323.612 16.8134 323.449 17.7308 323.434 18.6769C323.42 19.4694 323.511 20.281 323.717 21.1119C323.909 21.8852 324.206 22.6728 324.613 23.4605C325.524 23.057 327.273 22.2502 329.108 20.867C330.972 19.4598 332.923 17.4474 334.174 14.6378L334.442 14.0326L335.094 14.1671ZM339.445 15.8769C337.955 15.0941 336.426 14.5561 335.07 14.268L334.504 14.1479L334.269 14.6762C333.014 17.505 331.049 19.5318 329.171 20.9486C327.297 22.3654 325.514 23.1771 324.613 23.5757L324.57 23.5949L324.546 23.5517C324.12 22.7401 323.818 21.9332 323.621 21.1359C323.415 20.3002 323.324 19.4742 323.334 18.6769C323.348 17.7212 323.511 16.7942 323.794 15.9105C324.091 14.9788 324.522 14.0951 325.059 13.2834C325.423 12.7311 325.816 12.222 326.228 11.7609C326.655 11.2855 327.1 10.8628 327.57 10.4834C328.687 9.57568 329.928 8.9273 331.231 8.50946C332.611 8.06761 334.068 7.8851 335.535 7.93313C336.963 7.98116 338.396 8.24531 339.785 8.69677C341.189 9.15784 342.546 9.81581 343.787 10.6371C344.462 11.0837 345.109 11.5832 345.708 12.1259C346.298 12.6591 346.849 13.2402 347.347 13.8549C348.392 15.1469 349.173 16.6261 349.657 18.2255C350.127 19.7864 350.309 21.4625 350.16 23.2011C350.026 24.8148 349.604 26.4862 348.866 28.1672C348.167 29.7569 347.184 31.3562 345.89 32.9219L345.775 33.0612L345.948 31.8509C345.986 31.5963 346.029 31.3274 346.073 31.0536L346.077 31.0344L346.092 31.02C346.676 30.5157 347.112 29.9442 347.424 29.3631C347.769 28.7099 347.956 28.0423 347.999 27.4372C348.018 27.197 348.009 26.9665 347.985 26.7456C347.961 26.5246 347.913 26.3133 347.846 26.1212C347.774 25.9099 347.673 25.7226 347.553 25.5593C347.434 25.396 347.295 25.2615 347.136 25.151C347.05 25.0934 346.964 25.0406 346.873 24.9974C346.787 24.9541 346.691 24.9157 346.6 24.8821L346.566 24.8725L346.561 24.8389C346.389 23.6238 346.006 22.5047 345.454 21.4865C344.855 20.3675 344.06 19.3733 343.149 18.4992C342.047 17.4474 340.763 16.5685 339.445 15.8769Z" fill="#666666"/>
<path fill-rule="evenodd" clip-rule="evenodd" d="M340.92 7.5297C342.209 8.00998 343.45 8.63914 344.6 9.40278C345.99 10.3249 347.255 11.4343 348.314 12.6975C349.737 12.8896 350.748 12.2556 351.347 11.2182C351.697 10.6131 351.918 9.87345 352.009 9.07139C352.1 8.25011 352.057 7.36641 351.87 6.50671C351.357 4.14375 349.785 1.94409 347.111 1.55506C345.822 1.36775 344.595 1.48302 343.565 1.95369C342.645 2.37634 341.864 3.09675 341.322 4.15816C340.972 4.84496 340.761 5.57498 340.723 6.24256C340.694 6.72284 340.757 7.16949 340.92 7.5297Z" fill="#666666"/>
<path fill-rule="evenodd" clip-rule="evenodd" d="M340.958 7.49127C341.6 7.73141 342.228 8.00517 342.837 8.31734C343.455 8.62952 344.054 8.98013 344.629 9.35954C345.333 9.82541 345.999 10.3393 346.627 10.8916C347.241 11.4343 347.816 12.0251 348.338 12.6446C348.999 12.7311 349.57 12.635 350.049 12.3997C350.576 12.1451 350.993 11.7177 351.3 11.1894C351.472 10.8916 351.611 10.565 351.716 10.2096C351.827 9.84943 351.908 9.4604 351.951 9.06177C351.999 8.65354 352.009 8.22609 351.985 7.79865C351.961 7.3712 351.903 6.93895 351.812 6.51151C351.544 5.26279 350.974 4.05729 350.097 3.14957C349.33 2.35231 348.333 1.78078 347.097 1.60308C346.445 1.50703 345.808 1.49262 345.209 1.55986C344.629 1.6271 344.083 1.77118 343.579 1.99691C343.115 2.20823 342.683 2.5012 342.305 2.87581C341.94 3.23122 341.624 3.66827 341.361 4.18217C341.188 4.52316 341.049 4.87376 340.948 5.21956C340.848 5.56536 340.786 5.91116 340.766 6.24255C340.752 6.48269 340.762 6.71802 340.795 6.93415C340.833 7.13587 340.881 7.32317 340.958 7.49127ZM342.789 8.4086C342.175 8.09642 341.543 7.81786 340.901 7.57772L340.881 7.56811L340.872 7.5489C340.79 7.3664 340.733 7.16468 340.699 6.94856C340.666 6.72763 340.656 6.48749 340.671 6.23775C340.69 5.90155 340.752 5.54615 340.853 5.19555C340.953 4.84014 341.097 4.48474 341.27 4.13894C341.538 3.61544 341.859 3.17359 342.233 2.80858C342.621 2.42916 343.057 2.13139 343.536 1.91046C344.049 1.67512 344.605 1.53104 345.194 1.4638C345.803 1.39656 346.45 1.41097 347.106 1.50703C348.367 1.68953 349.387 2.27547 350.169 3.08714C351.055 4.01407 351.635 5.23397 351.908 6.5019C351.999 6.93415 352.062 7.3712 352.085 7.80345C352.109 8.2405 352.095 8.66795 352.052 9.08579C352.004 9.49402 351.927 9.88785 351.812 10.2529C351.702 10.6131 351.558 10.9493 351.386 11.2518C351.07 11.7993 350.638 12.2364 350.092 12.5054C349.589 12.7503 348.995 12.8512 348.304 12.7551L348.285 12.7503L348.271 12.7359C347.749 12.1115 347.174 11.5208 346.56 10.9781C345.937 10.4258 345.271 9.91186 344.571 9.4508C343.996 9.06658 343.402 8.72078 342.789 8.4086Z" fill="#666666"/>
<path fill-rule="evenodd" clip-rule="evenodd" d="M325.048 24.5315C325.048 26.5294 325.312 30.6838 326.86 34.4012C327.818 36.6969 329.265 38.8197 331.455 40.1357C332.792 40.9377 333.947 41.2883 335.083 41.2355C336.233 41.1827 337.412 40.7168 338.778 39.8859C340.009 39.1367 341.231 38.1377 342.357 37.0427C343.599 35.8324 344.706 34.5068 345.563 33.2533L346.071 33.1428L346.824 34.1178C345.918 35.4482 344.739 36.8554 343.421 38.1377C342.223 39.3048 340.905 40.3758 339.564 41.1923C337.977 42.1576 336.573 42.7004 335.145 42.7676C333.698 42.8348 332.275 42.4122 330.669 41.4516C328.158 39.9436 326.515 37.5566 325.446 34.9919C323.793 31.0296 323.515 26.6447 323.515 24.5363H325.048V24.5315Z" fill="#333333"/>
<path fill-rule="evenodd" clip-rule="evenodd" d="M345.613 33.1813C348.426 29.877 349.84 26.4286 350.113 23.1963C350.41 19.6903 349.36 16.4292 347.309 13.8838C346.312 12.6446 345.1 11.564 343.763 10.6755C341.305 9.05218 338.405 8.07241 335.535 7.98116C332.703 7.88991 329.904 8.65835 327.609 10.517C326.689 11.2614 325.845 12.1884 325.107 13.3074C324.067 14.8827 323.42 16.7174 323.392 18.6721C323.368 20.2234 323.732 21.8611 324.599 23.5229C326.396 22.7256 331.72 20.2906 334.227 14.6522L334.481 14.0855L335.084 14.2151C337.648 14.7627 340.821 16.1987 343.193 18.4752C345.076 20.281 346.461 22.6152 346.681 25.4584L345.306 25.6025C345.297 25.4632 345.129 25.2951 345.11 25.1606C344.827 22.9226 343.667 21.0543 342.129 19.5798C340.155 17.6875 337.567 16.434 335.348 15.8577C332.468 21.7123 326.909 24.1809 325.126 24.9685C324.925 25.055 324.968 24.8965 324.882 25.007L324.197 25.8811L323.626 24.9253C322.356 22.7977 321.829 20.6701 321.863 18.6529C321.896 16.3908 322.644 14.2728 323.832 12.4669C324.657 11.2134 325.606 10.1712 326.65 9.32593C329.248 7.22232 332.406 6.34822 335.588 6.45388C338.736 6.55954 341.918 7.62576 344.602 9.40278C346.078 10.3777 347.405 11.5688 348.503 12.928C350.798 15.776 351.972 19.4165 351.641 23.326C351.344 26.8608 349.816 30.6118 346.777 34.1802L345.613 33.1813Z" fill="#333333"/>
<path fill-rule="evenodd" clip-rule="evenodd" d="M345.372 24.9541C346.105 24.6179 346.666 24.786 347.164 25.1222C347.5 25.348 347.744 25.6938 347.897 26.1164C348.032 26.5054 348.089 26.9617 348.056 27.4516C347.955 28.8684 347.088 30.6214 345.18 31.7548C344.644 32.0718 344.064 31.2409 344.711 30.8471C346.259 29.9106 346.963 28.5082 347.04 27.3795C347.064 27.0289 347.03 26.7119 346.939 26.4526C346.862 26.2317 346.747 26.0636 346.604 25.9675C346.407 25.833 346.12 25.8282 345.751 25.9915C345.401 26.1452 344.84 25.1943 345.372 24.9541Z" fill="#333333"/>
<path fill-rule="evenodd" clip-rule="evenodd" d="M345.148 26.5583C345.469 26.4478 345.747 26.491 345.963 26.6399C346.135 26.7552 346.265 26.9329 346.341 27.1538C346.413 27.3555 346.442 27.5909 346.423 27.8454C346.37 28.5658 345.934 29.4591 344.981 30.0451C344.621 30.266 344.348 29.8385 344.736 29.5984C345.512 29.1085 345.872 28.3929 345.91 27.8118C345.925 27.6293 345.905 27.4612 345.857 27.3267C345.819 27.2114 345.757 27.1202 345.68 27.0674C345.599 27.0145 345.493 27.0001 345.364 27.0337C344.87 27.149 344.674 26.7168 345.148 26.5583Z" fill="#333333"/>
<path fill-rule="evenodd" clip-rule="evenodd" d="M346.134 31.0248C346.038 31.5867 345.962 32.1199 345.89 32.6241C345.717 33.8536 345.559 34.9439 345.195 35.9717L343.992 35.5442C344.318 34.6269 344.462 33.5991 344.625 32.4416C344.697 31.9181 344.778 31.3706 344.874 30.8039L346.134 31.0248Z" fill="#333333"/>
<path fill-rule="evenodd" clip-rule="evenodd" d="M339.736 8.56229C339.314 7.89471 339.147 7.04942 339.199 6.1513C339.252 5.2724 339.516 4.33106 339.956 3.46176C340.661 2.07376 341.696 1.12281 342.928 0.560886C344.236 -0.0394593 345.755 -0.193148 347.322 0.0373849C350.739 0.53207 352.732 3.26484 353.365 6.18492C353.585 7.20791 353.638 8.25972 353.528 9.24428C353.413 10.2529 353.125 11.199 352.67 11.9915C351.717 13.6436 350.068 14.6282 347.758 14.1671L348.05 12.659C349.608 12.9712 350.71 12.3229 351.348 11.223C351.697 10.6179 351.918 9.87825 352.009 9.07619C352.1 8.25491 352.057 7.3712 351.87 6.51151C351.357 4.14855 349.785 1.94888 347.111 1.55986C345.822 1.37255 344.595 1.48782 343.565 1.95849C342.645 2.38113 341.864 3.10155 341.322 4.16296C340.972 4.84975 340.762 5.57977 340.723 6.24736C340.69 6.8333 340.786 7.3568 341.03 7.74582L339.736 8.56229Z" fill="#333333"/>
<path fill-rule="evenodd" clip-rule="evenodd" d="M302.042 80.4116L309.321 87.4381L308.44 88.3602L301.16 81.3338L302.042 80.4116ZM325.351 88.1345L330.589 87.8751L328.289 85.272L329.243 84.4267L333.302 89.023L325.414 89.412L325.351 88.1345ZM322.601 78.8363L314.32 69.4613L291.84 70.5804L292.18 70.907L291.298 71.8291L288.83 69.4517C297.509 69.0195 306.187 68.5824 314.866 68.1598L323.549 77.991L322.601 78.8363Z" fill="#333333"/>
<path fill-rule="evenodd" clip-rule="evenodd" d="M320.819 79.1437C319.06 77.8614 317.167 76.5934 315.499 75.4792C313.122 73.8895 311.172 72.5879 310.64 71.9156C309.935 71.0222 310.166 70.2346 310.659 69.6246L293.877 70.4219C293.225 70.7485 289.76 72.7368 294.174 76.0507C296.656 77.9142 299.575 79.2878 302.143 80.4933C305.527 82.083 308.344 83.4038 309.106 85.3585C309.907 87.4093 309.447 89.1191 308.944 90.1661L323.953 89.4793C324.489 88.9654 326.215 87.1499 326.147 85.1087L327.422 85.0703C327.523 88.0913 324.638 90.5839 324.628 90.5887L324.461 90.7328C318.394 90.9969 312.322 91.2851 306.255 91.5637L307.295 90.4254C307.3 90.4206 308.977 88.5379 307.923 85.8244C307.348 84.3451 304.741 83.1204 301.611 81.6507C298.985 80.4164 296 79.014 293.417 77.0737C286.837 72.1317 293.446 69.2164 293.46 69.2068L293.57 69.1588C301.017 68.789 307.424 68.5104 314.876 68.1598L312.993 69.4661C312.988 69.4709 311.038 70.3498 311.646 71.1279C312.049 71.6418 313.923 72.8905 316.213 74.4226C317.919 75.5608 319.846 76.8528 321.576 78.1111L320.819 79.1437Z" fill="#333333"/>
<path fill-rule="evenodd" clip-rule="evenodd" d="M332.247 41.0578L332.113 44.6215L330.589 44.5639L330.723 41.005L332.247 41.0578Z" fill="#333333"/>
<path fill-rule="evenodd" clip-rule="evenodd" d="M342.77 38.3394L343.182 42.9116C343.958 43.4159 345.18 44.3669 346.234 45.1882C346.824 45.6444 347.36 46.0623 347.701 46.3168C347.744 46.3264 347.797 46.312 347.969 46.3408C351.06 46.8787 365.163 49.3473 368.187 85.7331C368.192 85.7763 368.187 85.882 368.168 85.9924C368.12 86.2518 367.842 87.0779 366.606 87.8223C365.552 88.4562 363.692 89.1046 360.419 89.3736C355.325 89.7914 346.632 89.3063 331.81 86.3718L330.947 86.1989L331.235 85.3681C331.57 84.3931 331.743 83.6919 331.824 83.0964C331.906 82.5008 331.906 81.9965 331.891 81.4298L331.872 80.5461L332.749 80.6518C341.418 81.6795 348.832 80.2387 353.528 79.3262C354.582 79.1197 355.502 78.942 356.284 78.8219C355.613 76.4349 353.672 70.4507 348.151 61.993C347.293 60.6771 348.616 59.9038 349.416 61.1333C355.752 70.8349 357.491 77.4003 357.956 79.1341L358.224 80.1379L357.333 80.2291C356.48 80.3156 355.277 80.5509 353.82 80.8343C349.191 81.7372 341.96 83.1444 333.43 82.2751C333.42 82.6065 333.396 82.9427 333.343 83.3125C333.271 83.812 333.156 84.3691 332.955 85.0367C347.102 87.7887 355.421 88.2497 360.309 87.8463C363.299 87.6014 364.938 87.0442 365.83 86.5111C366.433 86.1461 366.611 85.8772 366.659 85.7523C363.716 50.6537 350.6 48.358 347.72 47.8585C347.356 47.7961 347.111 47.7528 346.92 47.6424L346.853 47.5991C346.455 47.311 345.904 46.8787 345.295 46.4081C344.102 45.4763 342.683 44.3765 342.089 44.0451L341.734 43.8482L341.25 38.4835L342.77 38.3394Z" fill="#333333"/>
<path fill-rule="evenodd" clip-rule="evenodd" d="M324.872 79.1197C323.305 79.1822 320.717 79.4367 318.57 80.0563C317.53 80.354 316.615 80.7383 316.021 81.2089C315.566 81.5739 315.321 81.9918 315.417 82.4721C315.474 82.7458 315.623 83.0532 315.887 83.4086C318.134 86.0981 321.599 85.3969 324.977 84.7101C327.589 84.1818 330.153 83.6583 332.357 84.5228L331.801 85.9541C330.009 85.2529 327.661 85.7283 325.275 86.2134C321.45 86.9914 317.53 87.7839 314.698 84.3739L314.674 84.3451C314.262 83.7976 314.018 83.2741 313.917 82.7842C313.682 81.646 314.157 80.7383 315.067 80.013C315.834 79.4031 316.936 78.9324 318.149 78.5818C320.458 77.9142 323.276 77.6453 324.934 77.5876C326.53 77.5348 326.487 79.0573 324.872 79.1197Z" fill="#333333"/>
<path fill-rule="evenodd" clip-rule="evenodd" d="M354.492 70.931C353.797 71.9252 353.203 73.2652 352.704 74.8309C352.149 76.5839 351.727 78.5962 351.42 80.7239L349.906 80.5077C350.227 78.2937 350.668 76.1901 351.243 74.3698C351.784 72.6648 352.446 71.1808 353.236 70.0521L354.492 70.931ZM328.178 88.7013C328.116 90.1949 327.915 91.6694 327.637 93.1438C327.387 94.4358 326.87 96.1792 326.53 97.4999C332.903 103.585 352.695 102.063 354.938 100.338C354.65 97.9178 350.591 90.8049 350.639 88.3699L352.163 88.4707C352.115 90.9778 356.184 98.0859 356.505 100.574L356.557 100.996C345.852 105.093 328.883 103.215 324.79 98.1003L324.919 97.6104C325.298 96.16 325.859 94.2869 326.132 92.8556C326.405 91.4436 326.597 90.0364 326.649 88.6388L328.178 88.7013Z" fill="#333333"/>
<path fill-rule="evenodd" clip-rule="evenodd" d="M283.678 64.5721C282.767 63.9189 281.09 63.6788 279.259 63.4194C276.648 63.0496 273.744 62.6366 271.697 60.8884C270.595 59.9518 269.273 58.0596 268.851 55.8311C268.539 54.1933 268.702 52.3635 269.766 50.5769L269.79 50.5384C271.266 48.3724 273.394 49.8468 275.915 51.5902C277.357 52.5892 278.958 53.6938 280.491 54.0829L280.501 54.0012C280.563 53.5209 280.592 52.7429 280.544 51.4846L280.52 51.1388C280.462 50.4616 280.41 49.7844 280.956 49.1216C281.114 48.9343 281.291 48.7902 281.497 48.699C281.838 48.5453 282.202 48.5357 282.576 48.6605C282.858 48.7518 283.151 48.9247 283.443 49.1648C284.377 49.9381 285.451 51.5662 286.313 53.4969C286.572 54.0733 286.798 54.6064 286.975 55.1635C287.157 55.735 287.291 56.321 287.363 56.9885C287.406 57.392 287.425 57.7858 287.449 58.1748C287.502 59.1498 287.559 60.0911 287.919 60.8019L286.553 61.4983C286.05 60.5042 285.988 59.3995 285.921 58.2613C285.901 57.8867 285.877 57.5072 285.839 57.147C285.782 56.5947 285.671 56.1048 285.518 55.6342C285.36 55.1395 285.154 54.6544 284.919 54.1261C284.147 52.4019 283.232 50.9803 282.475 50.3559C282.341 50.2455 282.216 50.1638 282.116 50.1302C281.991 50.3223 282.02 50.6729 282.048 51.0235C282.058 51.1388 282.068 51.2444 282.072 51.4365C282.125 52.7813 282.087 53.6458 282.015 54.1981C281.957 54.6592 281.871 54.9474 281.79 55.1251C281.574 55.5909 281.2 55.711 280.994 55.7206C280.941 55.7254 280.913 55.7206 280.86 55.7158C278.79 55.442 276.811 54.0733 275.047 52.8534C273.221 51.5902 271.673 50.5192 271.06 51.3981C270.236 52.8053 270.111 54.251 270.356 55.5525C270.705 57.4016 271.788 58.9529 272.685 59.7213C274.4 61.1814 277.069 61.5608 279.475 61.9066C281.507 62.1947 283.366 62.4589 284.574 63.3282L283.678 64.5721Z" fill="#333333"/>
<path fill-rule="evenodd" clip-rule="evenodd" d="M330.368 25.857C331.073 25.9819 331.95 25.8906 332.525 25.7706C331.255 25.6793 330.665 23.8398 329.146 23.7534C328.418 23.7102 327.292 24.0175 326.606 25.2134C326.808 25.3431 327.186 25.2855 327.258 25.2807C327.215 27.2882 329.673 27.5668 330.368 25.857Z" fill="#333333"/>
<path fill-rule="evenodd" clip-rule="evenodd" d="M339.833 25.5545C340.547 25.5401 341.39 25.2712 341.927 25.0454C340.662 25.2039 339.722 23.5229 338.218 23.7391C337.494 23.8447 336.454 24.3682 336.018 25.6746C336.239 25.761 336.603 25.6314 336.67 25.6121C337.029 27.5813 339.492 27.37 339.833 25.5545Z" fill="#333333"/>
<path fill-rule="evenodd" clip-rule="evenodd" d="M334.035 34.1226C334.844 34.0842 335.549 34.9151 335.606 35.9861C335.664 37.0523 335.051 37.9504 334.241 37.9936C333.431 38.0321 332.726 37.2012 332.669 36.1302C332.611 35.0592 333.22 34.161 334.035 34.1226Z" fill="#333333"/>
<path fill-rule="evenodd" clip-rule="evenodd" d="M337.115 33.8824C335.907 35.2512 332.936 35.3329 331.451 34.7469C331.403 35.6018 332.472 36.62 334.058 36.4231C337.187 36.0293 337.067 34.3387 337.115 33.8824Z" fill="#333333"/>
<path fill-rule="evenodd" clip-rule="evenodd" d="M334.14 31.5627C333.148 31.6252 331.815 30.655 331.753 29.7713C331.619 27.8694 334.005 27.7205 334.039 25.9051C334.624 27.903 330.737 29.3871 334.14 31.5627Z" fill="#333333"/>
<path fill-rule="evenodd" clip-rule="evenodd" d="M342.917 43.9779L342.721 44.1268C341.192 45.2554 338.93 46.264 336.74 46.581C334.737 46.8691 332.768 46.5954 331.373 45.3563C331.11 45.6829 330.817 46.0046 330.53 46.2976C329.897 46.9364 329.236 47.4647 328.833 47.6616L328.757 47.7L328.68 47.7192C321.166 49.6259 317.346 55.5621 314.03 60.7107C311.639 64.4232 309.497 67.7516 306.358 69.1203L306.238 69.1732L306.114 69.1828C303.42 69.3845 300.42 68.8082 297.191 67.5114C294.171 66.3011 290.951 64.4617 287.592 62.0459C287.299 62.4781 286.921 62.896 286.475 63.2946C286.044 63.6788 285.541 64.039 284.985 64.3608C285.962 65.3502 286.978 66.3059 288.042 67.2521C289.351 68.4191 290.74 69.5766 292.226 70.7773L291.267 71.9732C289.787 70.7773 288.382 69.6054 287.026 68.3999C285.684 67.2088 284.4 65.9841 283.154 64.6778L282.402 63.8901L283.403 63.4483C284.208 63.0929 284.908 62.6414 285.464 62.1515C286.02 61.6568 286.427 61.1285 286.643 60.6243L287.026 59.7357L287.803 60.3121C291.306 62.9008 294.651 64.8507 297.761 66.0946C300.718 67.2809 303.449 67.8236 305.874 67.6651C308.529 66.4404 310.522 63.3378 312.751 59.8846C316.206 54.5199 320.188 48.3388 328.225 46.2544C328.498 46.0959 328.963 45.7021 329.451 45.217C329.907 44.7607 330.357 44.2324 330.659 43.7473L331.244 42.806L331.977 43.7714C332.974 45.0489 334.718 45.3323 336.534 45.0729C338.47 44.7943 340.469 43.9058 341.815 42.9117L342.007 42.7676L342.917 43.9779Z" fill="#333333"/>
<path fill-rule="evenodd" clip-rule="evenodd" d="M326.448 56.5371C325.868 57.2719 325.078 58.3381 324.282 59.6157C323.18 61.3831 322.083 63.5491 321.556 65.7584C321.091 67.7083 321.167 69.7063 322.011 71.4353C322.744 72.9385 324.071 74.2593 326.142 75.1958C327.929 75.873 329.06 77.141 330.272 78.5001C331.106 79.4367 331.978 80.4164 333.1 81.2041L332.228 82.4576C330.943 81.5595 330.014 80.5125 329.127 79.5183C328.039 78.2936 327.019 77.1506 325.576 76.6127C324.79 76.3197 323.956 76.1228 323.094 76.0411C322.274 75.9643 321.417 75.9883 320.53 76.1372L320.286 74.6243C320.985 74.509 321.671 74.4562 322.346 74.4658C321.613 73.7454 321.048 72.9481 320.635 72.0981C319.624 70.0281 319.528 67.6747 320.07 65.3982C320.64 63.0016 321.814 60.6867 322.988 58.7992C323.822 57.464 324.656 56.3354 325.269 55.5573C326.257 54.3134 327.368 55.3652 326.448 56.5371Z" fill="#333333"/>
<path fill-rule="evenodd" clip-rule="evenodd" d="M366.309 234.72C364.909 235.68 362.413 237.289 360.64 238.355C357.079 240.497 353.37 242.735 351.434 244.911C349.713 246.847 349.292 248.729 351.237 250.468L351.314 250.535L351.405 250.583C352.474 251.121 357.041 250.271 362.087 248.859C366.975 247.49 372.409 245.622 375.524 244.042L375.601 244.008C376.329 243.672 378.112 242.875 375.471 237.745C375.371 237.558 374.786 236.761 374.235 236.007C373.785 235.397 373.358 234.811 373.301 234.715L371.954 235.502C372.04 235.647 372.495 236.276 372.98 236.929C373.497 237.635 374.048 238.384 374.082 238.456C375.979 242.145 375.376 242.394 374.944 242.591L374.839 242.639C371.815 244.176 366.481 246.011 361.67 247.356C357.093 248.633 353.078 249.493 352.181 249.219C351.199 248.263 351.53 247.14 352.594 245.944C354.367 243.951 357.98 241.775 361.44 239.69C363.203 238.629 365.695 237.025 367.186 236.002L366.309 234.72Z" fill="#333333"/>
<path fill-rule="evenodd" clip-rule="evenodd" d="M314.847 242.755C314.775 242.803 314.703 242.855 314.631 242.908C313.342 243.854 312.781 244.882 313.543 246.025C314.363 246.482 318.47 246.482 323.209 246.193C328.198 245.886 333.795 245.214 337.068 244.344L337.183 244.32C337.485 244.253 337.868 244.181 337.787 243.014C337.744 242.399 337.576 241.477 337.202 240.094C337.183 240.017 336.8 239.167 336.44 238.37C336.273 237.995 336.105 237.63 335.98 237.337C335.031 237.784 334.092 237.913 333.22 237.846C331.95 237.75 330.824 237.227 330.019 236.674C328.37 237.352 326.497 237.995 324.584 238.653C320.89 239.916 317.037 241.237 314.847 242.755Z" fill="#FEFEFE"/>
<path fill-rule="evenodd" clip-rule="evenodd" d="M361.444 239.695C359.488 240.872 357.485 242.077 355.794 243.264C354.49 244.181 353.369 245.079 352.593 245.948C351.529 247.144 351.198 248.263 352.18 249.224C353.077 249.498 357.092 248.638 361.669 247.36C365.536 246.28 369.744 244.882 372.815 243.576C373.563 243.259 374.244 242.947 374.838 242.644L374.943 242.596C375.374 242.394 375.978 242.149 374.081 238.461C374.042 238.389 373.496 237.64 372.978 236.934C372.782 236.67 372.595 236.41 372.432 236.184C370.832 236.694 368.531 236.929 366.931 236.184C365.421 237.207 363.107 238.691 361.444 239.695Z" fill="#FEFEFE"/>
<path fill-rule="evenodd" clip-rule="evenodd" d="M293.756 70.4844C292.923 70.9406 290.191 72.7705 293.756 75.7242C293.886 75.8298 294.025 75.9403 294.173 76.0508C296.613 77.8854 299.478 79.2398 302.018 80.4357L302.042 80.4117L302.114 80.4789C302.124 80.4837 302.133 80.4885 302.148 80.4933C305.531 82.083 308.349 83.4038 309.106 85.3585C309.906 87.4093 309.446 89.1191 308.943 90.1661L323.952 89.4793C324.402 89.047 325.696 87.6927 326.056 86.0597C325.797 86.1126 325.538 86.1606 325.284 86.2134C321.46 86.9915 317.54 87.7839 314.708 84.3739L314.684 84.3451C314.272 83.7976 314.027 83.2741 313.927 82.7842C313.692 81.646 314.166 80.7383 315.077 80.013C315.844 79.3983 316.946 78.9324 318.158 78.5818C318.609 78.4521 319.078 78.3369 319.557 78.236C318.182 77.2707 316.778 76.3293 315.503 75.4792C313.126 73.8895 311.176 72.588 310.644 71.9156C309.949 71.0367 310.165 70.2538 310.644 69.6487L293.756 70.4844Z" fill="#FEFEFE"/>
<path fill-rule="evenodd" clip-rule="evenodd" d="M284.157 63.0641C284.645 62.7855 285.086 62.4733 285.455 62.1467C285.834 61.8106 286.141 61.46 286.371 61.1094C286.026 60.2208 285.968 59.2555 285.915 58.2613C285.896 57.8867 285.872 57.5073 285.834 57.1471C285.781 56.6332 285.681 56.1721 285.542 55.7255C285.532 55.6918 285.522 55.663 285.513 55.6294C285.355 55.1347 285.149 54.6496 284.914 54.1213C284.142 52.3971 283.227 50.9755 282.47 50.3512C282.336 50.2407 282.211 50.159 282.11 50.1254C281.986 50.3175 282.014 50.6681 282.043 51.0187C282.053 51.134 282.062 51.2397 282.067 51.4318C282.12 52.7766 282.082 53.6411 282.01 54.1934C281.952 54.6544 281.866 54.9426 281.784 55.1203C281.569 55.5862 281.195 55.7062 280.989 55.7158C280.936 55.7206 280.907 55.7158 280.855 55.711C278.785 55.4373 276.805 54.0685 275.042 52.8486C273.216 51.5855 271.668 50.5145 271.055 51.3934C270.23 52.8006 270.106 54.2462 270.35 55.5477C270.36 55.6054 270.374 55.6678 270.389 55.7255C270.772 57.4977 271.812 58.9721 272.684 59.7165C274.4 61.1766 277.069 61.556 279.475 61.9018C281.286 62.1612 282.959 62.3965 284.157 63.0641Z" fill="#FEFEFE"/>
<path fill-rule="evenodd" clip-rule="evenodd" d="M326.86 34.4012C327.818 36.6969 329.266 38.8197 331.456 40.1357C332.793 40.9378 333.948 41.2884 335.083 41.2355C336.233 41.1827 337.412 40.7168 338.778 39.8859C340.01 39.1367 341.232 38.1377 342.358 37.0427C342.986 36.428 343.585 35.7844 344.131 35.1312C344.366 34.3243 344.49 33.4358 344.629 32.4513C344.658 32.2303 344.692 32.0094 344.725 31.7837C344.404 31.63 344.246 31.1305 344.706 30.8519C346.254 29.9154 346.958 28.513 347.035 27.3843C347.059 27.0337 347.025 26.7168 346.934 26.4574C346.858 26.2365 346.743 26.0684 346.599 25.9723C346.402 25.8379 346.115 25.8331 345.746 25.9964C345.501 26.1068 345.142 25.6409 345.156 25.2855C345.133 25.2423 345.118 25.2039 345.113 25.1655C344.831 22.9274 343.671 21.0591 342.133 19.5847C340.158 17.6924 337.57 16.4389 335.352 15.8625C332.472 21.7171 326.913 24.1857 325.13 24.9734C325.101 24.9878 325.072 24.9926 325.053 24.9974C325.092 27.1202 325.422 30.9528 326.86 34.4012ZM337.115 33.8825C337.077 34.2427 337.144 35.3858 335.606 36.0341C335.639 37.0763 335.035 37.9456 334.235 37.984C333.459 38.0225 332.783 37.2636 332.673 36.2647C331.882 35.9621 331.417 35.3137 331.446 34.7422C331.829 34.8959 332.313 35.0015 332.841 35.0544C333.075 34.5117 333.507 34.1418 334.024 34.1178C334.523 34.0938 334.983 34.4012 335.275 34.8863C336.018 34.7038 336.684 34.3772 337.115 33.8825ZM345.363 27.0289C344.869 27.1538 344.672 26.7168 345.147 26.5583C345.468 26.4478 345.746 26.491 345.962 26.6399C346.134 26.7552 346.263 26.9329 346.34 27.1538C346.412 27.3555 346.441 27.5909 346.422 27.8454C346.369 28.5658 345.933 29.4591 344.979 30.0451C344.62 30.266 344.347 29.8386 344.735 29.5984C345.511 29.1085 345.871 28.3929 345.909 27.8118C345.923 27.6293 345.904 27.4612 345.856 27.3267C345.818 27.2114 345.755 27.1202 345.679 27.0674C345.602 27.0097 345.497 26.9953 345.363 27.0289ZM334.039 25.9003C334.623 27.8982 330.737 29.3871 334.139 31.558C333.147 31.6204 331.815 30.6502 331.753 29.7665C331.619 27.8694 334.005 27.7157 334.039 25.9003ZM330.368 25.8571C329.678 27.5669 327.219 27.2883 327.258 25.2807C327.186 25.2855 326.807 25.3432 326.606 25.2135C327.291 24.0224 328.417 23.715 329.146 23.7535C330.665 23.8399 331.254 25.6794 332.524 25.7706C331.949 25.8907 331.072 25.9867 330.368 25.8571ZM341.931 25.0454C341.395 25.2759 340.551 25.5401 339.837 25.5545C339.497 27.3651 337.034 27.5813 336.674 25.6073C336.607 25.6265 336.243 25.7562 336.023 25.6698C336.459 24.3634 337.499 23.8399 338.222 23.7342C339.727 23.5229 340.666 25.2087 341.931 25.0454Z" fill="#FEFEFE"/>
<path fill-rule="evenodd" clip-rule="evenodd" d="M339.569 41.1923C337.982 42.1576 336.578 42.7004 335.15 42.7676C334.182 42.8108 333.219 42.6379 332.208 42.2297L332.141 43.9683C333.157 45.0729 334.81 45.3083 336.525 45.0633C338.394 44.7944 340.316 43.9587 341.658 43.0077L341.38 39.934C340.786 40.3902 340.177 40.8177 339.569 41.1923Z" fill="#FEFEFE"/>
<path fill-rule="evenodd" clip-rule="evenodd" d="M324.872 79.1197C323.305 79.1821 320.717 79.4367 318.57 80.0562C317.53 80.354 316.615 80.7382 316.02 81.2089C315.565 81.5739 315.321 81.9917 315.417 82.472C315.474 82.7458 315.623 83.058 315.886 83.4086C318.134 86.0981 321.599 85.3969 324.977 84.7101C327.282 84.2442 329.554 83.7784 331.571 84.2731C331.696 83.8216 331.772 83.4374 331.82 83.0916C331.863 82.7842 331.883 82.5008 331.892 82.2175C330.776 81.377 329.932 80.426 329.122 79.5183C328.034 78.2984 327.014 77.1506 325.571 76.6126C324.785 76.3197 323.951 76.1228 323.089 76.0411C322.672 76.0027 322.241 75.9883 321.805 76.0075L323.29 77.6885C323.908 77.6356 324.469 77.602 324.939 77.5828C326.53 77.5348 326.487 79.0573 324.872 79.1197Z" fill="#FEFEFE"/>
<path fill-rule="evenodd" clip-rule="evenodd" d="M316.206 74.4178C317.826 75.5033 319.657 76.7232 321.315 77.9239C321.459 77.9046 321.602 77.8854 321.741 77.8662L314.318 69.4662L312.833 69.5382C312.387 69.764 311.132 70.4796 311.639 71.1279C312.042 71.637 313.916 72.8906 316.206 74.4178Z" fill="#FEFEFE"/>
<path fill-rule="evenodd" clip-rule="evenodd" d="M328.617 85.6515C328.215 85.6899 327.798 85.7475 327.376 85.8148C327.275 86.6361 326.978 87.4045 326.609 88.0721L330.577 87.8752L328.617 85.6515Z" fill="#FEFEFE"/>
<path fill-rule="evenodd" clip-rule="evenodd" d="M307.916 85.8244C307.581 84.9599 306.55 84.1818 305.127 83.3942L308.05 86.2182C308.012 86.0837 307.969 85.954 307.916 85.8244Z" fill="#FEFEFE"/>
<path d="M220.154 160.394L221.206 160.105L220.3 159.497L197.336 144.085L196.173 143.304L196.579 144.645L204.797 171.8L205.09 172.768L205.682 171.947L206.65 170.602L206.65 170.602L206.652 170.598C206.904 170.242 207.156 169.864 207.412 169.48C207.468 169.396 207.524 169.312 207.58 169.227C207.896 168.754 208.223 168.272 208.577 167.793L208.577 167.793L208.583 167.784C209.226 166.875 209.685 166.281 210.47 166.281C211.148 166.281 211.614 166.776 212.238 167.659L212.243 167.666L212.248 167.673L220.347 178.316L220.67 178.74L221.072 178.391L223.612 176.192L223.975 175.878L223.676 175.502L215.11 164.75C215.083 164.71 215.053 164.667 215.023 164.623C214.724 164.193 214.305 163.589 214.47 162.835C214.55 162.516 214.77 162.272 215.077 162.066C215.305 161.912 215.525 161.81 215.739 161.712C215.823 161.673 215.905 161.635 215.987 161.595C216.737 161.344 217.422 161.153 218.061 160.975C218.325 160.902 218.58 160.83 218.83 160.758L220.154 160.394Z" fill="white" stroke="#333333"/>
<g clip-path="url(#clip1_6472_194441)">
<path d="M114.832 25.7583L108.916 29.5165L114.832 33.2748L108.916 37.033L103 33.2544L108.916 29.4962L103 25.7583L108.916 22L114.832 25.7583ZM108.885 38.2417L114.801 34.4835L120.717 38.2417L114.801 42L108.885 38.2417ZM114.832 33.2544L120.748 29.4962L114.832 25.7583L120.717 22L126.633 25.7583L120.717 29.5165L126.633 33.2748L120.717 37.033L114.832 33.2544Z" fill="#0061FF"/>
<path d="M131.274 25.7582H136.058C139.108 25.7582 141.627 27.5155 141.627 31.5277V32.3707C141.627 36.4134 139.271 38.2316 136.15 38.2316H131.274V25.7582ZM133.947 28.0234V35.9563H135.997C137.731 35.9563 138.894 34.8288 138.894 32.32V31.6597C138.894 29.1508 137.67 28.0234 135.905 28.0234H133.947ZM143.045 28.1452H145.187L145.534 30.4916C145.942 28.8969 146.982 28.0437 148.869 28.0437H149.532V30.7354H148.431C146.258 30.7354 145.728 31.487 145.728 33.6201V38.2621H143.086V28.1452H143.045ZM150.063 33.4068V33.1224C150.063 29.74 152.235 27.8913 155.193 27.8913C158.151 27.8913 160.324 29.74 160.324 33.1224V33.4068C160.324 36.7283 158.274 38.516 155.193 38.516C151.919 38.4855 150.063 36.7384 150.063 33.4068ZM157.621 33.3763V33.1224C157.621 31.2433 156.672 30.1158 155.163 30.1158C153.653 30.1158 152.705 31.1518 152.705 33.1224V33.3763C152.705 35.1945 153.653 36.2306 155.163 36.2306C156.672 36.2001 157.621 35.1945 157.621 33.3763ZM161.711 28.1452H163.914L164.169 30.0548C164.7 28.775 165.832 27.8913 167.505 27.8913C170.085 27.8913 171.789 29.74 171.789 33.163V33.4474C171.789 36.7689 169.902 38.5261 167.505 38.5261C165.903 38.5261 164.802 37.805 164.261 36.647V41.7562H161.681L161.711 28.1452ZM169.106 33.3763V33.1529C169.106 31.1417 168.066 30.1463 166.679 30.1463C165.2 30.1463 164.22 31.2737 164.22 33.1529V33.3459C164.22 35.1336 165.169 36.261 166.648 36.261C168.168 36.2306 169.106 35.2656 169.106 33.3763ZM175.695 36.3931L175.471 38.2417H173.207V24.7628H175.787V29.933C176.358 28.6125 177.491 27.8913 179.092 27.8913C181.52 27.9218 183.315 29.5876 183.315 32.9396V33.2544C183.315 36.6064 181.611 38.5261 179.031 38.5261C177.327 38.4855 176.226 37.7034 175.695 36.3931ZM180.602 33.2544V33.0005C180.602 31.1518 179.592 30.1158 178.174 30.1158C176.756 30.1158 175.716 31.2737 175.716 33.031V33.2544C175.716 35.1336 176.695 36.2306 178.143 36.2306C179.694 36.2306 180.602 35.2656 180.602 33.2544ZM184.447 33.4068V33.1224C184.447 29.74 186.62 27.8913 189.578 27.8913C192.536 27.8913 194.708 29.74 194.708 33.1224V33.4068C194.708 36.7283 192.627 38.516 189.578 38.516C186.303 38.4855 184.447 36.7384 184.447 33.4068ZM192.026 33.3763V33.1224C192.026 31.2433 191.077 30.1158 189.567 30.1158C188.058 30.1158 187.109 31.1518 187.109 33.1224V33.3763C187.109 35.1945 188.058 36.2306 189.567 36.2306C191.087 36.2001 192.026 35.1945 192.026 33.3763ZM198.166 33.0005L194.606 28.1452H197.656L199.706 31.1823L201.787 28.1452H204.806L201.195 32.97L205 38.2417H202.011L199.686 34.8898L197.421 38.2417H194.3L198.166 33.0005Z" fill="black"/>
</g>
</g>
<defs>
<linearGradient id="paint0_linear_6472_194441" x1="75.0003" y1="135.219" x2="79.9893" y2="174.616" gradientUnits="userSpaceOnUse">
<stop stop-color="#FF8E3D"/>
<stop offset="1" stop-color="#FF6F3D"/>
</linearGradient>
<linearGradient id="paint1_linear_6472_194441" x1="306.2" y1="42.851" x2="350.64" y2="91.6919" gradientUnits="userSpaceOnUse">
<stop stop-color="#FFC671"/>
<stop offset="1" stop-color="#FF6F3D"/>
</linearGradient>
<clipPath id="clip0_6472_194441">
<rect width="448" height="254" fill="white"/>
</clipPath>
<clipPath id="clip1_6472_194441">
<rect width="102" height="20" fill="white" transform="translate(103 22)"/>
</clipPath>
</defs>
</svg>
