<svg width="448" height="254" viewBox="0 0 448 254" fill="none" xmlns="http://www.w3.org/2000/svg">
<g clip-path="url(#clip0_6502_204407)">
<path d="M225.402 255.553C328.457 255.553 412 254.086 412 252.276C412 250.467 328.457 249 225.402 249C122.346 249 38.8032 250.467 38.8032 252.276C38.8032 254.086 122.346 255.553 225.402 255.553Z" fill="#EFEFEF"/>
<path d="M344.495 15.9962H344.5V15.4962C344.5 11.0438 340.981 7.5 336.544 7.5H51.4555C47.0238 7.5 43.5 11.0436 43.5 15.4962V188V188.5H44H343.995H344.495V188V15.9962Z" fill="#AAAAAA" stroke="#333333"/>
<path d="M50.5 181.5V14.5H337.5V181.5H50.5Z" fill="white" stroke="#333333"/>
<path d="M231 248.5H231.561L231.497 247.943L227.831 215.943L227.78 215.5H227.334H159.4H158.964L158.905 215.932L154.505 247.932L154.427 248.5H155H231Z" fill="#CCCCCC" stroke="#333333"/>
<path d="M43.5 208.442V188.5H344.5V208.442C344.5 212.382 341.396 215.5 337.495 215.5H50.5054C46.5991 215.5 43.5 212.383 43.5 208.442Z" fill="#E2E2E2" stroke="#333333"/>
<path d="M144.333 251.5L154.106 248.5H231.894L241.667 251.5H144.333Z" fill="#E2E2E2" stroke="#333333"/>
<path d="M159.5 91.5V91H159V91.5H159.5ZM159.5 95.5H159V96H159.5V95.5ZM169.5 91.5H170V91H169.5V91.5ZM169.5 95.5V96H170V95.5H169.5ZM170.5 88.5H171V88.293L170.854 88.146L170.5 88.5ZM167.5 85.5L167.854 85.146L167.707 85H167.5V85.5ZM159 91.5V95.5H160V91.5H159ZM159.5 96H160.5V95H159.5V96ZM162 94.5V92.5H161V94.5H162ZM160.5 91H159.5V92H160.5V91ZM162 92.5C162 92.1022 161.842 91.7206 161.561 91.4393C161.279 91.158 160.898 91 160.5 91V92C160.633 92 160.76 92.0527 160.854 92.1464C160.947 92.2402 161 92.3674 161 92.5H162ZM160.5 96C160.898 96 161.279 95.842 161.561 95.5607C161.842 95.2794 162 94.8978 162 94.5H161C161 94.6326 160.947 94.7598 160.854 94.8536C160.76 94.9473 160.633 95 160.5 95V96ZM163 92.5V94.5H164V92.5H163ZM166 94.5V92.5H165V94.5H166ZM166 92.5C166 92.1022 165.842 91.7206 165.561 91.4393C165.279 91.158 164.898 91 164.5 91V92C164.633 92 164.76 92.0527 164.854 92.1464C164.947 92.2402 165 92.3674 165 92.5H166ZM164.5 96C164.898 96 165.279 95.842 165.561 95.5607C165.842 95.2794 166 94.8978 166 94.5H165C165 94.6326 164.947 94.7598 164.854 94.8536C164.76 94.9473 164.633 95 164.5 95V96ZM163 94.5C163 94.8978 163.158 95.2794 163.439 95.5607C163.721 95.842 164.102 96 164.5 96V95C164.367 95 164.24 94.9473 164.146 94.8536C164.053 94.7598 164 94.6326 164 94.5H163ZM164 92.5C164 92.3674 164.053 92.2402 164.146 92.1464C164.24 92.0527 164.367 92 164.5 92V91C164.102 91 163.721 91.158 163.439 91.4393C163.158 91.7206 163 92.1022 163 92.5H164ZM167 91V96H168V91H167ZM167.5 92H169.5V91H167.5V92ZM169 91.5V93H170V91.5H169ZM167.5 96H169.5V95H167.5V96ZM170 95.5V94H169V95.5H170ZM159 90V86.5H158V90H159ZM170 88.5V90H171V88.5H170ZM159.5 86H167.5V85H159.5V86ZM167.146 85.854L170.146 88.854L170.854 88.146L167.854 85.146L167.146 85.854ZM159 86.5C159 86.3674 159.053 86.2402 159.146 86.1464C159.24 86.0527 159.367 86 159.5 86V85C159.102 85 158.721 85.158 158.439 85.4393C158.158 85.7206 158 86.1022 158 86.5H159ZM158 97V98.5H159V97H158ZM159.5 100H169.5V99H159.5V100ZM171 98.5V97H170V98.5H171ZM169.5 100C169.898 100 170.279 99.842 170.561 99.5607C170.842 99.2794 171 98.8978 171 98.5H170C170 98.6326 169.947 98.7598 169.854 98.8536C169.76 98.9473 169.633 99 169.5 99V100ZM158 98.5C158 98.8978 158.158 99.2794 158.439 99.5607C158.721 99.842 159.102 100 159.5 100V99C159.367 99 159.24 98.9473 159.146 98.8536C159.053 98.7598 159 98.6326 159 98.5H158Z" fill="black"/>
<path d="M244.281 252.5L243.909 253.5H141.986L141.677 252.5H244.281Z" fill="#AAAAAA" stroke="#333333"/>
<path d="M199.5 201.497C199.5 204.26 197.259 206.5 194.5 206.5C191.741 206.5 189.5 204.26 189.5 201.497C189.5 198.74 191.74 196.5 194.5 196.5C197.26 196.5 199.5 198.735 199.5 201.497Z" fill="#AAAAAA" stroke="#333333"/>
<g clip-path="url(#clip1_6502_204407)">
<path fill-rule="evenodd" clip-rule="evenodd" d="M51 181H337V15H51V181Z" fill="white"/>
<path d="M324.5 37C324.5 37.8284 323.828 38.5 323 38.5H124C123.172 38.5 122.5 37.8284 122.5 37V28C122.5 27.1716 123.172 26.5 124 26.5H323C323.828 26.5 324.5 27.1716 324.5 28V37Z" stroke="#CCCCCC"/>
<rect width="65" height="25" transform="translate(122 44)" fill="#0061FF"/>
<path d="M135 53H132V56H131V53H128V52H131V49H132V52H135V53Z" fill="white"/>
<rect x="191.5" y="44.5" width="64" height="24" fill="white"/>
<rect x="191.5" y="44.5" width="64" height="24" stroke="#CCCCCC"/>
<path d="M199 54V50.9348L197.925 51.9112L197.312 51.2976L199.5 49L201.688 51.2976L201.075 51.9112L200 50.9348V54H199ZM196.875 56C196.634 56 196.428 55.8703 196.257 55.7047C196.086 55.5391 196 55.3397 196 55.1067V54H197V55H202V54H203V55.1067C203 55.3394 202.914 55.5388 202.743 55.7047C202.572 55.8706 202.366 56.0003 202.125 56H196.875Z" fill="black"/>
<rect x="260.5" y="44.5" width="64" height="24" fill="white"/>
<rect x="260.5" y="44.5" width="64" height="24" stroke="#CCCCCC"/>
<path d="M265.001 55C264.739 55 264.493 55.0039 264.263 54.7812C263.966 54.4961 264.001 54.2497 264.001 54V49C264.001 48.7506 263.998 48.4252 264.208 48.2589C264.413 48.034 264.739 48.0003 265.001 48H268.001L268.501 49H272.001C272.264 49 272.517 48.9766 272.798 49.2227C273.029 49.4531 273.001 49.7509 273.001 50V54C273.001 54.2494 273.032 54.6092 272.802 54.8164C272.575 55.0116 272.264 55.0003 272.001 55H265.001ZM265.001 54H272.001V50H268.001L267.501 49L265.001 49.0043L265.001 54Z" fill="black"/>
<rect width="55" height="166" transform="translate(51 15)" fill="#FBF8F6"/>
<g clip-path="url(#clip2_6502_204407)">
<path d="M66.656 25.4429L62.828 27.8857L66.656 30.3286L62.828 32.7715L59 30.3154L62.828 27.8725L59 25.4429L62.828 23L66.656 25.4429ZM62.8082 33.5571L66.6362 31.1143L70.4642 33.5571L66.6362 36L62.8082 33.5571ZM66.656 30.3154L70.484 27.8725L66.656 25.4429L70.4642 23L74.2922 25.4429L70.4642 27.8857L74.2922 30.3286L70.4642 32.7715L66.656 30.3154Z" fill="#0061FF"/>
</g>
<path fill-rule="evenodd" clip-rule="evenodd" d="M98 46.5C98 46.7761 97.7761 47 97.5 47H59.5C59.2239 47 59 46.7761 59 46.5C59 46.2239 59.2239 46 59.5 46H97.5C97.7761 46 98 46.2239 98 46.5Z" fill="#CCCCCC"/>
<path fill-rule="evenodd" clip-rule="evenodd" d="M98 57.5C98 57.7761 97.7761 58 97.5 58H59.5C59.2239 58 59 57.7761 59 57.5C59 57.2239 59.2239 57 59.5 57H97.5C97.7761 57 98 57.2239 98 57.5Z" fill="#CCCCCC"/>
<path fill-rule="evenodd" clip-rule="evenodd" d="M98 68.5C98 68.7761 97.7761 69 97.5 69H59.5C59.2239 69 59 68.7761 59 68.5C59 68.2239 59.2239 68 59.5 68H97.5C97.7761 68 98 68.2239 98 68.5Z" fill="#CCCCCC"/>
<path fill-rule="evenodd" clip-rule="evenodd" d="M98 79.5C98 79.7761 97.7761 80 97.5 80H59.5C59.2239 80 59 79.7761 59 79.5C59 79.2239 59.2239 79 59.5 79H97.5C97.7761 79 98 79.2239 98 79.5Z" fill="#CCCCCC"/>
<path fill-rule="evenodd" clip-rule="evenodd" d="M98 90.5C98 90.7761 97.7761 91 97.5 91H59.5C59.2239 91 59 90.7761 59 90.5C59 90.2239 59.2239 90 59.5 90H97.5C97.7761 90 98 90.2239 98 90.5Z" fill="#CCCCCC"/>
<line x1="106.5" y1="181" x2="106.5" y2="15" stroke="#E2E2E2"/>
</g>
<path fill-rule="evenodd" clip-rule="evenodd" d="M143 129C143 129.552 142.552 130 142 130H132C131.448 130 131 129.552 131 129V119C131 118.448 131.448 118 132 118H142C142.552 118 143 118.448 143 119V129Z" fill="#EFEFEF"/>
<path fill-rule="evenodd" clip-rule="evenodd" d="M302 124C302 124.552 301.552 125 301 125H149C148.448 125 148 124.552 148 124C148 123.448 148.448 123 149 123H301C301.552 123 302 123.448 302 124Z" fill="#E2E2E2"/>
<path fill-rule="evenodd" clip-rule="evenodd" d="M309 124C309 124.552 308.552 125 308 125C307.448 125 307 124.552 307 124C307 123.448 307.448 123 308 123C308.552 123 309 123.448 309 124Z" fill="#AAAAAA"/>
<path fill-rule="evenodd" clip-rule="evenodd" d="M312 124C312 124.552 311.552 125 311 125C310.448 125 310 124.552 310 124C310 123.448 310.448 123 311 123C311.552 123 312 123.448 312 124Z" fill="#AAAAAA"/>
<path fill-rule="evenodd" clip-rule="evenodd" d="M315 124C315 124.552 314.552 125 314 125C313.448 125 313 124.552 313 124C313 123.448 313.448 123 314 123C314.552 123 315 123.448 315 124Z" fill="#AAAAAA"/>
<path fill-rule="evenodd" clip-rule="evenodd" d="M143 149C143 149.552 142.552 150 142 150H132C131.448 150 131 149.552 131 149V139C131 138.448 131.448 138 132 138H142C142.552 138 143 138.448 143 139V149Z" fill="#EFEFEF"/>
<path fill-rule="evenodd" clip-rule="evenodd" d="M302 144C302 144.552 301.552 145 301 145H149C148.448 145 148 144.552 148 144C148 143.448 148.448 143 149 143H301C301.552 143 302 143.448 302 144Z" fill="#E2E2E2"/>
<path fill-rule="evenodd" clip-rule="evenodd" d="M309 144C309 144.552 308.552 145 308 145C307.448 145 307 144.552 307 144C307 143.448 307.448 143 308 143C308.552 143 309 143.448 309 144Z" fill="#AAAAAA"/>
<path fill-rule="evenodd" clip-rule="evenodd" d="M312 144C312 144.552 311.552 145 311 145C310.448 145 310 144.552 310 144C310 143.448 310.448 143 311 143C311.552 143 312 143.448 312 144Z" fill="#AAAAAA"/>
<path fill-rule="evenodd" clip-rule="evenodd" d="M315 144C315 144.552 314.552 145 314 145C313.448 145 313 144.552 313 144C313 143.448 313.448 143 314 143C314.552 143 315 143.448 315 144Z" fill="#AAAAAA"/>
<path fill-rule="evenodd" clip-rule="evenodd" d="M143 169C143 169.552 142.552 170 142 170H132C131.448 170 131 169.552 131 169V159C131 158.448 131.448 158 132 158H142C142.552 158 143 158.448 143 159V169Z" fill="#EFEFEF"/>
<path fill-rule="evenodd" clip-rule="evenodd" d="M302 164C302 164.552 301.552 165 301 165H149C148.448 165 148 164.552 148 164C148 163.448 148.448 163 149 163H301C301.552 163 302 163.448 302 164Z" fill="#E2E2E2"/>
<path fill-rule="evenodd" clip-rule="evenodd" d="M309 164C309 164.552 308.552 165 308 165C307.448 165 307 164.552 307 164C307 163.448 307.448 163 308 163C308.552 163 309 163.448 309 164Z" fill="#AAAAAA"/>
<path fill-rule="evenodd" clip-rule="evenodd" d="M312 164C312 164.552 311.552 165 311 165C310.448 165 310 164.552 310 164C310 163.448 310.448 163 311 163C311.552 163 312 163.448 312 164Z" fill="#AAAAAA"/>
<path fill-rule="evenodd" clip-rule="evenodd" d="M315 164C315 164.552 314.552 165 314 165C313.448 165 313 164.552 313 164C313 163.448 313.448 163 314 163C314.552 163 315 163.448 315 164Z" fill="#AAAAAA"/>
<g clip-path="url(#clip3_6502_204407)">
<rect x="122" y="79" width="203" height="28" rx="2" fill="#E9F2FF"/>
<path fill-rule="evenodd" clip-rule="evenodd" d="M292 94C292 94.5523 291.552 95 291 95H163C162.448 95 162 94.5523 162 94C162 93.4477 162.448 93 163 93H291C291.552 93 292 93.4477 292 94Z" fill="#666666"/>
<path fill-rule="evenodd" clip-rule="evenodd" d="M299 94C299 94.5523 298.552 95 298 95C297.448 95 297 94.5523 297 94C297 93.4477 297.448 93 298 93C298.552 93 299 93.4477 299 94Z" fill="#666666"/>
<path fill-rule="evenodd" clip-rule="evenodd" d="M302 94C302 94.5523 301.552 95 301 95C300.448 95 300 94.5523 300 94C300 93.4477 300.448 93 301 93C301.552 93 302 93.4477 302 94Z" fill="#666666"/>
<path fill-rule="evenodd" clip-rule="evenodd" d="M305 94C305 94.5523 304.552 95 304 95C303.448 95 303 94.5523 303 94C303 93.4477 303.448 93 304 93C304.552 93 305 93.4477 305 94Z" fill="#666666"/>
<path d="M132.5 92.5V92H132V92.5H132.5ZM132.5 96.5H132V97H132.5V96.5ZM142.5 92.5H143V92H142.5V92.5ZM142.5 96.5V97H143V96.5H142.5ZM143.5 89.5H144V89.293L143.854 89.146L143.5 89.5ZM140.5 86.5L140.854 86.146L140.707 86H140.5V86.5ZM132 92.5V96.5H133V92.5H132ZM132.5 97H133.5V96H132.5V97ZM135 95.5V93.5H134V95.5H135ZM133.5 92H132.5V93H133.5V92ZM135 93.5C135 93.1022 134.842 92.7206 134.561 92.4393C134.279 92.158 133.898 92 133.5 92V93C133.633 93 133.76 93.0527 133.854 93.1464C133.947 93.2402 134 93.3674 134 93.5H135ZM133.5 97C133.898 97 134.279 96.842 134.561 96.5607C134.842 96.2794 135 95.8978 135 95.5H134C134 95.6326 133.947 95.7598 133.854 95.8536C133.76 95.9473 133.633 96 133.5 96V97ZM136 93.5V95.5H137V93.5H136ZM139 95.5V93.5H138V95.5H139ZM139 93.5C139 93.1022 138.842 92.7206 138.561 92.4393C138.279 92.158 137.898 92 137.5 92V93C137.633 93 137.76 93.0527 137.854 93.1464C137.947 93.2402 138 93.3674 138 93.5H139ZM137.5 97C137.898 97 138.279 96.842 138.561 96.5607C138.842 96.2794 139 95.8978 139 95.5H138C138 95.6326 137.947 95.7598 137.854 95.8536C137.76 95.9473 137.633 96 137.5 96V97ZM136 95.5C136 95.8978 136.158 96.2794 136.439 96.5607C136.721 96.842 137.102 97 137.5 97V96C137.367 96 137.24 95.9473 137.146 95.8536C137.053 95.7598 137 95.6326 137 95.5H136ZM137 93.5C137 93.3674 137.053 93.2402 137.146 93.1464C137.24 93.0527 137.367 93 137.5 93V92C137.102 92 136.721 92.158 136.439 92.4393C136.158 92.7206 136 93.1022 136 93.5H137ZM140 92V97H141V92H140ZM140.5 93H142.5V92H140.5V93ZM142 92.5V94H143V92.5H142ZM140.5 97H142.5V96H140.5V97ZM143 96.5V95H142V96.5H143ZM132 91V87.5H131V91H132ZM143 89.5V91H144V89.5H143ZM132.5 87H140.5V86H132.5V87ZM140.146 86.854L143.146 89.854L143.854 89.146L140.854 86.146L140.146 86.854ZM132 87.5C132 87.3674 132.053 87.2402 132.146 87.1464C132.24 87.0527 132.367 87 132.5 87V86C132.102 86 131.721 86.158 131.439 86.4393C131.158 86.7206 131 87.1022 131 87.5H132ZM131 98V99.5H132V98H131ZM132.5 101H142.5V100H132.5V101ZM144 99.5V98H143V99.5H144ZM142.5 101C142.898 101 143.279 100.842 143.561 100.561C143.842 100.279 144 99.8978 144 99.5H143C143 99.6326 142.947 99.7598 142.854 99.8536C142.76 99.9473 142.633 100 142.5 100V101ZM131 99.5C131 99.8978 131.158 100.279 131.439 100.561C131.721 100.842 132.102 101 132.5 101V100C132.367 100 132.24 99.9473 132.146 99.8536C132.053 99.7598 132 99.6326 132 99.5H131Z" fill="#446995"/>
</g>
<g filter="url(#filter0_d_6502_204407)">
<rect x="198" y="88" width="107" height="144" rx="4" fill="white"/>
<rect x="197.5" y="87.5" width="108" height="145" rx="4.5" stroke="#AAAAAA"/>
<path fill-rule="evenodd" clip-rule="evenodd" d="M288 106C288 107.105 287.105 108 286 108H217C215.895 108 215 107.105 215 106C215 104.895 215.895 104 217 104H286C287.105 104 288 104.895 288 106Z" fill="#E2E2E2"/>
<path fill-rule="evenodd" clip-rule="evenodd" d="M288 120C288 121.105 287.105 122 286 122H217C215.895 122 215 121.105 215 120C215 118.895 215.895 118 217 118H286C287.105 118 288 118.895 288 120Z" fill="#E2E2E2"/>
<path fill-rule="evenodd" clip-rule="evenodd" d="M288 134C288 135.105 287.105 136 286 136H217C215.895 136 215 135.105 215 134C215 132.895 215.895 132 217 132H286C287.105 132 288 132.895 288 134Z" fill="#E2E2E2"/>
<rect width="107" height="28" transform="translate(198 146)" fill="#F3F0EE"/>
<path d="M224.186 159.989C224.186 160.759 224.088 161.461 223.892 162.095C223.7 162.724 223.411 163.266 223.023 163.722C222.636 164.173 222.151 164.521 221.567 164.768C220.984 165.014 220.3 165.137 219.517 165.137C218.719 165.137 218.026 165.014 217.438 164.768C216.855 164.521 216.37 164.171 215.982 163.715C215.6 163.259 215.312 162.715 215.121 162.081C214.93 161.448 214.834 160.746 214.834 159.976C214.834 158.946 215.003 158.048 215.34 157.282C215.682 156.512 216.199 155.915 216.892 155.491C217.589 155.063 218.468 154.849 219.53 154.849C220.569 154.849 221.433 155.061 222.121 155.484C222.809 155.908 223.324 156.505 223.666 157.275C224.012 158.041 224.186 158.946 224.186 159.989ZM216.557 159.989C216.557 160.759 216.661 161.427 216.871 161.992C217.081 162.553 217.402 162.986 217.835 163.291C218.272 163.592 218.833 163.742 219.517 163.742C220.205 163.742 220.765 163.592 221.198 163.291C221.631 162.986 221.95 162.553 222.155 161.992C222.36 161.427 222.463 160.759 222.463 159.989C222.463 158.818 222.228 157.902 221.759 157.241C221.294 156.576 220.551 156.243 219.53 156.243C218.847 156.243 218.284 156.394 217.842 156.694C217.404 156.995 217.081 157.426 216.871 157.986C216.661 158.542 216.557 159.21 216.557 159.989ZM230.051 157.289C230.949 157.289 231.669 157.617 232.211 158.273C232.758 158.93 233.031 159.905 233.031 161.199C233.031 162.056 232.904 162.778 232.648 163.366C232.398 163.95 232.045 164.392 231.589 164.692C231.138 164.989 230.611 165.137 230.01 165.137C229.627 165.137 229.294 165.087 229.012 164.986C228.729 164.886 228.488 164.756 228.287 164.597C228.087 164.433 227.918 164.255 227.781 164.063H227.686C227.708 164.246 227.729 164.449 227.747 164.672C227.77 164.891 227.781 165.091 227.781 165.273V168.356H226.168V157.433H227.48L227.706 158.479H227.781C227.923 158.264 228.093 158.066 228.294 157.884C228.499 157.701 228.745 157.558 229.032 157.453C229.324 157.344 229.663 157.289 230.051 157.289ZM229.62 158.602C229.178 158.602 228.823 158.69 228.554 158.868C228.289 159.041 228.096 159.303 227.973 159.654C227.854 160.005 227.79 160.445 227.781 160.974V161.199C227.781 161.76 227.838 162.236 227.952 162.628C228.071 163.015 228.264 163.312 228.533 163.517C228.807 163.717 229.176 163.817 229.641 163.817C230.033 163.817 230.356 163.71 230.611 163.496C230.871 163.282 231.065 162.977 231.192 162.58C231.32 162.184 231.384 161.716 231.384 161.179C231.384 160.363 231.238 159.729 230.946 159.278C230.659 158.827 230.217 158.602 229.62 158.602ZM237.905 157.289C238.58 157.289 239.159 157.428 239.642 157.706C240.125 157.984 240.496 158.378 240.756 158.889C241.016 159.399 241.146 160.01 241.146 160.721V161.582H236.094C236.112 162.316 236.308 162.881 236.682 163.277C237.06 163.674 237.589 163.872 238.268 163.872C238.751 163.872 239.184 163.826 239.566 163.735C239.954 163.64 240.353 163.501 240.763 163.318V164.624C240.384 164.802 239.999 164.932 239.607 165.014C239.215 165.096 238.746 165.137 238.199 165.137C237.456 165.137 236.802 164.993 236.237 164.706C235.677 164.414 235.237 163.981 234.918 163.407C234.604 162.833 234.446 162.12 234.446 161.268C234.446 160.42 234.59 159.7 234.877 159.107C235.164 158.515 235.567 158.064 236.087 157.754C236.606 157.444 237.213 157.289 237.905 157.289ZM237.905 158.499C237.399 158.499 236.989 158.663 236.675 158.991C236.365 159.319 236.183 159.8 236.128 160.434H239.573C239.569 160.055 239.505 159.72 239.382 159.429C239.263 159.137 239.081 158.909 238.835 158.745C238.593 158.581 238.284 158.499 237.905 158.499ZM246.901 157.289C247.754 157.289 248.417 157.51 248.891 157.952C249.369 158.39 249.608 159.094 249.608 160.064V165H248.002V160.365C248.002 159.777 247.881 159.338 247.64 159.046C247.398 158.75 247.024 158.602 246.519 158.602C245.785 158.602 245.274 158.827 244.987 159.278C244.705 159.729 244.563 160.383 244.563 161.24V165H242.957V157.433H244.208L244.434 158.458H244.522C244.687 158.194 244.889 157.977 245.131 157.809C245.377 157.635 245.65 157.506 245.951 157.419C246.257 157.332 246.573 157.289 246.901 157.289ZM257.101 157.433V165H255.494V157.433H257.101ZM256.308 154.534C256.554 154.534 256.766 154.6 256.943 154.732C257.126 154.865 257.217 155.092 257.217 155.416C257.217 155.735 257.126 155.963 256.943 156.1C256.766 156.232 256.554 156.298 256.308 156.298C256.052 156.298 255.836 156.232 255.658 156.1C255.485 155.963 255.398 155.735 255.398 155.416C255.398 155.092 255.485 154.865 255.658 154.732C255.836 154.6 256.052 154.534 256.308 154.534ZM263.349 157.289C264.201 157.289 264.864 157.51 265.338 157.952C265.816 158.39 266.056 159.094 266.056 160.064V165H264.449V160.365C264.449 159.777 264.328 159.338 264.087 159.046C263.845 158.75 263.472 158.602 262.966 158.602C262.232 158.602 261.722 158.827 261.435 159.278C261.152 159.729 261.011 160.383 261.011 161.24V165H259.404V157.433H260.655L260.881 158.458H260.97C261.134 158.194 261.337 157.977 261.578 157.809C261.824 157.635 262.098 157.506 262.398 157.419C262.704 157.332 263.021 157.289 263.349 157.289Z" fill="#333333"/>
<path d="M286 157L289 160L286 163" stroke="#333333" stroke-width="2" stroke-linecap="round"/>
<path fill-rule="evenodd" clip-rule="evenodd" d="M288 186C288 187.105 287.105 188 286 188H217C215.895 188 215 187.105 215 186C215 184.895 215.895 184 217 184H286C287.105 184 288 184.895 288 186Z" fill="#E2E2E2"/>
<path fill-rule="evenodd" clip-rule="evenodd" d="M288 200C288 201.105 287.105 202 286 202H217C215.895 202 215 201.105 215 200C215 198.895 215.895 198 217 198H286C287.105 198 288 198.895 288 200Z" fill="#E2E2E2"/>
<path fill-rule="evenodd" clip-rule="evenodd" d="M288 214C288 215.105 287.105 216 286 216H217C215.895 216 215 215.105 215 214C215 212.895 215.895 212 217 212H286C287.105 212 288 212.895 288 214Z" fill="#E2E2E2"/>
</g>
<g filter="url(#filter1_d_6502_204407)">
<rect x="293" y="169.341" width="145.046" height="34.6587" rx="2" fill="white"/>
<rect x="292.5" y="168.841" width="146.046" height="35.6587" rx="2.5" stroke="#AAAAAA"/>
<g clip-path="url(#clip4_6502_204407)">
<path fill-rule="evenodd" clip-rule="evenodd" d="M312.481 186.489L319.276 183.653C319.841 183.411 319.868 182.986 319.317 182.727L312.634 179.601C312.305 179.444 311.831 179.367 311.381 179.382C311.083 179.393 310.797 179.446 310.571 179.541L309.967 179.794L303.776 182.377C303.211 182.619 303.183 183.044 303.732 183.304L306.73 184.707L307.518 185.076L310.414 186.43C310.884 186.703 311.831 186.743 312.481 186.489Z" fill="#5DC0E8"/>
<path fill-rule="evenodd" clip-rule="evenodd" d="M315.008 186.122L313.827 186.608L312.487 187.158C311.922 187.4 310.975 187.36 310.424 187.098L307.2 185.564L306.414 185.189L306.026 185.004L303.678 185.988C303.114 186.23 303.086 186.654 303.635 186.914L304.875 187.494L305.666 187.862L310.32 190.037C310.526 190.134 310.775 190.205 311.047 190.236C311.442 190.285 311.879 190.261 312.288 190.141C312.349 190.124 312.407 190.105 312.465 190.083L312.633 190.013L313.471 189.663L319.26 187.247C319.825 187.005 319.852 186.58 319.304 186.321L317.019 185.285L315.008 186.122Z" fill="#95C038"/>
<path fill-rule="evenodd" clip-rule="evenodd" d="M316.758 188.929L313.534 190.271L312.701 190.616L312.306 190.779C312.1 190.869 311.842 190.921 311.571 190.934C311.202 190.955 310.811 190.912 310.489 190.814C310.402 190.786 310.32 190.755 310.243 190.72L305.939 188.701L304.674 189.232L303.592 189.687C303.551 189.704 303.514 189.723 303.476 189.742C303.457 189.753 303.439 189.764 303.42 189.775C303.026 190.023 303.061 190.383 303.548 190.614L303.6 190.638L308.205 192.791L309.083 193.202L310.234 193.74C310.785 194.002 311.647 194.053 312.212 193.811L313.064 193.457L313.891 193.112L316.919 191.848L319.01 190.974C319.263 190.867 319.407 190.721 319.441 190.572C319.484 190.386 319.356 190.191 319.052 190.048L316.758 188.929Z" fill="#FF6F3D"/>
</g>
<path d="M332.777 187.376C332.777 188.036 332.693 188.637 332.525 189.18C332.361 189.719 332.113 190.184 331.781 190.575C331.449 190.962 331.033 191.26 330.533 191.471C330.033 191.682 329.447 191.788 328.775 191.788C328.091 191.788 327.498 191.682 326.994 191.471C326.494 191.26 326.078 190.96 325.746 190.569C325.417 190.178 325.171 189.712 325.007 189.169C324.843 188.626 324.761 188.024 324.761 187.364C324.761 186.481 324.906 185.712 325.195 185.055C325.488 184.395 325.931 183.884 326.525 183.52C327.123 183.153 327.876 182.969 328.787 182.969C329.677 182.969 330.417 183.151 331.007 183.514C331.597 183.878 332.039 184.389 332.332 185.05C332.628 185.706 332.777 186.481 332.777 187.376ZM326.238 187.376C326.238 188.036 326.328 188.608 326.507 189.093C326.687 189.573 326.962 189.944 327.333 190.206C327.708 190.464 328.189 190.593 328.775 190.593C329.365 190.593 329.845 190.464 330.216 190.206C330.587 189.944 330.861 189.573 331.037 189.093C331.212 188.608 331.3 188.036 331.3 187.376C331.3 186.372 331.099 185.587 330.697 185.02C330.298 184.45 329.662 184.165 328.787 184.165C328.201 184.165 327.718 184.294 327.339 184.552C326.964 184.809 326.687 185.178 326.507 185.659C326.328 186.135 326.238 186.708 326.238 187.376ZM341.765 191.671H340.037L335.841 184.833H335.789C335.804 185.063 335.818 185.307 335.83 185.565C335.845 185.823 335.857 186.089 335.865 186.362C335.876 186.635 335.886 186.913 335.894 187.194V191.671H334.617V183.104H336.333L340.523 189.895H340.564C340.556 189.696 340.546 189.468 340.535 189.21C340.523 188.952 340.511 188.686 340.5 188.413C340.492 188.135 340.486 187.868 340.482 187.61V183.104H341.765V191.671ZM344.015 191.671V183.104H345.421V190.475H349.06V191.671H344.015ZM352.968 187.012L355.001 183.104H356.519L353.671 188.343V191.671H352.271V188.395L349.417 183.104H350.947L352.968 187.012ZM365.25 187.376C365.25 188.036 365.166 188.637 364.998 189.18C364.833 189.719 364.585 190.184 364.253 190.575C363.921 190.962 363.505 191.26 363.005 191.471C362.505 191.682 361.919 191.788 361.248 191.788C360.564 191.788 359.97 191.682 359.466 191.471C358.966 191.26 358.55 190.96 358.218 190.569C357.89 190.178 357.644 189.712 357.48 189.169C357.316 188.626 357.234 188.024 357.234 187.364C357.234 186.481 357.378 185.712 357.667 185.055C357.96 184.395 358.404 183.884 358.998 183.52C359.595 183.153 360.349 182.969 361.259 182.969C362.15 182.969 362.89 183.151 363.48 183.514C364.07 183.878 364.511 184.389 364.804 185.05C365.101 185.706 365.25 186.481 365.25 187.376ZM358.71 187.376C358.71 188.036 358.8 188.608 358.98 189.093C359.16 189.573 359.435 189.944 359.806 190.206C360.181 190.464 360.662 190.593 361.248 190.593C361.837 190.593 362.318 190.464 362.689 190.206C363.06 189.944 363.333 189.573 363.509 189.093C363.685 188.608 363.773 188.036 363.773 187.376C363.773 186.372 363.572 185.587 363.169 185.02C362.771 184.45 362.134 184.165 361.259 184.165C360.673 184.165 360.191 184.294 359.812 184.552C359.437 184.809 359.16 185.178 358.98 185.659C358.8 186.135 358.71 186.708 358.71 187.376ZM368.484 191.671H367.089V183.104H371.929V184.288H368.484V186.96H371.707V188.137H368.484V191.671ZM374.882 191.671H373.488V183.104H378.328V184.288H374.882V186.96H378.105V188.137H374.882V191.671ZM379.886 191.671V183.104H381.292V191.671H379.886ZM387.205 184.177C386.794 184.177 386.427 184.251 386.103 184.399C385.783 184.548 385.511 184.762 385.289 185.044C385.066 185.321 384.896 185.659 384.779 186.057C384.662 186.452 384.603 186.897 384.603 187.393C384.603 188.057 384.697 188.63 384.884 189.11C385.072 189.587 385.357 189.954 385.74 190.212C386.123 190.466 386.607 190.593 387.193 190.593C387.556 190.593 387.91 190.557 388.253 190.487C388.597 190.417 388.953 190.321 389.32 190.2V191.395C388.972 191.532 388.621 191.632 388.265 191.694C387.91 191.757 387.5 191.788 387.035 191.788C386.16 191.788 385.433 191.606 384.855 191.243C384.281 190.88 383.851 190.368 383.566 189.708C383.285 189.048 383.144 188.274 383.144 187.387C383.144 186.739 383.234 186.145 383.414 185.606C383.593 185.067 383.855 184.602 384.199 184.212C384.542 183.817 384.966 183.514 385.47 183.303C385.978 183.089 386.558 182.981 387.21 182.981C387.64 182.981 388.062 183.03 388.476 183.128C388.894 183.221 389.281 183.356 389.636 183.532L389.144 184.692C388.847 184.552 388.537 184.43 388.212 184.329C387.888 184.227 387.552 184.177 387.205 184.177ZM396.011 191.671H391.16V183.104H396.011V184.288H392.566V186.614H395.794V187.792H392.566V190.481H396.011V191.671ZM407.935 187.305C407.935 188.27 407.755 189.077 407.396 189.725C407.037 190.37 406.515 190.856 405.832 191.184C405.148 191.509 404.324 191.671 403.359 191.671H400.98V183.104H403.617C404.503 183.104 405.269 183.264 405.914 183.585C406.558 183.901 407.056 184.372 407.408 184.997C407.759 185.618 407.935 186.387 407.935 187.305ZM406.47 187.346C406.47 186.643 406.359 186.065 406.136 185.612C405.917 185.159 405.593 184.823 405.164 184.604C404.738 184.382 404.212 184.27 403.587 184.27H402.386V190.493H403.382C404.417 190.493 405.191 190.229 405.703 189.702C406.214 189.175 406.47 188.389 406.47 187.346ZM415.382 188.413C415.382 188.952 415.312 189.43 415.171 189.848C415.031 190.266 414.826 190.62 414.556 190.909C414.287 191.194 413.962 191.413 413.583 191.565C413.205 191.714 412.777 191.788 412.3 191.788C411.855 191.788 411.447 191.714 411.076 191.565C410.705 191.413 410.382 191.194 410.109 190.909C409.839 190.62 409.63 190.266 409.482 189.848C409.333 189.43 409.259 188.952 409.259 188.413C409.259 187.698 409.382 187.093 409.628 186.596C409.878 186.096 410.234 185.716 410.695 185.454C411.156 185.192 411.705 185.061 412.341 185.061C412.939 185.061 413.466 185.192 413.923 185.454C414.38 185.716 414.738 186.096 414.996 186.596C415.253 187.096 415.382 187.702 415.382 188.413ZM410.677 188.413C410.677 188.885 410.734 189.29 410.847 189.626C410.964 189.962 411.144 190.219 411.386 190.399C411.628 190.575 411.941 190.663 412.324 190.663C412.707 190.663 413.019 190.575 413.261 190.399C413.503 190.219 413.681 189.962 413.794 189.626C413.908 189.29 413.964 188.885 413.964 188.413C413.964 187.94 413.908 187.54 413.794 187.212C413.681 186.88 413.503 186.628 413.261 186.456C413.019 186.28 412.705 186.192 412.318 186.192C411.748 186.192 411.332 186.384 411.07 186.766C410.808 187.149 410.677 187.698 410.677 188.413ZM419.578 191.788C418.964 191.788 418.433 191.669 417.984 191.43C417.535 191.192 417.189 190.827 416.947 190.335C416.705 189.843 416.583 189.218 416.583 188.46C416.583 187.671 416.716 187.026 416.982 186.526C417.248 186.026 417.615 185.657 418.083 185.419C418.556 185.18 419.097 185.061 419.707 185.061C420.093 185.061 420.443 185.1 420.755 185.178C421.072 185.253 421.339 185.344 421.558 185.454L421.148 186.555C420.91 186.458 420.666 186.376 420.416 186.309C420.166 186.243 419.925 186.21 419.695 186.21C419.316 186.21 419 186.294 418.746 186.462C418.496 186.63 418.308 186.88 418.183 187.212C418.062 187.544 418.001 187.956 418.001 188.448C418.001 188.925 418.064 189.327 418.189 189.655C418.314 189.979 418.5 190.225 418.746 190.393C418.992 190.557 419.294 190.639 419.654 190.639C420.009 190.639 420.328 190.596 420.609 190.51C420.89 190.425 421.156 190.313 421.406 190.177V191.372C421.16 191.512 420.896 191.616 420.615 191.682C420.333 191.753 419.988 191.788 419.578 191.788ZM427.289 189.819C427.289 190.245 427.185 190.604 426.978 190.897C426.771 191.19 426.468 191.413 426.07 191.565C425.675 191.714 425.191 191.788 424.617 191.788C424.164 191.788 423.773 191.755 423.445 191.688C423.121 191.626 422.814 191.528 422.525 191.395V190.206C422.833 190.35 423.179 190.475 423.562 190.581C423.949 190.686 424.314 190.739 424.658 190.739C425.111 190.739 425.437 190.669 425.636 190.528C425.835 190.384 425.935 190.192 425.935 189.954C425.935 189.813 425.894 189.688 425.812 189.579C425.734 189.466 425.585 189.35 425.367 189.233C425.152 189.112 424.835 188.968 424.417 188.8C424.007 188.635 423.662 188.471 423.38 188.307C423.099 188.143 422.886 187.946 422.742 187.716C422.597 187.481 422.525 187.182 422.525 186.819C422.525 186.245 422.751 185.809 423.205 185.512C423.662 185.212 424.265 185.061 425.015 185.061C425.414 185.061 425.789 185.102 426.14 185.184C426.496 185.262 426.843 185.378 427.183 185.53L426.75 186.567C426.457 186.438 426.162 186.333 425.865 186.251C425.572 186.165 425.273 186.122 424.968 186.122C424.613 186.122 424.341 186.177 424.154 186.286C423.97 186.395 423.878 186.552 423.878 186.755C423.878 186.907 423.923 187.036 424.013 187.141C424.103 187.247 424.257 187.352 424.476 187.458C424.699 187.563 425.007 187.694 425.402 187.85C425.789 187.999 426.123 188.155 426.404 188.319C426.689 188.479 426.908 188.677 427.06 188.911C427.212 189.145 427.289 189.448 427.289 189.819Z" fill="#333333"/>
</g>
</g>
<defs>
<filter id="filter0_d_6502_204407" x="182" y="79" width="139" height="176" filterUnits="userSpaceOnUse" color-interpolation-filters="sRGB">
<feFlood flood-opacity="0" result="BackgroundImageFix"/>
<feColorMatrix in="SourceAlpha" type="matrix" values="0 0 0 0 0 0 0 0 0 0 0 0 0 0 0 0 0 0 127 0" result="hardAlpha"/>
<feOffset dy="7"/>
<feGaussianBlur stdDeviation="7.5"/>
<feColorMatrix type="matrix" values="0 0 0 0 0.333333 0 0 0 0 0.333333 0 0 0 0 0.333333 0 0 0 0.1 0"/>
<feBlend mode="normal" in2="BackgroundImageFix" result="effect1_dropShadow_6502_204407"/>
<feBlend mode="normal" in="SourceGraphic" in2="effect1_dropShadow_6502_204407" result="shape"/>
</filter>
<filter id="filter1_d_6502_204407" x="277" y="160.341" width="177.046" height="66.6587" filterUnits="userSpaceOnUse" color-interpolation-filters="sRGB">
<feFlood flood-opacity="0" result="BackgroundImageFix"/>
<feColorMatrix in="SourceAlpha" type="matrix" values="0 0 0 0 0 0 0 0 0 0 0 0 0 0 0 0 0 0 127 0" result="hardAlpha"/>
<feOffset dy="7"/>
<feGaussianBlur stdDeviation="7.5"/>
<feColorMatrix type="matrix" values="0 0 0 0 0.333333 0 0 0 0 0.333333 0 0 0 0 0.333333 0 0 0 0.1 0"/>
<feBlend mode="normal" in2="BackgroundImageFix" result="effect1_dropShadow_6502_204407"/>
<feBlend mode="normal" in="SourceGraphic" in2="effect1_dropShadow_6502_204407" result="shape"/>
</filter>
<clipPath id="clip0_6502_204407">
<rect width="448" height="254" fill="white"/>
</clipPath>
<clipPath id="clip1_6502_204407">
<rect width="286" height="166" fill="white" transform="translate(51 15)"/>
</clipPath>
<clipPath id="clip2_6502_204407">
<rect width="16" height="13" fill="white" transform="translate(59 23)"/>
</clipPath>
<clipPath id="clip3_6502_204407">
<rect x="122" y="79" width="203" height="28" rx="2" fill="white"/>
</clipPath>
<clipPath id="clip4_6502_204407">
<rect width="17.0464" height="16.6587" fill="white" transform="translate(303 178.341)"/>
</clipPath>
</defs>
</svg>
