<svg width="448" height="254" viewBox="0 0 448 254" fill="none" xmlns="http://www.w3.org/2000/svg">
<g clip-path="url(#clip0_6472_194601)">
<g clip-path="url(#clip1_6472_194601)">
<path d="M221.931 254.022C332.182 254.022 421.559 251.884 421.559 249.246C421.559 246.608 332.182 244.469 221.931 244.469C111.68 244.469 22.3032 246.608 22.3032 249.246C22.3032 251.884 111.68 254.022 221.931 254.022Z" fill="#EFEFEF"/>
<path d="M306.995 16.4654H307V15.9654C307 11.513 303.481 7.96924 299.044 7.96924H13.9555C9.52379 7.96924 6 11.5128 6 15.9654V188.469V188.969H6.5H306.495H306.995V188.469V16.4654Z" fill="#AAAAAA" stroke="#333333"/>
<path d="M13 181.969V14.9692H300V181.969H13Z" fill="white" stroke="#333333"/>
<path d="M193.5 248.969H194.061L193.997 248.412L190.331 216.412L190.28 215.969H189.834H121.9H121.464L121.405 216.401L117.005 248.401L116.927 248.969H117.5H193.5Z" fill="#CCCCCC" stroke="#333333"/>
<path d="M6 208.911V188.969H307V208.911C307 212.852 303.896 215.969 299.995 215.969H13.0054C9.09909 215.969 6 212.852 6 208.911Z" fill="#E2E2E2" stroke="#333333"/>
<path d="M106.833 251.969L116.606 248.969H194.394L204.167 251.969H106.833Z" fill="#E2E2E2" stroke="#333333"/>
<path d="M206.781 252.969L206.409 253.969H104.486L104.177 252.969H206.781Z" fill="#AAAAAA" stroke="#333333"/>
<path d="M162 201.967C162 204.73 159.759 206.969 157 206.969C154.241 206.969 152 204.73 152 201.967C152 199.209 154.24 196.969 157 196.969C159.76 196.969 162 199.204 162 201.967Z" fill="#AAAAAA" stroke="#333333"/>
<path fill-rule="evenodd" clip-rule="evenodd" d="M338.381 78.2228C338.915 78.2228 339.352 77.786 339.352 77.2531C339.352 76.7203 338.915 76.2834 338.381 76.2834C337.848 76.2834 337.411 76.7203 337.411 77.2531C337.416 77.7908 337.848 78.2228 338.381 78.2228Z" fill="#FEFEFE"/>
<path fill-rule="evenodd" clip-rule="evenodd" d="M240.5 111.969C240.5 112.245 240.276 112.469 240 112.469H59C58.7239 112.469 58.5 112.245 58.5 111.969C58.5 111.693 58.7239 111.469 59 111.469H240C240.276 111.469 240.5 111.693 240.5 111.969Z" fill="#CCCCCC"/>
<path fill-rule="evenodd" clip-rule="evenodd" d="M97 126.469C97 127.022 96.5523 127.469 96 127.469H59.5C58.9477 127.469 58.5 127.022 58.5 126.469C58.5 125.917 58.9477 125.469 59.5 125.469H96C96.5523 125.469 97 125.917 97 126.469Z" fill="#EFEFEF"/>
<path fill-rule="evenodd" clip-rule="evenodd" d="M97 136.469C97 137.022 96.5523 137.469 96 137.469H59.5C58.9477 137.469 58.5 137.022 58.5 136.469C58.5 135.917 58.9477 135.469 59.5 135.469H96C96.5523 135.469 97 135.917 97 136.469Z" fill="#EFEFEF"/>
<path fill-rule="evenodd" clip-rule="evenodd" d="M97 145.469C97 146.022 96.5523 146.469 96 146.469H59.5C58.9477 146.469 58.5 146.022 58.5 145.469C58.5 144.917 58.9477 144.469 59.5 144.469H96C96.5523 144.469 97 144.917 97 145.469Z" fill="#EFEFEF"/>
<path fill-rule="evenodd" clip-rule="evenodd" d="M97 165.469C97 166.022 96.5523 166.469 96 166.469H59.5C58.9477 166.469 58.5 166.022 58.5 165.469C58.5 164.917 58.9477 164.469 59.5 164.469H96C96.5523 164.469 97 164.917 97 165.469Z" fill="#EFEFEF"/>
<path fill-rule="evenodd" clip-rule="evenodd" d="M97 155.469C97 156.022 96.5523 156.469 96 156.469H59.5C58.9477 156.469 58.5 156.022 58.5 155.469C58.5 154.917 58.9477 154.469 59.5 154.469H96C96.5523 154.469 97 154.917 97 155.469Z" fill="#EFEFEF"/>
<path fill-rule="evenodd" clip-rule="evenodd" d="M234.5 126.469C234.5 127.574 233.605 128.469 232.5 128.469H123.5C122.395 128.469 121.5 127.574 121.5 126.469C121.5 125.365 122.395 124.469 123.5 124.469H232.5C233.605 124.469 234.5 125.365 234.5 126.469Z" fill="#E2E2E2"/>
<path fill-rule="evenodd" clip-rule="evenodd" d="M171.5 136.469C171.5 137.022 171.052 137.469 170.5 137.469H122.5C121.948 137.469 121.5 137.022 121.5 136.469C121.5 135.917 121.948 135.469 122.5 135.469H170.5C171.052 135.469 171.5 135.917 171.5 136.469Z" fill="#EFEFEF"/>
<path fill-rule="evenodd" clip-rule="evenodd" d="M231.5 145.469C231.5 146.022 231.052 146.469 230.5 146.469H122.5C121.948 146.469 121.5 146.022 121.5 145.469C121.5 144.917 121.948 144.469 122.5 144.469H230.5C231.052 144.469 231.5 144.917 231.5 145.469Z" fill="#EFEFEF"/>
<path fill-rule="evenodd" clip-rule="evenodd" d="M208.5 155.469C208.5 156.022 208.052 156.469 207.5 156.469H122.5C121.948 156.469 121.5 156.022 121.5 155.469C121.5 154.917 121.948 154.469 122.5 154.469H207.5C208.052 154.469 208.5 154.917 208.5 155.469Z" fill="#EFEFEF"/>
<path fill-rule="evenodd" clip-rule="evenodd" d="M224.5 165.469C224.5 166.022 224.052 166.469 223.5 166.469H122.5C121.948 166.469 121.5 166.022 121.5 165.469C121.5 164.917 121.948 164.469 122.5 164.469H223.5C224.052 164.469 224.5 164.917 224.5 165.469Z" fill="#EFEFEF"/>
<path fill-rule="evenodd" clip-rule="evenodd" d="M162.5 68.353C162.5 69.4576 161.605 70.353 160.5 70.353H111.5C110.395 70.353 109.5 69.4576 109.5 68.353C109.5 67.2485 110.395 66.353 111.5 66.353H160.5C161.605 66.353 162.5 67.2485 162.5 68.353Z" fill="#E2E2E2"/>
<path fill-rule="evenodd" clip-rule="evenodd" d="M208.5 67.4692C208.5 70.2307 210.739 72.4692 213.5 72.4692H232.25C235.011 72.4692 237.25 70.2307 237.25 67.4692C237.25 64.7078 235.011 62.4692 232.25 62.4692H213.5C210.739 62.4692 208.5 64.7078 208.5 67.4692Z" fill="#0B5CFF"/>
<path fill-rule="evenodd" clip-rule="evenodd" d="M132.5 81.4692C132.5 82.0215 132.052 82.4692 131.5 82.4692H110.5C109.948 82.4692 109.5 82.0215 109.5 81.4692C109.5 80.917 109.948 80.4692 110.5 80.4692H131.5C132.052 80.4692 132.5 80.917 132.5 81.4692Z" fill="#E2E2E2"/>
<path fill-rule="evenodd" clip-rule="evenodd" d="M182.5 89.4692C182.5 90.0215 182.052 90.4692 181.5 90.4692H110.5C109.948 90.4692 109.5 90.0215 109.5 89.4692C109.5 88.917 109.948 88.4692 110.5 88.4692H181.5C182.052 88.4692 182.5 88.917 182.5 89.4692Z" fill="#E2E2E2"/>
<path d="M86.5 57.9692H72.5C65.0442 57.9692 59 64.0134 59 71.4692V85.4692C59 92.9251 65.0442 98.9692 72.5 98.9692H86.5C93.9558 98.9692 100 92.9251 100 85.4692V71.4692C100 64.0134 93.9558 57.9692 86.5 57.9692Z" fill="white" stroke="#CCCCCC"/>
<path fill-rule="evenodd" clip-rule="evenodd" d="M81.0506 78.1698L92.0563 73.4915C92.9713 73.0918 93.0156 72.3917 92.1229 71.9638L81.2998 66.8069C80.7658 66.549 79.9979 66.4208 79.2694 66.4457C78.7873 66.4649 78.3236 66.5514 77.9582 66.7084L76.9803 67.126L66.9525 71.3867C66.0375 71.7864 65.9932 72.4865 66.8813 72.915L71.7371 75.2292L73.0134 75.8377L77.7045 78.0719C78.4651 78.5225 79.9983 78.5882 81.0506 78.1698Z" fill="#5DC0E8"/>
<path fill-rule="evenodd" clip-rule="evenodd" d="M85.1445 77.5646L83.2308 78.366L81.0611 79.2723C80.1461 79.6719 78.6129 79.6062 77.7195 79.1738L72.4987 76.6438L71.2257 76.0256L70.5967 75.7201L66.7954 77.3427C65.8804 77.7423 65.836 78.4425 66.7242 78.871L68.7331 79.8267L70.0139 80.4346L77.5513 84.0227C77.8853 84.1821 78.2882 84.2995 78.7288 84.3512C79.369 84.4315 80.0766 84.3909 80.7396 84.1933C80.8384 84.1659 80.932 84.1345 81.0249 84.0985L81.2981 83.9821L82.6551 83.4056L92.0306 79.4202C92.9456 79.0205 92.99 78.3204 92.1018 77.8919L88.4008 76.1841L85.1445 77.5646Z" fill="#95C038"/>
<path fill-rule="evenodd" clip-rule="evenodd" d="M87.9778 82.1952L82.756 84.4075L81.4075 84.9781L80.7683 85.247C80.4343 85.395 80.017 85.4799 79.5773 85.5026C78.9807 85.5374 78.3463 85.4656 77.8255 85.3037C77.684 85.2578 77.5511 85.206 77.4267 85.1485L70.456 81.8185L68.408 82.6941L66.6553 83.4456C66.5892 83.4733 66.5282 83.5049 66.4673 83.5365C66.4371 83.5546 66.4069 83.5727 66.3768 83.5908C65.738 83.9993 65.7956 84.5924 66.5841 84.9739L66.6688 85.0136L74.1267 88.566L75.5475 89.2433L77.4118 90.1302C78.3052 90.5627 79.7011 90.6471 80.6161 90.2474L81.9954 89.6633L83.3348 89.094L88.2383 87.0089L91.6263 85.5685C92.0357 85.3915 92.2685 85.1501 92.3236 84.905C92.3935 84.5974 92.1866 84.2762 91.693 84.0408L87.9778 82.1952Z" fill="#FF6F3D"/>
<line x1="13.3828" y1="39.925" x2="299.396" y2="39.925" stroke="#E2E2E2"/>
<path d="M445.737 2.99426H361.801V55.0642H445.737V2.99426Z" fill="white" stroke="#EBEBEB" stroke-width="0.75" stroke-miterlimit="22.9256"/>
<path d="M381.515 24.3272H378.613V46.145H381.515V24.3272Z" fill="#EBEBEB"/>
<path d="M392.884 14.4432H389.983V46.1402H392.884V14.4432Z" fill="#EBEBEB"/>
<path d="M404.37 29.1516H401.468V46.145H404.37V29.1516Z" fill="#EBEBEB"/>
<path d="M415.864 21.7974H412.963V46.025H415.864V21.7974Z" fill="#EBEBEB"/>
<path fill-rule="evenodd" clip-rule="evenodd" d="M427.354 26.737H424.328V46.145H427.234V26.737H427.354Z" fill="#EBEBEB"/>
<path d="M375.707 13.1183H372.806V46.145H375.707V13.1183Z" fill="#E0E0E0"/>
<path d="M387.077 17.2178H384.176V46.265H387.077V17.2178Z" fill="#E0E0E0"/>
<path d="M398.567 25.0521H395.666V46.145H398.567V25.0521Z" fill="#E0E0E0"/>
<path d="M410.057 16.4929H407.155V46.145H410.057V16.4929Z" fill="#E0E0E0"/>
<path d="M421.547 17.5779H418.646V46.145H421.547V17.5779Z" fill="#E0E0E0"/>
<path d="M433.036 23.0023H430.135V46.145H433.036V23.0023Z" fill="#E0E0E0"/>
<path d="M447.067 0.704468H359.5V3.59911H447.067V0.704468Z" fill="#EBEBEB"/>
<path d="M429.344 63.2104H386.045V100.452H429.344V63.2104Z" fill="#F5F5F5"/>
<path fill-rule="evenodd" clip-rule="evenodd" d="M388.707 97.802V61.8855H430.795V97.9221H388.707V97.802Z" stroke="#E0E0E0" stroke-width="0.75" stroke-miterlimit="22.9256"/>
<path fill-rule="evenodd" clip-rule="evenodd" d="M393.908 75.9843H391.973V77.914H393.908V75.9843ZM398.866 75.9843H396.93V77.914H398.866V75.9843ZM401.767 75.9843H403.703V77.914H401.767V75.9843ZM408.66 75.9843H406.724V77.914H408.66V75.9843ZM411.686 75.9843H413.622V77.914H411.686V75.9843ZM418.459 75.9843H416.523V77.914H418.459V75.9843ZM421.48 75.9843H423.416V77.914H421.48V75.9843ZM393.908 79.8438H391.973V81.7735H393.908V79.8438ZM396.93 79.8438H398.866V81.7735H396.93V79.8438ZM403.823 79.8438H401.887V81.7735H403.823V79.8438ZM406.729 79.8438H408.665V81.7735H406.729V79.8438ZM413.622 79.8438H411.686V81.7735H413.622V79.8438ZM416.523 79.8438H418.459V81.7735H416.523V79.8438ZM423.416 79.8438H421.48V81.7735H423.416V79.8438ZM391.973 83.8185H393.908V85.7482H391.973V83.8185ZM398.866 83.8185H396.93V85.7482H398.866V83.8185ZM401.767 83.8185H403.703V85.7482H401.767V83.8185ZM408.66 83.8185H406.724V85.7482H408.66V83.8185ZM411.686 83.8185H413.622V85.7482H411.686V83.8185ZM418.459 83.8185H416.523V85.7482H418.459V83.8185ZM421.48 83.8185H423.416V85.7482H421.48V83.8185ZM393.908 87.678H391.973V89.7278H393.908V87.678ZM396.93 87.678H398.866V89.7278H396.93V87.678ZM403.823 87.678H401.887V89.7278H403.823V87.678ZM406.729 87.678H408.665V89.7278H406.729V87.678ZM413.622 87.678H411.686V89.7278H413.622V87.678ZM416.523 87.678H418.459V89.7278H416.523V87.678ZM423.416 87.678H421.48V89.7278H423.416V87.678ZM391.973 91.6527H393.908V93.5825H391.973V91.6527ZM398.866 91.6527H396.93V93.5825H398.866V91.6527ZM401.767 91.6527H403.703V93.5825H401.767V91.6527ZM408.66 91.6527H406.724V93.5825H408.66V91.6527ZM411.686 91.6527H413.622V93.5825H411.686V91.6527ZM418.459 91.6527H416.523V93.5825H418.459V91.6527ZM421.48 91.6527H423.416V93.5825H421.48V91.6527Z" fill="#E0E0E0"/>
<path d="M423.541 70.0798H392.093V71.0447H423.541V70.0798Z" fill="#E0E0E0"/>
<path fill-rule="evenodd" clip-rule="evenodd" d="M350.149 24.6391C350.187 22.8245 350.12 21.3076 349.971 20.0451C349.784 18.5042 349.462 17.3185 349.039 16.4208C348.727 15.7584 348.256 15.1199 347.685 14.6063C347.142 14.1118 346.498 13.7182 345.806 13.507C344.942 13.2429 344.101 13.2958 343.285 13.5454C342.521 13.7758 341.791 14.179 341.075 14.6495C340.72 14.8799 340.412 15.1007 340.119 15.3119C338.904 16.1808 337.933 16.8768 336.19 16.4064C336.07 16.3728 335.954 16.3152 335.858 16.2336C335.719 16.1136 335.609 15.9504 335.551 15.7584C335.489 15.5519 335.484 15.3119 335.556 15.0431C335.628 14.7647 335.791 14.4622 336.055 14.1502L336.089 14.1022C336.185 13.9678 336.305 13.8334 336.444 13.699C337.616 12.5565 339.956 11.6732 342.617 11.4908C345.297 11.3084 348.275 11.8604 350.677 13.5982C351.138 13.9294 351.575 14.3038 351.988 14.7311C352.964 15.7344 353.713 17.1313 354.102 19.0322C354.438 20.6788 354.505 22.6997 354.217 25.1671C354.083 24.9223 353.919 24.7063 353.727 24.5239C353.357 24.1782 352.887 23.967 352.33 23.9382C351.71 23.9046 350.975 24.111 350.149 24.6391Z" fill="#666666" stroke="#666666" stroke-width="0.216" stroke-miterlimit="22.9256"/>
<path d="M338.64 46.8586L337.89 46.8543L337.89 46.8004L337.898 46.747L338.599 42.0864L338.74 41.1536L339.617 41.5006C339.72 41.5416 339.831 41.5797 339.963 41.6245L339.969 41.6266C339.969 41.6266 339.971 41.627 339.973 41.6277C340.004 41.636 340.202 41.6896 340.548 41.7262C340.924 41.766 341.457 41.7835 342.108 41.7048C343.405 41.5482 345.192 41.0078 347.164 39.4646L347.165 39.4641C347.774 38.9881 348.409 38.4113 349.057 37.7135L350.259 36.4203L350.356 38.1832L350.827 46.803L350.853 47.2755L350.437 47.5022C350.217 47.6226 349.988 47.7426 349.749 47.8539C349.748 47.8543 349.748 47.8546 349.747 47.8549L349.43 47.1751C347.444 48.115 345.186 48.6166 343.173 48.5728L338.64 46.8586ZM338.64 46.8586C337.89 46.8543 337.89 46.8547 337.89 46.8551L337.89 46.856L337.89 46.8576L337.89 46.8609L337.89 46.8676L337.89 46.8818C337.89 46.8916 337.891 46.9021 337.892 46.9133C337.893 46.9353 337.896 46.9613 337.901 46.9904C337.911 47.0452 337.932 47.1282 337.981 47.2192C338.011 47.2742 338.052 47.3334 338.108 47.3891C339.26 48.7268 341.172 49.282 343.157 49.3226L338.64 46.8586Z" fill="#FEFEFE" stroke="#333333" stroke-width="1.5"/>
<path fill-rule="evenodd" clip-rule="evenodd" d="M334.446 15.3839C333.581 16.3536 332.875 17.5969 332.342 19.0226C331.184 22.1333 330.843 26.1368 331.477 29.9627C332.116 33.8222 333.75 37.5281 336.521 40.0051C337.597 40.9652 338.846 41.7429 340.273 42.2757C340.484 42.3573 343.63 43.2406 347.367 40.0291C349.212 38.4402 351.244 35.8336 353.18 31.5949L351.854 30.99C350.019 35.0127 348.126 37.4561 346.421 38.9203C343.294 41.6085 340.936 40.9652 340.782 40.9076C339.533 40.4468 338.443 39.7651 337.501 38.9203C334.994 36.6785 333.514 33.2846 332.923 29.7275C332.328 26.1416 332.64 22.4069 333.711 19.5315C334.182 18.2737 334.792 17.1841 335.536 16.3536L334.446 15.3839Z" fill="#333333"/>
<path fill-rule="evenodd" clip-rule="evenodd" d="M350.115 25.6759C350.206 23.3909 350.149 21.538 349.966 20.045C349.779 18.5041 349.457 17.3184 349.034 16.4207C348.722 15.7583 348.251 15.1198 347.68 14.6062C347.137 14.1118 346.493 13.7181 345.802 13.5069C344.937 13.2429 344.096 13.2957 343.28 13.5453C342.516 13.7757 341.786 14.179 341.07 14.6494C340.715 14.8798 340.407 15.1006 340.114 15.3119C338.899 16.1807 337.929 16.8768 336.185 16.4063C336.065 16.3727 335.95 16.3151 335.854 16.2335C335.714 16.1135 335.604 15.9503 335.546 15.7583C335.484 15.5519 335.479 15.3119 335.551 15.043C335.623 14.7646 335.786 14.4622 336.051 14.1502L336.084 14.1022C336.18 13.9677 336.3 13.8333 336.44 13.6989C337.612 12.5564 339.951 11.6732 342.612 11.4907C345.292 11.3083 348.271 11.8604 350.672 13.5981C351.133 13.9293 351.571 14.3038 351.984 14.731C352.959 15.7343 353.708 17.1312 354.097 19.0322C354.457 20.8035 354.505 23.0021 354.145 25.7239L354.092 26.1367C353.91 27.5625 353.795 28.4505 352.916 29.6698C352.791 29.8427 352.647 30.0299 352.478 30.2315C352.334 30.4091 352.166 30.6011 351.974 30.8027L352.142 31.4076L353.04 31.7964C353.228 31.5948 353.415 31.3836 353.598 31.158C353.766 30.9563 353.929 30.7451 354.092 30.5195C355.183 29.0026 355.317 27.9753 355.533 26.324L355.586 25.9111C355.971 23.0213 355.913 20.6595 355.519 18.7393C355.072 16.5408 354.184 14.9038 353.021 13.7133C352.55 13.2285 352.046 12.8013 351.518 12.4172C348.809 10.4539 345.485 9.83461 342.502 10.0362C339.499 10.2378 336.809 11.2891 335.407 12.6524C335.224 12.8301 335.061 13.0173 334.917 13.2093C334.504 13.6941 334.249 14.1886 334.124 14.6638C333.98 15.2062 333.999 15.7247 334.139 16.1807C334.283 16.6512 334.552 17.0496 334.898 17.3424C335.162 17.5632 335.469 17.7265 335.796 17.8177C338.207 18.4657 339.423 17.592 340.955 16.4976C341.248 16.2911 341.55 16.0703 341.858 15.8687C342.468 15.4655 343.083 15.1246 343.693 14.9374C344.25 14.7694 344.807 14.731 345.364 14.899C345.835 15.043 346.287 15.3215 346.681 15.6815C347.108 16.0703 347.464 16.5504 347.699 17.04C348.059 17.7985 348.333 18.8353 348.501 20.2131C348.66 21.5332 348.722 23.1461 348.66 25.1095L349.03 25.6279L350.115 25.6759Z" fill="#333333"/>
<path fill-rule="evenodd" clip-rule="evenodd" d="M349.793 26.1272C350.817 25.2247 351.652 24.8743 352.286 24.9031C352.603 24.9175 352.863 25.0375 353.069 25.2247C353.29 25.4311 353.449 25.724 353.545 26.0744C353.8 26.9865 353.607 28.2394 352.887 29.3675C352.704 29.6555 352.397 29.9771 352.022 30.2363C351.84 30.3611 351.643 30.4667 351.441 30.5436C350.677 30.8268 351.057 31.6668 351.518 31.542C351.897 31.4364 352.258 31.2588 352.575 31.0428C353.06 30.7116 353.463 30.2795 353.708 29.8955C354.582 28.5274 354.803 26.9769 354.486 25.82C354.342 25.2967 354.088 24.8455 353.732 24.5191C353.362 24.1734 352.892 23.9622 352.334 23.9334C351.455 23.8902 350.351 24.3222 349.082 25.4551C348.631 25.8632 349.179 26.6696 349.793 26.1272Z" fill="#333333"/>
<path fill-rule="evenodd" clip-rule="evenodd" d="M351.547 26.6072C351.691 26.5784 351.816 26.5784 351.921 26.6024C352.041 26.6312 352.138 26.6984 352.195 26.7896C352.262 26.9 352.301 27.0488 352.301 27.2216C352.301 27.5817 352.152 28.0425 351.845 28.5177C351.739 28.681 351.566 28.8682 351.35 29.0122C351.268 29.0698 351.177 29.1226 351.081 29.161C350.567 29.3818 350.735 29.7994 351.148 29.6554C351.316 29.5978 351.479 29.5114 351.624 29.4154C351.893 29.233 352.118 28.993 352.253 28.7818C352.608 28.2249 352.786 27.6729 352.786 27.2216C352.786 26.9528 352.724 26.7128 352.603 26.5256C352.474 26.324 352.282 26.1848 352.027 26.1271C351.878 26.0935 351.705 26.0887 351.508 26.1175C350.869 26.2232 350.941 26.7272 351.547 26.6072Z" fill="#333333"/>
<path fill-rule="evenodd" clip-rule="evenodd" d="M350.237 48.3997C349.896 50.2335 349.247 52.8017 348.099 53.4305C347.321 53.8626 346.13 53.1761 344.309 50.1614C346.135 50.0702 348.085 49.5326 349.819 48.6253C349.958 48.5533 350.098 48.4765 350.237 48.3997ZM341.692 49.955C340.817 51.0015 340.034 51.712 339.352 52.1776C338.339 52.8641 337.642 52.9697 337.253 52.8353C336.922 52.7153 336.754 52.1536 336.691 51.448C336.576 50.2046 336.811 48.6541 336.999 47.7901C337.359 47.742 337.733 47.694 338.113 47.6556L338.305 47.9245C339.112 48.9757 340.303 49.6382 341.692 49.955Z" fill="#CCCCCC"/>
<path fill-rule="evenodd" clip-rule="evenodd" d="M340.777 29.9867C338.39 30.9324 337.549 29.8235 337.583 28.7914C337.621 27.3993 338.928 27.6777 338.664 25.4215C339.797 27.0104 337.242 28.7722 338.769 29.6026C339.096 29.7803 339.615 29.9627 340.777 29.9867Z" fill="#333333"/>
<path fill-rule="evenodd" clip-rule="evenodd" d="M339.5 33.3422C342.29 35.5936 343.304 31.5996 343.794 30.9852C343.655 35.944 339.85 35.5984 339.5 33.3422Z" fill="#333333"/>
<path fill-rule="evenodd" clip-rule="evenodd" d="M341.68 24.6006C343.164 21.0915 347.103 23.0933 347.118 24.9703C346.93 24.7639 346.104 24.2694 345.633 24.2118C345.47 26.3 342.972 26.7368 342.3 24.5094C342.036 24.495 341.877 24.4806 341.68 24.6006Z" fill="#333333"/>
<path fill-rule="evenodd" clip-rule="evenodd" d="M333.188 24.4518C334.537 20.8899 338.553 22.7429 338.639 24.6198C338.443 24.423 337.602 23.9574 337.126 23.919C337.045 26.012 334.561 26.54 333.807 24.3414C333.538 24.3318 333.38 24.327 333.188 24.4518Z" fill="#333333"/>
<mask id="path-58-outside-1_6472_194601" maskUnits="userSpaceOnUse" x="293.106" y="44.7385" width="87" height="69" fill="black">
<rect fill="white" x="293.106" y="44.7385" width="87" height="69"/>
<path fill-rule="evenodd" clip-rule="evenodd" d="M367.475 56.9025C371.34 61.334 380.856 83.4182 377.519 95.7617C375.122 100.467 354.393 89.3452 351.236 87.9111C352.253 87.1551 352.753 86.4028 352.997 85.2296C357.046 86.469 364.714 87.9609 368.652 88.1435C370.283 88.2182 369.305 86.7484 368.196 86.6505C367.061 85.2451 362.574 77.2774 361.471 74.2751C361.519 71.9853 361.634 69.6667 361.812 67.3145C361.898 66.1864 360.448 65.9512 360.356 67.1801C360.116 70.3388 359.991 73.4686 359.987 76.5841C359.982 79.5939 360.092 82.5606 360.308 85.4936C360.308 85.4936 351.595 83.2985 349.837 82.7752C346.075 81.6557 344.331 77.8018 344.331 77.8018C344.331 77.8018 342.907 52.2761 342.907 51.1064C342.907 51.1064 345.056 54.433 348.786 54.1917C351.268 53.504 351.307 49.6923 351.62 47.7385C357.278 49.9247 363.417 52.2499 367.475 56.9025ZM335.306 47.7385C333.097 48.1322 331.291 48.6746 329.782 49.2891C327.635 50.1675 326.088 51.2044 324.839 52.2029C323.965 52.899 321.405 55.928 318.672 59.1587C315.338 63.0998 311.75 67.3433 310.405 68.2794L309.891 68.6394L309.459 68.1834C305.477 63.9831 303.041 57.805 300.957 52.5101C300.443 51.2092 299.953 49.9563 299.487 48.8618C298.761 48.9098 297.786 49.0586 296.85 49.2746C296.196 49.4283 295.572 49.6107 295.106 49.8123C298.214 62.2549 301.154 68.9515 303.426 72.5566C305.602 76.0128 306.985 76.4641 307.316 76.5265C310.285 77.0977 314.036 75.7488 317.634 73.5454C321.765 71.0108 325.646 67.3721 327.938 64.1751C328.802 62.9702 330.008 63.7814 329.191 64.9287C328.356 66.1 327.318 67.3337 326.136 68.553L326.088 69.4651L326.04 70.5836C325.891 75.0144 325.925 83.9767 326.391 92.4446C326.708 98.2051 327.217 103.73 327.995 107.412C333.097 110.292 338.861 111.565 344.563 111.809C351.739 112.117 358.834 110.806 364.439 109.04C363.776 106.62 363.19 104.23 362.676 101.853C362.138 99.362 361.682 96.8706 361.307 94.384C358.094 93.1071 353.914 90.5831 350.604 88.9698C347.293 87.3564 337.018 83.6676 335.636 77.8018L340.416 50.4962L335.306 47.7385Z"/>
</mask>
<path fill-rule="evenodd" clip-rule="evenodd" d="M367.475 56.9025C371.34 61.334 380.856 83.4182 377.519 95.7617C375.122 100.467 354.393 89.3452 351.236 87.9111C352.253 87.1551 352.753 86.4028 352.997 85.2296C357.046 86.469 364.714 87.9609 368.652 88.1435C370.283 88.2182 369.305 86.7484 368.196 86.6505C367.061 85.2451 362.574 77.2774 361.471 74.2751C361.519 71.9853 361.634 69.6667 361.812 67.3145C361.898 66.1864 360.448 65.9512 360.356 67.1801C360.116 70.3388 359.991 73.4686 359.987 76.5841C359.982 79.5939 360.092 82.5606 360.308 85.4936C360.308 85.4936 351.595 83.2985 349.837 82.7752C346.075 81.6557 344.331 77.8018 344.331 77.8018C344.331 77.8018 342.907 52.2761 342.907 51.1064C342.907 51.1064 345.056 54.433 348.786 54.1917C351.268 53.504 351.307 49.6923 351.62 47.7385C357.278 49.9247 363.417 52.2499 367.475 56.9025ZM335.306 47.7385C333.097 48.1322 331.291 48.6746 329.782 49.2891C327.635 50.1675 326.088 51.2044 324.839 52.2029C323.965 52.899 321.405 55.928 318.672 59.1587C315.338 63.0998 311.75 67.3433 310.405 68.2794L309.891 68.6394L309.459 68.1834C305.477 63.9831 303.041 57.805 300.957 52.5101C300.443 51.2092 299.953 49.9563 299.487 48.8618C298.761 48.9098 297.786 49.0586 296.85 49.2746C296.196 49.4283 295.572 49.6107 295.106 49.8123C298.214 62.2549 301.154 68.9515 303.426 72.5566C305.602 76.0128 306.985 76.4641 307.316 76.5265C310.285 77.0977 314.036 75.7488 317.634 73.5454C321.765 71.0108 325.646 67.3721 327.938 64.1751C328.802 62.9702 330.008 63.7814 329.191 64.9287C328.356 66.1 327.318 67.3337 326.136 68.553L326.088 69.4651L326.04 70.5836C325.891 75.0144 325.925 83.9767 326.391 92.4446C326.708 98.2051 327.217 103.73 327.995 107.412C333.097 110.292 338.861 111.565 344.563 111.809C351.739 112.117 358.834 110.806 364.439 109.04C363.776 106.62 363.19 104.23 362.676 101.853C362.138 99.362 361.682 96.8706 361.307 94.384C358.094 93.1071 353.914 90.5831 350.604 88.9698C347.293 87.3564 337.018 83.6676 335.636 77.8018L340.416 50.4962L335.306 47.7385Z" fill="#EFEFEF"/>
<path d="M367.475 56.9025L368.606 55.9165L367.475 56.9025ZM377.519 95.7617L378.856 96.4425L378.927 96.3036L378.967 96.1531L377.519 95.7617ZM351.236 87.9111L350.341 86.7073L348.3 88.2248L350.616 89.2768L351.236 87.9111ZM352.997 85.2296L353.437 83.7953L351.865 83.3142L351.529 84.9233L352.997 85.2296ZM368.652 88.1435L368.583 89.6418L368.583 89.6419L368.652 88.1435ZM368.196 86.6505L367.028 87.5927L367.429 88.0887L368.064 88.1447L368.196 86.6505ZM361.471 74.2751L359.971 74.2436L359.965 74.5267L360.063 74.7925L361.471 74.2751ZM361.812 67.3145L360.316 67.1999L360.316 67.2015L361.812 67.3145ZM360.356 67.1801L361.852 67.2938L361.852 67.2912L360.356 67.1801ZM359.987 76.5841L361.487 76.5865V76.5864L359.987 76.5841ZM360.308 85.4936L359.942 86.9482L361.957 87.4559L361.804 85.3834L360.308 85.4936ZM349.837 82.7752L350.265 81.3375L349.837 82.7752ZM344.331 77.8018L342.833 77.8853L342.849 78.1651L342.964 78.4203L344.331 77.8018ZM342.907 51.1064L344.167 50.2926C343.806 49.734 343.121 49.4796 342.483 49.6677C341.845 49.8557 341.407 50.4414 341.407 51.1064H342.907ZM348.786 54.1917L348.883 55.6885L349.038 55.6785L349.187 55.6372L348.786 54.1917ZM351.62 47.7385L352.16 46.3393L350.431 45.6712L350.138 47.5018L351.62 47.7385ZM335.306 47.7385L336.019 46.4185L335.558 46.17L335.043 46.2618L335.306 47.7385ZM329.782 49.2891L329.216 47.8999L329.214 47.9008L329.782 49.2891ZM324.839 52.2029L325.774 53.3764L325.776 53.3745L324.839 52.2029ZM318.672 59.1587L317.527 58.1898L317.527 58.19L318.672 59.1587ZM310.405 68.2794L309.548 67.0482L309.544 67.0508L310.405 68.2794ZM309.891 68.6394L308.802 69.6714L309.692 70.6101L310.752 69.868L309.891 68.6394ZM309.459 68.1834L310.547 67.1515L310.547 67.1514L309.459 68.1834ZM300.957 52.5101L302.352 51.9606L302.352 51.9589L300.957 52.5101ZM299.487 48.8618L300.867 48.2743L300.45 47.2948L299.388 47.3651L299.487 48.8618ZM296.85 49.2746L296.513 47.813L296.506 47.8145L296.85 49.2746ZM295.106 49.8123L294.51 48.4356L293.342 48.9411L293.651 50.1758L295.106 49.8123ZM303.426 72.5566L304.695 71.7574L304.695 71.7568L303.426 72.5566ZM307.316 76.5265L307.6 75.0535L307.594 75.0524L307.316 76.5265ZM317.634 73.5454L318.418 74.8246L318.419 74.824L317.634 73.5454ZM327.938 64.1751L326.719 63.3005L326.718 63.3013L327.938 64.1751ZM329.191 64.9287L330.412 65.8L330.413 65.7985L329.191 64.9287ZM326.136 68.553L325.059 67.5091L324.668 67.9128L324.638 68.4742L326.136 68.553ZM326.088 69.4651L324.59 69.3862L324.59 69.3935L324.59 69.4007L326.088 69.4651ZM326.04 70.5836L324.542 70.5192L324.541 70.5332L326.04 70.5836ZM326.391 92.4446L324.893 92.527V92.527L326.391 92.4446ZM327.995 107.412L326.528 107.722L326.668 108.385L327.258 108.718L327.995 107.412ZM344.563 111.809L344.498 113.308L344.498 113.308L344.563 111.809ZM364.439 109.04L364.89 110.47L366.268 110.036L365.886 108.643L364.439 109.04ZM362.676 101.853L361.21 102.17L361.21 102.17L362.676 101.853ZM361.307 94.384L362.791 94.1605L362.662 93.3083L361.861 92.99L361.307 94.384ZM340.416 50.4962L341.893 50.7549L342.08 49.6898L341.128 49.1762L340.416 50.4962ZM335.636 77.8018L334.158 77.5432L334.105 77.8463L334.176 78.1459L335.636 77.8018ZM362.97 74.3066C363.018 72.0458 363.132 69.7545 363.308 67.4275L360.316 67.2015C360.136 69.5789 360.02 71.9248 359.971 74.2436L362.97 74.3066ZM363.307 67.4292C363.407 66.1355 362.561 65.0308 361.34 64.8754C360.752 64.8006 360.121 64.9666 359.629 65.4106C359.137 65.8553 358.905 66.464 358.86 67.069L361.852 67.2912C361.853 67.2818 361.837 67.459 361.64 67.6375C361.443 67.8152 361.186 67.88 360.961 67.8515C360.744 67.8239 360.564 67.7131 360.449 67.5642C360.324 67.4035 360.312 67.2523 360.316 67.1999L363.307 67.4292ZM358.861 67.0664C358.618 70.2606 358.491 73.4277 358.487 76.5818L361.487 76.5864C361.491 73.5096 361.615 70.4169 361.852 67.2938L358.861 67.0664ZM358.487 76.5817C358.482 79.6299 358.594 82.6342 358.812 85.6039L361.804 85.3834C361.591 82.487 361.482 79.558 361.487 76.5865L358.487 76.5817ZM360.308 85.4936C360.675 84.0391 360.675 84.0391 360.675 84.0391C360.675 84.039 360.675 84.039 360.674 84.039C360.674 84.0389 360.674 84.0388 360.673 84.0387C360.672 84.0384 360.671 84.038 360.669 84.0375C360.664 84.0365 360.658 84.0349 360.65 84.0328C360.633 84.0287 360.609 84.0225 360.577 84.0144C360.513 83.9982 360.419 83.9744 360.298 83.944C360.056 83.883 359.71 83.7953 359.288 83.6884C358.444 83.4747 357.301 83.1842 356.104 82.8775C353.69 82.2593 351.109 81.5887 350.265 81.3375L349.409 84.2129C350.323 84.485 352.977 85.1736 355.36 85.7837C356.56 86.0913 357.706 86.3823 358.551 86.5965C358.974 86.7036 359.321 86.7915 359.563 86.8526C359.684 86.8832 359.779 86.9071 359.843 86.9233C359.875 86.9314 359.9 86.9376 359.917 86.9418C359.925 86.9439 359.931 86.9455 359.935 86.9466C359.938 86.9471 359.939 86.9475 359.94 86.9478C359.941 86.9479 359.941 86.948 359.941 86.9481C359.942 86.9481 359.942 86.9481 359.942 86.9482C359.942 86.9482 359.942 86.9482 360.308 85.4936ZM342.907 51.1064C341.647 51.9202 341.647 51.9207 341.648 51.9213C341.648 51.9215 341.648 51.922 341.649 51.9224C341.649 51.9232 341.65 51.924 341.65 51.9249C341.651 51.9267 341.653 51.9287 341.654 51.9308C341.657 51.9352 341.66 51.9404 341.664 51.9463C341.672 51.9582 341.682 51.9733 341.695 51.9913C341.719 52.0273 341.753 52.0752 341.795 52.1331C341.88 52.2488 342 52.4056 342.154 52.5892C342.462 52.9544 342.917 53.4363 343.512 53.9116C344.697 54.8583 346.525 55.8411 348.883 55.6885L348.689 52.6948C347.317 52.7836 346.205 52.2237 345.384 51.5675C344.975 51.2413 344.66 50.9067 344.448 50.6557C344.343 50.5311 344.266 50.43 344.218 50.3647C344.195 50.3321 344.178 50.3087 344.17 50.2961C344.165 50.2898 344.163 50.2863 344.163 50.2856C344.162 50.2853 344.163 50.2857 344.163 50.2868C344.164 50.2874 344.164 50.2882 344.165 50.2892C344.165 50.2896 344.166 50.2902 344.166 50.2907C344.166 50.291 344.167 50.2915 344.167 50.2917C344.167 50.2921 344.167 50.2926 342.907 51.1064ZM349.187 55.6372C351.222 55.0731 352.066 53.2559 352.461 51.8442C352.848 50.4612 352.98 48.7302 353.101 47.9752L350.138 47.5018C349.947 48.7006 349.903 49.8524 349.572 51.0356C349.249 52.19 348.832 52.6225 348.386 52.7462L349.187 55.6372ZM335.043 46.2618C332.737 46.6727 330.829 47.2431 329.216 47.8999L330.348 50.6782C331.753 50.1061 333.457 49.5917 335.569 49.2153L335.043 46.2618ZM329.214 47.9008C326.907 48.8447 325.238 49.9639 323.903 51.0313L325.776 53.3745C326.939 52.4449 328.363 51.4904 330.35 50.6774L329.214 47.9008ZM323.905 51.0294C323.338 51.4813 322.379 52.5351 321.323 53.7431C320.223 55.0024 318.89 56.5778 317.527 58.1898L319.817 60.1275C321.186 58.5088 322.501 56.9544 323.582 55.7175C324.708 54.4293 325.467 53.6206 325.774 53.3764L323.905 51.0294ZM317.527 58.19C315.856 60.1645 314.138 62.1959 312.671 63.8505C311.937 64.6779 311.276 65.399 310.723 65.9652C310.147 66.5545 309.757 66.9031 309.548 67.0482L311.262 69.5106C311.726 69.1876 312.289 68.6548 312.868 68.062C313.47 67.4461 314.167 66.6845 314.915 65.8413C316.411 64.1549 318.154 62.0939 319.817 60.1274L317.527 58.19ZM309.544 67.0508L309.03 67.4109L310.752 69.868L311.266 69.508L309.544 67.0508ZM310.98 67.6075L310.547 67.1515L308.37 69.2153L308.802 69.6714L310.98 67.6075ZM310.547 67.1514C306.803 63.2022 304.463 57.3225 302.352 51.9606L299.561 53.0596C301.619 58.2874 304.15 64.7639 308.37 69.2154L310.547 67.1514ZM302.352 51.9589C301.842 50.6683 301.343 49.3917 300.867 48.2743L298.107 49.4494C298.563 50.5209 299.044 51.7501 299.562 53.0613L302.352 51.9589ZM299.388 47.3651C298.567 47.4194 297.511 47.5827 296.513 47.813L297.187 50.7363C298.061 50.5346 298.956 50.4002 299.586 50.3585L299.388 47.3651ZM296.506 47.8145C295.821 47.9756 295.097 48.1819 294.51 48.4356L295.702 51.1889C296.047 51.0394 296.572 50.8809 297.193 50.7348L296.506 47.8145ZM293.651 50.1758C296.776 62.6886 299.763 69.5589 302.157 73.3563L304.695 71.7568C302.544 68.3441 299.652 61.8212 296.561 49.4488L293.651 50.1758ZM302.156 73.3557C304.425 76.9594 306.108 77.8252 307.039 78.0006L307.594 75.0524C307.862 75.1029 306.778 75.0663 304.695 71.7574L302.156 73.3557ZM307.033 77.9995C310.58 78.6821 314.751 77.0701 318.418 74.8246L316.851 72.2663C313.322 74.4275 309.99 75.5134 307.6 75.0535L307.033 77.9995ZM318.419 74.824C322.707 72.1929 326.74 68.4206 329.157 65.0489L326.718 63.3013C324.552 66.3237 320.824 69.8288 316.85 72.2669L318.419 74.824ZM329.156 65.0496C329.235 64.9405 329.235 64.996 329.096 65.0433C328.952 65.0925 328.674 65.1159 328.39 64.9353C328.098 64.7496 327.976 64.4576 327.964 64.2378C327.953 64.0356 328.03 63.9732 327.969 64.0589L330.413 65.7985C330.761 65.3106 330.994 64.7166 330.959 64.0773C330.924 63.4203 330.6 62.7856 330 62.4043C328.727 61.5942 327.38 62.379 326.719 63.3005L329.156 65.0496ZM327.97 64.0574C327.184 65.1593 326.196 66.3357 325.059 67.5091L327.214 69.5969C328.44 68.3317 329.527 67.0408 330.412 65.8L327.97 64.0574ZM324.638 68.4742L324.59 69.3862L327.586 69.544L327.634 68.6319L324.638 68.4742ZM324.59 69.4007L324.542 70.5192L327.539 70.648L327.587 69.5295L324.59 69.4007ZM324.541 70.5332C324.391 75.0117 324.425 84.0185 324.893 92.527L327.889 92.3622C327.425 83.9349 327.392 75.017 327.539 70.634L324.541 70.5332ZM324.893 92.527C325.211 98.2954 325.724 103.919 326.528 107.722L329.463 107.102C328.71 103.541 328.205 98.1147 327.889 92.3622L324.893 92.527ZM327.258 108.718C332.615 111.743 338.625 113.056 344.498 113.308L344.627 110.311C339.096 110.073 333.578 108.842 328.733 106.106L327.258 108.718ZM344.498 113.308C351.885 113.624 359.157 112.277 364.89 110.47L363.988 107.609C358.511 109.335 351.593 110.609 344.627 110.311L344.498 113.308ZM365.886 108.643C365.23 106.249 364.651 103.885 364.143 101.536L361.21 102.17C361.73 104.574 362.323 106.991 362.993 109.436L365.886 108.643ZM364.143 101.537C363.611 99.076 363.161 96.6156 362.791 94.1605L359.824 94.6075C360.204 97.1255 360.666 99.648 361.21 102.17L364.143 101.537ZM361.861 92.99C360.341 92.3861 358.56 91.4728 356.698 90.4795C354.868 89.5034 352.949 88.444 351.261 87.6214L349.946 90.3182C351.569 91.1089 353.395 92.1181 355.286 93.1266C357.145 94.1179 359.06 95.105 360.754 95.778L361.861 92.99ZM350.265 81.3375C348.774 80.8938 347.631 79.8889 346.832 78.9166C346.439 78.4375 346.147 77.9881 345.956 77.6623C345.861 77.5001 345.792 77.3707 345.749 77.2863C345.727 77.2442 345.712 77.2135 345.703 77.1958C345.699 77.1869 345.697 77.1813 345.696 77.1792C345.695 77.1781 345.695 77.1779 345.695 77.1786C345.695 77.1789 345.696 77.1795 345.696 77.1803C345.696 77.1807 345.697 77.1811 345.697 77.1816C345.697 77.1819 345.697 77.1823 345.697 77.1824C345.697 77.1829 345.698 77.1833 344.331 77.8018C342.964 78.4203 342.965 78.4208 342.965 78.4213C342.965 78.4214 342.965 78.422 342.965 78.4223C342.966 78.4231 342.966 78.4239 342.966 78.4247C342.967 78.4265 342.968 78.4284 342.969 78.4306C342.971 78.435 342.974 78.4404 342.977 78.4466C342.982 78.4591 342.99 78.4753 342.999 78.495C343.018 78.5342 343.044 78.5874 343.078 78.6529C343.145 78.7836 343.241 78.964 343.369 79.1807C343.622 79.6124 344.001 80.1964 344.514 80.8207C345.528 82.0553 347.138 83.5371 349.409 84.2129L350.265 81.3375ZM344.331 77.8018C345.829 77.7183 345.829 77.7182 345.829 77.718C345.829 77.7178 345.829 77.7175 345.829 77.7171C345.829 77.7163 345.828 77.7152 345.828 77.7136C345.828 77.7105 345.828 77.7059 345.828 77.6998C345.827 77.6875 345.826 77.6692 345.825 77.6451C345.822 77.5968 345.818 77.525 345.813 77.4314C345.802 77.2442 345.787 76.9695 345.767 76.6194C345.729 75.9193 345.673 74.9177 345.606 73.7122C345.473 71.3012 345.295 68.0743 345.117 64.8111C344.939 61.5476 344.761 58.2486 344.628 55.6928C344.561 54.4147 344.505 53.3241 344.467 52.5173C344.447 52.1136 344.432 51.7832 344.422 51.5368C344.417 51.4134 344.413 51.3134 344.41 51.237C344.409 51.1988 344.408 51.1683 344.408 51.1447C344.408 51.133 344.407 51.1238 344.407 51.1169C344.407 51.1135 344.407 51.1109 344.407 51.109C344.407 51.1071 344.407 51.1063 344.407 51.1064H341.407C341.407 51.7455 341.768 58.4921 342.121 64.9744C342.299 68.2388 342.477 71.4665 342.611 73.878C342.678 75.0838 342.733 76.0856 342.772 76.786C342.792 77.1362 342.807 77.411 342.817 77.5983C342.822 77.6919 342.826 77.7637 342.829 77.812C342.831 77.8362 342.832 77.8545 342.832 77.8668C342.833 77.8729 342.833 77.8776 342.833 77.8807C342.833 77.8822 342.833 77.8834 342.833 77.8842C342.833 77.8846 342.833 77.8849 342.833 77.885C342.833 77.8852 342.833 77.8853 344.331 77.8018ZM351.079 49.1377C356.824 51.3574 362.576 53.5676 366.345 57.8884L368.606 55.9165C364.258 50.9322 357.732 48.492 352.16 46.3393L351.079 49.1377ZM366.345 57.8884C367.17 58.8351 368.419 60.8915 369.792 63.7563C371.146 66.5814 372.568 70.0796 373.77 73.8235C376.201 81.3999 377.619 89.6458 376.071 95.3703L378.967 96.1531C380.756 89.5341 379.084 80.5662 376.626 72.9067C375.383 69.0326 373.91 65.4074 372.497 62.4596C371.103 59.5516 369.712 57.1856 368.606 55.9165L366.345 57.8884ZM369.363 85.7084C368.895 85.1292 367.555 82.9141 366.135 80.3376C364.73 77.7872 363.386 75.1377 362.879 73.7577L360.063 74.7925C360.659 76.4148 362.11 79.2504 363.508 81.7857C364.891 84.295 366.362 86.7664 367.028 87.5927L369.363 85.7084ZM368.583 89.6419C369.101 89.6656 369.932 89.6101 370.521 88.9796C371.241 88.2093 371.028 87.2759 370.802 86.8081C370.569 86.328 370.186 85.9514 369.805 85.6933C369.412 85.4272 368.903 85.2071 368.327 85.1563L368.064 88.1447C368.043 88.1429 368.073 88.1433 368.124 88.1779C368.187 88.2206 368.155 88.2251 368.101 88.1153C368.073 88.0555 368.01 87.903 368.018 87.679C368.026 87.4266 368.124 87.1504 368.329 86.9313C368.515 86.7321 368.705 86.6696 368.767 86.6535C368.829 86.6374 368.825 86.6498 368.721 86.645L368.583 89.6419ZM352.558 86.6639C356.696 87.9306 364.49 89.4521 368.583 89.6418L368.721 86.6451C364.937 86.4696 357.396 85.0073 353.437 83.7953L352.558 86.6639ZM352.131 89.115C352.737 88.6644 353.255 88.1661 353.659 87.5518C354.067 86.933 354.314 86.2661 354.466 85.5359L351.529 84.9233C351.437 85.3663 351.311 85.6621 351.154 85.9018C350.993 86.1459 350.752 86.4017 350.341 86.7073L352.131 89.115ZM376.183 95.0809C376.173 95.1005 376.103 95.2618 375.567 95.3575C375.014 95.4563 374.194 95.4328 373.101 95.2437C370.933 94.8683 368.138 93.9236 365.224 92.7476C359.363 90.3825 353.583 87.3295 351.856 86.5454L350.616 89.2768C352.046 89.9267 358.209 93.1517 364.101 95.5296C367.064 96.7251 370.098 97.7683 372.589 98.1997C373.827 98.4139 375.044 98.4986 376.095 98.3107C377.164 98.1196 378.267 97.5992 378.856 96.4425L376.183 95.0809ZM341.128 49.1762L336.019 46.4185L334.594 49.0585L339.703 51.8162L341.128 49.1762ZM351.261 87.6214C349.436 86.7319 346.258 85.5125 343.158 83.6877C341.638 82.7933 340.235 81.8041 339.147 80.728C338.055 79.6479 337.354 78.5551 337.096 77.4578L334.176 78.1459C334.608 79.9814 335.711 81.5493 337.038 82.8611C338.368 84.1768 340 85.3106 341.636 86.2732C344.846 88.1626 348.461 89.5943 349.946 90.3182L351.261 87.6214ZM337.113 78.0604L341.893 50.7549L338.938 50.2376L334.158 77.5432L337.113 78.0604Z" fill="#333333" mask="url(#path-58-outside-1_6472_194601)"/>
<path fill-rule="evenodd" clip-rule="evenodd" d="M360.356 67.1801C360.116 70.3388 359.991 73.4686 359.986 76.5841C359.982 79.93 360.116 83.2182 360.385 86.4681L361.845 86.3481C361.576 83.0982 361.442 79.8484 361.447 76.5841C361.451 73.5502 361.572 70.4684 361.817 67.3193C361.898 66.1912 360.448 65.9512 360.356 67.1801ZM361.259 94.0431L362.705 93.8319C363.089 96.4049 363.555 98.9779 364.113 101.561C364.67 104.153 365.313 106.745 366.039 109.337L366.226 110.009L365.563 110.225C359.722 112.145 352.171 113.605 344.505 113.278C338.476 113.019 332.381 111.651 326.987 108.526L326.713 108.367L326.641 108.051C325.8 104.282 325.257 98.5219 324.931 92.5262C324.465 84.0247 324.426 75.0144 324.58 70.5452L324.628 69.4027L324.69 68.2026L326.151 68.2938L326.088 69.4699L326.04 70.5884C325.891 75.0192 325.925 83.9815 326.391 92.4494C326.708 98.2099 327.217 103.735 327.995 107.417C333.097 110.297 338.861 111.569 344.562 111.814C351.739 112.121 358.834 110.811 364.439 109.044C363.776 106.625 363.19 104.234 362.676 101.858C362.124 99.2515 361.648 96.6497 361.259 94.0431Z" fill="#333333"/>
<path fill-rule="evenodd" clip-rule="evenodd" d="M374.474 237.57C373.33 238.861 371.88 240.249 370.391 241.67C367.979 243.974 365.472 246.369 364.218 248.419C363.277 249.96 363.104 251.294 364.439 252.173C365.251 252.274 368.152 251.05 371.515 249.35C375.276 247.449 379.512 244.953 382.111 242.98C382.13 242.961 382.183 242.923 382.202 242.913C382.255 242.875 382.342 242.817 382.442 242.731C382.98 242.265 383.831 241.002 381.198 237.945L382.308 236.994C385.805 241.06 384.292 243.062 383.389 243.839C383.259 243.95 383.129 244.041 383.043 244.103L382.976 244.151C380.295 246.182 375.987 248.726 372.173 250.651C368.402 252.557 365.015 253.872 363.949 253.56L363.858 253.536L363.776 253.483C361.403 252.039 361.552 249.984 362.974 247.661C364.329 245.448 366.903 242.985 369.387 240.614C370.857 239.207 372.293 237.839 373.383 236.605L374.474 237.57Z" fill="#333333"/>
<path fill-rule="evenodd" clip-rule="evenodd" d="M333.529 236.615C332.054 237.22 330.258 237.839 328.423 238.468C324.734 239.73 320.886 241.051 318.677 242.663C316.717 244.099 315.958 245.741 317.409 247.714L317.466 247.79L317.543 247.853C318.422 248.558 322.779 248.674 327.693 248.371C332.448 248.078 337.809 247.435 340.979 246.595L341.056 246.576C341.791 246.413 344.755 245.736 343.338 240.523C343.285 240.33 342.901 239.486 342.545 238.689C342.252 238.041 341.973 237.421 341.94 237.325L340.552 237.781C340.6 237.93 340.898 238.593 341.215 239.289C341.551 240.038 341.911 240.83 341.93 240.902C342.949 244.656 341.176 245.054 340.739 245.15L340.633 245.174C337.554 245.99 332.294 246.619 327.611 246.907C323.158 247.181 319.301 247.176 318.528 246.749C317.812 245.678 318.336 244.718 319.551 243.83C321.573 242.351 325.315 241.07 328.908 239.836C330.733 239.212 332.525 238.598 334.096 237.95L333.529 236.615Z" fill="#333333"/>
<path fill-rule="evenodd" clip-rule="evenodd" d="M370.391 241.67C367.98 243.974 365.472 246.369 364.219 248.419C363.277 249.96 363.104 251.295 364.439 252.173C365.251 252.274 368.153 251.05 371.515 249.35C375.276 247.449 379.513 244.953 382.111 242.98C382.131 242.961 382.184 242.923 382.203 242.913C382.256 242.875 382.342 242.817 382.443 242.731C382.736 242.481 383.115 242.001 382.99 241.132C382.899 240.47 382.51 239.577 381.564 238.386C380.579 238.814 379.335 238.996 378.091 238.962C376.64 238.924 375.151 238.597 374.066 238.026C373.163 239.01 372.101 240.038 371.001 241.094C370.794 241.286 370.593 241.478 370.391 241.67Z" fill="#FEFEFE"/>
<path fill-rule="evenodd" clip-rule="evenodd" d="M341.921 240.906C341.945 240.993 341.969 241.079 341.988 241.166C342.857 244.68 341.157 245.064 340.729 245.16L340.624 245.184C337.545 246 332.285 246.628 327.601 246.917C323.149 247.19 319.291 247.185 318.518 246.758C317.802 245.688 318.326 244.728 319.541 243.839C320.771 242.937 322.644 242.111 324.729 241.324C326.069 240.82 327.491 240.33 328.898 239.85C330.532 239.289 332.136 238.741 333.582 238.165C334.48 238.756 335.868 239.366 337.463 239.471C338.568 239.543 339.773 239.375 340.979 238.794C341.051 238.953 341.128 239.125 341.205 239.294C341.541 240.042 341.897 240.834 341.921 240.906Z" fill="#FEFEFE"/>
<path fill-rule="evenodd" clip-rule="evenodd" d="M362.662 111.099C366.049 122.173 369.834 142.177 373.148 164.796C377.928 188.092 381.007 214.331 380.963 236.562C380.084 237.047 378.802 237.33 377.524 237.359C376.256 237.388 375.026 237.176 374.243 236.682C373.143 232.496 368.71 214.519 362.753 193.666C357.729 176.067 351.124 156.952 347.656 143.545L346.268 138.48C346.181 151.072 345.336 164.297 344.788 172.875C344.625 175.458 344.486 177.618 344.399 179.265C344.395 179.375 344.399 179.797 344.409 180.503C344.491 186.614 344.856 214.629 340.518 237.388C339.5 237.921 338.477 238.074 337.545 238.017C336.277 237.935 335.167 237.46 334.442 236.989C334.36 230.408 334.139 220.951 333.519 210.87C332.885 200.564 331.824 189.571 330.056 180.253C329.912 179.495 327.251 164.239 327.097 143.602C327.02 133.291 327.573 121.636 329.379 109.774C334.149 112.016 339.351 113.048 344.5 113.274C350.956 113.552 357.326 112.563 362.662 111.099Z" fill="#404040" stroke="#404040" stroke-width="0.216" stroke-miterlimit="22.9256"/>
<path fill-rule="evenodd" clip-rule="evenodd" d="M346.272 138.336C346.191 150.971 345.34 164.263 344.793 172.875C344.63 175.458 344.49 177.618 344.404 179.265C344.399 179.375 344.404 179.797 344.413 180.503C344.495 186.614 344.86 214.629 340.523 237.388C339.504 237.921 338.481 238.074 337.549 238.017C336.281 237.935 335.172 237.46 334.446 236.989C334.365 230.408 334.144 220.951 333.524 210.87C332.89 200.564 331.828 189.571 330.061 180.253C329.916 179.495 327.255 164.239 327.102 143.602C327.025 133.003 327.606 120.993 329.537 108.795L328.096 108.569C326.155 120.844 325.569 132.941 325.646 143.602C325.8 164.379 328.48 179.749 328.624 180.513C330.382 189.763 331.434 200.694 332.068 210.947C332.703 221.234 332.919 230.821 332.996 237.378L333 237.738L333.289 237.954C334.158 238.602 335.681 239.351 337.463 239.466C338.745 239.548 340.158 239.308 341.555 238.482L341.839 238.314L341.901 237.993C346.33 215.042 345.955 186.648 345.878 180.479C345.869 179.826 345.864 179.428 345.869 179.332C345.951 177.776 346.09 175.583 346.258 172.962C346.738 165.463 347.444 154.427 347.67 143.338L346.272 138.336Z" fill="#333333"/>
<path fill-rule="evenodd" clip-rule="evenodd" d="M337.866 124.367C338.798 125.203 339.85 125.947 341.018 126.494C342.223 127.055 343.559 127.416 345.009 127.459L345.6 127.478L345.667 128.059C347.56 144.284 352.685 160.365 358.738 179.341C363.906 195.552 369.747 213.875 374.834 236.212C375.737 236.62 376.717 236.721 377.673 236.653C378.586 236.586 379.484 236.361 380.272 236.087C380.103 229.467 379.724 219.454 378.869 208.816C378.264 201.265 377.423 193.421 376.251 186.302C376.088 185.318 375.929 184.382 375.766 183.489C375.603 182.586 375.43 181.698 375.257 180.83C375.117 180.148 374.935 179.289 374.752 178.453C374.272 176.231 373.83 174.195 373.58 171.661C373.412 169.947 373.225 168.18 373.023 166.38C372.817 164.532 372.6 162.761 372.384 161.057C371.183 151.71 369.646 142.638 367.912 134.299C366.111 125.649 364.093 117.805 362.014 111.296L363.306 110.888C365.4 117.455 367.432 125.342 369.238 134.026C370.982 142.378 372.524 151.49 373.729 160.889C373.965 162.722 374.181 164.508 374.378 166.232C374.57 167.945 374.757 169.712 374.935 171.531C375.17 173.951 375.607 175.967 376.083 178.161C376.232 178.852 376.386 179.567 376.587 180.561C376.765 181.439 376.938 182.337 377.101 183.244C377.274 184.209 377.442 185.15 377.591 186.076C378.768 193.258 379.618 201.135 380.224 208.705C381.098 219.583 382.135 230.326 382.299 236.985L382.308 237.465L381.857 237.637C379.676 238.463 375.089 238.977 373.441 236.908L373.374 236.601C368.277 214.159 362.624 196.004 357.441 179.745C351.436 160.908 346.34 144.918 344.38 128.774C342.953 128.659 341.642 128.275 340.436 127.713C339.111 127.094 337.924 126.254 336.891 125.313C335.974 124.478 336.949 123.542 337.866 124.367Z" fill="#333333"/>
<path fill-rule="evenodd" clip-rule="evenodd" d="M341.68 24.6007C343.165 21.0916 347.103 23.0934 347.118 24.9703C346.93 24.7639 346.104 24.2694 345.634 24.2118C345.47 26.3 342.972 26.7369 342.3 24.5095C342.031 24.4951 341.877 24.4807 341.68 24.6007ZM340.782 40.9076C340.936 40.9652 343.294 41.6085 346.421 38.9203C348.054 37.5185 349.856 35.224 351.609 31.5132C351.58 31.5228 351.547 31.5324 351.518 31.5421C351.057 31.6669 350.677 30.8316 351.441 30.5436C351.643 30.4668 351.844 30.3612 352.022 30.2363C352.402 29.9771 352.704 29.6555 352.887 29.3675C353.607 28.2394 353.795 26.9865 353.545 26.0744C353.449 25.724 353.285 25.4263 353.069 25.2247C352.868 25.0327 352.603 24.9175 352.286 24.9031C351.652 24.8743 350.812 25.2199 349.793 26.1272C349.227 26.6312 348.722 25.9832 348.996 25.5608L348.679 25.1143C348.741 23.151 348.679 21.538 348.52 20.2179C348.352 18.8402 348.078 17.8033 347.718 17.0449C347.488 16.5552 347.132 16.0752 346.7 15.6863C346.306 15.3263 345.854 15.0479 345.384 14.9039C344.827 14.7311 344.265 14.7743 343.712 14.9423C343.102 15.1295 342.487 15.4703 341.877 15.8736C341.57 16.0752 341.267 16.2912 340.974 16.5024C339.447 17.5969 338.231 18.4658 335.815 17.8225C335.489 17.7361 335.181 17.5729 334.917 17.3473C334.888 17.3233 334.859 17.2993 334.835 17.2753C334.398 17.9377 334.023 18.701 333.706 19.5411C332.635 22.4213 332.323 26.1512 332.919 29.7371C333.51 33.2942 334.989 36.6881 337.496 38.9299C338.443 39.7651 339.533 40.4468 340.782 40.9076ZM351.547 26.6072C350.941 26.7273 350.874 26.2232 351.508 26.1176C351.7 26.0888 351.873 26.0888 352.027 26.1272C352.282 26.1848 352.474 26.324 352.603 26.5256C352.723 26.7129 352.786 26.9529 352.786 27.2217C352.786 27.6681 352.613 28.225 352.253 28.7818C352.118 28.993 351.892 29.2331 351.623 29.4155C351.479 29.5163 351.321 29.5979 351.148 29.6555C350.735 29.7995 350.567 29.3819 351.081 29.1611C351.172 29.1226 351.263 29.0698 351.35 29.0122C351.566 28.8682 351.739 28.681 351.844 28.5178C352.152 28.0378 352.301 27.5817 352.301 27.2217C352.301 27.0441 352.267 26.8953 352.195 26.7897C352.133 26.6937 352.041 26.6312 351.921 26.6024C351.816 26.5784 351.691 26.5784 351.547 26.6072ZM333.188 24.4519C334.537 20.89 338.553 22.7429 338.64 24.6199C338.443 24.4231 337.602 23.9574 337.127 23.919C337.045 26.012 334.561 26.54 333.807 24.3415C333.538 24.3319 333.38 24.3271 333.188 24.4519ZM339.499 33.3422C342.29 35.5936 343.304 31.5997 343.794 30.9852C343.654 35.944 339.85 35.5984 339.499 33.3422ZM338.769 29.6027C339.096 29.7803 339.62 29.9627 340.777 29.9867C338.39 30.9324 337.549 29.8235 337.583 28.7914C337.621 27.3993 338.928 27.6777 338.664 25.4215C339.797 27.0057 337.237 28.7722 338.769 29.6027Z" fill="#FEFEFE"/>
<path fill-rule="evenodd" clip-rule="evenodd" d="M343.719 89.5683L251.521 73.8086C248.216 73.2421 245.997 70.1075 246.559 66.8048L251.589 39.2781C252.156 35.9754 255.292 33.7576 258.597 34.3193L350.795 50.079C354.1 50.6454 356.319 53.7801 355.757 57.0827L350.732 84.6095C350.16 87.9121 347.023 90.1347 343.719 89.5683Z" fill="#0061FF"/>
<path d="M277.556 51.0528L270.498 54.1564L276.307 59.2261L269.249 62.3297L263.443 57.2378L270.501 54.1343L264.689 49.0866L271.747 45.9831L277.556 51.0528ZM269.015 63.6389L276.073 60.5354L281.882 65.6051L274.824 68.7087L269.015 63.6389ZM276.311 59.204L283.369 56.1005L277.556 51.0528L284.581 47.9442L290.39 53.0139L283.332 56.1175L289.141 61.1872L282.083 64.2908L276.311 59.204Z" fill="white"/>
<path fill-rule="evenodd" clip-rule="evenodd" d="M325.009 65.6271L337.008 62.3533C338.007 62.07 338.151 61.3548 337.291 60.7883L326.863 53.9526C326.349 53.6117 325.576 53.3717 324.822 53.2949C324.322 53.2469 323.832 53.2709 323.433 53.3813L322.367 53.6741L311.434 56.6552C310.435 56.9384 310.291 57.6537 311.146 58.2201L315.825 61.2876L317.054 62.094L321.574 65.0559C322.295 65.6271 323.866 65.9104 325.009 65.6271Z" fill="white"/>
<path fill-rule="evenodd" clip-rule="evenodd" d="M329.313 65.5792L327.228 66.136L324.865 66.7649C323.866 67.0481 322.295 66.7649 321.435 66.1936L316.411 62.8525L315.186 62.0365L314.581 61.6332L310.435 62.7709C309.436 63.0542 309.292 63.7694 310.147 64.3359L312.083 65.6032L313.317 66.4096L320.58 71.1668C320.902 71.3781 321.301 71.5557 321.747 71.6709C322.396 71.8437 323.131 71.9013 323.842 71.7909C323.947 71.7765 324.048 71.7573 324.149 71.7333L324.447 71.6517L325.927 71.2484L336.148 68.4594C337.147 68.1762 337.292 67.4609 336.437 66.8945L332.863 64.6143L329.313 65.5792Z" fill="white" fill-opacity="0.75"/>
<path fill-rule="evenodd" clip-rule="evenodd" d="M331.58 70.7492L325.888 72.2949L324.418 72.6934L323.722 72.8806C323.357 72.9862 322.915 73.015 322.458 72.9766C321.839 72.9286 321.195 72.7654 320.681 72.5253C320.542 72.4581 320.412 72.3861 320.292 72.3093L313.577 67.8978L311.343 68.5122L309.431 69.0403C309.359 69.0595 309.292 69.0835 309.225 69.1075C309.191 69.1219 309.158 69.1363 309.124 69.1507C308.408 69.4819 308.384 70.1011 309.143 70.6052L309.225 70.658L316.411 75.3672L317.78 76.2649L319.576 77.441C320.436 78.0122 321.863 78.2954 322.862 78.0122L324.365 77.6042L325.826 77.2057L331.172 75.7464L334.866 74.7383C335.313 74.6135 335.586 74.3975 335.678 74.1527C335.793 73.8455 335.625 73.4854 335.149 73.1734L331.58 70.7492Z" fill="white" fill-opacity="0.5"/>
<path d="M352.808 85.4153C352.827 85.8791 352.593 86.4845 352.026 87.1897C351.471 87.8803 350.663 88.5828 349.714 89.2198C347.798 90.5061 345.471 91.4178 343.804 91.4875C342.338 91.5487 341.206 90.6587 340.378 89.2504C339.549 87.8395 339.123 86.0472 339.066 84.6959C339.028 83.7784 339.777 82.9765 341.435 82.3507C343.025 81.7504 345.11 81.4603 346.925 81.3845C348.565 81.316 350.036 81.9478 351.113 82.8236C352.224 83.7269 352.781 84.7726 352.808 85.4153Z" fill="white" stroke="#333333" stroke-width="1.5"/>
<path d="M298.446 40.3041C298.34 41.3948 297.416 42.524 295.904 43.3682C294.419 44.1974 292.54 44.6442 290.861 44.4804C287.388 44.1417 285.275 41.9215 285.5 39.6067C285.59 38.6927 286.442 38.0023 288.171 37.6122C289.829 37.2381 291.934 37.2397 293.743 37.4161C295.52 37.5894 296.765 38.0214 297.522 38.562C298.251 39.0821 298.508 39.6758 298.446 40.3041Z" fill="white" stroke="#333333" stroke-width="1.5"/>
<g clip-path="url(#clip2_6472_194601)">
<path d="M38.656 23.4429L34.828 25.8857L38.656 28.3286L34.828 30.7715L31 28.3154L34.828 25.8725L31 23.4429L34.828 21L38.656 23.4429ZM34.8082 31.5571L38.6362 29.1143L42.4642 31.5571L38.6362 34L34.8082 31.5571ZM38.656 28.3154L42.484 25.8725L38.656 23.4429L42.4642 21L46.2922 23.4429L42.4642 25.8857L46.2922 28.3286L42.4642 30.7715L38.656 28.3154Z" fill="#0061FF"/>
<path d="M49.2954 23.4429H52.3908C54.3642 23.4429 55.9944 24.5851 55.9944 27.193V27.741C55.9944 30.3687 54.4698 31.5505 52.4502 31.5505H49.2954V23.4429ZM51.0246 24.9152V30.0716H52.3512C53.4732 30.0716 54.2256 29.3388 54.2256 27.708V27.2788C54.2256 25.648 53.4336 24.9152 52.2918 24.9152H51.0246ZM56.9118 24.9944H58.2978L58.5222 26.5196C58.7862 25.483 59.4594 24.9284 60.6804 24.9284H61.1094V26.678H60.3966C58.9908 26.678 58.6476 27.1666 58.6476 28.5531V31.5703H56.9382V24.9944H56.9118ZM61.4526 28.4144V28.2296C61.4526 26.031 62.8584 24.8294 64.7724 24.8294C66.6864 24.8294 68.0922 26.031 68.0922 28.2296V28.4144C68.0922 30.5734 66.7656 31.7354 64.7724 31.7354C62.6538 31.7156 61.4526 30.58 61.4526 28.4144ZM66.3432 28.3946V28.2296C66.3432 27.0081 65.7294 26.2753 64.7526 26.2753C63.7758 26.2753 63.162 26.9487 63.162 28.2296V28.3946C63.162 29.5764 63.7758 30.2499 64.7526 30.2499C65.7294 30.2301 66.3432 29.5764 66.3432 28.3946ZM68.9898 24.9944H70.4154L70.5804 26.2357C70.9236 25.4038 71.6562 24.8294 72.7386 24.8294C74.4084 24.8294 75.5106 26.031 75.5106 28.256V28.4408C75.5106 30.5998 74.2896 31.742 72.7386 31.742C71.7024 31.742 70.9896 31.2732 70.6398 30.5206V33.8415H68.97L68.9898 24.9944ZM73.7748 28.3946V28.2494C73.7748 26.9421 73.1016 26.2951 72.204 26.2951C71.247 26.2951 70.6134 27.0279 70.6134 28.2494V28.3748C70.6134 29.5368 71.2272 30.2697 72.1842 30.2697C73.1676 30.2499 73.7748 29.6227 73.7748 28.3946ZM78.0384 30.3555L77.8932 31.5571H76.428V22.7958H78.0978V26.1564C78.4674 25.2981 79.2 24.8294 80.2362 24.8294C81.807 24.8492 82.9686 25.9319 82.9686 28.1107V28.3154C82.9686 30.4942 81.8664 31.742 80.1966 31.742C79.0944 31.7156 78.3816 31.2072 78.0384 30.3555ZM81.213 28.3154V28.1503C81.213 26.9487 80.5596 26.2753 79.6422 26.2753C78.7248 26.2753 78.0516 27.0279 78.0516 28.1701V28.3154C78.0516 29.5368 78.6852 30.2499 79.6224 30.2499C80.6256 30.2499 81.213 29.6227 81.213 28.3154ZM83.7012 28.4144V28.2296C83.7012 26.031 85.107 24.8294 87.021 24.8294C88.935 24.8294 90.3408 26.031 90.3408 28.2296V28.4144C90.3408 30.5734 88.9944 31.7354 87.021 31.7354C84.9024 31.7156 83.7012 30.58 83.7012 28.4144ZM88.605 28.3946V28.2296C88.605 27.0081 87.9912 26.2753 87.0144 26.2753C86.0376 26.2753 85.4238 26.9487 85.4238 28.2296V28.3946C85.4238 29.5764 86.0376 30.2499 87.0144 30.2499C87.9978 30.2301 88.605 29.5764 88.605 28.3946ZM92.5782 28.1503L90.2748 24.9944H92.2482L93.5748 26.9685L94.9212 24.9944H96.8748L94.5384 28.1305L97.0002 31.5571H95.0664L93.5616 29.3784L92.0964 31.5571H90.0768L92.5782 28.1503Z" fill="black"/>
</g>
</g>
</g>
<defs>
<clipPath id="clip0_6472_194601">
<rect width="448" height="254" fill="white"/>
</clipPath>
<clipPath id="clip1_6472_194601">
<rect width="448" height="254" fill="white" transform="translate(-0.5 0.469238)"/>
</clipPath>
<clipPath id="clip2_6472_194601">
<rect width="66" height="13" fill="white" transform="translate(31 21)"/>
</clipPath>
</defs>
</svg>
