<svg width="304" height="252" viewBox="0 0 304 252" fill="none" xmlns="http://www.w3.org/2000/svg">
<rect x="24" width="123.542" height="122" rx="61" fill="white"/>
<path d="M63.2466 64.0481C63.2466 62.4578 62.5897 61.6626 61.3088 61.6626C60.0278 61.6626 59.3709 62.4578 59.3709 64.0481V71.6023H55.5281V64.0481C55.5281 62.4578 54.904 61.6626 53.6231 61.6626C52.3421 61.6626 51.6852 62.4578 51.6852 64.0481V71.6023H47.8752V63.6174C47.8752 61.9608 48.4336 60.7349 49.5831 59.8734C50.5685 59.1114 51.948 58.7469 53.6231 58.7469C55.3638 58.7469 56.6119 59.1776 57.4331 60.0722C58.1228 59.1776 59.4038 58.7469 61.2759 58.7469C62.9838 58.7469 64.3305 59.1114 65.3158 59.8734C66.4654 60.7349 67.0238 61.9608 67.0238 63.6174V71.6355H63.2466V64.0481Z" fill="url(#paint0_linear_6435_121574)"/>
<path d="M74.2824 71.9337C72.3446 71.9337 70.768 71.3042 69.4871 70.0783C68.239 68.8524 67.5821 67.262 67.5821 65.3072C67.5821 63.3524 68.2061 61.762 69.4871 60.5361C70.7352 59.3102 72.3446 58.6807 74.2824 58.6807C76.2203 58.6807 77.8297 59.3102 79.0778 60.5361C80.3587 61.762 80.9828 63.3524 80.9828 65.3072C80.9828 67.262 80.3587 68.8524 79.0778 70.0783C77.7968 71.3042 76.1874 71.9337 74.2824 71.9337ZM74.2824 61.762C73.3628 61.762 72.6402 62.1265 72.1475 62.8223C71.6548 63.5181 71.3921 64.3464 71.3921 65.3403C71.3921 66.3012 71.622 67.1295 72.0818 67.7922C72.6073 68.5542 73.3299 68.9187 74.2496 68.9187C75.1692 68.9187 75.8918 68.5542 76.4173 67.7922C76.91 67.1295 77.1399 66.3012 77.1399 65.3403C77.1399 64.3795 76.91 63.5512 76.4502 62.8885C75.9575 62.1265 75.2021 61.762 74.2824 61.762Z" fill="url(#paint1_linear_6435_121574)"/>
<path d="M88.0773 71.9337C86.1394 71.9337 84.5629 71.3042 83.2819 70.0783C82.0338 68.8524 81.3769 67.262 81.3769 65.3072C81.3769 63.3524 82.001 61.762 83.2819 60.5361C84.53 59.3102 86.1394 58.6807 88.0773 58.6807C90.0151 58.6807 91.6245 59.3102 92.8726 60.5361C94.1536 61.762 94.7776 63.3524 94.7776 65.3072C94.7776 67.262 94.1536 68.8524 92.8726 70.0783C91.5917 71.3042 89.9823 71.9337 88.0773 71.9337ZM88.0773 61.762C87.1576 61.762 86.435 62.1265 85.9424 62.8223C85.4497 63.5181 85.1869 64.3464 85.1869 65.3403C85.1869 66.3012 85.4168 67.1295 85.8767 67.7922C86.4022 68.5542 87.1248 68.9187 88.0444 68.9187C88.9641 68.9187 89.6867 68.5542 90.2122 67.7922C90.7049 67.1295 90.9348 66.3012 90.9348 65.3403C90.9348 64.3795 90.7049 63.5512 90.245 62.8885C89.7524 62.1265 88.9969 61.762 88.0773 61.762Z" fill="url(#paint2_linear_6435_121574)"/>
<path d="M105.091 71.5693V70.3102C104.762 70.7741 104.171 71.1385 103.35 71.4036C102.627 71.6687 101.938 71.7681 101.281 71.7681C99.4742 71.7681 97.9962 71.1385 96.9123 69.8795C95.7956 68.6205 95.2701 67.0632 95.2701 65.2078C95.2701 63.3855 95.7956 61.8283 96.8795 60.6024C97.9634 59.3765 99.4085 58.747 101.182 58.747C103.219 58.747 104.499 59.3102 105.091 60.4036V50H108.802V71.5693H105.091ZM105.091 64.4126C105.091 63.7169 104.762 63.0542 104.105 62.4247C103.448 61.7952 102.792 61.4638 102.102 61.4638C101.116 61.4638 100.361 61.8614 99.7698 62.6566C99.2772 63.3524 99.0144 64.247 99.0144 65.2741C99.0144 66.2681 99.2772 67.1295 99.7698 67.8584C100.328 68.6867 101.116 69.0843 102.102 69.0843C102.693 69.0843 103.317 68.8193 104.04 68.256C104.729 67.6928 105.091 67.1295 105.091 66.5331V64.4126Z" fill="url(#paint3_linear_6435_121574)"/>
<path d="M110.149 71.5693V50H113.959V71.5693H110.149Z" fill="url(#paint4_linear_6435_121574)"/>
<path d="M118.524 66.4669C118.688 67.2621 119.083 67.9247 119.674 68.488C120.298 69.0512 120.955 69.3494 121.71 69.3494C122.236 69.3494 122.794 69.2169 123.418 68.9518C124.173 68.6205 124.535 68.256 124.535 67.8253L128.542 67.7922C127.983 69.1506 126.998 70.2108 125.651 70.9398C124.371 71.6355 122.991 72 121.447 72C119.509 72 117.867 71.3705 116.586 70.1777C115.305 68.9518 114.648 67.3615 114.648 65.3735C114.648 63.3193 115.305 61.7289 116.586 60.503C117.867 59.3103 119.542 58.7139 121.579 58.7139C123.812 58.7139 125.553 59.4428 126.801 60.9337C127.951 62.2922 128.542 64.1476 128.542 66.4669H118.524ZM124.765 64.0813C124.6 63.253 124.272 62.5904 123.746 62.0602C123.155 61.497 122.466 61.1988 121.71 61.1988C120.922 61.1988 120.265 61.4639 119.707 62.0271C119.181 62.5904 118.82 63.253 118.623 64.0813H124.765Z" fill="url(#paint5_linear_6435_121574)"/>
<path d="M48.2818 61.6917L47.8729 63.7368C51.621 64.9979 55.1646 63.7709 57.0387 60.4987C54.2787 58.59 51.7232 60.5328 48.2818 61.6917Z" fill="#58595B"/>
<path d="M48.2822 61.1809C48.1459 61.9649 48.0437 62.7149 47.9074 63.4989C51.4851 64.7261 54.9947 63.6693 56.8688 60.465C54.4836 57.7039 51.8259 59.9878 48.2822 61.1809Z" fill="url(#paint6_linear_6435_121574)"/>
<path d="M52.5407 62.101C50.9051 61.7601 49.1333 62.6123 47.9067 63.4987C47.123 57.7717 50.6666 57.9081 55.3006 59.3398C54.994 60.7374 54.4829 62.6123 53.5969 63.7373C53.5629 62.9873 53.2221 62.476 52.5407 62.101Z" fill="url(#paint7_linear_6435_121574)"/>
<path d="M43 61.1811C48.9969 57.5677 52.3702 56.8859 59.3553 56.17C51.2458 62.5787 51.0413 61.1811 43 61.1811Z" fill="url(#paint8_linear_6435_121574)"/>
<path d="M59.3553 56.2039L52.9155 60.8738" stroke="#4A4A4C" stroke-width="0.5"/>
<path opacity="0.23" d="M51.6883 58.6931C51.586 57.9759 51.7565 59.4444 51.6883 58.6931V58.6931Z" fill="#231F20"/>
<path d="M43 61.1812L52.9154 60.8744" stroke="#A8ABAD" stroke-width="0.5"/>
<path d="M51.0753 58.7603C49.3716 59.2375 43.7836 60.4646 43.7154 61.1805C43.5451 62.5099 43.6813 64.6233 43.6813 64.6233" stroke="#F16922" stroke-width="0.5"/>
<path d="M44.1937 69.7033C43.5802 68.1693 42.8304 66.4648 43.7166 64.3513C44.296 66.3285 44.1937 67.8284 44.1937 69.7033Z" fill="#F16922"/>
<path d="M50.8853 58.7859C51.0272 58.7354 51.1217 58.6367 51.0963 58.5656C51.071 58.4944 50.9354 58.4778 50.7935 58.5283C50.6516 58.5789 50.5571 58.6775 50.5825 58.7487C50.6078 58.8198 50.7434 58.8365 50.8853 58.7859Z" fill="#6D6E70"/>
<rect x="41" y="135" width="117" height="117" rx="58.5" fill="white"/>
<path fill-rule="evenodd" clip-rule="evenodd" d="M107.845 207.868L112.936 193.193C113.889 190.82 114.202 188.911 114.202 187.233C114.202 186.62 114.161 186.047 114.066 185.515C115.386 187.902 116.108 190.616 116.108 193.507C116.108 199.644 112.8 205.004 107.858 207.895L107.845 207.868ZM101.801 185.72C102.794 185.665 103.706 185.556 103.706 185.556C104.591 185.447 104.496 184.137 103.597 184.192C103.597 184.192 100.902 184.397 99.1597 184.397C97.5261 184.397 94.8035 184.192 94.8035 184.192C93.8915 184.137 93.7962 185.501 94.6946 185.556C94.6946 185.556 95.5386 185.665 96.4371 185.72L99.0235 192.811L95.3889 203.722L89.3311 185.72C90.3249 185.665 91.2369 185.556 91.2369 185.556C92.1218 185.447 92.0265 184.137 91.128 184.192C91.128 184.192 88.4327 184.397 86.6902 184.397C86.3771 184.397 86.0096 184.397 85.6012 184.397C88.596 179.869 93.7009 176.896 99.5136 176.896C103.843 176.896 107.79 178.532 110.744 181.26C110.69 181.26 110.608 181.233 110.554 181.233C108.92 181.233 107.749 182.651 107.749 184.192C107.749 185.556 108.539 186.715 109.383 188.093C110.023 189.184 110.744 190.602 110.744 192.661C110.744 194.08 110.336 195.88 109.492 198.035L107.831 203.572L101.841 185.706L101.801 185.72ZM99.4864 210.132C97.8528 210.132 96.301 209.913 94.8035 209.477L99.8131 194.952L104.918 208.959C104.959 209.041 105 209.122 105.054 209.191C103.312 209.804 101.46 210.145 99.5136 210.145L99.4864 210.132ZM82.8786 193.493C82.8786 191.107 83.3959 188.815 84.3079 186.742L92.2443 208.481C86.7038 205.781 82.8786 200.094 82.8786 193.507V193.493ZM99.4728 175C89.3039 175 81 183.292 81 193.493C81 203.694 89.3039 212 99.5136 212C109.723 212 118 203.681 118 193.493C117.986 183.292 109.682 175 99.4728 175Z" fill="#123C56"/>
<rect x="157" y="54" width="123.066" height="124" rx="61.5332" fill="white"/>
<path fill-rule="evenodd" clip-rule="evenodd" d="M217.902 118.818V118.893C217.902 123.925 213.848 128 208.842 128C203.837 128 199.783 123.925 199.783 118.893C199.783 113.862 203.837 109.786 208.842 109.786C210.895 109.786 212.784 110.478 214.311 111.623V105.811C214.31 105.573 214.356 105.337 214.446 105.117C214.536 104.897 214.669 104.697 214.836 104.528C215.004 104.36 215.203 104.227 215.422 104.136C215.641 104.045 215.876 103.999 216.113 104C217.101 104 217.914 104.818 217.914 105.811V118.73C217.914 118.755 217.914 118.792 217.902 118.818ZM208.842 124.264C211.793 124.264 214.185 121.859 214.185 118.893C214.185 115.927 211.793 113.522 208.842 113.522C205.891 113.522 203.499 115.927 203.499 118.893C203.499 121.859 205.891 124.264 208.842 124.264ZM236.859 118.893C236.859 123.923 232.803 128 227.799 128C222.796 128 218.74 123.923 218.74 118.893C218.74 113.863 222.796 109.786 227.799 109.786C232.803 109.786 236.859 113.863 236.859 118.893ZM233.141 118.893C233.141 121.862 230.751 124.264 227.798 124.264C224.845 124.264 222.455 121.862 222.455 118.893C222.455 115.924 224.845 113.522 227.798 113.522C230.751 113.522 233.141 115.924 233.141 118.893ZM256.066 118.893C256.066 123.923 252.01 128 247.007 128C242.003 128 237.947 123.923 237.947 118.893C237.947 113.863 242.003 109.786 247.007 109.786C252.01 109.786 256.066 113.863 256.066 118.893ZM252.35 118.893C252.35 121.862 249.96 124.264 247.007 124.264C244.054 124.264 241.664 121.862 241.664 118.893C241.664 115.924 244.054 113.522 247.007 113.522C249.96 113.522 252.35 115.924 252.35 118.893Z" fill="#888888"/>
<path fill-rule="evenodd" clip-rule="evenodd" d="M199.119 118.868C199.119 123.898 195.063 127.975 190.059 127.975C185.056 127.975 181 123.898 181 118.868C181 113.838 185.056 109.761 190.059 109.761C195.063 109.761 199.119 113.838 199.119 118.868ZM195.314 118.906C195.314 121.872 192.922 124.277 189.971 124.277C187.02 124.277 184.628 121.872 184.628 118.906C184.628 115.939 187.02 113.535 189.971 113.535C192.922 113.535 195.314 115.939 195.314 118.906Z" fill="#9C5789"/>
<defs>
<linearGradient id="paint0_linear_6435_121574" x1="47.8754" y1="49.1406" x2="58.6878" y2="90.3349" gradientUnits="userSpaceOnUse">
<stop stop-color="#FF8E3D"/>
<stop offset="1" stop-color="#FF6F3D"/>
</linearGradient>
<linearGradient id="paint1_linear_6435_121574" x1="47.8754" y1="49.1406" x2="58.6878" y2="90.3349" gradientUnits="userSpaceOnUse">
<stop stop-color="#FF8E3D"/>
<stop offset="1" stop-color="#FF6F3D"/>
</linearGradient>
<linearGradient id="paint2_linear_6435_121574" x1="47.8754" y1="49.1406" x2="58.6878" y2="90.3349" gradientUnits="userSpaceOnUse">
<stop stop-color="#FF8E3D"/>
<stop offset="1" stop-color="#FF6F3D"/>
</linearGradient>
<linearGradient id="paint3_linear_6435_121574" x1="47.8754" y1="49.1406" x2="58.6878" y2="90.3349" gradientUnits="userSpaceOnUse">
<stop stop-color="#FF8E3D"/>
<stop offset="1" stop-color="#FF6F3D"/>
</linearGradient>
<linearGradient id="paint4_linear_6435_121574" x1="47.8754" y1="49.1406" x2="58.6878" y2="90.3349" gradientUnits="userSpaceOnUse">
<stop stop-color="#FF8E3D"/>
<stop offset="1" stop-color="#FF6F3D"/>
</linearGradient>
<linearGradient id="paint5_linear_6435_121574" x1="47.8754" y1="49.1406" x2="58.6878" y2="90.3349" gradientUnits="userSpaceOnUse">
<stop stop-color="#FF8E3D"/>
<stop offset="1" stop-color="#FF6F3D"/>
</linearGradient>
<linearGradient id="paint6_linear_6435_121574" x1="47.9033" y1="61.5821" x2="56.8514" y2="61.5821" gradientUnits="userSpaceOnUse">
<stop stop-color="#929497"/>
<stop offset="0.1245" stop-color="#757578"/>
<stop offset="0.2792" stop-color="#575658"/>
<stop offset="0.4403" stop-color="#403E3F"/>
<stop offset="0.6085" stop-color="#302D2E"/>
<stop offset="0.7884" stop-color="#262223"/>
<stop offset="1" stop-color="#231F20"/>
</linearGradient>
<linearGradient id="paint7_linear_6435_121574" x1="49.6168" y1="58.5936" x2="53.3341" y2="63.9003" gradientUnits="userSpaceOnUse">
<stop stop-color="#231F20"/>
<stop offset="1" stop-color="#231F20" stop-opacity="0"/>
</linearGradient>
<linearGradient id="paint8_linear_6435_121574" x1="42.9888" y1="58.7567" x2="59.3437" y2="58.7567" gradientUnits="userSpaceOnUse">
<stop stop-color="#929497"/>
<stop offset="0.1245" stop-color="#757578"/>
<stop offset="0.2792" stop-color="#575658"/>
<stop offset="0.4403" stop-color="#403E3F"/>
<stop offset="0.6085" stop-color="#302D2E"/>
<stop offset="0.7884" stop-color="#262223"/>
<stop offset="1" stop-color="#231F20"/>
</linearGradient>
</defs>
</svg>
