<svg width="304" height="266" viewBox="0 0 304 266" fill="none" xmlns="http://www.w3.org/2000/svg">
<rect width="78" height="78" rx="39" transform="matrix(-1 0 0 1 242 0)" fill="white"/>
<path d="M201.897 15.5625L180.941 23.0355L184.137 50.7441L201.897 60.5805L219.657 50.7441L222.853 23.0355L201.897 15.5625Z" fill="#DD0031"/>
<path d="M201.897 15.5625V20.5595V20.537V43.3386V60.5805L219.657 50.7441L222.853 23.0355L201.897 15.5625Z" fill="#C3002F"/>
<path d="M201.897 20.537L188.797 49.9113H193.682L196.315 43.3386H207.435L210.068 49.9113H214.953L201.897 20.537ZM205.724 39.287H198.071L201.897 30.0808L205.724 39.287Z" fill="white"/>
<rect x="62" width="78" height="78" rx="39" fill="white"/>
<path d="M105.755 20.9851L101 29.3057L96.2453 20.9851H80.4117L101 57.015L121.588 20.9851H105.755Z" fill="#41B883"/>
<path d="M105.754 20.9851L101 29.3058L96.2452 20.9851H88.6469L101 42.6027L113.353 20.9851H105.754Z" fill="#34495E"/>
<rect x="11" y="94" width="78" height="78" rx="39" fill="white"/>
<path d="M70.2675 123.594C70.2675 122.833 70.1051 122.146 69.7679 121.571C69.4433 120.997 68.9562 120.522 68.3069 120.148C62.9122 117.038 57.5051 113.929 52.1104 110.82C50.6493 109.983 49.2507 110.008 47.8022 110.857C45.6543 112.118 34.8899 118.287 31.6931 120.148C30.3693 120.91 29.7325 122.083 29.7325 123.607V142.388C29.7325 143.138 29.8948 143.799 30.207 144.374C30.5317 144.961 31.0312 145.46 31.6931 145.847C34.9024 147.708 45.6543 153.865 47.8022 155.138C49.2507 155.987 50.6618 156.025 52.1104 155.176C57.5051 152.054 62.9122 148.957 68.3069 145.847C68.9812 145.46 69.4683 144.973 69.7929 144.374C70.1051 143.799 70.2675 143.138 70.2675 142.388V123.594Z" fill="#9A4993"/>
<path d="M50.0501 132.923L30.1821 144.361C30.5068 144.948 31.0063 145.448 31.6682 145.835C34.8775 147.696 45.6294 153.852 47.7773 155.126C49.2258 155.975 50.637 156.012 52.0855 155.163C57.4802 152.041 62.8874 148.944 68.2821 145.835C68.9564 145.448 69.4434 144.961 69.7681 144.361L50.0501 132.923Z" fill="#6A1577"/>
<path d="M44.1682 136.307C45.3296 138.33 47.5024 139.691 49.9875 139.691C52.4975 139.691 54.6828 138.317 55.8317 136.269L50.0499 132.923L44.1682 136.307Z" fill="#6A1577"/>
<path d="M70.2675 123.594C70.2675 122.833 70.1051 122.146 69.768 121.571L50.0499 132.923L69.7929 144.361C70.1051 143.787 70.2675 143.125 70.2675 142.376V123.594Z" fill="#813084"/>
<path d="M55.8315 136.269C54.6826 138.305 52.4973 139.691 49.9872 139.691C47.4897 139.691 45.3169 138.33 44.168 136.307C43.6061 135.32 43.2813 134.196 43.2813 132.985C43.2813 129.276 46.2784 126.279 49.9872 126.279C52.4598 126.279 54.6202 127.628 55.7815 129.626L61.6382 126.254C59.3031 122.233 54.9573 119.523 49.9748 119.523C42.5321 119.523 36.5131 125.555 36.5131 132.985C36.5131 135.42 37.1624 137.718 38.2988 139.691C40.6215 143.725 44.9922 146.447 49.9872 146.447C54.9948 146.447 59.3655 143.712 61.6882 139.654L55.8315 136.269ZM63.2366 129.801H61.9004V136.257H63.2366V129.801ZM66.1962 129.801H64.86V136.257H66.1962V129.801Z" fill="white"/>
<path d="M67.2826 130.887H60.8265V132.223H67.2826V130.887ZM67.2826 133.834H60.8265V135.17H67.2826V133.834Z" fill="white"/>
<rect x="113" y="94" width="78" height="78" rx="39" fill="white"/>
<path d="M145.752 146.522C145.752 146.522 143.88 147.612 147.084 147.981C150.966 148.425 152.95 148.361 157.228 147.55C157.228 147.55 158.353 148.257 159.923 148.868C150.334 152.984 138.22 148.63 145.752 146.522Z" fill="#5382A1"/>
<path d="M144.58 141.151C144.58 141.151 142.481 142.707 145.687 143.04C149.834 143.468 153.109 143.503 158.775 142.41C158.775 142.41 159.559 143.206 160.792 143.641C149.197 147.037 136.283 143.909 144.58 141.151Z" fill="#5382A1"/>
<path d="M154.459 132.04C156.822 134.764 153.838 137.216 153.838 137.216C153.838 137.216 159.838 134.114 157.083 130.23C154.509 126.607 152.536 124.807 163.22 118.602C163.22 118.602 146.449 122.797 154.459 132.04Z" fill="#E76F00"/>
<path d="M167.142 150.495C167.142 150.495 168.528 151.638 165.617 152.523C160.081 154.202 142.578 154.709 137.716 152.589C135.968 151.828 139.246 150.771 140.277 150.549C141.352 150.316 141.967 150.359 141.967 150.359C140.023 148.988 129.403 153.052 136.572 154.216C156.124 157.392 172.214 152.786 167.142 150.495Z" fill="#5382A1"/>
<path d="M146.652 135.586C146.652 135.586 137.749 137.704 143.5 138.473C145.928 138.798 150.768 138.725 155.276 138.346C158.961 138.035 162.66 137.373 162.66 137.373C162.66 137.373 161.361 137.93 160.421 138.573C151.38 140.954 133.915 139.847 138.943 137.411C143.195 135.352 146.652 135.586 146.652 135.586Z" fill="#5382A1"/>
<path d="M162.624 144.526C171.814 139.743 167.565 135.147 164.599 135.766C163.872 135.918 163.548 136.049 163.548 136.049C163.548 136.049 163.818 135.626 164.333 135.443C170.201 133.377 174.714 141.536 162.439 144.767C162.439 144.768 162.581 144.64 162.624 144.526Z" fill="#5382A1"/>
<path d="M157.083 108.582C157.083 108.582 162.173 113.681 152.255 121.522C144.302 127.812 150.442 131.398 152.252 135.496C147.61 131.301 144.203 127.609 146.488 124.172C149.843 119.127 159.136 116.681 157.083 108.582Z" fill="#E76F00"/>
<path d="M147.556 157.487C156.377 158.053 169.924 157.173 170.245 152.993C170.245 152.993 169.629 154.578 162.954 155.836C155.425 157.255 146.138 157.09 140.63 156.18C140.63 156.18 141.758 157.115 147.556 157.487Z" fill="#5382A1"/>
<rect x="215" y="94" width="78" height="78" rx="39" fill="white"/>
<path fill-rule="evenodd" clip-rule="evenodd" d="M264.515 139.298L243.524 151.796L270.703 149.947L272.796 122.465L264.515 139.298Z" fill="url(#paint0_linear_6435_121611)"/>
<path fill-rule="evenodd" clip-rule="evenodd" d="M270.748 149.928L268.412 133.76L262.049 142.185L270.748 149.928Z" fill="url(#paint1_linear_6435_121611)"/>
<path fill-rule="evenodd" clip-rule="evenodd" d="M270.779 149.928L253.665 148.581L243.615 151.761L270.779 149.928Z" fill="url(#paint2_linear_6435_121611)"/>
<path fill-rule="evenodd" clip-rule="evenodd" d="M243.639 151.765L247.914 137.72L238.506 139.737L243.639 151.765Z" fill="url(#paint3_linear_6435_121611)"/>
<path fill-rule="evenodd" clip-rule="evenodd" d="M262.047 142.232L258.113 126.78L246.855 137.362L262.047 142.232Z" fill="url(#paint4_linear_6435_121611)"/>
<path fill-rule="evenodd" clip-rule="evenodd" d="M271.904 126.998L261.262 118.282L258.298 127.889L271.904 126.998Z" fill="url(#paint5_linear_6435_121611)"/>
<path fill-rule="evenodd" clip-rule="evenodd" d="M266.927 115.175L260.668 118.643L256.719 115.128L266.927 115.175Z" fill="url(#paint6_linear_6435_121611)"/>
<path fill-rule="evenodd" clip-rule="evenodd" d="M236.031 144.448L238.653 139.653L236.532 133.94L236.031 144.448Z" fill="url(#paint7_linear_6435_121611)"/>
<path fill-rule="evenodd" clip-rule="evenodd" d="M236.392 133.76L238.525 139.83L247.798 137.744L258.384 127.878L261.372 118.362L256.667 115.031L248.67 118.033C246.15 120.383 241.261 125.033 241.084 125.12C240.91 125.21 237.856 130.998 236.392 133.76Z" fill="white"/>
<path fill-rule="evenodd" clip-rule="evenodd" d="M243.884 122.856C249.345 117.426 256.386 114.218 259.087 116.952C261.787 119.685 258.924 126.328 253.463 131.756C248.002 137.184 241.049 140.568 238.349 137.835C235.647 135.103 238.423 128.284 243.884 122.856Z" fill="url(#paint8_linear_6435_121611)"/>
<path fill-rule="evenodd" clip-rule="evenodd" d="M243.639 151.759L247.881 137.669L261.969 142.208C256.875 146.997 251.21 151.046 243.639 151.759Z" fill="url(#paint9_linear_6435_121611)"/>
<path fill-rule="evenodd" clip-rule="evenodd" d="M258.402 127.85L262.019 142.215C266.274 137.729 270.093 132.906 271.963 126.94L258.402 127.85Z" fill="url(#paint10_linear_6435_121611)"/>
<path fill-rule="evenodd" clip-rule="evenodd" d="M271.926 127.013C273.374 122.632 273.708 116.349 266.883 115.182L261.282 118.284L271.926 127.013Z" fill="url(#paint11_linear_6435_121611)"/>
<path fill-rule="evenodd" clip-rule="evenodd" d="M236.031 144.385C236.232 151.614 241.433 151.722 243.649 151.785L238.531 139.8L236.031 144.385Z" fill="#9E1209"/>
<path fill-rule="evenodd" clip-rule="evenodd" d="M258.423 127.872C261.692 129.888 268.282 133.935 268.415 134.009C268.623 134.126 271.256 129.556 271.854 126.974L258.423 127.872Z" fill="url(#paint12_radial_6435_121611)"/>
<path fill-rule="evenodd" clip-rule="evenodd" d="M247.876 137.669L253.546 148.64C256.9 146.817 259.525 144.595 261.93 142.215L247.876 137.669Z" fill="url(#paint13_radial_6435_121611)"/>
<path fill-rule="evenodd" clip-rule="evenodd" d="M238.509 139.815L237.705 149.409C239.221 151.485 241.307 151.666 243.495 151.504C241.912 147.554 238.75 139.655 238.509 139.815Z" fill="url(#paint14_linear_6435_121611)"/>
<path fill-rule="evenodd" clip-rule="evenodd" d="M261.249 118.308L272.514 119.893C271.913 117.339 270.067 115.69 266.92 115.175L261.249 118.308Z" fill="url(#paint15_linear_6435_121611)"/>
<rect width="78" height="78" rx="39" transform="matrix(-1 0 0 1 241.633 188)" fill="white"/>
<g clip-path="url(#clip0_6435_121611)">
<path d="M202.633 239.5C216.439 239.5 227.633 233.904 227.633 227C227.633 220.097 216.439 214.5 202.633 214.5C188.826 214.5 177.633 220.097 177.633 227C177.633 233.904 188.826 239.5 202.633 239.5Z" fill="#777BB3"/>
<path fill-rule="evenodd" clip-rule="evenodd" d="M215.667 227.874C215.166 228.255 214.374 228.447 213.314 228.447H211.937L212.876 223.679H214.571C215.548 223.679 216.195 223.845 216.495 224.172C216.787 224.492 216.851 225.086 216.684 225.936C216.504 226.846 216.162 227.498 215.667 227.874ZM207.569 234.227C207.619 234.287 207.694 234.322 207.772 234.322H210.562C210.689 234.322 210.797 234.233 210.821 234.111L211.442 230.962H213.614C214.692 230.962 215.595 230.847 216.299 230.621C217.013 230.392 217.671 230.003 218.253 229.466C218.739 229.026 219.138 228.532 219.44 227.998C219.742 227.465 219.959 226.87 220.085 226.229C220.395 224.655 220.151 223.403 219.357 222.507C218.568 221.616 217.313 221.164 215.627 221.164H210.262C210.136 221.164 210.027 221.253 210.003 221.375L207.514 234.012C207.498 234.088 207.519 234.167 207.569 234.227ZM191.536 228.447C192.597 228.447 193.388 228.255 193.889 227.874C194.384 227.498 194.727 226.846 194.906 225.936C195.073 225.086 195.01 224.492 194.717 224.172C194.417 223.845 193.77 223.679 192.793 223.679H191.098L190.159 228.447H191.536ZM185.994 234.322C185.916 234.322 185.841 234.287 185.791 234.227C185.741 234.167 185.721 234.088 185.736 234.012L188.225 221.375C188.249 221.253 188.358 221.164 188.484 221.164H193.849C195.536 221.164 196.791 221.616 197.58 222.507C198.373 223.403 198.618 224.655 198.308 226.229C198.181 226.87 197.964 227.465 197.662 227.998C197.36 228.532 196.961 229.026 196.475 229.466C195.894 230.003 195.236 230.392 194.521 230.621C193.818 230.847 192.914 230.962 191.836 230.962H189.664L189.043 234.111C189.019 234.233 188.911 234.322 188.785 234.322H185.994ZM204.705 230.962C204.626 230.962 204.551 230.927 204.501 230.867C204.451 230.807 204.431 230.729 204.446 230.652L205.547 225.061C205.652 224.529 205.626 224.147 205.475 223.986C205.382 223.888 205.103 223.722 204.279 223.722H202.284L200.899 230.751C200.875 230.874 200.767 230.962 200.64 230.962H197.872C197.793 230.962 197.719 230.927 197.669 230.867C197.619 230.807 197.598 230.728 197.613 230.652L200.103 218.015C200.127 217.893 200.235 217.805 200.362 217.805H203.13C203.209 217.805 203.283 217.839 203.333 217.899C203.383 217.959 203.404 218.038 203.389 218.114L202.788 221.164H204.934C206.569 221.164 207.678 221.449 208.323 222.034C208.982 222.631 209.187 223.585 208.934 224.871L207.776 230.751C207.752 230.874 207.643 230.962 207.517 230.962H204.705Z" fill="white"/>
</g>
<rect x="62.3673" y="188" width="77.2653" height="78" rx="38.6326" fill="white"/>
<path d="M117.009 235.801C112.177 242.369 101.853 240.152 95.2349 240.471C95.2349 240.471 94.0632 240.537 92.8831 240.736C92.8831 240.736 93.3293 240.541 93.8984 240.341C98.5469 238.701 100.744 238.372 103.568 236.892C108.875 234.119 114.157 228.079 115.232 221.804C113.212 227.839 107.068 233.033 101.474 235.142C97.645 236.583 90.7207 237.986 90.7197 237.987C90.7229 237.992 90.4437 237.839 90.4398 237.835C85.7307 235.498 85.5948 225.095 94.1475 221.742C97.8973 220.27 101.484 221.078 105.538 220.094C109.861 219.046 114.869 215.74 116.904 211.418C119.186 218.322 121.927 229.122 117.009 235.801ZM117.093 209.279C116.518 210.673 115.816 211.93 115.007 213.053C111.444 209.324 106.471 207 100.975 207C90.1625 207 81.3673 215.972 81.3673 226.999C81.3673 232.779 83.7862 237.993 87.6428 241.647L88.0721 242.035C87.3551 241.438 87.2449 240.364 87.826 239.632C88.4107 238.9 89.4647 238.786 90.182 239.38C90.9013 239.974 91.0109 241.051 90.4285 241.784C89.8483 242.518 88.7924 242.629 88.0741 242.037L88.3663 242.3C91.7776 245.23 96.175 247 100.975 247C111.309 247 119.795 238.796 120.522 228.442C121.06 223.372 119.592 216.935 117.093 209.279Z" fill="#5FB832"/>
<defs>
<linearGradient id="paint0_linear_6435_121611" x1="268.332" y1="155.14" x2="260.544" y2="141.427" gradientUnits="userSpaceOnUse">
<stop stop-color="#FB7655"/>
<stop offset="0.41" stop-color="#E42B1E"/>
<stop offset="0.99" stop-color="#990000"/>
<stop offset="1" stop-color="#990000"/>
</linearGradient>
<linearGradient id="paint1_linear_6435_121611" x1="272.196" y1="143.605" x2="262.183" y2="136.904" gradientUnits="userSpaceOnUse">
<stop stop-color="#871101"/>
<stop offset="0.99" stop-color="#911209"/>
<stop offset="1" stop-color="#911209"/>
</linearGradient>
<linearGradient id="paint2_linear_6435_121611" x1="264.198" y1="155.556" x2="254.186" y2="148.856" gradientUnits="userSpaceOnUse">
<stop stop-color="#871101"/>
<stop offset="0.99" stop-color="#911209"/>
<stop offset="1" stop-color="#911209"/>
</linearGradient>
<linearGradient id="paint3_linear_6435_121611" x1="243.212" y1="138.736" x2="244.769" y2="148.833" gradientUnits="userSpaceOnUse">
<stop stop-color="white"/>
<stop offset="0.23" stop-color="#E57252"/>
<stop offset="0.46" stop-color="#DE3B20"/>
<stop offset="0.99" stop-color="#A60003"/>
<stop offset="1" stop-color="#A60003"/>
</linearGradient>
<linearGradient id="paint4_linear_6435_121611" x1="253.87" y1="129.306" x2="254.444" y2="139.612" gradientUnits="userSpaceOnUse">
<stop stop-color="white"/>
<stop offset="0.23" stop-color="#E4714E"/>
<stop offset="0.56" stop-color="#BE1A0D"/>
<stop offset="0.99" stop-color="#A80D00"/>
<stop offset="1" stop-color="#A80D00"/>
</linearGradient>
<linearGradient id="paint5_linear_6435_121611" x1="263.328" y1="119.78" x2="265.046" y2="127.164" gradientUnits="userSpaceOnUse">
<stop stop-color="white"/>
<stop offset="0.18" stop-color="#E46342"/>
<stop offset="0.4" stop-color="#C82410"/>
<stop offset="0.99" stop-color="#A80D00"/>
<stop offset="1" stop-color="#A80D00"/>
</linearGradient>
<linearGradient id="paint6_linear_6435_121611" x1="258.108" y1="117.179" x2="265.482" y2="113.502" gradientUnits="userSpaceOnUse">
<stop stop-color="white"/>
<stop offset="0.54" stop-color="#C81F11"/>
<stop offset="0.99" stop-color="#BF0905"/>
<stop offset="1" stop-color="#BF0905"/>
</linearGradient>
<linearGradient id="paint7_linear_6435_121611" x1="236.756" y1="136.161" x2="237.365" y2="142.247" gradientUnits="userSpaceOnUse">
<stop stop-color="white"/>
<stop offset="0.31" stop-color="#DE4024"/>
<stop offset="0.99" stop-color="#BF190B"/>
<stop offset="1" stop-color="#BF190B"/>
</linearGradient>
<linearGradient id="paint8_linear_6435_121611" x1="232.588" y1="143.893" x2="261.166" y2="114.588" gradientUnits="userSpaceOnUse">
<stop stop-color="#BD0012"/>
<stop offset="0.07" stop-color="white"/>
<stop offset="0.17" stop-color="white"/>
<stop offset="0.27" stop-color="#C82F1C"/>
<stop offset="0.33" stop-color="#820C01"/>
<stop offset="0.46" stop-color="#A31601"/>
<stop offset="0.72" stop-color="#B31301"/>
<stop offset="0.99" stop-color="#E82609"/>
<stop offset="1" stop-color="#E82609"/>
</linearGradient>
<linearGradient id="paint9_linear_6435_121611" x1="254.416" y1="146.856" x2="245.83" y2="144.743" gradientUnits="userSpaceOnUse">
<stop stop-color="#8C0C01"/>
<stop offset="0.54" stop-color="#990C00"/>
<stop offset="0.99" stop-color="#A80D0E"/>
<stop offset="1" stop-color="#A80D0E"/>
</linearGradient>
<linearGradient id="paint10_linear_6435_121611" x1="269.158" y1="136.526" x2="261.514" y2="129.694" gradientUnits="userSpaceOnUse">
<stop stop-color="#7E110B"/>
<stop offset="0.99" stop-color="#9E0C00"/>
<stop offset="1" stop-color="#9E0C00"/>
</linearGradient>
<linearGradient id="paint11_linear_6435_121611" x1="271.96" y1="123.951" x2="268.151" y2="119.89" gradientUnits="userSpaceOnUse">
<stop stop-color="#79130D"/>
<stop offset="0.99" stop-color="#9E120B"/>
<stop offset="1" stop-color="#9E120B"/>
</linearGradient>
<radialGradient id="paint12_radial_6435_121611" cx="0" cy="0" r="1" gradientUnits="userSpaceOnUse" gradientTransform="translate(262.721 129.804) scale(9.34435 9.37036)">
<stop stop-color="#A80D00"/>
<stop offset="0.99" stop-color="#7E0E08"/>
<stop offset="1" stop-color="#7E0E08"/>
</radialGradient>
<radialGradient id="paint13_radial_6435_121611" cx="0" cy="0" r="1" gradientUnits="userSpaceOnUse" gradientTransform="translate(249.78 142.152) scale(12.4221 12.4566)">
<stop stop-color="#A30C00"/>
<stop offset="0.99" stop-color="#800E08"/>
<stop offset="1" stop-color="#800E08"/>
</radialGradient>
<linearGradient id="paint14_linear_6435_121611" x1="240.98" y1="151.751" x2="237.869" y2="141.225" gradientUnits="userSpaceOnUse">
<stop stop-color="#8B2114"/>
<stop offset="0.43" stop-color="#9E100A"/>
<stop offset="0.99" stop-color="#B3100C"/>
<stop offset="1" stop-color="#B3100C"/>
</linearGradient>
<linearGradient id="paint15_linear_6435_121611" x1="264.727" y1="116.854" x2="271.672" y2="119.912" gradientUnits="userSpaceOnUse">
<stop stop-color="#B31000"/>
<stop offset="0.44" stop-color="#910F08"/>
<stop offset="0.99" stop-color="#791C12"/>
<stop offset="1" stop-color="#791C12"/>
</linearGradient>
<clipPath id="clip0_6435_121611">
<rect width="50" height="50" fill="white" transform="translate(177.633 202)"/>
</clipPath>
</defs>
</svg>
