<svg width="360" height="200" viewBox="0 0 360 200" fill="none" xmlns="http://www.w3.org/2000/svg">
<path d="M83.4728 163.5C83.1966 163.5 82.9728 163.724 82.9728 164V175.169C82.9728 178.434 80.9262 181.368 77.8243 182.532C77.598 182.617 77.4649 182.851 77.508 183.089C77.5512 183.327 77.7583 183.5 78 183.5H151C151.236 183.5 151.439 183.336 151.489 183.105C151.538 182.875 151.421 182.641 151.206 182.544C147.979 181.086 145.913 177.918 145.913 174.429V164C145.913 163.724 145.689 163.5 145.413 163.5H145.406H83.4728Z" fill="url(#paint0_linear_6435_121684)" stroke="#333333" stroke-miterlimit="10" stroke-linecap="round" stroke-linejoin="round"/>
<path d="M21.4093 164.5H205.597C209.962 164.5 213.5 160.976 213.5 156.623V32.3836C213.5 28.0233 209.955 24.5 205.591 24.5H21.4093C17.0381 24.5 13.5 28.0302 13.5 32.3836V156.616C13.5 160.977 17.045 164.5 21.4093 164.5Z" fill="url(#paint1_linear_6435_121684)" stroke="#333333" stroke-miterlimit="10" stroke-linecap="round" stroke-linejoin="round"/>
<path d="M151.5 183C151.5 182.724 151.276 182.5 151 182.5H77C76.7239 182.5 76.5 182.724 76.5 183V186C76.5 186.276 76.7239 186.5 77 186.5H151C151.276 186.5 151.5 186.276 151.5 186V183Z" fill="url(#paint2_linear_6435_121684)" stroke="#333333" stroke-miterlimit="10" stroke-linecap="round" stroke-linejoin="round"/>
<path d="M206.5 32V31.5H206H21H20.5V32V146V146.5H21H206H206.5V146V32Z" fill="white" stroke="#333333" stroke-miterlimit="10"/>
<path d="M172.5 145C172.5 145.828 171.828 146.5 171 146.5H62C61.1716 146.5 60.5 145.828 60.5 145V15.8942C60.5 14.5491 61.5325 13.5 62.7488 13.5H152.649C153.066 13.5 153.464 13.6739 153.748 13.9798L172.1 33.7602C172.357 34.0376 172.5 34.402 172.5 34.7804V145Z" fill="white" stroke="#333333" stroke-miterlimit="10"/>
<path fill-rule="evenodd" clip-rule="evenodd" d="M152 14H153.026V33.9756H172V35H152V14Z" fill="#333333"/>
<path fill-rule="evenodd" clip-rule="evenodd" d="M76 37.4995C76 37.2236 76.2236 37 76.4995 37H143.5C143.776 37 144 37.2236 144 37.4995C144 37.7754 143.776 37.999 143.5 37.999H76.4995C76.2236 37.999 76 37.7754 76 37.4995ZM76 43.4999C76 43.2241 76.2236 43.0004 76.4995 43.0004H153.5C153.776 43.0004 154 43.2241 154 43.4999C154 43.7758 153.776 43.9995 153.5 43.9995H76.4995C76.2236 43.9995 76 43.7758 76 43.4999ZM76.4995 49.0009C76.2236 49.0009 76 49.2245 76 49.5004C76 49.7763 76.2236 49.9999 76.4995 49.9999H153.5C153.776 49.9999 154 49.7763 154 49.5004C154 49.2245 153.776 49.0009 153.5 49.0009H76.4995Z" fill="#DFE2E3"/>
<path fill-rule="evenodd" clip-rule="evenodd" d="M96.5002 111H115.5H134.5H152.5H152.5C152.776 111 153 111.224 153 111.5C153 111.5 153 111.5 153 111.5C153 111.5 153 111.5 153 111.5V119.5V126.5V133.5V133.5C153 133.776 152.776 134 152.5 134C152.49 134 152.479 134 152.469 133.999H134.531C134.521 134 134.511 134 134.5 134C134.49 134 134.479 134 134.469 133.999H115.531L115.518 134C115.512 134 115.506 134 115.5 134C115.49 134 115.479 134 115.469 133.999H96.5314L96.5149 134L96.5002 134C96.4898 134 96.4794 134 96.4691 133.999H76.5314C76.5211 134 76.5107 134 76.5002 134C76.3205 134 76.1629 133.905 76.0748 133.763C76.0274 133.686 76 133.596 76 133.5C76 133.492 76.0002 133.485 76.0005 133.477L76.0005 126.522C76.0002 126.514 76 126.507 76 126.5C76 126.492 76.0002 126.485 76.0005 126.477L76.0005 119.522C76.0002 119.514 76 119.507 76 119.5C76 119.492 76.0002 119.485 76.0005 119.477L76.0005 111.522C76.0002 111.514 76 111.507 76 111.5C76 111.224 76.2236 111 76.4995 111H76.5002H96.5002ZM77 111.999L77 119H96.0005V111.999H77ZM152 111.999H135V119H152V111.999ZM134 111.999H116V119H134V111.999ZM115 111.999V119H97V111.999H115ZM96.0005 133H77L77 126.999H96.0005V133ZM96.0005 126H77L77 119.999H96.0005L96.0005 126ZM152 133V126.999H135V133H152ZM152 126V119.999H135V126H152ZM116 119.999H134V126H116V119.999ZM116 126.999H134V133H116V126.999ZM115 133V126.999H97V133H115ZM115 126V119.999H97L97 126H115Z" fill="#DFE2E3"/>
<rect x="95" y="105.001" width="38" height="0.999046" rx="0.499523" fill="#DFE2E3"/>
<rect x="85" y="99.0009" width="58" height="0.999046" rx="0.499523" fill="#DFE2E3"/>
<rect x="94" y="27" width="39" height="3" rx="1.5" fill="#D0D5DA"/>
<rect x="76" y="58" width="40" height="32" rx="3" fill="#F5F5F5"/>
<path d="M85.7933 76.5937C86.5624 75.9572 87.6832 75.9854 88.4194 76.6599L92.7413 80.6194C93.5344 81.346 94.7602 81.3152 95.5158 80.5496L105.773 70.1566C106.574 69.3449 107.89 69.3663 108.665 70.2034L115.468 77.5592C115.81 77.9288 116 78.4138 116 78.9173V88C116 89.1046 115.105 90 114 90H78C76.8954 90 76 89.1046 76 88V85.6392C76 85.0432 76.2658 84.4783 76.7249 84.0984L85.7933 76.5937Z" fill="#E0E0E0"/>
<ellipse cx="84.1633" cy="66.2051" rx="3.26531" ry="3.28205" fill="#E0E0E0"/>
<rect x="123" y="59" width="14" height="14" rx="3" fill="#EFEFEF"/>
<rect x="123" y="76" width="14" height="14" rx="3" fill="#E2E2E2"/>
<rect x="140" y="59" width="14" height="14" rx="3" fill="#E2E2E2"/>
<rect x="140" y="76" width="14" height="14" rx="3" fill="#EFEFEF"/>
<path d="M115.5 158C117.433 158 119 156.433 119 154.5C119 152.567 117.433 151 115.5 151C113.567 151 112 152.567 112 154.5C112 156.433 113.567 158 115.5 158Z" fill="url(#paint3_linear_6435_121684)" stroke="#333333" stroke-miterlimit="10" stroke-linecap="round" stroke-linejoin="round"/>
<path d="M326 177.5H326.5V177V59C326.5 54.3056 322.694 50.5 318 50.5H145C140.306 50.5 136.5 54.3056 136.5 59V177V177.5H137H326Z" fill="#333333"/>
<path d="M326 177.5H326.5V177V59C326.5 54.3056 322.694 50.5 318 50.5H145C140.306 50.5 136.5 54.3056 136.5 59V177V177.5H137H326Z" fill="url(#paint4_linear_6435_121684)"/>
<path d="M326 177.5H326.5V177V59C326.5 54.3056 322.694 50.5 318 50.5H145C140.306 50.5 136.5 54.3056 136.5 59V177V177.5H137H326Z" stroke="#333333"/>
<path d="M142.5 56.5H320.5V171.5H142.5V56.5Z" fill="white" stroke="#333333"/>
<path d="M288.5 170C288.5 170.828 287.828 171.5 287 171.5H178C177.172 171.5 176.5 170.828 176.5 170V40.8942C176.5 39.5491 177.532 38.5 178.749 38.5H268.649C269.066 38.5 269.464 38.6739 269.748 38.9798L288.1 58.7602C288.357 59.0376 288.5 59.402 288.5 59.7804V170Z" fill="white" stroke="#333333" stroke-miterlimit="10"/>
<path fill-rule="evenodd" clip-rule="evenodd" d="M268 39H269.026V58.9756H288V60H268V39Z" fill="#333333"/>
<path fill-rule="evenodd" clip-rule="evenodd" d="M192 62.4995C192 62.2236 192.224 62 192.5 62H259.5C259.776 62 260 62.2236 260 62.4995C260 62.7754 259.776 62.999 259.5 62.999H192.5C192.224 62.999 192 62.7754 192 62.4995ZM192 68.4999C192 68.2241 192.224 68.0004 192.5 68.0004H269.5C269.776 68.0004 270 68.2241 270 68.4999C270 68.7758 269.776 68.9995 269.5 68.9995H192.5C192.224 68.9995 192 68.7758 192 68.4999ZM192.5 74.0009C192.224 74.0009 192 74.2245 192 74.5004C192 74.7763 192.224 74.9999 192.5 74.9999H269.5C269.776 74.9999 270 74.7763 270 74.5004C270 74.2245 269.776 74.0009 269.5 74.0009H192.5Z" fill="#DFE2E3"/>
<path fill-rule="evenodd" clip-rule="evenodd" d="M212.5 136H231.5H250.5H268.5H268.5C268.776 136 269 136.224 269 136.5C269 136.5 269 136.5 269 136.5C269 136.5 269 136.5 269 136.5V144.5V151.5V158.5V158.5C269 158.776 268.776 159 268.5 159C268.49 159 268.479 159 268.469 158.999H250.531C250.521 159 250.511 159 250.5 159C250.49 159 250.479 159 250.469 158.999H231.531L231.518 159C231.512 159 231.506 159 231.5 159C231.49 159 231.479 159 231.469 158.999H212.531L212.515 159L212.5 159C212.49 159 212.479 159 212.469 158.999H192.531C192.521 159 192.511 159 192.5 159C192.32 159 192.163 158.905 192.075 158.763C192.027 158.686 192 158.596 192 158.5C192 158.492 192 158.485 192 158.477L192 151.522C192 151.514 192 151.507 192 151.5C192 151.492 192 151.485 192 151.477L192 144.522C192 144.514 192 144.507 192 144.5C192 144.492 192 144.485 192 144.477L192 136.522C192 136.514 192 136.507 192 136.5C192 136.224 192.224 136 192.5 136H192.5H212.5ZM193 136.999L193 144H212V136.999H193ZM268 136.999H251V144H268V136.999ZM250 136.999H232V144H250V136.999ZM231 136.999V144H213V136.999H231ZM212 158H193L193 151.999H212V158ZM212 151H193L193 144.999H212L212 151ZM268 158V151.999H251V158H268ZM268 151V144.999H251V151H268ZM232 144.999H250V151H232V144.999ZM232 151.999H250V158H232V151.999ZM231 158V151.999H213V158H231ZM231 151V144.999H213L213 151H231Z" fill="#DFE2E3"/>
<rect x="211" y="130.001" width="38" height="0.999046" rx="0.499523" fill="#DFE2E3"/>
<rect x="201" y="124.001" width="58" height="0.999046" rx="0.499523" fill="#DFE2E3"/>
<rect x="210" y="52" width="39" height="3" rx="1.5" fill="#D0D5DA"/>
<rect x="192" y="83" width="40" height="32" rx="3" fill="#F5F5F5"/>
<path d="M201.793 101.594C202.562 100.957 203.683 100.985 204.419 101.66L208.741 105.619C209.534 106.346 210.76 106.315 211.516 105.55L221.773 95.1566C222.574 94.3449 223.89 94.3663 224.665 95.2034L231.468 102.559C231.81 102.929 232 103.414 232 103.917V113C232 114.105 231.105 115 230 115H194C192.895 115 192 114.105 192 113V110.639C192 110.043 192.266 109.478 192.725 109.098L201.793 101.594Z" fill="#E0E0E0"/>
<ellipse cx="200.163" cy="91.2051" rx="3.26531" ry="3.28205" fill="#E0E0E0"/>
<rect x="239" y="84" width="14" height="14" rx="3" fill="#EFEFEF"/>
<rect x="239" y="101" width="14" height="14" rx="3" fill="#E2E2E2"/>
<rect x="256" y="84" width="14" height="14" rx="3" fill="#E2E2E2"/>
<rect x="256" y="101" width="14" height="14" rx="3" fill="#EFEFEF"/>
<path d="M344 183L344.474 183.159L344.694 182.5H344H116H115.038L115.591 183.287L116 183C115.591 183.287 115.591 183.287 115.591 183.288L115.592 183.288L115.593 183.29L115.596 183.294L115.605 183.307C115.613 183.318 115.624 183.332 115.637 183.35C115.664 183.385 115.703 183.434 115.755 183.495C115.858 183.617 116.011 183.786 116.219 183.986C116.636 184.386 117.272 184.91 118.169 185.432C119.966 186.478 122.789 187.5 126.944 187.5H334.09C338.455 187.5 341.04 186.481 342.549 185.407C343.302 184.872 343.778 184.329 344.068 183.909C344.213 183.7 344.312 183.522 344.375 183.391C344.407 183.326 344.43 183.272 344.446 183.233C344.454 183.213 344.46 183.197 344.465 183.185L344.471 183.169L344.473 183.163L344.474 183.161L344.474 183.16C344.474 183.159 344.474 183.159 344 183Z" fill="#FF9468" stroke="#333333"/>
<path d="M115 176L115.001 175.5L114.5 175.499V176V182V182.5H115H345H345.5V182V176V175.498L344.998 175.5C306.666 175.621 249.167 175.621 201.25 175.591C177.292 175.575 155.729 175.553 140.157 175.534C132.37 175.525 126.081 175.516 121.739 175.51L116.741 175.503L115.443 175.501L115.112 175.5L115.029 175.5L115.008 175.5L115.003 175.5C115.001 175.5 115.001 175.5 115 176Z" fill="#FFCA91" stroke="#333333"/>
<defs>
<linearGradient id="paint0_linear_6435_121684" x1="78.0001" y1="163.258" x2="86.9633" y2="199.041" gradientUnits="userSpaceOnUse">
<stop stop-color="#FFC671"/>
<stop offset="0.59375" stop-color="#FF7541"/>
<stop offset="1" stop-color="#FF6F3D"/>
</linearGradient>
<linearGradient id="paint1_linear_6435_121684" x1="14" y1="35.2541" x2="161.691" y2="240.888" gradientUnits="userSpaceOnUse">
<stop stop-color="#FFC671"/>
<stop offset="0.757512" stop-color="#FF7541"/>
<stop offset="1" stop-color="#FF6F3D"/>
</linearGradient>
<linearGradient id="paint2_linear_6435_121684" x1="77.0001" y1="182.883" x2="77.2341" y2="188.878" gradientUnits="userSpaceOnUse">
<stop stop-color="#FFC671"/>
<stop offset="0.59375" stop-color="#FF7541"/>
<stop offset="1" stop-color="#FF6F3D"/>
</linearGradient>
<linearGradient id="paint3_linear_6435_121684" x1="112" y1="150.727" x2="119" y2="158" gradientUnits="userSpaceOnUse">
<stop stop-color="#FFC671"/>
<stop offset="0.59375" stop-color="#FF7541"/>
<stop offset="1" stop-color="#FF6F3D"/>
</linearGradient>
<linearGradient id="paint4_linear_6435_121684" x1="145.301" y1="52.9234" x2="175.257" y2="204.711" gradientUnits="userSpaceOnUse">
<stop stop-color="#FFCE95"/>
<stop offset="1" stop-color="#FF8D63"/>
</linearGradient>
</defs>
</svg>
