<svg width="1496" height="474" viewBox="0 0 1496 474" fill="none" xmlns="http://www.w3.org/2000/svg">
<g opacity="0.1">
<path d="M1308.61 472.245C1273.12 472.245 1238.42 461.732 1208.91 442.033C1179.4 422.338 1156.4 394.342 1142.82 361.588C1129.23 328.834 1125.68 292.792 1132.6 258.021C1139.53 223.249 1156.62 191.309 1181.72 166.24C1206.81 141.171 1238.79 124.099 1273.6 117.183C1308.41 110.266 1344.49 113.816 1377.29 127.383C1410.08 140.95 1438.11 163.926 1457.82 193.404C1477.54 222.882 1488.07 257.538 1488.07 292.991C1488.07 340.532 1469.16 386.126 1435.5 419.743C1401.85 453.357 1356.2 472.245 1308.61 472.245ZM1308.61 398.153C1329.43 398.153 1349.79 391.985 1367.1 380.43C1384.42 368.874 1397.91 352.451 1405.88 333.235C1413.85 314.019 1415.93 292.875 1411.87 272.475C1407.81 252.076 1397.78 233.338 1383.06 218.631C1368.33 203.924 1349.57 193.908 1329.15 189.85C1308.73 185.792 1287.56 187.875 1268.32 195.835C1249.08 203.794 1232.64 217.273 1221.07 234.567C1209.5 251.86 1203.33 272.192 1203.33 292.991C1203.33 320.882 1214.42 347.63 1234.17 367.352C1253.91 387.073 1280.69 398.153 1308.61 398.153ZM932.949 472.245C897.459 472.245 862.762 461.732 833.252 442.033C803.738 422.338 780.739 394.342 767.154 361.588C753.574 328.834 750.019 292.792 756.944 258.021C763.865 223.249 780.96 191.309 806.054 166.24C831.153 141.171 863.128 124.099 897.942 117.183C932.752 110.266 968.833 113.816 1001.62 127.383C1034.42 140.95 1062.45 163.926 1082.16 193.404C1101.88 222.882 1112.4 257.538 1112.4 292.991C1112.4 340.532 1093.5 386.126 1059.84 419.743C1026.19 453.357 980.544 472.245 932.949 472.245ZM932.949 398.153C953.772 398.153 974.129 391.985 991.442 380.43C1008.75 368.874 1022.25 352.451 1030.22 333.235C1038.18 314.019 1040.27 292.875 1036.21 272.475C1032.15 252.076 1022.12 233.338 1007.4 218.631C992.672 203.924 973.912 193.908 953.491 189.85C933.066 185.792 911.9 187.875 892.662 195.835C873.423 203.794 856.983 217.273 845.413 234.567C833.843 251.86 827.67 272.192 827.67 292.991C827.67 320.882 838.761 347.63 858.507 367.352C878.249 387.073 905.028 398.153 932.949 398.153ZM736.744 290.601C736.744 390.744 656.35 472.245 557.288 472.245C458.23 472.245 377.833 390.983 377.833 290.84C377.833 190.697 450.811 113.738 557.288 113.738C596.53 113.738 632.9 122.104 662.571 143.853V39.8864C662.571 20.0491 680.037 3.79688 699.657 3.79688C719.278 3.79688 736.744 20.0491 736.744 39.8864V290.601ZM557.288 398.153C578.111 398.153 598.468 391.985 615.781 380.43C633.093 368.874 646.586 352.451 654.556 333.235C662.523 314.019 664.61 292.875 660.548 272.475C656.487 252.076 646.457 233.338 631.734 218.631C617.012 203.924 598.251 193.908 577.83 189.85C557.405 185.792 536.236 187.875 517.001 195.835C497.762 203.794 481.318 217.273 469.752 234.567C458.182 251.86 452.009 272.192 452.009 292.991C452.009 320.882 463.1 347.63 482.846 367.352C502.588 387.073 529.367 398.153 557.288 398.153Z" fill="url(#paint0_linear_18_175699)"/>
<path d="M181.624 472.244C146.131 472.244 111.435 461.732 81.9234 442.033C52.412 422.338 29.4108 394.342 15.8282 361.588C2.24559 328.834 -1.30823 292.792 5.61613 258.02C12.5405 223.248 29.632 191.309 54.7292 166.24C79.8266 141.171 111.803 124.099 146.614 117.182C181.425 110.266 217.508 113.815 250.299 127.383C283.09 140.95 311.118 163.925 330.836 193.403C350.555 222.881 361.08 257.538 361.08 292.991C361.08 340.531 342.173 386.125 308.519 419.743C274.864 453.356 229.219 472.244 181.624 472.244ZM181.624 398.152C202.447 398.152 222.802 391.985 240.115 380.429C257.428 368.874 270.923 352.45 278.891 333.234C286.859 314.019 288.944 292.874 284.882 272.475C280.819 252.075 270.793 233.337 256.069 218.63C241.345 203.923 222.586 193.907 202.163 189.85C181.741 185.792 160.572 187.875 141.335 195.834C122.097 203.794 105.655 217.272 94.0861 234.566C82.5178 251.86 76.3432 272.192 76.3432 292.991C76.3432 320.881 87.4353 347.63 107.179 367.351C126.923 387.073 153.702 398.152 181.624 398.152Z" fill="url(#paint1_linear_18_175699)"/>
</g>
<defs>
<linearGradient id="paint0_linear_18_175699" x1="387.888" y1="238.021" x2="1633.88" y2="238.021" gradientUnits="userSpaceOnUse">
<stop stop-color="white"/>
<stop offset="1" stop-color="white" stop-opacity="0"/>
</linearGradient>
<linearGradient id="paint1_linear_18_175699" x1="369.432" y1="261.087" x2="56.962" y2="261.087" gradientUnits="userSpaceOnUse">
<stop stop-color="white"/>
<stop offset="1" stop-color="#999999"/>
</linearGradient>
</defs>
</svg>
