<svg width="599" height="28" viewBox="0 0 599 28" fill="none" xmlns="http://www.w3.org/2000/svg">
<path d="M44.8303 22.9455C45.3571 23.7091 45.2517 24.6909 44.6195 25.2364C43.882 25.7818 42.8283 25.6727 42.3015 25.0182L38.6137 20.1091L35.0312 24.9091C34.5044 25.6727 33.4507 25.6727 32.7132 25.1273C31.9756 24.5818 31.8702 23.6 32.3971 22.8364L36.6117 17.1636L32.3971 11.4909C31.8702 10.7273 32.081 9.63636 32.7132 9.09091C33.4507 8.54545 34.5044 8.76364 35.0312 9.41818L38.6137 14.3273L42.3015 9.63636C42.8283 8.87273 43.7766 8.76364 44.6195 9.30909C45.3571 9.85455 45.3571 10.9455 44.8303 11.7091L40.721 17.2727L44.8303 22.9455ZM25.6537 22.2909C22.9142 22.2909 20.7015 20.1091 20.7015 17.2727C20.7015 14.5455 22.9142 12.2545 25.6537 12.2545C28.3932 12.2545 30.6059 14.5455 30.6059 17.2727C30.5005 20.1091 28.2878 22.2909 25.6537 22.2909ZM11.1132 22.2909C8.37366 22.2909 6.16098 20.1091 6.16098 17.2727C6.16098 14.5455 8.37366 12.2545 11.1132 12.2545C13.8527 12.2545 16.0654 14.5455 16.0654 17.2727C16.0654 20.1091 13.8527 22.2909 11.1132 22.2909ZM25.6537 8.98182C22.5981 8.98182 19.8585 10.7273 18.4888 13.3455C17.119 10.7273 14.3795 8.98182 11.2185 8.98182C9.32195 8.98182 7.6361 9.63636 6.26634 10.6182V3.63636C6.26634 2.76364 5.52878 2 4.68585 2C3.73756 2 3 2.76364 3 3.63636V17.3818C3.10537 21.9636 6.68781 25.5636 11.1132 25.5636C14.2741 25.5636 17.0137 23.7091 18.3834 21.0909C19.7532 23.7091 22.4927 25.5636 25.5483 25.5636C30.079 25.5636 33.7668 21.8545 33.7668 17.1636C33.8722 12.6909 30.1844 8.98182 25.6537 8.98182Z" fill="#0056CF"/>
<g clip-path="url(#clip0_3654_1089)">
<path d="M100.137 21.0427C99.2317 21.6394 97.7971 21.9026 96.2973 21.9026C91.5321 21.9026 88.8385 19.0346 88.8385 14.4692C88.8385 10.0567 91.5321 6.96802 96.2547 6.96802C97.6667 6.96802 99.0787 7.23377 100.117 7.97085V9.89126C99.0787 9.2294 97.9325 8.88844 96.2547 8.88844C92.8563 8.88844 90.8248 11.1448 90.8248 14.4692C90.8248 17.7936 92.9215 20.0073 96.365 20.0073C97.6717 20.0192 98.9621 19.7165 100.127 19.1248L100.137 21.0427Z" fill="#253858"/>
<path d="M101.525 16.1486C101.525 12.8392 103.466 10.4349 106.776 10.4349C110.087 10.4349 111.986 12.8392 111.986 16.1486C111.986 19.4579 110.064 21.9148 106.776 21.9148C103.488 21.9148 101.525 19.4579 101.525 16.1486ZM103.378 16.1486C103.378 18.2445 104.416 20.1423 106.776 20.1423C109.136 20.1423 110.132 18.2445 110.132 16.1486C110.132 14.0526 109.129 12.1999 106.779 12.1999C104.429 12.1999 103.383 14.0526 103.383 16.1486H103.378Z" fill="#253858"/>
<path d="M123.577 21.6866H121.679V15.0253C121.679 13.0397 120.884 12.1572 119.075 12.1572C117.32 12.1572 116.096 13.3255 116.096 15.5543V21.6866H114.197V10.6554H116.096V12.4656C116.434 11.8391 116.938 11.318 117.553 10.9597C118.168 10.6014 118.87 10.4198 119.582 10.4348C122.12 10.4348 123.577 12.1898 123.577 15.2233V21.6866Z" fill="#253858"/>
<path d="M128.862 10.6557H131.708V12.4107H128.862V21.6868H127.008V12.4107H125.22V10.6557H127.008V9.44228C127.008 7.3915 128.157 6.00007 130.52 6.00007C130.952 5.99766 131.383 6.05675 131.799 6.17557V7.93052C131.406 7.85587 131.007 7.81893 130.607 7.82021C129.439 7.82021 128.852 8.50464 128.852 9.49744L128.862 10.6557Z" fill="#253858"/>
<path d="M136.709 21.7523C134.898 21.7523 133.752 20.8924 133.752 18.8617V6.04553H135.651V18.6411C135.651 19.6439 136.313 19.9874 137.13 19.9874C137.315 19.9904 137.499 19.9829 137.682 19.9648V21.6646C137.363 21.7331 137.036 21.7625 136.709 21.7523Z" fill="#253858"/>
<path d="M139.29 10.6558H141.188V17.3171C141.188 19.3027 141.983 20.1851 143.792 20.1851C145.547 20.1851 146.771 19.0168 146.771 16.7881V10.6558H148.675V21.6869H146.776V19.8768C146.438 20.5032 145.934 21.0243 145.319 21.3826C144.704 21.7409 144.002 21.9226 143.29 21.9075C140.752 21.9075 139.295 20.1526 139.295 17.1215L139.29 10.6558Z" fill="#253858"/>
<path d="M156.813 21.907C152.685 21.907 150.877 19.5253 150.877 16.1407C150.877 12.8088 152.73 10.4271 156.086 10.4271C159.484 10.4271 160.851 12.7888 160.851 16.1407V17.0007H152.798C153.064 18.876 154.277 20.0894 156.881 20.0894C158.026 20.0883 159.161 19.8864 160.236 19.4927V21.2477C159.329 21.729 157.939 21.907 156.813 21.907ZM152.775 15.3886H158.932C158.822 13.3378 157.894 12.167 155.998 12.167C153.989 12.1545 152.973 13.4557 152.775 15.3761V15.3886Z" fill="#253858"/>
<path d="M172.483 21.6866H170.585V15.0253C170.585 13.0397 169.789 12.1572 167.981 12.1572C166.226 12.1572 165.002 13.3255 165.002 15.5543V21.6866H163.103V10.6554H165.002V12.4656C165.34 11.8391 165.844 11.318 166.459 10.9597C167.074 10.6014 167.776 10.4198 168.488 10.4348C171.026 10.4348 172.483 12.1898 172.483 15.2233V21.6866Z" fill="#253858"/>
<path d="M182.924 21.3986C182.262 21.7521 181.246 21.9 180.23 21.9C176.303 21.9 174.462 19.5183 174.462 16.1337C174.462 12.8018 176.293 10.4201 180.23 10.4201C181.135 10.3905 182.034 10.5716 182.856 10.9491V12.7041C182.077 12.3373 181.224 12.1562 180.363 12.1751C177.494 12.1751 176.325 13.9852 176.325 16.1237C176.325 18.2622 177.517 20.0974 180.406 20.0974C181.259 20.12 182.109 19.9857 182.914 19.7013L182.924 21.3986Z" fill="#253858"/>
<path d="M190.36 21.907C186.232 21.907 184.424 19.5253 184.424 16.1407C184.424 12.8088 186.277 10.4271 189.633 10.4271C193.031 10.4271 194.398 12.7888 194.398 16.1407V17.0007H186.342C186.608 18.876 187.822 20.0894 190.425 20.0894C191.57 20.0883 192.706 19.8864 193.781 19.4927V21.2477C192.876 21.729 191.486 21.907 190.36 21.907ZM186.322 15.3886H192.479C192.369 13.3378 191.441 12.167 189.545 12.167C187.536 12.1545 186.52 13.4557 186.322 15.3761V15.3886Z" fill="#253858"/>
<path d="M66.9714 18.4178C66.8084 18.6836 66.6253 18.9919 66.4698 19.2376C66.4029 19.3507 66.383 19.4854 66.4145 19.6129C66.4459 19.7404 66.5261 19.8505 66.6379 19.9196L69.8983 21.9252C69.9549 21.9602 70.018 21.9835 70.0838 21.9939C70.1495 22.0042 70.2167 22.0014 70.2814 21.9855C70.346 21.9697 70.4069 21.9411 70.4604 21.9014C70.5139 21.8618 70.559 21.812 70.593 21.7547C70.7234 21.5366 70.8914 21.2533 71.0745 20.95C72.3661 18.819 73.6653 19.0797 76.0078 20.1978L79.2406 21.7347C79.3012 21.7635 79.367 21.7799 79.434 21.7829C79.5011 21.7858 79.568 21.7753 79.631 21.7519C79.6939 21.7285 79.7514 21.6928 79.8003 21.6468C79.8491 21.6007 79.8882 21.5454 79.9152 21.484L81.4677 17.9741C81.5204 17.8536 81.5237 17.7172 81.4768 17.5943C81.4299 17.4715 81.3365 17.3719 81.2169 17.3172C80.5347 16.9963 79.1779 16.357 77.9565 15.7678C73.5625 13.6343 69.828 13.7722 66.9714 18.4178Z" fill="url(#paint0_linear_3654_1089)"/>
<path d="M81.5902 10.4525C81.7532 10.1868 81.9363 9.87843 82.0918 9.63274C82.1587 9.51972 82.1786 9.38497 82.1472 9.25745C82.1158 9.12994 82.0355 9.01984 81.9238 8.95081L78.6634 6.94515C78.6063 6.90672 78.5419 6.88045 78.4742 6.86795C78.4066 6.85546 78.337 6.85703 78.27 6.87255C78.2029 6.88807 78.1398 6.91721 78.0845 6.95817C78.0292 6.99913 77.983 7.05102 77.9486 7.11062C77.8182 7.32874 77.6501 7.61204 77.4671 7.91539C76.1754 10.0464 74.8763 9.78567 72.5338 8.66751L69.311 7.1382C69.2504 7.10936 69.1846 7.09298 69.1176 7.09002C69.0505 7.08706 68.9836 7.09758 68.9207 7.12095C68.8577 7.14433 68.8002 7.18009 68.7513 7.22612C68.7025 7.27215 68.6634 7.3275 68.6364 7.38891L67.0839 10.8988C67.0312 11.0193 67.0279 11.1557 67.0748 11.2785C67.1218 11.4014 67.2151 11.5009 67.3347 11.5557C68.0169 11.8766 69.3737 12.5159 70.5951 13.105C74.9992 15.236 78.7336 15.0931 81.5902 10.4525Z" fill="url(#paint1_linear_3654_1089)"/>
</g>
<g clip-path="url(#clip1_3654_1089)">
<path d="M223.392 7.13408L216.896 11.2682L223.392 15.4022L216.896 19.5363L210.4 15.3799L216.896 11.2458L210.4 7.13408L216.896 3L223.392 7.13408ZM216.862 20.8659L223.358 16.7318L229.854 20.8659L223.358 25L216.862 20.8659ZM223.392 15.3799L229.888 11.2458L223.392 7.13408L229.854 3L236.35 7.13408L229.854 11.2682L236.35 15.4022L229.854 19.5363L223.392 15.3799Z" fill="#0061FF"/>
<path d="M241.446 7.13403H246.699C250.048 7.13403 252.814 9.067 252.814 13.4804V14.4078C252.814 18.8547 250.227 20.8547 246.8 20.8547H241.446V7.13403ZM244.381 9.62565V18.3519H246.632C248.536 18.3519 249.813 17.1117 249.813 14.3519V13.6257C249.813 10.8659 248.469 9.62565 246.531 9.62565H244.381ZM254.371 9.75973H256.723L257.104 12.3407C257.552 10.5865 258.694 9.648 260.766 9.648H261.494V12.6089H260.285C257.899 12.6089 257.317 13.4357 257.317 15.7821V20.8882H254.416V9.75973H254.371ZM262.077 15.5474V15.2346C262.077 11.5139 264.462 9.4804 267.71 9.4804C270.958 9.4804 273.344 11.5139 273.344 15.2346V15.5474C273.344 19.2011 271.093 21.1676 267.71 21.1676C264.115 21.134 262.077 19.2122 262.077 15.5474ZM270.376 15.5139V15.2346C270.376 13.1676 269.334 11.9273 267.677 11.9273C266.019 11.9273 264.978 13.067 264.978 15.2346V15.5139C264.978 17.5139 266.019 18.6536 267.677 18.6536C269.334 18.6201 270.376 17.5139 270.376 15.5139ZM274.867 9.75973H277.286L277.566 11.8603C278.149 10.4525 279.392 9.4804 281.229 9.4804C284.062 9.4804 285.933 11.5139 285.933 15.2793V15.5921C285.933 19.2458 283.861 21.1787 281.229 21.1787C279.47 21.1787 278.261 20.3854 277.667 19.1117V24.7318H274.834L274.867 9.75973ZM282.987 15.5139V15.2681C282.987 13.0558 281.845 11.9608 280.322 11.9608C278.698 11.9608 277.622 13.2011 277.622 15.2681V15.4804C277.622 17.4469 278.664 18.6871 280.288 18.6871C281.957 18.6536 282.987 17.5921 282.987 15.5139ZM290.222 18.8324L289.976 20.8659H287.49V6.03906H290.323V11.7262C290.95 10.2737 292.194 9.4804 293.952 9.4804C296.618 9.51392 298.589 11.3463 298.589 15.0335V15.3798C298.589 19.067 296.718 21.1787 293.885 21.1787C292.014 21.134 290.805 20.2737 290.222 18.8324ZM295.61 15.3798V15.1005C295.61 13.067 294.501 11.9273 292.944 11.9273C291.387 11.9273 290.245 13.2011 290.245 15.134V15.3798C290.245 17.4469 291.32 18.6536 292.91 18.6536C294.613 18.6536 295.61 17.5921 295.61 15.3798ZM299.832 15.5474V15.2346C299.832 11.5139 302.218 9.4804 305.466 9.4804C308.714 9.4804 311.099 11.5139 311.099 15.2346V15.5474C311.099 19.2011 308.814 21.1676 305.466 21.1676C301.87 21.134 299.832 19.2122 299.832 15.5474ZM308.154 15.5139V15.2346C308.154 13.1676 307.112 11.9273 305.454 11.9273C303.797 11.9273 302.755 13.067 302.755 15.2346V15.5139C302.755 17.5139 303.797 18.6536 305.454 18.6536C307.123 18.6201 308.154 17.5139 308.154 15.5139ZM314.896 15.1005L310.987 9.75973H314.336L316.587 13.1005L318.872 9.75973H322.187L318.222 15.067L322.4 20.8659H319.118L316.565 17.1787L314.078 20.8659H310.651L314.896 15.1005Z" fill="black"/>
</g>
<g clip-path="url(#clip2_3654_1089)">
<path d="M353.46 21.7261V16.2286C353.46 15.0814 352.972 14.5027 352.005 14.5027C351.033 14.5027 350.544 15.0763 350.544 16.2286V21.7261H347.68V16.2286C347.68 15.0814 347.202 14.5027 346.245 14.5027C345.273 14.5027 344.79 15.0763 344.79 16.2286V21.7261H341.926V15.9038C341.926 14.7058 342.352 13.7972 343.204 13.1829C343.953 12.6347 344.972 12.3555 346.25 12.3555C347.545 12.3555 348.501 12.6804 349.115 13.3301C349.645 12.6804 350.607 12.3555 352.005 12.3555C353.284 12.3555 354.297 12.6296 355.046 13.1829C355.898 13.7972 356.325 14.7058 356.325 15.9038V21.7261H353.46Z" fill="#F98012"/>
<path d="M388.575 21.7006V6.00012H391.444V21.7006H388.575Z" fill="#F98012"/>
<path d="M384.919 21.7006V20.7768C384.665 21.1118 384.228 21.3758 383.615 21.5788C383.069 21.7616 382.549 21.8529 382.055 21.8529C380.688 21.8529 379.591 21.3961 378.765 20.4773C377.938 19.5636 377.522 18.4265 377.522 17.0763C377.522 15.7412 377.928 14.6245 378.739 13.726C379.456 12.9291 380.631 12.3758 381.977 12.3758C383.495 12.3758 384.384 12.9341 384.919 13.5737V6.00012H387.711V21.7006H384.919ZM384.919 16.4722C384.919 15.9747 384.675 15.4925 384.192 15.0357C383.708 14.5788 383.204 14.3504 382.695 14.3504C381.962 14.3504 381.38 14.6448 380.953 15.2235C380.579 15.7412 380.392 16.3758 380.392 17.122C380.392 17.858 380.579 18.4824 380.953 18.9951C381.38 19.594 381.962 19.8935 382.695 19.8935C383.136 19.8935 383.62 19.6905 384.14 19.2793C384.66 18.8732 384.919 18.4519 384.919 18.0154V16.4722Z" fill="#F98012"/>
<path d="M372.123 21.9491C370.673 21.9491 369.472 21.4974 368.526 20.5989C367.58 19.7004 367.107 18.543 367.107 17.1217C367.107 15.7055 367.58 14.5481 368.526 13.6496C369.472 12.7512 370.673 12.2994 372.123 12.2994C373.574 12.2994 374.78 12.7512 375.731 13.6496C376.687 14.5481 377.166 15.7105 377.166 17.1217C377.166 18.538 376.687 19.6953 375.731 20.5989C374.774 21.4974 373.574 21.9491 372.123 21.9491ZM372.123 14.5481C371.432 14.5481 370.902 14.8019 370.527 15.3146C370.158 15.8273 369.971 16.4314 369.971 17.1369C369.971 17.8425 370.143 18.4364 370.491 18.9187C370.886 19.472 371.432 19.7461 372.123 19.7461C372.815 19.7461 373.355 19.472 373.756 18.9187C374.119 18.4314 374.301 17.8375 374.301 17.1369C374.301 16.4314 374.13 15.8375 373.782 15.3552C373.381 14.8171 372.83 14.5481 372.123 14.5481Z" fill="#F98012"/>
<path d="M361.751 21.9491C360.3 21.9491 359.1 21.4974 358.154 20.5989C357.208 19.7004 356.734 18.543 356.734 17.1217C356.734 15.7055 357.208 14.5481 358.154 13.6496C359.1 12.7512 360.3 12.2994 361.751 12.2994C363.201 12.2994 364.402 12.7512 365.358 13.6496C366.315 14.5481 366.793 15.7105 366.793 17.1217C366.793 18.538 366.315 19.6953 365.358 20.5989C364.407 21.4974 363.201 21.9491 361.751 21.9491ZM361.751 14.5481C361.059 14.5481 360.529 14.8019 360.155 15.3146C359.786 15.8273 359.599 16.4314 359.599 17.1369C359.599 17.8425 359.77 18.4364 360.119 18.9187C360.514 19.472 361.059 19.7461 361.751 19.7461C362.442 19.7461 362.983 19.472 363.383 18.9187C363.747 18.4314 363.929 17.8375 363.929 17.1369C363.929 16.4314 363.757 15.8375 363.409 15.3552C363.014 14.8171 362.463 14.5481 361.751 14.5481Z" fill="#F98012"/>
<path d="M394.84 17.9745C394.903 18.6395 395.786 20.076 397.247 20.076C398.666 20.076 399.337 19.274 399.373 18.9491L402.393 18.9238C402.066 19.9085 400.725 21.9999 397.195 21.9999C395.729 21.9999 394.383 21.5532 393.421 20.6649C392.46 19.7715 391.976 18.609 391.976 17.1776C391.976 15.6953 392.46 14.5177 393.421 13.6395C394.388 12.7664 395.636 12.3248 397.174 12.3248C398.848 12.3248 400.153 12.8679 401.088 13.9491C401.957 14.9491 402.393 16.2892 402.393 17.9745H394.84ZM399.524 16.2486C399.404 15.6496 399.15 15.1573 398.755 14.7715C398.307 14.3552 397.798 14.1471 397.216 14.1471C396.618 14.1471 396.119 14.3451 395.719 14.7461C395.319 15.1471 395.048 15.6446 394.913 16.2486H399.524Z" fill="#F98012"/>
<path d="M347.488 11.9343L350.331 9.90381L350.295 9.78198C345.165 10.3962 342.831 10.8327 338.407 13.3353L338.448 13.447L338.802 13.452C338.771 13.7972 338.714 14.65 338.786 15.9393C338.298 17.3251 338.776 18.2693 339.223 19.2947C339.296 18.2287 339.285 17.0612 338.953 15.8987C338.885 14.6246 338.942 13.782 338.973 13.4571L341.905 13.4825C341.905 13.4825 341.884 14.3454 341.994 15.1627C344.613 16.0612 347.249 15.1576 348.647 12.9444C348.252 12.5129 347.488 11.9343 347.488 11.9343Z" fill="#333333"/>
</g>
<g clip-path="url(#clip3_3654_1089)">
<path fill-rule="evenodd" clip-rule="evenodd" d="M429.681 6.54282C430.77 2.7784 434.284 0 438.431 0C442.546 0 446.042 2.73649 447.159 6.45845C448.123 4.50708 450.149 3.14725 452.478 3.14725C455.728 3.14725 458.4 5.78751 458.4 8.9994C458.4 12.2113 455.728 14.8527 452.478 14.8527C450.149 14.8527 448.123 13.4921 447.159 11.5403C446.042 15.2626 442.546 18 438.431 18C434.284 18 430.77 15.2207 429.681 11.456C428.734 13.453 426.683 14.8527 424.32 14.8527C421.071 14.8527 418.4 12.2113 418.4 8.9994C418.4 5.78751 421.071 3.14725 424.32 3.14725C426.683 3.14725 428.734 4.54612 429.681 6.54282ZM444.061 8.9994C444.061 5.90563 441.56 3.43534 438.431 3.43534C435.301 3.43534 432.802 5.90563 432.802 8.9994C432.802 12.0932 435.301 14.5647 438.431 14.5647C441.56 14.5647 444.061 12.0932 444.061 8.9994ZM426.767 8.9994C426.767 7.64394 425.692 6.5826 424.32 6.5826C422.949 6.5826 421.875 7.64394 421.875 8.9994C421.875 10.3549 422.949 11.4174 424.32 11.4174C425.692 11.4174 426.767 10.3549 426.767 8.9994ZM454.925 8.9994C454.925 7.64394 453.85 6.5826 452.478 6.5826C451.107 6.5826 450.033 7.64394 450.033 8.9994C450.033 10.3549 451.107 11.4174 452.478 11.4174C453.85 11.4174 454.925 10.3549 454.925 8.9994ZM421.716 27.8868H421.576C421.453 27.8868 421.4 27.8113 421.4 27.6793V23.6038C421.4 22.5283 422.401 22 423.278 22C424.191 22 425.191 22.5283 425.191 23.6038V27.6793C425.191 27.8113 425.139 27.8868 425.016 27.8868H424.876C424.753 27.8868 424.682 27.8113 424.682 27.6793V23.6279C424.682 22.9864 424.033 22.5283 423.296 22.5283C422.559 22.5283 421.909 22.9864 421.909 23.6279V27.6793C421.909 27.8113 421.839 27.8868 421.716 27.8868ZM453.61 23.6416C454.54 23.6416 454.873 24.4718 454.873 24.4718H454.891C454.891 24.4718 454.873 24.3397 454.873 24.151V22.2831C454.873 22.2484 454.87 22.2176 454.867 22.1911C454.858 22.1166 454.853 22.0755 454.944 22.0755H455.084C455.207 22.0755 455.4 22.151 455.4 22.2831V27.6604C455.4 27.7925 455.347 27.868 455.224 27.868H455.102C454.979 27.868 454.909 27.8114 454.909 27.6793V27.3586C454.909 27.2076 454.944 27.0944 454.944 27.0944H454.926C454.926 27.0944 454.593 27.9623 453.592 27.9623C452.556 27.9623 451.907 27.0755 451.907 25.7925C451.872 24.5095 452.592 23.6416 453.61 23.6416ZM453.627 27.4906C454.277 27.4906 454.873 27.0001 454.873 25.8114C454.873 24.9623 454.47 24.151 453.645 24.151C452.96 24.151 452.398 24.7548 452.398 25.8114C452.416 26.8303 452.908 27.4906 453.627 27.4906ZM441.252 22.3019C441.252 22.2607 441.246 22.2249 441.24 22.1953C441.227 22.13 441.221 22.0943 441.305 22.0943H441.446C441.568 22.0943 441.761 22.1698 441.761 22.3019V26.8113C441.761 27.3396 441.99 27.3962 442.165 27.4151C442.253 27.4151 442.323 27.4717 442.323 27.6038V27.7359C442.323 27.8679 442.27 27.9434 442.13 27.9434C441.814 27.9434 441.252 27.8302 441.252 26.9245V22.3019ZM434.898 22.7925C434.898 22.6604 434.969 22.5849 435.091 22.5849H435.232C435.355 22.5849 435.407 22.6604 435.407 22.7925V23.7736H436.197C436.32 23.7736 436.39 23.8491 436.39 23.9812V24.0378C436.39 24.1698 436.32 24.2264 436.197 24.2264H435.407V26.3019C435.407 27.2642 435.952 27.3774 436.25 27.3963C436.408 27.4151 436.461 27.4529 436.461 27.6038V27.717C436.461 27.8491 436.408 27.9057 436.25 27.9057C435.407 27.9057 434.898 27.3585 434.898 26.3774V22.7925ZM428.012 23.6415C429.048 23.6415 429.627 24.4339 429.627 25.6226C429.627 25.7358 429.539 25.8302 429.434 25.8302H426.643C426.661 26.8868 427.345 27.4906 428.135 27.4906C428.627 27.4906 428.978 27.2642 429.153 27.1132C429.259 27.0377 429.346 27.0566 429.399 27.1698L429.452 27.2641C429.504 27.3585 429.487 27.4528 429.399 27.5283C429.188 27.6981 428.732 27.9811 428.118 27.9811C426.977 27.9811 426.099 27.0943 426.099 25.8113C426.117 24.4528 426.959 23.6415 428.012 23.6415ZM429.083 25.4151C429.048 24.5472 428.556 24.1132 427.995 24.1132C427.345 24.1132 426.784 24.566 426.661 25.4151H429.083ZM440.199 24.1132C440.006 23.9434 439.585 23.6415 438.918 23.6415C437.777 23.6415 436.899 24.5472 436.882 25.8302C436.882 27.1132 437.759 28 438.9 28C439.602 28 440.076 27.6415 440.269 27.4717C440.357 27.3774 440.375 27.3019 440.322 27.1887L440.269 27.1132C440.199 27 440.129 26.9811 440.024 27.0566C439.848 27.2264 439.48 27.4906 438.935 27.4906C438.093 27.4906 437.426 26.8113 437.426 25.8302C437.426 24.8302 438.093 24.1509 438.935 24.1509C439.392 24.1509 439.725 24.3962 439.901 24.5283C440.006 24.6038 440.094 24.6038 440.164 24.4906L440.217 24.3962C440.305 24.283 440.287 24.1887 440.199 24.1132ZM446.887 25.7924C446.887 24.566 445.974 23.6415 444.851 23.6415C443.727 23.6415 442.815 24.566 442.815 25.7924C442.815 27.0377 443.727 27.9811 444.851 27.9811C445.974 27.9811 446.887 27.0377 446.887 25.7924ZM446.343 25.7924C446.343 26.7736 445.676 27.4906 444.851 27.4906C444.026 27.4906 443.359 26.7547 443.341 25.7924C443.341 24.8679 444.026 24.1509 444.851 24.1509C445.676 24.1509 446.343 24.849 446.343 25.7924ZM450.871 23.7358H450.731C450.608 23.7358 450.538 23.8113 450.538 23.9434V26.2264C450.538 26.8679 450.152 27.4528 449.397 27.4528C448.66 27.4528 448.256 26.8679 448.256 26.2264V23.9434C448.256 23.8113 448.186 23.7358 448.063 23.7358H447.923C447.8 23.7358 447.747 23.8113 447.747 23.9434V26.3774C447.747 27.4528 448.484 27.9811 449.397 27.9811C450.31 27.9811 451.047 27.4528 451.047 26.3774V23.9434C451.065 23.8113 450.994 23.7358 450.871 23.7358ZM433.372 23.7937C433.411 23.7431 433.452 23.7123 433.495 23.7049C433.538 23.6975 433.583 23.7133 433.63 23.7558L433.738 23.8527C433.832 23.9376 433.841 24.0441 433.762 24.1453L433.326 24.7029L433.325 24.7054L432.462 25.8106L433.762 27.4756C433.841 27.5767 433.846 27.6707 433.752 27.7556L433.644 27.8526C433.55 27.9375 433.451 27.9283 433.372 27.8271L432.937 27.2692L432.935 27.2674L432.13 26.2359L430.888 27.8271C430.809 27.9283 430.724 27.9496 430.629 27.8647L430.522 27.7682C430.428 27.6833 430.419 27.5767 430.498 27.4756L430.933 26.918L430.935 26.9154L431.798 25.8102L430.498 24.1453C430.419 24.0441 430.414 23.9501 430.508 23.8652L430.616 23.7683C430.663 23.7258 430.711 23.7069 430.757 23.7112C430.804 23.7155 430.848 23.7431 430.888 23.7937L432.13 25.385L433.372 23.7937Z" fill="#0082C9"/>
</g>
<path d="M521.457 22C520.256 22 519.083 21.6409 518.085 20.9681C517.087 20.2954 516.309 19.3392 515.85 18.2205C515.39 17.1018 515.27 15.8707 515.504 14.6831C515.739 13.4955 516.317 12.4046 517.165 11.5483C518.014 10.6921 519.095 10.109 520.273 9.87274C521.45 9.6365 522.67 9.75774 523.779 10.2211C524.888 10.6845 525.836 11.4693 526.503 12.4761C527.17 13.4829 527.526 14.6666 527.526 15.8775C527.526 17.5013 526.886 19.0586 525.748 20.2068C524.61 21.3549 523.066 22 521.457 22ZM521.457 19.4694C522.161 19.4694 522.849 19.2587 523.435 18.864C524.02 18.4694 524.477 17.9084 524.746 17.2521C525.016 16.5957 525.086 15.8736 524.949 15.1768C524.811 14.4801 524.472 13.8401 523.974 13.3377C523.476 12.8354 522.842 12.4933 522.151 12.3547C521.461 12.2161 520.745 12.2873 520.094 12.5591C519.444 12.831 518.888 13.2913 518.496 13.882C518.105 14.4727 517.896 15.1671 517.896 15.8775C517.896 16.8302 518.271 17.7437 518.939 18.4173C519.607 19.0909 520.512 19.4694 521.457 19.4694ZM508.752 22C507.552 22 506.379 21.6409 505.381 20.9681C504.383 20.2954 503.605 19.3392 503.145 18.2205C502.686 17.1018 502.566 15.8707 502.8 14.6831C503.034 13.4955 503.612 12.4046 504.461 11.5483C505.31 10.6921 506.391 10.109 507.568 9.87274C508.746 9.6365 509.966 9.75774 511.075 10.2211C512.184 10.6845 513.132 11.4693 513.799 12.4761C514.465 13.4829 514.821 14.6666 514.821 15.8775C514.821 17.5013 514.182 19.0586 513.044 20.2068C511.906 21.3549 510.362 22 508.752 22ZM508.752 19.4694C509.457 19.4694 510.145 19.2587 510.731 18.864C511.316 18.4694 511.772 17.9084 512.042 17.2521C512.311 16.5957 512.382 15.8736 512.244 15.1768C512.107 14.4801 511.768 13.8401 511.27 13.3377C510.772 12.8354 510.138 12.4933 509.447 12.3547C508.756 12.2161 508.041 12.2873 507.39 12.5591C506.739 12.831 506.183 13.2913 505.792 13.882C505.401 14.4727 505.192 15.1671 505.192 15.8775C505.192 16.8302 505.567 17.7437 506.235 18.4173C506.902 19.0909 507.808 19.4694 508.752 19.4694ZM502.117 15.7959C502.117 19.2163 499.398 22 496.048 22C492.698 22 489.979 19.2245 489.979 15.8041C489.979 12.3837 492.447 9.75509 496.048 9.75509C497.375 9.75509 498.605 10.0408 499.609 10.7837V7.23265C499.609 6.5551 500.199 6 500.863 6C501.526 6 502.117 6.5551 502.117 7.23265V15.7959ZM496.048 19.4694C496.752 19.4694 497.441 19.2587 498.026 18.864C498.612 18.4694 499.068 17.9084 499.338 17.2521C499.607 16.5957 499.678 15.8736 499.54 15.1768C499.403 14.4801 499.064 13.8401 498.566 13.3377C498.068 12.8354 497.433 12.4933 496.743 12.3547C496.052 12.2161 495.336 12.2873 494.686 12.5591C494.035 12.831 493.479 13.2913 493.088 13.882C492.696 14.4727 492.488 15.1671 492.488 15.8775C492.488 16.8302 492.863 17.7437 493.531 18.4173C494.198 19.0909 495.104 19.4694 496.048 19.4694Z" fill="#8F8F8F"/>
<path d="M483.343 21.9998C482.143 21.9998 480.97 21.6407 479.972 20.9679C478.974 20.2952 478.196 19.339 477.736 18.2203C477.277 17.1016 477.157 15.8705 477.391 14.6829C477.625 13.4953 478.203 12.4043 479.052 11.5481C479.901 10.6919 480.982 10.1088 482.159 9.87252C483.337 9.63629 484.557 9.75754 485.666 10.2209C486.775 10.6843 487.723 11.4691 488.39 12.4759C489.056 13.4827 489.412 14.6664 489.412 15.8773C489.412 17.5011 488.773 19.0584 487.635 20.2066C486.497 21.3547 484.953 21.9998 483.343 21.9998ZM483.343 19.4692C484.048 19.4692 484.736 19.2585 485.321 18.8638C485.907 18.4692 486.363 17.9082 486.633 17.2519C486.902 16.5955 486.973 15.8733 486.835 15.1766C486.698 14.4798 486.359 13.8398 485.861 13.3375C485.363 12.8352 484.729 12.4931 484.038 12.3545C483.347 12.2159 482.631 12.2871 481.981 12.5589C481.33 12.8308 480.774 13.2911 480.383 13.8818C479.992 14.4725 479.783 15.1669 479.783 15.8773C479.783 16.8299 480.158 17.7435 480.826 18.4171C481.493 19.0907 482.399 19.4692 483.343 19.4692Z" fill="#A24689"/>
<g clip-path="url(#clip4_3654_1089)">
<path fill-rule="evenodd" clip-rule="evenodd" d="M549.656 20.9079C548.408 20.9079 547.396 21.9182 547.396 23.1645C547.396 24.4108 548.408 25.4211 549.656 25.4211C550.904 25.4211 551.915 24.4108 551.915 23.1645C551.915 21.9182 550.904 20.9079 549.656 20.9079ZM546.817 23.1645C546.817 21.5986 548.088 20.3293 549.656 20.3293C551.224 20.3293 552.495 21.5986 552.495 23.1645C552.495 24.7304 551.224 25.9997 549.656 25.9997C548.088 25.9997 546.817 24.7304 546.817 23.1645Z" fill="#1D2D44"/>
<path fill-rule="evenodd" clip-rule="evenodd" d="M580.656 20.9077C579.408 20.9077 578.396 21.9181 578.396 23.1645C578.396 24.4109 579.408 25.4213 580.656 25.4213C581.904 25.4213 582.916 24.4109 582.916 23.1645C582.916 21.9181 581.904 20.9077 580.656 20.9077ZM577.817 23.1645C577.817 21.5985 579.088 20.329 580.656 20.329C582.224 20.329 583.495 21.5985 583.495 23.1645C583.495 24.7305 582.224 26 580.656 26C579.088 26 577.817 24.7305 577.817 23.1645Z" fill="#1D2D44"/>
<path fill-rule="evenodd" clip-rule="evenodd" d="M553.77 24.0752V20.5948H554.349V24.0752C554.349 24.8182 554.952 25.4203 555.696 25.4203C556.44 25.4203 557.043 24.8182 557.043 24.0752V20.5948C557.043 20.5948 557.043 20.5948 557.333 20.5948C557.622 20.5948 557.622 20.5948 557.622 20.5948V24.0751C557.622 25.1378 556.76 25.9989 555.696 25.9989C554.632 25.9989 553.77 25.1378 553.77 24.0752Z" fill="#1D2D44"/>
<path fill-rule="evenodd" clip-rule="evenodd" d="M557.043 24.0752V20.5948H557.622V24.0751C557.622 24.8181 558.226 25.4203 558.97 25.4203C559.714 25.4203 560.317 24.8181 560.317 24.0752V20.5948C560.317 20.5948 560.317 20.5948 560.606 20.5948C560.896 20.5948 560.896 20.5948 560.896 20.5948V24.0751C560.896 25.1378 560.034 25.9989 558.97 25.9989C557.906 25.9989 557.043 25.1378 557.043 24.0752Z" fill="#1D2D44"/>
<path fill-rule="evenodd" clip-rule="evenodd" d="M575.123 24.0752V15.9651H575.702V24.0752C575.702 24.8182 576.305 25.4203 577.049 25.4203V25.9989C575.985 25.9989 575.123 25.1378 575.123 24.0752Z" fill="#1D2D44"/>
<path fill-rule="evenodd" clip-rule="evenodd" d="M565.069 20.8843C563.821 20.8843 562.809 21.8947 562.809 23.141V25.7103H562.23V23.141C562.23 21.5751 563.501 20.3057 565.069 20.3057C566.637 20.3057 567.908 21.5751 567.908 23.141V25.7102C567.908 25.7102 567.908 25.7103 567.618 25.7103C567.329 25.7103 567.329 25.7103 567.329 25.7103V23.141C567.329 21.8947 566.317 20.8843 565.069 20.8843Z" fill="#1D2D44"/>
<path fill-rule="evenodd" clip-rule="evenodd" d="M584.596 23.1645V20.5948H585.175V23.1645C585.175 24.4106 586.187 25.421 587.435 25.421C588.683 25.421 589.695 24.4106 589.695 23.1645V20.5949C589.695 20.5949 589.695 20.5948 589.985 20.5948C590.274 20.5948 590.274 20.5948 590.274 20.5948V23.1645C590.274 24.7302 589.003 25.9996 587.435 25.9996C585.867 25.9996 584.596 24.7302 584.596 23.1645Z" fill="#1D2D44"/>
<path fill-rule="evenodd" clip-rule="evenodd" d="M569.143 21.6408C569.143 19.2333 571.098 17.2818 573.508 17.2818V17.8604C571.418 17.8604 569.723 19.5529 569.723 21.6408C569.723 23.7287 571.418 25.421 573.508 25.421V25.9996C571.098 25.9996 569.143 24.0483 569.143 21.6408Z" fill="#1D2D44"/>
<path fill-rule="evenodd" clip-rule="evenodd" d="M596.564 15.9651H597.143V20.6142H596.564V15.9651Z" fill="#1D2D44"/>
<path fill-rule="evenodd" clip-rule="evenodd" d="M597.143 20.6124L596.853 20.6142C597.143 20.6124 597.143 20.6124 597.143 20.6124V20.6126L597.143 20.7254C597.144 20.7979 597.144 20.9024 597.145 21.0305C597.146 21.2867 597.148 21.6374 597.149 22.0155C597.151 22.7704 597.151 23.6385 597.143 24.0792C597.133 24.6147 596.853 25.0932 596.49 25.4307C596.13 25.7662 595.651 25.9982 595.189 25.9982H594.28C592.712 25.9982 591.441 24.7288 591.441 23.1631C591.441 21.5973 592.712 20.3279 594.28 20.3278C594.28 20.3278 594.28 20.3278 594.28 20.3278L597.141 20.3246L597.143 20.6124ZM596.565 20.9039L594.28 20.9064C593.032 20.9064 592.02 21.9168 592.02 23.1631C592.02 24.4092 593.032 25.4196 594.28 25.4196H595.189C595.468 25.4196 595.812 25.2712 596.095 25.0076C596.376 24.7461 596.557 24.4071 596.563 24.0686C596.571 23.6352 596.571 22.7735 596.569 22.017C596.568 21.6395 596.567 21.2892 596.566 21.0333C596.565 20.9869 596.565 20.9436 596.565 20.9039Z" fill="#1D2D44"/>
<path d="M578.554 6.30712C576.536 6.30712 574.733 7.23481 573.541 8.69015C573.101 8.01072 572.845 7.19882 572.845 6.32664C572.845 3.9371 574.767 2 577.138 2C579.509 2 581.431 3.9371 581.431 6.32664C581.431 6.54195 581.416 6.75359 581.386 6.96047C580.53 6.54188 579.569 6.30712 578.554 6.30712Z" fill="#1D2D44"/>
<path d="M581.921 7.2544C582.252 7.457 582.563 7.68855 582.852 7.94558C583.333 8.37396 583.751 8.87308 584.089 9.42681C584.7 9.15281 585.373 8.99373 586.081 8.97682C585.747 6.94951 584.013 5.39882 581.914 5.36592C581.976 5.6766 582.008 5.99785 582.008 6.32665C582.008 6.64383 581.978 6.95398 581.921 7.2544Z" fill="#1D2D44"/>
<path d="M573.176 9.18109C572.711 8.52642 572.402 7.75163 572.303 6.91179C572.208 6.91335 572.115 6.91775 572.022 6.9249C571.577 6.95917 571.149 7.05668 570.748 7.20853C570.458 7.31864 570.181 7.45734 569.921 7.62122C569.243 8.04902 568.682 8.64843 568.299 9.35907C568.162 9.61326 568.048 9.88169 567.959 10.1616C567.816 10.6115 567.739 11.091 567.739 11.5886C567.739 12.9969 568.357 14.2597 569.334 15.1173C569.756 14.1784 570.635 13.4929 571.686 13.3494C571.813 13.332 571.944 13.3225 572.076 13.3216C572.065 13.1665 572.059 13.0098 572.059 12.8519C572.059 11.4914 572.471 10.2279 573.176 9.18109Z" fill="#1D2D44"/>
<path d="M572.143 13.9029C572.127 13.9026 572.112 13.9025 572.097 13.9025C571.995 13.9025 571.895 13.9087 571.796 13.9208C570.885 14.0327 570.128 14.6477 569.807 15.4817C569.734 15.6698 569.684 15.869 569.659 16.0761C569.647 16.1747 569.641 16.2751 569.641 16.377C569.641 16.9492 569.834 17.4761 570.158 17.8953C570.607 18.4772 571.308 18.8515 572.097 18.8515C572.975 18.8515 573.745 18.387 574.179 17.6886C573.12 16.7152 572.382 15.3934 572.143 13.9029Z" fill="#1D2D44"/>
<path d="M572.796 4.10256C572.503 3.96959 572.178 3.8956 571.835 3.8956C570.541 3.8956 569.491 4.95318 569.491 6.25777C569.491 6.55759 569.547 6.84437 569.648 7.10826C570.413 6.63332 571.309 6.35183 572.268 6.33143L572.268 6.32664C572.268 5.52604 572.459 4.77021 572.796 4.10256Z" fill="#1D2D44"/>
<path d="M589.829 18.0189C590.813 17.0625 591.425 15.7202 591.425 14.2337C591.425 14.0412 591.415 13.8512 591.395 13.664C591.405 13.6639 591.415 13.6638 591.426 13.6638C592.782 13.6638 593.881 14.7718 593.881 16.1385C593.881 17.5052 592.782 18.6131 591.426 18.6131C590.816 18.6131 590.259 18.3894 589.829 18.0189Z" fill="#1D2D44"/>
<path d="M583.135 17.4906C583.092 17.5338 583.048 17.5763 583.004 17.6183C583.837 18.4193 584.965 18.9112 586.207 18.9112C588.771 18.9112 590.849 16.817 590.849 14.2337C590.849 11.6504 588.771 9.55621 586.207 9.55621C585.555 9.55621 584.934 9.69198 584.37 9.93701C584.804 10.8148 585.048 11.8046 585.048 12.8519C585.048 14.659 584.321 16.2951 583.146 17.4793C583.142 17.4831 583.138 17.4868 583.135 17.4906Z" fill="#1D2D44"/>
<path d="M567.362 10.1445C565.072 10.237 563.244 12.1372 563.244 14.4677C563.244 16.8573 565.166 18.7945 567.537 18.7945C568.316 18.7945 569.047 18.5851 569.678 18.2192C569.293 17.707 569.065 17.0688 569.065 16.377C569.065 16.1473 569.09 15.9236 569.138 15.7084C567.934 14.7451 567.163 13.2577 567.163 11.5886C567.163 11.0878 567.232 10.6033 567.362 10.1445Z" fill="#1D2D44"/>
<path d="M584.472 12.8519C584.472 16.1453 581.822 18.8151 578.554 18.8151C575.285 18.8151 572.636 16.1453 572.636 12.8519C572.636 9.55806 575.286 6.88802 578.554 6.88802C581.822 6.88802 584.472 9.55806 584.472 12.8519Z" fill="#1D2D44"/>
</g>
<defs>
<linearGradient id="paint0_linear_3654_1089" x1="81.3799" y1="22.9606" x2="71.5178" y2="17.2915" gradientUnits="userSpaceOnUse">
<stop offset="0.18" stop-color="#0052CC"/>
<stop offset="1" stop-color="#2684FF"/>
</linearGradient>
<linearGradient id="paint1_linear_3654_1089" x1="67.1817" y1="5.90723" x2="77.0464" y2="11.5789" gradientUnits="userSpaceOnUse">
<stop offset="0.18" stop-color="#0052CC"/>
<stop offset="1" stop-color="#2684FF"/>
</linearGradient>
<clipPath id="clip0_3654_1089">
<rect width="128" height="28" fill="white" transform="translate(66.4)"/>
</clipPath>
<clipPath id="clip1_3654_1089">
<rect width="112" height="28" fill="white" transform="translate(210.4)"/>
</clipPath>
<clipPath id="clip2_3654_1089">
<rect width="64" height="28" fill="white" transform="translate(338.4)"/>
</clipPath>
<clipPath id="clip3_3654_1089">
<rect width="40" height="28" fill="white" transform="translate(418.4)"/>
</clipPath>
<clipPath id="clip4_3654_1089">
<rect width="52" height="28" fill="white" transform="translate(546.4)"/>
</clipPath>
</defs>
</svg>
