<svg width="544" height="270" viewBox="0 0 544 270" fill="none" xmlns="http://www.w3.org/2000/svg">
<path d="M544 6C544 2.68629 541.314 0 538 0H6C2.68628 0 0 2.68629 0 6V270H544V6Z" fill="#F3F4F4"/>
<path d="M175.473 198.5C175.197 198.5 174.973 198.724 174.973 199V210.169C174.973 213.434 172.926 216.368 169.824 217.532C169.598 217.617 169.465 217.851 169.508 218.089C169.551 218.327 169.758 218.5 170 218.5H243C243.236 218.5 243.439 218.336 243.489 218.105C243.538 217.875 243.421 217.641 243.206 217.544C239.979 216.086 237.913 212.918 237.913 209.429V199C237.913 198.724 237.689 198.5 237.413 198.5H237.406H175.473Z" fill="url(#paint0_linear_6435_121683)" stroke="#333333" stroke-miterlimit="10" stroke-linecap="round" stroke-linejoin="round"/>
<path d="M113.409 199.5H297.597C301.962 199.5 305.5 195.976 305.5 191.623V67.3836C305.5 63.0233 301.955 59.5 297.591 59.5H113.409C109.038 59.5 105.5 63.0302 105.5 67.3836V191.616C105.5 195.977 109.045 199.5 113.409 199.5Z" fill="url(#paint1_linear_6435_121683)" stroke="#333333" stroke-miterlimit="10" stroke-linecap="round" stroke-linejoin="round"/>
<path d="M243.5 218C243.5 217.724 243.276 217.5 243 217.5H169C168.724 217.5 168.5 217.724 168.5 218V221C168.5 221.276 168.724 221.5 169 221.5H243C243.276 221.5 243.5 221.276 243.5 221V218Z" fill="url(#paint2_linear_6435_121683)" stroke="#333333" stroke-miterlimit="10" stroke-linecap="round" stroke-linejoin="round"/>
<path d="M298.5 67V66.5H298H113H112.5V67V181V181.5H113H298H298.5V181V67Z" fill="white" stroke="#333333" stroke-miterlimit="10"/>
<path d="M264.5 180C264.5 180.828 263.828 181.5 263 181.5H154C153.172 181.5 152.5 180.828 152.5 180V50.8942C152.5 49.5491 153.532 48.5 154.749 48.5H244.649C245.066 48.5 245.464 48.6739 245.748 48.9798L264.1 68.7602C264.357 69.0376 264.5 69.402 264.5 69.7804V180Z" fill="white" stroke="#333333" stroke-miterlimit="10"/>
<path fill-rule="evenodd" clip-rule="evenodd" d="M244 49H245.026V68.9756H264V70H244V49Z" fill="#333333"/>
<path fill-rule="evenodd" clip-rule="evenodd" d="M168 72.4995C168 72.2236 168.224 72 168.5 72H235.5C235.776 72 236 72.2236 236 72.4995C236 72.7754 235.776 72.999 235.5 72.999H168.5C168.224 72.999 168 72.7754 168 72.4995ZM168 78.4999C168 78.2241 168.224 78.0004 168.5 78.0004H245.5C245.776 78.0004 246 78.2241 246 78.4999C246 78.7758 245.776 78.9995 245.5 78.9995H168.5C168.224 78.9995 168 78.7758 168 78.4999ZM168.5 84.0009C168.224 84.0009 168 84.2245 168 84.5004C168 84.7763 168.224 84.9999 168.5 84.9999H245.5C245.776 84.9999 246 84.7763 246 84.5004C246 84.2245 245.776 84.0009 245.5 84.0009H168.5Z" fill="#DFE2E3"/>
<path fill-rule="evenodd" clip-rule="evenodd" d="M188.5 146H207.5H226.5H244.5H244.5C244.776 146 245 146.224 245 146.5C245 146.5 245 146.5 245 146.5C245 146.5 245 146.5 245 146.5V154.5V161.5V168.5V168.5C245 168.776 244.776 169 244.5 169C244.49 169 244.479 169 244.469 168.999H226.531C226.521 169 226.511 169 226.5 169C226.49 169 226.479 169 226.469 168.999H207.531L207.518 169C207.512 169 207.506 169 207.5 169C207.49 169 207.479 169 207.469 168.999H188.531L188.515 169L188.5 169C188.49 169 188.479 169 188.469 168.999H168.531C168.521 169 168.511 169 168.5 169C168.32 169 168.163 168.905 168.075 168.763C168.027 168.686 168 168.596 168 168.5C168 168.492 168 168.485 168 168.477L168 161.522C168 161.514 168 161.507 168 161.5C168 161.492 168 161.485 168 161.477L168 154.522C168 154.514 168 154.507 168 154.5C168 154.492 168 154.485 168 154.477L168 146.522C168 146.514 168 146.507 168 146.5C168 146.224 168.224 146 168.5 146H168.5H188.5ZM169 146.999L169 154H188V146.999H169ZM244 146.999H227V154H244V146.999ZM226 146.999H208V154H226V146.999ZM207 146.999V154H189V146.999H207ZM188 168H169L169 161.999H188V168ZM188 161H169L169 154.999H188L188 161ZM244 168V161.999H227V168H244ZM244 161V154.999H227V161H244ZM208 154.999H226V161H208V154.999ZM208 161.999H226V168H208V161.999ZM207 168V161.999H189V168H207ZM207 161V154.999H189L189 161H207Z" fill="#DFE2E3"/>
<rect x="187" y="140.001" width="38" height="0.999046" rx="0.499523" fill="#DFE2E3"/>
<rect x="177" y="134.001" width="58" height="0.999046" rx="0.499523" fill="#DFE2E3"/>
<rect x="186" y="62" width="39" height="3" rx="1.5" fill="#D0D5DA"/>
<rect x="168" y="93" width="40" height="32" rx="3" fill="#F5F5F5"/>
<path d="M177.793 111.594C178.562 110.957 179.683 110.985 180.419 111.66L184.741 115.619C185.534 116.346 186.76 116.315 187.516 115.55L197.773 105.157C198.574 104.345 199.89 104.366 200.665 105.203L207.468 112.559C207.81 112.929 208 113.414 208 113.917V123C208 124.105 207.105 125 206 125H170C168.895 125 168 124.105 168 123V120.639C168 120.043 168.266 119.478 168.725 119.098L177.793 111.594Z" fill="#E0E0E0"/>
<ellipse cx="176.163" cy="101.205" rx="3.26531" ry="3.28205" fill="#E0E0E0"/>
<rect x="215" y="94" width="14" height="14" rx="3" fill="#EFEFEF"/>
<rect x="215" y="111" width="14" height="14" rx="3" fill="#E2E2E2"/>
<rect x="232" y="94" width="14" height="14" rx="3" fill="#E2E2E2"/>
<rect x="232" y="111" width="14" height="14" rx="3" fill="#EFEFEF"/>
<path d="M207.5 193C209.433 193 211 191.433 211 189.5C211 187.567 209.433 186 207.5 186C205.567 186 204 187.567 204 189.5C204 191.433 205.567 193 207.5 193Z" fill="url(#paint3_linear_6435_121683)" stroke="#333333" stroke-miterlimit="10" stroke-linecap="round" stroke-linejoin="round"/>
<path d="M418 212.5H418.5V212V94C418.5 89.3056 414.694 85.5 410 85.5H237C232.306 85.5 228.5 89.3056 228.5 94V212V212.5H229H418Z" fill="#333333"/>
<path d="M418 212.5H418.5V212V94C418.5 89.3056 414.694 85.5 410 85.5H237C232.306 85.5 228.5 89.3056 228.5 94V212V212.5H229H418Z" fill="url(#paint4_linear_6435_121683)"/>
<path d="M418 212.5H418.5V212V94C418.5 89.3056 414.694 85.5 410 85.5H237C232.306 85.5 228.5 89.3056 228.5 94V212V212.5H229H418Z" stroke="#333333"/>
<path d="M234.5 91.5H412.5V206.5H234.5V91.5Z" fill="white" stroke="#333333"/>
<path d="M380.5 205C380.5 205.828 379.828 206.5 379 206.5H270C269.172 206.5 268.5 205.828 268.5 205V75.8942C268.5 74.5491 269.532 73.5 270.749 73.5H360.649C361.066 73.5 361.464 73.6739 361.748 73.9798L380.1 93.7602C380.357 94.0376 380.5 94.402 380.5 94.7804V205Z" fill="white" stroke="#333333" stroke-miterlimit="10"/>
<path fill-rule="evenodd" clip-rule="evenodd" d="M360 74H361.026V93.9756H380V95H360V74Z" fill="#333333"/>
<path fill-rule="evenodd" clip-rule="evenodd" d="M284 97.4995C284 97.2236 284.224 97 284.5 97H351.5C351.776 97 352 97.2236 352 97.4995C352 97.7754 351.776 97.999 351.5 97.999H284.5C284.224 97.999 284 97.7754 284 97.4995ZM284 103.5C284 103.224 284.224 103 284.5 103H361.5C361.776 103 362 103.224 362 103.5C362 103.776 361.776 103.999 361.5 103.999H284.5C284.224 103.999 284 103.776 284 103.5ZM284.5 109.001C284.224 109.001 284 109.225 284 109.5C284 109.776 284.224 110 284.5 110H361.5C361.776 110 362 109.776 362 109.5C362 109.225 361.776 109.001 361.5 109.001H284.5Z" fill="#DFE2E3"/>
<path fill-rule="evenodd" clip-rule="evenodd" d="M304.5 171H323.5H342.5H360.5H360.5C360.776 171 361 171.224 361 171.5C361 171.5 361 171.5 361 171.5C361 171.5 361 171.5 361 171.5V179.5V186.5V193.5V193.5C361 193.776 360.776 194 360.5 194C360.49 194 360.479 194 360.469 193.999H342.531C342.521 194 342.511 194 342.5 194C342.49 194 342.479 194 342.469 193.999H323.531L323.518 194C323.512 194 323.506 194 323.5 194C323.49 194 323.479 194 323.469 193.999H304.531L304.515 194L304.5 194C304.49 194 304.479 194 304.469 193.999H284.531C284.521 194 284.511 194 284.5 194C284.32 194 284.163 193.905 284.075 193.763C284.027 193.686 284 193.596 284 193.5C284 193.492 284 193.485 284 193.477L284 186.522C284 186.514 284 186.507 284 186.5C284 186.492 284 186.485 284 186.477L284 179.522C284 179.514 284 179.507 284 179.5C284 179.492 284 179.485 284 179.477L284 171.522C284 171.514 284 171.507 284 171.5C284 171.224 284.224 171 284.5 171H284.5H304.5ZM285 171.999L285 179H304V171.999H285ZM360 171.999H343V179H360V171.999ZM342 171.999H324V179H342V171.999ZM323 171.999V179H305V171.999H323ZM304 193H285L285 186.999H304V193ZM304 186H285L285 179.999H304L304 186ZM360 193V186.999H343V193H360ZM360 186V179.999H343V186H360ZM324 179.999H342V186H324V179.999ZM324 186.999H342V193H324V186.999ZM323 193V186.999H305V193H323ZM323 186V179.999H305L305 186H323Z" fill="#DFE2E3"/>
<rect x="303" y="165.001" width="38" height="0.999046" rx="0.499523" fill="#DFE2E3"/>
<rect x="293" y="159.001" width="58" height="0.999046" rx="0.499523" fill="#DFE2E3"/>
<rect x="302" y="87" width="39" height="3" rx="1.5" fill="#D0D5DA"/>
<rect x="284" y="118" width="40" height="32" rx="3" fill="#F5F5F5"/>
<path d="M293.793 136.594C294.562 135.957 295.683 135.985 296.419 136.66L300.741 140.619C301.534 141.346 302.76 141.315 303.516 140.55L313.773 130.157C314.574 129.345 315.89 129.366 316.665 130.203L323.468 137.559C323.81 137.929 324 138.414 324 138.917V148C324 149.105 323.105 150 322 150H286C284.895 150 284 149.105 284 148V145.639C284 145.043 284.266 144.478 284.725 144.098L293.793 136.594Z" fill="#E0E0E0"/>
<ellipse cx="292.163" cy="126.205" rx="3.26531" ry="3.28205" fill="#E0E0E0"/>
<rect x="331" y="119" width="14" height="14" rx="3" fill="#EFEFEF"/>
<rect x="331" y="136" width="14" height="14" rx="3" fill="#E2E2E2"/>
<rect x="348" y="119" width="14" height="14" rx="3" fill="#E2E2E2"/>
<rect x="348" y="136" width="14" height="14" rx="3" fill="#EFEFEF"/>
<path d="M436 218L436.474 218.159L436.694 217.5H436H208H207.038L207.591 218.287L208 218C207.591 218.287 207.591 218.287 207.591 218.288L207.592 218.288L207.593 218.29L207.596 218.294L207.605 218.307C207.613 218.318 207.624 218.332 207.637 218.35C207.664 218.385 207.703 218.434 207.755 218.495C207.858 218.617 208.011 218.786 208.219 218.986C208.636 219.386 209.272 219.91 210.169 220.432C211.966 221.478 214.789 222.5 218.944 222.5H426.09C430.455 222.5 433.04 221.481 434.549 220.407C435.302 219.872 435.778 219.329 436.068 218.909C436.213 218.7 436.312 218.522 436.375 218.391C436.407 218.326 436.43 218.272 436.446 218.233C436.454 218.213 436.46 218.197 436.465 218.185L436.471 218.169L436.473 218.163L436.474 218.161L436.474 218.16C436.474 218.159 436.474 218.159 436 218Z" fill="#FF9468" stroke="#333333"/>
<path d="M207 211L207.001 210.5L206.5 210.499V211V217V217.5H207H437H437.5V217V211V210.498L436.998 210.5C398.666 210.621 341.167 210.621 293.25 210.591C269.292 210.575 247.729 210.553 232.157 210.534C224.37 210.525 218.081 210.516 213.739 210.51L208.741 210.503L207.443 210.501L207.112 210.5L207.029 210.5L207.008 210.5L207.003 210.5C207.001 210.5 207.001 210.5 207 211Z" fill="#FFCA91" stroke="#333333"/>
<defs>
<linearGradient id="paint0_linear_6435_121683" x1="170" y1="198.258" x2="178.963" y2="234.041" gradientUnits="userSpaceOnUse">
<stop stop-color="#FFC671"/>
<stop offset="0.59375" stop-color="#FF7541"/>
<stop offset="1" stop-color="#FF6F3D"/>
</linearGradient>
<linearGradient id="paint1_linear_6435_121683" x1="106" y1="70.2541" x2="253.691" y2="275.888" gradientUnits="userSpaceOnUse">
<stop stop-color="#FFC671"/>
<stop offset="0.757512" stop-color="#FF7541"/>
<stop offset="1" stop-color="#FF6F3D"/>
</linearGradient>
<linearGradient id="paint2_linear_6435_121683" x1="169" y1="217.883" x2="169.234" y2="223.878" gradientUnits="userSpaceOnUse">
<stop stop-color="#FFC671"/>
<stop offset="0.59375" stop-color="#FF7541"/>
<stop offset="1" stop-color="#FF6F3D"/>
</linearGradient>
<linearGradient id="paint3_linear_6435_121683" x1="204" y1="185.727" x2="211" y2="193" gradientUnits="userSpaceOnUse">
<stop stop-color="#FFC671"/>
<stop offset="0.59375" stop-color="#FF7541"/>
<stop offset="1" stop-color="#FF6F3D"/>
</linearGradient>
<linearGradient id="paint4_linear_6435_121683" x1="237.301" y1="87.9234" x2="267.257" y2="239.711" gradientUnits="userSpaceOnUse">
<stop stop-color="#FFCE95"/>
<stop offset="1" stop-color="#FF8D63"/>
</linearGradient>
</defs>
</svg>
