<svg width="64" height="64" viewBox="0 0 64 64" fill="none" xmlns="http://www.w3.org/2000/svg">
<path fill-rule="evenodd" clip-rule="evenodd" d="M11 10.6053C11 9.16841 12.1605 8 13.5964 8H61.4036C62.8396 8 64 9.16841 64 10.6053V51.3947C64 52.8316 62.8396 54 61.4036 54H30.001V53H61.4036C62.2833 53 63 52.2833 63 51.3947V10.6053C63 9.71671 62.2833 9 61.4036 9H13.5964C12.7167 9 12 9.71671 12 10.6053V26.1043H11V10.6053Z" fill="#333333"/>
<path d="M46.085 31.7204H39.8773V31.0115C40.4235 30.9782 40.8751 30.9117 41.2323 30.8118C41.5964 30.712 41.7785 30.5888 41.7785 30.4424C41.7785 30.3825 41.7715 30.3093 41.7575 30.2228C41.7435 30.1362 41.7224 30.0597 41.6944 29.9931L40.455 26.8182H35.2346C35.0386 27.2841 34.8775 27.6901 34.7515 28.0362C34.6324 28.3823 34.5239 28.7018 34.4259 28.9947C34.3348 29.2809 34.2718 29.5139 34.2368 29.6936C34.2018 29.8733 34.1843 30.0198 34.1843 30.1329C34.1843 30.3991 34.4049 30.6055 34.846 30.7519C35.2872 30.8984 35.7843 30.9849 36.3375 31.0115V31.7204H30.7285V31.0115C30.9106 30.9982 31.1382 30.9616 31.4113 30.9017C31.6844 30.8351 31.9085 30.7486 32.0835 30.6421C32.3636 30.4624 32.5807 30.276 32.7348 30.083C32.8888 29.8833 33.0394 29.6104 33.1864 29.2643C33.9357 27.4871 34.762 25.4903 35.6653 23.2738C36.5686 21.0573 37.3739 19.0837 38.0812 17.3531H38.9215L43.8897 29.5738C43.9948 29.8334 44.1138 30.043 44.2468 30.2028C44.3799 30.3625 44.5655 30.519 44.8035 30.6721C44.9646 30.7652 45.1747 30.8451 45.4338 30.9117C45.6929 30.9716 45.9099 31.0049 46.085 31.0115V31.7204ZM40.0769 25.9296L37.8186 20.4383L35.6023 25.9296H40.0769Z" fill="url(#paint0_linear_8925_74233)"/>
<path d="M52.9019 30.4025H52.8284C52.6743 30.5223 52.4888 30.6754 52.2717 30.8618C52.0616 31.0415 51.813 31.2145 51.5259 31.3809C51.2528 31.5473 50.9552 31.6904 50.6331 31.8102C50.311 31.9367 49.9609 31.9999 49.5827 31.9999C48.5674 31.9999 47.7691 31.6538 47.1879 30.9616C46.6137 30.2694 46.3266 29.3242 46.3266 28.1261C46.3266 27.3007 46.4876 26.4987 46.8097 25.7199C47.1319 24.9411 47.5765 24.2422 48.1437 23.6232C48.6829 23.0308 49.3236 22.5549 50.0659 22.1955C50.8082 21.8294 51.5714 21.6463 52.3557 21.6463C52.8529 21.6463 53.3256 21.7096 53.7737 21.836C54.2289 21.9625 54.586 22.1056 54.8451 22.2654L56.7673 21.7961L56.8933 21.9459L55.2968 28.3857C55.2407 28.592 55.1812 28.8449 55.1182 29.1445C55.0622 29.4373 55.0342 29.6537 55.0342 29.7934C55.0342 30.1728 55.1182 30.4291 55.2863 30.5622C55.4543 30.6953 55.7379 30.7619 56.1371 30.7619C56.2701 30.7619 56.4592 30.7419 56.7043 30.702C56.9493 30.6621 57.1384 30.6188 57.2715 30.5722L57.1139 31.2112C56.4837 31.4508 56.0145 31.6239 55.7064 31.7304C55.3983 31.8369 55.0237 31.8901 54.5825 31.8901C54.0783 31.8901 53.6792 31.7503 53.3851 31.4708C53.091 31.1912 52.9299 30.8351 52.9019 30.4025ZM54.4039 24.0925C54.4039 23.8728 54.3794 23.6632 54.3304 23.4635C54.2814 23.2638 54.1799 23.0774 54.0258 22.9044C53.8858 22.738 53.6932 22.6048 53.4481 22.505C53.203 22.4051 52.8949 22.3552 52.5238 22.3552C52.0126 22.3552 51.5154 22.515 51.0322 22.8345C50.5491 23.154 50.1149 23.5833 49.7298 24.1224C49.3657 24.6283 49.0681 25.2407 48.837 25.9595C48.6059 26.6784 48.4903 27.4072 48.4903 28.1461C48.4903 28.5521 48.5149 28.9115 48.5639 29.2243C48.6129 29.5372 48.7074 29.8234 48.8475 30.083C48.9805 30.3359 49.1731 30.5323 49.4252 30.6721C49.6773 30.8118 49.9959 30.8817 50.381 30.8817C50.7732 30.8817 51.1828 30.7785 51.61 30.5722C52.0441 30.3592 52.5308 29.9898 53.07 29.464L54.4039 24.0925Z" fill="url(#paint1_linear_8925_74233)"/>
<path d="M30.9992 37.5016C30.9995 37.5016 30.9997 37.5016 31 37.5016L56.9935 37.5941C56.9929 37.5941 56.9931 37.5941 56.9941 37.5941L56.9944 37.5941C56.9965 37.5942 57.0014 37.5944 57.0087 37.5949C57.0241 37.596 57.0489 37.5983 57.0798 37.603C57.1442 37.613 57.2217 37.6318 57.2926 37.6641C57.3628 37.6961 57.4108 37.734 57.441 37.7751C57.467 37.8104 57.5 37.8745 57.5 38.0017V41.9813C57.4998 41.9828 57.4996 41.9845 57.4994 41.9863C57.4977 42.0012 57.4942 42.0256 57.4879 42.0561C57.4747 42.1194 57.4516 42.1971 57.4137 42.2693C57.3493 42.392 57.2507 42.5016 57 42.5016H31C30.7493 42.5016 30.6507 42.392 30.5863 42.2693C30.5484 42.1971 30.5253 42.1194 30.5121 42.0561C30.5058 42.0256 30.5023 42.0012 30.5006 41.9863C30.5004 41.9845 30.5002 41.9828 30.5 41.9813L30.5009 38.0219C30.5011 38.0203 30.5013 38.0186 30.5015 38.0166C30.5032 38.0017 30.5067 37.9774 30.513 37.9468C30.5261 37.8835 30.5492 37.8058 30.587 37.7337C30.6511 37.6112 30.7493 37.5018 30.9992 37.5016Z" fill="#D9F4FF" stroke="#333333"/>
<path fill-rule="evenodd" clip-rule="evenodd" d="M24 26V19L25 19V26H24Z" fill="#333333"/>
<path fill-rule="evenodd" clip-rule="evenodd" d="M27 19H22V18H27V19Z" fill="#333333"/>
<rect x="0.5" y="30.5" width="25" height="23" rx="2.5" fill="url(#paint2_linear_8925_74233)"/>
<rect x="0.5" y="30.5" width="25" height="23" rx="2.5" stroke="#333333"/>
<path d="M7 46.9688V44M14 46.9688V39.4375C14 37.625 12.8877 36 10.4907 36C8.09375 36 7 37.75 7 39.4375V44M7 44H14M18 36.1713V46.9688" stroke="white" stroke-width="2" stroke-linecap="round" stroke-linejoin="round"/>
<defs>
<linearGradient id="paint0_linear_8925_74233" x1="30.7286" y1="16.781" x2="42.8721" y2="39.6471" gradientUnits="userSpaceOnUse">
<stop stop-color="#FF8E3D"/>
<stop offset="1" stop-color="#FF6F3D"/>
</linearGradient>
<linearGradient id="paint1_linear_8925_74233" x1="30.7286" y1="16.781" x2="42.8721" y2="39.6471" gradientUnits="userSpaceOnUse">
<stop stop-color="#FF8E3D"/>
<stop offset="1" stop-color="#FF6F3D"/>
</linearGradient>
<linearGradient id="paint2_linear_8925_74233" x1="5.00581e-05" y1="29.0625" x2="23.8504" y2="55.9097" gradientUnits="userSpaceOnUse">
<stop stop-color="#FF8E3D"/>
<stop offset="1" stop-color="#FF6F3D"/>
</linearGradient>
</defs>
</svg>
