<svg width="64" height="64" viewBox="0 0 64 64" fill="none" xmlns="http://www.w3.org/2000/svg">
<path d="M34.5 8C34.5 6.61929 35.6193 5.5 37 5.5H56C57.3807 5.5 58.5 6.61929 58.5 8V27C58.5 28.3807 57.3807 29.5 56 29.5H37C35.6193 29.5 34.5 28.3807 34.5 27V8Z" stroke="#333333"/>
<path d="M42 11H52" stroke="#FF6F3D" stroke-width="2" stroke-linecap="round" stroke-linejoin="round"/>
<path d="M44.2472 42.2442L51.1678 45.993C51.5139 46.1804 51.5177 46.6758 51.1745 46.8686L44.2947 50.7325C43.9624 50.9191 43.5519 50.6803 43.5498 50.2992L43.509 42.6865C43.507 42.3065 43.913 42.0632 44.2472 42.2442Z" fill="url(#paint0_linear_8921_31128)" stroke="#333333" stroke-linecap="round" stroke-linejoin="round"/>
<rect x="34.5" y="34.5" width="24" height="24" rx="2.5" stroke="#333333"/>
<rect x="9.5" y="38.5" width="16" height="16" rx="0.5" stroke="#333333"/>
<rect x="9.5" y="38.5" width="16" height="4" rx="0.5" fill="#D9F4FF" stroke="#333333"/>
<rect x="5.5" y="34.5" width="24" height="24" rx="2.5" stroke="#333333"/>
<path d="M40.437 23.0901C40.4405 23.083 40.4437 23.0757 40.4469 23.0684C40.5195 22.8969 40.8323 22.4893 41.4197 22.5002C42.0644 22.5122 42.3893 22.84 42.4581 22.9389L44.199 26.5H38.7956L39.4438 25.1535L40.437 23.0901Z" stroke="#333333" stroke-linecap="round" stroke-linejoin="round"/>
<path d="M46.779 19.3361C46.7828 19.3272 46.7863 19.3182 46.7895 19.3091C46.8639 19.0998 47.0529 18.7565 47.3601 18.4755C47.6586 18.2024 48.0543 17.9993 48.5681 18.0107C49.6812 18.0355 50.2854 18.7427 50.4299 19.0317L50.4305 19.0328L54.1886 26.5H43.7539L46.779 19.3361Z" stroke="#333333" stroke-linecap="round" stroke-linejoin="round"/>
<circle cx="40" cy="18" r="1.5" fill="url(#paint1_linear_8921_31128)" stroke="#333333"/>
<rect x="5.5" y="5.5" width="24" height="24" rx="2.5" stroke="#333333"/>
<path fill-rule="evenodd" clip-rule="evenodd" d="M17.3958 15.5C17.3958 15.2239 17.6197 15 17.8958 15H25.5C25.7761 15 26 15.2239 26 15.5C26 15.7761 25.7761 16 25.5 16H17.8958C17.6197 16 17.3958 15.7761 17.3958 15.5ZM9 18.5186C9 18.2425 9.22386 18.0186 9.5 18.0186H25.5C25.7761 18.0186 26 18.2425 26 18.5186C26 18.7948 25.7761 19.0186 25.5 19.0186H9.5C9.22386 19.0186 9 18.7948 9 18.5186ZM9 21.5932C9 21.317 9.22386 21.0932 9.5 21.0932H17.9272C18.2034 21.0932 18.4272 21.317 18.4272 21.5932C18.4272 21.8693 18.2034 22.0932 17.9272 22.0932H9.5C9.22386 22.0932 9 21.8693 9 21.5932ZM9 24.5C9 24.2239 9.22386 24 9.5 24H16.2189C16.495 24 16.7189 24.2239 16.7189 24.5C16.7189 24.7761 16.495 25 16.2189 25H9.5C9.22386 25 9 24.7761 9 24.5ZM18.2814 24.5C18.2814 24.2239 18.5053 24 18.7814 24H25.5C25.7761 24 26 24.2239 26 24.5C26 24.7761 25.7761 25 25.5 25H18.7814C18.5053 25 18.2814 24.7761 18.2814 24.5Z" fill="#333333"/>
<path fill-rule="evenodd" clip-rule="evenodd" d="M9.5 15C9.22386 15 9 15.2239 9 15.5C9 15.7761 9.22386 16 9.5 16H15.5C15.7761 16 16 15.7761 16 15.5C16 15.2239 15.7761 15 15.5 15H9.5ZM20.5 21C20.2239 21 20 21.2239 20 21.5C20 21.7761 20.2239 22 20.5 22H25.5C25.7761 22 26 21.7761 26 21.5C26 21.2239 25.7761 21 25.5 21H20.5Z" fill="#FF6F3D"/>
<rect x="10" y="46" width="15" height="1" fill="#333333"/>
<rect x="10" y="50" width="15" height="1" fill="#333333"/>
<rect x="21" y="42" width="13" height="1" transform="rotate(90 21 42)" fill="#333333"/>
<rect x="16" y="42" width="13" height="1" transform="rotate(90 16 42)" fill="#333333"/>
<path d="M10 11H22" stroke="#333333" stroke-width="2" stroke-linecap="round" stroke-linejoin="round"/>
<defs>
<linearGradient id="paint0_linear_8921_31128" x1="43" y1="40.5703" x2="53.9902" y2="50.9517" gradientUnits="userSpaceOnUse">
<stop stop-color="#FF8E3D"/>
<stop offset="1" stop-color="#FF6F3D"/>
</linearGradient>
<linearGradient id="paint1_linear_8921_31128" x1="38" y1="15.8437" x2="42" y2="20" gradientUnits="userSpaceOnUse">
<stop stop-color="#FF8E3D"/>
<stop offset="1" stop-color="#FF6F3D"/>
</linearGradient>
</defs>
</svg>
