<svg width="360" height="200" viewBox="0 0 360 200" fill="none" xmlns="http://www.w3.org/2000/svg">
<path d="M83.4728 163.5C83.1966 163.5 82.9728 163.724 82.9728 164V175.169C82.9728 178.434 80.9262 181.368 77.8243 182.532C77.598 182.617 77.4649 182.851 77.508 183.089C77.5512 183.327 77.7583 183.5 78 183.5H151C151.236 183.5 151.439 183.336 151.489 183.105C151.538 182.875 151.421 182.641 151.206 182.544C147.979 181.086 145.913 177.918 145.913 174.429V164C145.913 163.724 145.689 163.5 145.413 163.5H145.406H83.4728Z" fill="url(#paint0_linear_16_13981)" stroke="#333333" stroke-miterlimit="10" stroke-linecap="round" stroke-linejoin="round"/>
<path d="M21.4093 164.5H205.597C209.962 164.5 213.5 160.976 213.5 156.623V32.3836C213.5 28.0233 209.955 24.5 205.591 24.5H21.4093C17.0381 24.5 13.5 28.0302 13.5 32.3836V156.616C13.5 160.977 17.045 164.5 21.4093 164.5Z" fill="url(#paint1_linear_16_13981)" stroke="#333333" stroke-miterlimit="10" stroke-linecap="round" stroke-linejoin="round"/>
<path d="M151.5 183C151.5 182.724 151.276 182.5 151 182.5H77C76.7239 182.5 76.5 182.724 76.5 183V186C76.5 186.276 76.7239 186.5 77 186.5H151C151.276 186.5 151.5 186.276 151.5 186V183Z" fill="url(#paint2_linear_16_13981)" stroke="#333333" stroke-miterlimit="10" stroke-linecap="round" stroke-linejoin="round"/>
<path d="M206.5 32V31.5H206H21H20.5V32V146V146.5H21H206H206.5V146V32Z" fill="white" stroke="#333333" stroke-miterlimit="10"/>
<path d="M206 32H21V60H206V32Z" fill="#1D2D44"/>
<path d="M172.5 145C172.5 145.828 171.828 146.5 171 146.5H62C61.1716 146.5 60.5 145.828 60.5 145V15.8942C60.5 14.5491 61.5325 13.5 62.7488 13.5H152.649C153.066 13.5 153.464 13.6739 153.748 13.9798L172.1 33.7602C172.357 34.0376 172.5 34.402 172.5 34.7804V145Z" fill="white" stroke="#333333" stroke-miterlimit="10"/>
<path fill-rule="evenodd" clip-rule="evenodd" d="M152 14H153.026V33.9756H172V35H152V14Z" fill="#333333"/>
<path fill-rule="evenodd" clip-rule="evenodd" d="M76 37.4995C76 37.2236 76.2236 37 76.4995 37H143.5C143.776 37 144 37.2236 144 37.4995C144 37.7754 143.776 37.999 143.5 37.999H76.4995C76.2236 37.999 76 37.7754 76 37.4995ZM76 43.4999C76 43.2241 76.2236 43.0004 76.4995 43.0004H153.5C153.776 43.0004 154 43.2241 154 43.4999C154 43.7758 153.776 43.9995 153.5 43.9995H76.4995C76.2236 43.9995 76 43.7758 76 43.4999ZM76.4995 49.0009C76.2236 49.0009 76 49.2245 76 49.5004C76 49.7763 76.2236 49.9999 76.4995 49.9999H153.5C153.776 49.9999 154 49.7763 154 49.5004C154 49.2245 153.776 49.0009 153.5 49.0009H76.4995Z" fill="#DFE2E3"/>
<path fill-rule="evenodd" clip-rule="evenodd" d="M96.5002 111H115.5H134.5H152.5H152.5C152.776 111 153 111.224 153 111.5C153 111.5 153 111.5 153 111.5C153 111.5 153 111.5 153 111.5V119.5V126.5V133.5V133.5C153 133.776 152.776 134 152.5 134C152.49 134 152.479 134 152.469 133.999H134.531C134.521 134 134.511 134 134.5 134C134.49 134 134.479 134 134.469 133.999H115.531L115.518 134C115.512 134 115.506 134 115.5 134C115.49 134 115.479 134 115.469 133.999H96.5314L96.5149 134L96.5002 134C96.4898 134 96.4794 134 96.4691 133.999H76.5314C76.5211 134 76.5107 134 76.5002 134C76.3205 134 76.1629 133.905 76.0748 133.763C76.0274 133.686 76 133.596 76 133.5C76 133.492 76.0002 133.485 76.0005 133.477L76.0005 126.522C76.0002 126.514 76 126.507 76 126.5C76 126.492 76.0002 126.485 76.0005 126.477L76.0005 119.522C76.0002 119.514 76 119.507 76 119.5C76 119.492 76.0002 119.485 76.0005 119.477L76.0005 111.522C76.0002 111.514 76 111.507 76 111.5C76 111.224 76.2236 111 76.4995 111H76.5002H96.5002ZM77 111.999L77 119H96.0005V111.999H77ZM152 111.999H135V119H152V111.999ZM134 111.999H116V119H134V111.999ZM115 111.999V119H97V111.999H115ZM96.0005 133H77L77 126.999H96.0005V133ZM96.0005 126H77L77 119.999H96.0005L96.0005 126ZM152 133V126.999H135V133H152ZM152 126V119.999H135V126H152ZM116 119.999H134V126H116V119.999ZM116 126.999H134V133H116V126.999ZM115 133V126.999H97V133H115ZM115 126V119.999H97L97 126H115Z" fill="#DFE2E3"/>
<rect x="95" y="105.001" width="38" height="0.999046" rx="0.499523" fill="#DFE2E3"/>
<rect x="85" y="99.001" width="58" height="0.999046" rx="0.499523" fill="#DFE2E3"/>
<rect x="94" y="27" width="39" height="3" rx="1.5" fill="#D0D5DA"/>
<rect x="76" y="58" width="40" height="32" rx="3" fill="#F5F5F5"/>
<path d="M85.7933 76.5938C86.5624 75.9573 87.6832 75.9855 88.4194 76.6599L92.7413 80.6194C93.5344 81.3461 94.7602 81.3152 95.5158 80.5496L105.773 70.1566C106.574 69.345 107.89 69.3663 108.665 70.2035L115.468 77.5593C115.81 77.9289 116 78.4139 116 78.9173V88.0001C116 89.1047 115.105 90.0001 114 90.0001H78C76.8954 90.0001 76 89.1047 76 88.0001V85.6392C76 85.0433 76.2658 84.4784 76.7249 84.0984L85.7933 76.5938Z" fill="#E0E0E0"/>
<ellipse cx="84.1633" cy="66.2051" rx="3.26531" ry="3.28205" fill="#E0E0E0"/>
<rect x="123" y="59" width="14" height="14" rx="3" fill="#EFEFEF"/>
<rect x="123" y="76" width="14" height="14" rx="3" fill="#E2E2E2"/>
<rect x="140" y="59" width="14" height="14" rx="3" fill="#E2E2E2"/>
<rect x="140" y="76" width="14" height="14" rx="3" fill="#EFEFEF"/>
<path d="M115.5 158C117.433 158 119 156.433 119 154.5C119 152.567 117.433 151 115.5 151C113.567 151 112 152.567 112 154.5C112 156.433 113.567 158 115.5 158Z" fill="url(#paint3_linear_16_13981)" stroke="#333333" stroke-miterlimit="10" stroke-linecap="round" stroke-linejoin="round"/>
<path d="M39.7487 43.0563C38.3319 43.0563 37.0659 43.7146 36.2297 44.7472C35.9204 44.2651 35.7406 43.689 35.7406 43.0701C35.7406 41.3745 37.0901 40 38.7548 40C40.4194 40 41.7689 41.3745 41.7689 43.0701C41.7689 43.2229 41.7579 43.3731 41.7368 43.5199C41.1359 43.2229 40.4614 43.0563 39.7487 43.0563Z" fill="white"/>
<path d="M42.1126 43.7285C42.3449 43.8722 42.5636 44.0365 42.7663 44.2189C43.104 44.5229 43.3973 44.8771 43.6346 45.27C44.0638 45.0755 44.5364 44.9627 45.0335 44.9507C44.7985 43.5121 43.5816 42.4118 42.1081 42.3884C42.1511 42.6089 42.1736 42.8368 42.1736 43.0701C42.1736 43.2952 42.1526 43.5153 42.1126 43.7285Z" fill="white"/>
<path d="M35.9734 45.0956C35.6468 44.6311 35.4295 44.0813 35.36 43.4853C35.2938 43.4865 35.2281 43.4896 35.1629 43.4946C34.8505 43.519 34.5504 43.5882 34.2688 43.6959C34.0646 43.774 33.8702 43.8725 33.6878 43.9887C33.2118 44.2923 32.8183 44.7176 32.5494 45.2219C32.4532 45.4023 32.373 45.5928 32.3106 45.7914C32.2103 46.1106 32.1561 46.4508 32.1561 46.804C32.1561 47.8032 32.5896 48.6994 33.2756 49.3078C33.5719 48.6416 34.1894 48.1552 34.9268 48.0534C35.0165 48.041 35.108 48.0343 35.2009 48.0337C35.1932 47.9236 35.1893 47.8124 35.1893 47.7004C35.1893 46.735 35.4785 45.8384 35.9734 45.0956Z" fill="white"/>
<path d="M35.2478 48.4462C35.237 48.446 35.2262 48.4459 35.2153 48.4459C35.144 48.4459 35.0737 48.4503 35.0046 48.4588C34.3649 48.5383 33.8333 48.9746 33.6078 49.5665C33.5569 49.6999 33.5216 49.8413 33.5041 49.9882C33.4958 50.0582 33.4915 50.1295 33.4915 50.2017C33.4915 50.6078 33.6268 50.9817 33.854 51.2791C34.1694 51.692 34.6619 51.9576 35.2153 51.9576C35.8318 51.9576 36.3727 51.628 36.6774 51.1324C35.9338 50.4418 35.4154 49.5038 35.2478 48.4462Z" fill="white"/>
<path d="M35.7064 41.4919C35.5005 41.3976 35.2722 41.3451 35.0318 41.3451C34.123 41.3451 33.3862 42.0955 33.3862 43.0213C33.3862 43.234 33.4251 43.4375 33.4961 43.6248C34.0332 43.2877 34.6622 43.088 35.3359 43.0735L35.3359 43.0701C35.3359 42.502 35.4695 41.9657 35.7064 41.4919Z" fill="white"/>
<path d="M47.6648 51.3668C48.3556 50.6882 48.7853 49.7357 48.7853 48.6809C48.7853 48.5443 48.778 48.4094 48.764 48.2767C48.7712 48.2766 48.7783 48.2765 48.7855 48.2765C49.7376 48.2765 50.5094 49.0627 50.5094 50.0325C50.5094 51.0023 49.7376 51.7885 48.7855 51.7885C48.3576 51.7885 47.9662 51.6297 47.6648 51.3668Z" fill="white"/>
<path d="M42.9648 50.9919C42.9345 51.0226 42.9039 51.0528 42.8728 51.0826C43.4577 51.651 44.2498 52 45.122 52C46.9217 52 48.3806 50.514 48.3806 48.6809C48.3806 46.8478 46.9217 45.3618 45.122 45.3618C44.6638 45.3618 44.2276 45.4581 43.832 45.632C44.1367 46.2548 44.3081 46.9572 44.3081 47.7004C44.3081 48.9827 43.7977 50.1436 42.9726 50.9839C42.97 50.9866 42.9674 50.9893 42.9648 50.9919Z" fill="white"/>
<path d="M31.8913 45.7792C30.2836 45.8449 29 47.1932 29 48.8469C29 50.5426 30.3495 51.9171 32.0142 51.9171C32.5615 51.9171 33.0747 51.7686 33.517 51.5089C33.247 51.1455 33.0868 50.6927 33.0868 50.2017C33.0868 50.0388 33.1045 49.88 33.1379 49.7273C32.2931 49.0437 31.7514 47.9883 31.7514 46.804C31.7514 46.4486 31.8002 46.1048 31.8913 45.7792Z" fill="white"/>
<path d="M43.9034 47.7004C43.9034 50.0374 42.0432 51.9318 39.7487 51.9318C37.4541 51.9318 35.594 50.0374 35.594 47.7004C35.594 45.3631 37.4542 43.4685 39.7487 43.4685C42.0431 43.4685 43.9034 45.3631 43.9034 47.7004Z" fill="white"/>
<path d="M326 177.5H326.5V177V59C326.5 54.3056 322.694 50.5 318 50.5H145C140.306 50.5 136.5 54.3056 136.5 59V177V177.5H137H326Z" fill="#333333"/>
<path d="M326 177.5H326.5V177V59C326.5 54.3056 322.694 50.5 318 50.5H145C140.306 50.5 136.5 54.3056 136.5 59V177V177.5H137H326Z" fill="url(#paint4_linear_16_13981)"/>
<path d="M326 177.5H326.5V177V59C326.5 54.3056 322.694 50.5 318 50.5H145C140.306 50.5 136.5 54.3056 136.5 59V177V177.5H137H326Z" stroke="#333333"/>
<path d="M142.5 56.5H320.5V171.5H142.5V56.5Z" fill="white" stroke="#333333"/>
<path d="M320 57H143V85H320V57Z" fill="#1D2D44"/>
<path d="M288.5 170C288.5 170.828 287.828 171.5 287 171.5H178C177.172 171.5 176.5 170.828 176.5 170V40.8942C176.5 39.5491 177.532 38.5 178.749 38.5H268.649C269.066 38.5 269.464 38.6739 269.748 38.9798L288.1 58.7602C288.357 59.0376 288.5 59.402 288.5 59.7804V170Z" fill="white" stroke="#333333" stroke-miterlimit="10"/>
<path fill-rule="evenodd" clip-rule="evenodd" d="M268 39H269.026V58.9756H288V60H268V39Z" fill="#333333"/>
<path fill-rule="evenodd" clip-rule="evenodd" d="M192 62.4995C192 62.2236 192.224 62 192.5 62H259.5C259.776 62 260 62.2236 260 62.4995C260 62.7754 259.776 62.999 259.5 62.999H192.5C192.224 62.999 192 62.7754 192 62.4995ZM192 68.4999C192 68.2241 192.224 68.0004 192.5 68.0004H269.5C269.776 68.0004 270 68.2241 270 68.4999C270 68.7758 269.776 68.9995 269.5 68.9995H192.5C192.224 68.9995 192 68.7758 192 68.4999ZM192.5 74.0009C192.224 74.0009 192 74.2245 192 74.5004C192 74.7763 192.224 74.9999 192.5 74.9999H269.5C269.776 74.9999 270 74.7763 270 74.5004C270 74.2245 269.776 74.0009 269.5 74.0009H192.5Z" fill="#DFE2E3"/>
<path fill-rule="evenodd" clip-rule="evenodd" d="M212.5 136H231.5H250.5H268.5H268.5C268.776 136 269 136.224 269 136.5C269 136.5 269 136.5 269 136.5C269 136.5 269 136.5 269 136.5V144.5V151.5V158.5V158.5C269 158.776 268.776 159 268.5 159C268.49 159 268.479 159 268.469 158.999H250.531C250.521 159 250.511 159 250.5 159C250.49 159 250.479 159 250.469 158.999H231.531L231.518 159C231.512 159 231.506 159 231.5 159C231.49 159 231.479 159 231.469 158.999H212.531L212.515 159L212.5 159C212.49 159 212.479 159 212.469 158.999H192.531C192.521 159 192.511 159 192.5 159C192.32 159 192.163 158.905 192.075 158.763C192.027 158.686 192 158.596 192 158.5C192 158.492 192 158.485 192 158.477L192 151.522C192 151.514 192 151.507 192 151.5C192 151.492 192 151.485 192 151.477L192 144.522C192 144.514 192 144.507 192 144.5C192 144.492 192 144.485 192 144.477L192 136.522C192 136.514 192 136.507 192 136.5C192 136.224 192.224 136 192.5 136H192.5H212.5ZM193 136.999L193 144H212V136.999H193ZM268 136.999H251V144H268V136.999ZM250 136.999H232V144H250V136.999ZM231 136.999V144H213V136.999H231ZM212 158H193L193 151.999H212V158ZM212 151H193L193 144.999H212L212 151ZM268 158V151.999H251V158H268ZM268 151V144.999H251V151H268ZM232 144.999H250V151H232V144.999ZM232 151.999H250V158H232V151.999ZM231 158V151.999H213V158H231ZM231 151V144.999H213L213 151H231Z" fill="#DFE2E3"/>
<rect x="211" y="130.001" width="38" height="0.999046" rx="0.499523" fill="#DFE2E3"/>
<rect x="201" y="124.001" width="58" height="0.999046" rx="0.499523" fill="#DFE2E3"/>
<rect x="210" y="52" width="39" height="3" rx="1.5" fill="#D0D5DA"/>
<rect x="192" y="83" width="40" height="32" rx="3" fill="#F5F5F5"/>
<path d="M201.793 101.594C202.562 100.957 203.683 100.985 204.419 101.66L208.741 105.619C209.534 106.346 210.76 106.315 211.516 105.55L221.773 95.1566C222.574 94.345 223.89 94.3663 224.665 95.2035L231.468 102.559C231.81 102.929 232 103.414 232 103.917V113C232 114.105 231.105 115 230 115H194C192.895 115 192 114.105 192 113V110.639C192 110.043 192.266 109.478 192.725 109.098L201.793 101.594Z" fill="#E0E0E0"/>
<ellipse cx="200.163" cy="91.2051" rx="3.26531" ry="3.28205" fill="#E0E0E0"/>
<rect x="239" y="84" width="14" height="14" rx="3" fill="#EFEFEF"/>
<rect x="239" y="101" width="14" height="14" rx="3" fill="#E2E2E2"/>
<rect x="256" y="84" width="14" height="14" rx="3" fill="#E2E2E2"/>
<rect x="256" y="101" width="14" height="14" rx="3" fill="#EFEFEF"/>
<path d="M344 183L344.474 183.159L344.694 182.5H344H116H115.038L115.591 183.287L116 183C115.591 183.287 115.591 183.287 115.591 183.288L115.592 183.288L115.593 183.29L115.596 183.294L115.605 183.307C115.613 183.318 115.624 183.332 115.637 183.35C115.664 183.385 115.703 183.434 115.755 183.495C115.858 183.617 116.011 183.786 116.219 183.986C116.636 184.386 117.272 184.91 118.169 185.432C119.966 186.478 122.789 187.5 126.944 187.5H334.09C338.455 187.5 341.04 186.481 342.549 185.407C343.302 184.872 343.778 184.329 344.068 183.909C344.213 183.7 344.312 183.522 344.375 183.391C344.407 183.326 344.43 183.272 344.446 183.233C344.454 183.213 344.46 183.197 344.465 183.185L344.471 183.169L344.473 183.163L344.474 183.161L344.474 183.16C344.474 183.159 344.474 183.159 344 183Z" fill="#FF9468" stroke="#333333"/>
<path d="M115 176L115.001 175.5L114.5 175.499V176V182V182.5H115H345H345.5V182V176V175.498L344.998 175.5C306.666 175.621 249.167 175.621 201.25 175.591C177.292 175.575 155.729 175.553 140.157 175.534C132.37 175.525 126.081 175.516 121.739 175.51L116.741 175.503L115.443 175.501L115.112 175.5L115.029 175.5L115.008 175.5L115.003 175.5C115.001 175.5 115.001 175.5 115 176Z" fill="#FFCA91" stroke="#333333"/>
<path d="M160.749 67.0563C159.332 67.0563 158.066 67.7146 157.23 68.7472C156.92 68.2651 156.741 67.689 156.741 67.0701C156.741 65.3745 158.09 64 159.755 64C161.419 64 162.769 65.3745 162.769 67.0701C162.769 67.2229 162.758 67.3731 162.737 67.5199C162.136 67.2229 161.461 67.0563 160.749 67.0563Z" fill="white"/>
<path d="M163.113 67.7285C163.345 67.8722 163.564 68.0365 163.766 68.2189C164.104 68.5229 164.397 68.8771 164.635 69.27C165.064 69.0755 165.536 68.9627 166.033 68.9507C165.799 67.5121 164.582 66.4118 163.108 66.3884C163.151 66.6089 163.174 66.8368 163.174 67.0701C163.174 67.2952 163.153 67.5153 163.113 67.7285Z" fill="white"/>
<path d="M156.973 69.0956C156.647 68.6311 156.43 68.0813 156.36 67.4853C156.294 67.4865 156.228 67.4896 156.163 67.4946C155.85 67.519 155.55 67.5882 155.269 67.6959C155.065 67.774 154.87 67.8725 154.688 67.9887C154.212 68.2923 153.818 68.7176 153.549 69.2219C153.453 69.4023 153.373 69.5928 153.311 69.7914C153.21 70.1106 153.156 70.4508 153.156 70.804C153.156 71.8032 153.59 72.6994 154.276 73.3078C154.572 72.6416 155.189 72.1552 155.927 72.0534C156.016 72.041 156.108 72.0343 156.201 72.0337C156.193 71.9236 156.189 71.8124 156.189 71.7004C156.189 70.735 156.478 69.8384 156.973 69.0956Z" fill="white"/>
<path d="M156.248 72.4462C156.237 72.446 156.226 72.4459 156.215 72.4459C156.144 72.4459 156.074 72.4503 156.005 72.4588C155.365 72.5383 154.833 72.9746 154.608 73.5665C154.557 73.6999 154.522 73.8413 154.504 73.9882C154.496 74.0582 154.491 74.1295 154.491 74.2017C154.491 74.6078 154.627 74.9817 154.854 75.2791C155.169 75.692 155.662 75.9576 156.215 75.9576C156.832 75.9576 157.373 75.628 157.677 75.1324C156.934 74.4418 156.415 73.5038 156.248 72.4462Z" fill="white"/>
<path d="M156.706 65.4919C156.501 65.3976 156.272 65.3451 156.032 65.3451C155.123 65.3451 154.386 66.0955 154.386 67.0213C154.386 67.234 154.425 67.4375 154.496 67.6248C155.033 67.2877 155.662 67.088 156.336 67.0735L156.336 67.0701C156.336 66.502 156.469 65.9657 156.706 65.4919Z" fill="white"/>
<path d="M168.665 75.3668C169.356 74.6882 169.785 73.7357 169.785 72.6809C169.785 72.5443 169.778 72.4094 169.764 72.2767C169.771 72.2766 169.778 72.2765 169.785 72.2765C170.738 72.2765 171.509 73.0627 171.509 74.0325C171.509 75.0023 170.738 75.7885 169.785 75.7885C169.358 75.7885 168.966 75.6297 168.665 75.3668Z" fill="white"/>
<path d="M163.965 74.9919C163.935 75.0226 163.904 75.0528 163.873 75.0826C164.458 75.651 165.25 76 166.122 76C167.922 76 169.381 74.514 169.381 72.6809C169.381 70.8478 167.922 69.3618 166.122 69.3618C165.664 69.3618 165.228 69.4581 164.832 69.632C165.137 70.2548 165.308 70.9572 165.308 71.7004C165.308 72.9827 164.798 74.1436 163.973 74.9839C163.97 74.9866 163.967 74.9893 163.965 74.9919Z" fill="white"/>
<path d="M152.891 69.7792C151.284 69.8449 150 71.1932 150 72.8469C150 74.5426 151.35 75.9171 153.014 75.9171C153.561 75.9171 154.075 75.7686 154.517 75.5089C154.247 75.1455 154.087 74.6927 154.087 74.2017C154.087 74.0388 154.104 73.88 154.138 73.7273C153.293 73.0437 152.751 71.9883 152.751 70.804C152.751 70.4486 152.8 70.1048 152.891 69.7792Z" fill="white"/>
<path d="M164.903 71.7004C164.903 74.0374 163.043 75.9318 160.749 75.9318C158.454 75.9318 156.594 74.0374 156.594 71.7004C156.594 69.3631 158.454 67.4685 160.749 67.4685C163.043 67.4685 164.903 69.3631 164.903 71.7004Z" fill="white"/>
<defs>
<linearGradient id="paint0_linear_16_13981" x1="78.0001" y1="163.258" x2="86.9633" y2="199.041" gradientUnits="userSpaceOnUse">
<stop stop-color="#FFC671"/>
<stop offset="0.59375" stop-color="#FF7541"/>
<stop offset="1" stop-color="#FF6F3D"/>
</linearGradient>
<linearGradient id="paint1_linear_16_13981" x1="14" y1="35.2541" x2="161.691" y2="240.888" gradientUnits="userSpaceOnUse">
<stop stop-color="#FFC671"/>
<stop offset="0.757512" stop-color="#FF7541"/>
<stop offset="1" stop-color="#FF6F3D"/>
</linearGradient>
<linearGradient id="paint2_linear_16_13981" x1="77.0001" y1="182.883" x2="77.2341" y2="188.878" gradientUnits="userSpaceOnUse">
<stop stop-color="#FFC671"/>
<stop offset="0.59375" stop-color="#FF7541"/>
<stop offset="1" stop-color="#FF6F3D"/>
</linearGradient>
<linearGradient id="paint3_linear_16_13981" x1="112" y1="150.727" x2="119" y2="158" gradientUnits="userSpaceOnUse">
<stop stop-color="#FFC671"/>
<stop offset="0.59375" stop-color="#FF7541"/>
<stop offset="1" stop-color="#FF6F3D"/>
</linearGradient>
<linearGradient id="paint4_linear_16_13981" x1="145.301" y1="52.9234" x2="175.257" y2="204.711" gradientUnits="userSpaceOnUse">
<stop stop-color="#FFCE95"/>
<stop offset="1" stop-color="#FF8D63"/>
</linearGradient>
</defs>
</svg>
