<svg width="360" height="200" viewBox="0 0 360 200" fill="none" xmlns="http://www.w3.org/2000/svg">
<path d="M120 19.5C115.306 19.5 111.5 23.3056 111.5 28V182C111.5 186.694 115.306 190.5 120 190.5H337C341.694 190.5 345.5 186.694 345.5 182V28C345.5 23.3056 341.694 19.5 337 19.5H120Z" fill="#333333"/>
<path d="M120 19.5C115.306 19.5 111.5 23.3056 111.5 28V182C111.5 186.694 115.306 190.5 120 190.5H337C341.694 190.5 345.5 186.694 345.5 182V28C345.5 23.3056 341.694 19.5 337 19.5H120Z" fill="url(#paint0_linear_16_13919)"/>
<path d="M120 19.5C115.306 19.5 111.5 23.3056 111.5 28V182C111.5 186.694 115.306 190.5 120 190.5H337C341.694 190.5 345.5 186.694 345.5 182V28C345.5 23.3056 341.694 19.5 337 19.5H120Z" stroke="#333333"/>
<rect x="118.5" y="26.5" width="219" height="157" rx="2.5" fill="white" stroke="#333333"/>
<path d="M335 27H121C119.895 27 119 27.8954 119 29V56H337V29C337 27.8954 336.105 27 335 27Z" fill="#1D2D44"/>
<path d="M137.749 38.0563C136.332 38.0563 135.066 38.7146 134.23 39.7472C133.92 39.2651 133.741 38.689 133.741 38.0701C133.741 36.3745 135.09 35 136.755 35C138.419 35 139.769 36.3745 139.769 38.0701C139.769 38.2229 139.758 38.3731 139.737 38.5199C139.136 38.2229 138.461 38.0563 137.749 38.0563Z" fill="white"/>
<path d="M140.113 38.7285C140.345 38.8722 140.564 39.0365 140.766 39.2189C141.104 39.5229 141.397 39.8771 141.635 40.27C142.064 40.0755 142.536 39.9627 143.033 39.9507C142.799 38.5121 141.582 37.4118 140.108 37.3884C140.151 37.6089 140.174 37.8368 140.174 38.0701C140.174 38.2952 140.153 38.5153 140.113 38.7285Z" fill="white"/>
<path d="M133.973 40.0956C133.647 39.6311 133.43 39.0813 133.36 38.4853C133.294 38.4865 133.228 38.4896 133.163 38.4946C132.85 38.519 132.55 38.5882 132.269 38.6959C132.065 38.774 131.87 38.8725 131.688 38.9887C131.212 39.2923 130.818 39.7176 130.549 40.2219C130.453 40.4023 130.373 40.5928 130.311 40.7914C130.21 41.1106 130.156 41.4508 130.156 41.804C130.156 42.8032 130.59 43.6994 131.276 44.3078C131.572 43.6416 132.189 43.1552 132.927 43.0534C133.016 43.041 133.108 43.0343 133.201 43.0337C133.193 42.9236 133.189 42.8124 133.189 42.7004C133.189 41.735 133.478 40.8384 133.973 40.0956Z" fill="white"/>
<path d="M133.248 43.4462C133.237 43.446 133.226 43.4459 133.215 43.4459C133.144 43.4459 133.074 43.4503 133.005 43.4588C132.365 43.5383 131.833 43.9746 131.608 44.5665C131.557 44.6999 131.522 44.8413 131.504 44.9882C131.496 45.0582 131.491 45.1295 131.491 45.2017C131.491 45.6078 131.627 45.9817 131.854 46.2791C132.169 46.692 132.662 46.9576 133.215 46.9576C133.832 46.9576 134.373 46.628 134.677 46.1324C133.934 45.4418 133.415 44.5038 133.248 43.4462Z" fill="white"/>
<path d="M133.706 36.4919C133.501 36.3976 133.272 36.3451 133.032 36.3451C132.123 36.3451 131.386 37.0955 131.386 38.0213C131.386 38.234 131.425 38.4375 131.496 38.6248C132.033 38.2877 132.662 38.088 133.336 38.0735L133.336 38.0701C133.336 37.502 133.469 36.9657 133.706 36.4919Z" fill="white"/>
<path d="M145.665 46.3668C146.356 45.6882 146.785 44.7357 146.785 43.6809C146.785 43.5443 146.778 43.4094 146.764 43.2767C146.771 43.2766 146.778 43.2765 146.785 43.2765C147.738 43.2765 148.509 44.0627 148.509 45.0325C148.509 46.0023 147.738 46.7885 146.785 46.7885C146.358 46.7885 145.966 46.6297 145.665 46.3668Z" fill="white"/>
<path d="M140.965 45.9919C140.935 46.0226 140.904 46.0528 140.873 46.0826C141.458 46.651 142.25 47 143.122 47C144.922 47 146.381 45.514 146.381 43.6809C146.381 41.8478 144.922 40.3618 143.122 40.3618C142.664 40.3618 142.228 40.4581 141.832 40.632C142.137 41.2548 142.308 41.9572 142.308 42.7004C142.308 43.9827 141.798 45.1436 140.973 45.9839C140.97 45.9866 140.967 45.9893 140.965 45.9919Z" fill="white"/>
<path d="M129.891 40.7792C128.284 40.8449 127 42.1932 127 43.8469C127 45.5426 128.35 46.9171 130.014 46.9171C130.561 46.9171 131.075 46.7686 131.517 46.5089C131.247 46.1455 131.087 45.6927 131.087 45.2017C131.087 45.0388 131.104 44.88 131.138 44.7273C130.293 44.0437 129.751 42.9883 129.751 41.804C129.751 41.4486 129.8 41.1048 129.891 40.7792Z" fill="white"/>
<path d="M141.903 42.7004C141.903 45.0374 140.043 46.9318 137.749 46.9318C135.454 46.9318 133.594 45.0374 133.594 42.7004C133.594 40.3631 135.454 38.4685 137.749 38.4685C140.043 38.4685 141.903 40.3631 141.903 42.7004Z" fill="white"/>
<path d="M298.5 182C298.5 182.828 297.828 183.5 297 183.5H158C157.172 183.5 156.5 182.828 156.5 182V11.8942C156.5 10.5491 157.532 9.5 158.749 9.5H278.649C279.066 9.5 279.464 9.67386 279.748 9.9798L298.1 29.7602C298.357 30.0376 298.5 30.402 298.5 30.7804V136.998V182Z" fill="white" stroke="#333333" stroke-miterlimit="10"/>
<rect x="177" y="53" width="79" height="0.999046" rx="0.499523" fill="#E0E0E0"/>
<rect x="177" y="75" width="79" height="0.999046" rx="0.499523" fill="#E0E0E0"/>
<rect x="208" y="86" width="69" height="0.999046" rx="0.499523" fill="#E0E0E0"/>
<rect x="177" y="97" width="93" height="0.999046" rx="0.499523" fill="#E0E0E0"/>
<rect x="177" y="120" width="74" height="0.999046" rx="0.499523" fill="#E0E0E0"/>
<rect x="177.5" y="37.5" width="61" height="7" rx="0.5" fill="#F8F9F9" stroke="#E0E0E0"/>
<rect x="177.5" y="60.5" width="61" height="7" rx="0.5" fill="#F8F9F9" stroke="#E0E0E0"/>
<rect x="177.5" y="82.5" width="22.1867" height="7" rx="0.5" fill="#F8F9F9" stroke="#E0E0E0"/>
<rect x="245.5" y="60.5" width="31" height="7" rx="0.5" fill="#F8F9F9" stroke="#E0E0E0"/>
<rect x="-0.5" y="0.5" width="60.8312" height="7" rx="0.5" transform="matrix(-1 0 0 1 275.468 104)" fill="#F8F9F9" stroke="#E0E0E0"/>
<rect x="-0.5" y="0.5" width="31.2597" height="7" rx="0.5" transform="matrix(-1 0 0 1 208.26 104)" fill="#F8F9F9" stroke="#E0E0E0"/>
<path fill-rule="evenodd" clip-rule="evenodd" d="M277 10H278.077V29.9756H298V31H277V10Z" fill="#333333"/>
<path fill-rule="evenodd" clip-rule="evenodd" d="M177 131.5C177 131.224 177.224 131 177.5 131H177.5H202.5H227.499H252.499H276.5C276.767 131 276.985 131.209 276.999 131.472C277.013 131.209 277.231 131 277.498 131C277.774 131 277.998 131.224 277.998 131.5V164.496C277.998 164.772 277.774 164.996 277.498 164.996C277.231 164.996 277.013 164.787 276.999 164.524C276.985 164.787 276.767 164.996 276.5 164.996H252.502L252.499 164.996L252.496 164.996H227.502L227.499 164.996L227.496 164.996H202.503L202.5 164.996L202.497 164.996H177.503C177.502 164.996 177.501 164.996 177.5 164.996C177.224 164.996 177 164.772 177 164.496L177 164.474M178 153.997L178 152.998H202L202 142.998H178L178 141.999H202V131.999H178M177 131.5C177 131.507 177 131.514 177 131.522L177 131.5ZM177 131.522L177 142.476C177 142.484 177 142.491 177 142.499C177 142.506 177 142.514 177 142.521L177 153.475C177 153.483 177 153.49 177 153.498C177 153.505 177 153.513 177 153.52M178 153.997H202V163.997H178M276.5 131.999C276.763 131.999 276.979 131.796 276.999 131.538V142.46C276.979 142.202 276.763 141.999 276.5 141.999H252.999V131.999H276.5ZM276.5 142.998C276.763 142.998 276.979 142.795 276.999 142.537V153.459C276.979 153.201 276.763 152.998 276.5 152.998H252.999V142.998H276.5ZM276.5 153.997C276.763 153.997 276.979 153.794 276.999 153.536V164.458C276.979 164.2 276.763 163.997 276.5 163.997H252.999V153.997H276.5ZM251.999 163.997V153.997H227.999V163.997H251.999ZM251.999 152.998V142.998H227.999V152.998H251.999ZM251.999 141.999V131.999H227.999V141.999H251.999ZM203 131.999H227V141.999H203V131.999ZM203 142.998H227V152.998H203L203 142.998ZM203 153.997H227V163.997H203V153.997Z" fill="#E0E0E0"/>
<rect x="195" y="22" width="59" height="3" rx="1.5" fill="#D0D5DA"/>
<path d="M100.5 31C100.5 22.9921 94.0124 16.5 86.0041 16.5L57.5 16.5L28.9959 16.5C20.9876 16.5 14.5 22.9921 14.5 31V175C14.5 183.008 20.9919 189.5 29 189.5H86C94.0081 189.5 100.5 183.008 100.5 175V31Z" fill="#333333"/>
<path d="M100.5 31C100.5 22.9921 94.0124 16.5 86.0041 16.5L57.5 16.5L28.9959 16.5C20.9876 16.5 14.5 22.9921 14.5 31V175C14.5 183.008 20.9919 189.5 29 189.5H86C94.0081 189.5 100.5 183.008 100.5 175V31Z" fill="url(#paint1_linear_16_13919)"/>
<path d="M100.5 31C100.5 22.9921 94.0124 16.5 86.0041 16.5L57.5 16.5L28.9959 16.5C20.9876 16.5 14.5 22.9921 14.5 31V175C14.5 183.008 20.9919 189.5 29 189.5H86C94.0081 189.5 100.5 183.008 100.5 175V31Z" stroke="#333333"/>
<path d="M96.5 32C96.5 25.6488 91.3522 20.5 85.0009 20.5L68.9204 20.5C67.7032 20.5 66.5178 20.9038 65.5544 21.6485L62.1728 24.2625C59.4714 26.3507 55.7005 26.3507 52.9991 24.2625L49.6174 21.6485C48.6542 20.904 47.4713 20.5 46.2538 20.5L29.997 20.5C23.6455 20.5 18.5 25.6489 18.5 32V174C18.5 180.351 23.6487 185.5 30 185.5H85C91.3513 185.5 96.5 180.351 96.5 174V32Z" fill="white" stroke="#333333"/>
<circle cx="57.369" cy="21.0997" r="1.36634" fill="#333333"/>
<path d="M101 37.8406C102 37.8406 102 38.5354 102 38.5354V57.7497C102 57.7497 102 58.6258 101 58.6258C101 53.7374 101 37.8406 101 37.8406Z" fill="#333333"/>
<path d="M101 62.2944C102 62.2944 102 62.9735 102 62.9735V69.9413C102 69.9413 102 70.7975 101 70.7975C101 66.0201 101 62.2944 101 62.2944Z" fill="#333333"/>
<rect x="26" y="62" width="61" height="0.999046" rx="0.499523" fill="#E0E0E0"/>
<rect x="26" y="83" width="60" height="0.999046" rx="0.499523" fill="#E0E0E0"/>
<rect x="26" y="137" width="60" height="0.999046" rx="0.499523" fill="#E0E0E0"/>
<rect x="48" y="92" width="38" height="0.999046" rx="0.499523" fill="#E0E0E0"/>
<rect x="26" y="102" width="60" height="0.999046" rx="0.499523" fill="#E0E0E0"/>
<rect x="26.5" y="48.5" width="30.7354" height="7" rx="0.5" fill="#F8F9F9" stroke="#E0E0E0"/>
<rect x="26.5" y="69.5" width="60" height="7" rx="0.5" fill="#F8F9F9" stroke="#E0E0E0"/>
<rect x="26.5" y="88.5" width="16.25" height="7" rx="0.5" fill="#F8F9F9" stroke="#E0E0E0"/>
<rect x="61.5" y="48.5" width="26" height="7" rx="0.5" fill="#F8F9F9" stroke="#E0E0E0"/>
<rect width="38" height="0.999046" rx="0.499523" transform="matrix(-1 0 0 1 64 127)" fill="#E0E0E0"/>
<rect x="-0.5" y="0.5" width="16.25" height="7" rx="0.5" transform="matrix(-1 0 0 1 85 123)" fill="#F8F9F9" stroke="#E0E0E0"/>
<rect x="26.5" y="109.5" width="26" height="7" rx="0.5" fill="#F8F9F9" stroke="#E0E0E0"/>
<rect x="57.5" y="109.5" width="29.5" height="7" rx="0.5" fill="#F8F9F9" stroke="#E0E0E0"/>
<path fill-rule="evenodd" clip-rule="evenodd" d="M26.4995 146C26.2236 146 26 146.224 26 146.5C26 146.507 26.0002 146.514 26.0005 146.522L26.0005 154.477C26.0002 154.485 26 154.492 26 154.5C26 154.507 26.0002 154.514 26.0005 154.522L26.0005 161.477C26.0002 161.485 26 161.492 26 161.5C26 161.507 26.0002 161.514 26.0005 161.522L26.0005 168.477C26.0002 168.485 26 168.492 26 168.5C26 168.596 26.0274 168.686 26.0748 168.763C26.1629 168.905 26.3205 169 26.5002 169C26.5107 169 26.5211 169 26.5314 168.999H46.4686C46.4789 169 46.4893 169 46.4998 169L46.5139 169L46.5309 168.999H66.4681L66.484 169L66.4993 169C66.5097 169 66.5201 169 66.5304 168.999H86.4676C86.4779 169 86.4883 169 86.4988 169C86.7738 169 86.997 168.778 86.9985 168.503L86.9985 168.5L86.9985 168.497V161.502L86.9985 161.5L86.9985 161.497V154.502L86.9985 154.5L86.9985 154.497V146.502L86.9985 146.5C86.9985 146.224 86.7749 146 86.499 146H86.4988H66.4993H46.4998H26.5002H26.4995ZM27 146.999L27 154H46V146.999H27ZM27 154.999L27 161H46L46 154.999H27ZM27 161.999L27 168H46V161.999H27ZM85.999 161.999V168H66.999V161.999H85.999ZM85.999 154.999V161H66.999V154.999H85.999ZM85.999 146.999V154H66.999V146.999H85.999ZM65.9995 146.999H46.9995V154H65.9995V146.999ZM65.9995 154.999H46.9995L46.9995 161H65.9995V154.999ZM65.9995 161.999H46.9995V168H65.9995V161.999Z" fill="#E0E0E0"/>
<rect x="39" y="37" width="39" height="3" rx="1.5" fill="#D0D5DA"/>
<defs>
<linearGradient id="paint0_linear_16_13919" x1="122.234" y1="22.5951" x2="166.14" y2="225.88" gradientUnits="userSpaceOnUse">
<stop stop-color="#FFCE95"/>
<stop offset="1" stop-color="#FF8D63"/>
</linearGradient>
<linearGradient id="paint1_linear_16_13919" x1="18.7333" y1="19.6256" x2="113.633" y2="178.05" gradientUnits="userSpaceOnUse">
<stop stop-color="#FFCE95"/>
<stop offset="1" stop-color="#FF8D63"/>
</linearGradient>
</defs>
</svg>
