<svg width="544" height="468" viewBox="0 0 544 468" fill="none" xmlns="http://www.w3.org/2000/svg">
<g clip-path="url(#clip0_16_12246)">
<rect x="169.5" y="-82.5" width="205" height="195" rx="10" fill="white" fill-opacity="0.15"/>
<rect x="191.5" y="25.5" width="129" height="10" rx="5" fill="#E3E3E3" fill-opacity="0.14"/>
<rect x="191.5" y="61.5" width="119" height="5" rx="2.5" fill="#E3E3E3" fill-opacity="0.14"/>
<rect x="191.5" y="78.5" width="89" height="5" rx="2.5" fill="#E3E3E3" fill-opacity="0.14"/>
<rect x="169.5" y="136.5" width="205" height="195" rx="10" fill="white"/>
<path fill-rule="evenodd" clip-rule="evenodd" d="M223.783 224.691L195.319 211.103C192.894 209.917 192.894 208.084 195.319 207.006L205.228 202.261L223.678 211.103C226.102 212.29 230.003 212.29 232.322 211.103L250.772 202.261L260.681 207.006C263.106 208.192 263.106 210.025 260.681 211.103L232.217 224.691C230.003 225.77 226.102 225.77 223.783 224.691Z" fill="#FF6F3D"/>
<path fill-rule="evenodd" clip-rule="evenodd" d="M223.691 207.877L195.313 194.273C192.896 193.086 192.896 191.25 195.313 190.171L204.982 185.528L223.691 194.489C226.108 195.677 229.997 195.677 232.309 194.489L251.018 185.528L260.687 190.171C263.104 191.358 263.104 193.194 260.687 194.273L232.309 207.877C229.892 209.064 226.003 209.064 223.691 207.877Z" fill="#95C038"/>
<path fill-rule="evenodd" clip-rule="evenodd" d="M223.691 191.237L195.313 177.829C192.896 176.659 192.896 174.85 195.313 173.786L223.691 160.378C226.108 159.207 229.997 159.207 232.309 160.378L260.687 173.786C263.104 174.956 263.104 176.765 260.687 177.829L232.309 191.237C229.892 192.301 226.003 192.301 223.691 191.237Z" fill="#5DC0E8"/>
<rect x="318.635" y="160.168" width="33.8655" height="13" rx="6.5" fill="#E2E2E2"/>
<rect x="193.5" y="254.5" width="159" height="10" rx="5" fill="#E2E2E2"/>
<rect x="193.5" y="280.5" width="119" height="5" rx="2.5" fill="#E2E2E2"/>
<rect x="193.5" y="295.5" width="100" height="5" rx="2.5" fill="#E2E2E2"/>
<rect x="169.5" y="355.5" width="205" height="195" rx="10" fill="white" fill-opacity="0.15"/>
<rect x="317.217" y="379.168" width="33.8655" height="13" rx="6.5" fill="#F2F2F2" fill-opacity="0.2"/>
<rect x="191.5" y="450.5" width="129" height="10" rx="5" fill="#E3E3E3" fill-opacity="0.14"/>
<rect x="193.955" y="379.622" width="58.5909" height="58.5909" rx="29.2955" stroke="white" stroke-opacity="0.25" stroke-width="0.909091"/>
<rect x="207.389" y="393.056" width="31.7227" height="31.7227" rx="15.8613" stroke="white" stroke-opacity="0.25" stroke-width="0.909091"/>
</g>
<defs>
<clipPath id="clip0_16_12246">
<rect width="544" height="468" fill="white"/>
</clipPath>
</defs>
</svg>
