<svg width="640" height="710" viewBox="0 0 640 710" fill="none" xmlns="http://www.w3.org/2000/svg">
<g clip-path="url(#clip0_2567_30806)">
<g clip-path="url(#clip1_2567_30806)">
<path d="M623 503.282C622.377 506.234 621.617 509.148 620.683 512.062C620.372 513.013 620.06 513.985 619.71 514.936C617.724 520.511 615.252 525.659 612.332 530.476C607.349 538.674 601.023 545.88 593.431 552.427C591.348 554.214 589.187 555.962 586.91 557.671C580.7 562.353 573.77 566.704 566.179 570.9C557.886 575.464 548.796 579.835 538.926 584.186C538.42 584.4 537.914 584.633 537.389 584.866C529.33 588.382 520.745 591.898 511.674 595.511C504.511 598.366 497.055 601.28 489.288 604.291C487.828 604.854 486.213 605.495 484.422 606.175C480.1 607.846 474.845 609.846 468.752 612.061C465.17 613.362 461.316 614.742 457.17 616.16C449.052 618.976 439.923 621.987 429.917 625.017C424.37 626.688 418.569 628.378 412.515 630.029H140.907C137.306 628.669 133.705 627.232 130.143 625.697C120.935 621.793 111.845 617.364 102.89 612.352C102.715 612.255 102.54 612.158 102.365 612.061C96.9726 609.031 91.6195 605.806 86.3443 602.348C83.3271 600.367 79.6675 597.978 75.638 595.22C71.2387 592.189 66.3917 588.712 61.4669 584.866C57.0676 581.428 52.6293 577.679 48.3858 573.677C43.091 568.724 38.1272 563.363 33.9421 557.671C27.713 549.221 23.2553 540.053 22.2041 530.476C21.9122 527.912 21.8732 525.329 22.1068 522.706C22.7881 515.111 25.6301 508.818 30.0878 503.282C34.6818 497.571 40.9887 492.656 48.3858 487.955C54.6733 483.973 61.7394 480.127 69.2337 476.087C71.3361 474.96 73.4773 473.795 75.638 472.629C84.5145 467.792 93.7997 462.567 102.89 456.351C106.336 454.02 109.742 451.534 113.11 448.892C119.028 444.211 124.77 439.024 130.143 433.158C133.432 429.603 136.566 425.796 139.525 421.697C141.335 419.211 143.068 416.627 144.742 413.927C148.791 407.381 151.964 400.912 154.436 394.502C155.565 391.569 156.558 388.655 157.395 385.761C159.205 379.526 160.393 373.387 161.113 367.307C162.183 358.042 162.144 348.97 161.463 340.113C160.762 330.789 159.341 321.717 157.823 312.918C157.687 312.082 157.531 311.247 157.395 310.431C155.896 301.923 154.339 293.687 153.268 285.723C151.983 276.244 151.36 267.153 152.314 258.528C153.015 252.137 154.592 245.999 157.395 240.133C158.816 237.122 160.568 234.189 162.709 231.333C163.176 230.673 163.682 230.032 164.208 229.391C169.58 222.767 176.491 217.27 184.647 212.88C192.609 208.567 201.758 205.284 211.899 203.012C220.348 201.108 229.477 199.884 239.152 199.321C247.814 198.816 256.943 198.855 266.404 199.399C275.222 199.904 284.332 200.856 293.656 202.235C302.552 203.556 311.662 205.284 320.908 207.363C329.882 209.403 338.992 211.792 348.161 214.531C357.212 217.231 366.303 220.261 375.413 223.622C381.934 226.03 388.474 228.594 394.976 231.333C397.546 232.421 400.115 233.509 402.665 234.655C411.814 238.676 420.924 243.046 429.917 247.708C436.536 251.147 443.096 254.74 449.558 258.528C452.108 260.004 454.639 261.5 457.17 263.035C466.474 268.707 475.584 274.709 484.422 281.042C486.583 282.576 488.724 284.149 490.846 285.723C497.99 291.065 504.958 296.601 511.674 302.37C512.005 302.642 512.316 302.933 512.647 303.205C514.886 305.128 518.662 308.45 523.509 312.918C527.889 316.978 533.145 321.97 538.926 327.797C542.683 331.566 546.654 335.684 550.762 340.113C555.784 345.513 560.981 351.34 566.179 357.556C568.845 360.703 571.493 363.966 574.121 367.307C580.797 375.757 587.357 384.77 593.431 394.191C593.509 394.289 593.567 394.386 593.625 394.502C599.271 403.263 604.507 412.373 608.984 421.697C613.286 430.613 616.926 439.704 619.632 448.892C620.002 450.135 620.352 451.378 620.683 452.621C622.766 460.43 624.168 468.278 624.732 476.087C625.374 485.216 624.888 494.327 623 503.282Z" fill="white" fill-opacity="0.6" stroke="#EEEEEE" stroke-linecap="round" stroke-linejoin="round"/>
<path d="M394.976 231.333H375.413H348.161H320.908H293.656H266.404H239.152H211.899H184.647H162.709" stroke="#EEEEEE" stroke-linecap="round" stroke-linejoin="round"/>
<path d="M152.314 258.528H157.395H184.647H211.899H239.152H266.404H293.656H320.908H348.161H375.413H402.665H429.917H449.558" stroke="#EEEEEE" stroke-linecap="round" stroke-linejoin="round"/>
<path d="M153.268 285.723H157.395H184.647H211.899H239.152H266.404H293.656H320.908H348.161H375.413H402.665H429.917H457.17H484.422H490.846" stroke="#EEEEEE" stroke-linecap="round" stroke-linejoin="round"/>
<path d="M157.395 312.917H157.823H184.647H211.899H239.152H266.404H293.656H320.908H348.161H375.413H402.665H429.917H457.17H484.422H511.674H523.509" stroke="#EEEEEE" stroke-linecap="round" stroke-linejoin="round"/>
<path d="M161.463 340.112H184.647H211.899H239.152H266.404H293.656H320.908H348.161H375.413H402.665H429.917H457.17H484.422H511.674H538.926H550.762" stroke="#EEEEEE" stroke-linecap="round" stroke-linejoin="round"/>
<path d="M161.113 367.307H184.647H211.899H239.152H266.404H293.656H320.908H348.161H375.413H402.665H429.917H457.17H484.422H511.674H538.926H566.179H574.121" stroke="#EEEEEE" stroke-linecap="round" stroke-linejoin="round"/>
<path d="M154.436 394.502H157.395H184.647H211.899H239.152H266.404H293.656H320.908H348.161H375.413H402.665H429.917H457.17H484.422H511.674H538.926H566.179H593.431H593.626" stroke="#EEEEEE" stroke-linecap="round" stroke-linejoin="round"/>
<path d="M608.984 421.697H593.431H566.179H538.926H511.674H484.422H457.17H429.917H402.665H375.413H348.161H320.908H293.656H266.404H239.152H211.899H184.647H157.395H139.525" stroke="#EEEEEE" stroke-linecap="round" stroke-linejoin="round"/>
<path d="M619.632 448.892H593.431H566.179H538.926H511.674H484.422H457.17H429.917H402.665H375.413H348.161H320.908H293.656H266.404H239.152H211.899H184.647H157.395H130.143H113.11" stroke="#EEEEEE" stroke-linecap="round" stroke-linejoin="round"/>
<path d="M624.732 476.086H620.683H593.431H566.178H538.926H511.674H484.422H457.169H429.917H402.665H375.413H348.16H320.908H293.656H266.404H239.151H211.899H184.647H157.395H130.142H102.89H75.6379H69.2336" stroke="#EEEEEE" stroke-linecap="round" stroke-linejoin="round"/>
<path d="M623 503.281H620.683H593.431H566.179H538.926H511.674H484.422H457.17H429.917H402.665H375.413H348.161H320.908H293.656H266.404H239.152H211.899H184.647H157.395H130.143H102.89H75.6381H48.3858H30.0879" stroke="#EEEEEE" stroke-linecap="round" stroke-linejoin="round"/>
<path d="M612.332 530.476H593.431H566.179H538.926H511.674H484.422H457.17H429.917H402.665H375.413H348.161H320.908H293.656H266.404H239.152H211.899H184.647H157.395H130.142H102.89H75.638H48.3857H22.2041" stroke="#EEEEEE" stroke-linecap="round" stroke-linejoin="round"/>
<path d="M33.9421 557.671H48.3858H75.6381H102.89H130.143H157.395H184.647H211.899H239.152H266.404H293.656H320.908H348.161H375.413H402.665H429.917H457.17H484.422H511.674H538.926H566.179H586.91" stroke="#EEEEEE" stroke-linecap="round" stroke-linejoin="round"/>
<path d="M61.4668 584.866H75.638H102.89H130.142H157.395H184.647H211.899H239.152H266.404H293.656H320.908H348.161H375.413H402.665H429.917H457.17H484.422H511.674H537.389H538.926" stroke="#EEEEEE" stroke-linecap="round" stroke-linejoin="round"/>
<path d="M468.752 612.061H457.17H429.917H402.665H375.413H348.161H320.908H293.656H266.404H239.152H211.899H184.647H157.395H130.143H102.89H102.365" stroke="#EEEEEE" stroke-linecap="round" stroke-linejoin="round"/>
<path d="M48.3857 487.955V503.281V530.476V557.671V573.677" stroke="#EEEEEE" stroke-linecap="round" stroke-linejoin="round"/>
<path d="M75.6379 472.629V476.087V503.281V530.476V557.671V584.866V595.219" stroke="#EEEEEE" stroke-linecap="round" stroke-linejoin="round"/>
<path d="M102.89 612.352V612.061V584.866V557.671V530.476V503.282V476.087V456.351" stroke="#EEEEEE" stroke-linecap="round" stroke-linejoin="round"/>
<path d="M130.143 433.158V448.892V476.087V503.282V530.476V557.671V584.866V612.061V625.697" stroke="#EEEEEE" stroke-linecap="round" stroke-linejoin="round"/>
<path d="M157.395 240.132V258.528V285.723V310.431V312.917" stroke="#EEEEEE" stroke-linecap="round" stroke-linejoin="round"/>
<path d="M157.395 630.029V612.061V584.866V557.671V530.476V503.281V476.086V448.892V421.697V394.502V385.761" stroke="#EEEEEE" stroke-linecap="round" stroke-linejoin="round"/>
<path d="M184.647 630.029V612.061V584.866V557.671V530.476V503.281V476.086V448.892V421.697V394.502V367.307V340.112V312.918V285.723V258.528V231.333V212.879" stroke="#EEEEEE" stroke-linecap="round" stroke-linejoin="round"/>
<path d="M211.899 630.029V612.061V584.866V557.671V530.476V503.282V476.087V448.892V421.697V394.502V367.307V340.113V312.918V285.723V258.528V231.333V203.012" stroke="#EEEEEE" stroke-linecap="round" stroke-linejoin="round"/>
<path d="M239.152 199.321V231.333V258.528V285.723V312.917V340.112V367.307V394.502V421.697V448.892V476.086V503.281V530.476V557.671V584.866V612.061V630.029" stroke="#EEEEEE" stroke-linecap="round" stroke-linejoin="round"/>
<path d="M266.404 630.029V612.061V584.866V557.671V530.476V503.281V476.086V448.892V421.697V394.502V367.307V340.112V312.917V285.723V258.528V231.333V199.398" stroke="#EEEEEE" stroke-linecap="round" stroke-linejoin="round"/>
<path d="M293.656 630.029V612.061V584.866V557.671V530.476V503.282V476.087V448.892V421.697V394.502V367.307V340.113V312.918V285.723V258.528V231.333V202.235" stroke="#EEEEEE" stroke-linecap="round" stroke-linejoin="round"/>
<path d="M320.908 207.363V231.333V258.528V285.723V312.918V340.112V367.307V394.502V421.697V448.892V476.087V503.281V530.476V557.671V584.866V612.061V630.029" stroke="#EEEEEE" stroke-linecap="round" stroke-linejoin="round"/>
<path d="M348.161 630.029V612.061V584.866V557.671V530.476V503.282V476.087V448.892V421.697V394.502V367.307V340.113V312.918V285.723V258.528V231.333V214.531" stroke="#EEEEEE" stroke-linecap="round" stroke-linejoin="round"/>
<path d="M375.413 223.622V231.333V258.528V285.723V312.918V340.113V367.307V394.502V421.697V448.892V476.087V503.282V530.476V557.671V584.866V612.061V630.029" stroke="#EEEEEE" stroke-linecap="round" stroke-linejoin="round"/>
<path d="M402.665 630.029V612.061V584.866V557.671V530.476V503.281V476.087V448.892V421.697V394.502V367.307V340.112V312.918V285.723V258.528V234.655" stroke="#EEEEEE" stroke-linecap="round" stroke-linejoin="round"/>
<path d="M429.917 625.017V612.061V584.866V557.671V530.476V503.282V476.087V448.892V421.697V394.502V367.307V340.113V312.918V285.723V258.528V247.708" stroke="#EEEEEE" stroke-linecap="round" stroke-linejoin="round"/>
<path d="M457.17 263.035V285.723V312.918V340.113V367.307V394.502V421.697V448.892V476.087V503.282V530.476V557.671V584.866V612.061V616.16" stroke="#EEEEEE" stroke-linecap="round" stroke-linejoin="round"/>
<path d="M484.422 606.175V584.866V557.671V530.476V503.282V476.087V448.892V421.697V394.502V367.307V340.113V312.918V285.723V281.042" stroke="#EEEEEE" stroke-linecap="round" stroke-linejoin="round"/>
<path d="M511.674 595.511V584.866V557.671V530.477V503.282V476.087V448.892V421.697V394.502V367.308V340.113V312.918V302.37" stroke="#EEEEEE" stroke-linecap="round" stroke-linejoin="round"/>
<path d="M538.926 327.797V340.112V367.307V394.502V421.697V448.892V476.086V503.281V530.476V557.671V584.186V584.866" stroke="#EEEEEE" stroke-linecap="round" stroke-linejoin="round"/>
<path d="M566.179 570.9V557.671V530.476V503.282V476.087V448.892V421.697V394.502V367.307V357.556" stroke="#EEEEEE" stroke-linecap="round" stroke-linejoin="round"/>
<path d="M593.431 552.426V530.476V503.282V476.087V448.892V421.697V394.502V394.191" stroke="#EEEEEE" stroke-linecap="round" stroke-linejoin="round"/>
<path d="M620.683 452.621V476.086V503.281V512.061" stroke="#EEEEEE" stroke-linecap="round" stroke-linejoin="round"/>
</g>
<path d="M362.55 255.986C348.088 274.247 333.823 294.461 331.839 318.015L329.96 340.318C329.214 349.184 321.799 356 312.902 356H244.729C235.834 356 228.422 349.188 227.671 340.325L225.841 318.713C223.832 294.988 209.37 274.67 194.728 256.336C179.885 237.75 171 214.122 171 188.398C171 128.524 219.137 80 278.5 80C337.863 80 386 128.524 386 188.398C386 213.961 377.226 237.454 362.55 255.986Z" fill="#F2F2F2" stroke="#333333" stroke-width="2"/>
<path d="M316.297 370.142H238.048C226.834 370.142 217.743 379.058 217.743 390.056V393.942C217.743 404.94 226.834 413.857 238.048 413.857H316.297C327.512 413.857 336.603 404.94 336.603 393.942V390.056C336.603 379.058 327.512 370.142 316.297 370.142Z" fill="white" stroke="#333333" stroke-width="2" stroke-linecap="round" stroke-linejoin="round"/>
<path d="M314.168 413.857C312.732 430.177 296.735 443 277.173 443C257.61 443 241.614 430.177 240.177 413.857H314.168Z" fill="#CCCCCC" stroke="#333333" stroke-width="2" stroke-linecap="round" stroke-linejoin="round"/>
<path d="M296 356H297V355V246V245H296H261H260V246V355V356H261H264H265V355V250H292V355V356H293H296Z" fill="white" stroke="#333333" stroke-width="2"/>
<path d="M214 224C214 210.193 225.193 199 239 199C252.807 199 264 210.193 264 224V249H239C225.193 249 214 237.807 214 224Z" fill="white" stroke="#333333" stroke-width="2"/>
<path d="M343 224C343 210.193 331.807 199 318 199C304.193 199 293 210.193 293 224V249H318C331.807 249 343 237.807 343 224Z" fill="white" stroke="#333333" stroke-width="2"/>
<path d="M261 246H267V249H264H261V246Z" fill="white"/>
<path d="M261 249V252H264V249H261Z" fill="white"/>
<path d="M296 246H290V249H293H296V246Z" fill="white"/>
<path d="M296 249V252H293V249H296Z" fill="white"/>
<ellipse cx="461.044" cy="690" rx="173" ry="5" fill="#E8E8E8"/>
<ellipse cx="102.5" cy="690" rx="102.5" ry="5" fill="#E8E8E8"/>
<path fill-rule="evenodd" clip-rule="evenodd" d="M305.881 11.4813C302.24 11.2399 298.519 11.1654 294.733 11.2462C294.18 11.2579 293.723 10.8199 293.711 10.2677C293.7 9.71557 294.138 9.2584 294.69 9.24662C298.531 9.16466 302.309 9.24019 306.013 9.48566C306.564 9.52218 306.982 9.99852 306.945 10.5496C306.908 11.1007 306.432 11.5178 305.881 11.4813ZM284.479 10.8158C284.531 11.3656 284.127 11.8536 283.578 11.9058C279.92 12.2532 276.216 12.7272 272.477 13.3185C271.931 13.4048 271.419 13.0325 271.333 12.487C271.247 11.9415 271.619 11.4293 272.164 11.3431C275.942 10.7457 279.687 10.2663 283.389 9.91479C283.938 9.86258 284.426 10.266 284.479 10.8158ZM316.11 11.6243C316.204 11.0801 316.722 10.7152 317.266 10.8093C321.066 11.4662 324.764 12.3348 328.343 13.4307C328.871 13.5924 329.168 14.1516 329.006 14.6797C328.845 15.2077 328.286 15.5047 327.757 15.343C324.264 14.2734 320.648 13.4237 316.925 12.78C316.381 12.6859 316.016 12.1685 316.11 11.6243ZM262.235 14.1828C262.35 14.7229 262.006 15.2542 261.466 15.3694C257.851 16.1406 254.213 17.0093 250.563 17.9673C250.029 18.1075 249.482 17.7881 249.342 17.2539C249.202 16.7197 249.521 16.173 250.055 16.0328C253.734 15.0674 257.401 14.1914 261.048 13.4134C261.588 13.2982 262.12 13.6427 262.235 14.1828ZM337.631 18.0117C337.868 17.5131 338.465 17.3013 338.964 17.5387C342.403 19.1766 345.695 21.0762 348.82 23.2544C349.273 23.5703 349.384 24.1936 349.068 24.6466C348.752 25.0997 348.129 25.2109 347.676 24.8951C344.645 22.782 341.449 20.9371 338.104 19.3445C337.605 19.1071 337.393 18.5104 337.631 18.0117ZM240.442 19.7908C240.604 20.3188 240.308 20.8782 239.78 21.0402C236.227 22.1304 232.671 23.2966 229.12 24.5312C228.598 24.7125 228.028 24.4367 227.847 23.915C227.665 23.3934 227.941 22.8235 228.463 22.6421C232.036 21.3998 235.616 20.2259 239.193 19.1282C239.721 18.9662 240.28 19.2628 240.442 19.7908ZM219.159 27.1027C219.357 27.618 219.101 28.1969 218.585 28.3956C215.101 29.7398 211.629 31.1431 208.178 32.5982C207.669 32.8128 207.083 32.5742 206.868 32.0653C206.654 31.5565 206.892 30.97 207.401 30.7554C210.87 29.2925 214.361 27.8815 217.866 26.5296C218.381 26.3309 218.96 26.5875 219.159 27.1027ZM356.172 30.5652C356.561 30.1727 357.194 30.1696 357.587 30.5582C360.224 33.1695 362.69 36.0458 364.97 39.2007C365.294 39.6484 365.193 40.2735 364.746 40.597C364.298 40.9205 363.673 40.8198 363.349 40.3722C361.133 37.305 358.738 34.5123 356.179 31.9794C355.787 31.5908 355.784 30.9576 356.172 30.5652ZM198.394 35.7865C198.623 36.2889 198.402 36.8821 197.899 37.1114C194.484 38.67 191.098 40.2733 187.751 41.9141C187.255 42.1571 186.656 41.9521 186.413 41.4562C186.17 40.9603 186.375 40.3612 186.871 40.1182C190.234 38.4695 193.636 36.8583 197.069 35.2919C197.572 35.0626 198.165 35.284 198.394 35.7865ZM178.157 45.6409C178.413 46.1302 178.224 46.7345 177.735 46.9907C174.391 48.7423 171.095 50.5251 167.858 52.3311C167.375 52.6002 166.766 52.4273 166.497 51.945C166.228 51.4626 166.401 50.8535 166.883 50.5845C170.136 48.77 173.447 46.9788 176.807 45.219C177.296 44.9628 177.901 45.1517 178.157 45.6409ZM369.563 48.4568C370.054 48.2027 370.657 48.3942 370.911 48.8845C371.781 50.5627 372.609 52.3007 373.394 54.0999C374.16 55.8545 374.935 57.5674 375.721 59.24C375.956 59.7399 375.741 60.3354 375.241 60.5702C374.741 60.805 374.145 60.59 373.911 60.0901C373.117 58.4006 372.334 56.6709 371.561 54.8997C370.794 53.1403 369.985 51.4426 369.136 49.8049C368.882 49.3145 369.073 48.711 369.563 48.4568ZM158.476 56.5596C158.758 57.0346 158.601 57.6481 158.126 57.9298C154.858 59.8687 151.663 61.824 148.553 63.7864C148.086 64.0811 147.468 63.9413 147.174 63.4743C146.879 63.0072 147.019 62.3896 147.486 62.0949C150.612 60.1227 153.822 58.1579 157.106 56.2097C157.581 55.9279 158.194 56.0846 158.476 56.5596ZM139.431 68.5172C139.739 68.9754 139.617 69.5968 139.159 69.9051C135.977 72.0457 132.907 74.183 129.964 76.3048C129.516 76.6278 128.891 76.5265 128.568 76.0785C128.245 75.6305 128.346 75.0055 128.794 74.6825C131.756 72.5475 134.843 70.3979 138.043 68.2456C138.501 67.9373 139.122 68.0589 139.431 68.5172ZM379.338 68.673C379.823 68.4087 380.431 68.5876 380.695 69.0725C382.516 72.415 384.382 75.5741 386.287 78.5643C386.583 79.0301 386.446 79.6483 385.981 79.945C385.515 80.2417 384.897 80.1047 384.6 79.6389C382.67 76.6093 380.781 73.4109 378.939 70.0296C378.674 69.5446 378.853 68.9373 379.338 68.673ZM391.149 87.4247C391.591 87.0932 392.218 87.1826 392.549 87.6243C394.826 90.6582 397.149 93.491 399.511 96.1446C399.879 96.5571 399.842 97.1892 399.43 97.5565C399.017 97.9237 398.385 97.8871 398.018 97.4746C395.618 94.7791 393.259 91.903 390.949 88.8247C390.618 88.383 390.707 87.7562 391.149 87.4247ZM405.756 104.064C406.134 103.662 406.767 103.643 407.169 104.022C409.901 106.594 412.675 108.972 415.483 111.185C415.916 111.527 415.991 112.156 415.649 112.59C415.307 113.024 414.678 113.098 414.244 112.756C411.392 110.507 408.574 108.092 405.798 105.478C405.396 105.099 405.377 104.466 405.756 104.064ZM90.8996 113.069C91.3928 113.317 91.5912 113.919 91.3428 114.412C89.7619 117.55 88.5312 120.766 87.6047 124.047C87.4546 124.579 86.9021 124.888 86.3706 124.738C85.8391 124.588 85.5299 124.035 85.68 123.504C86.6397 120.105 87.9159 116.769 89.5566 113.512C89.8051 113.019 90.4064 112.82 90.8996 113.069ZM423.041 117.931C423.346 117.471 423.967 117.346 424.427 117.651C427.533 119.711 430.67 121.618 433.825 123.409C434.305 123.682 434.474 124.292 434.201 124.772C433.928 125.253 433.318 125.421 432.838 125.148C429.647 123.337 426.471 121.407 423.321 119.318C422.861 119.012 422.736 118.392 423.041 117.931ZM442.228 129.037C442.476 128.543 443.076 128.343 443.57 128.591C446.894 130.256 450.225 131.837 453.554 133.38C454.055 133.613 454.273 134.207 454.04 134.708C453.808 135.209 453.214 135.427 452.713 135.195C449.373 133.647 446.022 132.056 442.674 130.379C442.181 130.131 441.981 129.531 442.228 129.037ZM84.7851 133.127C85.3344 133.185 85.7331 133.677 85.6755 134.226C85.3176 137.642 85.22 141.112 85.3373 144.622C85.3557 145.174 84.9232 145.636 84.3713 145.655C83.8193 145.673 83.3569 145.241 83.3384 144.689C83.2184 141.098 83.3179 137.536 83.6864 134.018C83.7439 133.469 84.2359 133.07 84.7851 133.127ZM462.31 138.485C462.539 137.983 463.132 137.761 463.634 137.99C467.017 139.533 470.384 141.083 473.718 142.685C474.215 142.924 474.425 143.522 474.186 144.02C473.947 144.518 473.349 144.727 472.851 144.488C469.536 142.895 466.184 141.352 462.804 139.81C462.302 139.581 462.08 138.988 462.31 138.485ZM482.301 148.128C482.563 147.642 483.17 147.461 483.656 147.723C486.919 149.484 490.136 151.345 493.292 153.357C493.758 153.653 493.895 154.271 493.598 154.737C493.301 155.203 492.683 155.34 492.217 155.043C489.109 153.062 485.934 151.225 482.706 149.483C482.22 149.221 482.039 148.614 482.301 148.128ZM85.1284 154.17C85.6754 154.094 86.1803 154.476 86.2559 155.023C86.7288 158.444 87.3575 161.885 88.1011 165.336C88.2175 165.876 87.8741 166.408 87.3342 166.524C86.7943 166.64 86.2623 166.297 86.146 165.757C85.3937 162.266 84.7556 158.775 84.2748 155.297C84.1991 154.75 84.5813 154.245 85.1284 154.17ZM501.043 159.968C501.382 159.533 502.01 159.454 502.446 159.794C505.337 162.044 508.158 164.474 510.896 167.125C511.293 167.509 511.303 168.142 510.919 168.539C510.535 168.935 509.902 168.946 509.505 168.562C506.821 165.964 504.055 163.581 501.217 161.372C500.782 161.033 500.703 160.404 501.043 159.968ZM89.3664 174.832C89.8997 174.689 90.4485 175.004 90.592 175.538C91.5021 178.918 92.4829 182.292 93.4961 185.649C93.6557 186.178 93.3565 186.736 92.8277 186.895C92.299 187.055 91.741 186.756 91.5814 186.227C90.5645 182.857 89.5776 179.463 88.6608 176.058C88.5172 175.524 88.8332 174.976 89.3664 174.832ZM517.078 175.205C517.504 174.854 518.135 174.914 518.486 175.34C520.79 178.128 523.015 181.125 525.154 184.36C525.459 184.82 525.333 185.441 524.872 185.745C524.411 186.05 523.791 185.923 523.486 185.463C521.386 182.287 519.202 179.347 516.944 176.613C516.593 176.187 516.653 175.557 517.078 175.205ZM529.533 193.603C530.021 193.343 530.626 193.528 530.886 194.016C532.564 197.169 534.174 200.514 535.709 204.07C535.928 204.577 535.694 205.165 535.187 205.384C534.68 205.603 534.092 205.369 533.873 204.862C532.358 201.355 530.772 198.059 529.12 194.955C528.861 194.468 529.046 193.862 529.533 193.603ZM95.3605 195.066C95.8874 194.901 96.4487 195.194 96.614 195.721L96.8166 196.367C97.8146 199.546 98.8043 202.699 99.7492 205.81C99.9097 206.339 99.6114 206.897 99.083 207.058C98.5545 207.218 97.996 206.92 97.8355 206.392C96.8934 203.29 95.9064 200.145 94.9078 196.964L94.7058 196.32C94.5404 195.793 94.8335 195.232 95.3605 195.066ZM538.493 213.863C539.014 213.68 539.585 213.953 539.769 214.474C540.959 217.856 542.091 221.403 543.163 225.127C543.315 225.657 543.009 226.211 542.478 226.364C541.947 226.517 541.393 226.21 541.24 225.68C540.179 221.991 539.059 218.481 537.882 215.138C537.699 214.617 537.972 214.046 538.493 213.863ZM101.455 215.277C101.988 215.134 102.536 215.451 102.679 215.985C103.62 219.505 104.448 222.958 105.107 226.323C105.213 226.865 104.859 227.39 104.317 227.497C103.775 227.603 103.25 227.249 103.144 226.707C102.497 223.398 101.68 219.991 100.747 216.501C100.604 215.968 100.921 215.42 101.455 215.277ZM544.754 235.096C545.291 234.969 545.83 235.302 545.957 235.84C546.774 239.31 547.546 242.917 548.268 246.669C548.372 247.211 548.017 247.736 547.475 247.84C546.933 247.944 546.409 247.589 546.304 247.047C545.587 243.321 544.821 239.741 544.01 236.299C543.883 235.761 544.216 235.223 544.754 235.096ZM105.502 235.958C106.053 235.918 106.532 236.333 106.571 236.884C106.836 240.61 106.778 244.198 106.298 247.613C106.221 248.16 105.715 248.541 105.168 248.464C104.621 248.387 104.24 247.881 104.317 247.335C104.774 244.087 104.833 240.643 104.576 237.026C104.537 236.475 104.951 235.997 105.502 235.958ZM102.716 256.63C103.21 256.878 103.409 257.479 103.162 257.972C102.355 259.582 101.397 261.128 100.274 262.605C99.1566 264.074 98.0404 265.619 96.9313 267.233C96.6186 267.688 95.996 267.804 95.5408 267.491C95.0856 267.178 94.9702 266.556 95.2829 266.101C96.4093 264.461 97.5442 262.89 98.6817 261.394C99.7291 260.017 100.622 258.577 101.374 257.076C101.621 256.582 102.222 256.383 102.716 256.63ZM549.032 256.804C549.578 256.719 550.089 257.092 550.174 257.638C550.735 261.233 551.256 264.949 551.735 268.79C551.803 269.338 551.414 269.838 550.866 269.906C550.318 269.974 549.819 269.586 549.75 269.038C549.274 265.216 548.756 261.52 548.198 257.946C548.113 257.4 548.486 256.889 549.032 256.804ZM90.4619 275.593C90.9409 275.868 91.1063 276.479 90.8314 276.958C88.9785 280.187 87.1831 283.585 85.4779 287.117C85.2378 287.614 84.64 287.823 84.1426 287.583C83.6453 287.343 83.4368 286.745 83.6769 286.247C85.4025 282.673 87.22 279.233 89.0968 275.962C89.3717 275.483 89.9829 275.318 90.4619 275.593ZM551.856 278.811C552.405 278.757 552.895 279.159 552.949 279.709C553.133 281.583 553.308 283.484 553.474 285.414C553.636 287.304 553.778 289.173 553.898 291.022C553.934 291.573 553.516 292.049 552.965 292.085C552.414 292.121 551.938 291.703 551.902 291.152C551.783 289.317 551.643 287.462 551.481 285.585C551.316 283.664 551.142 281.77 550.958 279.904C550.904 279.355 551.306 278.865 551.856 278.811ZM80.2881 296.323C80.8008 296.528 81.05 297.11 80.8448 297.623C79.4327 301.15 78.1281 304.763 76.9579 308.429C76.79 308.955 76.2273 309.245 75.7012 309.077C75.1751 308.909 74.8847 308.347 75.0526 307.82C76.238 304.107 77.5589 300.45 78.988 296.88C79.1933 296.367 79.7753 296.118 80.2881 296.323ZM553.354 301.041C553.907 301.029 554.364 301.467 554.375 302.02C554.454 305.776 554.443 309.442 554.343 313.021C554.328 313.573 553.868 314.008 553.316 313.993C552.764 313.977 552.329 313.518 552.344 312.965C552.442 309.42 552.454 305.786 552.376 302.062C552.364 301.509 552.802 301.052 553.354 301.041ZM73.1479 318.285C73.6856 318.411 74.0194 318.949 73.8934 319.487C73.0165 323.229 72.3008 326.993 71.7726 330.748C71.6957 331.295 71.19 331.676 70.6431 331.599C70.0962 331.522 69.7152 331.016 69.7921 330.469C70.3293 326.65 71.0565 322.827 71.9461 319.031C72.0721 318.493 72.6102 318.159 73.1479 318.285ZM552.825 323.008C553.375 323.053 553.784 323.536 553.739 324.087C553.427 327.862 553.012 331.531 552.499 335.096C552.42 335.643 551.913 336.022 551.366 335.944C550.82 335.865 550.44 335.358 550.519 334.811C551.027 331.287 551.437 327.658 551.746 323.922C551.791 323.372 552.274 322.962 552.825 323.008ZM69.803 341.118C70.355 341.135 70.7881 341.597 70.7703 342.149C70.6458 346.011 70.7543 349.826 71.1247 353.562C71.1792 354.111 70.7778 354.601 70.2283 354.655C69.6787 354.71 69.189 354.309 69.1345 353.759C68.7547 349.929 68.6443 346.026 68.7713 342.085C68.7891 341.533 69.251 341.1 69.803 341.118ZM549.789 344.81C550.329 344.925 550.673 345.457 550.558 345.997C549.768 349.696 548.863 353.273 547.851 356.73C547.696 357.26 547.141 357.564 546.611 357.409C546.081 357.254 545.777 356.698 545.932 356.168C546.929 352.76 547.822 349.231 548.602 345.579C548.717 345.039 549.249 344.694 549.789 344.81ZM71.899 364.053C72.4328 363.911 72.9804 364.229 73.1221 364.763C74.1007 368.45 75.3967 372.01 77.0426 375.407C77.2834 375.904 77.0757 376.502 76.5787 376.743C76.0817 376.984 75.4836 376.776 75.2428 376.279C73.5371 372.759 72.1981 369.077 71.189 365.276C71.0473 364.742 71.3652 364.194 71.899 364.053ZM543.743 365.928C544.259 366.125 544.516 366.704 544.319 367.219C542.967 370.745 541.494 374.131 539.909 377.381C539.666 377.877 539.068 378.083 538.571 377.841C538.075 377.599 537.869 377 538.111 376.504C539.671 373.307 541.12 369.976 542.451 366.504C542.649 365.988 543.227 365.73 543.743 365.928ZM81.6167 384.841C82.0517 384.501 82.6802 384.578 83.0206 385.013C85.2891 387.911 87.91 390.63 90.9144 393.135C91.3386 393.489 91.3957 394.119 91.0421 394.544C90.6884 394.968 90.0578 395.025 89.6336 394.671C86.5211 392.076 83.8015 389.255 81.4456 386.245C81.1052 385.81 81.1818 385.182 81.6167 384.841ZM534.244 385.758C534.716 386.045 534.865 386.661 534.577 387.132C532.617 390.348 530.536 393.409 528.345 396.322C528.014 396.764 527.387 396.853 526.945 396.521C526.504 396.189 526.415 395.562 526.747 395.121C528.899 392.259 530.943 389.251 532.87 386.091C533.157 385.62 533.772 385.47 534.244 385.758ZM98.9393 399.921C99.2074 399.438 99.8162 399.264 100.299 399.532C101.918 400.431 103.614 401.284 105.39 402.089C105.893 402.317 106.116 402.909 105.889 403.413C105.661 403.916 105.068 404.139 104.565 403.911C102.74 403.084 100.995 402.207 99.3281 401.281C98.8452 401.013 98.6712 400.404 98.9393 399.921ZM521.191 403.437C521.598 403.811 521.624 404.443 521.25 404.85C518.723 407.6 516.088 410.192 513.359 412.634C512.947 413.003 512.315 412.968 511.947 412.556C511.578 412.145 511.614 411.512 512.025 411.144C514.707 408.744 517.296 406.197 519.778 403.496C520.152 403.09 520.784 403.063 521.191 403.437ZM504.954 418.236C505.282 418.681 505.187 419.307 504.743 419.634C501.751 421.84 498.674 423.894 495.526 425.805C495.054 426.091 494.439 425.941 494.152 425.469C493.866 424.997 494.016 424.382 494.488 424.095C497.587 422.214 500.614 420.193 503.556 418.025C504.001 417.697 504.627 417.792 504.954 418.236ZM486.266 429.806C486.512 430.301 486.31 430.901 485.816 431.147C482.499 432.797 479.124 434.307 475.706 435.686C475.194 435.893 474.611 435.646 474.405 435.133C474.198 434.621 474.446 434.038 474.958 433.832C478.33 432.471 481.657 430.982 484.925 429.356C485.42 429.11 486.02 429.312 486.266 429.806ZM465.936 438.197C466.105 438.723 465.817 439.286 465.291 439.456C461.767 440.591 458.215 441.602 454.65 442.496C454.114 442.63 453.571 442.304 453.436 441.769C453.302 441.233 453.628 440.69 454.163 440.556C457.688 439.672 461.198 438.674 464.677 437.552C465.203 437.383 465.766 437.671 465.936 438.197ZM444.633 443.686C444.734 444.229 444.376 444.751 443.833 444.853C440.182 445.533 436.533 446.101 432.902 446.564C432.354 446.634 431.853 446.247 431.784 445.699C431.714 445.151 432.101 444.65 432.649 444.58C436.244 444.121 439.855 443.56 443.466 442.887C444.009 442.785 444.532 443.143 444.633 443.686ZM371.491 444.334C371.583 443.79 372.099 443.422 372.643 443.514C374.397 443.808 376.195 444.083 378.035 444.336C378.582 444.411 378.964 444.915 378.889 445.463C378.814 446.01 378.31 446.392 377.762 446.317C375.903 446.061 374.085 445.784 372.312 445.486C371.767 445.395 371.4 444.879 371.491 444.334ZM387.827 446.438C387.872 445.888 388.355 445.478 388.906 445.523C392.46 445.815 396.121 446.023 399.868 446.135C400.42 446.151 400.854 446.612 400.838 447.164C400.821 447.716 400.361 448.151 399.808 448.134C396.027 448.021 392.33 447.811 388.742 447.517C388.192 447.471 387.782 446.989 387.827 446.438ZM422.831 446.595C422.871 447.146 422.457 447.625 421.906 447.665C418.177 447.938 414.484 448.107 410.846 448.184C410.294 448.195 409.837 447.757 409.825 447.205C409.814 446.653 410.252 446.196 410.804 446.184C414.408 446.109 418.066 445.941 421.761 445.67C422.311 445.63 422.791 446.044 422.831 446.595Z" fill="#AAAAAA"/>
<path d="M315.579 627.941H624.51C628.151 627.941 631.103 630.891 631.103 634.53V683.471C631.103 687.109 628.151 690.059 624.51 690.059H315.579C311.938 690.059 308.986 687.109 308.986 683.471V634.53C308.986 630.891 311.938 627.941 315.579 627.941Z" fill="#9ADAF3" stroke="#333333" stroke-linecap="round" stroke-linejoin="round"/>
<path d="M603.789 627.941H616.975V690.059H603.789V627.941Z" fill="white" stroke="#333333" stroke-linecap="round" stroke-linejoin="round"/>
<path d="M577.416 627.941H590.603V690.059H577.416V627.941Z" fill="white" stroke="#333333" stroke-linecap="round" stroke-linejoin="round"/>
<path d="M551.044 627.941H564.23V690.059H551.044V627.941Z" fill="white" stroke="#333333" stroke-linecap="round" stroke-linejoin="round"/>
<path d="M325.525 640.177H392.284C394.656 640.177 396.579 642.098 396.579 644.469V673.532C396.579 675.902 394.656 677.824 392.284 677.824H325.525C323.153 677.824 321.23 675.902 321.23 673.532V644.469C321.23 642.098 323.153 640.177 325.525 640.177Z" fill="white" stroke="#333333" stroke-linecap="round" stroke-linejoin="round"/>
<path d="M368.29 505.594L598.391 505.698C601.428 505.699 603.892 508.161 603.893 511.197L603.913 554.795C603.914 557.831 601.453 560.291 598.415 560.289L368.314 560.186C365.277 560.184 362.813 557.722 362.812 554.686L362.792 511.088C362.791 508.052 365.252 505.593 368.29 505.594Z" fill="#E8E8E8" stroke="#333333" stroke-linecap="round" stroke-linejoin="round"/>
<path d="M446.201 518.806L512.956 518.836C515.328 518.838 517.252 520.76 517.253 523.13L517.262 542.783C517.263 545.154 515.341 547.075 512.969 547.074L446.214 547.043C443.842 547.042 441.919 545.12 441.918 542.749L441.909 523.096C441.908 520.726 443.83 518.805 446.201 518.806Z" fill="white" stroke="#333333" stroke-linecap="round" stroke-linejoin="round"/>
<path d="M575.637 505.687L588.822 505.693L588.847 560.285L575.661 560.279L575.637 505.687Z" fill="white" stroke="#333333" stroke-linecap="round" stroke-linejoin="round"/>
<path d="M553.034 505.677L566.219 505.683L566.243 560.275L553.058 560.269L553.034 505.677Z" fill="white" stroke="#333333" stroke-linecap="round" stroke-linejoin="round"/>
<path d="M400.462 505.608L413.647 505.614L413.671 560.206L400.486 560.2L400.462 505.608Z" fill="white" stroke="#333333" stroke-linecap="round" stroke-linejoin="round"/>
<path d="M377.858 505.598L391.044 505.604L391.068 560.196L377.883 560.19L377.858 505.598Z" fill="white" stroke="#333333" stroke-linecap="round" stroke-linejoin="round"/>
<path d="M631.432 590.294V597.824C631.432 614.464 617.945 627.941 601.293 627.941H348.874V617.137C348.874 614.784 350.777 612.882 353.131 612.882H360.176V571.471H353.131C350.777 571.471 348.874 569.569 348.874 567.217V564.412C348.874 562.059 350.777 560.158 353.131 560.158H601.293C617.945 560.158 631.432 573.635 631.432 590.275V590.294Z" fill="url(#paint0_linear_2567_30806)" stroke="#333333" stroke-linecap="round" stroke-linejoin="round"/>
<path d="M360.176 571.5H598.348C605.174 571.5 610.711 578.153 610.711 585.231V601.005C610.711 608.083 605.174 612.883 598.348 612.883H360.176V571.5Z" fill="white" stroke="#333333" stroke-linecap="round" stroke-linejoin="round"/>
<path d="M371.479 582.765H599.409" stroke="#333333" stroke-linecap="round" stroke-linejoin="round"/>
<path d="M539.13 592.177H599.409" stroke="#333333" stroke-linecap="round" stroke-linejoin="round"/>
<path d="M464.723 592.177H525.002" stroke="#333333" stroke-linecap="round" stroke-linejoin="round"/>
<path d="M390.316 592.177H450.595" stroke="#333333" stroke-linecap="round" stroke-linejoin="round"/>
<path d="M371.479 601.588H471.316" stroke="#333333" stroke-linecap="round" stroke-linejoin="round"/>
<path d="M498.63 601.588H598.467" stroke="#333333" stroke-linecap="round" stroke-linejoin="round"/>
<path fill-rule="evenodd" clip-rule="evenodd" d="M367.778 63.0598C377.122 63.0598 385.638 54.5445 385.638 45.1999C385.638 35.8552 377.122 27.3399 367.778 27.3399C358.433 27.3399 349.918 35.8552 349.918 45.1999C349.918 54.5445 358.433 63.0598 367.778 63.0598ZM367.778 63.9999C378.161 63.9999 386.578 55.5829 386.578 45.1999C386.578 34.817 378.161 26.3999 367.778 26.3999C357.395 26.3999 348.978 34.817 348.978 45.1999C348.978 55.5829 357.395 63.9999 367.778 63.9999Z" fill="#333333"/>
<path d="M385.638 45.1999C385.638 54.5445 377.122 63.0598 367.778 63.0598C358.433 63.0598 349.918 54.5445 349.918 45.1999C349.918 35.8552 358.433 27.3399 367.778 27.3399C377.122 27.3399 385.638 35.8552 385.638 45.1999Z" fill="white"/>
<path d="M377.618 45.1999C377.618 50.3235 376.474 54.9373 374.651 58.2525C372.818 61.5856 370.366 63.4998 367.778 63.4998C365.189 63.4998 362.738 61.5856 360.904 58.2525C359.081 54.9373 357.938 50.3235 357.938 45.1999C357.938 40.0762 359.081 35.4624 360.904 32.1472C362.738 28.8141 365.189 26.8999 367.778 26.8999C370.366 26.8999 372.818 28.8141 374.651 32.1472C376.474 35.4624 377.618 40.0762 377.618 45.1999Z" stroke="#333333"/>
<path fill-rule="evenodd" clip-rule="evenodd" d="M386.108 45.2001H348.978L348.978 44.2603H386.108L386.108 45.2001Z" fill="#333333"/>
<path fill-rule="evenodd" clip-rule="evenodd" d="M367.778 63.9998L367.778 26.3999L368.718 26.3999L368.718 63.9998L367.778 63.9998Z" fill="#333333"/>
<path fill-rule="evenodd" clip-rule="evenodd" d="M388.317 39.2444L399.736 50.661C400.188 51.113 400.929 51.113 401.381 50.661L402.639 49.403C403.091 48.951 403.091 48.2105 402.639 47.7585L391.219 36.339C390.767 35.887 390.027 35.887 389.575 36.339L388.317 37.5969C387.865 38.0519 387.865 38.7924 388.317 39.2444Z" fill="url(#paint1_linear_2567_30806)"/>
<path d="M400.09 50.3074L400.09 50.3074L388.67 38.8909C388.414 38.6349 388.413 38.2105 388.671 37.9498L389.928 36.6926C390.185 36.4358 390.609 36.4358 390.866 36.6926L402.285 48.1121C402.542 48.3688 402.542 48.7927 402.285 49.0495L401.027 50.3074C400.771 50.5642 400.347 50.5642 400.09 50.3074Z" stroke="#333333"/>
<path d="M380.889 16.7319L380.889 16.7319C374.148 16.7343 368.681 22.2008 368.681 28.9446C368.681 35.6885 374.148 41.1527 380.889 41.1527C387.633 41.1527 393.1 35.6862 393.1 28.9423C393.1 22.1985 387.633 16.7319 380.889 16.7319Z" fill="url(#paint2_linear_2567_30806)" stroke="#333333"/>
<path d="M380.775 38.8315C386.173 38.8315 390.549 34.4553 390.549 29.0569C390.549 23.6585 386.173 19.2822 380.775 19.2822C375.376 19.2822 371 23.6585 371 29.0569C371 34.4553 375.376 38.8315 380.775 38.8315Z" fill="#FEFEFE" stroke="#333333"/>
<g clip-path="url(#clip2_2567_30806)">
<path fill-rule="evenodd" clip-rule="evenodd" d="M239.878 44.9505C228.213 43.8106 213.111 44.8864 213.111 49.6665H237.419C238.071 49.6647 238.695 49.4122 239.156 48.9644C239.616 48.5166 239.876 47.9098 239.878 47.2765V44.9505Z" fill="url(#paint3_linear_2567_30806)"/>
<path fill-rule="evenodd" clip-rule="evenodd" d="M213.111 49.6665C213.111 49.3132 213.194 48.98 213.351 48.6665C215.325 44.7394 229.075 43.8949 239.878 44.9505V47.2765C239.876 47.9098 239.616 48.5166 239.156 48.9644C238.695 49.4122 238.071 49.6647 237.419 49.6665H213.111ZM238.878 47.275V45.8626C233.325 45.382 227.128 45.4052 222.257 46.0791C219.679 46.4358 217.543 46.9655 216.08 47.6568C215.356 47.9992 214.874 48.3404 214.569 48.6665H237.418C237.813 48.6651 238.187 48.5114 238.459 48.2474C238.729 47.9845 238.876 47.6344 238.878 47.275Z" fill="#333333"/>
<path fill-rule="evenodd" clip-rule="evenodd" d="M187.111 44.9505C198.776 43.8106 213.878 44.8864 213.878 49.6665H189.569C188.918 49.6647 188.294 49.4122 187.833 48.9644C187.373 48.5166 187.113 47.9098 187.111 47.2765V44.9505Z" fill="url(#paint4_linear_2567_30806)"/>
<path fill-rule="evenodd" clip-rule="evenodd" d="M213.878 49.6665C213.878 49.3132 213.795 48.98 213.638 48.6665C211.664 44.7394 197.914 43.8949 187.111 44.9505V47.2765C187.113 47.9098 187.373 48.5166 187.833 48.9644C188.294 49.4122 188.918 49.6647 189.569 49.6665H213.878ZM188.111 47.275V45.8626C193.664 45.382 199.86 45.4052 204.732 46.0791C207.31 46.4358 209.446 46.9655 210.909 47.6568C211.633 47.9992 212.114 48.3404 212.42 48.6665H189.571C189.175 48.6651 188.802 48.5114 188.53 48.2474C188.26 47.9845 188.113 47.6344 188.111 47.275Z" fill="#333333"/>
<path fill-rule="evenodd" clip-rule="evenodd" d="M191.409 10.0776H188.519C187.615 10.0776 186.711 10.9836 186.711 12.4502V30.4726V44.8346C198.216 43.6666 213.111 44.7689 213.111 49.6669V15.2603C213.111 10.052 198.318 10.0155 191.409 10.0776Z" fill="white"/>
<path fill-rule="evenodd" clip-rule="evenodd" d="M186.711 12.4498C186.711 10.9831 187.615 10.0771 188.519 10.0771H191.409C198.318 10.0151 213.111 10.0516 213.111 15.2598V49.6665C213.111 48.9094 212.755 48.243 212.111 47.6617C208.708 44.59 197.254 43.8928 187.711 44.7391C187.375 44.7689 187.042 44.8006 186.711 44.8341V12.4498ZM212.111 49.6665H213.111H214.111V15.2598C214.111 13.382 212.751 12.1421 211.133 11.3467C209.496 10.5417 207.306 10.0331 204.992 9.7022C200.347 9.03793 194.853 9.0462 191.404 9.07713H188.519C186.894 9.07713 185.711 10.6167 185.711 12.4498V45.9408L186.812 45.829C192.506 45.251 199.022 45.2379 204.083 45.9654C206.624 46.3305 208.725 46.8724 210.163 47.5784C211.644 48.3054 212.111 49.037 212.111 49.6665Z" fill="#333333"/>
<path fill-rule="evenodd" clip-rule="evenodd" d="M213.478 15.2686V49.6669C213.478 44.7701 228.373 43.6681 239.878 44.8357V12.5538C239.876 11.905 239.62 11.2834 239.166 10.8246C238.711 10.3659 238.096 10.1073 237.453 10.1054C233.308 10.1054 213.478 9.2807 213.478 15.2686Z" fill="white"/>
<path fill-rule="evenodd" clip-rule="evenodd" d="M240.878 45.942L239.777 45.8302C234.083 45.2524 227.567 45.2393 222.506 45.9666C219.965 46.3316 217.864 46.8734 216.425 47.5793C214.945 48.3061 214.478 49.0374 214.478 49.6665H213.478C213.478 48.9096 213.834 48.2434 214.478 47.6622C217.881 44.5913 229.335 43.8943 238.878 44.7403C239.214 44.7701 239.547 44.8018 239.878 44.8353V12.5534C239.876 11.9046 239.62 11.283 239.166 10.8242C238.711 10.3655 238.096 10.1069 237.453 10.105C237.094 10.105 236.618 10.0988 236.047 10.0914C230.024 10.0133 213.478 9.79861 213.478 15.2682V49.6665H212.478V15.2682C212.478 13.1011 214.288 11.7946 216.272 11.006C218.328 10.1886 221.049 9.71971 223.813 9.446C228.405 8.99114 233.366 9.05603 236.081 9.09156C236.642 9.09889 237.107 9.10497 237.453 9.10497H237.456C238.366 9.1077 239.236 9.47396 239.876 10.1206C240.516 10.7669 240.875 11.6406 240.878 12.5505L240.878 12.5534L240.878 45.942Z" fill="#333333"/>
<path fill-rule="evenodd" clip-rule="evenodd" d="M190.561 16.2033C190.563 16.0822 190.601 15.9669 190.667 15.8821C190.733 15.7974 190.822 15.75 190.914 15.75H209.687C209.779 15.75 209.868 15.7974 209.934 15.8821C210 15.9669 210.038 16.0822 210.04 16.2033C210.038 16.3254 210 16.4418 209.935 16.5281C209.869 16.6144 209.78 16.6641 209.687 16.6667H190.914C190.821 16.6641 190.732 16.6144 190.667 16.5281C190.601 16.4418 190.563 16.3254 190.561 16.2033Z" fill="#333333"/>
<path fill-rule="evenodd" clip-rule="evenodd" d="M190.561 19.8798C190.563 19.756 190.603 19.6382 190.671 19.5516C190.74 19.465 190.832 19.4165 190.929 19.4165H205.785C205.879 19.4191 205.97 19.4687 206.037 19.555C206.104 19.6414 206.142 19.7577 206.144 19.8798C206.142 20.0009 206.104 20.1162 206.036 20.2009C205.969 20.2857 205.879 20.3331 205.785 20.3331H190.929C190.881 20.3344 190.834 20.3237 190.79 20.3017C190.746 20.2796 190.706 20.2466 190.672 20.2045C190.638 20.1624 190.61 20.1121 190.591 20.0564C190.572 20.0007 190.562 19.9407 190.561 19.8798Z" fill="#333333"/>
<path fill-rule="evenodd" clip-rule="evenodd" d="M216.915 16.2033C216.917 16.0822 216.955 15.9669 217.021 15.8821C217.087 15.7974 217.176 15.75 217.268 15.75H236.041C236.134 15.75 236.222 15.7974 236.288 15.8821C236.354 15.9669 236.392 16.0822 236.394 16.2033C236.392 16.3254 236.355 16.4418 236.289 16.5281C236.223 16.6144 236.134 16.6641 236.041 16.6667H217.268C217.175 16.6641 217.087 16.6144 217.021 16.5281C216.955 16.4418 216.917 16.3254 216.915 16.2033Z" fill="#333333"/>
<path fill-rule="evenodd" clip-rule="evenodd" d="M216.915 19.6508C216.917 19.527 216.943 19.4092 216.988 19.3226C217.034 19.236 217.095 19.1875 217.158 19.1875H226.99C227.052 19.1901 227.112 19.2397 227.157 19.326C227.201 19.4124 227.226 19.5287 227.228 19.6508C227.226 19.7719 227.201 19.8872 227.156 19.9719C227.112 20.0567 227.052 20.1041 226.99 20.1041H217.158C217.127 20.1054 217.096 20.0947 217.067 20.0727C217.038 20.0506 217.011 20.0176 216.989 19.9755C216.966 19.9334 216.948 19.8831 216.935 19.8274C216.923 19.7717 216.916 19.7117 216.915 19.6508Z" fill="#333333"/>
<path fill-rule="evenodd" clip-rule="evenodd" d="M190.561 23.0783C190.563 22.9572 190.601 22.8419 190.667 22.7571C190.733 22.6724 190.822 22.625 190.914 22.625H209.687C209.779 22.625 209.868 22.6724 209.934 22.7571C210 22.8419 210.038 22.9572 210.04 23.0783C210.038 23.2004 210 23.3168 209.935 23.4031C209.869 23.4894 209.78 23.5391 209.687 23.5417H190.914C190.821 23.5391 190.732 23.4894 190.667 23.4031C190.601 23.3168 190.563 23.2004 190.561 23.0783Z" fill="#333333"/>
<path fill-rule="evenodd" clip-rule="evenodd" d="M190.561 26.5258C190.562 26.402 190.582 26.2842 190.618 26.1976C190.653 26.111 190.701 26.0625 190.75 26.0625H198.397C198.446 26.0651 198.492 26.1147 198.527 26.201C198.561 26.2874 198.581 26.4037 198.582 26.5258C198.581 26.6469 198.561 26.7622 198.526 26.8469C198.492 26.9317 198.445 26.9791 198.397 26.9791H190.75C190.726 26.9804 190.702 26.9697 190.679 26.9477C190.656 26.9256 190.636 26.8926 190.618 26.8505C190.601 26.8084 190.586 26.7581 190.577 26.7024C190.567 26.6467 190.562 26.5867 190.561 26.5258Z" fill="#333333"/>
<path fill-rule="evenodd" clip-rule="evenodd" d="M216.915 23.0783C216.917 22.9572 216.955 22.8419 217.021 22.7571C217.087 22.6724 217.176 22.625 217.268 22.625H236.041C236.134 22.625 236.222 22.6724 236.288 22.7571C236.354 22.8419 236.392 22.9572 236.394 23.0783C236.392 23.2004 236.355 23.3168 236.289 23.4031C236.223 23.4894 236.134 23.5391 236.041 23.5417H217.268C217.175 23.5391 217.087 23.4894 217.021 23.4031C216.955 23.3168 216.917 23.2004 216.915 23.0783Z" fill="#333333"/>
<path fill-rule="evenodd" clip-rule="evenodd" d="M216.915 26.5258C216.918 26.402 216.967 26.2842 217.053 26.1976C217.139 26.111 217.254 26.0625 217.375 26.0625H235.945C236.063 26.0651 236.176 26.1147 236.26 26.201C236.344 26.2874 236.392 26.4037 236.394 26.5258C236.392 26.6469 236.343 26.7622 236.259 26.8469C236.175 26.9317 236.062 26.9791 235.945 26.9791H217.375C217.316 26.9804 217.257 26.9697 217.202 26.9477C217.147 26.9256 217.097 26.8926 217.054 26.8505C217.011 26.8084 216.977 26.7581 216.953 26.7024C216.929 26.6467 216.917 26.5867 216.915 26.5258Z" fill="#333333"/>
<path fill-rule="evenodd" clip-rule="evenodd" d="M190.561 29.9533C190.563 29.8322 190.601 29.7169 190.667 29.6321C190.733 29.5474 190.822 29.5 190.914 29.5H209.687C209.779 29.5 209.868 29.5474 209.934 29.6321C210 29.7169 210.038 29.8322 210.04 29.9533C210.038 30.0754 210 30.1918 209.935 30.2781C209.869 30.3644 209.78 30.4141 209.687 30.4167H190.914C190.821 30.4141 190.732 30.3644 190.667 30.2781C190.601 30.1918 190.563 30.0754 190.561 29.9533Z" fill="#333333"/>
<path fill-rule="evenodd" clip-rule="evenodd" d="M190.561 33.4008C190.563 33.277 190.61 33.1592 190.691 33.0726C190.772 32.986 190.88 32.9375 190.993 32.9375H208.471C208.583 32.9401 208.689 32.9897 208.768 33.076C208.847 33.1624 208.892 33.2787 208.894 33.4008C208.892 33.5219 208.846 33.6372 208.767 33.7219C208.688 33.8067 208.582 33.8541 208.471 33.8541H190.993C190.938 33.8554 190.883 33.8447 190.831 33.8227C190.779 33.8006 190.732 33.7676 190.691 33.7255C190.651 33.6834 190.619 33.6331 190.597 33.5774C190.574 33.5217 190.562 33.4617 190.561 33.4008Z" fill="#333333"/>
<path fill-rule="evenodd" clip-rule="evenodd" d="M216.915 29.9533C216.917 29.8322 216.955 29.7169 217.021 29.6321C217.087 29.5474 217.176 29.5 217.268 29.5H236.041C236.134 29.5 236.222 29.5474 236.288 29.6321C236.354 29.7169 236.392 29.8322 236.394 29.9533C236.392 30.0754 236.355 30.1918 236.289 30.2781C236.223 30.3644 236.134 30.4141 236.041 30.4167H217.268C217.175 30.4141 217.087 30.3644 217.021 30.2781C216.955 30.1918 216.917 30.0754 216.915 29.9533Z" fill="#333333"/>
<path fill-rule="evenodd" clip-rule="evenodd" d="M216.915 33.6298C216.917 33.506 216.957 33.3882 217.026 33.3016C217.094 33.215 217.187 33.1665 217.283 33.1665H232.139C232.234 33.1691 232.324 33.2187 232.391 33.305C232.458 33.3914 232.497 33.5077 232.499 33.6298C232.497 33.7509 232.458 33.8662 232.391 33.9509C232.323 34.0357 232.233 34.0831 232.139 34.0831H217.283C217.236 34.0844 217.189 34.0737 217.145 34.0517C217.1 34.0296 217.06 33.9966 217.026 33.9545C216.992 33.9124 216.965 33.8621 216.946 33.8064C216.927 33.7507 216.916 33.6907 216.915 33.6298Z" fill="#333333"/>
<path fill-rule="evenodd" clip-rule="evenodd" d="M190.561 36.8283C190.563 36.7072 190.601 36.5919 190.667 36.5071C190.733 36.4224 190.822 36.375 190.914 36.375H209.687C209.779 36.375 209.868 36.4224 209.934 36.5071C210 36.5919 210.038 36.7072 210.04 36.8283C210.038 36.9504 210 37.0668 209.935 37.1531C209.869 37.2394 209.78 37.2891 209.687 37.2917H190.914C190.821 37.2891 190.732 37.2394 190.667 37.1531C190.601 37.0668 190.563 36.9504 190.561 36.8283Z" fill="#333333"/>
<path fill-rule="evenodd" clip-rule="evenodd" d="M190.561 40.5048C190.563 40.381 190.603 40.2632 190.671 40.1766C190.74 40.09 190.832 40.0415 190.929 40.0415H205.785C205.879 40.0441 205.97 40.0937 206.037 40.18C206.104 40.2664 206.142 40.3827 206.144 40.5048C206.142 40.6259 206.104 40.7412 206.036 40.8259C205.969 40.9107 205.879 40.9581 205.785 40.9581H190.929C190.881 40.9594 190.834 40.9487 190.79 40.9267C190.746 40.9046 190.706 40.8716 190.672 40.8295C190.638 40.7874 190.61 40.7371 190.591 40.6814C190.572 40.6257 190.562 40.5657 190.561 40.5048Z" fill="#333333"/>
<path fill-rule="evenodd" clip-rule="evenodd" d="M216.915 36.8283C216.917 36.7072 216.955 36.5919 217.021 36.5071C217.087 36.4224 217.176 36.375 217.268 36.375H236.041C236.134 36.375 236.222 36.4224 236.288 36.5071C236.354 36.5919 236.392 36.7072 236.394 36.8283C236.392 36.9504 236.355 37.0668 236.289 37.1531C236.223 37.2394 236.134 37.2891 236.041 37.2917H217.268C217.175 37.2891 217.087 37.2394 217.021 37.1531C216.955 37.0668 216.917 36.9504 216.915 36.8283Z" fill="#333333"/>
<path fill-rule="evenodd" clip-rule="evenodd" d="M216.915 40.2758C216.917 40.152 216.952 40.0342 217.013 39.9476C217.073 39.861 217.155 39.8125 217.24 39.8125H230.348C230.432 39.8151 230.511 39.8647 230.57 39.951C230.63 40.0374 230.664 40.1537 230.665 40.2758C230.663 40.3969 230.629 40.5122 230.57 40.5969C230.511 40.6817 230.431 40.7291 230.348 40.7291H217.24C217.198 40.7304 217.156 40.7197 217.118 40.6977C217.079 40.6756 217.043 40.6426 217.013 40.6005C216.983 40.5584 216.959 40.5081 216.942 40.4524C216.925 40.3967 216.916 40.3367 216.915 40.2758Z" fill="#333333"/>
</g>
<path d="M534.102 306C533.27 306 532.542 305.688 531.918 305.063C531.189 304.334 530.877 303.292 531.085 302.25L533.062 294.022C533.166 293.501 533.478 292.981 533.894 292.564L566.555 259.859C567.699 258.714 569.675 258.714 570.819 259.859L577.164 266.213C578.308 267.358 578.308 269.337 577.164 270.483L544.503 303.188C544.087 303.604 543.567 303.917 543.047 304.021L534.83 306C534.518 306 534.31 306 534.102 306ZM568.739 259.963C568.219 259.963 567.699 260.172 567.283 260.588L534.622 293.293C534.31 293.606 534.206 293.918 534.102 294.23L532.126 302.459C531.918 303.084 532.126 303.813 532.646 304.334C533.166 304.854 533.79 305.063 534.518 304.854L542.735 302.875C543.047 302.771 543.463 302.563 543.671 302.355L576.332 269.65C577.06 268.921 577.06 267.567 576.332 266.838L569.987 260.484C569.779 260.172 569.259 259.963 568.739 259.963Z" fill="#333333"/>
<path d="M568.739 259.963C568.219 259.963 567.699 260.172 567.283 260.588L534.622 293.293C534.31 293.606 534.206 293.918 534.102 294.23L532.126 302.459C531.918 303.084 532.126 303.813 532.646 304.334C533.166 304.854 533.79 305.063 534.518 304.854L542.735 302.875C543.047 302.771 543.463 302.563 543.671 302.355L576.332 269.65C577.06 268.921 577.06 267.567 576.332 266.838L569.987 260.484C569.779 260.172 569.259 259.963 568.739 259.963Z" fill="white"/>
<path d="M543.671 302.355L534.726 293.397L561.458 266.629L570.403 275.587L543.671 302.355Z" fill="url(#paint5_linear_2567_30806)"/>
<path d="M534.644 292.575L533.908 293.312L543.764 303.18L544.499 302.444L534.644 292.575Z" fill="#333333"/>
<path d="M561.354 265.798L560.618 266.535L570.474 276.404L571.209 275.667L561.354 265.798Z" fill="#333333"/>
<path d="M558.847 268.294L558.111 269.031L567.967 278.9L568.702 278.163L558.847 268.294Z" fill="#333333"/>
<path d="M533.007 297.612L532.271 298.348L538.67 304.756L539.406 304.019L533.007 297.612Z" fill="#333333"/>
<path d="M82.074 259.516H82.574V260.016V260.016V260.017V260.018V260.021L82.574 260.036L82.5739 260.093L82.5735 260.302C82.573 260.479 82.5721 260.727 82.5702 261.006C82.5664 261.563 82.5588 262.251 82.5434 262.766C82.5338 263.086 82.5988 263.281 82.6675 263.389C82.7311 263.49 82.8112 263.54 82.9057 263.56C83.1173 263.604 83.5176 263.503 83.9031 263.057L83.917 263.041L83.9322 263.026L86.6408 260.383C86.6457 260.377 86.6512 260.371 86.6575 260.364C86.6791 260.339 86.7095 260.305 86.7477 260.266C86.8234 260.187 86.9328 260.082 87.0682 259.976C87.3239 259.776 87.7425 259.516 88.2415 259.516H98.0804C98.3915 259.516 98.6878 259.41 98.9007 259.217C99.1053 259.031 99.2625 258.739 99.2625 258.298V243.348C99.2625 242.649 98.7112 242.13 98.0804 242.13H72.1784C71.5137 242.13 70.9501 242.648 70.9501 243.32V258.284C70.9689 258.563 71.1205 258.876 71.3703 259.126C71.6246 259.382 71.9246 259.516 72.1784 259.516H82.074Z" fill="url(#paint6_linear_2567_30806)" stroke="#333333"/>
<path fill-rule="evenodd" clip-rule="evenodd" d="M76.2725 249.028C76.2725 248.746 76.4841 248.518 76.7456 248.518H93.4877C93.7492 248.518 93.9609 248.746 93.9609 249.028C93.9609 249.31 93.7492 249.538 93.4877 249.538H76.7456C76.4841 249.538 76.2725 249.31 76.2725 249.028Z" fill="white"/>
<path fill-rule="evenodd" clip-rule="evenodd" d="M76.2725 252.598C76.2725 252.316 76.4841 252.088 76.7456 252.088H88.4339C88.6954 252.088 88.9071 252.316 88.9071 252.598C88.9071 252.88 88.6954 253.108 88.4339 253.108H76.7456C76.4841 253.108 76.2725 252.88 76.2725 252.598Z" fill="white"/>
<path d="M106.838 272.777H106.338V273.277V273.277V273.277V273.278V273.282L106.338 273.296L106.338 273.353L106.338 273.562C106.339 273.74 106.34 273.987 106.342 274.266C106.345 274.823 106.353 275.512 106.368 276.026C106.378 276.347 106.313 276.541 106.244 276.649C106.181 276.75 106.101 276.8 106.006 276.82C105.795 276.865 105.394 276.763 105.009 276.317L104.995 276.301L104.98 276.286L102.271 273.643C102.266 273.637 102.261 273.631 102.254 273.624C102.233 273.599 102.202 273.565 102.164 273.526C102.088 273.447 101.979 273.342 101.844 273.236C101.588 273.036 101.169 272.777 100.67 272.777H90.8315C90.5204 272.777 90.2241 272.67 90.0111 272.477C89.8066 272.291 89.6494 271.999 89.6494 271.559V256.608C89.6494 255.909 90.2007 255.39 90.8315 255.39H116.733C117.398 255.39 117.962 255.908 117.962 256.58V271.544C117.943 271.823 117.791 272.136 117.542 272.387C117.287 272.642 116.987 272.777 116.733 272.777H106.838Z" fill="white" stroke="#333333"/>
<path fill-rule="evenodd" clip-rule="evenodd" d="M98.6762 264.58C98.6762 263.843 98.0857 263.247 97.3552 263.247C96.6246 263.247 96.0342 263.848 96.0342 264.58C96.0342 265.317 96.6246 265.913 97.3552 265.913C98.0857 265.913 98.6762 265.317 98.6762 264.58ZM102.974 264.58C102.974 263.843 102.384 263.247 101.653 263.247C100.923 263.247 100.332 263.848 100.332 264.58C100.332 265.317 100.923 265.913 101.653 265.913C102.384 265.913 102.974 265.317 102.974 264.58ZM105.957 263.247C106.687 263.247 107.278 263.843 107.278 264.58C107.278 265.317 106.687 265.913 105.957 265.913C105.226 265.913 104.636 265.317 104.636 264.58C104.631 263.848 105.226 263.247 105.957 263.247ZM111.576 264.58C111.576 263.843 110.986 263.247 110.255 263.247C109.525 263.247 108.934 263.848 108.934 264.58C108.934 265.317 109.525 265.913 110.255 265.913C110.986 265.913 111.576 265.317 111.576 264.58Z" fill="#333333"/>
<path d="M109.261 87.4702L109.255 87.4787L109.249 87.4875L107.872 89.5462C107.404 87.8711 107.045 86.762 106.796 86.2629C106.461 85.5707 105.999 84.8886 105.416 84.2157C105.073 83.8201 104.552 83.6588 104.061 83.745L98.9152 84.6475C98.4731 84.7251 98.1507 85.109 98.1507 85.5579C98.1507 86.0953 98.6034 86.5095 99.1268 86.4848C99.3907 86.4724 99.6306 86.4663 99.8468 86.4663C100.881 86.4663 101.578 86.6617 102.013 86.9779C102.456 87.3005 102.862 87.8855 103.19 88.8099L103.19 88.8113C103.19 88.8109 103.191 88.8135 103.193 88.8204L103.202 88.8473C103.209 88.8703 103.218 88.9006 103.229 88.9391C103.251 89.0159 103.279 89.1202 103.315 89.2528C103.387 89.5178 103.486 89.8905 103.612 90.3716C103.856 91.3032 104.2 92.6374 104.645 94.3746C104.259 95.1885 103.504 96.4733 102.361 98.2449C101.141 100.136 100.216 101.302 99.5783 101.815L99.5782 101.815L99.5706 101.821C99.4452 101.927 99.3468 101.992 99.274 102.03C99.2303 102.052 99.2041 102.06 99.1931 102.063C99.1795 102.059 99.1363 102.046 99.0572 102.001C98.9468 101.938 98.8019 101.832 98.6205 101.672C98.0322 101.151 97.407 100.827 96.7548 100.827C96.1455 100.827 95.611 101.042 95.1831 101.468C94.752 101.898 94.5396 102.44 94.5396 103.059C94.5396 103.733 94.7647 104.317 95.244 104.755L95.2439 104.755L95.2518 104.762C95.83 105.268 96.4937 105.538 97.2288 105.538C98.2389 105.538 99.235 105.096 100.208 104.301L100.211 104.299C101.564 103.18 103.27 100.861 105.325 97.4104C105.7 99.0595 106.02 100.396 106.286 101.419C106.451 102.053 106.595 102.57 106.72 102.969C106.841 103.355 106.953 103.663 107.057 103.856C107.612 104.912 108.427 105.538 109.507 105.538C110.254 105.538 111.067 105.117 111.917 104.44L111.918 104.439C113.32 103.316 114.491 101.929 115.432 100.283C115.701 99.8128 115.51 99.2288 115.044 98.99C114.58 98.7524 114.031 98.9385 113.782 99.367C113.265 100.258 112.666 100.983 111.987 101.549C111.597 101.868 111.342 101.952 111.199 101.952C111.199 101.952 111.197 101.952 111.191 101.95C111.185 101.948 111.173 101.944 111.155 101.934C111.119 101.913 111.066 101.872 110.996 101.794C110.96 101.746 110.876 101.586 110.759 101.24C110.645 100.904 110.518 100.446 110.376 99.8611C110.376 99.8609 110.376 99.8607 110.376 99.8606L108.572 92.3196C109.818 90.19 110.862 88.8051 111.7 88.1042L111.703 88.1023C112.173 87.7043 112.487 87.5908 112.666 87.5908C112.722 87.5908 112.851 87.6075 113.08 87.6655C113.298 87.7206 113.577 87.8053 113.921 87.9218C114.323 88.0714 114.719 88.1531 115.104 88.1531C115.773 88.1531 116.372 87.917 116.881 87.4643L116.881 87.4644L116.889 87.4569C117.275 87.0981 117.387 86.5225 117.387 85.9213C117.387 85.276 117.124 84.7234 116.634 84.2899C116.144 83.842 115.501 83.6445 114.765 83.6445C114.271 83.6445 113.806 83.7297 113.377 83.9077L113.376 83.9084C112.734 84.1777 112.026 84.6658 111.255 85.341C110.478 86.0075 109.812 86.717 109.261 87.4702Z" fill="white" stroke="#333333"/>
<path d="M84.4235 91.8703L84.3654 91.4366H83.9279H78.7556C77.9272 91.4366 77.2556 92.1082 77.2556 92.9366V93.0303C77.2556 93.8587 77.9272 94.5303 78.7556 94.5303H81.6509L83.4584 108.039C83.5566 108.774 84.1765 109.326 84.9173 109.34L85.2768 109.347C86.0175 109.361 86.6573 108.831 86.7829 108.101L92.6478 74.0089C92.6891 73.769 92.8971 73.5937 93.1406 73.5937H122.978C123.806 73.5937 124.478 72.9221 124.478 72.0937V72C124.478 71.1716 123.806 70.5 122.978 70.5H91.3691C90.6388 70.5 90.0146 71.026 89.8908 71.7457L85.3008 98.4272L84.4235 91.8703Z" fill="url(#paint7_linear_2567_30806)" stroke="#333333"/>
<path d="M200.708 461.42L204.656 424.657V413.526C204.656 411.547 203.546 409.736 201.784 408.837L194.417 405.08C192.898 404.306 191.14 403.608 189.592 404.323C188.763 404.706 188.051 405.424 188.051 406.762C188.051 409.96 189.261 414.46 189.261 414.46C189.261 414.46 187.537 421.196 191.853 425.354C192.844 426.791 193.203 428.571 192.844 430.28L187.551 455.499C187.551 455.499 195.721 462.196 200.708 461.42Z" fill="white" stroke="#333333" stroke-width="2" stroke-linecap="round" stroke-linejoin="round"/>
<path d="M125.077 401.604C125.077 401.604 128.183 397.104 126.801 391.46C125.42 385.815 144.788 390.368 144.788 390.368C144.788 390.368 140.854 409.894 142.354 414.275C143.854 418.657 150.88 424.999 150.88 424.999L139.012 435.143L124.38 421.433L125.077 401.604Z" fill="white" stroke="#333333" stroke-width="2" stroke-linecap="round" stroke-linejoin="round"/>
<path d="M127.025 406.157L127.558 406.836C131.903 412.366 137.965 416.293 144.788 417.999L159.893 475.604L151.367 530.498C151.367 530.498 144.13 531.814 123.012 516.63L128.775 437.565L127.025 406.157Z" fill="#9ADAF3" stroke="#333333" stroke-width="2" stroke-linecap="round" stroke-linejoin="round"/>
<path d="M144.13 417.341L153.966 422.938C158.893 425.742 163.045 429.725 166.051 434.53L183.379 462.235L188.208 453.525C188.208 453.525 195.866 462.34 200.708 461.419L192.325 482.377C191.122 485.384 187.782 486.93 184.711 485.9C179.861 484.273 175.258 481.938 171.206 478.816C162.447 472.069 161.485 470.301 161.485 470.301L157.313 533.638C157.21 535.202 155.911 536.418 154.343 536.418C152.699 536.418 151.367 535.086 151.367 533.442L151.367 477.622C151.367 462.385 149.908 447.184 147.012 432.225L144.13 417.341Z" fill="#AAAAAA"/>
<path d="M183.379 462.235L188.208 453.525C188.208 453.525 195.866 462.34 200.708 461.419L192.325 482.377C191.122 485.384 187.782 486.93 184.711 485.9V485.9C179.861 484.273 175.258 481.938 171.206 478.816C162.447 472.069 161.485 470.301 161.485 470.301M183.379 462.235L166.051 434.53C163.045 429.725 158.893 425.742 153.966 422.938L144.13 417.341L147.012 432.225C149.908 447.184 151.367 462.385 151.367 477.622L151.367 533.442C151.367 535.086 152.699 536.418 154.343 536.418V536.418C155.911 536.418 157.21 535.202 157.313 533.638L161.485 470.301M183.379 462.235L186.11 469.063M161.485 470.301C161.84 463.174 161.761 447.077 158.603 439.709" stroke="#333333" stroke-width="2" stroke-linecap="round" stroke-linejoin="round"/>
<path d="M82.6571 506.721L79.7355 510.521C73.8043 518.236 71.2972 528.045 72.7994 537.659L73.3569 541.228C73.6039 542.808 73.3648 544.427 72.6713 545.869L20.6242 654.066C18.9219 657.605 20.0794 661.857 23.3405 664.044L28.3141 667.381C31.7816 669.707 36.4609 668.931 38.9916 665.61L119.315 560.194L164.672 581.597C166.753 582.578 167.955 584.798 167.64 587.077L155.711 673.401C155.296 676.406 157.499 679.138 160.523 679.37L171.456 680.206C174.029 680.403 176.365 678.706 176.973 676.198L196.853 594.148C200.042 580.983 195.468 567.149 185.057 558.482L151.933 530.901C142.352 522.924 130.774 517.716 118.448 515.84L97.8675 512.708L82.6571 506.721Z" fill="#AAAAAA" stroke="#333333" stroke-width="2" stroke-linecap="round" stroke-linejoin="round"/>
<path d="M45.9471 454.486L45.8729 480.932C45.863 484.476 48.706 487.368 52.2496 487.419C52.6263 491.456 55.0407 495.036 58.8074 496.537C65.8015 499.323 77.1992 502.851 83.1045 499.182C91.9991 493.656 92.0123 472.735 92.0123 472.735L88.986 446.459L86.3018 434.789L62.4469 440.236L45.9339 454.499L45.9471 454.486Z" fill="url(#paint8_linear_2567_30806)" stroke="#333333" stroke-width="2" stroke-linecap="round" stroke-linejoin="round"/>
<path d="M55.3152 493.656L66.3525 492.984C72.3726 492.618 78.4136 493.154 84.2753 494.574L86.8411 495.195" stroke="#333333" stroke-width="2" stroke-linecap="round" stroke-linejoin="round"/>
<path d="M52.2627 487.419C52.2627 487.419 53.9864 471.287 53.9864 455.09" stroke="#333333" stroke-width="2" stroke-linecap="round" stroke-linejoin="round"/>
<path d="M54.5127 430.973L57.2458 423.339C58.4027 420.108 61.0625 417.643 64.3726 416.736L84.6702 411.17L81.8281 433.473L54.5127 430.973Z" fill="url(#paint9_linear_2567_30806)" stroke="#333333" stroke-width="2" stroke-linecap="round" stroke-linejoin="round"/>
<path d="M86.8938 412.736C86.8938 412.736 84.8754 408.77 87.3221 402.556C88.4412 399.714 91.4524 398.249 94.5066 398.291C95.5921 398.307 96.6783 398.617 97.4005 399.427C98.507 400.669 99.726 402.855 98.0779 405.499L95.3148 405.92C95.3148 405.92 95.3148 403.036 93.974 401.955C93.3576 401.458 92.5181 401.906 92.1138 402.587C91.2885 403.977 90.1776 406.533 91.4201 408.775C91.9332 411.117 86.8938 412.736 86.8938 412.736Z" fill="url(#paint10_linear_2567_30806)" stroke="#333333" stroke-width="2" stroke-linecap="round" stroke-linejoin="round"/>
<path d="M119.649 401.987C117.579 401.89 115.504 401.968 113.447 402.22L101.113 403.729C97.6076 404.158 94.2427 405.366 91.2643 407.263L59.6047 427.433L49.2977 434.931C46.1025 437.256 43.6786 440.486 42.3397 444.204L42.0571 444.988C40.559 449.148 42.7686 453.727 46.9571 455.142L51.6673 456.734C54.7888 457.789 58.0617 458.327 61.3566 458.327H66.4993C66.4993 458.327 64.5257 451.551 75.2887 441.275L78.0518 441.736L84.9201 442.341L78.0518 516.024C78.0518 516.024 76.2097 531.011 106.407 531.011L131.973 531.426C133.486 531.45 134.708 530.197 134.645 528.685L129.656 409.446L124.393 402.21L119.649 401.987Z" fill="#AAAAAA" stroke="#333333" stroke-width="2" stroke-linecap="round" stroke-linejoin="round"/>
<path d="M119.314 560.195C102.212 554.275 67.7283 538.848 77.0255 514.708" stroke="#333333" stroke-width="2" stroke-linecap="round" stroke-linejoin="round"/>
<path d="M199.471 414.118L196.945 411.207C196.806 411.046 196.544 411.108 196.491 411.313L196.146 412.651C195.886 413.659 195.931 414.721 196.275 415.703L196.768 417.113C196.842 417.326 196.632 417.528 196.423 417.445L189.524 414.71" stroke="#333333" stroke-width="2" stroke-linecap="round" stroke-linejoin="round"/>
<path d="M101.367 403.697C101.367 403.697 103.108 404.703 105.499 406.934C107.191 408.513 108.355 410.575 108.975 412.805C112.132 424.17 109.986 428.815 109.986 428.815L118.538 432.446C118.538 432.446 121.222 414.986 113.867 407.289L109.92 402.868L101.367 403.697Z" fill="url(#paint11_linear_2567_30806)" stroke="#333333" stroke-width="2" stroke-linecap="round" stroke-linejoin="round"/>
<path d="M116.499 445.63L82.9833 477.904C81.897 478.95 80.1513 478.855 79.1859 477.696C78.3326 476.672 78.3929 475.168 79.3254 474.216L105.42 447.565L116.499 445.63Z" fill="url(#paint12_linear_2567_30806)" stroke="#333333" stroke-width="2" stroke-linecap="round" stroke-linejoin="round"/>
<path d="M75.4333 492.432L77.4991 449.893" stroke="#333333" stroke-width="2" stroke-linecap="round" stroke-linejoin="round"/>
<path d="M78.0519 441.722L93.0659 441.843C95.0454 441.858 96.992 441.336 98.6972 440.33C100.167 439.463 101.414 438.264 102.336 436.828L108.709 426.907L110.578 424.578L109.999 428.801C109.999 428.801 112.854 425.512 121.933 433.906C121.933 433.906 123.657 446.091 118.828 447.301C117.568 447.617 116.466 447.868 115.525 448.067C112.924 448.617 110.505 449.883 108.221 451.242C97.4178 457.672 77.309 456.596 66.1047 458.367C66.1047 458.367 63.0521 449.459 75.302 441.248L78.0651 441.709L78.0519 441.722Z" fill="white"/>
<path d="M75.302 441.248C63.0521 449.459 66.1047 458.367 66.1047 458.367C77.309 456.596 97.4178 457.672 108.221 451.242C110.505 449.883 112.924 448.617 115.525 448.067C116.466 447.868 117.568 447.617 118.828 447.301C123.657 446.091 121.933 433.906 121.933 433.906C112.854 425.512 109.999 428.801 109.999 428.801L110.578 424.578L108.709 426.907L102.336 436.828C101.414 438.264 100.167 439.463 98.6972 440.33V440.33C96.992 441.336 95.0454 441.858 93.0659 441.843L78.0519 441.722L78.0651 441.709L75.302 441.248ZM75.302 441.248L86.236 431.156M75.302 441.248L59.2627 439.012" stroke="#333333" stroke-width="2" stroke-linecap="round" stroke-linejoin="round"/>
<path d="M110.091 432.183L110.795 431.965C112.313 431.496 113.963 431.738 115.283 432.624L121.841 437.025" stroke="#333333" stroke-width="2" stroke-linecap="round" stroke-linejoin="round"/>
<path d="M110.604 435.551L111.402 435.478C112.724 435.356 114.044 435.738 115.096 436.549L121.762 441.683" stroke="#333333" stroke-width="2" stroke-linecap="round" stroke-linejoin="round"/>
<path d="M110.604 440.828L111.513 440.599C112.684 440.303 113.926 440.56 114.884 441.296L120.459 445.578" stroke="#333333" stroke-width="2" stroke-linecap="round" stroke-linejoin="round"/>
<mask id="path-137-inside-1_2567_30806" fill="white">
<path fill-rule="evenodd" clip-rule="evenodd" d="M158.603 371.895C158.603 387.489 151.56 399.578 140.485 399.578C130.66 399.578 122.486 390.063 120.766 377.027C120.453 377.147 120.126 377.21 119.788 377.21C117.608 377.21 115.841 374.559 115.841 371.289C115.841 368.019 117.608 365.368 119.788 365.368C120.212 365.368 120.62 365.468 121.002 365.654C123.141 354.997 131.053 351.553 140.485 351.553C151.56 351.553 158.603 356.3 158.603 371.895Z"/>
</mask>
<path fill-rule="evenodd" clip-rule="evenodd" d="M158.603 371.895C158.603 387.489 151.56 399.578 140.485 399.578C130.66 399.578 122.486 390.063 120.766 377.027C120.453 377.147 120.126 377.21 119.788 377.21C117.608 377.21 115.841 374.559 115.841 371.289C115.841 368.019 117.608 365.368 119.788 365.368C120.212 365.368 120.62 365.468 121.002 365.654C123.141 354.997 131.053 351.553 140.485 351.553C151.56 351.553 158.603 356.3 158.603 371.895Z" fill="white"/>
<path d="M120.766 377.027L122.749 376.766C122.669 376.159 122.315 375.622 121.789 375.309C121.264 374.996 120.623 374.941 120.052 375.159L120.766 377.027ZM121.002 365.654L120.13 367.454C120.687 367.723 121.338 367.72 121.892 367.445C122.446 367.17 122.842 366.654 122.963 366.047L121.002 365.654ZM140.485 401.578C146.86 401.578 151.965 398.064 155.387 392.654C158.786 387.282 160.603 379.963 160.603 371.895H156.603C156.603 379.421 154.899 385.944 152.007 390.515C149.139 395.048 145.185 397.578 140.485 397.578V401.578ZM118.783 377.289C120.567 390.81 129.216 401.578 140.485 401.578V397.578C132.104 397.578 124.404 389.317 122.749 376.766L118.783 377.289ZM119.788 379.21C120.381 379.21 120.95 379.098 121.48 378.895L120.052 375.159C119.956 375.196 119.87 375.21 119.788 375.21V379.21ZM113.841 371.289C113.841 373.264 114.371 375.142 115.333 376.586C116.286 378.015 117.821 379.21 119.788 379.21V375.21C119.575 375.21 119.137 375.081 118.661 374.367C118.194 373.667 117.841 372.585 117.841 371.289H113.841ZM119.788 363.368C117.821 363.368 116.286 364.564 115.333 365.993C114.371 367.436 113.841 369.315 113.841 371.289H117.841C117.841 369.994 118.194 368.912 118.661 368.212C119.137 367.498 119.575 367.368 119.788 367.368V363.368ZM121.874 363.854C121.24 363.546 120.535 363.368 119.788 363.368V367.368C119.889 367.368 120 367.391 120.13 367.454L121.874 363.854ZM140.485 349.553C135.557 349.553 130.795 350.447 126.93 352.923C122.999 355.44 120.205 359.461 119.042 365.26L122.963 366.047C123.938 361.19 126.17 358.16 129.087 356.291C132.071 354.38 135.981 353.553 140.485 353.553V349.553ZM160.603 371.895C160.603 363.845 158.791 358.13 155.109 354.459C151.424 350.785 146.261 349.553 140.485 349.553V353.553C145.784 353.553 149.68 354.694 152.285 357.292C154.894 359.894 156.603 364.35 156.603 371.895H160.603Z" fill="#333333" mask="url(#path-137-inside-1_2567_30806)"/>
<path d="M119.788 369.315C118.908 370.489 118.908 372.089 119.788 373.263" stroke="#333333" stroke-width="2" stroke-linecap="round"/>
<path d="M120.446 377.21L121.762 382.473C102.896 371.361 117.538 346.513 119.309 343.655C119.424 343.469 119.533 343.297 119.658 343.118C120.671 341.667 125.867 334.998 132.834 339.698C146.104 333.132 170.445 348.263 159.545 364.036C155.712 369.582 144.953 357.89 140.996 352.236C141.589 355.186 137.286 356.415 135.06 356.661C131.498 364.331 120.446 367.342 121.104 366.026C112.242 364.71 115.841 378.526 120.446 377.21Z" fill="#333333" stroke="#333333" stroke-width="2"/>
<path fill-rule="evenodd" clip-rule="evenodd" d="M139.368 379.143C143.61 380.59 144.932 378.58 144.798 376.762C144.593 374.327 142.35 374.949 142.605 370.976C140.789 373.866 145.373 376.693 142.796 378.303C142.274 378.641 141.367 379 139.368 379.143Z" fill="#333333"/>
<path fill-rule="evenodd" clip-rule="evenodd" d="M145.508 386.219C141.319 392.867 136.404 385.231 134.978 384.326C138.711 394.515 146.342 391.123 145.508 386.219Z" fill="#333333"/>
<path fill-rule="evenodd" clip-rule="evenodd" d="M137.846 370.861C135.321 365.65 129.515 368.998 129.665 371.865C129.951 371.546 131.15 370.705 131.851 370.601C132.251 373.759 136.073 374.235 136.9 370.776C137.301 370.721 137.535 370.708 137.846 370.861Z" fill="#333333"/>
<path fill-rule="evenodd" clip-rule="evenodd" d="M153.092 371.213C150.764 365.89 144.847 369.041 144.863 371.915C145.148 371.596 146.385 370.821 147.085 370.716C147.387 373.914 151.181 374.493 152.145 371.094C152.581 371.071 152.815 371.059 153.092 371.213Z" fill="#333333"/>
<path d="M157.176 689.135C148.893 687.924 152.894 679.245 155.606 675.096C156.478 675.898 164.832 681.116 173.896 675.096C181.966 672.566 194.99 681.321 197.937 685.279C198.43 685.941 198.621 686.492 198.592 686.958C198.316 691.304 190.913 690.162 186.558 690.179C177.055 690.215 163.714 690.09 157.176 689.135Z" fill="white" stroke="#333333" stroke-width="2"/>
<path d="M15.5985 669.398C8.60175 664.802 15.894 658.626 20.1048 656.01C20.5565 657.105 29.2793 666.449 40.0376 664.821C48.4211 665.936 53.1732 678.288 54.1727 683.121C54.3399 683.93 54.2807 684.509 54.0569 684.92C51.9712 688.742 45.7432 684.58 41.7892 682.756C33.1607 678.774 21.1209 673.026 15.5985 669.398Z" fill="white" stroke="#333333" stroke-width="2"/>
<g clip-path="url(#clip3_2567_30806)">
<path d="M461.395 136.917V161.196C461.395 161.903 461.766 162.561 462.386 162.902C473.48 169.012 486.91 169.012 498.004 162.902C498.624 162.561 498.995 161.903 498.995 161.196V139.433C498.995 137.915 497.377 136.964 496.086 137.761C492.666 139.87 489.268 142.337 485.81 144.758C482.326 147.288 478.039 147.363 474.455 144.983C470.05 142.108 465.746 139.182 461.417 136.904C461.407 136.898 461.395 136.906 461.395 136.917Z" fill="white"/>
<path fill-rule="evenodd" clip-rule="evenodd" d="M461.895 137.726C465.32 139.585 468.736 141.828 472.224 144.119C472.873 144.546 473.525 144.974 474.18 145.401C477.935 147.894 482.447 147.816 486.1 145.166C486.766 144.7 487.428 144.233 488.088 143.768C490.865 141.809 493.599 139.882 496.348 138.186C497.288 137.607 498.495 138.285 498.495 139.434V161.196C498.495 161.73 498.216 162.216 497.763 162.465C486.819 168.492 473.571 168.492 462.627 162.465C462.174 162.216 461.895 161.73 461.895 161.196V137.726ZM461.65 136.461C461.304 136.28 460.895 136.532 460.895 136.917V161.196C460.895 162.077 461.358 162.908 462.144 163.341C473.389 169.533 487.001 169.533 498.246 163.341C499.032 162.908 499.495 162.077 499.495 161.196V139.434C499.495 137.547 497.467 136.321 495.823 137.335C493.045 139.049 490.28 140.998 487.5 142.958C486.842 143.422 486.183 143.887 485.523 144.349L485.516 144.354L485.516 144.354C482.202 146.76 478.143 146.832 474.731 144.567L474.728 144.565L474.728 144.565C474.078 144.141 473.429 143.714 472.781 143.289C469.053 140.84 465.36 138.414 461.65 136.461Z" fill="#333333"/>
<path d="M456.281 143.112L461.395 145.667L474.53 152.23C478.089 154.009 482.276 153.934 485.76 152.03L498.995 144.815L501.728 143.312C503.081 142.586 503.708 141.208 503.583 139.88C503.508 138.703 502.831 137.575 501.602 136.949L484.632 127.48C481.849 125.927 478.49 125.826 475.633 127.229L456.156 136.749C453.599 138.127 453.674 141.809 456.281 143.112Z" fill="url(#paint13_linear_2567_30806)" stroke="#333333" stroke-linecap="round" stroke-linejoin="round"/>
<path fill-rule="evenodd" clip-rule="evenodd" d="M503.575 139.381C503.307 139.371 503.078 139.576 503.059 139.844L502.836 142.89C502.826 143.029 502.874 143.165 502.968 143.267C503.063 143.369 503.196 143.427 503.335 143.427H505.022V154.811C505.022 155.087 505.246 155.311 505.522 155.311H507.769C508.045 155.311 508.269 155.087 508.269 154.811V141.961C508.269 140.615 507.203 139.51 505.858 139.462L503.575 139.381ZM504.021 140.397L505.822 140.462C506.629 140.49 507.269 141.153 507.269 141.961V154.311H506.022V142.927C506.022 142.651 505.798 142.427 505.522 142.427H503.873L504.021 140.397Z" fill="#333333"/>
</g>
<path d="M445.979 419.5L440.992 438.083C440.652 439.352 440.105 440.557 439.374 441.649L420.865 469.294C420.59 469.706 420.265 470.082 419.897 470.413L413.628 476.063C412.352 477.214 411.63 478.857 411.646 480.576L411.716 488.181C411.735 490.211 412.933 492.044 414.784 492.877C416.851 493.807 419.282 493.292 420.795 491.604L425.726 486.099C426.662 485.054 427.202 483.714 427.252 482.312L427.504 475.339C427.553 473.986 428.058 472.69 428.936 471.661L448.514 448.715C449.482 447.581 450.229 446.278 450.719 444.871L458.473 422.591L448.705 416.534L445.979 419.5Z" fill="white" stroke="#333333" stroke-width="2" stroke-linecap="round" stroke-linejoin="round"/>
<path d="M334.318 602.579C342.065 602.799 339.804 594.246 337.994 590.029C337.071 590.621 328.619 594.044 321.317 587.106C314.363 583.509 301.088 589.411 297.768 592.549C297.347 592.947 297.095 593.313 296.976 593.655C295.582 597.668 303.504 598.146 307.687 598.894C316.323 600.437 328.281 602.408 334.318 602.579Z" fill="white" stroke="#333333" stroke-width="2"/>
<path d="M505.863 336.334C501.63 323.201 483.023 319.542 478.542 323.835C461.061 320.326 456.223 340.504 456.137 345.301C457.745 387.346 444.986 406.889 452.478 417.5C461.563 422.71 500.585 439.245 514.978 423C532.969 402.693 511.155 352.749 505.863 336.334Z" fill="#333333" stroke="#333333" stroke-width="2" stroke-linecap="round" stroke-linejoin="round"/>
<path d="M496.668 499.581C493.953 504.942 487.458 506.358 481.489 507.06L470.907 508.304C444.486 511.412 417.827 508.374 391.259 507.021C386.741 506.79 382.487 506.828 378.918 507.284C373.839 507.933 370.259 511.918 367.954 516.491L358.993 534.266L347.383 553.616L337.255 588.316C337.077 588.926 336.676 589.448 336.102 589.721C334.965 590.263 332.888 591.084 330.893 591C327.834 590.871 323.246 589.265 323.246 589.265L318.673 595.398C317.974 596.335 316.719 596.665 315.649 596.192L302.289 590.287C301.015 589.724 300.444 588.232 301.017 586.962L325.237 533.26L330.411 495.756C330.731 493.434 331.294 491.144 332.469 489.116C335.005 484.739 340.732 477.232 350.569 476.236C364.571 474.818 404.776 474.339 404.776 474.339L447.239 474.339C449.272 474.339 451.167 473.31 452.273 471.603L458.5 462L497.999 456C497.999 456 503.872 485.36 496.668 499.581Z" fill="#808080" stroke="#333333" stroke-width="2" stroke-linecap="round" stroke-linejoin="round"/>
<path d="M491.978 375.5C491.29 369.74 493.346 369.908 493.542 360.728L475.978 366L475.978 375.5C475.978 375.5 475.499 387.5 472.499 391.5L472.162 408.725C472.162 408.725 498.986 389.838 496.083 388C496.083 388 492.587 380.602 491.978 375.5Z" fill="white" stroke="#333333" stroke-width="2" stroke-linecap="round" stroke-linejoin="round"/>
<path fill-rule="evenodd" clip-rule="evenodd" d="M466.478 352.316C466.204 365.133 473.978 376 482.155 376C490.737 376.183 497.281 369.003 499.112 357.902C499.262 357.929 499.414 357.944 499.569 357.947C501.982 357.999 504 355.129 504.077 351.538C504.154 347.946 502.26 344.993 499.848 344.941C499.574 344.935 499.306 344.967 499.044 345.033C497.078 334.311 490.337 326.369 482.155 326.194C472.206 325.981 466.783 338.102 466.478 352.316Z" fill="white"/>
<path d="M482.155 376L482.155 375C482.162 375 482.169 375 482.176 375L482.155 376ZM499.112 357.902L498.125 357.74C498.168 357.476 498.316 357.24 498.534 357.086C498.752 356.932 499.023 356.871 499.286 356.918L499.112 357.902ZM499.044 345.033L499.29 346.002C499.021 346.07 498.737 346.024 498.504 345.874C498.271 345.725 498.111 345.486 498.061 345.213L499.044 345.033ZM482.155 377C477.611 377 473.355 373.998 470.32 369.526C467.268 365.029 465.337 358.903 465.479 352.294L467.478 352.337C467.345 358.546 469.164 364.262 471.975 368.403C474.802 372.568 478.521 375 482.155 375L482.155 377ZM500.098 358.065C498.226 369.416 491.423 377.198 482.133 377L482.176 375C490.051 375.169 496.335 368.59 498.125 357.74L500.098 358.065ZM499.548 358.947C499.341 358.943 499.137 358.922 498.937 358.887L499.286 356.918C499.386 356.935 499.488 356.946 499.591 356.948L499.548 358.947ZM505.077 351.559C505.035 353.526 504.462 355.341 503.517 356.684C502.577 358.021 501.189 358.982 499.548 358.947L499.591 356.948C500.362 356.964 501.19 356.516 501.881 355.534C502.568 354.557 503.043 353.141 503.077 351.516L505.077 351.559ZM499.869 343.941C501.51 343.976 502.856 344.996 503.738 346.372C504.624 347.755 505.119 349.592 505.077 351.559L503.077 351.516C503.112 349.892 502.699 348.457 502.054 347.452C501.406 346.44 500.598 345.957 499.826 345.941L499.869 343.941ZM498.799 344.063C499.145 343.976 499.503 343.933 499.869 343.941L499.826 345.941C499.645 345.937 499.466 345.958 499.29 346.002L498.799 344.063ZM482.176 325.194C491.055 325.384 498.024 333.925 500.028 344.853L498.061 345.213C496.132 334.697 489.618 327.354 482.133 327.193L482.176 325.194ZM465.479 352.294C465.633 345.087 467.084 338.329 469.824 333.362C472.574 328.379 476.708 325.077 482.176 325.194L482.133 327.193C477.653 327.097 474.101 329.75 471.576 334.328C469.041 338.922 467.628 345.331 467.478 352.337L465.479 352.294Z" fill="#333333"/>
<path d="M398.647 477.477L437.06 477.019L436.485 473.95L394.368 474.576L398.647 477.477Z" fill="#CCCCCC" stroke="#333333" stroke-width="2" stroke-linecap="round" stroke-linejoin="round"/>
<path d="M322.978 589.5L348.979 551" stroke="#333333" stroke-width="2" stroke-linecap="round" stroke-linejoin="round"/>
<path d="M325.222 533.274L342.015 500.171C342.015 500.171 349.744 478.721 367.732 478.917C385.72 479.113 403.938 477.393 403.938 477.393" stroke="#333333" stroke-width="2" stroke-linecap="round" stroke-linejoin="round"/>
<path d="M398.647 477.477L369.587 437.417C369.313 437.04 368.853 436.845 368.393 436.912L355.099 438.834C354.157 438.97 353.705 440.065 354.276 440.827L378.991 473.792C379.828 474.908 381.091 475.625 382.477 475.771L398.647 477.477Z" fill="url(#paint14_linear_2567_30806)" stroke="#333333" stroke-width="2" stroke-linecap="round" stroke-linejoin="round"/>
<path d="M499.239 348.393C500.858 349.928 501.113 352.395 499.843 354.228" stroke="#333333" stroke-width="2" stroke-linecap="round"/>
<path d="M480.018 340.678C482.46 343.74 493.508 345.146 498.726 345.467C502.268 344.038 499.145 335.653 497.141 331.639L482.86 325.063L470.885 327.942C467.022 332.666 459.818 341.123 464.256 344.729C468.693 348.336 476.808 344.162 480.018 340.678Z" fill="#333333" stroke="#333333" stroke-width="2" stroke-linecap="round" stroke-linejoin="round"/>
<path fill-rule="evenodd" clip-rule="evenodd" d="M475.099 351.78C476.115 351.891 477.387 351.712 478.221 351.52C476.366 351.477 475.419 349.071 473.195 349.043C472.15 349.027 470.519 349.501 469.614 351.151C469.925 351.323 470.459 351.207 470.56 351.203C470.609 353.896 474.19 354.112 475.099 351.78Z" fill="#333333"/>
<path fill-rule="evenodd" clip-rule="evenodd" d="M490.571 350.969C491.612 350.893 492.808 350.503 493.568 350.162C491.762 350.456 490.287 348.307 488.113 348.678C487.076 348.846 485.594 349.618 485.03 351.363C485.371 351.471 485.868 351.265 485.967 351.23C486.652 353.813 490.204 353.382 490.571 350.969Z" fill="#333333"/>
<path fill-rule="evenodd" clip-rule="evenodd" d="M482.053 364.193C483.274 364.075 484.374 365.195 484.543 366.679C484.678 368.165 483.822 369.435 482.601 369.553C481.381 369.671 480.281 368.551 480.112 367.066C479.943 365.614 480.832 364.311 482.053 364.193Z" fill="#333333"/>
<path fill-rule="evenodd" clip-rule="evenodd" d="M486.215 364.009C484.781 365.999 481.049 366.259 479.146 365.525C479.14 366.734 480.544 368.078 482.517 367.731C486.433 367.005 486.185 364.664 486.215 364.009Z" fill="#333333"/>
<path fill-rule="evenodd" clip-rule="evenodd" d="M481.272 359.727C480.16 359.845 478.661 358.474 478.563 357.213C478.363 354.493 481.027 354.25 481.011 351.66C481.73 354.505 477.441 356.7 481.272 359.727Z" fill="#333333"/>
<path d="M313.466 606.85C320.994 608.692 320.579 599.855 319.695 595.352C318.669 595.736 305.782 594.018 300.099 585.701C294.055 580.724 279.837 583.706 275.932 586.077C275.437 586.378 275.113 586.683 274.926 586.992C272.72 590.623 280.362 592.749 284.225 594.517C293.386 598.711 307.479 605.385 313.466 606.85Z" fill="white" stroke="#333333" stroke-width="2"/>
<path d="M485.942 396.08C490.432 394.71 493.89 391.205 495.979 387L512.802 393.559C515.132 394.467 516.903 396.412 517.59 398.816C518.817 403.108 518.352 407.707 516.293 411.668L513.843 416.379C513.281 417.459 512.761 418.549 512.285 419.67C509.709 425.725 500.924 446.763 498.319 458.006C498.319 458.006 479.252 469.277 457.996 463.203L454.468 436.717C454.339 435.747 454.066 434.803 453.703 433.895C452.675 431.321 450.649 425.616 450.978 421.385L445.387 421.385C443.865 421.385 442.901 419.752 443.636 418.419L452.619 402.136C453.427 400.672 454.414 399.316 455.559 398.098L458.261 395.224C461.285 392.007 465.504 390.182 469.919 390.182L472.666 390.182C472.666 393.369 473.536 396.844 476.691 397.296C478.685 397.582 481.627 397.397 485.942 396.08Z" fill="#9ADAF3" stroke="#333333" stroke-width="2" stroke-linecap="round" stroke-linejoin="round"/>
<path d="M509 426L491.478 421.5L498.456 407.5" stroke="#333333" stroke-width="2" stroke-linecap="round" stroke-linejoin="round"/>
<path d="M451 421C451 421 455.08 412.855 459 407" stroke="#333333" stroke-width="2" stroke-linecap="round" stroke-linejoin="round"/>
<path d="M508.289 425.548L485.761 461.344C482.879 465.651 478.331 468.561 473.212 469.373L463.455 470.919C461.042 471.302 458.601 471.483 456.158 471.46L437.946 471.291L415.26 472.522C413.401 472.522 412.609 470.158 414.092 469.038L422.103 462.989L428.171 460.801C430.474 459.971 432.985 459.912 435.326 460.632C436.191 460.898 437.099 460.999 438.001 460.928L453.472 459.718C455.138 459.588 456.784 459.276 458.382 458.79L472.471 454.497C472.965 454.346 473.382 454.01 473.634 453.558L491.783 421.022C491.783 421.022 502.787 416.459 508.282 425.522L508.289 425.548Z" fill="white" stroke="#333333" stroke-width="2" stroke-linecap="round" stroke-linejoin="round"/>
</g>
<defs>
<linearGradient id="paint0_linear_2567_30806" x1="348.875" y1="557.51" x2="378.611" y2="686.311" gradientUnits="userSpaceOnUse">
<stop stop-color="#FFC671"/>
<stop offset="0.59375" stop-color="#FF7541"/>
<stop offset="1" stop-color="#FF6F3D"/>
</linearGradient>
<linearGradient id="paint1_linear_2567_30806" x1="387.978" y1="35.4141" x2="402.978" y2="51" gradientUnits="userSpaceOnUse">
<stop stop-color="#FFC671"/>
<stop offset="0.59375" stop-color="#FF7541"/>
<stop offset="1" stop-color="#FF6F3D"/>
</linearGradient>
<linearGradient id="paint2_linear_2567_30806" x1="369.181" y1="16.3171" x2="392.602" y2="40.6504" gradientUnits="userSpaceOnUse">
<stop stop-color="#FFC671"/>
<stop offset="0.59375" stop-color="#FF7541"/>
<stop offset="1" stop-color="#FF6F3D"/>
</linearGradient>
<linearGradient id="paint3_linear_2567_30806" x1="213.111" y1="44.3327" x2="214.945" y2="54.2684" gradientUnits="userSpaceOnUse">
<stop stop-color="#FFC671"/>
<stop offset="0.59375" stop-color="#FF7541"/>
<stop offset="1" stop-color="#FF6F3D"/>
</linearGradient>
<linearGradient id="paint4_linear_2567_30806" x1="213.878" y1="44.3327" x2="212.044" y2="54.2684" gradientUnits="userSpaceOnUse">
<stop stop-color="#FFC671"/>
<stop offset="0.59375" stop-color="#FF7541"/>
<stop offset="1" stop-color="#FF6F3D"/>
</linearGradient>
<linearGradient id="paint5_linear_2567_30806" x1="534.726" y1="265.234" x2="570.453" y2="302.307" gradientUnits="userSpaceOnUse">
<stop stop-color="#FFC671"/>
<stop offset="0.59375" stop-color="#FF7541"/>
<stop offset="1" stop-color="#FF6F3D"/>
</linearGradient>
<linearGradient id="paint6_linear_2567_30806" x1="99.7624" y1="240.753" x2="78.3145" y2="269.864" gradientUnits="userSpaceOnUse">
<stop stop-color="#FFC671"/>
<stop offset="0.59375" stop-color="#FF7541"/>
<stop offset="1" stop-color="#FF6F3D"/>
</linearGradient>
<linearGradient id="paint7_linear_2567_30806" x1="77.7557" y1="69.521" x2="114.6" y2="116.256" gradientUnits="userSpaceOnUse">
<stop stop-color="#FFC671"/>
<stop offset="0.59375" stop-color="#FF7541"/>
<stop offset="1" stop-color="#FF6F3D"/>
</linearGradient>
<linearGradient id="paint8_linear_2567_30806" x1="45.8551" y1="432.212" x2="108.653" y2="477.868" gradientUnits="userSpaceOnUse">
<stop stop-color="#FFC671"/>
<stop offset="0.59375" stop-color="#FF7541"/>
<stop offset="1" stop-color="#FF6F3D"/>
</linearGradient>
<linearGradient id="paint9_linear_2567_30806" x1="54.5128" y1="410.299" x2="75.6004" y2="439.928" gradientUnits="userSpaceOnUse">
<stop stop-color="#FFC671"/>
<stop offset="0.59375" stop-color="#FF7541"/>
<stop offset="1" stop-color="#FF6F3D"/>
</linearGradient>
<linearGradient id="paint10_linear_2567_30806" x1="86.1114" y1="397.656" x2="100.577" y2="410.882" gradientUnits="userSpaceOnUse">
<stop stop-color="#FFC671"/>
<stop offset="0.59375" stop-color="#FF7541"/>
<stop offset="1" stop-color="#FF6F3D"/>
</linearGradient>
<linearGradient id="paint11_linear_2567_30806" x1="101.367" y1="401.712" x2="127.88" y2="418.149" gradientUnits="userSpaceOnUse">
<stop stop-color="#FFC671"/>
<stop offset="0.59375" stop-color="#FF7541"/>
<stop offset="1" stop-color="#FF6F3D"/>
</linearGradient>
<linearGradient id="paint12_linear_2567_30806" x1="77.6834" y1="444.294" x2="111.46" y2="484.114" gradientUnits="userSpaceOnUse">
<stop stop-color="#FFC671"/>
<stop offset="0.59375" stop-color="#FF7541"/>
<stop offset="1" stop-color="#FF6F3D"/>
</linearGradient>
<linearGradient id="paint13_linear_2567_30806" x1="503.598" y1="125.177" x2="480.962" y2="167.712" gradientUnits="userSpaceOnUse">
<stop stop-color="#FFC671"/>
<stop offset="0.59375" stop-color="#FF7541"/>
<stop offset="1" stop-color="#FF6F3D"/>
</linearGradient>
<linearGradient id="paint14_linear_2567_30806" x1="399.537" y1="435.89" x2="359.159" y2="482.503" gradientUnits="userSpaceOnUse">
<stop stop-color="#FFC671"/>
<stop offset="0.59375" stop-color="#FF7541"/>
<stop offset="1" stop-color="#FF6F3D"/>
</linearGradient>
<clipPath id="clip0_2567_30806">
<rect width="640" height="710" fill="white"/>
</clipPath>
<clipPath id="clip1_2567_30806">
<rect width="605" height="433" fill="white" transform="translate(20.9778 198)"/>
</clipPath>
<clipPath id="clip2_2567_30806">
<rect width="55" height="55" fill="white" transform="translate(185.978 2)"/>
</clipPath>
<clipPath id="clip3_2567_30806">
<rect width="56" height="49" fill="white" transform="matrix(-1 0 0 1 509.022 125)"/>
</clipPath>
</defs>
</svg>
