<svg width="448" height="254" viewBox="0 0 448 254" fill="none" xmlns="http://www.w3.org/2000/svg">
<path d="M372.5 253C414.197 253 448 250.761 448 248C448 245.239 414.197 243 372.5 243C330.803 243 297 245.239 297 248C297 250.761 330.803 253 372.5 253Z" fill="#EFEFEF"/>
<rect x="0.5" y="4.5" width="287" height="216" rx="3.5" fill="white"/>
<rect x="0.5" y="4.5" width="287" height="216" rx="3.5" stroke="#333333"/>
<rect x="13.5" y="72.5" width="78" height="45" rx="3.5" fill="#D9F4FF" stroke="#9ADAF3"/>
<rect x="104.5" y="72.5" width="78" height="45" rx="3.5" fill="url(#paint0_linear_9048_313241)" stroke="#444444"/>
<rect x="195.5" y="72.5" width="78" height="45" rx="3.5" fill="#D9F4FF" stroke="#9ADAF3"/>
<rect x="13.5" y="130.5" width="78" height="45" rx="3.5" fill="#D9F4FF" stroke="#9ADAF3"/>
<rect x="104.5" y="130.5" width="78" height="45" rx="3.5" fill="#D9F4FF" stroke="#9ADAF3"/>
<rect x="195.5" y="130.5" width="78" height="45" rx="3.5" fill="#D9F4FF" stroke="#9ADAF3"/>
<path fill-rule="evenodd" clip-rule="evenodd" d="M68.1327 51.2059L57.6685 46.2649C56.7772 45.8335 56.7772 45.1669 57.6685 44.7747L61.3116 43.0493L68.0939 46.2649C68.9853 46.6963 70.4193 46.6963 71.2719 46.2649L78.0542 43.0493L81.6973 44.7747C82.5887 45.2061 82.5887 45.8727 81.6973 46.2649L71.2332 51.2059C70.4193 51.598 68.9853 51.598 68.1327 51.2059Z" fill="#FF6F3D"/>
<path fill-rule="evenodd" clip-rule="evenodd" d="M68.0988 45.0915L57.6665 40.1448C56.7778 39.7129 56.7778 39.0455 57.6665 38.6529L61.2212 36.9647L68.0988 40.2233C68.9874 40.6551 70.4171 40.6551 71.2671 40.2233L78.1447 36.9647L81.6993 38.6529C82.588 39.0848 82.588 39.7522 81.6993 40.1448L71.2671 45.0915C70.3784 45.5234 68.9488 45.5234 68.0988 45.0915Z" fill="#95C038"/>
<path fill-rule="evenodd" clip-rule="evenodd" d="M68.0988 39.0408L57.6665 34.1652C56.7778 33.7396 56.7778 33.0817 57.6665 32.6948L68.0988 27.8192C68.9874 27.3936 70.4171 27.3936 71.2671 27.8192L81.6993 32.6948C82.588 33.1204 82.588 33.7783 81.6993 34.1652L71.2671 39.0408C70.3784 39.4277 68.9488 39.4277 68.0988 39.0408Z" fill="#5DC0E8"/>
<path d="M94.693 33.3667C91.674 33.3667 88.7073 35.1484 88.7073 39.5C88.7073 43.8516 91.674 45.6334 94.693 45.6334C97.712 45.6334 100.679 43.8516 100.679 39.5C100.679 35.1484 97.712 33.3667 94.693 33.3667ZM94.693 35.0799C95.6179 35.0799 98.0611 35.4397 98.0611 39.5C98.0611 43.5604 95.6179 43.9201 94.693 43.9201C93.7681 43.9201 91.3249 43.5604 91.3249 39.5C91.3249 35.4397 93.7681 35.0799 94.693 35.0799Z" fill="#333333"/>
<path d="M102.692 33.5038V45.4963H105.17V38.4378L105.118 36.3134H105.17L105.781 37.6497L110.039 45.4963H113.25V33.5038H110.772V40.5622L110.824 42.6866H110.772L110.126 41.0591L105.903 33.5038H102.692Z" fill="#333333"/>
<path d="M115.695 33.5038V45.4963H123.025V43.4747H118.173V33.5038H115.695Z" fill="#333333"/>
<path d="M120.93 33.5038L125.433 40.5965V45.4963H127.911V40.6308L132.309 33.5038H129.691L127.161 37.7183L126.742 38.5406H126.689L126.305 37.7183L123.792 33.5038H120.93Z" fill="#333333"/>
<path d="M138.082 33.3667C135.063 33.3667 132.096 35.1484 132.096 39.5C132.096 43.8516 135.063 45.6334 138.082 45.6334C141.101 45.6334 144.068 43.8516 144.068 39.5C144.068 35.1484 141.101 33.3667 138.082 33.3667ZM138.082 35.0799C139.007 35.0799 141.45 35.4397 141.45 39.5C141.45 43.5604 139.007 43.9201 138.082 43.9201C137.157 43.9201 134.714 43.5604 134.714 39.5C134.714 35.4397 137.157 35.0799 138.082 35.0799Z" fill="#333333"/>
<path d="M146.081 33.5038V45.4963H148.559V40.408H152.713V38.4378H148.559V35.5254H152.922V33.5038H146.081Z" fill="#333333"/>
<path d="M154.67 33.5038V45.4963H157.148V40.408H161.302V38.4378H157.148V35.5254H161.511V33.5038H154.67Z" fill="#333333"/>
<path d="M163.26 45.4963H165.738V33.5038H163.26V45.4963Z" fill="#333333"/>
<path d="M177.102 43.0807C176.492 43.3548 175.636 43.6118 174.554 43.6118C172.356 43.6118 170.366 42.4296 170.366 39.5343C170.366 37.0844 171.989 35.3883 174.729 35.3883C175.654 35.3883 176.439 35.5596 177.155 35.8337L177.259 33.7779C176.334 33.4866 175.514 33.3667 174.554 33.3667C170.715 33.3667 167.749 35.4397 167.749 39.5686C167.749 43.9373 171.064 45.6334 174.101 45.6334C175.078 45.6334 176.177 45.4792 177.259 45.1194L177.102 43.0807Z" fill="#333333"/>
<path d="M179.177 33.5038V45.4963H186.471V43.3719H181.655V40.3052H186.035V38.335H181.655V35.6281H186.471V33.5038H179.177Z" fill="#333333"/>
<path d="M202.355 39.8159C202.355 41.8192 201.81 43.3521 200.72 44.4146C199.636 45.4715 198.072 46 196.03 46H192.668V33.8643H196.387C198.274 33.8643 199.741 34.3872 200.787 35.4331C201.833 36.479 202.355 37.9399 202.355 39.8159ZM200.861 39.8657C200.861 38.283 200.463 37.0905 199.666 36.2881C198.875 35.4857 197.696 35.0845 196.13 35.0845H194.08V44.7798H195.798C197.48 44.7798 198.745 44.3675 199.591 43.543C200.438 42.7129 200.861 41.4871 200.861 39.8657ZM212.545 41.4429C212.545 42.9259 212.171 44.0853 211.424 44.9209C210.677 45.751 209.645 46.166 208.328 46.166C207.515 46.166 206.792 45.9751 206.162 45.5933C205.531 45.2114 205.044 44.6636 204.701 43.9497C204.358 43.2358 204.186 42.4002 204.186 41.4429C204.186 39.9598 204.557 38.806 205.298 37.9814C206.04 37.1514 207.069 36.7363 208.386 36.7363C209.659 36.7363 210.669 37.1597 211.416 38.0063C212.169 38.853 212.545 39.9985 212.545 41.4429ZM205.614 41.4429C205.614 42.605 205.846 43.4904 206.311 44.0991C206.776 44.7078 207.459 45.0122 208.361 45.0122C209.263 45.0122 209.947 44.7106 210.412 44.1074C210.882 43.4987 211.117 42.6105 211.117 41.4429C211.117 40.2863 210.882 39.4092 210.412 38.8115C209.947 38.2083 209.258 37.9067 208.345 37.9067C207.443 37.9067 206.762 38.2028 206.303 38.7949C205.843 39.387 205.614 40.2697 205.614 41.4429ZM218.434 46.166C217.117 46.166 216.096 45.762 215.371 44.9541C214.652 44.1406 214.292 42.9924 214.292 41.5093C214.292 39.9875 214.658 38.8115 215.388 37.9814C216.124 37.1514 217.17 36.7363 218.526 36.7363C218.963 36.7363 219.4 36.7834 219.837 36.8774C220.274 36.9715 220.618 37.0822 220.867 37.2095L220.443 38.3799C220.139 38.2581 219.807 38.1585 219.447 38.0811C219.087 37.998 218.769 37.9565 218.493 37.9565C216.644 37.9565 215.72 39.1353 215.72 41.4927C215.72 42.6105 215.944 43.4683 216.392 44.0659C216.846 44.6636 217.516 44.9624 218.401 44.9624C219.159 44.9624 219.937 44.7992 220.734 44.4727V45.6929C220.125 46.0083 219.359 46.166 218.434 46.166ZM228.599 43.5181C228.599 44.3647 228.283 45.0177 227.653 45.4771C227.022 45.9364 226.136 46.166 224.996 46.166C223.79 46.166 222.849 45.9751 222.174 45.5933V44.3149C222.611 44.5363 223.079 44.7106 223.577 44.8379C224.08 44.9652 224.565 45.0288 225.03 45.0288C225.749 45.0288 226.302 44.9154 226.69 44.6885C227.077 44.4561 227.271 44.1047 227.271 43.6343C227.271 43.2801 227.116 42.9785 226.806 42.7295C226.502 42.4749 225.904 42.1761 225.013 41.833C224.166 41.5176 223.563 41.2437 223.203 41.0112C222.849 40.7733 222.584 40.5049 222.407 40.2061C222.235 39.9072 222.149 39.5503 222.149 39.1353C222.149 38.3937 222.451 37.8099 223.054 37.3838C223.657 36.9521 224.484 36.7363 225.536 36.7363C226.515 36.7363 227.473 36.9355 228.408 37.334L227.918 38.4546C227.005 38.0783 226.178 37.8901 225.436 37.8901C224.783 37.8901 224.291 37.9925 223.959 38.1973C223.627 38.402 223.461 38.6842 223.461 39.0439C223.461 39.2874 223.522 39.495 223.643 39.6665C223.771 39.8381 223.973 40.0013 224.249 40.1562C224.526 40.3112 225.057 40.5353 225.843 40.8286C226.922 41.2215 227.65 41.6172 228.026 42.0156C228.408 42.4141 228.599 42.9149 228.599 43.5181Z" fill="#333333"/>
<path d="M131.88 94.1303L132.231 93.7786L131.88 94.1303L138.873 101.121C138.98 101.228 139.107 101.328 139.266 101.399C139.427 101.47 139.595 101.5 139.77 101.5C140.049 101.5 140.412 101.376 140.668 101.121L155.12 86.674C155.627 86.1681 155.627 85.3853 155.12 84.8794L154.767 85.233L155.12 84.8794C154.614 84.3735 153.832 84.3735 153.326 84.8794L139.77 98.429L133.674 92.3357C133.168 91.8299 132.386 91.8299 131.88 92.3357C131.373 92.8417 131.373 93.6244 131.88 94.1303Z" fill="white" stroke="white"/>
<path d="M331.432 35.946C330.323 33.9409 329.174 28.527 329.61 26.2812C330.045 24.0355 331.313 21.9501 333.096 20.5465C333.374 19.7445 333.215 18.8221 333.294 17.9398C333.374 17.0576 333.889 16.0951 334.76 16.055C335.315 16.0149 335.79 16.4159 336.068 16.8972C336.345 17.3784 336.424 17.9398 336.504 18.4612C337.098 22.6319 337.177 27.7249 336.781 31.9357L331.432 35.946Z" fill="white"/>
<path d="M331.432 36.4269C331.392 36.4269 331.353 36.4269 331.313 36.4269C331.155 36.3868 331.036 36.3066 330.996 36.1863C329.808 34.0608 328.659 28.5266 329.094 26.1605C329.57 23.8346 330.838 21.7091 332.66 20.2253C332.779 19.8243 332.779 19.3431 332.779 18.8618C332.779 18.541 332.779 18.2202 332.819 17.8994C332.898 16.7765 333.611 15.6135 334.721 15.5333C335.394 15.4932 336.107 15.9343 336.504 16.6161C336.821 17.1374 336.939 17.7389 337.019 18.3806C337.613 22.3909 337.692 27.4839 337.296 31.9755C337.296 32.1359 337.217 32.2562 337.098 32.3364L331.749 36.3467C331.63 36.3868 331.551 36.4269 331.432 36.4269ZM334.8 16.5359C334.76 16.5359 334.8 16.5359 334.8 16.5359C334.245 16.576 333.849 17.2978 333.809 17.9796C333.77 18.2603 333.77 18.541 333.809 18.8618C333.809 19.4634 333.809 20.105 333.611 20.7066C333.572 20.7868 333.532 20.867 333.453 20.9472C331.749 22.2706 330.56 24.2757 330.125 26.4012C329.728 28.3261 330.679 33.0181 331.63 35.2238L336.305 31.6947C336.702 27.3235 336.583 22.431 336.028 18.5811C335.949 18.0598 335.87 17.5785 335.632 17.1775C335.473 16.8166 335.156 16.5359 334.8 16.5359Z" fill="#333333"/>
<path d="M330.996 34.4621C330.996 34.4621 331.036 61.9326 334.087 71.7578C335.077 74.966 363.803 56.9598 363.803 56.9598L373.827 44.2472C373.827 44.2472 368.993 44.3675 363.803 46.0518C358.612 47.7362 338.881 62.2534 338.881 62.2534C338.881 62.2534 335.87 40.2369 336.9 30.4919" fill="white"/>
<path d="M334.721 72.6396C334.522 72.6396 334.324 72.5995 334.166 72.5594C333.77 72.399 333.611 72.1183 333.532 71.9178C330.521 62.1327 330.441 35.5847 330.441 34.4618C330.441 34.1811 330.679 33.9404 330.917 33.9404C331.194 33.9404 331.392 34.1811 331.432 34.4217C331.432 34.7024 331.511 61.9322 334.483 71.5569C334.681 71.7173 336.424 72.1985 349.618 64.6993C356.235 60.9697 362.654 56.9594 363.367 56.5183L372.678 44.7281C370.974 44.8484 367.487 45.2895 363.882 46.4525C358.81 48.0967 339.317 62.4535 339.119 62.6139C338.96 62.7342 338.802 62.7342 338.643 62.654C338.485 62.5738 338.366 62.4535 338.366 62.253C338.326 62.0124 335.394 40.0361 336.345 30.3713C336.385 30.0906 336.622 29.8901 336.9 29.9302C337.177 29.9703 337.375 30.2109 337.336 30.4916C336.464 38.9934 338.683 57.2001 339.237 61.2905C342.803 58.6839 358.85 47.0139 363.605 45.49C368.835 43.8057 373.589 43.6453 373.787 43.6453C373.985 43.6453 374.144 43.7656 374.263 43.926C374.342 44.0864 374.342 44.3271 374.223 44.4474L364.199 57.16C364.159 57.2001 364.12 57.2402 364.08 57.2803C361.465 59.0047 339.594 72.6396 334.721 72.6396Z" fill="#333333"/>
<path d="M400.889 49.5007C395.421 45.33 372.757 43.6056 367.329 44.3675C361.584 45.1696 344.468 57.6817 343.913 58.2832C349.302 61.0503 348.747 68.2287 349.064 68.1084C351.996 67.0658 361.901 62.6544 361.901 62.6544C361.148 67.146 359.088 72.9609 363.05 76.8107C363.962 77.693 365.388 96.6617 365.665 103.319H396.728C396.728 95.3383 394.193 85.112 399.145 69.512C399.502 72.0385 399.621 76.5701 400.057 79.257C403.464 77.1316 407.941 76.6904 411.19 77.0915C409.011 62.9753 406.951 54.0724 400.889 49.5007Z" fill="white"/>
<path d="M396.728 104H365.665C365.348 104 365.071 103.759 365.071 103.438C364.714 95.859 363.327 78.7351 362.574 77.2914C359.009 73.8024 360.039 68.7896 360.871 64.7793C360.95 64.4184 361.029 64.0976 361.069 63.7366C358.454 64.8996 351.599 67.8672 349.222 68.7495C349.064 68.8297 348.826 68.7896 348.707 68.6693C348.43 68.4688 348.39 68.188 348.311 67.4662C348.113 65.6616 347.637 60.8893 343.635 58.8441C343.477 58.7639 343.358 58.6035 343.318 58.4029C343.279 58.2024 343.358 58.042 343.477 57.8816C343.992 57.3202 361.148 44.6477 367.25 43.7654C372.361 43.0436 395.5 44.6477 401.245 49.0189C407.743 53.9515 409.724 63.7366 411.824 77.0508C411.863 77.2513 411.784 77.4117 411.665 77.5721C411.547 77.6924 411.348 77.7726 411.15 77.7325C408.139 77.3716 403.741 77.7325 400.373 79.8179C400.215 79.9382 399.977 79.9382 399.819 79.858C399.62 79.7778 399.502 79.6174 399.462 79.4168C399.224 77.8929 399.066 75.8477 398.907 73.8425C398.868 73.4415 398.868 73.0806 398.828 72.6796C396.015 83.0662 396.57 90.9264 397.005 97.3428C397.164 99.4683 397.283 101.473 397.283 103.318C397.283 103.479 397.204 103.639 397.124 103.759C397.045 103.88 396.887 104 396.728 104ZM366.22 102.757H396.134C396.094 101.113 395.975 99.3079 395.856 97.4631C395.381 90.3248 394.747 81.5022 398.59 69.3911C398.67 69.1104 398.947 68.95 399.224 68.9901C399.502 69.0302 399.739 69.2307 399.779 69.5114C399.937 70.6744 400.056 72.1582 400.175 73.7623C400.294 75.3665 400.413 77.0107 400.571 78.3341C403.781 76.6097 407.624 76.2086 410.556 76.4492C408.258 61.8919 406.118 54.152 400.571 49.9412C395.381 46.0112 373.034 44.1263 367.448 44.9284C362.535 45.6101 348.231 55.676 344.983 58.1623C348.826 60.6888 349.341 65.421 349.539 67.2657C352.986 65.9423 361.584 62.1325 361.663 62.0924C361.861 62.0122 362.099 62.0523 362.257 62.1726C362.416 62.2929 362.495 62.5335 362.495 62.7341C362.376 63.4158 362.218 64.1377 362.059 64.8996C361.267 68.8297 360.356 73.3212 363.486 76.369C364.714 77.6523 366.021 98.987 366.22 102.757Z" fill="#333333"/>
<path d="M361.861 66.3032C362.099 63.9773 363.605 61.932 363.486 59.6061C363.446 59.1649 362.891 59.0045 362.654 59.3654C361.346 61.3706 360.514 63.8971 360.752 66.3032C360.831 67.0251 361.782 67.0251 361.861 66.3032Z" fill="#333333"/>
<path d="M391.181 43.2046C400.492 45.0493 404.97 44.9691 404.97 44.9691C404.97 44.9691 409.645 34.8632 405.762 22.5516C400.928 7.35262 383.138 2.8611 375.055 7.0318C372.599 8.27499 367.844 14.1701 365.784 22.8724C363.724 31.5748 365.071 40.3974 365.071 40.3974C365.071 40.3974 381.316 41.2396 391.181 43.2046Z" fill="url(#paint1_linear_9048_313241)"/>
<path d="M404.851 45.6103C404.058 45.6103 399.581 45.5301 391.062 43.8057C381.316 41.8406 365.19 41.0386 365.031 41.0386C364.754 41.0386 364.516 40.7979 364.476 40.5172C364.437 40.1563 363.169 31.4941 365.19 22.7918C367.25 14.0093 372.123 7.91365 374.738 6.55016C379.097 4.3044 385.872 4.50492 391.974 7.1116C398.987 10.0792 404.058 15.4931 406.238 22.4309C410.16 34.8226 405.643 44.8483 405.445 45.2895C405.366 45.49 405.128 45.6504 404.93 45.6504C404.97 45.6103 404.93 45.6103 404.851 45.6103ZM391.3 42.6026C398.908 44.1265 403.306 44.327 404.573 44.3671C405.326 42.4823 408.536 33.419 405.168 22.7517C402.355 13.8489 395.421 9.79849 391.578 8.15427C385.753 5.708 379.374 5.46738 375.333 7.55273C373.233 8.6355 368.439 14.29 366.378 22.9923C364.675 30.3311 365.388 37.8303 365.626 39.7954C368.399 40.036 382.465 40.838 391.3 42.6026Z" fill="#333333"/>
<path d="M385.357 45.2497L386.625 33.6199L376.64 34.061L377.274 44.8086C376.006 45.6507 375.174 46.934 375.095 48.3777C375.016 51.0646 377.591 53.3505 380.919 53.4307C384.247 53.5109 386.981 51.4656 387.06 48.7787C387.14 47.4553 386.466 46.1721 385.357 45.2497Z" fill="white"/>
<path d="M381.196 53.9917C381.117 53.9917 381.038 53.9917 380.919 53.9917C377.353 53.8714 374.54 51.345 374.619 48.4175C374.659 46.9337 375.451 45.5702 376.759 44.6077L376.125 34.1409C376.125 34.0206 376.165 33.8602 376.244 33.78C376.323 33.6998 376.442 33.6196 376.6 33.6196L386.585 33.1785C386.743 33.1785 386.862 33.2186 386.981 33.3389C387.06 33.4592 387.14 33.5795 387.1 33.7399L385.832 45.089C386.942 46.1316 387.536 47.455 387.496 48.8586C387.457 51.7059 384.644 53.9917 381.196 53.9917ZM377.195 34.5821L377.789 44.8082C377.789 44.9686 377.71 45.1692 377.551 45.2494C376.363 46.0514 375.649 47.2144 375.61 48.4175C375.531 50.8236 377.908 52.8689 380.959 52.9491C381.038 52.9491 381.117 52.9491 381.196 52.9491C384.128 52.9491 386.506 51.1044 386.585 48.7784C386.625 47.6154 386.07 46.4926 385.079 45.6103C384.961 45.49 384.881 45.3296 384.921 45.1692L386.149 34.1409L377.195 34.5821Z" fill="#333333"/>
<path d="M393.281 29.5296C394.311 24.3563 392.291 19.0627 387.853 16.6165C382.266 13.4885 375.531 13.4885 372.123 19.7044C368.755 25.9203 370.023 36.0262 375.61 39.1542C380.998 42.162 387.932 39.9162 391.458 34.1815C391.696 34.2617 391.934 34.3018 392.172 34.3419C393.519 34.382 394.668 33.2992 394.707 31.9357C394.747 30.8129 394.153 29.9306 393.281 29.5296Z" fill="white"/>
<path d="M380.761 40.9582C378.899 40.9582 377.076 40.5171 375.373 39.5546C369.35 36.186 368.32 25.6791 371.688 19.423C373.352 16.3752 375.888 14.5706 379.097 14.1294C381.87 13.7685 385.08 14.4503 388.091 16.1346C392.489 18.5809 394.787 23.8343 393.836 29.2482C394.708 29.8097 395.263 30.8122 395.223 31.895C395.183 32.6971 394.866 33.459 394.272 33.9804C393.678 34.5418 392.925 34.8225 392.132 34.7824C391.974 34.7824 391.815 34.7423 391.657 34.7022C389.082 38.7125 384.882 40.9582 380.761 40.9582ZM380.603 15.0117C380.127 15.0117 379.691 15.0518 379.216 15.0919C376.363 15.4929 374.025 17.1371 372.559 19.8641C369.429 25.5989 370.38 35.5845 375.848 38.6323C380.959 41.4796 387.616 39.3541 391.023 33.8199C391.142 33.6194 391.38 33.5392 391.617 33.6194C391.815 33.6996 392.014 33.7397 392.172 33.7397C392.687 33.7397 393.202 33.5793 393.598 33.2184C393.995 32.8575 394.193 32.3762 394.232 31.8148C394.272 31.0127 393.796 30.2508 393.083 29.93C392.885 29.8498 392.766 29.6091 392.806 29.3685C393.836 24.2354 391.736 19.2626 387.616 16.9767C385.278 15.7335 382.821 15.0117 380.603 15.0117Z" fill="#333333"/>
<path d="M383.653 26.04C383.812 24.9172 383.336 23.9949 382.465 23.273C381.672 22.6314 380.523 22.3908 379.77 23.2329C379.136 23.9548 379.453 25.1177 380.285 25.5588C381.197 26.04 382.385 25.3583 382.425 24.3558C382.465 23.8344 381.791 23.5938 381.434 23.9147C381.355 23.9949 381.236 24.1954 381.117 24.2355C381.117 24.2355 380.84 24.3558 380.919 24.1954C380.919 24.1553 381.395 24.3157 381.514 24.3959C381.831 24.5964 382.068 24.9172 382.266 25.1979C382.504 25.5187 382.782 25.7994 383.019 26.1603C383.217 26.5213 383.614 26.3609 383.653 26.04Z" fill="#333333"/>
<path d="M376.561 24.3557C376.601 23.9146 376.561 23.4735 376.323 23.0725C376.085 22.6714 375.689 22.3506 375.333 22.0699C374.58 21.5486 373.431 21.4684 372.876 22.3105C372.361 23.0725 372.717 24.1151 373.589 24.3958C374.382 24.6766 375.531 24.0349 375.412 23.1126C375.333 22.6313 374.778 22.2704 374.382 22.6714C374.302 22.7516 374.104 22.9522 374.104 23.0324C374.025 23.3933 374.065 23.0725 374.263 23.1928C374.382 23.273 374.54 23.3131 374.659 23.3933C374.897 23.5537 375.095 23.7542 375.293 23.9547C375.491 24.1552 375.768 24.3156 375.967 24.5562C376.204 24.837 376.561 24.6766 376.561 24.3557Z" fill="#333333"/>
<path d="M375.57 27.1229C375.253 27.524 375.015 27.8849 374.778 28.326C374.58 28.6468 374.302 29.1682 374.263 29.5291C374.223 30.3312 375.689 30.3312 376.204 30.2109C376.402 30.1708 376.402 29.9301 376.244 29.8499C376.006 29.6895 375.808 29.5692 375.491 29.5291C375.332 29.489 375.055 29.489 374.936 29.4088C374.936 29.4489 374.936 29.489 374.936 29.5291C374.936 29.4489 374.976 29.3286 375.015 29.2484C375.174 28.5666 375.451 27.925 375.808 27.2833C375.887 27.163 375.689 26.9625 375.57 27.1229Z" fill="#333333"/>
<path d="M375.729 33.2588C376.363 34.2614 377.908 34.4619 378.978 34.4218C380.087 34.3817 381.672 33.5796 381.355 32.2562C381.316 32.0557 380.999 31.9755 380.88 32.1359C380.167 32.8577 379.77 33.4994 378.701 33.4994C377.948 33.4994 376.799 33.5395 376.244 32.8979C376.006 32.6572 375.57 32.9781 375.729 33.2588Z" fill="#333333"/>
<path d="M377.71 10.36C373.827 12.4854 372.876 15.3728 373.034 15.2124C373.391 14.8515 377.908 13.4078 384.01 21.2278C385.951 23.7543 392.132 30.8926 396.847 28.6468L392.766 17.8191L384.525 12.8464L377.71 10.36Z" fill="url(#paint2_linear_9048_313241)"/>
<path d="M371.965 15.4931C373.55 15.7338 375.174 15.3327 376.759 15.8541C378.463 16.4155 379.77 17.779 381.038 18.9821C383.098 20.9471 384.96 23.0726 386.942 25.1178C389.675 27.925 394.826 32.4566 397.996 27.8448C398.115 27.6844 397.877 27.4839 397.758 27.6042C396.015 28.9276 394.549 29.2484 392.449 28.1255C391.221 27.4839 390.111 26.6016 389.081 25.6793C387.14 23.9147 385.436 21.8695 383.574 20.0248C380.602 17.0572 376.482 12.8063 371.965 15.3327C371.846 15.3327 371.885 15.4931 371.965 15.4931Z" fill="#333333"/>
<path d="M384.049 83.227L371.608 84.0692C370.38 84.1494 369.231 83.3474 368.914 82.1042L365.031 66.7448C364.635 65.2209 365.625 63.7371 367.171 63.4964L380.008 61.6116C381.355 61.4111 382.623 62.2933 382.9 63.6568L386.387 80.0589C386.744 81.6229 385.595 83.1067 384.049 83.227Z" fill="#D9F4FF"/>
<path d="M371.41 84.7105C369.984 84.7105 368.676 83.7079 368.32 82.3043L364.437 66.9449C364.199 66.0627 364.358 65.1403 364.873 64.3783C365.388 63.6164 366.18 63.095 367.052 62.9747L379.889 61.0899C381.553 60.8493 383.099 61.932 383.455 63.6164L386.942 80.0185C387.14 80.9408 386.942 81.9033 386.387 82.6251C385.833 83.3871 385 83.8282 384.05 83.9084L371.608 84.7506C371.569 84.7105 371.49 84.7105 371.41 84.7105ZM380.365 62.2128C380.286 62.2128 380.167 62.2128 380.087 62.2529L367.25 64.1377C366.695 64.2179 366.18 64.5387 365.863 65.02C365.546 65.5012 365.467 66.0626 365.586 66.6241L369.469 81.9835C369.707 82.946 370.578 83.5475 371.529 83.5074L383.97 82.6653C384.565 82.6252 385.08 82.3444 385.436 81.8632C385.793 81.382 385.912 80.7804 385.793 80.219L382.306 63.8169C382.148 62.8544 381.316 62.2128 380.365 62.2128Z" fill="#333333"/>
<path d="M409.209 77.733C409.209 77.733 407.901 76.57 405.207 77.1314C401.958 77.7731 401.285 79.0162 401.285 79.0162L403.028 88.4404C403.028 88.4404 389.002 75.6476 388.844 74.645C388.645 73.1211 385.634 69.1108 385.198 69.5921C384.366 70.4342 384.564 72.5998 382.9 73.482C380.959 74.4846 377.116 75.2867 377.868 76.8106C378.661 78.535 381.276 80.2995 383.138 80.0188C384.683 79.8183 384.485 80.0589 385.832 79.2168C387.655 81.8234 400.096 99.188 406.198 99.188C411.23 99.1479 409.209 77.733 409.209 77.733Z" fill="white"/>
<path d="M406.198 99.6289C400.334 99.6289 389.359 84.9513 385.713 79.8181C384.961 80.2592 384.723 80.2993 384.089 80.3394C383.891 80.3394 383.613 80.3795 383.217 80.4196C381.078 80.7004 378.304 78.7353 377.432 76.9307C377.274 76.5698 377.234 76.2088 377.393 75.8479C377.789 74.8854 379.295 74.2839 380.919 73.6824C381.593 73.4417 382.227 73.161 382.742 72.9204C383.574 72.4793 383.851 71.597 384.129 70.7549C384.327 70.1533 384.525 69.5518 384.921 69.1507C385.079 68.9903 385.357 68.9101 385.595 68.9903C386.625 69.3513 389.121 72.9605 389.398 74.4443C389.913 75.4068 397.164 82.2644 402.315 86.9965L400.849 79.0562C400.809 78.9358 400.849 78.8155 400.888 78.7353C400.968 78.5749 401.76 77.2916 405.128 76.6099C408.06 76.0083 409.486 77.2916 409.565 77.3317C409.645 77.4119 409.724 77.5322 409.724 77.6525C409.803 78.3744 411.348 95.0572 407.981 98.7868C407.426 99.3482 406.871 99.6289 406.198 99.6289ZM385.832 78.6551C385.991 78.6551 386.149 78.7353 386.228 78.8556C392.687 87.959 401.76 98.6264 406.198 98.6264C406.554 98.6264 406.911 98.466 407.188 98.105C409.684 95.2978 409.169 82.8258 408.694 77.9734C408.298 77.7328 407.188 77.1713 405.247 77.5724C402.949 78.0536 402.037 78.8155 401.76 79.0963L403.464 88.2798C403.503 88.4803 403.424 88.721 403.226 88.8012C403.028 88.9215 402.83 88.8814 402.671 88.721C397.402 83.9086 388.487 75.6474 388.328 74.6047C388.17 73.4417 386.149 70.6746 385.357 70.033C385.198 70.2736 385.079 70.6746 384.961 71.0356C384.644 71.998 384.287 73.161 383.059 73.7626C382.504 74.0433 381.87 74.2839 381.157 74.5646C380.008 75.0058 378.423 75.6073 378.225 76.1687C378.185 76.249 378.185 76.2891 378.265 76.4094C378.978 77.8932 381.355 79.5775 383.019 79.3369C383.415 79.2968 383.693 79.2567 383.93 79.2567C384.525 79.2166 384.604 79.2166 385.515 78.615C385.674 78.6952 385.753 78.6551 385.832 78.6551Z" fill="#333333"/>
<path d="M401.602 87.3974C402.038 88.0792 402.672 88.6406 403.306 89.162C403.702 89.4828 404.534 90.3651 405.128 90.0844C405.208 90.0443 405.247 89.9641 405.247 89.8838C405.168 89.3224 404.296 88.8412 403.9 88.5604C403.266 88.0792 402.632 87.638 402.038 87.1167C401.76 86.9162 401.443 87.1568 401.602 87.3974Z" fill="#333333"/>
<path fill-rule="evenodd" clip-rule="evenodd" d="M396.131 98.8593C397.209 103.042 400.132 108.287 401.268 114.559C402.926 123.714 404.172 134.818 405.303 146.892C405.586 149.922 405.188 153.054 405.576 156.185C409.879 181.054 412.654 209.068 412.616 232.799C411.825 233.317 410.67 233.615 409.515 233.654C408.375 233.687 407.268 233.462 406.563 232.928C405.571 228.462 401.579 209.265 396.217 187.004C391.688 168.216 385.746 147.809 382.621 133.497L381.371 128.094C381.294 141.537 380.532 155.652 380.038 164.811C379.89 167.568 379.765 169.878 379.689 171.631C379.684 171.751 379.689 172.202 379.698 172.951C379.77 179.474 380.101 209.38 376.195 233.682C375.275 234.249 374.355 234.417 373.516 234.355C372.371 234.268 371.374 233.759 370.718 233.26C370.641 226.233 370.444 216.138 369.889 205.375C369.314 194.372 368.36 182.639 366.769 172.692C366.64 171.885 362.446 154.605 362.307 132.575C362.24 121.567 362.964 106.347 365.959 96.3474C370.253 98.744 375.136 100.953 379.775 101.189C385.588 101.482 391.324 100.42 396.131 98.8593Z" fill="#D9F4FF"/>
<path fill-rule="evenodd" clip-rule="evenodd" d="M396.184 98.8449C396.61 100.492 397.319 102.308 398.096 104.282C399.289 107.322 400.631 110.746 401.321 114.545C402.15 119.122 402.874 124.189 403.535 129.621C404.196 135.048 404.79 140.84 405.356 146.882C405.49 148.294 405.471 149.721 405.457 151.166C405.437 152.828 405.423 154.504 405.629 156.176C407.829 168.903 409.631 182.451 410.862 195.832C412.036 208.598 412.688 221.21 412.669 232.799V232.828L412.645 232.842C412.252 233.101 411.768 233.303 411.241 233.452C410.699 233.601 410.11 233.687 409.52 233.707C408.926 233.726 408.341 233.673 407.814 233.543C407.321 233.423 406.88 233.236 406.535 232.972L406.52 232.962L406.516 232.943C406.329 232.098 406.036 230.743 405.653 228.952C403.981 221.167 400.525 205.101 396.169 187.024C394.133 178.561 391.799 169.758 389.57 161.334C386.853 151.075 384.289 141.378 382.569 133.516L381.419 128.54C381.328 141.844 380.58 155.753 380.092 164.806L380.077 165.056C379.933 167.712 379.814 169.935 379.742 171.64C379.737 171.756 379.742 172.188 379.751 172.904V172.956C379.823 179.483 380.154 209.39 376.248 233.692L376.243 233.716L376.224 233.731C375.783 234.004 375.343 234.187 374.911 234.292C374.432 234.413 373.962 234.441 373.517 234.408C372.994 234.369 372.501 234.24 372.055 234.067C371.518 233.855 371.054 233.577 370.689 233.303L370.67 233.289V233.265C370.632 229.754 370.565 225.47 370.435 220.725C370.306 215.98 370.119 210.764 369.836 205.385C369.549 199.881 369.17 194.199 368.657 188.647C368.149 183.095 367.512 177.677 366.717 172.707C366.707 172.635 366.659 172.428 366.587 172.092C365.859 168.73 362.38 152.621 362.255 132.58C362.217 126.403 362.428 118.896 363.151 111.731C363.717 106.126 364.594 100.728 365.907 96.3331L365.926 96.2706L365.983 96.3043C368.13 97.5001 370.421 98.6528 372.755 99.5317C375.089 100.411 377.465 101.021 379.775 101.141C382.502 101.28 385.214 101.121 387.821 100.747C390.759 100.329 393.567 99.6422 396.112 98.8161L396.165 98.7969L396.184 98.8449ZM397.995 104.32C397.228 102.361 396.519 100.564 396.093 98.9266C393.558 99.7478 390.764 100.43 387.836 100.848C385.224 101.217 382.507 101.381 379.77 101.241C377.446 101.121 375.06 100.511 372.716 99.6278C370.397 98.7537 368.121 97.6106 365.988 96.4243C364.685 100.8 363.813 106.164 363.252 111.74C362.528 118.901 362.317 126.403 362.356 132.58C362.48 152.607 365.959 168.706 366.683 172.068C366.755 172.404 366.798 172.611 366.812 172.687C367.608 177.663 368.245 183.081 368.753 188.637C369.261 194.194 369.645 199.876 369.932 205.38C370.21 210.759 370.402 215.975 370.531 220.725C370.661 225.46 370.728 229.735 370.766 233.241C371.121 233.505 371.566 233.774 372.084 233.975C372.52 234.144 373.004 234.268 373.517 234.307C373.953 234.34 374.413 234.312 374.878 234.192C375.295 234.086 375.716 233.913 376.143 233.654C380.044 209.361 379.713 179.479 379.641 172.956V172.904C379.632 172.183 379.627 171.751 379.631 171.636C379.703 169.926 379.823 167.702 379.967 165.051L379.981 164.801C380.475 155.642 381.237 141.532 381.314 128.099L381.318 127.657L382.67 133.492C384.385 141.349 386.954 151.051 389.666 161.31C391.895 169.729 394.224 178.523 396.265 187C400.626 205.087 404.076 221.147 405.749 228.933C406.132 230.719 406.425 232.074 406.607 232.904C406.937 233.149 407.359 233.332 407.833 233.447C408.351 233.572 408.926 233.625 409.511 233.61C410.091 233.591 410.675 233.51 411.207 233.361C411.715 233.221 412.18 233.025 412.559 232.78C412.578 221.2 411.926 208.602 410.752 195.851C409.525 182.475 407.723 168.927 405.519 156.2V156.195C405.313 154.514 405.327 152.833 405.346 151.171C405.361 149.73 405.375 148.304 405.246 146.901C404.68 140.869 404.086 135.077 403.425 129.64C402.763 124.213 402.04 119.146 401.211 114.574C400.53 110.77 399.188 107.355 397.995 104.32Z" fill="#404040"/>
<path fill-rule="evenodd" clip-rule="evenodd" d="M381.37 127.935C381.298 141.421 380.532 155.614 380.038 164.806C379.889 167.563 379.765 169.873 379.688 171.626C379.683 171.746 379.688 172.197 379.698 172.947C379.77 179.469 380.1 209.376 376.195 233.678C375.275 234.244 374.354 234.412 373.516 234.35C372.371 234.264 371.374 233.755 370.717 233.255C370.641 226.229 370.444 216.133 369.888 205.37C369.313 194.367 368.359 182.634 366.768 172.687C363.146 149.961 360.884 117.945 366.299 96.4051L365 96.1649C359.029 119.05 361.833 150.071 365.479 172.971C367.061 182.845 368.01 194.511 368.58 205.461C369.15 216.445 369.342 226.675 369.414 233.678L369.419 234.067L369.677 234.297C370.458 234.989 371.834 235.786 373.439 235.911C374.594 235.997 375.864 235.743 377.124 234.859L377.378 234.681L377.436 234.336C381.423 209.837 381.088 179.522 381.016 172.937C381.006 172.241 381.001 171.813 381.006 171.712C381.078 170.051 381.203 167.712 381.356 164.912C381.787 156.91 382.425 145.124 382.631 133.285L381.37 127.935Z" fill="#333333"/>
<path fill-rule="evenodd" clip-rule="evenodd" d="M369.73 233.255C368.163 233.903 366.246 234.561 364.291 235.234C360.361 236.583 356.269 237.991 353.916 239.715C351.826 241.247 351.021 243 352.564 245.108L352.627 245.19L352.708 245.252C353.642 246.002 358.281 246.126 363.51 245.805C368.575 245.492 374.278 244.801 377.656 243.908L377.738 243.888C378.519 243.711 380.426 243.307 378.916 237.736C378.859 237.529 378.452 236.631 378.073 235.776C377.761 235.085 377.464 234.422 377.431 234.321L375.95 234.811C376.003 234.974 376.319 235.68 376.655 236.42C377.014 237.217 377.392 238.063 377.416 238.144C378.504 242.15 377.862 242.265 377.397 242.371L377.282 242.395C374.004 243.264 368.407 243.941 363.423 244.244C358.679 244.537 354.577 244.532 353.757 244.076C352.996 242.933 353.556 241.91 354.845 240.959C356.997 239.379 360.979 238.01 364.803 236.699C366.749 236.031 368.656 235.373 370.324 234.686L369.73 233.255Z" fill="#333333"/>
<path fill-rule="evenodd" clip-rule="evenodd" d="M373.803 113.027C374.641 113.921 375.59 114.713 376.64 115.294C377.728 115.895 378.926 116.279 380.239 116.327L380.771 116.346L380.833 116.97C382.539 134.294 387.154 151.459 392.603 171.717C397.256 189.021 402.518 208.583 407.099 232.429C407.914 232.866 408.795 232.972 409.658 232.9C410.482 232.827 411.287 232.587 412.001 232.299C411.853 225.23 411.508 214.543 410.736 203.185C410.19 195.121 409.433 186.75 408.378 179.147C408.235 178.095 408.086 177.096 407.942 176.145C407.794 175.185 407.64 174.234 407.482 173.307C407.358 172.582 407.19 171.659 407.027 170.766C406.596 168.394 406.198 166.223 405.973 163.519C404.195 141.978 403.711 120.428 395.555 99.0801L396.719 98.6431C404.856 117.821 405.47 142.521 407.19 163.384C407.406 165.968 407.794 168.115 408.225 170.464C408.359 171.203 408.498 171.967 408.68 173.023C408.838 173.965 408.997 174.921 409.145 175.891C409.303 176.919 409.452 177.927 409.586 178.912C410.65 186.577 411.412 194.986 411.958 203.07C412.744 214.683 413.683 226.152 413.827 233.26L413.837 233.774L413.429 233.956C411.469 234.835 407.334 235.383 405.848 233.178L405.786 232.851C401.2 208.895 396.106 189.511 391.438 172.159C386.028 152.05 381.442 134.981 379.678 117.744C378.394 117.619 377.21 117.211 376.127 116.61C374.934 115.947 373.865 115.054 372.931 114.046C372.092 113.143 372.974 112.144 373.803 113.027Z" fill="#333333"/>
<path fill-rule="evenodd" clip-rule="evenodd" d="M406.599 232.784C405.199 233.745 402.703 235.354 400.93 236.42C397.369 238.562 393.66 240.8 391.724 242.976C390.004 244.911 389.582 246.794 391.527 248.533L391.604 248.6L391.695 248.648C392.764 249.186 397.331 248.336 402.377 246.924C407.265 245.555 412.699 243.687 415.814 242.106L415.891 242.073C416.619 241.737 418.402 240.939 415.761 235.81C415.661 235.623 415.076 234.826 414.525 234.071C414.075 233.462 413.648 232.876 413.591 232.78L412.244 233.567C412.33 233.711 412.786 234.34 413.27 234.994C413.787 235.7 414.338 236.449 414.372 236.521C416.269 240.209 415.666 240.459 415.234 240.656L415.129 240.704C412.105 242.241 406.771 244.076 401.96 245.42C397.383 246.698 393.368 247.558 392.471 247.284C391.489 246.328 391.82 245.204 392.884 244.008C394.657 242.015 398.27 239.84 401.73 237.755C403.493 236.694 405.985 235.09 407.476 234.067L406.599 232.784Z" fill="#333333"/>
<path fill-rule="evenodd" clip-rule="evenodd" d="M355.137 240.819C355.065 240.867 354.993 240.92 354.921 240.973C353.632 241.919 353.072 242.947 353.834 244.09C354.653 244.546 358.76 244.546 363.499 244.258C368.488 243.951 374.085 243.278 377.358 242.409L377.473 242.385C377.775 242.318 378.159 242.246 378.077 241.079C378.034 240.464 377.866 239.542 377.492 238.159C377.473 238.082 377.09 237.232 376.731 236.434C376.563 236.06 376.395 235.695 376.27 235.402C375.322 235.848 374.382 235.978 373.51 235.911C372.24 235.815 371.114 235.291 370.309 234.739C368.661 235.416 366.787 236.06 364.875 236.718C361.18 237.981 357.327 239.302 355.137 240.819Z" fill="#FEFEFE"/>
<path fill-rule="evenodd" clip-rule="evenodd" d="M401.734 237.76C399.778 238.937 397.775 240.142 396.084 241.328C394.78 242.246 393.659 243.144 392.883 244.013C391.819 245.209 391.488 246.328 392.47 247.289C393.367 247.562 397.382 246.703 401.959 245.425C405.826 244.345 410.034 242.947 413.106 241.641C413.853 241.324 414.534 241.011 415.128 240.709L415.233 240.661C415.665 240.459 416.268 240.214 414.371 236.526C414.332 236.454 413.786 235.704 413.268 234.998C413.072 234.734 412.885 234.475 412.722 234.249C411.122 234.758 408.821 234.994 407.221 234.249C405.711 235.272 403.397 236.756 401.734 237.76Z" fill="#FEFEFE"/>
<path d="M365.5 96.5C365.5 96.5 371.5 101 380.5 101.5C389.5 102 395.5 99 395.5 99" stroke="#333333" stroke-linecap="round" stroke-linejoin="round"/>
<path d="M148.159 224.528L143.299 188.267L106.23 199.874L110.716 236.509L148.159 224.528Z" fill="#CCCCCC" stroke="#333333"/>
<path d="M142.679 224.641L144.188 188.288L180.471 199.884L179.596 236.611L142.679 224.641Z" fill="#CCCCCC" stroke="#333333"/>
<mask id="path-51-inside-1_9048_313241" fill="white">
<path fill-rule="evenodd" clip-rule="evenodd" d="M144.53 174.5C144.145 173.833 143.183 173.833 142.798 174.5L132.405 192.5C132.021 193.167 132.502 194 133.272 194H138.664V216C138.664 216.552 139.112 217 139.664 217H147.664C148.216 217 148.664 216.552 148.664 216V194H154.056C154.826 194 155.307 193.167 154.922 192.5L144.53 174.5Z"/>
</mask>
<path fill-rule="evenodd" clip-rule="evenodd" d="M144.53 174.5C144.145 173.833 143.183 173.833 142.798 174.5L132.405 192.5C132.021 193.167 132.502 194 133.272 194H138.664V216C138.664 216.552 139.112 217 139.664 217H147.664C148.216 217 148.664 216.552 148.664 216V194H154.056C154.826 194 155.307 193.167 154.922 192.5L144.53 174.5Z" fill="url(#paint3_linear_9048_313241)"/>
<path d="M142.798 174.5L143.664 175V175L142.798 174.5ZM144.53 174.5L143.664 175L144.53 174.5ZM132.405 192.5L133.272 193H133.272L132.405 192.5ZM138.664 194H139.664V193H138.664V194ZM148.664 194V193H147.664V194H148.664ZM154.922 192.5L154.056 193L154.056 193L154.922 192.5ZM143.664 175L143.664 175L145.396 174C144.626 172.667 142.702 172.667 141.932 174L143.664 175ZM133.272 193L143.664 175L141.932 174L131.539 192L133.272 193ZM133.272 193H133.272L131.539 192C130.77 193.333 131.732 195 133.272 195V193ZM138.664 193H133.272V195H138.664V193ZM139.664 216V194H137.664V216H139.664ZM139.664 216H139.664H137.664C137.664 217.105 138.559 218 139.664 218V216ZM147.664 216H139.664V218H147.664V216ZM147.664 216H147.664V218C148.768 218 149.664 217.105 149.664 216H147.664ZM147.664 194V216H149.664V194H147.664ZM154.056 193H148.664V195H154.056V193ZM154.056 193L154.056 193V195C155.596 195 156.558 193.333 155.788 192L154.056 193ZM143.664 175L154.056 193L155.788 192L145.396 174L143.664 175Z" fill="black" mask="url(#path-51-inside-1_9048_313241)"/>
<path d="M106.952 201.369C106.952 201.03 107.282 200.789 107.604 200.892L143.604 212.376C143.811 212.442 143.952 212.634 143.952 212.852V248.631C143.952 248.97 143.623 249.211 143.3 249.108L107.3 237.624C107.093 237.558 106.952 237.366 106.952 237.148V201.369Z" fill="#D9F4FF" stroke="#333333"/>
<path d="M105.676 200.435C105.798 200.245 106.032 200.16 106.247 200.227L142.603 211.608C142.917 211.707 143.052 212.077 142.875 212.354L136.324 222.608C136.202 222.798 135.968 222.883 135.753 222.816L99.3974 211.435C99.083 211.337 98.948 210.966 99.1254 210.689L105.676 200.435Z" fill="#9ADAF3" stroke="#333333"/>
<path d="M179.952 201.369C179.952 201.03 179.623 200.789 179.3 200.892L143.3 212.376C143.093 212.442 142.952 212.634 142.952 212.852V248.631C142.952 248.97 143.282 249.211 143.604 249.108L179.604 237.624C179.811 237.558 179.952 237.366 179.952 237.148V201.369Z" fill="#9ADAF3" stroke="#333333"/>
<path d="M180.987 200.435C180.866 200.245 180.632 200.16 180.416 200.227L144.061 211.608C143.746 211.707 143.611 212.077 143.789 212.354L150.34 222.608C150.461 222.798 150.695 222.883 150.91 222.816L187.266 211.435C187.58 211.337 187.715 210.966 187.538 210.689L180.987 200.435Z" fill="#D9F4FF" stroke="#333333"/>
<defs>
<linearGradient id="paint0_linear_9048_313241" x1="104" y1="70.2031" x2="143.264" y2="140.268" gradientUnits="userSpaceOnUse">
<stop stop-color="#FF8E3D"/>
<stop offset="1" stop-color="#FF6F3D"/>
</linearGradient>
<linearGradient id="paint1_linear_9048_313241" x1="364.638" y1="4.01339" x2="403.813" y2="48.0735" gradientUnits="userSpaceOnUse">
<stop stop-color="#FFC671"/>
<stop offset="0.59375" stop-color="#FF7541"/>
<stop offset="1" stop-color="#FF6F3D"/>
</linearGradient>
<linearGradient id="paint2_linear_9048_313241" x1="375.134" y1="11.924" x2="388.358" y2="27.5774" gradientUnits="userSpaceOnUse">
<stop stop-color="#FFAA60"/>
<stop offset="1" stop-color="#FF7541"/>
</linearGradient>
<linearGradient id="paint3_linear_9048_313241" x1="132.27" y1="172.32" x2="168.634" y2="192.344" gradientUnits="userSpaceOnUse">
<stop stop-color="#FF8E3D"/>
<stop offset="1" stop-color="#FF6F3D"/>
</linearGradient>
</defs>
</svg>
