<svg width="448" height="254" viewBox="0 0 448 254" fill="none" xmlns="http://www.w3.org/2000/svg">
<path d="M222.431 253.553C332.682 253.553 422.059 251.414 422.059 248.776C422.059 246.138 332.682 244 222.431 244C112.18 244 22.8032 246.138 22.8032 248.776C22.8032 251.414 112.18 253.553 222.431 253.553Z" fill="#EFEFEF"/>
<path d="M307.495 16.4962V188.5H6.5V16.4962C6.5 12.5941 9.59981 9.5 13.5052 9.5H300.495C304.315 9.5 307.358 12.4541 307.495 16.23V16.4962Z" fill="#AAAAAA" stroke="#333333"/>
<path d="M12.5 182.5V15.5H301.5V182.5H12.5Z" fill="white" stroke="#333333"/>
<path d="M19.466 30.4497C19.3305 30.6668 19.1783 30.947 19.049 31.1576C18.9936 31.2558 18.9774 31.3727 19.0039 31.4832C19.0304 31.5936 19.0975 31.6888 19.1908 31.7483L21.9013 33.4855C21.9484 33.5158 22.0008 33.536 22.0555 33.545C22.1102 33.554 22.166 33.5515 22.2198 33.5378C22.2735 33.524 22.3241 33.4993 22.3686 33.4649C22.4131 33.4306 22.4506 33.3874 22.4788 33.3379C22.5873 33.1489 22.727 32.9035 22.8792 32.643C23.9529 30.795 25.033 31.0208 26.9803 31.9915L29.6658 33.3227C29.7162 33.3476 29.7709 33.3618 29.8266 33.3644C29.8824 33.367 29.938 33.3578 29.9903 33.3376C30.0426 33.3173 30.0905 33.2864 30.1311 33.2465C30.1717 33.2066 30.2042 33.1587 30.2267 33.1055L31.5173 30.0653C31.5635 29.961 31.5681 29.842 31.5302 29.7341C31.4923 29.6263 31.415 29.5384 31.3151 29.4899C30.7458 29.2119 29.6179 28.6582 28.6046 28.1478C24.9454 26.3064 21.8408 26.428 19.466 30.4497Z" fill="url(#paint0_linear_9048_313484)"/>
<path d="M31.6172 23.5505C31.7527 23.3333 31.907 23.0532 32.0342 22.8404C32.0892 22.7427 32.1053 22.6265 32.0792 22.5166C32.0531 22.4067 31.9868 22.3117 31.8945 22.2519L29.184 20.5147C29.1369 20.4844 29.0844 20.4642 29.0298 20.4552C28.9751 20.4463 28.9192 20.4487 28.8655 20.4625C28.8117 20.4762 28.7611 20.501 28.7166 20.5353C28.6722 20.5696 28.6347 20.6128 28.6064 20.6624C28.5001 20.8535 28.3604 21.0967 28.2061 21.3594C27.124 23.1922 26.0439 22.975 24.0986 22.0109L21.411 20.6797C21.3606 20.6548 21.306 20.6406 21.2502 20.638C21.1945 20.6355 21.1388 20.6446 21.0865 20.6648C21.0342 20.6851 20.9863 20.716 20.9457 20.7559C20.9051 20.7958 20.8726 20.8437 20.8502 20.8969L19.5595 23.937C19.5186 24.0396 19.5169 24.1546 19.555 24.2584C19.593 24.3623 19.6677 24.4469 19.7639 24.4951C20.331 24.773 21.459 25.329 22.4744 25.8371C26.1398 27.6937 29.2444 27.57 31.6172 23.5505Z" fill="url(#paint1_linear_9048_313484)"/>
<path d="M194 248.5H194.561L194.497 247.943L190.831 215.943L190.78 215.5H190.334H122.4H121.964L121.905 215.932L117.505 247.932L117.427 248.5H118H194Z" fill="#CCCCCC" stroke="#333333"/>
<path d="M6.5 208.442V188.5H307.5V208.442C307.5 212.382 304.396 215.5 300.495 215.5H13.5054C9.59909 215.5 6.5 212.383 6.5 208.442Z" fill="#E2E2E2" stroke="#333333"/>
<path d="M107.333 251.5L117.106 248.5H194.894L204.667 251.5H107.333Z" fill="#E2E2E2" stroke="#333333"/>
<path d="M207.281 252.5L206.909 253.5H104.986L104.677 252.5H207.281Z" fill="#AAAAAA" stroke="#333333"/>
<path d="M162.5 201.497C162.5 204.26 160.259 206.5 157.5 206.5C154.741 206.5 152.5 204.26 152.5 201.497C152.5 198.74 154.74 196.5 157.5 196.5C160.26 196.5 162.5 198.735 162.5 201.497Z" fill="#AAAAAA" stroke="#333333"/>
<path d="M79.8281 55C79.8281 55.8542 79.6719 56.5885 79.3594 57.2031C79.0469 57.8151 78.6185 58.2865 78.0742 58.6172C77.5326 58.9453 76.9167 59.1094 76.2266 59.1094C75.5339 59.1094 74.9154 58.9453 74.3711 58.6172C73.8294 58.2865 73.4023 57.8138 73.0898 57.1992C72.7773 56.5846 72.6211 55.8516 72.6211 55C72.6211 54.1458 72.7773 53.4128 73.0898 52.8008C73.4023 52.1862 73.8294 51.7148 74.3711 51.3867C74.9154 51.056 75.5339 50.8906 76.2266 50.8906C76.9167 50.8906 77.5326 51.056 78.0742 51.3867C78.6185 51.7148 79.0469 52.1862 79.3594 52.8008C79.6719 53.4128 79.8281 54.1458 79.8281 55ZM78.6328 55C78.6328 54.349 78.5273 53.8008 78.3164 53.3555C78.1081 52.9076 77.8216 52.569 77.457 52.3398C77.0951 52.1081 76.6849 51.9922 76.2266 51.9922C75.7656 51.9922 75.3542 52.1081 74.9922 52.3398C74.6302 52.569 74.3438 52.9076 74.1328 53.3555C73.9245 53.8008 73.8203 54.349 73.8203 55C73.8203 55.651 73.9245 56.2005 74.1328 56.6484C74.3438 57.0937 74.6302 57.4323 74.9922 57.6641C75.3542 57.8932 75.7656 58.0078 76.2266 58.0078C76.6849 58.0078 77.0951 57.8932 77.457 57.6641C77.8216 57.4323 78.1081 57.0937 78.3164 56.6484C78.5273 56.2005 78.6328 55.651 78.6328 55ZM87.79 51V59H86.6807L82.6143 53.1328H82.54V59H81.333V51H82.4502L86.5205 56.875H86.5947V51H87.79ZM89.5508 59V51H90.7578V57.9609H94.3828V59H89.5508ZM94.5518 51H95.9229L98.0127 54.6367H98.0986L100.188 51H101.56L98.6572 55.8594V59H97.4541V55.8594L94.5518 51ZM109.24 55C109.24 55.8542 109.084 56.5885 108.771 57.2031C108.459 57.8151 108.031 58.2865 107.486 58.6172C106.945 58.9453 106.329 59.1094 105.639 59.1094C104.946 59.1094 104.327 58.9453 103.783 58.6172C103.242 58.2865 102.814 57.8138 102.502 57.1992C102.189 56.5846 102.033 55.8516 102.033 55C102.033 54.1458 102.189 53.4128 102.502 52.8008C102.814 52.1862 103.242 51.7148 103.783 51.3867C104.327 51.056 104.946 50.8906 105.639 50.8906C106.329 50.8906 106.945 51.056 107.486 51.3867C108.031 51.7148 108.459 52.1862 108.771 52.8008C109.084 53.4128 109.24 54.1458 109.24 55ZM108.045 55C108.045 54.349 107.939 53.8008 107.729 53.3555C107.52 52.9076 107.234 52.569 106.869 52.3398C106.507 52.1081 106.097 51.9922 105.639 51.9922C105.178 51.9922 104.766 52.1081 104.404 52.3398C104.042 52.569 103.756 52.9076 103.545 53.3555C103.337 53.8008 103.232 54.349 103.232 55C103.232 55.651 103.337 56.2005 103.545 56.6484C103.756 57.0937 104.042 57.4323 104.404 57.6641C104.766 57.8932 105.178 58.0078 105.639 58.0078C106.097 58.0078 106.507 57.8932 106.869 57.6641C107.234 57.4323 107.52 57.0937 107.729 56.6484C107.939 56.2005 108.045 55.651 108.045 55ZM110.745 59V51H115.706V52.0391H111.952V54.4766H115.351V55.5117H111.952V59H110.745ZM117.19 59V51H122.151V52.0391H118.397V54.4766H121.796V55.5117H118.397V59H117.19ZM124.843 51V59H123.636V51H124.843ZM133.245 53.6016H132.026C131.979 53.3411 131.892 53.112 131.765 52.9141C131.637 52.7161 131.481 52.5482 131.296 52.4102C131.111 52.2721 130.904 52.168 130.675 52.0977C130.448 52.0273 130.207 51.9922 129.952 51.9922C129.491 51.9922 129.078 52.1081 128.714 52.3398C128.352 52.5716 128.065 52.9115 127.854 53.3594C127.646 53.8073 127.542 54.3542 127.542 55C127.542 55.651 127.646 56.2005 127.854 56.6484C128.065 57.0964 128.353 57.4349 128.718 57.6641C129.082 57.8932 129.493 58.0078 129.948 58.0078C130.201 58.0078 130.44 57.974 130.667 57.9062C130.896 57.8359 131.103 57.7331 131.288 57.5977C131.473 57.4622 131.629 57.2969 131.757 57.1016C131.887 56.9036 131.977 56.6771 132.026 56.4219L133.245 56.4258C133.18 56.819 133.054 57.181 132.866 57.5117C132.681 57.8398 132.443 58.1237 132.151 58.3633C131.862 58.6003 131.532 58.7839 131.159 58.9141C130.787 59.0443 130.381 59.1094 129.94 59.1094C129.248 59.1094 128.631 58.9453 128.089 58.6172C127.547 58.2865 127.12 57.8138 126.808 57.1992C126.498 56.5846 126.343 55.8516 126.343 55C126.343 54.1458 126.499 53.4128 126.812 52.8008C127.124 52.1862 127.551 51.7148 128.093 51.3867C128.634 51.056 129.25 50.8906 129.94 50.8906C130.365 50.8906 130.761 50.9518 131.128 51.0742C131.498 51.194 131.83 51.3711 132.124 51.6055C132.418 51.8372 132.662 52.1211 132.854 52.457C133.047 52.7904 133.177 53.1719 133.245 53.6016ZM134.689 59V51H139.705V52.0391H135.896V54.4766H139.443V55.5117H135.896V57.9609H139.752V59H134.689ZM150.873 53.6016H149.654C149.607 53.3411 149.52 53.112 149.393 52.9141C149.265 52.7161 149.109 52.5482 148.924 52.4102C148.739 52.2721 148.532 52.168 148.303 52.0977C148.076 52.0273 147.835 51.9922 147.58 51.9922C147.119 51.9922 146.706 52.1081 146.342 52.3398C145.98 52.5716 145.693 52.9115 145.482 53.3594C145.274 53.8073 145.17 54.3542 145.17 55C145.17 55.651 145.274 56.2005 145.482 56.6484C145.693 57.0964 145.981 57.4349 146.346 57.6641C146.71 57.8932 147.12 58.0078 147.576 58.0078C147.829 58.0078 148.068 57.974 148.295 57.9062C148.524 57.8359 148.731 57.7331 148.916 57.5977C149.101 57.4622 149.257 57.2969 149.385 57.1016C149.515 56.9036 149.605 56.6771 149.654 56.4219L150.873 56.4258C150.808 56.819 150.682 57.181 150.494 57.5117C150.309 57.8398 150.071 58.1237 149.779 58.3633C149.49 58.6003 149.16 58.7839 148.787 58.9141C148.415 59.0443 148.008 59.1094 147.568 59.1094C146.876 59.1094 146.258 58.9453 145.717 58.6172C145.175 58.2865 144.748 57.8138 144.436 57.1992C144.126 56.5846 143.971 55.8516 143.971 55C143.971 54.1458 144.127 53.4128 144.439 52.8008C144.752 52.1862 145.179 51.7148 145.721 51.3867C146.262 51.056 146.878 50.8906 147.568 50.8906C147.993 50.8906 148.389 50.9518 148.756 51.0742C149.126 51.194 149.458 51.3711 149.752 51.6055C150.046 51.8372 150.29 52.1211 150.482 52.457C150.675 52.7904 150.805 53.1719 150.873 53.6016ZM154.751 59.1211C154.188 59.1211 153.698 58.9922 153.278 58.7344C152.859 58.4766 152.534 58.1159 152.302 57.6523C152.07 57.1888 151.954 56.6471 151.954 56.0273C151.954 55.4049 152.07 54.8607 152.302 54.3945C152.534 53.9284 152.859 53.5664 153.278 53.3086C153.698 53.0508 154.188 52.9219 154.751 52.9219C155.313 52.9219 155.804 53.0508 156.224 53.3086C156.643 53.5664 156.968 53.9284 157.2 54.3945C157.432 54.8607 157.548 55.4049 157.548 56.0273C157.548 56.6471 157.432 57.1888 157.2 57.6523C156.968 58.1159 156.643 58.4766 156.224 58.7344C155.804 58.9922 155.313 59.1211 154.751 59.1211ZM154.755 58.1406C155.119 58.1406 155.422 58.0443 155.661 57.8516C155.901 57.6589 156.078 57.4023 156.192 57.082C156.31 56.7617 156.368 56.4089 156.368 56.0234C156.368 55.6406 156.31 55.2891 156.192 54.9687C156.078 54.6458 155.901 54.3867 155.661 54.1914C155.422 53.9961 155.119 53.8984 154.755 53.8984C154.388 53.8984 154.083 53.9961 153.841 54.1914C153.601 54.3867 153.423 54.6458 153.306 54.9687C153.191 55.2891 153.134 55.6406 153.134 56.0234C153.134 56.4089 153.191 56.7617 153.306 57.082C153.423 57.4023 153.601 57.6589 153.841 57.8516C154.083 58.0443 154.388 58.1406 154.755 58.1406ZM160.02 55.4375V59H158.852V53H159.973V53.9766H160.047C160.185 53.6589 160.401 53.4036 160.695 53.2109C160.992 53.0182 161.366 52.9219 161.816 52.9219C162.225 52.9219 162.583 53.0078 162.891 53.1797C163.198 53.349 163.436 53.6016 163.605 53.9375C163.775 54.2734 163.859 54.6888 163.859 55.1836V59H162.691V55.3242C162.691 54.8893 162.578 54.5495 162.352 54.3047C162.125 54.0573 161.814 53.9336 161.418 53.9336C161.147 53.9336 160.906 53.9922 160.695 54.1094C160.487 54.2266 160.322 54.3984 160.199 54.625C160.079 54.849 160.02 55.1198 160.02 55.4375ZM168.281 53V53.9375H164.891V53H168.281ZM165.82 59V52.3047C165.82 51.9297 165.902 51.6185 166.066 51.3711C166.23 51.1211 166.448 50.9349 166.719 50.8125C166.99 50.6875 167.284 50.625 167.602 50.625C167.836 50.625 168.036 50.6445 168.203 50.6836C168.37 50.7201 168.493 50.7539 168.574 50.7852L168.301 51.7305C168.246 51.7148 168.176 51.6966 168.09 51.6758C168.004 51.6523 167.9 51.6406 167.777 51.6406C167.493 51.6406 167.29 51.7109 167.168 51.8516C167.048 51.9922 166.988 52.1953 166.988 52.4609V59H165.82ZM169.486 59V53H170.654V59H169.486ZM170.076 52.0742C169.873 52.0742 169.699 52.0065 169.553 51.8711C169.41 51.7331 169.338 51.569 169.338 51.3789C169.338 51.1862 169.41 51.0221 169.553 50.8867C169.699 50.7487 169.873 50.6797 170.076 50.6797C170.279 50.6797 170.452 50.7487 170.596 50.8867C170.742 51.0221 170.814 51.1862 170.814 51.3789C170.814 51.569 170.742 51.7331 170.596 51.8711C170.452 52.0065 170.279 52.0742 170.076 52.0742ZM174.741 61.375C174.265 61.375 173.854 61.3125 173.511 61.1875C173.17 61.0625 172.891 60.8971 172.675 60.6914C172.459 60.4857 172.297 60.2604 172.19 60.0156L173.194 59.6016C173.265 59.7161 173.358 59.8372 173.476 59.9648C173.595 60.0951 173.757 60.2057 173.96 60.2969C174.166 60.388 174.43 60.4336 174.753 60.4336C175.196 60.4336 175.562 60.3255 175.851 60.1094C176.14 59.8958 176.284 59.5547 176.284 59.0859V57.9062H176.21C176.14 58.0339 176.038 58.1758 175.905 58.332C175.775 58.4883 175.595 58.6237 175.366 58.7383C175.137 58.8529 174.839 58.9102 174.472 58.9102C173.998 58.9102 173.571 58.7995 173.19 58.5781C172.813 58.3542 172.513 58.0247 172.292 57.5898C172.073 57.1523 171.964 56.6146 171.964 55.9766C171.964 55.3385 172.072 54.7917 172.288 54.3359C172.507 53.8802 172.806 53.5312 173.187 53.2891C173.567 53.0443 173.998 52.9219 174.479 52.9219C174.852 52.9219 175.153 52.9844 175.382 53.1094C175.611 53.2318 175.789 53.375 175.917 53.5391C176.047 53.7031 176.147 53.8477 176.218 53.9727H176.304V53H177.448V59.1328C177.448 59.6484 177.328 60.0716 177.089 60.4023C176.849 60.7331 176.525 60.9779 176.116 61.1367C175.71 61.2956 175.252 61.375 174.741 61.375ZM174.729 57.9414C175.065 57.9414 175.349 57.8633 175.581 57.707C175.815 57.5482 175.993 57.3216 176.112 57.0273C176.235 56.7305 176.296 56.375 176.296 55.9609C176.296 55.5573 176.236 55.2018 176.116 54.8945C175.996 54.5872 175.821 54.3477 175.589 54.1758C175.357 54.0013 175.071 53.9141 174.729 53.9141C174.378 53.9141 174.085 54.0052 173.851 54.1875C173.616 54.3672 173.439 54.612 173.319 54.9219C173.202 55.2318 173.144 55.5781 173.144 55.9609C173.144 56.3542 173.203 56.6992 173.323 56.9961C173.443 57.293 173.62 57.5247 173.854 57.6914C174.091 57.8581 174.383 57.9414 174.729 57.9414ZM182.815 56.5117V53H183.987V59H182.839V57.9609H182.776C182.638 58.2813 182.417 58.5482 182.112 58.7617C181.81 58.9727 181.434 59.0781 180.983 59.0781C180.598 59.0781 180.257 58.9935 179.96 58.8242C179.666 58.6523 179.434 58.3984 179.265 58.0625C179.098 57.7266 179.015 57.3112 179.015 56.8164V53H180.183V56.6758C180.183 57.0846 180.296 57.4102 180.522 57.6523C180.749 57.8945 181.043 58.0156 181.405 58.0156C181.624 58.0156 181.841 57.9609 182.058 57.8516C182.276 57.7422 182.457 57.5768 182.601 57.3555C182.746 57.1341 182.818 56.8529 182.815 56.5117ZM185.557 59V53H186.686V53.9531H186.748C186.857 53.6302 187.05 53.3763 187.326 53.1914C187.605 53.0039 187.92 52.9102 188.271 52.9102C188.344 52.9102 188.43 52.9128 188.529 52.918C188.631 52.9232 188.71 52.9297 188.768 52.9375V54.0547C188.721 54.0417 188.637 54.0273 188.518 54.0117C188.398 53.9935 188.278 53.9844 188.158 53.9844C187.882 53.9844 187.636 54.043 187.42 54.1602C187.206 54.2747 187.037 54.4349 186.912 54.6406C186.787 54.8437 186.725 55.0755 186.725 55.3359V59H185.557ZM191.471 59.1328C191.09 59.1328 190.747 59.0625 190.439 58.9219C190.132 58.7786 189.889 58.5716 189.709 58.3008C189.532 58.0299 189.443 57.6979 189.443 57.3047C189.443 56.9661 189.508 56.6875 189.639 56.4687C189.769 56.25 189.945 56.0768 190.166 55.9492C190.387 55.8216 190.635 55.7253 190.908 55.6602C191.182 55.5951 191.46 55.5456 191.744 55.5117C192.104 55.4701 192.395 55.4362 192.619 55.4102C192.843 55.3815 193.006 55.3359 193.107 55.2734C193.209 55.2109 193.26 55.1094 193.26 54.9687V54.9414C193.26 54.6003 193.163 54.3359 192.971 54.1484C192.781 53.9609 192.497 53.8672 192.119 53.8672C191.726 53.8672 191.416 53.9544 191.189 54.1289C190.965 54.3008 190.811 54.4922 190.725 54.7031L189.627 54.4531C189.757 54.0885 189.947 53.7943 190.197 53.5703C190.45 53.3437 190.74 53.1797 191.068 53.0781C191.396 52.974 191.742 52.9219 192.104 52.9219C192.343 52.9219 192.597 52.9505 192.865 53.0078C193.136 53.0625 193.389 53.1641 193.623 53.3125C193.86 53.4609 194.054 53.6732 194.205 53.9492C194.356 54.2227 194.432 54.5781 194.432 55.0156V59H193.291V58.1797H193.244C193.169 58.3307 193.055 58.4792 192.904 58.625C192.753 58.7708 192.559 58.8919 192.322 58.9883C192.085 59.0846 191.801 59.1328 191.471 59.1328ZM191.725 58.1953C192.048 58.1953 192.324 58.1315 192.553 58.0039C192.785 57.8763 192.96 57.7096 193.08 57.5039C193.202 57.2956 193.264 57.0729 193.264 56.8359V56.0625C193.222 56.1042 193.141 56.1432 193.021 56.1797C192.904 56.2135 192.77 56.2435 192.619 56.2695C192.468 56.293 192.321 56.3151 192.178 56.3359C192.035 56.3542 191.915 56.3698 191.818 56.3828C191.592 56.4115 191.385 56.4596 191.197 56.5273C191.012 56.5951 190.864 56.6927 190.752 56.8203C190.643 56.9453 190.588 57.112 190.588 57.3203C190.588 57.6094 190.695 57.8281 190.908 57.9766C191.122 58.1224 191.394 58.1953 191.725 58.1953ZM198.788 53V53.9375H195.511V53H198.788ZM196.39 51.5625H197.558V57.2383C197.558 57.4648 197.591 57.6354 197.659 57.75C197.727 57.862 197.814 57.9388 197.921 57.9805C198.03 58.0195 198.149 58.0391 198.276 58.0391C198.37 58.0391 198.452 58.0326 198.522 58.0195C198.593 58.0065 198.647 57.9961 198.687 57.9883L198.897 58.9531C198.83 58.9792 198.733 59.0052 198.608 59.0313C198.483 59.0599 198.327 59.0755 198.14 59.0781C197.832 59.0833 197.546 59.0286 197.28 58.9141C197.015 58.7995 196.8 58.6224 196.636 58.3828C196.472 58.1432 196.39 57.8424 196.39 57.4805V51.5625ZM200.08 59V53H201.248V59H200.08ZM200.67 52.0742C200.467 52.0742 200.292 52.0065 200.146 51.8711C200.003 51.7331 199.932 51.569 199.932 51.3789C199.932 51.1862 200.003 51.0221 200.146 50.8867C200.292 50.7487 200.467 50.6797 200.67 50.6797C200.873 50.6797 201.046 50.7487 201.189 50.8867C201.335 51.0221 201.408 51.1862 201.408 51.3789C201.408 51.569 201.335 51.7331 201.189 51.8711C201.046 52.0065 200.873 52.0742 200.67 52.0742ZM205.347 59.1211C204.784 59.1211 204.293 58.9922 203.874 58.7344C203.455 58.4766 203.129 58.1159 202.897 57.6523C202.666 57.1888 202.55 56.6471 202.55 56.0273C202.55 55.4049 202.666 54.8607 202.897 54.3945C203.129 53.9284 203.455 53.5664 203.874 53.3086C204.293 53.0508 204.784 52.9219 205.347 52.9219C205.909 52.9219 206.4 53.0508 206.819 53.3086C207.239 53.5664 207.564 53.9284 207.796 54.3945C208.028 54.8607 208.144 55.4049 208.144 56.0273C208.144 56.6471 208.028 57.1888 207.796 57.6523C207.564 58.1159 207.239 58.4766 206.819 58.7344C206.4 58.9922 205.909 59.1211 205.347 59.1211ZM205.351 58.1406C205.715 58.1406 206.017 58.0443 206.257 57.8516C206.496 57.6589 206.674 57.4023 206.788 57.082C206.905 56.7617 206.964 56.4089 206.964 56.0234C206.964 55.6406 206.905 55.2891 206.788 54.9687C206.674 54.6458 206.496 54.3867 206.257 54.1914C206.017 53.9961 205.715 53.8984 205.351 53.8984C204.983 53.8984 204.679 53.9961 204.437 54.1914C204.197 54.3867 204.019 54.6458 203.901 54.9687C203.787 55.2891 203.729 55.6406 203.729 56.0234C203.729 56.4089 203.787 56.7617 203.901 57.082C204.019 57.4023 204.197 57.6589 204.437 57.8516C204.679 58.0443 204.983 58.1406 205.351 58.1406ZM210.615 55.4375V59H209.447V53H210.568V53.9766H210.643C210.781 53.6589 210.997 53.4036 211.291 53.2109C211.588 53.0182 211.962 52.9219 212.412 52.9219C212.821 52.9219 213.179 53.0078 213.486 53.1797C213.794 53.349 214.032 53.6016 214.201 53.9375C214.37 54.2734 214.455 54.6888 214.455 55.1836V59H213.287V55.3242C213.287 54.8893 213.174 54.5495 212.947 54.3047C212.721 54.0573 212.41 53.9336 212.014 53.9336C211.743 53.9336 211.502 53.9922 211.291 54.1094C211.083 54.2266 210.917 54.3984 210.795 54.625C210.675 54.849 210.615 55.1198 210.615 55.4375Z" fill="#192435"/>
<rect x="46" y="26" width="35" height="2" rx="1" fill="#D9D9D9"/>
<rect x="94" y="26" width="35" height="2" rx="1" fill="#D9D9D9"/>
<rect x="141" y="26" width="35" height="2" rx="1" fill="#D9D9D9"/>
<rect x="189" y="26" width="35" height="2" rx="1" fill="#D9D9D9"/>
<rect x="72.5" y="73.5" width="131" height="19" rx="1.5" fill="white" stroke="#E2E2E2"/>
<rect x="72.5" y="98.5" width="131" height="19" rx="1.5" fill="white" stroke="#E2E2E2"/>
<rect x="72.5" y="123.5" width="131" height="19" rx="1.5" fill="white" stroke="#E2E2E2"/>
<rect x="72" y="148" width="51" height="24" rx="2" fill="#2050C4"/>
<path d="M88.4929 157.783C88.4588 157.439 88.3125 157.172 88.054 156.982C87.7955 156.791 87.4446 156.696 87.0014 156.696C86.7003 156.696 86.446 156.739 86.2386 156.824C86.0313 156.906 85.8722 157.021 85.7614 157.169C85.6534 157.317 85.5994 157.484 85.5994 157.672C85.5938 157.828 85.6264 157.964 85.6974 158.081C85.7713 158.197 85.8722 158.298 86 158.384C86.1278 158.466 86.2756 158.538 86.4432 158.601C86.6108 158.661 86.7898 158.712 86.9801 158.754L87.7642 158.942C88.1449 159.027 88.4943 159.141 88.8125 159.283C89.1307 159.425 89.4063 159.599 89.6392 159.807C89.8722 160.014 90.0526 160.259 90.1804 160.54C90.3111 160.821 90.3778 161.143 90.3807 161.507C90.3778 162.041 90.2415 162.504 89.9716 162.896C89.7045 163.286 89.3182 163.588 88.8125 163.804C88.3097 164.017 87.7031 164.124 86.9929 164.124C86.2884 164.124 85.6747 164.016 85.152 163.8C84.6321 163.584 84.2259 163.264 83.9332 162.841C83.6435 162.415 83.4915 161.888 83.4773 161.26H85.2628C85.2827 161.553 85.3665 161.797 85.5142 161.993C85.6648 162.186 85.8651 162.332 86.1151 162.432C86.3679 162.528 86.6534 162.577 86.9716 162.577C87.2841 162.577 87.5554 162.531 87.7855 162.44C88.0185 162.349 88.1989 162.223 88.3267 162.061C88.4545 161.899 88.5185 161.713 88.5185 161.503C88.5185 161.307 88.4602 161.142 88.3438 161.009C88.2301 160.875 88.0625 160.761 87.8409 160.668C87.6222 160.574 87.3537 160.489 87.0355 160.412L86.0852 160.173C85.3494 159.994 84.7685 159.714 84.3423 159.334C83.9162 158.953 83.7045 158.44 83.7074 157.795C83.7045 157.267 83.8452 156.805 84.1293 156.411C84.4162 156.016 84.8097 155.707 85.3097 155.486C85.8097 155.264 86.3778 155.153 87.0142 155.153C87.6619 155.153 88.2273 155.264 88.7102 155.486C89.196 155.707 89.5739 156.016 89.8438 156.411C90.1136 156.805 90.2528 157.263 90.2614 157.783H88.4929ZM93.4542 164.124C93.0366 164.124 92.6644 164.051 92.3377 163.906C92.011 163.759 91.7525 163.541 91.5621 163.254C91.3746 162.964 91.2809 162.604 91.2809 162.172C91.2809 161.808 91.3477 161.503 91.4812 161.256C91.6147 161.009 91.7965 160.81 92.0266 160.659C92.2567 160.509 92.5181 160.395 92.8107 160.318C93.1062 160.241 93.4158 160.188 93.7397 160.156C94.1204 160.116 94.4272 160.08 94.6602 160.045C94.8931 160.009 95.0621 159.955 95.1673 159.884C95.2724 159.812 95.3249 159.707 95.3249 159.568V159.543C95.3249 159.273 95.2397 159.064 95.0692 158.916C94.9016 158.768 94.663 158.695 94.3533 158.695C94.0266 158.695 93.7667 158.767 93.5735 158.912C93.3803 159.054 93.2525 159.233 93.19 159.449L91.511 159.312C91.5962 158.915 91.7638 158.571 92.0138 158.281C92.2638 157.989 92.5863 157.764 92.9812 157.608C93.3789 157.449 93.8391 157.369 94.3619 157.369C94.7255 157.369 95.0735 157.412 95.4059 157.497C95.7411 157.582 96.038 157.714 96.2965 157.893C96.5579 158.072 96.7638 158.303 96.9144 158.584C97.065 158.862 97.1403 159.196 97.1403 159.585V164H95.4187V163.092H95.3675C95.2624 163.297 95.1218 163.477 94.9457 163.634C94.7695 163.787 94.5579 163.908 94.3107 163.996C94.0636 164.081 93.7781 164.124 93.4542 164.124ZM93.9741 162.871C94.2411 162.871 94.4769 162.818 94.6815 162.713C94.886 162.605 95.0465 162.46 95.163 162.278C95.2795 162.097 95.3377 161.891 95.3377 161.661V160.966C95.2809 161.003 95.2028 161.037 95.1033 161.068C95.0067 161.097 94.8974 161.124 94.7752 161.149C94.6531 161.172 94.5309 161.193 94.4087 161.213C94.2866 161.23 94.1758 161.246 94.0763 161.26C93.8633 161.291 93.6772 161.341 93.5181 161.409C93.359 161.477 93.2354 161.57 93.1474 161.686C93.0593 161.8 93.0153 161.942 93.0153 162.112C93.0153 162.359 93.1048 162.548 93.2837 162.679C93.4656 162.807 93.6957 162.871 93.9741 162.871ZM104.417 157.455L102.128 164H100.083L97.7944 157.455H99.712L101.071 162.138H101.14L102.495 157.455H104.417ZM108.118 164.128C107.444 164.128 106.865 163.991 106.379 163.719C105.896 163.443 105.524 163.054 105.262 162.551C105.001 162.045 104.87 161.447 104.87 160.757C104.87 160.084 105.001 159.493 105.262 158.984C105.524 158.476 105.892 158.08 106.366 157.795C106.843 157.511 107.403 157.369 108.045 157.369C108.477 157.369 108.879 157.439 109.251 157.578C109.626 157.714 109.953 157.92 110.231 158.196C110.512 158.472 110.731 158.818 110.887 159.236C111.044 159.651 111.122 160.136 111.122 160.693V161.192H105.595V160.067H109.413C109.413 159.805 109.356 159.574 109.243 159.372C109.129 159.17 108.971 159.013 108.77 158.899C108.571 158.783 108.339 158.724 108.075 158.724C107.799 158.724 107.555 158.788 107.342 158.916C107.132 159.041 106.967 159.21 106.848 159.423C106.728 159.634 106.667 159.868 106.664 160.126V161.196C106.664 161.52 106.724 161.8 106.843 162.036C106.966 162.271 107.137 162.453 107.359 162.581C107.581 162.709 107.843 162.773 108.147 162.773C108.349 162.773 108.534 162.744 108.701 162.688C108.869 162.631 109.012 162.545 109.132 162.432C109.251 162.318 109.342 162.179 109.404 162.014L111.083 162.125C110.998 162.528 110.824 162.881 110.559 163.182C110.298 163.48 109.96 163.713 109.545 163.881C109.133 164.045 108.657 164.128 108.118 164.128Z" fill="white"/>
<rect x="13" y="38" width="288" height="1" fill="#E5EBF2"/>
<path fill-rule="evenodd" clip-rule="evenodd" d="M385.646 23.639C385.685 21.8244 385.617 20.3075 385.469 19.045C385.281 17.5041 384.959 16.3184 384.537 15.4207C384.224 14.7582 383.754 14.1198 383.182 13.6061C382.639 13.1117 381.996 12.7181 381.304 12.5068C380.439 12.2428 379.599 12.2956 378.782 12.5452C378.018 12.7757 377.288 13.1789 376.573 13.6493C376.217 13.8798 375.91 14.1006 375.617 14.3118C374.401 15.1807 373.431 15.8767 371.687 15.4063C371.567 15.3727 371.452 15.3151 371.356 15.2335C371.217 15.1135 371.106 14.9502 371.049 14.7582C370.986 14.5518 370.981 14.3118 371.053 14.043C371.125 13.7645 371.289 13.4621 371.553 13.1501L371.587 13.1021C371.683 12.9677 371.803 12.8333 371.942 12.6989C373.114 11.5564 375.453 10.6731 378.114 10.4907C380.795 10.3083 383.773 10.8603 386.175 12.5981C386.636 12.9293 387.073 13.3037 387.486 13.7309C388.461 14.7342 389.21 16.1311 389.6 18.0321C389.936 19.6786 390.003 21.6996 389.715 24.167C389.58 23.9222 389.417 23.7062 389.225 23.5238C388.855 23.1781 388.384 22.9669 387.827 22.9381C387.207 22.9045 386.472 23.1109 385.646 23.639Z" fill="#666666" stroke="#666666" stroke-width="0.216" stroke-miterlimit="22.9256"/>
<path d="M374.137 45.8586L373.387 45.8543L373.387 45.8004L373.395 45.747L374.096 41.0864L374.237 40.1536L375.114 40.5006C375.218 40.5416 375.329 40.5797 375.46 40.6245L375.466 40.6266C375.467 40.6266 375.468 40.627 375.471 40.6277C375.501 40.636 375.7 40.6896 376.045 40.7262C376.421 40.766 376.954 40.7835 377.606 40.7048C378.902 40.5482 380.689 40.0078 382.662 38.4646L382.662 38.4641C383.272 37.9881 383.906 37.4113 384.555 36.7135L385.757 35.4203L385.853 37.1832L386.324 45.803L386.35 46.2755L385.935 46.5022C385.714 46.6226 385.485 46.7426 385.246 46.8539C385.246 46.8543 385.245 46.8546 385.244 46.8549L384.928 46.1751C382.942 47.115 380.683 47.6166 378.67 47.5728L374.137 45.8586ZM374.137 45.8586C373.387 45.8543 373.387 45.8547 373.387 45.8551L373.387 45.856L373.387 45.8576L373.387 45.8609L373.387 45.8676L373.387 45.8818C373.388 45.8916 373.388 45.9021 373.389 45.9133C373.391 45.9353 373.393 45.9613 373.399 45.9904C373.408 46.0452 373.429 46.1282 373.479 46.2192C373.509 46.2742 373.55 46.3334 373.605 46.3891C374.757 47.7268 376.669 48.282 378.655 48.3226L374.137 45.8586Z" fill="#FEFEFE" stroke="#333333" stroke-width="1.5"/>
<path fill-rule="evenodd" clip-rule="evenodd" d="M369.944 14.384C369.079 15.3537 368.373 16.597 367.84 18.0227C366.682 21.1334 366.341 25.1369 366.975 28.9628C367.614 32.8224 369.247 36.5283 372.019 39.0053C373.095 39.9653 374.344 40.743 375.77 41.2759C375.982 41.3575 379.128 42.2407 382.865 39.0293C384.709 37.4403 386.741 34.8337 388.677 30.595L387.351 29.9901C385.516 34.0129 383.624 36.4563 381.919 37.9204C378.792 40.6086 376.433 39.9653 376.279 39.9077C375.03 39.4469 373.94 38.7652 372.999 37.9204C370.491 35.6786 369.012 32.2847 368.421 28.7276C367.825 25.1417 368.138 21.407 369.209 18.5316C369.679 17.2739 370.289 16.1842 371.034 15.3537L369.944 14.384Z" fill="#333333"/>
<path fill-rule="evenodd" clip-rule="evenodd" d="M385.613 24.6759C385.704 22.3909 385.646 20.538 385.464 19.045C385.276 17.5041 384.955 16.3184 384.532 15.4207C384.22 14.7583 383.749 14.1198 383.177 13.6062C382.635 13.1118 381.991 12.7181 381.299 12.5069C380.435 12.2429 379.594 12.2957 378.777 12.5453C378.014 12.7757 377.283 13.179 376.568 13.6494C376.212 13.8798 375.905 14.1006 375.612 14.3119C374.397 15.1807 373.426 15.8768 371.683 15.4063C371.562 15.3727 371.447 15.3151 371.351 15.2335C371.212 15.1135 371.101 14.9503 371.044 14.7583C370.981 14.5519 370.976 14.3119 371.049 14.043C371.121 13.7646 371.284 13.4622 371.548 13.1502L371.582 13.1022C371.678 12.9677 371.798 12.8333 371.937 12.6989C373.109 11.5564 375.449 10.6732 378.11 10.4907C380.79 10.3083 383.768 10.8604 386.17 12.5981C386.631 12.9293 387.068 13.3038 387.481 13.731C388.456 14.7343 389.206 16.1312 389.595 18.0322C389.955 19.8035 390.003 22.0021 389.643 24.7239L389.59 25.1367C389.407 26.5625 389.292 27.4505 388.413 28.6698C388.288 28.8427 388.144 29.0299 387.976 29.2315C387.832 29.4091 387.664 29.6011 387.472 29.8027L387.64 30.4076L388.538 30.7964C388.725 30.5948 388.913 30.3836 389.095 30.158C389.263 29.9563 389.427 29.7451 389.59 29.5195C390.68 28.0026 390.815 26.9753 391.031 25.324L391.084 24.9111C391.468 22.0213 391.41 19.6595 391.017 17.7393C390.57 15.5408 389.681 13.9038 388.519 12.7133C388.048 12.2285 387.544 11.8013 387.015 11.4172C384.306 9.45386 380.982 8.83461 377.999 9.03622C374.997 9.23784 372.307 10.2891 370.904 11.6524C370.722 11.8301 370.559 12.0173 370.414 12.2093C370.001 12.6941 369.747 13.1886 369.622 13.6638C369.478 14.2062 369.497 14.7247 369.636 15.1807C369.78 15.6512 370.049 16.0496 370.395 16.3424C370.659 16.5632 370.967 16.7265 371.293 16.8177C373.705 17.4657 374.92 16.592 376.452 15.4976C376.745 15.2911 377.048 15.0703 377.355 14.8687C377.966 14.4655 378.58 14.1246 379.19 13.9374C379.748 13.7694 380.305 13.731 380.862 13.899C381.333 14.043 381.784 14.3215 382.178 14.6815C382.606 15.0703 382.961 15.5504 383.197 16.04C383.557 16.7985 383.831 17.8353 383.999 19.2131C384.157 20.5332 384.22 22.1461 384.157 24.1095L384.527 24.6279L385.613 24.6759Z" fill="#333333"/>
<path fill-rule="evenodd" clip-rule="evenodd" d="M385.291 25.1271C386.314 24.2247 387.15 23.8742 387.784 23.903C388.101 23.9174 388.36 24.0374 388.567 24.2247C388.788 24.4311 388.946 24.7239 389.042 25.0743C389.297 25.9864 389.105 27.2393 388.384 28.3674C388.202 28.6554 387.894 28.977 387.52 29.2363C387.337 29.3611 387.14 29.4667 386.938 29.5435C386.175 29.8267 386.554 30.6668 387.015 30.542C387.395 30.4364 387.755 30.2588 388.072 30.0427C388.557 29.7115 388.961 29.2795 389.206 28.8954C390.08 27.5273 390.301 25.9768 389.984 24.8199C389.84 24.2967 389.585 23.8454 389.23 23.519C388.86 23.1734 388.389 22.9621 387.832 22.9333C386.953 22.8901 385.848 23.3222 384.58 24.4551C384.128 24.8631 384.676 25.6696 385.291 25.1271Z" fill="#333333"/>
<path fill-rule="evenodd" clip-rule="evenodd" d="M387.044 25.6072C387.188 25.5784 387.313 25.5784 387.419 25.6024C387.539 25.6312 387.635 25.6984 387.692 25.7896C387.76 25.9 387.798 26.0488 387.798 26.2216C387.798 26.5817 387.649 27.0425 387.342 27.5177C387.236 27.681 387.063 27.8682 386.847 28.0122C386.765 28.0698 386.674 28.1226 386.578 28.161C386.064 28.3818 386.232 28.7994 386.645 28.6554C386.813 28.5978 386.977 28.5114 387.121 28.4154C387.39 28.233 387.616 27.993 387.75 27.7818C388.106 27.2249 388.283 26.6729 388.283 26.2216C388.283 25.9528 388.221 25.7128 388.101 25.5256C387.971 25.324 387.779 25.1848 387.524 25.1271C387.375 25.0935 387.203 25.0887 387.006 25.1175C386.367 25.2232 386.439 25.7272 387.044 25.6072Z" fill="#333333"/>
<path fill-rule="evenodd" clip-rule="evenodd" d="M385.735 47.3996C385.393 49.2333 384.745 51.8015 383.597 52.4304C382.819 52.8624 381.628 52.176 379.807 49.1613C381.632 49.0701 383.583 48.5325 385.317 47.6252C385.456 47.5532 385.595 47.4764 385.735 47.3996ZM377.189 48.9549C376.315 50.0014 375.532 50.7119 374.85 51.1775C373.836 51.864 373.14 51.9696 372.751 51.8351C372.419 51.7151 372.251 51.1535 372.189 50.4478C372.073 49.2045 372.309 47.654 372.496 46.7899C372.856 46.7419 373.231 46.6939 373.611 46.6555L373.803 46.9243C374.61 47.9756 375.801 48.6381 377.189 48.9549Z" fill="#CCCCCC"/>
<path fill-rule="evenodd" clip-rule="evenodd" d="M376.275 28.9868C373.887 29.9325 373.047 28.8236 373.08 27.7915C373.119 26.3994 374.425 26.6778 374.161 24.4216C375.295 26.0106 372.739 27.7723 374.267 28.6028C374.593 28.7804 375.112 28.9628 376.275 28.9868Z" fill="#333333"/>
<path fill-rule="evenodd" clip-rule="evenodd" d="M374.997 32.3421C377.788 34.5935 378.801 30.5996 379.291 29.9851C379.152 34.9439 375.348 34.5983 374.997 32.3421Z" fill="#333333"/>
<path fill-rule="evenodd" clip-rule="evenodd" d="M377.178 23.6007C378.662 20.0916 382.601 22.0934 382.615 23.9703C382.428 23.7639 381.602 23.2695 381.131 23.2119C380.968 25.3 378.47 25.7369 377.797 23.5095C377.533 23.4951 377.375 23.4807 377.178 23.6007Z" fill="#333333"/>
<path fill-rule="evenodd" clip-rule="evenodd" d="M368.685 23.4518C370.035 19.8899 374.051 21.7429 374.137 23.6198C373.94 23.423 373.099 22.9574 372.624 22.919C372.542 25.012 370.059 25.54 369.305 23.3414C369.036 23.3318 368.877 23.327 368.685 23.4518Z" fill="#333333"/>
<path fill-rule="evenodd" clip-rule="evenodd" d="M335.555 46.4504C334.767 42.9509 334.969 40.938 335.267 39.4595L335.31 39.2531C335.401 38.7922 335.541 38.2786 335.67 37.7889C335.935 36.7905 336.175 35.888 336.06 35.2303C335.915 34.3999 335.435 33.9726 334.383 34.155C332.678 34.4479 331.861 36.0272 331.174 37.3473C330.809 38.053 330.502 38.6434 330.411 38.629C330.315 38.5954 330.219 38.5522 330.122 38.4994C330.017 38.4418 329.911 38.365 329.796 38.2834C329.594 38.1346 329.263 37.8417 328.854 37.4865C326.544 35.4511 322.005 31.4524 318.849 34.1214C317.974 34.8607 317.513 36.3008 317.998 38.293C318.354 39.7427 319.219 41.5332 320.818 43.5926C320.881 43.6694 321.15 43.967 321.721 44.3943C322.029 44.6199 322.437 44.8983 322.98 45.2199C323.537 45.5512 324.2 45.796 324.997 46.0936C326.193 46.5401 327.721 47.1065 329.508 48.201L330.719 47.0938C328.807 45.9225 326.765 45.1911 325.506 44.7255C324.767 44.4519 324.157 44.2215 323.724 43.967C323.239 43.679 322.869 43.4294 322.591 43.223C322.168 42.911 322.009 42.7477 321.976 42.7045C320.511 40.8132 319.728 39.2195 319.415 37.957C319.074 36.5696 319.305 35.6528 319.79 35.2399C321.981 33.387 325.895 36.8337 327.884 38.5858C328.312 38.9602 328.657 39.2675 328.922 39.4643C329.075 39.5747 329.234 39.6803 329.397 39.7763C329.575 39.8771 329.757 39.9587 329.945 40.0211C331.213 40.434 331.78 39.3395 332.462 38.0242C332.995 36.9969 333.634 35.7728 334.619 35.6C334.628 35.6 334.604 35.4127 334.614 35.4847C334.671 35.8304 334.47 36.5888 334.249 37.4289C334.119 37.9186 333.984 38.4322 333.874 38.9842L333.831 39.1907C333.494 40.8564 333.269 42.9941 334.119 46.7816L335.555 46.4504Z" fill="#333333"/>
<path fill-rule="evenodd" clip-rule="evenodd" d="M332.125 47.3438C331.433 47.6174 331.43 47.0173 330.906 47.3438C329.177 46.3309 326.669 45.143 325.506 44.711C324.767 44.4374 324.156 44.2069 323.724 43.9525C323.239 43.6645 322.869 43.4149 322.591 43.2085C322.168 42.8964 322.009 42.7332 321.976 42.69C321.841 42.5172 321.716 42.3492 321.591 42.1812C320.371 40.5106 319.694 39.0897 319.415 37.9376C319.074 36.5503 319.305 35.6334 319.79 35.2206C320.011 35.0334 320.251 34.899 320.501 34.8126C322.749 34.0445 326.092 36.9871 327.884 38.5665C328.311 38.9409 328.657 39.2481 328.922 39.445C329.075 39.5554 329.234 39.661 329.397 39.757C329.575 39.8578 329.757 39.9394 329.945 40.0018C331.213 40.4146 331.78 39.3201 332.462 38.0048C332.995 36.9775 333.634 35.7534 334.623 35.5806C334.628 35.9599 334.45 36.6511 334.249 37.4096C334.119 37.8992 333.984 38.4129 333.874 38.9649L333.831 39.1713C333.518 40.7315 333.364 43.4629 334.031 46.6984C333.349 46.8808 332.874 47.0509 332.125 47.3438Z" fill="#FEFEFE"/>
<mask id="path-35-outside-1_9048_313484" maskUnits="userSpaceOnUse" x="328.603" y="43.7385" width="87" height="69" fill="black">
<rect fill="white" x="328.603" y="43.7385" width="87" height="69"/>
<path fill-rule="evenodd" clip-rule="evenodd" d="M402.972 55.9025C406.837 60.334 416.353 82.4182 413.016 94.7617C410.62 99.4669 389.89 88.3452 386.733 86.9111C387.75 86.1551 388.25 85.4028 388.495 84.2296C392.543 85.469 400.211 86.9609 404.149 87.1435C405.78 87.2182 404.802 85.7484 403.693 85.6505C402.558 84.2451 398.071 76.2774 396.968 73.2751C397.016 70.9853 397.131 68.6667 397.309 66.3145C397.395 65.1864 395.945 64.9512 395.853 66.1801C395.613 69.3388 395.488 72.4686 395.484 75.5841C395.479 78.5939 395.589 81.5606 395.805 84.4936C395.805 84.4936 387.092 82.2985 385.334 81.7752C381.572 80.6557 379.828 76.8018 379.828 76.8018C379.828 76.8018 378.404 51.2761 378.404 50.1064C378.404 50.1064 380.553 53.433 384.283 53.1917C386.765 52.504 386.804 48.6923 387.117 46.7385C392.775 48.9247 398.914 51.2499 402.972 55.9025ZM370.803 46.7385C368.594 47.1322 366.788 47.6746 365.279 48.2891C363.132 49.1675 361.585 50.2044 360.337 51.2029C359.462 51.899 356.902 54.928 354.169 58.1587C350.835 62.0998 347.247 66.3433 345.902 67.2794L345.388 67.6394L344.956 67.1834C340.974 62.9831 338.538 56.805 336.454 51.5101C335.94 50.2092 335.45 48.9563 334.984 47.8618C334.258 47.9098 333.283 48.0586 332.347 48.2746C331.693 48.4283 331.069 48.6107 330.603 48.8123C333.711 61.2549 336.651 67.9515 338.923 71.5566C341.099 75.0128 342.482 75.4641 342.813 75.5265C345.782 76.0977 349.534 74.7488 353.131 72.5454C357.262 70.0108 361.144 66.3721 363.435 63.1751C364.299 61.9702 365.505 62.7814 364.688 63.9287C363.853 65.1 362.815 66.3337 361.633 67.553L361.585 68.4651L361.537 69.5836C361.388 74.0144 361.422 82.9767 361.888 91.4446C362.205 97.2051 362.714 102.73 363.492 106.412C368.594 109.292 374.358 110.565 380.06 110.809C387.236 111.117 394.331 109.806 399.936 108.04C399.274 105.62 398.688 103.23 398.174 100.853C397.636 98.362 397.179 95.8706 396.805 93.384C393.591 92.1071 389.411 89.5831 386.101 87.9698C382.791 86.3564 372.515 82.6676 371.133 76.8018L375.913 49.4962L370.803 46.7385Z"/>
</mask>
<path fill-rule="evenodd" clip-rule="evenodd" d="M402.972 55.9025C406.837 60.334 416.353 82.4182 413.016 94.7617C410.62 99.4669 389.89 88.3452 386.733 86.9111C387.75 86.1551 388.25 85.4028 388.495 84.2296C392.543 85.469 400.211 86.9609 404.149 87.1435C405.78 87.2182 404.802 85.7484 403.693 85.6505C402.558 84.2451 398.071 76.2774 396.968 73.2751C397.016 70.9853 397.131 68.6667 397.309 66.3145C397.395 65.1864 395.945 64.9512 395.853 66.1801C395.613 69.3388 395.488 72.4686 395.484 75.5841C395.479 78.5939 395.589 81.5606 395.805 84.4936C395.805 84.4936 387.092 82.2985 385.334 81.7752C381.572 80.6557 379.828 76.8018 379.828 76.8018C379.828 76.8018 378.404 51.2761 378.404 50.1064C378.404 50.1064 380.553 53.433 384.283 53.1917C386.765 52.504 386.804 48.6923 387.117 46.7385C392.775 48.9247 398.914 51.2499 402.972 55.9025ZM370.803 46.7385C368.594 47.1322 366.788 47.6746 365.279 48.2891C363.132 49.1675 361.585 50.2044 360.337 51.2029C359.462 51.899 356.902 54.928 354.169 58.1587C350.835 62.0998 347.247 66.3433 345.902 67.2794L345.388 67.6394L344.956 67.1834C340.974 62.9831 338.538 56.805 336.454 51.5101C335.94 50.2092 335.45 48.9563 334.984 47.8618C334.258 47.9098 333.283 48.0586 332.347 48.2746C331.693 48.4283 331.069 48.6107 330.603 48.8123C333.711 61.2549 336.651 67.9515 338.923 71.5566C341.099 75.0128 342.482 75.4641 342.813 75.5265C345.782 76.0977 349.534 74.7488 353.131 72.5454C357.262 70.0108 361.144 66.3721 363.435 63.1751C364.299 61.9702 365.505 62.7814 364.688 63.9287C363.853 65.1 362.815 66.3337 361.633 67.553L361.585 68.4651L361.537 69.5836C361.388 74.0144 361.422 82.9767 361.888 91.4446C362.205 97.2051 362.714 102.73 363.492 106.412C368.594 109.292 374.358 110.565 380.06 110.809C387.236 111.117 394.331 109.806 399.936 108.04C399.274 105.62 398.688 103.23 398.174 100.853C397.636 98.362 397.179 95.8706 396.805 93.384C393.591 92.1071 389.411 89.5831 386.101 87.9698C382.791 86.3564 372.515 82.6676 371.133 76.8018L375.913 49.4962L370.803 46.7385Z" fill="#EFEFEF"/>
<path d="M402.972 55.9025L404.103 54.9165L402.972 55.9025ZM413.016 94.7617L414.353 95.4425L414.424 95.3036L414.464 95.1531L413.016 94.7617ZM386.733 86.9111L385.838 85.7073L383.797 87.2248L386.113 88.2768L386.733 86.9111ZM388.495 84.2296L388.934 82.7953L387.362 82.3142L387.026 83.9233L388.495 84.2296ZM404.149 87.1435L404.08 88.6418L404.08 88.6419L404.149 87.1435ZM403.693 85.6505L402.526 86.5927L402.926 87.0887L403.561 87.1447L403.693 85.6505ZM396.968 73.2751L395.468 73.2436L395.462 73.5267L395.56 73.7925L396.968 73.2751ZM397.309 66.3145L395.813 66.1999L395.813 66.2015L397.309 66.3145ZM395.853 66.1801L397.349 66.2938L397.349 66.2912L395.853 66.1801ZM395.484 75.5841L396.984 75.5865V75.5864L395.484 75.5841ZM395.805 84.4936L395.439 85.9482L397.454 86.4559L397.301 84.3834L395.805 84.4936ZM385.334 81.7752L385.762 80.3375L385.334 81.7752ZM379.828 76.8018L378.33 76.8853L378.346 77.1651L378.461 77.4203L379.828 76.8018ZM378.404 50.1064L379.664 49.2926C379.304 48.734 378.618 48.4796 377.98 48.6677C377.342 48.8557 376.904 49.4414 376.904 50.1064H378.404ZM384.283 53.1917L384.38 54.6885L384.535 54.6785L384.684 54.6372L384.283 53.1917ZM387.117 46.7385L387.657 45.3393L385.928 44.6712L385.635 46.5018L387.117 46.7385ZM370.803 46.7385L371.516 45.4185L371.055 45.17L370.54 45.2618L370.803 46.7385ZM365.279 48.2891L364.713 46.8999L364.711 46.9008L365.279 48.2891ZM360.337 51.2029L361.271 52.3764L361.273 52.3745L360.337 51.2029ZM354.169 58.1587L353.024 57.1898L353.024 57.19L354.169 58.1587ZM345.902 67.2794L345.045 66.0482L345.042 66.0508L345.902 67.2794ZM345.388 67.6394L344.299 68.6714L345.189 69.6101L346.249 68.868L345.388 67.6394ZM344.956 67.1834L346.044 66.1515L346.044 66.1514L344.956 67.1834ZM336.454 51.5101L337.849 50.9606L337.849 50.9589L336.454 51.5101ZM334.984 47.8618L336.364 47.2743L335.947 46.2948L334.885 46.3651L334.984 47.8618ZM332.347 48.2746L332.01 46.813L332.003 46.8145L332.347 48.2746ZM330.603 48.8123L330.007 47.4356L328.839 47.9411L329.148 49.1758L330.603 48.8123ZM338.923 71.5566L340.192 70.7574L340.192 70.7568L338.923 71.5566ZM342.813 75.5265L343.097 74.0535L343.091 74.0524L342.813 75.5265ZM353.131 72.5454L353.915 73.8246L353.916 73.824L353.131 72.5454ZM363.435 63.1751L362.216 62.3005L362.216 62.3013L363.435 63.1751ZM364.688 63.9287L365.909 64.8L365.911 64.7985L364.688 63.9287ZM361.633 67.553L360.556 66.5091L360.165 66.9128L360.136 67.4742L361.633 67.553ZM361.585 68.4651L360.088 68.3862L360.087 68.3935L360.087 68.4007L361.585 68.4651ZM361.537 69.5836L360.039 69.5192L360.038 69.5332L361.537 69.5836ZM361.888 91.4446L360.39 91.527V91.527L361.888 91.4446ZM363.492 106.412L362.025 106.722L362.165 107.385L362.755 107.718L363.492 106.412ZM380.06 110.809L379.995 112.308L379.995 112.308L380.06 110.809ZM399.936 108.04L400.387 109.47L401.765 109.036L401.383 107.643L399.936 108.04ZM398.174 100.853L396.707 101.17L396.707 101.17L398.174 100.853ZM396.805 93.384L398.288 93.1605L398.159 92.3083L397.358 91.99L396.805 93.384ZM375.913 49.4962L377.39 49.7549L377.577 48.6898L376.625 48.1762L375.913 49.4962ZM371.133 76.8018L369.655 76.5432L369.602 76.8463L369.673 77.1459L371.133 76.8018ZM398.468 73.3066C398.515 71.0458 398.629 68.7545 398.805 66.4275L395.813 66.2015C395.634 68.5789 395.517 70.9248 395.468 73.2436L398.468 73.3066ZM398.805 66.4292C398.904 65.1355 398.059 64.0308 396.837 63.8754C396.249 63.8006 395.618 63.9666 395.126 64.4106C394.634 64.8553 394.403 65.464 394.358 66.069L397.349 66.2912C397.35 66.2818 397.334 66.459 397.137 66.6375C396.94 66.8152 396.683 66.88 396.459 66.8515C396.242 66.8239 396.061 66.7131 395.946 66.5642C395.821 66.4035 395.809 66.2523 395.813 66.1999L398.805 66.4292ZM394.358 66.0664C394.115 69.2606 393.988 72.4277 393.984 75.5818L396.984 75.5864C396.988 72.5096 397.112 69.4169 397.349 66.2938L394.358 66.0664ZM393.984 75.5817C393.979 78.6299 394.091 81.6342 394.309 84.6039L397.301 84.3834C397.088 81.487 396.979 78.558 396.984 75.5865L393.984 75.5817ZM395.805 84.4936C396.172 83.0391 396.172 83.0391 396.172 83.0391C396.172 83.039 396.172 83.039 396.171 83.039C396.171 83.0389 396.171 83.0388 396.17 83.0387C396.169 83.0384 396.168 83.038 396.166 83.0375C396.161 83.0365 396.155 83.0349 396.147 83.0328C396.131 83.0287 396.106 83.0225 396.074 83.0144C396.01 82.9982 395.916 82.9744 395.795 82.944C395.554 82.883 395.207 82.7953 394.785 82.6884C393.941 82.4747 392.799 82.1842 391.601 81.8775C389.187 81.2593 386.606 80.5887 385.762 80.3375L384.906 83.2129C385.82 83.485 388.474 84.1736 390.857 84.7837C392.057 85.0913 393.203 85.3823 394.048 85.5965C394.471 85.7036 394.818 85.7915 395.06 85.8526C395.181 85.8832 395.276 85.9071 395.34 85.9233C395.372 85.9314 395.397 85.9376 395.414 85.9418C395.422 85.9439 395.428 85.9455 395.433 85.9466C395.435 85.9471 395.436 85.9475 395.437 85.9478C395.438 85.9479 395.438 85.948 395.439 85.9481C395.439 85.9481 395.439 85.9481 395.439 85.9482C395.439 85.9482 395.439 85.9482 395.805 84.4936ZM378.404 50.1064C377.144 50.9202 377.145 50.9207 377.145 50.9213C377.145 50.9215 377.145 50.922 377.146 50.9224C377.146 50.9232 377.147 50.924 377.147 50.9249C377.148 50.9267 377.15 50.9287 377.151 50.9308C377.154 50.9352 377.157 50.9404 377.161 50.9463C377.169 50.9582 377.179 50.9733 377.192 50.9913C377.216 51.0273 377.25 51.0752 377.292 51.1331C377.377 51.2488 377.497 51.4056 377.651 51.5892C377.959 51.9544 378.414 52.4363 379.009 52.9116C380.194 53.8583 382.022 54.8411 384.38 54.6885L384.187 51.6948C382.814 51.7836 381.703 51.2237 380.881 50.5675C380.473 50.2413 380.157 49.9067 379.945 49.6557C379.84 49.5311 379.763 49.43 379.716 49.3647C379.692 49.3321 379.676 49.3087 379.667 49.2961C379.663 49.2898 379.66 49.2863 379.66 49.2856C379.66 49.2853 379.66 49.2857 379.661 49.2868C379.661 49.2874 379.661 49.2882 379.662 49.2892C379.662 49.2896 379.663 49.2902 379.663 49.2907C379.663 49.291 379.664 49.2915 379.664 49.2917C379.664 49.2921 379.664 49.2926 378.404 50.1064ZM384.684 54.6372C386.719 54.0731 387.563 52.2559 387.958 50.8442C388.345 49.4612 388.477 47.7302 388.598 46.9752L385.635 46.5018C385.444 47.7006 385.4 48.8524 385.069 50.0356C384.746 51.19 384.329 51.6225 383.883 51.7462L384.684 54.6372ZM370.54 45.2618C368.234 45.6727 366.326 46.2431 364.713 46.8999L365.845 49.6782C367.25 49.1061 368.954 48.5917 371.066 48.2153L370.54 45.2618ZM364.711 46.9008C362.404 47.8447 360.735 48.9639 359.4 50.0313L361.273 52.3745C362.436 51.4449 363.86 50.4904 365.847 49.6774L364.711 46.9008ZM359.402 50.0294C358.835 50.4813 357.876 51.5351 356.82 52.7431C355.72 54.0024 354.388 55.5778 353.024 57.1898L355.314 59.1275C356.683 57.5088 357.998 55.9544 359.079 54.7175C360.205 53.4293 360.964 52.6206 361.271 52.3764L359.402 50.0294ZM353.024 57.19C351.353 59.1645 349.635 61.1959 348.168 62.8505C347.434 63.6779 346.773 64.399 346.22 64.9652C345.644 65.5545 345.254 65.9031 345.045 66.0482L346.759 68.5106C347.223 68.1876 347.786 67.6548 348.365 67.062C348.967 66.4461 349.664 65.6845 350.412 64.8413C351.908 63.1549 353.651 61.0939 355.314 59.1274L353.024 57.19ZM345.042 66.0508L344.528 66.4109L346.249 68.868L346.763 68.508L345.042 66.0508ZM346.477 66.6075L346.044 66.1515L343.867 68.2153L344.299 68.6714L346.477 66.6075ZM346.044 66.1514C342.3 62.2022 339.961 56.3225 337.849 50.9606L335.058 52.0596C337.116 57.2874 339.647 63.7639 343.867 68.2154L346.044 66.1514ZM337.849 50.9589C337.339 49.6683 336.84 48.3917 336.364 47.2743L333.604 48.4494C334.06 49.5209 334.541 50.7501 335.059 52.0613L337.849 50.9589ZM334.885 46.3651C334.064 46.4194 333.008 46.5827 332.01 46.813L332.684 49.7363C333.558 49.5346 334.453 49.4002 335.083 49.3585L334.885 46.3651ZM332.003 46.8145C331.318 46.9756 330.594 47.1819 330.007 47.4356L331.199 50.1889C331.544 50.0394 332.069 49.8809 332.69 49.7348L332.003 46.8145ZM329.148 49.1758C332.273 61.6886 335.26 68.5589 337.654 72.3563L340.192 70.7568C338.041 67.3441 335.149 60.8212 332.058 48.4488L329.148 49.1758ZM337.653 72.3557C339.922 75.9594 341.605 76.8252 342.536 77.0006L343.091 74.0524C343.359 74.1029 342.275 74.0663 340.192 70.7574L337.653 72.3557ZM342.53 76.9995C346.077 77.6821 350.248 76.0701 353.915 73.8246L352.348 71.2663C348.819 73.4275 345.487 74.5134 343.097 74.0535L342.53 76.9995ZM353.916 73.824C358.204 71.1929 362.238 67.4206 364.654 64.0489L362.216 62.3013C360.049 65.3237 356.321 68.8288 352.347 71.2669L353.916 73.824ZM364.653 64.0496C364.732 63.9405 364.732 63.996 364.593 64.0433C364.449 64.0925 364.171 64.1159 363.887 63.9353C363.595 63.7496 363.473 63.4576 363.461 63.2378C363.45 63.0356 363.527 62.9732 363.466 63.0589L365.911 64.7985C366.258 64.3106 366.491 63.7166 366.457 63.0773C366.421 62.4203 366.097 61.7856 365.497 61.4043C364.224 60.5942 362.877 61.379 362.216 62.3005L364.653 64.0496ZM363.467 63.0574C362.681 64.1593 361.693 65.3357 360.556 66.5091L362.711 68.5969C363.937 67.3317 365.024 66.0408 365.909 64.8L363.467 63.0574ZM360.136 67.4742L360.088 68.3862L363.083 68.544L363.131 67.6319L360.136 67.4742ZM360.087 68.4007L360.039 69.5192L363.036 69.648L363.084 68.5295L360.087 68.4007ZM360.038 69.5332C359.888 74.0117 359.922 83.0185 360.39 91.527L363.386 91.3622C362.922 82.9349 362.889 74.017 363.037 69.634L360.038 69.5332ZM360.39 91.527C360.708 97.2954 361.221 102.919 362.025 106.722L364.96 106.102C364.207 102.541 363.702 97.1147 363.386 91.3622L360.39 91.527ZM362.755 107.718C368.112 110.743 374.122 112.056 379.995 112.308L380.124 109.311C374.594 109.073 369.075 107.842 364.23 105.106L362.755 107.718ZM379.995 112.308C387.382 112.624 394.654 111.277 400.387 109.47L399.486 106.609C394.008 108.335 387.09 109.609 380.124 109.311L379.995 112.308ZM401.383 107.643C400.727 105.249 400.148 102.885 399.64 100.536L396.707 101.17C397.227 103.574 397.82 105.991 398.49 108.436L401.383 107.643ZM399.64 100.537C399.108 98.076 398.658 95.6156 398.288 93.1605L395.321 93.6075C395.701 96.1255 396.163 98.648 396.707 101.17L399.64 100.537ZM397.358 91.99C395.839 91.3861 394.057 90.4728 392.195 89.4795C390.365 88.5034 388.446 87.444 386.758 86.6214L385.444 89.3182C387.066 90.1089 388.892 91.1181 390.783 92.1266C392.642 93.1179 394.557 94.105 396.251 94.778L397.358 91.99ZM385.762 80.3375C384.271 79.8938 383.128 78.8889 382.329 77.9166C381.936 77.4375 381.644 76.9881 381.453 76.6623C381.358 76.5001 381.289 76.3707 381.246 76.2863C381.224 76.2442 381.209 76.2135 381.201 76.1958C381.196 76.1869 381.194 76.1813 381.193 76.1792C381.192 76.1781 381.192 76.1779 381.192 76.1786C381.193 76.1789 381.193 76.1795 381.193 76.1803C381.193 76.1807 381.194 76.1811 381.194 76.1816C381.194 76.1819 381.194 76.1823 381.194 76.1824C381.194 76.1829 381.195 76.1833 379.828 76.8018C378.461 77.4203 378.462 77.4208 378.462 77.4213C378.462 77.4214 378.462 77.422 378.462 77.4223C378.463 77.4231 378.463 77.4239 378.463 77.4247C378.464 77.4265 378.465 77.4284 378.466 77.4306C378.468 77.435 378.471 77.4404 378.474 77.4466C378.479 77.4591 378.487 77.4753 378.496 77.495C378.515 77.5342 378.541 77.5874 378.575 77.6529C378.642 77.7836 378.739 77.964 378.866 78.1807C379.119 78.6124 379.498 79.1964 380.011 79.8207C381.025 81.0553 382.635 82.5371 384.906 83.2129L385.762 80.3375ZM379.828 76.8018C381.326 76.7183 381.326 76.7182 381.326 76.718C381.326 76.7178 381.326 76.7175 381.326 76.7171C381.326 76.7163 381.326 76.7152 381.325 76.7136C381.325 76.7105 381.325 76.7059 381.325 76.6998C381.324 76.6875 381.323 76.6692 381.322 76.6451C381.319 76.5968 381.315 76.525 381.31 76.4314C381.299 76.2442 381.284 75.9695 381.265 75.6194C381.226 74.9193 381.17 73.9177 381.103 72.7122C380.97 70.3012 380.792 67.0743 380.614 63.8111C380.436 60.5476 380.258 57.2486 380.125 54.6928C380.058 53.4147 380.002 52.3241 379.964 51.5173C379.944 51.1136 379.929 50.7832 379.919 50.5368C379.914 50.4134 379.91 50.3134 379.908 50.237C379.906 50.1988 379.905 50.1683 379.905 50.1447C379.905 50.133 379.904 50.1238 379.904 50.1169C379.904 50.1135 379.904 50.1109 379.904 50.109C379.904 50.1071 379.904 50.1063 379.904 50.1064H376.904C376.904 50.7455 377.265 57.4921 377.618 63.9744C377.796 67.2388 377.974 70.4665 378.108 72.878C378.175 74.0838 378.23 75.0856 378.269 75.786C378.289 76.1362 378.304 76.411 378.314 76.5983C378.32 76.6919 378.324 76.7637 378.326 76.812C378.328 76.8362 378.329 76.8545 378.329 76.8668C378.33 76.8729 378.33 76.8776 378.33 76.8807C378.33 76.8822 378.33 76.8834 378.33 76.8842C378.33 76.8846 378.33 76.8849 378.33 76.885C378.33 76.8852 378.33 76.8853 379.828 76.8018ZM386.576 48.1377C392.321 50.3574 398.073 52.5676 401.842 56.8884L404.103 54.9165C399.756 49.9322 393.229 47.492 387.657 45.3393L386.576 48.1377ZM401.842 56.8884C402.667 57.8351 403.916 59.8915 405.289 62.7563C406.643 65.5814 408.065 69.0796 409.267 72.8235C411.698 80.3999 413.116 88.6458 411.568 94.3703L414.464 95.1531C416.253 88.5341 414.581 79.5662 412.123 71.9067C410.88 68.0326 409.407 64.4074 407.994 61.4596C406.6 58.5516 405.209 56.1856 404.103 54.9165L401.842 56.8884ZM404.86 84.7084C404.392 84.1292 403.052 81.9141 401.632 79.3376C400.227 76.7872 398.883 74.1377 398.376 72.7577L395.56 73.7925C396.156 75.4148 397.608 78.2504 399.005 80.7857C400.388 83.295 401.859 85.7664 402.526 86.5927L404.86 84.7084ZM404.08 88.6419C404.598 88.6656 405.429 88.6101 406.018 87.9796C406.738 87.2093 406.525 86.2759 406.299 85.8081C406.066 85.328 405.684 84.9514 405.302 84.6933C404.909 84.4272 404.4 84.2071 403.824 84.1563L403.561 87.1447C403.54 87.1429 403.57 87.1433 403.621 87.1779C403.684 87.2206 403.652 87.2251 403.599 87.1153C403.57 87.0555 403.507 86.903 403.515 86.679C403.523 86.4266 403.621 86.1504 403.826 85.9313C404.012 85.7321 404.202 85.6696 404.264 85.6535C404.326 85.6374 404.322 85.6498 404.218 85.645L404.08 88.6419ZM388.055 85.6639C392.194 86.9306 399.987 88.4521 404.08 88.6418L404.219 85.6451C400.434 85.4696 392.893 84.0073 388.934 82.7953L388.055 85.6639ZM387.628 88.115C388.234 87.6644 388.752 87.1661 389.156 86.5518C389.564 85.933 389.811 85.2661 389.963 84.5359L387.026 83.9233C386.934 84.3663 386.808 84.6621 386.651 84.9018C386.49 85.1459 386.249 85.4017 385.838 85.7073L387.628 88.115ZM411.68 94.0809C411.67 94.1005 411.6 94.2618 411.064 94.3575C410.511 94.4563 409.691 94.4328 408.598 94.2437C406.43 93.8683 403.635 92.9236 400.721 91.7476C394.86 89.3825 389.08 86.3295 387.353 85.5454L386.113 88.2768C387.543 88.9267 393.706 92.1517 399.598 94.5296C402.561 95.7251 405.595 96.7683 408.086 97.1997C409.324 97.4139 410.541 97.4986 411.592 97.3107C412.662 97.1196 413.764 96.5992 414.353 95.4425L411.68 94.0809ZM376.625 48.1762L371.516 45.4185L370.091 48.0585L375.2 50.8162L376.625 48.1762ZM386.758 86.6214C384.933 85.7319 381.755 84.5125 378.655 82.6877C377.135 81.7933 375.732 80.8041 374.644 79.728C373.552 78.6479 372.852 77.5551 372.593 76.4578L369.673 77.1459C370.105 78.9814 371.208 80.5493 372.535 81.8611C373.865 83.1768 375.497 84.3106 377.133 85.2732C380.343 87.1626 383.958 88.5943 385.444 89.3182L386.758 86.6214ZM372.61 77.0604L377.39 49.7549L374.435 49.2376L369.655 76.5432L372.61 77.0604Z" fill="#333333" mask="url(#path-35-outside-1_9048_313484)"/>
<path fill-rule="evenodd" clip-rule="evenodd" d="M395.853 66.1801C395.613 69.3387 395.488 72.4686 395.483 75.584C395.479 78.9299 395.613 82.2182 395.882 85.468L397.342 85.348C397.073 82.0982 396.939 78.8483 396.944 75.584C396.949 72.5502 397.069 69.4683 397.314 66.3193C397.395 65.1912 395.945 64.9512 395.853 66.1801ZM396.756 93.0431L398.202 92.8318C398.587 95.4049 399.052 97.9779 399.61 100.56C400.167 103.153 400.811 105.745 401.536 108.337L401.723 109.009L401.06 109.225C395.219 111.145 387.668 112.605 380.002 112.278C373.973 112.019 367.878 110.651 362.484 107.526L362.21 107.367L362.138 107.051C361.297 103.282 360.754 97.5218 360.428 91.5261C359.962 83.0246 359.923 74.0143 360.077 69.5451L360.125 68.4026L360.188 67.2025L361.648 67.2938L361.585 68.4698L361.537 69.5883C361.388 74.0191 361.422 82.9814 361.888 91.4493C362.205 97.2098 362.714 102.735 363.492 106.417C368.594 109.297 374.358 110.569 380.06 110.814C387.236 111.121 394.331 109.811 399.936 108.044C399.273 105.625 398.687 103.234 398.173 100.858C397.621 98.2515 397.145 95.6497 396.756 93.0431Z" fill="#333333"/>
<path fill-rule="evenodd" clip-rule="evenodd" d="M409.971 236.57C408.828 237.861 407.377 239.249 405.888 240.67C403.477 242.974 400.969 245.369 399.715 247.419C398.774 248.96 398.601 250.294 399.936 251.173C400.748 251.274 403.649 250.05 407.012 248.35C410.773 246.449 415.01 243.953 417.608 241.98C417.628 241.961 417.68 241.923 417.7 241.913C417.752 241.875 417.839 241.817 417.94 241.731C418.478 241.265 419.328 240.002 416.696 236.945L417.805 235.994C421.302 240.06 419.789 242.062 418.886 242.839C418.756 242.95 418.627 243.041 418.54 243.103L418.473 243.151C415.793 245.182 411.484 247.726 407.67 249.651C403.899 251.557 400.513 252.872 399.446 252.56L399.355 252.536L399.273 252.483C396.901 251.039 397.049 248.984 398.471 246.661C399.826 244.448 402.401 241.985 404.884 239.614C406.354 238.207 407.79 236.839 408.88 235.605L409.971 236.57Z" fill="#333333"/>
<path fill-rule="evenodd" clip-rule="evenodd" d="M369.026 235.615C367.551 236.22 365.755 236.839 363.92 237.468C360.231 238.73 356.383 240.05 354.174 241.663C352.214 243.099 351.455 244.74 352.906 246.713L352.963 246.79L353.04 246.852C353.919 247.558 358.276 247.673 363.19 247.371C367.945 247.078 373.306 246.435 376.476 245.595L376.553 245.576C377.288 245.412 380.252 244.736 378.835 239.522C378.782 239.33 378.398 238.485 378.042 237.689C377.749 237.04 377.471 236.421 377.437 236.325L376.049 236.781C376.097 236.93 376.395 237.593 376.712 238.289C377.048 239.037 377.408 239.83 377.427 239.902C378.446 243.655 376.673 244.054 376.236 244.15L376.13 244.174C373.051 244.99 367.792 245.619 363.108 245.907C358.655 246.18 354.798 246.176 354.025 245.748C353.309 244.678 353.833 243.718 355.048 242.83C357.07 241.351 360.812 240.07 364.405 238.836C366.23 238.212 368.022 237.597 369.593 236.949L369.026 235.615Z" fill="#333333"/>
<path fill-rule="evenodd" clip-rule="evenodd" d="M405.888 240.67C403.477 242.974 400.969 245.369 399.716 247.419C398.774 248.96 398.601 250.294 399.937 251.173C400.748 251.274 403.65 250.05 407.012 248.35C410.773 246.449 415.01 243.953 417.609 241.98C417.628 241.961 417.681 241.923 417.7 241.913C417.753 241.875 417.839 241.817 417.94 241.731C418.233 241.481 418.612 241.001 418.488 240.132C418.396 239.47 418.007 238.577 417.061 237.386C416.076 237.813 414.832 237.996 413.588 237.962C412.137 237.924 410.648 237.597 409.563 237.026C408.66 238.01 407.598 239.037 406.498 240.094C406.292 240.286 406.09 240.478 405.888 240.67Z" fill="#FEFEFE"/>
<path fill-rule="evenodd" clip-rule="evenodd" d="M377.418 239.906C377.442 239.993 377.466 240.079 377.485 240.166C378.354 243.679 376.654 244.063 376.226 244.159L376.121 244.183C373.042 245 367.782 245.628 363.098 245.916C358.646 246.19 354.788 246.185 354.015 245.758C353.299 244.688 353.823 243.727 355.038 242.839C356.268 241.937 358.141 241.111 360.226 240.324C361.566 239.82 362.988 239.33 364.395 238.85C366.029 238.289 367.633 237.741 369.079 237.165C369.977 237.756 371.365 238.365 372.96 238.471C374.065 238.543 375.271 238.375 376.476 237.794C376.548 237.953 376.625 238.125 376.702 238.293C377.038 239.042 377.394 239.834 377.418 239.906Z" fill="#FEFEFE"/>
<path fill-rule="evenodd" clip-rule="evenodd" d="M398.159 110.099C401.546 121.173 405.331 141.177 408.645 163.796C413.425 187.092 416.504 213.331 416.46 235.562C415.581 236.047 414.299 236.33 413.021 236.359C411.753 236.388 410.523 236.176 409.74 235.682C408.64 231.496 404.207 213.519 398.25 192.666C393.226 175.067 386.621 155.952 383.153 142.545L381.765 137.48C381.679 150.072 380.833 163.297 380.286 171.875C380.122 174.458 379.983 176.618 379.896 178.264C379.892 178.375 379.896 178.797 379.906 179.503C379.988 185.614 380.353 213.629 376.015 236.388C374.997 236.92 373.974 237.074 373.042 237.016C371.774 236.935 370.664 236.46 369.939 235.989C369.857 229.408 369.636 219.951 369.017 209.87C368.382 199.564 367.321 188.571 365.553 179.253C365.409 178.495 362.748 163.239 362.594 142.602C362.517 132.291 363.07 120.636 364.876 108.774C369.646 111.016 374.848 112.048 379.997 112.273C386.453 112.552 392.823 111.563 398.159 110.099Z" fill="#404040" stroke="#404040" stroke-width="0.216" stroke-miterlimit="22.9256"/>
<path fill-rule="evenodd" clip-rule="evenodd" d="M381.77 137.336C381.688 149.971 380.838 163.263 380.29 171.875C380.127 174.458 379.988 176.618 379.901 178.265C379.896 178.375 379.901 178.797 379.911 179.503C379.992 185.614 380.357 213.629 376.02 236.388C375.002 236.921 373.978 237.074 373.047 237.017C371.778 236.935 370.669 236.46 369.943 235.989C369.862 229.408 369.641 219.951 369.021 209.87C368.387 199.564 367.326 188.571 365.558 179.253C365.414 178.495 362.753 163.239 362.599 142.602C362.522 132.003 363.103 119.993 365.034 107.795L363.593 107.569C361.653 119.844 361.067 131.941 361.144 142.602C361.297 163.378 363.978 178.749 364.122 179.513C365.88 188.763 366.932 199.693 367.566 209.947C368.2 220.234 368.416 229.821 368.493 236.378L368.498 236.738L368.786 236.954C369.655 237.602 371.178 238.351 372.96 238.466C374.243 238.548 375.655 238.308 377.053 237.482L377.336 237.314L377.398 236.993C381.827 214.042 381.453 185.648 381.376 179.479C381.366 178.826 381.361 178.428 381.366 178.332C381.448 176.776 381.587 174.583 381.755 171.962C382.236 164.463 382.942 153.427 383.167 142.338L381.77 137.336Z" fill="#333333"/>
<path fill-rule="evenodd" clip-rule="evenodd" d="M373.364 123.367C374.295 124.202 375.347 124.947 376.515 125.494C377.72 126.055 379.056 126.415 380.506 126.459L381.097 126.478L381.164 127.059C383.057 143.284 388.182 159.365 394.235 178.341C399.403 194.552 405.244 212.875 410.331 235.212C411.234 235.62 412.214 235.72 413.17 235.653C414.083 235.586 414.981 235.36 415.769 235.087C415.601 228.467 415.221 218.453 414.366 207.816C413.761 200.265 412.92 192.421 411.748 185.302C411.585 184.318 411.426 183.382 411.263 182.489C411.1 181.586 410.927 180.698 410.754 179.829C410.614 179.148 410.432 178.289 410.249 177.453C409.769 175.231 409.327 173.195 409.077 170.661C408.909 168.947 408.722 167.18 408.52 165.38C408.314 163.532 408.097 161.761 407.881 160.057C406.68 150.71 405.143 141.638 403.409 133.299C401.608 124.649 399.591 116.805 397.511 110.296L398.803 109.888C400.897 116.455 402.929 124.342 404.735 133.026C406.479 141.378 408.021 150.489 409.226 159.889C409.462 161.722 409.678 163.508 409.875 165.231C410.067 166.945 410.254 168.712 410.432 170.531C410.667 172.951 411.104 174.967 411.58 177.16C411.729 177.852 411.883 178.567 412.084 179.561C412.262 180.439 412.435 181.337 412.598 182.244C412.771 183.209 412.939 184.15 413.088 185.076C414.265 192.258 415.115 200.135 415.721 207.705C416.595 218.583 417.632 229.326 417.796 235.984L417.805 236.465L417.354 236.637C415.173 237.463 410.586 237.977 408.938 235.908L408.871 235.6C403.774 213.159 398.121 195.004 392.938 178.745C386.933 159.908 381.837 143.918 379.877 127.774C378.45 127.659 377.139 127.275 375.933 126.713C374.608 126.094 373.421 125.254 372.388 124.313C371.471 123.478 372.446 122.542 373.364 123.367Z" fill="#333333"/>
<path fill-rule="evenodd" clip-rule="evenodd" d="M377.178 23.6007C378.662 20.0916 382.601 22.0934 382.615 23.9703C382.428 23.7639 381.602 23.2694 381.131 23.2118C380.968 25.3 378.47 25.7369 377.797 23.5095C377.528 23.4951 377.375 23.4807 377.178 23.6007ZM376.28 39.9076C376.433 39.9652 378.792 40.6085 381.919 37.9203C383.552 36.5185 385.353 34.224 387.107 30.5132C387.078 30.5228 387.044 30.5324 387.015 30.5421C386.554 30.6669 386.175 29.8316 386.938 29.5436C387.14 29.4668 387.342 29.3612 387.52 29.2363C387.899 28.9771 388.202 28.6555 388.384 28.3675C389.105 27.2394 389.292 25.9865 389.042 25.0744C388.946 24.724 388.783 24.4263 388.567 24.2247C388.365 24.0327 388.101 23.9175 387.784 23.9031C387.15 23.8743 386.309 24.2199 385.291 25.1272C384.724 25.6312 384.22 24.9832 384.494 24.5608L384.176 24.1143C384.239 22.151 384.176 20.538 384.018 19.2179C383.85 17.8402 383.576 16.8033 383.216 16.0449C382.985 15.5552 382.63 15.0752 382.197 14.6863C381.804 14.3263 381.352 14.0479 380.881 13.9039C380.324 13.7311 379.762 13.7743 379.21 13.9423C378.6 14.1295 377.985 14.4703 377.375 14.8736C377.067 15.0752 376.765 15.2912 376.472 15.5024C374.944 16.5969 373.729 17.4658 371.313 16.8225C370.986 16.7361 370.679 16.5729 370.415 16.3473C370.386 16.3233 370.357 16.2993 370.333 16.2753C369.896 16.9377 369.521 17.701 369.204 18.5411C368.133 21.4213 367.821 25.1512 368.416 28.7371C369.007 32.2942 370.487 35.6881 372.994 37.9299C373.94 38.7651 375.031 39.4468 376.28 39.9076ZM387.044 25.6072C386.439 25.7273 386.372 25.2232 387.006 25.1176C387.198 25.0888 387.371 25.0888 387.525 25.1272C387.779 25.1848 387.971 25.324 388.101 25.5256C388.221 25.7129 388.283 25.9529 388.283 26.2217C388.283 26.6681 388.111 27.225 387.75 27.7818C387.616 27.993 387.39 28.2331 387.121 28.4155C386.977 28.5163 386.818 28.5979 386.645 28.6555C386.232 28.7995 386.064 28.3819 386.578 28.1611C386.669 28.1226 386.761 28.0698 386.847 28.0122C387.063 27.8682 387.236 27.681 387.342 27.5178C387.649 27.0378 387.798 26.5817 387.798 26.2217C387.798 26.0441 387.765 25.8953 387.693 25.7897C387.63 25.6937 387.539 25.6312 387.419 25.6024C387.313 25.5784 387.188 25.5784 387.044 25.6072ZM368.685 23.4519C370.035 19.89 374.051 21.7429 374.137 23.6199C373.94 23.4231 373.1 22.9574 372.624 22.919C372.542 25.012 370.059 25.54 369.305 23.3415C369.036 23.3319 368.877 23.3271 368.685 23.4519ZM374.997 32.3422C377.788 34.5936 378.801 30.5997 379.291 29.9852C379.152 34.944 375.348 34.5984 374.997 32.3422ZM374.267 28.6027C374.594 28.7803 375.117 28.9627 376.275 28.9867C373.887 29.9324 373.047 28.8235 373.08 27.7914C373.119 26.3993 374.425 26.6777 374.161 24.4215C375.295 26.0057 372.735 27.7722 374.267 28.6027Z" fill="#FEFEFE"/>
<path d="M346.673 60.93C343.952 56.4988 343.72 51.2436 345.583 46.7831C346.003 47.4672 346.423 48.1512 346.843 48.835L346.844 48.8364C347.507 49.9156 348.17 50.9943 348.832 52.0731L348.832 52.074C350.895 55.4287 355.324 56.491 358.681 54.4269C358.681 54.4268 358.681 54.4268 358.681 54.4267L361.927 52.4329L361.927 52.4327C365.283 50.3691 366.344 45.94 364.28 42.5782C363.502 41.3066 362.719 40.032 361.936 38.7572C361.636 38.2684 361.336 37.7795 361.036 37.2908C365.856 37.6414 370.441 40.23 373.162 44.6572C376.704 50.4244 376.03 57.594 372.006 62.5689L371.674 62.9802L371.949 63.4316C373.483 65.9419 375.005 68.4651 376.528 70.9906C379.63 76.1341 382.738 81.287 385.965 86.3588L385.965 86.3594C387.003 87.9875 387.322 89.3553 387.126 90.4655C386.934 91.5579 386.215 92.5563 384.839 93.4014L384.839 93.4014L384.829 93.4077C384.123 93.8566 383.004 94.3104 381.819 94.2171C380.687 94.1277 379.377 93.5298 378.229 91.6521C375.853 87.7662 373.477 83.8803 371.1 79.9946L371.09 79.9779C368.717 76.0977 366.343 72.2175 363.972 68.3373L363.694 67.8837L363.174 67.9952C356.913 69.3377 350.215 66.697 346.673 60.93Z" fill="#FF6F3D" stroke="#333333" stroke-width="1.5"/>
<path d="M388.011 84.3799C388.039 84.8433 387.816 85.4529 387.262 86.1684C386.72 86.8692 385.925 87.5865 384.988 88.241C383.096 89.5624 380.786 90.517 379.121 90.6175C377.656 90.7058 376.508 89.8369 375.654 88.4441C374.799 87.0487 374.34 85.2647 374.258 83.9146C374.203 82.998 374.937 82.1824 376.583 81.526C378.162 80.8964 380.241 80.5679 382.055 80.4585C383.693 80.3597 385.176 80.9642 386.268 81.82C387.395 82.7026 387.972 83.7379 388.011 84.3799Z" fill="white" stroke="#333333" stroke-width="1.5"/>
<mask id="path-48-inside-2_9048_313484" fill="white">
<path d="M60 39L60 182L13 182L13 39L60 39Z"/>
</mask>
<path d="M60 39L60 182L13 182L13 39L60 39Z" fill="#F0F3F7"/>
<path d="M59 39L59 182L61 182L61 39L59 39Z" fill="#E5EBF2" mask="url(#path-48-inside-2_9048_313484)"/>
<defs>
<linearGradient id="paint0_linear_9048_313484" x1="26.7192" y1="34.9917" x2="22.0375" y2="25.239" gradientUnits="userSpaceOnUse">
<stop stop-color="#2464C9"/>
<stop offset="1" stop-color="#3073F7"/>
</linearGradient>
<linearGradient id="paint1_linear_9048_313484" x1="-176383" y1="-75703.4" x2="-176087" y2="-75376.3" gradientUnits="userSpaceOnUse">
<stop stop-color="#23488F"/>
<stop offset="1" stop-color="#1F68F5"/>
</linearGradient>
</defs>
</svg>
