<svg width="464" height="64" viewBox="0 0 464 64" fill="none" xmlns="http://www.w3.org/2000/svg">
<path d="M34.5 8C34.5 6.61929 35.6193 5.5 37 5.5H56C57.3807 5.5 58.5 6.61929 58.5 8V27C58.5 28.3807 57.3807 29.5 56 29.5H37C35.6193 29.5 34.5 28.3807 34.5 27V8Z" stroke="#333333"/>
<path d="M42 11H52" stroke="#FF6F3D" stroke-width="2" stroke-linecap="round" stroke-linejoin="round"/>
<path d="M44.2472 42.2442L51.1678 45.993C51.5139 46.1804 51.5177 46.6758 51.1745 46.8686L44.2947 50.7325C43.9624 50.9191 43.5519 50.6803 43.5498 50.2992L43.509 42.6865C43.507 42.3065 43.913 42.0632 44.2472 42.2442Z" fill="url(#paint0_linear_9092_321713)" stroke="#333333" stroke-linecap="round" stroke-linejoin="round"/>
<rect x="34.5" y="34.5" width="24" height="24" rx="2.5" stroke="#333333"/>
<rect x="9.5" y="38.5" width="16" height="16" rx="0.5" stroke="#333333"/>
<rect x="9.5" y="38.5" width="16" height="4" rx="0.5" fill="#D9F4FF" stroke="#333333"/>
<rect x="5.5" y="34.5" width="24" height="24" rx="2.5" stroke="#333333"/>
<path d="M40.437 23.0901C40.4405 23.083 40.4437 23.0757 40.4469 23.0684C40.5195 22.8969 40.8323 22.4893 41.4197 22.5002C42.0644 22.5122 42.3893 22.84 42.4581 22.9389L44.199 26.5H38.7956L39.4438 25.1535L40.437 23.0901Z" stroke="#333333" stroke-linecap="round" stroke-linejoin="round"/>
<path d="M46.779 19.3361C46.7828 19.3272 46.7863 19.3182 46.7895 19.3091C46.8639 19.0998 47.0529 18.7565 47.3601 18.4755C47.6586 18.2024 48.0543 17.9993 48.5681 18.0107C49.6812 18.0355 50.2854 18.7427 50.4299 19.0317L50.4305 19.0328L54.1886 26.5H43.7539L46.779 19.3361Z" stroke="#333333" stroke-linecap="round" stroke-linejoin="round"/>
<circle cx="40" cy="18" r="1.5" fill="url(#paint1_linear_9092_321713)" stroke="#333333"/>
<rect x="5.5" y="5.5" width="24" height="24" rx="2.5" stroke="#333333"/>
<path fill-rule="evenodd" clip-rule="evenodd" d="M17.3958 15.5C17.3958 15.2239 17.6197 15 17.8958 15H25.5C25.7761 15 26 15.2239 26 15.5C26 15.7761 25.7761 16 25.5 16H17.8958C17.6197 16 17.3958 15.7761 17.3958 15.5ZM9 18.5186C9 18.2425 9.22386 18.0186 9.5 18.0186H25.5C25.7761 18.0186 26 18.2425 26 18.5186C26 18.7948 25.7761 19.0186 25.5 19.0186H9.5C9.22386 19.0186 9 18.7948 9 18.5186ZM9 21.5932C9 21.317 9.22386 21.0932 9.5 21.0932H17.9272C18.2034 21.0932 18.4272 21.317 18.4272 21.5932C18.4272 21.8693 18.2034 22.0932 17.9272 22.0932H9.5C9.22386 22.0932 9 21.8693 9 21.5932ZM9 24.5C9 24.2239 9.22386 24 9.5 24H16.2189C16.495 24 16.7189 24.2239 16.7189 24.5C16.7189 24.7761 16.495 25 16.2189 25H9.5C9.22386 25 9 24.7761 9 24.5ZM18.2814 24.5C18.2814 24.2239 18.5053 24 18.7814 24H25.5C25.7761 24 26 24.2239 26 24.5C26 24.7761 25.7761 25 25.5 25H18.7814C18.5053 25 18.2814 24.7761 18.2814 24.5Z" fill="#333333"/>
<path fill-rule="evenodd" clip-rule="evenodd" d="M9.5 15C9.22386 15 9 15.2239 9 15.5C9 15.7761 9.22386 16 9.5 16H15.5C15.7761 16 16 15.7761 16 15.5C16 15.2239 15.7761 15 15.5 15H9.5ZM20.5 21C20.2239 21 20 21.2239 20 21.5C20 21.7761 20.2239 22 20.5 22H25.5C25.7761 22 26 21.7761 26 21.5C26 21.2239 25.7761 21 25.5 21H20.5Z" fill="#FF6F3D"/>
<rect x="10" y="46" width="15" height="1" fill="#333333"/>
<rect x="10" y="50" width="15" height="1" fill="#333333"/>
<rect x="21" y="42" width="13" height="1" transform="rotate(90 21 42)" fill="#333333"/>
<rect x="16" y="42" width="13" height="1" transform="rotate(90 16 42)" fill="#333333"/>
<path d="M10 11H22" stroke="#333333" stroke-width="2" stroke-linecap="round" stroke-linejoin="round"/>
<path fill-rule="evenodd" clip-rule="evenodd" d="M91 10.6053C91 9.16841 92.1605 8 93.5964 8H141.404C142.84 8 144 9.16841 144 10.6053V51.3947C144 52.8316 142.84 54 141.404 54H110.001V53H141.404C142.283 53 143 52.2833 143 51.3947V10.6053C143 9.71671 142.283 9 141.404 9H93.5964C92.7167 9 92 9.71671 92 10.6053V26.1043H91V10.6053Z" fill="#333333"/>
<path d="M126.085 31.7204H119.877V31.0115C120.423 30.9782 120.875 30.9117 121.232 30.8118C121.596 30.712 121.778 30.5888 121.778 30.4424C121.778 30.3825 121.771 30.3093 121.757 30.2228C121.743 30.1362 121.722 30.0597 121.694 29.9931L120.455 26.8182H115.235C115.039 27.2841 114.877 27.6901 114.751 28.0362C114.632 28.3823 114.524 28.7018 114.426 28.9947C114.335 29.2809 114.272 29.5139 114.237 29.6936C114.202 29.8733 114.184 30.0198 114.184 30.1329C114.184 30.3991 114.405 30.6055 114.846 30.7519C115.287 30.8984 115.784 30.9849 116.338 31.0115V31.7204H110.729V31.0115C110.911 30.9982 111.138 30.9616 111.411 30.9017C111.684 30.8351 111.908 30.7486 112.083 30.6421C112.364 30.4624 112.581 30.276 112.735 30.083C112.889 29.8833 113.039 29.6104 113.186 29.2643C113.936 27.4871 114.762 25.4903 115.665 23.2738C116.569 21.0573 117.374 19.0837 118.081 17.3531H118.921L123.89 29.5738C123.995 29.8334 124.114 30.043 124.247 30.2028C124.38 30.3625 124.565 30.519 124.804 30.6721C124.965 30.7652 125.175 30.8451 125.434 30.9117C125.693 30.9716 125.91 31.0049 126.085 31.0115V31.7204ZM120.077 25.9296L117.819 20.4383L115.602 25.9296H120.077Z" fill="url(#paint2_linear_9092_321713)"/>
<path d="M132.902 30.4025H132.828C132.674 30.5223 132.489 30.6754 132.272 30.8618C132.062 31.0415 131.813 31.2145 131.526 31.3809C131.253 31.5473 130.955 31.6904 130.633 31.8102C130.311 31.9367 129.961 31.9999 129.583 31.9999C128.567 31.9999 127.769 31.6538 127.188 30.9616C126.614 30.2694 126.327 29.3242 126.327 28.1261C126.327 27.3007 126.488 26.4987 126.81 25.7199C127.132 24.9411 127.576 24.2422 128.144 23.6232C128.683 23.0308 129.324 22.5549 130.066 22.1955C130.808 21.8294 131.571 21.6463 132.356 21.6463C132.853 21.6463 133.326 21.7096 133.774 21.836C134.229 21.9625 134.586 22.1056 134.845 22.2654L136.767 21.7961L136.893 21.9459L135.297 28.3857C135.241 28.592 135.181 28.8449 135.118 29.1445C135.062 29.4373 135.034 29.6537 135.034 29.7934C135.034 30.1728 135.118 30.4291 135.286 30.5622C135.454 30.6953 135.738 30.7619 136.137 30.7619C136.27 30.7619 136.459 30.7419 136.704 30.702C136.949 30.6621 137.138 30.6188 137.271 30.5722L137.114 31.2112C136.484 31.4508 136.014 31.6239 135.706 31.7304C135.398 31.8369 135.024 31.8901 134.582 31.8901C134.078 31.8901 133.679 31.7503 133.385 31.4708C133.091 31.1912 132.93 30.8351 132.902 30.4025ZM134.404 24.0925C134.404 23.8728 134.379 23.6632 134.33 23.4635C134.281 23.2638 134.18 23.0774 134.026 22.9044C133.886 22.738 133.693 22.6048 133.448 22.505C133.203 22.4051 132.895 22.3552 132.524 22.3552C132.013 22.3552 131.515 22.515 131.032 22.8345C130.549 23.154 130.115 23.5833 129.73 24.1224C129.366 24.6283 129.068 25.2407 128.837 25.9595C128.606 26.6784 128.49 27.4072 128.49 28.1461C128.49 28.5521 128.515 28.9115 128.564 29.2243C128.613 29.5372 128.707 29.8234 128.847 30.083C128.98 30.3359 129.173 30.5323 129.425 30.6721C129.677 30.8118 129.996 30.8817 130.381 30.8817C130.773 30.8817 131.183 30.7785 131.61 30.5722C132.044 30.3592 132.531 29.9898 133.07 29.464L134.404 24.0925Z" fill="url(#paint3_linear_9092_321713)"/>
<path d="M110.999 37.5016C110.999 37.5016 111 37.5016 111 37.5016L136.994 37.5941C136.993 37.5941 136.993 37.5941 136.994 37.5941L136.994 37.5941C136.997 37.5942 137.001 37.5944 137.009 37.5949C137.024 37.596 137.049 37.5983 137.08 37.603C137.144 37.613 137.222 37.6318 137.293 37.6641C137.363 37.6961 137.411 37.734 137.441 37.7751C137.467 37.8104 137.5 37.8745 137.5 38.0017V41.9813C137.5 41.9828 137.5 41.9845 137.499 41.9863C137.498 42.0012 137.494 42.0256 137.488 42.0561C137.475 42.1194 137.452 42.1971 137.414 42.2693C137.349 42.392 137.251 42.5016 137 42.5016H111C110.749 42.5016 110.651 42.392 110.586 42.2693C110.548 42.1971 110.525 42.1194 110.512 42.0561C110.506 42.0256 110.502 42.0012 110.501 41.9863C110.5 41.9845 110.5 41.9828 110.5 41.9813L110.501 38.0219C110.501 38.0203 110.501 38.0186 110.501 38.0166C110.503 38.0017 110.507 37.9774 110.513 37.9468C110.526 37.8835 110.549 37.8058 110.587 37.7337C110.651 37.6112 110.749 37.5018 110.999 37.5016Z" fill="#D9F4FF" stroke="#333333"/>
<path fill-rule="evenodd" clip-rule="evenodd" d="M104 26V19L105 19V26H104Z" fill="#333333"/>
<path fill-rule="evenodd" clip-rule="evenodd" d="M107 19H102V18H107V19Z" fill="#333333"/>
<rect x="80.5" y="30.5" width="25" height="23" rx="2.5" fill="url(#paint4_linear_9092_321713)"/>
<rect x="80.5" y="30.5" width="25" height="23" rx="2.5" stroke="#333333"/>
<path d="M87 46.9688V44M94 46.9688V39.4375C94 37.625 92.8877 36 90.4907 36C88.0938 36 87 37.75 87 39.4375V44M87 44H94M98 36.1713V46.9688" stroke="white" stroke-width="2" stroke-linecap="round" stroke-linejoin="round"/>
<g clip-path="url(#clip0_9092_321713)">
<path fill-rule="evenodd" clip-rule="evenodd" d="M176.344 3.99976C175.047 3.99976 173.996 5.04185 173.996 6.32734V49.6722C173.996 50.9577 175.047 51.9998 176.344 51.9998H207.648C208.945 51.9998 209.996 50.9577 209.996 49.6722V15.4998C209.996 14.8824 209.749 14.2904 209.308 13.8539L200.119 4.68149C199.678 4.24498 199.081 3.99976 198.458 3.99976H176.344Z" fill="white"/>
<path d="M199.354 4.6462C199.211 4.5032 198.995 4.46043 198.809 4.53782C198.622 4.61521 198.5 4.79752 198.5 4.99976V13.1817C198.5 13.8575 198.664 14.4572 199.073 14.8875C199.487 15.3222 200.072 15.4999 200.732 15.4999H209C209.202 15.4999 209.385 15.3781 209.462 15.1912C209.539 15.0044 209.497 14.7893 209.354 14.6463L199.354 4.6462Z" fill="url(#paint5_linear_9092_321713)" stroke="#333333" stroke-linecap="round" stroke-linejoin="round"/>
<path fill-rule="evenodd" clip-rule="evenodd" d="M208.604 14.5641L208.602 14.5617L199.415 5.39165L199.413 5.39039C199.361 5.33816 199.311 5.28841 199.269 5.24537L199.253 5.2293C199.205 5.18044 199.167 5.14237 199.133 5.10886C199.062 5.04089 199.032 5.01773 199.019 5.00926C199.008 5.0068 198.971 4.99976 198.891 4.99976H175.344C174.591 4.99976 173.996 5.60228 173.996 6.32734V49.6722C173.996 50.3972 174.591 50.9998 175.344 50.9998H207.648C208.401 50.9998 208.996 50.3972 208.996 49.6722V15.1091C208.996 15.0212 208.987 14.9825 208.984 14.9721C208.983 14.9664 208.982 14.9641 208.976 14.9539C208.965 14.9371 208.94 14.9029 208.875 14.8348C208.825 14.7816 208.772 14.7295 208.701 14.659C208.672 14.6307 208.64 14.5995 208.604 14.5641ZM200.119 4.68149L209.308 13.8539C209.337 13.8819 209.364 13.9089 209.391 13.9351C209.779 14.3179 209.996 14.5313 209.996 15.1091V49.6722C209.996 50.9577 208.945 51.9998 207.648 51.9998H175.344C174.047 51.9998 172.996 50.9577 172.996 49.6722V6.32734C172.996 5.04185 174.047 3.99976 175.344 3.99976H198.891C199.445 3.99976 199.636 4.19361 199.981 4.54339C200.024 4.58702 200.07 4.63308 200.119 4.68149Z" fill="#333333"/>
<path d="M189 22.9999H205V23.9999H189V22.9999Z" fill="#333333"/>
<path d="M189 25.9999H205V26.9999H189V25.9999Z" fill="#333333"/>
<path d="M189 28.9999H205V29.9999H189V28.9999Z" fill="#333333"/>
<path d="M189 22.9999H190V28.9999H189V25.9999V22.9999Z" fill="#333333"/>
<path d="M204 22.9999H205V28.9999H204V22.9999Z" fill="#333333"/>
<path d="M199 22.9999H200V28.9999H199V22.9999Z" fill="#333333"/>
<path d="M189 22.9999H190V28.9999H189V25.9999V22.9999Z" fill="#333333"/>
<path d="M194 22.9999H195V28.9999H194V22.9999Z" fill="#333333"/>
<path d="M179 15.9998H195V16.9998H180L179 15.9998Z" fill="#333333"/>
<path d="M179 9.99976H194V11.9998H179V9.99976Z" fill="#333333"/>
<path d="M182 18.9998H198V19.9998H183L182 18.9998Z" fill="#333333"/>
<path fill-rule="evenodd" clip-rule="evenodd" d="M160.342 16.0343C159.822 15.5144 159.846 14.6481 160.395 14.0995L164.066 10.4325C164.616 9.8839 165.482 9.86063 166.002 10.3806L182.356 26.7363C182.52 26.8995 182.831 27.1047 182.888 27.3318L183.911 32.2195C184.164 33.235 183.198 34.2 182.182 33.9464L177.292 32.849C177.065 32.7923 176.86 32.5532 176.696 32.39L160.342 16.0343Z" fill="url(#paint6_linear_9092_321713)"/>
<path fill-rule="evenodd" clip-rule="evenodd" d="M177.003 32.3901C177.003 32.3901 177.347 32.1482 177.896 31.5996L181.567 27.9327C182.116 27.384 182.504 26.9999 182.504 26.9999C182.667 27.1631 182.832 27.1048 182.889 27.3319L183.912 32.2196C184.165 33.2351 183.199 34.2001 182.183 33.9465L177.293 32.8491C177.066 32.7924 177.167 32.5534 177.003 32.3901Z" fill="white"/>
<path fill-rule="evenodd" clip-rule="evenodd" d="M177.293 31.6108L161.076 15.5623C160.816 15.3024 160.802 14.9945 161.076 14.7202L164.7 11.1112C164.975 10.8368 165.147 10.8512 165.407 11.1112L181.726 27.3319C181.807 27.4135 181.9 27.8043 181.928 27.9179L183.019 32.3901C183.146 32.8979 182.69 33.091 182.182 32.9642L177.5 31.7762C177.387 31.7478 177.374 31.6924 177.293 31.6108ZM160.342 16.0344C159.822 15.5144 159.845 14.6482 160.395 14.0995L164.066 10.4326C164.615 9.88396 165.482 9.8607 166.002 10.3806L182.357 26.7364C182.52 26.8996 182.832 27.1048 182.889 27.3319L183.911 32.2196C184.164 33.2351 183.198 34.2001 182.182 33.9465L177.293 32.8491C177.066 32.7924 176.86 32.5534 176.697 32.3901L160.342 16.0344Z" fill="#333333"/>
<path d="M166 16.7065L179.709 30.4155L180.417 29.7088L166.708 15.9998L166 16.7065Z" fill="white"/>
<path fill-rule="evenodd" clip-rule="evenodd" d="M181.887 27.5115L177.35 31.9744L178.033 32.67L182.572 28.2215L181.887 27.5115Z" fill="#333333"/>
<path fill-rule="evenodd" clip-rule="evenodd" d="M168.276 13.0086L163.009 18.2584L163.705 18.9721L168.968 13.7135L168.276 13.0086Z" fill="#333333"/>
<path fill-rule="evenodd" clip-rule="evenodd" d="M182.7 30.6844L180.705 32.8282L182.702 33.4999L183.504 32.4999L182.7 30.6844Z" fill="#333333"/>
<path d="M182.569 46.7863C182.569 52.4271 187.068 56.9999 192.617 56.9999C198.166 56.9999 202.664 52.4271 202.664 46.7863C202.664 41.1455 198.166 36.5728 192.617 36.5728C187.068 36.5728 182.569 41.1455 182.569 46.7863Z" fill="white"/>
<path d="M192.216 35.9999C196.999 36.0014 202.878 39.5872 202.998 46.387C203.052 49.5132 202.205 52.3579 199.935 54.2264C199.787 54.0998 199.049 53.9487 198.872 53.8545L195.824 52.2294C195.424 52.0162 195.175 51.6066 195.175 51.1613V49.9405C195.175 49.9405 196.07 48.8945 196.411 47.4413C196.694 47.2623 196.884 46.9529 196.884 46.6007V45.2646C196.884 44.9707 196.75 44.7081 196.542 44.5242V42.5928C196.542 42.5928 196.948 39.5872 192.783 39.5872C188.618 39.5872 189.024 42.5928 189.024 42.5928V44.5242C188.816 44.7081 188.683 44.9707 188.683 45.2646V46.6007C188.683 47.0498 188.991 47.4277 189.41 47.5539C189.643 48.2627 189.98 48.9382 190.425 49.5524C190.537 49.7072 190.642 49.8384 190.733 49.9405V51.1922C190.733 51.653 190.467 52.0746 190.045 52.2803L186.654 53.7071C186.459 53.8028 185.568 54.1981 185.405 54.3326C183.361 52.2556 182 50.0971 182 46.885C182 40.4398 187.517 35.9984 192.216 35.9999Z" fill="url(#paint7_linear_9092_321713)"/>
<path d="M192.617 57.4999C186.784 57.4999 182.069 52.6955 182.069 46.7863C182.069 40.8771 186.784 36.0728 192.617 36.0728C198.45 36.0728 203.164 40.8771 203.164 46.7863C203.164 52.6955 198.45 57.4999 192.617 57.4999Z" stroke="#333333"/>
<path d="M192.569 46.7863C192.569 52.4271 197.068 56.9999 202.617 56.9999C208.166 56.9999 212.664 52.4271 212.664 46.7863C212.664 41.1455 208.166 36.5728 202.617 36.5728C197.068 36.5728 192.569 41.1455 192.569 46.7863Z" fill="white"/>
<path d="M202.216 35.9999C206.999 36.0014 212.878 39.5872 212.998 46.387C213.052 49.5132 212.205 52.3579 209.935 54.2264C209.787 54.0998 209.049 53.9487 208.872 53.8545L205.824 52.2294C205.424 52.0162 205.175 51.6066 205.175 51.1613V49.9405C205.175 49.9405 206.07 48.8945 206.411 47.4413C206.694 47.2623 206.884 46.9529 206.884 46.6007V45.2646C206.884 44.9707 206.75 44.7081 206.542 44.5242V42.5928C206.542 42.5928 206.948 39.5872 202.783 39.5872C198.618 39.5872 199.024 42.5928 199.024 42.5928V44.5242C198.816 44.7081 198.683 44.9707 198.683 45.2646V46.6007C198.683 47.0498 198.991 47.4277 199.41 47.5539C199.643 48.2627 199.98 48.9382 200.425 49.5524C200.537 49.7072 200.642 49.8384 200.733 49.9405V51.1922C200.733 51.653 200.467 52.0746 200.045 52.2803L196.654 53.7071C196.459 53.8028 195.568 54.1981 195.405 54.3326C193.361 52.2556 192 50.0971 192 46.885C192 40.4398 197.517 35.9984 202.216 35.9999Z" fill="#9ADAF3"/>
<path d="M202.617 57.4999C196.784 57.4999 192.069 52.6955 192.069 46.7863C192.069 40.8771 196.784 36.0728 202.617 36.0728C208.45 36.0728 213.164 40.8771 213.164 46.7863C213.164 52.6955 208.45 57.4999 202.617 57.4999Z" stroke="#333333"/>
<path d="M202.569 46.7863C202.569 52.4271 207.068 56.9999 212.617 56.9999C218.166 56.9999 222.664 52.4271 222.664 46.7863C222.664 41.1455 218.166 36.5728 212.617 36.5728C207.068 36.5728 202.569 41.1455 202.569 46.7863Z" fill="white"/>
<path d="M212.216 35.9999C216.999 36.0014 222.878 39.5872 222.998 46.387C223.052 49.5132 222.205 52.3579 219.935 54.2264C219.787 54.0998 219.049 53.9487 218.872 53.8545L215.824 52.2294C215.424 52.0162 215.175 51.6066 215.175 51.1613V49.9405C215.175 49.9405 216.07 48.8945 216.411 47.4413C216.694 47.2623 216.884 46.9529 216.884 46.6007V45.2646C216.884 44.9707 216.75 44.7081 216.542 44.5242V42.5928C216.542 42.5928 216.948 39.5872 212.783 39.5872C208.618 39.5872 209.024 42.5928 209.024 42.5928V44.5242C208.816 44.7081 208.683 44.9707 208.683 45.2646V46.6007C208.683 47.0498 208.991 47.4277 209.41 47.5539C209.643 48.2627 209.98 48.9382 210.425 49.5524C210.537 49.7072 210.642 49.8384 210.733 49.9405V51.1922C210.733 51.653 210.467 52.0746 210.045 52.2803L206.654 53.7071C206.459 53.8028 205.568 54.1981 205.405 54.3326C203.361 52.2556 202 50.0971 202 46.885C202 40.4398 207.517 35.9984 212.216 35.9999Z" fill="url(#paint8_linear_9092_321713)"/>
<path d="M212.617 57.4999C206.784 57.4999 202.069 52.6955 202.069 46.7863C202.069 40.8771 206.784 36.0728 212.617 36.0728C218.45 36.0728 223.164 40.8771 223.164 46.7863C223.164 52.6955 218.45 57.4999 212.617 57.4999Z" stroke="#333333"/>
</g>
<path d="M282.075 20.4701C283.795 20.8265 285.56 21.0557 287.332 21.1003C286.867 22.7061 286.488 24.2433 286.166 25.7165C285.901 26.9257 285.677 28.7884 285.477 30.5789C285.439 30.9164 285.402 31.2512 285.366 31.5793C285.209 33.0117 285.066 34.3143 284.927 35.1356C284.897 35.3115 284.868 35.4868 284.838 35.6614C283.954 40.9086 283.174 45.5411 280.499 49.6236C277.764 53.7963 273.004 57.4525 263.929 60.4748C255.05 57.6896 250.3 53.9475 247.558 49.7192C244.786 45.4448 244.02 40.6144 243.218 35.541C243.09 34.7349 242.96 33.5156 242.814 32.1628C242.767 31.7234 242.719 31.2699 242.668 30.8119C242.464 28.9641 242.23 27.0431 241.941 25.7739C241.605 24.3001 241.199 22.7666 240.687 21.1692C242.434 21.114 244.2 20.8626 245.935 20.4788C250.725 19.4193 255.317 17.342 258.702 15.5382C260.397 14.6351 261.795 13.7976 262.769 13.1854C263.257 12.8792 263.639 12.6292 263.9 12.4553C263.939 12.4289 263.976 12.4043 264.01 12.3815C264.041 12.4036 264.075 12.4273 264.112 12.4526C264.365 12.6285 264.736 12.8811 265.212 13.19C266.163 13.8079 267.532 14.6518 269.207 15.5591C272.553 17.3714 277.141 19.4474 282.075 20.4701Z" fill="url(#paint9_linear_9092_321713)" stroke="#333333"/>
<path fill-rule="evenodd" clip-rule="evenodd" d="M272.537 29.4147C273.274 30.1313 273.301 31.321 272.598 32.0717L262.981 43.2799C262.633 43.6514 262.151 43.8616 261.647 43.8616C261.142 43.8616 260.66 43.6514 260.312 43.2799L255.448 38.0894C254.744 37.3386 254.772 36.149 255.509 35.4323C256.246 34.7157 257.414 34.7433 258.117 35.4941L261.647 39.2605L269.929 29.4765C270.632 28.7257 271.8 28.698 272.537 29.4147Z" fill="white"/>
<path d="M273.996 2.71194C273.996 1.75224 274.765 1 275.709 1H301.283C302.244 1 302.996 1.76977 302.996 2.71194V28.2882C302.996 29.2468 302.227 30 301.283 30H275.709C274.748 30 273.996 29.2295 273.996 28.2882V2.71194Z" fill="#1C48AA" stroke="#333333"/>
<path d="M278.723 20.7664C278.516 21.0979 278.284 21.5256 278.087 21.8472C278.002 21.997 277.977 22.1755 278.018 22.3442C278.058 22.5128 278.161 22.6582 278.303 22.7489L282.441 25.4012C282.513 25.4474 282.593 25.4783 282.677 25.492C282.76 25.5057 282.845 25.5019 282.927 25.4809C283.01 25.4599 283.087 25.4222 283.155 25.3698C283.223 25.3174 283.28 25.2514 283.323 25.1757C283.488 24.8873 283.702 24.5127 283.934 24.1148C285.573 21.2935 287.222 21.6383 290.195 23.1203L294.295 25.1525C294.372 25.1907 294.456 25.2123 294.541 25.2162C294.626 25.2202 294.711 25.2063 294.791 25.1753C294.871 25.1444 294.944 25.0971 295.006 25.0363C295.068 24.9754 295.117 24.9022 295.152 24.821L297.122 20.1796C297.192 20.0204 297.2 19.8386 297.142 19.6739C297.084 19.5093 296.966 19.3752 296.813 19.301C295.944 18.8767 294.222 18.0313 292.675 17.2522C287.089 14.4408 282.349 14.6265 278.723 20.7664Z" fill="url(#paint10_linear_9092_321713)"/>
<path d="M297.275 10.2336C297.482 9.90205 297.717 9.47438 297.911 9.14949C297.995 9.00033 298.02 8.82294 297.98 8.65511C297.94 8.48728 297.839 8.3423 297.698 8.25106L293.56 5.59887C293.488 5.55263 293.408 5.52176 293.325 5.50807C293.241 5.49438 293.156 5.49814 293.074 5.51912C292.992 5.5401 292.914 5.5779 292.847 5.63029C292.779 5.68269 292.721 5.74864 292.678 5.82431C292.516 6.11605 292.303 6.48735 292.067 6.8885C290.415 9.68656 288.766 9.35503 285.796 7.88307L281.693 5.85083C281.616 5.8127 281.533 5.79103 281.448 5.78712C281.362 5.7832 281.277 5.79711 281.198 5.82803C281.118 5.85894 281.045 5.90623 280.983 5.96709C280.921 6.02795 280.871 6.10115 280.837 6.18235L278.866 10.8237C278.804 10.9803 278.801 11.1559 278.859 11.3144C278.917 11.4729 279.032 11.6022 279.178 11.6757C280.044 12.1 281.766 12.9488 283.316 13.7245C288.913 16.559 293.652 16.3701 297.275 10.2336Z" fill="url(#paint11_linear_9092_321713)"/>
<g clip-path="url(#clip1_9092_321713)">
<path fill-rule="evenodd" clip-rule="evenodd" d="M332.897 54.9266L332.904 54.9287C333.511 55.3458 332.979 55.9997 332.606 55.8833C331.287 55.4924 330.072 54.7997 329.06 53.8608C326.844 51.6445 325.318 46.4658 328.058 43.726C329.105 42.7069 330.494 42.1101 331.964 42.0469C332.806 42.0317 333.616 41.7429 334.272 41.2239C333.823 40.3918 331.494 38.1176 324.985 34.1765C323.389 33.2056 322.861 31.1368 323.806 29.5559C323.946 29.322 324.115 29.1065 324.308 28.9144L332.494 20.7279C333.217 20.0039 334.315 19.7999 335.267 20.2126C336.235 20.6291 336.86 21.5914 336.842 22.6391C336.727 23.9674 337.163 25.2934 338.048 26.3073C339.583 27.8424 341.889 26.178 343.557 24.5104C345.225 22.8427 346.889 20.5361 345.354 19.0011C344.337 18.1156 343.007 17.6814 341.677 17.8005C340.629 17.8184 339.667 17.1937 339.25 16.2253C338.838 15.2735 339.042 14.1757 339.766 13.4528L347.952 5.26628C349.251 3.96208 351.377 3.97453 352.703 5.29412C352.899 5.48937 353.071 5.70756 353.214 5.94373C357.153 12.4399 359.422 14.7744 360.262 15.2305C360.781 14.5749 361.07 13.7649 361.085 12.9227C361.148 11.4521 361.745 10.0634 362.764 9.01617C365.504 6.27636 370.682 7.80207 372.899 10.0183C375.115 12.2346 376.641 17.4133 373.901 20.1531C372.853 21.1721 371.465 21.769 369.994 21.8322C369.152 21.8473 368.342 22.1362 367.686 22.6551C368.135 23.4873 370.464 25.7615 376.973 29.7026C377.396 29.96 377.743 30.2943 378.008 30.676C378.373 31.1806 378.57 31.7622 378.609 32.354C378.662 33.0238 378.517 33.7129 378.148 34.3279C378.009 34.5608 377.841 34.7752 377.649 34.9665L377.648 34.9659C377.628 34.9873 377.607 35.0085 377.586 35.0295L369.399 43.216C368.676 43.9399 367.579 44.144 366.627 43.7313C365.658 43.3148 365.034 42.3525 365.052 41.3048C365.171 39.9742 364.737 38.6445 363.851 37.6274C362.564 36.3407 360.806 37.4328 359.527 38.2275C359.473 38.2613 359.419 38.2946 359.367 38.3271C359.367 38.3271 358.436 39.0945 358.314 38.0604C358.656 37.4969 359.709 36.8679 360.741 36.4106C361.323 36.1529 361.976 35.9791 362.651 36.0288C363.351 36.0804 364.007 36.3689 364.558 36.9203L364.583 36.9447L364.605 36.9708C365.658 38.1803 366.182 39.7614 366.051 41.3519C366.053 41.9792 366.433 42.5592 367.022 42.8127L367.025 42.8139C367.607 43.0662 368.264 42.9374 368.692 42.5094L376.88 34.3208C377.357 33.8462 377.618 33.2071 377.619 32.5705C377.608 32.0824 377.447 31.5996 377.151 31.1957C377.096 31.1251 377.035 31.0568 376.97 30.9911C376.93 30.9511 376.896 30.9122 376.868 30.8745C376.744 30.7568 376.606 30.6501 376.454 30.5572C373.175 28.572 370.927 26.9934 369.431 25.7929C367.976 24.6251 367.135 23.7401 366.806 23.1296L366.408 22.3915L367.066 21.8711C367.891 21.2178 368.908 20.8546 369.962 20.8326C371.183 20.7775 372.332 20.2821 373.198 19.4412C374.253 18.3822 374.557 16.7825 374.272 15.0522C373.985 13.3178 373.134 11.6679 372.191 10.7254C371.249 9.78293 369.599 8.93168 367.865 8.64537C366.134 8.35974 364.535 8.6634 363.476 9.71854C362.635 10.5851 362.139 11.7337 362.084 12.9544C362.062 14.009 361.699 15.0259 361.046 15.8511L360.524 16.5107L359.784 16.1092C359.172 15.7765 358.287 14.9338 357.12 13.4776C355.92 11.9812 354.344 9.73515 352.36 6.46288C352.258 6.29561 352.136 6.14103 351.997 6.00274C351.052 5.06212 349.559 5.06972 348.661 5.97182L340.472 14.1604C340.044 14.5877 339.915 15.2455 340.168 15.8274L340.169 15.8301C340.422 16.4195 341.002 16.7996 341.63 16.8009C343.22 16.6701 344.801 17.1938 346.011 18.247L346.037 18.2696L346.061 18.294C346.613 18.8455 346.901 19.5016 346.953 20.2015C347.002 20.8759 346.829 21.529 346.571 22.1109C346.062 23.2598 345.123 24.3587 344.264 25.2175C343.406 26.0762 342.307 27.0154 341.158 27.5242C340.576 27.7819 339.923 27.9557 339.248 27.906C338.548 27.8544 337.892 27.5659 337.341 27.0144L337.317 26.9905L337.295 26.9649C336.242 25.7588 335.716 24.1814 335.842 22.5931C335.841 21.9656 335.461 21.3849 334.872 21.1312L334.869 21.13C334.287 20.8777 333.628 21.0071 333.201 21.435L325.015 29.6215L325.013 29.6231C324.879 29.7566 324.762 29.9064 324.665 30.0693C324.008 31.167 324.366 32.6288 325.504 33.3214C328.783 35.3069 331.031 36.8855 332.527 38.0862C333.982 39.254 334.823 40.1389 335.152 40.7494L335.55 41.4875L334.893 42.008C334.067 42.6613 333.05 43.0245 331.996 43.0465C330.775 43.1016 329.627 43.597 328.76 44.4378C327.705 45.4968 327.401 47.0966 327.687 48.8268C327.972 50.5533 328.817 52.196 329.754 53.1406C330.651 53.9687 331.725 54.5793 332.89 54.9245L332.897 54.9266Z" fill="#FF6F3D"/>
<path fill-rule="evenodd" clip-rule="evenodd" d="M327.99 50.0201L327.988 50.0133C327.571 49.4062 326.917 49.9383 327.034 50.3112C327.425 51.6303 328.117 52.8447 329.056 53.8571C331.272 56.0734 336.451 57.5991 339.191 54.8593C340.21 53.812 340.807 52.4234 340.87 50.9528C340.885 50.1105 341.174 49.3005 341.693 48.645C342.525 49.0936 344.799 51.4226 348.74 57.9317C349.711 59.528 351.78 60.0558 353.361 59.1104C353.595 58.9705 353.81 58.8022 354.002 58.6092L362.189 50.4227C362.913 49.6999 363.117 48.602 362.704 47.6503C362.288 46.6818 361.325 46.057 360.278 46.075C358.95 46.19 357.624 45.754 356.61 44.8689C355.074 43.3339 356.739 41.0274 358.407 39.3597C360.074 37.692 362.381 36.0278 363.916 37.5627C364.801 38.5798 365.235 39.9095 365.116 41.2401C365.098 42.2878 365.723 43.2501 366.692 43.6666C367.643 44.0793 368.741 43.8752 369.464 43.1513L377.651 34.9648C378.955 33.6663 378.942 31.5394 377.623 30.2142C377.428 30.0181 377.209 29.8463 376.973 29.7026C370.477 25.7635 368.142 23.4948 367.686 22.6551C368.342 22.1362 369.152 21.8474 369.994 21.8322C371.465 21.769 372.853 21.1722 373.901 20.1531C376.641 17.4133 375.115 12.2346 372.899 10.0183C370.682 7.80209 365.504 6.27638 362.764 9.01619C361.745 10.0634 361.148 11.4521 361.085 12.9227C361.07 13.7649 360.781 14.5749 360.262 15.2305C359.43 14.7819 357.155 12.4529 353.214 5.94375C352.957 5.52137 352.623 5.1739 352.241 4.90882C351.736 4.54387 351.155 4.3467 350.563 4.30798C349.893 4.2544 349.204 4.40006 348.589 4.76868C348.356 4.90826 348.142 5.07587 347.95 5.26809L347.951 5.26874C347.93 5.2892 347.908 5.30996 347.887 5.33104L339.701 13.5176C338.977 14.2404 338.773 15.3383 339.186 16.29C339.602 17.2585 340.564 17.8832 341.612 17.8653C342.943 17.7462 344.272 18.1803 345.289 19.0659C346.576 20.3527 345.484 22.1105 344.689 23.3897C344.656 23.4441 344.622 23.4977 344.59 23.5503C344.59 23.5503 343.822 24.4812 344.857 24.6033C345.42 24.2608 346.049 23.2083 346.506 22.1757C346.764 21.5938 346.938 20.9407 346.888 20.2663C346.836 19.5663 346.548 18.9102 345.997 18.3588L345.972 18.3344L345.946 18.3117C344.737 17.2586 343.155 16.7348 341.565 16.8657C340.938 16.8643 340.358 16.4843 340.104 15.8949L340.103 15.8922C339.851 15.3103 339.98 14.6525 340.407 14.2252L348.596 6.03658C349.071 5.55985 349.71 5.29926 350.346 5.29834C350.835 5.30875 351.317 5.46973 351.721 5.76612C351.792 5.82129 351.86 5.88154 351.926 5.94694C351.966 5.98683 352.005 6.02061 352.042 6.04879C352.16 6.1725 352.267 6.31075 352.36 6.46298C354.345 9.74172 355.923 11.9897 357.124 13.4857C358.292 14.9409 359.177 15.7816 359.787 16.1107L360.525 16.5086L361.046 15.8512C361.699 15.026 362.062 14.0091 362.084 12.9544C362.139 11.7338 362.635 10.5851 363.476 9.71856C364.535 8.66342 366.134 8.35976 367.865 8.64539C369.599 8.9317 371.249 9.78295 372.191 10.7254C373.134 11.6679 373.985 13.3178 374.272 15.0522C374.557 16.7825 374.253 18.3822 373.198 19.4412C372.332 20.2821 371.183 20.7775 369.963 20.8326C368.908 20.8546 367.891 21.2178 367.066 21.8711L366.406 22.3932L366.808 23.1324C367.14 23.7449 367.983 24.6295 369.439 25.7968C370.936 26.9965 373.182 28.573 376.454 30.5573C376.621 30.6591 376.776 30.7809 376.914 30.9198C377.855 31.8644 377.847 33.358 376.945 34.2561L368.756 42.4447C368.329 42.8726 367.671 43.0015 367.089 42.7491L367.087 42.748C366.497 42.4945 366.117 41.9144 366.116 41.2872C366.247 39.6967 365.723 38.1156 364.67 36.9061L364.647 36.88L364.623 36.8556C364.071 36.3042 363.415 36.0157 362.715 35.9641C362.041 35.9144 361.388 36.0882 360.806 36.3459C359.657 36.8547 358.558 37.7939 357.699 38.6526C356.841 39.5113 355.901 40.6102 355.393 41.7591C355.135 42.341 354.961 42.9941 355.011 43.6685C355.063 44.3685 355.351 45.0246 355.902 45.576L355.926 45.6L355.952 45.6223C357.158 46.6751 358.735 47.2011 360.324 47.0746C360.951 47.0754 361.532 47.4556 361.786 48.0454L361.787 48.0481C362.039 48.6301 361.91 49.2885 361.482 49.7156L353.295 57.9021L353.294 57.9037C353.16 58.0378 353.011 58.1548 352.848 58.2523C351.75 58.9085 350.288 58.5505 349.595 57.4132C347.61 54.1341 346.031 51.8858 344.831 50.3897C343.663 48.9345 342.778 48.0938 342.167 47.7647L341.429 47.3668L340.909 48.0243C340.256 48.8495 339.892 49.8664 339.87 50.9211C339.815 52.1417 339.32 53.2904 338.479 54.1569C337.42 55.212 335.82 55.5157 334.09 55.2301C332.364 54.9451 330.721 54.1003 329.776 53.163C328.948 52.2659 328.338 51.192 327.992 50.0271L327.99 50.0201Z" fill="#FF6F3D"/>
<path fill-rule="evenodd" clip-rule="evenodd" d="M331.897 52.9266L331.904 52.9287C332.511 53.3458 331.979 53.9997 331.606 53.8833C330.287 53.4924 329.072 52.7997 328.06 51.8608C325.844 49.6445 324.318 44.4658 327.058 41.726C328.105 40.7069 329.494 40.1101 330.964 40.0469C331.806 40.0317 332.616 39.7429 333.272 39.2239C332.823 38.3918 330.494 36.1176 323.985 32.1765C322.389 31.2056 321.861 29.1368 322.806 27.5559C322.946 27.322 323.115 27.1065 323.308 26.9144L331.494 18.7279C332.217 18.0039 333.315 17.7999 334.267 18.2126C335.235 18.6291 335.86 19.5914 335.842 20.6391C335.727 21.9674 336.163 23.2934 337.048 24.3073C338.583 25.8424 340.889 24.178 342.557 22.5104C344.225 20.8427 345.889 18.5361 344.354 17.0011C343.337 16.1156 342.007 15.6814 340.677 15.8005C339.629 15.8184 338.667 15.1937 338.25 14.2253C337.838 13.2735 338.042 12.1757 338.766 11.4528L346.952 3.26628C348.251 1.96208 350.377 1.97453 351.703 3.29412C351.899 3.48937 352.071 3.70756 352.214 3.94373C356.153 10.4399 358.422 12.7744 359.262 13.2305C359.781 12.5749 360.07 11.7649 360.085 10.9227C360.148 9.45206 360.745 8.06342 361.764 7.01617C364.504 4.27636 369.682 5.80207 371.899 8.01831C374.115 10.2346 375.641 15.4133 372.901 18.1531C371.853 19.1721 370.465 19.769 368.994 19.8322C368.152 19.8473 367.342 20.1362 366.686 20.6551C367.135 21.4873 369.464 23.7615 375.973 27.7026C376.396 27.96 376.743 28.2943 377.008 28.676C377.373 29.1806 377.57 29.7622 377.609 30.354C377.662 31.0238 377.517 31.7129 377.148 32.3279C377.009 32.5608 376.841 32.7752 376.649 32.9665L376.648 32.9659C376.628 32.9873 376.607 33.0085 376.586 33.0295L368.399 41.216C367.676 41.9399 366.579 42.144 365.627 41.7313C364.658 41.3148 364.034 40.3525 364.052 39.3048C364.171 37.9742 363.737 36.6445 362.851 35.6274C361.564 34.3407 359.806 35.4328 358.527 36.2275C358.473 36.2613 358.419 36.2946 358.367 36.3271C358.367 36.3271 357.436 37.0945 357.314 36.0604C357.656 35.4969 358.709 34.8679 359.741 34.4106C360.323 34.1529 360.976 33.9791 361.651 34.0288C362.351 34.0804 363.007 34.3689 363.558 34.9203L363.583 34.9447L363.605 34.9708C364.658 36.1803 365.182 37.7614 365.051 39.3519C365.053 39.9792 365.433 40.5592 366.022 40.8127L366.025 40.8139C366.607 41.0662 367.264 40.9374 367.692 40.5094L375.88 32.3208C376.357 31.8462 376.618 31.2071 376.619 30.5705C376.608 30.0824 376.447 29.5996 376.151 29.1957C376.096 29.1251 376.035 29.0568 375.97 28.9911C375.93 28.9511 375.896 28.9122 375.868 28.8745C375.744 28.7568 375.606 28.6501 375.454 28.5572C372.175 26.572 369.927 24.9934 368.431 23.7929C366.976 22.6251 366.135 21.7401 365.806 21.1296L365.408 20.3915L366.066 19.8711C366.891 19.2178 367.908 18.8546 368.962 18.8326C370.183 18.7775 371.332 18.2821 372.198 17.4412C373.253 16.3822 373.557 14.7825 373.272 13.0522C372.985 11.3178 372.134 9.6679 371.191 8.72542C370.249 7.78293 368.599 6.93168 366.865 6.64537C365.134 6.35974 363.535 6.6634 362.476 7.71854C361.635 8.58509 361.139 9.73374 361.084 10.9544C361.062 12.009 360.699 13.0259 360.046 13.8511L359.524 14.5107L358.784 14.1092C358.172 13.7765 357.287 12.9338 356.12 11.4776C354.92 9.98117 353.344 7.73515 351.36 4.46288C351.258 4.29561 351.136 4.14103 350.997 4.00274C350.052 3.06212 348.559 3.06972 347.661 3.97182L339.472 12.1604C339.044 12.5877 338.915 13.2455 339.168 13.8274L339.169 13.8301C339.422 14.4195 340.002 14.7996 340.63 14.8009C342.22 14.6701 343.801 15.1938 345.011 16.247L345.037 16.2696L345.061 16.294C345.613 16.8455 345.901 17.5016 345.953 18.2015C346.002 18.8759 345.829 19.529 345.571 20.1109C345.062 21.2598 344.123 22.3587 343.264 23.2175C342.406 24.0762 341.307 25.0154 340.158 25.5242C339.576 25.7819 338.923 25.9557 338.248 25.906C337.548 25.8544 336.892 25.5659 336.341 25.0144L336.317 24.9905L336.295 24.9649C335.242 23.7588 334.716 22.1814 334.842 20.5931C334.841 19.9656 334.461 19.3849 333.872 19.1312L333.869 19.13C333.287 18.8777 332.628 19.0071 332.201 19.435L324.015 27.6215L324.013 27.6231C323.879 27.7566 323.762 27.9064 323.665 28.0693C323.008 29.167 323.366 30.6288 324.504 31.3214C327.783 33.3069 330.031 34.8855 331.527 36.0862C332.982 37.254 333.823 38.1389 334.152 38.7494L334.55 39.4875L333.893 40.008C333.067 40.6613 332.05 41.0245 330.996 41.0465C329.775 41.1016 328.627 41.597 327.76 42.4378C326.705 43.4968 326.401 45.0966 326.687 46.8268C326.972 48.5533 327.817 50.196 328.754 51.1406C329.651 51.9687 330.725 52.5793 331.89 52.9245L331.897 52.9266Z" fill="#333333"/>
<path fill-rule="evenodd" clip-rule="evenodd" d="M326.99 48.0201L326.988 48.0132C326.571 47.4061 325.917 47.9383 326.034 48.3112C326.425 49.6303 327.117 50.8447 328.056 51.8571C330.272 54.0733 335.451 55.5991 338.191 52.8592C339.21 51.812 339.807 50.4234 339.87 48.9528C339.885 48.1105 340.174 47.3005 340.693 46.645C341.525 47.0935 343.799 49.4225 347.74 55.9317C348.711 57.528 350.78 58.0557 352.361 57.1104C352.595 56.9705 352.81 56.8022 353.002 56.6092L361.189 48.4227C361.913 47.6999 362.117 46.602 361.704 45.6502C361.288 44.6818 360.325 44.057 359.278 44.0749C357.95 44.19 356.624 43.7539 355.61 42.8689C354.074 41.3338 355.739 39.0274 357.407 37.3597C359.074 35.692 361.381 34.0277 362.916 35.5627C363.801 36.5798 364.235 37.9095 364.116 39.2401C364.098 40.2878 364.723 41.2501 365.692 41.6666C366.643 42.0793 367.741 41.8752 368.464 41.1513L376.651 32.9647C377.955 31.6663 377.942 29.5394 376.623 28.2142C376.427 28.0181 376.209 27.8463 375.973 27.7026C369.477 23.7635 367.142 21.4948 366.686 20.6551C367.342 20.1362 368.152 19.8473 368.994 19.8322C370.465 19.769 371.853 19.1721 372.901 18.1531C375.641 15.4133 374.115 10.2346 371.899 8.01831C369.682 5.80207 364.504 4.27637 361.764 7.01617C360.745 8.06343 360.148 9.45206 360.085 10.9227C360.07 11.7649 359.781 12.5749 359.262 13.2305C358.43 12.7819 356.155 10.4529 352.214 3.94373C351.957 3.52135 351.623 3.17388 351.241 2.9088C350.736 2.54385 350.155 2.34668 349.563 2.30796C348.893 2.25438 348.204 2.40004 347.589 2.76866C347.356 2.90824 347.142 3.07585 346.95 3.26808L346.951 3.26873C346.93 3.28918 346.908 3.30994 346.887 3.33102L338.701 11.5175C337.977 12.2404 337.773 13.3382 338.186 14.29C338.602 15.2584 339.564 15.8832 340.612 15.8653C341.943 15.7462 343.272 16.1803 344.289 17.0659C345.576 18.3526 344.484 20.1105 343.689 21.3897C343.656 21.4441 343.622 21.4977 343.59 21.5503C343.59 21.5503 342.822 22.4812 343.856 22.6033C344.42 22.2607 345.049 21.2083 345.506 20.1757C345.764 19.5937 345.938 18.9407 345.888 18.2662C345.836 17.5663 345.548 16.9102 344.997 16.3588L344.972 16.3344L344.946 16.3117C343.737 15.2585 342.155 14.7348 340.565 14.8657C339.938 14.8643 339.358 14.4842 339.104 13.8949L339.103 13.8922C338.851 13.3103 338.98 12.6525 339.407 12.2252L347.596 4.03656C348.071 3.55983 348.71 3.29924 349.346 3.29832C349.834 3.30873 350.317 3.46971 350.721 3.7661C350.792 3.82127 350.86 3.88152 350.926 3.94692C350.966 3.98681 351.005 4.02059 351.042 4.04877C351.16 4.17248 351.267 4.31073 351.36 4.46296C353.345 7.7417 354.923 9.98971 356.124 11.4857C357.292 12.9409 358.177 13.7816 358.787 14.1107L359.525 14.5086L360.046 13.8511C360.699 13.0259 361.062 12.009 361.084 10.9544C361.139 9.73373 361.635 8.58509 362.476 7.71854C363.535 6.6634 365.134 6.35975 366.865 6.64537C368.599 6.93168 370.249 7.78293 371.191 8.72542C372.134 9.66791 372.985 11.3178 373.272 13.0522C373.557 14.7825 373.253 16.3822 372.198 17.4412C371.332 18.2821 370.183 18.7775 368.962 18.8326C367.908 18.8546 366.891 19.2178 366.066 19.8711L365.406 20.3932L365.808 21.1324C366.14 21.7449 366.983 22.6295 368.439 23.7968C369.936 24.9964 372.182 26.573 375.454 28.5573C375.621 28.6591 375.776 28.7809 375.914 28.9198C376.855 29.8644 376.847 31.358 375.945 32.2561L367.756 40.4447C367.329 40.8726 366.671 41.0015 366.089 40.7491L366.087 40.748C365.497 40.4945 365.117 39.9144 365.116 39.2872C365.247 37.6967 364.723 36.1156 363.67 34.906L363.647 34.88L363.623 34.8556C363.071 34.3042 362.415 34.0157 361.715 33.9641C361.041 33.9144 360.388 34.0881 359.806 34.3458C358.657 34.8546 357.558 35.7938 356.699 36.6526C355.841 37.5113 354.901 38.6102 354.393 39.7591C354.135 40.341 353.961 40.9941 354.011 41.6685C354.062 42.3685 354.351 43.0246 354.902 43.576L354.926 43.6L354.952 43.6223C356.158 44.6751 357.735 45.2011 359.324 45.0746C359.951 45.0754 360.532 45.4556 360.786 46.0454L360.787 46.0481C361.039 46.6301 360.91 47.2885 360.482 47.7156L352.295 55.9021L352.294 55.9037C352.16 56.0378 352.011 56.1548 351.848 56.2523C350.75 56.9085 349.288 56.5505 348.595 55.4131C346.61 52.134 345.031 49.8858 343.831 48.3897C342.663 46.9345 341.778 46.0938 341.167 45.7647L340.429 45.3668L339.909 46.0243C339.256 46.8495 338.892 47.8664 338.87 48.9211C338.815 50.1417 338.32 51.2903 337.479 52.1569C336.42 53.212 334.82 53.5157 333.09 53.23C331.364 52.945 329.721 52.1003 328.776 51.163C327.948 50.2658 327.338 49.1919 326.992 48.027L326.99 48.0201Z" fill="#333333"/>
</g>
<g clip-path="url(#clip2_9092_321713)">
<path fill-rule="evenodd" clip-rule="evenodd" d="M415.408 8.56238C415.155 8.922 415.019 9.44231 415.019 10.0244V52.148C415.019 53.2821 415.735 54.0001 416.395 54.0001H418.519C418.795 54.0001 419.019 54.2239 419.019 54.5001C419.019 54.7762 418.795 55.0001 418.519 55.0001H416.395C414.983 55.0001 414.019 53.6119 414.019 52.148V10.0244C414.019 9.30744 414.184 8.56556 414.589 7.98774C415.01 7.38852 415.669 7 416.549 7H418.519C418.795 7 419.019 7.22386 419.019 7.5C419.019 7.77614 418.795 8 418.519 8H416.549C416.002 8 415.645 8.22416 415.408 8.56238Z" fill="#333333"/>
<path fill-rule="evenodd" clip-rule="evenodd" d="M409.391 8.56238C409.139 8.922 409.002 9.44231 409.002 10.0244V52.1479C409.002 53.282 409.718 54 410.379 54H412.502C412.779 54 413.002 54.2239 413.002 54.5C413.002 54.7761 412.779 55 412.502 55H410.379C408.967 55 408.002 53.6118 408.002 52.1479V10.0244C408.002 9.30744 408.167 8.56556 408.573 7.98774C408.994 7.38852 409.653 7 410.532 7H412.502C412.779 7 413.002 7.22386 413.002 7.5C413.002 7.77614 412.779 8 412.502 8H410.532C409.985 8 409.629 8.22416 409.391 8.56238Z" fill="#333333"/>
<path fill-rule="evenodd" clip-rule="evenodd" d="M422.347 7C421.051 7 420 8.0421 420 9.32759V52.6724C420 53.9579 421.051 55 422.347 55H453.652C454.948 55 456 53.9579 456 52.6724V18.5C456 17.8827 455.752 17.2907 455.312 16.8541L446.122 7.68173C445.682 7.24523 445.084 7 444.462 7H422.347Z" fill="white"/>
<path d="M445.356 7.64645C445.213 7.50345 444.998 7.46067 444.811 7.53806C444.624 7.61545 444.502 7.79777 444.502 8V16.182C444.502 16.8578 444.666 17.4574 445.076 17.8877C445.49 18.3225 446.074 18.5001 446.734 18.5001H455.002C455.205 18.5001 455.387 18.3783 455.464 18.1915C455.542 18.0046 455.499 17.7896 455.356 17.6466L445.356 7.64645Z" fill="url(#paint12_linear_9092_321713)" stroke="#333333" stroke-linecap="round" stroke-linejoin="round"/>
<path fill-rule="evenodd" clip-rule="evenodd" d="M454.608 17.5643L454.605 17.5619L445.418 8.3919L445.417 8.39064C445.364 8.33841 445.315 8.28865 445.272 8.24561L445.257 8.22955C445.208 8.18068 445.171 8.14261 445.136 8.1091C445.066 8.04113 445.035 8.01797 445.022 8.00951C445.012 8.00704 444.975 8 444.895 8H422.347C421.595 8 421 8.60253 421 9.32759V52.6724C421 53.3975 421.595 54 422.347 54H453.652C454.404 54 455 53.3975 455 52.6724V18.1093C455 18.0214 454.991 17.9827 454.988 17.9724C454.986 17.9666 454.986 17.9644 454.979 17.9542C454.968 17.9373 454.943 17.9031 454.879 17.8351C454.828 17.7819 454.776 17.7298 454.704 17.6592C454.675 17.631 454.644 17.5998 454.608 17.5643ZM446.122 7.68173L455.312 16.8541C455.34 16.8821 455.367 16.9091 455.394 16.9353C455.783 17.3182 456 17.5316 456 18.1093V52.6724C456 53.9579 454.948 55 453.652 55H422.347C421.051 55 420 53.9579 420 52.6724V9.32759C420 8.0421 421.051 7 422.347 7H444.895C445.448 7 445.64 7.19385 445.985 7.54364C446.028 7.58727 446.073 7.63333 446.122 7.68173Z" fill="#333333"/>
<rect x="400.502" y="37.4999" width="37" height="18" rx="1.5" fill="url(#paint13_linear_9092_321713)" stroke="#333333"/>
<path d="M406.923 50.9999H405.002V41.9999H410.28V43.5635H406.923V45.8843H410.047V47.4417H406.923V50.9999Z" fill="white"/>
<path d="M414.033 45.9951H414.663C415.28 45.9951 415.736 45.8945 416.03 45.6934C416.323 45.4924 416.47 45.1763 416.47 44.7454C416.47 44.3186 416.319 44.0149 416.017 43.8344C415.719 43.6538 415.255 43.5635 414.625 43.5635H414.033V45.9951ZM414.033 47.5464V50.9999H412.081V41.9999H414.764C416.015 41.9999 416.941 42.2235 417.541 42.6709C418.141 43.1141 418.441 43.7892 418.441 44.6962C418.441 45.2256 418.292 45.6976 417.994 46.1121C417.696 46.5224 417.274 46.8446 416.729 47.0785C418.114 49.1018 419.017 50.4089 419.436 50.9999H417.27L415.072 47.5464H414.033Z" fill="white"/>
<path d="M425.898 50.9999H420.595V41.9999H425.898V43.5635H422.548V45.5395H425.665V47.1032H422.548V49.424H425.898V50.9999Z" fill="white"/>
<path d="M433.127 50.9999H427.825V41.9999H433.127V43.5635H429.777V45.5395H432.894V47.1032H429.777V49.424H433.127V50.9999Z" fill="white"/>
</g>
<defs>
<linearGradient id="paint0_linear_9092_321713" x1="43" y1="40.5703" x2="53.9902" y2="50.9517" gradientUnits="userSpaceOnUse">
<stop stop-color="#FF8E3D"/>
<stop offset="1" stop-color="#FF6F3D"/>
</linearGradient>
<linearGradient id="paint1_linear_9092_321713" x1="38" y1="15.8437" x2="42" y2="20" gradientUnits="userSpaceOnUse">
<stop stop-color="#FF8E3D"/>
<stop offset="1" stop-color="#FF6F3D"/>
</linearGradient>
<linearGradient id="paint2_linear_9092_321713" x1="110.729" y1="16.781" x2="122.872" y2="39.6471" gradientUnits="userSpaceOnUse">
<stop stop-color="#FF8E3D"/>
<stop offset="1" stop-color="#FF6F3D"/>
</linearGradient>
<linearGradient id="paint3_linear_9092_321713" x1="110.729" y1="16.781" x2="122.872" y2="39.6471" gradientUnits="userSpaceOnUse">
<stop stop-color="#FF8E3D"/>
<stop offset="1" stop-color="#FF6F3D"/>
</linearGradient>
<linearGradient id="paint4_linear_9092_321713" x1="80.0001" y1="29.0625" x2="103.85" y2="55.9097" gradientUnits="userSpaceOnUse">
<stop stop-color="#FF8E3D"/>
<stop offset="1" stop-color="#FF6F3D"/>
</linearGradient>
<linearGradient id="paint5_linear_9092_321713" x1="199" y1="4.60913" x2="209" y2="14.9998" gradientUnits="userSpaceOnUse">
<stop stop-color="#FFC671"/>
<stop offset="0.59375" stop-color="#FF7541"/>
<stop offset="1" stop-color="#FF6F3D"/>
</linearGradient>
<linearGradient id="paint6_linear_9092_321713" x1="159.177" y1="15.3166" x2="172.569" y2="7.39278" gradientUnits="userSpaceOnUse">
<stop stop-color="#FF8E3D"/>
<stop offset="1" stop-color="#FF6F3D"/>
</linearGradient>
<linearGradient id="paint7_linear_9092_321713" x1="192.5" y1="35.9999" x2="192.5" y2="54.3326" gradientUnits="userSpaceOnUse">
<stop stop-color="#FF8E3D"/>
<stop offset="1" stop-color="#FF6F3D"/>
</linearGradient>
<linearGradient id="paint8_linear_9092_321713" x1="212.5" y1="35.9999" x2="212.5" y2="54.3326" gradientUnits="userSpaceOnUse">
<stop stop-color="#FF8E3D"/>
<stop offset="1" stop-color="#FF6F3D"/>
</linearGradient>
<linearGradient id="paint9_linear_9092_321713" x1="277.332" y1="55.1141" x2="242.015" y2="19.3801" gradientUnits="userSpaceOnUse">
<stop stop-color="#FF6F3D"/>
<stop offset="1" stop-color="#FF8E3D"/>
</linearGradient>
<linearGradient id="paint10_linear_9092_321713" x1="296.056" y1="27.5093" x2="285.464" y2="15.8781" gradientUnits="userSpaceOnUse">
<stop stop-color="#9FADC7"/>
<stop offset="1" stop-color="white"/>
</linearGradient>
<linearGradient id="paint11_linear_9092_321713" x1="-269034" y1="-115602" x2="-268581" y2="-115102" gradientUnits="userSpaceOnUse">
<stop stop-color="#7287AF"/>
<stop offset="1" stop-color="white"/>
</linearGradient>
<linearGradient id="paint12_linear_9092_321713" x1="445.002" y1="7.60937" x2="455.003" y2="18" gradientUnits="userSpaceOnUse">
<stop stop-color="#FFC671"/>
<stop offset="0.59375" stop-color="#FF7541"/>
<stop offset="1" stop-color="#FF6F3D"/>
</linearGradient>
<linearGradient id="paint13_linear_9092_321713" x1="401.003" y1="37.3358" x2="413.819" y2="65.5362" gradientUnits="userSpaceOnUse">
<stop stop-color="#FF8E3D"/>
<stop offset="1" stop-color="#FF6F3D"/>
</linearGradient>
<clipPath id="clip0_9092_321713">
<rect width="64" height="64" fill="white" transform="translate(160)"/>
</clipPath>
<clipPath id="clip1_9092_321713">
<rect width="64" height="64" fill="white" transform="translate(320.002)"/>
</clipPath>
<clipPath id="clip2_9092_321713">
<rect width="64" height="64" fill="white" transform="translate(400.002)"/>
</clipPath>
</defs>
</svg>
