<svg width="448" height="254" viewBox="0 0 448 254" fill="none" xmlns="http://www.w3.org/2000/svg">
<path d="M367.5 253C408.645 253 442 250.761 442 248C442 245.239 408.645 243 367.5 243C326.355 243 293 245.239 293 248C293 250.761 326.355 253 367.5 253Z" fill="#EFEFEF"/>
<path opacity="0.2392" fill-rule="evenodd" clip-rule="evenodd" d="M419.988 162.093C418.915 160.379 418.678 158.299 418.437 156.224C418.201 154.025 418.201 151.7 418.674 149.621C419.269 147.416 420.46 145.461 422.37 144.606C423.325 144.117 424.517 144.117 425.471 143.507C426.545 142.897 427.258 141.547 428.213 140.447C430 138.248 432.506 136.778 435.011 135.798C437.516 134.943 440.258 134.574 443 134.208C439.663 136.533 436.202 139.103 434.297 142.892C433.342 144.847 432.747 147.051 432.033 149.131C431.078 151.82 430.005 154.39 428.577 156.714C427.622 158.304 426.549 159.894 425.122 160.993C423.689 162.093 421.784 162.708 420.234 162.093H419.988Z" fill="#C8C8C8"/>
<path opacity="0.2392" fill-rule="evenodd" clip-rule="evenodd" d="M420.067 161.363C419.358 160.182 419.004 158.88 418.767 157.579C418.531 156.042 418.413 154.62 418.413 153.083C418.413 150.365 419.004 147.286 421.131 145.634C422.076 144.808 423.376 144.688 424.44 144.217C425.622 143.862 426.331 143.036 427.158 142.09C427.985 141.028 428.813 139.962 429.758 139.131C430.822 138.305 431.885 137.594 433.067 137.119C436.022 135.817 439.213 135.342 442.404 134.991C442.404 134.756 442.285 134.521 442.167 134.28C438.622 136.763 434.84 139.482 432.949 143.742C431.885 146.105 431.294 148.708 430.231 151.076C429.285 153.439 428.104 155.806 426.567 157.819C425.149 160.182 422.667 162.074 420.067 161.363C419.595 161.128 419.358 161.839 419.831 161.954C424.676 163.376 427.985 157.934 429.994 153.914C431.176 151.551 432.004 149.063 432.831 146.58C433.658 144.097 434.722 141.85 436.494 139.957C438.267 137.945 440.513 136.408 442.64 134.871C442.876 134.636 442.876 134.16 442.404 134.16C436.967 134.871 430.94 135.817 427.158 140.663C426.331 141.845 425.504 142.911 424.085 143.382C422.785 143.852 421.604 143.972 420.54 144.919C418.649 146.576 417.822 149.294 417.585 151.897C417.467 153.669 417.585 155.446 417.822 157.103C418.058 158.64 418.413 160.297 419.24 161.599C419.713 162.189 420.304 161.834 420.067 161.363Z" fill="#C8C8C8"/>
<path opacity="0.2392" fill-rule="evenodd" clip-rule="evenodd" d="M411.763 127.965C411.049 110.228 409.139 92.6117 406.161 75.2449C409.858 76.2246 412.836 79.4041 414.509 83.1982C416.178 86.9924 416.537 91.3918 416.414 95.551C416.414 97.1407 416.178 98.7304 416.774 100.2C417.369 101.425 418.324 102.4 419.038 103.624C420.347 105.829 420.588 108.883 419.87 111.453C419.274 114.022 417.96 116.467 416.651 118.792C414.982 121.851 413.672 125.03 411.881 128.09L411.763 127.965Z" fill="#C8C8C8"/>
<path opacity="0.2392" fill-rule="evenodd" clip-rule="evenodd" d="M412.117 127.965C411.521 114.143 410.207 100.32 408.302 86.7428C407.706 82.8285 407.111 79.0343 406.515 75.2449C406.397 75.365 406.279 75.61 406.156 75.7348C409.257 76.5897 411.876 78.9143 413.549 81.9736C415.454 85.398 416.173 89.6821 416.291 93.7164C416.291 95.6759 415.932 97.7555 416.409 99.5902C416.887 101.425 418.196 102.525 419.151 103.994C421.179 107.544 419.988 111.948 418.314 115.372C417.359 117.452 416.168 119.411 415.095 121.486C414.022 123.69 413.067 125.77 411.876 127.97C411.639 128.34 412.235 128.825 412.471 128.34C413.544 126.38 414.499 124.425 415.454 122.466C416.409 120.511 417.482 118.672 418.432 116.717C420.219 113.292 421.652 109.258 420.342 105.339C420.101 104.484 419.747 103.749 419.151 103.015C418.555 102.28 417.96 101.545 417.482 100.69C416.409 98.8553 416.887 96.4107 416.887 94.2062C416.887 90.0471 416.291 85.8879 414.504 82.2186C412.717 78.7942 409.857 75.9798 406.397 75C406.161 75 405.919 75.2449 406.038 75.4899C408.425 88.9472 410.094 102.645 411.044 116.347C411.28 120.261 411.521 124.176 411.639 127.97C411.403 128.455 412.117 128.455 412.117 127.965Z" fill="#C8C8C8"/>
<path opacity="0.2392" fill-rule="evenodd" clip-rule="evenodd" d="M404.609 130.29C400.794 123.931 396.26 118.422 391.136 113.163C387.681 109.614 384.338 106.069 380.883 102.52C378.377 99.9505 375.995 97.381 373.489 94.8115C378.618 95.5463 383.624 97.0112 388.512 99.0908C390.299 99.8256 392.209 100.805 393.164 102.64C393.642 103.62 393.996 104.844 394.596 105.699C395.788 107.169 397.816 107.169 399.484 107.779C401.99 108.759 403.777 111.573 404.614 114.508C405.45 117.442 405.327 120.501 405.209 123.561C405.091 125.765 405.091 127.965 404.973 130.29H404.609Z" fill="#C8C8C8"/>
<path opacity="0.2392" fill-rule="evenodd" clip-rule="evenodd" d="M404.847 130.169C401.746 125.155 398.172 120.506 394.357 116.222C390.183 111.573 385.654 107.169 381.244 102.645C378.738 100.075 376.238 97.3857 373.732 94.8162C373.614 95.0611 373.491 95.3061 373.491 95.4261C377.188 96.0361 380.885 96.8958 384.458 98.1157C386.127 98.7256 387.796 99.3404 389.465 100.075C390.774 100.685 392.206 101.665 392.92 103.135C393.634 104.604 393.875 106.069 395.303 106.929C396.494 107.664 398.045 107.784 399.354 108.274C402.214 109.498 403.883 112.923 404.483 116.102C404.842 118.427 404.842 120.871 404.724 123.196C404.606 125.64 404.606 127.965 404.483 130.289C404.483 130.779 405.197 130.779 405.197 130.289C405.315 128.09 405.315 125.885 405.438 123.561C405.438 121.361 405.556 119.281 405.32 117.202C404.961 113.777 403.769 110.473 401.269 108.394C399.959 107.414 398.527 107.169 397.094 106.679C396.381 106.434 395.544 106.189 394.948 105.579C394.353 104.969 394.112 103.989 393.757 103.135C392.448 99.8303 388.869 98.7304 386.009 97.6306C381.958 96.0409 377.665 95.0611 373.491 94.4512C373.132 94.4512 373.014 94.9411 373.255 95.0611C377.665 99.7102 382.076 104.234 386.486 108.763C390.661 113.047 394.83 117.327 398.527 122.096C400.555 124.665 402.46 127.48 404.129 130.289C404.606 130.904 405.206 130.534 404.847 130.169Z" fill="#C8C8C8"/>
<path opacity="0.2392" fill-rule="evenodd" clip-rule="evenodd" d="M365.265 133.229C366.574 134.084 368.243 133.964 369.675 133.474C371.108 132.864 372.417 132.004 373.849 131.269C375.159 130.534 376.832 130.045 378.26 130.414C379.692 130.779 380.765 132.004 382.193 132.494C385.053 133.719 388.272 132.369 391.255 133.229C394.238 134.209 396.384 137.268 397.216 140.567C398.053 143.872 398.171 147.296 398.053 150.841C397.694 149.496 396.384 148.516 395.193 148.271C394.12 148.026 393.047 148.516 392.092 148.761C388.873 149.496 385.412 148.396 382.911 145.946C381.479 144.602 380.406 142.767 378.978 141.297C375.041 137.508 369.316 136.898 365.265 133.229Z" fill="#C8C8C8"/>
<path opacity="0.2392" fill-rule="evenodd" clip-rule="evenodd" d="M365.146 133.594C367.77 135.308 370.748 133.594 373.135 132.124C374.568 131.269 376.113 130.534 377.787 130.779C379.337 131.024 380.529 132.124 381.838 132.859C384.698 134.204 387.681 132.979 390.659 133.594C393.283 134.204 395.311 136.408 396.384 139.098C397.934 142.767 397.934 147.046 397.693 150.965C397.934 150.965 398.171 150.965 398.407 150.84C398.048 149.616 397.216 148.886 396.261 148.396C395.07 147.786 393.874 148.031 392.564 148.396C389.941 149.006 387.317 148.761 384.935 147.296C382.552 145.826 381.12 143.137 379.092 141.177C377.305 139.343 375.159 138.363 373.012 137.263C370.507 136.038 367.765 134.938 365.619 132.979C365.264 132.614 364.787 133.104 365.146 133.594C368.843 136.898 373.731 137.633 377.664 140.812C379.81 142.527 381.12 145.096 383.148 146.926C385.053 148.516 387.44 149.371 389.822 149.496C390.418 149.496 391.132 149.496 391.728 149.371C392.564 149.251 393.396 148.881 394.233 148.761C395.665 148.641 397.334 149.496 397.689 151.085C397.807 151.45 398.284 151.45 398.402 150.965C398.762 144.971 398.284 136.528 392.801 133.474C390.059 131.884 386.958 132.984 384.098 132.619C382.547 132.374 381.238 131.394 379.924 130.659C378.614 129.924 377.182 129.804 375.631 130.169C372.53 131.149 368.956 135.063 365.614 132.859C365.146 132.739 364.787 133.349 365.146 133.594Z" fill="#C8C8C8"/>
<path opacity="0.2392" fill-rule="evenodd" clip-rule="evenodd" d="M393.521 145.461C398.409 151.945 402.465 159.164 405.561 166.867C408.662 174.576 410.808 182.769 411.758 191.088C412.354 195.857 412.595 200.631 412.595 205.4C412.595 206.38 413.905 206.38 413.905 205.4C414.141 196.837 413.068 188.153 411.045 179.71C409.017 171.391 405.915 163.438 401.982 156.099C399.718 151.94 397.213 148.026 394.353 144.357C393.998 143.627 392.925 144.727 393.521 145.461Z" fill="#C8C8C8"/>
<path opacity="0.2392" fill-rule="evenodd" clip-rule="evenodd" d="M401.744 122.951C404.722 133.104 407.705 143.257 410.088 153.655C412.47 163.928 414.262 174.451 414.858 184.969C415.217 190.963 415.217 196.957 414.621 202.826C414.503 203.805 415.931 203.805 415.931 202.826C416.768 192.183 416.167 181.54 414.621 171.022C413.071 160.504 410.565 150.106 407.824 139.828C406.273 133.954 404.604 128.33 402.936 122.581C402.817 121.606 401.508 122.096 401.744 122.951Z" fill="#C8C8C8"/>
<path opacity="0.2392" fill-rule="evenodd" clip-rule="evenodd" d="M411.402 120.261C411.284 131.149 412.239 142.037 413.189 152.92C414.144 163.808 415.099 174.691 415.217 185.579C415.217 191.693 414.98 197.811 414.144 203.925C414.144 204.29 414.262 204.78 414.621 204.905C414.98 205.025 415.453 204.785 415.453 204.415C416.763 193.527 416.763 182.64 416.049 171.756C415.335 160.749 414.139 149.981 413.425 138.973C413.066 132.859 412.711 126.62 412.829 120.381C412.716 119.281 411.402 119.281 411.402 120.261Z" fill="#C8C8C8"/>
<path opacity="0.2392" fill-rule="evenodd" clip-rule="evenodd" d="M416.65 207.354C416.768 192.922 416.886 178.365 420.583 164.418C421.538 160.624 422.729 156.954 424.279 153.41C424.639 152.555 423.443 151.695 423.088 152.675C417.486 165.642 415.936 180.32 415.458 194.507C415.34 198.791 415.222 203.07 415.222 207.35C415.335 208.334 416.65 208.334 416.65 207.354Z" fill="#C8C8C8"/>
<path fill-rule="evenodd" clip-rule="evenodd" d="M422.848 159.039C423.207 157.939 423.921 157.079 424.635 156.224C425.467 155.49 426.303 154.88 427.258 154.51C426.421 155.245 425.708 155.979 424.994 156.714C424.28 157.449 423.684 158.304 422.848 159.039Z" fill="#C8C8C8"/>
<path fill-rule="evenodd" clip-rule="evenodd" d="M424.638 153.775C425.115 152.305 425.947 151.085 427.02 150.106C427.975 149.126 429.167 148.271 430.476 147.906C429.403 148.761 428.33 149.621 427.375 150.596C426.425 151.575 425.47 152.675 424.638 153.775Z" fill="#C8C8C8"/>
<path fill-rule="evenodd" clip-rule="evenodd" d="M427.735 147.661C428.094 146.681 428.808 145.826 429.522 145.216C430.236 144.606 431.072 144.117 432.027 143.872C431.314 144.482 430.595 145.096 429.881 145.706C429.167 146.316 428.572 147.051 427.735 147.661Z" fill="#C8C8C8"/>
<path fill-rule="evenodd" clip-rule="evenodd" d="M420.224 148.886C421.179 150.355 421.652 151.945 422.011 153.78C422.247 155.494 422.37 157.329 422.011 159.039C421.893 157.324 421.774 155.614 421.533 153.9C421.061 152.065 420.701 150.475 420.224 148.886Z" fill="#C8C8C8"/>
<path fill-rule="evenodd" clip-rule="evenodd" d="M422.73 146.316C423.444 147.171 423.921 148.276 424.162 149.376C424.399 150.475 424.399 151.7 424.162 152.8C423.926 151.7 423.803 150.6 423.567 149.496C423.326 148.516 422.966 147.416 422.73 146.316Z" fill="#C8C8C8"/>
<path fill-rule="evenodd" clip-rule="evenodd" d="M427.14 143.502C427.499 144.112 427.617 144.971 427.617 145.701C427.617 146.436 427.376 147.291 427.021 147.906C427.021 147.051 427.021 146.436 427.021 145.701C427.14 144.971 427.14 144.237 427.14 143.502Z" fill="#C8C8C8"/>
<path fill-rule="evenodd" clip-rule="evenodd" d="M412.117 123.441C413.55 120.626 414.859 117.937 416.05 115.122C417.242 112.308 418.197 109.253 419.029 106.194C418.669 109.373 417.719 112.433 416.523 115.367C415.46 118.302 413.909 120.996 412.117 123.441Z" fill="#C8C8C8"/>
<path fill-rule="evenodd" clip-rule="evenodd" d="M411.88 118.671C413.071 116.227 414.262 113.777 415.217 111.208C416.172 108.638 417.004 106.069 417.841 103.379C417.481 106.194 416.768 108.883 415.813 111.453C414.74 114.022 413.548 116.467 411.88 118.671Z" fill="#C8C8C8"/>
<path fill-rule="evenodd" clip-rule="evenodd" d="M411.762 114.143C412.598 111.938 413.312 109.858 414.144 107.659C414.981 105.454 415.577 103.375 416.29 101.175C416.054 103.5 415.336 105.824 414.622 107.904C413.908 110.108 412.953 112.188 411.762 114.143Z" fill="#C8C8C8"/>
<path fill-rule="evenodd" clip-rule="evenodd" d="M411.043 107.664C411.998 105.459 412.83 103.38 413.549 101.305C414.381 99.1051 415.099 97.0255 415.695 94.7009C415.454 97.0255 414.858 99.35 414.026 101.55C413.313 103.745 412.239 105.824 411.043 107.664Z" fill="#C8C8C8"/>
<path fill-rule="evenodd" clip-rule="evenodd" d="M410.69 101.425C411.645 98.7351 412.359 95.9207 412.955 93.1063C413.55 90.2919 413.909 87.4775 414.146 84.543C414.382 87.4775 414.028 90.4119 413.432 93.2264C412.955 96.1609 412 98.9753 410.69 101.425Z" fill="#C8C8C8"/>
<path fill-rule="evenodd" clip-rule="evenodd" d="M409.97 96.7757C410.329 93.9612 410.925 91.2717 411.279 88.4573C411.638 85.6428 411.757 82.8284 411.516 80.0188C411.875 81.3636 412.111 82.8332 412.111 84.2981C412.111 85.7677 412.111 87.1125 411.87 88.5773C411.638 91.2717 410.925 94.0813 409.97 96.7757Z" fill="#C8C8C8"/>
<path fill-rule="evenodd" clip-rule="evenodd" d="M379.811 97.2656C381.598 98.8553 383.03 100.69 384.34 102.525C385.649 104.484 386.845 106.564 387.795 108.763C386.486 106.804 385.172 104.724 383.862 102.89C382.553 100.935 381.12 99.1003 379.811 97.2656Z" fill="#C8C8C8"/>
<path fill-rule="evenodd" clip-rule="evenodd" d="M384.936 98.2405C386.841 100.2 388.391 102.52 389.587 104.969C390.778 107.414 391.733 110.228 392.093 113.043C391.256 110.353 390.306 107.784 389.114 105.334C387.796 102.769 386.486 100.445 384.936 98.2405Z" fill="#C8C8C8"/>
<path fill-rule="evenodd" clip-rule="evenodd" d="M390.063 100.81C391.496 103.255 392.569 105.704 393.519 108.394C394.474 111.083 395.306 113.778 395.665 116.587C394.71 113.898 393.878 111.328 392.923 108.634C392.086 106.069 391.136 103.38 390.063 100.81Z" fill="#C8C8C8"/>
<path fill-rule="evenodd" clip-rule="evenodd" d="M396.144 107.904C397.099 109.738 397.931 111.818 398.291 113.898C398.768 116.102 399.004 118.182 398.886 120.381C398.527 118.182 398.291 116.102 397.813 114.023C397.336 111.943 396.74 109.863 396.144 107.904Z" fill="#C8C8C8"/>
<path fill-rule="evenodd" clip-rule="evenodd" d="M399.121 108.394C400.076 110.598 400.79 112.918 401.149 115.367C401.509 117.817 401.627 120.261 401.268 122.706C401.149 120.261 400.908 117.812 400.554 115.487C400.194 113.168 399.599 110.843 399.121 108.394Z" fill="#C8C8C8"/>
<path fill-rule="evenodd" clip-rule="evenodd" d="M401.985 111.698C402.822 113.778 403.295 115.977 403.536 118.182C403.772 120.381 403.772 122.706 403.418 124.91C403.3 122.711 403.177 120.506 403.058 118.307C402.699 115.977 402.34 113.898 401.985 111.698Z" fill="#C8C8C8"/>
<path fill-rule="evenodd" clip-rule="evenodd" d="M378.141 131.759C379.691 132.369 381.001 133.349 382.315 134.449C383.625 135.548 384.698 136.898 385.653 138.488C384.461 137.263 383.27 136.043 382.074 134.938C380.883 133.839 379.569 132.739 378.141 131.759Z" fill="#C8C8C8"/>
<path fill-rule="evenodd" clip-rule="evenodd" d="M384.936 133.839C386.009 134.573 386.964 135.673 387.677 136.773C388.514 137.873 388.987 139.218 389.464 140.567C388.75 139.343 388.155 138.243 387.318 137.143C386.486 135.918 385.772 134.818 384.936 133.839Z" fill="#C8C8C8"/>
<path fill-rule="evenodd" clip-rule="evenodd" d="M388.273 133.349C389.464 134.329 390.419 135.793 391.251 137.263C391.965 138.853 392.442 140.443 392.442 142.157C392.083 140.567 391.487 138.978 390.892 137.508C390.183 136.038 389.228 134.694 388.273 133.349Z" fill="#C8C8C8"/>
<path fill-rule="evenodd" clip-rule="evenodd" d="M392.682 135.183C393.873 136.653 394.592 138.363 395.187 140.197C395.783 142.032 396.024 143.992 396.024 145.946C395.788 144.112 395.428 142.157 394.833 140.442C394.232 138.608 393.519 136.898 392.682 135.183Z" fill="#C8C8C8"/>
<path fill-rule="evenodd" clip-rule="evenodd" d="M378.018 139.952C378.855 139.463 379.805 139.098 380.642 138.973C381.597 138.848 382.551 138.848 383.383 139.093C382.429 139.213 381.597 139.338 380.642 139.458C379.81 139.587 378.973 139.712 378.018 139.952Z" fill="#C8C8C8"/>
<path fill-rule="evenodd" clip-rule="evenodd" d="M391.85 149.251C392.805 149.006 393.76 148.641 394.71 148.761C392.446 146.806 391.491 143.132 388.868 141.787C387.913 141.297 386.721 141.177 385.53 141.177C384.457 141.177 383.384 141.542 382.193 141.667C381.001 141.787 379.81 141.912 378.737 141.912C380.047 143.382 381.243 145.091 382.67 146.561C385.053 148.886 388.631 149.986 391.85 149.251Z" fill="#C8C8C8"/>
<path fill-rule="evenodd" clip-rule="evenodd" d="M442.76 134.329C440.613 135.063 438.467 136.288 436.439 137.508C434.534 138.733 432.506 139.833 430.837 141.547C429.405 143.017 428.332 144.851 427.382 146.686C424.64 151.335 421.78 156.229 420.707 161.733L420.111 160.878C420.111 161.368 420.23 161.858 420.348 162.223C421.898 162.588 423.685 162.098 424.999 160.998C426.432 159.899 427.505 158.309 428.455 156.719C429.764 154.395 430.96 151.825 431.911 149.136C432.624 147.056 433.102 144.856 434.175 142.897C436.203 139.098 439.54 136.653 442.76 134.329Z" fill="#C8C8C8"/>
<path d="M431.498 236.305H431.498L431.498 236.314C431.615 243.096 426.664 248.5 420.495 248.5H408.503C402.464 248.5 397.5 243.099 397.5 236.305V208.695C397.5 201.896 402.459 196.5 408.503 196.5H420.495C426.534 196.5 431.498 201.901 431.498 208.695V236.305Z" fill="#F5F5F5" stroke="#CCCCCC"/>
<path fill-rule="evenodd" clip-rule="evenodd" d="M366.395 132.657C367.587 133.022 368.541 133.637 369.615 134.492C370.688 135.347 371.524 136.082 372.356 137.181C371.401 136.447 370.447 135.712 369.373 134.982C368.423 134.007 367.35 133.392 366.395 132.657Z" fill="#C8C8C8"/>
<path fill-rule="evenodd" clip-rule="evenodd" d="M431.313 141.912C431.908 140.812 432.745 139.832 433.695 139.098C434.65 138.363 435.723 137.873 436.796 137.628C435.841 138.238 434.891 138.973 433.936 139.708C432.981 140.322 432.145 141.177 431.313 141.912Z" fill="#C8C8C8"/>
<path fill-rule="evenodd" clip-rule="evenodd" d="M429.883 141.057C430.119 141.667 430.242 142.282 430.119 142.892C430.001 143.502 429.76 144.116 429.282 144.482C429.282 143.872 429.4 143.257 429.519 142.767C429.646 142.157 429.764 141.667 429.883 141.057Z" fill="#C8C8C8"/>
<g clip-path="url(#clip0_8943_280524)">
<rect width="288" height="254" rx="4" fill="#F5F5F5"/>
<g filter="url(#filter0_d_8943_280524)">
<rect x="56" y="69" width="176" height="138" rx="4" fill="white"/>
<path d="M211.5 111C211.5 111.828 210.828 112.5 210 112.5H78C77.1716 112.5 76.5 111.828 76.5 111V91C76.5 90.1716 77.1716 89.5 78 89.5H210C210.828 89.5 211.5 90.1716 211.5 91L211.5 111Z" fill="white" stroke="#CCCCCC"/>
<path d="M211.5 147C211.5 147.828 210.828 148.5 210 148.5H78C77.1716 148.5 76.5 147.828 76.5 147V127C76.5 126.172 77.1716 125.5 78 125.5H210C210.828 125.5 211.5 126.172 211.5 127L211.5 147Z" fill="white" stroke="#CCCCCC"/>
<rect x="76" y="161" width="136" height="26" rx="2" fill="#0056CF"/>
<path d="M138.439 179H136.711L132.516 172.162H132.463C132.479 172.393 132.492 172.637 132.504 172.895C132.52 173.152 132.531 173.418 132.539 173.691C132.551 173.965 132.561 174.242 132.568 174.523V179H131.291V170.434H133.008L137.197 177.225H137.238C137.23 177.025 137.221 176.797 137.209 176.539C137.197 176.281 137.186 176.016 137.174 175.742C137.166 175.465 137.16 175.197 137.156 174.939V170.434H138.439V179ZM143.133 172.391C143.711 172.391 144.207 172.51 144.621 172.748C145.035 172.986 145.354 173.324 145.576 173.762C145.799 174.199 145.91 174.723 145.91 175.332V176.07H141.58C141.596 176.699 141.764 177.184 142.084 177.523C142.408 177.863 142.861 178.033 143.443 178.033C143.857 178.033 144.229 177.994 144.557 177.916C144.889 177.834 145.23 177.715 145.582 177.559V178.678C145.258 178.83 144.928 178.941 144.592 179.012C144.256 179.082 143.854 179.117 143.385 179.117C142.748 179.117 142.188 178.994 141.703 178.748C141.223 178.498 140.846 178.127 140.572 177.635C140.303 177.143 140.168 176.531 140.168 175.801C140.168 175.074 140.291 174.457 140.537 173.949C140.783 173.441 141.129 173.055 141.574 172.789C142.02 172.523 142.539 172.391 143.133 172.391ZM143.133 173.428C142.699 173.428 142.348 173.568 142.078 173.85C141.812 174.131 141.656 174.543 141.609 175.086H144.562C144.559 174.762 144.504 174.475 144.398 174.225C144.297 173.975 144.141 173.779 143.93 173.639C143.723 173.498 143.457 173.428 143.133 173.428ZM148.898 175.684L146.73 172.514H148.301L149.783 174.793L151.271 172.514H152.836L150.656 175.684L152.947 179H151.371L149.783 176.568L148.189 179H146.625L148.898 175.684ZM156.486 178.004C156.666 178.004 156.844 177.988 157.02 177.957C157.195 177.922 157.355 177.881 157.5 177.834V178.877C157.348 178.943 157.15 179 156.908 179.047C156.666 179.094 156.414 179.117 156.152 179.117C155.785 179.117 155.455 179.057 155.162 178.936C154.869 178.811 154.637 178.598 154.465 178.297C154.293 177.996 154.207 177.58 154.207 177.049V173.562H153.322V172.947L154.271 172.461L154.723 171.072H155.59V172.514H157.447V173.562H155.59V177.031C155.59 177.359 155.672 177.604 155.836 177.764C156 177.924 156.217 178.004 156.486 178.004Z" fill="white"/>
</g>
<path d="M217.154 186.394L218.206 186.105L217.3 185.497L194.336 170.085L193.173 169.304L193.579 170.645L201.797 197.8L202.09 198.768L202.682 197.947L203.65 196.602L203.65 196.602L203.652 196.598C203.904 196.242 204.156 195.864 204.412 195.48C204.468 195.396 204.524 195.312 204.58 195.227C204.896 194.754 205.223 194.272 205.577 193.793L205.577 193.793L205.583 193.784C206.226 192.875 206.685 192.281 207.47 192.281C208.148 192.281 208.614 192.776 209.238 193.659L209.243 193.666L209.248 193.673L217.347 204.316L217.67 204.74L218.072 204.391L220.612 202.192L220.975 201.878L220.676 201.502L212.11 190.75C212.083 190.71 212.053 190.667 212.023 190.623C211.724 190.193 211.305 189.589 211.47 188.835C211.55 188.516 211.77 188.272 212.077 188.066C212.305 187.912 212.525 187.81 212.739 187.712C212.823 187.673 212.905 187.635 212.987 187.595C213.737 187.344 214.422 187.153 215.061 186.975C215.325 186.902 215.58 186.83 215.83 186.758L217.154 186.394Z" fill="white" stroke="#333333"/>
<rect width="288" height="40" fill="#0056CF"/>
<g clip-path="url(#clip1_8943_280524)">
<path d="M160.859 27.4545C161.298 28.0909 161.21 28.9091 160.683 29.3636C160.068 29.8182 159.19 29.7273 158.751 29.1818L155.678 25.0909L152.693 29.0909C152.254 29.7273 151.376 29.7273 150.761 29.2727C150.146 28.8182 150.059 28 150.498 27.3636L154.01 22.6364L150.498 17.9091C150.059 17.2727 150.234 16.3636 150.761 15.9091C151.376 15.4545 152.254 15.6364 152.693 16.1818L155.678 20.2727L158.751 16.3636C159.19 15.7273 159.98 15.6364 160.683 16.0909C161.298 16.5455 161.298 17.4545 160.859 18.0909L157.434 22.7273L160.859 27.4545ZM144.878 26.9091C142.595 26.9091 140.751 25.0909 140.751 22.7273C140.751 20.4545 142.595 18.5455 144.878 18.5455C147.161 18.5455 149.005 20.4545 149.005 22.7273C148.917 25.0909 147.073 26.9091 144.878 26.9091ZM132.761 26.9091C130.478 26.9091 128.634 25.0909 128.634 22.7273C128.634 20.4545 130.478 18.5455 132.761 18.5455C135.044 18.5455 136.888 20.4545 136.888 22.7273C136.888 25.0909 135.044 26.9091 132.761 26.9091ZM144.878 15.8182C142.332 15.8182 140.049 17.2727 138.907 19.4545C137.766 17.2727 135.483 15.8182 132.849 15.8182C131.268 15.8182 129.863 16.3636 128.722 17.1818V11.3636C128.722 10.6364 128.107 10 127.405 10C126.615 10 126 10.6364 126 11.3636V22.8182C126.088 26.6364 129.073 29.6364 132.761 29.6364C135.395 29.6364 137.678 28.0909 138.82 25.9091C139.961 28.0909 142.244 29.6364 144.79 29.6364C148.566 29.6364 151.639 26.5455 151.639 22.6364C151.727 18.9091 148.654 15.8182 144.878 15.8182Z" fill="white"/>
</g>
</g>
<rect x="0.5" y="0.5" width="287" height="253" rx="3.5" stroke="#333333"/>
<path fill-rule="evenodd" clip-rule="evenodd" d="M351.057 100.921C351.482 102.57 352.191 104.386 352.966 106.362C354.157 109.404 355.497 112.831 356.186 116.633C357.014 121.214 357.737 126.284 358.397 131.72C359.057 137.151 359.651 142.948 360.215 148.994C360.349 150.407 360.33 151.835 360.316 153.282C360.297 154.945 360.282 156.622 360.488 158.295C362.685 171.032 364.484 184.591 365.714 197.981C366.886 210.756 367.537 223.378 367.518 234.976V235.005L367.494 235.019C367.101 235.279 366.618 235.481 366.092 235.63C365.551 235.779 364.962 235.865 364.374 235.884C363.78 235.903 363.197 235.851 362.67 235.721C362.177 235.601 361.737 235.413 361.393 235.149L361.378 235.139L361.373 235.12C361.187 234.274 360.895 232.919 360.512 231.126C358.842 223.335 355.392 207.257 351.042 189.166C349.009 180.697 346.678 171.887 344.453 163.457C341.74 153.19 339.18 143.486 337.462 135.618L336.313 130.639C336.222 143.953 335.476 157.872 334.988 166.932L334.974 167.182C334.83 169.84 334.71 172.065 334.639 173.771C334.634 173.887 334.639 174.319 334.648 175.035V175.088C334.72 181.62 335.05 211.55 331.15 235.87L331.145 235.894L331.126 235.908C330.686 236.182 330.246 236.365 329.815 236.471C329.337 236.591 328.868 236.62 328.423 236.586C327.901 236.548 327.408 236.418 326.963 236.245C326.427 236.033 325.963 235.754 325.599 235.481L325.58 235.466V235.442C325.542 231.929 325.475 227.641 325.346 222.893C325.217 218.144 325.03 212.924 324.748 207.541C324.46 202.033 324.082 196.347 323.57 190.791C323.063 185.235 322.427 179.813 321.632 174.838C321.623 174.766 321.575 174.56 321.503 174.223C320.776 170.859 317.302 154.738 317.177 134.681C317.139 128.5 317.35 120.988 318.072 113.816C318.637 108.207 319.513 102.805 320.824 98.4072L320.843 98.3447L320.9 98.3784C323.044 99.5752 325.331 100.729 327.662 101.608C329.992 102.488 332.366 103.098 334.672 103.218C337.395 103.358 340.103 103.199 342.706 102.824C345.64 102.406 348.444 101.719 350.985 100.892L351.037 100.873L351.057 100.921ZM352.865 106.4C352.1 104.439 351.392 102.642 350.966 101.003C348.434 101.825 345.645 102.507 342.721 102.925C340.113 103.295 337.4 103.459 334.667 103.319C332.346 103.199 329.963 102.589 327.623 101.704C325.307 100.83 323.034 99.6857 320.905 98.4985C319.604 102.877 318.733 108.246 318.173 113.826C317.45 120.992 317.24 128.5 317.278 134.681C317.402 154.724 320.876 170.835 321.599 174.199C321.671 174.536 321.714 174.742 321.728 174.819C322.522 179.799 323.159 185.22 323.666 190.781C324.173 196.342 324.556 202.028 324.843 207.536C325.121 212.919 325.312 218.139 325.441 222.893C325.571 227.632 325.638 231.909 325.676 235.418C326.03 235.682 326.475 235.952 326.992 236.153C327.427 236.322 327.911 236.447 328.423 236.485C328.858 236.519 329.317 236.49 329.782 236.37C330.198 236.264 330.619 236.091 331.045 235.831C334.94 211.521 334.61 181.615 334.538 175.088V175.035C334.529 174.314 334.524 173.882 334.529 173.767C334.6 172.055 334.72 169.83 334.863 167.177L334.878 166.927C335.371 157.761 336.132 143.64 336.208 130.197L336.213 129.754L337.562 135.594C339.275 143.457 341.84 153.166 344.549 163.433C346.774 171.858 349.099 180.659 351.138 189.142C355.492 207.243 358.938 223.316 360.608 231.107C360.991 232.895 361.283 234.25 361.464 235.082C361.795 235.327 362.216 235.509 362.689 235.625C363.206 235.75 363.78 235.803 364.364 235.788C364.943 235.769 365.527 235.687 366.058 235.538C366.565 235.399 367.03 235.202 367.408 234.957C367.427 223.368 366.776 210.761 365.604 198C364.379 184.615 362.579 171.056 360.378 158.319V158.314C360.172 156.632 360.187 154.95 360.206 153.287C360.22 151.845 360.235 150.417 360.105 149.014C359.541 142.977 358.947 137.18 358.287 131.739C357.627 126.308 356.904 121.238 356.076 116.662C355.397 112.855 354.057 109.438 352.865 106.4Z" fill="#404040"/>
<path fill-rule="evenodd" clip-rule="evenodd" d="M336.265 130.033C336.193 143.53 335.427 157.732 334.934 166.932C334.786 169.691 334.662 172.003 334.585 173.757C334.58 173.877 334.585 174.329 334.595 175.079C334.666 181.606 334.997 211.535 331.097 235.855C330.178 236.423 329.259 236.591 328.422 236.528C327.278 236.442 326.283 235.932 325.627 235.432C325.551 228.401 325.354 218.298 324.799 207.527C324.225 196.515 323.273 184.773 321.684 174.819C318.067 152.075 315.808 120.036 321.215 98.4793L319.918 98.239C313.956 121.141 316.755 152.186 320.397 175.103C321.976 184.985 322.924 196.659 323.493 207.618C324.062 218.61 324.254 228.848 324.326 235.855L324.33 236.245L324.589 236.475C325.369 237.168 326.742 237.965 328.345 238.09C329.498 238.177 330.766 237.922 332.025 237.038L332.279 236.86L332.336 236.514C336.317 211.997 335.982 181.659 335.911 175.069C335.901 174.372 335.896 173.944 335.901 173.843C335.973 172.18 336.097 169.84 336.25 167.038C336.681 159.03 337.317 147.235 337.523 135.388L336.265 130.033Z" fill="#333333"/>
<path fill-rule="evenodd" clip-rule="evenodd" d="M324.641 235.433C323.076 236.081 321.162 236.74 319.21 237.413C315.286 238.763 311.2 240.172 308.85 241.897C306.764 243.43 305.96 245.185 307.501 247.295L307.563 247.377L307.644 247.439C308.577 248.189 313.209 248.314 318.43 247.992C323.488 247.679 329.182 246.987 332.556 246.093L332.637 246.074C333.417 245.896 335.322 245.492 333.814 239.917C333.757 239.71 333.35 238.812 332.972 237.956C332.661 237.264 332.364 236.601 332.331 236.5L330.852 236.99C330.905 237.153 331.221 237.86 331.556 238.6C331.915 239.398 332.293 240.244 332.317 240.326C333.403 244.334 332.762 244.449 332.297 244.555L332.183 244.579C328.91 245.449 323.32 246.127 318.344 246.43C313.606 246.723 309.51 246.718 308.692 246.261C307.931 245.117 308.491 244.094 309.778 243.142C311.927 241.561 315.903 240.191 319.722 238.879C321.665 238.211 323.569 237.552 325.234 236.865L324.641 235.433Z" fill="#333333"/>
<path fill-rule="evenodd" clip-rule="evenodd" d="M328.709 115.114C329.546 116.008 330.493 116.801 331.541 117.383C332.628 117.984 333.824 118.368 335.135 118.416L335.666 118.435L335.728 119.06C337.432 136.397 342.04 153.575 347.481 173.848C352.127 191.166 357.381 210.742 361.956 234.606C362.77 235.043 363.65 235.149 364.511 235.077C365.334 235.005 366.138 234.764 366.851 234.476C366.703 227.401 366.358 216.707 365.588 205.34C365.043 197.27 364.286 188.892 363.234 181.284C363.09 180.231 362.942 179.231 362.798 178.28C362.65 177.318 362.497 176.367 362.339 175.439C362.214 174.713 362.047 173.79 361.884 172.896C361.454 170.522 361.056 168.35 360.832 165.644C359.056 144.087 358.573 122.521 350.429 101.156L351.591 100.719C359.717 119.911 360.329 144.63 362.047 165.509C362.262 168.095 362.65 170.243 363.081 172.594C363.215 173.334 363.353 174.098 363.535 175.155C363.693 176.098 363.851 177.054 363.999 178.025C364.157 179.053 364.306 180.063 364.44 181.048C365.502 188.719 366.263 197.135 366.808 205.224C367.593 216.846 368.531 228.324 368.674 235.437L368.684 235.951L368.277 236.134C366.32 237.014 362.191 237.562 360.707 235.355L360.645 235.029C356.065 211.054 350.979 191.656 346.318 174.29C340.916 154.166 336.336 137.084 334.575 119.834C333.293 119.709 332.111 119.3 331.029 118.7C329.838 118.036 328.771 117.142 327.838 116.133C327 115.229 327.881 114.23 328.709 115.114Z" fill="#333333"/>
<path fill-rule="evenodd" clip-rule="evenodd" d="M351.004 100.935C352.08 105.122 354.999 110.37 356.133 116.647C357.789 125.808 359.033 136.921 360.163 149.004C360.445 152.037 360.048 155.171 360.435 158.304C364.732 183.192 367.503 211.228 367.465 234.976C366.675 235.495 365.522 235.793 364.369 235.831C363.23 235.865 362.124 235.639 361.421 235.106C360.43 230.636 356.444 211.425 351.09 189.147C346.568 170.344 340.634 149.922 337.514 135.599L336.265 130.192C336.189 143.645 335.428 157.771 334.935 166.937C334.787 169.696 334.662 172.007 334.586 173.762C334.581 173.882 334.586 174.334 334.595 175.083C334.667 181.611 334.997 211.54 331.097 235.86C330.178 236.427 329.26 236.596 328.422 236.533C327.279 236.447 326.283 235.937 325.628 235.437C325.551 228.406 325.355 218.303 324.8 207.531C324.226 196.52 323.273 184.778 321.685 174.824C321.556 174.016 317.369 156.723 317.23 134.676C317.163 123.66 317.885 108.429 320.876 98.4216C325.164 100.82 330.04 103.031 334.672 103.266C340.476 103.56 346.204 102.497 351.004 100.935Z" fill="#404040"/>
<path fill-rule="evenodd" clip-rule="evenodd" d="M315.788 65.6035C316.358 63.2052 317.296 61.3114 318.468 59.4225C319.301 58.0864 320.085 56.8175 320.698 56.0436C321.688 54.7892 322.09 55.1112 321.167 56.284C320.588 57.0193 319.951 58.0383 319.157 59.3168C318.056 61.0855 316.817 63.407 316.291 65.618C315.826 67.5694 315.606 69.8236 316.449 71.5539C317.181 73.0583 318.994 74.9424 321.061 75.8796C322.846 76.5573 323.76 77.8454 324.966 79.2056C325.593 79.9122 326.45 80.3928 327.21 81.0465L327.641 81.0993C334.36 81.902 341.207 81.2916 345.734 80.513C346.045 78.4895 346.734 76.5429 347.265 74.8655C347.744 73.3418 348.356 71.6884 349.041 70.6118C347.854 68.1846 346.198 65.3536 344.126 62.167C343.27 60.85 343.796 61.0423 344.595 62.2727C350.916 71.9768 351.749 77.1965 352.208 78.9317L352.476 79.9362L351.586 80.0275C350.734 80.114 349.533 80.3495 348.079 80.6331C343.456 81.5367 336.441 82.2481 327.923 81.3781C327.914 81.7097 327.89 82.0462 327.837 82.4163C327.766 82.9161 327.651 85.2376 327.45 85.9057C341.576 88.6598 350.677 89.001 355.558 88.6021C358.544 88.357 360.975 87.5447 361.865 87.0112C362.468 86.6459 362.645 86.3767 362.693 86.2518C359.755 51.1267 346.011 47.7622 343.14 47.2576C342.777 47.1951 342.533 47.1518 342.341 47.0413L342.274 46.998C341.877 46.7096 341.327 46.2771 340.719 45.806C339.743 45.0466 338.35 43.9364 337.647 43.4653C336.13 44.5275 333.919 45.633 331.838 45.9358C329.838 46.2242 327.531 45.9214 326.139 44.6814C325.875 45.0082 325.583 45.3302 325.296 45.6234C324.665 46.2627 323.009 47.0893 322.612 47.2912L322.535 47.3297L322.459 47.3489C314.956 49.257 311.931 55.265 308.62 60.4175C306.538 63.657 303.753 67.7039 301.227 69.3141C303.61 69.2035 307.204 69.0786 309.745 68.9584L315.625 75.5143C316.233 75.4278 318.224 75.3221 318.808 75.3269C318.076 74.6059 316.669 72.9429 316.257 72.097C315.243 70.0206 315.247 67.8818 315.788 65.6035ZM327.263 88.5108L324.574 85.0838C324.851 85.1079 325.119 85.1463 325.378 85.204L326.191 85.1367L327.129 86.0019C334.273 87.4197 341.906 88.6165 346.48 89.0683C346.466 90.2507 347.557 91.4811 347.595 92.5145C347.638 93.6248 350.533 99.4886 350.658 100.536C347.835 102.714 337.384 102.161 332.613 102.44C328.976 102.651 323.689 100.421 320.406 98.037C320.746 96.7153 321.712 94.3938 321.961 93.1009C322.205 91.8176 322.612 90.3276 322.693 89.0251L327.263 88.5108ZM292.771 66.983C289.762 65.7718 286.115 63.8636 282.766 61.446C282.474 61.8738 281.622 62.5707 281.182 62.9648C280.751 63.3493 279.684 64.1232 279.124 64.4452C280.105 65.4353 281.885 66.8772 282.947 67.8241C283.737 68.5306 284.661 69.3718 285.512 70.0831C286.484 70.035 287.958 69.9197 288.929 69.8716C288.953 69.862 288.962 69.8572 288.962 69.8572L289.072 69.8091C291.733 69.6746 296.159 69.3814 298.652 69.2612C297.341 68.968 294.169 67.5453 292.771 66.983Z" fill="url(#paint0_linear_8943_280524)"/>
<path fill-rule="evenodd" clip-rule="evenodd" d="M330.273 14.2906C332.833 14.8385 336 16.2756 338.369 18.5539C340.111 20.2313 341.432 22.3605 341.791 24.9271C341.987 24.9896 342.164 25.0857 342.341 25.2011C342.676 25.427 342.92 25.7731 343.073 26.196C343.207 26.5853 343.264 27.0419 343.231 27.5322C343.15 28.6857 342.556 30.07 341.307 31.1514C341.216 31.6993 341.14 32.2136 341.073 32.7087C341.058 32.8 341.049 32.8913 341.034 32.9778C343.685 29.7576 345.021 26.4171 345.284 23.2785C345.58 19.7699 344.532 16.5063 342.484 13.959C341.489 12.7189 340.278 11.6375 338.943 10.7483C336.489 9.12374 333.593 8.14323 330.727 8.05191C327.899 7.96059 325.105 8.72961 322.812 10.5897C321.894 11.3347 321.051 12.2623 320.315 13.3822C319.276 14.9587 318.63 16.7947 318.601 18.7509C318.578 20.3034 318.941 21.9424 319.807 23.6054C321.602 22.8075 326.918 20.3707 329.421 14.728L329.674 14.1608L330.273 14.2906Z" fill="#666666"/>
<path fill-rule="evenodd" clip-rule="evenodd" d="M330.287 14.2427C331.651 14.5359 333.187 15.0791 334.68 15.8625C336.001 16.5594 337.293 17.4438 338.407 18.5156C339.321 19.3952 340.121 20.4045 340.728 21.5292C341.274 22.5482 341.666 23.6681 341.838 24.8841C341.925 24.9129 342.011 24.9514 342.097 24.9946C342.188 25.0427 342.279 25.0956 342.37 25.1581C342.542 25.2734 342.69 25.4176 342.815 25.5906C342.939 25.7637 343.044 25.9607 343.121 26.1818C343.193 26.3789 343.241 26.6 343.264 26.8259C343.293 27.0518 343.298 27.2921 343.279 27.5372C343.236 28.1524 343.049 28.8349 342.695 29.503C342.384 30.0894 341.939 30.6662 341.355 31.1805C341.312 31.4448 341.269 31.7044 341.231 31.9591L341.111 32.805C342.341 31.291 343.279 29.7481 343.949 28.2101C344.681 26.5423 345.097 24.8793 345.231 23.2739C345.375 21.5485 345.198 19.8806 344.729 18.333C344.25 16.7421 343.475 15.2761 342.441 13.9928C341.949 13.3824 341.403 12.8056 340.819 12.2769C340.226 11.7386 339.585 11.2436 338.91 10.7966C337.675 9.97948 336.331 9.32582 334.938 8.86921C333.565 8.41741 332.139 8.15306 330.722 8.1098C329.273 8.06174 327.832 8.24438 326.464 8.68176C325.172 9.09511 323.947 9.73916 322.841 10.638C322.377 11.0129 321.932 11.4358 321.511 11.9068C321.099 12.3635 320.712 12.8681 320.353 13.4161C319.822 14.2187 319.396 15.0935 319.099 16.0163C318.822 16.8911 318.659 17.8091 318.645 18.7559C318.63 19.549 318.721 20.3613 318.927 21.1928C319.118 21.9666 319.415 22.7549 319.822 23.5431C320.731 23.1394 322.478 22.3319 324.31 20.9477C326.172 19.5394 328.119 17.5255 329.368 14.7138L329.636 14.1082L330.287 14.2427ZM334.632 15.9538C333.144 15.1704 331.617 14.6321 330.263 14.3437L329.698 14.2235L329.464 14.7522C328.21 17.5832 326.248 19.6115 324.372 21.0294C322.501 22.4473 320.721 23.2595 319.822 23.6585L319.779 23.6777L319.755 23.6344C319.329 22.8221 319.027 22.0147 318.831 21.2168C318.626 20.3805 318.535 19.5538 318.544 18.7559C318.558 17.7995 318.721 16.8718 319.004 15.9875C319.3 15.055 319.731 14.1707 320.267 13.3584C320.631 12.8056 321.023 12.2962 321.434 11.8347C321.86 11.3589 322.305 10.936 322.774 10.5563C323.889 9.64784 325.129 8.99898 326.43 8.58083C327.808 8.13864 329.263 7.956 330.727 8.00406C332.153 8.05212 333.584 8.31647 334.972 8.76828C336.374 9.22969 337.728 9.88816 338.967 10.7101C339.642 11.157 340.288 11.6569 340.886 12.2C341.475 12.7335 342.025 13.3151 342.523 13.9303C343.566 15.2233 344.346 16.7036 344.829 18.3041C345.298 19.8662 345.48 21.5436 345.332 23.2836C345.198 24.8985 344.777 26.5711 344.04 28.2534C343.341 29.8443 342.36 31.4448 341.068 33.0117L340.953 33.1511L341.125 31.9399C341.164 31.6851 341.207 31.416 341.25 31.142L341.255 31.1228L341.269 31.1084C341.853 30.6037 342.288 30.0317 342.599 29.4502C342.944 28.7965 343.13 28.1284 343.174 27.5228C343.193 27.2825 343.183 27.0518 343.159 26.8307C343.135 26.6096 343.087 26.3981 343.02 26.2058C342.949 25.9944 342.848 25.8069 342.729 25.6435C342.609 25.4801 342.47 25.3455 342.312 25.235C342.226 25.1773 342.14 25.1244 342.049 25.0812C341.963 25.0379 341.867 24.9994 341.776 24.9658L341.743 24.9562L341.738 24.9225C341.566 23.7065 341.183 22.5866 340.633 21.5677C340.034 20.4478 339.24 19.4529 338.331 18.5781C337.23 17.5255 335.948 16.6459 334.632 15.9538Z" fill="#666666"/>
<path fill-rule="evenodd" clip-rule="evenodd" d="M336.104 7.60031C337.392 8.08095 338.631 8.71059 339.779 9.4748C341.167 10.3976 342.43 11.5079 343.488 12.772C344.909 12.9642 345.919 12.3298 346.517 11.2916C346.866 10.686 347.086 9.94583 347.177 9.14316C347.268 8.32127 347.225 7.43689 347.038 6.57655C346.526 4.21181 344.957 2.01048 342.287 1.62117C341 1.43372 339.775 1.54907 338.746 2.0201C337.827 2.44306 337.047 3.16402 336.506 4.22623C336.157 4.91354 335.946 5.64411 335.908 6.3122C335.879 6.79284 335.942 7.23983 336.104 7.60031Z" fill="#666666"/>
<path fill-rule="evenodd" clip-rule="evenodd" d="M336.143 7.56186C336.784 7.80218 337.411 8.07614 338.019 8.38856C338.636 8.70097 339.234 9.05184 339.808 9.43154C340.512 9.89776 341.177 10.412 341.804 10.9648C342.416 11.5079 342.991 12.0991 343.512 12.7191C344.172 12.8056 344.742 12.7095 345.22 12.474C345.747 12.2192 346.163 11.7915 346.469 11.2628C346.642 10.9648 346.78 10.6379 346.886 10.2823C346.996 9.92179 347.077 9.53248 347.12 9.13355C347.168 8.725 347.178 8.29723 347.154 7.86947C347.13 7.4417 347.072 7.00912 346.981 6.58135C346.713 5.33169 346.144 4.12529 345.268 3.21688C344.503 2.41902 343.507 1.84706 342.273 1.66923C341.622 1.5731 340.986 1.55868 340.387 1.62597C339.808 1.69326 339.263 1.83745 338.76 2.06335C338.296 2.27483 337.866 2.56802 337.488 2.94292C337.124 3.29859 336.808 3.73597 336.545 4.25026C336.373 4.59151 336.234 4.94238 336.133 5.28844C336.033 5.6345 335.971 5.98056 335.952 6.3122C335.937 6.55252 335.947 6.78803 335.98 7.00432C336.019 7.20618 336.066 7.39363 336.143 7.56186ZM337.971 8.47988C337.358 8.16746 336.727 7.88869 336.086 7.64837L336.066 7.63876L336.057 7.61953C335.975 7.43689 335.918 7.23502 335.885 7.01873C335.851 6.79764 335.841 6.55732 335.856 6.30739C335.875 5.97094 335.937 5.61527 336.038 5.2644C336.138 4.90873 336.282 4.55306 336.454 4.207C336.722 3.6831 337.043 3.24092 337.416 2.87563C337.803 2.49593 338.239 2.19793 338.717 1.97684C339.229 1.74132 339.784 1.59713 340.373 1.52984C340.981 1.46255 341.627 1.47697 342.282 1.5731C343.541 1.75574 344.56 2.34212 345.34 3.1544C346.225 4.08203 346.804 5.30286 347.077 6.57174C347.168 7.00432 347.23 7.4417 347.254 7.87427C347.278 8.31165 347.264 8.73942 347.221 9.15758C347.173 9.56612 347.096 9.96024 346.981 10.3255C346.871 10.686 346.728 11.0225 346.556 11.3253C346.24 11.8732 345.809 12.3106 345.264 12.5797C344.761 12.8249 344.168 12.9258 343.479 12.8297L343.459 12.8248L343.445 12.8104C342.924 12.1856 342.349 11.5944 341.737 11.0513C341.115 10.4986 340.45 9.98427 339.751 9.52286C339.177 9.13835 338.583 8.79229 337.971 8.47988Z" fill="#666666"/>
<path fill-rule="evenodd" clip-rule="evenodd" d="M320.256 24.6147C320.256 26.6142 320.519 30.7717 322.065 34.4919C323.022 36.7893 324.467 38.9137 326.654 40.2307C327.989 41.0334 329.142 41.3842 330.276 41.3314C331.425 41.2785 332.602 40.8123 333.966 39.9808C335.195 39.231 336.416 38.2312 337.54 37.1354C338.78 35.9242 339.885 34.5976 340.742 33.3431L341.249 33.2326L342 34.2083C341.096 35.5397 339.918 36.9479 338.603 38.2312C337.406 39.3992 336.09 40.471 334.75 41.2881C333.167 42.2542 331.765 42.7973 330.339 42.8646C328.893 42.9319 327.472 42.5089 325.869 41.5476C323.362 40.0384 321.72 37.6497 320.653 35.0831C319.002 31.1178 318.725 26.7296 318.725 24.6196H320.256V24.6147Z" fill="#333333"/>
<path fill-rule="evenodd" clip-rule="evenodd" d="M340.791 33.2709C343.599 29.9642 345.011 26.5132 345.284 23.2785C345.581 19.7698 344.533 16.5063 342.485 13.9589C341.489 12.7188 340.279 11.6374 338.944 10.7482C336.489 9.12366 333.594 8.14316 330.727 8.05184C327.899 7.96052 325.105 8.72954 322.813 10.5896C321.894 11.3346 321.052 12.2622 320.315 13.3821C319.276 14.9586 318.63 16.7947 318.602 18.7509C318.578 20.3033 318.941 21.9423 319.808 23.6053C321.602 22.8074 326.918 20.3706 329.421 14.7279L329.675 14.1608L330.278 14.2905C332.838 14.8385 336.005 16.2756 338.374 18.5538C340.255 20.361 341.638 22.6969 341.858 25.5423L340.484 25.6865C340.475 25.5471 340.307 25.3789 340.288 25.2443C340.006 23.0045 338.848 21.1348 337.312 19.6593C335.34 17.7655 332.756 16.5111 330.541 15.9343C327.665 21.7933 322.114 24.2638 320.334 25.052C320.133 25.1385 320.176 24.9799 320.09 25.0905L319.406 25.9652L318.836 25.0088C317.568 22.8795 317.042 20.7503 317.075 18.7316C317.109 16.4678 317.855 14.3482 319.042 12.541C319.865 11.2865 320.812 10.2435 321.856 9.39763C324.449 7.29243 327.603 6.41767 330.78 6.52341C333.924 6.62915 337.101 7.69616 339.781 9.47453C341.255 10.4502 342.58 11.6422 343.676 13.0024C345.968 15.8526 347.141 19.4958 346.81 23.4082C346.514 26.9457 344.987 30.6995 341.953 34.2707L340.791 33.2709Z" fill="#333333"/>
<path fill-rule="evenodd" clip-rule="evenodd" d="M340.551 25.0379C341.283 24.7014 341.843 24.8697 342.34 25.2061C342.675 25.432 342.919 25.7781 343.072 26.201C343.206 26.5903 343.264 27.047 343.23 27.5372C343.13 28.9551 342.264 30.7094 340.359 31.8437C339.823 32.1609 339.244 31.3294 339.89 30.9353C341.436 29.9981 342.139 28.5946 342.216 27.4651C342.24 27.1142 342.206 26.797 342.115 26.5375C342.039 26.3164 341.924 26.1482 341.78 26.052C341.584 25.9175 341.297 25.9126 340.929 26.0761C340.579 26.2299 340.019 25.2782 340.551 25.0379Z" fill="#333333"/>
<path fill-rule="evenodd" clip-rule="evenodd" d="M340.327 26.6431C340.647 26.5325 340.925 26.5758 341.14 26.7248C341.313 26.8402 341.442 27.018 341.518 27.2391C341.59 27.4409 341.619 27.6765 341.6 27.9312C341.547 28.6522 341.112 29.5461 340.159 30.1325C339.8 30.3536 339.528 29.9258 339.915 29.6855C340.69 29.1953 341.049 28.4791 341.088 27.8976C341.102 27.7149 341.083 27.5467 341.035 27.4121C340.997 27.2968 340.935 27.2054 340.858 27.1526C340.777 27.0997 340.671 27.0853 340.542 27.1189C340.049 27.2343 339.853 26.8017 340.327 26.6431Z" fill="#333333"/>
<path fill-rule="evenodd" clip-rule="evenodd" d="M341.312 31.1129C341.216 31.6753 341.139 32.2088 341.068 32.7135C340.895 33.9439 340.737 35.035 340.374 36.0635L339.173 35.6357C339.498 34.7177 339.642 33.6892 339.804 32.5308C339.876 32.0069 339.957 31.459 340.053 30.8918L341.312 31.1129Z" fill="#333333"/>
<path fill-rule="evenodd" clip-rule="evenodd" d="M334.923 8.63352C334.501 7.96544 334.334 7.11951 334.387 6.22072C334.439 5.34115 334.702 4.3991 335.143 3.52914C335.846 2.1401 336.88 1.18843 338.109 0.626086C339.416 0.0252875 340.933 -0.128517 342.497 0.10219C345.909 0.597247 347.9 3.33208 348.532 6.25436C348.752 7.27812 348.804 8.33072 348.694 9.31603C348.579 10.3254 348.292 11.2722 347.838 12.0653C346.886 13.7187 345.239 14.704 342.933 14.2426L343.225 12.7334C344.78 13.0458 345.881 12.3969 346.517 11.2963C346.866 10.6907 347.087 9.95047 347.177 9.14781C347.268 8.32592 347.225 7.44154 347.039 6.5812C346.527 4.21646 344.957 2.01513 342.287 1.62581C341 1.43836 339.775 1.55372 338.746 2.02474C337.827 2.44771 337.047 3.16866 336.506 4.23088C336.157 4.91819 335.947 5.64876 335.908 6.31685C335.875 6.90323 335.97 7.42712 336.215 7.81644L334.923 8.63352Z" fill="#333333"/>
<path fill-rule="evenodd" clip-rule="evenodd" d="M297.284 80.5372L304.552 87.569L303.672 88.4918L296.403 81.46L297.284 80.5372ZM320.559 88.2659L325.789 88.0063L323.492 85.4013L324.444 84.5553L328.497 89.1551L320.621 89.5444L320.559 88.2659ZM317.812 78.9607L309.543 69.5787L287.096 70.6985L287.436 71.0254L286.555 71.9482L284.091 69.569C292.757 69.1365 301.423 68.6991 310.089 68.2761L318.76 78.1148L317.812 78.9607Z" fill="#333333"/>
<path fill-rule="evenodd" clip-rule="evenodd" d="M316.033 79.2683C314.276 77.985 312.386 76.7161 310.721 75.6011C308.348 74.0101 306.4 72.7076 305.869 72.0347C305.165 71.1407 305.395 70.3525 305.888 69.7421L289.13 70.5399C288.479 70.8668 285.02 72.8566 289.427 76.173C291.906 78.0379 294.82 79.4125 297.385 80.6189C300.763 82.2098 303.577 83.5316 304.338 85.4878C305.137 87.5401 304.677 89.2512 304.175 90.299L319.162 89.6117C319.698 89.0974 321.421 87.2806 321.354 85.2379L322.627 85.1994C322.727 88.2226 319.846 90.7171 319.837 90.7219L319.669 90.8661C313.611 91.1305 307.549 91.4189 301.49 91.6976L302.529 90.5585C302.534 90.5537 304.208 88.6696 303.156 85.954C302.581 84.4736 299.978 83.248 296.854 81.7773C294.231 80.542 291.25 79.1386 288.671 77.1968C282.101 72.251 288.7 69.3335 288.714 69.3239L288.824 69.2759C296.26 68.9058 302.658 68.627 310.099 68.2761L308.218 69.5835C308.214 69.5883 306.266 70.4678 306.874 71.2465C307.276 71.7607 309.147 73.0104 311.434 74.5436C313.138 75.6828 315.061 76.9757 316.789 78.235L316.033 79.2683Z" fill="#333333"/>
<path fill-rule="evenodd" clip-rule="evenodd" d="M327.444 41.1537L327.31 44.72L325.789 44.6624L325.923 41.1008L327.444 41.1537Z" fill="#333333"/>
<path fill-rule="evenodd" clip-rule="evenodd" d="M337.952 38.4331L338.363 43.0088C339.138 43.5135 340.359 44.4651 341.411 45.287C342 45.7436 342.536 46.1618 342.876 46.4165C342.919 46.4261 342.971 46.4117 343.144 46.4405C346.23 46.9789 360.313 49.4493 363.332 85.8625C363.337 85.9058 363.332 86.0115 363.313 86.1221C363.265 86.3816 362.988 87.2083 361.753 87.9533C360.7 88.5877 358.844 89.2366 355.575 89.5058C350.489 89.9239 341.808 89.4385 327.008 86.5018L326.146 86.3287L326.434 85.4972C326.769 84.5215 326.941 83.8198 327.022 83.2238C327.104 82.6278 327.104 82.1231 327.089 81.556L327.07 80.6716L327.946 80.7774C336.602 81.8059 344.005 80.364 348.694 79.4508C349.747 79.2441 350.666 79.0663 351.446 78.9461C350.776 76.5574 348.838 70.5686 343.325 62.1046C342.469 60.7876 343.789 60.0138 344.589 61.2442C350.915 70.9531 352.652 77.5234 353.116 79.2585L353.384 80.2631L352.494 80.3544C351.642 80.4409 350.441 80.6764 348.986 80.96C344.364 81.8636 337.143 83.2719 328.625 82.4019C328.616 82.7336 328.592 83.07 328.539 83.4401C328.467 83.94 328.352 84.4975 328.151 85.1656C342.277 87.9196 350.584 88.3811 355.465 87.9773C358.451 87.7322 360.088 87.1747 360.978 86.6412C361.581 86.2759 361.758 86.0067 361.806 85.8817C358.868 50.7567 345.771 48.4592 342.895 47.9594C342.531 47.8969 342.287 47.8536 342.096 47.7431L342.029 47.6998C341.631 47.4114 341.081 46.9789 340.473 46.5078C339.282 45.5754 337.865 44.4747 337.272 44.1431L336.918 43.946L336.435 38.5773L337.952 38.4331Z" fill="#333333"/>
<path fill-rule="evenodd" clip-rule="evenodd" d="M320.08 79.2443C318.515 79.3068 315.931 79.5615 313.787 80.1815C312.749 80.4795 311.835 80.864 311.242 81.3351C310.787 81.7004 310.543 82.1185 310.639 82.5992C310.696 82.8731 310.844 83.1807 311.108 83.5364C313.352 86.228 316.811 85.5262 320.185 84.8389C322.793 84.3102 325.353 83.7863 327.554 84.6515L326.999 86.0838C325.21 85.382 322.865 85.8579 320.482 86.3433C316.663 87.122 312.749 87.915 309.921 84.5025L309.897 84.4736C309.485 83.9257 309.241 83.4018 309.141 82.9116C308.906 81.7725 309.38 80.864 310.289 80.1383C311.055 79.5279 312.155 79.0568 313.366 78.706C315.673 78.0379 318.486 77.7687 320.142 77.7111C321.735 77.6582 321.692 79.1818 320.08 79.2443Z" fill="#333333"/>
<path fill-rule="evenodd" clip-rule="evenodd" d="M349.657 71.0495C348.963 72.0444 348.369 73.3854 347.872 74.9523C347.317 76.7066 346.896 78.7205 346.589 80.8497L345.077 80.6334C345.398 78.4177 345.838 76.3125 346.412 74.4909C346.953 72.7846 347.613 71.2994 348.403 70.1699L349.657 71.0495ZM323.381 88.8331C323.319 90.3279 323.118 91.8035 322.84 93.279C322.592 94.5719 322.075 96.3167 321.735 97.6384C328.099 103.728 347.862 102.204 350.102 100.479C349.815 98.0566 345.761 90.9383 345.809 88.5015L347.331 88.6024C347.283 91.1113 351.346 98.2248 351.666 100.715L351.719 101.137C341.029 105.237 324.085 103.358 319.998 98.2392L320.127 97.749C320.505 96.2974 321.065 94.4229 321.338 92.9906C321.611 91.5776 321.802 90.1693 321.855 88.7706L323.381 88.8331Z" fill="#333333"/>
<path fill-rule="evenodd" clip-rule="evenodd" d="M278.946 64.6855C278.037 64.0318 276.362 63.7915 274.534 63.532C271.926 63.1619 269.026 62.7485 266.983 60.999C265.882 60.0617 264.562 58.168 264.141 55.9379C263.83 54.2989 263.992 52.4677 265.055 50.6797L265.079 50.6412C266.552 48.4735 268.677 49.9491 271.194 51.6938C272.634 52.6936 274.233 53.799 275.764 54.1883L275.773 54.1066C275.836 53.626 275.864 52.8474 275.817 51.5881L275.793 51.242C275.735 50.5643 275.683 49.8866 276.228 49.2233C276.386 49.0359 276.563 48.8917 276.769 48.8004C277.109 48.6466 277.472 48.637 277.845 48.7619C278.128 48.8533 278.42 49.0263 278.712 49.2666C279.645 50.0404 280.717 51.6698 281.578 53.602C281.836 54.1787 282.061 54.7122 282.238 55.2698C282.42 55.8417 282.554 56.4281 282.626 57.0962C282.669 57.4999 282.688 57.8941 282.712 58.2834C282.765 59.2591 282.822 60.2011 283.181 60.9125L281.817 61.6094C281.315 60.6145 281.252 59.509 281.185 58.3699C281.166 57.995 281.142 57.6153 281.104 57.2548C281.047 56.7021 280.937 56.2118 280.784 55.7408C280.626 55.2457 280.42 54.7603 280.185 54.2316C279.415 52.5061 278.501 51.0834 277.745 50.4586C277.611 50.348 277.487 50.2663 277.386 50.2327C277.262 50.4249 277.29 50.7758 277.319 51.1267C277.329 51.242 277.338 51.3478 277.343 51.54C277.396 52.8858 277.357 53.751 277.286 54.3037C277.228 54.7651 277.142 55.0535 277.061 55.2313C276.845 55.6975 276.472 55.8177 276.266 55.8273C276.214 55.8321 276.185 55.8273 276.132 55.8225C274.065 55.5485 272.089 54.1787 270.328 52.9579C268.505 51.6938 266.959 50.622 266.347 51.5016C265.524 52.9098 265.399 54.3566 265.643 55.6591C265.993 57.5096 267.074 59.062 267.969 59.831C269.682 61.2922 272.347 61.6719 274.749 62.0179C276.778 62.3063 278.635 62.5707 279.841 63.4406L278.946 64.6855Z" fill="#333333"/>
<path fill-rule="evenodd" clip-rule="evenodd" d="M325.569 25.9414C326.272 26.0663 327.148 25.975 327.722 25.8548C326.454 25.7635 325.865 23.9227 324.348 23.8362C323.621 23.7929 322.497 24.1005 321.812 25.2973C322.013 25.4271 322.391 25.3694 322.463 25.3646C322.42 27.3737 324.875 27.6524 325.569 25.9414Z" fill="#333333"/>
<path fill-rule="evenodd" clip-rule="evenodd" d="M335.019 25.6385C335.732 25.6241 336.574 25.355 337.11 25.1291C335.847 25.2877 334.909 23.6054 333.406 23.8217C332.684 23.9275 331.645 24.4514 331.21 25.7587C331.43 25.8452 331.794 25.7154 331.861 25.6962C332.22 27.6668 334.679 27.4554 335.019 25.6385Z" fill="#333333"/>
<path fill-rule="evenodd" clip-rule="evenodd" d="M329.229 34.2132C330.038 34.1747 330.742 35.0063 330.799 36.0781C330.856 37.1451 330.244 38.0439 329.435 38.0871C328.626 38.1256 327.923 37.2941 327.866 36.2223C327.808 35.1504 328.416 34.2516 329.229 34.2132Z" fill="#333333"/>
<path fill-rule="evenodd" clip-rule="evenodd" d="M332.306 33.9729C331.1 35.3427 328.133 35.4244 326.649 34.8381C326.602 35.6936 327.669 36.7125 329.253 36.5155C332.377 36.1214 332.258 34.4295 332.306 33.9729Z" fill="#333333"/>
<path fill-rule="evenodd" clip-rule="evenodd" d="M329.334 31.6512C328.344 31.7137 327.013 30.7428 326.951 29.8584C326.817 27.9551 329.2 27.8061 329.234 25.9893C329.818 27.9887 325.937 29.4739 329.334 31.6512Z" fill="#333333"/>
<path fill-rule="evenodd" clip-rule="evenodd" d="M338.1 44.0757L337.903 44.2247C336.377 45.3542 334.118 46.3636 331.931 46.6808C329.931 46.9692 327.965 46.6952 326.572 45.4551C326.309 45.782 326.017 46.104 325.73 46.3972C325.098 47.0364 324.438 47.5651 324.036 47.7622L323.959 47.8007L323.883 47.8199C316.38 49.728 312.566 55.6687 309.254 60.8212C306.867 64.5365 304.728 67.8673 301.593 69.2371L301.474 69.29L301.349 69.2996C298.66 69.5015 295.664 68.9247 292.439 67.627C289.425 66.4158 286.209 64.5749 282.854 62.1573C282.563 62.5899 282.185 63.0081 281.74 63.407C281.309 63.7915 280.806 64.152 280.251 64.474C281.228 65.4641 282.242 66.4206 283.304 67.3675C284.611 68.5354 285.998 69.6937 287.482 70.8953L286.525 72.0921C285.046 70.8953 283.644 69.7226 282.29 68.5162C280.95 67.3242 279.668 66.0986 278.423 64.7912L277.672 64.003L278.672 63.5608C279.476 63.2051 280.175 62.7533 280.73 62.2631C281.285 61.768 281.692 61.2393 281.907 60.7346L282.29 59.8455L283.065 60.4222C286.563 63.0129 289.903 64.9643 293.009 66.2091C295.961 67.3963 298.689 67.9394 301.11 67.7808C303.761 66.5552 305.752 63.4503 307.977 59.9945C311.427 54.6257 315.403 48.4399 323.428 46.3539C323.701 46.1953 324.165 45.8012 324.653 45.3158C325.108 44.8592 325.558 44.3304 325.859 43.845L326.443 42.903L327.175 43.869C328.17 45.1475 329.912 45.4311 331.726 45.1716C333.659 44.8928 335.654 44.0036 336.999 43.0087L337.19 42.8645L338.1 44.0757Z" fill="#333333"/>
<path fill-rule="evenodd" clip-rule="evenodd" d="M321.654 56.6444C321.075 57.3798 320.286 58.4468 319.491 59.7253C318.391 61.494 317.295 63.6617 316.768 65.8727C316.304 67.8241 316.381 69.8235 317.223 71.5538C317.955 73.0582 319.281 74.38 321.348 75.3172C323.133 75.9949 324.262 77.2638 325.473 78.624C326.305 79.5612 327.176 80.5418 328.296 81.33L327.425 82.5845C326.143 81.6857 325.214 80.6379 324.329 79.643C323.243 78.4173 322.224 77.2734 320.783 76.7351C319.998 76.4419 319.166 76.2448 318.304 76.1631C317.486 76.0862 316.63 76.1103 315.744 76.2593L315.5 74.7453C316.199 74.6299 316.883 74.577 317.558 74.5866C316.826 73.8657 316.261 73.0678 315.85 72.2171C314.84 70.1455 314.744 67.7904 315.285 65.5122C315.854 63.1138 317.027 60.7971 318.199 58.9082C319.032 57.572 319.864 56.4425 320.477 55.6639C321.463 54.419 322.573 55.4716 321.654 56.6444Z" fill="#333333"/>
<path fill-rule="evenodd" clip-rule="evenodd" d="M361.457 234.961C360.059 235.923 357.566 237.533 355.796 238.6C352.24 240.743 348.537 242.983 346.603 245.16C344.885 247.097 344.464 248.982 346.407 250.721L346.484 250.789L346.575 250.837C347.642 251.375 352.202 250.524 357.241 249.111C362.122 247.742 367.548 245.872 370.659 244.291L370.735 244.257C371.462 243.92 373.243 243.123 370.606 237.989C370.505 237.802 369.922 237.004 369.371 236.249C368.921 235.639 368.496 235.053 368.438 234.957L367.094 235.745C367.18 235.889 367.634 236.519 368.118 237.172C368.634 237.879 369.185 238.629 369.218 238.701C371.113 242.392 370.51 242.642 370.079 242.839L369.974 242.887C366.955 244.425 361.629 246.261 356.824 247.607C352.255 248.885 348.245 249.746 347.35 249.472C346.369 248.515 346.699 247.391 347.761 246.194C349.532 244.199 353.14 242.022 356.595 239.936C358.356 238.874 360.844 237.268 362.332 236.245L361.457 234.961Z" fill="#333333"/>
<path fill-rule="evenodd" clip-rule="evenodd" d="M310.07 243.002C309.998 243.05 309.926 243.103 309.854 243.156C308.567 244.103 308.007 245.132 308.768 246.276C309.586 246.732 313.687 246.732 318.42 246.444C323.401 246.136 328.99 245.463 332.259 244.593L332.373 244.569C332.675 244.502 333.058 244.43 332.976 243.262C332.933 242.647 332.766 241.724 332.393 240.34C332.373 240.263 331.991 239.412 331.632 238.614C331.464 238.239 331.297 237.874 331.172 237.581C330.225 238.028 329.287 238.158 328.416 238.09C327.148 237.994 326.023 237.47 325.22 236.917C323.573 237.595 321.702 238.239 319.793 238.898C316.104 240.162 312.257 241.484 310.07 243.002Z" fill="#FEFEFE"/>
<path fill-rule="evenodd" clip-rule="evenodd" d="M356.599 239.941C354.646 241.119 352.646 242.325 350.957 243.512C349.655 244.43 348.536 245.329 347.76 246.199C346.698 247.396 346.368 248.516 347.349 249.477C348.244 249.751 352.254 248.89 356.824 247.612C360.685 246.531 364.887 245.132 367.954 243.825C368.7 243.507 369.38 243.195 369.973 242.892L370.079 242.844C370.509 242.642 371.112 242.397 369.217 238.706C369.179 238.634 368.633 237.884 368.117 237.177C367.92 236.913 367.734 236.653 367.571 236.427C365.973 236.937 363.676 237.172 362.078 236.427C360.57 237.451 358.259 238.936 356.599 239.941Z" fill="#FEFEFE"/>
<path fill-rule="evenodd" clip-rule="evenodd" d="M289.01 70.6022C288.178 71.0588 285.45 72.89 289.01 75.8459C289.139 75.9517 289.278 76.0622 289.426 76.1728C291.862 78.0088 294.724 79.3642 297.26 80.561L297.284 80.537L297.356 80.6043C297.365 80.6091 297.375 80.6139 297.389 80.6187C300.767 82.2096 303.581 83.5314 304.337 85.4876C305.136 87.5399 304.677 89.251 304.174 90.2987L319.162 89.6114C319.611 89.1789 320.903 87.8235 321.262 86.1893C321.004 86.2422 320.746 86.2902 320.492 86.3431C316.673 87.1217 312.759 87.9148 309.931 84.5022L309.907 84.4734C309.496 83.9255 309.252 83.4016 309.151 82.9113C308.917 81.7722 309.39 80.8638 310.299 80.138C311.065 79.5228 312.166 79.0566 313.376 78.7057C313.826 78.576 314.295 78.4606 314.774 78.3597C313.4 77.3936 311.998 76.4516 310.725 75.6008C308.352 74.0099 306.404 72.7074 305.873 72.0345C305.179 71.1549 305.395 70.3715 305.873 69.7659L289.01 70.6022Z" fill="#FEFEFE"/>
<path fill-rule="evenodd" clip-rule="evenodd" d="M279.424 63.1764C279.912 62.8977 280.352 62.5852 280.721 62.2584C281.099 61.922 281.405 61.5711 281.635 61.2202C281.29 60.3311 281.233 59.365 281.18 58.37C281.161 57.9951 281.137 57.6154 281.099 57.255C281.046 56.7407 280.946 56.2793 280.807 55.8323C280.797 55.7986 280.788 55.7698 280.778 55.7361C280.62 55.2411 280.415 54.7556 280.18 54.2269C279.41 52.5014 278.496 51.0788 277.74 50.4539C277.606 50.3434 277.481 50.2617 277.381 50.228C277.256 50.4203 277.285 50.7711 277.314 51.122C277.323 51.2374 277.333 51.3431 277.338 51.5354C277.39 52.8812 277.352 53.7463 277.28 54.299C277.223 54.7605 277.137 55.0488 277.055 55.2267C276.84 55.6929 276.467 55.813 276.261 55.8227C276.208 55.8275 276.18 55.8227 276.127 55.8179C274.06 55.5439 272.084 54.1741 270.323 52.9533C268.5 51.6892 266.954 50.6173 266.341 51.4969C265.518 52.9052 265.394 54.3519 265.638 55.6544C265.647 55.7121 265.662 55.7746 265.676 55.8323C266.059 57.6058 267.097 59.0814 267.968 59.8264C269.681 61.2875 272.347 61.6672 274.749 62.0133C276.558 62.2728 278.228 62.5083 279.424 63.1764Z" fill="#FEFEFE"/>
<path fill-rule="evenodd" clip-rule="evenodd" d="M322.065 34.4919C323.022 36.7893 324.467 38.9137 326.654 40.2307C327.989 41.0334 329.142 41.3842 330.276 41.3314C331.425 41.2785 332.602 40.8123 333.966 39.9808C335.196 39.231 336.416 38.2312 337.54 37.1354C338.167 36.5202 338.765 35.8761 339.311 35.2224C339.545 34.415 339.67 33.5258 339.809 32.5405C339.837 32.3194 339.871 32.0983 339.904 31.8724C339.584 31.7186 339.426 31.2187 339.885 30.9399C341.431 30.0027 342.134 28.5992 342.211 27.4697C342.235 27.1189 342.201 26.8016 342.11 26.5421C342.034 26.321 341.919 26.1528 341.775 26.0567C341.579 25.9221 341.292 25.9173 340.923 26.0807C340.679 26.1912 340.321 25.725 340.335 25.3693C340.311 25.3261 340.297 25.2876 340.292 25.2492C340.01 23.0094 338.852 21.1397 337.315 19.6642C335.344 17.7704 332.76 16.516 330.544 15.9392C327.668 21.7982 322.118 24.2687 320.338 25.0569C320.309 25.0713 320.28 25.0762 320.261 25.081C320.299 27.2054 320.629 31.0409 322.065 34.4919ZM332.305 33.9728C332.267 34.3333 332.334 35.4772 330.798 36.126C330.832 37.169 330.229 38.039 329.429 38.0774C328.654 38.1159 327.98 37.3565 327.869 36.3567C327.08 36.0539 326.616 35.4051 326.644 34.8331C327.027 34.9869 327.511 35.0927 328.037 35.1455C328.271 34.6024 328.702 34.2323 329.219 34.2083C329.717 34.1843 330.176 34.4919 330.468 34.9773C331.21 34.7947 331.875 34.4678 332.305 33.9728ZM340.541 27.1141C340.048 27.239 339.852 26.8016 340.325 26.643C340.646 26.5325 340.924 26.5757 341.139 26.7247C341.311 26.8401 341.44 27.0179 341.517 27.239C341.589 27.4409 341.617 27.6764 341.598 27.9311C341.546 28.6521 341.11 29.5461 340.158 30.1325C339.799 30.3536 339.526 29.9258 339.914 29.6855C340.689 29.1952 341.048 28.4791 341.086 27.8975C341.101 27.7149 341.081 27.5466 341.034 27.4121C340.995 27.2967 340.933 27.2054 340.856 27.1525C340.78 27.0948 340.675 27.0804 340.541 27.1141ZM329.233 25.9846C329.817 27.984 325.936 29.474 329.334 31.6465C328.343 31.709 327.013 30.7381 326.951 29.8537C326.817 27.9552 329.2 27.8014 329.233 25.9846ZM325.568 25.9413C324.879 27.6524 322.424 27.3736 322.462 25.3645C322.39 25.3693 322.012 25.427 321.811 25.2972C322.496 24.1053 323.62 23.7977 324.348 23.8361C325.864 23.9226 326.453 25.7635 327.721 25.8548C327.147 25.9749 326.271 26.0711 325.568 25.9413ZM337.114 25.129C336.579 25.3597 335.736 25.6241 335.023 25.6385C334.684 27.4505 332.224 27.6668 331.865 25.6914C331.798 25.7106 331.434 25.8404 331.214 25.7538C331.65 24.4465 332.688 23.9226 333.411 23.8169C334.913 23.6054 335.851 25.2924 337.114 25.129Z" fill="#FEFEFE"/>
<path fill-rule="evenodd" clip-rule="evenodd" d="M334.755 41.2883C333.171 42.2544 331.769 42.7975 330.343 42.8648C329.376 42.9081 328.415 42.735 327.405 42.3265L327.338 44.0664C328.352 45.1719 330.003 45.4074 331.716 45.1623C333.583 44.8931 335.501 44.0568 336.841 43.1051L336.564 40.0291C335.97 40.4857 335.363 40.9134 334.755 41.2883Z" fill="#FEFEFE"/>
<path fill-rule="evenodd" clip-rule="evenodd" d="M320.08 79.2441C318.515 79.3066 315.931 79.5613 313.787 80.1814C312.749 80.4794 311.835 80.8639 311.241 81.3349C310.787 81.7002 310.543 82.1183 310.639 82.599C310.696 82.8729 310.844 83.1854 311.107 83.5362C313.352 86.2278 316.811 85.5261 320.185 84.8388C322.487 84.3725 324.755 83.9063 326.769 84.4014C326.894 83.9496 326.97 83.5651 327.018 83.219C327.061 82.9114 327.08 82.6278 327.09 82.3442C325.975 81.5031 325.133 80.5515 324.324 79.643C323.238 78.4222 322.219 77.2735 320.778 76.7352C319.994 76.442 319.161 76.2449 318.3 76.1632C317.883 76.1248 317.453 76.1103 317.017 76.1296L318.501 77.8118C319.118 77.7589 319.678 77.7253 320.147 77.7061C321.735 77.658 321.692 79.1816 320.08 79.2441Z" fill="#FEFEFE"/>
<path fill-rule="evenodd" clip-rule="evenodd" d="M311.428 74.5386C313.045 75.6249 314.873 76.8457 316.529 78.0473C316.672 78.0281 316.816 78.0088 316.954 77.9896L309.542 69.5833L308.059 69.6553C307.614 69.8812 306.36 70.5974 306.867 71.2463C307.269 71.7557 309.14 73.0102 311.428 74.5386Z" fill="#FEFEFE"/>
<path fill-rule="evenodd" clip-rule="evenodd" d="M323.82 85.781C323.418 85.8195 323.002 85.8771 322.581 85.9444C322.48 86.7663 322.183 87.5353 321.815 88.2034L325.777 88.0064L323.82 85.781Z" fill="#FEFEFE"/>
<path fill-rule="evenodd" clip-rule="evenodd" d="M303.149 85.954C302.814 85.0889 301.785 84.3102 300.364 83.522L303.283 86.3481C303.245 86.2136 303.202 86.0838 303.149 85.954Z" fill="#FEFEFE"/>
<defs>
<filter id="filter0_d_8943_280524" x="41" y="61" width="206" height="168" filterUnits="userSpaceOnUse" color-interpolation-filters="sRGB">
<feFlood flood-opacity="0" result="BackgroundImageFix"/>
<feColorMatrix in="SourceAlpha" type="matrix" values="0 0 0 0 0 0 0 0 0 0 0 0 0 0 0 0 0 0 127 0" result="hardAlpha"/>
<feOffset dy="7"/>
<feGaussianBlur stdDeviation="7.5"/>
<feColorMatrix type="matrix" values="0 0 0 0 0.333333 0 0 0 0 0.333333 0 0 0 0 0.333333 0 0 0 0.1 0"/>
<feBlend mode="normal" in2="BackgroundImageFix" result="effect1_dropShadow_8943_280524"/>
<feBlend mode="normal" in="SourceGraphic" in2="effect1_dropShadow_8943_280524" result="shape"/>
</filter>
<linearGradient id="paint0_linear_8943_280524" x1="301.436" y1="42.9481" x2="345.918" y2="91.7278" gradientUnits="userSpaceOnUse">
<stop stop-color="#FFC671"/>
<stop offset="1" stop-color="#FF6F3D"/>
</linearGradient>
<clipPath id="clip0_8943_280524">
<rect width="288" height="254" rx="4" fill="white"/>
</clipPath>
<clipPath id="clip1_8943_280524">
<rect width="36" height="20" fill="white" transform="translate(126 10)"/>
</clipPath>
</defs>
</svg>
