<svg width="25" height="24" viewBox="0 0 25 24" fill="none" xmlns="http://www.w3.org/2000/svg">
<path d="M17.1133 3H14.9883C12.3008 3 10.8633 4.74 10.8633 7.44V9.6H8.36328C8.17578 9.6 7.73828 9.72 7.73828 10.2V12.6C7.73828 13.02 8.05078 13.2 8.36328 13.2H10.8633V20.64C10.8633 20.82 11.0508 21 11.2383 21H14.0508C14.2383 21 14.6133 20.88 14.6133 20.7V13.2H17.1133C17.6133 13.2 17.7383 12.96 17.7383 12.6V10.2C17.7383 10.08 17.7383 9.6 17.1133 9.6H14.6133V7.8C14.6133 6.96 14.8633 6.6 15.8008 6.6H17.1133C17.4883 6.6 17.7383 6.18 17.7383 6V3.6C17.7383 3.18 17.4883 3 17.1133 3Z" fill="#41479B"/>
</svg>
