<svg width="25" height="24" viewBox="0 0 25 24" fill="none" xmlns="http://www.w3.org/2000/svg">
<path d="M21.1403 12.2067C21.1403 11.5949 21.0897 10.9798 20.9817 10.3779H12.3208V13.8437H17.2805C17.0747 14.9614 16.4134 15.9502 15.4451 16.5786V18.8273H18.404C20.1416 17.2598 21.1403 14.9449 21.1403 12.2067Z" fill="#4285F4"/>
<path d="M12.3209 21C14.7974 21 16.8859 20.203 18.4075 18.8273L15.4486 16.5786C14.6253 17.1275 13.5625 17.4384 12.3243 17.4384C9.92879 17.4384 7.89767 15.8543 7.1689 13.7246H4.11548V16.0428C5.67424 19.082 8.84912 21 12.3209 21Z" fill="#34A853"/>
<path d="M7.16548 13.7246C6.78085 12.6068 6.78085 11.3964 7.16548 10.2787V7.96045H4.11543C2.81309 10.5035 2.81309 13.4997 4.11543 16.0428L7.16548 13.7246Z" fill="#FBBC04"/>
<path d="M12.3209 6.56164C13.63 6.54179 14.8952 7.02462 15.8433 7.91089L18.4648 5.34135C16.8049 3.81352 14.6017 2.97354 12.3209 3C8.84911 3 5.67424 4.91806 4.11548 7.9605L7.16552 10.2787C7.89092 8.14569 9.9254 6.56164 12.3209 6.56164Z" fill="#EA4335"/>
</svg>
