<svg width="25" height="24" viewBox="0 0 25 24" fill="none" xmlns="http://www.w3.org/2000/svg">
<path d="M3.9165 8.95987V21H8.07492V8.95987H3.9165ZM18.768 8.77926C18.7086 8.77926 18.7086 8.77926 18.6492 8.71906C18.5898 8.71906 18.5304 8.71906 18.471 8.65886C18.2333 8.59866 17.9957 8.59866 17.7581 8.59866C15.3818 8.59866 13.8967 10.2843 13.4215 10.9465V8.89966H9.26303V20.9398H13.4215V14.3177C13.4215 14.3177 16.2729 9.98328 17.5799 13.1137C17.5799 15.8829 17.5799 20.9398 17.5799 20.9398H21.7383V13.1137C21.7383 11.3077 20.4908 9.26087 18.768 8.77926ZM5.69868 6.97324C6.76799 6.97324 7.65908 6.07023 7.65908 4.98662C7.65908 3.90301 6.76799 3 5.69868 3C4.62937 3 3.73828 3.90301 3.73828 4.98662C3.73828 6.07023 4.62937 6.97324 5.69868 6.97324Z" fill="#0084B1"/>
</svg>
