<svg width="921" height="422" viewBox="0 0 921 422" fill="none" xmlns="http://www.w3.org/2000/svg">
<path d="M912.132 455.564C923.62 472.173 921.322 493.527 907.537 505.391C891.454 517.254 868.478 514.882 856.99 500.645L776.576 393.873L698.459 498.273C686.971 514.882 663.995 514.882 647.912 503.018C631.829 491.155 629.532 469.8 641.02 453.191L732.922 329.809L641.02 206.427C629.532 189.818 634.127 166.091 647.912 154.227C663.995 142.364 686.971 147.109 698.459 161.345L776.576 268.118L856.99 166.091C868.478 149.482 889.156 147.109 907.537 158.973C923.62 170.836 923.62 194.564 912.132 211.173L822.527 332.182L912.132 455.564ZM493.976 441.327C434.239 441.327 385.99 393.873 385.99 332.182C385.99 272.864 434.239 223.036 493.976 223.036C553.712 223.036 601.961 272.864 601.961 332.182C599.663 393.873 551.415 441.327 493.976 441.327ZM176.912 441.327C117.176 441.327 68.9268 393.873 68.9268 332.182C68.9268 272.864 117.176 223.036 176.912 223.036C236.649 223.036 284.898 272.864 284.898 332.182C284.898 393.873 236.649 441.327 176.912 441.327ZM493.976 151.855C427.346 151.855 367.61 189.818 337.741 246.764C307.873 189.818 248.137 151.855 179.21 151.855C137.854 151.855 101.093 166.091 71.2244 187.445V35.5909C71.2244 16.6091 55.1415 0 36.761 0C16.0829 0 0 16.6091 0 35.5909V334.555C2.29756 434.209 80.4146 512.509 176.912 512.509C245.839 512.509 305.576 472.173 335.444 415.227C365.312 472.173 425.049 512.509 491.678 512.509C590.473 512.509 670.888 431.836 670.888 329.809C673.185 232.527 592.771 151.855 493.976 151.855Z" fill="url(#paint0_linear_8924_6537)"/>
<defs>
<linearGradient id="paint0_linear_8924_6537" x1="7.00001" y1="26.9999" x2="947" y2="460" gradientUnits="userSpaceOnUse">
<stop stop-color="white" stop-opacity="0"/>
<stop offset="0.5" stop-color="white" stop-opacity="0.15"/>
<stop offset="1" stop-color="white" stop-opacity="0"/>
</linearGradient>
</defs>
</svg>
