<svg width="2609" height="1587" viewBox="0 0 2609 1587" fill="none" xmlns="http://www.w3.org/2000/svg">
<g clip-path="url(#clip0_14_14268)">
<rect width="2609" height="1587" fill="#00679E"/>
<g style="mix-blend-mode:soft-light" opacity="0.2">
<path fill-rule="evenodd" clip-rule="evenodd" d="M982.028 663.218L72.0494 428.281C-5.62598 407.435 -15.7424 354.291 49.4362 309.49L809.453 -243.347C874.037 -291.274 988.463 -313.057 1063.05 -291.621L1973.02 -56.6849C2050.7 -35.8381 2060.82 17.3053 1995.64 62.1064L1235.62 614.944C1170.44 659.745 1056.02 681.527 982.028 663.218Z" fill="white"/>
</g>
<g style="mix-blend-mode:soft-light" opacity="0.3">
<path fill-rule="evenodd" clip-rule="evenodd" d="M1923.72 1256.78L903.057 1566.22C815.395 1591.84 769.736 1544.6 800.994 1460.64L1144.82 451.04C1173.39 364.296 1266.88 273.917 1352.02 250.742L2372.68 -58.6935C2460.35 -84.3118 2506.01 -37.0785 2474.75 46.8868L2130.92 1056.49C2099.66 1140.45 2006.17 1230.83 1923.72 1256.78Z" fill="#333333"/>
</g>
<g style="mix-blend-mode:soft-light" opacity="0.2">
<path fill-rule="evenodd" clip-rule="evenodd" d="M2550.72 1120.15L2016.75 1893.54C1970.43 1959.29 1917.05 1950.48 1897.44 1873.86L1640.19 969.938C1617.44 892.799 1636.4 777.872 1682.21 715.235L2216.18 -58.155C2262.5 -123.898 2315.88 -115.093 2335.49 -38.4716L2592.74 865.45C2612.36 942.071 2593.4 1057 2550.72 1120.15Z" fill="white"/>
</g>
</g>
<defs>
<clipPath id="clip0_14_14268">
<rect width="2609" height="1587" fill="white"/>
</clipPath>
</defs>
</svg>
