<svg width="108" height="48" viewBox="0 0 108 48" fill="none" xmlns="http://www.w3.org/2000/svg">
<path d="M54.0813 0C43.0249 0 33.6538 7.40907 30.7494 17.4475C28.2251 12.123 22.755 8.39268 16.4543 8.39268C7.78942 8.39268 0.666656 15.4334 0.666656 23.9984C0.666656 32.5634 7.78942 39.6073 16.4543 39.6073C22.755 39.6073 28.2251 35.8747 30.7494 30.5493C33.6538 40.5885 43.0249 48 54.0813 48C65.0558 48 74.3792 40.7002 77.3579 30.7743C79.9288 35.9788 85.3312 39.6073 91.5424 39.6073C100.207 39.6073 107.333 32.5634 107.333 23.9984C107.333 15.4334 100.207 8.39268 91.5424 8.39268C85.3312 8.39268 79.9288 12.0189 77.3579 17.2225C74.3792 7.29731 65.0558 0 54.0813 0ZM54.0813 9.16092C62.4275 9.16092 69.095 15.7483 69.095 23.9984C69.095 32.2485 62.4275 38.8391 54.0813 38.8391C45.735 38.8391 39.0708 32.2485 39.0708 23.9984C39.0708 15.7483 45.735 9.16092 54.0813 9.16092ZM16.4543 17.5536C20.111 17.5536 22.9775 20.3838 22.9775 23.9984C22.9775 27.6129 20.111 30.4464 16.4543 30.4464C12.7976 30.4464 9.93438 27.6129 9.93438 23.9984C9.93438 20.3838 12.7976 17.5536 16.4543 17.5536ZM91.5424 17.5536C95.1991 17.5536 98.0656 20.3838 98.0656 23.9984C98.0656 27.6129 95.1991 30.4464 91.5424 30.4464C87.8857 30.4464 85.0225 27.6129 85.0225 23.9984C85.0225 20.3838 87.8857 17.5536 91.5424 17.5536Z" fill="white"/>
</svg>
