<svg width="448" height="254" viewBox="0 0 448 254" fill="none" xmlns="http://www.w3.org/2000/svg">
<g clip-path="url(#clip0_16_76401)">
<rect y="4" width="288" height="217" rx="4" fill="white"/>
<rect x="1" y="4" width="287" height="80" fill="url(#paint0_linear_16_76401)"/>
<path d="M17.24 31.94C17.24 30.4467 17.4933 29.1667 18 28.1C18.52 27.02 19.26 26.1867 20.22 25.6C21.1933 25.0133 22.36 24.72 23.72 24.72C25.04 24.72 26.1867 25.0133 27.16 25.6C28.1333 26.1867 28.88 27.02 29.4 28.1C29.9333 29.1667 30.2 30.44 30.2 31.92C30.2 33.4133 29.9333 34.7 29.4 35.78C28.8667 36.86 28.1133 37.7 27.14 38.3C26.18 38.8867 25.04 39.18 23.72 39.18C22.36 39.18 21.2 38.8867 20.24 38.3C19.28 37.7 18.54 36.86 18.02 35.78C17.5 34.7 17.24 33.42 17.24 31.94ZM18.98 31.94C18.98 33.7533 19.38 35.1733 20.18 36.2C20.98 37.2133 22.16 37.72 23.72 37.72C25.2133 37.72 26.3733 37.2133 27.2 36.2C28.04 35.1733 28.46 33.7533 28.46 31.94C28.46 30.1133 28.0467 28.7 27.22 27.7C26.3933 26.6867 25.2267 26.18 23.72 26.18C22.16 26.18 20.98 26.6867 20.18 27.7C19.38 28.7 18.98 30.1133 18.98 31.94ZM33.0092 39V24.9H34.3092L43.3492 36.9H42.8892V24.9H44.4292V39H43.1492L34.1092 27H34.5492V39H33.0092ZM47.7506 39V24.9H49.4106V37.56H56.5306V39H47.7506ZM59.6048 39V32.42L59.9648 33.54L54.1248 24.9H56.0448L60.6848 31.92H60.2648L64.8848 24.9H66.7248L60.9048 33.54L61.2648 32.42V39H59.6048ZM66.6744 31.94C66.6744 30.4467 66.9277 29.1667 67.4344 28.1C67.9544 27.02 68.6944 26.1867 69.6544 25.6C70.6277 25.0133 71.7944 24.72 73.1544 24.72C74.4744 24.72 75.621 25.0133 76.5944 25.6C77.5677 26.1867 78.3144 27.02 78.8344 28.1C79.3677 29.1667 79.6344 30.44 79.6344 31.92C79.6344 33.4133 79.3677 34.7 78.8344 35.78C78.301 36.86 77.5477 37.7 76.5744 38.3C75.6144 38.8867 74.4744 39.18 73.1544 39.18C71.7944 39.18 70.6344 38.8867 69.6744 38.3C68.7144 37.7 67.9744 36.86 67.4544 35.78C66.9344 34.7 66.6744 33.42 66.6744 31.94ZM68.4144 31.94C68.4144 33.7533 68.8144 35.1733 69.6144 36.2C70.4144 37.2133 71.5944 37.72 73.1544 37.72C74.6477 37.72 75.8077 37.2133 76.6344 36.2C77.4744 35.1733 77.8944 33.7533 77.8944 31.94C77.8944 30.1133 77.481 28.7 76.6544 27.7C75.8277 26.6867 74.661 26.18 73.1544 26.18C71.5944 26.18 70.4144 26.6867 69.6144 27.7C68.8144 28.7 68.4144 30.1133 68.4144 31.94ZM82.4436 39V24.9H91.2436V26.26H84.1036V31.2H90.8036V32.56H84.1036V39H82.4436ZM93.4741 39V24.9H102.274V26.26H95.1341V31.2H101.834V32.56H95.1341V39H93.4741ZM104.505 39V24.9H106.165V39H104.505ZM115.62 39.18C114.207 39.18 113.007 38.8867 112.02 38.3C111.034 37.7133 110.274 36.88 109.74 35.8C109.22 34.72 108.96 33.4333 108.96 31.94C108.96 30.4467 109.22 29.1667 109.74 28.1C110.274 27.02 111.034 26.1867 112.02 25.6C113.007 25.0133 114.207 24.72 115.62 24.72C116.62 24.72 117.514 24.8733 118.3 25.18C119.087 25.4867 119.774 25.9333 120.36 26.52L119.74 27.84C119.1 27.28 118.467 26.8733 117.84 26.62C117.214 26.3533 116.48 26.22 115.64 26.22C114.027 26.22 112.8 26.72 111.96 27.72C111.12 28.72 110.7 30.1267 110.7 31.94C110.7 33.7533 111.12 35.1667 111.96 36.18C112.8 37.18 114.027 37.68 115.64 37.68C116.48 37.68 117.214 37.5533 117.84 37.3C118.467 37.0333 119.1 36.6133 119.74 36.04L120.36 37.38C119.774 37.9533 119.087 38.4 118.3 38.72C117.514 39.0267 116.62 39.18 115.62 39.18ZM122.952 39V24.9H131.952V26.26H124.572V31.16H131.512V32.54H124.572V37.62H131.952V39H122.952ZM145.665 39.18C144.252 39.18 143.052 38.8867 142.065 38.3C141.078 37.7133 140.318 36.88 139.785 35.8C139.265 34.72 139.005 33.4333 139.005 31.94C139.005 30.4467 139.265 29.1667 139.785 28.1C140.318 27.02 141.078 26.1867 142.065 25.6C143.052 25.0133 144.252 24.72 145.665 24.72C146.665 24.72 147.558 24.8733 148.345 25.18C149.132 25.4867 149.818 25.9333 150.405 26.52L149.785 27.84C149.145 27.28 148.512 26.8733 147.885 26.62C147.258 26.3533 146.525 26.22 145.685 26.22C144.072 26.22 142.845 26.72 142.005 27.72C141.165 28.72 140.745 30.1267 140.745 31.94C140.745 33.7533 141.165 35.1667 142.005 36.18C142.845 37.18 144.072 37.68 145.685 37.68C146.525 37.68 147.258 37.5533 147.885 37.3C148.512 37.0333 149.145 36.6133 149.785 36.04L150.405 37.38C149.818 37.9533 149.132 38.4 148.345 38.72C147.558 39.0267 146.665 39.18 145.665 39.18ZM156.234 39.18C155.274 39.18 154.434 38.9733 153.714 38.56C153.007 38.1333 152.46 37.5333 152.074 36.76C151.687 35.9733 151.494 35.0467 151.494 33.98C151.494 32.9 151.687 31.9733 152.074 31.2C152.46 30.4267 153.007 29.8333 153.714 29.42C154.434 28.9933 155.274 28.78 156.234 28.78C157.207 28.78 158.047 28.9933 158.754 29.42C159.474 29.8333 160.027 30.4267 160.414 31.2C160.814 31.9733 161.014 32.9 161.014 33.98C161.014 35.0467 160.814 35.9733 160.414 36.76C160.027 37.5333 159.474 38.1333 158.754 38.56C158.047 38.9733 157.207 39.18 156.234 39.18ZM156.234 37.86C157.194 37.86 157.954 37.5333 158.514 36.88C159.074 36.2133 159.354 35.2467 159.354 33.98C159.354 32.7 159.067 31.7333 158.494 31.08C157.934 30.4133 157.18 30.08 156.234 30.08C155.287 30.08 154.534 30.4133 153.974 31.08C153.414 31.7333 153.134 32.7 153.134 33.98C153.134 35.2467 153.414 36.2133 153.974 36.88C154.534 37.5333 155.287 37.86 156.234 37.86ZM163.339 39V31.28C163.339 30.9067 163.319 30.5267 163.279 30.14C163.253 29.74 163.219 29.3467 163.179 28.96H164.739L164.939 31.16H164.699C164.993 30.3867 165.459 29.8 166.099 29.4C166.753 28.9867 167.506 28.78 168.359 28.78C169.546 28.78 170.439 29.1 171.039 29.74C171.653 30.3667 171.959 31.36 171.959 32.72V39H170.339V32.82C170.339 31.8733 170.146 31.1867 169.759 30.76C169.386 30.32 168.799 30.1 167.999 30.1C167.066 30.1 166.326 30.3867 165.779 30.96C165.233 31.5333 164.959 32.3 164.959 33.26V39H163.339ZM174.858 39V31.28C174.858 30.9067 174.838 30.5267 174.798 30.14C174.771 29.74 174.738 29.3467 174.698 28.96H176.258L176.458 31.16H176.218C176.511 30.3867 176.978 29.8 177.618 29.4C178.271 28.9867 179.025 28.78 179.878 28.78C181.065 28.78 181.958 29.1 182.558 29.74C183.171 30.3667 183.478 31.36 183.478 32.72V39H181.858V32.82C181.858 31.8733 181.665 31.1867 181.278 30.76C180.905 30.32 180.318 30.1 179.518 30.1C178.585 30.1 177.845 30.3867 177.298 30.96C176.751 31.5333 176.478 32.3 176.478 33.26V39H174.858ZM190.837 39.18C189.264 39.18 188.024 38.7267 187.117 37.82C186.21 36.9 185.757 35.6267 185.757 34C185.757 32.9467 185.957 32.0333 186.357 31.26C186.757 30.4733 187.317 29.8667 188.037 29.44C188.757 29 189.584 28.78 190.517 28.78C191.437 28.78 192.21 28.9733 192.837 29.36C193.464 29.7467 193.944 30.3 194.277 31.02C194.61 31.7267 194.777 32.5667 194.777 33.54V34.14H186.997V33.12H193.717L193.377 33.38C193.377 32.3133 193.137 31.48 192.657 30.88C192.177 30.28 191.464 29.98 190.517 29.98C189.517 29.98 188.737 30.3333 188.177 31.04C187.617 31.7333 187.337 32.6733 187.337 33.86V34.04C187.337 35.2933 187.644 36.2467 188.257 36.9C188.884 37.54 189.757 37.86 190.877 37.86C191.477 37.86 192.037 37.7733 192.557 37.6C193.09 37.4133 193.597 37.1133 194.077 36.7L194.637 37.84C194.197 38.2667 193.637 38.6 192.957 38.84C192.29 39.0667 191.584 39.18 190.837 39.18ZM201.276 39.18C200.289 39.18 199.429 38.9667 198.696 38.54C197.976 38.1133 197.416 37.5067 197.016 36.72C196.629 35.9333 196.436 35 196.436 33.92C196.436 32.8267 196.636 31.9 197.036 31.14C197.436 30.3667 197.996 29.78 198.716 29.38C199.449 28.98 200.302 28.78 201.276 28.78C201.916 28.78 202.536 28.8933 203.136 29.12C203.749 29.3467 204.256 29.6667 204.656 30.08L204.076 31.24C203.676 30.8533 203.236 30.5667 202.756 30.38C202.289 30.1933 201.829 30.1 201.376 30.1C200.336 30.1 199.529 30.4267 198.956 31.08C198.382 31.7333 198.096 32.6867 198.096 33.94C198.096 35.18 198.382 36.14 198.956 36.82C199.529 37.5 200.336 37.84 201.376 37.84C201.816 37.84 202.269 37.7533 202.736 37.58C203.216 37.4067 203.662 37.12 204.076 36.72L204.656 37.86C204.242 38.2867 203.729 38.6133 203.116 38.84C202.502 39.0667 201.889 39.18 201.276 39.18ZM210.318 39.18C209.331 39.18 208.578 38.9 208.058 38.34C207.538 37.7667 207.278 36.9067 207.278 35.76V30.22H205.318V28.96H207.278V26.22L208.898 25.76V28.96H211.778V30.22H208.898V35.58C208.898 36.38 209.031 36.9533 209.298 37.3C209.578 37.6333 209.991 37.8 210.538 37.8C210.791 37.8 211.018 37.78 211.218 37.74C211.418 37.6867 211.598 37.6267 211.758 37.56V38.92C211.571 39 211.345 39.06 211.078 39.1C210.825 39.1533 210.571 39.18 210.318 39.18ZM217.573 39.18C216.613 39.18 215.773 38.9733 215.053 38.56C214.346 38.1333 213.799 37.5333 213.413 36.76C213.026 35.9733 212.833 35.0467 212.833 33.98C212.833 32.9 213.026 31.9733 213.413 31.2C213.799 30.4267 214.346 29.8333 215.053 29.42C215.773 28.9933 216.613 28.78 217.573 28.78C218.546 28.78 219.386 28.9933 220.093 29.42C220.813 29.8333 221.366 30.4267 221.753 31.2C222.153 31.9733 222.353 32.9 222.353 33.98C222.353 35.0467 222.153 35.9733 221.753 36.76C221.366 37.5333 220.813 38.1333 220.093 38.56C219.386 38.9733 218.546 39.18 217.573 39.18ZM217.573 37.86C218.533 37.86 219.293 37.5333 219.853 36.88C220.413 36.2133 220.693 35.2467 220.693 33.98C220.693 32.7 220.406 31.7333 219.833 31.08C219.273 30.4133 218.519 30.08 217.573 30.08C216.626 30.08 215.873 30.4133 215.313 31.08C214.753 31.7333 214.473 32.7 214.473 33.98C214.473 35.2467 214.753 36.2133 215.313 36.88C215.873 37.5333 216.626 37.86 217.573 37.86ZM224.638 39V31.38C224.638 30.98 224.625 30.5733 224.598 30.16C224.585 29.7467 224.558 29.3467 224.518 28.96H226.078L226.278 31.4L225.998 31.42C226.132 30.82 226.365 30.3267 226.698 29.94C227.032 29.5533 227.425 29.2667 227.878 29.08C228.332 28.88 228.805 28.78 229.298 28.78C229.498 28.78 229.672 28.7867 229.818 28.8C229.978 28.8133 230.125 28.8467 230.258 28.9L230.238 30.34C230.038 30.2733 229.852 30.2333 229.678 30.22C229.518 30.1933 229.332 30.18 229.118 30.18C228.532 30.18 228.018 30.32 227.578 30.6C227.152 30.88 226.825 31.24 226.598 31.68C226.385 32.12 226.278 32.5867 226.278 33.08V39H224.638ZM18.1 64V55.22H16.14V53.96H18.54L18.1 54.38V52.7C18.1 51.5667 18.3867 50.7 18.96 50.1C19.5333 49.5 20.3533 49.2 21.42 49.2C21.6867 49.2 21.96 49.2267 22.24 49.28C22.5333 49.32 22.7733 49.38 22.96 49.46V50.8C22.8 50.7333 22.6 50.68 22.36 50.64C22.1333 50.5867 21.9 50.56 21.66 50.56C21.2467 50.56 20.8933 50.6467 20.6 50.82C20.3067 50.98 20.0867 51.2267 19.94 51.56C19.7933 51.8933 19.72 52.32 19.72 52.84V54.3L19.46 53.96H22.52V55.22H19.72V64H18.1ZM27.9844 64.18C27.0244 64.18 26.1844 63.9733 25.4644 63.56C24.7577 63.1333 24.211 62.5333 23.8244 61.76C23.4377 60.9733 23.2444 60.0467 23.2444 58.98C23.2444 57.9 23.4377 56.9733 23.8244 56.2C24.211 55.4267 24.7577 54.8333 25.4644 54.42C26.1844 53.9933 27.0244 53.78 27.9844 53.78C28.9577 53.78 29.7977 53.9933 30.5044 54.42C31.2244 54.8333 31.7777 55.4267 32.1644 56.2C32.5644 56.9733 32.7644 57.9 32.7644 58.98C32.7644 60.0467 32.5644 60.9733 32.1644 61.76C31.7777 62.5333 31.2244 63.1333 30.5044 63.56C29.7977 63.9733 28.9577 64.18 27.9844 64.18ZM27.9844 62.86C28.9444 62.86 29.7044 62.5333 30.2644 61.88C30.8244 61.2133 31.1044 60.2467 31.1044 58.98C31.1044 57.7 30.8177 56.7333 30.2444 56.08C29.6844 55.4133 28.931 55.08 27.9844 55.08C27.0377 55.08 26.2844 55.4133 25.7244 56.08C25.1644 56.7333 24.8844 57.7 24.8844 58.98C24.8844 60.2467 25.1644 61.2133 25.7244 61.88C26.2844 62.5333 27.0377 62.86 27.9844 62.86ZM35.0502 64V56.38C35.0502 55.98 35.0368 55.5733 35.0102 55.16C34.9968 54.7467 34.9702 54.3467 34.9302 53.96H36.4902L36.6902 56.4L36.4102 56.42C36.5435 55.82 36.7768 55.3267 37.1102 54.94C37.4435 54.5533 37.8368 54.2667 38.2902 54.08C38.7435 53.88 39.2168 53.78 39.7102 53.78C39.9102 53.78 40.0835 53.7867 40.2302 53.8C40.3902 53.8133 40.5368 53.8467 40.6702 53.9L40.6502 55.34C40.4502 55.2733 40.2635 55.2333 40.0902 55.22C39.9302 55.1933 39.7435 55.18 39.5302 55.18C38.9435 55.18 38.4302 55.32 37.9902 55.6C37.5635 55.88 37.2368 56.24 37.0102 56.68C36.7968 57.12 36.6902 57.5867 36.6902 58.08V64H35.0502ZM45.9506 64L52.1706 49.9H53.6106L59.9306 64H58.2106L56.4506 59.98L57.1906 60.4H48.5706L49.3706 59.98L47.6506 64H45.9506ZM52.8706 51.8L49.6306 59.4L49.1506 59.04H56.5906L56.2306 59.4L52.9106 51.8H52.8706ZM61.6777 64V49.28H63.2977V64H61.6777ZM66.7633 64V55.22H64.8033V53.96H67.2033L66.7633 54.38V52.7C66.7633 51.5667 67.0499 50.7 67.6233 50.1C68.1966 49.5 69.0166 49.2 70.0833 49.2C70.3499 49.2 70.6233 49.2267 70.9033 49.28C71.1966 49.32 71.4366 49.38 71.6233 49.46V50.8C71.4633 50.7333 71.2633 50.68 71.0233 50.64C70.7966 50.5867 70.5633 50.56 70.3233 50.56C69.9099 50.56 69.5566 50.6467 69.2633 50.82C68.9699 50.98 68.7499 51.2267 68.6033 51.56C68.4566 51.8933 68.3833 52.32 68.3833 52.84V54.3L68.1233 53.96H71.1833V55.22H68.3833V64H66.7633ZM72.7611 64V56.38C72.7611 55.98 72.7478 55.5733 72.7211 55.16C72.7078 54.7467 72.6811 54.3467 72.6411 53.96H74.2011L74.4011 56.4L74.1211 56.42C74.2544 55.82 74.4878 55.3267 74.8211 54.94C75.1544 54.5533 75.5478 54.2667 76.0011 54.08C76.4544 53.88 76.9278 53.78 77.4211 53.78C77.6211 53.78 77.7944 53.7867 77.9411 53.8C78.1011 53.8133 78.2478 53.8467 78.3811 53.9L78.3611 55.34C78.1611 55.2733 77.9744 55.2333 77.8011 55.22C77.6411 55.1933 77.4544 55.18 77.2411 55.18C76.6544 55.18 76.1411 55.32 75.7011 55.6C75.2744 55.88 74.9478 56.24 74.7211 56.68C74.5078 57.12 74.4011 57.5867 74.4011 58.08V64H72.7611ZM84.2095 64.18C82.6362 64.18 81.3962 63.7267 80.4895 62.82C79.5829 61.9 79.1295 60.6267 79.1295 59C79.1295 57.9467 79.3295 57.0333 79.7295 56.26C80.1295 55.4733 80.6895 54.8667 81.4095 54.44C82.1295 54 82.9562 53.78 83.8895 53.78C84.8095 53.78 85.5829 53.9733 86.2095 54.36C86.8362 54.7467 87.3162 55.3 87.6495 56.02C87.9829 56.7267 88.1495 57.5667 88.1495 58.54V59.14H80.3695V58.12H87.0895L86.7495 58.38C86.7495 57.3133 86.5095 56.48 86.0295 55.88C85.5495 55.28 84.8362 54.98 83.8895 54.98C82.8895 54.98 82.1095 55.3333 81.5495 56.04C80.9895 56.7333 80.7095 57.6733 80.7095 58.86V59.04C80.7095 60.2933 81.0162 61.2467 81.6295 61.9C82.2562 62.54 83.1295 62.86 84.2495 62.86C84.8495 62.86 85.4095 62.7733 85.9295 62.6C86.4629 62.4133 86.9695 62.1133 87.4495 61.7L88.0095 62.84C87.5695 63.2667 87.0095 63.6 86.3295 63.84C85.6629 64.0667 84.9562 64.18 84.2095 64.18ZM93.7684 64.18C92.9684 64.18 92.2218 64.0733 91.5284 63.86C90.8351 63.6333 90.2618 63.32 89.8084 62.92L90.3684 61.78C90.8618 62.1667 91.3951 62.4533 91.9684 62.64C92.5551 62.8267 93.1618 62.92 93.7884 62.92C94.5884 62.92 95.1884 62.78 95.5884 62.5C96.0018 62.2067 96.2084 61.8067 96.2084 61.3C96.2084 60.9133 96.0751 60.6067 95.8084 60.38C95.5551 60.14 95.1351 59.9533 94.5484 59.82L92.6884 59.44C91.8351 59.2533 91.1951 58.94 90.7684 58.5C90.3418 58.0467 90.1284 57.4733 90.1284 56.78C90.1284 56.1933 90.2818 55.68 90.5884 55.24C90.8951 54.7867 91.3418 54.4333 91.9284 54.18C92.5151 53.9133 93.2018 53.78 93.9884 53.78C94.7218 53.78 95.3951 53.8933 96.0084 54.12C96.6351 54.3333 97.1551 54.6467 97.5684 55.06L96.9884 56.18C96.5884 55.7933 96.1284 55.5067 95.6084 55.32C95.1018 55.12 94.5751 55.02 94.0284 55.02C93.2418 55.02 92.6484 55.18 92.2484 55.5C91.8618 55.8067 91.6684 56.2133 91.6684 56.72C91.6684 57.1067 91.7884 57.4267 92.0284 57.68C92.2818 57.92 92.6684 58.1 93.1884 58.22L95.0484 58.6C95.9551 58.8 96.6284 59.1133 97.0684 59.54C97.5218 59.9533 97.7484 60.5133 97.7484 61.22C97.7484 61.82 97.5818 62.3467 97.2484 62.8C96.9151 63.24 96.4484 63.58 95.8484 63.82C95.2618 64.06 94.5684 64.18 93.7684 64.18ZM104.37 64.18C103.384 64.18 102.524 63.9667 101.79 63.54C101.07 63.1133 100.51 62.5067 100.11 61.72C99.7236 60.9333 99.5303 60 99.5303 58.92C99.5303 57.8267 99.7303 56.9 100.13 56.14C100.53 55.3667 101.09 54.78 101.81 54.38C102.544 53.98 103.397 53.78 104.37 53.78C105.01 53.78 105.63 53.8933 106.23 54.12C106.844 54.3467 107.35 54.6667 107.75 55.08L107.17 56.24C106.77 55.8533 106.33 55.5667 105.85 55.38C105.384 55.1933 104.924 55.1 104.47 55.1C103.43 55.1 102.624 55.4267 102.05 56.08C101.477 56.7333 101.19 57.6867 101.19 58.94C101.19 60.18 101.477 61.14 102.05 61.82C102.624 62.5 103.43 62.84 104.47 62.84C104.91 62.84 105.364 62.7533 105.83 62.58C106.31 62.4067 106.757 62.12 107.17 61.72L107.75 62.86C107.337 63.2867 106.824 63.6133 106.21 63.84C105.597 64.0667 104.984 64.18 104.37 64.18ZM113.777 64.18C112.817 64.18 111.977 63.9733 111.257 63.56C110.551 63.1333 110.004 62.5333 109.617 61.76C109.231 60.9733 109.037 60.0467 109.037 58.98C109.037 57.9 109.231 56.9733 109.617 56.2C110.004 55.4267 110.551 54.8333 111.257 54.42C111.977 53.9933 112.817 53.78 113.777 53.78C114.751 53.78 115.591 53.9933 116.297 54.42C117.017 54.8333 117.571 55.4267 117.957 56.2C118.357 56.9733 118.557 57.9 118.557 58.98C118.557 60.0467 118.357 60.9733 117.957 61.76C117.571 62.5333 117.017 63.1333 116.297 63.56C115.591 63.9733 114.751 64.18 113.777 64.18ZM113.777 62.86C114.737 62.86 115.497 62.5333 116.057 61.88C116.617 61.2133 116.897 60.2467 116.897 58.98C116.897 57.7 116.611 56.7333 116.037 56.08C115.477 55.4133 114.724 55.08 113.777 55.08C112.831 55.08 112.077 55.4133 111.517 56.08C110.957 56.7333 110.677 57.7 110.677 58.98C110.677 60.2467 110.957 61.2133 111.517 61.88C112.077 62.5333 112.831 62.86 113.777 62.86Z" fill="white"/>
<path d="M34.76 128V113.9H39.44C41 113.9 42.32 114.173 43.4 114.72C44.48 115.253 45.3 116.047 45.86 117.1C46.42 118.14 46.7 119.42 46.7 120.94C46.7 122.447 46.42 123.727 45.86 124.78C45.3 125.833 44.48 126.633 43.4 127.18C42.32 127.727 41 128 39.44 128H34.76ZM36.42 126.58H39.32C41.24 126.58 42.6667 126.113 43.6 125.18C44.5333 124.233 45 122.82 45 120.94C45 119.047 44.5333 117.633 43.6 116.7C42.6667 115.767 41.24 115.3 39.32 115.3H36.42V126.58ZM53.4414 128.18C52.4814 128.18 51.6414 127.973 50.9214 127.56C50.2147 127.133 49.6681 126.533 49.2814 125.76C48.8947 124.973 48.7014 124.047 48.7014 122.98C48.7014 121.9 48.8947 120.973 49.2814 120.2C49.6681 119.427 50.2147 118.833 50.9214 118.42C51.6414 117.993 52.4814 117.78 53.4414 117.78C54.4147 117.78 55.2547 117.993 55.9614 118.42C56.6814 118.833 57.2347 119.427 57.6214 120.2C58.0214 120.973 58.2214 121.9 58.2214 122.98C58.2214 124.047 58.0214 124.973 57.6214 125.76C57.2347 126.533 56.6814 127.133 55.9614 127.56C55.2547 127.973 54.4147 128.18 53.4414 128.18ZM53.4414 126.86C54.4014 126.86 55.1614 126.533 55.7214 125.88C56.2814 125.213 56.5614 124.247 56.5614 122.98C56.5614 121.7 56.2747 120.733 55.7014 120.08C55.1414 119.413 54.3881 119.08 53.4414 119.08C52.4947 119.08 51.7414 119.413 51.1814 120.08C50.6214 120.733 50.3414 121.7 50.3414 122.98C50.3414 124.247 50.6214 125.213 51.1814 125.88C51.7414 126.533 52.4947 126.86 53.4414 126.86ZM63.0905 128L59.3705 117.96H61.0905L64.1905 126.8H63.6705L66.8705 117.96H68.2705L71.4105 126.8H70.9105L74.0305 117.96H75.6705L71.9305 128H70.3705L67.1305 119.02H67.9305L64.6705 128H63.0905ZM77.5933 128V120.28C77.5933 119.907 77.5733 119.527 77.5333 119.14C77.5066 118.74 77.4733 118.347 77.4333 117.96H78.9933L79.1933 120.16H78.9533C79.2466 119.387 79.7133 118.8 80.3533 118.4C81.0066 117.987 81.7599 117.78 82.6133 117.78C83.7999 117.78 84.6933 118.1 85.2933 118.74C85.9066 119.367 86.2133 120.36 86.2133 121.72V128H84.5933V121.82C84.5933 120.873 84.3999 120.187 84.0133 119.76C83.6399 119.32 83.0533 119.1 82.2533 119.1C81.3199 119.1 80.5799 119.387 80.0333 119.96C79.4866 120.533 79.2133 121.3 79.2133 122.26V128H77.5933ZM89.112 128V113.28H90.732V128H89.112ZM97.7977 128.18C96.8377 128.18 95.9977 127.973 95.2777 127.56C94.571 127.133 94.0243 126.533 93.6377 125.76C93.251 124.973 93.0577 124.047 93.0577 122.98C93.0577 121.9 93.251 120.973 93.6377 120.2C94.0243 119.427 94.571 118.833 95.2777 118.42C95.9977 117.993 96.8377 117.78 97.7977 117.78C98.771 117.78 99.611 117.993 100.318 118.42C101.038 118.833 101.591 119.427 101.978 120.2C102.378 120.973 102.578 121.9 102.578 122.98C102.578 124.047 102.378 124.973 101.978 125.76C101.591 126.533 101.038 127.133 100.318 127.56C99.611 127.973 98.771 128.18 97.7977 128.18ZM97.7977 126.86C98.7577 126.86 99.5177 126.533 100.078 125.88C100.638 125.213 100.918 124.247 100.918 122.98C100.918 121.7 100.631 120.733 100.058 120.08C99.4977 119.413 98.7443 119.08 97.7977 119.08C96.851 119.08 96.0977 119.413 95.5377 120.08C94.9777 120.733 94.6977 121.7 94.6977 122.98C94.6977 124.247 94.9777 125.213 95.5377 125.88C96.0977 126.533 96.851 126.86 97.7977 126.86ZM108.723 128.18C107.83 128.18 107.05 127.973 106.383 127.56C105.717 127.133 105.197 126.533 104.823 125.76C104.463 124.987 104.283 124.06 104.283 122.98C104.283 121.887 104.463 120.953 104.823 120.18C105.197 119.407 105.717 118.813 106.383 118.4C107.05 117.987 107.83 117.78 108.723 117.78C109.63 117.78 110.41 118.013 111.063 118.48C111.73 118.933 112.17 119.553 112.383 120.34H112.143L112.363 117.96H113.923C113.883 118.347 113.843 118.74 113.803 119.14C113.777 119.527 113.763 119.907 113.763 120.28V128H112.143V125.64H112.363C112.15 126.427 111.71 127.047 111.043 127.5C110.377 127.953 109.603 128.18 108.723 128.18ZM109.043 126.86C110.003 126.86 110.763 126.533 111.323 125.88C111.883 125.213 112.163 124.247 112.163 122.98C112.163 121.7 111.883 120.733 111.323 120.08C110.763 119.413 110.003 119.08 109.043 119.08C108.097 119.08 107.337 119.413 106.763 120.08C106.203 120.733 105.923 121.7 105.923 122.98C105.923 124.247 106.203 125.213 106.763 125.88C107.337 126.533 108.097 126.86 109.043 126.86ZM120.496 128.18C119.616 128.18 118.842 127.973 118.176 127.56C117.509 127.133 116.989 126.533 116.616 125.76C116.256 124.987 116.076 124.06 116.076 122.98C116.076 121.887 116.256 120.953 116.616 120.18C116.989 119.407 117.509 118.813 118.176 118.4C118.842 117.987 119.616 117.78 120.496 117.78C121.402 117.78 122.182 118.007 122.836 118.46C123.502 118.913 123.949 119.527 124.176 120.3H123.936V113.28H125.556V128H123.956V125.6H124.176C123.962 126.4 123.522 127.033 122.856 127.5C122.189 127.953 121.402 128.18 120.496 128.18ZM120.836 126.86C121.782 126.86 122.542 126.533 123.116 125.88C123.689 125.213 123.976 124.247 123.976 122.98C123.976 121.7 123.689 120.733 123.116 120.08C122.542 119.413 121.782 119.08 120.836 119.08C119.889 119.08 119.129 119.413 118.556 120.08C117.996 120.733 117.716 121.7 117.716 122.98C117.716 124.247 117.996 125.213 118.556 125.88C119.129 126.533 119.889 126.86 120.836 126.86ZM133.683 128V113.9H139.423C140.903 113.9 142.043 114.26 142.843 114.98C143.643 115.687 144.043 116.673 144.043 117.94C144.043 119.18 143.643 120.167 142.843 120.9C142.043 121.62 140.903 121.98 139.423 121.98H135.343V128H133.683ZM135.343 120.6H139.263C140.289 120.6 141.063 120.367 141.583 119.9C142.116 119.433 142.383 118.78 142.383 117.94C142.383 117.087 142.116 116.427 141.583 115.96C141.063 115.493 140.289 115.26 139.263 115.26H135.343V120.6ZM149.662 128.18C148.768 128.18 147.988 127.973 147.322 127.56C146.655 127.133 146.135 126.533 145.762 125.76C145.402 124.987 145.222 124.06 145.222 122.98C145.222 121.887 145.402 120.953 145.762 120.18C146.135 119.407 146.655 118.813 147.322 118.4C147.988 117.987 148.768 117.78 149.662 117.78C150.568 117.78 151.348 118.013 152.002 118.48C152.668 118.933 153.108 119.553 153.322 120.34H153.082L153.302 117.96H154.862C154.822 118.347 154.782 118.74 154.742 119.14C154.715 119.527 154.702 119.907 154.702 120.28V128H153.082V125.64H153.302C153.088 126.427 152.648 127.047 151.982 127.5C151.315 127.953 150.542 128.18 149.662 128.18ZM149.982 126.86C150.942 126.86 151.702 126.533 152.262 125.88C152.822 125.213 153.102 124.247 153.102 122.98C153.102 121.7 152.822 120.733 152.262 120.08C151.702 119.413 150.942 119.08 149.982 119.08C149.035 119.08 148.275 119.413 147.702 120.08C147.142 120.733 146.862 121.7 146.862 122.98C146.862 124.247 147.142 125.213 147.702 125.88C148.275 126.533 149.035 126.86 149.982 126.86ZM162.054 132.46C161.187 132.46 160.387 132.353 159.654 132.14C158.921 131.927 158.261 131.6 157.674 131.16L158.154 129.94C158.567 130.233 158.974 130.467 159.374 130.64C159.774 130.813 160.187 130.94 160.614 131.02C161.041 131.113 161.494 131.16 161.974 131.16C162.961 131.16 163.707 130.9 164.214 130.38C164.721 129.86 164.974 129.12 164.974 128.16V125.22H165.174C164.961 126.007 164.521 126.633 163.854 127.1C163.187 127.553 162.407 127.78 161.514 127.78C160.594 127.78 159.794 127.58 159.114 127.18C158.447 126.767 157.927 126.187 157.554 125.44C157.194 124.68 157.014 123.787 157.014 122.76C157.014 121.747 157.194 120.867 157.554 120.12C157.927 119.373 158.447 118.8 159.114 118.4C159.794 117.987 160.594 117.78 161.514 117.78C162.421 117.78 163.201 118.007 163.854 118.46C164.521 118.913 164.961 119.54 165.174 120.34L164.974 120.14L165.154 117.96H166.734C166.681 118.347 166.641 118.74 166.614 119.14C166.587 119.527 166.574 119.907 166.574 120.28V127.94C166.574 129.433 166.187 130.56 165.414 131.32C164.654 132.08 163.534 132.46 162.054 132.46ZM161.814 126.46C162.787 126.46 163.554 126.14 164.114 125.5C164.674 124.847 164.954 123.933 164.954 122.76C164.954 121.587 164.674 120.68 164.114 120.04C163.554 119.4 162.787 119.08 161.814 119.08C160.854 119.08 160.087 119.4 159.514 120.04C158.941 120.68 158.654 121.587 158.654 122.76C158.654 123.933 158.941 124.847 159.514 125.5C160.087 126.14 160.854 126.46 161.814 126.46ZM173.945 128.18C172.371 128.18 171.131 127.727 170.225 126.82C169.318 125.9 168.865 124.627 168.865 123C168.865 121.947 169.065 121.033 169.465 120.26C169.865 119.473 170.425 118.867 171.145 118.44C171.865 118 172.691 117.78 173.625 117.78C174.545 117.78 175.318 117.973 175.945 118.36C176.571 118.747 177.051 119.3 177.385 120.02C177.718 120.727 177.885 121.567 177.885 122.54V123.14H170.105V122.12H176.825L176.485 122.38C176.485 121.313 176.245 120.48 175.765 119.88C175.285 119.28 174.571 118.98 173.625 118.98C172.625 118.98 171.845 119.333 171.285 120.04C170.725 120.733 170.445 121.673 170.445 122.86V123.04C170.445 124.293 170.751 125.247 171.365 125.9C171.991 126.54 172.865 126.86 173.985 126.86C174.585 126.86 175.145 126.773 175.665 126.6C176.198 126.413 176.705 126.113 177.185 125.7L177.745 126.84C177.305 127.267 176.745 127.6 176.065 127.84C175.398 128.067 174.691 128.18 173.945 128.18Z" fill="#359B34"/>
<path d="M33 130.14H58.9614V131.02H33V130.14ZM58.8305 130.14H87.5333V131.02H58.8305V130.14ZM87.532 130.14H115.123V131.02H87.532V130.14ZM115.116 130.14H126.916V131.02H115.116V130.14ZM126.908 130.14H131.928V131.02H126.908V130.14ZM131.923 130.14H144.743V131.02H131.923V130.14ZM144.262 130.14H156.062V131.02H144.262V130.14ZM156.054 130.14H167.914V131.02H156.054V130.14ZM167.905 130.14H178.785V131.02H167.905V130.14Z" fill="#359B34"/>
<rect x="15.5" y="94.5" width="257" height="52" rx="0.5" stroke="#999999"/>
<path fill-rule="evenodd" clip-rule="evenodd" d="M0 8.5C0 6.01472 2.01472 4 4.5 4H283.5C285.985 4 288 6.01472 288 8.5V216.5C288 218.985 285.985 221 283.5 221H212V220H283.5C285.433 220 287 218.433 287 216.5V8.5C287 6.567 285.433 5 283.5 5H4.5C2.567 5 1 6.567 1 8.5V216.5C1 218.433 2.56701 220 4.50001 220H76V221H4.50001C2.01473 221 0 218.985 0 216.5V8.5Z" fill="#333333"/>
</g>
<circle cx="144" cy="208" r="37" fill="white"/>
<path fill-rule="evenodd" clip-rule="evenodd" d="M144 250C167.196 250 186 231.196 186 208C186 184.804 167.196 166 144 166C120.804 166 102 184.804 102 208C102 231.196 120.804 250 144 250ZM154.634 231.889C154.586 234.965 154.613 239.146 154.634 242.222C152.079 243.621 145.765 243.778 144.058 243.778C144.058 243.778 139.424 243.815 134.044 242.222C134.162 239.517 134.275 236.246 134.275 233.865C133.628 233.865 132.996 233.879 132.376 233.892C131.058 233.92 129.793 233.947 128.536 233.841C124.748 233.507 121.833 231.798 120.332 227.965C119.377 225.52 117.931 223.448 115.707 221.995C115.345 221.761 115.1 221.33 114.855 220.899C114.741 220.699 114.627 220.5 114.502 220.32C114.745 220.252 114.988 220.184 115.23 220.115C115.689 219.986 116.148 219.857 116.61 219.732C116.66 219.724 116.715 219.741 116.77 219.758C116.798 219.767 116.827 219.776 116.855 219.782C119.478 220.267 121.239 221.942 122.611 224.184C125.176 228.388 129.031 229.709 133.514 227.912C133.868 227.774 134.301 227.496 134.437 227.167C134.955 225.897 135.428 224.611 135.918 223.279C136.087 222.819 136.258 222.354 136.433 221.882C136.43 221.881 136.428 221.881 136.425 221.88C136.425 221.88 136.425 221.879 136.425 221.879C136.092 221.819 135.76 221.764 135.427 221.708C134.967 221.632 134.506 221.555 134.044 221.467C129.473 220.571 125.355 218.845 122.255 215.012C118.268 210.077 116.126 197.193 122.042 190.375C122.308 190.071 122.421 189.412 122.312 189.001C121.551 186.174 121.625 183.361 122.37 180.55C122.962 178.321 123.157 178.206 125.389 178.655C128.277 179.243 130.78 180.715 133.283 182.23C133.836 182.565 134.648 182.763 135.252 182.615C140.584 181.339 145.963 180.976 151.307 182.221C153.734 182.794 155.636 182.486 157.679 181.069C159.798 179.606 162.202 178.655 164.825 178.505C165.572 178.454 165.975 178.696 166.218 179.477C167.199 182.608 167.444 185.736 166.602 188.939C166.493 189.335 166.505 189.954 166.734 190.227C169.899 194.101 170.748 198.613 170.445 203.531C169.852 213.193 165.212 219.015 156.277 221.135C155.347 221.355 154.404 221.519 153.4 221.694C152.947 221.772 152.481 221.853 151.999 221.942C154.606 224.86 154.685 228.352 154.634 231.889ZM136.577 221.913C136.578 221.914 136.577 221.913 136.574 221.91C136.576 221.912 136.577 221.913 136.577 221.913Z" fill="#1F2328"/>
<path d="M372.5 253C414.197 253 448 250.761 448 248C448 245.239 414.197 243 372.5 243C330.803 243 297 245.239 297 248C297 250.761 330.803 253 372.5 253Z" fill="#EFEFEF"/>
<path fill-rule="evenodd" clip-rule="evenodd" d="M381.99 21.836C382.028 20.0214 381.961 18.5045 381.812 17.242C381.624 15.7011 381.303 14.5154 380.88 13.6177C380.568 12.9553 380.097 12.3168 379.525 11.8032C378.983 11.3087 378.339 10.9151 377.647 10.7039C376.783 10.4398 375.942 10.4927 375.125 10.7423C374.362 10.9727 373.632 11.3759 372.916 11.8464C372.56 12.0768 372.253 12.2976 371.96 12.5088C370.745 13.3777 369.774 14.0737 368.031 13.6033C367.911 13.5697 367.795 13.5121 367.699 13.4305C367.56 13.3105 367.449 13.1473 367.392 12.9553C367.329 12.7488 367.325 12.5088 367.397 12.24C367.469 11.9616 367.632 11.6591 367.896 11.3471L367.93 11.2991C368.026 11.1647 368.146 11.0303 368.285 10.8959C369.457 9.75339 371.797 8.87012 374.458 8.6877C377.138 8.50529 380.116 9.05733 382.518 10.7951C382.979 11.1263 383.416 11.5007 383.829 11.928C384.804 12.9313 385.554 14.3282 385.943 16.2291C386.279 17.8757 386.346 19.8966 386.058 22.364C385.924 22.1192 385.76 21.9032 385.568 21.7208C385.198 21.3751 384.728 21.1639 384.17 21.1351C383.551 21.1015 382.816 21.3079 381.99 21.836Z" fill="#666666" stroke="#666666" stroke-width="0.216" stroke-miterlimit="22.9256"/>
<path d="M370.48 44.0555L369.73 44.0512L369.731 43.9973L369.739 43.9439L370.44 39.2833L370.58 38.3505L371.458 38.6975C371.561 38.7385 371.672 38.7766 371.804 38.8214L371.81 38.8235C371.81 38.8235 371.811 38.8239 371.814 38.8246C371.845 38.8329 372.043 38.8865 372.389 38.9231C372.765 38.9629 373.298 38.9804 373.949 38.9017C375.246 38.7451 377.033 38.2047 379.005 36.6615L379.006 36.661C379.615 36.185 380.25 35.6082 380.898 34.9104L382.1 33.6172L382.197 35.3801L382.668 43.9999L382.693 44.4724L382.278 44.6991C382.058 44.8195 381.829 44.9395 381.59 45.0508C381.589 45.0512 381.589 45.0515 381.588 45.0518L381.271 44.372C379.285 45.3119 377.027 45.8135 375.014 45.7697L370.48 44.0555ZM370.48 44.0555C369.73 44.0512 369.73 44.0516 369.73 44.052L369.73 44.0529L369.73 44.0545L369.73 44.0578L369.731 44.0645L369.731 44.0787C369.731 44.0885 369.732 44.099 369.732 44.1102C369.734 44.1322 369.737 44.1582 369.742 44.1873C369.752 44.2421 369.773 44.3251 369.822 44.4161C369.852 44.4711 369.893 44.5303 369.948 44.586C371.101 45.9237 373.012 46.4789 374.998 46.5195L370.48 44.0555Z" fill="#FEFEFE" stroke="#333333" stroke-width="1.5"/>
<path fill-rule="evenodd" clip-rule="evenodd" d="M366.287 12.5808C365.422 13.5505 364.716 14.7938 364.183 16.2195C363.025 19.3302 362.684 23.3337 363.318 27.1596C363.957 31.0191 365.59 34.725 368.362 37.202C369.438 38.1621 370.687 38.9398 372.113 39.4726C372.325 39.5542 375.471 40.4375 379.208 37.226C381.053 35.6371 383.085 33.0305 385.02 28.7918L383.695 28.1869C381.86 32.2096 379.967 34.653 378.262 36.1172C375.135 38.8054 372.776 38.1621 372.623 38.1045C371.374 37.6437 370.283 36.962 369.342 36.1172C366.834 33.8754 365.355 30.4815 364.764 26.9244C364.169 23.3385 364.481 19.6038 365.552 16.7284C366.023 15.4706 366.633 14.381 367.377 13.5505L366.287 12.5808Z" fill="#333333"/>
<path fill-rule="evenodd" clip-rule="evenodd" d="M381.956 22.8728C382.047 20.5878 381.99 18.7349 381.807 17.2419C381.62 15.701 381.298 14.5153 380.875 13.6176C380.563 12.9552 380.092 12.3167 379.521 11.8031C378.978 11.3087 378.334 10.915 377.642 10.7038C376.778 10.4398 375.937 10.4926 375.121 10.7422C374.357 10.9726 373.627 11.3759 372.911 11.8463C372.556 12.0767 372.248 12.2975 371.955 12.5088C370.74 13.3776 369.77 14.0737 368.026 13.6032C367.906 13.5696 367.79 13.512 367.694 13.4304C367.555 13.3104 367.445 13.1472 367.387 12.9552C367.325 12.7488 367.32 12.5088 367.392 12.2399C367.464 11.9615 367.627 11.6591 367.891 11.3471L367.925 11.2991C368.021 11.1646 368.141 11.0302 368.28 10.8958C369.452 9.75333 371.792 8.87006 374.453 8.68764C377.133 8.50523 380.111 9.05727 382.513 10.795C382.974 11.1262 383.411 11.5007 383.824 11.9279C384.8 12.9312 385.549 14.3281 385.938 16.2291C386.298 18.0004 386.346 20.199 385.986 22.9208L385.933 23.3336C385.751 24.7594 385.635 25.6474 384.756 26.8667C384.631 27.0396 384.487 27.2268 384.319 27.4284C384.175 27.606 384.007 27.798 383.815 27.9996L383.983 28.6045L384.881 28.9933C385.069 28.7917 385.256 28.5805 385.438 28.3549C385.607 28.1532 385.77 27.942 385.933 27.7164C387.024 26.1995 387.158 25.1722 387.374 23.5209L387.427 23.108C387.811 20.2182 387.754 17.8564 387.36 15.9362C386.913 13.7377 386.024 12.1007 384.862 10.9102C384.391 10.4254 383.887 9.99815 383.359 9.61412C380.649 7.65076 377.325 7.03151 374.342 7.23312C371.34 7.43474 368.65 8.48603 367.248 9.84934C367.065 10.027 366.902 10.2142 366.758 10.4062C366.345 10.891 366.09 11.3855 365.965 11.8607C365.821 12.4031 365.84 12.9216 365.98 13.3776C366.124 13.8481 366.393 14.2465 366.739 14.5393C367.003 14.7601 367.31 14.9234 367.637 15.0146C370.048 15.6626 371.263 14.7889 372.796 13.6945C373.089 13.488 373.391 13.2672 373.699 13.0656C374.309 12.6624 374.924 12.3215 375.534 12.1343C376.091 11.9663 376.648 11.9279 377.205 12.0959C377.676 12.2399 378.128 12.5184 378.521 12.8784C378.949 13.2672 379.304 13.7473 379.54 14.2369C379.9 14.9954 380.174 16.0322 380.342 17.41C380.5 18.7301 380.563 20.343 380.5 22.3064L380.87 22.8248L381.956 22.8728Z" fill="#333333"/>
<path fill-rule="evenodd" clip-rule="evenodd" d="M381.634 23.3241C382.657 22.4217 383.493 22.0712 384.127 22.1C384.444 22.1144 384.704 22.2345 384.91 22.4217C385.131 22.6281 385.29 22.9209 385.386 23.2713C385.64 24.1834 385.448 25.4363 384.728 26.5644C384.545 26.8524 384.238 27.1741 383.863 27.4333C383.681 27.5581 383.484 27.6637 383.282 27.7405C382.518 28.0237 382.898 28.8638 383.359 28.739C383.738 28.6334 384.098 28.4558 384.415 28.2398C384.901 27.9085 385.304 27.4765 385.549 27.0925C386.423 25.7243 386.644 24.1738 386.327 23.0169C386.183 22.4937 385.929 22.0424 385.573 21.716C385.203 21.3704 384.732 21.1592 384.175 21.1304C383.296 21.0872 382.191 21.5192 380.923 22.6521C380.472 23.0601 381.019 23.8666 381.634 23.3241Z" fill="#333333"/>
<path fill-rule="evenodd" clip-rule="evenodd" d="M383.388 23.8041C383.532 23.7753 383.657 23.7753 383.762 23.7993C383.882 23.8281 383.978 23.8953 384.036 23.9865C384.103 24.0969 384.142 24.2457 384.142 24.4185C384.142 24.7786 383.993 25.2394 383.685 25.7146C383.58 25.8779 383.407 26.0651 383.191 26.2091C383.109 26.2667 383.018 26.3195 382.922 26.3579C382.408 26.5787 382.576 26.9963 382.989 26.8523C383.157 26.7947 383.32 26.7083 383.464 26.6123C383.733 26.4299 383.959 26.1899 384.094 25.9787C384.449 25.4218 384.627 24.8698 384.627 24.4185C384.627 24.1497 384.564 23.9097 384.444 23.7225C384.315 23.5209 384.122 23.3816 383.868 23.324C383.719 23.2904 383.546 23.2856 383.349 23.3144C382.71 23.4201 382.782 23.9241 383.388 23.8041Z" fill="#333333"/>
<path fill-rule="evenodd" clip-rule="evenodd" d="M382.078 45.5966C381.737 47.4304 381.088 49.9986 379.94 50.6274C379.162 51.0595 377.971 50.373 376.15 47.3583C377.976 47.2671 379.926 46.7295 381.66 45.8222C381.799 45.7502 381.938 45.6734 382.078 45.5966ZM373.532 47.1519C372.658 48.1984 371.875 48.9089 371.193 49.3745C370.18 50.061 369.483 50.1666 369.094 50.0322C368.763 49.9122 368.594 49.3505 368.532 48.6449C368.417 47.4015 368.652 45.851 368.839 44.9869C369.2 44.9389 369.574 44.8909 369.954 44.8525L370.146 45.1214C370.953 46.1726 372.144 46.8351 373.532 47.1519Z" fill="#CCCCCC"/>
<path fill-rule="evenodd" clip-rule="evenodd" d="M372.618 27.1836C370.231 28.1293 369.39 27.0204 369.424 25.9883C369.462 24.5962 370.769 24.8746 370.505 22.6184C371.638 24.2073 369.083 25.9691 370.61 26.7995C370.937 26.9772 371.456 27.1596 372.618 27.1836Z" fill="#333333"/>
<path fill-rule="evenodd" clip-rule="evenodd" d="M371.34 30.5391C374.131 32.7905 375.145 28.7966 375.635 28.1821C375.495 33.1409 371.691 32.7953 371.34 30.5391Z" fill="#333333"/>
<path fill-rule="evenodd" clip-rule="evenodd" d="M373.521 21.7976C375.005 18.2885 378.944 20.2903 378.959 22.1672C378.771 21.9608 377.945 21.4664 377.474 21.4088C377.311 23.4969 374.813 23.9338 374.141 21.7064C373.876 21.692 373.718 21.6776 373.521 21.7976Z" fill="#333333"/>
<path fill-rule="evenodd" clip-rule="evenodd" d="M365.028 21.6487C366.378 18.0868 370.394 19.9398 370.48 21.8167C370.283 21.6199 369.443 21.1543 368.967 21.1159C368.886 23.2089 366.402 23.7369 365.648 21.5383C365.379 21.5287 365.22 21.5239 365.028 21.6487Z" fill="#333333"/>
<mask id="path-21-outside-1_16_76401" maskUnits="userSpaceOnUse" x="324.947" y="41.9354" width="87" height="69" fill="black">
<rect fill="white" x="324.947" y="41.9354" width="87" height="69"/>
<path fill-rule="evenodd" clip-rule="evenodd" d="M399.316 54.0994C403.181 58.5309 412.697 80.6151 409.36 92.9586C406.963 97.6638 386.234 86.5421 383.077 85.108C384.094 84.352 384.594 83.5997 384.838 82.4265C388.887 83.6659 396.554 85.1578 400.493 85.3404C402.124 85.4151 401.146 83.9453 400.036 83.8474C398.902 82.442 394.415 74.4743 393.312 71.472C393.36 69.1822 393.475 66.8636 393.653 64.5114C393.739 63.3833 392.288 63.1481 392.197 64.377C391.957 67.5357 391.832 70.6655 391.827 73.781C391.823 76.7908 391.933 79.7575 392.149 82.6905C392.149 82.6905 383.436 80.4954 381.678 79.9721C377.916 78.8526 376.172 74.9987 376.172 74.9987C376.172 74.9987 374.748 49.473 374.748 48.3033C374.748 48.3033 376.896 51.6299 380.627 51.3886C383.108 50.7009 383.148 46.8892 383.46 44.9354C389.119 47.1216 395.258 49.4468 399.316 54.0994ZM367.147 44.9354C364.937 45.3291 363.131 45.8715 361.623 46.486C359.476 47.3644 357.929 48.4013 356.68 49.3998C355.806 50.0958 353.246 53.1249 350.513 56.3556C347.179 60.2967 343.591 64.5402 342.246 65.4763L341.732 65.8363L341.3 65.3803C337.317 61.18 334.882 55.0019 332.797 49.707C332.283 48.4061 331.793 47.1532 331.328 46.0587C330.602 46.1067 329.627 46.2555 328.69 46.4715C328.037 46.6252 327.413 46.8076 326.947 47.0092C330.055 59.4518 332.994 66.1484 335.266 69.7535C337.442 73.2097 338.826 73.661 339.157 73.7234C342.126 74.2946 345.877 72.9457 349.475 70.7423C353.606 68.2077 357.487 64.569 359.779 61.372C360.643 60.1671 361.849 60.9783 361.032 62.1256C360.196 63.2969 359.159 64.5306 357.977 65.7499L357.929 66.662L357.881 67.7805C357.732 72.2113 357.766 81.1736 358.232 89.6415C358.549 95.402 359.058 100.927 359.836 104.609C364.937 107.489 370.702 108.761 376.403 109.006C383.58 109.313 390.674 108.003 396.28 106.236C395.617 103.817 395.031 101.426 394.517 99.0503C393.979 96.5589 393.523 94.0675 393.148 91.5809C389.935 90.304 385.755 87.78 382.444 86.1667C379.134 84.5533 368.859 80.8645 367.477 74.9987L372.256 47.6931L367.147 44.9354Z"/>
</mask>
<path fill-rule="evenodd" clip-rule="evenodd" d="M399.316 54.0994C403.181 58.5309 412.697 80.6151 409.36 92.9586C406.963 97.6638 386.234 86.5421 383.077 85.108C384.094 84.352 384.594 83.5997 384.838 82.4265C388.887 83.6659 396.554 85.1578 400.493 85.3404C402.124 85.4151 401.146 83.9453 400.036 83.8474C398.902 82.442 394.415 74.4743 393.312 71.472C393.36 69.1822 393.475 66.8636 393.653 64.5114C393.739 63.3833 392.288 63.1481 392.197 64.377C391.957 67.5357 391.832 70.6655 391.827 73.781C391.823 76.7908 391.933 79.7575 392.149 82.6905C392.149 82.6905 383.436 80.4954 381.678 79.9721C377.916 78.8526 376.172 74.9987 376.172 74.9987C376.172 74.9987 374.748 49.473 374.748 48.3033C374.748 48.3033 376.896 51.6299 380.627 51.3886C383.108 50.7009 383.148 46.8892 383.46 44.9354C389.119 47.1216 395.258 49.4468 399.316 54.0994ZM367.147 44.9354C364.937 45.3291 363.131 45.8715 361.623 46.486C359.476 47.3644 357.929 48.4013 356.68 49.3998C355.806 50.0958 353.246 53.1249 350.513 56.3556C347.179 60.2967 343.591 64.5402 342.246 65.4763L341.732 65.8363L341.3 65.3803C337.317 61.18 334.882 55.0019 332.797 49.707C332.283 48.4061 331.793 47.1532 331.328 46.0587C330.602 46.1067 329.627 46.2555 328.69 46.4715C328.037 46.6252 327.413 46.8076 326.947 47.0092C330.055 59.4518 332.994 66.1484 335.266 69.7535C337.442 73.2097 338.826 73.661 339.157 73.7234C342.126 74.2946 345.877 72.9457 349.475 70.7423C353.606 68.2077 357.487 64.569 359.779 61.372C360.643 60.1671 361.849 60.9783 361.032 62.1256C360.196 63.2969 359.159 64.5306 357.977 65.7499L357.929 66.662L357.881 67.7805C357.732 72.2113 357.766 81.1736 358.232 89.6415C358.549 95.402 359.058 100.927 359.836 104.609C364.937 107.489 370.702 108.761 376.403 109.006C383.58 109.313 390.674 108.003 396.28 106.236C395.617 103.817 395.031 101.426 394.517 99.0503C393.979 96.5589 393.523 94.0675 393.148 91.5809C389.935 90.304 385.755 87.78 382.444 86.1667C379.134 84.5533 368.859 80.8645 367.477 74.9987L372.256 47.6931L367.147 44.9354Z" fill="#EFEFEF"/>
<path d="M399.316 54.0994L400.446 53.1134L399.316 54.0994ZM409.36 92.9586L410.697 93.6394L410.767 93.5005L410.808 93.35L409.36 92.9586ZM383.077 85.108L382.182 83.9042L380.14 85.4217L382.456 86.4737L383.077 85.108ZM384.838 82.4265L385.277 80.9922L383.705 80.5111L383.37 82.1202L384.838 82.4265ZM400.493 85.3404L400.423 86.8387L400.424 86.8388L400.493 85.3404ZM400.036 83.8474L398.869 84.7896L399.27 85.2856L399.905 85.3416L400.036 83.8474ZM393.312 71.472L391.812 71.4405L391.806 71.7236L391.904 71.9894L393.312 71.472ZM393.653 64.5114L392.157 64.3968L392.157 64.3984L393.653 64.5114ZM392.197 64.377L393.693 64.4907L393.693 64.4881L392.197 64.377ZM391.827 73.781L393.327 73.7834V73.7833L391.827 73.781ZM392.149 82.6905L391.783 84.1451L393.798 84.6528L393.645 82.5803L392.149 82.6905ZM381.678 79.9721L382.105 78.5344L381.678 79.9721ZM376.172 74.9987L374.674 75.0822L374.69 75.362L374.805 75.6172L376.172 74.9987ZM374.748 48.3033L376.008 47.4895C375.647 46.9309 374.962 46.6765 374.324 46.8646C373.686 47.0526 373.248 47.6383 373.248 48.3033H374.748ZM380.627 51.3886L380.724 52.8854L380.878 52.8754L381.028 52.8341L380.627 51.3886ZM383.46 44.9354L384.001 43.5362L382.272 42.8681L381.979 44.6987L383.46 44.9354ZM367.147 44.9354L367.86 43.6154L367.399 43.3669L366.884 43.4587L367.147 44.9354ZM361.623 46.486L361.057 45.0968L361.055 45.0977L361.623 46.486ZM356.68 49.3998L357.615 50.5733L357.617 50.5714L356.68 49.3998ZM350.513 56.3556L349.367 55.3867L349.367 55.3869L350.513 56.3556ZM342.246 65.4763L341.389 64.2451L341.385 64.2477L342.246 65.4763ZM341.732 65.8363L340.643 66.8683L341.533 67.807L342.592 67.0649L341.732 65.8363ZM341.3 65.3803L342.388 64.3484L342.388 64.3483L341.3 65.3803ZM332.797 49.707L334.193 49.1575L334.192 49.1558L332.797 49.707ZM331.328 46.0587L332.708 45.4712L332.291 44.4917L331.228 44.562L331.328 46.0587ZM328.69 46.4715L328.353 45.0099L328.347 45.0114L328.69 46.4715ZM326.947 47.0092L326.351 45.6325L325.183 46.138L325.491 47.3727L326.947 47.0092ZM335.266 69.7535L336.536 68.9543L336.535 68.9537L335.266 69.7535ZM339.157 73.7234L339.441 72.2504L339.435 72.2493L339.157 73.7234ZM349.475 70.7423L350.258 72.0215L350.26 72.0209L349.475 70.7423ZM359.779 61.372L358.56 60.4974L358.559 60.4982L359.779 61.372ZM361.032 62.1256L362.253 62.9969L362.254 62.9954L361.032 62.1256ZM357.977 65.7499L356.9 64.706L356.509 65.1097L356.479 65.6711L357.977 65.7499ZM357.929 66.662L356.431 66.5831L356.431 66.5904L356.431 66.5976L357.929 66.662ZM357.881 67.7805L356.382 67.7161L356.382 67.7301L357.881 67.7805ZM358.232 89.6415L356.734 89.7239V89.7239L358.232 89.6415ZM359.836 104.609L358.369 104.919L358.509 105.582L359.099 105.915L359.836 104.609ZM376.403 109.006L376.339 110.505L376.339 110.505L376.403 109.006ZM396.28 106.236L396.731 107.667L398.108 107.233L397.727 105.84L396.28 106.236ZM394.517 99.0503L393.051 99.3669L393.051 99.3674L394.517 99.0503ZM393.148 91.5809L394.632 91.3574L394.503 90.5052L393.702 90.1869L393.148 91.5809ZM372.256 47.6931L373.734 47.9518L373.92 46.8867L372.969 46.3731L372.256 47.6931ZM367.477 74.9987L365.999 74.7401L365.946 75.0432L366.017 75.3428L367.477 74.9987ZM394.811 71.5035C394.859 69.2427 394.973 66.9514 395.148 64.6244L392.157 64.3984C391.977 66.7758 391.861 69.1217 391.812 71.4405L394.811 71.5035ZM395.148 64.6261C395.247 63.3324 394.402 62.2277 393.181 62.0723C392.593 61.9975 391.962 62.1635 391.47 62.6075C390.977 63.0522 390.746 63.6609 390.701 64.2659L393.693 64.4881C393.694 64.4787 393.678 64.6559 393.48 64.8344C393.284 65.0121 393.027 65.0769 392.802 65.0484C392.585 65.0208 392.405 64.91 392.289 64.7611C392.165 64.6004 392.153 64.4492 392.157 64.3968L395.148 64.6261ZM390.702 64.2633C390.459 67.4575 390.332 70.6246 390.327 73.7787L393.327 73.7833C393.332 70.7065 393.455 67.6138 393.693 64.4907L390.702 64.2633ZM390.327 73.7786C390.322 76.8268 390.434 79.8311 390.653 82.8008L393.645 82.5803C393.432 79.6839 393.323 76.7549 393.327 73.7834L390.327 73.7786ZM392.149 82.6905C392.516 81.236 392.516 81.236 392.516 81.236C392.515 81.2359 392.515 81.2359 392.515 81.2359C392.515 81.2358 392.515 81.2357 392.514 81.2356C392.513 81.2353 392.511 81.2349 392.509 81.2344C392.505 81.2334 392.499 81.2318 392.491 81.2297C392.474 81.2256 392.45 81.2194 392.418 81.2113C392.354 81.1951 392.259 81.1713 392.139 81.1409C391.897 81.0799 391.55 80.9922 391.129 80.8853C390.285 80.6716 389.142 80.3811 387.945 80.0744C385.531 79.4562 382.949 78.7856 382.105 78.5344L381.25 81.4098C382.164 81.6819 384.818 82.3705 387.201 82.9806C388.401 83.2882 389.547 83.5792 390.392 83.7934C390.814 83.9005 391.162 83.9884 391.404 84.0495C391.525 84.0801 391.62 84.104 391.684 84.1202C391.716 84.1283 391.741 84.1345 391.757 84.1387C391.766 84.1408 391.772 84.1424 391.776 84.1435C391.778 84.144 391.78 84.1444 391.781 84.1447C391.782 84.1448 391.782 84.1449 391.782 84.145C391.782 84.145 391.783 84.145 391.783 84.1451C391.783 84.1451 391.783 84.1451 392.149 82.6905ZM374.748 48.3033C373.488 49.1171 373.488 49.1176 373.489 49.1182C373.489 49.1184 373.489 49.1189 373.489 49.1193C373.49 49.1201 373.49 49.1209 373.491 49.1218C373.492 49.1236 373.493 49.1256 373.495 49.1277C373.498 49.1321 373.501 49.1373 373.505 49.1432C373.513 49.1551 373.523 49.1702 373.535 49.1882C373.56 49.2242 373.594 49.2721 373.636 49.33C373.72 49.4457 373.84 49.6025 373.995 49.7861C374.303 50.1513 374.757 50.6332 375.352 51.1085C376.538 52.0552 378.366 53.038 380.724 52.8854L380.53 49.8917C379.158 49.9805 378.046 49.4206 377.225 48.7644C376.816 48.4382 376.5 48.1036 376.289 47.8526C376.184 47.728 376.107 47.6269 376.059 47.5616C376.036 47.529 376.019 47.5056 376.011 47.493C376.006 47.4867 376.004 47.4832 376.003 47.4825C376.003 47.4822 376.004 47.4826 376.004 47.4837C376.005 47.4843 376.005 47.4851 376.006 47.4861C376.006 47.4865 376.006 47.4871 376.007 47.4876C376.007 47.4879 376.007 47.4884 376.007 47.4885C376.008 47.489 376.008 47.4895 374.748 48.3033ZM381.028 52.8341C383.063 52.27 383.906 50.4528 384.302 49.0411C384.689 47.6581 384.821 45.9271 384.942 45.1721L381.979 44.6987C381.788 45.8975 381.744 47.0493 381.413 48.2325C381.09 49.3869 380.673 49.8194 380.226 49.9431L381.028 52.8341ZM366.884 43.4587C364.578 43.8696 362.669 44.44 361.057 45.0968L362.189 47.8751C363.593 47.303 365.297 46.7886 367.41 46.4122L366.884 43.4587ZM361.055 45.0977C358.748 46.0416 357.079 47.1608 355.744 48.2282L357.617 50.5714C358.78 49.6418 360.204 48.6873 362.191 47.8743L361.055 45.0977ZM355.746 48.2263C355.178 48.6782 354.22 49.732 353.164 50.94C352.063 52.1993 350.731 53.7747 349.367 55.3867L351.658 57.3244C353.027 55.7057 354.342 54.1513 355.423 52.9144C356.549 51.6262 357.308 50.8175 357.615 50.5733L355.746 48.2263ZM349.367 55.3869C347.697 57.3614 345.979 59.3928 344.511 61.0474C343.777 61.8748 343.117 62.5959 342.563 63.1621C341.987 63.7514 341.597 64.1 341.389 64.2451L343.103 66.7075C343.567 66.3845 344.13 65.8517 344.709 65.2589C345.311 64.643 346.008 63.8814 346.756 63.0382C348.252 61.3518 349.994 59.2908 351.658 57.3243L349.367 55.3869ZM341.385 64.2477L340.871 64.6078L342.592 67.0649L343.106 66.7049L341.385 64.2477ZM342.82 64.8044L342.388 64.3484L340.211 66.4122L340.643 66.8683L342.82 64.8044ZM342.388 64.3483C338.644 60.3991 336.304 54.5194 334.193 49.1575L331.402 50.2565C333.46 55.4843 335.991 61.9608 340.211 66.4123L342.388 64.3483ZM334.192 49.1558C333.683 47.8652 333.183 46.5886 332.708 45.4712L329.947 46.6463C330.404 47.7178 330.884 48.947 331.402 50.2582L334.192 49.1558ZM331.228 44.562C330.408 44.6163 329.352 44.7796 328.353 45.0099L329.028 47.9332C329.902 47.7315 330.796 47.5971 331.427 47.5554L331.228 44.562ZM328.347 45.0114C327.662 45.1725 326.937 45.3788 326.351 45.6325L327.542 48.3858C327.888 48.2363 328.413 48.0778 329.034 47.9317L328.347 45.0114ZM325.491 47.3727C328.617 59.8855 331.604 66.7558 333.997 70.5532L336.535 68.9537C334.385 65.541 331.492 59.0181 328.402 46.6457L325.491 47.3727ZM333.997 70.5526C336.266 74.1563 337.948 75.0221 338.88 75.1975L339.435 72.2493C339.703 72.2998 338.619 72.2632 336.536 68.9543L333.997 70.5526ZM338.874 75.1964C342.421 75.879 346.592 74.267 350.258 72.0215L348.692 69.4632C345.163 71.6244 341.83 72.7103 339.441 72.2504L338.874 75.1964ZM350.26 72.0209C354.548 69.3898 358.581 65.6175 360.998 62.2458L358.559 60.4982C356.393 63.5206 352.664 67.0257 348.691 69.4638L350.26 72.0209ZM360.997 62.2465C361.075 62.1374 361.076 62.1929 360.937 62.2402C360.792 62.2894 360.514 62.3128 360.231 62.1322C359.939 61.9465 359.816 61.6545 359.805 61.4347C359.794 61.2325 359.871 61.1701 359.81 61.2558L362.254 62.9954C362.602 62.5075 362.835 61.9135 362.8 61.2742C362.765 60.6172 362.44 59.9825 361.841 59.6012C360.568 58.7911 359.221 59.5759 358.56 60.4974L360.997 62.2465ZM359.811 61.2543C359.025 62.3562 358.037 63.5326 356.9 64.706L359.054 66.7938C360.281 65.5286 361.368 64.2377 362.253 62.9969L359.811 61.2543ZM356.479 65.6711L356.431 66.5831L359.427 66.7409L359.475 65.8288L356.479 65.6711ZM356.431 66.5976L356.383 67.7161L359.38 67.8449L359.428 66.7264L356.431 66.5976ZM356.382 67.7301C356.231 72.2086 356.266 81.2154 356.734 89.7239L359.73 89.5591C359.266 81.1318 359.233 72.2139 359.38 67.8309L356.382 67.7301ZM356.734 89.7239C357.052 95.4923 357.565 101.116 358.369 104.919L361.304 104.299C360.551 100.738 360.046 95.3116 359.73 89.5591L356.734 89.7239ZM359.099 105.915C364.456 108.94 370.466 110.253 376.339 110.505L376.468 107.508C370.937 107.27 365.419 106.039 360.574 103.303L359.099 105.915ZM376.339 110.505C383.726 110.821 390.997 109.474 396.731 107.667L395.829 104.806C390.352 106.532 383.433 107.806 376.468 107.508L376.339 110.505ZM397.727 105.84C397.071 103.446 396.491 101.082 395.983 98.7332L393.051 99.3674C393.571 101.771 394.164 104.188 394.833 106.633L397.727 105.84ZM395.983 98.7337C395.452 96.2729 395.001 93.8125 394.632 91.3574L391.665 91.8044C392.044 94.3224 392.506 96.8449 393.051 99.3669L395.983 98.7337ZM393.702 90.1869C392.182 89.583 390.401 88.6697 388.538 87.6764C386.708 86.7003 384.789 85.6409 383.102 84.8183L381.787 87.5151C383.41 88.3058 385.236 89.315 387.127 90.3235C388.985 91.3148 390.901 92.3019 392.594 92.9749L393.702 90.1869ZM382.105 78.5344C380.614 78.0907 379.472 77.0858 378.673 76.1135C378.28 75.6344 377.988 75.185 377.797 74.8592C377.702 74.697 377.633 74.5676 377.589 74.4832C377.568 74.4411 377.553 74.4104 377.544 74.3927C377.54 74.3838 377.537 74.3782 377.536 74.3761C377.536 74.375 377.536 74.3748 377.536 74.3755C377.536 74.3758 377.537 74.3764 377.537 74.3772C377.537 74.3776 377.537 74.378 377.538 74.3785C377.538 74.3788 377.538 74.3792 377.538 74.3793C377.538 74.3798 377.538 74.3802 376.172 74.9987C374.805 75.6172 374.805 75.6177 374.806 75.6182C374.806 75.6183 374.806 75.6189 374.806 75.6192C374.806 75.62 374.807 75.6208 374.807 75.6216C374.808 75.6234 374.809 75.6253 374.81 75.6275C374.812 75.6319 374.814 75.6373 374.817 75.6435C374.823 75.656 374.831 75.6722 374.84 75.6919C374.859 75.7311 374.885 75.7843 374.919 75.8498C374.986 75.9805 375.082 76.1609 375.209 76.3776C375.463 76.8093 375.842 77.3933 376.355 78.0176C377.369 79.2522 378.979 80.734 381.25 81.4098L382.105 78.5344ZM376.172 74.9987C377.669 74.9152 377.669 74.9151 377.669 74.9149C377.669 74.9147 377.669 74.9144 377.669 74.914C377.669 74.9132 377.669 74.9121 377.669 74.9105C377.669 74.9074 377.669 74.9028 377.668 74.8967C377.668 74.8844 377.667 74.8661 377.665 74.842C377.663 74.7937 377.659 74.7219 377.653 74.6283C377.643 74.4411 377.628 74.1664 377.608 73.8163C377.569 73.1162 377.514 72.1146 377.447 70.9091C377.314 68.4981 377.136 65.2712 376.958 62.008C376.78 58.7445 376.602 55.4455 376.468 52.8897C376.402 51.6116 376.346 50.521 376.307 49.7142C376.288 49.3105 376.273 48.9801 376.263 48.7337C376.258 48.6103 376.254 48.5103 376.251 48.4339C376.25 48.3957 376.249 48.3652 376.249 48.3416C376.248 48.3299 376.248 48.3207 376.248 48.3138C376.248 48.3104 376.248 48.3078 376.248 48.3059C376.248 48.304 376.248 48.3032 376.248 48.3033H373.248C373.248 48.9424 373.609 55.689 373.962 62.1713C374.14 65.4357 374.318 68.6634 374.452 71.0749C374.518 72.2807 374.574 73.2825 374.613 73.9829C374.632 74.3331 374.648 74.6079 374.658 74.7952C374.663 74.8888 374.667 74.9606 374.67 75.0089C374.671 75.0331 374.672 75.0514 374.673 75.0637C374.673 75.0698 374.674 75.0745 374.674 75.0776C374.674 75.0791 374.674 75.0803 374.674 75.0811C374.674 75.0815 374.674 75.0818 374.674 75.0819C374.674 75.0821 374.674 75.0822 376.172 74.9987ZM382.92 46.3346C388.665 48.5543 394.417 50.7645 398.186 55.0853L400.446 53.1134C396.099 48.1291 389.572 45.6889 384.001 43.5362L382.92 46.3346ZM398.186 55.0853C399.011 56.032 400.259 58.0884 401.632 60.9532C402.986 63.7783 404.409 67.2765 405.61 71.0204C408.042 78.5968 409.459 86.8427 407.912 92.5672L410.808 93.35C412.597 86.731 410.925 77.7631 408.467 70.1036C407.223 66.2295 405.751 62.6043 404.338 59.6565C402.944 56.7485 401.553 54.3825 400.446 53.1134L398.186 55.0853ZM401.204 82.9053C400.736 82.3261 399.396 80.111 397.976 77.5345C396.57 74.9841 395.227 72.3346 394.72 70.9546L391.904 71.9894C392.5 73.6117 393.951 76.4473 395.349 78.9826C396.732 81.4919 398.202 83.9633 398.869 84.7896L401.204 82.9053ZM400.424 86.8388C400.942 86.8625 401.773 86.807 402.362 86.1765C403.081 85.4062 402.869 84.4728 402.643 84.005C402.41 83.5249 402.027 83.1483 401.646 82.8902C401.253 82.6241 400.744 82.404 400.168 82.3532L399.905 85.3416C399.884 85.3398 399.913 85.3402 399.965 85.3748C400.028 85.4175 399.995 85.422 399.942 85.3122C399.913 85.2524 399.851 85.0999 399.859 84.8759C399.867 84.6235 399.965 84.3473 400.17 84.1282C400.356 83.929 400.546 83.8665 400.608 83.8504C400.669 83.8343 400.666 83.8467 400.561 83.8419L400.424 86.8388ZM384.399 83.8608C388.537 85.1275 396.331 86.649 400.423 86.8387L400.562 83.842C396.778 83.6665 389.237 82.2042 385.277 80.9922L384.399 83.8608ZM383.972 86.3119C384.578 85.8613 385.095 85.363 385.5 84.7486C385.907 84.1299 386.154 83.463 386.307 82.7328L383.37 82.1202C383.277 82.5632 383.152 82.859 382.994 83.0987C382.834 83.3428 382.593 83.5986 382.182 83.9042L383.972 86.3119ZM408.023 92.2778C408.013 92.2974 407.944 92.4587 407.408 92.5544C406.855 92.6532 406.034 92.6297 404.942 92.4406C402.774 92.0652 399.979 91.1205 397.065 89.9445C391.204 87.5794 385.423 84.5264 383.697 83.7423L382.456 86.4737C383.887 87.1236 390.05 90.3486 395.942 92.7265C398.905 93.922 401.939 94.9652 404.43 95.3966C405.667 95.6108 406.884 95.6955 407.936 95.5076C409.005 95.3165 410.107 94.7961 410.697 93.6394L408.023 92.2778ZM372.969 46.3731L367.86 43.6154L366.435 46.2554L371.544 49.0131L372.969 46.3731ZM383.102 84.8183C381.277 83.9288 378.099 82.7094 374.998 80.8846C373.479 79.9902 372.076 79.001 370.988 77.9249C369.896 76.8448 369.195 75.752 368.937 74.6547L366.017 75.3428C366.449 77.1783 367.552 78.7462 368.878 80.058C370.209 81.3737 371.841 82.5075 373.477 83.4701C376.687 85.3595 380.302 86.7912 381.787 87.5151L383.102 84.8183ZM368.954 75.2573L373.734 47.9518L370.779 47.4345L365.999 74.7401L368.954 75.2573Z" fill="#333333" mask="url(#path-21-outside-1_16_76401)"/>
<path fill-rule="evenodd" clip-rule="evenodd" d="M392.197 64.3771C391.957 67.5357 391.832 70.6656 391.827 73.7811C391.822 77.1269 391.957 80.4152 392.226 83.6651L393.686 83.5451C393.417 80.2952 393.283 77.0453 393.287 73.7811C393.292 70.7472 393.412 67.6654 393.657 64.5163C393.739 63.3882 392.288 63.1482 392.197 64.3771ZM393.1 91.2401L394.546 91.0289C394.93 93.6019 395.396 96.1749 395.953 98.7575C396.511 101.35 397.154 103.942 397.88 106.534L398.067 107.206L397.404 107.422C391.563 109.342 384.012 110.802 376.346 110.475C370.317 110.216 364.222 108.848 358.827 105.723L358.554 105.564L358.481 105.248C357.641 101.479 357.098 95.7188 356.771 89.7232C356.306 81.2217 356.267 72.2113 356.421 67.7422L356.469 66.5997L356.531 65.3996L357.992 65.4908L357.929 66.6669L357.881 67.7854C357.732 72.2161 357.766 81.1785 358.232 89.6464C358.549 95.4068 359.058 100.932 359.836 104.614C364.937 107.494 370.702 108.766 376.403 109.011C383.58 109.318 390.674 108.008 396.28 106.241C395.617 103.822 395.031 101.431 394.517 99.0551C393.965 96.4485 393.489 93.8467 393.1 91.2401Z" fill="#333333"/>
<path fill-rule="evenodd" clip-rule="evenodd" d="M406.314 234.767C405.171 236.058 403.72 237.446 402.231 238.867C399.82 241.171 397.313 243.566 396.059 245.616C395.117 247.157 394.945 248.491 396.28 249.37C397.092 249.471 399.993 248.247 403.355 246.547C407.117 244.646 411.353 242.15 413.952 240.177C413.971 240.158 414.024 240.119 414.043 240.11C414.096 240.071 414.182 240.014 414.283 239.927C414.821 239.462 415.671 238.199 413.039 235.141L414.149 234.191C417.646 238.257 416.133 240.259 415.23 241.036C415.1 241.147 414.97 241.238 414.884 241.3L414.816 241.348C412.136 243.379 407.827 245.923 404.013 247.848C400.243 249.754 396.856 251.069 395.79 250.757L395.699 250.733L395.617 250.68C393.244 249.235 393.393 247.181 394.815 244.857C396.169 242.644 398.744 240.182 401.227 237.81C402.697 236.404 404.134 235.036 405.224 233.802L406.314 234.767Z" fill="#333333"/>
<path fill-rule="evenodd" clip-rule="evenodd" d="M365.37 233.812C363.895 234.417 362.099 235.036 360.264 235.665C356.575 236.927 352.727 238.247 350.517 239.86C348.558 241.296 347.799 242.937 349.249 244.91L349.307 244.987L349.384 245.05C350.263 245.755 354.62 245.87 359.534 245.568C364.289 245.275 369.65 244.632 372.82 243.792L372.897 243.773C373.632 243.609 376.596 242.933 375.178 237.719C375.126 237.527 374.741 236.682 374.386 235.886C374.093 235.237 373.814 234.618 373.781 234.522L372.392 234.978C372.441 235.127 372.738 235.79 373.055 236.486C373.392 237.234 373.752 238.027 373.771 238.099C374.789 241.852 373.017 242.251 372.58 242.347L372.474 242.371C369.395 243.187 364.135 243.816 359.452 244.104C354.999 244.377 351.142 244.373 350.369 243.945C349.653 242.875 350.176 241.915 351.392 241.027C353.414 239.548 357.156 238.267 360.749 237.033C362.574 236.409 364.366 235.794 365.937 235.146L365.37 233.812Z" fill="#333333"/>
<path fill-rule="evenodd" clip-rule="evenodd" d="M402.232 238.867C399.82 241.171 397.313 243.566 396.059 245.616C395.118 247.157 394.945 248.491 396.28 249.37C397.092 249.471 399.993 248.246 403.356 246.547C407.117 244.646 411.354 242.15 413.952 240.177C413.972 240.158 414.024 240.119 414.044 240.11C414.096 240.071 414.183 240.014 414.284 239.927C414.577 239.678 414.956 239.198 414.831 238.329C414.74 237.666 414.351 236.774 413.405 235.583C412.42 236.01 411.176 236.193 409.932 236.159C408.481 236.121 406.992 235.794 405.906 235.223C405.003 236.207 403.942 237.234 402.842 238.29C402.635 238.482 402.434 238.675 402.232 238.867Z" fill="#FEFEFE"/>
<path fill-rule="evenodd" clip-rule="evenodd" d="M373.761 238.103C373.785 238.19 373.809 238.276 373.829 238.363C374.698 241.876 372.998 242.26 372.57 242.356L372.464 242.38C369.385 243.197 364.126 243.825 359.442 244.113C354.989 244.387 351.132 244.382 350.359 243.955C349.643 242.885 350.167 241.924 351.382 241.036C352.612 240.134 354.485 239.308 356.57 238.521C357.91 238.017 359.332 237.527 360.739 237.047C362.372 236.486 363.977 235.938 365.423 235.362C366.321 235.953 367.709 236.562 369.304 236.668C370.409 236.74 371.614 236.572 372.82 235.991C372.892 236.15 372.969 236.322 373.046 236.49C373.382 237.239 373.737 238.031 373.761 238.103Z" fill="#FEFEFE"/>
<path fill-rule="evenodd" clip-rule="evenodd" d="M394.503 108.296C397.889 119.37 401.675 139.374 404.989 161.993C409.768 185.289 412.847 211.528 412.804 233.759C411.925 234.244 410.643 234.527 409.365 234.556C408.097 234.585 406.867 234.373 406.084 233.879C404.984 229.693 400.551 211.716 394.594 190.863C389.57 173.264 382.965 154.149 379.497 140.742L378.109 135.677C378.022 148.269 377.177 161.494 376.629 170.072C376.466 172.655 376.327 174.815 376.24 176.461C376.235 176.572 376.24 176.994 376.25 177.7C376.331 183.811 376.697 211.826 372.359 234.585C371.341 235.117 370.317 235.271 369.386 235.213C368.117 235.132 367.008 234.657 366.283 234.186C366.201 227.605 365.98 218.148 365.36 208.067C364.726 197.761 363.665 186.768 361.897 177.45C361.753 176.692 359.092 161.436 358.938 140.799C358.861 130.488 359.414 118.833 361.22 106.971C365.99 109.213 371.192 110.245 376.341 110.47C382.797 110.749 389.166 109.76 394.503 108.296Z" fill="#404040" stroke="#404040" stroke-width="0.216" stroke-miterlimit="22.9256"/>
<path fill-rule="evenodd" clip-rule="evenodd" d="M378.113 135.533C378.031 148.168 377.181 161.46 376.634 170.072C376.47 172.655 376.331 174.815 376.245 176.461C376.24 176.572 376.245 176.994 376.254 177.7C376.336 183.811 376.701 211.826 372.363 234.585C371.345 235.117 370.322 235.271 369.39 235.213C368.122 235.132 367.012 234.657 366.287 234.186C366.205 227.605 365.984 218.148 365.365 208.067C364.731 197.761 363.669 186.768 361.901 177.45C361.757 176.692 359.096 161.436 358.942 140.799C358.866 130.2 359.447 118.189 361.378 105.992L359.937 105.766C357.996 118.041 357.41 130.138 357.487 140.799C357.641 161.575 360.321 176.946 360.465 177.709C362.223 186.96 363.275 197.89 363.909 208.144C364.543 218.431 364.76 228.018 364.836 234.575L364.841 234.935L365.129 235.151C365.999 235.799 367.522 236.548 369.304 236.663C370.586 236.745 371.998 236.505 373.396 235.679L373.68 235.511L373.742 235.189C378.171 212.239 377.796 183.844 377.719 177.676C377.71 177.023 377.705 176.625 377.71 176.529C377.791 174.973 377.931 172.779 378.099 170.158C378.579 162.66 379.285 151.624 379.511 140.535L378.113 135.533Z" fill="#333333"/>
<path fill-rule="evenodd" clip-rule="evenodd" d="M369.707 121.564C370.639 122.399 371.691 123.143 372.858 123.691C374.064 124.252 375.399 124.612 376.85 124.656L377.441 124.675L377.508 125.256C379.401 141.481 384.526 157.562 390.578 176.538C395.747 192.749 401.588 211.072 406.675 233.409C407.578 233.817 408.558 233.917 409.514 233.85C410.426 233.783 411.325 233.557 412.112 233.284C411.944 226.664 411.565 216.65 410.71 206.013C410.105 198.462 409.264 190.618 408.092 183.499C407.929 182.515 407.77 181.579 407.607 180.686C407.443 179.783 407.27 178.895 407.098 178.026C406.958 177.345 406.776 176.485 406.593 175.65C406.113 173.428 405.671 171.392 405.421 168.858C405.253 167.144 405.066 165.377 404.864 163.577C404.657 161.729 404.441 159.958 404.225 158.254C403.024 148.907 401.487 139.834 399.753 131.496C397.952 122.846 395.934 115.002 393.854 108.493L395.146 108.085C397.241 114.652 399.273 122.539 401.079 131.223C402.822 139.575 404.364 148.686 405.57 158.086C405.805 159.919 406.022 161.705 406.219 163.428C406.411 165.142 406.598 166.909 406.776 168.728C407.011 171.147 407.448 173.164 407.924 175.357C408.073 176.049 408.226 176.764 408.428 177.758C408.606 178.636 408.779 179.534 408.942 180.441C409.115 181.406 409.283 182.347 409.432 183.273C410.609 190.455 411.459 198.332 412.064 205.902C412.939 216.78 413.976 227.523 414.139 234.181L414.149 234.661L413.698 234.834C411.517 235.66 406.929 236.174 405.282 234.105L405.215 233.797C400.118 211.356 394.464 193.2 389.281 176.941C383.277 158.105 378.181 142.115 376.221 125.971C374.794 125.856 373.483 125.472 372.277 124.91C370.951 124.291 369.765 123.451 368.732 122.51C367.815 121.675 368.79 120.738 369.707 121.564Z" fill="#333333"/>
<path fill-rule="evenodd" clip-rule="evenodd" d="M373.521 21.7976C375.005 18.2885 378.944 20.2903 378.959 22.1672C378.771 21.9608 377.945 21.4663 377.474 21.4087C377.311 23.4969 374.813 23.9338 374.141 21.7064C373.872 21.692 373.718 21.6776 373.521 21.7976ZM372.623 38.1045C372.777 38.1621 375.135 38.8054 378.262 36.1172C379.895 34.7154 381.697 32.4209 383.45 28.7101C383.421 28.7197 383.387 28.7293 383.359 28.739C382.897 28.8638 382.518 28.0285 383.282 27.7405C383.483 27.6637 383.685 27.5581 383.863 27.4332C384.242 27.174 384.545 26.8524 384.728 26.5644C385.448 25.4363 385.635 24.1834 385.386 23.2713C385.29 22.9209 385.126 22.6232 384.91 22.4216C384.708 22.2296 384.444 22.1144 384.127 22.1C383.493 22.0712 382.652 22.4168 381.634 23.3241C381.067 23.8281 380.563 23.1801 380.837 22.7577L380.52 22.3112C380.582 20.3479 380.52 18.7349 380.361 17.4148C380.193 16.0371 379.919 15.0002 379.559 14.2418C379.328 13.7521 378.973 13.2721 378.541 12.8832C378.147 12.5232 377.695 12.2448 377.225 12.1008C376.667 11.928 376.105 11.9712 375.553 12.1392C374.943 12.3264 374.328 12.6672 373.718 13.0705C373.411 13.2721 373.108 13.4881 372.815 13.6993C371.287 14.7938 370.072 15.6627 367.656 15.0194C367.329 14.933 367.022 14.7698 366.758 14.5442C366.729 14.5202 366.7 14.4962 366.676 14.4722C366.239 15.1346 365.864 15.8979 365.547 16.738C364.476 19.6182 364.164 23.3481 364.76 26.934C365.35 30.4911 366.83 33.885 369.337 36.1268C370.284 36.962 371.374 37.6437 372.623 38.1045ZM383.387 23.8041C382.782 23.9242 382.715 23.4201 383.349 23.3145C383.541 23.2857 383.714 23.2857 383.868 23.3241C384.122 23.3817 384.315 23.5209 384.444 23.7225C384.564 23.9098 384.627 24.1498 384.627 24.4186C384.627 24.865 384.454 25.4219 384.094 25.9787C383.959 26.1899 383.733 26.43 383.464 26.6124C383.32 26.7132 383.162 26.7948 382.989 26.8524C382.576 26.9964 382.408 26.5788 382.921 26.358C383.013 26.3195 383.104 26.2667 383.19 26.2091C383.407 26.0651 383.58 25.8779 383.685 25.7147C383.993 25.2347 384.142 24.7786 384.142 24.4186C384.142 24.241 384.108 24.0922 384.036 23.9866C383.973 23.8905 383.882 23.8281 383.762 23.7993C383.656 23.7753 383.532 23.7753 383.387 23.8041ZM365.028 21.6488C366.378 18.0869 370.394 19.9398 370.48 21.8168C370.284 21.62 369.443 21.1543 368.967 21.1159C368.886 23.2089 366.402 23.7369 365.648 21.5384C365.379 21.5288 365.221 21.524 365.028 21.6488ZM371.34 30.5391C374.131 32.7905 375.145 28.7966 375.635 28.1821C375.495 33.1409 371.691 32.7953 371.34 30.5391ZM370.61 26.7996C370.937 26.9772 371.46 27.1596 372.618 27.1836C370.231 28.1293 369.39 27.0204 369.424 25.9883C369.462 24.5962 370.769 24.8746 370.504 22.6184C371.638 24.2026 369.078 25.9691 370.61 26.7996Z" fill="#FEFEFE"/>
<path fill-rule="evenodd" clip-rule="evenodd" d="M375.369 86.9338L283.171 71.1741C279.866 70.6076 277.647 67.473 278.209 64.1703L283.239 36.6435C283.806 33.3409 286.943 31.1231 290.247 31.6847L382.445 47.4444C385.75 48.0109 387.969 51.1455 387.407 54.4482L382.382 81.9749C381.811 85.2776 378.674 87.5002 375.369 86.9338Z" fill="#333333"/>
<path fill-rule="evenodd" clip-rule="evenodd" d="M307.1 59.1097L310.568 56.6127L306.157 55.8334L306.146 55.8314C303.703 55.3998 301.365 57.0836 300.922 59.5937C300.478 62.1038 302.098 64.4868 304.541 64.9185C304.725 64.951 304.912 64.9722 305.095 64.9808C304.473 62.8569 305.219 60.4596 307.095 59.1088L307.1 59.1097Z" fill="white"/>
<path fill-rule="evenodd" clip-rule="evenodd" d="M310.415 61.2654L311.169 56.9975L307.483 59.6516L307.477 59.6564C305.436 61.1261 304.927 64.0038 306.341 66.0839C307.755 68.164 310.555 68.6588 312.596 67.1891C312.748 67.0797 312.896 66.9579 313.035 66.8283C311.125 65.7919 310.007 63.5745 310.416 61.2596L310.415 61.2654Z" fill="white"/>
<path fill-rule="evenodd" clip-rule="evenodd" d="M314.261 60.3751L311.859 56.8408L311.058 61.3788C310.614 63.889 312.234 66.2721 314.676 66.7037C317.119 67.1353 319.457 65.4515 319.901 62.9412C319.934 62.7517 319.957 62.5601 319.967 62.3724C317.891 63.0303 315.561 62.2869 314.261 60.3751Z" fill="white"/>
<path fill-rule="evenodd" clip-rule="evenodd" d="M322.188 54.662C322.083 54.5072 321.966 54.3561 321.841 54.2156C320.812 56.1841 318.64 57.3522 316.388 56.9542L312.234 56.2203L314.787 59.9766L314.792 59.9833C316.206 62.0633 319.006 62.5582 321.047 61.0885C323.088 59.6188 323.596 56.7411 322.183 54.661L322.188 54.662Z" fill="white"/>
<path fill-rule="evenodd" clip-rule="evenodd" d="M318.115 47.2068C317.931 47.1742 317.744 47.1531 317.561 47.1444C318.183 49.2684 317.437 51.6658 315.561 53.0167L312.094 55.5139L316.51 56.2942C318.952 56.7258 321.291 55.042 321.734 52.5317C322.178 50.0215 320.558 47.6384 318.115 47.2068Z" fill="white"/>
<path fill-rule="evenodd" clip-rule="evenodd" d="M316.321 46.0432C314.907 43.9631 312.107 43.4683 310.066 44.938C309.914 45.0474 309.765 45.1693 309.627 45.2988C311.537 46.3352 312.655 48.5527 312.246 50.8675L311.492 55.1354L315.177 52.4813L315.184 52.4765C317.225 51.0068 317.733 48.129 316.32 46.0489L316.321 46.0432Z" fill="white"/>
<path fill-rule="evenodd" clip-rule="evenodd" d="M308.405 51.7582L308.51 51.9131L310.802 55.2858L310.808 55.2867L311.609 50.7545L311.611 50.743C312.054 48.2328 310.435 45.8497 307.992 45.4181C305.549 44.9865 303.211 46.6703 302.767 49.1805C302.734 49.3701 302.712 49.5616 302.702 49.7494C304.778 49.0915 307.107 49.8406 308.412 51.7535L308.405 51.7582Z" fill="white"/>
<path fill-rule="evenodd" clip-rule="evenodd" d="M300.841 57.8676C300.893 57.7701 300.951 57.6679 301.008 57.5772C301.015 57.5667 301.024 57.5504 301.032 57.5399C301.096 57.4387 301.165 57.3384 301.234 57.2439C301.249 57.2229 301.264 57.2019 301.279 57.1809C301.354 57.0874 301.428 56.9939 301.502 56.9004C301.51 56.8899 301.517 56.8794 301.529 56.8756C301.602 56.7936 301.679 56.7125 301.757 56.6315C301.771 56.6162 301.791 56.602 301.806 56.581C301.89 56.5009 301.979 56.4218 302.067 56.3428C302.087 56.3285 302.101 56.3132 302.121 56.299C302.209 56.2257 302.296 56.1581 302.389 56.0915C302.395 56.0867 302.403 56.0762 302.415 56.0725C302.514 56.0011 302.612 55.9355 302.709 55.8756C302.729 55.8614 302.754 55.8481 302.774 55.8338C302.877 55.775 302.974 55.7151 303.081 55.663C303.094 55.6534 303.106 55.6497 303.125 55.6411C303.22 55.5928 303.321 55.5454 303.42 55.5038C303.439 55.4952 303.458 55.4867 303.482 55.4792C303.589 55.4328 303.699 55.3931 303.809 55.3592C303.834 55.3516 303.858 55.3441 303.877 55.3356C303.986 55.3017 304.096 55.2677 304.211 55.2406C304.216 55.2415 304.223 55.2368 304.228 55.2378C304.343 55.2106 304.462 55.1901 304.58 55.1697C304.604 55.1679 304.634 55.1613 304.657 55.1595C304.775 55.1448 304.893 55.1301 305.011 55.1154C305.029 55.1126 305.045 55.1156 305.063 55.1128C305.174 55.1028 305.284 55.1044 305.394 55.1002C305.417 55.0984 305.434 55.1013 305.458 55.0995C305.578 55.1031 305.698 55.1066 305.818 55.1158C305.846 55.1208 305.869 55.119 305.897 55.1239C306.022 55.1341 306.146 55.1501 306.275 55.1728L310.428 55.9067L307.871 52.1436C306.457 50.0634 303.656 49.5686 301.615 51.0384C299.575 52.5081 299.066 55.386 300.48 57.4661C300.585 57.6209 300.702 57.772 300.822 57.9116C300.829 57.9011 300.838 57.8848 300.846 57.8743L300.841 57.8676Z" fill="white"/>
<path fill-rule="evenodd" clip-rule="evenodd" d="M307.876 52.1447L309.903 55.1269L306.577 54.5393L306.386 54.5114C304.362 54.1539 302.898 52.4558 302.716 50.4512C304.57 49.7777 306.7 50.4147 307.871 52.138L307.876 52.1447Z" fill="white"/>
<path fill-rule="evenodd" clip-rule="evenodd" d="M311.605 50.7482L310.969 54.3439L309.043 51.5099L308.932 51.3541C307.761 49.6308 307.909 47.3587 309.159 45.7967C310.925 46.6655 311.974 48.6574 311.606 50.7424L311.604 50.7539L311.605 50.7482Z" fill="white"/>
<path fill-rule="evenodd" clip-rule="evenodd" d="M315.203 52.4679L312.278 54.575L312.881 51.1573L312.91 50.961C313.278 48.8817 314.947 47.364 316.902 47.1587C317.542 49.0546 316.901 51.2455 315.21 52.4632L315.203 52.4679Z" fill="white"/>
<path fill-rule="evenodd" clip-rule="evenodd" d="M316.505 56.2873L313.006 55.669L315.787 53.6663L315.94 53.5511C317.631 52.3333 319.844 52.4638 321.355 53.7319C320.492 55.5521 318.54 56.6468 316.511 56.2882L316.5 56.2863L316.505 56.2873Z" fill="white"/>
<path fill-rule="evenodd" clip-rule="evenodd" d="M314.795 59.9662L312.768 56.9838L316.094 57.5714L316.285 57.5993C318.309 57.9568 319.773 59.655 319.954 61.6598C318.1 62.3334 315.97 61.6964 314.799 59.9729L314.795 59.9662Z" fill="white"/>
<path fill-rule="evenodd" clip-rule="evenodd" d="M311.067 61.3564L311.703 57.7605L313.629 60.5946L313.74 60.7504C314.911 62.4738 314.763 64.746 313.513 66.3081C311.747 65.4392 310.698 63.4473 311.066 61.3621L311.068 61.3506L311.067 61.3564Z" fill="white"/>
<path fill-rule="evenodd" clip-rule="evenodd" d="M307.492 59.6651L310.418 57.5582L309.815 60.9757L309.786 61.172C309.418 63.2512 307.749 64.7688 305.793 64.974C305.154 63.0783 305.795 60.8874 307.486 59.6699L307.492 59.6651Z" fill="white"/>
<path fill-rule="evenodd" clip-rule="evenodd" d="M306.167 55.8406L309.667 56.4589L306.886 58.4616L306.733 58.5768C305.042 59.7945 302.829 59.6641 301.318 58.396C302.181 56.5758 304.133 55.4811 306.162 55.8396L306.173 55.8416L306.167 55.8406Z" fill="white"/>
<path fill-rule="evenodd" clip-rule="evenodd" d="M355.659 63.4543L367.658 60.1805C368.658 59.8972 368.802 59.182 367.942 58.6155L357.513 51.7798C356.999 51.439 356.226 51.1989 355.472 51.1221C354.972 51.0741 354.482 51.0981 354.084 51.2085L353.017 51.5014L342.085 54.4824C341.086 54.7656 340.941 55.4809 341.796 56.0473L346.475 59.1148L347.705 59.9212L352.225 62.8831C352.945 63.4543 354.516 63.7376 355.659 63.4543Z" fill="white"/>
<path fill-rule="evenodd" clip-rule="evenodd" d="M359.963 63.4064L357.879 63.9632L355.515 64.5921C354.516 64.8753 352.945 64.5921 352.086 64.0208L347.061 60.6798L345.836 59.8637L345.231 59.4604L341.086 60.5981C340.087 60.8814 339.942 61.5966 340.797 62.1631L342.733 63.4304L343.968 64.2368L351.231 68.994C351.552 69.2053 351.951 69.3829 352.398 69.4981C353.046 69.6709 353.781 69.7285 354.492 69.6181C354.598 69.6037 354.699 69.5845 354.8 69.5605L355.097 69.4789L356.577 69.0757L366.799 66.2866C367.798 66.0034 367.942 65.2881 367.087 64.7217L363.513 62.4415L359.963 63.4064Z" fill="white" fill-opacity="0.75"/>
<path fill-rule="evenodd" clip-rule="evenodd" d="M362.231 68.5764L356.539 70.1221L355.069 70.5206L354.372 70.7078C354.007 70.8134 353.565 70.8422 353.109 70.8038C352.489 70.7558 351.845 70.5926 351.332 70.3526C351.192 70.2854 351.063 70.2133 350.942 70.1365L344.227 65.725L341.994 66.3394L340.082 66.8675C340.01 66.8867 339.942 66.9107 339.875 66.9347C339.842 66.9491 339.808 66.9635 339.774 66.9779C339.059 67.3091 339.035 67.9284 339.794 68.4324L339.875 68.4852L347.061 73.1944L348.43 74.0921L350.227 75.2682C351.087 75.8394 352.513 76.1226 353.512 75.8394L355.016 75.4314L356.476 75.0329L361.822 73.5736L365.516 72.5655C365.963 72.4407 366.237 72.2247 366.328 71.9799C366.443 71.6727 366.275 71.3126 365.8 71.0006L362.231 68.5764Z" fill="white" fill-opacity="0.5"/>
<path d="M384.649 82.6122C384.668 83.076 384.434 83.6814 383.867 84.3866C383.312 85.0772 382.504 85.7797 381.555 86.4167C379.639 87.703 377.311 88.6147 375.645 88.6844C374.179 88.7456 373.047 87.8556 372.219 86.4473C371.39 85.0364 370.963 83.2441 370.907 81.8928C370.869 80.9753 371.617 80.1734 373.275 79.5476C374.866 78.9473 376.951 78.6572 378.766 78.5814C380.406 78.5129 381.877 79.1447 382.954 80.0205C384.064 80.9238 384.622 81.9695 384.649 82.6122Z" fill="white" stroke="#333333" stroke-width="1.5"/>
<path d="M330.287 37.501C330.181 38.5917 329.257 39.7209 327.745 40.5651C326.259 41.3943 324.381 41.8411 322.702 41.6773C319.229 41.3386 317.116 39.1184 317.341 36.8036C317.43 35.8896 318.283 35.1992 320.012 34.8091C321.67 34.435 323.775 34.4366 325.584 34.613C327.361 34.7863 328.605 35.2183 329.363 35.7588C330.092 36.279 330.349 36.8727 330.287 37.501Z" fill="white" stroke="#333333" stroke-width="1.5"/>
<defs>
<linearGradient id="paint0_linear_16_76401" x1="-7.5" y1="4" x2="303.618" y2="46.7534" gradientUnits="userSpaceOnUse">
<stop offset="0.01" stop-color="#0055B8"/>
<stop offset="0.8" stop-color="#359B34"/>
</linearGradient>
<clipPath id="clip0_16_76401">
<rect y="4" width="288" height="217" rx="4" fill="white"/>
</clipPath>
</defs>
</svg>
