<svg width="448" height="254" viewBox="0 0 448 254" fill="none" xmlns="http://www.w3.org/2000/svg">
<path d="M222.431 253.553C332.682 253.553 422.058 251.414 422.058 248.776C422.058 246.138 332.682 244 222.431 244C112.179 244 22.8027 246.138 22.8027 248.776C22.8027 251.414 112.179 253.553 222.431 253.553Z" fill="#EFEFEF"/>
<path d="M307.495 16.4962V188.5H6.5V16.4962C6.5 12.5941 9.59981 9.5 13.5052 9.5H300.495C304.315 9.5 307.358 12.4541 307.495 16.23V16.4962Z" fill="#AAAAAA" stroke="#333333"/>
<path d="M12.5 182.5V15.5H301.5V182.5H12.5Z" fill="white" stroke="#333333"/>
<path d="M194 248.5H194.561L194.497 247.943L190.831 215.943L190.78 215.5H190.334H122.4H121.964L121.905 215.932L117.505 247.932L117.427 248.5H118H194Z" fill="#CCCCCC" stroke="#333333"/>
<path d="M6.5 208.442V188.5H307.5V208.442C307.5 212.382 304.396 215.5 300.495 215.5H13.5054C9.59909 215.5 6.5 212.383 6.5 208.442Z" fill="#E2E2E2" stroke="#333333"/>
<path fill-rule="evenodd" clip-rule="evenodd" d="M117.031 248H194.969L208 252H104L117.031 248Z" fill="#E2E2E2"/>
<path fill-rule="evenodd" clip-rule="evenodd" d="M117.181 249L110.666 251H201.334L194.819 249H117.181ZM194.969 248H117.031L104 252H208L194.969 248Z" fill="#333333"/>
<path fill-rule="evenodd" clip-rule="evenodd" d="M207.257 254H104.617L104 252H208L207.257 254Z" fill="#AAAAAA"/>
<path fill-rule="evenodd" clip-rule="evenodd" d="M104.617 254H207.257L208 252H104L104.617 254Z" fill="#333333"/>
<path d="M162.5 201.497C162.5 204.26 160.259 206.5 157.5 206.5C154.741 206.5 152.5 204.26 152.5 201.497C152.5 198.74 154.74 196.5 157.5 196.5C160.26 196.5 162.5 198.735 162.5 201.497Z" fill="#AAAAAA" stroke="#333333"/>
<path d="M162.92 44.9155C162.92 45.8397 162.806 46.6836 162.58 47.4473C162.353 48.2109 162.012 48.8695 161.559 49.4229C161.105 49.9762 160.538 50.4051 159.857 50.7095C159.182 51.0138 158.393 51.166 157.491 51.166C156.584 51.166 155.79 51.0138 155.109 50.7095C154.428 50.4051 153.861 49.9762 153.407 49.4229C152.959 48.8639 152.621 48.2026 152.395 47.439C152.168 46.6698 152.054 45.8231 152.054 44.8989C152.054 43.6704 152.262 42.5885 152.677 41.6533C153.097 40.7181 153.714 39.9876 154.528 39.4619C155.347 38.9362 156.357 38.6733 157.558 38.6733C158.709 38.6733 159.683 38.9251 160.479 39.4287C161.282 39.9268 161.888 40.6434 162.297 41.5786C162.712 42.5083 162.92 43.6206 162.92 44.9155ZM152.951 44.9072C152.951 45.9919 153.114 46.9492 153.44 47.7793C153.767 48.6038 154.268 49.2485 154.943 49.7134C155.618 50.1782 156.47 50.4106 157.5 50.4106C158.54 50.4106 159.395 50.181 160.064 49.7217C160.734 49.2624 161.229 48.6204 161.55 47.7959C161.871 46.9714 162.032 46.0112 162.032 44.9155C162.032 43.1834 161.653 41.8387 160.895 40.8813C160.142 39.924 159.03 39.4453 157.558 39.4453C156.523 39.4453 155.662 39.675 154.976 40.1343C154.295 40.5936 153.786 41.2327 153.449 42.0518C153.117 42.8708 152.951 43.8226 152.951 44.9072ZM174.541 51H173.669L166.498 40.2671H166.456C166.467 40.5659 166.475 40.8703 166.481 41.1802C166.492 41.4845 166.5 41.8 166.506 42.1265C166.517 42.4474 166.522 42.7795 166.522 43.1226V51H165.709V38.8643H166.589L173.736 49.564H173.777C173.772 49.3205 173.764 49.0382 173.752 48.7173C173.747 48.3963 173.739 48.0671 173.728 47.7295C173.722 47.3919 173.719 47.0737 173.719 46.7749V38.8643H174.541V51ZM177.978 51V38.8643H178.833V50.2197H184.61V51H177.978ZM189.474 45.4883L193.019 38.8643H193.957L189.914 46.3101V51H189.059V46.3765L184.983 38.8643H185.93L189.474 45.4883ZM205.885 44.9155C205.885 45.8397 205.771 46.6836 205.544 47.4473C205.318 48.2109 204.977 48.8695 204.523 49.4229C204.07 49.9762 203.502 50.4051 202.822 50.7095C202.147 51.0138 201.358 51.166 200.456 51.166C199.549 51.166 198.754 51.0138 198.074 50.7095C197.393 50.4051 196.826 49.9762 196.372 49.4229C195.924 48.8639 195.586 48.2026 195.359 47.439C195.132 46.6698 195.019 45.8231 195.019 44.8989C195.019 43.6704 195.227 42.5885 195.642 41.6533C196.062 40.7181 196.679 39.9876 197.493 39.4619C198.312 38.9362 199.322 38.6733 200.522 38.6733C201.674 38.6733 202.647 38.9251 203.444 39.4287C204.247 39.9268 204.853 40.6434 205.262 41.5786C205.677 42.5083 205.885 43.6206 205.885 44.9155ZM195.916 44.9072C195.916 45.9919 196.079 46.9492 196.405 47.7793C196.732 48.6038 197.233 49.2485 197.908 49.7134C198.583 50.1782 199.435 50.4106 200.464 50.4106C201.505 50.4106 202.36 50.181 203.029 49.7217C203.699 49.2624 204.194 48.6204 204.515 47.7959C204.836 46.9714 204.997 46.0112 204.997 44.9155C204.997 43.1834 204.618 41.8387 203.859 40.8813C203.107 39.924 201.994 39.4453 200.522 39.4453C199.488 39.4453 198.627 39.675 197.941 40.1343C197.26 40.5936 196.751 41.2327 196.414 42.0518C196.082 42.8708 195.916 43.8226 195.916 44.9072ZM209.529 51H208.674V38.8643H215.314V39.6362H209.529V44.8076H214.999V45.5713H209.529V51ZM218.079 51H217.224V38.8643H223.864V39.6362H218.079V44.8076H223.549V45.5713H218.079V51ZM225.773 51V38.8643H226.628V51H225.773ZM235.211 39.4619C234.437 39.4619 233.745 39.5947 233.136 39.8604C232.528 40.1204 232.013 40.4912 231.592 40.9727C231.172 41.4541 230.851 42.0296 230.629 42.6992C230.408 43.3633 230.297 44.0965 230.297 44.8989C230.297 46.0057 230.472 46.9741 230.82 47.8042C231.169 48.6287 231.692 49.2679 232.389 49.7217C233.092 50.1755 233.966 50.4023 235.012 50.4023C235.621 50.4023 236.174 50.3581 236.672 50.2695C237.17 50.1755 237.632 50.0565 238.059 49.9126V50.6597C237.655 50.8091 237.198 50.9308 236.689 51.0249C236.185 51.119 235.599 51.166 234.929 51.166C233.717 51.166 232.699 50.9059 231.875 50.3857C231.056 49.8656 230.438 49.1351 230.023 48.1943C229.608 47.2536 229.401 46.1551 229.401 44.8989C229.401 43.9969 229.531 43.1696 229.791 42.417C230.051 41.6589 230.43 41.0031 230.928 40.4497C231.432 39.8908 232.043 39.4591 232.763 39.1548C233.482 38.8449 234.301 38.6899 235.22 38.6899C235.801 38.6899 236.354 38.748 236.88 38.8643C237.411 38.9749 237.909 39.1382 238.374 39.354L238.042 40.1011C237.594 39.8797 237.134 39.7192 236.664 39.6196C236.194 39.5145 235.709 39.4619 235.211 39.4619ZM247.248 51H240.615V38.8643H247.248V39.6362H241.47V44.2349H246.924V45.0068H241.47V50.228H247.248V51Z" fill="#192435"/>
<rect x="26" y="140" width="54" height="20" rx="2" fill="#76BC21"/>
<rect x="26.5" y="140.5" width="53" height="19" rx="1.5" stroke="black" stroke-opacity="0.15"/>
<g style="mix-blend-mode:soft-light">
<rect x="37" y="149" width="32" height="2" fill="white"/>
</g>
<path fill-rule="evenodd" clip-rule="evenodd" d="M36.2356 48.6724L39.7092 45.2522H34.4889H34.4757C31.5844 45.2522 29.2422 47.5584 29.2422 50.4052C29.2422 53.2521 31.5844 55.5583 34.4757 55.5583C34.694 55.5583 34.9124 55.5452 35.1241 55.5192C33.9795 53.3042 34.35 50.5225 36.229 48.6724H36.2356Z" fill="#8BDC01"/>
<path fill-rule="evenodd" clip-rule="evenodd" d="M40.477 50.3989V45.5586L36.7851 49.1937L36.7785 49.2003C34.734 51.2133 34.734 54.4771 36.7785 56.4901C38.8229 58.5031 42.1377 58.5031 44.1821 56.4901C44.3343 56.3402 44.4799 56.1774 44.6122 56.008C42.2105 55.2393 40.477 53.0178 40.477 50.3924V50.3989Z" fill="#8BDC01"/>
<path fill-rule="evenodd" clip-rule="evenodd" d="M44.7104 48.6725L41.2368 45.2522V50.3989C41.2368 53.2459 43.579 55.5521 46.4703 55.5521C49.3616 55.5521 51.7037 53.2459 51.7037 50.3989C51.7037 50.1839 51.6905 49.9689 51.664 49.7604C49.4145 50.8875 46.5894 50.5227 44.7104 48.6725Z" fill="#8BDC01"/>
<path fill-rule="evenodd" clip-rule="evenodd" d="M52.6514 40.8482C52.4992 40.6984 52.3338 40.5551 52.1618 40.4248C51.381 42.7896 49.1248 44.4963 46.4584 44.4963H41.5425L45.2344 48.1314L45.241 48.1379C47.2855 50.1509 50.6003 50.1509 52.6448 48.1379C54.6892 46.125 54.6892 42.8612 52.6448 40.8482H52.6514Z" fill="#8BDC01"/>
<path fill-rule="evenodd" clip-rule="evenodd" d="M46.4637 33.4407C46.2453 33.4407 46.027 33.4537 45.8153 33.4798C46.9599 35.6948 46.5894 38.4766 44.7104 40.3269L41.2368 43.7472H46.4637C49.355 43.7472 51.6971 41.4409 51.6971 38.5939C51.6971 35.7469 49.355 33.4407 46.4637 33.4407Z" fill="#FBA100"/>
<path fill-rule="evenodd" clip-rule="evenodd" d="M44.1686 32.5098C42.1242 30.4967 38.8094 30.4967 36.765 32.5098C36.6128 32.6596 36.4673 32.8225 36.335 32.9918C38.7367 33.7606 40.4701 35.9821 40.4701 38.6075V43.4478L44.162 39.8127L44.1686 39.8061C46.2131 37.7931 46.2131 34.5293 44.1686 32.5163V32.5098Z" fill="#33AAFF"/>
<path fill-rule="evenodd" clip-rule="evenodd" d="M36.2421 40.3336L36.3943 40.4835L39.7091 43.7474H39.7157V38.6072V38.5942C39.7157 35.7472 37.3735 33.4409 34.4821 33.4409C31.5907 33.4409 29.2485 35.7472 29.2485 38.5942C29.2485 38.8091 29.2618 39.0241 29.2882 39.2326C31.5378 38.1055 34.363 38.4769 36.2487 40.3271L36.2421 40.3336Z" fill="#33AAFF"/>
<path fill-rule="evenodd" clip-rule="evenodd" d="M28.7986 48.5225C28.8383 48.4052 28.8846 48.2814 28.9309 48.1707C28.9376 48.1576 28.9442 48.1381 28.9508 48.1251C29.0037 48.0013 29.0633 47.8775 29.1228 47.7602C29.1361 47.7342 29.1493 47.7081 29.1625 47.6821C29.2287 47.5648 29.2948 47.4475 29.361 47.3303C29.3676 47.3172 29.3742 47.3042 29.3875 47.2977C29.4536 47.1935 29.5264 47.0892 29.5992 46.985C29.6124 46.9654 29.6323 46.9459 29.6455 46.9198C29.7249 46.8156 29.8109 46.7114 29.8969 46.6071C29.9168 46.5876 29.93 46.568 29.9499 46.5485C30.0359 46.4508 30.1219 46.3596 30.2145 46.2684C30.2211 46.2618 30.2278 46.2488 30.241 46.2423C30.3402 46.1446 30.4395 46.0534 30.5387 45.9687C30.5586 45.9491 30.585 45.9296 30.6049 45.9101C30.7108 45.8254 30.81 45.7407 30.9225 45.6625C30.9357 45.6495 30.9489 45.6429 30.9688 45.6299C31.068 45.5583 31.1739 45.4866 31.2798 45.4214C31.2996 45.4084 31.3195 45.3954 31.3459 45.3824C31.4584 45.3107 31.5775 45.2455 31.6966 45.1869C31.7231 45.1739 31.7495 45.1609 31.7694 45.1478C31.8885 45.0892 32.0076 45.0306 32.1333 44.9784C32.1399 44.9784 32.1465 44.9719 32.1531 44.9719C32.2788 44.9198 32.4112 44.8742 32.5435 44.8286C32.57 44.8221 32.603 44.8091 32.6295 44.8025C32.7618 44.7635 32.8942 44.7244 33.0265 44.6853C33.0463 44.6788 33.0662 44.6788 33.086 44.6722C33.2117 44.6397 33.3375 44.6201 33.4632 44.5941C33.4896 44.5876 33.5095 44.5876 33.5359 44.581C33.6749 44.5615 33.8138 44.542 33.9528 44.5289C33.9859 44.5289 34.0123 44.5224 34.0454 44.5224C34.191 44.5094 34.3365 44.5029 34.4887 44.5029H39.4047L35.7061 40.8611C33.6617 38.8481 30.3468 38.8481 28.3024 40.8611C26.2579 42.8742 26.2579 46.1381 28.3024 48.1511C28.4546 48.301 28.62 48.4443 28.7854 48.5746C28.792 48.5616 28.7986 48.542 28.8052 48.529L28.7986 48.5225Z" fill="#33AAFF"/>
<path fill-rule="evenodd" clip-rule="evenodd" d="M35.7129 40.8615L38.644 43.7475H34.7073L34.4823 43.754C32.0872 43.754 30.0626 42.1709 29.4473 40.0015C31.4388 38.9005 34.0125 39.1872 35.7063 40.8549L35.7129 40.8615Z" fill="#017DFF"/>
<path fill-rule="evenodd" clip-rule="evenodd" d="M39.7097 38.6004V42.6785L36.9242 39.9359L36.7655 39.7861C35.0717 38.1184 34.7805 35.5907 35.8987 33.6299C38.102 34.2422 39.7097 36.2292 39.7097 38.5939V38.607V38.6004Z" fill="#017DFF"/>
<path fill-rule="evenodd" clip-rule="evenodd" d="M44.1886 39.793L41.2576 42.679V38.8028L41.251 38.5813C41.251 36.2231 42.8587 34.2296 45.062 33.6238C46.1802 35.5847 45.889 38.1188 44.1953 39.7865L44.1886 39.793Z" fill="#017DFF"/>
<path fill-rule="evenodd" clip-rule="evenodd" d="M46.4578 43.7407H42.3159L45.1014 40.9978L45.2536 40.8414C46.9474 39.1735 49.5145 38.8868 51.506 39.9879C50.8841 42.1575 48.8661 43.7407 46.4644 43.7407H46.4511H46.4578Z" fill="#FFE912"/>
<path fill-rule="evenodd" clip-rule="evenodd" d="M45.2402 48.1186L42.3091 45.2323H46.2459L46.4708 45.2258C48.866 45.2258 50.8906 46.809 51.5059 48.9786C49.5144 50.0797 46.9406 49.793 45.2468 48.1251L45.2402 48.1186Z" fill="#47B41B"/>
<path fill-rule="evenodd" clip-rule="evenodd" d="M41.2437 50.3727V46.2944L44.0292 49.0372L44.188 49.187C45.8818 50.8548 46.1729 53.3825 45.0547 55.3435C42.8514 54.7311 41.2437 52.7441 41.2437 50.3792V50.3662V50.3727Z" fill="#47B41B"/>
<path fill-rule="evenodd" clip-rule="evenodd" d="M36.7975 49.2069L39.7285 46.321V50.197L39.7351 50.4185C39.7351 52.7767 38.1273 54.77 35.9241 55.3758C34.8059 53.4151 35.0971 50.881 36.7908 49.2134L36.7975 49.2069Z" fill="#47B41B"/>
<path fill-rule="evenodd" clip-rule="evenodd" d="M34.5024 45.2583H38.6442L35.8587 48.0012L35.7066 48.1576C34.0128 49.8255 31.4456 50.1122 29.4541 49.0111C30.076 46.8415 32.094 45.2583 34.4958 45.2583H34.509H34.5024Z" fill="#47B41B"/>
<path fill-rule="evenodd" clip-rule="evenodd" d="M57.5431 51.8019L59.4141 47.1769H66.4831L68.3739 51.8019H69.9616L63.8676 36.9236H62.214L55.9487 51.8019H57.5431ZM62.9848 38.3433L65.989 45.9717H59.8752L62.9848 38.3433Z" fill="#474747"/>
<path fill-rule="evenodd" clip-rule="evenodd" d="M70.5017 51.8019H71.8721V36.9236H70.5017V51.8019Z" fill="#474747"/>
<path fill-rule="evenodd" clip-rule="evenodd" d="M77.742 41.0501H75.5218V40.11C75.5218 39.8197 75.5284 39.5484 75.5416 39.296C75.5548 39.0436 75.6075 38.8291 75.7063 38.6398C75.7985 38.4505 75.9501 38.3054 76.1543 38.1918C76.3585 38.0782 76.6484 38.0278 77.0239 38.0278C77.182 38.0278 77.3402 38.0404 77.5049 38.0593C77.663 38.0782 77.8409 38.1035 78.0253 38.135V37.0119C77.8079 36.9867 77.6103 36.9614 77.439 36.9488C77.2677 36.9362 77.0766 36.9299 76.8724 36.9299C76.319 36.9299 75.871 37.0056 75.5153 37.157C75.1595 37.3085 74.8828 37.523 74.6786 37.8006C74.4743 38.0782 74.336 38.4127 74.2635 38.8039C74.191 39.1951 74.1515 39.6178 74.1515 40.0721V41.0501H72.2344V42.1543H74.1515V51.8019H75.5218V42.1543H77.742V41.0501Z" fill="#474747"/>
<path fill-rule="evenodd" clip-rule="evenodd" d="M78.1637 51.802H79.534V46.1611C79.534 45.6122 79.6329 45.1011 79.8371 44.6215C80.0413 44.142 80.3246 43.7319 80.6935 43.3911C81.0625 43.0504 81.5039 42.7854 82.0112 42.6024C82.5184 42.4194 83.085 42.3374 83.7109 42.369V41.0565C82.6963 41.0124 81.8201 41.208 81.0888 41.6307C80.3575 42.0535 79.8173 42.7034 79.4681 43.5804H79.422V41.0565H78.1571V51.8083L78.1637 51.802Z" fill="#474747"/>
<path fill-rule="evenodd" clip-rule="evenodd" d="M93.0066 46.7794C93.0329 46.0664 92.9605 45.366 92.7892 44.6719C92.6179 43.9779 92.328 43.3658 91.9327 42.8358C91.5309 42.2995 91.017 41.8704 90.3779 41.5423C89.7389 41.2142 88.9681 41.0501 88.0721 41.0501C87.1761 41.0501 86.4053 41.2016 85.7663 41.5108C85.1272 41.8199 84.6068 42.2238 84.1983 42.7285C83.7898 43.2333 83.4934 43.8075 83.2957 44.4511C83.0981 45.0947 82.9993 45.7509 82.9993 46.4197C82.9993 47.139 83.0981 47.8268 83.2957 48.4767C83.4934 49.1266 83.7898 49.6945 84.1983 50.1866C84.6068 50.6788 85.1272 51.07 85.7663 51.3602C86.4053 51.6505 87.1761 51.7956 88.0721 51.7956C89.4951 51.7956 90.5953 51.4612 91.3661 50.786C92.1435 50.1109 92.6772 49.1644 92.9671 47.9404H91.5967C91.3793 48.7606 90.9906 49.4231 90.4241 49.9279C89.8575 50.4327 89.0735 50.6914 88.0721 50.6914C87.4199 50.6914 86.8599 50.5715 86.3855 50.3254C85.9112 50.0794 85.5357 49.7702 85.2458 49.3979C84.9559 49.0256 84.7385 48.6092 84.5936 48.1423C84.4486 47.6817 84.3762 47.221 84.3762 46.7731H93.0132L93.0066 46.7794ZM84.3696 45.6752C84.4289 45.2272 84.5475 44.7918 84.7253 44.3627C84.9098 43.9337 85.147 43.5614 85.4566 43.2333C85.7597 42.9052 86.1286 42.6465 86.5634 42.4509C86.9982 42.2553 87.4989 42.1543 88.0655 42.1543C88.6189 42.1543 89.113 42.2553 89.5478 42.4509C89.9827 42.6465 90.3516 42.9115 90.6546 43.2333C90.9577 43.5614 91.1949 43.9337 91.3596 44.3501C91.5243 44.7729 91.6165 45.2082 91.6297 45.6689H84.363L84.3696 45.6752Z" fill="#474747"/>
<path fill-rule="evenodd" clip-rule="evenodd" d="M102.092 44.1925C102.066 43.6057 101.94 43.1009 101.723 42.6718C101.506 42.2428 101.209 41.8768 100.84 41.5866C100.471 41.2963 100.043 41.0818 99.5555 40.943C99.0679 40.8042 98.5409 40.7347 97.9809 40.7347C97.4868 40.7347 96.9927 40.7915 96.492 40.8988C95.9913 41.0124 95.5367 41.1827 95.1348 41.4225C94.7264 41.656 94.397 41.9715 94.1466 42.3627C93.8897 42.7539 93.7645 43.2145 93.7645 43.7571C93.7645 44.2177 93.8436 44.6026 94.0017 44.9118C94.1598 45.2273 94.3838 45.486 94.6671 45.7005C94.9504 45.915 95.2798 46.098 95.6553 46.2431C96.0308 46.3883 96.4459 46.5144 96.8939 46.628L98.6529 47.0003C98.9559 47.0697 99.259 47.1517 99.5555 47.2527C99.8519 47.3473 100.115 47.4735 100.353 47.6186C100.583 47.7638 100.768 47.9468 100.906 48.1739C101.044 48.3947 101.11 48.6598 101.11 48.9626C101.11 49.3349 101.011 49.6567 100.814 49.9091C100.616 50.1678 100.366 50.376 100.063 50.5464C99.7597 50.7104 99.4237 50.8303 99.0614 50.8997C98.699 50.9691 98.3564 51.007 98.0402 51.007C97.1244 51.007 96.3602 50.7798 95.7475 50.3318C95.1282 49.8775 94.7922 49.2087 94.7329 48.319H93.3626C93.4812 49.6378 93.949 50.6031 94.7659 51.2026C95.5828 51.8083 96.6567 52.1112 97.9743 52.1112C98.4948 52.1112 99.0284 52.0544 99.562 51.9345C100.096 51.8146 100.583 51.6316 101.011 51.3729C101.44 51.1142 101.789 50.7798 102.066 50.3697C102.342 49.9596 102.481 49.4611 102.481 48.8806C102.481 48.4074 102.388 47.9972 102.197 47.6502C102.006 47.3032 101.762 47.0129 101.466 46.7731C101.17 46.5397 100.827 46.3441 100.445 46.199C100.063 46.0538 99.674 45.9529 99.2788 45.8961L97.4538 45.4986C97.2233 45.4418 96.9663 45.3724 96.6896 45.2777C96.4129 45.1894 96.1626 45.0758 95.9254 44.937C95.6948 44.7982 95.5038 44.6278 95.3456 44.4259C95.1941 44.224 95.1151 43.9779 95.1151 43.6877C95.1151 43.3407 95.1941 43.0504 95.3522 42.8106C95.5103 42.5772 95.7212 42.3816 95.9847 42.2365C96.2482 42.0913 96.5315 41.9841 96.8412 41.921C97.1508 41.8579 97.4604 41.8263 97.7635 41.8263C98.1522 41.8263 98.5277 41.8705 98.8703 41.9588C99.2195 42.0472 99.5291 42.1923 99.7926 42.3879C100.063 42.5835 100.274 42.8296 100.432 43.1261C100.59 43.4227 100.675 43.776 100.695 44.1799H102.066L102.092 44.1925Z" fill="#474747"/>
<path fill-rule="evenodd" clip-rule="evenodd" d="M112.435 44.735C112.277 43.4983 111.776 42.5771 110.946 41.9651C110.11 41.353 109.095 41.0501 107.889 41.0501C107.033 41.0501 106.275 41.1953 105.617 41.4855C104.958 41.7758 104.404 42.1607 103.95 42.6465C103.502 43.1323 103.159 43.7002 102.929 44.3627C102.698 45.019 102.579 45.7067 102.579 46.4323C102.579 47.1706 102.698 47.8583 102.929 48.5082C103.159 49.1581 103.502 49.726 103.95 50.2119C104.398 50.6977 104.951 51.0826 105.617 51.3728C106.275 51.6631 107.033 51.8082 107.889 51.8082C109.148 51.8082 110.189 51.4422 111.012 50.704C111.829 49.9658 112.336 48.9499 112.527 47.6438H111.157C111.111 48.0855 110.999 48.4956 110.808 48.8742C110.617 49.2465 110.38 49.5746 110.09 49.8459C109.8 50.1172 109.464 50.3317 109.088 50.4832C108.713 50.6346 108.311 50.7103 107.889 50.7103C107.237 50.7103 106.664 50.5904 106.17 50.3444C105.676 50.0983 105.267 49.7765 104.938 49.3727C104.615 48.9688 104.365 48.5145 104.2 48.0035C104.035 47.4924 103.95 46.9687 103.95 46.4386C103.95 45.9086 104.035 45.3849 104.2 44.8738C104.365 44.3627 104.615 43.9084 104.938 43.5046C105.267 43.1008 105.676 42.779 106.17 42.5329C106.664 42.2868 107.237 42.167 107.889 42.167C108.785 42.167 109.497 42.3941 110.011 42.8547C110.525 43.3153 110.88 43.9463 111.065 44.7539H112.435V44.735Z" fill="#474747"/>
<path fill-rule="evenodd" clip-rule="evenodd" d="M118.318 41.0501C117.462 41.0501 116.704 41.1953 116.045 41.4855C115.387 41.7758 114.833 42.1607 114.379 42.6465C113.931 43.1323 113.588 43.7002 113.357 44.3627C113.127 45.019 113.008 45.7067 113.008 46.4323C113.008 47.1706 113.127 47.8583 113.357 48.5082C113.588 49.1581 113.931 49.726 114.379 50.2119C114.827 50.6977 115.38 51.0826 116.045 51.3728C116.704 51.6631 117.462 51.8082 118.318 51.8082C119.175 51.8082 119.932 51.6631 120.591 51.3728C121.25 51.0826 121.803 50.6977 122.258 50.2119C122.706 49.726 123.049 49.1581 123.279 48.5082C123.51 47.8583 123.628 47.1643 123.628 46.4323C123.628 45.713 123.51 45.019 123.279 44.3627C123.049 43.7065 122.706 43.1323 122.258 42.6465C121.81 42.1607 121.257 41.7758 120.591 41.4855C119.932 41.1953 119.175 41.0501 118.318 41.0501ZM118.318 42.1543C118.971 42.1543 119.544 42.2742 120.038 42.5203C120.532 42.7664 120.94 43.0882 121.27 43.492C121.593 43.8958 121.843 44.3501 122.008 44.8612C122.172 45.3723 122.258 45.896 122.258 46.426C122.258 46.956 122.172 47.4797 122.008 47.9908C121.843 48.5019 121.593 48.9562 121.27 49.36C120.94 49.7639 120.532 50.0857 120.038 50.3317C119.544 50.5778 118.971 50.6977 118.318 50.6977C117.666 50.6977 117.093 50.5778 116.599 50.3317C116.105 50.0857 115.696 49.7639 115.367 49.36C115.037 48.9562 114.794 48.5019 114.629 47.9908C114.464 47.4797 114.379 46.956 114.379 46.426C114.379 45.896 114.464 45.3723 114.629 44.8612C114.794 44.3501 115.044 43.8958 115.367 43.492C115.696 43.0882 116.105 42.7664 116.599 42.5203C117.093 42.2742 117.666 42.1543 118.318 42.1543Z" fill="#474747"/>
<path fill-rule="evenodd" clip-rule="evenodd" d="M124.881 43.3759C124.696 43.3759 124.524 43.3433 124.358 43.2716C124.193 43.2 124.054 43.1088 123.935 42.985C123.816 42.8677 123.716 42.7244 123.643 42.568C123.571 42.4051 123.538 42.2358 123.538 42.0533C123.538 41.8709 123.571 41.7015 123.643 41.5386C123.716 41.3823 123.809 41.239 123.935 41.1217C124.054 41.0044 124.199 40.9067 124.358 40.8415C124.524 40.7699 124.696 40.7373 124.881 40.7373C125.066 40.7373 125.238 40.7699 125.397 40.8415C125.563 40.9132 125.702 41.0044 125.821 41.1217C125.94 41.239 126.039 41.3823 126.105 41.5386C126.172 41.7015 126.211 41.8709 126.211 42.0533C126.211 42.2358 126.178 42.4051 126.105 42.568C126.039 42.7309 125.94 42.8677 125.821 42.985C125.702 43.1022 125.556 43.2 125.397 43.2716C125.232 43.3433 125.06 43.3759 124.881 43.3759ZM124.881 43.2C125.047 43.2 125.192 43.1739 125.331 43.1088C125.47 43.0501 125.589 42.9719 125.688 42.8677C125.788 42.7635 125.867 42.6462 125.92 42.5029C125.98 42.3661 126.006 42.2097 126.006 42.0533C126.006 41.8905 125.98 41.7406 125.92 41.6038C125.861 41.467 125.788 41.3432 125.688 41.239C125.589 41.1347 125.47 41.0565 125.331 40.9979C125.192 40.9393 125.047 40.9067 124.881 40.9067C124.716 40.9067 124.57 40.9393 124.431 40.9979C124.292 41.0565 124.173 41.1347 124.074 41.239C123.974 41.3432 123.895 41.4605 123.835 41.6038C123.776 41.7406 123.749 41.8905 123.749 42.0533C123.749 42.2162 123.776 42.3661 123.835 42.5029C123.895 42.6397 123.968 42.7635 124.074 42.8677C124.173 42.9719 124.292 43.0501 124.431 43.1088C124.57 43.1674 124.722 43.2 124.881 43.2ZM125.549 42.7895H125.331L124.901 42.112H124.563V42.7895H124.378V41.3171H125.033C125.232 41.3171 125.371 41.3497 125.45 41.4214C125.53 41.493 125.569 41.5843 125.569 41.708C125.569 41.7797 125.556 41.8449 125.536 41.8905C125.51 41.9426 125.477 41.9817 125.437 42.0142C125.397 42.0468 125.344 42.0664 125.285 42.0859C125.225 42.0989 125.166 42.112 125.099 42.112L125.549 42.7895ZM124.848 41.9686C124.901 41.9686 124.954 41.9686 125.02 41.9686C125.08 41.9686 125.139 41.9621 125.192 41.9491C125.245 41.9361 125.291 41.91 125.324 41.8709C125.358 41.8318 125.377 41.7797 125.377 41.7015C125.377 41.6429 125.364 41.5973 125.344 41.5647C125.324 41.5321 125.291 41.5061 125.258 41.4865C125.225 41.467 125.185 41.4605 125.139 41.454C125.093 41.4474 125.047 41.4474 125.007 41.4474H124.577V41.9686H124.855H124.848Z" fill="#474747"/>
<rect x="140" y="33" width="22" height="0.999999" rx="0.5" transform="rotate(90 140 33)" fill="#E2E2E2"/>
<rect x="26" y="77" width="75" height="4" rx="2" fill="#E2E2E2"/>
<rect x="26.5" y="93.5" width="195" height="34" rx="1.5" fill="white" stroke="#E2E2E2"/>
<path d="M36.5213 113.227L36.6545 111.166L34.9286 112.322L34.2148 111.065L36.0739 110.159L34.2148 109.253L34.9286 107.996L36.6545 109.152L36.5213 107.091H37.9542L37.8157 109.152L39.5415 107.996L40.2553 109.253L38.4016 110.159L40.2553 111.065L39.5415 112.322L37.8157 111.166L37.9542 113.227H36.5213Z" fill="#192435"/>
<path d="M44.9881 113.227L45.1213 111.166L43.3954 112.322L42.6816 111.065L44.5407 110.159L42.6816 109.253L43.3954 107.996L45.1213 109.152L44.9881 107.091H46.421L46.2825 109.152L48.0083 107.996L48.7221 109.253L46.8684 110.159L48.7221 111.065L48.0083 112.322L46.2825 111.166L46.421 113.227H44.9881Z" fill="#192435"/>
<path d="M53.4549 113.227L53.5881 111.166L51.8622 112.322L51.1484 111.065L53.0075 110.159L51.1484 109.253L51.8622 107.996L53.5881 109.152L53.4549 107.091H54.8878L54.7493 109.152L56.4751 107.996L57.1889 109.253L55.3352 110.159L57.1889 111.065L56.4751 112.322L54.7493 111.166L54.8878 113.227H53.4549Z" fill="#192435"/>
<path d="M61.9217 113.227L62.0549 111.166L60.329 112.322L59.6152 111.065L61.4743 110.159L59.6152 109.253L60.329 107.996L62.0549 109.152L61.9217 107.091H63.3546L63.2161 109.152L64.9419 107.996L65.6557 109.253L63.802 110.159L65.6557 111.065L64.9419 112.322L63.2161 111.166L63.3546 113.227H61.9217Z" fill="#192435"/>
<path d="M70.3885 113.227L70.5217 111.166L68.7958 112.322L68.082 111.065L69.9411 110.159L68.082 109.253L68.7958 107.996L70.5217 109.152L70.3885 107.091H71.8214L71.6829 109.152L73.4087 107.996L74.1225 109.253L72.2688 110.159L74.1225 111.065L73.4087 112.322L71.6829 111.166L71.8214 113.227H70.3885Z" fill="#192435"/>
<path d="M78.8553 113.227L78.9885 111.166L77.2626 112.322L76.5488 111.065L78.4078 110.159L76.5488 109.253L77.2626 107.996L78.9885 109.152L78.8553 107.091H80.2882L80.1497 109.152L81.8755 107.996L82.5893 109.253L80.7356 110.159L82.5893 111.065L81.8755 112.322L80.1497 111.166L80.2882 113.227H78.8553Z" fill="#192435"/>
<path d="M87.3221 113.227L87.4553 111.166L85.7294 112.322L85.0156 111.065L86.8746 110.159L85.0156 109.253L85.7294 107.996L87.4553 109.152L87.3221 107.091H88.755L88.6165 109.152L90.3423 107.996L91.0561 109.253L89.2024 110.159L91.0561 111.065L90.3423 112.322L88.6165 111.166L88.755 113.227H87.3221Z" fill="#192435"/>
<path d="M95.7889 113.227L95.9221 111.166L94.1962 112.322L93.4824 111.065L95.3414 110.159L93.4824 109.253L94.1962 107.996L95.9221 109.152L95.7889 107.091H97.2218L97.0833 109.152L98.8091 107.996L99.5229 109.253L97.6692 110.159L99.5229 111.065L98.8091 112.322L97.0833 111.166L97.2218 113.227H95.7889Z" fill="#192435"/>
<path d="M104.256 113.227L104.389 111.166L102.663 112.322L101.949 111.065L103.808 110.159L101.949 109.253L102.663 107.996L104.389 109.152L104.256 107.091H105.689L105.55 109.152L107.276 107.996L107.99 109.253L106.136 110.159L107.99 111.065L107.276 112.322L105.55 111.166L105.689 113.227H104.256Z" fill="#192435"/>
<path d="M112.722 113.227L112.856 111.166L111.13 112.322L110.416 111.065L112.275 110.159L110.416 109.253L111.13 107.996L112.856 109.152L112.722 107.091H114.155L114.017 109.152L115.743 107.996L116.456 109.253L114.603 110.159L116.456 111.065L115.743 112.322L114.017 111.166L114.155 113.227H112.722Z" fill="#192435"/>
<path d="M121.189 113.227L121.322 111.166L119.597 112.322L118.883 111.065L120.742 110.159L118.883 109.253L119.597 107.996L121.322 109.152L121.189 107.091H122.622L122.484 109.152L124.21 107.996L124.923 109.253L123.07 110.159L124.923 111.065L124.21 112.322L122.484 111.166L122.622 113.227H121.189Z" fill="#192435"/>
<path d="M129.656 113.227L129.789 111.166L128.063 112.322L127.35 111.065L129.209 110.159L127.35 109.253L128.063 107.996L129.789 109.152L129.656 107.091H131.089L130.95 109.152L132.676 107.996L133.39 109.253L131.536 110.159L133.39 111.065L132.676 112.322L130.95 111.166L131.089 113.227H129.656Z" fill="#192435"/>
<path d="M138.123 113.227L138.256 111.166L136.53 112.322L135.816 111.065L137.675 110.159L135.816 109.253L136.53 107.996L138.256 109.152L138.123 107.091H139.556L139.417 109.152L141.143 107.996L141.857 109.253L140.003 110.159L141.857 111.065L141.143 112.322L139.417 111.166L139.556 113.227H138.123Z" fill="#192435"/>
<path d="M146.59 113.227L146.723 111.166L144.997 112.322L144.283 111.065L146.142 110.159L144.283 109.253L144.997 107.996L146.723 109.152L146.59 107.091H148.023L147.884 109.152L149.61 107.996L150.324 109.253L148.47 110.159L150.324 111.065L149.61 112.322L147.884 111.166L148.023 113.227H146.59Z" fill="#192435"/>
<path d="M155.056 113.227L155.19 111.166L153.464 112.322L152.75 111.065L154.609 110.159L152.75 109.253L153.464 107.996L155.19 109.152L155.056 107.091H156.489L156.351 109.152L158.077 107.996L158.79 109.253L156.937 110.159L158.79 111.065L158.077 112.322L156.351 111.166L156.489 113.227H155.056Z" fill="#192435"/>
<path d="M163.523 113.227L163.656 111.166L161.931 112.322L161.217 111.065L163.076 110.159L161.217 109.253L161.931 107.996L163.656 109.152L163.523 107.091H164.956L164.818 109.152L166.544 107.996L167.257 109.253L165.404 110.159L167.257 111.065L166.544 112.322L164.818 111.166L164.956 113.227H163.523Z" fill="#192435"/>
<path d="M171.99 113.227L172.123 111.166L170.397 112.322L169.684 111.065L171.543 110.159L169.684 109.253L170.397 107.996L172.123 109.152L171.99 107.091H173.423L173.284 109.152L175.01 107.996L175.724 109.253L173.87 110.159L175.724 111.065L175.01 112.322L173.284 111.166L173.423 113.227H171.99Z" fill="#192435"/>
<path d="M180.457 113.227L180.59 111.166L178.864 112.322L178.15 111.065L180.009 110.159L178.15 109.253L178.864 107.996L180.59 109.152L180.457 107.091H181.89L181.751 109.152L183.477 107.996L184.191 109.253L182.337 110.159L184.191 111.065L183.477 112.322L181.751 111.166L181.89 113.227H180.457Z" fill="#192435"/>
<path d="M188.924 113.227L189.057 111.166L187.331 112.322L186.617 111.065L188.476 110.159L186.617 109.253L187.331 107.996L189.057 109.152L188.924 107.091H190.357L190.218 109.152L191.944 107.996L192.658 109.253L190.804 110.159L192.658 111.065L191.944 112.322L190.218 111.166L190.357 113.227H188.924Z" fill="#192435"/>
<path fill-rule="evenodd" clip-rule="evenodd" d="M358.579 47.113C358.238 48.9467 357.59 51.5149 356.442 52.1438C355.664 52.5758 354.472 51.8894 352.652 48.8747C354.477 48.7835 356.427 48.2459 358.161 47.3386C358.301 47.2666 358.44 47.1898 358.579 47.113ZM350.034 48.6683C349.16 49.7148 348.377 50.4252 347.695 50.8909C346.681 51.5773 345.985 51.6829 345.595 51.5485C345.264 51.4285 345.096 50.8669 345.033 50.1612C344.918 48.9179 345.154 47.3674 345.341 46.5033C345.701 46.4553 346.076 46.4073 346.455 46.3689L346.647 46.6377C347.454 47.689 348.646 48.3515 350.034 48.6683Z" fill="#CCCCCC"/>
<path fill-rule="evenodd" clip-rule="evenodd" d="M346.506 46.2551L346.734 46.5734C347.522 47.5995 348.688 48.2505 350.057 48.563L350.229 48.6022L350.116 48.7375C349.237 49.7896 348.447 50.5075 347.755 50.9801C346.734 51.6718 345.999 51.8022 345.56 51.6506L345.558 51.6501C345.347 51.5735 345.207 51.3647 345.112 51.1124C345.016 50.8558 344.957 50.5281 344.925 50.1709C344.809 48.9113 345.047 47.3482 345.235 46.4804L345.251 46.4063L345.326 46.3962C345.687 46.3482 346.063 46.3 346.444 46.2614L346.506 46.2551ZM345.43 46.6003C345.247 47.4727 345.03 48.9588 345.141 50.1512C345.171 50.4996 345.228 50.806 345.314 51.0366C345.402 51.2711 345.511 51.403 345.631 51.4467C345.97 51.5635 346.628 51.4821 347.633 50.8016C348.276 50.3628 349.014 49.7004 349.838 48.7325C348.504 48.3968 347.353 47.7352 346.561 46.7035L346.559 46.7005L346.403 46.4827C346.073 46.5171 345.747 46.5584 345.43 46.6003ZM358.727 46.908L358.685 47.1327C358.514 48.0517 358.265 49.1591 357.914 50.1174C357.738 50.5965 357.536 51.0416 357.303 51.4082C357.07 51.7739 356.803 52.069 356.493 52.2385C356.05 52.4844 355.509 52.3939 354.87 51.8863C354.232 51.3797 353.471 50.4412 352.559 48.9305L352.465 48.7758L352.646 48.7668C354.455 48.6764 356.39 48.1433 358.111 47.2429C358.249 47.1716 358.387 47.0953 358.527 47.0184L358.727 46.908ZM358.43 47.3178C358.357 47.3574 358.284 47.3965 358.211 47.4344C356.52 48.3187 354.626 48.8548 352.837 48.9721C353.703 50.3852 354.418 51.2515 355.004 51.7172C355.61 52.1983 356.054 52.2351 356.389 52.0493C356.654 51.9044 356.898 51.6424 357.121 51.2923C357.342 50.9433 357.539 50.5137 357.711 50.043C358.029 49.1775 358.262 48.1833 358.43 47.3178Z" fill="#CCCCCC"/>
<path fill-rule="evenodd" clip-rule="evenodd" d="M358.646 23.639C358.685 21.8244 358.617 20.3075 358.469 19.045C358.281 17.5041 357.959 16.3184 357.537 15.4207C357.224 14.7582 356.754 14.1198 356.182 13.6061C355.639 13.1117 354.996 12.7181 354.304 12.5068C353.439 12.2428 352.599 12.2956 351.782 12.5452C351.018 12.7757 350.288 13.1789 349.573 13.6493C349.217 13.8798 348.91 14.1006 348.617 14.3118C347.401 15.1807 346.431 15.8767 344.687 15.4063C344.567 15.3727 344.452 15.3151 344.356 15.2335C344.217 15.1135 344.106 14.9502 344.049 14.7582C343.986 14.5518 343.981 14.3118 344.053 14.043C344.125 13.7645 344.289 13.4621 344.553 13.1501L344.587 13.1021C344.683 12.9677 344.803 12.8333 344.942 12.6989C346.114 11.5564 348.453 10.6731 351.114 10.4907C353.795 10.3083 356.773 10.8603 359.175 12.5981C359.636 12.9293 360.073 13.3037 360.486 13.7309C361.461 14.7342 362.21 16.1311 362.6 18.0321C362.936 19.6786 363.003 21.6996 362.715 24.167C362.58 23.9222 362.417 23.7062 362.225 23.5238C361.855 23.1781 361.384 22.9669 360.827 22.9381C360.207 22.9045 359.472 23.1109 358.646 23.639Z" fill="#666666"/>
<path fill-rule="evenodd" clip-rule="evenodd" d="M359.111 12.6856C356.735 10.9663 353.784 10.4173 351.122 10.5985C348.474 10.78 346.164 11.6586 345.017 12.7763C344.882 12.9073 344.766 13.037 344.675 13.1646L344.636 13.2203C344.379 13.5233 344.225 13.8112 344.158 14.0701C344.09 14.3219 344.096 14.5421 344.152 14.727C344.204 14.8987 344.302 15.0446 344.426 15.1515C344.509 15.2216 344.61 15.2723 344.716 15.3022C345.567 15.5318 346.223 15.4757 346.813 15.2599C347.409 15.0421 347.943 14.6605 348.554 14.2241C348.847 14.013 349.156 13.7909 349.514 13.559C350.233 13.0862 350.973 12.6767 351.751 12.442C352.584 12.1874 353.447 12.1322 354.336 12.4036C355.045 12.6202 355.702 13.0228 356.255 13.5261C356.837 14.0493 357.316 14.6993 357.634 15.3747C358.064 16.2859 358.388 17.4837 358.576 19.032C358.72 20.2542 358.788 21.7121 358.758 23.4431C359.53 22.9834 360.229 22.7976 360.833 22.8303C361.416 22.8605 361.91 23.0821 362.299 23.4449C362.425 23.5651 362.54 23.6994 362.642 23.8453C362.889 21.5264 362.813 19.6175 362.494 18.0538C362.108 16.1699 361.367 14.7926 360.409 13.8063C360 13.3838 359.567 13.0132 359.111 12.6856ZM359.238 12.5105C356.811 10.7545 353.806 10.1994 351.107 10.383C348.433 10.5663 346.064 11.4542 344.867 12.6214C344.724 12.759 344.6 12.8983 344.499 13.0394L344.467 13.0842C344.198 13.4037 344.026 13.7189 343.949 14.0155C343.872 14.3012 343.876 14.5617 343.945 14.7895C344.009 15.0017 344.131 15.1823 344.286 15.3154C344.395 15.4082 344.525 15.4731 344.658 15.5104L344.659 15.5106C345.552 15.7514 346.253 15.6947 346.887 15.4628C347.512 15.2345 348.067 14.8375 348.667 14.4083L348.68 14.3997C348.973 14.1885 349.278 13.9689 349.631 13.74C350.343 13.272 351.064 12.8748 351.813 12.6487C352.613 12.4042 353.432 12.3536 354.272 12.6102C354.947 12.8161 355.577 13.2006 356.109 13.6861C356.67 14.1901 357.133 14.8174 357.439 15.4668C357.855 16.3509 358.175 17.5245 358.361 19.0579C358.51 20.3144 358.577 21.8261 358.538 23.6368L358.534 23.839L358.705 23.73C359.518 23.2103 360.23 23.014 360.821 23.046C361.353 23.0735 361.8 23.2742 362.151 23.6024C362.334 23.7765 362.491 23.9833 362.62 24.2191L362.783 24.5153L362.822 24.1796C363.111 21.7039 363.045 19.671 362.705 18.0106C362.313 16.0927 361.555 14.6762 360.564 13.656C360.146 13.224 359.704 12.8454 359.238 12.5105Z" fill="#666666"/>
<path fill-rule="evenodd" clip-rule="evenodd" d="M342.944 14.384C342.079 15.3537 341.373 16.597 340.84 18.0227C339.682 21.1334 339.341 25.1369 339.975 28.9628C340.614 32.8224 342.247 36.5283 345.019 39.0053C346.095 39.9653 347.344 40.743 348.77 41.2759C348.982 41.3575 352.128 42.2407 355.865 39.0293C357.709 37.4403 359.741 34.8337 361.677 30.595L360.351 29.9901C358.516 34.0129 356.624 36.4563 354.919 37.9204C351.792 40.6086 349.433 39.9653 349.279 39.9077C348.03 39.4469 346.94 38.7652 345.999 37.9204C343.491 35.6786 342.012 32.2847 341.421 28.7276C340.825 25.1417 341.138 21.407 342.209 18.5316C342.679 17.2739 343.289 16.1842 344.034 15.3537L342.944 14.384Z" fill="#333333"/>
<path fill-rule="evenodd" clip-rule="evenodd" d="M358.613 24.6759C358.704 22.3909 358.646 20.538 358.464 19.045C358.276 17.5041 357.955 16.3184 357.532 15.4207C357.22 14.7583 356.749 14.1198 356.177 13.6062C355.635 13.1118 354.991 12.7181 354.299 12.5069C353.435 12.2429 352.594 12.2957 351.777 12.5453C351.014 12.7757 350.283 13.179 349.568 13.6494C349.212 13.8798 348.905 14.1006 348.612 14.3119C347.397 15.1807 346.426 15.8768 344.683 15.4063C344.562 15.3727 344.447 15.3151 344.351 15.2335C344.212 15.1135 344.101 14.9503 344.044 14.7583C343.981 14.5519 343.976 14.3119 344.049 14.043C344.121 13.7646 344.284 13.4622 344.548 13.1502L344.582 13.1022C344.678 12.9677 344.798 12.8333 344.937 12.6989C346.109 11.5564 348.449 10.6732 351.11 10.4907C353.79 10.3083 356.768 10.8604 359.17 12.5981C359.631 12.9293 360.068 13.3038 360.481 13.731C361.456 14.7343 362.206 16.1312 362.595 18.0322C362.955 19.8035 363.003 22.0021 362.643 24.7239L362.59 25.1367C362.407 26.5625 362.292 27.4505 361.413 28.6698C361.288 28.8427 361.144 29.0299 360.976 29.2315C360.832 29.4091 360.664 29.6011 360.472 29.8027L360.64 30.4076L361.538 30.7964C361.725 30.5948 361.913 30.3836 362.095 30.158C362.263 29.9563 362.427 29.7451 362.59 29.5195C363.68 28.0026 363.815 26.9753 364.031 25.324L364.084 24.9111C364.468 22.0213 364.41 19.6595 364.017 17.7393C363.57 15.5408 362.681 13.9038 361.519 12.7133C361.048 12.2285 360.544 11.8013 360.015 11.4172C357.306 9.45386 353.982 8.83461 350.999 9.03622C347.997 9.23784 345.307 10.2891 343.904 11.6524C343.722 11.8301 343.559 12.0173 343.414 12.2093C343.001 12.6941 342.747 13.1886 342.622 13.6638C342.478 14.2062 342.497 14.7247 342.636 15.1807C342.78 15.6512 343.049 16.0496 343.395 16.3424C343.659 16.5632 343.967 16.7265 344.293 16.8177C346.705 17.4657 347.92 16.592 349.452 15.4976C349.745 15.2911 350.048 15.0703 350.355 14.8687C350.966 14.4655 351.58 14.1246 352.19 13.9374C352.748 13.7694 353.305 13.731 353.862 13.899C354.333 14.043 354.784 14.3215 355.178 14.6815C355.606 15.0703 355.961 15.5504 356.197 16.04C356.557 16.7985 356.831 17.8353 356.999 19.2131C357.157 20.5332 357.22 22.1461 357.157 24.1095L357.527 24.6279L358.613 24.6759Z" fill="#333333"/>
<path fill-rule="evenodd" clip-rule="evenodd" d="M358.29 25.1271C359.314 24.2247 360.149 23.8742 360.783 23.903C361.101 23.9174 361.36 24.0374 361.566 24.2247C361.787 24.4311 361.946 24.7239 362.042 25.0743C362.297 25.9864 362.104 27.2393 361.384 28.3674C361.201 28.6554 360.894 28.977 360.519 29.2363C360.337 29.3611 360.14 29.4667 359.938 29.5435C359.174 29.8267 359.554 30.6668 360.015 30.542C360.394 30.4364 360.755 30.2588 361.072 30.0427C361.557 29.7115 361.96 29.2795 362.205 28.8954C363.08 27.5273 363.301 25.9768 362.983 24.8199C362.839 24.2967 362.585 23.8454 362.229 23.519C361.859 23.1734 361.389 22.9621 360.832 22.9333C359.952 22.8901 358.848 23.3222 357.58 24.4551C357.128 24.8631 357.676 25.6696 358.29 25.1271Z" fill="#333333"/>
<path fill-rule="evenodd" clip-rule="evenodd" d="M360.044 25.6072C360.188 25.5784 360.313 25.5784 360.418 25.6024C360.539 25.6312 360.635 25.6984 360.692 25.7896C360.759 25.9 360.798 26.0488 360.798 26.2216C360.798 26.5817 360.649 27.0425 360.342 27.5177C360.236 27.681 360.063 27.8682 359.847 28.0122C359.765 28.0698 359.674 28.1226 359.578 28.161C359.064 28.3818 359.232 28.7994 359.645 28.6554C359.813 28.5978 359.977 28.5114 360.121 28.4154C360.39 28.233 360.615 27.993 360.75 27.7818C361.105 27.2249 361.283 26.6729 361.283 26.2216C361.283 25.9528 361.221 25.7128 361.101 25.5256C360.971 25.324 360.779 25.1848 360.524 25.1271C360.375 25.0935 360.202 25.0887 360.005 25.1175C359.366 25.2232 359.439 25.7272 360.044 25.6072Z" fill="#333333"/>
<path fill-rule="evenodd" clip-rule="evenodd" d="M359.545 46.081L359.007 35.1697L357.546 35.2369L358.089 46.1482L359.545 46.081Z" fill="#333333"/>
<path fill-rule="evenodd" clip-rule="evenodd" d="M347.766 46.0233L348.563 40.1717L347.118 39.9749L346.315 45.8265L347.766 46.0233Z" fill="#333333"/>
<path fill-rule="evenodd" clip-rule="evenodd" d="M358.843 45.4856L358.829 45.5672C358.632 46.9017 357.988 51.2941 356.441 52.1437C355.577 52.6238 354.203 51.7261 352.022 47.7802L350.74 48.481C353.454 53.3966 355.558 54.2991 357.143 53.4206C359.328 52.2157 360.054 47.2713 360.275 45.7736L360.289 45.692L358.843 45.4856Z" fill="#333333"/>
<path fill-rule="evenodd" clip-rule="evenodd" d="M344.044 45.6538C343.847 46.3643 343.415 48.5724 343.578 50.2958C343.693 51.5295 344.121 52.5712 345.11 52.9216C345.86 53.1856 347.046 53.0944 348.516 52.0959C349.506 51.4191 350.673 50.3102 351.965 48.5676L350.793 47.6988C349.606 49.2925 348.564 50.2958 347.69 50.891C346.676 51.5775 345.98 51.6831 345.591 51.5487C345.259 51.4287 345.091 50.867 345.029 50.1614C344.885 48.6445 345.274 46.6811 345.447 46.0474L344.044 45.6538Z" fill="#333333"/>
<path fill-rule="evenodd" clip-rule="evenodd" d="M349.274 28.9868C346.887 29.9325 346.046 28.8236 346.08 27.7915C346.118 26.3994 347.425 26.6778 347.161 24.4216C348.294 26.0106 345.739 27.7723 347.266 28.6028C347.593 28.7804 348.112 28.9628 349.274 28.9868Z" fill="#333333"/>
<path fill-rule="evenodd" clip-rule="evenodd" d="M347.997 32.3421C350.788 34.5935 351.801 30.5996 352.291 29.9851C352.152 34.9439 348.348 34.5983 347.997 32.3421Z" fill="#333333"/>
<path fill-rule="evenodd" clip-rule="evenodd" d="M350.178 23.6007C351.662 20.0916 355.601 22.0934 355.615 23.9703C355.428 23.7639 354.602 23.2695 354.131 23.2119C353.968 25.3 351.47 25.7369 350.797 23.5095C350.533 23.4951 350.375 23.4807 350.178 23.6007Z" fill="#333333"/>
<path fill-rule="evenodd" clip-rule="evenodd" d="M341.685 23.4518C343.035 19.8899 347.051 21.7429 347.137 23.6198C346.94 23.423 346.099 22.9574 345.624 22.919C345.542 25.012 343.059 25.54 342.305 23.3414C342.036 23.3318 341.877 23.327 341.685 23.4518Z" fill="#333333"/>
<path fill-rule="evenodd" clip-rule="evenodd" d="M308.555 46.4504C307.767 42.9509 307.969 40.938 308.267 39.4595L308.31 39.2531C308.401 38.7922 308.541 38.2786 308.67 37.7889C308.935 36.7905 309.175 35.888 309.06 35.2303C308.915 34.3999 308.435 33.9726 307.383 34.155C305.678 34.4479 304.861 36.0272 304.174 37.3473C303.809 38.053 303.502 38.6434 303.411 38.629C303.315 38.5954 303.219 38.5522 303.122 38.4994C303.017 38.4418 302.911 38.365 302.796 38.2834C302.594 38.1346 302.263 37.8417 301.854 37.4865C299.544 35.4511 295.005 31.4524 291.849 34.1214C290.974 34.8607 290.513 36.3008 290.998 38.293C291.354 39.7427 292.219 41.5332 293.818 43.5926C293.881 43.6694 294.15 43.967 294.721 44.3943C295.029 44.6199 295.437 44.8983 295.98 45.2199C296.537 45.5512 297.2 45.796 297.997 46.0936C299.193 46.5401 300.721 47.1065 302.508 48.201L303.719 47.0938C301.807 45.9225 299.765 45.1911 298.506 44.7255C297.767 44.4519 297.157 44.2215 296.724 43.967C296.239 43.679 295.869 43.4294 295.591 43.223C295.168 42.911 295.009 42.7477 294.976 42.7045C293.511 40.8132 292.728 39.2195 292.415 37.957C292.074 36.5696 292.305 35.6528 292.79 35.2399C294.981 33.387 298.895 36.8337 300.884 38.5858C301.312 38.9602 301.657 39.2675 301.922 39.4643C302.075 39.5747 302.234 39.6803 302.397 39.7763C302.575 39.8771 302.757 39.9587 302.945 40.0211C304.213 40.434 304.78 39.3395 305.462 38.0242C305.995 36.9969 306.634 35.7728 307.619 35.6C307.628 35.6 307.604 35.4127 307.614 35.4847C307.671 35.8304 307.47 36.5888 307.249 37.4289C307.119 37.9186 306.984 38.4322 306.874 38.9842L306.831 39.1907C306.494 40.8564 306.269 42.9941 307.119 46.7816L308.555 46.4504Z" fill="#333333"/>
<path fill-rule="evenodd" clip-rule="evenodd" d="M305.125 47.3438C304.433 47.6174 304.43 47.0173 303.906 47.3438C302.177 46.3309 299.668 45.143 298.506 44.711C297.766 44.4374 297.156 44.2069 296.724 43.9525C296.239 43.6645 295.869 43.4149 295.59 43.2085C295.168 42.8964 295.009 42.7332 294.975 42.69C294.841 42.5172 294.716 42.3492 294.591 42.1812C293.371 40.5106 292.694 39.0897 292.415 37.9376C292.074 36.5503 292.305 35.6334 292.79 35.2206C293.011 35.0334 293.251 34.899 293.501 34.8126C295.749 34.0445 299.092 36.9871 300.884 38.5665C301.311 38.9409 301.657 39.2481 301.921 39.445C302.075 39.5554 302.234 39.661 302.397 39.757C302.575 39.8578 302.757 39.9394 302.944 40.0018C304.213 40.4146 304.779 39.3201 305.461 38.0048C305.995 36.9775 306.634 35.7534 307.623 35.5806C307.628 35.9599 307.45 36.6511 307.248 37.4096C307.119 37.8992 306.984 38.4129 306.874 38.9649L306.83 39.1713C306.518 40.7315 306.363 43.4629 307.031 46.6984C306.349 46.8808 305.874 47.0509 305.125 47.3438Z" fill="#FEFEFE"/>
<path fill-rule="evenodd" clip-rule="evenodd" d="M351.196 88.2958C350.034 88.0846 348.914 87.6718 347.387 86.9085C346.316 86.3709 345.446 85.8092 344.75 85.2428C344.154 84.7579 343.684 84.2683 343.323 83.7834C343.487 85.3436 343.919 87.0621 344.495 88.7855C345.321 91.2529 346.436 93.7299 347.483 95.8036C347.987 94.4211 348.66 92.957 349.414 91.4977C349.976 90.4128 350.581 89.3327 351.196 88.2958Z" fill="#FF6F3D"/>
<path fill-rule="evenodd" clip-rule="evenodd" d="M342.934 82.7837L343.551 83.6143C343.895 84.0777 344.349 84.5506 344.929 85.0227M342.934 82.7837L343.041 83.8128L342.934 82.7837ZM344.764 88.6953C344.307 87.3282 343.943 85.9705 343.733 84.6986L344.764 88.6953ZM343.733 84.6986C343.982 84.9547 344.26 85.2097 344.571 85.4625L344.571 85.4626C345.286 86.0439 346.173 86.6163 347.26 87.1617L347.26 87.1619C348.631 87.8468 349.689 88.2588 350.75 88.4947C350.202 89.4297 349.665 90.3963 349.162 91.3672L349.162 91.3674C348.514 92.6222 347.924 93.8838 347.447 95.0973C346.492 93.1576 345.509 90.9209 344.764 88.6954M343.041 83.8128C343.208 85.4006 343.646 87.1405 344.226 88.8753L343.041 83.8128ZM344.929 85.0228C345.607 85.5743 346.458 86.1251 347.514 86.6549C349.028 87.4115 350.12 87.8122 351.247 88.0168L351.648 88.0897L351.44 88.4403C350.827 89.4731 350.225 90.5484 349.666 91.6279C348.915 93.0803 348.248 94.5329 347.749 95.9007L347.525 96.5155L347.23 95.9313C346.179 93.8499 345.058 91.3598 344.226 88.8753L344.226 88.8753" fill="#FF6F3D"/>
<path fill-rule="evenodd" clip-rule="evenodd" d="M343.251 82.4104C343.237 84.297 343.746 86.5339 344.495 88.7853C345.321 91.2527 346.436 93.7297 347.483 95.8035C347.987 94.421 348.66 92.9569 349.414 91.4975C350.74 88.9389 352.315 86.3947 353.694 84.3594L354.823 85.1178C353.463 87.1244 351.912 89.6254 350.62 92.1216C349.611 94.0754 348.756 96.0291 348.28 97.7381L347.829 99.3654L347.027 97.8773C345.768 95.5347 344.255 92.376 343.203 89.2222C342.411 86.846 341.873 84.465 341.887 82.4152L343.251 82.4104Z" fill="#333333"/>
<path fill-rule="evenodd" clip-rule="evenodd" d="M336.44 63.1801C334.149 66.3724 330.267 70.0159 326.136 72.5505C322.543 74.7539 318.787 76.1028 315.819 75.5315C315.492 75.4691 314.109 75.0179 311.928 71.5616C309.656 67.9565 306.711 61.2552 303.608 48.8173C304.074 48.6157 304.699 48.4285 305.352 48.2797C306.284 48.0637 307.264 47.9197 307.989 47.8669C308.45 48.9613 308.945 50.2142 309.459 51.5152C311.544 56.81 313.974 62.9881 317.961 67.1884L318.393 67.6445L318.907 67.2845C320.252 66.3484 323.84 62.1096 327.174 58.1637C329.907 54.933 332.467 51.904 333.342 51.2079C334.591 50.2094 336.137 49.1726 338.284 48.2941C340.355 47.4444 342.987 46.7436 346.455 46.3643L346.647 46.6332C347.786 48.1261 349.698 48.8317 351.84 48.8845C353.886 48.9325 356.168 48.3805 358.161 47.3388C358.718 47.0508 359.252 46.7244 359.751 46.3643C362.018 46.8012 365.208 48.2077 368.268 49.9934C371.356 51.7936 374.282 53.9634 375.977 55.9075C376.631 57.6837 377.404 59.6758 378.225 61.8024C382.443 72.6849 388.068 87.1965 386.021 94.7667C386.007 94.8147 385.743 95.1796 384.287 95.3764C383.346 95.5012 381.996 95.4868 380.07 95.1508C378 94.7907 375.233 93.9267 371.659 92.5489C368.042 91.1568 363.618 89.2463 358.272 86.8077L357.667 88.1326C363.051 90.5904 367.504 92.5105 371.135 93.9123C374.81 95.3284 377.668 96.2164 379.83 96.5909C381.914 96.9509 383.413 96.9653 384.489 96.8213C386.804 96.5093 387.395 95.314 387.438 95.1508C389.61 87.1245 383.884 72.3537 379.59 61.2792C378.749 59.1094 377.961 57.0836 377.303 55.2835L377.255 55.1587L377.169 55.0578C375.382 52.9649 372.269 50.6367 369.003 48.7309C365.674 46.7868 362.148 45.2698 359.684 44.8714L359.377 44.8234L359.127 45.0154C358.613 45.4042 358.065 45.7547 357.489 46.0523C355.707 46.9788 353.684 47.478 351.874 47.43C350.159 47.3868 348.66 46.8588 347.81 45.7499C347.69 45.5915 347.584 45.4283 347.493 45.2554L347.262 44.8186L346.772 44.8666C342.92 45.2458 340.009 46.0091 337.732 46.9452C335.436 47.8861 333.774 48.9997 332.434 50.0702C331.43 50.8719 328.831 53.9442 326.06 57.2228C323.158 60.6551 320.055 64.3226 318.561 65.6811C315.04 61.6968 312.773 55.9411 310.823 50.9823C310.256 49.5374 309.713 48.1597 309.137 46.83L308.945 46.3883H308.464C307.643 46.3931 306.284 46.5659 305.035 46.854C303.988 47.0988 302.989 47.43 302.374 47.8237L301.937 48.1069L302.061 48.6109C305.261 61.5864 308.335 68.5758 310.703 72.3393C313.201 76.3044 315.098 76.8804 315.554 76.9669C318.917 77.6149 323.029 76.17 326.905 73.7938C331.233 71.1392 335.311 67.2989 337.698 63.9338C338.51 62.7913 337.305 61.98 336.44 63.1801Z" fill="#333333"/>
<path fill-rule="evenodd" clip-rule="evenodd" d="M377.38 55.3849L377.285 55.1252L379.619 61.2555L379.384 60.6484L379.384 60.6471C378.65 58.747 377.966 56.9776 377.38 55.3849ZM379.634 61.295L379.619 61.2571L377.017 58.6756C377.326 59.4844 377.65 60.3228 377.984 61.1852L377.985 61.1883L378.22 61.7975L378.223 61.8041C382.44 72.6859 388.062 87.1932 386.016 94.7619C386.002 94.8099 385.738 95.1747 384.282 95.3715C383.341 95.4963 381.991 95.4819 380.065 95.1459C377.994 94.7859 375.228 93.9218 371.654 92.5441C371.493 92.4821 371.331 92.419 371.166 92.3549C370.896 92.2494 370.622 92.1411 370.343 92.03C367.534 90.9116 364.278 89.5111 360.528 87.8241C360.028 87.5991 359.519 87.3691 359.002 87.134L359.046 87.101C359.463 86.786 359.85 86.4264 360.206 86.033C360.33 85.8952 360.451 85.7532 360.567 85.6075C360.904 85.1867 361.205 84.7386 361.473 84.2676L361.495 84.2298C361.581 84.2564 361.67 84.2831 361.76 84.31L361.88 84.3455C363.676 84.8732 366.075 85.4382 368.524 85.9203C368.96 86.0061 369.398 86.0893 369.833 86.1692C370.036 86.2067 370.239 86.2435 370.441 86.2795C372.415 86.6317 374.332 86.9103 375.898 87.0544C376.128 87.0756 376.35 87.0938 376.564 87.109C376.708 87.1192 376.848 87.128 376.984 87.1353L377.072 87.1399L377.093 87.141L377.149 87.1436C378.286 87.1957 378.456 85.7821 377.217 85.6829C377.2 85.6815 377.181 85.6804 377.164 85.6795C377.131 85.6775 377.098 85.6756 377.065 85.6739L377.004 85.6707C376.902 85.6654 376.8 85.6601 376.693 85.6507C376.683 85.6384 376.673 85.6255 376.662 85.6122C376.062 84.847 374.631 82.4471 373.215 79.871C371.878 77.4336 370.569 74.8635 370.007 73.3807C370 73.3605 369.992 73.3406 369.985 73.3208C369.979 73.3055 369.973 73.2903 369.968 73.2753C370.015 71.0229 370.127 68.7427 370.3 66.43L370.309 66.3147L370.311 66.2911L370.311 66.2885C370.373 65.183 368.944 64.961 368.853 66.1803L368.852 66.203L368.852 66.2046L368.839 66.3681C368.667 68.6736 368.557 70.964 368.51 73.2447C368.507 73.375 368.504 73.5053 368.502 73.6356C368.491 74.2858 368.485 74.9354 368.484 75.5843C368.48 78.0648 368.554 80.516 368.701 82.9432C368.732 83.4452 368.765 83.9462 368.802 84.4462L368.805 84.4938C368.29 84.3923 367.78 84.2857 367.279 84.176C365.363 83.7565 363.581 83.2899 362.187 82.8752C362.101 82.8623 362.013 82.847 361.923 82.8293C361.558 82.7571 361.165 82.6449 360.751 82.4957C357.662 81.3826 353.372 78.2089 350.046 74.2082C348.603 72.4724 347.342 70.581 346.44 68.6346C346.363 68.4674 346.288 68.2998 346.216 68.1318C346.051 67.7485 345.901 67.3634 345.766 66.9773C345.901 66.2246 346.077 65.2391 346.27 64.1459C346.387 63.488 346.51 62.7911 346.634 62.0824C346.875 60.7064 347.122 59.2861 347.338 58.0212C347.651 56.1833 347.897 54.6735 347.962 54.1042C347.978 53.9719 347.983 53.8903 347.978 53.8673C347.877 53.4449 347.781 53.0176 347.689 52.5808C347.648 52.6013 347.606 52.6211 347.565 52.6401L347.583 52.603C347.602 52.5625 347.621 52.5221 347.641 52.482C347.995 51.7473 348.383 51.0921 348.8 50.5599C349.091 50.1882 349.396 49.8765 349.716 49.6396C349.74 49.6218 349.764 49.6043 349.788 49.5873C350.211 49.2905 350.657 49.1252 351.125 49.1252C352.437 52.9216 356.254 53.9201 357.147 53.4257C358.66 52.5903 359.404 49.7556 359.805 47.6342C359.912 47.067 359.994 46.5507 360.06 46.1373L360.062 46.1252C360.543 46.3109 361.018 46.4986 361.491 46.691C363.722 47.5994 365.892 48.6108 368.263 49.9934L376.022 56.0389C376.006 55.9934 375.989 55.9479 375.972 55.9027C374.277 53.9585 371.351 51.7887 368.263 49.9934L369.018 48.6976L369.017 48.6971C366.054 46.9689 363.398 45.806 360.603 44.726L358.874 44.0579L358.581 45.8885C358.423 46.8767 358.189 48.3344 357.776 49.6656C357.57 50.3297 357.335 50.9091 357.074 51.3568C356.861 51.7216 356.671 51.9307 356.526 52.043C356.465 52.0421 356.376 52.0356 356.259 52.0163C355.93 51.9619 355.485 51.8226 355.004 51.5638C354.054 51.0518 353.058 50.1253 352.542 48.6351L352.193 47.6252H351.125C349.324 47.6252 348.028 48.9652 347.18 50.2448C346.932 50.62 346.697 51.0265 346.476 51.4559C345.995 51.6004 345.71 51.5449 345.609 51.5089L345.606 51.5077C345.528 51.4802 345.44 51.4275 345.337 51.2343C345.219 51.0131 345.115 50.6587 345.066 50.1526C344.975 49.1827 345.111 47.9533 345.28 47.0016L345.657 44.8849L343.54 45.262C341.234 45.6728 339.326 46.2433 337.713 46.9001L337.711 46.9009C335.405 47.8447 333.736 48.9637 332.401 50.0309C331.833 50.4834 330.875 51.5364 329.82 52.7433C328.739 53.9802 327.435 55.5221 326.096 57.1041L326.024 57.1901L326.01 57.2064C324.344 59.1759 322.631 61.2007 321.168 62.8507C320.434 63.6781 319.773 64.3992 319.22 64.9654C318.961 65.2299 318.74 65.4459 318.556 65.6168C315.094 61.6837 312.867 56.0857 310.849 50.9608L310.849 50.9591L310.67 50.5073C310.222 49.3722 309.784 48.2613 309.364 47.2745L308.947 46.295L307.885 46.3653C307.064 46.4196 306.008 46.5828 305.01 46.8132L305.003 46.8147C304.318 46.9758 303.594 47.1821 303.007 47.4358L301.839 47.9412L302.148 49.176C305.273 61.6888 308.26 68.5591 310.654 72.3565C312.92 75.9555 314.601 76.8234 315.533 77.0002C319.079 77.6815 323.249 76.0698 326.915 73.8248L326.916 73.8242C329.086 72.4925 331.191 70.8685 333.055 69.1521L333.039 69.5194L333.038 69.5334C332.888 74.0119 332.922 83.0187 333.39 91.5272C333.708 97.2956 334.221 102.92 335.025 106.723L335.165 107.385L335.755 107.719C341.112 110.743 347.122 112.056 352.995 112.308C360.382 112.624 367.654 111.277 373.387 109.47L374.765 109.036L374.383 107.643C373.727 105.25 373.148 102.885 372.64 100.536C372.173 98.3775 371.769 96.2189 371.428 94.0639C374.881 95.3835 377.655 96.2493 379.808 96.6237C381.835 96.9774 383.345 97.0089 384.479 96.8585L384.483 96.858C385.309 96.7463 385.907 96.5736 386.347 96.3591C386.57 96.2506 386.77 96.1226 386.94 95.9708C387.025 95.8953 387.111 95.8073 387.188 95.7055C387.241 95.6375 387.374 95.4563 387.453 95.1931L387.459 95.1733L387.464 95.1533C388.046 92.9998 388.06 90.4587 387.744 87.7725C387.426 85.0706 386.762 82.1239 385.911 79.1138C384.214 73.1136 381.734 66.7143 379.634 61.295ZM347.565 52.6401C347.084 52.8635 346.643 52.9849 346.251 53.0299C346.075 53.0501 345.91 53.0549 345.754 53.0466C345.512 53.0338 345.295 52.9892 345.105 52.9216C344.116 52.5712 343.693 51.5295 343.573 50.2958C343.513 49.6629 343.533 48.967 343.593 48.3035C343.643 47.7389 343.722 47.1977 343.803 46.7387C343.255 46.8364 342.732 46.9432 342.232 47.058C340.716 47.406 339.413 47.8272 338.279 48.2892C336.132 49.1677 334.585 50.2046 333.337 51.2031C332.469 51.8934 329.944 54.8787 327.236 58.0795L327.147 58.1844C323.82 62.1183 320.244 66.3455 318.902 67.2796L318.388 67.6396L317.956 67.1836C313.974 62.9832 311.538 56.8051 309.454 51.5103L309.275 51.0579C308.826 49.9197 308.395 48.829 307.984 47.862C307.258 47.91 306.283 48.0588 305.347 48.2748C304.693 48.4284 304.069 48.6109 303.603 48.8125C306.711 61.2551 309.651 67.9516 311.923 71.5567C314.099 75.013 315.482 75.4643 315.813 75.5267C318.782 76.0979 322.534 74.749 326.131 72.5456C328.674 70.9858 331.121 69.0078 333.162 66.9719C333.306 66.8282 333.448 66.6842 333.588 66.54C334.687 65.4079 335.653 64.2659 336.435 63.1753C336.444 63.1623 336.453 63.1496 336.463 63.1372C336.476 63.1194 336.49 63.102 336.503 63.0852L336.504 63.0838C337.362 62.0135 338.483 62.812 337.689 63.9289L337.619 64.0253L337.611 64.0372C336.789 65.1761 335.779 66.3714 334.634 67.5532L334.585 68.4653L334.537 69.5838C334.389 74.0145 334.422 82.9769 334.888 91.4448C335.205 97.2053 335.714 102.731 336.492 106.412C341.594 109.293 347.358 110.565 353.06 110.81C360.236 111.117 367.331 109.806 372.936 108.04C372.274 105.62 371.688 103.23 371.174 100.854C370.639 98.3786 370.185 95.9036 369.812 93.4333L369.805 93.3842C368.423 92.8351 366.902 92.1441 365.276 91.4053C363.139 90.4348 360.821 89.3817 358.399 88.4598L358.334 88.4349C357.794 88.2301 357.187 87.7607 356.538 87.0965C354.095 84.597 351.06 79.3393 348.791 75.0445C346.871 71.4101 345.5 68.4653 345.5 68.4653C345.5 68.4653 345.603 67.894 345.766 66.9773C345.458 66.0914 345.232 65.2001 345.105 64.3127C345.026 63.7617 345.043 62.9076 345.147 61.8791C345.269 60.6655 345.514 59.2091 345.867 57.7213C346.128 56.6219 346.449 55.5054 346.823 54.457C346.864 54.3432 346.905 54.2302 346.947 54.1181L346.949 54.1129C347.142 53.5992 347.347 53.1048 347.565 52.6401ZM357.622 86.0595C357.667 86.1057 357.711 86.1499 357.754 86.1922L358.107 85.9302C358.574 85.5831 359.006 85.1574 359.396 84.6701C359.612 84.4009 359.812 84.1158 359.997 83.8155C358.957 83.4159 357.86 82.8407 356.769 82.1549C355.468 81.3372 354.115 80.3238 352.794 79.1653C353.769 80.8254 354.773 82.4161 355.735 83.7509C356.413 84.692 357.05 85.4762 357.622 86.0595ZM374.712 85.4171C373.385 85.2538 371.877 85.0176 370.327 84.7348L370.301 84.3836C370.121 81.9344 370.015 79.4619 369.99 76.9601C370.569 78.122 371.238 79.3854 371.9 80.5923L371.901 80.5937C372.628 81.9173 373.362 83.1991 373.99 84.2457C374.243 84.6662 374.487 85.0636 374.712 85.4171Z" fill="#333333"/>
<path fill-rule="evenodd" clip-rule="evenodd" d="M375.972 55.9027C376.625 57.6789 377.399 59.671 378.22 61.7976C382.438 72.6801 388.063 87.1917 386.016 94.7619C386.002 94.8099 385.738 95.1748 384.282 95.3716C383.341 95.4964 381.991 95.482 380.065 95.146C377.994 94.7859 375.228 93.9219 371.654 92.5441C368.205 91.2144 364.021 89.4143 359.002 87.1341C359.583 86.702 360.106 86.1836 360.567 85.6076C360.913 85.1755 361.221 84.7147 361.495 84.2299C363.627 84.8827 366.769 85.6076 369.833 86.1692C372.586 86.6781 375.285 87.0573 377.149 87.1437C378.302 87.1965 378.46 85.742 377.163 85.6796C377.01 85.67 376.856 85.6652 376.693 85.6508C376.112 84.9307 374.656 82.4921 373.215 79.8711C371.846 77.3749 370.506 74.7395 369.968 73.2754C370.016 70.9856 370.131 68.667 370.309 66.3148C370.395 65.1867 368.945 64.9515 368.853 66.1804C368.613 69.339 368.488 72.4689 368.484 75.5843C368.479 78.5942 368.589 81.5608 368.805 84.4939C366.322 84.0042 363.945 83.3985 362.187 82.8752C357.147 82.1252 346.353 73.0351 345.105 64.3127C344.672 61.2877 347.114 49.1252 351.125 49.1252C352.437 52.9217 356.254 53.9202 357.147 53.4257C359.069 52.3648 359.75 48.079 360.062 46.1252C362.812 47.1877 365.39 48.3181 368.263 49.9934C371.351 51.7888 374.277 53.9586 375.972 55.9027ZM345.5 68.4654C345.5 68.4654 348.064 54.2226 347.978 53.8674C347.877 53.4449 347.781 53.0177 347.689 52.5808C346.599 53.1185 345.71 53.1377 345.105 52.9217C344.116 52.5712 343.693 51.5296 343.573 50.2959C343.462 49.1246 343.626 47.7373 343.803 46.7388C341.594 47.1324 339.788 47.6748 338.279 48.2893C336.132 49.1678 334.585 50.2047 333.337 51.2031C332.462 51.8992 329.902 54.9282 327.169 58.1589C323.835 62.1 320.247 66.3436 318.902 67.2797L318.388 67.6397L317.956 67.1836C313.974 62.9833 311.538 56.8052 309.454 51.5104C308.94 50.2095 308.45 48.9565 307.984 47.8621C307.258 47.9101 306.283 48.0589 305.347 48.2749C304.693 48.4285 304.069 48.6109 303.603 48.8125C306.711 61.2552 309.651 67.9517 311.923 71.5568C314.099 75.0131 315.482 75.4643 315.813 75.5267C318.782 76.098 322.534 74.7491 326.131 72.5457C330.262 70.0111 334.144 66.3724 336.435 63.1753C337.299 61.9704 338.505 62.7817 337.688 63.929C336.853 65.1003 335.815 66.334 334.633 67.5533L334.585 68.4654L334.537 69.5838C334.388 74.0146 334.422 82.977 334.888 91.4448C335.205 97.2053 335.714 102.731 336.492 106.412C341.594 109.293 347.358 110.565 353.06 110.81C360.236 111.117 367.331 109.806 372.936 108.04C372.274 105.62 371.688 103.23 371.174 100.854C370.636 98.3622 370.179 95.8708 369.805 93.3842C366.591 92.1073 362.625 90.0627 358.334 88.435C354.043 86.8072 345.5 68.4654 345.5 68.4654Z" fill="#EFEFEF"/>
<path fill-rule="evenodd" clip-rule="evenodd" d="M368.853 66.1803C368.613 69.339 368.488 72.4688 368.483 75.5843C368.479 78.9301 368.613 82.2184 368.882 85.4683L370.342 85.3483C370.073 82.0984 369.939 78.8485 369.944 75.5843C369.949 72.5504 370.069 69.4686 370.314 66.3195C370.395 65.1914 368.945 64.9514 368.853 66.1803ZM369.756 93.0433L371.202 92.8321C371.587 95.4051 372.052 97.9781 372.61 100.561C373.167 103.153 373.811 105.745 374.536 108.337L374.723 109.009L374.06 109.225C368.219 111.146 360.668 112.605 353.002 112.278C346.973 112.019 340.878 110.651 335.484 107.526L335.21 107.368L335.138 107.051C334.297 103.283 333.754 97.5221 333.428 91.5264C332.962 83.0249 332.923 74.0145 333.077 69.5454L333.125 68.4029L333.188 67.2028L334.648 67.294L334.585 68.4701L334.537 69.5886C334.388 74.0193 334.422 82.9817 334.888 91.4496C335.205 97.21 335.714 102.735 336.492 106.417C341.594 109.297 347.358 110.57 353.06 110.814C360.236 111.122 367.331 109.811 372.936 108.045C372.273 105.625 371.687 103.235 371.173 100.858C370.621 98.2517 370.145 95.6499 369.756 93.0433Z" fill="#333333"/>
<path fill-rule="evenodd" clip-rule="evenodd" d="M382.971 236.57C381.827 237.862 380.377 239.249 378.888 240.67C376.476 242.974 373.969 245.369 372.715 247.419C371.774 248.96 371.601 250.295 372.936 251.173C373.748 251.274 376.649 250.05 380.012 248.351C383.773 246.45 388.009 243.953 390.608 241.98C390.627 241.961 390.68 241.923 390.699 241.913C390.752 241.875 390.839 241.817 390.94 241.731C391.478 241.265 392.328 240.003 389.695 236.945L390.805 235.994C394.302 240.06 392.789 242.062 391.886 242.84C391.756 242.95 391.626 243.041 391.54 243.104L391.473 243.152C388.792 245.182 384.484 247.726 380.67 249.651C376.899 251.557 373.513 252.873 372.446 252.56L372.355 252.536L372.273 252.484C369.9 251.039 370.049 248.984 371.471 246.661C372.826 244.448 375.4 241.985 377.884 239.614C379.354 238.207 380.79 236.839 381.88 235.605L382.971 236.57Z" fill="#333333"/>
<path fill-rule="evenodd" clip-rule="evenodd" d="M342.026 235.615C340.551 236.22 338.755 236.839 336.92 237.468C333.231 238.731 329.383 240.051 327.174 241.664C325.214 243.099 324.455 244.741 325.906 246.714L325.963 246.791L326.04 246.853C326.919 247.559 331.276 247.674 336.19 247.371C340.945 247.079 346.306 246.435 349.476 245.595L349.553 245.576C350.288 245.413 353.252 244.736 351.835 239.523C351.782 239.331 351.398 238.486 351.042 237.689C350.749 237.041 350.471 236.422 350.437 236.326L349.049 236.782C349.097 236.931 349.395 237.593 349.712 238.289C350.048 239.038 350.408 239.83 350.427 239.902C351.446 243.656 349.673 244.054 349.236 244.15L349.13 244.174C346.051 244.99 340.792 245.619 336.108 245.907C331.655 246.181 327.798 246.176 327.025 245.749C326.309 244.678 326.833 243.718 328.048 242.83C330.07 241.352 333.812 240.07 337.405 238.836C339.23 238.212 341.022 237.598 342.593 236.95L342.026 235.615Z" fill="#333333"/>
<path fill-rule="evenodd" clip-rule="evenodd" d="M378.888 240.67C376.477 242.974 373.969 245.369 372.716 247.419C371.774 248.96 371.601 250.295 372.937 251.173C373.748 251.274 376.65 250.05 380.012 248.35C383.773 246.45 388.01 243.953 390.609 241.98C390.628 241.961 390.681 241.923 390.7 241.913C390.753 241.875 390.839 241.817 390.94 241.731C391.233 241.481 391.612 241.001 391.488 240.132C391.396 239.47 391.007 238.577 390.061 237.386C389.076 237.814 387.832 237.996 386.588 237.962C385.137 237.924 383.648 237.598 382.563 237.026C381.66 238.01 380.598 239.038 379.498 240.094C379.292 240.286 379.09 240.478 378.888 240.67Z" fill="#FEFEFE"/>
<path fill-rule="evenodd" clip-rule="evenodd" d="M350.418 239.907C350.442 239.993 350.466 240.079 350.485 240.166C351.354 243.68 349.654 244.064 349.226 244.16L349.121 244.184C346.042 245 340.782 245.629 336.098 245.917C331.646 246.19 327.788 246.185 327.015 245.758C326.299 244.688 326.823 243.728 328.038 242.84C329.268 241.937 331.141 241.111 333.226 240.324C334.566 239.82 335.988 239.331 337.395 238.85C339.029 238.289 340.633 237.742 342.079 237.166C342.977 237.756 344.365 238.366 345.96 238.471C347.065 238.543 348.271 238.375 349.476 237.794C349.548 237.953 349.625 238.126 349.702 238.294C350.038 239.042 350.394 239.835 350.418 239.907Z" fill="#FEFEFE"/>
<path fill-rule="evenodd" clip-rule="evenodd" d="M371.159 110.099C374.546 121.174 378.331 141.177 381.645 163.796C386.425 187.093 389.504 213.332 389.46 235.562C388.581 236.047 387.299 236.33 386.021 236.359C384.753 236.388 383.523 236.177 382.74 235.682C381.64 231.496 377.207 213.519 371.25 192.666C366.226 175.068 359.621 155.952 356.153 142.545L354.765 137.481C354.679 150.072 353.833 163.297 353.286 171.875C353.122 174.458 352.983 176.618 352.896 178.265C352.892 178.375 352.896 178.798 352.906 179.503C352.988 185.614 353.353 213.629 349.015 236.388C347.997 236.921 346.974 237.074 346.042 237.017C344.774 236.935 343.664 236.46 342.939 235.989C342.857 229.408 342.636 219.951 342.017 209.87C341.382 199.564 340.321 188.571 338.553 179.254C338.409 178.495 335.748 163.239 335.594 142.603C335.517 132.291 336.07 120.636 337.876 108.774C342.646 111.016 347.848 112.048 352.997 112.274C359.453 112.552 365.823 111.563 371.159 110.099Z" fill="#404040"/>
<path fill-rule="evenodd" clip-rule="evenodd" d="M337.791 108.615L337.922 108.677C342.676 110.911 347.864 111.941 353.002 112.166C359.444 112.444 365.803 111.457 371.131 109.995L371.232 109.967L371.263 110.068C374.652 121.15 378.437 141.159 381.752 163.778C386.532 187.079 389.612 213.324 389.569 235.562L389.568 235.626L389.513 235.657C388.614 236.153 387.313 236.438 386.024 236.467C384.747 236.496 383.492 236.285 382.683 235.774L382.647 235.751L382.636 235.71C382.432 234.932 382.112 233.678 381.689 232.018C379.836 224.743 375.996 209.673 371.147 192.696C368.882 184.764 366.297 176.525 363.822 168.637C363.551 167.776 363.282 166.919 363.015 166.066C360.303 157.413 357.784 149.28 356.049 142.573C356.049 142.573 356.049 142.573 356.049 142.573L354.867 138.26C354.752 150.598 353.933 163.437 353.396 171.839L353.393 171.882C353.393 171.882 353.393 171.882 353.393 171.882M353.004 178.27C353 178.377 353.004 178.794 353.014 179.502C353.096 185.612 353.461 213.637 349.121 236.408L349.112 236.459L349.065 236.484C348.027 237.027 346.984 237.183 346.035 237.125C344.745 237.042 343.618 236.559 342.88 236.08L342.832 236.049L342.831 235.991C342.749 229.411 342.528 219.956 341.909 209.877C341.275 199.573 340.214 188.585 338.447 179.274C338.302 178.511 335.64 163.248 335.486 142.603C335.41 132.288 335.962 120.627 337.769 108.758L337.791 108.615M353.004 178.27C353.081 176.82 353.198 174.973 353.336 172.789C353.355 172.493 353.374 172.19 353.393 171.882M337.961 108.933C336.173 120.739 335.626 132.336 335.702 142.602C335.856 163.231 338.516 178.48 338.659 179.233C340.428 188.558 341.49 199.556 342.124 209.864C342.742 219.917 342.964 229.35 343.046 235.93C343.759 236.382 344.83 236.831 346.049 236.909C346.95 236.965 347.936 236.819 348.919 236.316C353.244 213.579 352.88 185.612 352.798 179.505C352.789 178.802 352.784 178.375 352.789 178.26C352.865 176.809 352.982 174.959 353.12 172.775C353.139 172.479 353.158 172.177 353.178 171.869L353.18 171.827C353.728 163.247 354.571 150.047 354.657 137.48L354.662 136.698L356.258 142.518C357.991 149.219 360.508 157.347 363.221 166.002C363.489 166.854 363.758 167.712 364.028 168.573C366.503 176.46 369.089 184.702 371.354 192.636C376.205 209.618 380.046 224.693 381.899 231.966C382.314 233.596 382.629 234.833 382.834 235.613C383.592 236.075 384.779 236.279 386.019 236.251C387.258 236.223 388.495 235.954 389.353 235.498C389.39 213.29 386.313 187.086 381.54 163.818L381.538 163.812C378.234 141.261 374.463 121.317 371.087 110.231C365.762 111.682 359.421 112.659 352.993 112.382C347.88 112.158 342.711 111.14 337.961 108.933Z" fill="#404040"/>
<path fill-rule="evenodd" clip-rule="evenodd" d="M354.769 137.337C354.688 149.971 353.838 163.264 353.29 171.875C353.127 174.458 352.987 176.618 352.901 178.265C352.896 178.375 352.901 178.798 352.91 179.503C352.992 185.614 353.357 213.629 349.02 236.388C348.001 236.921 346.978 237.074 346.046 237.017C344.778 236.935 343.669 236.46 342.943 235.989C342.862 229.408 342.641 219.951 342.021 209.871C341.387 199.564 340.325 188.571 338.558 179.254C338.414 178.495 335.752 163.24 335.599 142.603C335.522 132.003 336.103 119.993 338.034 107.795L336.593 107.569C334.652 119.844 334.066 131.941 334.143 142.603C334.297 163.379 336.977 178.75 337.121 179.513C338.88 188.763 339.931 199.694 340.566 209.947C341.2 220.235 341.416 229.821 341.493 236.378L341.497 236.738L341.786 236.954C342.655 237.602 344.178 238.351 345.96 238.466C347.242 238.548 348.655 238.308 350.052 237.482L350.336 237.314L350.398 236.993C354.827 214.042 354.452 185.648 354.376 179.479C354.366 178.826 354.361 178.428 354.366 178.332C354.448 176.777 354.587 174.583 354.755 171.962C355.235 164.464 355.941 153.427 356.167 142.339L354.769 137.337Z" fill="#333333"/>
<path fill-rule="evenodd" clip-rule="evenodd" d="M346.364 123.367C347.295 124.203 348.347 124.947 349.515 125.494C350.72 126.056 352.056 126.416 353.506 126.459L354.097 126.478L354.164 127.059C356.057 143.284 361.182 159.366 367.235 178.342C372.403 194.553 378.244 212.876 383.331 235.212C384.234 235.62 385.214 235.721 386.17 235.654C387.083 235.586 387.981 235.361 388.769 235.087C388.601 228.467 388.221 218.454 387.366 207.816C386.761 200.265 385.92 192.421 384.748 185.302C384.585 184.318 384.426 183.382 384.263 182.489C384.1 181.587 383.927 180.699 383.754 179.83C383.614 179.148 383.432 178.289 383.249 177.454C382.769 175.231 382.327 173.196 382.077 170.661C381.909 168.947 381.722 167.181 381.52 165.381C381.314 163.532 381.097 161.761 380.881 160.057C379.68 150.711 378.143 141.638 376.409 133.299C374.608 124.649 372.591 116.805 370.511 110.296L371.803 109.888C373.897 116.455 375.929 124.342 377.735 133.026C379.479 141.379 381.021 150.49 382.226 159.889C382.462 161.723 382.678 163.508 382.875 165.232C383.067 166.945 383.254 168.712 383.432 170.531C383.667 172.951 384.104 174.967 384.58 177.161C384.729 177.852 384.883 178.567 385.084 179.561C385.262 180.439 385.435 181.337 385.598 182.244C385.771 183.209 385.939 184.15 386.088 185.077C387.265 192.258 388.115 200.135 388.721 207.706C389.595 218.583 390.632 229.327 390.796 235.985L390.805 236.465L390.354 236.638C388.173 237.463 383.586 237.977 381.938 235.908L381.871 235.601C376.774 213.159 371.121 195.004 365.938 178.745C359.933 159.908 354.837 143.918 352.877 127.774C351.45 127.659 350.139 127.275 348.933 126.713C347.608 126.094 346.421 125.254 345.388 124.313C344.471 123.478 345.446 122.542 346.364 123.367Z" fill="#333333"/>
<path fill-rule="evenodd" clip-rule="evenodd" d="M351.868 47.425C353.674 47.4682 355.702 46.9737 357.484 46.0472C357.681 45.9464 357.873 45.836 358.065 45.7208L357.642 37.2241C357.037 37.9394 356.441 38.5346 355.865 39.0291C352.123 42.2453 348.981 41.3573 348.77 41.2757C348.655 41.2324 348.54 41.1892 348.429 41.1412L347.8 45.7352C347.8 45.7352 347.8 45.74 347.805 45.74C348.655 46.8537 350.154 47.3865 351.868 47.425Z" fill="#FEFEFE"/>
<path fill-rule="evenodd" clip-rule="evenodd" d="M350.178 23.6007C351.662 20.0916 355.601 22.0934 355.615 23.9703C355.428 23.7639 354.602 23.2694 354.131 23.2118C353.968 25.3 351.47 25.7369 350.797 23.5095C350.528 23.4951 350.375 23.4807 350.178 23.6007ZM349.28 39.9076C349.433 39.9652 351.792 40.6085 354.919 37.9203C356.552 36.5185 358.353 34.224 360.107 30.5132C360.078 30.5228 360.044 30.5324 360.015 30.5421C359.554 30.6669 359.175 29.8316 359.938 29.5436C360.14 29.4668 360.342 29.3612 360.52 29.2363C360.899 28.9771 361.202 28.6555 361.384 28.3675C362.105 27.2394 362.292 25.9865 362.042 25.0744C361.946 24.724 361.783 24.4263 361.567 24.2247C361.365 24.0327 361.101 23.9175 360.784 23.9031C360.15 23.8743 359.309 24.2199 358.291 25.1272C357.724 25.6312 357.22 24.9832 357.494 24.5608L357.176 24.1143C357.239 22.151 357.176 20.538 357.018 19.2179C356.85 17.8402 356.576 16.8033 356.216 16.0449C355.985 15.5552 355.63 15.0752 355.197 14.6863C354.804 14.3263 354.352 14.0479 353.881 13.9039C353.324 13.7311 352.762 13.7743 352.21 13.9423C351.6 14.1295 350.985 14.4703 350.375 14.8736C350.067 15.0752 349.765 15.2912 349.472 15.5024C347.944 16.5969 346.729 17.4658 344.313 16.8225C343.986 16.7361 343.679 16.5729 343.415 16.3473C343.386 16.3233 343.357 16.2993 343.333 16.2753C342.896 16.9377 342.521 17.701 342.204 18.5411C341.133 21.4213 340.821 25.1512 341.416 28.7371C342.007 32.2942 343.487 35.6881 345.994 37.9299C346.94 38.7651 348.031 39.4468 349.28 39.9076ZM360.044 25.6072C359.439 25.7273 359.372 25.2232 360.006 25.1176C360.198 25.0888 360.371 25.0888 360.525 25.1272C360.779 25.1848 360.971 25.324 361.101 25.5256C361.221 25.7129 361.283 25.9529 361.283 26.2217C361.283 26.6681 361.111 27.225 360.75 27.7818C360.616 27.993 360.39 28.2331 360.121 28.4155C359.977 28.5163 359.818 28.5979 359.645 28.6555C359.232 28.7995 359.064 28.3819 359.578 28.1611C359.669 28.1226 359.761 28.0698 359.847 28.0122C360.063 27.8682 360.236 27.681 360.342 27.5178C360.649 27.0378 360.798 26.5817 360.798 26.2217C360.798 26.0441 360.765 25.8953 360.693 25.7897C360.63 25.6936 360.539 25.6312 360.419 25.6024C360.313 25.5784 360.188 25.5784 360.044 25.6072ZM341.685 23.4519C343.035 19.89 347.051 21.7429 347.137 23.6199C346.94 23.4231 346.1 22.9574 345.624 22.919C345.542 25.012 343.059 25.54 342.305 23.3415C342.036 23.3319 341.877 23.3271 341.685 23.4519ZM347.997 32.3422C350.788 34.5936 351.801 30.5997 352.291 29.9852C352.152 34.944 348.348 34.5984 347.997 32.3422ZM347.267 28.6027C347.594 28.7803 348.117 28.9627 349.275 28.9867C346.887 29.9324 346.047 28.8235 346.08 27.7914C346.119 26.3993 347.425 26.6777 347.161 24.4215C348.295 26.0057 345.735 27.7722 347.267 28.6027Z" fill="#FEFEFE"/>
<path fill-rule="evenodd" clip-rule="evenodd" d="M332.672 36.5015C338.228 36.4211 343.682 39.1904 346.801 44.2647C350.514 50.3112 349.807 57.8264 345.589 63.0405C350.257 70.6792 354.791 78.4009 359.597 85.9563C361.79 89.3956 361.24 92.1935 358.231 94.0406C356.647 95.0478 353.108 96.1635 350.589 92.0433C345.838 84.2716 341.082 76.5002 336.332 68.7285C329.769 70.1356 322.747 67.3689 319.034 61.3224C315.915 56.2422 315.917 50.1297 318.496 45.2064C319.819 47.3647 321.148 49.5228 322.471 51.6811C324.318 54.684 328.286 55.6347 331.288 53.7879C332.37 53.1232 333.452 52.4585 334.534 51.7939C337.537 49.947 338.488 45.9794 336.641 42.9706C335.324 40.8179 333.995 38.6599 332.672 36.5015Z" fill="#FF6F3D"/>
<path fill-rule="evenodd" clip-rule="evenodd" d="M345.589 63.0405C349.807 57.8264 350.514 50.3112 346.801 44.2647C344.021 39.7419 339.386 37.0502 334.477 36.5756C333.878 36.5177 333.276 36.4928 332.672 36.5015C332.981 37.0064 333.291 37.5113 333.601 38.0161C333.833 38.3943 334.066 38.7726 334.298 39.1507C335.081 40.4252 335.863 41.6988 336.641 42.9706C338.488 45.9794 337.537 49.947 334.534 51.7939L331.288 53.7879C328.286 55.6347 324.318 54.684 322.471 51.6811C321.809 50.602 321.146 49.5229 320.483 48.4438C320.131 47.8702 319.778 47.2966 319.426 46.723C319.116 46.2175 318.806 45.7119 318.496 45.2064C318.215 45.7422 317.965 46.2921 317.746 46.8532C315.954 51.4479 316.254 56.795 319.034 61.3224C322.747 67.3689 329.769 70.1356 336.332 68.7285C338.706 72.6137 341.083 76.4989 343.459 80.384C345.836 84.2704 348.213 88.1569 350.589 92.0433C353.108 96.1635 356.647 95.0478 358.231 94.0406C361.24 92.1935 361.79 89.3956 359.597 85.9563C356.376 80.8917 353.276 75.7525 350.177 70.6137C348.652 68.0862 347.128 65.5589 345.589 63.0405ZM351.869 91.261C352.905 92.9562 354.01 93.4009 354.878 93.4694C355.849 93.5459 356.807 93.1689 357.426 92.7748L357.436 92.7685L357.446 92.7623C358.695 91.9955 359.242 91.16 359.387 90.3354C359.539 89.4753 359.312 88.2991 358.333 86.7626L358.332 86.7614C355.101 81.6822 351.985 76.5159 348.88 71.3679C347.358 68.8442 345.838 66.325 344.309 63.8226L343.758 62.9198L344.423 62.0972C348.253 57.3617 348.893 50.5379 345.523 45.0501C343.22 41.3019 339.512 38.9378 335.491 38.2266C335.519 38.2722 335.547 38.3178 335.575 38.3634C336.358 39.6389 337.142 40.9149 337.92 42.1867C340.2 45.9015 339.028 50.7914 335.32 53.0715L332.074 55.0656C332.074 55.0657 332.074 55.0654 332.074 55.0656C328.364 57.3469 323.473 56.1735 321.193 52.4669L321.192 52.4651C320.531 51.3867 319.868 50.3083 319.205 49.2291L319.204 49.2274C319.057 48.9868 318.909 48.7462 318.761 48.5055C317.579 52.4152 318.009 56.7868 320.312 60.5374C323.682 66.025 330.057 68.5399 336.017 67.2618L337.057 67.0389L337.612 67.9462C339.987 71.8318 342.363 75.7174 344.74 79.6032L344.749 79.6182C347.123 83.499 349.496 87.3799 351.869 91.261Z" fill="#333333"/>
<path d="M361.759 84.3348C361.934 87.2394 355.869 91.1427 352.166 91.3661C348.462 91.5895 346.684 86.8644 346.509 83.9598C346.334 81.0552 351.306 79.9332 355.009 79.7099C358.713 79.4865 361.645 82.444 361.759 84.3348Z" fill="white"/>
<path fill-rule="evenodd" clip-rule="evenodd" d="M359.669 85.7095C360.174 85.0563 360.274 84.6257 360.262 84.4251C360.242 84.0863 359.849 83.2279 358.806 82.4105C357.83 81.6468 356.524 81.1213 355.1 81.2071C353.324 81.3142 351.334 81.635 349.86 82.2227C348.252 82.864 347.984 83.4885 348.007 83.8695C348.082 85.1173 348.512 86.778 349.293 88.0522C350.071 89.3214 350.998 89.9338 352.075 89.8688C353.553 89.7797 355.731 88.9021 357.558 87.6261C358.454 87.0006 359.186 86.3332 359.669 85.7095ZM352.166 91.3661C355.869 91.1427 361.934 87.2394 361.759 84.3348C361.645 82.444 358.713 79.4865 355.009 79.7099C351.306 79.9332 346.334 81.0552 346.509 83.9598C346.684 86.8644 348.462 91.5895 352.166 91.3661Z" fill="#333333"/>
</svg>
