<svg width="647" height="647" viewBox="0 0 647 647" fill="none" xmlns="http://www.w3.org/2000/svg"><g style="mix-blend-mode:multiply" fill-rule="evenodd" clip-rule="evenodd"><path d="M323.286 187.286c-75.111 0-136 60.889-136 136 0 75.11 60.889 136 136 136 75.11 0 136-60.89 136-136 0-75.111-60.89-136-136-136zm-137 136c0-75.663 61.337-137 137-137s137 61.337 137 137-61.337 137-137 137-137-61.337-137-137z" fill="#EFEFEF"/><path d="M323.286 217C264.586 217 217 264.586 217 323.285c0 58.7 47.586 106.286 106.286 106.286 58.699 0 106.285-47.586 106.285-106.286 0-58.699-47.586-106.285-106.285-106.285zM216 323.285C216 264.033 264.034 216 323.286 216s107.285 48.033 107.285 107.285c0 59.252-48.033 107.286-107.285 107.286-59.252 0-107.286-48.034-107.286-107.286z" fill="#DADADA"/><path d="M323.286 96.2856c-125.369 0-227.0004 101.6314-227.0004 227.0004 0 125.368 101.6314 227 227.0004 227 125.368 0 227-101.632 227-227 0-125.369-101.632-227.0004-227-227.0004zM95.2856 323.286c0-125.921 102.0794-228.0004 228.0004-228.0004s228 102.0794 228 228.0004-102.079 228-228 228-228.0004-102.079-228.0004-228z" fill="#CCC"/><path d="M323.5 1C145.388 1 1 145.388 1 323.5S145.388 646 323.5 646 646 501.612 646 323.5 501.612 1 323.5 1zM0 323.5C0 144.836 144.836 0 323.5 0S647 144.836 647 323.5 502.164 647 323.5 647 0 502.164 0 323.5z" fill="#EFEFEF"/></g><path d="M54 379.942c0-2.729 2.2032-4.942 4.921-4.942h82.158c2.718 0 4.921 2.213 4.921 4.942v48.116c0 2.729-2.203 4.942-4.921 4.942H58.921c-2.7178 0-4.921-2.213-4.921-4.942v-48.116z" fill="#fff"/><path fill-rule="evenodd" clip-rule="evenodd" d="M109.311 401c-11.849 8.665-10.9337 7.136-20.238.328L55 431.479c.4068.917 2.4977 1.551 3.7482 1.518h80.3448c3.258.033 4.656-.201 5.907-1.468L109.311 401z" fill="#EFEFEF"/><path fill-rule="evenodd" clip-rule="evenodd" d="M129 365v24l17-11.676L129 365zM96.0583 346.363c-.8881.509-.5263 1.863.4978 1.863h6.9579c1.024 0 1.386-1.353.498-1.863l-3.476-1.995c-.308-.177-.6873-.177-.9958-.001l-3.4819 1.996zM70.547 364.771v24.944l-16.9948-12.152 16.9948-12.792z" fill="#BDECFF"/><path fill-rule="evenodd" clip-rule="evenodd" d="M146.002 429.018v-49.545c0-1.275-.612-2.473-1.645-3.223l-42.008-30.491c-1.4-1.017-3.2978-1.017-4.6983 0L55.6431 376.25c-1.0333.75-1.6446 1.948-1.6446 3.223v49.545c0 2.201 1.7881 3.986 3.9939 3.986h84.0156c2.205 0 3.994-1.785 3.994-3.986zm-90.9462-53.574c-1.2916.937-2.0558 2.435-2.0558 4.029v49.545c0 2.752 2.2352 4.982 4.9924 4.982h84.0156c2.757 0 4.992-2.23 4.992-4.982v-49.545c0-1.594-.764-3.092-2.056-4.029l-42.007-30.491c-1.751-1.271-4.123-1.271-5.8737 0l-42.0075 30.491z" fill="#333"/><path fill-rule="evenodd" clip-rule="evenodd" d="M101.017 407.127l28.536-19.243c.279-.188.447-.506.447-.847v-38.021c0-.562-.448-1.017-1-1.017H81.7129c-.2653 0-.5196.107-.7072.298l-10.7128 10.879c-.187.19-.2923.448-.2929.717v28.339c-.0007.332.158.643.4252.834l24.9425 17.818c1.7021 1.163 3.3248 1.676 5.6493.243z" fill="#fff"/><path fill-rule="evenodd" clip-rule="evenodd" d="M101.553 406.983l-.018.011c-1.303.789-2.5052 1.097-3.6777.977-1.1479-.117-2.1416-.633-3.0471-1.241l-.0087-.006-24.9511-17.527c-.5343-.375-.8518-.988-.8504-1.641v-27.891c.0011-.529.2707-1.055.6447-1.429l10.6539-10.654c.3751-.375.8838-.586 1.4143-.586H129c1.105 0 2 .895 2 2v37.387c0 .67-.336 1.296-.895 1.667l-28.552 18.933zm-6.1853-1.083l-24.9425-17.521c-.2671-.188-.4259-.494-.4252-.821v-27.891c.0006-.265.1649-.537.3519-.724l10.6538-10.654c.1876-.188.4419-.293.7072-.293H129c.552 0 1 .448 1 1v37.387c0 .335-.168.648-.447.833l-28.536 18.922c-2.3245 1.409-3.9472.905-5.6493-.238z" fill="#333"/><path d="M112.272 374.079c0 1.45-.222 2.779-.668 3.985-.446 1.197-1.075 2.13-1.887 2.799-.802.669-1.733 1.004-2.793 1.004-.782 0-1.461-.213-2.035-.639-.575-.426-.961-1.004-1.159-1.734h-.178c-.485.791-1.085 1.384-1.798 1.78-.713.395-1.515.593-2.4064.593-1.6144 0-2.887-.533-3.818-1.597-.9211-1.065-1.3817-2.505-1.3817-4.32 0-2.089.6141-3.782 1.8422-5.08 1.2281-1.308 2.8771-1.962 4.9469-1.962.753 0 1.585.071 2.496.213.921.132 1.738.319 2.451.563l-.327 7.072v.365c0 1.623.515 2.434 1.545 2.434.783 0 1.402-.517 1.857-1.552.466-1.034.699-2.352.699-3.954 0-1.734-.347-3.255-1.04-4.563-.693-1.318-1.679-2.332-2.957-3.042-1.277-.71-2.743-1.065-4.397-1.065-2.1095 0-3.9467.446-5.5116 1.339-1.5549.892-2.7434 2.17-3.5655 3.833-.822 1.652-1.233 3.574-1.233 5.764 0 2.941.7676 5.202 2.3027 6.784 1.5351 1.582 3.7388 2.373 6.611 2.373 2.1884 0 4.4714-.457 6.8484-1.369v2.494c-2.08.872-4.343 1.308-6.789 1.308-3.6645 0-6.5219-1.009-8.572-3.027-2.0501-2.028-3.0752-4.852-3.0752-8.472 0-2.646.5546-4.999 1.6639-7.057 1.1092-2.068 2.6444-3.65 4.6054-4.745 1.9709-1.096 4.1993-1.643 6.6849-1.643 2.15 0 4.061.456 5.735 1.369 1.683.912 2.986 2.215 3.907 3.909.931 1.683 1.396 3.63 1.396 5.84zm-15.2717 1.932c0 2.363.9062 3.544 2.7187 3.544 1.911 0 2.956-1.486 3.135-4.457l.178-3.635c-.624-.172-1.293-.258-2.006-.258-1.2674 0-2.2578.431-2.9709 1.293-.7032.861-1.0548 2.033-1.0548 3.513z" fill="url(#paint0_linear)"/><path d="M81.0278 348.129v10.975H70.0059l11.0219-10.975z" fill="url(#paint1_linear)"/><path fill-rule="evenodd" clip-rule="evenodd" d="M81.4651 347.034c.3926.159.5349.445.5349.861v11.078c0 .567-.4705 1.027-1.0508 1.027l-11.6162-.021s-.3326-.256-.333-.645c.109-.636.4757-1.027.7762-1.321l10.43-10.406c.3005-.293.8662-.732 1.2589-.573zm-.5159 1.299l-10.5716 10.64h10.5716v-10.64zM88.6059 402.586L54 377.823l.5754-.823 35.1228 25.133 6.4425 4.456c1.5256 1.055 3.5346 1.055 5.0603 0l7.688-5.318 36.565-24.251.546.844-36.01 23.883 35.259 30.487-.648.766-35.473-30.673-7.365 5.094c-1.8645 1.29-4.32 1.29-6.1845 0l-6.1295-4.239-33.908 29.643-.6508-.763 33.7157-29.476z" fill="#333"/><path d="M97.9983 186.946c0-2.732 2.2017-4.946 4.9167-4.946h48.167c2.715 0 4.916 2.214 4.916 4.946V259c0 2.732-2.04 5-4.756 5h-48.327c-2.715 0-4.9167-2.214-4.9167-4.946v-72.108z" fill="#EFEFEF"/><path fill-rule="evenodd" clip-rule="evenodd" d="M105.998 182h-3.083c-2.715 0-4.9167 2.214-4.9167 4.946v72.108c0 2.732 2.2017 4.946 4.9167 4.946h48.327c2.716 0 4.756-2.268 4.756-5v-72.054c0-2.732-2.201-4.946-4.916-4.946h-3.094v1h3.094c2.157 0 3.916 1.761 3.916 3.946V259c0 2.244-1.655 4-3.756 4h-48.327c-2.158 0-3.9167-1.761-3.9167-3.946v-72.108c0-2.185 1.7587-3.946 3.9167-3.946h3.083v-1z" fill="#333"/><path fill-rule="evenodd" clip-rule="evenodd" d="M131.627 178c0-2.209-1.842-4-4.114-4-2.273 0-4.115 1.791-4.115 4h-12.343c-1.136 0-2.057.895-2.057 2v4c0 1.105.921 2 2.057 2h31.886c1.136 0 2.057-.895 2.057-2v-4c0-1.105-.921-2-2.057-2h-11.314z" fill="url(#paint2_linear)"/><path fill-rule="evenodd" clip-rule="evenodd" d="M130.627 179v-1c0-1.63-1.368-3-3.114-3-1.747 0-3.115 1.37-3.115 3v1h-13.343c-.61 0-1.057.474-1.057 1v4c0 .526.447 1 1.057 1h31.886c.611 0 1.057-.474 1.057-1v-4c0-.526-.446-1-1.057-1h-12.314zm12.314-1c1.136 0 2.057.895 2.057 2v4c0 1.105-.921 2-2.057 2h-31.886c-1.136 0-2.057-.895-2.057-2v-4c0-1.105.921-2 2.057-2h12.343c0-2.209 1.842-4 4.115-4 2.272 0 4.114 1.791 4.114 4h11.314z" fill="#333"/><path d="M104.998 194.011c0-1.11.91-2.01 2.031-2.01h39.938c1.122 0 2.031.9 2.031 2.01v51.492c0 .534-.214 1.046-.596 1.423l-8.587 8.483c-.381.376-.897.587-1.435.587h-31.351c-1.121 0-2.031-.9-2.031-2.01v-59.975z" fill="#fff"/><path fill-rule="evenodd" clip-rule="evenodd" d="M146.967 193.006h-39.938c-.561 0-1.015.45-1.015 1.005v59.975c0 .555.454 1.005 1.015 1.005h31.351c.269 0 .527-.105.718-.293l8.587-8.484c.191-.188.298-.444.298-.711v-51.492c0-.555-.455-1.005-1.016-1.005zM107.029 192c-1.121 0-2.031.901-2.031 2.011v59.975c0 1.11.91 2.01 2.031 2.01h31.351c.538 0 1.054-.211 1.435-.587l8.587-8.483c.382-.377.596-.889.596-1.423v-51.492c0-1.11-.909-2.011-2.031-2.011h-39.938z" fill="#333"/><path fill-rule="evenodd" clip-rule="evenodd" d="M115.999 199.5c0-.276.218-.5.487-.5h21.026c.269 0 .487.224.487.5s-.218.5-.487.5h-21.026c-.269 0-.487-.224-.487-.5z" fill="#333"/><path d="M109.998 237.064c0-.581.465-1.051 1.04-1.051h7.933c.574 0 1.039.47 1.039 1.051v7.885c0 .581-.465 1.051-1.039 1.051h-7.933c-.575 0-1.04-.47-1.04-1.051v-7.885z" fill="url(#paint3_linear)"/><path d="M109.998 237.064c0-.581.465-1.051 1.04-1.051h7.933c.574 0 1.039.47 1.039 1.051v7.885c0 .581-.465 1.051-1.039 1.051h-7.933c-.575 0-1.04-.47-1.04-1.051v-7.885z" fill="#BDECFF"/><path fill-rule="evenodd" clip-rule="evenodd" d="M120.289 235.525c.225.16.277.472.117.697l-5 7c-.086.12-.22.196-.366.208-.146.012-.291-.041-.395-.145l-2-2c-.195-.195-.195-.512 0-.707.195-.195.512-.195.707 0l1.583 1.583 4.657-6.52c.16-.225.473-.277.697-.116z" fill="#333"/><path fill-rule="evenodd" clip-rule="evenodd" d="M111.378 235.998c-.285 0-.347.284-.347.573l-.021 7.857c0 .29.083.602.368.602l8.296-.028c.285 0 .331-.284.331-.573V240.5c0-.289.207-.478.492-.478.285 0 .501.189.501.478v3.929c0 .868-.715 1.571-1.571 1.571h-7.88c-.855 0-1.526-.664-1.526-1.532l-.023-7.897c0-.868.524-1.571 1.38-1.571h5.465c.286 0 .517.234.517.524 0 .289-.231.474-.517.474h-5.465zM126.486 238c-.27 0-.488.224-.488.5s.218.5.488.5h15.024c.27 0 .488-.224.488-.5s-.218-.5-.488-.5h-15.024zm.002 3c-.271 0-.49.224-.49.5s.219.5.49.5h8.02c.271 0 .49-.224.49-.5s-.219-.5-.49-.5h-8.02z" fill="#333"/><path d="M109.998 222.052c0-.581.465-1.052 1.038-1.052h7.923c.574 0 1.039.471 1.039 1.052v7.896c0 .581-.465 1.052-1.039 1.052h-7.923c-.573 0-1.038-.471-1.038-1.052v-7.896z" fill="url(#paint4_linear)"/><path d="M109.998 222.052c0-.581.465-1.052 1.038-1.052h7.923c.574 0 1.039.471 1.039 1.052v7.896c0 .581-.465 1.052-1.039 1.052h-7.923c-.573 0-1.038-.471-1.038-1.052v-7.896z" fill="#BDECFF"/><path fill-rule="evenodd" clip-rule="evenodd" d="M120.29 220.521c.225.161.276.474.115.698l-5 6.972c-.085.119-.219.195-.365.207-.146.012-.29-.041-.394-.144l-2-1.992c-.196-.195-.196-.512-.001-.707.194-.196.511-.197.707-.002l1.583 1.577 4.657-6.494c.161-.224.474-.276.698-.115z" fill="#333"/><path fill-rule="evenodd" clip-rule="evenodd" d="M111.378 220.998c-.285 0-.347.284-.347.573l-.021 7.857c0 .29.083.602.368.602l8.295-.028c.286 0 .331-.284.331-.573V225.5c0-.289.208-.478.493-.478.285 0 .501.189.501.478v3.929c0 .868-.716 1.571-1.571 1.571h-7.88c-.856 0-1.526-.664-1.526-1.532l-.023-7.897c0-.868.524-1.571 1.38-1.571h5.465c.285 0 .516.234.516.524 0 .289-.231.474-.516.474h-5.465zM126.485 222c-.269 0-.487.224-.487.5s.218.5.487.5h15.025c.269 0 .488-.224.488-.5s-.219-.5-.488-.5h-15.025zm.003 3c-.271 0-.49.224-.49.5s.219.5.49.5h8.02c.27 0 .49-.224.49-.5s-.22-.5-.49-.5h-8.02z" fill="#333"/><path d="M109.998 207.052c0-.581.465-1.052 1.038-1.052h7.923c.574 0 1.039.471 1.039 1.052v7.896c0 .581-.465 1.052-1.039 1.052h-7.923c-.573 0-1.038-.471-1.038-1.052v-7.896z" fill="url(#paint5_linear)"/><path d="M109.998 207.052c0-.581.465-1.052 1.038-1.052h7.923c.574 0 1.039.471 1.039 1.052v7.896c0 .581-.465 1.052-1.039 1.052h-7.923c-.573 0-1.038-.471-1.038-1.052v-7.896z" fill="#BDECFF"/><path fill-rule="evenodd" clip-rule="evenodd" d="M120.289 205.525c.225.16.277.473.117.697l-5 7c-.086.12-.22.196-.366.208-.146.012-.291-.041-.395-.145l-2-2c-.195-.195-.195-.512 0-.707.195-.195.512-.195.707 0l1.583 1.583 4.657-6.52c.16-.225.473-.277.697-.116z" fill="#333"/><path fill-rule="evenodd" clip-rule="evenodd" d="M111.378 205.998c-.285 0-.347.284-.347.573l-.021 7.857c0 .29.083.602.368.602l8.295-.028c.286 0 .331-.284.331-.573V210.5c0-.289.208-.478.493-.478.285 0 .501.189.501.478v3.929c0 .868-.716 1.571-1.571 1.571h-7.88c-.856 0-1.526-.664-1.526-1.532l-.023-7.897c0-.868.524-1.571 1.38-1.571h5.465c.285 0 .516.234.516.524 0 .289-.231.474-.516.474h-5.465zM126.485 208c-.269 0-.487.224-.487.5s.218.5.487.5h15.025c.269 0 .488-.224.488-.5s-.219-.5-.488-.5H126.485zm.003 3c-.271 0-.49.224-.49.5s.219.5.49.5h8.02c.27 0 .49-.224.49-.5s-.22-.5-.49-.5h-8.02zM139.483 245.942c-.273 0-.498.34-.498.6V255h-.987v-8.458c0-.78.667-1.542 1.485-1.542h8.515v.942h-8.515z" fill="#333"/><path fill-rule="evenodd" clip-rule="evenodd" d="M289 118V97h-5.114c-3.043 0-4.886 2.1177-4.886 5.369V118h10z" fill="#BDECFF"/><path d="M289 72h44.5l9.5 10.5V117h-54V72z" fill="#fff"/><path d="M332.5 71.5l10.5 11h-10.5v-11z" fill="url(#paint6_linear)"/><path fill-rule="evenodd" clip-rule="evenodd" d="M289 71h43.908L343 82.3067v29.4793h-.982V82.6933L332.474 72h-42.492v46h17.903v1H289V71z" fill="#333"/><path fill-rule="evenodd" clip-rule="evenodd" d="M332.32 71.0337c.192-.0745.411-.0229.55.13l10 11c.133.1464.167.3576.087.5386-.08.181-.259.2977-.457.2977h-10c-.276 0-.5-.2239-.5-.5v-11c0-.2065.127-.3919.32-.4663zm.68 1.7596V82h8.37L333 72.7933zM280.71 98.3949c1.073-.9432 2.542-1.3949 4.153-1.3949h5.138v22H279v-16.454c0-1.794.628-3.1998 1.71-4.1511zm.66.7511c-.838.7366-1.37 1.854-1.37 3.4V118h9.001V98h-4.138c-1.433 0-2.646.4013-3.493 1.146z" fill="#333"/><path fill-rule="evenodd" clip-rule="evenodd" d="M343 97v14h10v-9.44c0-3.3263-1.988-4.56-4.886-4.56H343z" fill="#BDECFF"/><path fill-rule="evenodd" clip-rule="evenodd" d="M342 97h5.614c1.508 0 2.866.3193 3.852 1.1504 1.002.8447 1.534 2.1436 1.534 3.9096V112h-11V97zm1 1v13h9v-8.94c0-1.56-.462-2.5412-1.178-3.145-.733-.6175-1.818-.915-3.208-.915H343z" fill="#333"/><path fill-rule="evenodd" clip-rule="evenodd" d="M314.5 111.467l-5.146 5.724h-29.769c-2.459 0-4.837 1.723-4.564 3.511l5.191 29.996c.274 1.788 2.049 3.302 4.508 3.302h65.842c2.458 0 4.371-1.514 4.507-3.302l3.903-38.002c.223-1.123-.892-2.696-2.899-2.696H318c-1.338 0-2.544.504-3.5 1.467z" fill="url(#paint7_linear)"/><path fill-rule="evenodd" clip-rule="evenodd" d="M309.93 118.018h-30.222c-1.006 0-2.124.701-2.819 1.238-.712.549-.937 1.122-.88 1.534l5.191 30.675.001.01c.189 1.261 1.472 2.525 3.519 2.525h65.842c2.114 0 3.425-1.306 3.51-2.452l.001-.013 3.908-38.923.009-.045c.082-.423-.424-1.567-1.917-1.567H318c-1.054 0-1.997.395-2.766 1.18l-5.304 5.838zm4.57-6.518l-5.023 5.518h-29.769c-2.459 0-4.96 2.098-4.686 3.928l5.19 30.677c.274 1.829 2.049 3.377 4.508 3.377h65.842c2.458 0 4.371-1.548 4.507-3.377l3.903-38.865c.223-1.149-.892-2.758-2.899-2.758H318c-1.338 0-2.544.515-3.5 1.5z" fill="#333"/><path d="M315 77.9524h-19v18.0952h19V77.9524z" fill="#fff"/><path fill-rule="evenodd" clip-rule="evenodd" d="M296 96.0477l6.5-6.1904 3.5 3.3333 5.293-6.6667L315 92.0377v4.01" fill="#E0E0E0"/><path fill-rule="evenodd" clip-rule="evenodd" d="M295 77.9524c0-.526.448-.9524 1-.9524h19c.552 0 1 .4264 1 .9524v18.0952c0 .526-.448.9524-1 .9524h-19c-.552 0-1-.4264-1-.9524V77.9524zm20 .0788v18.0164h-19v-18.058l19 .0416z" fill="#333"/><path fill-rule="evenodd" clip-rule="evenodd" d="M296.01 95.9951H315v-3.9574l-3.675-5.5138-5.13 7.2562-3.849-3.5518-6.336 5.7668zm10.023-3.6907l-2.992-2.7601c-.386-.357-1.001-.3579-1.389-.002l-6.346 5.8194c-.397.3648-.409.9677-.026 1.3466.383.3789 1.016.3903 1.414.0254l.228-.2098h17.212c.173.2847.496.4762.866.4762.552 0 1-.4264 1-.9524v-4.01c0-.1808-.054-.3578-.156-.5104l-3.675-5.5138c-.18-.2714-.493-.4375-.83-.4419-.338-.0043-.655.1538-.843.4204l-4.463 6.3124zM295 102.507c0-.262.224-.474.5-.474h42c.276 0 .5.212.5.474s-.224.474-.5.474h-42c-.276 0-.5-.212-.5-.474zM320.5 81.5c0-.2761.224-.5.5-.5h6c.276 0 .5.2239.5.5s-.224.5-.5.5h-6c-.276 0-.5-.2239-.5-.5zM320.5 86.5c0-.2761.224-.5.5-.5h16c.276 0 .5.2239.5.5s-.224.5-.5.5h-16c-.276 0-.5-.2239-.5-.5zM320.5 91.5c0-.2761.224-.5.5-.5h16c.276 0 .5.2239.5.5s-.224.5-.5.5h-16c-.276 0-.5-.2239-.5-.5zM295.218 107.504c0-.276.224-.5.5-.5h12c.276 0 .5.224.5.5s-.224.5-.5.5h-12c-.276 0-.5-.224-.5-.5z" fill="#333"/><path d="M303 82.5571c0 1.1046-.895 2-2 2s-2-.8954-2-2c0-1.1045.895-2 2-2s2 .8955 2 2z" fill="url(#paint8_linear)"/><path d="M191.003 495c0-2.209 1.791-4 4-4h86c2.21 0 4 1.791 4 4v80c0 2.209-1.79 4-4 4h-86c-2.209 0-4-1.791-4-4v-80z" fill="#fff"/><path d="M233.003 568.5v-15c0-1.381-1.119-2.5-2.5-2.5-1.38 0-2.5 1.119-2.5 2.5v15c0 1.381 1.12 2.5 2.5 2.5 1.381 0 2.5-1.119 2.5-2.5z" fill="url(#paint9_linear)"/><path d="M243.003 568.5v-18c0-1.381-1.119-2.5-2.5-2.5-1.38 0-2.5 1.119-2.5 2.5v18c0 1.381 1.12 2.5 2.5 2.5 1.381 0 2.5-1.119 2.5-2.5z" fill="url(#paint10_linear)"/><path d="M253.003 568.5v-23c0-1.381-1.119-2.5-2.5-2.5-1.38 0-2.5 1.119-2.5 2.5v23c0 1.381 1.12 2.5 2.5 2.5 1.381 0 2.5-1.119 2.5-2.5z" fill="url(#paint11_linear)"/><path d="M263.003 568.5v-26c0-1.381-1.119-2.5-2.5-2.5-1.38 0-2.5 1.119-2.5 2.5v26c0 1.381 1.12 2.5 2.5 2.5 1.381 0 2.5-1.119 2.5-2.5z" fill="url(#paint12_linear)"/><path d="M273.003 568.5v-34c0-1.381-1.119-2.5-2.5-2.5-1.38 0-2.5 1.119-2.5 2.5v34c0 1.381 1.12 2.5 2.5 2.5 1.381 0 2.5-1.119 2.5-2.5z" fill="url(#paint13_linear)"/><path d="M190.003 496c0-2.761 2.239-5 5-5h21v89h-21c-2.761 0-5-2.239-5-5v-79z" fill="#EFEFEF"/><path fill-rule="evenodd" clip-rule="evenodd" d="M200.577 504h7c.276 0 .5-.224.5-.5s-.224-.5-.5-.5h-7c-.276 0-.5.224-.5.5s.224.5.5.5zm0 36h7c.276 0 .5-.224.5-.5s-.224-.5-.5-.5h-7c-.276 0-.5.224-.5.5s.224.5.5.5zm7-18h-7c-.276 0-.5-.224-.5-.5s.224-.5.5-.5h7c.276 0 .5.224.5.5s-.224.5-.5.5zm-7 36h7c.276 0 .5-.224.5-.5s-.224-.5-.5-.5h-7c-.276 0-.5.224-.5.5s.224.5.5.5zm7-45h-7c-.276 0-.5-.224-.5-.5s.224-.5.5-.5h7c.276 0 .5.224.5.5s-.224.5-.5.5zm-7 36h7c.276 0 .5-.224.5-.5s-.224-.5-.5-.5h-7c-.276 0-.5.224-.5.5s.224.5.5.5zm7-18h-7c-.276 0-.5-.224-.5-.5s.224-.5.5-.5h7c.276 0 .5.224.5.5s-.224.5-.5.5zm-7 36h7c.276 0 .5-.224.5-.5s-.224-.5-.5-.5h-7c-.276 0-.5.224-.5.5s.224.5.5.5z" fill="#333"/><path fill-rule="evenodd" clip-rule="evenodd" d="M281.003 491h-86c-2.209 0-4 1.791-4 4v80c0 2.209 1.791 4 4 4h86c2.21 0 4-1.791 4-4v-80c0-2.209-1.79-4-4-4zm-86-1c-2.761 0-5 2.239-5 5v80c0 2.761 2.239 5 5 5h86c2.762 0 5-2.239 5-5v-80c0-2.761-2.238-5-5-5h-86z" fill="#333"/><path d="M243.822 499.708c2.157 0 6.181 2.792 6.681 4.292l-9 6 2.319-10.292z" fill="#BDECFF"/><path fill-rule="evenodd" clip-rule="evenodd" d="M250.14 503.673c-.647-.848-1.683-1.723-2.888-2.449-1.19-.717-2.405-1.206-3.372-1.395l-1.92 9.644 8.18-5.8zm1.349.27c-1.294-2.6-5.824-5.2-8.412-5.2l-2.588 13 11-7.8z" fill="#333"/><path fill-rule="evenodd" clip-rule="evenodd" d="M239.849 499.569c.054.272-.122.535-.393.588-5.272 1.04-8.971 5.961-8.397 11.418.607 5.779 5.775 9.972 11.542 9.365 5.767-.606 9.95-5.782 9.342-11.56-.068-.65-.194-1.28-.372-1.885-.078-.265.074-.544.338-.622.265-.078.543.074.621.339.195.663.333 1.352.408 2.063.665 6.329-3.916 11.998-10.232 12.662-6.317.664-11.977-3.928-12.642-10.257-.628-5.978 3.424-11.366 9.198-12.506.271-.053.534.124.587.395zM274.789 515.702c-13.277 15.725-34.023 24.897-48.741 26.241l-.089-.998c14.465-1.321 34.945-10.367 48.042-25.858l-3.252.335c-.274.028-.519-.172-.546-.447-.028-.276.172-.522.447-.55l4.467-.46c.274-.028.519.172.546.447l.448 4.487c.028.275-.172.521-.446.55-.274.028-.519-.172-.547-.448l-.329-3.299z" fill="#333"/><path d="M391 571c0 2.761 2.239 5 5 5h78c2.761 0 5-2.239 5-5v-72c0-2.761-2.239-5-5-5h-78c-2.761 0-5 2.239-5 5v72z" fill="#EFEFEF"/><path fill-rule="evenodd" clip-rule="evenodd" d="M474 495h-78c-2.209 0-4 1.791-4 4v72c0 2.209 1.791 4 4 4h78c2.209 0 4-1.791 4-4v-72c0-2.209-1.791-4-4-4zm-78-1c-2.761 0-5 2.239-5 5v72c0 2.761 2.239 5 5 5h78c2.761 0 5-2.239 5-5v-72c0-2.761-2.239-5-5-5h-78z" fill="#333"/><path d="M399 520c0-1.105.895-2 2-2h68c1.105 0 2 .895 2 2v18c0 1.105-.895 2-2 2h-68c-1.105 0-2-.895-2-2v-18z" fill="#fff"/><path fill-rule="evenodd" clip-rule="evenodd" d="M400.534 518.021c-.84 0-1.521.702-1.521 1.569v18.826c0 .866.681 1.569 1.521 1.569h68.939c.84 0 1.521-.703 1.521-1.569V519.59c0-.867-.681-1.569-1.521-1.569h-43.594v-1.046h43.594c1.4 0 2.534 1.171 2.534 2.615v18.826c0 1.444-1.134 2.615-2.534 2.615h-68.939c-1.4 0-2.535-1.171-2.535-2.615V519.59c0-1.444 1.135-2.615 2.535-2.615h9.124v1.046h-9.124z" fill="#333"/><path d="M418 529c-10.263 0-13 6-13 6h26s-2.737-6-13-6z" fill="url(#paint14_linear)"/><path d="M418 529c-10.263 0-13 6-13 6h26s-2.737-6-13-6z" fill="#BDECFF"/><path fill-rule="evenodd" clip-rule="evenodd" d="M404.09 534.585l.91.415h26l.91-.415c.141.31.115.67-.069.956-.184.286-.501.459-.841.459h-26c-.34 0-.657-.173-.841-.459-.184-.286-.21-.646-.069-.956zm26.275-.585c.451.597.635 1 .635 1 .91-.415.91-.416.909-.416v-.002l-.002-.003-.004-.008-.011-.024c-.009-.018-.021-.042-.036-.071-.029-.058-.072-.137-.128-.234-.112-.195-.28-.461-.513-.775-.465-.628-1.193-1.448-2.26-2.262C426.807 529.567 423.342 528 418 528s-8.807 1.567-10.955 3.205c-1.067.814-1.795 1.634-2.26 2.262-.233.314-.401.58-.513.775-.056.097-.099.176-.128.234-.015.029-.027.053-.036.071l-.011.024-.004.008-.002.003v.002c-.001 0-.001.001.909.416 0 0 .184-.403.635-1 1.289-1.707 4.762-5 12.365-5 7.603 0 11.076 3.293 12.365 5zm-.272 1.421l-.001-.002.001.002zm-24.186 0s0-.001.001-.003l-.001.003z" fill="#333"/><path d="M415 526h6v4.667L418 533l-3-2.333V526z" fill="#fff"/><path d="M424 522c0 3.314-2.686 6-6 6s-6-2.686-6-6 2.686-6 6-6 6 2.686 6 6z" fill="#fff"/><path fill-rule="evenodd" clip-rule="evenodd" d="M418 527c2.761 0 5-2.239 5-5s-2.239-5-5-5-5 2.239-5 5 2.239 5 5 5zm0 1c3.314 0 6-2.686 6-6s-2.686-6-6-6-6 2.686-6 6 2.686 6 6 6z" fill="#333"/><path fill-rule="evenodd" clip-rule="evenodd" d="M418.1 517.765c1.011 1.735 2.4 3.735 4.9 3.735 0-2-2.778-4.5-4.9-4.5-2.878 0-5.1 2-5.1 5 2.614-.438 4.444-2 5.1-4.235z" fill="#AAA"/><path fill-rule="evenodd" clip-rule="evenodd" d="M417.412 517.039c-2.205.254-3.911 1.733-4.319 3.927-.061.329-.093.674-.093 1.034.35-.059.685-.137 1.006-.235 1.639-.5 2.888-1.497 3.62-2.847.158-.29.291-.596.399-.917.027-.078.051-.157.075-.236.046.08.093.16.141.241.166.278.343.56.532.837.781 1.141 1.787 2.198 3.221 2.541.314.075.649.116 1.006.116 0-.326-.074-.666-.207-1.006-.59-1.508-2.343-3.022-3.955-3.403-.251-.059-.499-.091-.738-.091-.234 0-.464.013-.688.039zm.837 2.79c1.024 1.366 2.507 2.671 4.751 2.671.552 0 1-.448 1-1 0-1.412-.935-2.786-1.981-3.739-1.058-.965-2.513-1.761-3.919-1.761-3.387 0-6.1 2.406-6.1 6 0 .294.129.573.354.763.225.19.521.272.811.223 2.225-.373 4.01-1.491 5.084-3.157zM421 526.083c.276 0 .5.224.5.5v3.629c0 .139-.058.272-.16.366l-3 2.788c-.192.179-.488.179-.68 0l-3-2.788c-.102-.094-.16-.227-.16-.366V527c0-.276.224-.5.5-.5s.5.224.5.5v2.994l2.5 2.323 2.5-2.323v-3.411c0-.276.224-.5.5-.5zM435.098 525.46c0-.276.224-.5.5-.5h26.852c.276 0 .5.224.5.5s-.224.5-.5.5h-26.852c-.276 0-.5-.224-.5-.5zM435.178 530.547c0-.276.224-.5.5-.5h20.309c.276 0 .5.224.5.5s-.224.5-.5.5h-20.309c-.276 0-.5-.224-.5-.5z" fill="#333"/><path d="M399 547.64c0-1.105.895-2 2-2h68c1.105 0 2 .895 2 2v18c0 1.104-.895 2-2 2h-68c-1.105 0-2-.896-2-2v-18z" fill="#fff"/><path fill-rule="evenodd" clip-rule="evenodd" d="M400.516 545.98c-.834 0-1.51.677-1.51 1.511v18.131c0 .834.274 1.327 1.108 1.327h69.748c.834 0 1.101-.726 1.101-1.327l.071-18.131c0-.834-.676-1.511-1.511-1.511H426.05v-1.007h43.473c1.391 0 2.518 1.128 2.518 2.518l-.071 18.131c0 .952-.492 2.335-2.579 2.335h-69.277c-1.39 0-2.115-.944-2.115-2.335v-18.131c0-1.39 1.127-2.518 2.517-2.518h9.509v1.007h-9.509z" fill="#333"/><path d="M418 556.432c-10.263 0-13 6.563-13 6.563h26s-2.737-6.563-13-6.563z" fill="url(#paint15_linear)"/><path d="M418 556.432c-10.263 0-13 6.563-13 6.563h26s-2.737-6.563-13-6.563z" fill="#BDECFF"/><path fill-rule="evenodd" clip-rule="evenodd" d="M404.09 562.59l.91.415h26l.91-.415c.141.31.115.67-.069.956-.184.286-.501.459-.841.459h-26c-.34 0-.657-.173-.841-.459-.184-.286-.21-.646-.069-.956zm26.275-.585c.451.597.635 1 .635 1 .91-.415.91-.415.909-.416v-.001l-.002-.004-.004-.008-.011-.023c-.009-.019-.021-.042-.036-.072-.029-.058-.072-.137-.128-.234-.112-.194-.28-.461-.513-.775-.465-.628-1.193-1.448-2.26-2.262-2.148-1.638-5.613-3.205-10.955-3.205s-8.807 1.567-10.955 3.205c-1.067.814-1.795 1.634-2.26 2.262-.233.314-.401.581-.513.775-.056.097-.099.176-.128.234-.015.03-.027.053-.036.072l-.011.023-.004.008-.002.004v.001c-.001.001-.001.001.909.416 0 0 .184-.403.635-1 1.289-1.706 4.762-5 12.365-5 7.603 0 11.076 3.294 12.365 5zm-.272 1.421l-.001-.002c.001.003.001.003.001.002zm-24.186 0c0 .001 0 0 .001-.002l-.001.002z" fill="#333"/><path d="M415 553.64h6v4.667l-3 2.333-3-2.333v-4.667z" fill="#fff"/><path d="M424 549.64c0 3.314-2.686 6-6 6s-6-2.686-6-6 2.686-6 6-6 6 2.686 6 6z" fill="#fff"/><path fill-rule="evenodd" clip-rule="evenodd" d="M418 554.64c2.761 0 5-2.239 5-5 0-2.762-2.239-5-5-5s-5 2.238-5 5c0 2.761 2.239 5 5 5zm0 1c3.314 0 6-2.686 6-6s-2.686-6-6-6-6 2.686-6 6 2.686 6 6 6z" fill="#333"/><path fill-rule="evenodd" clip-rule="evenodd" d="M418.1 545.405c1.011 1.735 2.4 3.735 4.9 3.735 0-2-2.778-4.5-4.9-4.5-2.878 0-5.1 2-5.1 5 2.614-.438 4.444-2 5.1-4.235z" fill="#AAA"/><path fill-rule="evenodd" clip-rule="evenodd" d="M417.412 544.679c-2.205.254-3.911 1.733-4.319 3.927-.061.329-.093.674-.093 1.034.35-.059.685-.137 1.006-.235 1.639-.5 2.888-1.497 3.62-2.848.158-.289.291-.596.399-.917.027-.077.051-.156.075-.235.046.08.093.16.141.241.166.277.343.559.532.836.781 1.142 1.787 2.199 3.221 2.542.314.075.649.116 1.006.116 0-.327-.074-.666-.207-1.006-.59-1.508-2.343-3.022-3.955-3.403-.251-.059-.499-.091-.738-.091-.234 0-.464.013-.688.039zm.837 2.79c1.024 1.366 2.507 2.671 4.751 2.671.552 0 1-.448 1-1 0-1.412-.935-2.786-1.981-3.739-1.058-.965-2.513-1.761-3.919-1.761-3.387 0-6.1 2.406-6.1 6 0 .294.129.573.354.763.225.19.521.272.811.223 2.225-.373 4.01-1.492 5.084-3.157zM421 553.723c.276 0 .5.224.5.5v3.629c0 .139-.058.272-.16.366l-3 2.788c-.192.179-.488.179-.68 0l-3-2.788c-.102-.094-.16-.227-.16-.366v-3.212c0-.276.224-.5.5-.5s.5.224.5.5v2.994l2.5 2.323 2.5-2.323v-3.411c0-.276.224-.5.5-.5zM435.178 553.538c0-.268.224-.485.5-.485h26.852c.276 0 .5.217.5.485s-.224.486-.5.486h-26.852c-.276 0-.5-.218-.5-.486zM435.178 558.476c0-.276.224-.5.5-.5h20.309c.276 0 .5.224.5.5s-.224.5-.5.5h-20.309c-.276 0-.5-.224-.5-.5zM400.802 504h69.394c1.548 0 2.803 1.343 2.803 3s-1.255 3-2.803 3h-69.394c-1.548 0-2.803-1.343-2.803-3s1.255-3 2.803-3zm0 .999c-.979 0-1.773.953-1.773 2.001s.794 2 1.773 2h69.394c.979 0 1.773-.952 1.773-2s-.794-2.001-1.773-2.001h-69.394z" fill="#333"/><path d="M454 504h16.067c1.62 0 2.933 1.343 2.933 3s-1.313 3-2.933 3H454v-6z" fill="url(#paint16_linear)"/><path fill-rule="evenodd" clip-rule="evenodd" d="M470.067 505H455v4h15.067c1.046 0 1.933-.874 1.933-2s-.887-2-1.933-2zM454 504v6h16.067c1.62 0 2.933-1.343 2.933-3s-1.313-3-2.933-3H454z" fill="#333"/><path d="M513 343.927c0-3.303 3.139-5.927 5.959-5.927h54.205c2.819 0 5.836 3.082 5.836 5.851v82.079c0 3.872-3.206 6.07-6.026 6.07h-54.01c-3.202 0-5.964-2.539-5.964-6.424v-81.649z" fill="#fff"/><path fill-rule="evenodd" clip-rule="evenodd" d="M513 344c0-3.153 2.822-6 5.998-6h53.978c3.176 0 6 2.847 6 6v45h-1.001v-45.01c0-2.579-2.401-4.99-4.999-4.99h-53.978c-2.599 0-4.998 2.42-4.998 5v33l-1-.01V344zm.996 72.999v9.305c0 2.58 2.262 4.658 4.861 4.658h54.198c2.598 0 4.9-2.091 4.9-4.671V417H579v9.291c0 3.153-2.77 5.709-5.945 5.709h-54.198c-3.176 0-5.855-2.543-5.855-5.696v-9.305h.994z" fill="#333"/><path d="M564.998 349.434h-38.325c-1.114 0-2.017.965-2.017 2.155v22.63c0 1.191.903 2.156 2.017 2.156h38.325c1.114 0 2.017-.965 2.017-2.156v-22.63c0-1.19-.903-2.155-2.017-2.155z" fill="#BDECFF"/><path fill-rule="evenodd" clip-rule="evenodd" d="M525.034 376.375l12.8-11.922 8.723 7.537 12.191-17.291 8.269 11.808v9.868" fill="#fff"/><path fill-rule="evenodd" clip-rule="evenodd" d="M527.058 349h37.884c1.689 0 3.058 1.409 3.058 3.148v21.704c0 1.739-1.369 3.148-3.058 3.148h-37.884c-1.689 0-3.058-1.409-3.058-3.148v-21.704c0-1.739 1.369-3.148 3.058-3.148zm0 1.049h37.884c1.126 0 2.039.94 2.039 2.099v21.704c0 1.159-.913 2.099-2.039 2.099h-37.884c-1.126 0-2.039-.94-2.039-2.099v-21.704c0-1.159.913-2.099 2.039-2.099z" fill="#333"/><path fill-rule="evenodd" clip-rule="evenodd" d="M558.784 354.318c.161.002.312.084.405.221l8.13 11.958c.162.237.108.566-.119.735-.227.168-.542.112-.703-.125l-7.73-11.369-11.781 16.452c-.084.118-.212.194-.352.209-.141.015-.28-.032-.386-.13l-8.361-7.729-12.012 11.29c-.207.195-.526.177-.712-.039-.186-.216-.169-.549.038-.744l12.346-11.605c.191-.179.48-.18.672-.002l8.288 7.661 11.867-16.572c.097-.135.249-.214.41-.211zM533.175 360.434c1.201 0 2.173-1.016 2.173-2.268 0-1.252-.972-2.269-2.173-2.269-1.202 0-2.174 1.017-2.174 2.269 0 1.252.972 2.268 2.174 2.268zm0 1.053c1.757 0 3.182-1.487 3.182-3.321 0-1.835-1.425-3.322-3.182-3.322-1.758 0-3.183 1.487-3.183 3.322 0 1.834 1.425 3.321 3.183 3.321zM542.007 386.5c0-.276.225-.5.504-.5H563.5c.279 0 .504.224.504.5s-.225.5-.504.5h-20.989c-.279 0-.504-.224-.504-.5zM542.007 396.5c0-.276.225-.5.504-.5H563.5c.279 0 .504.224.504.5s-.225.5-.504.5h-20.989c-.279 0-.504-.224-.504-.5zM542.007 406.5c0-.276.236-.5.526-.5h15.945c.291 0 .527.224.527.5s-.236.5-.527.5h-15.945c-.29 0-.526-.224-.526-.5zM542.007 391.5c0-.276.225-.5.504-.5H563.5c.279 0 .504.224.504.5s-.225.5-.504.5h-20.989c-.279 0-.504-.224-.504-.5zM553.961 401.5c0-.276.224-.5.5-.5h9.449c.275 0 .499.224.499.5s-.224.5-.499.5h-9.449c-.276 0-.5-.224-.5-.5zM542.007 401.5c0-.276.212-.5.473-.5h7.165c.262 0 .474.224.474.5s-.212.5-.474.5h-7.165c-.261 0-.473-.224-.473-.5zM527.009 412.5c0-.276.235-.5.524-.5h7.95c.29 0 .524.224.524.5s-.234.5-.524.5h-7.95c-.289 0-.524-.224-.524-.5zM538.007 412.5c0-.276.232-.5.519-.5h16.361c.286 0 .518.224.518.5s-.232.5-.518.5h-16.361c-.287 0-.519-.224-.519-.5z" fill="#333"/><path d="M589.097 398.304l-7.583-7.565-24.317 24.409 7.756 7.364 24.144-24.208z" fill="url(#paint17_linear)"/><path fill-rule="evenodd" clip-rule="evenodd" d="M564.104 422.333l29.701-29.895c.404-.407.404-1.067 0-1.474l-5.403-5.438c-.404-.407-1.059-.407-1.464 0l-29.7 29.896c-.127.127-.219.286-.266.46l-2.047 7.499c-.213.779.498 1.494 1.272 1.28l7.449-2.06c.173-.048.331-.14.458-.268zm30.432-29.159c.809-.814.809-2.133 0-2.946l-5.402-5.438c-.809-.814-2.119-.814-2.927 0l-29.701 29.895c-.254.256-.437.573-.532.921l-2.047 7.499c-.425 1.558.996 2.989 2.544 2.561l7.45-2.061c.346-.095.661-.28.915-.535l29.7-29.896z" fill="#333"/><path d="M585 395l-24.668 24.83-.704-.709 24.668-24.83.704.709z" fill="#fff"/><path fill-rule="evenodd" clip-rule="evenodd" d="M556.945 414.908l7.778 7.312-.706.761-7.778-7.311.706-.762zM581.476 390.739l7.625 7.466-.722.747-7.625-7.466.722-.747zM555.704 419.232l4.372 4.574-.746.722-4.372-4.574.746-.722zM583.402 388.809l7.26 7.312-.732.736-7.26-7.311.732-.737z" fill="#333"/><path d="M500 382.605c0-.566 1.202-1.605 1.785-1.605h34.159c1.072 0 2.056 1.096 2.056 2.024v22.168c0 .565-.473 1.024-1.056 1.024h-16.159c-.327 0-.635.147-.835.399l-4.762 5.987c-.452.568-1.352.52-1.737-.093l-3.423-4.842c-.528-1.067-1.743-1.451-2.111-1.451h-6.861c-.583 0-1.056-.459-1.056-1.024v-22.587z" fill="url(#paint18_linear)"/><path fill-rule="evenodd" clip-rule="evenodd" d="M535.988 382.021h-33.976c-.556 0-1.006.458-1.006 1.022v21.921c0 .564.45 1.021 1.006 1.021h6.396c1.041 0 2.008.544 2.559 1.44l2.658 4.074c.369.598 1.21.646 1.642.093l3.656-4.445c.572-.734 1.444-1.162 2.366-1.162h14.699c.556 0 1.006-.457 1.006-1.021v-21.921c0-.564-.45-1.022-1.006-1.022zM502.012 381c-1.111 0-2.012.914-2.012 2.043v21.921c0 1.128.901 2.043 2.012 2.043h6.396c.694 0 1.338.362 1.706.959l2.658 4.074c.738 1.197 2.42 1.292 3.283.186l3.657-4.445c.381-.489.962-.774 1.577-.774h14.699c1.111 0 2.012-.915 2.012-2.043v-21.921c0-1.129-.901-2.043-2.012-2.043h-33.976z" fill="#333"/><path fill-rule="evenodd" clip-rule="evenodd" d="M507 391.5c0-.276.23-.5.513-.5h23.974c.283 0 .513.224.513.5s-.23.5-.513.5h-23.974c-.283 0-.513-.224-.513-.5zM507 395.5c0-.276.227-.5.507-.5h15.986c.28 0 .507.224.507.5s-.227.5-.507.5h-15.986c-.28 0-.507-.224-.507-.5z" fill="#fff"/><path d="M541 214.732c0-1.509-1.181-2.732-2.621-2.732h-42.772c-1.44 0-2.607 1.223-2.607 2.732v23.215c0 1.502 1.037 2.915 2.471 2.924l15.538.165c1.324.008.896 2.742.964 4.128.116 2.37 1.748 2.819 3.21 1.006l4.208-4.289c.499-.618 1.065-.724 1.838-.719l17.15-.157c1.445.008 2.621-1.218 2.621-2.732v-23.541z" fill="#9ADAF3"/><path fill-rule="evenodd" clip-rule="evenodd" d="M520.092 242.652l.031-.038c.312-.387.762-.599 1.224-.596h17.027c2.036.011 3.626-1.704 3.626-3.739v-23.54c0-2.035-1.599-3.739-3.621-3.739h-42.772c-2.028 0-3.607 1.711-3.607 3.739v23.213c0 2.019 1.57 4.053 3.587 4.068h.003l15.397-.028v1.999s-.02.855 0 1.27c.065 1.328.572 2.576 1.8 2.945 1.183.355 2.325-.365 3.14-1.356l4.165-4.198zm-4.909 3.522c-1.462 1.813-3.049 1.335-3.165-1.035-.018-.358-.017-3.119-.017-3.119s-.031-1.002-1.014-1.008h-15.39c-1.434-.009-2.597-1.558-2.597-3.06v-23.213c0-1.508 1.167-2.731 2.607-2.731h42.772c1.44 0 2.621 1.223 2.621 2.731v23.54c0 1.514-1.176 2.739-2.621 2.731h-17.027c-.772-.004-1.507.35-2.005.968l-4.164 4.196z" fill="#333"/><path fill-rule="evenodd" clip-rule="evenodd" d="M504 223c0-.552.453-1 1.011-1h25.978c.558 0 1.011.448 1.011 1s-.453 1-1.011 1h-25.978c-.558 0-1.011-.448-1.011-1zM504 228.5c0-.276.218-.5.488-.5h17.025c.269 0 .487.224.487.5s-.218.5-.487.5h-17.025c-.27 0-.488-.224-.488-.5z" fill="#fff"/><path d="M456 177.787c0-1.539 1.181-2.787 2.621-2.787h42.772c1.44 0 2.607 1.248 2.607 2.787v23.69c0 1.532-1.158 2.778-2.591 2.787l-15.38.197c-1.324.008-.743 2.916-.811 4.33-.116 2.419-2.086 2.876-3.548 1.027l-4.061-4.327c-.499-.631-1.233-.993-2.005-.989l-16.983.095c-1.445.008-2.621-1.242-2.621-2.787v-24.023z" fill="url(#paint19_linear)"/><path fill-rule="evenodd" clip-rule="evenodd" d="M476.864 205.592l-.031-.039c-.312-.387-.762-.599-1.224-.596l-16.983.092c-2.036.012-3.626-1.705-3.626-3.743v-23.563c0-2.037 1.599-3.743 3.621-3.743h42.772c2.028 0 3.607 1.713 3.607 3.743v23.527c0 2.02-1.564 3.728-3.582 3.743h-.003L486.004 205v1.684s0 1.223-.021 1.639c-.065 1.33-.542 2.551-1.77 2.921-1.183.355-2.325-.365-3.14-1.358l-4.209-4.294zm4.953 3.618c1.462 1.815 3.049 1.398 3.165-.974.018-.358 0-3.223 0-3.223s0-1.009 1.001-1.009h15.426c1.433-.009 2.591-1.231 2.591-2.734v-23.527c0-1.51-1.167-2.734-2.607-2.734h-42.772c-1.44 0-2.621 1.224-2.621 2.734v23.563c0 1.516 1.176 2.742 2.621 2.734l16.983-.092c.772-.005 1.506.35 2.005.969l4.208 4.293z" fill="#333"/><path fill-rule="evenodd" clip-rule="evenodd" d="M465.231 185.974c0-.553.448-1 1-1h25.693c.552 0 1 .447 1 1 0 .552-.448 1-1 1h-25.693c-.552 0-1-.448-1-1zM465.231 191.488c0-.285.224-.517.5-.517h17.462c.276 0 .5.232.5.517 0 .286-.224.517-.5.517h-17.462c-.276 0-.5-.231-.5-.517z" fill="#fff"/><path d="M319.128 350.879l-41.467-20.639 39.589-23.209 46.469 22.763-44.591 21.085z" fill="#EFEFEF"/><path fill-rule="evenodd" clip-rule="evenodd" d="M364.5 330l-45 21 13 17.229L375 347l-10.5-17zm-45 65l45-21.5V352l-31 16c-.429.219-1.206.387-1.5 0l-12.5-16.415V395z" fill="#BDECFF"/><path d="M319 351l-41-21-13.5 17 40 21.5L319 351z" fill="#9ADAF3"/><path d="M319 351.5l-14 17c-.304.371-.581.224-1 0l-26-14.244-.5 17.244L319 395v-43.5z" fill="#9ADAF3"/><path fill-rule="evenodd" clip-rule="evenodd" d="M319 306l22.5-10.668-22.385-10.832L297 295.332 319 306z" fill="url(#paint20_linear)"/><path d="M319.5 332.5l22-11.5v-25.5l-22 10.5v26.5z" fill="url(#paint21_linear)"/><path d="M319 332.5L297 321v-25.5l22 10.5v26.5z" fill="url(#paint22_linear)"/><path fill-rule="evenodd" clip-rule="evenodd" d="M318.892 284.213c.136-.066.295-.067.432-.002l22.549 10.67c.175.082.286.258.286.451v23.139l22.573 11.152c.083.041.154.105.203.184l10.433 16.756c.074.119.094.263.057.398-.038.135-.13.248-.255.311l-10.309 5.254c.092.091.149.217.149.356v20.539c0 .193-.11.368-.284.451l-45.4 21.723c-.149.071-.323.064-.466-.018l-41.39-23.794c-.155-.089-.251-.254-.251-.433v-16.831c0-.049.007-.096.02-.141l-13.333-7.11c-.131-.07-.225-.196-.254-.342-.03-.146.007-.297.101-.413l13.577-16.756c.039-.047.085-.087.138-.118l19.019-11.07v-23.237c0-.192.11-.366.283-.45l22.122-10.669zm-21.403 34.651v-22.727l21.12 10.416v25.238l-21.12-11.034v-1.893zm-1.002.862l-17.718 10.313 40.351 20.321 44.227-20.306-21.188-10.468v1.473c0 .188-.105.359-.272.445l-22.548 11.558c-.145.074-.317.074-.462-.002l-22.121-11.558c-.165-.086-.269-.257-.269-.443v-1.333zm67.83 10.983l-44.431 20.4 12.721 16.733 41.622-21.213-9.912-15.92zm-45.99 20.372l-40.472-20.382-12.942 15.972 39.702 21.172 13.712-16.762zm.282 1.237l-13.479 16.476c-.151.185-.413.237-.624.124l-26.285-14.016v16.159l40.388 23.218v-41.961zm1.002 42.032l44.397-21.243v-20.146l-31.318 15.962c-.217.11-.481.05-.628-.143l-12.451-16.379v41.949zm0-62.551l21.546-11.045V296.13l-21.546 10.426v25.243zm-.499-26.113l21.388-10.349-21.388-10.12-20.983 10.12 20.983 10.349zm35.484-13.36c.277 0 .501.224.501.5v14.793c0 .276-.224.5-.501.5-.276 0-.501-.224-.501-.5v-14.793c0-.276.225-.5.501-.5zm-73.518 1.333c.277 0 .501.224.501.5v8.27c0 .276-.224.5-.501.5s-.501-.224-.501-.5v-8.27c0-.276.224-.5.501-.5zm0 14.122c.277 0 .501.224.501.5v8.765c0 .276-.224.5-.501.5s-.501-.224-.501-.5v-8.765c0-.276.224-.5.501-.5zm73.518 4.742c.277 0 .501.223.501.499v2.862c0 .276-.224.5-.501.5-.276 0-.501-.224-.501-.5v-2.862c0-.276.225-.499.501-.499z" fill="#333"/><defs><linearGradient id="paint0_linear" x1="100.276" y1="362.961" x2="100.276" y2="387.905" gradientUnits="userSpaceOnUse"><stop stop-color="#FF8E3D"/><stop offset="1" stop-color="#FF6F3D"/></linearGradient><linearGradient id="paint1_linear" x1="75.5168" y1="348.129" x2="75.5168" y2="359.104" gradientUnits="userSpaceOnUse"><stop stop-color="#FF8E3D"/><stop offset="1" stop-color="#FF6F3D"/></linearGradient><linearGradient id="paint2_linear" x1="108.998" y1="173.531" x2="115.984" y2="195.308" gradientUnits="userSpaceOnUse"><stop stop-color="#FFC671"/><stop offset=".59375" stop-color="#FF7541"/><stop offset="1" stop-color="#FF6F3D"/></linearGradient><linearGradient id="paint3_linear" x1="109.998" y1="235.623" x2="119.984" y2="246.025" gradientUnits="userSpaceOnUse"><stop stop-color="#FFC671"/><stop offset=".59375" stop-color="#FF7541"/><stop offset="1" stop-color="#FF6F3D"/></linearGradient><linearGradient id="paint4_linear" x1="109.998" y1="220.609" x2="119.998" y2="231" gradientUnits="userSpaceOnUse"><stop stop-color="#FFC671"/><stop offset=".59375" stop-color="#FF7541"/><stop offset="1" stop-color="#FF6F3D"/></linearGradient><linearGradient id="paint5_linear" x1="109.998" y1="205.609" x2="119.998" y2="216" gradientUnits="userSpaceOnUse"><stop stop-color="#FFC671"/><stop offset=".59375" stop-color="#FF7541"/><stop offset="1" stop-color="#FF6F3D"/></linearGradient><linearGradient id="paint6_linear" x1="332.5" y1="71.0703" x2="343.508" y2="81.9881" gradientUnits="userSpaceOnUse"><stop stop-color="#FFC671"/><stop offset=".59375" stop-color="#FF7541"/><stop offset="1" stop-color="#FF6F3D"/></linearGradient><linearGradient id="paint7_linear" x1="275.125" y1="118.539" x2="315.058" y2="181.775" gradientUnits="userSpaceOnUse"><stop stop-color="#FFC671"/><stop offset=".652615" stop-color="#FF8657"/></linearGradient><linearGradient id="paint8_linear" x1="301" y1="80.5571" x2="301" y2="84.5571" gradientUnits="userSpaceOnUse"><stop stop-color="#FF8E3D"/><stop offset="1" stop-color="#FF6F3D"/></linearGradient><linearGradient id="paint9_linear" x1="230.503" y1="551" x2="230.503" y2="571" gradientUnits="userSpaceOnUse"><stop stop-color="#FF8E3D"/><stop offset="1" stop-color="#FF6F3D"/></linearGradient><linearGradient id="paint10_linear" x1="240.503" y1="548" x2="240.503" y2="571" gradientUnits="userSpaceOnUse"><stop stop-color="#FF8E3D"/><stop offset="1" stop-color="#FF6F3D"/></linearGradient><linearGradient id="paint11_linear" x1="250.503" y1="543" x2="250.503" y2="571" gradientUnits="userSpaceOnUse"><stop stop-color="#FF8E3D"/><stop offset="1" stop-color="#FF6F3D"/></linearGradient><linearGradient id="paint12_linear" x1="260.503" y1="540" x2="260.503" y2="571" gradientUnits="userSpaceOnUse"><stop stop-color="#FF8E3D"/><stop offset="1" stop-color="#FF6F3D"/></linearGradient><linearGradient id="paint13_linear" x1="270.503" y1="532" x2="270.503" y2="571" gradientUnits="userSpaceOnUse"><stop stop-color="#FF8E3D"/><stop offset="1" stop-color="#FF6F3D"/></linearGradient><linearGradient id="paint14_linear" x1="418" y1="529" x2="418" y2="535" gradientUnits="userSpaceOnUse"><stop stop-color="#FF8E3D"/><stop offset="1" stop-color="#FF6F3D"/></linearGradient><linearGradient id="paint15_linear" x1="418" y1="556.432" x2="418" y2="562.995" gradientUnits="userSpaceOnUse"><stop stop-color="#FF8E3D"/><stop offset="1" stop-color="#FF6F3D"/></linearGradient><linearGradient id="paint16_linear" x1="454" y1="503.766" x2="457.341" y2="514.759" gradientUnits="userSpaceOnUse"><stop stop-color="#FFC671"/><stop offset=".59375" stop-color="#FF7541"/><stop offset="1" stop-color="#FF6F3D"/></linearGradient><linearGradient id="paint17_linear" x1="557.197" y1="389.498" x2="588.964" y2="422.639" gradientUnits="userSpaceOnUse"><stop stop-color="#FFC671"/><stop offset=".59375" stop-color="#FF7541"/><stop offset="1" stop-color="#FF6F3D"/></linearGradient><linearGradient id="paint18_linear" x1="500" y1="379.75" x2="531.329" y2="418.406" gradientUnits="userSpaceOnUse"><stop stop-color="#FFC671"/><stop offset=".59375" stop-color="#FF7541"/><stop offset="1" stop-color="#FF6F3D"/></linearGradient><linearGradient id="paint19_linear" x1="480" y1="175" x2="480" y2="210.953" gradientUnits="userSpaceOnUse"><stop stop-color="#FF8E3D"/><stop offset="1" stop-color="#FF6F3D"/></linearGradient><linearGradient id="paint20_linear" x1="297" y1="283.66" x2="313.452" y2="319.042" gradientUnits="userSpaceOnUse"><stop stop-color="#FFC671"/><stop offset=".59375" stop-color="#FF7541"/><stop offset="1" stop-color="#FF6F3D"/></linearGradient><linearGradient id="paint21_linear" x1="319.93" y1="306.832" x2="342.797" y2="310.338" gradientUnits="userSpaceOnUse"><stop stop-color="#FFC671"/><stop offset=".770352" stop-color="#FF7541"/><stop offset="1" stop-color="#FF6F3D"/></linearGradient><linearGradient id="paint22_linear" x1="297.775" y1="296.581" x2="299.254" y2="334.171" gradientUnits="userSpaceOnUse"><stop stop-color="#FFC671"/><stop offset=".59375" stop-color="#FF7541"/><stop offset="1" stop-color="#FF6F3D"/></linearGradient></defs></svg>