<svg width="544" height="104" viewBox="0 0 544 104" fill="none" xmlns="http://www.w3.org/2000/svg">
<path d="M502.075 40.4701C503.795 40.8265 505.56 41.0557 507.332 41.1003C506.867 42.7061 506.488 44.2433 506.166 45.7165C505.901 46.9257 505.677 48.7884 505.477 50.5789C505.439 50.9164 505.402 51.2512 505.366 51.5793C505.209 53.0117 505.066 54.3143 504.927 55.1356C504.897 55.3115 504.868 55.4868 504.838 55.6614C503.954 60.9086 503.174 65.5411 500.499 69.6236C497.764 73.7963 493.004 77.4525 483.929 80.4748C475.05 77.6896 470.3 73.9475 467.558 69.7192C464.786 65.4448 464.02 60.6144 463.218 55.541C463.09 54.7349 462.96 53.5156 462.814 52.1628C462.767 51.7234 462.719 51.2699 462.668 50.8119C462.464 48.9641 462.23 47.0431 461.941 45.7739C461.605 44.3001 461.199 42.7666 460.687 41.1692C462.434 41.114 464.2 40.8626 465.935 40.4788C470.725 39.4193 475.317 37.342 478.702 35.5382C480.397 34.6351 481.795 33.7976 482.769 33.1854C483.257 32.8792 483.639 32.6292 483.9 32.4553C483.939 32.4289 483.976 32.4043 484.01 32.3815C484.041 32.4036 484.075 32.4273 484.112 32.4526C484.365 32.6285 484.736 32.8811 485.212 33.19C486.163 33.8079 487.532 34.6518 489.207 35.5591C492.553 37.3714 497.141 39.4474 502.075 40.4701Z" fill="url(#paint0_linear_16_79204)" stroke="#333333"/>
<path fill-rule="evenodd" clip-rule="evenodd" d="M492.537 49.4147C493.274 50.1313 493.301 51.321 492.598 52.0717L482.981 63.2799C482.633 63.6514 482.151 63.8616 481.647 63.8616C481.142 63.8616 480.66 63.6514 480.312 63.2799L475.448 58.0894C474.744 57.3386 474.772 56.149 475.509 55.4323C476.246 54.7157 477.414 54.7433 478.117 55.4941L481.647 59.2605L489.929 49.4765C490.632 48.7257 491.8 48.698 492.537 49.4147Z" fill="white"/>
<path d="M493.996 22.7119C493.996 21.7522 494.765 21 495.709 21H521.283C522.244 21 522.996 21.7698 522.996 22.7119V48.2882C522.996 49.2468 522.227 50 521.283 50H495.709C494.748 50 493.996 49.2295 493.996 48.2882V22.7119Z" fill="white" stroke="#333333"/>
<path fill-rule="evenodd" clip-rule="evenodd" d="M505.903 38.4361L508.245 36.0293H504.725H504.716C502.766 36.0293 501.187 37.6522 501.187 39.6556C501.187 41.6589 502.766 43.2818 504.716 43.2818C504.863 43.2818 505.01 43.2727 505.153 43.2543C504.381 41.6956 504.631 39.7381 505.898 38.4361H505.903Z" fill="#8BDC01"/>
<path fill-rule="evenodd" clip-rule="evenodd" d="M508.762 39.6512V36.245L506.273 38.8031L506.269 38.8077C504.89 40.2243 504.89 42.5211 506.269 43.9376C507.647 45.3542 509.882 45.3542 511.261 43.9376C511.363 43.8322 511.462 43.7176 511.551 43.5984C509.931 43.0574 508.762 41.4942 508.762 39.6466V39.6512Z" fill="#8BDC01"/>
<path fill-rule="evenodd" clip-rule="evenodd" d="M511.618 38.4362L509.275 36.0293V39.6511C509.275 41.6546 510.855 43.2775 512.804 43.2775C514.754 43.2775 516.333 41.6546 516.333 39.6511C516.333 39.4998 516.324 39.3485 516.307 39.2018C514.79 39.9949 512.885 39.7382 511.618 38.4362Z" fill="#8BDC01"/>
<path fill-rule="evenodd" clip-rule="evenodd" d="M516.972 32.9307C516.869 32.8252 516.758 32.7244 516.642 32.6327C516.115 34.2968 514.594 35.4979 512.796 35.4979H509.481L511.971 38.056L511.975 38.0605C513.354 39.4771 515.589 39.4771 516.967 38.0605C518.346 36.644 518.346 34.3472 516.967 32.9307H516.972Z" fill="#8BDC01"/>
<path fill-rule="evenodd" clip-rule="evenodd" d="M512.8 27.7175C512.653 27.7175 512.506 27.7267 512.363 27.745C513.135 29.3038 512.885 31.2614 511.618 32.5634L509.275 34.9704H512.8C514.75 34.9704 516.329 33.3474 516.329 31.3439C516.329 29.3405 514.75 27.7175 512.8 27.7175Z" fill="#FBA100"/>
<path fill-rule="evenodd" clip-rule="evenodd" d="M511.252 27.0624C509.873 25.6459 507.638 25.6459 506.259 27.0624C506.157 27.1679 506.059 27.2825 505.969 27.4017C507.589 27.9427 508.758 29.506 508.758 31.3535V34.7597L511.247 32.2016L511.252 32.197C512.63 30.7804 512.63 28.4836 511.252 27.067V27.0624Z" fill="#33AAFF"/>
<path fill-rule="evenodd" clip-rule="evenodd" d="M505.907 32.568L506.01 32.6735L508.245 34.9704H508.25V31.3531V31.3439C508.25 29.3405 506.67 27.7175 504.721 27.7175C502.771 27.7175 501.192 29.3405 501.192 31.3439C501.192 31.4952 501.2 31.6465 501.218 31.7932C502.735 31.0001 504.64 31.2614 505.912 32.5634L505.907 32.568Z" fill="#33AAFF"/>
<path fill-rule="evenodd" clip-rule="evenodd" d="M500.888 38.3307C500.915 38.2482 500.946 38.1611 500.978 38.0831C500.982 38.074 500.986 38.0602 500.991 38.0511C501.027 37.9639 501.067 37.8768 501.107 37.7943C501.116 37.776 501.125 37.7576 501.134 37.7393C501.178 37.6568 501.223 37.5743 501.268 37.4917C501.272 37.4826 501.276 37.4734 501.285 37.4688C501.33 37.3955 501.379 37.3221 501.428 37.2488C501.437 37.235 501.45 37.2213 501.459 37.2029C501.513 37.1296 501.571 37.0562 501.629 36.9829C501.642 36.9691 501.651 36.9553 501.665 36.9416C501.723 36.8728 501.781 36.8086 501.843 36.7445C501.848 36.7399 501.852 36.7307 501.861 36.7261C501.928 36.6574 501.995 36.5932 502.062 36.5336C502.075 36.5198 502.093 36.5061 502.106 36.4923C502.178 36.4327 502.245 36.3731 502.32 36.3181C502.329 36.3089 502.338 36.3043 502.352 36.2952C502.419 36.2447 502.49 36.1943 502.561 36.1485C502.575 36.1393 502.588 36.1301 502.606 36.121C502.682 36.0705 502.762 36.0247 502.842 35.9834C502.86 35.9743 502.878 35.9651 502.891 35.9559C502.972 35.9147 503.052 35.8734 503.137 35.8367C503.141 35.8367 503.146 35.8321 503.15 35.8321C503.235 35.7955 503.324 35.7634 503.413 35.7313C503.431 35.7267 503.454 35.7175 503.471 35.7129C503.561 35.6854 503.65 35.6579 503.739 35.6304C503.753 35.6258 503.766 35.6258 503.779 35.6212C503.864 35.5983 503.949 35.5846 504.034 35.5662C504.051 35.5617 504.065 35.5617 504.083 35.5571C504.176 35.5433 504.27 35.5296 504.364 35.5204C504.386 35.5204 504.404 35.5158 504.426 35.5158C504.524 35.5066 504.623 35.5021 504.725 35.5021H508.04L505.546 32.9393C504.167 31.5227 501.932 31.5227 500.554 32.9393C499.175 34.3559 499.175 36.6528 500.554 38.0694C500.656 38.1748 500.768 38.2757 500.879 38.3674C500.884 38.3582 500.888 38.3445 500.893 38.3353L500.888 38.3307Z" fill="#33AAFF"/>
<path fill-rule="evenodd" clip-rule="evenodd" d="M505.55 32.9395L507.527 34.9705H504.872L504.721 34.975C503.106 34.975 501.74 33.861 501.326 32.3344C502.668 31.5596 504.404 31.7613 505.546 32.9349L505.55 32.9395Z" fill="#017DFF"/>
<path fill-rule="evenodd" clip-rule="evenodd" d="M508.245 31.3487V34.2185L506.367 32.2885L506.26 32.183C505.118 31.0094 504.921 29.2307 505.675 27.8508C507.161 28.2818 508.245 29.68 508.245 31.3441V31.3533V31.3487Z" fill="#017DFF"/>
<path fill-rule="evenodd" clip-rule="evenodd" d="M511.266 32.1876L509.289 34.2185V31.4908L509.285 31.3349C509.285 29.6754 510.369 28.2725 511.855 27.8462C512.609 29.2261 512.412 31.0094 511.27 32.183L511.266 32.1876Z" fill="#017DFF"/>
<path fill-rule="evenodd" clip-rule="evenodd" d="M512.796 34.9656H510.003L511.881 33.0353L511.984 32.9253C513.126 31.7515 514.857 31.5498 516.2 32.3247C515.78 33.8514 514.42 34.9656 512.8 34.9656H512.791H512.796Z" fill="#FFE912"/>
<path fill-rule="evenodd" clip-rule="evenodd" d="M511.975 38.0468L509.998 36.0157H512.653L512.805 36.0111C514.42 36.0111 515.785 37.1252 516.2 38.652C514.857 39.4269 513.121 39.2251 511.979 38.0514L511.975 38.0468Z" fill="#47B41B"/>
<path fill-rule="evenodd" clip-rule="evenodd" d="M509.28 39.6325V36.7626L511.159 38.6927L511.266 38.7981C512.408 39.9718 512.604 41.7506 511.85 43.1305C510.364 42.6996 509.28 41.3013 509.28 39.6371V39.6279V39.6325Z" fill="#47B41B"/>
<path fill-rule="evenodd" clip-rule="evenodd" d="M506.282 38.8124L508.258 36.7816V39.5092L508.263 39.6651C508.263 41.3245 507.179 42.7273 505.693 43.1536C504.939 41.7738 505.135 39.9905 506.277 38.817L506.282 38.8124Z" fill="#47B41B"/>
<path fill-rule="evenodd" clip-rule="evenodd" d="M504.734 36.0336H507.527L505.648 37.9638L505.546 38.0739C504.404 39.2476 502.672 39.4493 501.33 38.6745C501.749 37.1477 503.11 36.0336 504.729 36.0336H504.738H504.734Z" fill="#47B41B"/>
<path fill-rule="evenodd" clip-rule="evenodd" d="M387.405 28.5624C387.153 28.922 387.016 29.4423 387.016 30.0244V72.148C387.016 73.2821 387.732 74.0001 388.393 74.0001H390.516C390.793 74.0001 391.016 74.2239 391.016 74.5001C391.016 74.7762 390.793 75.0001 390.516 75.0001H388.393C386.981 75.0001 386.016 73.6119 386.016 72.148V30.0244C386.016 29.3074 386.181 28.5656 386.587 27.9877C387.008 27.3885 387.667 27 388.546 27H390.516C390.793 27 391.016 27.2239 391.016 27.5C391.016 27.7761 390.793 28 390.516 28H388.546C387.999 28 387.643 28.2242 387.405 28.5624Z" fill="#333333"/>
<path fill-rule="evenodd" clip-rule="evenodd" d="M381.389 28.5624C381.137 28.922 381 29.4423 381 30.0244V72.1479C381 73.282 381.716 74 382.377 74H384.5C384.776 74 385 74.2239 385 74.5C385 74.7761 384.776 75 384.5 75H382.377C380.965 75 380 73.6118 380 72.1479V30.0244C380 29.3074 380.165 28.5656 380.571 27.9877C380.991 27.3885 381.65 27 382.53 27H384.5C384.776 27 385 27.2239 385 27.5C385 27.7761 384.776 28 384.5 28H382.53C381.983 28 381.627 28.2242 381.389 28.5624Z" fill="#333333"/>
<path fill-rule="evenodd" clip-rule="evenodd" d="M394.345 27C393.048 27 391.997 28.0421 391.997 29.3276V72.6724C391.997 73.9579 393.048 75 394.345 75H425.649C426.946 75 427.997 73.9579 427.997 72.6724V38.5C427.997 37.8827 427.75 37.2907 427.309 36.8541L418.12 27.6817C417.679 27.2452 417.082 27 416.459 27H394.345Z" fill="white"/>
<path d="M417.354 27.6464C417.211 27.5034 416.995 27.4607 416.809 27.5381C416.622 27.6154 416.5 27.7978 416.5 28V36.182C416.5 36.8578 416.664 37.4574 417.073 37.8877C417.487 38.3225 418.072 38.5001 418.732 38.5001H427C427.202 38.5001 427.385 38.3783 427.462 38.1915C427.539 38.0046 427.497 37.7896 427.354 37.6466L417.354 27.6464Z" fill="url(#paint1_linear_16_79204)" stroke="#333333" stroke-linecap="round" stroke-linejoin="round"/>
<path fill-rule="evenodd" clip-rule="evenodd" d="M426.605 37.5643L426.603 37.5619L417.415 28.3919L417.414 28.3906C417.362 28.3384 417.312 28.2887 417.27 28.2456L417.254 28.2295C417.206 28.1807 417.168 28.1426 417.134 28.1091C417.063 28.0411 417.033 28.018 417.02 28.0095C417.009 28.007 416.972 28 416.892 28H394.345C393.592 28 392.997 28.6025 392.997 29.3276V72.6724C392.997 73.3975 393.592 74 394.345 74H425.649C426.402 74 426.997 73.3975 426.997 72.6724V38.1093C426.997 38.0214 426.988 37.9827 426.985 37.9724C426.984 37.9666 426.983 37.9644 426.977 37.9542C426.966 37.9373 426.941 37.9031 426.876 37.8351C426.826 37.7819 426.773 37.7298 426.702 37.6592C426.673 37.631 426.641 37.5998 426.605 37.5643ZM418.12 27.6817L427.309 36.8541C427.338 36.8821 427.365 36.9091 427.392 36.9353C427.78 37.3182 427.997 37.5316 427.997 38.1093V72.6724C427.997 73.9579 426.946 75 425.649 75H394.345C393.048 75 391.997 73.9579 391.997 72.6724V29.3276C391.997 28.0421 393.048 27 394.345 27H416.892C417.446 27 417.637 27.1939 417.982 27.5436C418.025 27.5873 418.071 27.6333 418.12 27.6817Z" fill="#333333"/>
<rect x="372.5" y="57.4999" width="37" height="18" rx="1.5" fill="url(#paint2_linear_16_79204)" stroke="#333333"/>
<path d="M378.921 70.9999H377V61.9999H382.277V63.5635H378.921V65.8843H382.044V67.4417H378.921V70.9999Z" fill="white"/>
<path d="M386.031 65.9951H386.66C387.278 65.9951 387.733 65.8945 388.027 65.6934C388.321 65.4924 388.468 65.1763 388.468 64.7454C388.468 64.3186 388.317 64.0149 388.014 63.8344C387.716 63.6538 387.252 63.5635 386.623 63.5635H386.031V65.9951ZM386.031 67.5464V70.9999H384.078V61.9999H386.761C388.012 61.9999 388.938 62.2235 389.538 62.6709C390.139 63.1141 390.439 63.7892 390.439 64.6962C390.439 65.2256 390.29 65.6976 389.992 66.1121C389.694 66.5224 389.272 66.8446 388.726 67.0785C390.112 69.1018 391.014 70.4089 391.434 70.9999H389.268L387.07 67.5464H386.031Z" fill="white"/>
<path d="M397.895 70.9999H392.593V61.9999H397.895V63.5635H394.545V65.5395H397.662V67.1032H394.545V69.424H397.895V70.9999Z" fill="white"/>
<path d="M405.125 70.9999H399.822V61.9999H405.125V63.5635H401.775V65.5395H404.892V67.1032H401.775V69.424H405.125V70.9999Z" fill="white"/>
<path fill-rule="evenodd" clip-rule="evenodd" d="M295 30.6053C295 29.1684 296.16 28 297.596 28H345.404C346.84 28 348 29.1684 348 30.6053V71.3947C348 72.8316 346.84 74 345.404 74H314.001V73H345.404C346.283 73 347 72.2833 347 71.3947V30.6053C347 29.7167 346.283 29 345.404 29H297.596C296.717 29 296 29.7167 296 30.6053V46.1043H295V30.6053Z" fill="#333333"/>
<path d="M330.085 51.7204H323.877V51.0115C324.423 50.9782 324.875 50.9117 325.232 50.8118C325.596 50.712 325.778 50.5888 325.778 50.4424C325.778 50.3825 325.771 50.3093 325.757 50.2228C325.743 50.1362 325.722 50.0597 325.694 49.9931L324.455 46.8182H319.235C319.039 47.2841 318.878 47.6901 318.751 48.0362C318.632 48.3823 318.524 48.7018 318.426 48.9947C318.335 49.2809 318.272 49.5139 318.237 49.6936C318.202 49.8733 318.184 50.0198 318.184 50.1329C318.184 50.3991 318.405 50.6055 318.846 50.7519C319.287 50.8984 319.784 50.9849 320.338 51.0115V51.7204H314.729V51.0115C314.911 50.9982 315.138 50.9616 315.411 50.9017C315.684 50.8351 315.908 50.7486 316.084 50.6421C316.364 50.4624 316.581 50.276 316.735 50.083C316.889 49.8833 317.039 49.6104 317.186 49.2643C317.936 47.4871 318.762 45.4903 319.665 43.2738C320.569 41.0573 321.374 39.0837 322.081 37.3531H322.921L327.89 49.5738C327.995 49.8334 328.114 50.043 328.247 50.2028C328.38 50.3625 328.565 50.519 328.804 50.6721C328.965 50.7652 329.175 50.8451 329.434 50.9117C329.693 50.9716 329.91 51.0049 330.085 51.0115V51.7204ZM324.077 45.9296L321.819 40.4383L319.602 45.9296H324.077Z" fill="url(#paint3_linear_16_79204)"/>
<path d="M336.902 50.4025H336.828C336.674 50.5223 336.489 50.6754 336.272 50.8618C336.062 51.0415 335.813 51.2145 335.526 51.3809C335.253 51.5473 334.955 51.6904 334.633 51.8102C334.311 51.9367 333.961 51.9999 333.583 51.9999C332.567 51.9999 331.769 51.6538 331.188 50.9616C330.614 50.2694 330.327 49.3242 330.327 48.1261C330.327 47.3007 330.488 46.4987 330.81 45.7199C331.132 44.9411 331.577 44.2422 332.144 43.6232C332.683 43.0308 333.324 42.5549 334.066 42.1955C334.808 41.8294 335.571 41.6463 336.356 41.6463C336.853 41.6463 337.326 41.7096 337.774 41.836C338.229 41.9625 338.586 42.1056 338.845 42.2654L340.767 41.7961L340.893 41.9459L339.297 48.3857C339.241 48.592 339.181 48.8449 339.118 49.1445C339.062 49.4373 339.034 49.6537 339.034 49.7934C339.034 50.1728 339.118 50.4291 339.286 50.5622C339.454 50.6953 339.738 50.7619 340.137 50.7619C340.27 50.7619 340.459 50.7419 340.704 50.702C340.949 50.6621 341.138 50.6188 341.271 50.5722L341.114 51.2112C340.484 51.4508 340.015 51.6239 339.706 51.7304C339.398 51.8369 339.024 51.8901 338.583 51.8901C338.078 51.8901 337.679 51.7503 337.385 51.4708C337.091 51.1912 336.93 50.8351 336.902 50.4025ZM338.404 44.0925C338.404 43.8728 338.379 43.6632 338.33 43.4635C338.281 43.2638 338.18 43.0774 338.026 42.9044C337.886 42.738 337.693 42.6048 337.448 42.505C337.203 42.4051 336.895 42.3552 336.524 42.3552C336.013 42.3552 335.515 42.515 335.032 42.8345C334.549 43.154 334.115 43.5833 333.73 44.1224C333.366 44.6283 333.068 45.2407 332.837 45.9595C332.606 46.6784 332.49 47.4072 332.49 48.1461C332.49 48.5521 332.515 48.9115 332.564 49.2243C332.613 49.5372 332.707 49.8234 332.847 50.083C332.981 50.3359 333.173 50.5323 333.425 50.6721C333.677 50.8118 333.996 50.8817 334.381 50.8817C334.773 50.8817 335.183 50.7785 335.61 50.5722C336.044 50.3592 336.531 49.9898 337.07 49.464L338.404 44.0925Z" fill="url(#paint4_linear_16_79204)"/>
<path d="M314.999 57.5016C314.999 57.5016 315 57.5016 315 57.5016L340.994 57.5941C340.993 57.5941 340.993 57.5941 340.994 57.5941L340.994 57.5941C340.997 57.5942 341.001 57.5944 341.009 57.5949C341.024 57.596 341.049 57.5983 341.08 57.603C341.144 57.613 341.222 57.6318 341.293 57.6641C341.363 57.6961 341.411 57.734 341.441 57.7751C341.467 57.8104 341.5 57.8745 341.5 58.0017V61.9813C341.5 61.9828 341.5 61.9845 341.499 61.9863C341.498 62.0012 341.494 62.0256 341.488 62.0561C341.475 62.1194 341.452 62.1971 341.414 62.2693C341.349 62.392 341.251 62.5016 341 62.5016H315C314.749 62.5016 314.651 62.392 314.586 62.2693C314.548 62.1971 314.525 62.1194 314.512 62.0561C314.506 62.0256 314.502 62.0012 314.501 61.9863C314.5 61.9845 314.5 61.9828 314.5 61.9813L314.501 58.0219C314.501 58.0203 314.501 58.0186 314.501 58.0166C314.503 58.0017 314.507 57.9774 314.513 57.9468C314.526 57.8835 314.549 57.8058 314.587 57.7337C314.651 57.6112 314.749 57.5018 314.999 57.5016Z" fill="#D9F4FF" stroke="#333333"/>
<path fill-rule="evenodd" clip-rule="evenodd" d="M308 46V39L309 39V46H308Z" fill="#333333"/>
<path fill-rule="evenodd" clip-rule="evenodd" d="M311 39H306V38H311V39Z" fill="#333333"/>
<rect x="284.5" y="50.5" width="25" height="23" rx="2.5" fill="url(#paint5_linear_16_79204)"/>
<rect x="284.5" y="50.5" width="25" height="23" rx="2.5" stroke="#333333"/>
<path d="M291 66.9688V64M298 66.9688V59.4375C298 57.625 296.888 56 294.491 56C292.094 56 291 57.75 291 59.4375V64M291 64H298M302 56.1713V66.9688" stroke="white" stroke-width="2" stroke-linecap="round" stroke-linejoin="round"/>
<circle cx="227.5" cy="50" r="28.5" fill="white" stroke="#333333"/>
<path d="M227.979 22.0041C212.518 21.7442 199.769 33.867 199.505 49.0809C199.355 57.7073 202.613 65.557 208.834 70.7129C209.241 70.3635 210.327 69.9466 210.812 69.6867L219.166 65.2025C220.262 64.614 220.944 63.4838 220.944 62.2549V58.8863C220.944 58.8863 218.492 56.0001 217.557 51.99C216.781 51.4961 216.261 50.6426 216.261 49.6704V45.9837C216.261 45.1727 216.628 44.448 217.198 43.9407V38.6112C217.198 38.6112 216.085 30.3175 227.499 30.3175C238.914 30.3175 237.801 38.6112 237.801 38.6112V43.9407C238.372 44.448 238.737 45.1727 238.737 45.9837V49.6704C238.737 50.9098 237.892 51.9526 236.744 52.3009C236.105 54.2565 235.183 56.1207 233.964 57.8154C233.656 58.2427 233.369 58.6046 233.117 58.8863V62.3402C233.117 63.6117 233.847 64.7752 235.003 65.3428L243.949 69.7439C244.486 70.0079 245.553 70.6288 246 71C252.033 66.049 255.349 58.3592 255.494 50.0229C255.76 34.809 243.441 22.264 227.979 22.0041Z" fill="url(#paint6_linear_16_79204)"/>
<path d="M253.222 63.4344C252.729 63.6574 252.15 63.4729 251.869 63.0033C251.602 62.5193 251.738 61.9077 252.183 61.5879C252.665 61.2201 252.763 60.5238 252.402 60.0327C250.869 57.9495 248.211 56.5348 245.721 56.0241C245.092 55.8927 244.489 56.3697 244.426 56.9995C244.399 57.5917 243.907 58.0497 243.326 58.0229C242.781 57.9977 242.346 57.554 242.321 56.9995C242.258 56.3694 241.655 55.8933 241.026 56.0241C238.448 56.5527 236.117 57.9394 234.398 59.9659C234 60.427 234.045 61.129 234.498 61.5338C234.95 61.9389 235.229 62.494 234.846 63.0717C234.554 63.5135 233.987 63.6682 233.516 63.4344C230.479 62.1208 231.668 70.8196 232.057 71.9047C232.251 72.4858 232.87 72.7971 233.44 72.6C234.01 72.4026 234.621 72.449 234.915 73.0684C235.141 73.5444 234.992 74.117 234.563 74.4156C234.081 74.7835 233.983 75.4798 234.344 75.9709C235.878 78.0542 238.535 79.4691 241.026 79.9795C241.656 80.1111 242.259 79.6328 242.321 79.0019C242.367 78.4097 242.875 77.9676 243.456 78.0144C243.974 78.0559 244.385 78.4746 244.426 79.0019C244.49 79.6376 245.107 80.1115 245.734 79.9774C248.312 79.4491 250.643 78.0624 252.362 76.0356C252.775 75.5562 252.699 74.7976 252.197 74.4136C251.718 74.0802 251.596 73.4151 251.923 72.928C252.216 72.4917 252.778 72.3392 253.246 72.5694C253.8 72.8081 254.44 72.5433 254.674 71.9781C255.683 69.5328 255.584 66.5583 254.703 64.099C254.321 63.3932 254.045 63.0798 253.222 63.4344ZM243.364 73.5579C240.352 73.5579 237.911 71.0709 237.911 68.0029C237.911 64.935 240.352 62.448 243.364 62.448C246.375 62.448 248.816 64.935 248.816 68.0029C248.816 71.0709 246.375 73.5579 243.364 73.5579Z" fill="#D9F4FF"/>
<path fill-rule="evenodd" clip-rule="evenodd" d="M251.002 63.5016L250.994 63.4869C250.678 62.9149 250.678 62.3509 250.858 61.8592C250.993 61.4892 251.235 61.1655 251.375 60.9772C251.389 60.9585 251.402 60.9411 251.414 60.9252C251.496 60.8146 251.548 60.74 251.587 60.6747C251.595 60.6611 251.602 60.6494 251.607 60.6393C251.604 60.6352 251.601 60.6306 251.597 60.6256C250.247 58.7912 247.839 57.4817 245.53 57.0059C245.494 57.0754 245.457 57.164 245.404 57.2959C245.396 57.3162 245.387 57.3386 245.377 57.3629C245.286 57.5964 245.128 57.9986 244.869 58.3198C244.515 58.7605 243.983 59.0545 243.279 59.0219C242.593 58.9902 242.115 58.6493 241.807 58.2297C241.584 57.925 241.439 57.5512 241.353 57.3292C241.341 57.2999 241.331 57.2733 241.322 57.2498C241.274 57.1314 241.24 57.0548 241.215 57.0062C238.864 57.491 236.734 58.7581 235.16 60.6129L235.155 60.6188C235.136 60.6414 235.125 60.6716 235.127 60.7073C235.129 60.743 235.144 60.7701 235.164 60.7885C235.972 61.5122 236.096 62.6216 235.74 63.4298C235.555 63.8498 235.211 64.2549 234.692 64.4533C234.168 64.6532 233.609 64.5891 233.101 64.3447C233.036 64.3175 232.992 64.3065 232.966 64.3023C232.944 64.3267 232.904 64.3793 232.855 64.4824C232.645 64.9219 232.518 65.7323 232.502 66.7858C232.486 67.7987 232.572 68.8978 232.686 69.8144C232.806 70.7679 232.943 71.4127 232.999 71.5674L233.003 71.5781L233.006 71.589C233.007 71.5915 233.008 71.5939 233.009 71.5963C233.014 71.5964 233.02 71.5965 233.026 71.5965C233.105 71.5969 233.201 71.5893 233.344 71.5747C233.365 71.5725 233.388 71.57 233.414 71.5673C233.657 71.5409 234.079 71.4951 234.478 71.575C235.027 71.685 235.523 72.0161 235.819 72.6397C236.094 73.2197 236.053 73.7695 235.865 74.2299C235.725 74.572 235.493 74.8771 235.356 75.0563C235.34 75.0779 235.325 75.0977 235.312 75.1154C235.233 75.2197 235.184 75.2896 235.149 75.3485C235.146 75.3543 235.143 75.3597 235.14 75.3646C235.143 75.3689 235.146 75.3735 235.15 75.3786C236.501 77.2129 238.908 78.5223 241.216 78.9977L241.218 78.9948C241.257 78.922 241.297 78.8303 241.355 78.6922C241.362 78.6733 241.371 78.6527 241.38 78.6305C241.476 78.3964 241.642 77.9899 241.915 77.669C242.289 77.2304 242.835 76.9612 243.537 77.0176C244.208 77.0715 244.664 77.4221 244.955 77.8245C245.166 78.1159 245.311 78.4728 245.398 78.6869C245.411 78.7185 245.422 78.7469 245.433 78.7716C245.478 78.8804 245.512 78.9517 245.536 78.9973C247.891 78.5141 250.024 77.2462 251.6 75.3888L251.605 75.3829C251.609 75.3782 251.612 75.3738 251.616 75.3698C251.611 75.3613 251.606 75.3517 251.6 75.3411C251.559 75.2701 251.503 75.1891 251.417 75.0701C251.405 75.0535 251.392 75.0354 251.377 75.016C251.23 74.8146 250.976 74.4668 250.845 74.0719C250.667 73.5379 250.708 72.943 251.093 72.3704C251.453 71.8348 251.951 71.5914 252.449 71.5261C252.814 71.4781 253.194 71.5309 253.414 71.5613C253.441 71.5651 253.465 71.5685 253.487 71.5713C253.619 71.5886 253.701 71.5948 253.75 71.5967M251.923 72.928C251.527 73.5179 251.863 73.9817 252.196 74.441C252.55 74.9292 252.899 75.4121 252.362 76.0356C250.643 78.0624 248.312 79.4491 245.734 79.9774C244.918 80.1517 244.695 79.6077 244.465 79.048C244.265 78.5613 244.06 78.0628 243.456 78.0144C242.741 77.9568 242.518 78.4959 242.298 79.0282C242.064 79.5921 241.834 80.1484 241.026 79.9795C238.535 79.4691 235.878 78.0542 234.344 75.9709C233.885 75.3459 234.22 74.902 234.56 74.4505C234.868 74.0424 235.181 73.6282 234.915 73.0684C234.621 72.4478 234.063 72.5056 233.508 72.5631C232.911 72.6249 232.318 72.6864 232.057 71.9048C231.668 70.8196 230.479 62.1209 233.516 63.4345C234.79 64.068 235.405 62.3466 234.498 61.5339C234.045 61.1291 234 60.4271 234.398 59.966C236.117 57.9396 238.448 56.5529 241.026 56.0243C241.846 55.8536 242.064 56.4062 242.288 56.9734C242.486 57.4777 242.69 57.9936 243.326 58.023C244.026 58.0554 244.24 57.516 244.451 56.9852C244.678 56.4142 244.901 55.853 245.721 56.0243C248.211 56.5349 250.869 57.9497 252.402 60.0328C252.859 60.6537 252.524 61.1059 252.186 61.5634C251.869 61.9912 251.549 62.4238 251.869 63.0034C252.227 63.6033 252.715 63.5419 253.212 63.4792C253.747 63.4117 254.294 63.3427 254.703 64.0991C255.584 66.5584 255.683 69.5329 254.674 71.9781C254.376 72.6993 253.83 72.6263 253.275 72.552C252.775 72.485 252.266 72.417 251.923 72.928ZM253.75 71.5967C254.637 69.4448 254.576 66.7688 253.79 64.5178C253.765 64.4776 253.746 64.4553 253.734 64.4437C253.723 64.4421 253.701 64.44 253.665 64.4403C253.6 64.4409 253.52 64.4485 253.393 64.4643C253.374 64.4666 253.354 64.4693 253.331 64.4723C253.114 64.501 252.713 64.554 252.321 64.4765C251.789 64.3712 251.334 64.0569 251.011 63.516L251.002 63.5016M253.72 64.4331C253.72 64.4331 253.724 64.4342 253.731 64.4406C253.723 64.4371 253.72 64.4331 253.72 64.4331ZM232.934 64.3006C232.934 64.3006 232.937 64.2997 232.944 64.2999C232.938 64.3011 232.934 64.3006 232.934 64.3006ZM243.364 74.5579C239.782 74.5579 236.911 71.6055 236.911 68.003C236.911 64.4005 239.782 61.4481 243.364 61.4481C246.945 61.4481 249.816 64.4005 249.816 68.003M243.364 74.5579C246.945 74.5579 249.816 71.6055 249.816 68.003L243.364 74.5579ZM237.911 68.003C237.911 71.0709 240.352 73.558 243.364 73.558C246.375 73.558 248.816 71.0709 248.816 68.003C248.816 64.9351 246.375 62.4481 243.364 62.4481C240.352 62.4481 237.911 64.9351 237.911 68.003Z" fill="#333333"/>
<path fill-rule="evenodd" clip-rule="evenodd" d="M254.543 61.3885C254.736 60.533 254.569 59.6028 254.014 58.8478L254.013 58.8469C252.118 56.2725 248.972 54.6498 246.126 54.0654C245.058 53.8437 244.063 54.2035 243.373 54.8745C242.684 54.204 241.69 53.845 240.624 54.0648C237.605 54.6839 234.881 56.306 232.876 58.6674C232.212 59.4433 231.993 60.4591 232.204 61.3914C232.054 61.4302 231.904 61.4821 231.754 61.5486C230.898 61.9289 230.415 62.6303 230.148 63.1886C229.639 64.2529 229.52 65.6264 229.502 66.7386C229.484 67.932 229.583 69.1778 229.71 70.1873C229.825 71.1088 229.989 72.0458 230.166 72.556C230.5 73.5377 231.286 74.2571 232.223 74.5348C232.001 75.412 232.161 76.377 232.733 77.1556L232.734 77.1565C234.629 79.7309 237.774 81.3537 240.621 81.938C241.69 82.16 242.686 81.7992 243.375 81.1268C244.074 81.8031 245.081 82.1586 246.142 81.9352C249.159 81.3155 251.88 79.694 253.884 77.3338C254.565 76.5382 254.772 75.4855 254.533 74.5335C255.404 74.2769 256.151 73.6387 256.522 72.7439L256.523 72.7405C257.752 69.7607 257.604 66.2663 256.585 63.4241L256.534 63.2817L256.462 63.1485C256.456 63.1376 256.45 63.1259 256.443 63.1135C256.278 62.8052 255.873 62.0515 255.1 61.6214C254.914 61.5174 254.727 61.4415 254.543 61.3885ZM251.869 63.0032C252.15 63.4728 252.729 63.6573 253.222 63.4343C254.045 63.0797 254.321 63.3932 254.703 64.099C255.584 66.5582 255.683 69.5328 254.674 71.978C254.44 72.5432 253.8 72.808 253.246 72.5693C252.778 72.3391 252.216 72.4916 251.923 72.9279C251.596 73.415 251.718 74.0801 252.197 74.4135C252.699 74.7975 252.775 75.5561 252.362 76.0355C250.643 78.0623 248.312 79.449 245.734 79.9773C245.107 80.1114 244.49 79.6375 244.426 79.0018C244.385 78.4745 243.974 78.0558 243.456 78.0143C242.875 77.9675 242.367 78.4096 242.321 79.0018C242.259 79.6327 241.656 80.111 241.026 79.9794C238.535 79.469 235.878 78.0541 234.344 75.9708C233.983 75.4797 234.081 74.7834 234.563 74.4156C234.992 74.1169 235.141 73.5443 234.915 73.0683C234.621 72.4489 234.01 72.4026 233.44 72.5999C232.87 72.797 232.251 72.4857 232.057 71.9047C231.668 70.8195 230.479 62.1207 233.516 63.4343C233.987 63.6681 234.554 63.5134 234.846 63.0716C235.229 62.494 234.95 61.9388 234.498 61.5337C234.045 61.1289 234 60.4269 234.398 59.9658C236.117 57.9394 238.448 56.5526 241.026 56.024C241.655 55.8932 242.258 56.3693 242.321 56.9995C242.346 57.5539 242.781 57.9976 243.326 58.0228C243.907 58.0497 244.399 57.5916 244.426 56.9995C244.489 56.3696 245.092 55.8926 245.721 56.024C248.211 56.5347 250.869 57.9494 252.402 60.0326C252.763 60.5237 252.665 61.22 252.183 61.5879C251.738 61.9076 251.602 62.5192 251.869 63.0032ZM248.816 68.0029C248.816 64.9349 246.375 62.4479 243.364 62.4479C240.352 62.4479 237.911 64.9349 237.911 68.0029C237.911 71.0708 240.352 73.5578 243.364 73.5578C246.375 73.5578 248.816 71.0708 248.816 68.0029Z" fill="white"/>
<g clip-path="url(#clip0_16_79204)">
<path fill-rule="evenodd" clip-rule="evenodd" d="M124.344 23.9998C123.047 23.9998 121.996 25.0419 121.996 26.3273V69.6722C121.996 70.9577 123.047 71.9998 124.344 71.9998H155.648C156.945 71.9998 157.996 70.9577 157.996 69.6722V35.4998C157.996 34.8824 157.749 34.2904 157.308 33.8539L148.119 24.6815C147.678 24.245 147.081 23.9998 146.458 23.9998H124.344Z" fill="white"/>
<path d="M147.354 24.6462C147.211 24.5032 146.995 24.4604 146.809 24.5378C146.622 24.6152 146.5 24.7975 146.5 24.9998V33.1817C146.5 33.8575 146.664 34.4572 147.073 34.8875C147.487 35.3222 148.072 35.4999 148.732 35.4999H157C157.202 35.4999 157.385 35.3781 157.462 35.1912C157.539 35.0044 157.497 34.7893 157.354 34.6463L147.354 24.6462Z" fill="url(#paint7_linear_16_79204)" stroke="#333333" stroke-linecap="round" stroke-linejoin="round"/>
<path fill-rule="evenodd" clip-rule="evenodd" d="M156.604 34.5641L156.602 34.5617L147.415 25.3917L147.413 25.3904C147.361 25.3382 147.311 25.2884 147.269 25.2454L147.253 25.2293C147.205 25.1804 147.167 25.1424 147.133 25.1089C147.062 25.0409 147.032 25.0177 147.019 25.0093C147.008 25.0068 146.971 24.9998 146.891 24.9998H123.344C122.591 24.9998 121.996 25.6023 121.996 26.3273V69.6722C121.996 70.3972 122.591 70.9998 123.344 70.9998H155.648C156.401 70.9998 156.996 70.3972 156.996 69.6722V35.1091C156.996 35.0212 156.987 34.9825 156.984 34.9721C156.983 34.9664 156.982 34.9641 156.976 34.9539C156.965 34.9371 156.94 34.9029 156.875 34.8348C156.825 34.7816 156.772 34.7295 156.701 34.659C156.672 34.6307 156.64 34.5995 156.604 34.5641ZM148.119 24.6815L157.308 33.8539C157.337 33.8819 157.364 33.9089 157.391 33.9351C157.779 34.3179 157.996 34.5313 157.996 35.1091V69.6722C157.996 70.9577 156.945 71.9998 155.648 71.9998H123.344C122.047 71.9998 120.996 70.9577 120.996 69.6722V26.3273C120.996 25.0419 122.047 23.9998 123.344 23.9998H146.891C147.445 23.9998 147.636 24.1936 147.981 24.5434C148.024 24.587 148.07 24.6331 148.119 24.6815Z" fill="#333333"/>
<path d="M137 42.9999H153V43.9999H137V42.9999Z" fill="#333333"/>
<path d="M137 45.9999H153V46.9999H137V45.9999Z" fill="#333333"/>
<path d="M137 48.9999H153V49.9999H137V48.9999Z" fill="#333333"/>
<path d="M137 42.9999H138V48.9999H137V45.9999V42.9999Z" fill="#333333"/>
<path d="M152 42.9999H153V48.9999H152V42.9999Z" fill="#333333"/>
<path d="M147 42.9999H148V48.9999H147V42.9999Z" fill="#333333"/>
<path d="M137 42.9999H138V48.9999H137V45.9999V42.9999Z" fill="#333333"/>
<path d="M142 42.9999H143V48.9999H142V42.9999Z" fill="#333333"/>
<path d="M127 35.9998H143V36.9998H128L127 35.9998Z" fill="#333333"/>
<path d="M127 29.9998H142V31.9998H127V29.9998Z" fill="#333333"/>
<path d="M130 38.9998H146V39.9998H131L130 38.9998Z" fill="#333333"/>
<path fill-rule="evenodd" clip-rule="evenodd" d="M108.342 36.0343C107.822 35.5144 107.846 34.6481 108.395 34.0995L112.066 30.4325C112.616 29.8839 113.482 29.8606 114.002 30.3806L130.356 46.7363C130.52 46.8995 130.831 47.1047 130.888 47.3318L131.911 52.2195C132.164 53.235 131.198 54.2 130.182 53.9464L125.292 52.849C125.065 52.7923 124.86 52.5532 124.696 52.39L108.342 36.0343Z" fill="url(#paint8_linear_16_79204)"/>
<path fill-rule="evenodd" clip-rule="evenodd" d="M125.003 52.3901C125.003 52.3901 125.347 52.1482 125.896 51.5996L129.567 47.9327C130.116 47.384 130.504 46.9999 130.504 46.9999C130.667 47.1631 130.832 47.1048 130.889 47.3319L131.912 52.2196C132.165 53.2351 131.199 54.2001 130.183 53.9465L125.293 52.8491C125.066 52.7924 125.167 52.5534 125.003 52.3901Z" fill="white"/>
<path fill-rule="evenodd" clip-rule="evenodd" d="M125.293 51.6108L109.076 35.5623C108.816 35.3024 108.802 34.9945 109.076 34.7202L112.7 31.1112C112.975 30.8368 113.147 30.8512 113.407 31.1112L129.726 47.3319C129.808 47.4135 129.9 47.8043 129.928 47.9179L131.019 52.3901C131.146 52.8979 130.69 53.091 130.182 52.9642L125.5 51.7762C125.387 51.7478 125.374 51.6924 125.293 51.6108ZM108.342 36.0344C107.822 35.5144 107.846 34.6482 108.395 34.0995L112.066 30.4326C112.615 29.884 113.482 29.8607 114.002 30.3806L130.357 46.7364C130.52 46.8996 130.832 47.1048 130.889 47.3319L131.911 52.2196C132.164 53.2351 131.198 54.2001 130.182 53.9465L125.293 52.8491C125.066 52.7924 124.86 52.5534 124.697 52.3901L108.342 36.0344Z" fill="#333333"/>
<path d="M114 36.7065L127.709 50.4155L128.417 49.7088L114.708 35.9998L114 36.7065Z" fill="white"/>
<path fill-rule="evenodd" clip-rule="evenodd" d="M129.887 47.5115L125.35 51.9744L126.033 52.67L130.572 48.2215L129.887 47.5115Z" fill="#333333"/>
<path fill-rule="evenodd" clip-rule="evenodd" d="M116.276 33.0086L111.009 38.2584L111.705 38.9721L116.968 33.7135L116.276 33.0086Z" fill="#333333"/>
<path fill-rule="evenodd" clip-rule="evenodd" d="M130.7 50.6844L128.705 52.8282L130.702 53.4999L131.504 52.4999L130.7 50.6844Z" fill="#333333"/>
<path d="M130.569 66.7863C130.569 72.4271 135.068 76.9999 140.617 76.9999C146.166 76.9999 150.664 72.4271 150.664 66.7863C150.664 61.1455 146.166 56.5728 140.617 56.5728C135.068 56.5728 130.569 61.1455 130.569 66.7863Z" fill="white"/>
<path d="M140.216 55.9999C144.999 56.0014 150.878 59.5872 150.998 66.387C151.052 69.5132 150.205 72.3579 147.935 74.2264C147.787 74.0998 147.049 73.9487 146.872 73.8545L143.824 72.2294C143.424 72.0162 143.175 71.6066 143.175 71.1613V69.9405C143.175 69.9405 144.07 68.8945 144.411 67.4413C144.694 67.2623 144.884 66.9529 144.884 66.6007V65.2646C144.884 64.9707 144.75 64.7081 144.542 64.5242V62.5928C144.542 62.5928 144.948 59.5872 140.783 59.5872C136.618 59.5872 137.024 62.5928 137.024 62.5928V64.5242C136.816 64.7081 136.683 64.9707 136.683 65.2646V66.6007C136.683 67.0498 136.991 67.4277 137.41 67.5539C137.643 68.2627 137.98 68.9382 138.425 69.5524C138.537 69.7072 138.642 69.8384 138.733 69.9405V71.1922C138.733 71.653 138.467 72.0746 138.045 72.2803L134.654 73.7071C134.459 73.8028 133.568 74.1981 133.405 74.3326C131.361 72.2556 130 70.0971 130 66.885C130 60.4398 135.517 55.9984 140.216 55.9999Z" fill="url(#paint9_linear_16_79204)"/>
<path d="M140.617 77.4999C134.784 77.4999 130.069 72.6955 130.069 66.7863C130.069 60.8771 134.784 56.0728 140.617 56.0728C146.45 56.0728 151.164 60.8771 151.164 66.7863C151.164 72.6955 146.45 77.4999 140.617 77.4999Z" stroke="#333333"/>
<path d="M140.569 66.7863C140.569 72.4271 145.068 76.9999 150.617 76.9999C156.166 76.9999 160.664 72.4271 160.664 66.7863C160.664 61.1455 156.166 56.5728 150.617 56.5728C145.068 56.5728 140.569 61.1455 140.569 66.7863Z" fill="white"/>
<path d="M150.216 55.9999C154.999 56.0014 160.878 59.5872 160.998 66.387C161.052 69.5132 160.205 72.3579 157.935 74.2264C157.787 74.0998 157.049 73.9487 156.872 73.8545L153.824 72.2294C153.424 72.0162 153.175 71.6066 153.175 71.1613V69.9405C153.175 69.9405 154.07 68.8945 154.411 67.4413C154.694 67.2623 154.884 66.9529 154.884 66.6007V65.2646C154.884 64.9707 154.75 64.7081 154.542 64.5242V62.5928C154.542 62.5928 154.948 59.5872 150.783 59.5872C146.618 59.5872 147.024 62.5928 147.024 62.5928V64.5242C146.816 64.7081 146.683 64.9707 146.683 65.2646V66.6007C146.683 67.0498 146.991 67.4277 147.41 67.5539C147.643 68.2627 147.98 68.9382 148.425 69.5524C148.537 69.7072 148.642 69.8384 148.733 69.9405V71.1922C148.733 71.653 148.467 72.0746 148.045 72.2803L144.654 73.7071C144.459 73.8028 143.568 74.1981 143.405 74.3326C141.361 72.2556 140 70.0971 140 66.885C140 60.4398 145.517 55.9984 150.216 55.9999Z" fill="#9ADAF3"/>
<path d="M150.617 77.4999C144.784 77.4999 140.069 72.6955 140.069 66.7863C140.069 60.8771 144.784 56.0728 150.617 56.0728C156.45 56.0728 161.164 60.8771 161.164 66.7863C161.164 72.6955 156.45 77.4999 150.617 77.4999Z" stroke="#333333"/>
<path d="M150.569 66.7863C150.569 72.4271 155.068 76.9999 160.617 76.9999C166.166 76.9999 170.664 72.4271 170.664 66.7863C170.664 61.1455 166.166 56.5728 160.617 56.5728C155.068 56.5728 150.569 61.1455 150.569 66.7863Z" fill="white"/>
<path d="M160.216 55.9999C164.999 56.0014 170.878 59.5872 170.998 66.387C171.052 69.5132 170.205 72.3579 167.935 74.2264C167.787 74.0998 167.049 73.9487 166.872 73.8545L163.824 72.2294C163.424 72.0162 163.175 71.6066 163.175 71.1613V69.9405C163.175 69.9405 164.07 68.8945 164.411 67.4413C164.694 67.2623 164.884 66.9529 164.884 66.6007V65.2646C164.884 64.9707 164.75 64.7081 164.542 64.5242V62.5928C164.542 62.5928 164.948 59.5872 160.783 59.5872C156.618 59.5872 157.024 62.5928 157.024 62.5928V64.5242C156.816 64.7081 156.683 64.9707 156.683 65.2646V66.6007C156.683 67.0498 156.991 67.4277 157.41 67.5539C157.643 68.2627 157.98 68.9382 158.425 69.5524C158.537 69.7072 158.642 69.8384 158.733 69.9405V71.1922C158.733 71.653 158.467 72.0746 158.045 72.2803L154.654 73.7071C154.459 73.8028 153.568 74.1981 153.405 74.3326C151.361 72.2556 150 70.0971 150 66.885C150 60.4398 155.517 55.9984 160.216 55.9999Z" fill="url(#paint10_linear_16_79204)"/>
<path d="M160.617 77.4999C154.784 77.4999 150.069 72.6955 150.069 66.7863C150.069 60.8771 154.784 56.0728 160.617 56.0728C166.45 56.0728 171.164 60.8771 171.164 66.7863C171.164 72.6955 166.45 77.4999 160.617 77.4999Z" stroke="#333333"/>
</g>
<path d="M54.5 28C54.5 26.6193 55.6193 25.5 57 25.5H76C77.3807 25.5 78.5 26.6193 78.5 28V47C78.5 48.3807 77.3807 49.5 76 49.5H57C55.6193 49.5 54.5 48.3807 54.5 47V28Z" stroke="#333333"/>
<path d="M62 31H72" stroke="#FF6F3D" stroke-width="2" stroke-linecap="round" stroke-linejoin="round"/>
<path d="M64.2472 62.2442L71.1678 65.993C71.5139 66.1804 71.5177 66.6758 71.1745 66.8686L64.2947 70.7325C63.9624 70.9191 63.5519 70.6803 63.5498 70.2992L63.509 62.6865C63.507 62.3065 63.913 62.0632 64.2472 62.2442Z" fill="url(#paint11_linear_16_79204)" stroke="#333333" stroke-linecap="round" stroke-linejoin="round"/>
<rect x="54.5" y="54.5" width="24" height="24" rx="2.5" stroke="#333333"/>
<rect x="29.5" y="58.5" width="16" height="16" rx="0.5" stroke="#333333"/>
<rect x="29.5" y="58.5" width="16" height="4" rx="0.5" fill="#D9F4FF" stroke="#333333"/>
<rect x="25.5" y="54.5" width="24" height="24" rx="2.5" stroke="#333333"/>
<path d="M60.437 43.0901C60.4405 43.083 60.4437 43.0757 60.4469 43.0684C60.5195 42.8969 60.8323 42.4893 61.4197 42.5002C62.0644 42.5122 62.3893 42.84 62.4581 42.9389L64.199 46.5H58.7956L59.4438 45.1535L60.437 43.0901Z" stroke="#333333" stroke-linecap="round" stroke-linejoin="round"/>
<path d="M66.779 39.3361C66.7828 39.3272 66.7863 39.3182 66.7895 39.3091C66.8639 39.0998 67.0529 38.7565 67.3601 38.4755C67.6586 38.2024 68.0543 37.9993 68.5681 38.0107C69.6812 38.0355 70.2854 38.7427 70.4299 39.0317L70.4305 39.0328L74.1886 46.5H63.7539L66.779 39.3361Z" stroke="#333333" stroke-linecap="round" stroke-linejoin="round"/>
<circle cx="60" cy="38" r="1.5" fill="url(#paint12_linear_16_79204)" stroke="#333333"/>
<rect x="25.5" y="25.5" width="24" height="24" rx="2.5" stroke="#333333"/>
<path fill-rule="evenodd" clip-rule="evenodd" d="M37.3958 35.5C37.3958 35.2239 37.6197 35 37.8958 35H45.5C45.7761 35 46 35.2239 46 35.5C46 35.7761 45.7761 36 45.5 36H37.8958C37.6197 36 37.3958 35.7761 37.3958 35.5ZM29 38.5186C29 38.2425 29.2239 38.0186 29.5 38.0186H45.5C45.7761 38.0186 46 38.2425 46 38.5186C46 38.7948 45.7761 39.0186 45.5 39.0186H29.5C29.2239 39.0186 29 38.7948 29 38.5186ZM29 41.5932C29 41.317 29.2239 41.0932 29.5 41.0932H37.9272C38.2034 41.0932 38.4272 41.317 38.4272 41.5932C38.4272 41.8693 38.2034 42.0932 37.9272 42.0932H29.5C29.2239 42.0932 29 41.8693 29 41.5932ZM29 44.5C29 44.2239 29.2239 44 29.5 44H36.2189C36.495 44 36.7189 44.2239 36.7189 44.5C36.7189 44.7761 36.495 45 36.2189 45H29.5C29.2239 45 29 44.7761 29 44.5ZM38.2814 44.5C38.2814 44.2239 38.5053 44 38.7814 44H45.5C45.7761 44 46 44.2239 46 44.5C46 44.7761 45.7761 45 45.5 45H38.7814C38.5053 45 38.2814 44.7761 38.2814 44.5Z" fill="#333333"/>
<path fill-rule="evenodd" clip-rule="evenodd" d="M29.5 35C29.2239 35 29 35.2239 29 35.5C29 35.7761 29.2239 36 29.5 36H35.5C35.7761 36 36 35.7761 36 35.5C36 35.2239 35.7761 35 35.5 35H29.5ZM40.5 41C40.2239 41 40 41.2239 40 41.5C40 41.7761 40.2239 42 40.5 42H45.5C45.7761 42 46 41.7761 46 41.5C46 41.2239 45.7761 41 45.5 41H40.5Z" fill="#FF6F3D"/>
<rect x="30" y="66" width="15" height="1" fill="#333333"/>
<rect x="30" y="70" width="15" height="1" fill="#333333"/>
<rect x="41" y="62" width="13" height="1" transform="rotate(90 41 62)" fill="#333333"/>
<rect x="36" y="62" width="13" height="1" transform="rotate(90 36 62)" fill="#333333"/>
<path d="M30 31H42" stroke="#333333" stroke-width="2" stroke-linecap="round" stroke-linejoin="round"/>
<defs>
<linearGradient id="paint0_linear_16_79204" x1="497.332" y1="75.1141" x2="462.015" y2="39.3801" gradientUnits="userSpaceOnUse">
<stop stop-color="#FF6F3D"/>
<stop offset="1" stop-color="#FF8E3D"/>
</linearGradient>
<linearGradient id="paint1_linear_16_79204" x1="417" y1="27.6094" x2="427" y2="38" gradientUnits="userSpaceOnUse">
<stop stop-color="#FFC671"/>
<stop offset="0.59375" stop-color="#FF7541"/>
<stop offset="1" stop-color="#FF6F3D"/>
</linearGradient>
<linearGradient id="paint2_linear_16_79204" x1="373" y1="57.3358" x2="385.816" y2="85.5362" gradientUnits="userSpaceOnUse">
<stop stop-color="#FF8E3D"/>
<stop offset="1" stop-color="#FF6F3D"/>
</linearGradient>
<linearGradient id="paint3_linear_16_79204" x1="314.729" y1="36.781" x2="326.872" y2="59.6471" gradientUnits="userSpaceOnUse">
<stop stop-color="#FF8E3D"/>
<stop offset="1" stop-color="#FF6F3D"/>
</linearGradient>
<linearGradient id="paint4_linear_16_79204" x1="314.729" y1="36.781" x2="326.872" y2="59.6471" gradientUnits="userSpaceOnUse">
<stop stop-color="#FF8E3D"/>
<stop offset="1" stop-color="#FF6F3D"/>
</linearGradient>
<linearGradient id="paint5_linear_16_79204" x1="284" y1="49.0625" x2="307.85" y2="75.9097" gradientUnits="userSpaceOnUse">
<stop stop-color="#FF8E3D"/>
<stop offset="1" stop-color="#FF6F3D"/>
</linearGradient>
<linearGradient id="paint6_linear_16_79204" x1="227.5" y1="22" x2="227.5" y2="71" gradientUnits="userSpaceOnUse">
<stop stop-color="#FF8E3D"/>
<stop offset="1" stop-color="#FF6F3D"/>
</linearGradient>
<linearGradient id="paint7_linear_16_79204" x1="147" y1="24.6091" x2="157" y2="34.9998" gradientUnits="userSpaceOnUse">
<stop stop-color="#FFC671"/>
<stop offset="0.59375" stop-color="#FF7541"/>
<stop offset="1" stop-color="#FF6F3D"/>
</linearGradient>
<linearGradient id="paint8_linear_16_79204" x1="107.177" y1="35.3166" x2="120.569" y2="27.3928" gradientUnits="userSpaceOnUse">
<stop stop-color="#FF8E3D"/>
<stop offset="1" stop-color="#FF6F3D"/>
</linearGradient>
<linearGradient id="paint9_linear_16_79204" x1="140.5" y1="55.9999" x2="140.5" y2="74.3326" gradientUnits="userSpaceOnUse">
<stop stop-color="#FF8E3D"/>
<stop offset="1" stop-color="#FF6F3D"/>
</linearGradient>
<linearGradient id="paint10_linear_16_79204" x1="160.5" y1="55.9999" x2="160.5" y2="74.3326" gradientUnits="userSpaceOnUse">
<stop stop-color="#FF8E3D"/>
<stop offset="1" stop-color="#FF6F3D"/>
</linearGradient>
<linearGradient id="paint11_linear_16_79204" x1="63" y1="60.5703" x2="73.9902" y2="70.9517" gradientUnits="userSpaceOnUse">
<stop stop-color="#FF8E3D"/>
<stop offset="1" stop-color="#FF6F3D"/>
</linearGradient>
<linearGradient id="paint12_linear_16_79204" x1="58" y1="35.8437" x2="62" y2="40" gradientUnits="userSpaceOnUse">
<stop stop-color="#FF8E3D"/>
<stop offset="1" stop-color="#FF6F3D"/>
</linearGradient>
<clipPath id="clip0_16_79204">
<rect width="64" height="64" fill="white" transform="translate(108 20)"/>
</clipPath>
</defs>
</svg>
