<svg width="324" height="96" viewBox="0 0 324 96" fill="none" xmlns="http://www.w3.org/2000/svg">
<path fill-rule="evenodd" clip-rule="evenodd" d="M66 73C66 74.1046 65.1046 75 64 75H29C27.3431 75 26 73.6569 26 72V22C26 20.8954 26.8954 20 28 20H57.445L66 28.5028V73Z" fill="white"/>
<path d="M45.5588 26H31.4412C31.1765 26 31 25.8 31 25.5C31 25.2 31.1765 25 31.4412 25H45.5588C45.8235 25 46 25.2 46 25.5C46 25.8 45.8235 26 45.5588 26Z" fill="#333333"/>
<path d="M45.5588 30H31.4412C31.1765 30 31 29.8 31 29.5C31 29.2 31.1765 29 31.4412 29H45.5588C45.8235 29 46 29.2 46 29.5C46 29.8 45.8235 30 45.5588 30Z" fill="#333333"/>
<path d="M56.5517 34H31.4483C31.1793 34 31 33.8 31 33.5C31 33.2 31.1793 33 31.4483 33H56.5517C56.8207 33 57 33.2 57 33.5C57 33.8 56.8207 34 56.5517 34Z" fill="#333333"/>
<path d="M56.5517 38H31.4483C31.1793 38 31 37.8 31 37.5C31 37.2 31.1793 37 31.4483 37H56.5517C56.8207 37 57 37.2 57 37.5C57 37.8 56.8207 38 56.5517 38Z" fill="#333333"/>
<path d="M46.5556 42H31.4444C31.1778 42 31 41.8 31 41.5C31 41.2 31.1778 41 31.4444 41H46.5556C46.8222 41 47 41.2 47 41.5C47 41.8 46.8222 42 46.5556 42Z" fill="#333333"/>
<path d="M39.55 46H31.45C31.18 46 31 45.8 31 45.5C31 45.2 31.18 45 31.45 45H39.55C39.82 45 40 45.2 40 45.5C40 45.8 39.82 46 39.55 46Z" fill="#333333"/>
<path d="M39.55 50H35.5H31.45C31.18 50 31 49.8 31 49.5C31 49.2 31.18 49 31.45 49H39.55C39.82 49 40 49.2 40 49.5C40 49.8 39.82 50 39.55 50Z" fill="#333333"/>
<path d="M28 64C26.3421 64 25 62.6579 25 61C25 59.3421 26.3421 58 28 58C29.6579 58 31 59.3421 31 61C31 62.6579 29.6579 64 28 64Z" fill="url(#paint0_linear_56_19465)"/>
<path fill-rule="evenodd" clip-rule="evenodd" d="M26 61C26 62.1056 26.8944 63 28 63C29.1056 63 30 62.1056 30 61C30 59.8944 29.1056 59 28 59C26.8944 59 26 59.8944 26 61ZM25 61C25 62.6579 26.3421 64 28 64C29.6579 64 31 62.6579 31 61C31 59.3421 29.6579 58 28 58C26.3421 58 25 59.3421 25 61Z" fill="#333333"/>
<path d="M38.5 65.0001C36.5658 65.0001 35 63.4343 35 61.5001C35 59.5659 36.5658 58.0001 38.5 58.0001C40.4342 58.0001 42 59.5659 42 61.5001C42 63.4343 40.4342 65.0001 38.5 65.0001Z" fill="url(#paint1_linear_56_19465)"/>
<path fill-rule="evenodd" clip-rule="evenodd" d="M36 61.5001C36 62.882 37.1181 64.0001 38.5 64.0001C39.8819 64.0001 41 62.882 41 61.5001C41 60.1181 39.8819 59.0001 38.5 59.0001C37.1181 59.0001 36 60.1181 36 61.5001ZM35 61.5001C35 63.4343 36.5658 65.0001 38.5 65.0001C40.4342 65.0001 42 63.4343 42 61.5001C42 59.5659 40.4342 58.0001 38.5 58.0001C36.5658 58.0001 35 59.5659 35 61.5001Z" fill="#333333"/>
<path d="M31.5063 72C31.3193 72 31.2257 71.9077 31.1322 71.8154C31.0387 71.7231 30.9452 71.5385 31.0387 71.3539C31.4128 69.0462 32.8154 67.1077 34.9661 66C35.9947 66.7385 37.2103 67.0154 38.5194 67.0154C39.735 67.0154 40.9506 66.6462 42.0727 66C44.2233 67.1077 45.7195 69.1385 46 71.3539C46 71.5385 46 71.6308 45.9065 71.8154C45.813 71.9077 45.626 72 45.5325 72H31.5063Z" fill="url(#paint2_linear_56_19465)"/>
<path fill-rule="evenodd" clip-rule="evenodd" d="M32.1304 71H44.9239C44.5818 69.4735 43.5478 68.053 42.0611 67.1405C40.9509 67.6929 39.7475 68.0154 38.5194 68.0154C37.2808 68.0154 36.048 67.7907 34.9364 67.1653C33.4954 68.0608 32.521 69.4108 32.1304 71ZM34.9661 66C35.9947 66.7385 37.2103 67.0154 38.5194 67.0154C39.735 67.0154 40.9506 66.6462 42.0727 66C44.2233 67.1077 45.7195 69.1385 46 71.3539C46 71.5385 46 71.6308 45.9065 71.8154C45.813 71.9077 45.626 72 45.5325 72H31.5063C31.3193 72 31.2257 71.9077 31.1322 71.8154C31.0387 71.7231 30.9452 71.5385 31.0387 71.3539C31.4128 69.0462 32.8154 67.1077 34.9661 66Z" fill="#333333"/>
<path d="M21.4786 71.8939C21.3018 71.8939 21.5671 71.606 21.4787 71.5C21.3903 71.3939 20.9481 71.3636 21.0365 71.1515C21.3902 68.5 23.4664 66.7727 25.4999 65.5C26.4725 66.3485 26.8719 66.1667 28.1097 66.1667C29.2591 66.1667 30.4389 66.2424 31.4999 65.5C31.6767 65.6061 31.8231 65.2121 31.9999 65.4242C30.4969 67.1212 29.5243 69.4545 29.1706 71.8939C29.1706 71.8939 29.1706 71.8939 29.1706 72L21.4786 71.8939Z" fill="url(#paint3_linear_56_19465)"/>
<path d="M25.0847 66.1053C26.1401 66.75 27.2834 67.1184 28.4267 67.1184C29.3941 67.1184 30.3616 66.8421 31.241 66.3816C30.1857 67.7632 29.3941 69.3289 29.1303 71.0789H21.9186C21.9186 71.0789 21.9186 71.0789 21.8306 71.0789C21.8306 71.0789 21.8306 71.0789 21.8306 70.9868C22.0945 68.9605 23.3257 67.1184 25.0847 66.1053ZM31.6808 65C30.7134 65.7368 29.658 66.1053 28.4267 66.1053C27.1954 66.1053 26.0521 65.6447 25.1726 65C22.9739 66.1053 21.3909 68.2237 21.0391 70.8947C20.8632 71.4474 21.3029 72 21.9186 72H29.9218C29.9218 71.8158 29.8339 71.7237 29.9218 71.5395C30.2736 69.2368 31.329 67.3026 33 65.8289C32.5603 65.5526 32.1205 65.2763 31.6808 65Z" fill="#333333"/>
<path d="M55 50H71V56.9987C65.8235 59.1196 60.1765 59.1196 55 56.9987V50Z" fill="#9ADAF3"/>
<path fill-rule="evenodd" clip-rule="evenodd" d="M55 49H71V57.2453L70.4872 57.4624C65.6452 59.5125 60.3548 59.5125 55.5128 57.4624L55 57.2453V49ZM55.8421 49.8392V56.69C60.4737 58.6511 65.5263 58.6511 70.1579 56.69V49.8392H55.8421Z" fill="#333333"/>
<path d="M63 42L76 47.5L63 53L50 47.5L63 42Z" fill="#9ADAF3"/>
<path fill-rule="evenodd" clip-rule="evenodd" d="M62.837 42.0316C62.9416 41.9895 63.0584 41.9895 63.163 42.0316L75.7241 47.0898C75.8907 47.1569 76 47.3193 76 47.5C76 47.6807 75.8907 47.8432 75.7241 47.9103L63.163 52.9684C63.0584 53.0105 62.9416 53.0105 62.837 52.9684L50.2759 47.9103C50.1093 47.8432 50 47.6807 50 47.5C50 47.3193 50.1093 47.1569 50.2759 47.0898L62.837 42.0316ZM51.6207 47.5L63 52.0823L74.3793 47.5L63 42.9178L51.6207 47.5Z" fill="#333333"/>
<path fill-rule="evenodd" clip-rule="evenodd" d="M49.1685 75C49.7217 75 49.7476 74 49.1685 74H65V63.5C65 63.2239 65.2239 63 65.5 63C65.7761 63 66 63.2239 66 63.5V74.5069C66 74.7792 65.7792 75 65.5068 75H49.1685Z" fill="#333333"/>
<path fill-rule="evenodd" clip-rule="evenodd" d="M29.5 74C29.2239 74 29 74.2239 29 74.5C29 74.7761 29.2239 75 29.5 75H49.1685C49.7217 75 49.7476 74 49.1685 74H29.5Z" fill="#333333"/>
<path fill-rule="evenodd" clip-rule="evenodd" d="M26 20.5091C26 20.2279 26.2296 20 26.5128 20H57.2821C57.4181 20 57.5485 20.0536 57.6447 20.1491L65.8498 28.2946C65.946 28.39 66 28.5195 66 28.6545V37.5C66 37.7761 65.7761 38 65.5 38C65.2239 38 65 37.7761 65 37.5V29L57 21H27.0073V53.4963C27.0073 53.7745 26.7818 54 26.5037 54C26.2255 54 26 53.7745 26 53.4963V20.5091Z" fill="#333333"/>
<path fill-rule="evenodd" clip-rule="evenodd" d="M65 29H57V21L65 29Z" fill="url(#paint4_linear_56_19465)"/>
<path fill-rule="evenodd" clip-rule="evenodd" d="M65 30C65.4045 30 65.7691 29.7564 65.9239 29.3827C65.9752 29.2589 66.0001 29.1289 66 29H65H57V21V20C56.8711 20 56.7411 20.0249 56.6173 20.0761C56.2436 20.2309 56 20.5956 56 21V29C56 29.5523 56.4477 30 57 30H65Z" fill="#333333"/>
<g clip-path="url(#clip0_56_19465)">
<path fill-rule="evenodd" clip-rule="evenodd" d="M142 75H105C103.343 75 102 73.6569 102 72V22.0001C102 20.8955 102.895 20 104 20H133.445L142 28.5029V75Z" fill="white"/>
<path fill-rule="evenodd" clip-rule="evenodd" d="M102 20.5091C102 20.228 102.23 20 102.513 20H133.282C133.418 20 133.548 20.0537 133.645 20.1492L141.85 28.2946C141.946 28.3901 142 28.5196 142 28.6546V43.9273C142 44.5774 141 44.5899 141 43.9273V29L133 21H103.007V74H125.169C125.748 74 125.722 75 125.169 75H102.504C102.22 75 102 74.7539 102 74.4728V20.5091Z" fill="#333333"/>
<path fill-rule="evenodd" clip-rule="evenodd" d="M141 29H133V21L141 29Z" fill="url(#paint5_linear_56_19465)"/>
<path fill-rule="evenodd" clip-rule="evenodd" d="M141 30C141.404 30 141.769 29.7564 141.924 29.3827C141.975 29.2589 142 29.1289 142 29H141H133V21V20C132.871 20 132.741 20.0249 132.617 20.0762C132.244 20.2309 132 20.5956 132 21V29C132 29.5523 132.448 30 133 30H141Z" fill="#333333"/>
<path d="M124.471 26H107.529C107.212 26 107 25.8 107 25.5C107 25.2 107.212 25 107.529 25H124.471C124.788 25 125 25.2 125 25.5C125 25.8 124.788 26 124.471 26Z" fill="#333333"/>
<path d="M124.471 30H107.529C107.212 30 107 29.8 107 29.5C107 29.2 107.212 29 107.529 29H124.471C124.788 29 125 29.2 125 29.5C125 29.8 124.788 30 124.471 30Z" fill="#333333"/>
<path d="M136.483 34H107.517C107.207 34 107 33.8 107 33.5C107 33.2 107.207 33 107.517 33H136.483C136.793 33 137 33.2 137 33.5C137 33.8 136.793 34 136.483 34Z" fill="#333333"/>
<path d="M136.483 38H107.517C107.207 38 107 37.8 107 37.5C107 37.2 107.207 37 107.517 37H136.483C136.793 37 137 37.2 137 37.5C137 37.8 136.793 38 136.483 38Z" fill="#333333"/>
<path d="M136.483 42H107.517C107.207 42 107 41.8 107 41.5C107 41.2 107.207 41 107.517 41H136.483C136.793 41 137 41.2 137 41.5C137 41.8 136.793 42 136.483 42Z" fill="#333333"/>
<path d="M124.471 46H107.529C107.212 46 107 45.8 107 45.5C107 45.2 107.212 45 107.529 45H124.471C124.788 45 125 45.2 125 45.5C125 45.8 124.788 46 124.471 46Z" fill="#333333"/>
<path d="M124.471 50H107.529C107.212 50 107 49.8 107 49.5C107 49.2 107.212 49 107.529 49H124.471C124.788 49 125 49.2 125 49.5C125 49.8 124.788 50 124.471 50Z" fill="#333333"/>
<path d="M124.471 54H107.529C107.212 54 107 53.8 107 53.5C107 53.2 107.212 53 107.529 53H124.471C124.788 53 125 53.2 125 53.5C125 53.8 124.788 54 124.471 54Z" fill="#333333"/>
<path d="M117.5 58H107.5C107.2 58 107 57.8 107 57.5C107 57.2 107.2 57 107.5 57H117.5C117.8 57 118 57.2 118 57.5C118 57.8 117.8 58 117.5 58Z" fill="#333333"/>
<path d="M117.5 62H107.5C107.2 62 107 61.8 107 61.5C107 61.2 107.2 61 107.5 61H117.5C117.8 61 118 61.2 118 61.5C118 61.8 117.8 62 117.5 62Z" fill="#333333"/>
<path d="M138.368 61H130.632C129.377 61 128.332 59.8621 128.541 58.6207L130.005 48.2759C130.109 47.2414 131.05 46.5173 132.096 46.5173H136.8C137.846 46.5173 138.682 47.2414 138.891 48.2759L140.355 58.6207C140.564 59.8621 139.623 61 138.368 61Z" fill="url(#paint6_linear_56_19465)"/>
<path fill-rule="evenodd" clip-rule="evenodd" d="M132.096 47.0345C131.276 47.0345 130.599 47.5972 130.525 48.3274C130.524 48.3341 130.523 48.3409 130.522 48.3476L129.057 58.7058C128.904 59.6109 129.679 60.4828 130.632 60.4828H138.369C139.285 60.4828 139.998 59.6466 139.839 58.7058L139.837 58.6925L138.376 48.3634C138.207 47.5592 137.573 47.0345 136.8 47.0345H132.096ZM129.486 48.2137C129.626 46.8809 130.828 46 132.096 46H136.8C138.115 46 139.15 46.9176 139.404 48.1745C139.406 48.1843 139.408 48.1942 139.409 48.2042L140.872 58.5427C141.127 60.082 139.959 61.5173 138.369 61.5173H130.632C129.079 61.5173 127.764 60.1176 128.024 58.5428L129.486 48.2137Z" fill="#333333"/>
<path d="M138.159 61H130.841V64.1035H138.159V61Z" fill="url(#paint7_linear_56_19465)"/>
<path fill-rule="evenodd" clip-rule="evenodd" d="M130.318 61.0001C130.318 60.7144 130.552 60.4828 130.841 60.4828H138.159C138.448 60.4828 138.682 60.7144 138.682 61.0001V64.1035C138.682 64.3892 138.448 64.6208 138.159 64.6208H130.841C130.552 64.6208 130.318 64.3892 130.318 64.1035V61.0001ZM131.364 61.5173V63.5863H137.637V61.5173H131.364Z" fill="#333333"/>
<path d="M138.16 68.2414H130.841C129.691 68.2414 128.75 67.3103 128.75 66.1724V64.1034H140.251V66.1724C140.251 67.3103 139.31 68.2414 138.16 68.2414Z" fill="url(#paint8_linear_56_19465)"/>
<path fill-rule="evenodd" clip-rule="evenodd" d="M128.228 64.1035C128.228 63.8178 128.462 63.5862 128.75 63.5862H140.25C140.539 63.5862 140.773 63.8178 140.773 64.1035V66.1724C140.773 67.596 139.598 68.7587 138.16 68.7587H130.841C129.403 68.7587 128.228 67.596 128.228 66.1724V64.1035ZM129.273 64.6207V66.1724C129.273 67.0247 129.98 67.7242 130.841 67.7242H138.16C139.021 67.7242 139.728 67.0247 139.728 66.1724V64.6207H129.273Z" fill="#333333"/>
<path fill-rule="evenodd" clip-rule="evenodd" d="M124.568 57.3793C124.857 57.3793 125.091 57.6109 125.091 57.8966V61C125.091 62.473 126.216 63.5862 127.705 63.5862H141.296C142.784 63.5862 143.909 62.473 143.909 61V57.8966C143.909 57.6109 144.143 57.3793 144.432 57.3793C144.721 57.3793 144.955 57.6109 144.955 57.8966V61C144.955 63.0443 143.362 64.6207 141.296 64.6207H127.705C125.639 64.6207 124.045 63.0443 124.045 61V57.8966C124.045 57.6109 124.279 57.3793 124.568 57.3793Z" fill="#333333"/>
<path fill-rule="evenodd" clip-rule="evenodd" d="M123 57.8966C123 57.6109 123.234 57.3793 123.523 57.3793H125.614C125.902 57.3793 126.136 57.6109 126.136 57.8966C126.136 58.1822 125.902 58.4138 125.614 58.4138H123.523C123.234 58.4138 123 58.1822 123 57.8966Z" fill="#333333"/>
<path fill-rule="evenodd" clip-rule="evenodd" d="M142.864 57.8966C142.864 57.6109 143.098 57.3793 143.387 57.3793H145.477C145.766 57.3793 146 57.6109 146 57.8966C146 58.1822 145.766 58.4138 145.477 58.4138H143.387C143.098 58.4138 142.864 58.1822 142.864 57.8966Z" fill="#333333"/>
<path fill-rule="evenodd" clip-rule="evenodd" d="M133.455 68.2415C133.455 67.9559 133.689 67.7243 133.977 67.7243H135.023C135.311 67.7243 135.546 67.9559 135.546 68.2415V75.4829C135.546 75.7686 135.311 76.0002 135.023 76.0002H133.977C133.689 76.0002 133.455 75.7686 133.455 75.4829V68.2415Z" fill="#333333"/>
<path fill-rule="evenodd" clip-rule="evenodd" d="M133.875 71.8723C133.909 71.8656 133.943 71.8622 133.978 71.8622H135.023C135.058 71.8622 135.092 71.8656 135.126 71.8723L140.353 72.9068C140.597 72.9551 140.773 73.1674 140.773 73.414V75.4829C140.773 75.7686 140.539 76.0002 140.25 76.0002C139.962 76.0002 139.728 75.7686 139.728 75.4829V73.838L134.971 72.8967H134.029L129.273 73.838V75.4829C129.273 75.7686 129.039 76.0002 128.75 76.0002C128.462 76.0002 128.228 75.7686 128.228 75.4829V73.414C128.228 73.1674 128.403 72.9551 128.648 72.9068L133.875 71.8723Z" fill="#333333"/>
</g>
<path fill-rule="evenodd" clip-rule="evenodd" d="M218 73C218 74.1046 217.105 75 216 75H181C179.343 75 178 73.6569 178 72V22C178 20.8954 178.895 20 180 20H209.445L218 28.5028V73Z" fill="white"/>
<path fill-rule="evenodd" clip-rule="evenodd" d="M181 74V75H201.169C201.722 75 201.748 74 201.169 74H181Z" fill="#333333"/>
<path fill-rule="evenodd" clip-rule="evenodd" d="M178 20.5091C178 20.2279 178.23 20 178.513 20H209.282C209.418 20 209.548 20.0536 209.645 20.1491L217.85 28.2946C217.946 28.39 218 28.5195 218 28.6545V38H217V29L209 21H179.007V54H178V20.5091Z" fill="#333333"/>
<path d="M181 75V74H179L179.007 54H178V75H181Z" fill="#333333"/>
<path d="M218 38H217V46.5C217 46.7761 217.224 47 217.5 47C217.776 47 218 46.7761 218 46.5V38Z" fill="#333333"/>
<path fill-rule="evenodd" clip-rule="evenodd" d="M201.169 74C201.748 74 201.722 75 201.169 75H217.925C217.966 75 218 74.9664 218 74.925V72.5C218 72.2239 217.776 72 217.5 72C217.224 72 217 72.2239 217 72.5V74H201.169Z" fill="#333333"/>
<path fill-rule="evenodd" clip-rule="evenodd" d="M217 29H209V21L217 29Z" fill="url(#paint9_linear_56_19465)"/>
<path fill-rule="evenodd" clip-rule="evenodd" d="M217 30C217.404 30 217.769 29.7564 217.924 29.3827C217.975 29.2589 218 29.1289 218 29H217H209V21V20C208.871 20 208.741 20.0249 208.617 20.0761C208.244 20.2309 208 20.5956 208 21V29C208 29.5523 208.448 30 209 30H217Z" fill="#333333"/>
<path d="M198.529 26H183.471C183.188 26 183 25.8 183 25.5C183 25.2 183.188 25 183.471 25H198.529C198.812 25 199 25.2 199 25.5C199 25.8 198.812 26 198.529 26Z" fill="#333333"/>
<path d="M198.529 30H183.471C183.188 30 183 29.8 183 29.5C183 29.2 183.188 29 183.471 29H198.529C198.812 29 199 29.2 199 29.5C199 29.8 198.812 30 198.529 30Z" fill="#333333"/>
<path d="M209.534 34H183.466C183.186 34 183 33.8 183 33.5C183 33.2 183.186 33 183.466 33H209.534C209.814 33 210 33.2 210 33.5C210 33.8 209.814 34 209.534 34Z" fill="#333333"/>
<path d="M209.534 38H183.466C183.186 38 183 37.8 183 37.5C183 37.2 183.186 37 183.466 37H209.534C209.814 37 210 37.2 210 37.5C210 37.8 209.814 38 209.534 38Z" fill="#333333"/>
<path d="M209.534 42H183.466C183.186 42 183 41.8 183 41.5C183 41.2 183.186 41 183.466 41H209.534C209.814 41 210 41.2 210 41.5C210 41.8 209.814 42 209.534 42Z" fill="#333333"/>
<path d="M198.529 46H183.471C183.188 46 183 45.8 183 45.5C183 45.2 183.188 45 183.471 45H198.529C198.812 45 199 45.2 199 45.5C199 45.8 198.812 46 198.529 46Z" fill="#333333"/>
<path d="M191.012 59.0001C189.019 59.0001 187.407 57.3001 187.407 55.2001C187.407 53.1001 189.019 51.4001 191.012 51.4001C193.004 51.4001 194.616 53.1001 194.616 55.2001C194.616 57.3001 193.004 59.0001 191.012 59.0001Z" fill="url(#paint10_linear_56_19465)"/>
<path d="M191.011 52C192.719 52 194.142 53.5 194.142 55.3C194.142 57.1 192.719 58.5 191.011 58.5C189.304 58.5 187.881 57 187.881 55.3C187.881 53.5 189.304 52 191.011 52ZM191.011 51C188.735 51 186.932 52.9 186.932 55.3C186.932 57.6 188.735 59.5 191.011 59.5C193.288 59.5 195.09 57.6 195.09 55.3C195.09 52.9 193.193 51 191.011 51Z" fill="#333333"/>
<path d="M212.83 59.0001C210.838 59.0001 209.225 57.3001 209.225 55.2001C209.225 53.1001 210.838 51.4001 212.83 51.4001C214.822 51.4001 216.435 53.1001 216.435 55.2001C216.435 57.3001 214.822 59.0001 212.83 59.0001Z" fill="url(#paint11_linear_56_19465)"/>
<path d="M212.83 52C214.538 52 215.961 53.5 215.961 55.3C215.961 57.1 214.538 58.5 212.83 58.5C211.123 58.5 209.7 57 209.7 55.3C209.7 53.5 211.123 52 212.83 52ZM212.83 51C210.553 51 208.751 52.9 208.751 55.3C208.751 57.6 210.553 59.5 212.83 59.5C215.107 59.5 216.909 57.6 216.909 55.3C216.909 52.9 215.012 51 212.83 51Z" fill="#333333"/>
<path d="M202.395 59.0001C200.403 59.0001 198.79 57.3001 198.79 55.2001C198.79 53.1001 200.403 51.4001 202.395 51.4001C204.387 51.4001 206 53.1001 206 55.2001C206 57.3001 204.387 59.0001 202.395 59.0001Z" fill="url(#paint12_linear_56_19465)"/>
<path d="M202.395 52C204.102 52 205.525 53.5 205.525 55.3C205.525 57.1 204.102 58.5 202.395 58.5C200.687 58.5 199.264 57 199.264 55.3C199.264 53.5 200.687 52 202.395 52ZM202.395 51C200.118 51 198.315 52.9 198.315 55.3C198.315 57.6 200.118 59.5 202.395 59.5C204.671 59.5 206.474 57.6 206.474 55.3C206.474 52.9 204.576 51 202.395 51Z" fill="#333333"/>
<path d="M195.375 67.5C195.185 67.5 195.09 67.4 194.995 67.3C194.901 67.2 194.806 67 194.901 66.8C195.28 64.3001 196.703 62.2001 198.885 61.0001C199.928 61.8001 201.162 62.1001 202.49 62.1001C203.723 62.1001 204.956 61.7001 206.095 61.0001C208.276 62.2001 209.794 64.4001 210.079 66.8C210.079 67 210.079 67.1 209.984 67.3C209.889 67.4 209.699 67.5 209.605 67.5H195.375Z" fill="url(#paint13_linear_56_19465)"/>
<path d="M205.999 61.6C207.896 62.8 209.225 64.7 209.509 66.9V67C209.509 67 209.509 67 209.414 67H195.374C195.374 67 195.374 67 195.279 67C195.279 67 195.279 67 195.279 66.9C195.564 64.7 196.892 62.7 198.789 61.6C199.928 62.3 201.161 62.7 202.394 62.7C203.628 62.6 204.861 62.3 205.999 61.6ZM205.904 60.4C204.861 61.2 203.722 61.6 202.394 61.6C201.066 61.6 199.833 61.1 198.884 60.4C196.513 61.6 194.805 63.9 194.426 66.8C194.331 67.5 194.805 68 195.469 68H209.604C210.268 68 210.742 67.4 210.647 66.8C210.078 63.9 208.276 61.6 205.904 60.4Z" fill="#333333"/>
<path d="M183.991 67.5C183.801 67.5 183.706 67.4 183.611 67.3C183.516 67.2 183.421 67 183.516 66.8C183.896 64.3001 185.319 62.2001 187.501 61.0001C188.544 61.8001 189.777 62.1001 191.105 62.1001C192.339 62.1001 193.572 61.7001 194.71 61.0001C194.9 61.1001 195.09 61.2001 195.28 61.4001C193.667 63.0001 192.623 65.2001 192.244 67.5C192.244 67.5 192.244 67.5 192.244 67.6H183.991V67.5Z" fill="url(#paint14_linear_56_19465)"/>
<path d="M187.406 61.6C188.544 62.3 189.778 62.7 191.011 62.7C192.054 62.7 193.098 62.4 194.046 61.9C192.908 63.4 192.054 65.1 191.77 67H183.991C183.991 67 183.991 67 183.896 67C183.896 67 183.896 67 183.896 66.9C184.181 64.7 185.509 62.7 187.406 61.6ZM194.521 60.4C193.477 61.2 192.339 61.6 191.011 61.6C189.683 61.6 188.449 61.1 187.501 60.4C185.129 61.6 183.422 63.9 183.042 66.8C182.852 67.4 183.327 68 183.991 68H192.623C192.623 67.8 192.529 67.7 192.623 67.5C193.003 65 194.141 62.9 195.944 61.3C195.469 61 194.995 60.7 194.521 60.4Z" fill="#333333"/>
<path d="M212.45 67.5C212.45 67.4 212.45 67.5 212.45 67.5C212.071 65.0001 210.932 62.8001 209.035 61.1001C209.13 61.0001 209.13 61.0001 209.225 61.0001C210.268 61.8001 211.502 62.1001 212.83 62.1001C214.158 62.1001 215.296 61.7001 216.435 61.0001C218.616 62.2001 220.134 64.4001 220.419 66.8C220.419 67 220.419 67.1 220.324 67.3C220.229 67.4 220.039 67.5 219.945 67.5H212.45Z" fill="url(#paint15_linear_56_19465)"/>
<path d="M216.434 61.6C218.332 62.8 219.66 64.7 219.944 66.9V67C219.944 67 219.944 67 219.849 67H212.829C212.545 65.3 211.881 63.7 210.837 62.3C211.501 62.5 212.165 62.6 212.829 62.6C214.063 62.6 215.296 62.3 216.434 61.6ZM216.339 60.4C215.296 61.2 214.157 61.6 212.829 61.6C211.501 61.6 210.268 61.1 209.319 60.4C208.94 60.6 208.655 60.8 208.276 61C210.173 62.6 211.596 64.8 211.976 67.5C211.976 67.7 211.976 67.8 211.976 68H219.944C220.608 68 221.083 67.4 220.988 66.8C220.513 63.9 218.711 61.6 216.339 60.4Z" fill="#333333"/>
<path fill-rule="evenodd" clip-rule="evenodd" d="M294 73C294 74.1046 293.105 75 292 75H257C255.343 75 254 73.6569 254 72V22C254 20.8954 254.895 20 256 20H285.445L294 28.5028V73Z" fill="white"/>
<path fill-rule="evenodd" clip-rule="evenodd" d="M257 74V75H277.169C277.722 75 277.748 74 277.169 74H257Z" fill="#333333"/>
<path fill-rule="evenodd" clip-rule="evenodd" d="M254 20.5091C254 20.2279 254.23 20 254.513 20H285.282C285.418 20 285.548 20.0536 285.645 20.1491L293.85 28.2946C293.946 28.39 294 28.5195 294 28.6545V38H293V29L285 21H255.007V54H254V20.5091Z" fill="#333333"/>
<path d="M257 75V74H255.007V54H254V75H257Z" fill="#333333"/>
<path fill-rule="evenodd" clip-rule="evenodd" d="M293 38H294V49.5C294 49.7761 293.776 50 293.5 50C293.224 50 293 49.7761 293 49.5V38Z" fill="#333333"/>
<path fill-rule="evenodd" clip-rule="evenodd" d="M277.169 75C277.722 75 277.748 74 277.169 74H285.5C285.776 74 286 74.2239 286 74.5C286 74.7761 285.776 75 285.5 75H277.169Z" fill="#333333"/>
<path fill-rule="evenodd" clip-rule="evenodd" d="M293 29H285V21L293 29Z" fill="url(#paint16_linear_56_19465)"/>
<path fill-rule="evenodd" clip-rule="evenodd" d="M293 30C293.404 30 293.769 29.7564 293.924 29.3827C293.975 29.2589 294 29.1289 294 29H293H285V21V20C284.871 20 284.741 20.0249 284.617 20.0761C284.244 20.2309 284 20.5956 284 21V29C284 29.5523 284.448 30 285 30H293Z" fill="#333333"/>
<path d="M274.529 26H259.471C259.188 26 259 25.8 259 25.5C259 25.2 259.188 25 259.471 25H274.529C274.812 25 275 25.2 275 25.5C275 25.8 274.812 26 274.529 26Z" fill="#333333"/>
<path d="M274.529 30H259.471C259.188 30 259 29.8 259 29.5C259 29.2 259.188 29 259.471 29H274.529C274.812 29 275 29.2 275 29.5C275 29.8 274.812 30 274.529 30Z" fill="#333333"/>
<path d="M285.534 34H259.466C259.186 34 259 33.8 259 33.5C259 33.2 259.186 33 259.466 33H285.534C285.814 33 286 33.2 286 33.5C286 33.8 285.814 34 285.534 34Z" fill="#333333"/>
<path d="M285.534 38H259.466C259.186 38 259 37.8 259 37.5C259 37.2 259.186 37 259.466 37H285.534C285.814 37 286 37.2 286 37.5C286 37.8 285.814 38 285.534 38Z" fill="#333333"/>
<path d="M285.534 42H259.466C259.186 42 259 41.8 259 41.5C259 41.2 259.186 41 259.466 41H285.534C285.814 41 286 41.2 286 41.5C286 41.8 285.814 42 285.534 42Z" fill="#333333"/>
<path d="M274.529 46H259.471C259.188 46 259 45.8 259 45.5C259 45.2 259.188 45 259.471 45H274.529C274.812 45 275 45.2 275 45.5C275 45.8 274.812 46 274.529 46Z" fill="#333333"/>
<path d="M274.529 50H259.471C259.188 50 259 49.8 259 49.5C259 49.2 259.188 49 259.471 49H274.529C274.812 49 275 49.2 275 49.5C275 49.8 274.812 50 274.529 50Z" fill="#333333"/>
<path d="M282.32 64.5121L279.267 67.565L272.463 60.7614L275.516 57.7086L282.32 64.5121Z" fill="url(#paint17_linear_56_19465)"/>
<path fill-rule="evenodd" clip-rule="evenodd" d="M275.188 57.3813C275.369 57.2005 275.662 57.2005 275.843 57.3813L282.647 64.1848C282.734 64.2717 282.782 64.3894 282.782 64.5122C282.782 64.635 282.734 64.7527 282.647 64.8396L279.594 67.8924C279.413 68.0732 279.12 68.0732 278.939 67.8924L272.136 61.0889C272.049 61.0021 272 60.8843 272 60.7615C272 60.6387 272.049 60.521 272.136 60.4342L275.188 57.3813ZM275.516 58.3634L273.118 60.7615L279.267 66.9103L281.665 64.5122L275.516 58.3634Z" fill="#333333"/>
<path d="M291.565 55.2664L288.513 58.3193L281.709 51.5157L284.762 48.4628L291.565 55.2664Z" fill="url(#paint18_linear_56_19465)"/>
<path fill-rule="evenodd" clip-rule="evenodd" d="M284.762 48C284.885 48 285.002 48.0487 285.089 48.1355L291.893 54.9391C292.074 55.1199 292.074 55.413 291.893 55.5938L288.84 58.6467C288.753 58.7335 288.635 58.7823 288.513 58.7823C288.39 58.7823 288.272 58.7335 288.185 58.6467L281.382 51.8431C281.201 51.6623 281.201 51.3692 281.382 51.1884L284.435 48.1355C284.521 48.0487 284.639 48 284.762 48ZM282.364 51.5158L288.513 57.6646L290.911 55.2665L284.762 49.1176L282.364 51.5158Z" fill="#333333"/>
<path d="M287.292 57.0981L281.099 63.2911L276.737 58.9299L282.93 52.7369L287.292 57.0981Z" fill="url(#paint19_linear_56_19465)"/>
<path fill-rule="evenodd" clip-rule="evenodd" d="M282.603 52.4096C282.783 52.2288 283.076 52.2288 283.257 52.4096L287.619 56.7708C287.705 56.8577 287.754 56.9754 287.754 57.0982C287.754 57.221 287.705 57.3387 287.619 57.4256L281.426 63.6185C281.245 63.7993 280.952 63.7993 280.771 63.6185L276.41 59.2573C276.229 59.0765 276.229 58.7834 276.41 58.6026L282.603 52.4096ZM282.93 53.3917L277.392 58.9299L281.098 62.6364L286.636 57.0982L282.93 53.3917Z" fill="#333333"/>
<path d="M296.537 70.0073L294.008 72.5368L282.93 61.3721L285.372 58.9298L296.537 70.0073Z" fill="url(#paint20_linear_56_19465)"/>
<path fill-rule="evenodd" clip-rule="evenodd" d="M285.045 58.6025C285.225 58.4222 285.517 58.4216 285.698 58.6012L296.863 69.6787C296.95 69.7654 297 69.8834 297 70.0065C297 70.1296 296.951 70.2477 296.864 70.3348L294.335 72.8643C294.248 72.9513 294.13 73.0001 294.006 72.9999C293.883 72.9996 293.765 72.9504 293.679 72.863L282.601 61.6982C282.422 61.5172 282.422 61.2251 282.602 61.0448L285.045 58.6025ZM285.373 59.5833L283.583 61.3734L294.009 71.8809L295.881 70.0087L285.373 59.5833Z" fill="#333333"/>
<path d="M265 66C266.657 66 268 64.6569 268 63C268 61.3431 266.657 60 265 60C263.343 60 262 61.3431 262 63C262 64.6569 263.343 66 265 66Z" fill="#BDECFF"/>
<path fill-rule="evenodd" clip-rule="evenodd" d="M265 60.8571C263.817 60.8571 262.857 61.8165 262.857 63C262.857 64.1835 263.817 65.1429 265 65.1429C266.183 65.1429 267.143 64.1835 267.143 63C267.143 61.8165 266.183 60.8571 265 60.8571ZM262 63C262 61.3431 263.343 60 265 60C266.657 60 268 61.3431 268 63C268 64.6569 266.657 66 265 66C263.343 66 262 64.6569 262 63Z" fill="#333333"/>
<path fill-rule="evenodd" clip-rule="evenodd" d="M265 58.9091C262.741 58.9091 260.909 60.7407 260.909 63C260.909 65.2593 262.741 67.0909 265 67.0909C267.259 67.0909 269.091 65.2593 269.091 63C269.091 60.7407 267.259 58.9091 265 58.9091ZM260 63C260 60.2386 262.239 58 265 58C267.761 58 270 60.2386 270 63C270 65.7614 267.761 68 265 68C262.239 68 260 65.7614 260 63Z" fill="#333333"/>
<defs>
<linearGradient id="paint0_linear_56_19465" x1="25.0074" y1="61.0396" x2="31.0194" y2="61.0396" gradientUnits="userSpaceOnUse">
<stop stop-color="#FFC671"/>
<stop offset="0.5938" stop-color="#FF7541"/>
<stop offset="1" stop-color="#FF6F3D"/>
</linearGradient>
<linearGradient id="paint1_linear_56_19465" x1="35.0087" y1="61.5463" x2="42.0227" y2="61.5463" gradientUnits="userSpaceOnUse">
<stop stop-color="#FFC671"/>
<stop offset="0.5938" stop-color="#FF7541"/>
<stop offset="1" stop-color="#FF6F3D"/>
</linearGradient>
<linearGradient id="paint2_linear_56_19465" x1="30.9606" y1="68.9907" x2="45.922" y2="68.9907" gradientUnits="userSpaceOnUse">
<stop stop-color="#FFC671"/>
<stop offset="0.5938" stop-color="#FF7541"/>
<stop offset="1" stop-color="#FF6F3D"/>
</linearGradient>
<linearGradient id="paint3_linear_56_19465" x1="20.9627" y1="68.4362" x2="31.8993" y2="68.4362" gradientUnits="userSpaceOnUse">
<stop stop-color="#FFC671"/>
<stop offset="0.5938" stop-color="#FF7541"/>
<stop offset="1" stop-color="#FF6F3D"/>
</linearGradient>
<linearGradient id="paint4_linear_56_19465" x1="57" y1="25" x2="65" y2="25" gradientUnits="userSpaceOnUse">
<stop stop-color="#FF8E3D"/>
<stop offset="0.3567" stop-color="#FF883D"/>
<stop offset="0.8477" stop-color="#FF763D"/>
<stop offset="1" stop-color="#FF6F3D"/>
</linearGradient>
<linearGradient id="paint5_linear_56_19465" x1="133" y1="25" x2="141" y2="25" gradientUnits="userSpaceOnUse">
<stop stop-color="#FF8E3D"/>
<stop offset="0.3567" stop-color="#FF883D"/>
<stop offset="0.8477" stop-color="#FF763D"/>
<stop offset="1" stop-color="#FF6F3D"/>
</linearGradient>
<linearGradient id="paint6_linear_56_19465" x1="128.547" y1="53.7587" x2="140.453" y2="53.7587" gradientUnits="userSpaceOnUse">
<stop stop-color="#FF8E3D"/>
<stop offset="0.3567" stop-color="#FF883D"/>
<stop offset="0.8477" stop-color="#FF763D"/>
<stop offset="1" stop-color="#FF6F3D"/>
</linearGradient>
<linearGradient id="paint7_linear_56_19465" x1="130.841" y1="62.5518" x2="138.159" y2="62.5518" gradientUnits="userSpaceOnUse">
<stop stop-color="#FF8E3D"/>
<stop offset="0.3567" stop-color="#FF883D"/>
<stop offset="0.8477" stop-color="#FF763D"/>
<stop offset="1" stop-color="#FF6F3D"/>
</linearGradient>
<linearGradient id="paint8_linear_56_19465" x1="128.75" y1="66.1724" x2="140.251" y2="66.1724" gradientUnits="userSpaceOnUse">
<stop stop-color="#FF8E3D"/>
<stop offset="0.3567" stop-color="#FF883D"/>
<stop offset="0.8477" stop-color="#FF763D"/>
<stop offset="1" stop-color="#FF6F3D"/>
</linearGradient>
<linearGradient id="paint9_linear_56_19465" x1="209" y1="25" x2="217" y2="25" gradientUnits="userSpaceOnUse">
<stop stop-color="#FF8E3D"/>
<stop offset="0.3567" stop-color="#FF883D"/>
<stop offset="0.8477" stop-color="#FF763D"/>
<stop offset="1" stop-color="#FF6F3D"/>
</linearGradient>
<linearGradient id="paint10_linear_56_19465" x1="187.416" y1="55.2503" x2="194.64" y2="55.2503" gradientUnits="userSpaceOnUse">
<stop stop-color="#FFC671"/>
<stop offset="0.5938" stop-color="#FF7541"/>
<stop offset="1" stop-color="#FF6F3D"/>
</linearGradient>
<linearGradient id="paint11_linear_56_19465" x1="209.234" y1="55.2503" x2="216.458" y2="55.2503" gradientUnits="userSpaceOnUse">
<stop stop-color="#FFC671"/>
<stop offset="0.5938" stop-color="#FF7541"/>
<stop offset="1" stop-color="#FF6F3D"/>
</linearGradient>
<linearGradient id="paint12_linear_56_19465" x1="198.799" y1="55.2503" x2="206.023" y2="55.2503" gradientUnits="userSpaceOnUse">
<stop stop-color="#FFC671"/>
<stop offset="0.5938" stop-color="#FF7541"/>
<stop offset="1" stop-color="#FF6F3D"/>
</linearGradient>
<linearGradient id="paint13_linear_56_19465" x1="194.821" y1="64.24" x2="210" y2="64.24" gradientUnits="userSpaceOnUse">
<stop stop-color="#FFC671"/>
<stop offset="0.5938" stop-color="#FF7541"/>
<stop offset="1" stop-color="#FF6F3D"/>
</linearGradient>
<linearGradient id="paint14_linear_56_19465" x1="183.437" y1="64.24" x2="195.171" y2="64.24" gradientUnits="userSpaceOnUse">
<stop stop-color="#FFC671"/>
<stop offset="0.5938" stop-color="#FF7541"/>
<stop offset="1" stop-color="#FF6F3D"/>
</linearGradient>
<linearGradient id="paint15_linear_56_19465" x1="209.062" y1="64.24" x2="220.435" y2="64.24" gradientUnits="userSpaceOnUse">
<stop stop-color="#FFC671"/>
<stop offset="0.5938" stop-color="#FF7541"/>
<stop offset="1" stop-color="#FF6F3D"/>
</linearGradient>
<linearGradient id="paint16_linear_56_19465" x1="285" y1="25" x2="293" y2="25" gradientUnits="userSpaceOnUse">
<stop stop-color="#FF8E3D"/>
<stop offset="0.3567" stop-color="#FF883D"/>
<stop offset="0.8477" stop-color="#FF763D"/>
<stop offset="1" stop-color="#FF6F3D"/>
</linearGradient>
<linearGradient id="paint17_linear_56_19465" x1="275.841" y1="64.1757" x2="278.924" y2="61.0918" gradientUnits="userSpaceOnUse">
<stop stop-color="#FF8E3D"/>
<stop offset="0.3567" stop-color="#FF883D"/>
<stop offset="0.8477" stop-color="#FF763D"/>
<stop offset="1" stop-color="#FF6F3D"/>
</linearGradient>
<linearGradient id="paint18_linear_56_19465" x1="285.092" y1="54.9243" x2="288.176" y2="51.8404" gradientUnits="userSpaceOnUse">
<stop stop-color="#FF8E3D"/>
<stop offset="0.3567" stop-color="#FF883D"/>
<stop offset="0.8477" stop-color="#FF763D"/>
<stop offset="1" stop-color="#FF6F3D"/>
</linearGradient>
<linearGradient id="paint19_linear_56_19465" x1="278.924" y1="61.092" x2="285.092" y2="54.9243" gradientUnits="userSpaceOnUse">
<stop stop-color="#FF8E3D"/>
<stop offset="0.3567" stop-color="#FF883D"/>
<stop offset="0.8477" stop-color="#FF763D"/>
<stop offset="1" stop-color="#FF6F3D"/>
</linearGradient>
<linearGradient id="paint20_linear_56_19465" x1="288.484" y1="66.9512" x2="290.951" y2="64.4841" gradientUnits="userSpaceOnUse">
<stop stop-color="#FF8E3D"/>
<stop offset="0.3567" stop-color="#FF883D"/>
<stop offset="0.8477" stop-color="#FF763D"/>
<stop offset="1" stop-color="#FF6F3D"/>
</linearGradient>
<clipPath id="clip0_56_19465">
<rect width="56" height="56" fill="white" transform="translate(96 20)"/>
</clipPath>
</defs>
</svg>
